G04 #@! TF.GenerationSoftware,KiCad,Pcbnew,9.0.2+dfsg-1*
G04 #@! TF.CreationDate,2026-10-04T10:34:02-04:00*
G04 #@! TF.ProjectId,panel_a25,70616e65-6c5f-4613-9235-2e6b69636164,rev?*
G04 #@! TF.SameCoordinates,Original*
G04 #@! TF.FileFunction,Other,User*
%FSLAX46Y46*%
G04 Gerber Fmt 4.6, Leading zero omitted, Abs format (unit mm)*
G04 Created by KiCad (PCBNEW 9.0.2+dfsg-1) date 2026-10-04 10:34:02*
%MOMM*%
%LPD*%
G01*
G04 APERTURE LIST*
%ADD10C,0.100000*%
%ADD11C,0.084000*%
G04 APERTURE END LIST*
D10*
X50058000Y-15650000D02*
X50058000Y-9150000D01*
X34177999Y-15650000D02*
X50058000Y-15650000D01*
X25400000Y-16800000D02*
X25400000Y-8000000D01*
X34177999Y-32750001D02*
X34177999Y-39250001D01*
X50058000Y-27450001D02*
X50058000Y-20950001D01*
X25400000Y-19800001D02*
X8000000Y-19800001D01*
X25400000Y-40400001D02*
X25400000Y-31600001D01*
X8000000Y-43400001D02*
X8000000Y-52200001D01*
X34177999Y-39250001D02*
X50058000Y-39250001D01*
X34177999Y-44550001D02*
X34177999Y-51050001D01*
X50058000Y-9150000D02*
X34177999Y-9150000D01*
X25400000Y-52200001D02*
X25400000Y-43400001D01*
X34177999Y-27450001D02*
X50058000Y-27450001D01*
X50058000Y-44550001D02*
X34177999Y-44550001D01*
X8000000Y-19800001D02*
X8000000Y-28600001D01*
X8000000Y-31600001D02*
X8000000Y-40400001D01*
X25400000Y-28600001D02*
X25400000Y-19800001D01*
X34177999Y-20950001D02*
X34177999Y-27450001D01*
X8000000Y-52200001D02*
X25400000Y-52200001D01*
X34177999Y-9150000D02*
X34177999Y-15650000D01*
X25400000Y-31600001D02*
X8000000Y-31600001D01*
X50058000Y-39250001D02*
X50058000Y-32750001D01*
X8000000Y-40400001D02*
X25400000Y-40400001D01*
X8000000Y-28600001D02*
X25400000Y-28600001D01*
X8000000Y-8000000D02*
X8000000Y-16800000D01*
X50058000Y-32750001D02*
X34177999Y-32750001D01*
X8000000Y-16800000D02*
X25400000Y-16800000D01*
X25400000Y-8000000D02*
X8000000Y-8000000D01*
X50058000Y-20950001D02*
X34177999Y-20950001D01*
X50058000Y-51050001D02*
X50058000Y-44550001D01*
X25400000Y-43400001D02*
X8000000Y-43400001D01*
X34177999Y-51050001D02*
X50058000Y-51050001D01*
D11*
X7171427Y-41358918D02*
X6971427Y-41358918D01*
X6971427Y-41673204D02*
X6971427Y-41073204D01*
X6971427Y-41073204D02*
X7257141Y-41073204D01*
X7828570Y-41673204D02*
X7628570Y-41387490D01*
X7485713Y-41673204D02*
X7485713Y-41073204D01*
X7485713Y-41073204D02*
X7714284Y-41073204D01*
X7714284Y-41073204D02*
X7771427Y-41101775D01*
X7771427Y-41101775D02*
X7799998Y-41130347D01*
X7799998Y-41130347D02*
X7828570Y-41187490D01*
X7828570Y-41187490D02*
X7828570Y-41273204D01*
X7828570Y-41273204D02*
X7799998Y-41330347D01*
X7799998Y-41330347D02*
X7771427Y-41358918D01*
X7771427Y-41358918D02*
X7714284Y-41387490D01*
X7714284Y-41387490D02*
X7485713Y-41387490D01*
X8342856Y-41273204D02*
X8342856Y-41673204D01*
X8199998Y-41044633D02*
X8057141Y-41473204D01*
X8057141Y-41473204D02*
X8428570Y-41473204D01*
X9428570Y-41673204D02*
X9085713Y-41673204D01*
X9257142Y-41673204D02*
X9257142Y-41073204D01*
X9257142Y-41073204D02*
X9199999Y-41158918D01*
X9199999Y-41158918D02*
X9142856Y-41216061D01*
X9142856Y-41216061D02*
X9085713Y-41244633D01*
X9685714Y-41616061D02*
X9714285Y-41644633D01*
X9714285Y-41644633D02*
X9685714Y-41673204D01*
X9685714Y-41673204D02*
X9657142Y-41644633D01*
X9657142Y-41644633D02*
X9685714Y-41616061D01*
X9685714Y-41616061D02*
X9685714Y-41673204D01*
X10085713Y-41073204D02*
X10142856Y-41073204D01*
X10142856Y-41073204D02*
X10199999Y-41101775D01*
X10199999Y-41101775D02*
X10228571Y-41130347D01*
X10228571Y-41130347D02*
X10257142Y-41187490D01*
X10257142Y-41187490D02*
X10285713Y-41301775D01*
X10285713Y-41301775D02*
X10285713Y-41444633D01*
X10285713Y-41444633D02*
X10257142Y-41558918D01*
X10257142Y-41558918D02*
X10228571Y-41616061D01*
X10228571Y-41616061D02*
X10199999Y-41644633D01*
X10199999Y-41644633D02*
X10142856Y-41673204D01*
X10142856Y-41673204D02*
X10085713Y-41673204D01*
X10085713Y-41673204D02*
X10028571Y-41644633D01*
X10028571Y-41644633D02*
X9999999Y-41616061D01*
X9999999Y-41616061D02*
X9971428Y-41558918D01*
X9971428Y-41558918D02*
X9942856Y-41444633D01*
X9942856Y-41444633D02*
X9942856Y-41301775D01*
X9942856Y-41301775D02*
X9971428Y-41187490D01*
X9971428Y-41187490D02*
X9999999Y-41130347D01*
X9999999Y-41130347D02*
X10028571Y-41101775D01*
X10028571Y-41101775D02*
X10085713Y-41073204D01*
X10971428Y-41644633D02*
X11028571Y-41673204D01*
X11028571Y-41673204D02*
X11142857Y-41673204D01*
X11142857Y-41673204D02*
X11200000Y-41644633D01*
X11200000Y-41644633D02*
X11228571Y-41587490D01*
X11228571Y-41587490D02*
X11228571Y-41558918D01*
X11228571Y-41558918D02*
X11200000Y-41501775D01*
X11200000Y-41501775D02*
X11142857Y-41473204D01*
X11142857Y-41473204D02*
X11057143Y-41473204D01*
X11057143Y-41473204D02*
X11000000Y-41444633D01*
X11000000Y-41444633D02*
X10971428Y-41387490D01*
X10971428Y-41387490D02*
X10971428Y-41358918D01*
X10971428Y-41358918D02*
X11000000Y-41301775D01*
X11000000Y-41301775D02*
X11057143Y-41273204D01*
X11057143Y-41273204D02*
X11142857Y-41273204D01*
X11142857Y-41273204D02*
X11200000Y-41301775D01*
X11399999Y-41273204D02*
X11628571Y-41273204D01*
X11485714Y-41073204D02*
X11485714Y-41587490D01*
X11485714Y-41587490D02*
X11514285Y-41644633D01*
X11514285Y-41644633D02*
X11571428Y-41673204D01*
X11571428Y-41673204D02*
X11628571Y-41673204D01*
X11828571Y-41673204D02*
X11828571Y-41273204D01*
X11828571Y-41073204D02*
X11799999Y-41101775D01*
X11799999Y-41101775D02*
X11828571Y-41130347D01*
X11828571Y-41130347D02*
X11857142Y-41101775D01*
X11857142Y-41101775D02*
X11828571Y-41073204D01*
X11828571Y-41073204D02*
X11828571Y-41130347D01*
X12028570Y-41273204D02*
X12257142Y-41273204D01*
X12114285Y-41673204D02*
X12114285Y-41158918D01*
X12114285Y-41158918D02*
X12142856Y-41101775D01*
X12142856Y-41101775D02*
X12199999Y-41073204D01*
X12199999Y-41073204D02*
X12257142Y-41073204D01*
X12371427Y-41273204D02*
X12599999Y-41273204D01*
X12457142Y-41673204D02*
X12457142Y-41158918D01*
X12457142Y-41158918D02*
X12485713Y-41101775D01*
X12485713Y-41101775D02*
X12542856Y-41073204D01*
X12542856Y-41073204D02*
X12599999Y-41073204D01*
X13028570Y-41644633D02*
X12971427Y-41673204D01*
X12971427Y-41673204D02*
X12857142Y-41673204D01*
X12857142Y-41673204D02*
X12799999Y-41644633D01*
X12799999Y-41644633D02*
X12771427Y-41587490D01*
X12771427Y-41587490D02*
X12771427Y-41358918D01*
X12771427Y-41358918D02*
X12799999Y-41301775D01*
X12799999Y-41301775D02*
X12857142Y-41273204D01*
X12857142Y-41273204D02*
X12971427Y-41273204D01*
X12971427Y-41273204D02*
X13028570Y-41301775D01*
X13028570Y-41301775D02*
X13057142Y-41358918D01*
X13057142Y-41358918D02*
X13057142Y-41416061D01*
X13057142Y-41416061D02*
X12771427Y-41473204D01*
X13314285Y-41273204D02*
X13314285Y-41673204D01*
X13314285Y-41330347D02*
X13342856Y-41301775D01*
X13342856Y-41301775D02*
X13399999Y-41273204D01*
X13399999Y-41273204D02*
X13485713Y-41273204D01*
X13485713Y-41273204D02*
X13542856Y-41301775D01*
X13542856Y-41301775D02*
X13571428Y-41358918D01*
X13571428Y-41358918D02*
X13571428Y-41673204D01*
X14085713Y-41644633D02*
X14028570Y-41673204D01*
X14028570Y-41673204D02*
X13914285Y-41673204D01*
X13914285Y-41673204D02*
X13857142Y-41644633D01*
X13857142Y-41644633D02*
X13828570Y-41587490D01*
X13828570Y-41587490D02*
X13828570Y-41358918D01*
X13828570Y-41358918D02*
X13857142Y-41301775D01*
X13857142Y-41301775D02*
X13914285Y-41273204D01*
X13914285Y-41273204D02*
X14028570Y-41273204D01*
X14028570Y-41273204D02*
X14085713Y-41301775D01*
X14085713Y-41301775D02*
X14114285Y-41358918D01*
X14114285Y-41358918D02*
X14114285Y-41416061D01*
X14114285Y-41416061D02*
X13828570Y-41473204D01*
X14371428Y-41673204D02*
X14371428Y-41273204D01*
X14371428Y-41387490D02*
X14399999Y-41330347D01*
X14399999Y-41330347D02*
X14428571Y-41301775D01*
X14428571Y-41301775D02*
X14485713Y-41273204D01*
X14485713Y-41273204D02*
X14542856Y-41273204D01*
X15371428Y-41901775D02*
X15342857Y-41873204D01*
X15342857Y-41873204D02*
X15285714Y-41787490D01*
X15285714Y-41787490D02*
X15257143Y-41730347D01*
X15257143Y-41730347D02*
X15228571Y-41644633D01*
X15228571Y-41644633D02*
X15200000Y-41501775D01*
X15200000Y-41501775D02*
X15200000Y-41387490D01*
X15200000Y-41387490D02*
X15228571Y-41244633D01*
X15228571Y-41244633D02*
X15257143Y-41158918D01*
X15257143Y-41158918D02*
X15285714Y-41101775D01*
X15285714Y-41101775D02*
X15342857Y-41016061D01*
X15342857Y-41016061D02*
X15371428Y-40987490D01*
X15800000Y-41358918D02*
X15885714Y-41387490D01*
X15885714Y-41387490D02*
X15914285Y-41416061D01*
X15914285Y-41416061D02*
X15942857Y-41473204D01*
X15942857Y-41473204D02*
X15942857Y-41558918D01*
X15942857Y-41558918D02*
X15914285Y-41616061D01*
X15914285Y-41616061D02*
X15885714Y-41644633D01*
X15885714Y-41644633D02*
X15828571Y-41673204D01*
X15828571Y-41673204D02*
X15600000Y-41673204D01*
X15600000Y-41673204D02*
X15600000Y-41073204D01*
X15600000Y-41073204D02*
X15800000Y-41073204D01*
X15800000Y-41073204D02*
X15857143Y-41101775D01*
X15857143Y-41101775D02*
X15885714Y-41130347D01*
X15885714Y-41130347D02*
X15914285Y-41187490D01*
X15914285Y-41187490D02*
X15914285Y-41244633D01*
X15914285Y-41244633D02*
X15885714Y-41301775D01*
X15885714Y-41301775D02*
X15857143Y-41330347D01*
X15857143Y-41330347D02*
X15800000Y-41358918D01*
X15800000Y-41358918D02*
X15600000Y-41358918D01*
X16228571Y-41644633D02*
X16228571Y-41673204D01*
X16228571Y-41673204D02*
X16200000Y-41730347D01*
X16200000Y-41730347D02*
X16171428Y-41758918D01*
X16942857Y-41673204D02*
X16942857Y-41073204D01*
X16942857Y-41073204D02*
X17171428Y-41073204D01*
X17171428Y-41073204D02*
X17228571Y-41101775D01*
X17228571Y-41101775D02*
X17257142Y-41130347D01*
X17257142Y-41130347D02*
X17285714Y-41187490D01*
X17285714Y-41187490D02*
X17285714Y-41273204D01*
X17285714Y-41273204D02*
X17257142Y-41330347D01*
X17257142Y-41330347D02*
X17228571Y-41358918D01*
X17228571Y-41358918D02*
X17171428Y-41387490D01*
X17171428Y-41387490D02*
X16942857Y-41387490D01*
X17514285Y-41644633D02*
X17600000Y-41673204D01*
X17600000Y-41673204D02*
X17742857Y-41673204D01*
X17742857Y-41673204D02*
X17800000Y-41644633D01*
X17800000Y-41644633D02*
X17828571Y-41616061D01*
X17828571Y-41616061D02*
X17857142Y-41558918D01*
X17857142Y-41558918D02*
X17857142Y-41501775D01*
X17857142Y-41501775D02*
X17828571Y-41444633D01*
X17828571Y-41444633D02*
X17800000Y-41416061D01*
X17800000Y-41416061D02*
X17742857Y-41387490D01*
X17742857Y-41387490D02*
X17628571Y-41358918D01*
X17628571Y-41358918D02*
X17571428Y-41330347D01*
X17571428Y-41330347D02*
X17542857Y-41301775D01*
X17542857Y-41301775D02*
X17514285Y-41244633D01*
X17514285Y-41244633D02*
X17514285Y-41187490D01*
X17514285Y-41187490D02*
X17542857Y-41130347D01*
X17542857Y-41130347D02*
X17571428Y-41101775D01*
X17571428Y-41101775D02*
X17628571Y-41073204D01*
X17628571Y-41073204D02*
X17771428Y-41073204D01*
X17771428Y-41073204D02*
X17857142Y-41101775D01*
X18085714Y-41501775D02*
X18371429Y-41501775D01*
X18028571Y-41673204D02*
X18228571Y-41073204D01*
X18228571Y-41073204D02*
X18428571Y-41673204D01*
X18571429Y-41901775D02*
X18600000Y-41873204D01*
X18600000Y-41873204D02*
X18657143Y-41787490D01*
X18657143Y-41787490D02*
X18685715Y-41730347D01*
X18685715Y-41730347D02*
X18714286Y-41644633D01*
X18714286Y-41644633D02*
X18742857Y-41501775D01*
X18742857Y-41501775D02*
X18742857Y-41387490D01*
X18742857Y-41387490D02*
X18714286Y-41244633D01*
X18714286Y-41244633D02*
X18685715Y-41158918D01*
X18685715Y-41158918D02*
X18657143Y-41101775D01*
X18657143Y-41101775D02*
X18600000Y-41016061D01*
X18600000Y-41016061D02*
X18571429Y-40987490D01*
X19742858Y-41273204D02*
X19742858Y-41673204D01*
X19485715Y-41273204D02*
X19485715Y-41587490D01*
X19485715Y-41587490D02*
X19514286Y-41644633D01*
X19514286Y-41644633D02*
X19571429Y-41673204D01*
X19571429Y-41673204D02*
X19657143Y-41673204D01*
X19657143Y-41673204D02*
X19714286Y-41644633D01*
X19714286Y-41644633D02*
X19742858Y-41616061D01*
X20028572Y-41273204D02*
X20028572Y-41673204D01*
X20028572Y-41330347D02*
X20057143Y-41301775D01*
X20057143Y-41301775D02*
X20114286Y-41273204D01*
X20114286Y-41273204D02*
X20200000Y-41273204D01*
X20200000Y-41273204D02*
X20257143Y-41301775D01*
X20257143Y-41301775D02*
X20285715Y-41358918D01*
X20285715Y-41358918D02*
X20285715Y-41673204D01*
X20828572Y-41673204D02*
X20828572Y-41073204D01*
X20828572Y-41644633D02*
X20771429Y-41673204D01*
X20771429Y-41673204D02*
X20657143Y-41673204D01*
X20657143Y-41673204D02*
X20600000Y-41644633D01*
X20600000Y-41644633D02*
X20571429Y-41616061D01*
X20571429Y-41616061D02*
X20542857Y-41558918D01*
X20542857Y-41558918D02*
X20542857Y-41387490D01*
X20542857Y-41387490D02*
X20571429Y-41330347D01*
X20571429Y-41330347D02*
X20600000Y-41301775D01*
X20600000Y-41301775D02*
X20657143Y-41273204D01*
X20657143Y-41273204D02*
X20771429Y-41273204D01*
X20771429Y-41273204D02*
X20828572Y-41301775D01*
X21342857Y-41644633D02*
X21285714Y-41673204D01*
X21285714Y-41673204D02*
X21171429Y-41673204D01*
X21171429Y-41673204D02*
X21114286Y-41644633D01*
X21114286Y-41644633D02*
X21085714Y-41587490D01*
X21085714Y-41587490D02*
X21085714Y-41358918D01*
X21085714Y-41358918D02*
X21114286Y-41301775D01*
X21114286Y-41301775D02*
X21171429Y-41273204D01*
X21171429Y-41273204D02*
X21285714Y-41273204D01*
X21285714Y-41273204D02*
X21342857Y-41301775D01*
X21342857Y-41301775D02*
X21371429Y-41358918D01*
X21371429Y-41358918D02*
X21371429Y-41416061D01*
X21371429Y-41416061D02*
X21085714Y-41473204D01*
X21628572Y-41673204D02*
X21628572Y-41273204D01*
X21628572Y-41387490D02*
X21657143Y-41330347D01*
X21657143Y-41330347D02*
X21685715Y-41301775D01*
X21685715Y-41301775D02*
X21742857Y-41273204D01*
X21742857Y-41273204D02*
X21800000Y-41273204D01*
X22371429Y-41273204D02*
X22600001Y-41273204D01*
X22457144Y-41073204D02*
X22457144Y-41587490D01*
X22457144Y-41587490D02*
X22485715Y-41644633D01*
X22485715Y-41644633D02*
X22542858Y-41673204D01*
X22542858Y-41673204D02*
X22600001Y-41673204D01*
X22800001Y-41673204D02*
X22800001Y-41073204D01*
X23057144Y-41673204D02*
X23057144Y-41358918D01*
X23057144Y-41358918D02*
X23028572Y-41301775D01*
X23028572Y-41301775D02*
X22971429Y-41273204D01*
X22971429Y-41273204D02*
X22885715Y-41273204D01*
X22885715Y-41273204D02*
X22828572Y-41301775D01*
X22828572Y-41301775D02*
X22800001Y-41330347D01*
X23571429Y-41644633D02*
X23514286Y-41673204D01*
X23514286Y-41673204D02*
X23400001Y-41673204D01*
X23400001Y-41673204D02*
X23342858Y-41644633D01*
X23342858Y-41644633D02*
X23314286Y-41587490D01*
X23314286Y-41587490D02*
X23314286Y-41358918D01*
X23314286Y-41358918D02*
X23342858Y-41301775D01*
X23342858Y-41301775D02*
X23400001Y-41273204D01*
X23400001Y-41273204D02*
X23514286Y-41273204D01*
X23514286Y-41273204D02*
X23571429Y-41301775D01*
X23571429Y-41301775D02*
X23600001Y-41358918D01*
X23600001Y-41358918D02*
X23600001Y-41416061D01*
X23600001Y-41416061D02*
X23314286Y-41473204D01*
X24314287Y-41273204D02*
X24314287Y-41873204D01*
X24314287Y-41301775D02*
X24371430Y-41273204D01*
X24371430Y-41273204D02*
X24485715Y-41273204D01*
X24485715Y-41273204D02*
X24542858Y-41301775D01*
X24542858Y-41301775D02*
X24571430Y-41330347D01*
X24571430Y-41330347D02*
X24600001Y-41387490D01*
X24600001Y-41387490D02*
X24600001Y-41558918D01*
X24600001Y-41558918D02*
X24571430Y-41616061D01*
X24571430Y-41616061D02*
X24542858Y-41644633D01*
X24542858Y-41644633D02*
X24485715Y-41673204D01*
X24485715Y-41673204D02*
X24371430Y-41673204D01*
X24371430Y-41673204D02*
X24314287Y-41644633D01*
X24942858Y-41673204D02*
X24885715Y-41644633D01*
X24885715Y-41644633D02*
X24857144Y-41616061D01*
X24857144Y-41616061D02*
X24828572Y-41558918D01*
X24828572Y-41558918D02*
X24828572Y-41387490D01*
X24828572Y-41387490D02*
X24857144Y-41330347D01*
X24857144Y-41330347D02*
X24885715Y-41301775D01*
X24885715Y-41301775D02*
X24942858Y-41273204D01*
X24942858Y-41273204D02*
X25028572Y-41273204D01*
X25028572Y-41273204D02*
X25085715Y-41301775D01*
X25085715Y-41301775D02*
X25114287Y-41330347D01*
X25114287Y-41330347D02*
X25142858Y-41387490D01*
X25142858Y-41387490D02*
X25142858Y-41558918D01*
X25142858Y-41558918D02*
X25114287Y-41616061D01*
X25114287Y-41616061D02*
X25085715Y-41644633D01*
X25085715Y-41644633D02*
X25028572Y-41673204D01*
X25028572Y-41673204D02*
X24942858Y-41673204D01*
X25400001Y-41673204D02*
X25400001Y-41273204D01*
X25400001Y-41387490D02*
X25428572Y-41330347D01*
X25428572Y-41330347D02*
X25457144Y-41301775D01*
X25457144Y-41301775D02*
X25514286Y-41273204D01*
X25514286Y-41273204D02*
X25571429Y-41273204D01*
X25685715Y-41273204D02*
X25914287Y-41273204D01*
X25771430Y-41073204D02*
X25771430Y-41587490D01*
X25771430Y-41587490D02*
X25800001Y-41644633D01*
X25800001Y-41644633D02*
X25857144Y-41673204D01*
X25857144Y-41673204D02*
X25914287Y-41673204D01*
X30270856Y-40208918D02*
X30070856Y-40208918D01*
X30070856Y-40523204D02*
X30070856Y-39923204D01*
X30070856Y-39923204D02*
X30356570Y-39923204D01*
X30927999Y-40523204D02*
X30727999Y-40237490D01*
X30585142Y-40523204D02*
X30585142Y-39923204D01*
X30585142Y-39923204D02*
X30813713Y-39923204D01*
X30813713Y-39923204D02*
X30870856Y-39951775D01*
X30870856Y-39951775D02*
X30899427Y-39980347D01*
X30899427Y-39980347D02*
X30927999Y-40037490D01*
X30927999Y-40037490D02*
X30927999Y-40123204D01*
X30927999Y-40123204D02*
X30899427Y-40180347D01*
X30899427Y-40180347D02*
X30870856Y-40208918D01*
X30870856Y-40208918D02*
X30813713Y-40237490D01*
X30813713Y-40237490D02*
X30585142Y-40237490D01*
X31442285Y-40123204D02*
X31442285Y-40523204D01*
X31299427Y-39894633D02*
X31156570Y-40323204D01*
X31156570Y-40323204D02*
X31527999Y-40323204D01*
X32327999Y-39923204D02*
X32385142Y-39923204D01*
X32385142Y-39923204D02*
X32442285Y-39951775D01*
X32442285Y-39951775D02*
X32470857Y-39980347D01*
X32470857Y-39980347D02*
X32499428Y-40037490D01*
X32499428Y-40037490D02*
X32527999Y-40151775D01*
X32527999Y-40151775D02*
X32527999Y-40294633D01*
X32527999Y-40294633D02*
X32499428Y-40408918D01*
X32499428Y-40408918D02*
X32470857Y-40466061D01*
X32470857Y-40466061D02*
X32442285Y-40494633D01*
X32442285Y-40494633D02*
X32385142Y-40523204D01*
X32385142Y-40523204D02*
X32327999Y-40523204D01*
X32327999Y-40523204D02*
X32270857Y-40494633D01*
X32270857Y-40494633D02*
X32242285Y-40466061D01*
X32242285Y-40466061D02*
X32213714Y-40408918D01*
X32213714Y-40408918D02*
X32185142Y-40294633D01*
X32185142Y-40294633D02*
X32185142Y-40151775D01*
X32185142Y-40151775D02*
X32213714Y-40037490D01*
X32213714Y-40037490D02*
X32242285Y-39980347D01*
X32242285Y-39980347D02*
X32270857Y-39951775D01*
X32270857Y-39951775D02*
X32327999Y-39923204D01*
X32785143Y-40466061D02*
X32813714Y-40494633D01*
X32813714Y-40494633D02*
X32785143Y-40523204D01*
X32785143Y-40523204D02*
X32756571Y-40494633D01*
X32756571Y-40494633D02*
X32785143Y-40466061D01*
X32785143Y-40466061D02*
X32785143Y-40523204D01*
X33328000Y-39923204D02*
X33213714Y-39923204D01*
X33213714Y-39923204D02*
X33156571Y-39951775D01*
X33156571Y-39951775D02*
X33128000Y-39980347D01*
X33128000Y-39980347D02*
X33070857Y-40066061D01*
X33070857Y-40066061D02*
X33042285Y-40180347D01*
X33042285Y-40180347D02*
X33042285Y-40408918D01*
X33042285Y-40408918D02*
X33070857Y-40466061D01*
X33070857Y-40466061D02*
X33099428Y-40494633D01*
X33099428Y-40494633D02*
X33156571Y-40523204D01*
X33156571Y-40523204D02*
X33270857Y-40523204D01*
X33270857Y-40523204D02*
X33328000Y-40494633D01*
X33328000Y-40494633D02*
X33356571Y-40466061D01*
X33356571Y-40466061D02*
X33385142Y-40408918D01*
X33385142Y-40408918D02*
X33385142Y-40266061D01*
X33385142Y-40266061D02*
X33356571Y-40208918D01*
X33356571Y-40208918D02*
X33328000Y-40180347D01*
X33328000Y-40180347D02*
X33270857Y-40151775D01*
X33270857Y-40151775D02*
X33156571Y-40151775D01*
X33156571Y-40151775D02*
X33099428Y-40180347D01*
X33099428Y-40180347D02*
X33070857Y-40208918D01*
X33070857Y-40208918D02*
X33042285Y-40266061D01*
X34070857Y-40494633D02*
X34128000Y-40523204D01*
X34128000Y-40523204D02*
X34242286Y-40523204D01*
X34242286Y-40523204D02*
X34299429Y-40494633D01*
X34299429Y-40494633D02*
X34328000Y-40437490D01*
X34328000Y-40437490D02*
X34328000Y-40408918D01*
X34328000Y-40408918D02*
X34299429Y-40351775D01*
X34299429Y-40351775D02*
X34242286Y-40323204D01*
X34242286Y-40323204D02*
X34156572Y-40323204D01*
X34156572Y-40323204D02*
X34099429Y-40294633D01*
X34099429Y-40294633D02*
X34070857Y-40237490D01*
X34070857Y-40237490D02*
X34070857Y-40208918D01*
X34070857Y-40208918D02*
X34099429Y-40151775D01*
X34099429Y-40151775D02*
X34156572Y-40123204D01*
X34156572Y-40123204D02*
X34242286Y-40123204D01*
X34242286Y-40123204D02*
X34299429Y-40151775D01*
X34499428Y-40123204D02*
X34728000Y-40123204D01*
X34585143Y-39923204D02*
X34585143Y-40437490D01*
X34585143Y-40437490D02*
X34613714Y-40494633D01*
X34613714Y-40494633D02*
X34670857Y-40523204D01*
X34670857Y-40523204D02*
X34728000Y-40523204D01*
X34928000Y-40523204D02*
X34928000Y-40123204D01*
X34928000Y-39923204D02*
X34899428Y-39951775D01*
X34899428Y-39951775D02*
X34928000Y-39980347D01*
X34928000Y-39980347D02*
X34956571Y-39951775D01*
X34956571Y-39951775D02*
X34928000Y-39923204D01*
X34928000Y-39923204D02*
X34928000Y-39980347D01*
X35127999Y-40123204D02*
X35356571Y-40123204D01*
X35213714Y-40523204D02*
X35213714Y-40008918D01*
X35213714Y-40008918D02*
X35242285Y-39951775D01*
X35242285Y-39951775D02*
X35299428Y-39923204D01*
X35299428Y-39923204D02*
X35356571Y-39923204D01*
X35470856Y-40123204D02*
X35699428Y-40123204D01*
X35556571Y-40523204D02*
X35556571Y-40008918D01*
X35556571Y-40008918D02*
X35585142Y-39951775D01*
X35585142Y-39951775D02*
X35642285Y-39923204D01*
X35642285Y-39923204D02*
X35699428Y-39923204D01*
X36127999Y-40494633D02*
X36070856Y-40523204D01*
X36070856Y-40523204D02*
X35956571Y-40523204D01*
X35956571Y-40523204D02*
X35899428Y-40494633D01*
X35899428Y-40494633D02*
X35870856Y-40437490D01*
X35870856Y-40437490D02*
X35870856Y-40208918D01*
X35870856Y-40208918D02*
X35899428Y-40151775D01*
X35899428Y-40151775D02*
X35956571Y-40123204D01*
X35956571Y-40123204D02*
X36070856Y-40123204D01*
X36070856Y-40123204D02*
X36127999Y-40151775D01*
X36127999Y-40151775D02*
X36156571Y-40208918D01*
X36156571Y-40208918D02*
X36156571Y-40266061D01*
X36156571Y-40266061D02*
X35870856Y-40323204D01*
X36413714Y-40123204D02*
X36413714Y-40523204D01*
X36413714Y-40180347D02*
X36442285Y-40151775D01*
X36442285Y-40151775D02*
X36499428Y-40123204D01*
X36499428Y-40123204D02*
X36585142Y-40123204D01*
X36585142Y-40123204D02*
X36642285Y-40151775D01*
X36642285Y-40151775D02*
X36670857Y-40208918D01*
X36670857Y-40208918D02*
X36670857Y-40523204D01*
X37185142Y-40494633D02*
X37127999Y-40523204D01*
X37127999Y-40523204D02*
X37013714Y-40523204D01*
X37013714Y-40523204D02*
X36956571Y-40494633D01*
X36956571Y-40494633D02*
X36927999Y-40437490D01*
X36927999Y-40437490D02*
X36927999Y-40208918D01*
X36927999Y-40208918D02*
X36956571Y-40151775D01*
X36956571Y-40151775D02*
X37013714Y-40123204D01*
X37013714Y-40123204D02*
X37127999Y-40123204D01*
X37127999Y-40123204D02*
X37185142Y-40151775D01*
X37185142Y-40151775D02*
X37213714Y-40208918D01*
X37213714Y-40208918D02*
X37213714Y-40266061D01*
X37213714Y-40266061D02*
X36927999Y-40323204D01*
X37470857Y-40523204D02*
X37470857Y-40123204D01*
X37470857Y-40237490D02*
X37499428Y-40180347D01*
X37499428Y-40180347D02*
X37528000Y-40151775D01*
X37528000Y-40151775D02*
X37585142Y-40123204D01*
X37585142Y-40123204D02*
X37642285Y-40123204D01*
X38470857Y-40751775D02*
X38442286Y-40723204D01*
X38442286Y-40723204D02*
X38385143Y-40637490D01*
X38385143Y-40637490D02*
X38356572Y-40580347D01*
X38356572Y-40580347D02*
X38328000Y-40494633D01*
X38328000Y-40494633D02*
X38299429Y-40351775D01*
X38299429Y-40351775D02*
X38299429Y-40237490D01*
X38299429Y-40237490D02*
X38328000Y-40094633D01*
X38328000Y-40094633D02*
X38356572Y-40008918D01*
X38356572Y-40008918D02*
X38385143Y-39951775D01*
X38385143Y-39951775D02*
X38442286Y-39866061D01*
X38442286Y-39866061D02*
X38470857Y-39837490D01*
X38899429Y-40208918D02*
X38985143Y-40237490D01*
X38985143Y-40237490D02*
X39013714Y-40266061D01*
X39013714Y-40266061D02*
X39042286Y-40323204D01*
X39042286Y-40323204D02*
X39042286Y-40408918D01*
X39042286Y-40408918D02*
X39013714Y-40466061D01*
X39013714Y-40466061D02*
X38985143Y-40494633D01*
X38985143Y-40494633D02*
X38928000Y-40523204D01*
X38928000Y-40523204D02*
X38699429Y-40523204D01*
X38699429Y-40523204D02*
X38699429Y-39923204D01*
X38699429Y-39923204D02*
X38899429Y-39923204D01*
X38899429Y-39923204D02*
X38956572Y-39951775D01*
X38956572Y-39951775D02*
X38985143Y-39980347D01*
X38985143Y-39980347D02*
X39013714Y-40037490D01*
X39013714Y-40037490D02*
X39013714Y-40094633D01*
X39013714Y-40094633D02*
X38985143Y-40151775D01*
X38985143Y-40151775D02*
X38956572Y-40180347D01*
X38956572Y-40180347D02*
X38899429Y-40208918D01*
X38899429Y-40208918D02*
X38699429Y-40208918D01*
X39242286Y-40751775D02*
X39270857Y-40723204D01*
X39270857Y-40723204D02*
X39328000Y-40637490D01*
X39328000Y-40637490D02*
X39356572Y-40580347D01*
X39356572Y-40580347D02*
X39385143Y-40494633D01*
X39385143Y-40494633D02*
X39413714Y-40351775D01*
X39413714Y-40351775D02*
X39413714Y-40237490D01*
X39413714Y-40237490D02*
X39385143Y-40094633D01*
X39385143Y-40094633D02*
X39356572Y-40008918D01*
X39356572Y-40008918D02*
X39328000Y-39951775D01*
X39328000Y-39951775D02*
X39270857Y-39866061D01*
X39270857Y-39866061D02*
X39242286Y-39837490D01*
X40413715Y-40123204D02*
X40413715Y-40523204D01*
X40156572Y-40123204D02*
X40156572Y-40437490D01*
X40156572Y-40437490D02*
X40185143Y-40494633D01*
X40185143Y-40494633D02*
X40242286Y-40523204D01*
X40242286Y-40523204D02*
X40328000Y-40523204D01*
X40328000Y-40523204D02*
X40385143Y-40494633D01*
X40385143Y-40494633D02*
X40413715Y-40466061D01*
X40699429Y-40123204D02*
X40699429Y-40523204D01*
X40699429Y-40180347D02*
X40728000Y-40151775D01*
X40728000Y-40151775D02*
X40785143Y-40123204D01*
X40785143Y-40123204D02*
X40870857Y-40123204D01*
X40870857Y-40123204D02*
X40928000Y-40151775D01*
X40928000Y-40151775D02*
X40956572Y-40208918D01*
X40956572Y-40208918D02*
X40956572Y-40523204D01*
X41499429Y-40523204D02*
X41499429Y-39923204D01*
X41499429Y-40494633D02*
X41442286Y-40523204D01*
X41442286Y-40523204D02*
X41328000Y-40523204D01*
X41328000Y-40523204D02*
X41270857Y-40494633D01*
X41270857Y-40494633D02*
X41242286Y-40466061D01*
X41242286Y-40466061D02*
X41213714Y-40408918D01*
X41213714Y-40408918D02*
X41213714Y-40237490D01*
X41213714Y-40237490D02*
X41242286Y-40180347D01*
X41242286Y-40180347D02*
X41270857Y-40151775D01*
X41270857Y-40151775D02*
X41328000Y-40123204D01*
X41328000Y-40123204D02*
X41442286Y-40123204D01*
X41442286Y-40123204D02*
X41499429Y-40151775D01*
X42013714Y-40494633D02*
X41956571Y-40523204D01*
X41956571Y-40523204D02*
X41842286Y-40523204D01*
X41842286Y-40523204D02*
X41785143Y-40494633D01*
X41785143Y-40494633D02*
X41756571Y-40437490D01*
X41756571Y-40437490D02*
X41756571Y-40208918D01*
X41756571Y-40208918D02*
X41785143Y-40151775D01*
X41785143Y-40151775D02*
X41842286Y-40123204D01*
X41842286Y-40123204D02*
X41956571Y-40123204D01*
X41956571Y-40123204D02*
X42013714Y-40151775D01*
X42013714Y-40151775D02*
X42042286Y-40208918D01*
X42042286Y-40208918D02*
X42042286Y-40266061D01*
X42042286Y-40266061D02*
X41756571Y-40323204D01*
X42299429Y-40523204D02*
X42299429Y-40123204D01*
X42299429Y-40237490D02*
X42328000Y-40180347D01*
X42328000Y-40180347D02*
X42356572Y-40151775D01*
X42356572Y-40151775D02*
X42413714Y-40123204D01*
X42413714Y-40123204D02*
X42470857Y-40123204D01*
X43042286Y-40123204D02*
X43270858Y-40123204D01*
X43128001Y-39923204D02*
X43128001Y-40437490D01*
X43128001Y-40437490D02*
X43156572Y-40494633D01*
X43156572Y-40494633D02*
X43213715Y-40523204D01*
X43213715Y-40523204D02*
X43270858Y-40523204D01*
X43470858Y-40523204D02*
X43470858Y-39923204D01*
X43728001Y-40523204D02*
X43728001Y-40208918D01*
X43728001Y-40208918D02*
X43699429Y-40151775D01*
X43699429Y-40151775D02*
X43642286Y-40123204D01*
X43642286Y-40123204D02*
X43556572Y-40123204D01*
X43556572Y-40123204D02*
X43499429Y-40151775D01*
X43499429Y-40151775D02*
X43470858Y-40180347D01*
X44242286Y-40494633D02*
X44185143Y-40523204D01*
X44185143Y-40523204D02*
X44070858Y-40523204D01*
X44070858Y-40523204D02*
X44013715Y-40494633D01*
X44013715Y-40494633D02*
X43985143Y-40437490D01*
X43985143Y-40437490D02*
X43985143Y-40208918D01*
X43985143Y-40208918D02*
X44013715Y-40151775D01*
X44013715Y-40151775D02*
X44070858Y-40123204D01*
X44070858Y-40123204D02*
X44185143Y-40123204D01*
X44185143Y-40123204D02*
X44242286Y-40151775D01*
X44242286Y-40151775D02*
X44270858Y-40208918D01*
X44270858Y-40208918D02*
X44270858Y-40266061D01*
X44270858Y-40266061D02*
X43985143Y-40323204D01*
X44985144Y-40523204D02*
X44985144Y-39923204D01*
X45242287Y-40523204D02*
X45242287Y-40208918D01*
X45242287Y-40208918D02*
X45213715Y-40151775D01*
X45213715Y-40151775D02*
X45156572Y-40123204D01*
X45156572Y-40123204D02*
X45070858Y-40123204D01*
X45070858Y-40123204D02*
X45013715Y-40151775D01*
X45013715Y-40151775D02*
X44985144Y-40180347D01*
X45756572Y-40494633D02*
X45699429Y-40523204D01*
X45699429Y-40523204D02*
X45585144Y-40523204D01*
X45585144Y-40523204D02*
X45528001Y-40494633D01*
X45528001Y-40494633D02*
X45499429Y-40437490D01*
X45499429Y-40437490D02*
X45499429Y-40208918D01*
X45499429Y-40208918D02*
X45528001Y-40151775D01*
X45528001Y-40151775D02*
X45585144Y-40123204D01*
X45585144Y-40123204D02*
X45699429Y-40123204D01*
X45699429Y-40123204D02*
X45756572Y-40151775D01*
X45756572Y-40151775D02*
X45785144Y-40208918D01*
X45785144Y-40208918D02*
X45785144Y-40266061D01*
X45785144Y-40266061D02*
X45499429Y-40323204D01*
X46299430Y-40523204D02*
X46299430Y-40208918D01*
X46299430Y-40208918D02*
X46270858Y-40151775D01*
X46270858Y-40151775D02*
X46213715Y-40123204D01*
X46213715Y-40123204D02*
X46099430Y-40123204D01*
X46099430Y-40123204D02*
X46042287Y-40151775D01*
X46299430Y-40494633D02*
X46242287Y-40523204D01*
X46242287Y-40523204D02*
X46099430Y-40523204D01*
X46099430Y-40523204D02*
X46042287Y-40494633D01*
X46042287Y-40494633D02*
X46013715Y-40437490D01*
X46013715Y-40437490D02*
X46013715Y-40380347D01*
X46013715Y-40380347D02*
X46042287Y-40323204D01*
X46042287Y-40323204D02*
X46099430Y-40294633D01*
X46099430Y-40294633D02*
X46242287Y-40294633D01*
X46242287Y-40294633D02*
X46299430Y-40266061D01*
X46842287Y-40523204D02*
X46842287Y-39923204D01*
X46842287Y-40494633D02*
X46785144Y-40523204D01*
X46785144Y-40523204D02*
X46670858Y-40523204D01*
X46670858Y-40523204D02*
X46613715Y-40494633D01*
X46613715Y-40494633D02*
X46585144Y-40466061D01*
X46585144Y-40466061D02*
X46556572Y-40408918D01*
X46556572Y-40408918D02*
X46556572Y-40237490D01*
X46556572Y-40237490D02*
X46585144Y-40180347D01*
X46585144Y-40180347D02*
X46613715Y-40151775D01*
X46613715Y-40151775D02*
X46670858Y-40123204D01*
X46670858Y-40123204D02*
X46785144Y-40123204D01*
X46785144Y-40123204D02*
X46842287Y-40151775D01*
X47356572Y-40494633D02*
X47299429Y-40523204D01*
X47299429Y-40523204D02*
X47185144Y-40523204D01*
X47185144Y-40523204D02*
X47128001Y-40494633D01*
X47128001Y-40494633D02*
X47099429Y-40437490D01*
X47099429Y-40437490D02*
X47099429Y-40208918D01*
X47099429Y-40208918D02*
X47128001Y-40151775D01*
X47128001Y-40151775D02*
X47185144Y-40123204D01*
X47185144Y-40123204D02*
X47299429Y-40123204D01*
X47299429Y-40123204D02*
X47356572Y-40151775D01*
X47356572Y-40151775D02*
X47385144Y-40208918D01*
X47385144Y-40208918D02*
X47385144Y-40266061D01*
X47385144Y-40266061D02*
X47099429Y-40323204D01*
X47642287Y-40523204D02*
X47642287Y-40123204D01*
X47642287Y-40237490D02*
X47670858Y-40180347D01*
X47670858Y-40180347D02*
X47699430Y-40151775D01*
X47699430Y-40151775D02*
X47756572Y-40123204D01*
X47756572Y-40123204D02*
X47813715Y-40123204D01*
X48470859Y-40123204D02*
X48470859Y-40723204D01*
X48470859Y-40151775D02*
X48528002Y-40123204D01*
X48528002Y-40123204D02*
X48642287Y-40123204D01*
X48642287Y-40123204D02*
X48699430Y-40151775D01*
X48699430Y-40151775D02*
X48728002Y-40180347D01*
X48728002Y-40180347D02*
X48756573Y-40237490D01*
X48756573Y-40237490D02*
X48756573Y-40408918D01*
X48756573Y-40408918D02*
X48728002Y-40466061D01*
X48728002Y-40466061D02*
X48699430Y-40494633D01*
X48699430Y-40494633D02*
X48642287Y-40523204D01*
X48642287Y-40523204D02*
X48528002Y-40523204D01*
X48528002Y-40523204D02*
X48470859Y-40494633D01*
X49270859Y-40523204D02*
X49270859Y-40208918D01*
X49270859Y-40208918D02*
X49242287Y-40151775D01*
X49242287Y-40151775D02*
X49185144Y-40123204D01*
X49185144Y-40123204D02*
X49070859Y-40123204D01*
X49070859Y-40123204D02*
X49013716Y-40151775D01*
X49270859Y-40494633D02*
X49213716Y-40523204D01*
X49213716Y-40523204D02*
X49070859Y-40523204D01*
X49070859Y-40523204D02*
X49013716Y-40494633D01*
X49013716Y-40494633D02*
X48985144Y-40437490D01*
X48985144Y-40437490D02*
X48985144Y-40380347D01*
X48985144Y-40380347D02*
X49013716Y-40323204D01*
X49013716Y-40323204D02*
X49070859Y-40294633D01*
X49070859Y-40294633D02*
X49213716Y-40294633D01*
X49213716Y-40294633D02*
X49270859Y-40266061D01*
X49813716Y-40523204D02*
X49813716Y-39923204D01*
X49813716Y-40494633D02*
X49756573Y-40523204D01*
X49756573Y-40523204D02*
X49642287Y-40523204D01*
X49642287Y-40523204D02*
X49585144Y-40494633D01*
X49585144Y-40494633D02*
X49556573Y-40466061D01*
X49556573Y-40466061D02*
X49528001Y-40408918D01*
X49528001Y-40408918D02*
X49528001Y-40237490D01*
X49528001Y-40237490D02*
X49556573Y-40180347D01*
X49556573Y-40180347D02*
X49585144Y-40151775D01*
X49585144Y-40151775D02*
X49642287Y-40123204D01*
X49642287Y-40123204D02*
X49756573Y-40123204D01*
X49756573Y-40123204D02*
X49813716Y-40151775D01*
X50356573Y-40523204D02*
X50356573Y-39923204D01*
X50356573Y-40494633D02*
X50299430Y-40523204D01*
X50299430Y-40523204D02*
X50185144Y-40523204D01*
X50185144Y-40523204D02*
X50128001Y-40494633D01*
X50128001Y-40494633D02*
X50099430Y-40466061D01*
X50099430Y-40466061D02*
X50070858Y-40408918D01*
X50070858Y-40408918D02*
X50070858Y-40237490D01*
X50070858Y-40237490D02*
X50099430Y-40180347D01*
X50099430Y-40180347D02*
X50128001Y-40151775D01*
X50128001Y-40151775D02*
X50185144Y-40123204D01*
X50185144Y-40123204D02*
X50299430Y-40123204D01*
X50299430Y-40123204D02*
X50356573Y-40151775D01*
X50728001Y-40523204D02*
X50670858Y-40494633D01*
X50670858Y-40494633D02*
X50642287Y-40437490D01*
X50642287Y-40437490D02*
X50642287Y-39923204D01*
X51185144Y-40494633D02*
X51128001Y-40523204D01*
X51128001Y-40523204D02*
X51013716Y-40523204D01*
X51013716Y-40523204D02*
X50956573Y-40494633D01*
X50956573Y-40494633D02*
X50928001Y-40437490D01*
X50928001Y-40437490D02*
X50928001Y-40208918D01*
X50928001Y-40208918D02*
X50956573Y-40151775D01*
X50956573Y-40151775D02*
X51013716Y-40123204D01*
X51013716Y-40123204D02*
X51128001Y-40123204D01*
X51128001Y-40123204D02*
X51185144Y-40151775D01*
X51185144Y-40151775D02*
X51213716Y-40208918D01*
X51213716Y-40208918D02*
X51213716Y-40266061D01*
X51213716Y-40266061D02*
X50928001Y-40323204D01*
X30270856Y-28408918D02*
X30070856Y-28408918D01*
X30070856Y-28723204D02*
X30070856Y-28123204D01*
X30070856Y-28123204D02*
X30356570Y-28123204D01*
X30927999Y-28723204D02*
X30727999Y-28437490D01*
X30585142Y-28723204D02*
X30585142Y-28123204D01*
X30585142Y-28123204D02*
X30813713Y-28123204D01*
X30813713Y-28123204D02*
X30870856Y-28151775D01*
X30870856Y-28151775D02*
X30899427Y-28180347D01*
X30899427Y-28180347D02*
X30927999Y-28237490D01*
X30927999Y-28237490D02*
X30927999Y-28323204D01*
X30927999Y-28323204D02*
X30899427Y-28380347D01*
X30899427Y-28380347D02*
X30870856Y-28408918D01*
X30870856Y-28408918D02*
X30813713Y-28437490D01*
X30813713Y-28437490D02*
X30585142Y-28437490D01*
X31442285Y-28323204D02*
X31442285Y-28723204D01*
X31299427Y-28094633D02*
X31156570Y-28523204D01*
X31156570Y-28523204D02*
X31527999Y-28523204D01*
X32327999Y-28123204D02*
X32385142Y-28123204D01*
X32385142Y-28123204D02*
X32442285Y-28151775D01*
X32442285Y-28151775D02*
X32470857Y-28180347D01*
X32470857Y-28180347D02*
X32499428Y-28237490D01*
X32499428Y-28237490D02*
X32527999Y-28351775D01*
X32527999Y-28351775D02*
X32527999Y-28494633D01*
X32527999Y-28494633D02*
X32499428Y-28608918D01*
X32499428Y-28608918D02*
X32470857Y-28666061D01*
X32470857Y-28666061D02*
X32442285Y-28694633D01*
X32442285Y-28694633D02*
X32385142Y-28723204D01*
X32385142Y-28723204D02*
X32327999Y-28723204D01*
X32327999Y-28723204D02*
X32270857Y-28694633D01*
X32270857Y-28694633D02*
X32242285Y-28666061D01*
X32242285Y-28666061D02*
X32213714Y-28608918D01*
X32213714Y-28608918D02*
X32185142Y-28494633D01*
X32185142Y-28494633D02*
X32185142Y-28351775D01*
X32185142Y-28351775D02*
X32213714Y-28237490D01*
X32213714Y-28237490D02*
X32242285Y-28180347D01*
X32242285Y-28180347D02*
X32270857Y-28151775D01*
X32270857Y-28151775D02*
X32327999Y-28123204D01*
X32785143Y-28666061D02*
X32813714Y-28694633D01*
X32813714Y-28694633D02*
X32785143Y-28723204D01*
X32785143Y-28723204D02*
X32756571Y-28694633D01*
X32756571Y-28694633D02*
X32785143Y-28666061D01*
X32785143Y-28666061D02*
X32785143Y-28723204D01*
X33328000Y-28123204D02*
X33213714Y-28123204D01*
X33213714Y-28123204D02*
X33156571Y-28151775D01*
X33156571Y-28151775D02*
X33128000Y-28180347D01*
X33128000Y-28180347D02*
X33070857Y-28266061D01*
X33070857Y-28266061D02*
X33042285Y-28380347D01*
X33042285Y-28380347D02*
X33042285Y-28608918D01*
X33042285Y-28608918D02*
X33070857Y-28666061D01*
X33070857Y-28666061D02*
X33099428Y-28694633D01*
X33099428Y-28694633D02*
X33156571Y-28723204D01*
X33156571Y-28723204D02*
X33270857Y-28723204D01*
X33270857Y-28723204D02*
X33328000Y-28694633D01*
X33328000Y-28694633D02*
X33356571Y-28666061D01*
X33356571Y-28666061D02*
X33385142Y-28608918D01*
X33385142Y-28608918D02*
X33385142Y-28466061D01*
X33385142Y-28466061D02*
X33356571Y-28408918D01*
X33356571Y-28408918D02*
X33328000Y-28380347D01*
X33328000Y-28380347D02*
X33270857Y-28351775D01*
X33270857Y-28351775D02*
X33156571Y-28351775D01*
X33156571Y-28351775D02*
X33099428Y-28380347D01*
X33099428Y-28380347D02*
X33070857Y-28408918D01*
X33070857Y-28408918D02*
X33042285Y-28466061D01*
X34070857Y-28694633D02*
X34128000Y-28723204D01*
X34128000Y-28723204D02*
X34242286Y-28723204D01*
X34242286Y-28723204D02*
X34299429Y-28694633D01*
X34299429Y-28694633D02*
X34328000Y-28637490D01*
X34328000Y-28637490D02*
X34328000Y-28608918D01*
X34328000Y-28608918D02*
X34299429Y-28551775D01*
X34299429Y-28551775D02*
X34242286Y-28523204D01*
X34242286Y-28523204D02*
X34156572Y-28523204D01*
X34156572Y-28523204D02*
X34099429Y-28494633D01*
X34099429Y-28494633D02*
X34070857Y-28437490D01*
X34070857Y-28437490D02*
X34070857Y-28408918D01*
X34070857Y-28408918D02*
X34099429Y-28351775D01*
X34099429Y-28351775D02*
X34156572Y-28323204D01*
X34156572Y-28323204D02*
X34242286Y-28323204D01*
X34242286Y-28323204D02*
X34299429Y-28351775D01*
X34499428Y-28323204D02*
X34728000Y-28323204D01*
X34585143Y-28123204D02*
X34585143Y-28637490D01*
X34585143Y-28637490D02*
X34613714Y-28694633D01*
X34613714Y-28694633D02*
X34670857Y-28723204D01*
X34670857Y-28723204D02*
X34728000Y-28723204D01*
X34928000Y-28723204D02*
X34928000Y-28323204D01*
X34928000Y-28123204D02*
X34899428Y-28151775D01*
X34899428Y-28151775D02*
X34928000Y-28180347D01*
X34928000Y-28180347D02*
X34956571Y-28151775D01*
X34956571Y-28151775D02*
X34928000Y-28123204D01*
X34928000Y-28123204D02*
X34928000Y-28180347D01*
X35127999Y-28323204D02*
X35356571Y-28323204D01*
X35213714Y-28723204D02*
X35213714Y-28208918D01*
X35213714Y-28208918D02*
X35242285Y-28151775D01*
X35242285Y-28151775D02*
X35299428Y-28123204D01*
X35299428Y-28123204D02*
X35356571Y-28123204D01*
X35470856Y-28323204D02*
X35699428Y-28323204D01*
X35556571Y-28723204D02*
X35556571Y-28208918D01*
X35556571Y-28208918D02*
X35585142Y-28151775D01*
X35585142Y-28151775D02*
X35642285Y-28123204D01*
X35642285Y-28123204D02*
X35699428Y-28123204D01*
X36127999Y-28694633D02*
X36070856Y-28723204D01*
X36070856Y-28723204D02*
X35956571Y-28723204D01*
X35956571Y-28723204D02*
X35899428Y-28694633D01*
X35899428Y-28694633D02*
X35870856Y-28637490D01*
X35870856Y-28637490D02*
X35870856Y-28408918D01*
X35870856Y-28408918D02*
X35899428Y-28351775D01*
X35899428Y-28351775D02*
X35956571Y-28323204D01*
X35956571Y-28323204D02*
X36070856Y-28323204D01*
X36070856Y-28323204D02*
X36127999Y-28351775D01*
X36127999Y-28351775D02*
X36156571Y-28408918D01*
X36156571Y-28408918D02*
X36156571Y-28466061D01*
X36156571Y-28466061D02*
X35870856Y-28523204D01*
X36413714Y-28323204D02*
X36413714Y-28723204D01*
X36413714Y-28380347D02*
X36442285Y-28351775D01*
X36442285Y-28351775D02*
X36499428Y-28323204D01*
X36499428Y-28323204D02*
X36585142Y-28323204D01*
X36585142Y-28323204D02*
X36642285Y-28351775D01*
X36642285Y-28351775D02*
X36670857Y-28408918D01*
X36670857Y-28408918D02*
X36670857Y-28723204D01*
X37185142Y-28694633D02*
X37127999Y-28723204D01*
X37127999Y-28723204D02*
X37013714Y-28723204D01*
X37013714Y-28723204D02*
X36956571Y-28694633D01*
X36956571Y-28694633D02*
X36927999Y-28637490D01*
X36927999Y-28637490D02*
X36927999Y-28408918D01*
X36927999Y-28408918D02*
X36956571Y-28351775D01*
X36956571Y-28351775D02*
X37013714Y-28323204D01*
X37013714Y-28323204D02*
X37127999Y-28323204D01*
X37127999Y-28323204D02*
X37185142Y-28351775D01*
X37185142Y-28351775D02*
X37213714Y-28408918D01*
X37213714Y-28408918D02*
X37213714Y-28466061D01*
X37213714Y-28466061D02*
X36927999Y-28523204D01*
X37470857Y-28723204D02*
X37470857Y-28323204D01*
X37470857Y-28437490D02*
X37499428Y-28380347D01*
X37499428Y-28380347D02*
X37528000Y-28351775D01*
X37528000Y-28351775D02*
X37585142Y-28323204D01*
X37585142Y-28323204D02*
X37642285Y-28323204D01*
X38470857Y-28951775D02*
X38442286Y-28923204D01*
X38442286Y-28923204D02*
X38385143Y-28837490D01*
X38385143Y-28837490D02*
X38356572Y-28780347D01*
X38356572Y-28780347D02*
X38328000Y-28694633D01*
X38328000Y-28694633D02*
X38299429Y-28551775D01*
X38299429Y-28551775D02*
X38299429Y-28437490D01*
X38299429Y-28437490D02*
X38328000Y-28294633D01*
X38328000Y-28294633D02*
X38356572Y-28208918D01*
X38356572Y-28208918D02*
X38385143Y-28151775D01*
X38385143Y-28151775D02*
X38442286Y-28066061D01*
X38442286Y-28066061D02*
X38470857Y-28037490D01*
X38899429Y-28408918D02*
X38985143Y-28437490D01*
X38985143Y-28437490D02*
X39013714Y-28466061D01*
X39013714Y-28466061D02*
X39042286Y-28523204D01*
X39042286Y-28523204D02*
X39042286Y-28608918D01*
X39042286Y-28608918D02*
X39013714Y-28666061D01*
X39013714Y-28666061D02*
X38985143Y-28694633D01*
X38985143Y-28694633D02*
X38928000Y-28723204D01*
X38928000Y-28723204D02*
X38699429Y-28723204D01*
X38699429Y-28723204D02*
X38699429Y-28123204D01*
X38699429Y-28123204D02*
X38899429Y-28123204D01*
X38899429Y-28123204D02*
X38956572Y-28151775D01*
X38956572Y-28151775D02*
X38985143Y-28180347D01*
X38985143Y-28180347D02*
X39013714Y-28237490D01*
X39013714Y-28237490D02*
X39013714Y-28294633D01*
X39013714Y-28294633D02*
X38985143Y-28351775D01*
X38985143Y-28351775D02*
X38956572Y-28380347D01*
X38956572Y-28380347D02*
X38899429Y-28408918D01*
X38899429Y-28408918D02*
X38699429Y-28408918D01*
X39242286Y-28951775D02*
X39270857Y-28923204D01*
X39270857Y-28923204D02*
X39328000Y-28837490D01*
X39328000Y-28837490D02*
X39356572Y-28780347D01*
X39356572Y-28780347D02*
X39385143Y-28694633D01*
X39385143Y-28694633D02*
X39413714Y-28551775D01*
X39413714Y-28551775D02*
X39413714Y-28437490D01*
X39413714Y-28437490D02*
X39385143Y-28294633D01*
X39385143Y-28294633D02*
X39356572Y-28208918D01*
X39356572Y-28208918D02*
X39328000Y-28151775D01*
X39328000Y-28151775D02*
X39270857Y-28066061D01*
X39270857Y-28066061D02*
X39242286Y-28037490D01*
X40413715Y-28323204D02*
X40413715Y-28723204D01*
X40156572Y-28323204D02*
X40156572Y-28637490D01*
X40156572Y-28637490D02*
X40185143Y-28694633D01*
X40185143Y-28694633D02*
X40242286Y-28723204D01*
X40242286Y-28723204D02*
X40328000Y-28723204D01*
X40328000Y-28723204D02*
X40385143Y-28694633D01*
X40385143Y-28694633D02*
X40413715Y-28666061D01*
X40699429Y-28323204D02*
X40699429Y-28723204D01*
X40699429Y-28380347D02*
X40728000Y-28351775D01*
X40728000Y-28351775D02*
X40785143Y-28323204D01*
X40785143Y-28323204D02*
X40870857Y-28323204D01*
X40870857Y-28323204D02*
X40928000Y-28351775D01*
X40928000Y-28351775D02*
X40956572Y-28408918D01*
X40956572Y-28408918D02*
X40956572Y-28723204D01*
X41499429Y-28723204D02*
X41499429Y-28123204D01*
X41499429Y-28694633D02*
X41442286Y-28723204D01*
X41442286Y-28723204D02*
X41328000Y-28723204D01*
X41328000Y-28723204D02*
X41270857Y-28694633D01*
X41270857Y-28694633D02*
X41242286Y-28666061D01*
X41242286Y-28666061D02*
X41213714Y-28608918D01*
X41213714Y-28608918D02*
X41213714Y-28437490D01*
X41213714Y-28437490D02*
X41242286Y-28380347D01*
X41242286Y-28380347D02*
X41270857Y-28351775D01*
X41270857Y-28351775D02*
X41328000Y-28323204D01*
X41328000Y-28323204D02*
X41442286Y-28323204D01*
X41442286Y-28323204D02*
X41499429Y-28351775D01*
X42013714Y-28694633D02*
X41956571Y-28723204D01*
X41956571Y-28723204D02*
X41842286Y-28723204D01*
X41842286Y-28723204D02*
X41785143Y-28694633D01*
X41785143Y-28694633D02*
X41756571Y-28637490D01*
X41756571Y-28637490D02*
X41756571Y-28408918D01*
X41756571Y-28408918D02*
X41785143Y-28351775D01*
X41785143Y-28351775D02*
X41842286Y-28323204D01*
X41842286Y-28323204D02*
X41956571Y-28323204D01*
X41956571Y-28323204D02*
X42013714Y-28351775D01*
X42013714Y-28351775D02*
X42042286Y-28408918D01*
X42042286Y-28408918D02*
X42042286Y-28466061D01*
X42042286Y-28466061D02*
X41756571Y-28523204D01*
X42299429Y-28723204D02*
X42299429Y-28323204D01*
X42299429Y-28437490D02*
X42328000Y-28380347D01*
X42328000Y-28380347D02*
X42356572Y-28351775D01*
X42356572Y-28351775D02*
X42413714Y-28323204D01*
X42413714Y-28323204D02*
X42470857Y-28323204D01*
X43042286Y-28323204D02*
X43270858Y-28323204D01*
X43128001Y-28123204D02*
X43128001Y-28637490D01*
X43128001Y-28637490D02*
X43156572Y-28694633D01*
X43156572Y-28694633D02*
X43213715Y-28723204D01*
X43213715Y-28723204D02*
X43270858Y-28723204D01*
X43470858Y-28723204D02*
X43470858Y-28123204D01*
X43728001Y-28723204D02*
X43728001Y-28408918D01*
X43728001Y-28408918D02*
X43699429Y-28351775D01*
X43699429Y-28351775D02*
X43642286Y-28323204D01*
X43642286Y-28323204D02*
X43556572Y-28323204D01*
X43556572Y-28323204D02*
X43499429Y-28351775D01*
X43499429Y-28351775D02*
X43470858Y-28380347D01*
X44242286Y-28694633D02*
X44185143Y-28723204D01*
X44185143Y-28723204D02*
X44070858Y-28723204D01*
X44070858Y-28723204D02*
X44013715Y-28694633D01*
X44013715Y-28694633D02*
X43985143Y-28637490D01*
X43985143Y-28637490D02*
X43985143Y-28408918D01*
X43985143Y-28408918D02*
X44013715Y-28351775D01*
X44013715Y-28351775D02*
X44070858Y-28323204D01*
X44070858Y-28323204D02*
X44185143Y-28323204D01*
X44185143Y-28323204D02*
X44242286Y-28351775D01*
X44242286Y-28351775D02*
X44270858Y-28408918D01*
X44270858Y-28408918D02*
X44270858Y-28466061D01*
X44270858Y-28466061D02*
X43985143Y-28523204D01*
X44985144Y-28723204D02*
X44985144Y-28123204D01*
X45242287Y-28723204D02*
X45242287Y-28408918D01*
X45242287Y-28408918D02*
X45213715Y-28351775D01*
X45213715Y-28351775D02*
X45156572Y-28323204D01*
X45156572Y-28323204D02*
X45070858Y-28323204D01*
X45070858Y-28323204D02*
X45013715Y-28351775D01*
X45013715Y-28351775D02*
X44985144Y-28380347D01*
X45756572Y-28694633D02*
X45699429Y-28723204D01*
X45699429Y-28723204D02*
X45585144Y-28723204D01*
X45585144Y-28723204D02*
X45528001Y-28694633D01*
X45528001Y-28694633D02*
X45499429Y-28637490D01*
X45499429Y-28637490D02*
X45499429Y-28408918D01*
X45499429Y-28408918D02*
X45528001Y-28351775D01*
X45528001Y-28351775D02*
X45585144Y-28323204D01*
X45585144Y-28323204D02*
X45699429Y-28323204D01*
X45699429Y-28323204D02*
X45756572Y-28351775D01*
X45756572Y-28351775D02*
X45785144Y-28408918D01*
X45785144Y-28408918D02*
X45785144Y-28466061D01*
X45785144Y-28466061D02*
X45499429Y-28523204D01*
X46299430Y-28723204D02*
X46299430Y-28408918D01*
X46299430Y-28408918D02*
X46270858Y-28351775D01*
X46270858Y-28351775D02*
X46213715Y-28323204D01*
X46213715Y-28323204D02*
X46099430Y-28323204D01*
X46099430Y-28323204D02*
X46042287Y-28351775D01*
X46299430Y-28694633D02*
X46242287Y-28723204D01*
X46242287Y-28723204D02*
X46099430Y-28723204D01*
X46099430Y-28723204D02*
X46042287Y-28694633D01*
X46042287Y-28694633D02*
X46013715Y-28637490D01*
X46013715Y-28637490D02*
X46013715Y-28580347D01*
X46013715Y-28580347D02*
X46042287Y-28523204D01*
X46042287Y-28523204D02*
X46099430Y-28494633D01*
X46099430Y-28494633D02*
X46242287Y-28494633D01*
X46242287Y-28494633D02*
X46299430Y-28466061D01*
X46842287Y-28723204D02*
X46842287Y-28123204D01*
X46842287Y-28694633D02*
X46785144Y-28723204D01*
X46785144Y-28723204D02*
X46670858Y-28723204D01*
X46670858Y-28723204D02*
X46613715Y-28694633D01*
X46613715Y-28694633D02*
X46585144Y-28666061D01*
X46585144Y-28666061D02*
X46556572Y-28608918D01*
X46556572Y-28608918D02*
X46556572Y-28437490D01*
X46556572Y-28437490D02*
X46585144Y-28380347D01*
X46585144Y-28380347D02*
X46613715Y-28351775D01*
X46613715Y-28351775D02*
X46670858Y-28323204D01*
X46670858Y-28323204D02*
X46785144Y-28323204D01*
X46785144Y-28323204D02*
X46842287Y-28351775D01*
X47356572Y-28694633D02*
X47299429Y-28723204D01*
X47299429Y-28723204D02*
X47185144Y-28723204D01*
X47185144Y-28723204D02*
X47128001Y-28694633D01*
X47128001Y-28694633D02*
X47099429Y-28637490D01*
X47099429Y-28637490D02*
X47099429Y-28408918D01*
X47099429Y-28408918D02*
X47128001Y-28351775D01*
X47128001Y-28351775D02*
X47185144Y-28323204D01*
X47185144Y-28323204D02*
X47299429Y-28323204D01*
X47299429Y-28323204D02*
X47356572Y-28351775D01*
X47356572Y-28351775D02*
X47385144Y-28408918D01*
X47385144Y-28408918D02*
X47385144Y-28466061D01*
X47385144Y-28466061D02*
X47099429Y-28523204D01*
X47642287Y-28723204D02*
X47642287Y-28323204D01*
X47642287Y-28437490D02*
X47670858Y-28380347D01*
X47670858Y-28380347D02*
X47699430Y-28351775D01*
X47699430Y-28351775D02*
X47756572Y-28323204D01*
X47756572Y-28323204D02*
X47813715Y-28323204D01*
X48470859Y-28323204D02*
X48470859Y-28923204D01*
X48470859Y-28351775D02*
X48528002Y-28323204D01*
X48528002Y-28323204D02*
X48642287Y-28323204D01*
X48642287Y-28323204D02*
X48699430Y-28351775D01*
X48699430Y-28351775D02*
X48728002Y-28380347D01*
X48728002Y-28380347D02*
X48756573Y-28437490D01*
X48756573Y-28437490D02*
X48756573Y-28608918D01*
X48756573Y-28608918D02*
X48728002Y-28666061D01*
X48728002Y-28666061D02*
X48699430Y-28694633D01*
X48699430Y-28694633D02*
X48642287Y-28723204D01*
X48642287Y-28723204D02*
X48528002Y-28723204D01*
X48528002Y-28723204D02*
X48470859Y-28694633D01*
X49270859Y-28723204D02*
X49270859Y-28408918D01*
X49270859Y-28408918D02*
X49242287Y-28351775D01*
X49242287Y-28351775D02*
X49185144Y-28323204D01*
X49185144Y-28323204D02*
X49070859Y-28323204D01*
X49070859Y-28323204D02*
X49013716Y-28351775D01*
X49270859Y-28694633D02*
X49213716Y-28723204D01*
X49213716Y-28723204D02*
X49070859Y-28723204D01*
X49070859Y-28723204D02*
X49013716Y-28694633D01*
X49013716Y-28694633D02*
X48985144Y-28637490D01*
X48985144Y-28637490D02*
X48985144Y-28580347D01*
X48985144Y-28580347D02*
X49013716Y-28523204D01*
X49013716Y-28523204D02*
X49070859Y-28494633D01*
X49070859Y-28494633D02*
X49213716Y-28494633D01*
X49213716Y-28494633D02*
X49270859Y-28466061D01*
X49813716Y-28723204D02*
X49813716Y-28123204D01*
X49813716Y-28694633D02*
X49756573Y-28723204D01*
X49756573Y-28723204D02*
X49642287Y-28723204D01*
X49642287Y-28723204D02*
X49585144Y-28694633D01*
X49585144Y-28694633D02*
X49556573Y-28666061D01*
X49556573Y-28666061D02*
X49528001Y-28608918D01*
X49528001Y-28608918D02*
X49528001Y-28437490D01*
X49528001Y-28437490D02*
X49556573Y-28380347D01*
X49556573Y-28380347D02*
X49585144Y-28351775D01*
X49585144Y-28351775D02*
X49642287Y-28323204D01*
X49642287Y-28323204D02*
X49756573Y-28323204D01*
X49756573Y-28323204D02*
X49813716Y-28351775D01*
X50356573Y-28723204D02*
X50356573Y-28123204D01*
X50356573Y-28694633D02*
X50299430Y-28723204D01*
X50299430Y-28723204D02*
X50185144Y-28723204D01*
X50185144Y-28723204D02*
X50128001Y-28694633D01*
X50128001Y-28694633D02*
X50099430Y-28666061D01*
X50099430Y-28666061D02*
X50070858Y-28608918D01*
X50070858Y-28608918D02*
X50070858Y-28437490D01*
X50070858Y-28437490D02*
X50099430Y-28380347D01*
X50099430Y-28380347D02*
X50128001Y-28351775D01*
X50128001Y-28351775D02*
X50185144Y-28323204D01*
X50185144Y-28323204D02*
X50299430Y-28323204D01*
X50299430Y-28323204D02*
X50356573Y-28351775D01*
X50728001Y-28723204D02*
X50670858Y-28694633D01*
X50670858Y-28694633D02*
X50642287Y-28637490D01*
X50642287Y-28637490D02*
X50642287Y-28123204D01*
X51185144Y-28694633D02*
X51128001Y-28723204D01*
X51128001Y-28723204D02*
X51013716Y-28723204D01*
X51013716Y-28723204D02*
X50956573Y-28694633D01*
X50956573Y-28694633D02*
X50928001Y-28637490D01*
X50928001Y-28637490D02*
X50928001Y-28408918D01*
X50928001Y-28408918D02*
X50956573Y-28351775D01*
X50956573Y-28351775D02*
X51013716Y-28323204D01*
X51013716Y-28323204D02*
X51128001Y-28323204D01*
X51128001Y-28323204D02*
X51185144Y-28351775D01*
X51185144Y-28351775D02*
X51213716Y-28408918D01*
X51213716Y-28408918D02*
X51213716Y-28466061D01*
X51213716Y-28466061D02*
X50928001Y-28523204D01*
X30270856Y-16608917D02*
X30070856Y-16608917D01*
X30070856Y-16923203D02*
X30070856Y-16323203D01*
X30070856Y-16323203D02*
X30356570Y-16323203D01*
X30927999Y-16923203D02*
X30727999Y-16637489D01*
X30585142Y-16923203D02*
X30585142Y-16323203D01*
X30585142Y-16323203D02*
X30813713Y-16323203D01*
X30813713Y-16323203D02*
X30870856Y-16351774D01*
X30870856Y-16351774D02*
X30899427Y-16380346D01*
X30899427Y-16380346D02*
X30927999Y-16437489D01*
X30927999Y-16437489D02*
X30927999Y-16523203D01*
X30927999Y-16523203D02*
X30899427Y-16580346D01*
X30899427Y-16580346D02*
X30870856Y-16608917D01*
X30870856Y-16608917D02*
X30813713Y-16637489D01*
X30813713Y-16637489D02*
X30585142Y-16637489D01*
X31442285Y-16523203D02*
X31442285Y-16923203D01*
X31299427Y-16294632D02*
X31156570Y-16723203D01*
X31156570Y-16723203D02*
X31527999Y-16723203D01*
X32327999Y-16323203D02*
X32385142Y-16323203D01*
X32385142Y-16323203D02*
X32442285Y-16351774D01*
X32442285Y-16351774D02*
X32470857Y-16380346D01*
X32470857Y-16380346D02*
X32499428Y-16437489D01*
X32499428Y-16437489D02*
X32527999Y-16551774D01*
X32527999Y-16551774D02*
X32527999Y-16694632D01*
X32527999Y-16694632D02*
X32499428Y-16808917D01*
X32499428Y-16808917D02*
X32470857Y-16866060D01*
X32470857Y-16866060D02*
X32442285Y-16894632D01*
X32442285Y-16894632D02*
X32385142Y-16923203D01*
X32385142Y-16923203D02*
X32327999Y-16923203D01*
X32327999Y-16923203D02*
X32270857Y-16894632D01*
X32270857Y-16894632D02*
X32242285Y-16866060D01*
X32242285Y-16866060D02*
X32213714Y-16808917D01*
X32213714Y-16808917D02*
X32185142Y-16694632D01*
X32185142Y-16694632D02*
X32185142Y-16551774D01*
X32185142Y-16551774D02*
X32213714Y-16437489D01*
X32213714Y-16437489D02*
X32242285Y-16380346D01*
X32242285Y-16380346D02*
X32270857Y-16351774D01*
X32270857Y-16351774D02*
X32327999Y-16323203D01*
X32785143Y-16866060D02*
X32813714Y-16894632D01*
X32813714Y-16894632D02*
X32785143Y-16923203D01*
X32785143Y-16923203D02*
X32756571Y-16894632D01*
X32756571Y-16894632D02*
X32785143Y-16866060D01*
X32785143Y-16866060D02*
X32785143Y-16923203D01*
X33328000Y-16323203D02*
X33213714Y-16323203D01*
X33213714Y-16323203D02*
X33156571Y-16351774D01*
X33156571Y-16351774D02*
X33128000Y-16380346D01*
X33128000Y-16380346D02*
X33070857Y-16466060D01*
X33070857Y-16466060D02*
X33042285Y-16580346D01*
X33042285Y-16580346D02*
X33042285Y-16808917D01*
X33042285Y-16808917D02*
X33070857Y-16866060D01*
X33070857Y-16866060D02*
X33099428Y-16894632D01*
X33099428Y-16894632D02*
X33156571Y-16923203D01*
X33156571Y-16923203D02*
X33270857Y-16923203D01*
X33270857Y-16923203D02*
X33328000Y-16894632D01*
X33328000Y-16894632D02*
X33356571Y-16866060D01*
X33356571Y-16866060D02*
X33385142Y-16808917D01*
X33385142Y-16808917D02*
X33385142Y-16666060D01*
X33385142Y-16666060D02*
X33356571Y-16608917D01*
X33356571Y-16608917D02*
X33328000Y-16580346D01*
X33328000Y-16580346D02*
X33270857Y-16551774D01*
X33270857Y-16551774D02*
X33156571Y-16551774D01*
X33156571Y-16551774D02*
X33099428Y-16580346D01*
X33099428Y-16580346D02*
X33070857Y-16608917D01*
X33070857Y-16608917D02*
X33042285Y-16666060D01*
X34070857Y-16894632D02*
X34128000Y-16923203D01*
X34128000Y-16923203D02*
X34242286Y-16923203D01*
X34242286Y-16923203D02*
X34299429Y-16894632D01*
X34299429Y-16894632D02*
X34328000Y-16837489D01*
X34328000Y-16837489D02*
X34328000Y-16808917D01*
X34328000Y-16808917D02*
X34299429Y-16751774D01*
X34299429Y-16751774D02*
X34242286Y-16723203D01*
X34242286Y-16723203D02*
X34156572Y-16723203D01*
X34156572Y-16723203D02*
X34099429Y-16694632D01*
X34099429Y-16694632D02*
X34070857Y-16637489D01*
X34070857Y-16637489D02*
X34070857Y-16608917D01*
X34070857Y-16608917D02*
X34099429Y-16551774D01*
X34099429Y-16551774D02*
X34156572Y-16523203D01*
X34156572Y-16523203D02*
X34242286Y-16523203D01*
X34242286Y-16523203D02*
X34299429Y-16551774D01*
X34499428Y-16523203D02*
X34728000Y-16523203D01*
X34585143Y-16323203D02*
X34585143Y-16837489D01*
X34585143Y-16837489D02*
X34613714Y-16894632D01*
X34613714Y-16894632D02*
X34670857Y-16923203D01*
X34670857Y-16923203D02*
X34728000Y-16923203D01*
X34928000Y-16923203D02*
X34928000Y-16523203D01*
X34928000Y-16323203D02*
X34899428Y-16351774D01*
X34899428Y-16351774D02*
X34928000Y-16380346D01*
X34928000Y-16380346D02*
X34956571Y-16351774D01*
X34956571Y-16351774D02*
X34928000Y-16323203D01*
X34928000Y-16323203D02*
X34928000Y-16380346D01*
X35127999Y-16523203D02*
X35356571Y-16523203D01*
X35213714Y-16923203D02*
X35213714Y-16408917D01*
X35213714Y-16408917D02*
X35242285Y-16351774D01*
X35242285Y-16351774D02*
X35299428Y-16323203D01*
X35299428Y-16323203D02*
X35356571Y-16323203D01*
X35470856Y-16523203D02*
X35699428Y-16523203D01*
X35556571Y-16923203D02*
X35556571Y-16408917D01*
X35556571Y-16408917D02*
X35585142Y-16351774D01*
X35585142Y-16351774D02*
X35642285Y-16323203D01*
X35642285Y-16323203D02*
X35699428Y-16323203D01*
X36127999Y-16894632D02*
X36070856Y-16923203D01*
X36070856Y-16923203D02*
X35956571Y-16923203D01*
X35956571Y-16923203D02*
X35899428Y-16894632D01*
X35899428Y-16894632D02*
X35870856Y-16837489D01*
X35870856Y-16837489D02*
X35870856Y-16608917D01*
X35870856Y-16608917D02*
X35899428Y-16551774D01*
X35899428Y-16551774D02*
X35956571Y-16523203D01*
X35956571Y-16523203D02*
X36070856Y-16523203D01*
X36070856Y-16523203D02*
X36127999Y-16551774D01*
X36127999Y-16551774D02*
X36156571Y-16608917D01*
X36156571Y-16608917D02*
X36156571Y-16666060D01*
X36156571Y-16666060D02*
X35870856Y-16723203D01*
X36413714Y-16523203D02*
X36413714Y-16923203D01*
X36413714Y-16580346D02*
X36442285Y-16551774D01*
X36442285Y-16551774D02*
X36499428Y-16523203D01*
X36499428Y-16523203D02*
X36585142Y-16523203D01*
X36585142Y-16523203D02*
X36642285Y-16551774D01*
X36642285Y-16551774D02*
X36670857Y-16608917D01*
X36670857Y-16608917D02*
X36670857Y-16923203D01*
X37185142Y-16894632D02*
X37127999Y-16923203D01*
X37127999Y-16923203D02*
X37013714Y-16923203D01*
X37013714Y-16923203D02*
X36956571Y-16894632D01*
X36956571Y-16894632D02*
X36927999Y-16837489D01*
X36927999Y-16837489D02*
X36927999Y-16608917D01*
X36927999Y-16608917D02*
X36956571Y-16551774D01*
X36956571Y-16551774D02*
X37013714Y-16523203D01*
X37013714Y-16523203D02*
X37127999Y-16523203D01*
X37127999Y-16523203D02*
X37185142Y-16551774D01*
X37185142Y-16551774D02*
X37213714Y-16608917D01*
X37213714Y-16608917D02*
X37213714Y-16666060D01*
X37213714Y-16666060D02*
X36927999Y-16723203D01*
X37470857Y-16923203D02*
X37470857Y-16523203D01*
X37470857Y-16637489D02*
X37499428Y-16580346D01*
X37499428Y-16580346D02*
X37528000Y-16551774D01*
X37528000Y-16551774D02*
X37585142Y-16523203D01*
X37585142Y-16523203D02*
X37642285Y-16523203D01*
X38470857Y-17151774D02*
X38442286Y-17123203D01*
X38442286Y-17123203D02*
X38385143Y-17037489D01*
X38385143Y-17037489D02*
X38356572Y-16980346D01*
X38356572Y-16980346D02*
X38328000Y-16894632D01*
X38328000Y-16894632D02*
X38299429Y-16751774D01*
X38299429Y-16751774D02*
X38299429Y-16637489D01*
X38299429Y-16637489D02*
X38328000Y-16494632D01*
X38328000Y-16494632D02*
X38356572Y-16408917D01*
X38356572Y-16408917D02*
X38385143Y-16351774D01*
X38385143Y-16351774D02*
X38442286Y-16266060D01*
X38442286Y-16266060D02*
X38470857Y-16237489D01*
X38899429Y-16608917D02*
X38985143Y-16637489D01*
X38985143Y-16637489D02*
X39013714Y-16666060D01*
X39013714Y-16666060D02*
X39042286Y-16723203D01*
X39042286Y-16723203D02*
X39042286Y-16808917D01*
X39042286Y-16808917D02*
X39013714Y-16866060D01*
X39013714Y-16866060D02*
X38985143Y-16894632D01*
X38985143Y-16894632D02*
X38928000Y-16923203D01*
X38928000Y-16923203D02*
X38699429Y-16923203D01*
X38699429Y-16923203D02*
X38699429Y-16323203D01*
X38699429Y-16323203D02*
X38899429Y-16323203D01*
X38899429Y-16323203D02*
X38956572Y-16351774D01*
X38956572Y-16351774D02*
X38985143Y-16380346D01*
X38985143Y-16380346D02*
X39013714Y-16437489D01*
X39013714Y-16437489D02*
X39013714Y-16494632D01*
X39013714Y-16494632D02*
X38985143Y-16551774D01*
X38985143Y-16551774D02*
X38956572Y-16580346D01*
X38956572Y-16580346D02*
X38899429Y-16608917D01*
X38899429Y-16608917D02*
X38699429Y-16608917D01*
X39242286Y-17151774D02*
X39270857Y-17123203D01*
X39270857Y-17123203D02*
X39328000Y-17037489D01*
X39328000Y-17037489D02*
X39356572Y-16980346D01*
X39356572Y-16980346D02*
X39385143Y-16894632D01*
X39385143Y-16894632D02*
X39413714Y-16751774D01*
X39413714Y-16751774D02*
X39413714Y-16637489D01*
X39413714Y-16637489D02*
X39385143Y-16494632D01*
X39385143Y-16494632D02*
X39356572Y-16408917D01*
X39356572Y-16408917D02*
X39328000Y-16351774D01*
X39328000Y-16351774D02*
X39270857Y-16266060D01*
X39270857Y-16266060D02*
X39242286Y-16237489D01*
X40413715Y-16523203D02*
X40413715Y-16923203D01*
X40156572Y-16523203D02*
X40156572Y-16837489D01*
X40156572Y-16837489D02*
X40185143Y-16894632D01*
X40185143Y-16894632D02*
X40242286Y-16923203D01*
X40242286Y-16923203D02*
X40328000Y-16923203D01*
X40328000Y-16923203D02*
X40385143Y-16894632D01*
X40385143Y-16894632D02*
X40413715Y-16866060D01*
X40699429Y-16523203D02*
X40699429Y-16923203D01*
X40699429Y-16580346D02*
X40728000Y-16551774D01*
X40728000Y-16551774D02*
X40785143Y-16523203D01*
X40785143Y-16523203D02*
X40870857Y-16523203D01*
X40870857Y-16523203D02*
X40928000Y-16551774D01*
X40928000Y-16551774D02*
X40956572Y-16608917D01*
X40956572Y-16608917D02*
X40956572Y-16923203D01*
X41499429Y-16923203D02*
X41499429Y-16323203D01*
X41499429Y-16894632D02*
X41442286Y-16923203D01*
X41442286Y-16923203D02*
X41328000Y-16923203D01*
X41328000Y-16923203D02*
X41270857Y-16894632D01*
X41270857Y-16894632D02*
X41242286Y-16866060D01*
X41242286Y-16866060D02*
X41213714Y-16808917D01*
X41213714Y-16808917D02*
X41213714Y-16637489D01*
X41213714Y-16637489D02*
X41242286Y-16580346D01*
X41242286Y-16580346D02*
X41270857Y-16551774D01*
X41270857Y-16551774D02*
X41328000Y-16523203D01*
X41328000Y-16523203D02*
X41442286Y-16523203D01*
X41442286Y-16523203D02*
X41499429Y-16551774D01*
X42013714Y-16894632D02*
X41956571Y-16923203D01*
X41956571Y-16923203D02*
X41842286Y-16923203D01*
X41842286Y-16923203D02*
X41785143Y-16894632D01*
X41785143Y-16894632D02*
X41756571Y-16837489D01*
X41756571Y-16837489D02*
X41756571Y-16608917D01*
X41756571Y-16608917D02*
X41785143Y-16551774D01*
X41785143Y-16551774D02*
X41842286Y-16523203D01*
X41842286Y-16523203D02*
X41956571Y-16523203D01*
X41956571Y-16523203D02*
X42013714Y-16551774D01*
X42013714Y-16551774D02*
X42042286Y-16608917D01*
X42042286Y-16608917D02*
X42042286Y-16666060D01*
X42042286Y-16666060D02*
X41756571Y-16723203D01*
X42299429Y-16923203D02*
X42299429Y-16523203D01*
X42299429Y-16637489D02*
X42328000Y-16580346D01*
X42328000Y-16580346D02*
X42356572Y-16551774D01*
X42356572Y-16551774D02*
X42413714Y-16523203D01*
X42413714Y-16523203D02*
X42470857Y-16523203D01*
X43042286Y-16523203D02*
X43270858Y-16523203D01*
X43128001Y-16323203D02*
X43128001Y-16837489D01*
X43128001Y-16837489D02*
X43156572Y-16894632D01*
X43156572Y-16894632D02*
X43213715Y-16923203D01*
X43213715Y-16923203D02*
X43270858Y-16923203D01*
X43470858Y-16923203D02*
X43470858Y-16323203D01*
X43728001Y-16923203D02*
X43728001Y-16608917D01*
X43728001Y-16608917D02*
X43699429Y-16551774D01*
X43699429Y-16551774D02*
X43642286Y-16523203D01*
X43642286Y-16523203D02*
X43556572Y-16523203D01*
X43556572Y-16523203D02*
X43499429Y-16551774D01*
X43499429Y-16551774D02*
X43470858Y-16580346D01*
X44242286Y-16894632D02*
X44185143Y-16923203D01*
X44185143Y-16923203D02*
X44070858Y-16923203D01*
X44070858Y-16923203D02*
X44013715Y-16894632D01*
X44013715Y-16894632D02*
X43985143Y-16837489D01*
X43985143Y-16837489D02*
X43985143Y-16608917D01*
X43985143Y-16608917D02*
X44013715Y-16551774D01*
X44013715Y-16551774D02*
X44070858Y-16523203D01*
X44070858Y-16523203D02*
X44185143Y-16523203D01*
X44185143Y-16523203D02*
X44242286Y-16551774D01*
X44242286Y-16551774D02*
X44270858Y-16608917D01*
X44270858Y-16608917D02*
X44270858Y-16666060D01*
X44270858Y-16666060D02*
X43985143Y-16723203D01*
X44985144Y-16923203D02*
X44985144Y-16323203D01*
X45242287Y-16923203D02*
X45242287Y-16608917D01*
X45242287Y-16608917D02*
X45213715Y-16551774D01*
X45213715Y-16551774D02*
X45156572Y-16523203D01*
X45156572Y-16523203D02*
X45070858Y-16523203D01*
X45070858Y-16523203D02*
X45013715Y-16551774D01*
X45013715Y-16551774D02*
X44985144Y-16580346D01*
X45756572Y-16894632D02*
X45699429Y-16923203D01*
X45699429Y-16923203D02*
X45585144Y-16923203D01*
X45585144Y-16923203D02*
X45528001Y-16894632D01*
X45528001Y-16894632D02*
X45499429Y-16837489D01*
X45499429Y-16837489D02*
X45499429Y-16608917D01*
X45499429Y-16608917D02*
X45528001Y-16551774D01*
X45528001Y-16551774D02*
X45585144Y-16523203D01*
X45585144Y-16523203D02*
X45699429Y-16523203D01*
X45699429Y-16523203D02*
X45756572Y-16551774D01*
X45756572Y-16551774D02*
X45785144Y-16608917D01*
X45785144Y-16608917D02*
X45785144Y-16666060D01*
X45785144Y-16666060D02*
X45499429Y-16723203D01*
X46299430Y-16923203D02*
X46299430Y-16608917D01*
X46299430Y-16608917D02*
X46270858Y-16551774D01*
X46270858Y-16551774D02*
X46213715Y-16523203D01*
X46213715Y-16523203D02*
X46099430Y-16523203D01*
X46099430Y-16523203D02*
X46042287Y-16551774D01*
X46299430Y-16894632D02*
X46242287Y-16923203D01*
X46242287Y-16923203D02*
X46099430Y-16923203D01*
X46099430Y-16923203D02*
X46042287Y-16894632D01*
X46042287Y-16894632D02*
X46013715Y-16837489D01*
X46013715Y-16837489D02*
X46013715Y-16780346D01*
X46013715Y-16780346D02*
X46042287Y-16723203D01*
X46042287Y-16723203D02*
X46099430Y-16694632D01*
X46099430Y-16694632D02*
X46242287Y-16694632D01*
X46242287Y-16694632D02*
X46299430Y-16666060D01*
X46842287Y-16923203D02*
X46842287Y-16323203D01*
X46842287Y-16894632D02*
X46785144Y-16923203D01*
X46785144Y-16923203D02*
X46670858Y-16923203D01*
X46670858Y-16923203D02*
X46613715Y-16894632D01*
X46613715Y-16894632D02*
X46585144Y-16866060D01*
X46585144Y-16866060D02*
X46556572Y-16808917D01*
X46556572Y-16808917D02*
X46556572Y-16637489D01*
X46556572Y-16637489D02*
X46585144Y-16580346D01*
X46585144Y-16580346D02*
X46613715Y-16551774D01*
X46613715Y-16551774D02*
X46670858Y-16523203D01*
X46670858Y-16523203D02*
X46785144Y-16523203D01*
X46785144Y-16523203D02*
X46842287Y-16551774D01*
X47356572Y-16894632D02*
X47299429Y-16923203D01*
X47299429Y-16923203D02*
X47185144Y-16923203D01*
X47185144Y-16923203D02*
X47128001Y-16894632D01*
X47128001Y-16894632D02*
X47099429Y-16837489D01*
X47099429Y-16837489D02*
X47099429Y-16608917D01*
X47099429Y-16608917D02*
X47128001Y-16551774D01*
X47128001Y-16551774D02*
X47185144Y-16523203D01*
X47185144Y-16523203D02*
X47299429Y-16523203D01*
X47299429Y-16523203D02*
X47356572Y-16551774D01*
X47356572Y-16551774D02*
X47385144Y-16608917D01*
X47385144Y-16608917D02*
X47385144Y-16666060D01*
X47385144Y-16666060D02*
X47099429Y-16723203D01*
X47642287Y-16923203D02*
X47642287Y-16523203D01*
X47642287Y-16637489D02*
X47670858Y-16580346D01*
X47670858Y-16580346D02*
X47699430Y-16551774D01*
X47699430Y-16551774D02*
X47756572Y-16523203D01*
X47756572Y-16523203D02*
X47813715Y-16523203D01*
X48470859Y-16523203D02*
X48470859Y-17123203D01*
X48470859Y-16551774D02*
X48528002Y-16523203D01*
X48528002Y-16523203D02*
X48642287Y-16523203D01*
X48642287Y-16523203D02*
X48699430Y-16551774D01*
X48699430Y-16551774D02*
X48728002Y-16580346D01*
X48728002Y-16580346D02*
X48756573Y-16637489D01*
X48756573Y-16637489D02*
X48756573Y-16808917D01*
X48756573Y-16808917D02*
X48728002Y-16866060D01*
X48728002Y-16866060D02*
X48699430Y-16894632D01*
X48699430Y-16894632D02*
X48642287Y-16923203D01*
X48642287Y-16923203D02*
X48528002Y-16923203D01*
X48528002Y-16923203D02*
X48470859Y-16894632D01*
X49270859Y-16923203D02*
X49270859Y-16608917D01*
X49270859Y-16608917D02*
X49242287Y-16551774D01*
X49242287Y-16551774D02*
X49185144Y-16523203D01*
X49185144Y-16523203D02*
X49070859Y-16523203D01*
X49070859Y-16523203D02*
X49013716Y-16551774D01*
X49270859Y-16894632D02*
X49213716Y-16923203D01*
X49213716Y-16923203D02*
X49070859Y-16923203D01*
X49070859Y-16923203D02*
X49013716Y-16894632D01*
X49013716Y-16894632D02*
X48985144Y-16837489D01*
X48985144Y-16837489D02*
X48985144Y-16780346D01*
X48985144Y-16780346D02*
X49013716Y-16723203D01*
X49013716Y-16723203D02*
X49070859Y-16694632D01*
X49070859Y-16694632D02*
X49213716Y-16694632D01*
X49213716Y-16694632D02*
X49270859Y-16666060D01*
X49813716Y-16923203D02*
X49813716Y-16323203D01*
X49813716Y-16894632D02*
X49756573Y-16923203D01*
X49756573Y-16923203D02*
X49642287Y-16923203D01*
X49642287Y-16923203D02*
X49585144Y-16894632D01*
X49585144Y-16894632D02*
X49556573Y-16866060D01*
X49556573Y-16866060D02*
X49528001Y-16808917D01*
X49528001Y-16808917D02*
X49528001Y-16637489D01*
X49528001Y-16637489D02*
X49556573Y-16580346D01*
X49556573Y-16580346D02*
X49585144Y-16551774D01*
X49585144Y-16551774D02*
X49642287Y-16523203D01*
X49642287Y-16523203D02*
X49756573Y-16523203D01*
X49756573Y-16523203D02*
X49813716Y-16551774D01*
X50356573Y-16923203D02*
X50356573Y-16323203D01*
X50356573Y-16894632D02*
X50299430Y-16923203D01*
X50299430Y-16923203D02*
X50185144Y-16923203D01*
X50185144Y-16923203D02*
X50128001Y-16894632D01*
X50128001Y-16894632D02*
X50099430Y-16866060D01*
X50099430Y-16866060D02*
X50070858Y-16808917D01*
X50070858Y-16808917D02*
X50070858Y-16637489D01*
X50070858Y-16637489D02*
X50099430Y-16580346D01*
X50099430Y-16580346D02*
X50128001Y-16551774D01*
X50128001Y-16551774D02*
X50185144Y-16523203D01*
X50185144Y-16523203D02*
X50299430Y-16523203D01*
X50299430Y-16523203D02*
X50356573Y-16551774D01*
X50728001Y-16923203D02*
X50670858Y-16894632D01*
X50670858Y-16894632D02*
X50642287Y-16837489D01*
X50642287Y-16837489D02*
X50642287Y-16323203D01*
X51185144Y-16894632D02*
X51128001Y-16923203D01*
X51128001Y-16923203D02*
X51013716Y-16923203D01*
X51013716Y-16923203D02*
X50956573Y-16894632D01*
X50956573Y-16894632D02*
X50928001Y-16837489D01*
X50928001Y-16837489D02*
X50928001Y-16608917D01*
X50928001Y-16608917D02*
X50956573Y-16551774D01*
X50956573Y-16551774D02*
X51013716Y-16523203D01*
X51013716Y-16523203D02*
X51128001Y-16523203D01*
X51128001Y-16523203D02*
X51185144Y-16551774D01*
X51185144Y-16551774D02*
X51213716Y-16608917D01*
X51213716Y-16608917D02*
X51213716Y-16666060D01*
X51213716Y-16666060D02*
X50928001Y-16723203D01*
X30270856Y-52008918D02*
X30070856Y-52008918D01*
X30070856Y-52323204D02*
X30070856Y-51723204D01*
X30070856Y-51723204D02*
X30356570Y-51723204D01*
X30927999Y-52323204D02*
X30727999Y-52037490D01*
X30585142Y-52323204D02*
X30585142Y-51723204D01*
X30585142Y-51723204D02*
X30813713Y-51723204D01*
X30813713Y-51723204D02*
X30870856Y-51751775D01*
X30870856Y-51751775D02*
X30899427Y-51780347D01*
X30899427Y-51780347D02*
X30927999Y-51837490D01*
X30927999Y-51837490D02*
X30927999Y-51923204D01*
X30927999Y-51923204D02*
X30899427Y-51980347D01*
X30899427Y-51980347D02*
X30870856Y-52008918D01*
X30870856Y-52008918D02*
X30813713Y-52037490D01*
X30813713Y-52037490D02*
X30585142Y-52037490D01*
X31442285Y-51923204D02*
X31442285Y-52323204D01*
X31299427Y-51694633D02*
X31156570Y-52123204D01*
X31156570Y-52123204D02*
X31527999Y-52123204D01*
X32327999Y-51723204D02*
X32385142Y-51723204D01*
X32385142Y-51723204D02*
X32442285Y-51751775D01*
X32442285Y-51751775D02*
X32470857Y-51780347D01*
X32470857Y-51780347D02*
X32499428Y-51837490D01*
X32499428Y-51837490D02*
X32527999Y-51951775D01*
X32527999Y-51951775D02*
X32527999Y-52094633D01*
X32527999Y-52094633D02*
X32499428Y-52208918D01*
X32499428Y-52208918D02*
X32470857Y-52266061D01*
X32470857Y-52266061D02*
X32442285Y-52294633D01*
X32442285Y-52294633D02*
X32385142Y-52323204D01*
X32385142Y-52323204D02*
X32327999Y-52323204D01*
X32327999Y-52323204D02*
X32270857Y-52294633D01*
X32270857Y-52294633D02*
X32242285Y-52266061D01*
X32242285Y-52266061D02*
X32213714Y-52208918D01*
X32213714Y-52208918D02*
X32185142Y-52094633D01*
X32185142Y-52094633D02*
X32185142Y-51951775D01*
X32185142Y-51951775D02*
X32213714Y-51837490D01*
X32213714Y-51837490D02*
X32242285Y-51780347D01*
X32242285Y-51780347D02*
X32270857Y-51751775D01*
X32270857Y-51751775D02*
X32327999Y-51723204D01*
X32785143Y-52266061D02*
X32813714Y-52294633D01*
X32813714Y-52294633D02*
X32785143Y-52323204D01*
X32785143Y-52323204D02*
X32756571Y-52294633D01*
X32756571Y-52294633D02*
X32785143Y-52266061D01*
X32785143Y-52266061D02*
X32785143Y-52323204D01*
X33328000Y-51723204D02*
X33213714Y-51723204D01*
X33213714Y-51723204D02*
X33156571Y-51751775D01*
X33156571Y-51751775D02*
X33128000Y-51780347D01*
X33128000Y-51780347D02*
X33070857Y-51866061D01*
X33070857Y-51866061D02*
X33042285Y-51980347D01*
X33042285Y-51980347D02*
X33042285Y-52208918D01*
X33042285Y-52208918D02*
X33070857Y-52266061D01*
X33070857Y-52266061D02*
X33099428Y-52294633D01*
X33099428Y-52294633D02*
X33156571Y-52323204D01*
X33156571Y-52323204D02*
X33270857Y-52323204D01*
X33270857Y-52323204D02*
X33328000Y-52294633D01*
X33328000Y-52294633D02*
X33356571Y-52266061D01*
X33356571Y-52266061D02*
X33385142Y-52208918D01*
X33385142Y-52208918D02*
X33385142Y-52066061D01*
X33385142Y-52066061D02*
X33356571Y-52008918D01*
X33356571Y-52008918D02*
X33328000Y-51980347D01*
X33328000Y-51980347D02*
X33270857Y-51951775D01*
X33270857Y-51951775D02*
X33156571Y-51951775D01*
X33156571Y-51951775D02*
X33099428Y-51980347D01*
X33099428Y-51980347D02*
X33070857Y-52008918D01*
X33070857Y-52008918D02*
X33042285Y-52066061D01*
X34070857Y-52294633D02*
X34128000Y-52323204D01*
X34128000Y-52323204D02*
X34242286Y-52323204D01*
X34242286Y-52323204D02*
X34299429Y-52294633D01*
X34299429Y-52294633D02*
X34328000Y-52237490D01*
X34328000Y-52237490D02*
X34328000Y-52208918D01*
X34328000Y-52208918D02*
X34299429Y-52151775D01*
X34299429Y-52151775D02*
X34242286Y-52123204D01*
X34242286Y-52123204D02*
X34156572Y-52123204D01*
X34156572Y-52123204D02*
X34099429Y-52094633D01*
X34099429Y-52094633D02*
X34070857Y-52037490D01*
X34070857Y-52037490D02*
X34070857Y-52008918D01*
X34070857Y-52008918D02*
X34099429Y-51951775D01*
X34099429Y-51951775D02*
X34156572Y-51923204D01*
X34156572Y-51923204D02*
X34242286Y-51923204D01*
X34242286Y-51923204D02*
X34299429Y-51951775D01*
X34499428Y-51923204D02*
X34728000Y-51923204D01*
X34585143Y-51723204D02*
X34585143Y-52237490D01*
X34585143Y-52237490D02*
X34613714Y-52294633D01*
X34613714Y-52294633D02*
X34670857Y-52323204D01*
X34670857Y-52323204D02*
X34728000Y-52323204D01*
X34928000Y-52323204D02*
X34928000Y-51923204D01*
X34928000Y-51723204D02*
X34899428Y-51751775D01*
X34899428Y-51751775D02*
X34928000Y-51780347D01*
X34928000Y-51780347D02*
X34956571Y-51751775D01*
X34956571Y-51751775D02*
X34928000Y-51723204D01*
X34928000Y-51723204D02*
X34928000Y-51780347D01*
X35127999Y-51923204D02*
X35356571Y-51923204D01*
X35213714Y-52323204D02*
X35213714Y-51808918D01*
X35213714Y-51808918D02*
X35242285Y-51751775D01*
X35242285Y-51751775D02*
X35299428Y-51723204D01*
X35299428Y-51723204D02*
X35356571Y-51723204D01*
X35470856Y-51923204D02*
X35699428Y-51923204D01*
X35556571Y-52323204D02*
X35556571Y-51808918D01*
X35556571Y-51808918D02*
X35585142Y-51751775D01*
X35585142Y-51751775D02*
X35642285Y-51723204D01*
X35642285Y-51723204D02*
X35699428Y-51723204D01*
X36127999Y-52294633D02*
X36070856Y-52323204D01*
X36070856Y-52323204D02*
X35956571Y-52323204D01*
X35956571Y-52323204D02*
X35899428Y-52294633D01*
X35899428Y-52294633D02*
X35870856Y-52237490D01*
X35870856Y-52237490D02*
X35870856Y-52008918D01*
X35870856Y-52008918D02*
X35899428Y-51951775D01*
X35899428Y-51951775D02*
X35956571Y-51923204D01*
X35956571Y-51923204D02*
X36070856Y-51923204D01*
X36070856Y-51923204D02*
X36127999Y-51951775D01*
X36127999Y-51951775D02*
X36156571Y-52008918D01*
X36156571Y-52008918D02*
X36156571Y-52066061D01*
X36156571Y-52066061D02*
X35870856Y-52123204D01*
X36413714Y-51923204D02*
X36413714Y-52323204D01*
X36413714Y-51980347D02*
X36442285Y-51951775D01*
X36442285Y-51951775D02*
X36499428Y-51923204D01*
X36499428Y-51923204D02*
X36585142Y-51923204D01*
X36585142Y-51923204D02*
X36642285Y-51951775D01*
X36642285Y-51951775D02*
X36670857Y-52008918D01*
X36670857Y-52008918D02*
X36670857Y-52323204D01*
X37185142Y-52294633D02*
X37127999Y-52323204D01*
X37127999Y-52323204D02*
X37013714Y-52323204D01*
X37013714Y-52323204D02*
X36956571Y-52294633D01*
X36956571Y-52294633D02*
X36927999Y-52237490D01*
X36927999Y-52237490D02*
X36927999Y-52008918D01*
X36927999Y-52008918D02*
X36956571Y-51951775D01*
X36956571Y-51951775D02*
X37013714Y-51923204D01*
X37013714Y-51923204D02*
X37127999Y-51923204D01*
X37127999Y-51923204D02*
X37185142Y-51951775D01*
X37185142Y-51951775D02*
X37213714Y-52008918D01*
X37213714Y-52008918D02*
X37213714Y-52066061D01*
X37213714Y-52066061D02*
X36927999Y-52123204D01*
X37470857Y-52323204D02*
X37470857Y-51923204D01*
X37470857Y-52037490D02*
X37499428Y-51980347D01*
X37499428Y-51980347D02*
X37528000Y-51951775D01*
X37528000Y-51951775D02*
X37585142Y-51923204D01*
X37585142Y-51923204D02*
X37642285Y-51923204D01*
X38470857Y-52551775D02*
X38442286Y-52523204D01*
X38442286Y-52523204D02*
X38385143Y-52437490D01*
X38385143Y-52437490D02*
X38356572Y-52380347D01*
X38356572Y-52380347D02*
X38328000Y-52294633D01*
X38328000Y-52294633D02*
X38299429Y-52151775D01*
X38299429Y-52151775D02*
X38299429Y-52037490D01*
X38299429Y-52037490D02*
X38328000Y-51894633D01*
X38328000Y-51894633D02*
X38356572Y-51808918D01*
X38356572Y-51808918D02*
X38385143Y-51751775D01*
X38385143Y-51751775D02*
X38442286Y-51666061D01*
X38442286Y-51666061D02*
X38470857Y-51637490D01*
X38899429Y-52008918D02*
X38985143Y-52037490D01*
X38985143Y-52037490D02*
X39013714Y-52066061D01*
X39013714Y-52066061D02*
X39042286Y-52123204D01*
X39042286Y-52123204D02*
X39042286Y-52208918D01*
X39042286Y-52208918D02*
X39013714Y-52266061D01*
X39013714Y-52266061D02*
X38985143Y-52294633D01*
X38985143Y-52294633D02*
X38928000Y-52323204D01*
X38928000Y-52323204D02*
X38699429Y-52323204D01*
X38699429Y-52323204D02*
X38699429Y-51723204D01*
X38699429Y-51723204D02*
X38899429Y-51723204D01*
X38899429Y-51723204D02*
X38956572Y-51751775D01*
X38956572Y-51751775D02*
X38985143Y-51780347D01*
X38985143Y-51780347D02*
X39013714Y-51837490D01*
X39013714Y-51837490D02*
X39013714Y-51894633D01*
X39013714Y-51894633D02*
X38985143Y-51951775D01*
X38985143Y-51951775D02*
X38956572Y-51980347D01*
X38956572Y-51980347D02*
X38899429Y-52008918D01*
X38899429Y-52008918D02*
X38699429Y-52008918D01*
X39242286Y-52551775D02*
X39270857Y-52523204D01*
X39270857Y-52523204D02*
X39328000Y-52437490D01*
X39328000Y-52437490D02*
X39356572Y-52380347D01*
X39356572Y-52380347D02*
X39385143Y-52294633D01*
X39385143Y-52294633D02*
X39413714Y-52151775D01*
X39413714Y-52151775D02*
X39413714Y-52037490D01*
X39413714Y-52037490D02*
X39385143Y-51894633D01*
X39385143Y-51894633D02*
X39356572Y-51808918D01*
X39356572Y-51808918D02*
X39328000Y-51751775D01*
X39328000Y-51751775D02*
X39270857Y-51666061D01*
X39270857Y-51666061D02*
X39242286Y-51637490D01*
X40413715Y-51923204D02*
X40413715Y-52323204D01*
X40156572Y-51923204D02*
X40156572Y-52237490D01*
X40156572Y-52237490D02*
X40185143Y-52294633D01*
X40185143Y-52294633D02*
X40242286Y-52323204D01*
X40242286Y-52323204D02*
X40328000Y-52323204D01*
X40328000Y-52323204D02*
X40385143Y-52294633D01*
X40385143Y-52294633D02*
X40413715Y-52266061D01*
X40699429Y-51923204D02*
X40699429Y-52323204D01*
X40699429Y-51980347D02*
X40728000Y-51951775D01*
X40728000Y-51951775D02*
X40785143Y-51923204D01*
X40785143Y-51923204D02*
X40870857Y-51923204D01*
X40870857Y-51923204D02*
X40928000Y-51951775D01*
X40928000Y-51951775D02*
X40956572Y-52008918D01*
X40956572Y-52008918D02*
X40956572Y-52323204D01*
X41499429Y-52323204D02*
X41499429Y-51723204D01*
X41499429Y-52294633D02*
X41442286Y-52323204D01*
X41442286Y-52323204D02*
X41328000Y-52323204D01*
X41328000Y-52323204D02*
X41270857Y-52294633D01*
X41270857Y-52294633D02*
X41242286Y-52266061D01*
X41242286Y-52266061D02*
X41213714Y-52208918D01*
X41213714Y-52208918D02*
X41213714Y-52037490D01*
X41213714Y-52037490D02*
X41242286Y-51980347D01*
X41242286Y-51980347D02*
X41270857Y-51951775D01*
X41270857Y-51951775D02*
X41328000Y-51923204D01*
X41328000Y-51923204D02*
X41442286Y-51923204D01*
X41442286Y-51923204D02*
X41499429Y-51951775D01*
X42013714Y-52294633D02*
X41956571Y-52323204D01*
X41956571Y-52323204D02*
X41842286Y-52323204D01*
X41842286Y-52323204D02*
X41785143Y-52294633D01*
X41785143Y-52294633D02*
X41756571Y-52237490D01*
X41756571Y-52237490D02*
X41756571Y-52008918D01*
X41756571Y-52008918D02*
X41785143Y-51951775D01*
X41785143Y-51951775D02*
X41842286Y-51923204D01*
X41842286Y-51923204D02*
X41956571Y-51923204D01*
X41956571Y-51923204D02*
X42013714Y-51951775D01*
X42013714Y-51951775D02*
X42042286Y-52008918D01*
X42042286Y-52008918D02*
X42042286Y-52066061D01*
X42042286Y-52066061D02*
X41756571Y-52123204D01*
X42299429Y-52323204D02*
X42299429Y-51923204D01*
X42299429Y-52037490D02*
X42328000Y-51980347D01*
X42328000Y-51980347D02*
X42356572Y-51951775D01*
X42356572Y-51951775D02*
X42413714Y-51923204D01*
X42413714Y-51923204D02*
X42470857Y-51923204D01*
X43042286Y-51923204D02*
X43270858Y-51923204D01*
X43128001Y-51723204D02*
X43128001Y-52237490D01*
X43128001Y-52237490D02*
X43156572Y-52294633D01*
X43156572Y-52294633D02*
X43213715Y-52323204D01*
X43213715Y-52323204D02*
X43270858Y-52323204D01*
X43470858Y-52323204D02*
X43470858Y-51723204D01*
X43728001Y-52323204D02*
X43728001Y-52008918D01*
X43728001Y-52008918D02*
X43699429Y-51951775D01*
X43699429Y-51951775D02*
X43642286Y-51923204D01*
X43642286Y-51923204D02*
X43556572Y-51923204D01*
X43556572Y-51923204D02*
X43499429Y-51951775D01*
X43499429Y-51951775D02*
X43470858Y-51980347D01*
X44242286Y-52294633D02*
X44185143Y-52323204D01*
X44185143Y-52323204D02*
X44070858Y-52323204D01*
X44070858Y-52323204D02*
X44013715Y-52294633D01*
X44013715Y-52294633D02*
X43985143Y-52237490D01*
X43985143Y-52237490D02*
X43985143Y-52008918D01*
X43985143Y-52008918D02*
X44013715Y-51951775D01*
X44013715Y-51951775D02*
X44070858Y-51923204D01*
X44070858Y-51923204D02*
X44185143Y-51923204D01*
X44185143Y-51923204D02*
X44242286Y-51951775D01*
X44242286Y-51951775D02*
X44270858Y-52008918D01*
X44270858Y-52008918D02*
X44270858Y-52066061D01*
X44270858Y-52066061D02*
X43985143Y-52123204D01*
X44985144Y-52323204D02*
X44985144Y-51723204D01*
X45242287Y-52323204D02*
X45242287Y-52008918D01*
X45242287Y-52008918D02*
X45213715Y-51951775D01*
X45213715Y-51951775D02*
X45156572Y-51923204D01*
X45156572Y-51923204D02*
X45070858Y-51923204D01*
X45070858Y-51923204D02*
X45013715Y-51951775D01*
X45013715Y-51951775D02*
X44985144Y-51980347D01*
X45756572Y-52294633D02*
X45699429Y-52323204D01*
X45699429Y-52323204D02*
X45585144Y-52323204D01*
X45585144Y-52323204D02*
X45528001Y-52294633D01*
X45528001Y-52294633D02*
X45499429Y-52237490D01*
X45499429Y-52237490D02*
X45499429Y-52008918D01*
X45499429Y-52008918D02*
X45528001Y-51951775D01*
X45528001Y-51951775D02*
X45585144Y-51923204D01*
X45585144Y-51923204D02*
X45699429Y-51923204D01*
X45699429Y-51923204D02*
X45756572Y-51951775D01*
X45756572Y-51951775D02*
X45785144Y-52008918D01*
X45785144Y-52008918D02*
X45785144Y-52066061D01*
X45785144Y-52066061D02*
X45499429Y-52123204D01*
X46299430Y-52323204D02*
X46299430Y-52008918D01*
X46299430Y-52008918D02*
X46270858Y-51951775D01*
X46270858Y-51951775D02*
X46213715Y-51923204D01*
X46213715Y-51923204D02*
X46099430Y-51923204D01*
X46099430Y-51923204D02*
X46042287Y-51951775D01*
X46299430Y-52294633D02*
X46242287Y-52323204D01*
X46242287Y-52323204D02*
X46099430Y-52323204D01*
X46099430Y-52323204D02*
X46042287Y-52294633D01*
X46042287Y-52294633D02*
X46013715Y-52237490D01*
X46013715Y-52237490D02*
X46013715Y-52180347D01*
X46013715Y-52180347D02*
X46042287Y-52123204D01*
X46042287Y-52123204D02*
X46099430Y-52094633D01*
X46099430Y-52094633D02*
X46242287Y-52094633D01*
X46242287Y-52094633D02*
X46299430Y-52066061D01*
X46842287Y-52323204D02*
X46842287Y-51723204D01*
X46842287Y-52294633D02*
X46785144Y-52323204D01*
X46785144Y-52323204D02*
X46670858Y-52323204D01*
X46670858Y-52323204D02*
X46613715Y-52294633D01*
X46613715Y-52294633D02*
X46585144Y-52266061D01*
X46585144Y-52266061D02*
X46556572Y-52208918D01*
X46556572Y-52208918D02*
X46556572Y-52037490D01*
X46556572Y-52037490D02*
X46585144Y-51980347D01*
X46585144Y-51980347D02*
X46613715Y-51951775D01*
X46613715Y-51951775D02*
X46670858Y-51923204D01*
X46670858Y-51923204D02*
X46785144Y-51923204D01*
X46785144Y-51923204D02*
X46842287Y-51951775D01*
X47356572Y-52294633D02*
X47299429Y-52323204D01*
X47299429Y-52323204D02*
X47185144Y-52323204D01*
X47185144Y-52323204D02*
X47128001Y-52294633D01*
X47128001Y-52294633D02*
X47099429Y-52237490D01*
X47099429Y-52237490D02*
X47099429Y-52008918D01*
X47099429Y-52008918D02*
X47128001Y-51951775D01*
X47128001Y-51951775D02*
X47185144Y-51923204D01*
X47185144Y-51923204D02*
X47299429Y-51923204D01*
X47299429Y-51923204D02*
X47356572Y-51951775D01*
X47356572Y-51951775D02*
X47385144Y-52008918D01*
X47385144Y-52008918D02*
X47385144Y-52066061D01*
X47385144Y-52066061D02*
X47099429Y-52123204D01*
X47642287Y-52323204D02*
X47642287Y-51923204D01*
X47642287Y-52037490D02*
X47670858Y-51980347D01*
X47670858Y-51980347D02*
X47699430Y-51951775D01*
X47699430Y-51951775D02*
X47756572Y-51923204D01*
X47756572Y-51923204D02*
X47813715Y-51923204D01*
X48470859Y-51923204D02*
X48470859Y-52523204D01*
X48470859Y-51951775D02*
X48528002Y-51923204D01*
X48528002Y-51923204D02*
X48642287Y-51923204D01*
X48642287Y-51923204D02*
X48699430Y-51951775D01*
X48699430Y-51951775D02*
X48728002Y-51980347D01*
X48728002Y-51980347D02*
X48756573Y-52037490D01*
X48756573Y-52037490D02*
X48756573Y-52208918D01*
X48756573Y-52208918D02*
X48728002Y-52266061D01*
X48728002Y-52266061D02*
X48699430Y-52294633D01*
X48699430Y-52294633D02*
X48642287Y-52323204D01*
X48642287Y-52323204D02*
X48528002Y-52323204D01*
X48528002Y-52323204D02*
X48470859Y-52294633D01*
X49270859Y-52323204D02*
X49270859Y-52008918D01*
X49270859Y-52008918D02*
X49242287Y-51951775D01*
X49242287Y-51951775D02*
X49185144Y-51923204D01*
X49185144Y-51923204D02*
X49070859Y-51923204D01*
X49070859Y-51923204D02*
X49013716Y-51951775D01*
X49270859Y-52294633D02*
X49213716Y-52323204D01*
X49213716Y-52323204D02*
X49070859Y-52323204D01*
X49070859Y-52323204D02*
X49013716Y-52294633D01*
X49013716Y-52294633D02*
X48985144Y-52237490D01*
X48985144Y-52237490D02*
X48985144Y-52180347D01*
X48985144Y-52180347D02*
X49013716Y-52123204D01*
X49013716Y-52123204D02*
X49070859Y-52094633D01*
X49070859Y-52094633D02*
X49213716Y-52094633D01*
X49213716Y-52094633D02*
X49270859Y-52066061D01*
X49813716Y-52323204D02*
X49813716Y-51723204D01*
X49813716Y-52294633D02*
X49756573Y-52323204D01*
X49756573Y-52323204D02*
X49642287Y-52323204D01*
X49642287Y-52323204D02*
X49585144Y-52294633D01*
X49585144Y-52294633D02*
X49556573Y-52266061D01*
X49556573Y-52266061D02*
X49528001Y-52208918D01*
X49528001Y-52208918D02*
X49528001Y-52037490D01*
X49528001Y-52037490D02*
X49556573Y-51980347D01*
X49556573Y-51980347D02*
X49585144Y-51951775D01*
X49585144Y-51951775D02*
X49642287Y-51923204D01*
X49642287Y-51923204D02*
X49756573Y-51923204D01*
X49756573Y-51923204D02*
X49813716Y-51951775D01*
X50356573Y-52323204D02*
X50356573Y-51723204D01*
X50356573Y-52294633D02*
X50299430Y-52323204D01*
X50299430Y-52323204D02*
X50185144Y-52323204D01*
X50185144Y-52323204D02*
X50128001Y-52294633D01*
X50128001Y-52294633D02*
X50099430Y-52266061D01*
X50099430Y-52266061D02*
X50070858Y-52208918D01*
X50070858Y-52208918D02*
X50070858Y-52037490D01*
X50070858Y-52037490D02*
X50099430Y-51980347D01*
X50099430Y-51980347D02*
X50128001Y-51951775D01*
X50128001Y-51951775D02*
X50185144Y-51923204D01*
X50185144Y-51923204D02*
X50299430Y-51923204D01*
X50299430Y-51923204D02*
X50356573Y-51951775D01*
X50728001Y-52323204D02*
X50670858Y-52294633D01*
X50670858Y-52294633D02*
X50642287Y-52237490D01*
X50642287Y-52237490D02*
X50642287Y-51723204D01*
X51185144Y-52294633D02*
X51128001Y-52323204D01*
X51128001Y-52323204D02*
X51013716Y-52323204D01*
X51013716Y-52323204D02*
X50956573Y-52294633D01*
X50956573Y-52294633D02*
X50928001Y-52237490D01*
X50928001Y-52237490D02*
X50928001Y-52008918D01*
X50928001Y-52008918D02*
X50956573Y-51951775D01*
X50956573Y-51951775D02*
X51013716Y-51923204D01*
X51013716Y-51923204D02*
X51128001Y-51923204D01*
X51128001Y-51923204D02*
X51185144Y-51951775D01*
X51185144Y-51951775D02*
X51213716Y-52008918D01*
X51213716Y-52008918D02*
X51213716Y-52066061D01*
X51213716Y-52066061D02*
X50928001Y-52123204D01*
X7171427Y-53158918D02*
X6971427Y-53158918D01*
X6971427Y-53473204D02*
X6971427Y-52873204D01*
X6971427Y-52873204D02*
X7257141Y-52873204D01*
X7828570Y-53473204D02*
X7628570Y-53187490D01*
X7485713Y-53473204D02*
X7485713Y-52873204D01*
X7485713Y-52873204D02*
X7714284Y-52873204D01*
X7714284Y-52873204D02*
X7771427Y-52901775D01*
X7771427Y-52901775D02*
X7799998Y-52930347D01*
X7799998Y-52930347D02*
X7828570Y-52987490D01*
X7828570Y-52987490D02*
X7828570Y-53073204D01*
X7828570Y-53073204D02*
X7799998Y-53130347D01*
X7799998Y-53130347D02*
X7771427Y-53158918D01*
X7771427Y-53158918D02*
X7714284Y-53187490D01*
X7714284Y-53187490D02*
X7485713Y-53187490D01*
X8342856Y-53073204D02*
X8342856Y-53473204D01*
X8199998Y-52844633D02*
X8057141Y-53273204D01*
X8057141Y-53273204D02*
X8428570Y-53273204D01*
X9428570Y-53473204D02*
X9085713Y-53473204D01*
X9257142Y-53473204D02*
X9257142Y-52873204D01*
X9257142Y-52873204D02*
X9199999Y-52958918D01*
X9199999Y-52958918D02*
X9142856Y-53016061D01*
X9142856Y-53016061D02*
X9085713Y-53044633D01*
X9685714Y-53416061D02*
X9714285Y-53444633D01*
X9714285Y-53444633D02*
X9685714Y-53473204D01*
X9685714Y-53473204D02*
X9657142Y-53444633D01*
X9657142Y-53444633D02*
X9685714Y-53416061D01*
X9685714Y-53416061D02*
X9685714Y-53473204D01*
X10085713Y-52873204D02*
X10142856Y-52873204D01*
X10142856Y-52873204D02*
X10199999Y-52901775D01*
X10199999Y-52901775D02*
X10228571Y-52930347D01*
X10228571Y-52930347D02*
X10257142Y-52987490D01*
X10257142Y-52987490D02*
X10285713Y-53101775D01*
X10285713Y-53101775D02*
X10285713Y-53244633D01*
X10285713Y-53244633D02*
X10257142Y-53358918D01*
X10257142Y-53358918D02*
X10228571Y-53416061D01*
X10228571Y-53416061D02*
X10199999Y-53444633D01*
X10199999Y-53444633D02*
X10142856Y-53473204D01*
X10142856Y-53473204D02*
X10085713Y-53473204D01*
X10085713Y-53473204D02*
X10028571Y-53444633D01*
X10028571Y-53444633D02*
X9999999Y-53416061D01*
X9999999Y-53416061D02*
X9971428Y-53358918D01*
X9971428Y-53358918D02*
X9942856Y-53244633D01*
X9942856Y-53244633D02*
X9942856Y-53101775D01*
X9942856Y-53101775D02*
X9971428Y-52987490D01*
X9971428Y-52987490D02*
X9999999Y-52930347D01*
X9999999Y-52930347D02*
X10028571Y-52901775D01*
X10028571Y-52901775D02*
X10085713Y-52873204D01*
X10971428Y-53444633D02*
X11028571Y-53473204D01*
X11028571Y-53473204D02*
X11142857Y-53473204D01*
X11142857Y-53473204D02*
X11200000Y-53444633D01*
X11200000Y-53444633D02*
X11228571Y-53387490D01*
X11228571Y-53387490D02*
X11228571Y-53358918D01*
X11228571Y-53358918D02*
X11200000Y-53301775D01*
X11200000Y-53301775D02*
X11142857Y-53273204D01*
X11142857Y-53273204D02*
X11057143Y-53273204D01*
X11057143Y-53273204D02*
X11000000Y-53244633D01*
X11000000Y-53244633D02*
X10971428Y-53187490D01*
X10971428Y-53187490D02*
X10971428Y-53158918D01*
X10971428Y-53158918D02*
X11000000Y-53101775D01*
X11000000Y-53101775D02*
X11057143Y-53073204D01*
X11057143Y-53073204D02*
X11142857Y-53073204D01*
X11142857Y-53073204D02*
X11200000Y-53101775D01*
X11399999Y-53073204D02*
X11628571Y-53073204D01*
X11485714Y-52873204D02*
X11485714Y-53387490D01*
X11485714Y-53387490D02*
X11514285Y-53444633D01*
X11514285Y-53444633D02*
X11571428Y-53473204D01*
X11571428Y-53473204D02*
X11628571Y-53473204D01*
X11828571Y-53473204D02*
X11828571Y-53073204D01*
X11828571Y-52873204D02*
X11799999Y-52901775D01*
X11799999Y-52901775D02*
X11828571Y-52930347D01*
X11828571Y-52930347D02*
X11857142Y-52901775D01*
X11857142Y-52901775D02*
X11828571Y-52873204D01*
X11828571Y-52873204D02*
X11828571Y-52930347D01*
X12028570Y-53073204D02*
X12257142Y-53073204D01*
X12114285Y-53473204D02*
X12114285Y-52958918D01*
X12114285Y-52958918D02*
X12142856Y-52901775D01*
X12142856Y-52901775D02*
X12199999Y-52873204D01*
X12199999Y-52873204D02*
X12257142Y-52873204D01*
X12371427Y-53073204D02*
X12599999Y-53073204D01*
X12457142Y-53473204D02*
X12457142Y-52958918D01*
X12457142Y-52958918D02*
X12485713Y-52901775D01*
X12485713Y-52901775D02*
X12542856Y-52873204D01*
X12542856Y-52873204D02*
X12599999Y-52873204D01*
X13028570Y-53444633D02*
X12971427Y-53473204D01*
X12971427Y-53473204D02*
X12857142Y-53473204D01*
X12857142Y-53473204D02*
X12799999Y-53444633D01*
X12799999Y-53444633D02*
X12771427Y-53387490D01*
X12771427Y-53387490D02*
X12771427Y-53158918D01*
X12771427Y-53158918D02*
X12799999Y-53101775D01*
X12799999Y-53101775D02*
X12857142Y-53073204D01*
X12857142Y-53073204D02*
X12971427Y-53073204D01*
X12971427Y-53073204D02*
X13028570Y-53101775D01*
X13028570Y-53101775D02*
X13057142Y-53158918D01*
X13057142Y-53158918D02*
X13057142Y-53216061D01*
X13057142Y-53216061D02*
X12771427Y-53273204D01*
X13314285Y-53073204D02*
X13314285Y-53473204D01*
X13314285Y-53130347D02*
X13342856Y-53101775D01*
X13342856Y-53101775D02*
X13399999Y-53073204D01*
X13399999Y-53073204D02*
X13485713Y-53073204D01*
X13485713Y-53073204D02*
X13542856Y-53101775D01*
X13542856Y-53101775D02*
X13571428Y-53158918D01*
X13571428Y-53158918D02*
X13571428Y-53473204D01*
X14085713Y-53444633D02*
X14028570Y-53473204D01*
X14028570Y-53473204D02*
X13914285Y-53473204D01*
X13914285Y-53473204D02*
X13857142Y-53444633D01*
X13857142Y-53444633D02*
X13828570Y-53387490D01*
X13828570Y-53387490D02*
X13828570Y-53158918D01*
X13828570Y-53158918D02*
X13857142Y-53101775D01*
X13857142Y-53101775D02*
X13914285Y-53073204D01*
X13914285Y-53073204D02*
X14028570Y-53073204D01*
X14028570Y-53073204D02*
X14085713Y-53101775D01*
X14085713Y-53101775D02*
X14114285Y-53158918D01*
X14114285Y-53158918D02*
X14114285Y-53216061D01*
X14114285Y-53216061D02*
X13828570Y-53273204D01*
X14371428Y-53473204D02*
X14371428Y-53073204D01*
X14371428Y-53187490D02*
X14399999Y-53130347D01*
X14399999Y-53130347D02*
X14428571Y-53101775D01*
X14428571Y-53101775D02*
X14485713Y-53073204D01*
X14485713Y-53073204D02*
X14542856Y-53073204D01*
X15371428Y-53701775D02*
X15342857Y-53673204D01*
X15342857Y-53673204D02*
X15285714Y-53587490D01*
X15285714Y-53587490D02*
X15257143Y-53530347D01*
X15257143Y-53530347D02*
X15228571Y-53444633D01*
X15228571Y-53444633D02*
X15200000Y-53301775D01*
X15200000Y-53301775D02*
X15200000Y-53187490D01*
X15200000Y-53187490D02*
X15228571Y-53044633D01*
X15228571Y-53044633D02*
X15257143Y-52958918D01*
X15257143Y-52958918D02*
X15285714Y-52901775D01*
X15285714Y-52901775D02*
X15342857Y-52816061D01*
X15342857Y-52816061D02*
X15371428Y-52787490D01*
X15800000Y-53158918D02*
X15885714Y-53187490D01*
X15885714Y-53187490D02*
X15914285Y-53216061D01*
X15914285Y-53216061D02*
X15942857Y-53273204D01*
X15942857Y-53273204D02*
X15942857Y-53358918D01*
X15942857Y-53358918D02*
X15914285Y-53416061D01*
X15914285Y-53416061D02*
X15885714Y-53444633D01*
X15885714Y-53444633D02*
X15828571Y-53473204D01*
X15828571Y-53473204D02*
X15600000Y-53473204D01*
X15600000Y-53473204D02*
X15600000Y-52873204D01*
X15600000Y-52873204D02*
X15800000Y-52873204D01*
X15800000Y-52873204D02*
X15857143Y-52901775D01*
X15857143Y-52901775D02*
X15885714Y-52930347D01*
X15885714Y-52930347D02*
X15914285Y-52987490D01*
X15914285Y-52987490D02*
X15914285Y-53044633D01*
X15914285Y-53044633D02*
X15885714Y-53101775D01*
X15885714Y-53101775D02*
X15857143Y-53130347D01*
X15857143Y-53130347D02*
X15800000Y-53158918D01*
X15800000Y-53158918D02*
X15600000Y-53158918D01*
X16228571Y-53444633D02*
X16228571Y-53473204D01*
X16228571Y-53473204D02*
X16200000Y-53530347D01*
X16200000Y-53530347D02*
X16171428Y-53558918D01*
X16942857Y-53473204D02*
X16942857Y-52873204D01*
X16942857Y-52873204D02*
X17171428Y-52873204D01*
X17171428Y-52873204D02*
X17228571Y-52901775D01*
X17228571Y-52901775D02*
X17257142Y-52930347D01*
X17257142Y-52930347D02*
X17285714Y-52987490D01*
X17285714Y-52987490D02*
X17285714Y-53073204D01*
X17285714Y-53073204D02*
X17257142Y-53130347D01*
X17257142Y-53130347D02*
X17228571Y-53158918D01*
X17228571Y-53158918D02*
X17171428Y-53187490D01*
X17171428Y-53187490D02*
X16942857Y-53187490D01*
X17514285Y-53444633D02*
X17600000Y-53473204D01*
X17600000Y-53473204D02*
X17742857Y-53473204D01*
X17742857Y-53473204D02*
X17800000Y-53444633D01*
X17800000Y-53444633D02*
X17828571Y-53416061D01*
X17828571Y-53416061D02*
X17857142Y-53358918D01*
X17857142Y-53358918D02*
X17857142Y-53301775D01*
X17857142Y-53301775D02*
X17828571Y-53244633D01*
X17828571Y-53244633D02*
X17800000Y-53216061D01*
X17800000Y-53216061D02*
X17742857Y-53187490D01*
X17742857Y-53187490D02*
X17628571Y-53158918D01*
X17628571Y-53158918D02*
X17571428Y-53130347D01*
X17571428Y-53130347D02*
X17542857Y-53101775D01*
X17542857Y-53101775D02*
X17514285Y-53044633D01*
X17514285Y-53044633D02*
X17514285Y-52987490D01*
X17514285Y-52987490D02*
X17542857Y-52930347D01*
X17542857Y-52930347D02*
X17571428Y-52901775D01*
X17571428Y-52901775D02*
X17628571Y-52873204D01*
X17628571Y-52873204D02*
X17771428Y-52873204D01*
X17771428Y-52873204D02*
X17857142Y-52901775D01*
X18085714Y-53301775D02*
X18371429Y-53301775D01*
X18028571Y-53473204D02*
X18228571Y-52873204D01*
X18228571Y-52873204D02*
X18428571Y-53473204D01*
X18571429Y-53701775D02*
X18600000Y-53673204D01*
X18600000Y-53673204D02*
X18657143Y-53587490D01*
X18657143Y-53587490D02*
X18685715Y-53530347D01*
X18685715Y-53530347D02*
X18714286Y-53444633D01*
X18714286Y-53444633D02*
X18742857Y-53301775D01*
X18742857Y-53301775D02*
X18742857Y-53187490D01*
X18742857Y-53187490D02*
X18714286Y-53044633D01*
X18714286Y-53044633D02*
X18685715Y-52958918D01*
X18685715Y-52958918D02*
X18657143Y-52901775D01*
X18657143Y-52901775D02*
X18600000Y-52816061D01*
X18600000Y-52816061D02*
X18571429Y-52787490D01*
X19742858Y-53073204D02*
X19742858Y-53473204D01*
X19485715Y-53073204D02*
X19485715Y-53387490D01*
X19485715Y-53387490D02*
X19514286Y-53444633D01*
X19514286Y-53444633D02*
X19571429Y-53473204D01*
X19571429Y-53473204D02*
X19657143Y-53473204D01*
X19657143Y-53473204D02*
X19714286Y-53444633D01*
X19714286Y-53444633D02*
X19742858Y-53416061D01*
X20028572Y-53073204D02*
X20028572Y-53473204D01*
X20028572Y-53130347D02*
X20057143Y-53101775D01*
X20057143Y-53101775D02*
X20114286Y-53073204D01*
X20114286Y-53073204D02*
X20200000Y-53073204D01*
X20200000Y-53073204D02*
X20257143Y-53101775D01*
X20257143Y-53101775D02*
X20285715Y-53158918D01*
X20285715Y-53158918D02*
X20285715Y-53473204D01*
X20828572Y-53473204D02*
X20828572Y-52873204D01*
X20828572Y-53444633D02*
X20771429Y-53473204D01*
X20771429Y-53473204D02*
X20657143Y-53473204D01*
X20657143Y-53473204D02*
X20600000Y-53444633D01*
X20600000Y-53444633D02*
X20571429Y-53416061D01*
X20571429Y-53416061D02*
X20542857Y-53358918D01*
X20542857Y-53358918D02*
X20542857Y-53187490D01*
X20542857Y-53187490D02*
X20571429Y-53130347D01*
X20571429Y-53130347D02*
X20600000Y-53101775D01*
X20600000Y-53101775D02*
X20657143Y-53073204D01*
X20657143Y-53073204D02*
X20771429Y-53073204D01*
X20771429Y-53073204D02*
X20828572Y-53101775D01*
X21342857Y-53444633D02*
X21285714Y-53473204D01*
X21285714Y-53473204D02*
X21171429Y-53473204D01*
X21171429Y-53473204D02*
X21114286Y-53444633D01*
X21114286Y-53444633D02*
X21085714Y-53387490D01*
X21085714Y-53387490D02*
X21085714Y-53158918D01*
X21085714Y-53158918D02*
X21114286Y-53101775D01*
X21114286Y-53101775D02*
X21171429Y-53073204D01*
X21171429Y-53073204D02*
X21285714Y-53073204D01*
X21285714Y-53073204D02*
X21342857Y-53101775D01*
X21342857Y-53101775D02*
X21371429Y-53158918D01*
X21371429Y-53158918D02*
X21371429Y-53216061D01*
X21371429Y-53216061D02*
X21085714Y-53273204D01*
X21628572Y-53473204D02*
X21628572Y-53073204D01*
X21628572Y-53187490D02*
X21657143Y-53130347D01*
X21657143Y-53130347D02*
X21685715Y-53101775D01*
X21685715Y-53101775D02*
X21742857Y-53073204D01*
X21742857Y-53073204D02*
X21800000Y-53073204D01*
X22371429Y-53073204D02*
X22600001Y-53073204D01*
X22457144Y-52873204D02*
X22457144Y-53387490D01*
X22457144Y-53387490D02*
X22485715Y-53444633D01*
X22485715Y-53444633D02*
X22542858Y-53473204D01*
X22542858Y-53473204D02*
X22600001Y-53473204D01*
X22800001Y-53473204D02*
X22800001Y-52873204D01*
X23057144Y-53473204D02*
X23057144Y-53158918D01*
X23057144Y-53158918D02*
X23028572Y-53101775D01*
X23028572Y-53101775D02*
X22971429Y-53073204D01*
X22971429Y-53073204D02*
X22885715Y-53073204D01*
X22885715Y-53073204D02*
X22828572Y-53101775D01*
X22828572Y-53101775D02*
X22800001Y-53130347D01*
X23571429Y-53444633D02*
X23514286Y-53473204D01*
X23514286Y-53473204D02*
X23400001Y-53473204D01*
X23400001Y-53473204D02*
X23342858Y-53444633D01*
X23342858Y-53444633D02*
X23314286Y-53387490D01*
X23314286Y-53387490D02*
X23314286Y-53158918D01*
X23314286Y-53158918D02*
X23342858Y-53101775D01*
X23342858Y-53101775D02*
X23400001Y-53073204D01*
X23400001Y-53073204D02*
X23514286Y-53073204D01*
X23514286Y-53073204D02*
X23571429Y-53101775D01*
X23571429Y-53101775D02*
X23600001Y-53158918D01*
X23600001Y-53158918D02*
X23600001Y-53216061D01*
X23600001Y-53216061D02*
X23314286Y-53273204D01*
X24314287Y-53073204D02*
X24314287Y-53673204D01*
X24314287Y-53101775D02*
X24371430Y-53073204D01*
X24371430Y-53073204D02*
X24485715Y-53073204D01*
X24485715Y-53073204D02*
X24542858Y-53101775D01*
X24542858Y-53101775D02*
X24571430Y-53130347D01*
X24571430Y-53130347D02*
X24600001Y-53187490D01*
X24600001Y-53187490D02*
X24600001Y-53358918D01*
X24600001Y-53358918D02*
X24571430Y-53416061D01*
X24571430Y-53416061D02*
X24542858Y-53444633D01*
X24542858Y-53444633D02*
X24485715Y-53473204D01*
X24485715Y-53473204D02*
X24371430Y-53473204D01*
X24371430Y-53473204D02*
X24314287Y-53444633D01*
X24942858Y-53473204D02*
X24885715Y-53444633D01*
X24885715Y-53444633D02*
X24857144Y-53416061D01*
X24857144Y-53416061D02*
X24828572Y-53358918D01*
X24828572Y-53358918D02*
X24828572Y-53187490D01*
X24828572Y-53187490D02*
X24857144Y-53130347D01*
X24857144Y-53130347D02*
X24885715Y-53101775D01*
X24885715Y-53101775D02*
X24942858Y-53073204D01*
X24942858Y-53073204D02*
X25028572Y-53073204D01*
X25028572Y-53073204D02*
X25085715Y-53101775D01*
X25085715Y-53101775D02*
X25114287Y-53130347D01*
X25114287Y-53130347D02*
X25142858Y-53187490D01*
X25142858Y-53187490D02*
X25142858Y-53358918D01*
X25142858Y-53358918D02*
X25114287Y-53416061D01*
X25114287Y-53416061D02*
X25085715Y-53444633D01*
X25085715Y-53444633D02*
X25028572Y-53473204D01*
X25028572Y-53473204D02*
X24942858Y-53473204D01*
X25400001Y-53473204D02*
X25400001Y-53073204D01*
X25400001Y-53187490D02*
X25428572Y-53130347D01*
X25428572Y-53130347D02*
X25457144Y-53101775D01*
X25457144Y-53101775D02*
X25514286Y-53073204D01*
X25514286Y-53073204D02*
X25571429Y-53073204D01*
X25685715Y-53073204D02*
X25914287Y-53073204D01*
X25771430Y-52873204D02*
X25771430Y-53387490D01*
X25771430Y-53387490D02*
X25800001Y-53444633D01*
X25800001Y-53444633D02*
X25857144Y-53473204D01*
X25857144Y-53473204D02*
X25914287Y-53473204D01*
X7171427Y-17758917D02*
X6971427Y-17758917D01*
X6971427Y-18073203D02*
X6971427Y-17473203D01*
X6971427Y-17473203D02*
X7257141Y-17473203D01*
X7828570Y-18073203D02*
X7628570Y-17787489D01*
X7485713Y-18073203D02*
X7485713Y-17473203D01*
X7485713Y-17473203D02*
X7714284Y-17473203D01*
X7714284Y-17473203D02*
X7771427Y-17501774D01*
X7771427Y-17501774D02*
X7799998Y-17530346D01*
X7799998Y-17530346D02*
X7828570Y-17587489D01*
X7828570Y-17587489D02*
X7828570Y-17673203D01*
X7828570Y-17673203D02*
X7799998Y-17730346D01*
X7799998Y-17730346D02*
X7771427Y-17758917D01*
X7771427Y-17758917D02*
X7714284Y-17787489D01*
X7714284Y-17787489D02*
X7485713Y-17787489D01*
X8342856Y-17673203D02*
X8342856Y-18073203D01*
X8199998Y-17444632D02*
X8057141Y-17873203D01*
X8057141Y-17873203D02*
X8428570Y-17873203D01*
X9428570Y-18073203D02*
X9085713Y-18073203D01*
X9257142Y-18073203D02*
X9257142Y-17473203D01*
X9257142Y-17473203D02*
X9199999Y-17558917D01*
X9199999Y-17558917D02*
X9142856Y-17616060D01*
X9142856Y-17616060D02*
X9085713Y-17644632D01*
X9685714Y-18016060D02*
X9714285Y-18044632D01*
X9714285Y-18044632D02*
X9685714Y-18073203D01*
X9685714Y-18073203D02*
X9657142Y-18044632D01*
X9657142Y-18044632D02*
X9685714Y-18016060D01*
X9685714Y-18016060D02*
X9685714Y-18073203D01*
X10085713Y-17473203D02*
X10142856Y-17473203D01*
X10142856Y-17473203D02*
X10199999Y-17501774D01*
X10199999Y-17501774D02*
X10228571Y-17530346D01*
X10228571Y-17530346D02*
X10257142Y-17587489D01*
X10257142Y-17587489D02*
X10285713Y-17701774D01*
X10285713Y-17701774D02*
X10285713Y-17844632D01*
X10285713Y-17844632D02*
X10257142Y-17958917D01*
X10257142Y-17958917D02*
X10228571Y-18016060D01*
X10228571Y-18016060D02*
X10199999Y-18044632D01*
X10199999Y-18044632D02*
X10142856Y-18073203D01*
X10142856Y-18073203D02*
X10085713Y-18073203D01*
X10085713Y-18073203D02*
X10028571Y-18044632D01*
X10028571Y-18044632D02*
X9999999Y-18016060D01*
X9999999Y-18016060D02*
X9971428Y-17958917D01*
X9971428Y-17958917D02*
X9942856Y-17844632D01*
X9942856Y-17844632D02*
X9942856Y-17701774D01*
X9942856Y-17701774D02*
X9971428Y-17587489D01*
X9971428Y-17587489D02*
X9999999Y-17530346D01*
X9999999Y-17530346D02*
X10028571Y-17501774D01*
X10028571Y-17501774D02*
X10085713Y-17473203D01*
X10971428Y-18044632D02*
X11028571Y-18073203D01*
X11028571Y-18073203D02*
X11142857Y-18073203D01*
X11142857Y-18073203D02*
X11200000Y-18044632D01*
X11200000Y-18044632D02*
X11228571Y-17987489D01*
X11228571Y-17987489D02*
X11228571Y-17958917D01*
X11228571Y-17958917D02*
X11200000Y-17901774D01*
X11200000Y-17901774D02*
X11142857Y-17873203D01*
X11142857Y-17873203D02*
X11057143Y-17873203D01*
X11057143Y-17873203D02*
X11000000Y-17844632D01*
X11000000Y-17844632D02*
X10971428Y-17787489D01*
X10971428Y-17787489D02*
X10971428Y-17758917D01*
X10971428Y-17758917D02*
X11000000Y-17701774D01*
X11000000Y-17701774D02*
X11057143Y-17673203D01*
X11057143Y-17673203D02*
X11142857Y-17673203D01*
X11142857Y-17673203D02*
X11200000Y-17701774D01*
X11399999Y-17673203D02*
X11628571Y-17673203D01*
X11485714Y-17473203D02*
X11485714Y-17987489D01*
X11485714Y-17987489D02*
X11514285Y-18044632D01*
X11514285Y-18044632D02*
X11571428Y-18073203D01*
X11571428Y-18073203D02*
X11628571Y-18073203D01*
X11828571Y-18073203D02*
X11828571Y-17673203D01*
X11828571Y-17473203D02*
X11799999Y-17501774D01*
X11799999Y-17501774D02*
X11828571Y-17530346D01*
X11828571Y-17530346D02*
X11857142Y-17501774D01*
X11857142Y-17501774D02*
X11828571Y-17473203D01*
X11828571Y-17473203D02*
X11828571Y-17530346D01*
X12028570Y-17673203D02*
X12257142Y-17673203D01*
X12114285Y-18073203D02*
X12114285Y-17558917D01*
X12114285Y-17558917D02*
X12142856Y-17501774D01*
X12142856Y-17501774D02*
X12199999Y-17473203D01*
X12199999Y-17473203D02*
X12257142Y-17473203D01*
X12371427Y-17673203D02*
X12599999Y-17673203D01*
X12457142Y-18073203D02*
X12457142Y-17558917D01*
X12457142Y-17558917D02*
X12485713Y-17501774D01*
X12485713Y-17501774D02*
X12542856Y-17473203D01*
X12542856Y-17473203D02*
X12599999Y-17473203D01*
X13028570Y-18044632D02*
X12971427Y-18073203D01*
X12971427Y-18073203D02*
X12857142Y-18073203D01*
X12857142Y-18073203D02*
X12799999Y-18044632D01*
X12799999Y-18044632D02*
X12771427Y-17987489D01*
X12771427Y-17987489D02*
X12771427Y-17758917D01*
X12771427Y-17758917D02*
X12799999Y-17701774D01*
X12799999Y-17701774D02*
X12857142Y-17673203D01*
X12857142Y-17673203D02*
X12971427Y-17673203D01*
X12971427Y-17673203D02*
X13028570Y-17701774D01*
X13028570Y-17701774D02*
X13057142Y-17758917D01*
X13057142Y-17758917D02*
X13057142Y-17816060D01*
X13057142Y-17816060D02*
X12771427Y-17873203D01*
X13314285Y-17673203D02*
X13314285Y-18073203D01*
X13314285Y-17730346D02*
X13342856Y-17701774D01*
X13342856Y-17701774D02*
X13399999Y-17673203D01*
X13399999Y-17673203D02*
X13485713Y-17673203D01*
X13485713Y-17673203D02*
X13542856Y-17701774D01*
X13542856Y-17701774D02*
X13571428Y-17758917D01*
X13571428Y-17758917D02*
X13571428Y-18073203D01*
X14085713Y-18044632D02*
X14028570Y-18073203D01*
X14028570Y-18073203D02*
X13914285Y-18073203D01*
X13914285Y-18073203D02*
X13857142Y-18044632D01*
X13857142Y-18044632D02*
X13828570Y-17987489D01*
X13828570Y-17987489D02*
X13828570Y-17758917D01*
X13828570Y-17758917D02*
X13857142Y-17701774D01*
X13857142Y-17701774D02*
X13914285Y-17673203D01*
X13914285Y-17673203D02*
X14028570Y-17673203D01*
X14028570Y-17673203D02*
X14085713Y-17701774D01*
X14085713Y-17701774D02*
X14114285Y-17758917D01*
X14114285Y-17758917D02*
X14114285Y-17816060D01*
X14114285Y-17816060D02*
X13828570Y-17873203D01*
X14371428Y-18073203D02*
X14371428Y-17673203D01*
X14371428Y-17787489D02*
X14399999Y-17730346D01*
X14399999Y-17730346D02*
X14428571Y-17701774D01*
X14428571Y-17701774D02*
X14485713Y-17673203D01*
X14485713Y-17673203D02*
X14542856Y-17673203D01*
X15371428Y-18301774D02*
X15342857Y-18273203D01*
X15342857Y-18273203D02*
X15285714Y-18187489D01*
X15285714Y-18187489D02*
X15257143Y-18130346D01*
X15257143Y-18130346D02*
X15228571Y-18044632D01*
X15228571Y-18044632D02*
X15200000Y-17901774D01*
X15200000Y-17901774D02*
X15200000Y-17787489D01*
X15200000Y-17787489D02*
X15228571Y-17644632D01*
X15228571Y-17644632D02*
X15257143Y-17558917D01*
X15257143Y-17558917D02*
X15285714Y-17501774D01*
X15285714Y-17501774D02*
X15342857Y-17416060D01*
X15342857Y-17416060D02*
X15371428Y-17387489D01*
X15800000Y-17758917D02*
X15885714Y-17787489D01*
X15885714Y-17787489D02*
X15914285Y-17816060D01*
X15914285Y-17816060D02*
X15942857Y-17873203D01*
X15942857Y-17873203D02*
X15942857Y-17958917D01*
X15942857Y-17958917D02*
X15914285Y-18016060D01*
X15914285Y-18016060D02*
X15885714Y-18044632D01*
X15885714Y-18044632D02*
X15828571Y-18073203D01*
X15828571Y-18073203D02*
X15600000Y-18073203D01*
X15600000Y-18073203D02*
X15600000Y-17473203D01*
X15600000Y-17473203D02*
X15800000Y-17473203D01*
X15800000Y-17473203D02*
X15857143Y-17501774D01*
X15857143Y-17501774D02*
X15885714Y-17530346D01*
X15885714Y-17530346D02*
X15914285Y-17587489D01*
X15914285Y-17587489D02*
X15914285Y-17644632D01*
X15914285Y-17644632D02*
X15885714Y-17701774D01*
X15885714Y-17701774D02*
X15857143Y-17730346D01*
X15857143Y-17730346D02*
X15800000Y-17758917D01*
X15800000Y-17758917D02*
X15600000Y-17758917D01*
X16228571Y-18044632D02*
X16228571Y-18073203D01*
X16228571Y-18073203D02*
X16200000Y-18130346D01*
X16200000Y-18130346D02*
X16171428Y-18158917D01*
X16942857Y-18073203D02*
X16942857Y-17473203D01*
X16942857Y-17473203D02*
X17171428Y-17473203D01*
X17171428Y-17473203D02*
X17228571Y-17501774D01*
X17228571Y-17501774D02*
X17257142Y-17530346D01*
X17257142Y-17530346D02*
X17285714Y-17587489D01*
X17285714Y-17587489D02*
X17285714Y-17673203D01*
X17285714Y-17673203D02*
X17257142Y-17730346D01*
X17257142Y-17730346D02*
X17228571Y-17758917D01*
X17228571Y-17758917D02*
X17171428Y-17787489D01*
X17171428Y-17787489D02*
X16942857Y-17787489D01*
X17514285Y-18044632D02*
X17600000Y-18073203D01*
X17600000Y-18073203D02*
X17742857Y-18073203D01*
X17742857Y-18073203D02*
X17800000Y-18044632D01*
X17800000Y-18044632D02*
X17828571Y-18016060D01*
X17828571Y-18016060D02*
X17857142Y-17958917D01*
X17857142Y-17958917D02*
X17857142Y-17901774D01*
X17857142Y-17901774D02*
X17828571Y-17844632D01*
X17828571Y-17844632D02*
X17800000Y-17816060D01*
X17800000Y-17816060D02*
X17742857Y-17787489D01*
X17742857Y-17787489D02*
X17628571Y-17758917D01*
X17628571Y-17758917D02*
X17571428Y-17730346D01*
X17571428Y-17730346D02*
X17542857Y-17701774D01*
X17542857Y-17701774D02*
X17514285Y-17644632D01*
X17514285Y-17644632D02*
X17514285Y-17587489D01*
X17514285Y-17587489D02*
X17542857Y-17530346D01*
X17542857Y-17530346D02*
X17571428Y-17501774D01*
X17571428Y-17501774D02*
X17628571Y-17473203D01*
X17628571Y-17473203D02*
X17771428Y-17473203D01*
X17771428Y-17473203D02*
X17857142Y-17501774D01*
X18085714Y-17901774D02*
X18371429Y-17901774D01*
X18028571Y-18073203D02*
X18228571Y-17473203D01*
X18228571Y-17473203D02*
X18428571Y-18073203D01*
X18571429Y-18301774D02*
X18600000Y-18273203D01*
X18600000Y-18273203D02*
X18657143Y-18187489D01*
X18657143Y-18187489D02*
X18685715Y-18130346D01*
X18685715Y-18130346D02*
X18714286Y-18044632D01*
X18714286Y-18044632D02*
X18742857Y-17901774D01*
X18742857Y-17901774D02*
X18742857Y-17787489D01*
X18742857Y-17787489D02*
X18714286Y-17644632D01*
X18714286Y-17644632D02*
X18685715Y-17558917D01*
X18685715Y-17558917D02*
X18657143Y-17501774D01*
X18657143Y-17501774D02*
X18600000Y-17416060D01*
X18600000Y-17416060D02*
X18571429Y-17387489D01*
X19742858Y-17673203D02*
X19742858Y-18073203D01*
X19485715Y-17673203D02*
X19485715Y-17987489D01*
X19485715Y-17987489D02*
X19514286Y-18044632D01*
X19514286Y-18044632D02*
X19571429Y-18073203D01*
X19571429Y-18073203D02*
X19657143Y-18073203D01*
X19657143Y-18073203D02*
X19714286Y-18044632D01*
X19714286Y-18044632D02*
X19742858Y-18016060D01*
X20028572Y-17673203D02*
X20028572Y-18073203D01*
X20028572Y-17730346D02*
X20057143Y-17701774D01*
X20057143Y-17701774D02*
X20114286Y-17673203D01*
X20114286Y-17673203D02*
X20200000Y-17673203D01*
X20200000Y-17673203D02*
X20257143Y-17701774D01*
X20257143Y-17701774D02*
X20285715Y-17758917D01*
X20285715Y-17758917D02*
X20285715Y-18073203D01*
X20828572Y-18073203D02*
X20828572Y-17473203D01*
X20828572Y-18044632D02*
X20771429Y-18073203D01*
X20771429Y-18073203D02*
X20657143Y-18073203D01*
X20657143Y-18073203D02*
X20600000Y-18044632D01*
X20600000Y-18044632D02*
X20571429Y-18016060D01*
X20571429Y-18016060D02*
X20542857Y-17958917D01*
X20542857Y-17958917D02*
X20542857Y-17787489D01*
X20542857Y-17787489D02*
X20571429Y-17730346D01*
X20571429Y-17730346D02*
X20600000Y-17701774D01*
X20600000Y-17701774D02*
X20657143Y-17673203D01*
X20657143Y-17673203D02*
X20771429Y-17673203D01*
X20771429Y-17673203D02*
X20828572Y-17701774D01*
X21342857Y-18044632D02*
X21285714Y-18073203D01*
X21285714Y-18073203D02*
X21171429Y-18073203D01*
X21171429Y-18073203D02*
X21114286Y-18044632D01*
X21114286Y-18044632D02*
X21085714Y-17987489D01*
X21085714Y-17987489D02*
X21085714Y-17758917D01*
X21085714Y-17758917D02*
X21114286Y-17701774D01*
X21114286Y-17701774D02*
X21171429Y-17673203D01*
X21171429Y-17673203D02*
X21285714Y-17673203D01*
X21285714Y-17673203D02*
X21342857Y-17701774D01*
X21342857Y-17701774D02*
X21371429Y-17758917D01*
X21371429Y-17758917D02*
X21371429Y-17816060D01*
X21371429Y-17816060D02*
X21085714Y-17873203D01*
X21628572Y-18073203D02*
X21628572Y-17673203D01*
X21628572Y-17787489D02*
X21657143Y-17730346D01*
X21657143Y-17730346D02*
X21685715Y-17701774D01*
X21685715Y-17701774D02*
X21742857Y-17673203D01*
X21742857Y-17673203D02*
X21800000Y-17673203D01*
X22371429Y-17673203D02*
X22600001Y-17673203D01*
X22457144Y-17473203D02*
X22457144Y-17987489D01*
X22457144Y-17987489D02*
X22485715Y-18044632D01*
X22485715Y-18044632D02*
X22542858Y-18073203D01*
X22542858Y-18073203D02*
X22600001Y-18073203D01*
X22800001Y-18073203D02*
X22800001Y-17473203D01*
X23057144Y-18073203D02*
X23057144Y-17758917D01*
X23057144Y-17758917D02*
X23028572Y-17701774D01*
X23028572Y-17701774D02*
X22971429Y-17673203D01*
X22971429Y-17673203D02*
X22885715Y-17673203D01*
X22885715Y-17673203D02*
X22828572Y-17701774D01*
X22828572Y-17701774D02*
X22800001Y-17730346D01*
X23571429Y-18044632D02*
X23514286Y-18073203D01*
X23514286Y-18073203D02*
X23400001Y-18073203D01*
X23400001Y-18073203D02*
X23342858Y-18044632D01*
X23342858Y-18044632D02*
X23314286Y-17987489D01*
X23314286Y-17987489D02*
X23314286Y-17758917D01*
X23314286Y-17758917D02*
X23342858Y-17701774D01*
X23342858Y-17701774D02*
X23400001Y-17673203D01*
X23400001Y-17673203D02*
X23514286Y-17673203D01*
X23514286Y-17673203D02*
X23571429Y-17701774D01*
X23571429Y-17701774D02*
X23600001Y-17758917D01*
X23600001Y-17758917D02*
X23600001Y-17816060D01*
X23600001Y-17816060D02*
X23314286Y-17873203D01*
X24314287Y-17673203D02*
X24314287Y-18273203D01*
X24314287Y-17701774D02*
X24371430Y-17673203D01*
X24371430Y-17673203D02*
X24485715Y-17673203D01*
X24485715Y-17673203D02*
X24542858Y-17701774D01*
X24542858Y-17701774D02*
X24571430Y-17730346D01*
X24571430Y-17730346D02*
X24600001Y-17787489D01*
X24600001Y-17787489D02*
X24600001Y-17958917D01*
X24600001Y-17958917D02*
X24571430Y-18016060D01*
X24571430Y-18016060D02*
X24542858Y-18044632D01*
X24542858Y-18044632D02*
X24485715Y-18073203D01*
X24485715Y-18073203D02*
X24371430Y-18073203D01*
X24371430Y-18073203D02*
X24314287Y-18044632D01*
X24942858Y-18073203D02*
X24885715Y-18044632D01*
X24885715Y-18044632D02*
X24857144Y-18016060D01*
X24857144Y-18016060D02*
X24828572Y-17958917D01*
X24828572Y-17958917D02*
X24828572Y-17787489D01*
X24828572Y-17787489D02*
X24857144Y-17730346D01*
X24857144Y-17730346D02*
X24885715Y-17701774D01*
X24885715Y-17701774D02*
X24942858Y-17673203D01*
X24942858Y-17673203D02*
X25028572Y-17673203D01*
X25028572Y-17673203D02*
X25085715Y-17701774D01*
X25085715Y-17701774D02*
X25114287Y-17730346D01*
X25114287Y-17730346D02*
X25142858Y-17787489D01*
X25142858Y-17787489D02*
X25142858Y-17958917D01*
X25142858Y-17958917D02*
X25114287Y-18016060D01*
X25114287Y-18016060D02*
X25085715Y-18044632D01*
X25085715Y-18044632D02*
X25028572Y-18073203D01*
X25028572Y-18073203D02*
X24942858Y-18073203D01*
X25400001Y-18073203D02*
X25400001Y-17673203D01*
X25400001Y-17787489D02*
X25428572Y-17730346D01*
X25428572Y-17730346D02*
X25457144Y-17701774D01*
X25457144Y-17701774D02*
X25514286Y-17673203D01*
X25514286Y-17673203D02*
X25571429Y-17673203D01*
X25685715Y-17673203D02*
X25914287Y-17673203D01*
X25771430Y-17473203D02*
X25771430Y-17987489D01*
X25771430Y-17987489D02*
X25800001Y-18044632D01*
X25800001Y-18044632D02*
X25857144Y-18073203D01*
X25857144Y-18073203D02*
X25914287Y-18073203D01*
X7171427Y-29558918D02*
X6971427Y-29558918D01*
X6971427Y-29873204D02*
X6971427Y-29273204D01*
X6971427Y-29273204D02*
X7257141Y-29273204D01*
X7828570Y-29873204D02*
X7628570Y-29587490D01*
X7485713Y-29873204D02*
X7485713Y-29273204D01*
X7485713Y-29273204D02*
X7714284Y-29273204D01*
X7714284Y-29273204D02*
X7771427Y-29301775D01*
X7771427Y-29301775D02*
X7799998Y-29330347D01*
X7799998Y-29330347D02*
X7828570Y-29387490D01*
X7828570Y-29387490D02*
X7828570Y-29473204D01*
X7828570Y-29473204D02*
X7799998Y-29530347D01*
X7799998Y-29530347D02*
X7771427Y-29558918D01*
X7771427Y-29558918D02*
X7714284Y-29587490D01*
X7714284Y-29587490D02*
X7485713Y-29587490D01*
X8342856Y-29473204D02*
X8342856Y-29873204D01*
X8199998Y-29244633D02*
X8057141Y-29673204D01*
X8057141Y-29673204D02*
X8428570Y-29673204D01*
X9428570Y-29873204D02*
X9085713Y-29873204D01*
X9257142Y-29873204D02*
X9257142Y-29273204D01*
X9257142Y-29273204D02*
X9199999Y-29358918D01*
X9199999Y-29358918D02*
X9142856Y-29416061D01*
X9142856Y-29416061D02*
X9085713Y-29444633D01*
X9685714Y-29816061D02*
X9714285Y-29844633D01*
X9714285Y-29844633D02*
X9685714Y-29873204D01*
X9685714Y-29873204D02*
X9657142Y-29844633D01*
X9657142Y-29844633D02*
X9685714Y-29816061D01*
X9685714Y-29816061D02*
X9685714Y-29873204D01*
X10085713Y-29273204D02*
X10142856Y-29273204D01*
X10142856Y-29273204D02*
X10199999Y-29301775D01*
X10199999Y-29301775D02*
X10228571Y-29330347D01*
X10228571Y-29330347D02*
X10257142Y-29387490D01*
X10257142Y-29387490D02*
X10285713Y-29501775D01*
X10285713Y-29501775D02*
X10285713Y-29644633D01*
X10285713Y-29644633D02*
X10257142Y-29758918D01*
X10257142Y-29758918D02*
X10228571Y-29816061D01*
X10228571Y-29816061D02*
X10199999Y-29844633D01*
X10199999Y-29844633D02*
X10142856Y-29873204D01*
X10142856Y-29873204D02*
X10085713Y-29873204D01*
X10085713Y-29873204D02*
X10028571Y-29844633D01*
X10028571Y-29844633D02*
X9999999Y-29816061D01*
X9999999Y-29816061D02*
X9971428Y-29758918D01*
X9971428Y-29758918D02*
X9942856Y-29644633D01*
X9942856Y-29644633D02*
X9942856Y-29501775D01*
X9942856Y-29501775D02*
X9971428Y-29387490D01*
X9971428Y-29387490D02*
X9999999Y-29330347D01*
X9999999Y-29330347D02*
X10028571Y-29301775D01*
X10028571Y-29301775D02*
X10085713Y-29273204D01*
X10971428Y-29844633D02*
X11028571Y-29873204D01*
X11028571Y-29873204D02*
X11142857Y-29873204D01*
X11142857Y-29873204D02*
X11200000Y-29844633D01*
X11200000Y-29844633D02*
X11228571Y-29787490D01*
X11228571Y-29787490D02*
X11228571Y-29758918D01*
X11228571Y-29758918D02*
X11200000Y-29701775D01*
X11200000Y-29701775D02*
X11142857Y-29673204D01*
X11142857Y-29673204D02*
X11057143Y-29673204D01*
X11057143Y-29673204D02*
X11000000Y-29644633D01*
X11000000Y-29644633D02*
X10971428Y-29587490D01*
X10971428Y-29587490D02*
X10971428Y-29558918D01*
X10971428Y-29558918D02*
X11000000Y-29501775D01*
X11000000Y-29501775D02*
X11057143Y-29473204D01*
X11057143Y-29473204D02*
X11142857Y-29473204D01*
X11142857Y-29473204D02*
X11200000Y-29501775D01*
X11399999Y-29473204D02*
X11628571Y-29473204D01*
X11485714Y-29273204D02*
X11485714Y-29787490D01*
X11485714Y-29787490D02*
X11514285Y-29844633D01*
X11514285Y-29844633D02*
X11571428Y-29873204D01*
X11571428Y-29873204D02*
X11628571Y-29873204D01*
X11828571Y-29873204D02*
X11828571Y-29473204D01*
X11828571Y-29273204D02*
X11799999Y-29301775D01*
X11799999Y-29301775D02*
X11828571Y-29330347D01*
X11828571Y-29330347D02*
X11857142Y-29301775D01*
X11857142Y-29301775D02*
X11828571Y-29273204D01*
X11828571Y-29273204D02*
X11828571Y-29330347D01*
X12028570Y-29473204D02*
X12257142Y-29473204D01*
X12114285Y-29873204D02*
X12114285Y-29358918D01*
X12114285Y-29358918D02*
X12142856Y-29301775D01*
X12142856Y-29301775D02*
X12199999Y-29273204D01*
X12199999Y-29273204D02*
X12257142Y-29273204D01*
X12371427Y-29473204D02*
X12599999Y-29473204D01*
X12457142Y-29873204D02*
X12457142Y-29358918D01*
X12457142Y-29358918D02*
X12485713Y-29301775D01*
X12485713Y-29301775D02*
X12542856Y-29273204D01*
X12542856Y-29273204D02*
X12599999Y-29273204D01*
X13028570Y-29844633D02*
X12971427Y-29873204D01*
X12971427Y-29873204D02*
X12857142Y-29873204D01*
X12857142Y-29873204D02*
X12799999Y-29844633D01*
X12799999Y-29844633D02*
X12771427Y-29787490D01*
X12771427Y-29787490D02*
X12771427Y-29558918D01*
X12771427Y-29558918D02*
X12799999Y-29501775D01*
X12799999Y-29501775D02*
X12857142Y-29473204D01*
X12857142Y-29473204D02*
X12971427Y-29473204D01*
X12971427Y-29473204D02*
X13028570Y-29501775D01*
X13028570Y-29501775D02*
X13057142Y-29558918D01*
X13057142Y-29558918D02*
X13057142Y-29616061D01*
X13057142Y-29616061D02*
X12771427Y-29673204D01*
X13314285Y-29473204D02*
X13314285Y-29873204D01*
X13314285Y-29530347D02*
X13342856Y-29501775D01*
X13342856Y-29501775D02*
X13399999Y-29473204D01*
X13399999Y-29473204D02*
X13485713Y-29473204D01*
X13485713Y-29473204D02*
X13542856Y-29501775D01*
X13542856Y-29501775D02*
X13571428Y-29558918D01*
X13571428Y-29558918D02*
X13571428Y-29873204D01*
X14085713Y-29844633D02*
X14028570Y-29873204D01*
X14028570Y-29873204D02*
X13914285Y-29873204D01*
X13914285Y-29873204D02*
X13857142Y-29844633D01*
X13857142Y-29844633D02*
X13828570Y-29787490D01*
X13828570Y-29787490D02*
X13828570Y-29558918D01*
X13828570Y-29558918D02*
X13857142Y-29501775D01*
X13857142Y-29501775D02*
X13914285Y-29473204D01*
X13914285Y-29473204D02*
X14028570Y-29473204D01*
X14028570Y-29473204D02*
X14085713Y-29501775D01*
X14085713Y-29501775D02*
X14114285Y-29558918D01*
X14114285Y-29558918D02*
X14114285Y-29616061D01*
X14114285Y-29616061D02*
X13828570Y-29673204D01*
X14371428Y-29873204D02*
X14371428Y-29473204D01*
X14371428Y-29587490D02*
X14399999Y-29530347D01*
X14399999Y-29530347D02*
X14428571Y-29501775D01*
X14428571Y-29501775D02*
X14485713Y-29473204D01*
X14485713Y-29473204D02*
X14542856Y-29473204D01*
X15371428Y-30101775D02*
X15342857Y-30073204D01*
X15342857Y-30073204D02*
X15285714Y-29987490D01*
X15285714Y-29987490D02*
X15257143Y-29930347D01*
X15257143Y-29930347D02*
X15228571Y-29844633D01*
X15228571Y-29844633D02*
X15200000Y-29701775D01*
X15200000Y-29701775D02*
X15200000Y-29587490D01*
X15200000Y-29587490D02*
X15228571Y-29444633D01*
X15228571Y-29444633D02*
X15257143Y-29358918D01*
X15257143Y-29358918D02*
X15285714Y-29301775D01*
X15285714Y-29301775D02*
X15342857Y-29216061D01*
X15342857Y-29216061D02*
X15371428Y-29187490D01*
X15800000Y-29558918D02*
X15885714Y-29587490D01*
X15885714Y-29587490D02*
X15914285Y-29616061D01*
X15914285Y-29616061D02*
X15942857Y-29673204D01*
X15942857Y-29673204D02*
X15942857Y-29758918D01*
X15942857Y-29758918D02*
X15914285Y-29816061D01*
X15914285Y-29816061D02*
X15885714Y-29844633D01*
X15885714Y-29844633D02*
X15828571Y-29873204D01*
X15828571Y-29873204D02*
X15600000Y-29873204D01*
X15600000Y-29873204D02*
X15600000Y-29273204D01*
X15600000Y-29273204D02*
X15800000Y-29273204D01*
X15800000Y-29273204D02*
X15857143Y-29301775D01*
X15857143Y-29301775D02*
X15885714Y-29330347D01*
X15885714Y-29330347D02*
X15914285Y-29387490D01*
X15914285Y-29387490D02*
X15914285Y-29444633D01*
X15914285Y-29444633D02*
X15885714Y-29501775D01*
X15885714Y-29501775D02*
X15857143Y-29530347D01*
X15857143Y-29530347D02*
X15800000Y-29558918D01*
X15800000Y-29558918D02*
X15600000Y-29558918D01*
X16228571Y-29844633D02*
X16228571Y-29873204D01*
X16228571Y-29873204D02*
X16200000Y-29930347D01*
X16200000Y-29930347D02*
X16171428Y-29958918D01*
X16942857Y-29873204D02*
X16942857Y-29273204D01*
X16942857Y-29273204D02*
X17171428Y-29273204D01*
X17171428Y-29273204D02*
X17228571Y-29301775D01*
X17228571Y-29301775D02*
X17257142Y-29330347D01*
X17257142Y-29330347D02*
X17285714Y-29387490D01*
X17285714Y-29387490D02*
X17285714Y-29473204D01*
X17285714Y-29473204D02*
X17257142Y-29530347D01*
X17257142Y-29530347D02*
X17228571Y-29558918D01*
X17228571Y-29558918D02*
X17171428Y-29587490D01*
X17171428Y-29587490D02*
X16942857Y-29587490D01*
X17514285Y-29844633D02*
X17600000Y-29873204D01*
X17600000Y-29873204D02*
X17742857Y-29873204D01*
X17742857Y-29873204D02*
X17800000Y-29844633D01*
X17800000Y-29844633D02*
X17828571Y-29816061D01*
X17828571Y-29816061D02*
X17857142Y-29758918D01*
X17857142Y-29758918D02*
X17857142Y-29701775D01*
X17857142Y-29701775D02*
X17828571Y-29644633D01*
X17828571Y-29644633D02*
X17800000Y-29616061D01*
X17800000Y-29616061D02*
X17742857Y-29587490D01*
X17742857Y-29587490D02*
X17628571Y-29558918D01*
X17628571Y-29558918D02*
X17571428Y-29530347D01*
X17571428Y-29530347D02*
X17542857Y-29501775D01*
X17542857Y-29501775D02*
X17514285Y-29444633D01*
X17514285Y-29444633D02*
X17514285Y-29387490D01*
X17514285Y-29387490D02*
X17542857Y-29330347D01*
X17542857Y-29330347D02*
X17571428Y-29301775D01*
X17571428Y-29301775D02*
X17628571Y-29273204D01*
X17628571Y-29273204D02*
X17771428Y-29273204D01*
X17771428Y-29273204D02*
X17857142Y-29301775D01*
X18085714Y-29701775D02*
X18371429Y-29701775D01*
X18028571Y-29873204D02*
X18228571Y-29273204D01*
X18228571Y-29273204D02*
X18428571Y-29873204D01*
X18571429Y-30101775D02*
X18600000Y-30073204D01*
X18600000Y-30073204D02*
X18657143Y-29987490D01*
X18657143Y-29987490D02*
X18685715Y-29930347D01*
X18685715Y-29930347D02*
X18714286Y-29844633D01*
X18714286Y-29844633D02*
X18742857Y-29701775D01*
X18742857Y-29701775D02*
X18742857Y-29587490D01*
X18742857Y-29587490D02*
X18714286Y-29444633D01*
X18714286Y-29444633D02*
X18685715Y-29358918D01*
X18685715Y-29358918D02*
X18657143Y-29301775D01*
X18657143Y-29301775D02*
X18600000Y-29216061D01*
X18600000Y-29216061D02*
X18571429Y-29187490D01*
X19742858Y-29473204D02*
X19742858Y-29873204D01*
X19485715Y-29473204D02*
X19485715Y-29787490D01*
X19485715Y-29787490D02*
X19514286Y-29844633D01*
X19514286Y-29844633D02*
X19571429Y-29873204D01*
X19571429Y-29873204D02*
X19657143Y-29873204D01*
X19657143Y-29873204D02*
X19714286Y-29844633D01*
X19714286Y-29844633D02*
X19742858Y-29816061D01*
X20028572Y-29473204D02*
X20028572Y-29873204D01*
X20028572Y-29530347D02*
X20057143Y-29501775D01*
X20057143Y-29501775D02*
X20114286Y-29473204D01*
X20114286Y-29473204D02*
X20200000Y-29473204D01*
X20200000Y-29473204D02*
X20257143Y-29501775D01*
X20257143Y-29501775D02*
X20285715Y-29558918D01*
X20285715Y-29558918D02*
X20285715Y-29873204D01*
X20828572Y-29873204D02*
X20828572Y-29273204D01*
X20828572Y-29844633D02*
X20771429Y-29873204D01*
X20771429Y-29873204D02*
X20657143Y-29873204D01*
X20657143Y-29873204D02*
X20600000Y-29844633D01*
X20600000Y-29844633D02*
X20571429Y-29816061D01*
X20571429Y-29816061D02*
X20542857Y-29758918D01*
X20542857Y-29758918D02*
X20542857Y-29587490D01*
X20542857Y-29587490D02*
X20571429Y-29530347D01*
X20571429Y-29530347D02*
X20600000Y-29501775D01*
X20600000Y-29501775D02*
X20657143Y-29473204D01*
X20657143Y-29473204D02*
X20771429Y-29473204D01*
X20771429Y-29473204D02*
X20828572Y-29501775D01*
X21342857Y-29844633D02*
X21285714Y-29873204D01*
X21285714Y-29873204D02*
X21171429Y-29873204D01*
X21171429Y-29873204D02*
X21114286Y-29844633D01*
X21114286Y-29844633D02*
X21085714Y-29787490D01*
X21085714Y-29787490D02*
X21085714Y-29558918D01*
X21085714Y-29558918D02*
X21114286Y-29501775D01*
X21114286Y-29501775D02*
X21171429Y-29473204D01*
X21171429Y-29473204D02*
X21285714Y-29473204D01*
X21285714Y-29473204D02*
X21342857Y-29501775D01*
X21342857Y-29501775D02*
X21371429Y-29558918D01*
X21371429Y-29558918D02*
X21371429Y-29616061D01*
X21371429Y-29616061D02*
X21085714Y-29673204D01*
X21628572Y-29873204D02*
X21628572Y-29473204D01*
X21628572Y-29587490D02*
X21657143Y-29530347D01*
X21657143Y-29530347D02*
X21685715Y-29501775D01*
X21685715Y-29501775D02*
X21742857Y-29473204D01*
X21742857Y-29473204D02*
X21800000Y-29473204D01*
X22371429Y-29473204D02*
X22600001Y-29473204D01*
X22457144Y-29273204D02*
X22457144Y-29787490D01*
X22457144Y-29787490D02*
X22485715Y-29844633D01*
X22485715Y-29844633D02*
X22542858Y-29873204D01*
X22542858Y-29873204D02*
X22600001Y-29873204D01*
X22800001Y-29873204D02*
X22800001Y-29273204D01*
X23057144Y-29873204D02*
X23057144Y-29558918D01*
X23057144Y-29558918D02*
X23028572Y-29501775D01*
X23028572Y-29501775D02*
X22971429Y-29473204D01*
X22971429Y-29473204D02*
X22885715Y-29473204D01*
X22885715Y-29473204D02*
X22828572Y-29501775D01*
X22828572Y-29501775D02*
X22800001Y-29530347D01*
X23571429Y-29844633D02*
X23514286Y-29873204D01*
X23514286Y-29873204D02*
X23400001Y-29873204D01*
X23400001Y-29873204D02*
X23342858Y-29844633D01*
X23342858Y-29844633D02*
X23314286Y-29787490D01*
X23314286Y-29787490D02*
X23314286Y-29558918D01*
X23314286Y-29558918D02*
X23342858Y-29501775D01*
X23342858Y-29501775D02*
X23400001Y-29473204D01*
X23400001Y-29473204D02*
X23514286Y-29473204D01*
X23514286Y-29473204D02*
X23571429Y-29501775D01*
X23571429Y-29501775D02*
X23600001Y-29558918D01*
X23600001Y-29558918D02*
X23600001Y-29616061D01*
X23600001Y-29616061D02*
X23314286Y-29673204D01*
X24314287Y-29473204D02*
X24314287Y-30073204D01*
X24314287Y-29501775D02*
X24371430Y-29473204D01*
X24371430Y-29473204D02*
X24485715Y-29473204D01*
X24485715Y-29473204D02*
X24542858Y-29501775D01*
X24542858Y-29501775D02*
X24571430Y-29530347D01*
X24571430Y-29530347D02*
X24600001Y-29587490D01*
X24600001Y-29587490D02*
X24600001Y-29758918D01*
X24600001Y-29758918D02*
X24571430Y-29816061D01*
X24571430Y-29816061D02*
X24542858Y-29844633D01*
X24542858Y-29844633D02*
X24485715Y-29873204D01*
X24485715Y-29873204D02*
X24371430Y-29873204D01*
X24371430Y-29873204D02*
X24314287Y-29844633D01*
X24942858Y-29873204D02*
X24885715Y-29844633D01*
X24885715Y-29844633D02*
X24857144Y-29816061D01*
X24857144Y-29816061D02*
X24828572Y-29758918D01*
X24828572Y-29758918D02*
X24828572Y-29587490D01*
X24828572Y-29587490D02*
X24857144Y-29530347D01*
X24857144Y-29530347D02*
X24885715Y-29501775D01*
X24885715Y-29501775D02*
X24942858Y-29473204D01*
X24942858Y-29473204D02*
X25028572Y-29473204D01*
X25028572Y-29473204D02*
X25085715Y-29501775D01*
X25085715Y-29501775D02*
X25114287Y-29530347D01*
X25114287Y-29530347D02*
X25142858Y-29587490D01*
X25142858Y-29587490D02*
X25142858Y-29758918D01*
X25142858Y-29758918D02*
X25114287Y-29816061D01*
X25114287Y-29816061D02*
X25085715Y-29844633D01*
X25085715Y-29844633D02*
X25028572Y-29873204D01*
X25028572Y-29873204D02*
X24942858Y-29873204D01*
X25400001Y-29873204D02*
X25400001Y-29473204D01*
X25400001Y-29587490D02*
X25428572Y-29530347D01*
X25428572Y-29530347D02*
X25457144Y-29501775D01*
X25457144Y-29501775D02*
X25514286Y-29473204D01*
X25514286Y-29473204D02*
X25571429Y-29473204D01*
X25685715Y-29473204D02*
X25914287Y-29473204D01*
X25771430Y-29273204D02*
X25771430Y-29787490D01*
X25771430Y-29787490D02*
X25800001Y-29844633D01*
X25800001Y-29844633D02*
X25857144Y-29873204D01*
X25857144Y-29873204D02*
X25914287Y-29873204D01*
M02*
