%TF.GenerationSoftware,KiCad,Pcbnew,9.0.2+dfsg-1*%
%TF.CreationDate,2026-10-04T10:34:03-04:00*%
%TF.ProjectId,panel_a25,70616e65-6c5f-4613-9235-2e6b69636164,rev?*%
%TF.SameCoordinates,Original*%
%TF.FileFunction,Drillmap*%
%TF.FilePolarity,Positive*%
%FSLAX45Y45*%
G04 Gerber Fmt 4.5, Leading zero omitted, Abs format (unit mm)*
G04 Created by KiCad (PCBNEW 9.0.2+dfsg-1) date 2026-10-04 10:34:03*
%MOMM*%
%LPD*%
G01*
G04 APERTURE LIST*
%ADD10C,0.050000*%
%ADD11C,0.200000*%
G04 APERTURE END LIST*
D10*
X5005554Y-3891296D02*
X5005800Y-3885000D01*
X5005554Y-948704D02*
X5001662Y-936727D01*
X800000Y-1190000D02*
X650000Y-1190000D01*
X2671179Y-752780D02*
X2675150Y-765000D01*
X811539Y-5208461D02*
X821727Y-5215862D01*
X800000Y-2370000D02*
X650000Y-2370000D01*
X811539Y-4351539D02*
X804138Y-4361727D01*
X5005554Y-3308704D02*
X5001662Y-3296727D01*
X2539754Y-2013704D02*
X2535862Y-2001727D01*
X807097Y-1831172D02*
X837068Y-1830000D01*
X651172Y-807097D02*
X668821Y-752780D01*
X2561727Y-3929138D02*
X2573704Y-3925246D01*
X5001662Y-2723273D02*
X5005554Y-2711296D01*
X4968732Y-5255000D02*
X4112800Y-5255000D01*
X651172Y-3167097D02*
X668821Y-3112780D01*
X5155800Y-2707932D02*
X5154628Y-2737903D01*
X704151Y-1884151D02*
X752780Y-1848821D01*
X2675150Y-1945000D02*
X4012800Y-1945000D01*
X2540000Y-5180000D02*
X2540000Y-5145000D01*
X2502932Y-1830000D02*
X2532903Y-1831172D01*
X2671179Y-2907220D02*
X2635849Y-2955849D01*
X668821Y-2907220D02*
X651172Y-2852903D01*
X4012800Y-3925000D02*
X4012800Y-4075000D01*
X650000Y-1190000D02*
X650000Y-837068D01*
X2561727Y-1569138D02*
X2573704Y-1565246D01*
X2010000Y-5520000D02*
X2010000Y-5220000D01*
X807097Y-651172D02*
X837068Y-650000D01*
X804138Y-5198273D02*
X811539Y-5208461D01*
X5136979Y-5152220D02*
X5101649Y-5200849D01*
X2635849Y-4135849D02*
X2587220Y-4171179D01*
X2573704Y-3274754D02*
X2561727Y-3270862D01*
X5005800Y-3650000D02*
X5155800Y-3650000D01*
X5390000Y-5370000D02*
X5390000Y-5520000D01*
X2535862Y-4018273D02*
X2539754Y-4006296D01*
X2671179Y-3112780D02*
X2675150Y-3125000D01*
X2635849Y-2955849D02*
X2587220Y-2991179D01*
X2518273Y-2855862D02*
X2528461Y-2848461D01*
X4994261Y-926539D02*
X4984073Y-919138D01*
X5001662Y-5083273D02*
X5005554Y-5071296D01*
X4012800Y-1945000D02*
X4012800Y-2095000D01*
X2540000Y-3200000D02*
X2539754Y-3193704D01*
X650000Y-2017068D02*
X651172Y-1987097D01*
X4965800Y-3275000D02*
X4112800Y-3275000D01*
X2675150Y-765000D02*
X4012800Y-765000D01*
X5490000Y-5520000D02*
X5490000Y-5370000D01*
X2502932Y-4190000D02*
X2532903Y-4191172D01*
X4112800Y-1715000D02*
X4112800Y-1565000D01*
X7400000Y0D02*
X0Y0D01*
X650000Y-1290000D02*
X800000Y-1290000D01*
X5101649Y-4359151D02*
X5136979Y-4407780D01*
X2540000Y-3965000D02*
X2540246Y-3958704D01*
X4965800Y-3925000D02*
X4972096Y-3924754D01*
X2561727Y-2749138D02*
X2573704Y-2745246D01*
X650000Y-3550000D02*
X650000Y-3197068D01*
X2506296Y-4340246D02*
X2500000Y-4340000D01*
X2540000Y-4415000D02*
X2540000Y-4380000D01*
X752780Y-668821D02*
X807097Y-651172D01*
X2535862Y-2001727D02*
X2528461Y-1991539D01*
X6750000Y-6520000D02*
X6750000Y-7570000D01*
X6750000Y-5370000D02*
X6750000Y-6420000D01*
X4968732Y-765000D02*
X4998703Y-766172D01*
X5136979Y-1612220D02*
X5101649Y-1660849D01*
X2539754Y-4373704D02*
X2535862Y-4361727D01*
X800000Y-2020000D02*
X800000Y-2370000D01*
X833704Y-5219754D02*
X840000Y-5220000D01*
X4112800Y-5255000D02*
X4112800Y-5105000D01*
X4968732Y-1945000D02*
X4998703Y-1946172D01*
X650000Y-4830000D02*
X800000Y-4830000D01*
X5490000Y-7420000D02*
X6600000Y-7420000D01*
X2502932Y-3010000D02*
X2532903Y-3011172D01*
X4012800Y-5370000D02*
X4012800Y-5465000D01*
X5005800Y-1290000D02*
X5155800Y-1290000D01*
X0Y0D02*
X0Y-8220000D01*
X4965800Y-2745000D02*
X4972096Y-2744754D01*
X811539Y-3171539D02*
X804138Y-3181727D01*
X804138Y-2001727D02*
X800246Y-2013704D01*
X800000Y-2470000D02*
X800000Y-2820000D01*
X5053020Y-4323821D02*
X5101649Y-4359151D01*
X4984073Y-1560862D02*
X4994261Y-1553461D01*
X4998703Y-4306172D02*
X5053020Y-4323821D01*
X800000Y-3550000D02*
X650000Y-3550000D01*
X5005800Y-2470000D02*
X5155800Y-2470000D01*
X650000Y-2370000D02*
X650000Y-2017068D01*
X4994261Y-3913461D02*
X5001662Y-3903273D01*
X4984073Y-5100862D02*
X4994261Y-5093461D01*
X4998703Y-5253828D02*
X4968732Y-5255000D01*
X2506296Y-1679754D02*
X2518273Y-1675862D01*
X4972096Y-2095246D02*
X4965800Y-2095000D01*
X5001662Y-3296727D02*
X4994261Y-3286539D01*
X1910000Y-7570000D02*
X650000Y-7570000D01*
X804138Y-1658273D02*
X811539Y-1668461D01*
X5490000Y-7570000D02*
X5490000Y-7420000D01*
X833704Y-3160246D02*
X821727Y-3164138D01*
X5155800Y-4492068D02*
X5155800Y-4730000D01*
X2532903Y-4188828D02*
X2502932Y-4190000D01*
X4968732Y-1715000D02*
X4112800Y-1715000D01*
X4968732Y-4075000D02*
X4112800Y-4075000D01*
X2551539Y-3936539D02*
X2561727Y-3929138D01*
X5001662Y-936727D02*
X4994261Y-926539D01*
X2518273Y-804138D02*
X2506296Y-800246D01*
X800000Y-7420000D02*
X1910000Y-7420000D01*
X2675150Y-3125000D02*
X4012800Y-3125000D01*
X800000Y-1290000D02*
X800000Y-1640000D01*
X4012800Y-2095000D02*
X2580000Y-2095000D01*
X650000Y-3650000D02*
X800000Y-3650000D01*
X2010000Y-7570000D02*
X2010000Y-7420000D01*
X4112800Y-1945000D02*
X4968732Y-1945000D01*
X2506296Y-800246D02*
X2500000Y-800000D01*
X4012800Y-2745000D02*
X4012800Y-2895000D01*
X2671179Y-1932780D02*
X2675150Y-1945000D01*
X2532903Y-651172D02*
X2587220Y-668821D01*
X2506296Y-3160246D02*
X2500000Y-3160000D01*
X807097Y-1828828D02*
X752780Y-1811179D01*
X4012800Y-3275000D02*
X2580000Y-3275000D01*
X5005800Y-2135000D02*
X5005554Y-2128704D01*
X5155800Y-2132068D02*
X5155800Y-2370000D01*
X4012800Y-4455000D02*
X2580000Y-4455000D01*
X4972096Y-2744754D02*
X4984073Y-2740862D01*
X5155800Y-4730000D02*
X5005800Y-4730000D01*
X5053020Y-5236179D02*
X4998703Y-5253828D01*
X2561727Y-3270862D02*
X2551539Y-3263461D01*
X4112800Y-5370000D02*
X5390000Y-5370000D01*
X800000Y-840000D02*
X800000Y-1190000D01*
X1720000Y-4340000D02*
X1720000Y-4040000D01*
X5390000Y-5520000D02*
X2010000Y-5520000D01*
X5001662Y-3903273D02*
X5005554Y-3891296D01*
X4984073Y-2740862D02*
X4994261Y-2733461D01*
X2587220Y-5351179D02*
X2532903Y-5368828D01*
X6600000Y-7420000D02*
X6600000Y-6520000D01*
X2580000Y-4455000D02*
X2573704Y-4454754D01*
X837068Y-650000D02*
X1620000Y-650000D01*
X4972096Y-915246D02*
X4965800Y-915000D01*
X1620000Y-650000D02*
X1620000Y-800000D01*
X650000Y-2470000D02*
X800000Y-2470000D01*
X1720000Y-1680000D02*
X2500000Y-1680000D01*
X2587220Y-1811179D02*
X2532903Y-1828828D01*
X2580000Y-5105000D02*
X4012800Y-5105000D01*
X833704Y-800246D02*
X821727Y-804138D01*
X811539Y-811539D02*
X804138Y-821727D01*
X2535862Y-5198273D02*
X2539754Y-5186296D01*
X4965800Y-5105000D02*
X4972096Y-5104754D01*
X4012800Y-1715000D02*
X2675150Y-1715000D01*
X2539754Y-5186296D02*
X2540000Y-5180000D01*
X5101649Y-3179151D02*
X5136979Y-3227780D01*
X2587220Y-3028821D02*
X2635849Y-3064151D01*
X2544138Y-5126727D02*
X2551539Y-5116539D01*
X5001662Y-4476727D02*
X4994261Y-4466539D01*
X2587220Y-1848821D02*
X2635849Y-1884151D01*
X2532903Y-1828828D02*
X2502932Y-1830000D01*
X800246Y-5186296D02*
X804138Y-5198273D01*
X2540246Y-3958704D02*
X2544138Y-3946727D01*
X5154628Y-922097D02*
X5155800Y-952068D01*
X2671179Y-1727220D02*
X2635849Y-1775849D01*
X7400000Y-8220000D02*
X7400000Y0D01*
X4994261Y-5093461D02*
X5001662Y-5083273D01*
X6600000Y-5520000D02*
X5490000Y-5520000D01*
X2635849Y-704151D02*
X2671179Y-752780D01*
X2518273Y-5215862D02*
X2528461Y-5208461D01*
X5136979Y-2792220D02*
X5101649Y-2840849D01*
X821727Y-1984138D02*
X811539Y-1991539D01*
X2528461Y-811539D02*
X2518273Y-804138D01*
X5053020Y-1696179D02*
X4998703Y-1713828D01*
X2528461Y-3171539D02*
X2518273Y-3164138D01*
X6600000Y-6520000D02*
X6750000Y-6520000D01*
X5101649Y-2840849D02*
X5053020Y-2876179D01*
X5053020Y-4056179D02*
X4998703Y-4073828D01*
X668821Y-4087220D02*
X651172Y-4032903D01*
X651172Y-5212903D02*
X650000Y-5182932D01*
X1720000Y-2860000D02*
X2500000Y-2860000D01*
X5154628Y-2737903D02*
X5136979Y-2792220D01*
X2532903Y-4191172D02*
X2587220Y-4208821D01*
X5005800Y-1525000D02*
X5005800Y-1290000D01*
X800246Y-3193704D02*
X800000Y-3200000D01*
X5053020Y-783821D02*
X5101649Y-819151D01*
X2561727Y-4450862D02*
X2551539Y-4443461D01*
X2544138Y-1586727D02*
X2551539Y-1576539D01*
X840000Y-4040000D02*
X1620000Y-4040000D01*
X2500000Y-4040000D02*
X2506296Y-4039754D01*
X821727Y-4344138D02*
X811539Y-4351539D01*
X2635849Y-3064151D02*
X2671179Y-3112780D01*
X5001662Y-2116727D02*
X4994261Y-2106539D01*
X2551539Y-2756539D02*
X2561727Y-2749138D01*
X811539Y-4028461D02*
X821727Y-4035862D01*
X1620000Y-5220000D02*
X1620000Y-5520000D01*
X2540000Y-840000D02*
X2539754Y-833704D01*
X5005800Y-2705000D02*
X5005800Y-2470000D01*
X2544138Y-893273D02*
X2540246Y-881296D01*
X2573704Y-4454754D02*
X2561727Y-4450862D01*
X2500000Y-1680000D02*
X2506296Y-1679754D01*
X811539Y-2848461D02*
X821727Y-2855862D01*
X651172Y-1672903D02*
X650000Y-1642931D01*
X0Y-8220000D02*
X7400000Y-8220000D01*
X4984073Y-919138D02*
X4972096Y-915246D01*
X833704Y-2859754D02*
X840000Y-2860000D01*
X5005554Y-2711296D02*
X5005800Y-2705000D01*
X4965800Y-915000D02*
X4112800Y-915000D01*
X2540000Y-2785000D02*
X2540246Y-2778704D01*
X2580000Y-3275000D02*
X2573704Y-3274754D01*
X651172Y-2852903D02*
X650000Y-2822931D01*
X840000Y-1680000D02*
X1620000Y-1680000D01*
X2540246Y-2061296D02*
X2540000Y-2055000D01*
X650000Y-1642931D02*
X650000Y-1290000D01*
X5154628Y-5097903D02*
X5136979Y-5152220D01*
X2539754Y-2826296D02*
X2540000Y-2820000D01*
X821727Y-804138D02*
X811539Y-811539D01*
X5005554Y-4488704D02*
X5001662Y-4476727D01*
X5155800Y-2470000D02*
X5155800Y-2707932D01*
X4012800Y-915000D02*
X2580000Y-915000D01*
X4984073Y-2099138D02*
X4972096Y-2095246D01*
X4112800Y-1565000D02*
X4965800Y-1565000D01*
X2539754Y-3193704D02*
X2535862Y-3181727D01*
X2573704Y-914754D02*
X2561727Y-910862D01*
X2635849Y-5315849D02*
X2587220Y-5351179D01*
X5005800Y-955000D02*
X5005554Y-948704D01*
X2544138Y-3946727D02*
X2551539Y-3936539D01*
X4012800Y-4305000D02*
X4012800Y-4455000D01*
X2671179Y-5267220D02*
X2635849Y-5315849D01*
X2500000Y-5220000D02*
X2506296Y-5219754D01*
X2561727Y-5109138D02*
X2573704Y-5105246D01*
X821727Y-1675862D02*
X833704Y-1679754D01*
X800000Y-4000000D02*
X800246Y-4006296D01*
X4998703Y-1713828D02*
X4968732Y-1715000D01*
X668821Y-1727220D02*
X651172Y-1672903D01*
X2528461Y-1991539D02*
X2518273Y-1984138D01*
X821727Y-2855862D02*
X833704Y-2859754D01*
X5101649Y-1999151D02*
X5136979Y-2047780D01*
X650000Y-4730000D02*
X650000Y-4377068D01*
X4984073Y-3920862D02*
X4994261Y-3913461D01*
X2506296Y-5219754D02*
X2518273Y-5215862D01*
X5154628Y-4462097D02*
X5155800Y-4492068D01*
X840000Y-5220000D02*
X1620000Y-5220000D01*
X5053020Y-3143821D02*
X5101649Y-3179151D01*
X5005800Y-3885000D02*
X5005800Y-3650000D01*
X800246Y-833704D02*
X800000Y-840000D01*
X2506296Y-1980246D02*
X2500000Y-1980000D01*
X650000Y-4002931D02*
X650000Y-3650000D01*
X821727Y-4035862D02*
X833704Y-4039754D01*
X4994261Y-4466539D02*
X4984073Y-4459138D01*
X5136979Y-4407780D02*
X5154628Y-4462097D01*
X2539754Y-1646296D02*
X2540000Y-1640000D01*
X2675150Y-4075000D02*
X2671179Y-4087220D01*
X800246Y-4373704D02*
X800000Y-4380000D01*
X821727Y-3164138D02*
X811539Y-3171539D01*
X650000Y-2822931D02*
X650000Y-2470000D01*
X2675150Y-5255000D02*
X2671179Y-5267220D01*
X2561727Y-910862D02*
X2551539Y-903461D01*
X2580000Y-2095000D02*
X2573704Y-2094754D01*
X2540246Y-1598704D02*
X2544138Y-1586727D01*
X4972096Y-3275246D02*
X4965800Y-3275000D01*
X4994261Y-1553461D02*
X5001662Y-1543273D01*
X4984073Y-3279138D02*
X4972096Y-3275246D01*
X5154628Y-2102097D02*
X5155800Y-2132068D01*
X1720000Y-3160000D02*
X1720000Y-2860000D01*
X2573704Y-5105246D02*
X2580000Y-5105000D01*
X2551539Y-1576539D02*
X2561727Y-1569138D01*
X650000Y-6420000D02*
X650000Y-5370000D01*
X2500000Y-3160000D02*
X1720000Y-3160000D01*
X837068Y-5370000D02*
X807097Y-5368828D01*
X704151Y-3064151D02*
X752780Y-3028821D01*
X668821Y-752780D02*
X704151Y-704151D01*
X5155800Y-1527931D02*
X5154628Y-1557903D01*
X4012800Y-5465000D02*
X4112800Y-5465000D01*
X2540000Y-2820000D02*
X2540000Y-2785000D01*
X4998703Y-1946172D02*
X5053020Y-1963821D01*
X2500000Y-1980000D02*
X1720000Y-1980000D01*
X668821Y-1932780D02*
X704151Y-1884151D01*
X2580000Y-3925000D02*
X4012800Y-3925000D01*
X2502932Y-650000D02*
X2532903Y-651172D01*
X1620000Y-3160000D02*
X840000Y-3160000D01*
X2539754Y-4006296D02*
X2540000Y-4000000D01*
X4998703Y-3126172D02*
X5053020Y-3143821D01*
X2506296Y-4039754D02*
X2518273Y-4035862D01*
X804138Y-821727D02*
X800246Y-833704D01*
X2528461Y-5208461D02*
X2535862Y-5198273D01*
X5053020Y-2876179D02*
X4998703Y-2893828D01*
X5155800Y-3312068D02*
X5155800Y-3550000D01*
X651172Y-4032903D02*
X650000Y-4002931D01*
X5005800Y-3550000D02*
X5005800Y-3315000D01*
X833704Y-4039754D02*
X840000Y-4040000D01*
X4112800Y-3125000D02*
X4968732Y-3125000D01*
X4972096Y-5104754D02*
X4984073Y-5100862D01*
X5005800Y-2370000D02*
X5005800Y-2135000D01*
X840000Y-1980000D02*
X833704Y-1980246D01*
X807097Y-3011172D02*
X837068Y-3010000D01*
X2540000Y-3235000D02*
X2540000Y-3200000D01*
X2587220Y-4171179D02*
X2532903Y-4188828D01*
X5005800Y-3315000D02*
X5005554Y-3308704D01*
X4112800Y-915000D02*
X4112800Y-765000D01*
X5001662Y-1543273D02*
X5005554Y-1531296D01*
X2551539Y-2083461D02*
X2544138Y-2073273D01*
X4112800Y-2095000D02*
X4112800Y-1945000D01*
X4112800Y-3925000D02*
X4965800Y-3925000D01*
X2518273Y-1675862D02*
X2528461Y-1668461D01*
X2635849Y-1884151D02*
X2671179Y-1932780D01*
X5005800Y-4730000D02*
X5005800Y-4495000D01*
X650000Y-7570000D02*
X650000Y-6520000D01*
X4998703Y-766172D02*
X5053020Y-783821D01*
X5053020Y-1963821D02*
X5101649Y-1999151D01*
X4012800Y-5255000D02*
X2675150Y-5255000D01*
X704151Y-5315849D02*
X668821Y-5267220D01*
X650000Y-5370000D02*
X837068Y-5370000D01*
X800246Y-2826296D02*
X804138Y-2838273D01*
X2502932Y-5370000D02*
X4012800Y-5370000D01*
X2587220Y-2991179D02*
X2532903Y-3008828D01*
X1720000Y-800000D02*
X1720000Y-650000D01*
X5155800Y-2370000D02*
X5005800Y-2370000D01*
X5005800Y-1190000D02*
X5005800Y-955000D01*
X2540246Y-4421296D02*
X2540000Y-4415000D01*
X800000Y-3200000D02*
X800000Y-3550000D01*
X4112800Y-2895000D02*
X4112800Y-2745000D01*
X800246Y-4006296D02*
X804138Y-4018273D01*
X4968732Y-3125000D02*
X4998703Y-3126172D01*
X2010000Y-7420000D02*
X5390000Y-7420000D01*
X704151Y-4135849D02*
X668821Y-4087220D01*
X2587220Y-4208821D02*
X2635849Y-4244151D01*
X5155800Y-1290000D02*
X5155800Y-1527931D01*
X704151Y-2955849D02*
X668821Y-2907220D01*
X4994261Y-2106539D02*
X4984073Y-2099138D01*
X1910000Y-5220000D02*
X1910000Y-5520000D01*
X650000Y-3197068D02*
X651172Y-3167097D01*
X1910000Y-5520000D02*
X1720000Y-5520000D01*
X4112800Y-2745000D02*
X4965800Y-2745000D01*
X2500000Y-4340000D02*
X1720000Y-4340000D01*
X5005800Y-5065000D02*
X5005800Y-4830000D01*
X2573704Y-1565246D02*
X2580000Y-1565000D01*
X5101649Y-1660849D02*
X5053020Y-1696179D01*
X4012800Y-3125000D02*
X4012800Y-3275000D01*
X800000Y-6520000D02*
X800000Y-7420000D01*
X807097Y-3008828D02*
X752780Y-2991179D01*
X2671179Y-4087220D02*
X2635849Y-4135849D01*
X2518273Y-4035862D02*
X2528461Y-4028461D01*
X833704Y-1679754D02*
X840000Y-1680000D01*
X651172Y-1987097D02*
X668821Y-1932780D01*
X2587220Y-668821D02*
X2635849Y-704151D01*
X650000Y-5182932D02*
X650000Y-4830000D01*
X800000Y-4380000D02*
X800000Y-4730000D01*
X2551539Y-3263461D02*
X2544138Y-3253273D01*
X4965800Y-4455000D02*
X4112800Y-4455000D01*
X2528461Y-4351539D02*
X2518273Y-4344138D01*
X804138Y-4361727D02*
X800246Y-4373704D01*
X1720000Y-5520000D02*
X1720000Y-5220000D01*
X5136979Y-867780D02*
X5154628Y-922097D01*
X752780Y-1811179D02*
X704151Y-1775849D01*
X800000Y-4730000D02*
X650000Y-4730000D01*
X5101649Y-819151D02*
X5136979Y-867780D01*
X5155800Y-4830000D02*
X5155800Y-5067932D01*
X5005800Y-4495000D02*
X5005554Y-4488704D01*
X2544138Y-3253273D02*
X2540246Y-3241296D01*
X4112800Y-5465000D02*
X4112800Y-5370000D01*
X2580000Y-2745000D02*
X4012800Y-2745000D01*
X752780Y-5351179D02*
X704151Y-5315849D01*
X800000Y-5520000D02*
X800000Y-6420000D01*
X2535862Y-1658273D02*
X2539754Y-1646296D01*
X804138Y-2838273D02*
X811539Y-2848461D01*
X5136979Y-3227780D02*
X5154628Y-3282097D01*
X1620000Y-1680000D02*
X1620000Y-1980000D01*
X2532903Y-1831172D02*
X2587220Y-1848821D01*
X804138Y-4018273D02*
X811539Y-4028461D01*
X833704Y-1980246D02*
X821727Y-1984138D01*
X1620000Y-2860000D02*
X1620000Y-3160000D01*
X2671179Y-4292780D02*
X2675150Y-4305000D01*
X2539754Y-833704D02*
X2535862Y-821727D01*
X752780Y-1848821D02*
X807097Y-1831172D01*
X5155800Y-3887931D02*
X5154628Y-3917903D01*
X2540246Y-3241296D02*
X2540000Y-3235000D01*
X1620000Y-800000D02*
X840000Y-800000D01*
X2551539Y-5116539D02*
X2561727Y-5109138D01*
X1620000Y-4040000D02*
X1620000Y-4340000D01*
X2535862Y-3181727D02*
X2528461Y-3171539D01*
X4112800Y-4075000D02*
X4112800Y-3925000D01*
X2580000Y-915000D02*
X2573704Y-914754D01*
X2580000Y-1565000D02*
X4012800Y-1565000D01*
X2518273Y-4344138D02*
X2506296Y-4340246D01*
X4012800Y-2895000D02*
X2675150Y-2895000D01*
X4012800Y-765000D02*
X4012800Y-915000D01*
X4994261Y-3286539D02*
X4984073Y-3279138D01*
X5155800Y-3550000D02*
X5005800Y-3550000D01*
X800000Y-3650000D02*
X800000Y-4000000D01*
X4112800Y-4455000D02*
X4112800Y-4305000D01*
X5155800Y-5067932D02*
X5154628Y-5097903D01*
X2528461Y-1668461D02*
X2535862Y-1658273D01*
X811539Y-1668461D02*
X821727Y-1675862D01*
X837068Y-3010000D02*
X807097Y-3008828D01*
X837068Y-4190000D02*
X807097Y-4188828D01*
X4112800Y-4305000D02*
X4968732Y-4305000D01*
X5155800Y-1190000D02*
X5005800Y-1190000D01*
X2551539Y-903461D02*
X2544138Y-893273D01*
X668821Y-4292780D02*
X704151Y-4244151D01*
X837068Y-1830000D02*
X807097Y-1828828D01*
X807097Y-4188828D02*
X752780Y-4171179D01*
X2544138Y-2073273D02*
X2540246Y-2061296D01*
X1620000Y-5520000D02*
X800000Y-5520000D01*
X2561727Y-2090862D02*
X2551539Y-2083461D01*
X2540000Y-4000000D02*
X2540000Y-3965000D01*
X5155800Y-3650000D02*
X5155800Y-3887931D01*
X5154628Y-3917903D02*
X5136979Y-3972220D01*
X807097Y-5368828D02*
X752780Y-5351179D01*
X4965800Y-2095000D02*
X4112800Y-2095000D01*
X833704Y-4340246D02*
X821727Y-4344138D01*
X807097Y-4191172D02*
X837068Y-4190000D01*
X704151Y-704151D02*
X752780Y-668821D01*
X2551539Y-4443461D02*
X2544138Y-4433273D01*
X1620000Y-4340000D02*
X840000Y-4340000D01*
X2518273Y-1984138D02*
X2506296Y-1980246D01*
X800000Y-6420000D02*
X650000Y-6420000D01*
X2675150Y-1715000D02*
X2671179Y-1727220D01*
X2532903Y-3011172D02*
X2587220Y-3028821D01*
X752780Y-4171179D02*
X704151Y-4135849D01*
X2540000Y-4380000D02*
X2539754Y-4373704D01*
X4972096Y-1564754D02*
X4984073Y-1560862D01*
X4968732Y-4305000D02*
X4998703Y-4306172D01*
X650000Y-837068D02*
X651172Y-807097D01*
X2540000Y-1640000D02*
X2540000Y-1605000D01*
X752780Y-4208821D02*
X807097Y-4191172D01*
X1720000Y-1980000D02*
X1720000Y-1680000D01*
X5005800Y-4830000D02*
X5155800Y-4830000D01*
X650000Y-4377068D02*
X651172Y-4347097D01*
X2010000Y-5220000D02*
X2500000Y-5220000D01*
X5136979Y-2047780D02*
X5154628Y-2102097D01*
X4994261Y-2733461D02*
X5001662Y-2723273D01*
X2540000Y-2055000D02*
X2540000Y-2020000D01*
X5005554Y-2128704D02*
X5001662Y-2116727D01*
X704151Y-1775849D02*
X668821Y-1727220D01*
X840000Y-800000D02*
X833704Y-800246D01*
X811539Y-1991539D02*
X804138Y-2001727D01*
X800246Y-2013704D02*
X800000Y-2020000D01*
X668821Y-3112780D02*
X704151Y-3064151D01*
X4112800Y-3275000D02*
X4112800Y-3125000D01*
X752780Y-3028821D02*
X807097Y-3011172D01*
X5101649Y-5200849D02*
X5053020Y-5236179D01*
X5155800Y-952068D02*
X5155800Y-1190000D01*
X5136979Y-3972220D02*
X5101649Y-4020849D01*
X2573704Y-3925246D02*
X2580000Y-3925000D01*
X2528461Y-2848461D02*
X2535862Y-2838273D01*
X2675150Y-4305000D02*
X4012800Y-4305000D01*
X5390000Y-7420000D02*
X5390000Y-7570000D01*
X840000Y-3160000D02*
X833704Y-3160246D01*
X1620000Y-1980000D02*
X840000Y-1980000D01*
X821727Y-5215862D02*
X833704Y-5219754D01*
X800000Y-1640000D02*
X800246Y-1646296D01*
X5101649Y-4020849D02*
X5053020Y-4056179D01*
X650000Y-6520000D02*
X800000Y-6520000D01*
X1910000Y-7420000D02*
X1910000Y-7570000D01*
X4998703Y-4073828D02*
X4968732Y-4075000D01*
X2540000Y-875000D02*
X2540000Y-840000D01*
X2540000Y-1605000D02*
X2540246Y-1598704D01*
X2528461Y-4028461D02*
X2535862Y-4018273D01*
X752780Y-2991179D02*
X704151Y-2955849D01*
X4998703Y-2893828D02*
X4968732Y-2895000D01*
X800000Y-2820000D02*
X800246Y-2826296D01*
X4972096Y-3924754D02*
X4984073Y-3920862D01*
X5005554Y-5071296D02*
X5005800Y-5065000D01*
X4012800Y-1565000D02*
X4012800Y-1715000D01*
X2506296Y-2859754D02*
X2518273Y-2855862D01*
X4984073Y-4459138D02*
X4972096Y-4455246D01*
X2500000Y-800000D02*
X1720000Y-800000D01*
X800246Y-1646296D02*
X804138Y-1658273D01*
X4968732Y-2895000D02*
X4112800Y-2895000D01*
X2573704Y-2094754D02*
X2561727Y-2090862D01*
X2544138Y-2766727D02*
X2551539Y-2756539D01*
X2540000Y-5145000D02*
X2540246Y-5138704D01*
X5390000Y-7570000D02*
X2010000Y-7570000D01*
X6600000Y-6420000D02*
X6600000Y-5520000D01*
X704151Y-4244151D02*
X752780Y-4208821D01*
X2532903Y-5368828D02*
X2502932Y-5370000D01*
X2500000Y-2860000D02*
X2506296Y-2859754D01*
X2540246Y-2778704D02*
X2544138Y-2766727D01*
X5154628Y-3282097D02*
X5155800Y-3312068D01*
X2573704Y-2745246D02*
X2580000Y-2745000D01*
X2535862Y-4361727D02*
X2528461Y-4351539D01*
X2635849Y-1775849D02*
X2587220Y-1811179D01*
X800000Y-4830000D02*
X800000Y-5180000D01*
X4012800Y-4075000D02*
X2675150Y-4075000D01*
X6750000Y-7570000D02*
X5490000Y-7570000D01*
X2532903Y-3008828D02*
X2502932Y-3010000D01*
X1720000Y-5220000D02*
X1910000Y-5220000D01*
X5005554Y-1531296D02*
X5005800Y-1525000D01*
X4112800Y-5105000D02*
X4965800Y-5105000D01*
X2540246Y-881296D02*
X2540000Y-875000D01*
X2544138Y-4433273D02*
X2540246Y-4421296D01*
X1720000Y-4040000D02*
X2500000Y-4040000D01*
X840000Y-4340000D02*
X833704Y-4340246D01*
X2535862Y-2838273D02*
X2539754Y-2826296D01*
X2635849Y-4244151D02*
X2671179Y-4292780D01*
X651172Y-4347097D02*
X668821Y-4292780D01*
X804138Y-3181727D02*
X800246Y-3193704D01*
X2535862Y-821727D02*
X2528461Y-811539D01*
X2675150Y-2895000D02*
X2671179Y-2907220D01*
X4112800Y-765000D02*
X4968732Y-765000D01*
X840000Y-2860000D02*
X1620000Y-2860000D01*
X4012800Y-5105000D02*
X4012800Y-5255000D01*
X2518273Y-3164138D02*
X2506296Y-3160246D01*
X2540246Y-5138704D02*
X2544138Y-5126727D01*
X668821Y-5267220D02*
X651172Y-5212903D01*
X4972096Y-4455246D02*
X4965800Y-4455000D01*
X800000Y-5180000D02*
X800246Y-5186296D01*
X6750000Y-6420000D02*
X6600000Y-6420000D01*
X4965800Y-1565000D02*
X4972096Y-1564754D01*
X5154628Y-1557903D02*
X5136979Y-1612220D01*
X2540000Y-2020000D02*
X2539754Y-2013704D01*
X5490000Y-5370000D02*
X6750000Y-5370000D01*
X1720000Y-650000D02*
X2502932Y-650000D01*
D11*
X150000Y-150000D02*
X350000Y-350000D01*
X350000Y-150000D02*
X150000Y-350000D01*
X150000Y-7870000D02*
X350000Y-8070000D01*
X350000Y-7870000D02*
X150000Y-8070000D01*
X6550000Y-7870000D02*
X6750000Y-8070000D01*
X6750000Y-7870000D02*
X6550000Y-8070000D01*
X7050000Y-150000D02*
X7250000Y-350000D01*
X7250000Y-150000D02*
X7050000Y-350000D01*
X258277Y-8533984D02*
X258277Y-8333984D01*
X258277Y-8333984D02*
X305896Y-8333984D01*
X305896Y-8333984D02*
X334467Y-8343508D01*
X334467Y-8343508D02*
X353515Y-8362555D01*
X353515Y-8362555D02*
X363039Y-8381603D01*
X363039Y-8381603D02*
X372562Y-8419698D01*
X372562Y-8419698D02*
X372562Y-8448270D01*
X372562Y-8448270D02*
X363039Y-8486365D01*
X363039Y-8486365D02*
X353515Y-8505412D01*
X353515Y-8505412D02*
X334467Y-8524460D01*
X334467Y-8524460D02*
X305896Y-8533984D01*
X305896Y-8533984D02*
X258277Y-8533984D01*
X458277Y-8533984D02*
X458277Y-8400650D01*
X458277Y-8438746D02*
X467801Y-8419698D01*
X467801Y-8419698D02*
X477324Y-8410174D01*
X477324Y-8410174D02*
X496372Y-8400650D01*
X496372Y-8400650D02*
X515420Y-8400650D01*
X582086Y-8533984D02*
X582086Y-8400650D01*
X582086Y-8333984D02*
X572563Y-8343508D01*
X572563Y-8343508D02*
X582086Y-8353031D01*
X582086Y-8353031D02*
X591610Y-8343508D01*
X591610Y-8343508D02*
X582086Y-8333984D01*
X582086Y-8333984D02*
X582086Y-8353031D01*
X705896Y-8533984D02*
X686848Y-8524460D01*
X686848Y-8524460D02*
X677324Y-8505412D01*
X677324Y-8505412D02*
X677324Y-8333984D01*
X810658Y-8533984D02*
X791610Y-8524460D01*
X791610Y-8524460D02*
X782086Y-8505412D01*
X782086Y-8505412D02*
X782086Y-8333984D01*
X1039229Y-8533984D02*
X1039229Y-8333984D01*
X1039229Y-8333984D02*
X1105896Y-8476841D01*
X1105896Y-8476841D02*
X1172563Y-8333984D01*
X1172563Y-8333984D02*
X1172563Y-8533984D01*
X1353515Y-8533984D02*
X1353515Y-8429222D01*
X1353515Y-8429222D02*
X1343991Y-8410174D01*
X1343991Y-8410174D02*
X1324944Y-8400650D01*
X1324944Y-8400650D02*
X1286848Y-8400650D01*
X1286848Y-8400650D02*
X1267801Y-8410174D01*
X1353515Y-8524460D02*
X1334467Y-8533984D01*
X1334467Y-8533984D02*
X1286848Y-8533984D01*
X1286848Y-8533984D02*
X1267801Y-8524460D01*
X1267801Y-8524460D02*
X1258277Y-8505412D01*
X1258277Y-8505412D02*
X1258277Y-8486365D01*
X1258277Y-8486365D02*
X1267801Y-8467317D01*
X1267801Y-8467317D02*
X1286848Y-8457793D01*
X1286848Y-8457793D02*
X1334467Y-8457793D01*
X1334467Y-8457793D02*
X1353515Y-8448270D01*
X1448753Y-8400650D02*
X1448753Y-8600650D01*
X1448753Y-8410174D02*
X1467801Y-8400650D01*
X1467801Y-8400650D02*
X1505896Y-8400650D01*
X1505896Y-8400650D02*
X1524943Y-8410174D01*
X1524943Y-8410174D02*
X1534467Y-8419698D01*
X1534467Y-8419698D02*
X1543991Y-8438746D01*
X1543991Y-8438746D02*
X1543991Y-8495889D01*
X1543991Y-8495889D02*
X1534467Y-8514936D01*
X1534467Y-8514936D02*
X1524943Y-8524460D01*
X1524943Y-8524460D02*
X1505896Y-8533984D01*
X1505896Y-8533984D02*
X1467801Y-8533984D01*
X1467801Y-8533984D02*
X1448753Y-8524460D01*
X1629705Y-8514936D02*
X1639229Y-8524460D01*
X1639229Y-8524460D02*
X1629705Y-8533984D01*
X1629705Y-8533984D02*
X1620182Y-8524460D01*
X1620182Y-8524460D02*
X1629705Y-8514936D01*
X1629705Y-8514936D02*
X1629705Y-8533984D01*
X1629705Y-8410174D02*
X1639229Y-8419698D01*
X1639229Y-8419698D02*
X1629705Y-8429222D01*
X1629705Y-8429222D02*
X1620182Y-8419698D01*
X1620182Y-8419698D02*
X1629705Y-8410174D01*
X1629705Y-8410174D02*
X1629705Y-8429222D01*
X-202500Y-8762500D02*
X-2500Y-8962500D01*
X-2500Y-8762500D02*
X-202500Y-8962500D01*
X248753Y-8773031D02*
X258277Y-8763508D01*
X258277Y-8763508D02*
X277324Y-8753984D01*
X277324Y-8753984D02*
X324944Y-8753984D01*
X324944Y-8753984D02*
X343991Y-8763508D01*
X343991Y-8763508D02*
X353515Y-8773031D01*
X353515Y-8773031D02*
X363039Y-8792079D01*
X363039Y-8792079D02*
X363039Y-8811127D01*
X363039Y-8811127D02*
X353515Y-8839698D01*
X353515Y-8839698D02*
X239229Y-8953984D01*
X239229Y-8953984D02*
X363039Y-8953984D01*
X448753Y-8934936D02*
X458277Y-8944460D01*
X458277Y-8944460D02*
X448753Y-8953984D01*
X448753Y-8953984D02*
X439229Y-8944460D01*
X439229Y-8944460D02*
X448753Y-8934936D01*
X448753Y-8934936D02*
X448753Y-8953984D01*
X582086Y-8753984D02*
X601134Y-8753984D01*
X601134Y-8753984D02*
X620182Y-8763508D01*
X620182Y-8763508D02*
X629705Y-8773031D01*
X629705Y-8773031D02*
X639229Y-8792079D01*
X639229Y-8792079D02*
X648753Y-8830174D01*
X648753Y-8830174D02*
X648753Y-8877793D01*
X648753Y-8877793D02*
X639229Y-8915889D01*
X639229Y-8915889D02*
X629705Y-8934936D01*
X629705Y-8934936D02*
X620182Y-8944460D01*
X620182Y-8944460D02*
X601134Y-8953984D01*
X601134Y-8953984D02*
X582086Y-8953984D01*
X582086Y-8953984D02*
X563039Y-8944460D01*
X563039Y-8944460D02*
X553515Y-8934936D01*
X553515Y-8934936D02*
X543991Y-8915889D01*
X543991Y-8915889D02*
X534467Y-8877793D01*
X534467Y-8877793D02*
X534467Y-8830174D01*
X534467Y-8830174D02*
X543991Y-8792079D01*
X543991Y-8792079D02*
X553515Y-8773031D01*
X553515Y-8773031D02*
X563039Y-8763508D01*
X563039Y-8763508D02*
X582086Y-8753984D01*
X772562Y-8753984D02*
X791610Y-8753984D01*
X791610Y-8753984D02*
X810658Y-8763508D01*
X810658Y-8763508D02*
X820182Y-8773031D01*
X820182Y-8773031D02*
X829705Y-8792079D01*
X829705Y-8792079D02*
X839229Y-8830174D01*
X839229Y-8830174D02*
X839229Y-8877793D01*
X839229Y-8877793D02*
X829705Y-8915889D01*
X829705Y-8915889D02*
X820182Y-8934936D01*
X820182Y-8934936D02*
X810658Y-8944460D01*
X810658Y-8944460D02*
X791610Y-8953984D01*
X791610Y-8953984D02*
X772562Y-8953984D01*
X772562Y-8953984D02*
X753515Y-8944460D01*
X753515Y-8944460D02*
X743991Y-8934936D01*
X743991Y-8934936D02*
X734467Y-8915889D01*
X734467Y-8915889D02*
X724943Y-8877793D01*
X724943Y-8877793D02*
X724943Y-8830174D01*
X724943Y-8830174D02*
X734467Y-8792079D01*
X734467Y-8792079D02*
X743991Y-8773031D01*
X743991Y-8773031D02*
X753515Y-8763508D01*
X753515Y-8763508D02*
X772562Y-8753984D01*
X963039Y-8753984D02*
X982086Y-8753984D01*
X982086Y-8753984D02*
X1001134Y-8763508D01*
X1001134Y-8763508D02*
X1010658Y-8773031D01*
X1010658Y-8773031D02*
X1020182Y-8792079D01*
X1020182Y-8792079D02*
X1029705Y-8830174D01*
X1029705Y-8830174D02*
X1029705Y-8877793D01*
X1029705Y-8877793D02*
X1020182Y-8915889D01*
X1020182Y-8915889D02*
X1010658Y-8934936D01*
X1010658Y-8934936D02*
X1001134Y-8944460D01*
X1001134Y-8944460D02*
X982086Y-8953984D01*
X982086Y-8953984D02*
X963039Y-8953984D01*
X963039Y-8953984D02*
X943991Y-8944460D01*
X943991Y-8944460D02*
X934467Y-8934936D01*
X934467Y-8934936D02*
X924943Y-8915889D01*
X924943Y-8915889D02*
X915420Y-8877793D01*
X915420Y-8877793D02*
X915420Y-8830174D01*
X915420Y-8830174D02*
X924943Y-8792079D01*
X924943Y-8792079D02*
X934467Y-8773031D01*
X934467Y-8773031D02*
X943991Y-8763508D01*
X943991Y-8763508D02*
X963039Y-8753984D01*
X1115420Y-8953984D02*
X1115420Y-8820650D01*
X1115420Y-8839698D02*
X1124944Y-8830174D01*
X1124944Y-8830174D02*
X1143991Y-8820650D01*
X1143991Y-8820650D02*
X1172563Y-8820650D01*
X1172563Y-8820650D02*
X1191610Y-8830174D01*
X1191610Y-8830174D02*
X1201134Y-8849222D01*
X1201134Y-8849222D02*
X1201134Y-8953984D01*
X1201134Y-8849222D02*
X1210658Y-8830174D01*
X1210658Y-8830174D02*
X1229705Y-8820650D01*
X1229705Y-8820650D02*
X1258277Y-8820650D01*
X1258277Y-8820650D02*
X1277325Y-8830174D01*
X1277325Y-8830174D02*
X1286848Y-8849222D01*
X1286848Y-8849222D02*
X1286848Y-8953984D01*
X1382086Y-8953984D02*
X1382086Y-8820650D01*
X1382086Y-8839698D02*
X1391610Y-8830174D01*
X1391610Y-8830174D02*
X1410658Y-8820650D01*
X1410658Y-8820650D02*
X1439229Y-8820650D01*
X1439229Y-8820650D02*
X1458277Y-8830174D01*
X1458277Y-8830174D02*
X1467801Y-8849222D01*
X1467801Y-8849222D02*
X1467801Y-8953984D01*
X1467801Y-8849222D02*
X1477324Y-8830174D01*
X1477324Y-8830174D02*
X1496372Y-8820650D01*
X1496372Y-8820650D02*
X1524943Y-8820650D01*
X1524943Y-8820650D02*
X1543991Y-8830174D01*
X1543991Y-8830174D02*
X1553515Y-8849222D01*
X1553515Y-8849222D02*
X1553515Y-8953984D01*
X1943991Y-8744460D02*
X1772563Y-9001603D01*
X2201134Y-8753984D02*
X2220182Y-8753984D01*
X2220182Y-8753984D02*
X2239229Y-8763508D01*
X2239229Y-8763508D02*
X2248753Y-8773031D01*
X2248753Y-8773031D02*
X2258277Y-8792079D01*
X2258277Y-8792079D02*
X2267801Y-8830174D01*
X2267801Y-8830174D02*
X2267801Y-8877793D01*
X2267801Y-8877793D02*
X2258277Y-8915889D01*
X2258277Y-8915889D02*
X2248753Y-8934936D01*
X2248753Y-8934936D02*
X2239229Y-8944460D01*
X2239229Y-8944460D02*
X2220182Y-8953984D01*
X2220182Y-8953984D02*
X2201134Y-8953984D01*
X2201134Y-8953984D02*
X2182087Y-8944460D01*
X2182087Y-8944460D02*
X2172563Y-8934936D01*
X2172563Y-8934936D02*
X2163039Y-8915889D01*
X2163039Y-8915889D02*
X2153515Y-8877793D01*
X2153515Y-8877793D02*
X2153515Y-8830174D01*
X2153515Y-8830174D02*
X2163039Y-8792079D01*
X2163039Y-8792079D02*
X2172563Y-8773031D01*
X2172563Y-8773031D02*
X2182087Y-8763508D01*
X2182087Y-8763508D02*
X2201134Y-8753984D01*
X2353515Y-8934936D02*
X2363039Y-8944460D01*
X2363039Y-8944460D02*
X2353515Y-8953984D01*
X2353515Y-8953984D02*
X2343991Y-8944460D01*
X2343991Y-8944460D02*
X2353515Y-8934936D01*
X2353515Y-8934936D02*
X2353515Y-8953984D01*
X2486848Y-8753984D02*
X2505896Y-8753984D01*
X2505896Y-8753984D02*
X2524944Y-8763508D01*
X2524944Y-8763508D02*
X2534468Y-8773031D01*
X2534468Y-8773031D02*
X2543991Y-8792079D01*
X2543991Y-8792079D02*
X2553515Y-8830174D01*
X2553515Y-8830174D02*
X2553515Y-8877793D01*
X2553515Y-8877793D02*
X2543991Y-8915889D01*
X2543991Y-8915889D02*
X2534468Y-8934936D01*
X2534468Y-8934936D02*
X2524944Y-8944460D01*
X2524944Y-8944460D02*
X2505896Y-8953984D01*
X2505896Y-8953984D02*
X2486848Y-8953984D01*
X2486848Y-8953984D02*
X2467801Y-8944460D01*
X2467801Y-8944460D02*
X2458277Y-8934936D01*
X2458277Y-8934936D02*
X2448753Y-8915889D01*
X2448753Y-8915889D02*
X2439229Y-8877793D01*
X2439229Y-8877793D02*
X2439229Y-8830174D01*
X2439229Y-8830174D02*
X2448753Y-8792079D01*
X2448753Y-8792079D02*
X2458277Y-8773031D01*
X2458277Y-8773031D02*
X2467801Y-8763508D01*
X2467801Y-8763508D02*
X2486848Y-8753984D01*
X2620182Y-8753984D02*
X2753515Y-8753984D01*
X2753515Y-8753984D02*
X2667801Y-8953984D01*
X2858277Y-8839698D02*
X2839229Y-8830174D01*
X2839229Y-8830174D02*
X2829706Y-8820650D01*
X2829706Y-8820650D02*
X2820182Y-8801603D01*
X2820182Y-8801603D02*
X2820182Y-8792079D01*
X2820182Y-8792079D02*
X2829706Y-8773031D01*
X2829706Y-8773031D02*
X2839229Y-8763508D01*
X2839229Y-8763508D02*
X2858277Y-8753984D01*
X2858277Y-8753984D02*
X2896372Y-8753984D01*
X2896372Y-8753984D02*
X2915420Y-8763508D01*
X2915420Y-8763508D02*
X2924944Y-8773031D01*
X2924944Y-8773031D02*
X2934467Y-8792079D01*
X2934467Y-8792079D02*
X2934467Y-8801603D01*
X2934467Y-8801603D02*
X2924944Y-8820650D01*
X2924944Y-8820650D02*
X2915420Y-8830174D01*
X2915420Y-8830174D02*
X2896372Y-8839698D01*
X2896372Y-8839698D02*
X2858277Y-8839698D01*
X2858277Y-8839698D02*
X2839229Y-8849222D01*
X2839229Y-8849222D02*
X2829706Y-8858746D01*
X2829706Y-8858746D02*
X2820182Y-8877793D01*
X2820182Y-8877793D02*
X2820182Y-8915889D01*
X2820182Y-8915889D02*
X2829706Y-8934936D01*
X2829706Y-8934936D02*
X2839229Y-8944460D01*
X2839229Y-8944460D02*
X2858277Y-8953984D01*
X2858277Y-8953984D02*
X2896372Y-8953984D01*
X2896372Y-8953984D02*
X2915420Y-8944460D01*
X2915420Y-8944460D02*
X2924944Y-8934936D01*
X2924944Y-8934936D02*
X2934467Y-8915889D01*
X2934467Y-8915889D02*
X2934467Y-8877793D01*
X2934467Y-8877793D02*
X2924944Y-8858746D01*
X2924944Y-8858746D02*
X2915420Y-8849222D01*
X2915420Y-8849222D02*
X2896372Y-8839698D01*
X3001134Y-8753984D02*
X3134467Y-8753984D01*
X3134467Y-8753984D02*
X3048753Y-8953984D01*
X3201134Y-8753984D02*
X3201134Y-8792079D01*
X3277325Y-8753984D02*
X3277325Y-8792079D01*
X3572563Y-9030174D02*
X3563039Y-9020650D01*
X3563039Y-9020650D02*
X3543991Y-8992079D01*
X3543991Y-8992079D02*
X3534468Y-8973031D01*
X3534468Y-8973031D02*
X3524944Y-8944460D01*
X3524944Y-8944460D02*
X3515420Y-8896841D01*
X3515420Y-8896841D02*
X3515420Y-8858746D01*
X3515420Y-8858746D02*
X3524944Y-8811127D01*
X3524944Y-8811127D02*
X3534468Y-8782555D01*
X3534468Y-8782555D02*
X3543991Y-8763508D01*
X3543991Y-8763508D02*
X3563039Y-8734936D01*
X3563039Y-8734936D02*
X3572563Y-8725412D01*
X3734468Y-8820650D02*
X3734468Y-8953984D01*
X3686848Y-8744460D02*
X3639229Y-8887317D01*
X3639229Y-8887317D02*
X3763039Y-8887317D01*
X3991610Y-8953984D02*
X3991610Y-8753984D01*
X4077325Y-8953984D02*
X4077325Y-8849222D01*
X4077325Y-8849222D02*
X4067801Y-8830174D01*
X4067801Y-8830174D02*
X4048753Y-8820650D01*
X4048753Y-8820650D02*
X4020182Y-8820650D01*
X4020182Y-8820650D02*
X4001134Y-8830174D01*
X4001134Y-8830174D02*
X3991610Y-8839698D01*
X4201134Y-8953984D02*
X4182087Y-8944460D01*
X4182087Y-8944460D02*
X4172563Y-8934936D01*
X4172563Y-8934936D02*
X4163039Y-8915889D01*
X4163039Y-8915889D02*
X4163039Y-8858746D01*
X4163039Y-8858746D02*
X4172563Y-8839698D01*
X4172563Y-8839698D02*
X4182087Y-8830174D01*
X4182087Y-8830174D02*
X4201134Y-8820650D01*
X4201134Y-8820650D02*
X4229706Y-8820650D01*
X4229706Y-8820650D02*
X4248753Y-8830174D01*
X4248753Y-8830174D02*
X4258277Y-8839698D01*
X4258277Y-8839698D02*
X4267801Y-8858746D01*
X4267801Y-8858746D02*
X4267801Y-8915889D01*
X4267801Y-8915889D02*
X4258277Y-8934936D01*
X4258277Y-8934936D02*
X4248753Y-8944460D01*
X4248753Y-8944460D02*
X4229706Y-8953984D01*
X4229706Y-8953984D02*
X4201134Y-8953984D01*
X4382087Y-8953984D02*
X4363039Y-8944460D01*
X4363039Y-8944460D02*
X4353515Y-8925412D01*
X4353515Y-8925412D02*
X4353515Y-8753984D01*
X4534468Y-8944460D02*
X4515420Y-8953984D01*
X4515420Y-8953984D02*
X4477325Y-8953984D01*
X4477325Y-8953984D02*
X4458277Y-8944460D01*
X4458277Y-8944460D02*
X4448753Y-8925412D01*
X4448753Y-8925412D02*
X4448753Y-8849222D01*
X4448753Y-8849222D02*
X4458277Y-8830174D01*
X4458277Y-8830174D02*
X4477325Y-8820650D01*
X4477325Y-8820650D02*
X4515420Y-8820650D01*
X4515420Y-8820650D02*
X4534468Y-8830174D01*
X4534468Y-8830174D02*
X4543992Y-8849222D01*
X4543992Y-8849222D02*
X4543992Y-8868270D01*
X4543992Y-8868270D02*
X4448753Y-8887317D01*
X4620182Y-8944460D02*
X4639230Y-8953984D01*
X4639230Y-8953984D02*
X4677325Y-8953984D01*
X4677325Y-8953984D02*
X4696373Y-8944460D01*
X4696373Y-8944460D02*
X4705896Y-8925412D01*
X4705896Y-8925412D02*
X4705896Y-8915889D01*
X4705896Y-8915889D02*
X4696373Y-8896841D01*
X4696373Y-8896841D02*
X4677325Y-8887317D01*
X4677325Y-8887317D02*
X4648753Y-8887317D01*
X4648753Y-8887317D02*
X4629706Y-8877793D01*
X4629706Y-8877793D02*
X4620182Y-8858746D01*
X4620182Y-8858746D02*
X4620182Y-8849222D01*
X4620182Y-8849222D02*
X4629706Y-8830174D01*
X4629706Y-8830174D02*
X4648753Y-8820650D01*
X4648753Y-8820650D02*
X4677325Y-8820650D01*
X4677325Y-8820650D02*
X4696373Y-8830174D01*
X4772563Y-9030174D02*
X4782087Y-9020650D01*
X4782087Y-9020650D02*
X4801134Y-8992079D01*
X4801134Y-8992079D02*
X4810658Y-8973031D01*
X4810658Y-8973031D02*
X4820182Y-8944460D01*
X4820182Y-8944460D02*
X4829706Y-8896841D01*
X4829706Y-8896841D02*
X4829706Y-8858746D01*
X4829706Y-8858746D02*
X4820182Y-8811127D01*
X4820182Y-8811127D02*
X4810658Y-8782555D01*
X4810658Y-8782555D02*
X4801134Y-8763508D01*
X4801134Y-8763508D02*
X4782087Y-8734936D01*
X4782087Y-8734936D02*
X4772563Y-8725412D01*
X5134468Y-9030174D02*
X5124944Y-9020650D01*
X5124944Y-9020650D02*
X5105896Y-8992079D01*
X5105896Y-8992079D02*
X5096373Y-8973031D01*
X5096373Y-8973031D02*
X5086849Y-8944460D01*
X5086849Y-8944460D02*
X5077325Y-8896841D01*
X5077325Y-8896841D02*
X5077325Y-8858746D01*
X5077325Y-8858746D02*
X5086849Y-8811127D01*
X5086849Y-8811127D02*
X5096373Y-8782555D01*
X5096373Y-8782555D02*
X5105896Y-8763508D01*
X5105896Y-8763508D02*
X5124944Y-8734936D01*
X5124944Y-8734936D02*
X5134468Y-8725412D01*
X5210658Y-8820650D02*
X5210658Y-8953984D01*
X5210658Y-8839698D02*
X5220182Y-8830174D01*
X5220182Y-8830174D02*
X5239230Y-8820650D01*
X5239230Y-8820650D02*
X5267801Y-8820650D01*
X5267801Y-8820650D02*
X5286849Y-8830174D01*
X5286849Y-8830174D02*
X5296373Y-8849222D01*
X5296373Y-8849222D02*
X5296373Y-8953984D01*
X5420182Y-8953984D02*
X5401134Y-8944460D01*
X5401134Y-8944460D02*
X5391611Y-8934936D01*
X5391611Y-8934936D02*
X5382087Y-8915889D01*
X5382087Y-8915889D02*
X5382087Y-8858746D01*
X5382087Y-8858746D02*
X5391611Y-8839698D01*
X5391611Y-8839698D02*
X5401134Y-8830174D01*
X5401134Y-8830174D02*
X5420182Y-8820650D01*
X5420182Y-8820650D02*
X5448754Y-8820650D01*
X5448754Y-8820650D02*
X5467801Y-8830174D01*
X5467801Y-8830174D02*
X5477325Y-8839698D01*
X5477325Y-8839698D02*
X5486849Y-8858746D01*
X5486849Y-8858746D02*
X5486849Y-8915889D01*
X5486849Y-8915889D02*
X5477325Y-8934936D01*
X5477325Y-8934936D02*
X5467801Y-8944460D01*
X5467801Y-8944460D02*
X5448754Y-8953984D01*
X5448754Y-8953984D02*
X5420182Y-8953984D01*
X5543992Y-8820650D02*
X5620182Y-8820650D01*
X5572563Y-8753984D02*
X5572563Y-8925412D01*
X5572563Y-8925412D02*
X5582087Y-8944460D01*
X5582087Y-8944460D02*
X5601134Y-8953984D01*
X5601134Y-8953984D02*
X5620182Y-8953984D01*
X5839230Y-8820650D02*
X5839230Y-9020650D01*
X5839230Y-8830174D02*
X5858277Y-8820650D01*
X5858277Y-8820650D02*
X5896373Y-8820650D01*
X5896373Y-8820650D02*
X5915420Y-8830174D01*
X5915420Y-8830174D02*
X5924944Y-8839698D01*
X5924944Y-8839698D02*
X5934468Y-8858746D01*
X5934468Y-8858746D02*
X5934468Y-8915889D01*
X5934468Y-8915889D02*
X5924944Y-8934936D01*
X5924944Y-8934936D02*
X5915420Y-8944460D01*
X5915420Y-8944460D02*
X5896373Y-8953984D01*
X5896373Y-8953984D02*
X5858277Y-8953984D01*
X5858277Y-8953984D02*
X5839230Y-8944460D01*
X6048753Y-8953984D02*
X6029706Y-8944460D01*
X6029706Y-8944460D02*
X6020182Y-8925412D01*
X6020182Y-8925412D02*
X6020182Y-8753984D01*
X6210658Y-8953984D02*
X6210658Y-8849222D01*
X6210658Y-8849222D02*
X6201134Y-8830174D01*
X6201134Y-8830174D02*
X6182087Y-8820650D01*
X6182087Y-8820650D02*
X6143992Y-8820650D01*
X6143992Y-8820650D02*
X6124944Y-8830174D01*
X6210658Y-8944460D02*
X6191611Y-8953984D01*
X6191611Y-8953984D02*
X6143992Y-8953984D01*
X6143992Y-8953984D02*
X6124944Y-8944460D01*
X6124944Y-8944460D02*
X6115420Y-8925412D01*
X6115420Y-8925412D02*
X6115420Y-8906365D01*
X6115420Y-8906365D02*
X6124944Y-8887317D01*
X6124944Y-8887317D02*
X6143992Y-8877793D01*
X6143992Y-8877793D02*
X6191611Y-8877793D01*
X6191611Y-8877793D02*
X6210658Y-8868270D01*
X6277325Y-8820650D02*
X6353515Y-8820650D01*
X6305896Y-8753984D02*
X6305896Y-8925412D01*
X6305896Y-8925412D02*
X6315420Y-8944460D01*
X6315420Y-8944460D02*
X6334468Y-8953984D01*
X6334468Y-8953984D02*
X6353515Y-8953984D01*
X6496373Y-8944460D02*
X6477325Y-8953984D01*
X6477325Y-8953984D02*
X6439230Y-8953984D01*
X6439230Y-8953984D02*
X6420182Y-8944460D01*
X6420182Y-8944460D02*
X6410658Y-8925412D01*
X6410658Y-8925412D02*
X6410658Y-8849222D01*
X6410658Y-8849222D02*
X6420182Y-8830174D01*
X6420182Y-8830174D02*
X6439230Y-8820650D01*
X6439230Y-8820650D02*
X6477325Y-8820650D01*
X6477325Y-8820650D02*
X6496373Y-8830174D01*
X6496373Y-8830174D02*
X6505896Y-8849222D01*
X6505896Y-8849222D02*
X6505896Y-8868270D01*
X6505896Y-8868270D02*
X6410658Y-8887317D01*
X6677325Y-8953984D02*
X6677325Y-8753984D01*
X6677325Y-8944460D02*
X6658277Y-8953984D01*
X6658277Y-8953984D02*
X6620182Y-8953984D01*
X6620182Y-8953984D02*
X6601134Y-8944460D01*
X6601134Y-8944460D02*
X6591611Y-8934936D01*
X6591611Y-8934936D02*
X6582087Y-8915889D01*
X6582087Y-8915889D02*
X6582087Y-8858746D01*
X6582087Y-8858746D02*
X6591611Y-8839698D01*
X6591611Y-8839698D02*
X6601134Y-8830174D01*
X6601134Y-8830174D02*
X6620182Y-8820650D01*
X6620182Y-8820650D02*
X6658277Y-8820650D01*
X6658277Y-8820650D02*
X6677325Y-8830174D01*
X6753515Y-9030174D02*
X6763039Y-9020650D01*
X6763039Y-9020650D02*
X6782087Y-8992079D01*
X6782087Y-8992079D02*
X6791611Y-8973031D01*
X6791611Y-8973031D02*
X6801134Y-8944460D01*
X6801134Y-8944460D02*
X6810658Y-8896841D01*
X6810658Y-8896841D02*
X6810658Y-8858746D01*
X6810658Y-8858746D02*
X6801134Y-8811127D01*
X6801134Y-8811127D02*
X6791611Y-8782555D01*
X6791611Y-8782555D02*
X6782087Y-8763508D01*
X6782087Y-8763508D02*
X6763039Y-8734936D01*
X6763039Y-8734936D02*
X6753515Y-8725412D01*
M02*
