G04 #@! TF.GenerationSoftware,KiCad,Pcbnew,9.0.2+dfsg-1*
G04 #@! TF.CreationDate,2026-10-04T10:34:02-04:00*
G04 #@! TF.ProjectId,panel_a25,70616e65-6c5f-4613-9235-2e6b69636164,rev?*
G04 #@! TF.SameCoordinates,Original*
G04 #@! TF.FileFunction,Legend,Bot*
G04 #@! TF.FilePolarity,Positive*
%FSLAX46Y46*%
G04 Gerber Fmt 4.6, Leading zero omitted, Abs format (unit mm)*
G04 Created by KiCad (PCBNEW 9.0.2+dfsg-1) date 2026-10-04 10:34:02*
%MOMM*%
%LPD*%
G01*
G04 APERTURE LIST*
%ADD10C,1.250000*%
%ADD11C,2.800000*%
%ADD12C,2.000000*%
G04 APERTURE END LIST*
%LPC*%
D10*
G04 #@! TO.C,J1_A2*
X12900000Y-25000001D03*
X15400000Y-25000001D03*
X17400000Y-25000001D03*
X19900000Y-25000001D03*
X20400000Y-23400001D03*
X18400000Y-23400001D03*
X16400000Y-23400001D03*
X14400000Y-23400001D03*
X12400000Y-23400001D03*
D11*
X9825000Y-24850001D03*
X22975000Y-24850001D03*
G04 #@! TD*
D10*
G04 #@! TO.C,J1_A4*
X12900000Y-48600001D03*
X15400000Y-48600001D03*
X17400000Y-48600001D03*
X19900000Y-48600001D03*
X20400000Y-47000001D03*
X18400000Y-47000001D03*
X16400000Y-47000001D03*
X14400000Y-47000001D03*
X12400000Y-47000001D03*
D11*
X9825000Y-48450001D03*
X22975000Y-48450001D03*
G04 #@! TD*
D10*
G04 #@! TO.C,J1_A1*
X12900000Y-13200000D03*
X15400000Y-13200000D03*
X17400000Y-13200000D03*
X19900000Y-13200000D03*
X20400000Y-11600000D03*
X18400000Y-11600000D03*
X16400000Y-11600000D03*
X14400000Y-11600000D03*
X12400000Y-11600000D03*
D11*
X9825000Y-13050000D03*
X22975000Y-13050000D03*
G04 #@! TD*
D10*
G04 #@! TO.C,J1_A3*
X12900000Y-36800001D03*
X15400000Y-36800001D03*
X17400000Y-36800001D03*
X19900000Y-36800001D03*
X20400000Y-35200001D03*
X18400000Y-35200001D03*
X16400000Y-35200001D03*
X14400000Y-35200001D03*
X12400000Y-35200001D03*
D11*
X9825000Y-36650001D03*
X22975000Y-36650001D03*
G04 #@! TD*
D12*
G04 #@! TO.C,TH1*
X2500000Y-2500000D03*
G04 #@! TD*
G04 #@! TO.C,TH3*
X2500000Y-79700000D03*
G04 #@! TD*
G04 #@! TO.C,TH4*
X66500000Y-79700000D03*
G04 #@! TD*
G04 #@! TO.C,TH2*
X71500000Y-2500000D03*
G04 #@! TD*
%LPD*%
M02*
