G04 #@! TF.GenerationSoftware,KiCad,Pcbnew,9.0.2+dfsg-1*
G04 #@! TF.CreationDate,2026-10-04T10:34:02-04:00*
G04 #@! TF.ProjectId,panel_a25,70616e65-6c5f-4613-9235-2e6b69636164,rev?*
G04 #@! TF.SameCoordinates,Original*
G04 #@! TF.FileFunction,Paste,Top*
G04 #@! TF.FilePolarity,Positive*
%FSLAX46Y46*%
G04 Gerber Fmt 4.6, Leading zero omitted, Abs format (unit mm)*
G04 Created by KiCad (PCBNEW 9.0.2+dfsg-1) date 2026-10-04 10:34:02*
%MOMM*%
%LPD*%
G01*
G04 APERTURE LIST*
G04 Aperture macros list*
%AMRoundRect*
0 Rectangle with rounded corners*
0 $1 Rounding radius*
0 $2 $3 $4 $5 $6 $7 $8 $9 X,Y pos of 4 corners*
0 Add a 4 corners polygon primitive as box body*
4,1,4,$2,$3,$4,$5,$6,$7,$8,$9,$2,$3,0*
0 Add four circle primitives for the rounded corners*
1,1,$1+$1,$2,$3*
1,1,$1+$1,$4,$5*
1,1,$1+$1,$6,$7*
1,1,$1+$1,$8,$9*
0 Add four rect primitives between the rounded corners*
20,1,$1+$1,$2,$3,$4,$5,0*
20,1,$1+$1,$4,$5,$6,$7,0*
20,1,$1+$1,$6,$7,$8,$9,0*
20,1,$1+$1,$8,$9,$2,$3,0*%
G04 Aperture macros list end*
%ADD10RoundRect,0.122500X0.122500X0.322500X-0.122500X0.322500X-0.122500X-0.322500X0.122500X-0.322500X0*%
%ADD11RoundRect,0.062500X0.372500X0.062500X-0.372500X0.062500X-0.372500X-0.062500X0.372500X-0.062500X0*%
%ADD12RoundRect,0.079500X-0.079500X-0.100500X0.079500X-0.100500X0.079500X0.100500X-0.079500X0.100500X0*%
%ADD13R,0.230000X0.660000*%
%ADD14R,0.350000X0.660000*%
G04 APERTURE END LIST*
D10*
G04 #@! TO.C,U1_A1*
X48363000Y-12950000D03*
X48363000Y-11850000D03*
D11*
X49303000Y-13150000D03*
X49303000Y-12650000D03*
X49303000Y-12150000D03*
X49303000Y-11650000D03*
X47423000Y-11650000D03*
X47423000Y-12150000D03*
X47423000Y-12650000D03*
X47423000Y-13150000D03*
G04 #@! TD*
D10*
G04 #@! TO.C,U1_A3*
X48363000Y-36550001D03*
X48363000Y-35450001D03*
D11*
X49303000Y-36750001D03*
X49303000Y-36250001D03*
X49303000Y-35750001D03*
X49303000Y-35250001D03*
X47423000Y-35250001D03*
X47423000Y-35750001D03*
X47423000Y-36250001D03*
X47423000Y-36750001D03*
G04 #@! TD*
D12*
G04 #@! TO.C,C1_A4*
X47418000Y-50200001D03*
X48108000Y-50200001D03*
G04 #@! TD*
D13*
G04 #@! TO.C,J2_A3*
X35828000Y-34645001D03*
X35828000Y-37355001D03*
X36228000Y-34645001D03*
X36228000Y-37355001D03*
X36628000Y-34645001D03*
X36628000Y-37355001D03*
X37028000Y-34645001D03*
X37028000Y-37355001D03*
X37428000Y-34645001D03*
X37428000Y-37355001D03*
X37828000Y-34645001D03*
X37828000Y-37355001D03*
X38228000Y-34645001D03*
X38228000Y-37355001D03*
X38628000Y-34645001D03*
X38628000Y-37355001D03*
X39028000Y-34645001D03*
X39028000Y-37355001D03*
X39428000Y-34645001D03*
X39428000Y-37355001D03*
X39828000Y-34645001D03*
X39828000Y-37355001D03*
X40228000Y-34645001D03*
X40228000Y-37355001D03*
X40628000Y-34645001D03*
X40628000Y-37355001D03*
X41028000Y-34645001D03*
X41028000Y-37355001D03*
X41428000Y-34645001D03*
X41428000Y-37355001D03*
X41828000Y-34645001D03*
X41828000Y-37355001D03*
X42228000Y-34645001D03*
X42228000Y-37355001D03*
X42628000Y-34645001D03*
X42628000Y-37355001D03*
X43028000Y-34645001D03*
X43028000Y-37355001D03*
X43428000Y-34645001D03*
X43428000Y-37355001D03*
X43828000Y-34645001D03*
X43828000Y-37355001D03*
X44228000Y-34645001D03*
X44228000Y-37355001D03*
X44628000Y-34645001D03*
X44628000Y-37355001D03*
X45028000Y-34645001D03*
X45028000Y-37355001D03*
X45428000Y-34645001D03*
X45428000Y-37355001D03*
D14*
X35353000Y-34645001D03*
X35353000Y-37355001D03*
X45903000Y-34645001D03*
X45903000Y-37355001D03*
G04 #@! TD*
D13*
G04 #@! TO.C,J2_A2*
X35828000Y-22845001D03*
X35828000Y-25555001D03*
X36228000Y-22845001D03*
X36228000Y-25555001D03*
X36628000Y-22845001D03*
X36628000Y-25555001D03*
X37028000Y-22845001D03*
X37028000Y-25555001D03*
X37428000Y-22845001D03*
X37428000Y-25555001D03*
X37828000Y-22845001D03*
X37828000Y-25555001D03*
X38228000Y-22845001D03*
X38228000Y-25555001D03*
X38628000Y-22845001D03*
X38628000Y-25555001D03*
X39028000Y-22845001D03*
X39028000Y-25555001D03*
X39428000Y-22845001D03*
X39428000Y-25555001D03*
X39828000Y-22845001D03*
X39828000Y-25555001D03*
X40228000Y-22845001D03*
X40228000Y-25555001D03*
X40628000Y-22845001D03*
X40628000Y-25555001D03*
X41028000Y-22845001D03*
X41028000Y-25555001D03*
X41428000Y-22845001D03*
X41428000Y-25555001D03*
X41828000Y-22845001D03*
X41828000Y-25555001D03*
X42228000Y-22845001D03*
X42228000Y-25555001D03*
X42628000Y-22845001D03*
X42628000Y-25555001D03*
X43028000Y-22845001D03*
X43028000Y-25555001D03*
X43428000Y-22845001D03*
X43428000Y-25555001D03*
X43828000Y-22845001D03*
X43828000Y-25555001D03*
X44228000Y-22845001D03*
X44228000Y-25555001D03*
X44628000Y-22845001D03*
X44628000Y-25555001D03*
X45028000Y-22845001D03*
X45028000Y-25555001D03*
X45428000Y-22845001D03*
X45428000Y-25555001D03*
D14*
X35353000Y-22845001D03*
X35353000Y-25555001D03*
X45903000Y-22845001D03*
X45903000Y-25555001D03*
G04 #@! TD*
D12*
G04 #@! TO.C,C1_A1*
X47418000Y-14800000D03*
X48108000Y-14800000D03*
G04 #@! TD*
D13*
G04 #@! TO.C,J2_A1*
X35828000Y-11045000D03*
X35828000Y-13755000D03*
X36228000Y-11045000D03*
X36228000Y-13755000D03*
X36628000Y-11045000D03*
X36628000Y-13755000D03*
X37028000Y-11045000D03*
X37028000Y-13755000D03*
X37428000Y-11045000D03*
X37428000Y-13755000D03*
X37828000Y-11045000D03*
X37828000Y-13755000D03*
X38228000Y-11045000D03*
X38228000Y-13755000D03*
X38628000Y-11045000D03*
X38628000Y-13755000D03*
X39028000Y-11045000D03*
X39028000Y-13755000D03*
X39428000Y-11045000D03*
X39428000Y-13755000D03*
X39828000Y-11045000D03*
X39828000Y-13755000D03*
X40228000Y-11045000D03*
X40228000Y-13755000D03*
X40628000Y-11045000D03*
X40628000Y-13755000D03*
X41028000Y-11045000D03*
X41028000Y-13755000D03*
X41428000Y-11045000D03*
X41428000Y-13755000D03*
X41828000Y-11045000D03*
X41828000Y-13755000D03*
X42228000Y-11045000D03*
X42228000Y-13755000D03*
X42628000Y-11045000D03*
X42628000Y-13755000D03*
X43028000Y-11045000D03*
X43028000Y-13755000D03*
X43428000Y-11045000D03*
X43428000Y-13755000D03*
X43828000Y-11045000D03*
X43828000Y-13755000D03*
X44228000Y-11045000D03*
X44228000Y-13755000D03*
X44628000Y-11045000D03*
X44628000Y-13755000D03*
X45028000Y-11045000D03*
X45028000Y-13755000D03*
X45428000Y-11045000D03*
X45428000Y-13755000D03*
D14*
X35353000Y-11045000D03*
X35353000Y-13755000D03*
X45903000Y-11045000D03*
X45903000Y-13755000D03*
G04 #@! TD*
D10*
G04 #@! TO.C,U1_A4*
X48363000Y-48350001D03*
X48363000Y-47250001D03*
D11*
X49303000Y-48550001D03*
X49303000Y-48050001D03*
X49303000Y-47550001D03*
X49303000Y-47050001D03*
X47423000Y-47050001D03*
X47423000Y-47550001D03*
X47423000Y-48050001D03*
X47423000Y-48550001D03*
G04 #@! TD*
D10*
G04 #@! TO.C,U1_A2*
X48363000Y-24750001D03*
X48363000Y-23650001D03*
D11*
X49303000Y-24950001D03*
X49303000Y-24450001D03*
X49303000Y-23950001D03*
X49303000Y-23450001D03*
X47423000Y-23450001D03*
X47423000Y-23950001D03*
X47423000Y-24450001D03*
X47423000Y-24950001D03*
G04 #@! TD*
D12*
G04 #@! TO.C,C1_A3*
X47418000Y-38400001D03*
X48108000Y-38400001D03*
G04 #@! TD*
G04 #@! TO.C,C1_A2*
X47418000Y-26600001D03*
X48108000Y-26600001D03*
G04 #@! TD*
D13*
G04 #@! TO.C,J2_A4*
X35828000Y-46445001D03*
X35828000Y-49155001D03*
X36228000Y-46445001D03*
X36228000Y-49155001D03*
X36628000Y-46445001D03*
X36628000Y-49155001D03*
X37028000Y-46445001D03*
X37028000Y-49155001D03*
X37428000Y-46445001D03*
X37428000Y-49155001D03*
X37828000Y-46445001D03*
X37828000Y-49155001D03*
X38228000Y-46445001D03*
X38228000Y-49155001D03*
X38628000Y-46445001D03*
X38628000Y-49155001D03*
X39028000Y-46445001D03*
X39028000Y-49155001D03*
X39428000Y-46445001D03*
X39428000Y-49155001D03*
X39828000Y-46445001D03*
X39828000Y-49155001D03*
X40228000Y-46445001D03*
X40228000Y-49155001D03*
X40628000Y-46445001D03*
X40628000Y-49155001D03*
X41028000Y-46445001D03*
X41028000Y-49155001D03*
X41428000Y-46445001D03*
X41428000Y-49155001D03*
X41828000Y-46445001D03*
X41828000Y-49155001D03*
X42228000Y-46445001D03*
X42228000Y-49155001D03*
X42628000Y-46445001D03*
X42628000Y-49155001D03*
X43028000Y-46445001D03*
X43028000Y-49155001D03*
X43428000Y-46445001D03*
X43428000Y-49155001D03*
X43828000Y-46445001D03*
X43828000Y-49155001D03*
X44228000Y-46445001D03*
X44228000Y-49155001D03*
X44628000Y-46445001D03*
X44628000Y-49155001D03*
X45028000Y-46445001D03*
X45028000Y-49155001D03*
X45428000Y-46445001D03*
X45428000Y-49155001D03*
D14*
X35353000Y-46445001D03*
X35353000Y-49155001D03*
X45903000Y-46445001D03*
X45903000Y-49155001D03*
G04 #@! TD*
M02*
