G04 #@! TF.GenerationSoftware,KiCad,Pcbnew,9.0.2+dfsg-1*
G04 #@! TF.CreationDate,2026-10-04T10:34:02-04:00*
G04 #@! TF.ProjectId,panel_a25,70616e65-6c5f-4613-9235-2e6b69636164,rev?*
G04 #@! TF.SameCoordinates,Original*
G04 #@! TF.FileFunction,Legend,Top*
G04 #@! TF.FilePolarity,Positive*
%FSLAX46Y46*%
G04 Gerber Fmt 4.6, Leading zero omitted, Abs format (unit mm)*
G04 Created by KiCad (PCBNEW 9.0.2+dfsg-1) date 2026-10-04 10:34:02*
%MOMM*%
%LPD*%
G01*
G04 APERTURE LIST*
G04 Aperture macros list*
%AMRoundRect*
0 Rectangle with rounded corners*
0 $1 Rounding radius*
0 $2 $3 $4 $5 $6 $7 $8 $9 X,Y pos of 4 corners*
0 Add a 4 corners polygon primitive as box body*
4,1,4,$2,$3,$4,$5,$6,$7,$8,$9,$2,$3,0*
0 Add four circle primitives for the rounded corners*
1,1,$1+$1,$2,$3*
1,1,$1+$1,$4,$5*
1,1,$1+$1,$6,$7*
1,1,$1+$1,$8,$9*
0 Add four rect primitives between the rounded corners*
20,1,$1+$1,$2,$3,$4,$5,0*
20,1,$1+$1,$4,$5,$6,$7,0*
20,1,$1+$1,$6,$7,$8,$9,0*
20,1,$1+$1,$8,$9,$2,$3,0*%
G04 Aperture macros list end*
%ADD10C,0.084000*%
%ADD11C,0.098000*%
%ADD12C,0.120000*%
%ADD13C,0.250000*%
%ADD14C,2.000000*%
%ADD15RoundRect,0.062500X0.372500X0.062500X-0.372500X0.062500X-0.372500X-0.062500X0.372500X-0.062500X0*%
%ADD16R,0.610000X2.200000*%
%ADD17R,0.800000X0.500000*%
%ADD18RoundRect,0.100000X-0.130000X-0.100000X0.130000X-0.100000X0.130000X0.100000X-0.130000X0.100000X0*%
%ADD19R,0.230000X0.660000*%
%ADD20R,0.350000X0.660000*%
%ADD21C,1.250000*%
%ADD22C,2.800000*%
G04 APERTURE END LIST*
D10*
X14714283Y-58773204D02*
X14714283Y-59258918D01*
X14714283Y-59258918D02*
X14742854Y-59316061D01*
X14742854Y-59316061D02*
X14771426Y-59344633D01*
X14771426Y-59344633D02*
X14828568Y-59373204D01*
X14828568Y-59373204D02*
X14942854Y-59373204D01*
X14942854Y-59373204D02*
X14999997Y-59344633D01*
X14999997Y-59344633D02*
X15028568Y-59316061D01*
X15028568Y-59316061D02*
X15057140Y-59258918D01*
X15057140Y-59258918D02*
X15057140Y-58773204D01*
X15314282Y-59344633D02*
X15399997Y-59373204D01*
X15399997Y-59373204D02*
X15542854Y-59373204D01*
X15542854Y-59373204D02*
X15599997Y-59344633D01*
X15599997Y-59344633D02*
X15628568Y-59316061D01*
X15628568Y-59316061D02*
X15657139Y-59258918D01*
X15657139Y-59258918D02*
X15657139Y-59201775D01*
X15657139Y-59201775D02*
X15628568Y-59144633D01*
X15628568Y-59144633D02*
X15599997Y-59116061D01*
X15599997Y-59116061D02*
X15542854Y-59087490D01*
X15542854Y-59087490D02*
X15428568Y-59058918D01*
X15428568Y-59058918D02*
X15371425Y-59030347D01*
X15371425Y-59030347D02*
X15342854Y-59001775D01*
X15342854Y-59001775D02*
X15314282Y-58944633D01*
X15314282Y-58944633D02*
X15314282Y-58887490D01*
X15314282Y-58887490D02*
X15342854Y-58830347D01*
X15342854Y-58830347D02*
X15371425Y-58801775D01*
X15371425Y-58801775D02*
X15428568Y-58773204D01*
X15428568Y-58773204D02*
X15571425Y-58773204D01*
X15571425Y-58773204D02*
X15657139Y-58801775D01*
X16114283Y-59058918D02*
X16199997Y-59087490D01*
X16199997Y-59087490D02*
X16228568Y-59116061D01*
X16228568Y-59116061D02*
X16257140Y-59173204D01*
X16257140Y-59173204D02*
X16257140Y-59258918D01*
X16257140Y-59258918D02*
X16228568Y-59316061D01*
X16228568Y-59316061D02*
X16199997Y-59344633D01*
X16199997Y-59344633D02*
X16142854Y-59373204D01*
X16142854Y-59373204D02*
X15914283Y-59373204D01*
X15914283Y-59373204D02*
X15914283Y-58773204D01*
X15914283Y-58773204D02*
X16114283Y-58773204D01*
X16114283Y-58773204D02*
X16171426Y-58801775D01*
X16171426Y-58801775D02*
X16199997Y-58830347D01*
X16199997Y-58830347D02*
X16228568Y-58887490D01*
X16228568Y-58887490D02*
X16228568Y-58944633D01*
X16228568Y-58944633D02*
X16199997Y-59001775D01*
X16199997Y-59001775D02*
X16171426Y-59030347D01*
X16171426Y-59030347D02*
X16114283Y-59058918D01*
X16114283Y-59058918D02*
X15914283Y-59058918D01*
X16542854Y-59373204D02*
X16657140Y-59373204D01*
X16657140Y-59373204D02*
X16714283Y-59344633D01*
X16714283Y-59344633D02*
X16742854Y-59316061D01*
X16742854Y-59316061D02*
X16799997Y-59230347D01*
X16799997Y-59230347D02*
X16828568Y-59116061D01*
X16828568Y-59116061D02*
X16828568Y-58887490D01*
X16828568Y-58887490D02*
X16799997Y-58830347D01*
X16799997Y-58830347D02*
X16771426Y-58801775D01*
X16771426Y-58801775D02*
X16714283Y-58773204D01*
X16714283Y-58773204D02*
X16599997Y-58773204D01*
X16599997Y-58773204D02*
X16542854Y-58801775D01*
X16542854Y-58801775D02*
X16514283Y-58830347D01*
X16514283Y-58830347D02*
X16485711Y-58887490D01*
X16485711Y-58887490D02*
X16485711Y-59030347D01*
X16485711Y-59030347D02*
X16514283Y-59087490D01*
X16514283Y-59087490D02*
X16542854Y-59116061D01*
X16542854Y-59116061D02*
X16599997Y-59144633D01*
X16599997Y-59144633D02*
X16714283Y-59144633D01*
X16714283Y-59144633D02*
X16771426Y-59116061D01*
X16771426Y-59116061D02*
X16799997Y-59087490D01*
X16799997Y-59087490D02*
X16828568Y-59030347D01*
X17199997Y-58773204D02*
X17257140Y-58773204D01*
X17257140Y-58773204D02*
X17314283Y-58801775D01*
X17314283Y-58801775D02*
X17342855Y-58830347D01*
X17342855Y-58830347D02*
X17371426Y-58887490D01*
X17371426Y-58887490D02*
X17399997Y-59001775D01*
X17399997Y-59001775D02*
X17399997Y-59144633D01*
X17399997Y-59144633D02*
X17371426Y-59258918D01*
X17371426Y-59258918D02*
X17342855Y-59316061D01*
X17342855Y-59316061D02*
X17314283Y-59344633D01*
X17314283Y-59344633D02*
X17257140Y-59373204D01*
X17257140Y-59373204D02*
X17199997Y-59373204D01*
X17199997Y-59373204D02*
X17142855Y-59344633D01*
X17142855Y-59344633D02*
X17114283Y-59316061D01*
X17114283Y-59316061D02*
X17085712Y-59258918D01*
X17085712Y-59258918D02*
X17057140Y-59144633D01*
X17057140Y-59144633D02*
X17057140Y-59001775D01*
X17057140Y-59001775D02*
X17085712Y-58887490D01*
X17085712Y-58887490D02*
X17114283Y-58830347D01*
X17114283Y-58830347D02*
X17142855Y-58801775D01*
X17142855Y-58801775D02*
X17199997Y-58773204D01*
X17514284Y-59430347D02*
X17971426Y-59430347D01*
X18057141Y-58773204D02*
X18457141Y-59373204D01*
X18457141Y-58773204D02*
X18057141Y-59373204D01*
X18685713Y-59373204D02*
X18685713Y-58773204D01*
X18685713Y-59058918D02*
X19028570Y-59058918D01*
X19028570Y-59373204D02*
X19028570Y-58773204D01*
X19285712Y-59201775D02*
X19571427Y-59201775D01*
X19228569Y-59373204D02*
X19428569Y-58773204D01*
X19428569Y-58773204D02*
X19628569Y-59373204D01*
X19742855Y-58773204D02*
X20085713Y-58773204D01*
X19914284Y-59373204D02*
X19914284Y-58773204D01*
X20628570Y-59316061D02*
X20599998Y-59344633D01*
X20599998Y-59344633D02*
X20514284Y-59373204D01*
X20514284Y-59373204D02*
X20457141Y-59373204D01*
X20457141Y-59373204D02*
X20371427Y-59344633D01*
X20371427Y-59344633D02*
X20314284Y-59287490D01*
X20314284Y-59287490D02*
X20285713Y-59230347D01*
X20285713Y-59230347D02*
X20257141Y-59116061D01*
X20257141Y-59116061D02*
X20257141Y-59030347D01*
X20257141Y-59030347D02*
X20285713Y-58916061D01*
X20285713Y-58916061D02*
X20314284Y-58858918D01*
X20314284Y-58858918D02*
X20371427Y-58801775D01*
X20371427Y-58801775D02*
X20457141Y-58773204D01*
X20457141Y-58773204D02*
X20514284Y-58773204D01*
X20514284Y-58773204D02*
X20599998Y-58801775D01*
X20599998Y-58801775D02*
X20628570Y-58830347D01*
X20885713Y-59373204D02*
X20885713Y-58773204D01*
X20885713Y-59058918D02*
X21228570Y-59058918D01*
X21228570Y-59373204D02*
X21228570Y-58773204D01*
X21514284Y-59316061D02*
X21542855Y-59344633D01*
X21542855Y-59344633D02*
X21514284Y-59373204D01*
X21514284Y-59373204D02*
X21485712Y-59344633D01*
X21485712Y-59344633D02*
X21514284Y-59316061D01*
X21514284Y-59316061D02*
X21514284Y-59373204D01*
X21514284Y-59001775D02*
X21542855Y-59030347D01*
X21542855Y-59030347D02*
X21514284Y-59058918D01*
X21514284Y-59058918D02*
X21485712Y-59030347D01*
X21485712Y-59030347D02*
X21514284Y-59001775D01*
X21514284Y-59001775D02*
X21514284Y-59058918D01*
X22285712Y-59373204D02*
X22399998Y-59373204D01*
X22399998Y-59373204D02*
X22457141Y-59344633D01*
X22457141Y-59344633D02*
X22485712Y-59316061D01*
X22485712Y-59316061D02*
X22542855Y-59230347D01*
X22542855Y-59230347D02*
X22571426Y-59116061D01*
X22571426Y-59116061D02*
X22571426Y-58887490D01*
X22571426Y-58887490D02*
X22542855Y-58830347D01*
X22542855Y-58830347D02*
X22514284Y-58801775D01*
X22514284Y-58801775D02*
X22457141Y-58773204D01*
X22457141Y-58773204D02*
X22342855Y-58773204D01*
X22342855Y-58773204D02*
X22285712Y-58801775D01*
X22285712Y-58801775D02*
X22257141Y-58830347D01*
X22257141Y-58830347D02*
X22228569Y-58887490D01*
X22228569Y-58887490D02*
X22228569Y-59030347D01*
X22228569Y-59030347D02*
X22257141Y-59087490D01*
X22257141Y-59087490D02*
X22285712Y-59116061D01*
X22285712Y-59116061D02*
X22342855Y-59144633D01*
X22342855Y-59144633D02*
X22457141Y-59144633D01*
X22457141Y-59144633D02*
X22514284Y-59116061D01*
X22514284Y-59116061D02*
X22542855Y-59087490D01*
X22542855Y-59087490D02*
X22571426Y-59030347D01*
X22942855Y-58773204D02*
X22999998Y-58773204D01*
X22999998Y-58773204D02*
X23057141Y-58801775D01*
X23057141Y-58801775D02*
X23085713Y-58830347D01*
X23085713Y-58830347D02*
X23114284Y-58887490D01*
X23114284Y-58887490D02*
X23142855Y-59001775D01*
X23142855Y-59001775D02*
X23142855Y-59144633D01*
X23142855Y-59144633D02*
X23114284Y-59258918D01*
X23114284Y-59258918D02*
X23085713Y-59316061D01*
X23085713Y-59316061D02*
X23057141Y-59344633D01*
X23057141Y-59344633D02*
X22999998Y-59373204D01*
X22999998Y-59373204D02*
X22942855Y-59373204D01*
X22942855Y-59373204D02*
X22885713Y-59344633D01*
X22885713Y-59344633D02*
X22857141Y-59316061D01*
X22857141Y-59316061D02*
X22828570Y-59258918D01*
X22828570Y-59258918D02*
X22799998Y-59144633D01*
X22799998Y-59144633D02*
X22799998Y-59001775D01*
X22799998Y-59001775D02*
X22828570Y-58887490D01*
X22828570Y-58887490D02*
X22857141Y-58830347D01*
X22857141Y-58830347D02*
X22885713Y-58801775D01*
X22885713Y-58801775D02*
X22942855Y-58773204D01*
X23942856Y-59373204D02*
X23885713Y-59344633D01*
X23885713Y-59344633D02*
X23857142Y-59316061D01*
X23857142Y-59316061D02*
X23828570Y-59258918D01*
X23828570Y-59258918D02*
X23828570Y-59087490D01*
X23828570Y-59087490D02*
X23857142Y-59030347D01*
X23857142Y-59030347D02*
X23885713Y-59001775D01*
X23885713Y-59001775D02*
X23942856Y-58973204D01*
X23942856Y-58973204D02*
X24028570Y-58973204D01*
X24028570Y-58973204D02*
X24085713Y-59001775D01*
X24085713Y-59001775D02*
X24114285Y-59030347D01*
X24114285Y-59030347D02*
X24142856Y-59087490D01*
X24142856Y-59087490D02*
X24142856Y-59258918D01*
X24142856Y-59258918D02*
X24114285Y-59316061D01*
X24114285Y-59316061D02*
X24085713Y-59344633D01*
X24085713Y-59344633D02*
X24028570Y-59373204D01*
X24028570Y-59373204D02*
X23942856Y-59373204D01*
X24399999Y-59373204D02*
X24399999Y-58773204D01*
X24657142Y-59373204D02*
X24657142Y-59058918D01*
X24657142Y-59058918D02*
X24628570Y-59001775D01*
X24628570Y-59001775D02*
X24571427Y-58973204D01*
X24571427Y-58973204D02*
X24485713Y-58973204D01*
X24485713Y-58973204D02*
X24428570Y-59001775D01*
X24428570Y-59001775D02*
X24399999Y-59030347D01*
X24942856Y-59373204D02*
X24942856Y-58973204D01*
X24942856Y-59030347D02*
X24971427Y-59001775D01*
X24971427Y-59001775D02*
X25028570Y-58973204D01*
X25028570Y-58973204D02*
X25114284Y-58973204D01*
X25114284Y-58973204D02*
X25171427Y-59001775D01*
X25171427Y-59001775D02*
X25199999Y-59058918D01*
X25199999Y-59058918D02*
X25199999Y-59373204D01*
X25199999Y-59058918D02*
X25228570Y-59001775D01*
X25228570Y-59001775D02*
X25285713Y-58973204D01*
X25285713Y-58973204D02*
X25371427Y-58973204D01*
X25371427Y-58973204D02*
X25428570Y-59001775D01*
X25428570Y-59001775D02*
X25457141Y-59058918D01*
X25457141Y-59058918D02*
X25457141Y-59373204D01*
X26457142Y-59373204D02*
X26457142Y-58773204D01*
X26457142Y-59344633D02*
X26399999Y-59373204D01*
X26399999Y-59373204D02*
X26285713Y-59373204D01*
X26285713Y-59373204D02*
X26228570Y-59344633D01*
X26228570Y-59344633D02*
X26199999Y-59316061D01*
X26199999Y-59316061D02*
X26171427Y-59258918D01*
X26171427Y-59258918D02*
X26171427Y-59087490D01*
X26171427Y-59087490D02*
X26199999Y-59030347D01*
X26199999Y-59030347D02*
X26228570Y-59001775D01*
X26228570Y-59001775D02*
X26285713Y-58973204D01*
X26285713Y-58973204D02*
X26399999Y-58973204D01*
X26399999Y-58973204D02*
X26457142Y-59001775D01*
X26742856Y-59373204D02*
X26742856Y-58973204D01*
X26742856Y-58773204D02*
X26714284Y-58801775D01*
X26714284Y-58801775D02*
X26742856Y-58830347D01*
X26742856Y-58830347D02*
X26771427Y-58801775D01*
X26771427Y-58801775D02*
X26742856Y-58773204D01*
X26742856Y-58773204D02*
X26742856Y-58830347D01*
X26942855Y-58973204D02*
X27171427Y-58973204D01*
X27028570Y-59373204D02*
X27028570Y-58858918D01*
X27028570Y-58858918D02*
X27057141Y-58801775D01*
X27057141Y-58801775D02*
X27114284Y-58773204D01*
X27114284Y-58773204D02*
X27171427Y-58773204D01*
X27285712Y-58973204D02*
X27514284Y-58973204D01*
X27371427Y-59373204D02*
X27371427Y-58858918D01*
X27371427Y-58858918D02*
X27399998Y-58801775D01*
X27399998Y-58801775D02*
X27457141Y-58773204D01*
X27457141Y-58773204D02*
X27514284Y-58773204D01*
X27742855Y-59344633D02*
X27742855Y-59373204D01*
X27742855Y-59373204D02*
X27714284Y-59430347D01*
X27714284Y-59430347D02*
X27685712Y-59458918D01*
X28742855Y-59373204D02*
X28457141Y-59373204D01*
X28457141Y-59373204D02*
X28457141Y-58773204D01*
X28914283Y-58830347D02*
X28942855Y-58801775D01*
X28942855Y-58801775D02*
X28999998Y-58773204D01*
X28999998Y-58773204D02*
X29142855Y-58773204D01*
X29142855Y-58773204D02*
X29199998Y-58801775D01*
X29199998Y-58801775D02*
X29228569Y-58830347D01*
X29228569Y-58830347D02*
X29257140Y-58887490D01*
X29257140Y-58887490D02*
X29257140Y-58944633D01*
X29257140Y-58944633D02*
X29228569Y-59030347D01*
X29228569Y-59030347D02*
X28885712Y-59373204D01*
X28885712Y-59373204D02*
X29257140Y-59373204D01*
X30228570Y-59344633D02*
X30171427Y-59373204D01*
X30171427Y-59373204D02*
X30057141Y-59373204D01*
X30057141Y-59373204D02*
X29999998Y-59344633D01*
X29999998Y-59344633D02*
X29971427Y-59316061D01*
X29971427Y-59316061D02*
X29942855Y-59258918D01*
X29942855Y-59258918D02*
X29942855Y-59087490D01*
X29942855Y-59087490D02*
X29971427Y-59030347D01*
X29971427Y-59030347D02*
X29999998Y-59001775D01*
X29999998Y-59001775D02*
X30057141Y-58973204D01*
X30057141Y-58973204D02*
X30171427Y-58973204D01*
X30171427Y-58973204D02*
X30228570Y-59001775D01*
X30485713Y-59373204D02*
X30485713Y-58973204D01*
X30485713Y-59087490D02*
X30514284Y-59030347D01*
X30514284Y-59030347D02*
X30542856Y-59001775D01*
X30542856Y-59001775D02*
X30599998Y-58973204D01*
X30599998Y-58973204D02*
X30657141Y-58973204D01*
X30942856Y-59373204D02*
X30885713Y-59344633D01*
X30885713Y-59344633D02*
X30857142Y-59316061D01*
X30857142Y-59316061D02*
X30828570Y-59258918D01*
X30828570Y-59258918D02*
X30828570Y-59087490D01*
X30828570Y-59087490D02*
X30857142Y-59030347D01*
X30857142Y-59030347D02*
X30885713Y-59001775D01*
X30885713Y-59001775D02*
X30942856Y-58973204D01*
X30942856Y-58973204D02*
X31028570Y-58973204D01*
X31028570Y-58973204D02*
X31085713Y-59001775D01*
X31085713Y-59001775D02*
X31114285Y-59030347D01*
X31114285Y-59030347D02*
X31142856Y-59087490D01*
X31142856Y-59087490D02*
X31142856Y-59258918D01*
X31142856Y-59258918D02*
X31114285Y-59316061D01*
X31114285Y-59316061D02*
X31085713Y-59344633D01*
X31085713Y-59344633D02*
X31028570Y-59373204D01*
X31028570Y-59373204D02*
X30942856Y-59373204D01*
X31371427Y-59344633D02*
X31428570Y-59373204D01*
X31428570Y-59373204D02*
X31542856Y-59373204D01*
X31542856Y-59373204D02*
X31599999Y-59344633D01*
X31599999Y-59344633D02*
X31628570Y-59287490D01*
X31628570Y-59287490D02*
X31628570Y-59258918D01*
X31628570Y-59258918D02*
X31599999Y-59201775D01*
X31599999Y-59201775D02*
X31542856Y-59173204D01*
X31542856Y-59173204D02*
X31457142Y-59173204D01*
X31457142Y-59173204D02*
X31399999Y-59144633D01*
X31399999Y-59144633D02*
X31371427Y-59087490D01*
X31371427Y-59087490D02*
X31371427Y-59058918D01*
X31371427Y-59058918D02*
X31399999Y-59001775D01*
X31399999Y-59001775D02*
X31457142Y-58973204D01*
X31457142Y-58973204D02*
X31542856Y-58973204D01*
X31542856Y-58973204D02*
X31599999Y-59001775D01*
X31857141Y-59344633D02*
X31914284Y-59373204D01*
X31914284Y-59373204D02*
X32028570Y-59373204D01*
X32028570Y-59373204D02*
X32085713Y-59344633D01*
X32085713Y-59344633D02*
X32114284Y-59287490D01*
X32114284Y-59287490D02*
X32114284Y-59258918D01*
X32114284Y-59258918D02*
X32085713Y-59201775D01*
X32085713Y-59201775D02*
X32028570Y-59173204D01*
X32028570Y-59173204D02*
X31942856Y-59173204D01*
X31942856Y-59173204D02*
X31885713Y-59144633D01*
X31885713Y-59144633D02*
X31857141Y-59087490D01*
X31857141Y-59087490D02*
X31857141Y-59058918D01*
X31857141Y-59058918D02*
X31885713Y-59001775D01*
X31885713Y-59001775D02*
X31942856Y-58973204D01*
X31942856Y-58973204D02*
X32028570Y-58973204D01*
X32028570Y-58973204D02*
X32085713Y-59001775D01*
X32371427Y-59144633D02*
X32828570Y-59144633D01*
X33114284Y-59373204D02*
X33114284Y-58773204D01*
X33371427Y-59373204D02*
X33371427Y-59058918D01*
X33371427Y-59058918D02*
X33342855Y-59001775D01*
X33342855Y-59001775D02*
X33285712Y-58973204D01*
X33285712Y-58973204D02*
X33199998Y-58973204D01*
X33199998Y-58973204D02*
X33142855Y-59001775D01*
X33142855Y-59001775D02*
X33114284Y-59030347D01*
X33914284Y-59373204D02*
X33914284Y-59058918D01*
X33914284Y-59058918D02*
X33885712Y-59001775D01*
X33885712Y-59001775D02*
X33828569Y-58973204D01*
X33828569Y-58973204D02*
X33714284Y-58973204D01*
X33714284Y-58973204D02*
X33657141Y-59001775D01*
X33914284Y-59344633D02*
X33857141Y-59373204D01*
X33857141Y-59373204D02*
X33714284Y-59373204D01*
X33714284Y-59373204D02*
X33657141Y-59344633D01*
X33657141Y-59344633D02*
X33628569Y-59287490D01*
X33628569Y-59287490D02*
X33628569Y-59230347D01*
X33628569Y-59230347D02*
X33657141Y-59173204D01*
X33657141Y-59173204D02*
X33714284Y-59144633D01*
X33714284Y-59144633D02*
X33857141Y-59144633D01*
X33857141Y-59144633D02*
X33914284Y-59116061D01*
X34114283Y-58973204D02*
X34342855Y-58973204D01*
X34199998Y-58773204D02*
X34199998Y-59287490D01*
X34199998Y-59287490D02*
X34228569Y-59344633D01*
X34228569Y-59344633D02*
X34285712Y-59373204D01*
X34285712Y-59373204D02*
X34342855Y-59373204D01*
X34799998Y-59344633D02*
X34742855Y-59373204D01*
X34742855Y-59373204D02*
X34628569Y-59373204D01*
X34628569Y-59373204D02*
X34571426Y-59344633D01*
X34571426Y-59344633D02*
X34542855Y-59316061D01*
X34542855Y-59316061D02*
X34514283Y-59258918D01*
X34514283Y-59258918D02*
X34514283Y-59087490D01*
X34514283Y-59087490D02*
X34542855Y-59030347D01*
X34542855Y-59030347D02*
X34571426Y-59001775D01*
X34571426Y-59001775D02*
X34628569Y-58973204D01*
X34628569Y-58973204D02*
X34742855Y-58973204D01*
X34742855Y-58973204D02*
X34799998Y-59001775D01*
X35057141Y-59373204D02*
X35057141Y-58773204D01*
X35314284Y-59373204D02*
X35314284Y-59058918D01*
X35314284Y-59058918D02*
X35285712Y-59001775D01*
X35285712Y-59001775D02*
X35228569Y-58973204D01*
X35228569Y-58973204D02*
X35142855Y-58973204D01*
X35142855Y-58973204D02*
X35085712Y-59001775D01*
X35085712Y-59001775D02*
X35057141Y-59030347D01*
X36171426Y-58773204D02*
X36228569Y-58773204D01*
X36228569Y-58773204D02*
X36285712Y-58801775D01*
X36285712Y-58801775D02*
X36314284Y-58830347D01*
X36314284Y-58830347D02*
X36342855Y-58887490D01*
X36342855Y-58887490D02*
X36371426Y-59001775D01*
X36371426Y-59001775D02*
X36371426Y-59144633D01*
X36371426Y-59144633D02*
X36342855Y-59258918D01*
X36342855Y-59258918D02*
X36314284Y-59316061D01*
X36314284Y-59316061D02*
X36285712Y-59344633D01*
X36285712Y-59344633D02*
X36228569Y-59373204D01*
X36228569Y-59373204D02*
X36171426Y-59373204D01*
X36171426Y-59373204D02*
X36114284Y-59344633D01*
X36114284Y-59344633D02*
X36085712Y-59316061D01*
X36085712Y-59316061D02*
X36057141Y-59258918D01*
X36057141Y-59258918D02*
X36028569Y-59144633D01*
X36028569Y-59144633D02*
X36028569Y-59001775D01*
X36028569Y-59001775D02*
X36057141Y-58887490D01*
X36057141Y-58887490D02*
X36085712Y-58830347D01*
X36085712Y-58830347D02*
X36114284Y-58801775D01*
X36114284Y-58801775D02*
X36171426Y-58773204D01*
X36628570Y-59316061D02*
X36657141Y-59344633D01*
X36657141Y-59344633D02*
X36628570Y-59373204D01*
X36628570Y-59373204D02*
X36599998Y-59344633D01*
X36599998Y-59344633D02*
X36628570Y-59316061D01*
X36628570Y-59316061D02*
X36628570Y-59373204D01*
X37228569Y-59373204D02*
X36885712Y-59373204D01*
X37057141Y-59373204D02*
X37057141Y-58773204D01*
X37057141Y-58773204D02*
X36999998Y-58858918D01*
X36999998Y-58858918D02*
X36942855Y-58916061D01*
X36942855Y-58916061D02*
X36885712Y-58944633D01*
X37599998Y-58773204D02*
X37657141Y-58773204D01*
X37657141Y-58773204D02*
X37714284Y-58801775D01*
X37714284Y-58801775D02*
X37742856Y-58830347D01*
X37742856Y-58830347D02*
X37771427Y-58887490D01*
X37771427Y-58887490D02*
X37799998Y-59001775D01*
X37799998Y-59001775D02*
X37799998Y-59144633D01*
X37799998Y-59144633D02*
X37771427Y-59258918D01*
X37771427Y-59258918D02*
X37742856Y-59316061D01*
X37742856Y-59316061D02*
X37714284Y-59344633D01*
X37714284Y-59344633D02*
X37657141Y-59373204D01*
X37657141Y-59373204D02*
X37599998Y-59373204D01*
X37599998Y-59373204D02*
X37542856Y-59344633D01*
X37542856Y-59344633D02*
X37514284Y-59316061D01*
X37514284Y-59316061D02*
X37485713Y-59258918D01*
X37485713Y-59258918D02*
X37457141Y-59144633D01*
X37457141Y-59144633D02*
X37457141Y-59001775D01*
X37457141Y-59001775D02*
X37485713Y-58887490D01*
X37485713Y-58887490D02*
X37514284Y-58830347D01*
X37514284Y-58830347D02*
X37542856Y-58801775D01*
X37542856Y-58801775D02*
X37599998Y-58773204D01*
X38485713Y-58744633D02*
X37971427Y-59516061D01*
X38799998Y-58773204D02*
X38857141Y-58773204D01*
X38857141Y-58773204D02*
X38914284Y-58801775D01*
X38914284Y-58801775D02*
X38942856Y-58830347D01*
X38942856Y-58830347D02*
X38971427Y-58887490D01*
X38971427Y-58887490D02*
X38999998Y-59001775D01*
X38999998Y-59001775D02*
X38999998Y-59144633D01*
X38999998Y-59144633D02*
X38971427Y-59258918D01*
X38971427Y-59258918D02*
X38942856Y-59316061D01*
X38942856Y-59316061D02*
X38914284Y-59344633D01*
X38914284Y-59344633D02*
X38857141Y-59373204D01*
X38857141Y-59373204D02*
X38799998Y-59373204D01*
X38799998Y-59373204D02*
X38742856Y-59344633D01*
X38742856Y-59344633D02*
X38714284Y-59316061D01*
X38714284Y-59316061D02*
X38685713Y-59258918D01*
X38685713Y-59258918D02*
X38657141Y-59144633D01*
X38657141Y-59144633D02*
X38657141Y-59001775D01*
X38657141Y-59001775D02*
X38685713Y-58887490D01*
X38685713Y-58887490D02*
X38714284Y-58830347D01*
X38714284Y-58830347D02*
X38742856Y-58801775D01*
X38742856Y-58801775D02*
X38799998Y-58773204D01*
X39257142Y-59316061D02*
X39285713Y-59344633D01*
X39285713Y-59344633D02*
X39257142Y-59373204D01*
X39257142Y-59373204D02*
X39228570Y-59344633D01*
X39228570Y-59344633D02*
X39257142Y-59316061D01*
X39257142Y-59316061D02*
X39257142Y-59373204D01*
X39485713Y-58773204D02*
X39857141Y-58773204D01*
X39857141Y-58773204D02*
X39657141Y-59001775D01*
X39657141Y-59001775D02*
X39742856Y-59001775D01*
X39742856Y-59001775D02*
X39799999Y-59030347D01*
X39799999Y-59030347D02*
X39828570Y-59058918D01*
X39828570Y-59058918D02*
X39857141Y-59116061D01*
X39857141Y-59116061D02*
X39857141Y-59258918D01*
X39857141Y-59258918D02*
X39828570Y-59316061D01*
X39828570Y-59316061D02*
X39799999Y-59344633D01*
X39799999Y-59344633D02*
X39742856Y-59373204D01*
X39742856Y-59373204D02*
X39571427Y-59373204D01*
X39571427Y-59373204D02*
X39514284Y-59344633D01*
X39514284Y-59344633D02*
X39485713Y-59316061D01*
X40228570Y-58773204D02*
X40285713Y-58773204D01*
X40285713Y-58773204D02*
X40342856Y-58801775D01*
X40342856Y-58801775D02*
X40371428Y-58830347D01*
X40371428Y-58830347D02*
X40399999Y-58887490D01*
X40399999Y-58887490D02*
X40428570Y-59001775D01*
X40428570Y-59001775D02*
X40428570Y-59144633D01*
X40428570Y-59144633D02*
X40399999Y-59258918D01*
X40399999Y-59258918D02*
X40371428Y-59316061D01*
X40371428Y-59316061D02*
X40342856Y-59344633D01*
X40342856Y-59344633D02*
X40285713Y-59373204D01*
X40285713Y-59373204D02*
X40228570Y-59373204D01*
X40228570Y-59373204D02*
X40171428Y-59344633D01*
X40171428Y-59344633D02*
X40142856Y-59316061D01*
X40142856Y-59316061D02*
X40114285Y-59258918D01*
X40114285Y-59258918D02*
X40085713Y-59144633D01*
X40085713Y-59144633D02*
X40085713Y-59001775D01*
X40085713Y-59001775D02*
X40114285Y-58887490D01*
X40114285Y-58887490D02*
X40142856Y-58830347D01*
X40142856Y-58830347D02*
X40171428Y-58801775D01*
X40171428Y-58801775D02*
X40228570Y-58773204D01*
X41314285Y-59601775D02*
X41285714Y-59573204D01*
X41285714Y-59573204D02*
X41228571Y-59487490D01*
X41228571Y-59487490D02*
X41200000Y-59430347D01*
X41200000Y-59430347D02*
X41171428Y-59344633D01*
X41171428Y-59344633D02*
X41142857Y-59201775D01*
X41142857Y-59201775D02*
X41142857Y-59087490D01*
X41142857Y-59087490D02*
X41171428Y-58944633D01*
X41171428Y-58944633D02*
X41200000Y-58858918D01*
X41200000Y-58858918D02*
X41228571Y-58801775D01*
X41228571Y-58801775D02*
X41285714Y-58716061D01*
X41285714Y-58716061D02*
X41314285Y-58687490D01*
X41542857Y-59373204D02*
X41542857Y-58773204D01*
X41542857Y-58773204D02*
X41742857Y-59201775D01*
X41742857Y-59201775D02*
X41942857Y-58773204D01*
X41942857Y-58773204D02*
X41942857Y-59373204D01*
X42342856Y-58773204D02*
X42457142Y-58773204D01*
X42457142Y-58773204D02*
X42514285Y-58801775D01*
X42514285Y-58801775D02*
X42571428Y-58858918D01*
X42571428Y-58858918D02*
X42599999Y-58973204D01*
X42599999Y-58973204D02*
X42599999Y-59173204D01*
X42599999Y-59173204D02*
X42571428Y-59287490D01*
X42571428Y-59287490D02*
X42514285Y-59344633D01*
X42514285Y-59344633D02*
X42457142Y-59373204D01*
X42457142Y-59373204D02*
X42342856Y-59373204D01*
X42342856Y-59373204D02*
X42285714Y-59344633D01*
X42285714Y-59344633D02*
X42228571Y-59287490D01*
X42228571Y-59287490D02*
X42199999Y-59173204D01*
X42199999Y-59173204D02*
X42199999Y-58973204D01*
X42199999Y-58973204D02*
X42228571Y-58858918D01*
X42228571Y-58858918D02*
X42285714Y-58801775D01*
X42285714Y-58801775D02*
X42342856Y-58773204D01*
X42857142Y-59373204D02*
X42857142Y-58773204D01*
X42857142Y-58773204D02*
X42999999Y-58773204D01*
X42999999Y-58773204D02*
X43085713Y-58801775D01*
X43085713Y-58801775D02*
X43142856Y-58858918D01*
X43142856Y-58858918D02*
X43171427Y-58916061D01*
X43171427Y-58916061D02*
X43199999Y-59030347D01*
X43199999Y-59030347D02*
X43199999Y-59116061D01*
X43199999Y-59116061D02*
X43171427Y-59230347D01*
X43171427Y-59230347D02*
X43142856Y-59287490D01*
X43142856Y-59287490D02*
X43085713Y-59344633D01*
X43085713Y-59344633D02*
X42999999Y-59373204D01*
X42999999Y-59373204D02*
X42857142Y-59373204D01*
X43457142Y-59144633D02*
X43914285Y-59144633D01*
X44171427Y-59201775D02*
X44457142Y-59201775D01*
X44114284Y-59373204D02*
X44314284Y-58773204D01*
X44314284Y-58773204D02*
X44514284Y-59373204D01*
X45085713Y-58973204D02*
X45314285Y-58973204D01*
X45171428Y-58773204D02*
X45171428Y-59287490D01*
X45171428Y-59287490D02*
X45199999Y-59344633D01*
X45199999Y-59344633D02*
X45257142Y-59373204D01*
X45257142Y-59373204D02*
X45314285Y-59373204D01*
X45771428Y-59373204D02*
X45771428Y-59058918D01*
X45771428Y-59058918D02*
X45742856Y-59001775D01*
X45742856Y-59001775D02*
X45685713Y-58973204D01*
X45685713Y-58973204D02*
X45571428Y-58973204D01*
X45571428Y-58973204D02*
X45514285Y-59001775D01*
X45771428Y-59344633D02*
X45714285Y-59373204D01*
X45714285Y-59373204D02*
X45571428Y-59373204D01*
X45571428Y-59373204D02*
X45514285Y-59344633D01*
X45514285Y-59344633D02*
X45485713Y-59287490D01*
X45485713Y-59287490D02*
X45485713Y-59230347D01*
X45485713Y-59230347D02*
X45514285Y-59173204D01*
X45514285Y-59173204D02*
X45571428Y-59144633D01*
X45571428Y-59144633D02*
X45714285Y-59144633D01*
X45714285Y-59144633D02*
X45771428Y-59116061D01*
X46057142Y-59373204D02*
X46057142Y-58973204D01*
X46057142Y-58773204D02*
X46028570Y-58801775D01*
X46028570Y-58801775D02*
X46057142Y-58830347D01*
X46057142Y-58830347D02*
X46085713Y-58801775D01*
X46085713Y-58801775D02*
X46057142Y-58773204D01*
X46057142Y-58773204D02*
X46057142Y-58830347D01*
X46428570Y-59373204D02*
X46371427Y-59344633D01*
X46371427Y-59344633D02*
X46342856Y-59287490D01*
X46342856Y-59287490D02*
X46342856Y-58773204D01*
X46685713Y-59344633D02*
X46685713Y-59373204D01*
X46685713Y-59373204D02*
X46657142Y-59430347D01*
X46657142Y-59430347D02*
X46628570Y-59458918D01*
X47628570Y-59344633D02*
X47571427Y-59373204D01*
X47571427Y-59373204D02*
X47457142Y-59373204D01*
X47457142Y-59373204D02*
X47399999Y-59344633D01*
X47399999Y-59344633D02*
X47371427Y-59287490D01*
X47371427Y-59287490D02*
X47371427Y-59058918D01*
X47371427Y-59058918D02*
X47399999Y-59001775D01*
X47399999Y-59001775D02*
X47457142Y-58973204D01*
X47457142Y-58973204D02*
X47571427Y-58973204D01*
X47571427Y-58973204D02*
X47628570Y-59001775D01*
X47628570Y-59001775D02*
X47657142Y-59058918D01*
X47657142Y-59058918D02*
X47657142Y-59116061D01*
X47657142Y-59116061D02*
X47371427Y-59173204D01*
X47885713Y-59344633D02*
X47942856Y-59373204D01*
X47942856Y-59373204D02*
X48057142Y-59373204D01*
X48057142Y-59373204D02*
X48114285Y-59344633D01*
X48114285Y-59344633D02*
X48142856Y-59287490D01*
X48142856Y-59287490D02*
X48142856Y-59258918D01*
X48142856Y-59258918D02*
X48114285Y-59201775D01*
X48114285Y-59201775D02*
X48057142Y-59173204D01*
X48057142Y-59173204D02*
X47971428Y-59173204D01*
X47971428Y-59173204D02*
X47914285Y-59144633D01*
X47914285Y-59144633D02*
X47885713Y-59087490D01*
X47885713Y-59087490D02*
X47885713Y-59058918D01*
X47885713Y-59058918D02*
X47914285Y-59001775D01*
X47914285Y-59001775D02*
X47971428Y-58973204D01*
X47971428Y-58973204D02*
X48057142Y-58973204D01*
X48057142Y-58973204D02*
X48114285Y-59001775D01*
X48314284Y-58973204D02*
X48542856Y-58973204D01*
X48399999Y-58773204D02*
X48399999Y-59287490D01*
X48399999Y-59287490D02*
X48428570Y-59344633D01*
X48428570Y-59344633D02*
X48485713Y-59373204D01*
X48485713Y-59373204D02*
X48542856Y-59373204D01*
X48742856Y-59316061D02*
X48771427Y-59344633D01*
X48771427Y-59344633D02*
X48742856Y-59373204D01*
X48742856Y-59373204D02*
X48714284Y-59344633D01*
X48714284Y-59344633D02*
X48742856Y-59316061D01*
X48742856Y-59316061D02*
X48742856Y-59373204D01*
X49514284Y-59373204D02*
X49628570Y-59373204D01*
X49628570Y-59373204D02*
X49685713Y-59344633D01*
X49685713Y-59344633D02*
X49714284Y-59316061D01*
X49714284Y-59316061D02*
X49771427Y-59230347D01*
X49771427Y-59230347D02*
X49799998Y-59116061D01*
X49799998Y-59116061D02*
X49799998Y-58887490D01*
X49799998Y-58887490D02*
X49771427Y-58830347D01*
X49771427Y-58830347D02*
X49742856Y-58801775D01*
X49742856Y-58801775D02*
X49685713Y-58773204D01*
X49685713Y-58773204D02*
X49571427Y-58773204D01*
X49571427Y-58773204D02*
X49514284Y-58801775D01*
X49514284Y-58801775D02*
X49485713Y-58830347D01*
X49485713Y-58830347D02*
X49457141Y-58887490D01*
X49457141Y-58887490D02*
X49457141Y-59030347D01*
X49457141Y-59030347D02*
X49485713Y-59087490D01*
X49485713Y-59087490D02*
X49514284Y-59116061D01*
X49514284Y-59116061D02*
X49571427Y-59144633D01*
X49571427Y-59144633D02*
X49685713Y-59144633D01*
X49685713Y-59144633D02*
X49742856Y-59116061D01*
X49742856Y-59116061D02*
X49771427Y-59087490D01*
X49771427Y-59087490D02*
X49799998Y-59030347D01*
X50028570Y-58830347D02*
X50057142Y-58801775D01*
X50057142Y-58801775D02*
X50114285Y-58773204D01*
X50114285Y-58773204D02*
X50257142Y-58773204D01*
X50257142Y-58773204D02*
X50314285Y-58801775D01*
X50314285Y-58801775D02*
X50342856Y-58830347D01*
X50342856Y-58830347D02*
X50371427Y-58887490D01*
X50371427Y-58887490D02*
X50371427Y-58944633D01*
X50371427Y-58944633D02*
X50342856Y-59030347D01*
X50342856Y-59030347D02*
X49999999Y-59373204D01*
X49999999Y-59373204D02*
X50371427Y-59373204D01*
X50571428Y-59601775D02*
X50599999Y-59573204D01*
X50599999Y-59573204D02*
X50657142Y-59487490D01*
X50657142Y-59487490D02*
X50685714Y-59430347D01*
X50685714Y-59430347D02*
X50714285Y-59344633D01*
X50714285Y-59344633D02*
X50742856Y-59201775D01*
X50742856Y-59201775D02*
X50742856Y-59087490D01*
X50742856Y-59087490D02*
X50714285Y-58944633D01*
X50714285Y-58944633D02*
X50685714Y-58858918D01*
X50685714Y-58858918D02*
X50657142Y-58801775D01*
X50657142Y-58801775D02*
X50599999Y-58716061D01*
X50599999Y-58716061D02*
X50571428Y-58687490D01*
X51885714Y-58973204D02*
X52000000Y-59373204D01*
X52000000Y-59373204D02*
X52114285Y-59087490D01*
X52114285Y-59087490D02*
X52228571Y-59373204D01*
X52228571Y-59373204D02*
X52342857Y-58973204D01*
X53142856Y-58773204D02*
X53199999Y-58773204D01*
X53199999Y-58773204D02*
X53257142Y-58801775D01*
X53257142Y-58801775D02*
X53285714Y-58830347D01*
X53285714Y-58830347D02*
X53314285Y-58887490D01*
X53314285Y-58887490D02*
X53342856Y-59001775D01*
X53342856Y-59001775D02*
X53342856Y-59144633D01*
X53342856Y-59144633D02*
X53314285Y-59258918D01*
X53314285Y-59258918D02*
X53285714Y-59316061D01*
X53285714Y-59316061D02*
X53257142Y-59344633D01*
X53257142Y-59344633D02*
X53199999Y-59373204D01*
X53199999Y-59373204D02*
X53142856Y-59373204D01*
X53142856Y-59373204D02*
X53085714Y-59344633D01*
X53085714Y-59344633D02*
X53057142Y-59316061D01*
X53057142Y-59316061D02*
X53028571Y-59258918D01*
X53028571Y-59258918D02*
X52999999Y-59144633D01*
X52999999Y-59144633D02*
X52999999Y-59001775D01*
X52999999Y-59001775D02*
X53028571Y-58887490D01*
X53028571Y-58887490D02*
X53057142Y-58830347D01*
X53057142Y-58830347D02*
X53085714Y-58801775D01*
X53085714Y-58801775D02*
X53142856Y-58773204D01*
X53600000Y-59316061D02*
X53628571Y-59344633D01*
X53628571Y-59344633D02*
X53600000Y-59373204D01*
X53600000Y-59373204D02*
X53571428Y-59344633D01*
X53571428Y-59344633D02*
X53600000Y-59316061D01*
X53600000Y-59316061D02*
X53600000Y-59373204D01*
X54199999Y-59373204D02*
X53857142Y-59373204D01*
X54028571Y-59373204D02*
X54028571Y-58773204D01*
X54028571Y-58773204D02*
X53971428Y-58858918D01*
X53971428Y-58858918D02*
X53914285Y-58916061D01*
X53914285Y-58916061D02*
X53857142Y-58944633D01*
X54571428Y-58773204D02*
X54628571Y-58773204D01*
X54628571Y-58773204D02*
X54685714Y-58801775D01*
X54685714Y-58801775D02*
X54714286Y-58830347D01*
X54714286Y-58830347D02*
X54742857Y-58887490D01*
X54742857Y-58887490D02*
X54771428Y-59001775D01*
X54771428Y-59001775D02*
X54771428Y-59144633D01*
X54771428Y-59144633D02*
X54742857Y-59258918D01*
X54742857Y-59258918D02*
X54714286Y-59316061D01*
X54714286Y-59316061D02*
X54685714Y-59344633D01*
X54685714Y-59344633D02*
X54628571Y-59373204D01*
X54628571Y-59373204D02*
X54571428Y-59373204D01*
X54571428Y-59373204D02*
X54514286Y-59344633D01*
X54514286Y-59344633D02*
X54485714Y-59316061D01*
X54485714Y-59316061D02*
X54457143Y-59258918D01*
X54457143Y-59258918D02*
X54428571Y-59144633D01*
X54428571Y-59144633D02*
X54428571Y-59001775D01*
X54428571Y-59001775D02*
X54457143Y-58887490D01*
X54457143Y-58887490D02*
X54485714Y-58830347D01*
X54485714Y-58830347D02*
X54514286Y-58801775D01*
X54514286Y-58801775D02*
X54571428Y-58773204D01*
X55142857Y-58773204D02*
X55200000Y-58773204D01*
X55200000Y-58773204D02*
X55257143Y-58801775D01*
X55257143Y-58801775D02*
X55285715Y-58830347D01*
X55285715Y-58830347D02*
X55314286Y-58887490D01*
X55314286Y-58887490D02*
X55342857Y-59001775D01*
X55342857Y-59001775D02*
X55342857Y-59144633D01*
X55342857Y-59144633D02*
X55314286Y-59258918D01*
X55314286Y-59258918D02*
X55285715Y-59316061D01*
X55285715Y-59316061D02*
X55257143Y-59344633D01*
X55257143Y-59344633D02*
X55200000Y-59373204D01*
X55200000Y-59373204D02*
X55142857Y-59373204D01*
X55142857Y-59373204D02*
X55085715Y-59344633D01*
X55085715Y-59344633D02*
X55057143Y-59316061D01*
X55057143Y-59316061D02*
X55028572Y-59258918D01*
X55028572Y-59258918D02*
X55000000Y-59144633D01*
X55000000Y-59144633D02*
X55000000Y-59001775D01*
X55000000Y-59001775D02*
X55028572Y-58887490D01*
X55028572Y-58887490D02*
X55057143Y-58830347D01*
X55057143Y-58830347D02*
X55085715Y-58801775D01*
X55085715Y-58801775D02*
X55142857Y-58773204D01*
X56028572Y-59344633D02*
X56085715Y-59373204D01*
X56085715Y-59373204D02*
X56200001Y-59373204D01*
X56200001Y-59373204D02*
X56257144Y-59344633D01*
X56257144Y-59344633D02*
X56285715Y-59287490D01*
X56285715Y-59287490D02*
X56285715Y-59258918D01*
X56285715Y-59258918D02*
X56257144Y-59201775D01*
X56257144Y-59201775D02*
X56200001Y-59173204D01*
X56200001Y-59173204D02*
X56114287Y-59173204D01*
X56114287Y-59173204D02*
X56057144Y-59144633D01*
X56057144Y-59144633D02*
X56028572Y-59087490D01*
X56028572Y-59087490D02*
X56028572Y-59058918D01*
X56028572Y-59058918D02*
X56057144Y-59001775D01*
X56057144Y-59001775D02*
X56114287Y-58973204D01*
X56114287Y-58973204D02*
X56200001Y-58973204D01*
X56200001Y-58973204D02*
X56257144Y-59001775D01*
X57114286Y-58773204D02*
X57171429Y-58773204D01*
X57171429Y-58773204D02*
X57228572Y-58801775D01*
X57228572Y-58801775D02*
X57257144Y-58830347D01*
X57257144Y-58830347D02*
X57285715Y-58887490D01*
X57285715Y-58887490D02*
X57314286Y-59001775D01*
X57314286Y-59001775D02*
X57314286Y-59144633D01*
X57314286Y-59144633D02*
X57285715Y-59258918D01*
X57285715Y-59258918D02*
X57257144Y-59316061D01*
X57257144Y-59316061D02*
X57228572Y-59344633D01*
X57228572Y-59344633D02*
X57171429Y-59373204D01*
X57171429Y-59373204D02*
X57114286Y-59373204D01*
X57114286Y-59373204D02*
X57057144Y-59344633D01*
X57057144Y-59344633D02*
X57028572Y-59316061D01*
X57028572Y-59316061D02*
X57000001Y-59258918D01*
X57000001Y-59258918D02*
X56971429Y-59144633D01*
X56971429Y-59144633D02*
X56971429Y-59001775D01*
X56971429Y-59001775D02*
X57000001Y-58887490D01*
X57000001Y-58887490D02*
X57028572Y-58830347D01*
X57028572Y-58830347D02*
X57057144Y-58801775D01*
X57057144Y-58801775D02*
X57114286Y-58773204D01*
X57571430Y-59316061D02*
X57600001Y-59344633D01*
X57600001Y-59344633D02*
X57571430Y-59373204D01*
X57571430Y-59373204D02*
X57542858Y-59344633D01*
X57542858Y-59344633D02*
X57571430Y-59316061D01*
X57571430Y-59316061D02*
X57571430Y-59373204D01*
X58171429Y-59373204D02*
X57828572Y-59373204D01*
X58000001Y-59373204D02*
X58000001Y-58773204D01*
X58000001Y-58773204D02*
X57942858Y-58858918D01*
X57942858Y-58858918D02*
X57885715Y-58916061D01*
X57885715Y-58916061D02*
X57828572Y-58944633D01*
X58542858Y-58773204D02*
X58600001Y-58773204D01*
X58600001Y-58773204D02*
X58657144Y-58801775D01*
X58657144Y-58801775D02*
X58685716Y-58830347D01*
X58685716Y-58830347D02*
X58714287Y-58887490D01*
X58714287Y-58887490D02*
X58742858Y-59001775D01*
X58742858Y-59001775D02*
X58742858Y-59144633D01*
X58742858Y-59144633D02*
X58714287Y-59258918D01*
X58714287Y-59258918D02*
X58685716Y-59316061D01*
X58685716Y-59316061D02*
X58657144Y-59344633D01*
X58657144Y-59344633D02*
X58600001Y-59373204D01*
X58600001Y-59373204D02*
X58542858Y-59373204D01*
X58542858Y-59373204D02*
X58485716Y-59344633D01*
X58485716Y-59344633D02*
X58457144Y-59316061D01*
X58457144Y-59316061D02*
X58428573Y-59258918D01*
X58428573Y-59258918D02*
X58400001Y-59144633D01*
X58400001Y-59144633D02*
X58400001Y-59001775D01*
X58400001Y-59001775D02*
X58428573Y-58887490D01*
X58428573Y-58887490D02*
X58457144Y-58830347D01*
X58457144Y-58830347D02*
X58485716Y-58801775D01*
X58485716Y-58801775D02*
X58542858Y-58773204D01*
X59114287Y-58773204D02*
X59171430Y-58773204D01*
X59171430Y-58773204D02*
X59228573Y-58801775D01*
X59228573Y-58801775D02*
X59257145Y-58830347D01*
X59257145Y-58830347D02*
X59285716Y-58887490D01*
X59285716Y-58887490D02*
X59314287Y-59001775D01*
X59314287Y-59001775D02*
X59314287Y-59144633D01*
X59314287Y-59144633D02*
X59285716Y-59258918D01*
X59285716Y-59258918D02*
X59257145Y-59316061D01*
X59257145Y-59316061D02*
X59228573Y-59344633D01*
X59228573Y-59344633D02*
X59171430Y-59373204D01*
X59171430Y-59373204D02*
X59114287Y-59373204D01*
X59114287Y-59373204D02*
X59057145Y-59344633D01*
X59057145Y-59344633D02*
X59028573Y-59316061D01*
X59028573Y-59316061D02*
X59000002Y-59258918D01*
X59000002Y-59258918D02*
X58971430Y-59144633D01*
X58971430Y-59144633D02*
X58971430Y-59001775D01*
X58971430Y-59001775D02*
X59000002Y-58887490D01*
X59000002Y-58887490D02*
X59028573Y-58830347D01*
X59028573Y-58830347D02*
X59057145Y-58801775D01*
X59057145Y-58801775D02*
X59114287Y-58773204D01*
D11*
X20450001Y-56052071D02*
X20716668Y-56052071D01*
X20550001Y-55818738D02*
X20550001Y-56418738D01*
X20550001Y-56418738D02*
X20583335Y-56485405D01*
X20583335Y-56485405D02*
X20650001Y-56518738D01*
X20650001Y-56518738D02*
X20716668Y-56518738D01*
X21250001Y-56518738D02*
X21250001Y-55818738D01*
X21250001Y-56485405D02*
X21183335Y-56518738D01*
X21183335Y-56518738D02*
X21050001Y-56518738D01*
X21050001Y-56518738D02*
X20983335Y-56485405D01*
X20983335Y-56485405D02*
X20950001Y-56452071D01*
X20950001Y-56452071D02*
X20916668Y-56385405D01*
X20916668Y-56385405D02*
X20916668Y-56185405D01*
X20916668Y-56185405D02*
X20950001Y-56118738D01*
X20950001Y-56118738D02*
X20983335Y-56085405D01*
X20983335Y-56085405D02*
X21050001Y-56052071D01*
X21050001Y-56052071D02*
X21183335Y-56052071D01*
X21183335Y-56052071D02*
X21250001Y-56085405D01*
X21583334Y-56518738D02*
X21583334Y-56052071D01*
X21583334Y-56185405D02*
X21616668Y-56118738D01*
X21616668Y-56118738D02*
X21650001Y-56085405D01*
X21650001Y-56085405D02*
X21716668Y-56052071D01*
X21716668Y-56052071D02*
X21783334Y-56052071D01*
X21850001Y-56585405D02*
X22383334Y-56585405D01*
X22850000Y-56485405D02*
X22783334Y-56518738D01*
X22783334Y-56518738D02*
X22650000Y-56518738D01*
X22650000Y-56518738D02*
X22583334Y-56485405D01*
X22583334Y-56485405D02*
X22550000Y-56452071D01*
X22550000Y-56452071D02*
X22516667Y-56385405D01*
X22516667Y-56385405D02*
X22516667Y-56185405D01*
X22516667Y-56185405D02*
X22550000Y-56118738D01*
X22550000Y-56118738D02*
X22583334Y-56085405D01*
X22583334Y-56085405D02*
X22650000Y-56052071D01*
X22650000Y-56052071D02*
X22783334Y-56052071D01*
X22783334Y-56052071D02*
X22850000Y-56085405D01*
X23250000Y-56518738D02*
X23183334Y-56485405D01*
X23183334Y-56485405D02*
X23150000Y-56452071D01*
X23150000Y-56452071D02*
X23116667Y-56385405D01*
X23116667Y-56385405D02*
X23116667Y-56185405D01*
X23116667Y-56185405D02*
X23150000Y-56118738D01*
X23150000Y-56118738D02*
X23183334Y-56085405D01*
X23183334Y-56085405D02*
X23250000Y-56052071D01*
X23250000Y-56052071D02*
X23350000Y-56052071D01*
X23350000Y-56052071D02*
X23416667Y-56085405D01*
X23416667Y-56085405D02*
X23450000Y-56118738D01*
X23450000Y-56118738D02*
X23483334Y-56185405D01*
X23483334Y-56185405D02*
X23483334Y-56385405D01*
X23483334Y-56385405D02*
X23450000Y-56452071D01*
X23450000Y-56452071D02*
X23416667Y-56485405D01*
X23416667Y-56485405D02*
X23350000Y-56518738D01*
X23350000Y-56518738D02*
X23250000Y-56518738D01*
X24083333Y-56052071D02*
X24083333Y-56518738D01*
X23783333Y-56052071D02*
X23783333Y-56418738D01*
X23783333Y-56418738D02*
X23816667Y-56485405D01*
X23816667Y-56485405D02*
X23883333Y-56518738D01*
X23883333Y-56518738D02*
X23983333Y-56518738D01*
X23983333Y-56518738D02*
X24050000Y-56485405D01*
X24050000Y-56485405D02*
X24083333Y-56452071D01*
X24416666Y-56052071D02*
X24416666Y-56752071D01*
X24416666Y-56085405D02*
X24483333Y-56052071D01*
X24483333Y-56052071D02*
X24616666Y-56052071D01*
X24616666Y-56052071D02*
X24683333Y-56085405D01*
X24683333Y-56085405D02*
X24716666Y-56118738D01*
X24716666Y-56118738D02*
X24750000Y-56185405D01*
X24750000Y-56185405D02*
X24750000Y-56385405D01*
X24750000Y-56385405D02*
X24716666Y-56452071D01*
X24716666Y-56452071D02*
X24683333Y-56485405D01*
X24683333Y-56485405D02*
X24616666Y-56518738D01*
X24616666Y-56518738D02*
X24483333Y-56518738D01*
X24483333Y-56518738D02*
X24416666Y-56485405D01*
X25149999Y-56518738D02*
X25083333Y-56485405D01*
X25083333Y-56485405D02*
X25049999Y-56452071D01*
X25049999Y-56452071D02*
X25016666Y-56385405D01*
X25016666Y-56385405D02*
X25016666Y-56185405D01*
X25016666Y-56185405D02*
X25049999Y-56118738D01*
X25049999Y-56118738D02*
X25083333Y-56085405D01*
X25083333Y-56085405D02*
X25149999Y-56052071D01*
X25149999Y-56052071D02*
X25249999Y-56052071D01*
X25249999Y-56052071D02*
X25316666Y-56085405D01*
X25316666Y-56085405D02*
X25349999Y-56118738D01*
X25349999Y-56118738D02*
X25383333Y-56185405D01*
X25383333Y-56185405D02*
X25383333Y-56385405D01*
X25383333Y-56385405D02*
X25349999Y-56452071D01*
X25349999Y-56452071D02*
X25316666Y-56485405D01*
X25316666Y-56485405D02*
X25249999Y-56518738D01*
X25249999Y-56518738D02*
X25149999Y-56518738D01*
X25683332Y-56052071D02*
X25683332Y-56518738D01*
X25683332Y-56118738D02*
X25716666Y-56085405D01*
X25716666Y-56085405D02*
X25783332Y-56052071D01*
X25783332Y-56052071D02*
X25883332Y-56052071D01*
X25883332Y-56052071D02*
X25949999Y-56085405D01*
X25949999Y-56085405D02*
X25983332Y-56152071D01*
X25983332Y-56152071D02*
X25983332Y-56518738D01*
X26149999Y-56585405D02*
X26683332Y-56585405D01*
X27149998Y-56518738D02*
X27149998Y-56152071D01*
X27149998Y-56152071D02*
X27116665Y-56085405D01*
X27116665Y-56085405D02*
X27049998Y-56052071D01*
X27049998Y-56052071D02*
X26916665Y-56052071D01*
X26916665Y-56052071D02*
X26849998Y-56085405D01*
X27149998Y-56485405D02*
X27083332Y-56518738D01*
X27083332Y-56518738D02*
X26916665Y-56518738D01*
X26916665Y-56518738D02*
X26849998Y-56485405D01*
X26849998Y-56485405D02*
X26816665Y-56418738D01*
X26816665Y-56418738D02*
X26816665Y-56352071D01*
X26816665Y-56352071D02*
X26849998Y-56285405D01*
X26849998Y-56285405D02*
X26916665Y-56252071D01*
X26916665Y-56252071D02*
X27083332Y-56252071D01*
X27083332Y-56252071D02*
X27149998Y-56218738D01*
X27449998Y-55885405D02*
X27483331Y-55852071D01*
X27483331Y-55852071D02*
X27549998Y-55818738D01*
X27549998Y-55818738D02*
X27716665Y-55818738D01*
X27716665Y-55818738D02*
X27783331Y-55852071D01*
X27783331Y-55852071D02*
X27816665Y-55885405D01*
X27816665Y-55885405D02*
X27849998Y-55952071D01*
X27849998Y-55952071D02*
X27849998Y-56018738D01*
X27849998Y-56018738D02*
X27816665Y-56118738D01*
X27816665Y-56118738D02*
X27416665Y-56518738D01*
X27416665Y-56518738D02*
X27849998Y-56518738D01*
X28483332Y-55818738D02*
X28149998Y-55818738D01*
X28149998Y-55818738D02*
X28116665Y-56152071D01*
X28116665Y-56152071D02*
X28149998Y-56118738D01*
X28149998Y-56118738D02*
X28216665Y-56085405D01*
X28216665Y-56085405D02*
X28383332Y-56085405D01*
X28383332Y-56085405D02*
X28449998Y-56118738D01*
X28449998Y-56118738D02*
X28483332Y-56152071D01*
X28483332Y-56152071D02*
X28516665Y-56218738D01*
X28516665Y-56218738D02*
X28516665Y-56385405D01*
X28516665Y-56385405D02*
X28483332Y-56452071D01*
X28483332Y-56452071D02*
X28449998Y-56485405D01*
X28449998Y-56485405D02*
X28383332Y-56518738D01*
X28383332Y-56518738D02*
X28216665Y-56518738D01*
X28216665Y-56518738D02*
X28149998Y-56485405D01*
X28149998Y-56485405D02*
X28116665Y-56452071D01*
X30083331Y-55818738D02*
X30083331Y-56318738D01*
X30083331Y-56318738D02*
X30049998Y-56418738D01*
X30049998Y-56418738D02*
X29983331Y-56485405D01*
X29983331Y-56485405D02*
X29883331Y-56518738D01*
X29883331Y-56518738D02*
X29816665Y-56518738D01*
X30749998Y-56518738D02*
X30416664Y-56518738D01*
X30416664Y-56518738D02*
X30416664Y-55818738D01*
X31383331Y-56452071D02*
X31349998Y-56485405D01*
X31349998Y-56485405D02*
X31249998Y-56518738D01*
X31249998Y-56518738D02*
X31183331Y-56518738D01*
X31183331Y-56518738D02*
X31083331Y-56485405D01*
X31083331Y-56485405D02*
X31016665Y-56418738D01*
X31016665Y-56418738D02*
X30983331Y-56352071D01*
X30983331Y-56352071D02*
X30949998Y-56218738D01*
X30949998Y-56218738D02*
X30949998Y-56118738D01*
X30949998Y-56118738D02*
X30983331Y-55985405D01*
X30983331Y-55985405D02*
X31016665Y-55918738D01*
X31016665Y-55918738D02*
X31083331Y-55852071D01*
X31083331Y-55852071D02*
X31183331Y-55818738D01*
X31183331Y-55818738D02*
X31249998Y-55818738D01*
X31249998Y-55818738D02*
X31349998Y-55852071D01*
X31349998Y-55852071D02*
X31383331Y-55885405D01*
X32449998Y-56152071D02*
X32216664Y-56152071D01*
X32216664Y-56518738D02*
X32216664Y-55818738D01*
X32216664Y-55818738D02*
X32549998Y-55818738D01*
X32816664Y-56518738D02*
X32816664Y-55818738D01*
X32816664Y-55818738D02*
X33083331Y-55818738D01*
X33083331Y-55818738D02*
X33149998Y-55852071D01*
X33149998Y-55852071D02*
X33183331Y-55885405D01*
X33183331Y-55885405D02*
X33216664Y-55952071D01*
X33216664Y-55952071D02*
X33216664Y-56052071D01*
X33216664Y-56052071D02*
X33183331Y-56118738D01*
X33183331Y-56118738D02*
X33149998Y-56152071D01*
X33149998Y-56152071D02*
X33083331Y-56185405D01*
X33083331Y-56185405D02*
X32816664Y-56185405D01*
X33916664Y-56452071D02*
X33883331Y-56485405D01*
X33883331Y-56485405D02*
X33783331Y-56518738D01*
X33783331Y-56518738D02*
X33716664Y-56518738D01*
X33716664Y-56518738D02*
X33616664Y-56485405D01*
X33616664Y-56485405D02*
X33549998Y-56418738D01*
X33549998Y-56418738D02*
X33516664Y-56352071D01*
X33516664Y-56352071D02*
X33483331Y-56218738D01*
X33483331Y-56218738D02*
X33483331Y-56118738D01*
X33483331Y-56118738D02*
X33516664Y-55985405D01*
X33516664Y-55985405D02*
X33549998Y-55918738D01*
X33549998Y-55918738D02*
X33616664Y-55852071D01*
X33616664Y-55852071D02*
X33716664Y-55818738D01*
X33716664Y-55818738D02*
X33783331Y-55818738D01*
X33783331Y-55818738D02*
X33883331Y-55852071D01*
X33883331Y-55852071D02*
X33916664Y-55885405D01*
X34883331Y-55818738D02*
X34949997Y-55818738D01*
X34949997Y-55818738D02*
X35016664Y-55852071D01*
X35016664Y-55852071D02*
X35049997Y-55885405D01*
X35049997Y-55885405D02*
X35083331Y-55952071D01*
X35083331Y-55952071D02*
X35116664Y-56085405D01*
X35116664Y-56085405D02*
X35116664Y-56252071D01*
X35116664Y-56252071D02*
X35083331Y-56385405D01*
X35083331Y-56385405D02*
X35049997Y-56452071D01*
X35049997Y-56452071D02*
X35016664Y-56485405D01*
X35016664Y-56485405D02*
X34949997Y-56518738D01*
X34949997Y-56518738D02*
X34883331Y-56518738D01*
X34883331Y-56518738D02*
X34816664Y-56485405D01*
X34816664Y-56485405D02*
X34783331Y-56452071D01*
X34783331Y-56452071D02*
X34749997Y-56385405D01*
X34749997Y-56385405D02*
X34716664Y-56252071D01*
X34716664Y-56252071D02*
X34716664Y-56085405D01*
X34716664Y-56085405D02*
X34749997Y-55952071D01*
X34749997Y-55952071D02*
X34783331Y-55885405D01*
X34783331Y-55885405D02*
X34816664Y-55852071D01*
X34816664Y-55852071D02*
X34883331Y-55818738D01*
X35416664Y-56452071D02*
X35449998Y-56485405D01*
X35449998Y-56485405D02*
X35416664Y-56518738D01*
X35416664Y-56518738D02*
X35383331Y-56485405D01*
X35383331Y-56485405D02*
X35416664Y-56452071D01*
X35416664Y-56452071D02*
X35416664Y-56518738D01*
X36116664Y-56518738D02*
X35716664Y-56518738D01*
X35916664Y-56518738D02*
X35916664Y-55818738D01*
X35916664Y-55818738D02*
X35849997Y-55918738D01*
X35849997Y-55918738D02*
X35783331Y-55985405D01*
X35783331Y-55985405D02*
X35716664Y-56018738D01*
X36783331Y-56518738D02*
X36383331Y-56518738D01*
X36583331Y-56518738D02*
X36583331Y-55818738D01*
X36583331Y-55818738D02*
X36516664Y-55918738D01*
X36516664Y-55918738D02*
X36449998Y-55985405D01*
X36449998Y-55985405D02*
X36383331Y-56018738D01*
X38483331Y-56518738D02*
X38149997Y-56518738D01*
X38149997Y-56518738D02*
X38149997Y-55818738D01*
X38716664Y-56152071D02*
X39249998Y-56152071D01*
X39249998Y-56352071D02*
X38716664Y-56352071D01*
X39916665Y-55818738D02*
X39583331Y-55818738D01*
X39583331Y-55818738D02*
X39549998Y-56152071D01*
X39549998Y-56152071D02*
X39583331Y-56118738D01*
X39583331Y-56118738D02*
X39649998Y-56085405D01*
X39649998Y-56085405D02*
X39816665Y-56085405D01*
X39816665Y-56085405D02*
X39883331Y-56118738D01*
X39883331Y-56118738D02*
X39916665Y-56152071D01*
X39916665Y-56152071D02*
X39949998Y-56218738D01*
X39949998Y-56218738D02*
X39949998Y-56385405D01*
X39949998Y-56385405D02*
X39916665Y-56452071D01*
X39916665Y-56452071D02*
X39883331Y-56485405D01*
X39883331Y-56485405D02*
X39816665Y-56518738D01*
X39816665Y-56518738D02*
X39649998Y-56518738D01*
X39649998Y-56518738D02*
X39583331Y-56485405D01*
X39583331Y-56485405D02*
X39549998Y-56452071D01*
X40383332Y-55818738D02*
X40449998Y-55818738D01*
X40449998Y-55818738D02*
X40516665Y-55852071D01*
X40516665Y-55852071D02*
X40549998Y-55885405D01*
X40549998Y-55885405D02*
X40583332Y-55952071D01*
X40583332Y-55952071D02*
X40616665Y-56085405D01*
X40616665Y-56085405D02*
X40616665Y-56252071D01*
X40616665Y-56252071D02*
X40583332Y-56385405D01*
X40583332Y-56385405D02*
X40549998Y-56452071D01*
X40549998Y-56452071D02*
X40516665Y-56485405D01*
X40516665Y-56485405D02*
X40449998Y-56518738D01*
X40449998Y-56518738D02*
X40383332Y-56518738D01*
X40383332Y-56518738D02*
X40316665Y-56485405D01*
X40316665Y-56485405D02*
X40283332Y-56452071D01*
X40283332Y-56452071D02*
X40249998Y-56385405D01*
X40249998Y-56385405D02*
X40216665Y-56252071D01*
X40216665Y-56252071D02*
X40216665Y-56085405D01*
X40216665Y-56085405D02*
X40249998Y-55952071D01*
X40249998Y-55952071D02*
X40283332Y-55885405D01*
X40283332Y-55885405D02*
X40316665Y-55852071D01*
X40316665Y-55852071D02*
X40383332Y-55818738D01*
X40916665Y-56452071D02*
X40949999Y-56485405D01*
X40949999Y-56485405D02*
X40916665Y-56518738D01*
X40916665Y-56518738D02*
X40883332Y-56485405D01*
X40883332Y-56485405D02*
X40916665Y-56452071D01*
X40916665Y-56452071D02*
X40916665Y-56518738D01*
X41383332Y-55818738D02*
X41449998Y-55818738D01*
X41449998Y-55818738D02*
X41516665Y-55852071D01*
X41516665Y-55852071D02*
X41549998Y-55885405D01*
X41549998Y-55885405D02*
X41583332Y-55952071D01*
X41583332Y-55952071D02*
X41616665Y-56085405D01*
X41616665Y-56085405D02*
X41616665Y-56252071D01*
X41616665Y-56252071D02*
X41583332Y-56385405D01*
X41583332Y-56385405D02*
X41549998Y-56452071D01*
X41549998Y-56452071D02*
X41516665Y-56485405D01*
X41516665Y-56485405D02*
X41449998Y-56518738D01*
X41449998Y-56518738D02*
X41383332Y-56518738D01*
X41383332Y-56518738D02*
X41316665Y-56485405D01*
X41316665Y-56485405D02*
X41283332Y-56452071D01*
X41283332Y-56452071D02*
X41249998Y-56385405D01*
X41249998Y-56385405D02*
X41216665Y-56252071D01*
X41216665Y-56252071D02*
X41216665Y-56085405D01*
X41216665Y-56085405D02*
X41249998Y-55952071D01*
X41249998Y-55952071D02*
X41283332Y-55885405D01*
X41283332Y-55885405D02*
X41316665Y-55852071D01*
X41316665Y-55852071D02*
X41383332Y-55818738D01*
X42449998Y-56518738D02*
X42449998Y-56052071D01*
X42449998Y-56118738D02*
X42483332Y-56085405D01*
X42483332Y-56085405D02*
X42549998Y-56052071D01*
X42549998Y-56052071D02*
X42649998Y-56052071D01*
X42649998Y-56052071D02*
X42716665Y-56085405D01*
X42716665Y-56085405D02*
X42749998Y-56152071D01*
X42749998Y-56152071D02*
X42749998Y-56518738D01*
X42749998Y-56152071D02*
X42783332Y-56085405D01*
X42783332Y-56085405D02*
X42849998Y-56052071D01*
X42849998Y-56052071D02*
X42949998Y-56052071D01*
X42949998Y-56052071D02*
X43016665Y-56085405D01*
X43016665Y-56085405D02*
X43049998Y-56152071D01*
X43049998Y-56152071D02*
X43049998Y-56518738D01*
X43383331Y-56518738D02*
X43383331Y-56052071D01*
X43383331Y-56118738D02*
X43416665Y-56085405D01*
X43416665Y-56085405D02*
X43483331Y-56052071D01*
X43483331Y-56052071D02*
X43583331Y-56052071D01*
X43583331Y-56052071D02*
X43649998Y-56085405D01*
X43649998Y-56085405D02*
X43683331Y-56152071D01*
X43683331Y-56152071D02*
X43683331Y-56518738D01*
X43683331Y-56152071D02*
X43716665Y-56085405D01*
X43716665Y-56085405D02*
X43783331Y-56052071D01*
X43783331Y-56052071D02*
X43883331Y-56052071D01*
X43883331Y-56052071D02*
X43949998Y-56085405D01*
X43949998Y-56085405D02*
X43983331Y-56152071D01*
X43983331Y-56152071D02*
X43983331Y-56518738D01*
X45749997Y-55852071D02*
X45683330Y-55818738D01*
X45683330Y-55818738D02*
X45583330Y-55818738D01*
X45583330Y-55818738D02*
X45483330Y-55852071D01*
X45483330Y-55852071D02*
X45416664Y-55918738D01*
X45416664Y-55918738D02*
X45383330Y-55985405D01*
X45383330Y-55985405D02*
X45349997Y-56118738D01*
X45349997Y-56118738D02*
X45349997Y-56218738D01*
X45349997Y-56218738D02*
X45383330Y-56352071D01*
X45383330Y-56352071D02*
X45416664Y-56418738D01*
X45416664Y-56418738D02*
X45483330Y-56485405D01*
X45483330Y-56485405D02*
X45583330Y-56518738D01*
X45583330Y-56518738D02*
X45649997Y-56518738D01*
X45649997Y-56518738D02*
X45749997Y-56485405D01*
X45749997Y-56485405D02*
X45783330Y-56452071D01*
X45783330Y-56452071D02*
X45783330Y-56218738D01*
X45783330Y-56218738D02*
X45649997Y-56218738D01*
X46049997Y-56485405D02*
X46149997Y-56518738D01*
X46149997Y-56518738D02*
X46316664Y-56518738D01*
X46316664Y-56518738D02*
X46383330Y-56485405D01*
X46383330Y-56485405D02*
X46416664Y-56452071D01*
X46416664Y-56452071D02*
X46449997Y-56385405D01*
X46449997Y-56385405D02*
X46449997Y-56318738D01*
X46449997Y-56318738D02*
X46416664Y-56252071D01*
X46416664Y-56252071D02*
X46383330Y-56218738D01*
X46383330Y-56218738D02*
X46316664Y-56185405D01*
X46316664Y-56185405D02*
X46183330Y-56152071D01*
X46183330Y-56152071D02*
X46116664Y-56118738D01*
X46116664Y-56118738D02*
X46083330Y-56085405D01*
X46083330Y-56085405D02*
X46049997Y-56018738D01*
X46049997Y-56018738D02*
X46049997Y-55952071D01*
X46049997Y-55952071D02*
X46083330Y-55885405D01*
X46083330Y-55885405D02*
X46116664Y-55852071D01*
X46116664Y-55852071D02*
X46183330Y-55818738D01*
X46183330Y-55818738D02*
X46349997Y-55818738D01*
X46349997Y-55818738D02*
X46449997Y-55852071D01*
X46716664Y-56485405D02*
X46816664Y-56518738D01*
X46816664Y-56518738D02*
X46983331Y-56518738D01*
X46983331Y-56518738D02*
X47049997Y-56485405D01*
X47049997Y-56485405D02*
X47083331Y-56452071D01*
X47083331Y-56452071D02*
X47116664Y-56385405D01*
X47116664Y-56385405D02*
X47116664Y-56318738D01*
X47116664Y-56318738D02*
X47083331Y-56252071D01*
X47083331Y-56252071D02*
X47049997Y-56218738D01*
X47049997Y-56218738D02*
X46983331Y-56185405D01*
X46983331Y-56185405D02*
X46849997Y-56152071D01*
X46849997Y-56152071D02*
X46783331Y-56118738D01*
X46783331Y-56118738D02*
X46749997Y-56085405D01*
X46749997Y-56085405D02*
X46716664Y-56018738D01*
X46716664Y-56018738D02*
X46716664Y-55952071D01*
X46716664Y-55952071D02*
X46749997Y-55885405D01*
X46749997Y-55885405D02*
X46783331Y-55852071D01*
X46783331Y-55852071D02*
X46849997Y-55818738D01*
X46849997Y-55818738D02*
X47016664Y-55818738D01*
X47016664Y-55818738D02*
X47116664Y-55852071D01*
X47783331Y-55852071D02*
X47716664Y-55818738D01*
X47716664Y-55818738D02*
X47616664Y-55818738D01*
X47616664Y-55818738D02*
X47516664Y-55852071D01*
X47516664Y-55852071D02*
X47449998Y-55918738D01*
X47449998Y-55918738D02*
X47416664Y-55985405D01*
X47416664Y-55985405D02*
X47383331Y-56118738D01*
X47383331Y-56118738D02*
X47383331Y-56218738D01*
X47383331Y-56218738D02*
X47416664Y-56352071D01*
X47416664Y-56352071D02*
X47449998Y-56418738D01*
X47449998Y-56418738D02*
X47516664Y-56485405D01*
X47516664Y-56485405D02*
X47616664Y-56518738D01*
X47616664Y-56518738D02*
X47683331Y-56518738D01*
X47683331Y-56518738D02*
X47783331Y-56485405D01*
X47783331Y-56485405D02*
X47816664Y-56452071D01*
X47816664Y-56452071D02*
X47816664Y-56218738D01*
X47816664Y-56218738D02*
X47683331Y-56218738D01*
X48616664Y-55785405D02*
X48016664Y-56685405D01*
X49216664Y-55852071D02*
X49149997Y-55818738D01*
X49149997Y-55818738D02*
X49049997Y-55818738D01*
X49049997Y-55818738D02*
X48949997Y-55852071D01*
X48949997Y-55852071D02*
X48883331Y-55918738D01*
X48883331Y-55918738D02*
X48849997Y-55985405D01*
X48849997Y-55985405D02*
X48816664Y-56118738D01*
X48816664Y-56118738D02*
X48816664Y-56218738D01*
X48816664Y-56218738D02*
X48849997Y-56352071D01*
X48849997Y-56352071D02*
X48883331Y-56418738D01*
X48883331Y-56418738D02*
X48949997Y-56485405D01*
X48949997Y-56485405D02*
X49049997Y-56518738D01*
X49049997Y-56518738D02*
X49116664Y-56518738D01*
X49116664Y-56518738D02*
X49216664Y-56485405D01*
X49216664Y-56485405D02*
X49249997Y-56452071D01*
X49249997Y-56452071D02*
X49249997Y-56218738D01*
X49249997Y-56218738D02*
X49116664Y-56218738D01*
X49516664Y-56485405D02*
X49616664Y-56518738D01*
X49616664Y-56518738D02*
X49783331Y-56518738D01*
X49783331Y-56518738D02*
X49849997Y-56485405D01*
X49849997Y-56485405D02*
X49883331Y-56452071D01*
X49883331Y-56452071D02*
X49916664Y-56385405D01*
X49916664Y-56385405D02*
X49916664Y-56318738D01*
X49916664Y-56318738D02*
X49883331Y-56252071D01*
X49883331Y-56252071D02*
X49849997Y-56218738D01*
X49849997Y-56218738D02*
X49783331Y-56185405D01*
X49783331Y-56185405D02*
X49649997Y-56152071D01*
X49649997Y-56152071D02*
X49583331Y-56118738D01*
X49583331Y-56118738D02*
X49549997Y-56085405D01*
X49549997Y-56085405D02*
X49516664Y-56018738D01*
X49516664Y-56018738D02*
X49516664Y-55952071D01*
X49516664Y-55952071D02*
X49549997Y-55885405D01*
X49549997Y-55885405D02*
X49583331Y-55852071D01*
X49583331Y-55852071D02*
X49649997Y-55818738D01*
X49649997Y-55818738D02*
X49816664Y-55818738D01*
X49816664Y-55818738D02*
X49916664Y-55852071D01*
X50583331Y-55852071D02*
X50516664Y-55818738D01*
X50516664Y-55818738D02*
X50416664Y-55818738D01*
X50416664Y-55818738D02*
X50316664Y-55852071D01*
X50316664Y-55852071D02*
X50249998Y-55918738D01*
X50249998Y-55918738D02*
X50216664Y-55985405D01*
X50216664Y-55985405D02*
X50183331Y-56118738D01*
X50183331Y-56118738D02*
X50183331Y-56218738D01*
X50183331Y-56218738D02*
X50216664Y-56352071D01*
X50216664Y-56352071D02*
X50249998Y-56418738D01*
X50249998Y-56418738D02*
X50316664Y-56485405D01*
X50316664Y-56485405D02*
X50416664Y-56518738D01*
X50416664Y-56518738D02*
X50483331Y-56518738D01*
X50483331Y-56518738D02*
X50583331Y-56485405D01*
X50583331Y-56485405D02*
X50616664Y-56452071D01*
X50616664Y-56452071D02*
X50616664Y-56218738D01*
X50616664Y-56218738D02*
X50483331Y-56218738D01*
X51816664Y-56518738D02*
X51416664Y-56518738D01*
X51616664Y-56518738D02*
X51616664Y-55818738D01*
X51616664Y-55818738D02*
X51549997Y-55918738D01*
X51549997Y-55918738D02*
X51483331Y-55985405D01*
X51483331Y-55985405D02*
X51416664Y-56018738D01*
X52116664Y-56452071D02*
X52149998Y-56485405D01*
X52149998Y-56485405D02*
X52116664Y-56518738D01*
X52116664Y-56518738D02*
X52083331Y-56485405D01*
X52083331Y-56485405D02*
X52116664Y-56452071D01*
X52116664Y-56452071D02*
X52116664Y-56518738D01*
X52583331Y-55818738D02*
X52649997Y-55818738D01*
X52649997Y-55818738D02*
X52716664Y-55852071D01*
X52716664Y-55852071D02*
X52749997Y-55885405D01*
X52749997Y-55885405D02*
X52783331Y-55952071D01*
X52783331Y-55952071D02*
X52816664Y-56085405D01*
X52816664Y-56085405D02*
X52816664Y-56252071D01*
X52816664Y-56252071D02*
X52783331Y-56385405D01*
X52783331Y-56385405D02*
X52749997Y-56452071D01*
X52749997Y-56452071D02*
X52716664Y-56485405D01*
X52716664Y-56485405D02*
X52649997Y-56518738D01*
X52649997Y-56518738D02*
X52583331Y-56518738D01*
X52583331Y-56518738D02*
X52516664Y-56485405D01*
X52516664Y-56485405D02*
X52483331Y-56452071D01*
X52483331Y-56452071D02*
X52449997Y-56385405D01*
X52449997Y-56385405D02*
X52416664Y-56252071D01*
X52416664Y-56252071D02*
X52416664Y-56085405D01*
X52416664Y-56085405D02*
X52449997Y-55952071D01*
X52449997Y-55952071D02*
X52483331Y-55885405D01*
X52483331Y-55885405D02*
X52516664Y-55852071D01*
X52516664Y-55852071D02*
X52583331Y-55818738D01*
X53249998Y-55818738D02*
X53316664Y-55818738D01*
X53316664Y-55818738D02*
X53383331Y-55852071D01*
X53383331Y-55852071D02*
X53416664Y-55885405D01*
X53416664Y-55885405D02*
X53449998Y-55952071D01*
X53449998Y-55952071D02*
X53483331Y-56085405D01*
X53483331Y-56085405D02*
X53483331Y-56252071D01*
X53483331Y-56252071D02*
X53449998Y-56385405D01*
X53449998Y-56385405D02*
X53416664Y-56452071D01*
X53416664Y-56452071D02*
X53383331Y-56485405D01*
X53383331Y-56485405D02*
X53316664Y-56518738D01*
X53316664Y-56518738D02*
X53249998Y-56518738D01*
X53249998Y-56518738D02*
X53183331Y-56485405D01*
X53183331Y-56485405D02*
X53149998Y-56452071D01*
X53149998Y-56452071D02*
X53116664Y-56385405D01*
X53116664Y-56385405D02*
X53083331Y-56252071D01*
X53083331Y-56252071D02*
X53083331Y-56085405D01*
X53083331Y-56085405D02*
X53116664Y-55952071D01*
X53116664Y-55952071D02*
X53149998Y-55885405D01*
X53149998Y-55885405D02*
X53183331Y-55852071D01*
X53183331Y-55852071D02*
X53249998Y-55818738D01*
D10*
X20442854Y-69344633D02*
X20528569Y-69373204D01*
X20528569Y-69373204D02*
X20671426Y-69373204D01*
X20671426Y-69373204D02*
X20728569Y-69344633D01*
X20728569Y-69344633D02*
X20757140Y-69316061D01*
X20757140Y-69316061D02*
X20785711Y-69258918D01*
X20785711Y-69258918D02*
X20785711Y-69201775D01*
X20785711Y-69201775D02*
X20757140Y-69144633D01*
X20757140Y-69144633D02*
X20728569Y-69116061D01*
X20728569Y-69116061D02*
X20671426Y-69087490D01*
X20671426Y-69087490D02*
X20557140Y-69058918D01*
X20557140Y-69058918D02*
X20499997Y-69030347D01*
X20499997Y-69030347D02*
X20471426Y-69001775D01*
X20471426Y-69001775D02*
X20442854Y-68944633D01*
X20442854Y-68944633D02*
X20442854Y-68887490D01*
X20442854Y-68887490D02*
X20471426Y-68830347D01*
X20471426Y-68830347D02*
X20499997Y-68801775D01*
X20499997Y-68801775D02*
X20557140Y-68773204D01*
X20557140Y-68773204D02*
X20699997Y-68773204D01*
X20699997Y-68773204D02*
X20785711Y-68801775D01*
X21042855Y-69058918D02*
X21242855Y-69058918D01*
X21328569Y-69373204D02*
X21042855Y-69373204D01*
X21042855Y-69373204D02*
X21042855Y-68773204D01*
X21042855Y-68773204D02*
X21328569Y-68773204D01*
X21442855Y-69430347D02*
X21899997Y-69430347D01*
X21985712Y-68773204D02*
X22385712Y-69373204D01*
X22385712Y-68773204D02*
X21985712Y-69373204D01*
X22614284Y-69373204D02*
X22614284Y-68773204D01*
X22614284Y-69058918D02*
X22957141Y-69058918D01*
X22957141Y-69373204D02*
X22957141Y-68773204D01*
X23214283Y-69201775D02*
X23499998Y-69201775D01*
X23157140Y-69373204D02*
X23357140Y-68773204D01*
X23357140Y-68773204D02*
X23557140Y-69373204D01*
X23671426Y-68773204D02*
X24014284Y-68773204D01*
X23842855Y-69373204D02*
X23842855Y-68773204D01*
X24557141Y-69316061D02*
X24528569Y-69344633D01*
X24528569Y-69344633D02*
X24442855Y-69373204D01*
X24442855Y-69373204D02*
X24385712Y-69373204D01*
X24385712Y-69373204D02*
X24299998Y-69344633D01*
X24299998Y-69344633D02*
X24242855Y-69287490D01*
X24242855Y-69287490D02*
X24214284Y-69230347D01*
X24214284Y-69230347D02*
X24185712Y-69116061D01*
X24185712Y-69116061D02*
X24185712Y-69030347D01*
X24185712Y-69030347D02*
X24214284Y-68916061D01*
X24214284Y-68916061D02*
X24242855Y-68858918D01*
X24242855Y-68858918D02*
X24299998Y-68801775D01*
X24299998Y-68801775D02*
X24385712Y-68773204D01*
X24385712Y-68773204D02*
X24442855Y-68773204D01*
X24442855Y-68773204D02*
X24528569Y-68801775D01*
X24528569Y-68801775D02*
X24557141Y-68830347D01*
X24814284Y-69373204D02*
X24814284Y-68773204D01*
X24814284Y-69058918D02*
X25157141Y-69058918D01*
X25157141Y-69373204D02*
X25157141Y-68773204D01*
X25442855Y-69316061D02*
X25471426Y-69344633D01*
X25471426Y-69344633D02*
X25442855Y-69373204D01*
X25442855Y-69373204D02*
X25414283Y-69344633D01*
X25414283Y-69344633D02*
X25442855Y-69316061D01*
X25442855Y-69316061D02*
X25442855Y-69373204D01*
X25442855Y-69001775D02*
X25471426Y-69030347D01*
X25471426Y-69030347D02*
X25442855Y-69058918D01*
X25442855Y-69058918D02*
X25414283Y-69030347D01*
X25414283Y-69030347D02*
X25442855Y-69001775D01*
X25442855Y-69001775D02*
X25442855Y-69058918D01*
X26157140Y-69344633D02*
X26242855Y-69373204D01*
X26242855Y-69373204D02*
X26385712Y-69373204D01*
X26385712Y-69373204D02*
X26442855Y-69344633D01*
X26442855Y-69344633D02*
X26471426Y-69316061D01*
X26471426Y-69316061D02*
X26499997Y-69258918D01*
X26499997Y-69258918D02*
X26499997Y-69201775D01*
X26499997Y-69201775D02*
X26471426Y-69144633D01*
X26471426Y-69144633D02*
X26442855Y-69116061D01*
X26442855Y-69116061D02*
X26385712Y-69087490D01*
X26385712Y-69087490D02*
X26271426Y-69058918D01*
X26271426Y-69058918D02*
X26214283Y-69030347D01*
X26214283Y-69030347D02*
X26185712Y-69001775D01*
X26185712Y-69001775D02*
X26157140Y-68944633D01*
X26157140Y-68944633D02*
X26157140Y-68887490D01*
X26157140Y-68887490D02*
X26185712Y-68830347D01*
X26185712Y-68830347D02*
X26214283Y-68801775D01*
X26214283Y-68801775D02*
X26271426Y-68773204D01*
X26271426Y-68773204D02*
X26414283Y-68773204D01*
X26414283Y-68773204D02*
X26499997Y-68801775D01*
X26757141Y-69058918D02*
X26957141Y-69058918D01*
X27042855Y-69373204D02*
X26757141Y-69373204D01*
X26757141Y-69373204D02*
X26757141Y-68773204D01*
X26757141Y-68773204D02*
X27042855Y-68773204D01*
X27871426Y-68773204D02*
X27928569Y-68773204D01*
X27928569Y-68773204D02*
X27985712Y-68801775D01*
X27985712Y-68801775D02*
X28014284Y-68830347D01*
X28014284Y-68830347D02*
X28042855Y-68887490D01*
X28042855Y-68887490D02*
X28071426Y-69001775D01*
X28071426Y-69001775D02*
X28071426Y-69144633D01*
X28071426Y-69144633D02*
X28042855Y-69258918D01*
X28042855Y-69258918D02*
X28014284Y-69316061D01*
X28014284Y-69316061D02*
X27985712Y-69344633D01*
X27985712Y-69344633D02*
X27928569Y-69373204D01*
X27928569Y-69373204D02*
X27871426Y-69373204D01*
X27871426Y-69373204D02*
X27814284Y-69344633D01*
X27814284Y-69344633D02*
X27785712Y-69316061D01*
X27785712Y-69316061D02*
X27757141Y-69258918D01*
X27757141Y-69258918D02*
X27728569Y-69144633D01*
X27728569Y-69144633D02*
X27728569Y-69001775D01*
X27728569Y-69001775D02*
X27757141Y-68887490D01*
X27757141Y-68887490D02*
X27785712Y-68830347D01*
X27785712Y-68830347D02*
X27814284Y-68801775D01*
X27814284Y-68801775D02*
X27871426Y-68773204D01*
X28328570Y-69316061D02*
X28357141Y-69344633D01*
X28357141Y-69344633D02*
X28328570Y-69373204D01*
X28328570Y-69373204D02*
X28299998Y-69344633D01*
X28299998Y-69344633D02*
X28328570Y-69316061D01*
X28328570Y-69316061D02*
X28328570Y-69373204D01*
X28928569Y-69373204D02*
X28585712Y-69373204D01*
X28757141Y-69373204D02*
X28757141Y-68773204D01*
X28757141Y-68773204D02*
X28699998Y-68858918D01*
X28699998Y-68858918D02*
X28642855Y-68916061D01*
X28642855Y-68916061D02*
X28585712Y-68944633D01*
X29299998Y-68773204D02*
X29357141Y-68773204D01*
X29357141Y-68773204D02*
X29414284Y-68801775D01*
X29414284Y-68801775D02*
X29442856Y-68830347D01*
X29442856Y-68830347D02*
X29471427Y-68887490D01*
X29471427Y-68887490D02*
X29499998Y-69001775D01*
X29499998Y-69001775D02*
X29499998Y-69144633D01*
X29499998Y-69144633D02*
X29471427Y-69258918D01*
X29471427Y-69258918D02*
X29442856Y-69316061D01*
X29442856Y-69316061D02*
X29414284Y-69344633D01*
X29414284Y-69344633D02*
X29357141Y-69373204D01*
X29357141Y-69373204D02*
X29299998Y-69373204D01*
X29299998Y-69373204D02*
X29242856Y-69344633D01*
X29242856Y-69344633D02*
X29214284Y-69316061D01*
X29214284Y-69316061D02*
X29185713Y-69258918D01*
X29185713Y-69258918D02*
X29157141Y-69144633D01*
X29157141Y-69144633D02*
X29157141Y-69001775D01*
X29157141Y-69001775D02*
X29185713Y-68887490D01*
X29185713Y-68887490D02*
X29214284Y-68830347D01*
X29214284Y-68830347D02*
X29242856Y-68801775D01*
X29242856Y-68801775D02*
X29299998Y-68773204D01*
X30299999Y-69373204D02*
X30242856Y-69344633D01*
X30242856Y-69344633D02*
X30214285Y-69316061D01*
X30214285Y-69316061D02*
X30185713Y-69258918D01*
X30185713Y-69258918D02*
X30185713Y-69087490D01*
X30185713Y-69087490D02*
X30214285Y-69030347D01*
X30214285Y-69030347D02*
X30242856Y-69001775D01*
X30242856Y-69001775D02*
X30299999Y-68973204D01*
X30299999Y-68973204D02*
X30385713Y-68973204D01*
X30385713Y-68973204D02*
X30442856Y-69001775D01*
X30442856Y-69001775D02*
X30471428Y-69030347D01*
X30471428Y-69030347D02*
X30499999Y-69087490D01*
X30499999Y-69087490D02*
X30499999Y-69258918D01*
X30499999Y-69258918D02*
X30471428Y-69316061D01*
X30471428Y-69316061D02*
X30442856Y-69344633D01*
X30442856Y-69344633D02*
X30385713Y-69373204D01*
X30385713Y-69373204D02*
X30299999Y-69373204D01*
X30699999Y-68973204D02*
X30842856Y-69373204D01*
X30842856Y-69373204D02*
X30985713Y-68973204D01*
X31442856Y-69344633D02*
X31385713Y-69373204D01*
X31385713Y-69373204D02*
X31271428Y-69373204D01*
X31271428Y-69373204D02*
X31214285Y-69344633D01*
X31214285Y-69344633D02*
X31185713Y-69287490D01*
X31185713Y-69287490D02*
X31185713Y-69058918D01*
X31185713Y-69058918D02*
X31214285Y-69001775D01*
X31214285Y-69001775D02*
X31271428Y-68973204D01*
X31271428Y-68973204D02*
X31385713Y-68973204D01*
X31385713Y-68973204D02*
X31442856Y-69001775D01*
X31442856Y-69001775D02*
X31471428Y-69058918D01*
X31471428Y-69058918D02*
X31471428Y-69116061D01*
X31471428Y-69116061D02*
X31185713Y-69173204D01*
X31728571Y-69373204D02*
X31728571Y-68973204D01*
X31728571Y-69087490D02*
X31757142Y-69030347D01*
X31757142Y-69030347D02*
X31785714Y-69001775D01*
X31785714Y-69001775D02*
X31842856Y-68973204D01*
X31842856Y-68973204D02*
X31899999Y-68973204D01*
X32471428Y-68973204D02*
X32700000Y-68973204D01*
X32557143Y-68773204D02*
X32557143Y-69287490D01*
X32557143Y-69287490D02*
X32585714Y-69344633D01*
X32585714Y-69344633D02*
X32642857Y-69373204D01*
X32642857Y-69373204D02*
X32700000Y-69373204D01*
X32900000Y-69373204D02*
X32900000Y-68773204D01*
X33157143Y-69373204D02*
X33157143Y-69058918D01*
X33157143Y-69058918D02*
X33128571Y-69001775D01*
X33128571Y-69001775D02*
X33071428Y-68973204D01*
X33071428Y-68973204D02*
X32985714Y-68973204D01*
X32985714Y-68973204D02*
X32928571Y-69001775D01*
X32928571Y-69001775D02*
X32900000Y-69030347D01*
X33671428Y-69344633D02*
X33614285Y-69373204D01*
X33614285Y-69373204D02*
X33500000Y-69373204D01*
X33500000Y-69373204D02*
X33442857Y-69344633D01*
X33442857Y-69344633D02*
X33414285Y-69287490D01*
X33414285Y-69287490D02*
X33414285Y-69058918D01*
X33414285Y-69058918D02*
X33442857Y-69001775D01*
X33442857Y-69001775D02*
X33500000Y-68973204D01*
X33500000Y-68973204D02*
X33614285Y-68973204D01*
X33614285Y-68973204D02*
X33671428Y-69001775D01*
X33671428Y-69001775D02*
X33700000Y-69058918D01*
X33700000Y-69058918D02*
X33700000Y-69116061D01*
X33700000Y-69116061D02*
X33414285Y-69173204D01*
X34671429Y-69344633D02*
X34614286Y-69373204D01*
X34614286Y-69373204D02*
X34500000Y-69373204D01*
X34500000Y-69373204D02*
X34442857Y-69344633D01*
X34442857Y-69344633D02*
X34414286Y-69316061D01*
X34414286Y-69316061D02*
X34385714Y-69258918D01*
X34385714Y-69258918D02*
X34385714Y-69087490D01*
X34385714Y-69087490D02*
X34414286Y-69030347D01*
X34414286Y-69030347D02*
X34442857Y-69001775D01*
X34442857Y-69001775D02*
X34500000Y-68973204D01*
X34500000Y-68973204D02*
X34614286Y-68973204D01*
X34614286Y-68973204D02*
X34671429Y-69001775D01*
X34928572Y-69373204D02*
X34928572Y-68973204D01*
X34928572Y-69087490D02*
X34957143Y-69030347D01*
X34957143Y-69030347D02*
X34985715Y-69001775D01*
X34985715Y-69001775D02*
X35042857Y-68973204D01*
X35042857Y-68973204D02*
X35100000Y-68973204D01*
X35385715Y-69373204D02*
X35328572Y-69344633D01*
X35328572Y-69344633D02*
X35300001Y-69316061D01*
X35300001Y-69316061D02*
X35271429Y-69258918D01*
X35271429Y-69258918D02*
X35271429Y-69087490D01*
X35271429Y-69087490D02*
X35300001Y-69030347D01*
X35300001Y-69030347D02*
X35328572Y-69001775D01*
X35328572Y-69001775D02*
X35385715Y-68973204D01*
X35385715Y-68973204D02*
X35471429Y-68973204D01*
X35471429Y-68973204D02*
X35528572Y-69001775D01*
X35528572Y-69001775D02*
X35557144Y-69030347D01*
X35557144Y-69030347D02*
X35585715Y-69087490D01*
X35585715Y-69087490D02*
X35585715Y-69258918D01*
X35585715Y-69258918D02*
X35557144Y-69316061D01*
X35557144Y-69316061D02*
X35528572Y-69344633D01*
X35528572Y-69344633D02*
X35471429Y-69373204D01*
X35471429Y-69373204D02*
X35385715Y-69373204D01*
X35814286Y-69344633D02*
X35871429Y-69373204D01*
X35871429Y-69373204D02*
X35985715Y-69373204D01*
X35985715Y-69373204D02*
X36042858Y-69344633D01*
X36042858Y-69344633D02*
X36071429Y-69287490D01*
X36071429Y-69287490D02*
X36071429Y-69258918D01*
X36071429Y-69258918D02*
X36042858Y-69201775D01*
X36042858Y-69201775D02*
X35985715Y-69173204D01*
X35985715Y-69173204D02*
X35900001Y-69173204D01*
X35900001Y-69173204D02*
X35842858Y-69144633D01*
X35842858Y-69144633D02*
X35814286Y-69087490D01*
X35814286Y-69087490D02*
X35814286Y-69058918D01*
X35814286Y-69058918D02*
X35842858Y-69001775D01*
X35842858Y-69001775D02*
X35900001Y-68973204D01*
X35900001Y-68973204D02*
X35985715Y-68973204D01*
X35985715Y-68973204D02*
X36042858Y-69001775D01*
X36300000Y-69344633D02*
X36357143Y-69373204D01*
X36357143Y-69373204D02*
X36471429Y-69373204D01*
X36471429Y-69373204D02*
X36528572Y-69344633D01*
X36528572Y-69344633D02*
X36557143Y-69287490D01*
X36557143Y-69287490D02*
X36557143Y-69258918D01*
X36557143Y-69258918D02*
X36528572Y-69201775D01*
X36528572Y-69201775D02*
X36471429Y-69173204D01*
X36471429Y-69173204D02*
X36385715Y-69173204D01*
X36385715Y-69173204D02*
X36328572Y-69144633D01*
X36328572Y-69144633D02*
X36300000Y-69087490D01*
X36300000Y-69087490D02*
X36300000Y-69058918D01*
X36300000Y-69058918D02*
X36328572Y-69001775D01*
X36328572Y-69001775D02*
X36385715Y-68973204D01*
X36385715Y-68973204D02*
X36471429Y-68973204D01*
X36471429Y-68973204D02*
X36528572Y-69001775D01*
X36814286Y-69144633D02*
X37271429Y-69144633D01*
X37557143Y-69373204D02*
X37557143Y-68773204D01*
X37814286Y-69373204D02*
X37814286Y-69058918D01*
X37814286Y-69058918D02*
X37785714Y-69001775D01*
X37785714Y-69001775D02*
X37728571Y-68973204D01*
X37728571Y-68973204D02*
X37642857Y-68973204D01*
X37642857Y-68973204D02*
X37585714Y-69001775D01*
X37585714Y-69001775D02*
X37557143Y-69030347D01*
X38357143Y-69373204D02*
X38357143Y-69058918D01*
X38357143Y-69058918D02*
X38328571Y-69001775D01*
X38328571Y-69001775D02*
X38271428Y-68973204D01*
X38271428Y-68973204D02*
X38157143Y-68973204D01*
X38157143Y-68973204D02*
X38100000Y-69001775D01*
X38357143Y-69344633D02*
X38300000Y-69373204D01*
X38300000Y-69373204D02*
X38157143Y-69373204D01*
X38157143Y-69373204D02*
X38100000Y-69344633D01*
X38100000Y-69344633D02*
X38071428Y-69287490D01*
X38071428Y-69287490D02*
X38071428Y-69230347D01*
X38071428Y-69230347D02*
X38100000Y-69173204D01*
X38100000Y-69173204D02*
X38157143Y-69144633D01*
X38157143Y-69144633D02*
X38300000Y-69144633D01*
X38300000Y-69144633D02*
X38357143Y-69116061D01*
X38557142Y-68973204D02*
X38785714Y-68973204D01*
X38642857Y-68773204D02*
X38642857Y-69287490D01*
X38642857Y-69287490D02*
X38671428Y-69344633D01*
X38671428Y-69344633D02*
X38728571Y-69373204D01*
X38728571Y-69373204D02*
X38785714Y-69373204D01*
X39242857Y-69344633D02*
X39185714Y-69373204D01*
X39185714Y-69373204D02*
X39071428Y-69373204D01*
X39071428Y-69373204D02*
X39014285Y-69344633D01*
X39014285Y-69344633D02*
X38985714Y-69316061D01*
X38985714Y-69316061D02*
X38957142Y-69258918D01*
X38957142Y-69258918D02*
X38957142Y-69087490D01*
X38957142Y-69087490D02*
X38985714Y-69030347D01*
X38985714Y-69030347D02*
X39014285Y-69001775D01*
X39014285Y-69001775D02*
X39071428Y-68973204D01*
X39071428Y-68973204D02*
X39185714Y-68973204D01*
X39185714Y-68973204D02*
X39242857Y-69001775D01*
X39500000Y-69373204D02*
X39500000Y-68773204D01*
X39757143Y-69373204D02*
X39757143Y-69058918D01*
X39757143Y-69058918D02*
X39728571Y-69001775D01*
X39728571Y-69001775D02*
X39671428Y-68973204D01*
X39671428Y-68973204D02*
X39585714Y-68973204D01*
X39585714Y-68973204D02*
X39528571Y-69001775D01*
X39528571Y-69001775D02*
X39500000Y-69030347D01*
X40671428Y-69601775D02*
X40642857Y-69573204D01*
X40642857Y-69573204D02*
X40585714Y-69487490D01*
X40585714Y-69487490D02*
X40557143Y-69430347D01*
X40557143Y-69430347D02*
X40528571Y-69344633D01*
X40528571Y-69344633D02*
X40500000Y-69201775D01*
X40500000Y-69201775D02*
X40500000Y-69087490D01*
X40500000Y-69087490D02*
X40528571Y-68944633D01*
X40528571Y-68944633D02*
X40557143Y-68858918D01*
X40557143Y-68858918D02*
X40585714Y-68801775D01*
X40585714Y-68801775D02*
X40642857Y-68716061D01*
X40642857Y-68716061D02*
X40671428Y-68687490D01*
X41128571Y-69344633D02*
X41071428Y-69373204D01*
X41071428Y-69373204D02*
X40957143Y-69373204D01*
X40957143Y-69373204D02*
X40900000Y-69344633D01*
X40900000Y-69344633D02*
X40871428Y-69287490D01*
X40871428Y-69287490D02*
X40871428Y-69058918D01*
X40871428Y-69058918D02*
X40900000Y-69001775D01*
X40900000Y-69001775D02*
X40957143Y-68973204D01*
X40957143Y-68973204D02*
X41071428Y-68973204D01*
X41071428Y-68973204D02*
X41128571Y-69001775D01*
X41128571Y-69001775D02*
X41157143Y-69058918D01*
X41157143Y-69058918D02*
X41157143Y-69116061D01*
X41157143Y-69116061D02*
X40871428Y-69173204D01*
X41414286Y-69373204D02*
X41414286Y-68973204D01*
X41414286Y-69087490D02*
X41442857Y-69030347D01*
X41442857Y-69030347D02*
X41471429Y-69001775D01*
X41471429Y-69001775D02*
X41528571Y-68973204D01*
X41528571Y-68973204D02*
X41585714Y-68973204D01*
X42671429Y-68744633D02*
X42157143Y-69516061D01*
X43328572Y-69373204D02*
X43328572Y-68773204D01*
X43585715Y-69373204D02*
X43585715Y-69058918D01*
X43585715Y-69058918D02*
X43557143Y-69001775D01*
X43557143Y-69001775D02*
X43500000Y-68973204D01*
X43500000Y-68973204D02*
X43414286Y-68973204D01*
X43414286Y-68973204D02*
X43357143Y-69001775D01*
X43357143Y-69001775D02*
X43328572Y-69030347D01*
X44128572Y-69373204D02*
X44128572Y-69058918D01*
X44128572Y-69058918D02*
X44100000Y-69001775D01*
X44100000Y-69001775D02*
X44042857Y-68973204D01*
X44042857Y-68973204D02*
X43928572Y-68973204D01*
X43928572Y-68973204D02*
X43871429Y-69001775D01*
X44128572Y-69344633D02*
X44071429Y-69373204D01*
X44071429Y-69373204D02*
X43928572Y-69373204D01*
X43928572Y-69373204D02*
X43871429Y-69344633D01*
X43871429Y-69344633D02*
X43842857Y-69287490D01*
X43842857Y-69287490D02*
X43842857Y-69230347D01*
X43842857Y-69230347D02*
X43871429Y-69173204D01*
X43871429Y-69173204D02*
X43928572Y-69144633D01*
X43928572Y-69144633D02*
X44071429Y-69144633D01*
X44071429Y-69144633D02*
X44128572Y-69116061D01*
X44328571Y-68973204D02*
X44557143Y-68973204D01*
X44414286Y-68773204D02*
X44414286Y-69287490D01*
X44414286Y-69287490D02*
X44442857Y-69344633D01*
X44442857Y-69344633D02*
X44500000Y-69373204D01*
X44500000Y-69373204D02*
X44557143Y-69373204D01*
X45014286Y-69344633D02*
X44957143Y-69373204D01*
X44957143Y-69373204D02*
X44842857Y-69373204D01*
X44842857Y-69373204D02*
X44785714Y-69344633D01*
X44785714Y-69344633D02*
X44757143Y-69316061D01*
X44757143Y-69316061D02*
X44728571Y-69258918D01*
X44728571Y-69258918D02*
X44728571Y-69087490D01*
X44728571Y-69087490D02*
X44757143Y-69030347D01*
X44757143Y-69030347D02*
X44785714Y-69001775D01*
X44785714Y-69001775D02*
X44842857Y-68973204D01*
X44842857Y-68973204D02*
X44957143Y-68973204D01*
X44957143Y-68973204D02*
X45014286Y-69001775D01*
X45271429Y-69373204D02*
X45271429Y-68773204D01*
X45528572Y-69373204D02*
X45528572Y-69058918D01*
X45528572Y-69058918D02*
X45500000Y-69001775D01*
X45500000Y-69001775D02*
X45442857Y-68973204D01*
X45442857Y-68973204D02*
X45357143Y-68973204D01*
X45357143Y-68973204D02*
X45300000Y-69001775D01*
X45300000Y-69001775D02*
X45271429Y-69030347D01*
X46528572Y-69344633D02*
X46471429Y-69373204D01*
X46471429Y-69373204D02*
X46357143Y-69373204D01*
X46357143Y-69373204D02*
X46300000Y-69344633D01*
X46300000Y-69344633D02*
X46271429Y-69316061D01*
X46271429Y-69316061D02*
X46242857Y-69258918D01*
X46242857Y-69258918D02*
X46242857Y-69087490D01*
X46242857Y-69087490D02*
X46271429Y-69030347D01*
X46271429Y-69030347D02*
X46300000Y-69001775D01*
X46300000Y-69001775D02*
X46357143Y-68973204D01*
X46357143Y-68973204D02*
X46471429Y-68973204D01*
X46471429Y-68973204D02*
X46528572Y-69001775D01*
X46785715Y-69373204D02*
X46785715Y-68773204D01*
X47042858Y-69373204D02*
X47042858Y-69058918D01*
X47042858Y-69058918D02*
X47014286Y-69001775D01*
X47014286Y-69001775D02*
X46957143Y-68973204D01*
X46957143Y-68973204D02*
X46871429Y-68973204D01*
X46871429Y-68973204D02*
X46814286Y-69001775D01*
X46814286Y-69001775D02*
X46785715Y-69030347D01*
X47557143Y-69344633D02*
X47500000Y-69373204D01*
X47500000Y-69373204D02*
X47385715Y-69373204D01*
X47385715Y-69373204D02*
X47328572Y-69344633D01*
X47328572Y-69344633D02*
X47300000Y-69287490D01*
X47300000Y-69287490D02*
X47300000Y-69058918D01*
X47300000Y-69058918D02*
X47328572Y-69001775D01*
X47328572Y-69001775D02*
X47385715Y-68973204D01*
X47385715Y-68973204D02*
X47500000Y-68973204D01*
X47500000Y-68973204D02*
X47557143Y-69001775D01*
X47557143Y-69001775D02*
X47585715Y-69058918D01*
X47585715Y-69058918D02*
X47585715Y-69116061D01*
X47585715Y-69116061D02*
X47300000Y-69173204D01*
X48100001Y-69344633D02*
X48042858Y-69373204D01*
X48042858Y-69373204D02*
X47928572Y-69373204D01*
X47928572Y-69373204D02*
X47871429Y-69344633D01*
X47871429Y-69344633D02*
X47842858Y-69316061D01*
X47842858Y-69316061D02*
X47814286Y-69258918D01*
X47814286Y-69258918D02*
X47814286Y-69087490D01*
X47814286Y-69087490D02*
X47842858Y-69030347D01*
X47842858Y-69030347D02*
X47871429Y-69001775D01*
X47871429Y-69001775D02*
X47928572Y-68973204D01*
X47928572Y-68973204D02*
X48042858Y-68973204D01*
X48042858Y-68973204D02*
X48100001Y-69001775D01*
X48357144Y-69373204D02*
X48357144Y-68773204D01*
X48414287Y-69144633D02*
X48585715Y-69373204D01*
X48585715Y-68973204D02*
X48357144Y-69201775D01*
X48785715Y-69601775D02*
X48814286Y-69573204D01*
X48814286Y-69573204D02*
X48871429Y-69487490D01*
X48871429Y-69487490D02*
X48900001Y-69430347D01*
X48900001Y-69430347D02*
X48928572Y-69344633D01*
X48928572Y-69344633D02*
X48957143Y-69201775D01*
X48957143Y-69201775D02*
X48957143Y-69087490D01*
X48957143Y-69087490D02*
X48928572Y-68944633D01*
X48928572Y-68944633D02*
X48900001Y-68858918D01*
X48900001Y-68858918D02*
X48871429Y-68801775D01*
X48871429Y-68801775D02*
X48814286Y-68716061D01*
X48814286Y-68716061D02*
X48785715Y-68687490D01*
X50100001Y-68973204D02*
X50214287Y-69373204D01*
X50214287Y-69373204D02*
X50328572Y-69087490D01*
X50328572Y-69087490D02*
X50442858Y-69373204D01*
X50442858Y-69373204D02*
X50557144Y-68973204D01*
X51357143Y-68773204D02*
X51414286Y-68773204D01*
X51414286Y-68773204D02*
X51471429Y-68801775D01*
X51471429Y-68801775D02*
X51500001Y-68830347D01*
X51500001Y-68830347D02*
X51528572Y-68887490D01*
X51528572Y-68887490D02*
X51557143Y-69001775D01*
X51557143Y-69001775D02*
X51557143Y-69144633D01*
X51557143Y-69144633D02*
X51528572Y-69258918D01*
X51528572Y-69258918D02*
X51500001Y-69316061D01*
X51500001Y-69316061D02*
X51471429Y-69344633D01*
X51471429Y-69344633D02*
X51414286Y-69373204D01*
X51414286Y-69373204D02*
X51357143Y-69373204D01*
X51357143Y-69373204D02*
X51300001Y-69344633D01*
X51300001Y-69344633D02*
X51271429Y-69316061D01*
X51271429Y-69316061D02*
X51242858Y-69258918D01*
X51242858Y-69258918D02*
X51214286Y-69144633D01*
X51214286Y-69144633D02*
X51214286Y-69001775D01*
X51214286Y-69001775D02*
X51242858Y-68887490D01*
X51242858Y-68887490D02*
X51271429Y-68830347D01*
X51271429Y-68830347D02*
X51300001Y-68801775D01*
X51300001Y-68801775D02*
X51357143Y-68773204D01*
X51814287Y-69316061D02*
X51842858Y-69344633D01*
X51842858Y-69344633D02*
X51814287Y-69373204D01*
X51814287Y-69373204D02*
X51785715Y-69344633D01*
X51785715Y-69344633D02*
X51814287Y-69316061D01*
X51814287Y-69316061D02*
X51814287Y-69373204D01*
X52414286Y-69373204D02*
X52071429Y-69373204D01*
X52242858Y-69373204D02*
X52242858Y-68773204D01*
X52242858Y-68773204D02*
X52185715Y-68858918D01*
X52185715Y-68858918D02*
X52128572Y-68916061D01*
X52128572Y-68916061D02*
X52071429Y-68944633D01*
X52785715Y-68773204D02*
X52842858Y-68773204D01*
X52842858Y-68773204D02*
X52900001Y-68801775D01*
X52900001Y-68801775D02*
X52928573Y-68830347D01*
X52928573Y-68830347D02*
X52957144Y-68887490D01*
X52957144Y-68887490D02*
X52985715Y-69001775D01*
X52985715Y-69001775D02*
X52985715Y-69144633D01*
X52985715Y-69144633D02*
X52957144Y-69258918D01*
X52957144Y-69258918D02*
X52928573Y-69316061D01*
X52928573Y-69316061D02*
X52900001Y-69344633D01*
X52900001Y-69344633D02*
X52842858Y-69373204D01*
X52842858Y-69373204D02*
X52785715Y-69373204D01*
X52785715Y-69373204D02*
X52728573Y-69344633D01*
X52728573Y-69344633D02*
X52700001Y-69316061D01*
X52700001Y-69316061D02*
X52671430Y-69258918D01*
X52671430Y-69258918D02*
X52642858Y-69144633D01*
X52642858Y-69144633D02*
X52642858Y-69001775D01*
X52642858Y-69001775D02*
X52671430Y-68887490D01*
X52671430Y-68887490D02*
X52700001Y-68830347D01*
X52700001Y-68830347D02*
X52728573Y-68801775D01*
X52728573Y-68801775D02*
X52785715Y-68773204D01*
X53357144Y-68773204D02*
X53414287Y-68773204D01*
X53414287Y-68773204D02*
X53471430Y-68801775D01*
X53471430Y-68801775D02*
X53500002Y-68830347D01*
X53500002Y-68830347D02*
X53528573Y-68887490D01*
X53528573Y-68887490D02*
X53557144Y-69001775D01*
X53557144Y-69001775D02*
X53557144Y-69144633D01*
X53557144Y-69144633D02*
X53528573Y-69258918D01*
X53528573Y-69258918D02*
X53500002Y-69316061D01*
X53500002Y-69316061D02*
X53471430Y-69344633D01*
X53471430Y-69344633D02*
X53414287Y-69373204D01*
X53414287Y-69373204D02*
X53357144Y-69373204D01*
X53357144Y-69373204D02*
X53300002Y-69344633D01*
X53300002Y-69344633D02*
X53271430Y-69316061D01*
X53271430Y-69316061D02*
X53242859Y-69258918D01*
X53242859Y-69258918D02*
X53214287Y-69144633D01*
X53214287Y-69144633D02*
X53214287Y-69001775D01*
X53214287Y-69001775D02*
X53242859Y-68887490D01*
X53242859Y-68887490D02*
X53271430Y-68830347D01*
X53271430Y-68830347D02*
X53300002Y-68801775D01*
X53300002Y-68801775D02*
X53357144Y-68773204D01*
X23585712Y-63773204D02*
X23585712Y-64258918D01*
X23585712Y-64258918D02*
X23614283Y-64316061D01*
X23614283Y-64316061D02*
X23642855Y-64344633D01*
X23642855Y-64344633D02*
X23699997Y-64373204D01*
X23699997Y-64373204D02*
X23814283Y-64373204D01*
X23814283Y-64373204D02*
X23871426Y-64344633D01*
X23871426Y-64344633D02*
X23899997Y-64316061D01*
X23899997Y-64316061D02*
X23928569Y-64258918D01*
X23928569Y-64258918D02*
X23928569Y-63773204D01*
X24185711Y-64344633D02*
X24271426Y-64373204D01*
X24271426Y-64373204D02*
X24414283Y-64373204D01*
X24414283Y-64373204D02*
X24471426Y-64344633D01*
X24471426Y-64344633D02*
X24499997Y-64316061D01*
X24499997Y-64316061D02*
X24528568Y-64258918D01*
X24528568Y-64258918D02*
X24528568Y-64201775D01*
X24528568Y-64201775D02*
X24499997Y-64144633D01*
X24499997Y-64144633D02*
X24471426Y-64116061D01*
X24471426Y-64116061D02*
X24414283Y-64087490D01*
X24414283Y-64087490D02*
X24299997Y-64058918D01*
X24299997Y-64058918D02*
X24242854Y-64030347D01*
X24242854Y-64030347D02*
X24214283Y-64001775D01*
X24214283Y-64001775D02*
X24185711Y-63944633D01*
X24185711Y-63944633D02*
X24185711Y-63887490D01*
X24185711Y-63887490D02*
X24214283Y-63830347D01*
X24214283Y-63830347D02*
X24242854Y-63801775D01*
X24242854Y-63801775D02*
X24299997Y-63773204D01*
X24299997Y-63773204D02*
X24442854Y-63773204D01*
X24442854Y-63773204D02*
X24528568Y-63801775D01*
X24985712Y-64058918D02*
X25071426Y-64087490D01*
X25071426Y-64087490D02*
X25099997Y-64116061D01*
X25099997Y-64116061D02*
X25128569Y-64173204D01*
X25128569Y-64173204D02*
X25128569Y-64258918D01*
X25128569Y-64258918D02*
X25099997Y-64316061D01*
X25099997Y-64316061D02*
X25071426Y-64344633D01*
X25071426Y-64344633D02*
X25014283Y-64373204D01*
X25014283Y-64373204D02*
X24785712Y-64373204D01*
X24785712Y-64373204D02*
X24785712Y-63773204D01*
X24785712Y-63773204D02*
X24985712Y-63773204D01*
X24985712Y-63773204D02*
X25042855Y-63801775D01*
X25042855Y-63801775D02*
X25071426Y-63830347D01*
X25071426Y-63830347D02*
X25099997Y-63887490D01*
X25099997Y-63887490D02*
X25099997Y-63944633D01*
X25099997Y-63944633D02*
X25071426Y-64001775D01*
X25071426Y-64001775D02*
X25042855Y-64030347D01*
X25042855Y-64030347D02*
X24985712Y-64058918D01*
X24985712Y-64058918D02*
X24785712Y-64058918D01*
X25414283Y-64373204D02*
X25528569Y-64373204D01*
X25528569Y-64373204D02*
X25585712Y-64344633D01*
X25585712Y-64344633D02*
X25614283Y-64316061D01*
X25614283Y-64316061D02*
X25671426Y-64230347D01*
X25671426Y-64230347D02*
X25699997Y-64116061D01*
X25699997Y-64116061D02*
X25699997Y-63887490D01*
X25699997Y-63887490D02*
X25671426Y-63830347D01*
X25671426Y-63830347D02*
X25642855Y-63801775D01*
X25642855Y-63801775D02*
X25585712Y-63773204D01*
X25585712Y-63773204D02*
X25471426Y-63773204D01*
X25471426Y-63773204D02*
X25414283Y-63801775D01*
X25414283Y-63801775D02*
X25385712Y-63830347D01*
X25385712Y-63830347D02*
X25357140Y-63887490D01*
X25357140Y-63887490D02*
X25357140Y-64030347D01*
X25357140Y-64030347D02*
X25385712Y-64087490D01*
X25385712Y-64087490D02*
X25414283Y-64116061D01*
X25414283Y-64116061D02*
X25471426Y-64144633D01*
X25471426Y-64144633D02*
X25585712Y-64144633D01*
X25585712Y-64144633D02*
X25642855Y-64116061D01*
X25642855Y-64116061D02*
X25671426Y-64087490D01*
X25671426Y-64087490D02*
X25699997Y-64030347D01*
X26071426Y-63773204D02*
X26128569Y-63773204D01*
X26128569Y-63773204D02*
X26185712Y-63801775D01*
X26185712Y-63801775D02*
X26214284Y-63830347D01*
X26214284Y-63830347D02*
X26242855Y-63887490D01*
X26242855Y-63887490D02*
X26271426Y-64001775D01*
X26271426Y-64001775D02*
X26271426Y-64144633D01*
X26271426Y-64144633D02*
X26242855Y-64258918D01*
X26242855Y-64258918D02*
X26214284Y-64316061D01*
X26214284Y-64316061D02*
X26185712Y-64344633D01*
X26185712Y-64344633D02*
X26128569Y-64373204D01*
X26128569Y-64373204D02*
X26071426Y-64373204D01*
X26071426Y-64373204D02*
X26014284Y-64344633D01*
X26014284Y-64344633D02*
X25985712Y-64316061D01*
X25985712Y-64316061D02*
X25957141Y-64258918D01*
X25957141Y-64258918D02*
X25928569Y-64144633D01*
X25928569Y-64144633D02*
X25928569Y-64001775D01*
X25928569Y-64001775D02*
X25957141Y-63887490D01*
X25957141Y-63887490D02*
X25985712Y-63830347D01*
X25985712Y-63830347D02*
X26014284Y-63801775D01*
X26014284Y-63801775D02*
X26071426Y-63773204D01*
X26385713Y-64430347D02*
X26842855Y-64430347D01*
X26928570Y-63773204D02*
X27328570Y-64373204D01*
X27328570Y-63773204D02*
X26928570Y-64373204D01*
X27557142Y-64373204D02*
X27557142Y-63773204D01*
X27557142Y-64058918D02*
X27899999Y-64058918D01*
X27899999Y-64373204D02*
X27899999Y-63773204D01*
X28157141Y-64201775D02*
X28442856Y-64201775D01*
X28099998Y-64373204D02*
X28299998Y-63773204D01*
X28299998Y-63773204D02*
X28499998Y-64373204D01*
X28614284Y-63773204D02*
X28957142Y-63773204D01*
X28785713Y-64373204D02*
X28785713Y-63773204D01*
X29499999Y-64316061D02*
X29471427Y-64344633D01*
X29471427Y-64344633D02*
X29385713Y-64373204D01*
X29385713Y-64373204D02*
X29328570Y-64373204D01*
X29328570Y-64373204D02*
X29242856Y-64344633D01*
X29242856Y-64344633D02*
X29185713Y-64287490D01*
X29185713Y-64287490D02*
X29157142Y-64230347D01*
X29157142Y-64230347D02*
X29128570Y-64116061D01*
X29128570Y-64116061D02*
X29128570Y-64030347D01*
X29128570Y-64030347D02*
X29157142Y-63916061D01*
X29157142Y-63916061D02*
X29185713Y-63858918D01*
X29185713Y-63858918D02*
X29242856Y-63801775D01*
X29242856Y-63801775D02*
X29328570Y-63773204D01*
X29328570Y-63773204D02*
X29385713Y-63773204D01*
X29385713Y-63773204D02*
X29471427Y-63801775D01*
X29471427Y-63801775D02*
X29499999Y-63830347D01*
X29757142Y-64373204D02*
X29757142Y-63773204D01*
X29757142Y-64058918D02*
X30099999Y-64058918D01*
X30099999Y-64373204D02*
X30099999Y-63773204D01*
X30242856Y-64430347D02*
X30699998Y-64430347D01*
X30814284Y-63830347D02*
X30842856Y-63801775D01*
X30842856Y-63801775D02*
X30899999Y-63773204D01*
X30899999Y-63773204D02*
X31042856Y-63773204D01*
X31042856Y-63773204D02*
X31099999Y-63801775D01*
X31099999Y-63801775D02*
X31128570Y-63830347D01*
X31128570Y-63830347D02*
X31157141Y-63887490D01*
X31157141Y-63887490D02*
X31157141Y-63944633D01*
X31157141Y-63944633D02*
X31128570Y-64030347D01*
X31128570Y-64030347D02*
X30785713Y-64373204D01*
X30785713Y-64373204D02*
X31157141Y-64373204D01*
X31414285Y-64316061D02*
X31442856Y-64344633D01*
X31442856Y-64344633D02*
X31414285Y-64373204D01*
X31414285Y-64373204D02*
X31385713Y-64344633D01*
X31385713Y-64344633D02*
X31414285Y-64316061D01*
X31414285Y-64316061D02*
X31414285Y-64373204D01*
X31414285Y-64001775D02*
X31442856Y-64030347D01*
X31442856Y-64030347D02*
X31414285Y-64058918D01*
X31414285Y-64058918D02*
X31385713Y-64030347D01*
X31385713Y-64030347D02*
X31414285Y-64001775D01*
X31414285Y-64001775D02*
X31414285Y-64058918D01*
X32157142Y-64373204D02*
X32157142Y-63973204D01*
X32157142Y-64087490D02*
X32185713Y-64030347D01*
X32185713Y-64030347D02*
X32214285Y-64001775D01*
X32214285Y-64001775D02*
X32271427Y-63973204D01*
X32271427Y-63973204D02*
X32328570Y-63973204D01*
X32757142Y-64344633D02*
X32699999Y-64373204D01*
X32699999Y-64373204D02*
X32585714Y-64373204D01*
X32585714Y-64373204D02*
X32528571Y-64344633D01*
X32528571Y-64344633D02*
X32499999Y-64287490D01*
X32499999Y-64287490D02*
X32499999Y-64058918D01*
X32499999Y-64058918D02*
X32528571Y-64001775D01*
X32528571Y-64001775D02*
X32585714Y-63973204D01*
X32585714Y-63973204D02*
X32699999Y-63973204D01*
X32699999Y-63973204D02*
X32757142Y-64001775D01*
X32757142Y-64001775D02*
X32785714Y-64058918D01*
X32785714Y-64058918D02*
X32785714Y-64116061D01*
X32785714Y-64116061D02*
X32499999Y-64173204D01*
X33042857Y-63973204D02*
X33042857Y-64573204D01*
X33042857Y-64001775D02*
X33100000Y-63973204D01*
X33100000Y-63973204D02*
X33214285Y-63973204D01*
X33214285Y-63973204D02*
X33271428Y-64001775D01*
X33271428Y-64001775D02*
X33300000Y-64030347D01*
X33300000Y-64030347D02*
X33328571Y-64087490D01*
X33328571Y-64087490D02*
X33328571Y-64258918D01*
X33328571Y-64258918D02*
X33300000Y-64316061D01*
X33300000Y-64316061D02*
X33271428Y-64344633D01*
X33271428Y-64344633D02*
X33214285Y-64373204D01*
X33214285Y-64373204D02*
X33100000Y-64373204D01*
X33100000Y-64373204D02*
X33042857Y-64344633D01*
X33814285Y-64344633D02*
X33757142Y-64373204D01*
X33757142Y-64373204D02*
X33642857Y-64373204D01*
X33642857Y-64373204D02*
X33585714Y-64344633D01*
X33585714Y-64344633D02*
X33557142Y-64287490D01*
X33557142Y-64287490D02*
X33557142Y-64058918D01*
X33557142Y-64058918D02*
X33585714Y-64001775D01*
X33585714Y-64001775D02*
X33642857Y-63973204D01*
X33642857Y-63973204D02*
X33757142Y-63973204D01*
X33757142Y-63973204D02*
X33814285Y-64001775D01*
X33814285Y-64001775D02*
X33842857Y-64058918D01*
X33842857Y-64058918D02*
X33842857Y-64116061D01*
X33842857Y-64116061D02*
X33557142Y-64173204D01*
X34357143Y-64373204D02*
X34357143Y-64058918D01*
X34357143Y-64058918D02*
X34328571Y-64001775D01*
X34328571Y-64001775D02*
X34271428Y-63973204D01*
X34271428Y-63973204D02*
X34157143Y-63973204D01*
X34157143Y-63973204D02*
X34100000Y-64001775D01*
X34357143Y-64344633D02*
X34300000Y-64373204D01*
X34300000Y-64373204D02*
X34157143Y-64373204D01*
X34157143Y-64373204D02*
X34100000Y-64344633D01*
X34100000Y-64344633D02*
X34071428Y-64287490D01*
X34071428Y-64287490D02*
X34071428Y-64230347D01*
X34071428Y-64230347D02*
X34100000Y-64173204D01*
X34100000Y-64173204D02*
X34157143Y-64144633D01*
X34157143Y-64144633D02*
X34300000Y-64144633D01*
X34300000Y-64144633D02*
X34357143Y-64116061D01*
X34557142Y-63973204D02*
X34785714Y-63973204D01*
X34642857Y-63773204D02*
X34642857Y-64287490D01*
X34642857Y-64287490D02*
X34671428Y-64344633D01*
X34671428Y-64344633D02*
X34728571Y-64373204D01*
X34728571Y-64373204D02*
X34785714Y-64373204D01*
X35614285Y-64601775D02*
X35585714Y-64573204D01*
X35585714Y-64573204D02*
X35528571Y-64487490D01*
X35528571Y-64487490D02*
X35500000Y-64430347D01*
X35500000Y-64430347D02*
X35471428Y-64344633D01*
X35471428Y-64344633D02*
X35442857Y-64201775D01*
X35442857Y-64201775D02*
X35442857Y-64087490D01*
X35442857Y-64087490D02*
X35471428Y-63944633D01*
X35471428Y-63944633D02*
X35500000Y-63858918D01*
X35500000Y-63858918D02*
X35528571Y-63801775D01*
X35528571Y-63801775D02*
X35585714Y-63716061D01*
X35585714Y-63716061D02*
X35614285Y-63687490D01*
X35842857Y-63973204D02*
X35842857Y-64573204D01*
X35842857Y-64001775D02*
X35900000Y-63973204D01*
X35900000Y-63973204D02*
X36014285Y-63973204D01*
X36014285Y-63973204D02*
X36071428Y-64001775D01*
X36071428Y-64001775D02*
X36100000Y-64030347D01*
X36100000Y-64030347D02*
X36128571Y-64087490D01*
X36128571Y-64087490D02*
X36128571Y-64258918D01*
X36128571Y-64258918D02*
X36100000Y-64316061D01*
X36100000Y-64316061D02*
X36071428Y-64344633D01*
X36071428Y-64344633D02*
X36014285Y-64373204D01*
X36014285Y-64373204D02*
X35900000Y-64373204D01*
X35900000Y-64373204D02*
X35842857Y-64344633D01*
X36642857Y-64373204D02*
X36642857Y-64058918D01*
X36642857Y-64058918D02*
X36614285Y-64001775D01*
X36614285Y-64001775D02*
X36557142Y-63973204D01*
X36557142Y-63973204D02*
X36442857Y-63973204D01*
X36442857Y-63973204D02*
X36385714Y-64001775D01*
X36642857Y-64344633D02*
X36585714Y-64373204D01*
X36585714Y-64373204D02*
X36442857Y-64373204D01*
X36442857Y-64373204D02*
X36385714Y-64344633D01*
X36385714Y-64344633D02*
X36357142Y-64287490D01*
X36357142Y-64287490D02*
X36357142Y-64230347D01*
X36357142Y-64230347D02*
X36385714Y-64173204D01*
X36385714Y-64173204D02*
X36442857Y-64144633D01*
X36442857Y-64144633D02*
X36585714Y-64144633D01*
X36585714Y-64144633D02*
X36642857Y-64116061D01*
X36928571Y-63973204D02*
X36928571Y-64373204D01*
X36928571Y-64030347D02*
X36957142Y-64001775D01*
X36957142Y-64001775D02*
X37014285Y-63973204D01*
X37014285Y-63973204D02*
X37099999Y-63973204D01*
X37099999Y-63973204D02*
X37157142Y-64001775D01*
X37157142Y-64001775D02*
X37185714Y-64058918D01*
X37185714Y-64058918D02*
X37185714Y-64373204D01*
X37699999Y-64344633D02*
X37642856Y-64373204D01*
X37642856Y-64373204D02*
X37528571Y-64373204D01*
X37528571Y-64373204D02*
X37471428Y-64344633D01*
X37471428Y-64344633D02*
X37442856Y-64287490D01*
X37442856Y-64287490D02*
X37442856Y-64058918D01*
X37442856Y-64058918D02*
X37471428Y-64001775D01*
X37471428Y-64001775D02*
X37528571Y-63973204D01*
X37528571Y-63973204D02*
X37642856Y-63973204D01*
X37642856Y-63973204D02*
X37699999Y-64001775D01*
X37699999Y-64001775D02*
X37728571Y-64058918D01*
X37728571Y-64058918D02*
X37728571Y-64116061D01*
X37728571Y-64116061D02*
X37442856Y-64173204D01*
X38071428Y-64373204D02*
X38014285Y-64344633D01*
X38014285Y-64344633D02*
X37985714Y-64287490D01*
X37985714Y-64287490D02*
X37985714Y-63773204D01*
X38728571Y-64344633D02*
X38785714Y-64373204D01*
X38785714Y-64373204D02*
X38900000Y-64373204D01*
X38900000Y-64373204D02*
X38957143Y-64344633D01*
X38957143Y-64344633D02*
X38985714Y-64287490D01*
X38985714Y-64287490D02*
X38985714Y-64258918D01*
X38985714Y-64258918D02*
X38957143Y-64201775D01*
X38957143Y-64201775D02*
X38900000Y-64173204D01*
X38900000Y-64173204D02*
X38814286Y-64173204D01*
X38814286Y-64173204D02*
X38757143Y-64144633D01*
X38757143Y-64144633D02*
X38728571Y-64087490D01*
X38728571Y-64087490D02*
X38728571Y-64058918D01*
X38728571Y-64058918D02*
X38757143Y-64001775D01*
X38757143Y-64001775D02*
X38814286Y-63973204D01*
X38814286Y-63973204D02*
X38900000Y-63973204D01*
X38900000Y-63973204D02*
X38957143Y-64001775D01*
X39242857Y-63973204D02*
X39242857Y-64573204D01*
X39242857Y-64001775D02*
X39300000Y-63973204D01*
X39300000Y-63973204D02*
X39414285Y-63973204D01*
X39414285Y-63973204D02*
X39471428Y-64001775D01*
X39471428Y-64001775D02*
X39500000Y-64030347D01*
X39500000Y-64030347D02*
X39528571Y-64087490D01*
X39528571Y-64087490D02*
X39528571Y-64258918D01*
X39528571Y-64258918D02*
X39500000Y-64316061D01*
X39500000Y-64316061D02*
X39471428Y-64344633D01*
X39471428Y-64344633D02*
X39414285Y-64373204D01*
X39414285Y-64373204D02*
X39300000Y-64373204D01*
X39300000Y-64373204D02*
X39242857Y-64344633D01*
X39785714Y-64373204D02*
X39785714Y-63973204D01*
X39785714Y-64087490D02*
X39814285Y-64030347D01*
X39814285Y-64030347D02*
X39842857Y-64001775D01*
X39842857Y-64001775D02*
X39899999Y-63973204D01*
X39899999Y-63973204D02*
X39957142Y-63973204D01*
X40385714Y-64344633D02*
X40328571Y-64373204D01*
X40328571Y-64373204D02*
X40214286Y-64373204D01*
X40214286Y-64373204D02*
X40157143Y-64344633D01*
X40157143Y-64344633D02*
X40128571Y-64287490D01*
X40128571Y-64287490D02*
X40128571Y-64058918D01*
X40128571Y-64058918D02*
X40157143Y-64001775D01*
X40157143Y-64001775D02*
X40214286Y-63973204D01*
X40214286Y-63973204D02*
X40328571Y-63973204D01*
X40328571Y-63973204D02*
X40385714Y-64001775D01*
X40385714Y-64001775D02*
X40414286Y-64058918D01*
X40414286Y-64058918D02*
X40414286Y-64116061D01*
X40414286Y-64116061D02*
X40128571Y-64173204D01*
X40928572Y-64373204D02*
X40928572Y-64058918D01*
X40928572Y-64058918D02*
X40900000Y-64001775D01*
X40900000Y-64001775D02*
X40842857Y-63973204D01*
X40842857Y-63973204D02*
X40728572Y-63973204D01*
X40728572Y-63973204D02*
X40671429Y-64001775D01*
X40928572Y-64344633D02*
X40871429Y-64373204D01*
X40871429Y-64373204D02*
X40728572Y-64373204D01*
X40728572Y-64373204D02*
X40671429Y-64344633D01*
X40671429Y-64344633D02*
X40642857Y-64287490D01*
X40642857Y-64287490D02*
X40642857Y-64230347D01*
X40642857Y-64230347D02*
X40671429Y-64173204D01*
X40671429Y-64173204D02*
X40728572Y-64144633D01*
X40728572Y-64144633D02*
X40871429Y-64144633D01*
X40871429Y-64144633D02*
X40928572Y-64116061D01*
X41471429Y-64373204D02*
X41471429Y-63773204D01*
X41471429Y-64344633D02*
X41414286Y-64373204D01*
X41414286Y-64373204D02*
X41300000Y-64373204D01*
X41300000Y-64373204D02*
X41242857Y-64344633D01*
X41242857Y-64344633D02*
X41214286Y-64316061D01*
X41214286Y-64316061D02*
X41185714Y-64258918D01*
X41185714Y-64258918D02*
X41185714Y-64087490D01*
X41185714Y-64087490D02*
X41214286Y-64030347D01*
X41214286Y-64030347D02*
X41242857Y-64001775D01*
X41242857Y-64001775D02*
X41300000Y-63973204D01*
X41300000Y-63973204D02*
X41414286Y-63973204D01*
X41414286Y-63973204D02*
X41471429Y-64001775D01*
X41700000Y-64601775D02*
X41728571Y-64573204D01*
X41728571Y-64573204D02*
X41785714Y-64487490D01*
X41785714Y-64487490D02*
X41814286Y-64430347D01*
X41814286Y-64430347D02*
X41842857Y-64344633D01*
X41842857Y-64344633D02*
X41871428Y-64201775D01*
X41871428Y-64201775D02*
X41871428Y-64087490D01*
X41871428Y-64087490D02*
X41842857Y-63944633D01*
X41842857Y-63944633D02*
X41814286Y-63858918D01*
X41814286Y-63858918D02*
X41785714Y-63801775D01*
X41785714Y-63801775D02*
X41728571Y-63716061D01*
X41728571Y-63716061D02*
X41700000Y-63687490D01*
X43014286Y-63973204D02*
X43128572Y-64373204D01*
X43128572Y-64373204D02*
X43242857Y-64087490D01*
X43242857Y-64087490D02*
X43357143Y-64373204D01*
X43357143Y-64373204D02*
X43471429Y-63973204D01*
X44271428Y-63773204D02*
X44328571Y-63773204D01*
X44328571Y-63773204D02*
X44385714Y-63801775D01*
X44385714Y-63801775D02*
X44414286Y-63830347D01*
X44414286Y-63830347D02*
X44442857Y-63887490D01*
X44442857Y-63887490D02*
X44471428Y-64001775D01*
X44471428Y-64001775D02*
X44471428Y-64144633D01*
X44471428Y-64144633D02*
X44442857Y-64258918D01*
X44442857Y-64258918D02*
X44414286Y-64316061D01*
X44414286Y-64316061D02*
X44385714Y-64344633D01*
X44385714Y-64344633D02*
X44328571Y-64373204D01*
X44328571Y-64373204D02*
X44271428Y-64373204D01*
X44271428Y-64373204D02*
X44214286Y-64344633D01*
X44214286Y-64344633D02*
X44185714Y-64316061D01*
X44185714Y-64316061D02*
X44157143Y-64258918D01*
X44157143Y-64258918D02*
X44128571Y-64144633D01*
X44128571Y-64144633D02*
X44128571Y-64001775D01*
X44128571Y-64001775D02*
X44157143Y-63887490D01*
X44157143Y-63887490D02*
X44185714Y-63830347D01*
X44185714Y-63830347D02*
X44214286Y-63801775D01*
X44214286Y-63801775D02*
X44271428Y-63773204D01*
X44728572Y-64316061D02*
X44757143Y-64344633D01*
X44757143Y-64344633D02*
X44728572Y-64373204D01*
X44728572Y-64373204D02*
X44700000Y-64344633D01*
X44700000Y-64344633D02*
X44728572Y-64316061D01*
X44728572Y-64316061D02*
X44728572Y-64373204D01*
X45328571Y-64373204D02*
X44985714Y-64373204D01*
X45157143Y-64373204D02*
X45157143Y-63773204D01*
X45157143Y-63773204D02*
X45100000Y-63858918D01*
X45100000Y-63858918D02*
X45042857Y-63916061D01*
X45042857Y-63916061D02*
X44985714Y-63944633D01*
X45700000Y-63773204D02*
X45757143Y-63773204D01*
X45757143Y-63773204D02*
X45814286Y-63801775D01*
X45814286Y-63801775D02*
X45842858Y-63830347D01*
X45842858Y-63830347D02*
X45871429Y-63887490D01*
X45871429Y-63887490D02*
X45900000Y-64001775D01*
X45900000Y-64001775D02*
X45900000Y-64144633D01*
X45900000Y-64144633D02*
X45871429Y-64258918D01*
X45871429Y-64258918D02*
X45842858Y-64316061D01*
X45842858Y-64316061D02*
X45814286Y-64344633D01*
X45814286Y-64344633D02*
X45757143Y-64373204D01*
X45757143Y-64373204D02*
X45700000Y-64373204D01*
X45700000Y-64373204D02*
X45642858Y-64344633D01*
X45642858Y-64344633D02*
X45614286Y-64316061D01*
X45614286Y-64316061D02*
X45585715Y-64258918D01*
X45585715Y-64258918D02*
X45557143Y-64144633D01*
X45557143Y-64144633D02*
X45557143Y-64001775D01*
X45557143Y-64001775D02*
X45585715Y-63887490D01*
X45585715Y-63887490D02*
X45614286Y-63830347D01*
X45614286Y-63830347D02*
X45642858Y-63801775D01*
X45642858Y-63801775D02*
X45700000Y-63773204D01*
X46271429Y-63773204D02*
X46328572Y-63773204D01*
X46328572Y-63773204D02*
X46385715Y-63801775D01*
X46385715Y-63801775D02*
X46414287Y-63830347D01*
X46414287Y-63830347D02*
X46442858Y-63887490D01*
X46442858Y-63887490D02*
X46471429Y-64001775D01*
X46471429Y-64001775D02*
X46471429Y-64144633D01*
X46471429Y-64144633D02*
X46442858Y-64258918D01*
X46442858Y-64258918D02*
X46414287Y-64316061D01*
X46414287Y-64316061D02*
X46385715Y-64344633D01*
X46385715Y-64344633D02*
X46328572Y-64373204D01*
X46328572Y-64373204D02*
X46271429Y-64373204D01*
X46271429Y-64373204D02*
X46214287Y-64344633D01*
X46214287Y-64344633D02*
X46185715Y-64316061D01*
X46185715Y-64316061D02*
X46157144Y-64258918D01*
X46157144Y-64258918D02*
X46128572Y-64144633D01*
X46128572Y-64144633D02*
X46128572Y-64001775D01*
X46128572Y-64001775D02*
X46157144Y-63887490D01*
X46157144Y-63887490D02*
X46185715Y-63830347D01*
X46185715Y-63830347D02*
X46214287Y-63801775D01*
X46214287Y-63801775D02*
X46271429Y-63773204D01*
X47157144Y-64344633D02*
X47214287Y-64373204D01*
X47214287Y-64373204D02*
X47328573Y-64373204D01*
X47328573Y-64373204D02*
X47385716Y-64344633D01*
X47385716Y-64344633D02*
X47414287Y-64287490D01*
X47414287Y-64287490D02*
X47414287Y-64258918D01*
X47414287Y-64258918D02*
X47385716Y-64201775D01*
X47385716Y-64201775D02*
X47328573Y-64173204D01*
X47328573Y-64173204D02*
X47242859Y-64173204D01*
X47242859Y-64173204D02*
X47185716Y-64144633D01*
X47185716Y-64144633D02*
X47157144Y-64087490D01*
X47157144Y-64087490D02*
X47157144Y-64058918D01*
X47157144Y-64058918D02*
X47185716Y-64001775D01*
X47185716Y-64001775D02*
X47242859Y-63973204D01*
X47242859Y-63973204D02*
X47328573Y-63973204D01*
X47328573Y-63973204D02*
X47385716Y-64001775D01*
X48242858Y-63773204D02*
X48300001Y-63773204D01*
X48300001Y-63773204D02*
X48357144Y-63801775D01*
X48357144Y-63801775D02*
X48385716Y-63830347D01*
X48385716Y-63830347D02*
X48414287Y-63887490D01*
X48414287Y-63887490D02*
X48442858Y-64001775D01*
X48442858Y-64001775D02*
X48442858Y-64144633D01*
X48442858Y-64144633D02*
X48414287Y-64258918D01*
X48414287Y-64258918D02*
X48385716Y-64316061D01*
X48385716Y-64316061D02*
X48357144Y-64344633D01*
X48357144Y-64344633D02*
X48300001Y-64373204D01*
X48300001Y-64373204D02*
X48242858Y-64373204D01*
X48242858Y-64373204D02*
X48185716Y-64344633D01*
X48185716Y-64344633D02*
X48157144Y-64316061D01*
X48157144Y-64316061D02*
X48128573Y-64258918D01*
X48128573Y-64258918D02*
X48100001Y-64144633D01*
X48100001Y-64144633D02*
X48100001Y-64001775D01*
X48100001Y-64001775D02*
X48128573Y-63887490D01*
X48128573Y-63887490D02*
X48157144Y-63830347D01*
X48157144Y-63830347D02*
X48185716Y-63801775D01*
X48185716Y-63801775D02*
X48242858Y-63773204D01*
X48700002Y-64316061D02*
X48728573Y-64344633D01*
X48728573Y-64344633D02*
X48700002Y-64373204D01*
X48700002Y-64373204D02*
X48671430Y-64344633D01*
X48671430Y-64344633D02*
X48700002Y-64316061D01*
X48700002Y-64316061D02*
X48700002Y-64373204D01*
X49300001Y-64373204D02*
X48957144Y-64373204D01*
X49128573Y-64373204D02*
X49128573Y-63773204D01*
X49128573Y-63773204D02*
X49071430Y-63858918D01*
X49071430Y-63858918D02*
X49014287Y-63916061D01*
X49014287Y-63916061D02*
X48957144Y-63944633D01*
X49671430Y-63773204D02*
X49728573Y-63773204D01*
X49728573Y-63773204D02*
X49785716Y-63801775D01*
X49785716Y-63801775D02*
X49814288Y-63830347D01*
X49814288Y-63830347D02*
X49842859Y-63887490D01*
X49842859Y-63887490D02*
X49871430Y-64001775D01*
X49871430Y-64001775D02*
X49871430Y-64144633D01*
X49871430Y-64144633D02*
X49842859Y-64258918D01*
X49842859Y-64258918D02*
X49814288Y-64316061D01*
X49814288Y-64316061D02*
X49785716Y-64344633D01*
X49785716Y-64344633D02*
X49728573Y-64373204D01*
X49728573Y-64373204D02*
X49671430Y-64373204D01*
X49671430Y-64373204D02*
X49614288Y-64344633D01*
X49614288Y-64344633D02*
X49585716Y-64316061D01*
X49585716Y-64316061D02*
X49557145Y-64258918D01*
X49557145Y-64258918D02*
X49528573Y-64144633D01*
X49528573Y-64144633D02*
X49528573Y-64001775D01*
X49528573Y-64001775D02*
X49557145Y-63887490D01*
X49557145Y-63887490D02*
X49585716Y-63830347D01*
X49585716Y-63830347D02*
X49614288Y-63801775D01*
X49614288Y-63801775D02*
X49671430Y-63773204D01*
X50242859Y-63773204D02*
X50300002Y-63773204D01*
X50300002Y-63773204D02*
X50357145Y-63801775D01*
X50357145Y-63801775D02*
X50385717Y-63830347D01*
X50385717Y-63830347D02*
X50414288Y-63887490D01*
X50414288Y-63887490D02*
X50442859Y-64001775D01*
X50442859Y-64001775D02*
X50442859Y-64144633D01*
X50442859Y-64144633D02*
X50414288Y-64258918D01*
X50414288Y-64258918D02*
X50385717Y-64316061D01*
X50385717Y-64316061D02*
X50357145Y-64344633D01*
X50357145Y-64344633D02*
X50300002Y-64373204D01*
X50300002Y-64373204D02*
X50242859Y-64373204D01*
X50242859Y-64373204D02*
X50185717Y-64344633D01*
X50185717Y-64344633D02*
X50157145Y-64316061D01*
X50157145Y-64316061D02*
X50128574Y-64258918D01*
X50128574Y-64258918D02*
X50100002Y-64144633D01*
X50100002Y-64144633D02*
X50100002Y-64001775D01*
X50100002Y-64001775D02*
X50128574Y-63887490D01*
X50128574Y-63887490D02*
X50157145Y-63830347D01*
X50157145Y-63830347D02*
X50185717Y-63801775D01*
X50185717Y-63801775D02*
X50242859Y-63773204D01*
D12*
G04 #@! TO.C,U1_A1*
X49363000Y-10790000D02*
X47363000Y-10790000D01*
X49363000Y-14010000D02*
X47363000Y-14010000D01*
X49913000Y-13730000D02*
X49913000Y-13450000D01*
X50193000Y-13450000D01*
X49913000Y-13730000D01*
G36*
X49913000Y-13730000D02*
G01*
X49913000Y-13450000D01*
X50193000Y-13450000D01*
X49913000Y-13730000D01*
G37*
G04 #@! TO.C,U1_A3*
X49363000Y-34390001D02*
X47363000Y-34390001D01*
X49363000Y-37610001D02*
X47363000Y-37610001D01*
X49913000Y-37330001D02*
X49913000Y-37050001D01*
X50193000Y-37050001D01*
X49913000Y-37330001D01*
G36*
X49913000Y-37330001D02*
G01*
X49913000Y-37050001D01*
X50193000Y-37050001D01*
X49913000Y-37330001D01*
G37*
G04 #@! TO.C,J1_A2*
X9200000Y-20700001D02*
X23600000Y-20700001D01*
X23600000Y-27700001D01*
X9200000Y-27700001D01*
X9200000Y-20700001D01*
D13*
X13025000Y-26200001D02*
G75*
G02*
X12775000Y-26200001I-125000J0D01*
G01*
X12775000Y-26200001D02*
G75*
G02*
X13025000Y-26200001I125000J0D01*
G01*
G04 #@! TO.C,J1_A4*
D12*
X9200000Y-44300001D02*
X23600000Y-44300001D01*
X23600000Y-51300001D01*
X9200000Y-51300001D01*
X9200000Y-44300001D01*
D13*
X13025000Y-49800001D02*
G75*
G02*
X12775000Y-49800001I-125000J0D01*
G01*
X12775000Y-49800001D02*
G75*
G02*
X13025000Y-49800001I125000J0D01*
G01*
G04 #@! TO.C,J1_A1*
D12*
X9200000Y-8900000D02*
X23600000Y-8900000D01*
X23600000Y-15900000D01*
X9200000Y-15900000D01*
X9200000Y-8900000D01*
D13*
X13025000Y-14400000D02*
G75*
G02*
X12775000Y-14400000I-125000J0D01*
G01*
X12775000Y-14400000D02*
G75*
G02*
X13025000Y-14400000I125000J0D01*
G01*
G04 #@! TO.C,J1_A3*
D12*
X9200000Y-32500001D02*
X23600000Y-32500001D01*
X23600000Y-39500001D01*
X9200000Y-39500001D01*
X9200000Y-32500001D01*
D13*
X13025000Y-38000001D02*
G75*
G02*
X12775000Y-38000001I-125000J0D01*
G01*
X12775000Y-38000001D02*
G75*
G02*
X13025000Y-38000001I125000J0D01*
G01*
D12*
G04 #@! TO.C,U1_A4*
X49363000Y-46190001D02*
X47363000Y-46190001D01*
X49363000Y-49410001D02*
X47363000Y-49410001D01*
X49913000Y-49130001D02*
X49913000Y-48850001D01*
X50193000Y-48850001D01*
X49913000Y-49130001D01*
G36*
X49913000Y-49130001D02*
G01*
X49913000Y-48850001D01*
X50193000Y-48850001D01*
X49913000Y-49130001D01*
G37*
G04 #@! TO.C,U1_A2*
X49363000Y-22590001D02*
X47363000Y-22590001D01*
X49363000Y-25810001D02*
X47363000Y-25810001D01*
X49913000Y-25530001D02*
X49913000Y-25250001D01*
X50193000Y-25250001D01*
X49913000Y-25530001D01*
G36*
X49913000Y-25530001D02*
G01*
X49913000Y-25250001D01*
X50193000Y-25250001D01*
X49913000Y-25530001D01*
G37*
G04 #@! TD*
%LPC*%
D14*
G04 #@! TO.C,FID7*
X2500000Y-36000000D03*
G04 #@! TD*
D15*
G04 #@! TO.C,U1_A1*
X49303000Y-13150000D03*
X49303000Y-12650000D03*
X49303000Y-12150000D03*
X49303000Y-11650000D03*
X47423000Y-11650000D03*
X47423000Y-12150000D03*
X47423000Y-12650000D03*
X47423000Y-13150000D03*
D16*
X48363000Y-12400000D03*
G04 #@! TD*
D14*
G04 #@! TO.C,FID8*
X2500000Y-47800000D03*
G04 #@! TD*
D15*
G04 #@! TO.C,U1_A3*
X49303000Y-36750001D03*
X49303000Y-36250001D03*
X49303000Y-35750001D03*
X49303000Y-35250001D03*
X47423000Y-35250001D03*
X47423000Y-35750001D03*
X47423000Y-36250001D03*
X47423000Y-36750001D03*
D16*
X48363000Y-36000001D03*
G04 #@! TD*
D17*
G04 #@! TO.C,TP1B_T*
X63600000Y-62200001D03*
X63600000Y-61200001D03*
X63600000Y-60200001D03*
X63600000Y-59200001D03*
G04 #@! TD*
D18*
G04 #@! TO.C,C1_A4*
X47443000Y-50200001D03*
X48083000Y-50200001D03*
G04 #@! TD*
D17*
G04 #@! TO.C,TP3B_T*
X63600000Y-71700001D03*
X63600000Y-70700001D03*
X63600000Y-69700001D03*
G04 #@! TD*
D14*
G04 #@! TO.C,FID3*
X10000000Y-78350000D03*
G04 #@! TD*
D19*
G04 #@! TO.C,J2_A3*
X35828000Y-34645001D03*
X35828000Y-37355001D03*
X36228000Y-34645001D03*
X36228000Y-37355001D03*
X36628000Y-34645001D03*
X36628000Y-37355001D03*
X37028000Y-34645001D03*
X37028000Y-37355001D03*
X37428000Y-34645001D03*
X37428000Y-37355001D03*
X37828000Y-34645001D03*
X37828000Y-37355001D03*
X38228000Y-34645001D03*
X38228000Y-37355001D03*
X38628000Y-34645001D03*
X38628000Y-37355001D03*
X39028000Y-34645001D03*
X39028000Y-37355001D03*
X39428000Y-34645001D03*
X39428000Y-37355001D03*
X39828000Y-34645001D03*
X39828000Y-37355001D03*
X40228000Y-34645001D03*
X40228000Y-37355001D03*
X40628000Y-34645001D03*
X40628000Y-37355001D03*
X41028000Y-34645001D03*
X41028000Y-37355001D03*
X41428000Y-34645001D03*
X41428000Y-37355001D03*
X41828000Y-34645001D03*
X41828000Y-37355001D03*
X42228000Y-34645001D03*
X42228000Y-37355001D03*
X42628000Y-34645001D03*
X42628000Y-37355001D03*
X43028000Y-34645001D03*
X43028000Y-37355001D03*
X43428000Y-34645001D03*
X43428000Y-37355001D03*
X43828000Y-34645001D03*
X43828000Y-37355001D03*
X44228000Y-34645001D03*
X44228000Y-37355001D03*
X44628000Y-34645001D03*
X44628000Y-37355001D03*
X45028000Y-34645001D03*
X45028000Y-37355001D03*
X45428000Y-34645001D03*
X45428000Y-37355001D03*
D20*
X35353000Y-34645001D03*
X35353000Y-37355001D03*
X45903000Y-34645001D03*
X45903000Y-37355001D03*
G04 #@! TD*
D14*
G04 #@! TO.C,FID6*
X2500000Y-24200000D03*
G04 #@! TD*
D21*
G04 #@! TO.C,J1_A2*
X12900000Y-25000001D03*
X15400000Y-25000001D03*
X17400000Y-25000001D03*
X19900000Y-25000001D03*
X20400000Y-23400001D03*
X18400000Y-23400001D03*
X16400000Y-23400001D03*
X14400000Y-23400001D03*
X12400000Y-23400001D03*
D22*
X9825000Y-24850001D03*
X22975000Y-24850001D03*
G04 #@! TD*
D14*
G04 #@! TO.C,FID1*
X10000000Y-3850000D03*
G04 #@! TD*
D21*
G04 #@! TO.C,J1_A4*
X12900000Y-48600001D03*
X15400000Y-48600001D03*
X17400000Y-48600001D03*
X19900000Y-48600001D03*
X20400000Y-47000001D03*
X18400000Y-47000001D03*
X16400000Y-47000001D03*
X14400000Y-47000001D03*
X12400000Y-47000001D03*
D22*
X9825000Y-48450001D03*
X22975000Y-48450001D03*
G04 #@! TD*
D19*
G04 #@! TO.C,J2_A2*
X35828000Y-22845001D03*
X35828000Y-25555001D03*
X36228000Y-22845001D03*
X36228000Y-25555001D03*
X36628000Y-22845001D03*
X36628000Y-25555001D03*
X37028000Y-22845001D03*
X37028000Y-25555001D03*
X37428000Y-22845001D03*
X37428000Y-25555001D03*
X37828000Y-22845001D03*
X37828000Y-25555001D03*
X38228000Y-22845001D03*
X38228000Y-25555001D03*
X38628000Y-22845001D03*
X38628000Y-25555001D03*
X39028000Y-22845001D03*
X39028000Y-25555001D03*
X39428000Y-22845001D03*
X39428000Y-25555001D03*
X39828000Y-22845001D03*
X39828000Y-25555001D03*
X40228000Y-22845001D03*
X40228000Y-25555001D03*
X40628000Y-22845001D03*
X40628000Y-25555001D03*
X41028000Y-22845001D03*
X41028000Y-25555001D03*
X41428000Y-22845001D03*
X41428000Y-25555001D03*
X41828000Y-22845001D03*
X41828000Y-25555001D03*
X42228000Y-22845001D03*
X42228000Y-25555001D03*
X42628000Y-22845001D03*
X42628000Y-25555001D03*
X43028000Y-22845001D03*
X43028000Y-25555001D03*
X43428000Y-22845001D03*
X43428000Y-25555001D03*
X43828000Y-22845001D03*
X43828000Y-25555001D03*
X44228000Y-22845001D03*
X44228000Y-25555001D03*
X44628000Y-22845001D03*
X44628000Y-25555001D03*
X45028000Y-22845001D03*
X45028000Y-25555001D03*
X45428000Y-22845001D03*
X45428000Y-25555001D03*
D20*
X35353000Y-22845001D03*
X35353000Y-25555001D03*
X45903000Y-22845001D03*
X45903000Y-25555001D03*
G04 #@! TD*
D21*
G04 #@! TO.C,J1_A1*
X12900000Y-13200000D03*
X15400000Y-13200000D03*
X17400000Y-13200000D03*
X19900000Y-13200000D03*
X20400000Y-11600000D03*
X18400000Y-11600000D03*
X16400000Y-11600000D03*
X14400000Y-11600000D03*
X12400000Y-11600000D03*
D22*
X9825000Y-13050000D03*
X22975000Y-13050000D03*
G04 #@! TD*
D18*
G04 #@! TO.C,C1_A1*
X47443000Y-14800000D03*
X48083000Y-14800000D03*
G04 #@! TD*
D17*
G04 #@! TO.C,TP2A_T*
X10400000Y-67200001D03*
X10400000Y-66200001D03*
X10400000Y-65200001D03*
X10400000Y-64200001D03*
G04 #@! TD*
G04 #@! TO.C,TP3A_T*
X10400000Y-71700001D03*
X10400000Y-70700001D03*
X10400000Y-69700001D03*
G04 #@! TD*
D21*
G04 #@! TO.C,J1_A3*
X12900000Y-36800001D03*
X15400000Y-36800001D03*
X17400000Y-36800001D03*
X19900000Y-36800001D03*
X20400000Y-35200001D03*
X18400000Y-35200001D03*
X16400000Y-35200001D03*
X14400000Y-35200001D03*
X12400000Y-35200001D03*
D22*
X9825000Y-36650001D03*
X22975000Y-36650001D03*
G04 #@! TD*
D17*
G04 #@! TO.C,TP2B_T*
X63600000Y-67200001D03*
X63600000Y-66200001D03*
X63600000Y-65200001D03*
X63600000Y-64200001D03*
G04 #@! TD*
D19*
G04 #@! TO.C,J2_A1*
X35828000Y-11045000D03*
X35828000Y-13755000D03*
X36228000Y-11045000D03*
X36228000Y-13755000D03*
X36628000Y-11045000D03*
X36628000Y-13755000D03*
X37028000Y-11045000D03*
X37028000Y-13755000D03*
X37428000Y-11045000D03*
X37428000Y-13755000D03*
X37828000Y-11045000D03*
X37828000Y-13755000D03*
X38228000Y-11045000D03*
X38228000Y-13755000D03*
X38628000Y-11045000D03*
X38628000Y-13755000D03*
X39028000Y-11045000D03*
X39028000Y-13755000D03*
X39428000Y-11045000D03*
X39428000Y-13755000D03*
X39828000Y-11045000D03*
X39828000Y-13755000D03*
X40228000Y-11045000D03*
X40228000Y-13755000D03*
X40628000Y-11045000D03*
X40628000Y-13755000D03*
X41028000Y-11045000D03*
X41028000Y-13755000D03*
X41428000Y-11045000D03*
X41428000Y-13755000D03*
X41828000Y-11045000D03*
X41828000Y-13755000D03*
X42228000Y-11045000D03*
X42228000Y-13755000D03*
X42628000Y-11045000D03*
X42628000Y-13755000D03*
X43028000Y-11045000D03*
X43028000Y-13755000D03*
X43428000Y-11045000D03*
X43428000Y-13755000D03*
X43828000Y-11045000D03*
X43828000Y-13755000D03*
X44228000Y-11045000D03*
X44228000Y-13755000D03*
X44628000Y-11045000D03*
X44628000Y-13755000D03*
X45028000Y-11045000D03*
X45028000Y-13755000D03*
X45428000Y-11045000D03*
X45428000Y-13755000D03*
D20*
X35353000Y-11045000D03*
X35353000Y-13755000D03*
X45903000Y-11045000D03*
X45903000Y-13755000D03*
G04 #@! TD*
D14*
G04 #@! TO.C,FID5*
X2500000Y-12400000D03*
G04 #@! TD*
D15*
G04 #@! TO.C,U1_A4*
X49303000Y-48550001D03*
X49303000Y-48050001D03*
X49303000Y-47550001D03*
X49303000Y-47050001D03*
X47423000Y-47050001D03*
X47423000Y-47550001D03*
X47423000Y-48050001D03*
X47423000Y-48550001D03*
D16*
X48363000Y-47800001D03*
G04 #@! TD*
D14*
G04 #@! TO.C,TH1*
X2500000Y-2500000D03*
G04 #@! TD*
G04 #@! TO.C,TH3*
X2500000Y-79700000D03*
G04 #@! TD*
D15*
G04 #@! TO.C,U1_A2*
X49303000Y-24950001D03*
X49303000Y-24450001D03*
X49303000Y-23950001D03*
X49303000Y-23450001D03*
X47423000Y-23450001D03*
X47423000Y-23950001D03*
X47423000Y-24450001D03*
X47423000Y-24950001D03*
D16*
X48363000Y-24200001D03*
G04 #@! TD*
D14*
G04 #@! TO.C,TH4*
X66500000Y-79700000D03*
G04 #@! TD*
D18*
G04 #@! TO.C,C1_A3*
X47443000Y-38400001D03*
X48083000Y-38400001D03*
G04 #@! TD*
D17*
G04 #@! TO.C,TP1A_T*
X10400000Y-62200001D03*
X10400000Y-61200001D03*
X10400000Y-60200001D03*
X10400000Y-59200001D03*
G04 #@! TD*
D18*
G04 #@! TO.C,C1_A2*
X47443000Y-26600001D03*
X48083000Y-26600001D03*
G04 #@! TD*
D14*
G04 #@! TO.C,FID2*
X64000000Y-3850000D03*
G04 #@! TD*
G04 #@! TO.C,FID4*
X59000000Y-78350000D03*
G04 #@! TD*
D19*
G04 #@! TO.C,J2_A4*
X35828000Y-46445001D03*
X35828000Y-49155001D03*
X36228000Y-46445001D03*
X36228000Y-49155001D03*
X36628000Y-46445001D03*
X36628000Y-49155001D03*
X37028000Y-46445001D03*
X37028000Y-49155001D03*
X37428000Y-46445001D03*
X37428000Y-49155001D03*
X37828000Y-46445001D03*
X37828000Y-49155001D03*
X38228000Y-46445001D03*
X38228000Y-49155001D03*
X38628000Y-46445001D03*
X38628000Y-49155001D03*
X39028000Y-46445001D03*
X39028000Y-49155001D03*
X39428000Y-46445001D03*
X39428000Y-49155001D03*
X39828000Y-46445001D03*
X39828000Y-49155001D03*
X40228000Y-46445001D03*
X40228000Y-49155001D03*
X40628000Y-46445001D03*
X40628000Y-49155001D03*
X41028000Y-46445001D03*
X41028000Y-49155001D03*
X41428000Y-46445001D03*
X41428000Y-49155001D03*
X41828000Y-46445001D03*
X41828000Y-49155001D03*
X42228000Y-46445001D03*
X42228000Y-49155001D03*
X42628000Y-46445001D03*
X42628000Y-49155001D03*
X43028000Y-46445001D03*
X43028000Y-49155001D03*
X43428000Y-46445001D03*
X43428000Y-49155001D03*
X43828000Y-46445001D03*
X43828000Y-49155001D03*
X44228000Y-46445001D03*
X44228000Y-49155001D03*
X44628000Y-46445001D03*
X44628000Y-49155001D03*
X45028000Y-46445001D03*
X45028000Y-49155001D03*
X45428000Y-46445001D03*
X45428000Y-49155001D03*
D20*
X35353000Y-46445001D03*
X35353000Y-49155001D03*
X45903000Y-46445001D03*
X45903000Y-49155001D03*
G04 #@! TD*
D14*
G04 #@! TO.C,TH2*
X71500000Y-2500000D03*
G04 #@! TD*
%LPD*%
M02*
