%TF.GenerationSoftware,KiCad,Pcbnew,9.0.2+dfsg-1*%
%TF.CreationDate,2026-10-04T09:34:10-04:00*%
%TF.ProjectId,panel_a25,70616e65-6c5f-4613-9235-2e6b69636164,rev?*%
%TF.SameCoordinates,Original*%
%TF.FileFunction,Drillmap*%
%TF.FilePolarity,Positive*%
%FSLAX45Y45*%
G04 Gerber Fmt 4.5, Leading zero omitted, Abs format (unit mm)*
G04 Created by KiCad (PCBNEW 9.0.2+dfsg-1) date 2026-10-04 09:34:10*
%MOMM*%
%LPD*%
G01*
G04 APERTURE LIST*
%ADD10C,0.050000*%
%ADD11C,0.200000*%
G04 APERTURE END LIST*
D10*
X833704Y-5219754D02*
X840000Y-5220000D01*
X6750000Y-6520000D02*
X6750000Y-7570000D01*
X668821Y-752780D02*
X704151Y-704151D01*
X651172Y-4032903D02*
X650000Y-4002931D01*
X807097Y-651172D02*
X837068Y-650000D01*
X840000Y-1680000D02*
X1620000Y-1680000D01*
X2535862Y-2001727D02*
X2528461Y-1991539D01*
X2528461Y-4351539D02*
X2518273Y-4344138D01*
X837068Y-5370000D02*
X807097Y-5368828D01*
X821727Y-1675862D02*
X833704Y-1679754D01*
X2532903Y-3011172D02*
X2587220Y-3028821D01*
X2500000Y-800000D02*
X1720000Y-800000D01*
X5072300Y-3650000D02*
X5072300Y-3882931D01*
X4918162Y-941727D02*
X4910761Y-931539D01*
X4888596Y-920246D02*
X4882300Y-920000D01*
X2587220Y-5351179D02*
X2532903Y-5368828D01*
X3929300Y-2890000D02*
X2676775Y-2890000D01*
X2500000Y-4340000D02*
X1720000Y-4340000D01*
X4885232Y-770000D02*
X4915203Y-771172D01*
X2518273Y-4344138D02*
X2506296Y-4340246D01*
X2535862Y-4361727D02*
X2528461Y-4351539D01*
X2671179Y-4087220D02*
X2635849Y-4135849D01*
X3929300Y-3130000D02*
X3929300Y-3280000D01*
X5071128Y-4467097D02*
X5072300Y-4497068D01*
X650000Y-2470000D02*
X800000Y-2470000D01*
X2587220Y-3028821D02*
X2635849Y-3064151D01*
X2518273Y-4035862D02*
X2528461Y-4028461D01*
X4029300Y-3280000D02*
X4029300Y-3130000D01*
X2635849Y-2955849D02*
X2587220Y-2991179D01*
X4888596Y-5099754D02*
X4900573Y-5095862D01*
X704151Y-4135849D02*
X668821Y-4087220D01*
X4885232Y-4070000D02*
X4029300Y-4070000D01*
X651172Y-1987097D02*
X668821Y-1932780D01*
X4888596Y-3919754D02*
X4900573Y-3915862D01*
X800000Y-840000D02*
X800000Y-1190000D01*
X811539Y-811539D02*
X804138Y-821727D01*
X4882300Y-3920000D02*
X4888596Y-3919754D01*
X2544138Y-4438273D02*
X2540246Y-4426296D01*
X4910761Y-4471539D02*
X4900573Y-4464138D01*
X4918162Y-1538273D02*
X4922054Y-1526296D01*
X2528461Y-3171539D02*
X2518273Y-3164138D01*
X804138Y-4018273D02*
X811539Y-4028461D01*
X2671179Y-1727220D02*
X2635849Y-1775849D01*
X2010000Y-7420000D02*
X5390000Y-7420000D01*
X2518273Y-2855862D02*
X2528461Y-2848461D01*
X4882300Y-4460000D02*
X4029300Y-4460000D01*
X4029300Y-770000D02*
X4885232Y-770000D01*
X4969520Y-2871179D02*
X4915203Y-2888828D01*
X2551539Y-4448461D02*
X2544138Y-4438273D01*
X2635849Y-5315849D02*
X2587220Y-5351179D01*
X2500000Y-5220000D02*
X2506296Y-5219754D01*
X4029300Y-1560000D02*
X4882300Y-1560000D01*
X2551539Y-908461D02*
X2544138Y-898273D01*
X1720000Y-1980000D02*
X1720000Y-1680000D01*
X2540000Y-3960000D02*
X2540246Y-3953704D01*
X807097Y-5368828D02*
X752780Y-5351179D01*
X2010000Y-7570000D02*
X2010000Y-7420000D01*
X2551539Y-3931539D02*
X2561727Y-3924138D01*
X2506296Y-800246D02*
X2500000Y-800000D01*
X5390000Y-5370000D02*
X5390000Y-5520000D01*
X4922054Y-953704D02*
X4918162Y-941727D01*
X807097Y-1828828D02*
X752780Y-1811179D01*
X4922300Y-4830000D02*
X5072300Y-4830000D01*
X752780Y-2991179D02*
X704151Y-2955849D01*
X4918162Y-5078273D02*
X4922054Y-5066296D01*
X2676775Y-1710000D02*
X2671179Y-1727220D01*
X4910761Y-2728461D02*
X4918162Y-2718273D01*
X1720000Y-3160000D02*
X1720000Y-2860000D01*
X5390000Y-5520000D02*
X2010000Y-5520000D01*
X2580000Y-920000D02*
X2573704Y-919754D01*
X5071128Y-3287097D02*
X5072300Y-3317068D01*
X2535862Y-821727D02*
X2528461Y-811539D01*
X4922300Y-1290000D02*
X5072300Y-1290000D01*
X2506296Y-1980246D02*
X2500000Y-1980000D01*
X811539Y-4351539D02*
X804138Y-4361727D01*
X800000Y-1190000D02*
X650000Y-1190000D01*
X1910000Y-5520000D02*
X1720000Y-5520000D01*
X2540000Y-2780000D02*
X2540246Y-2773704D01*
X4910761Y-5088461D02*
X4918162Y-5078273D01*
X837068Y-4190000D02*
X807097Y-4188828D01*
X2573704Y-3920246D02*
X2580000Y-3920000D01*
X1720000Y-650000D02*
X2502932Y-650000D01*
X800000Y-5520000D02*
X800000Y-6420000D01*
X2573704Y-2740246D02*
X2580000Y-2740000D01*
X5390000Y-7570000D02*
X2010000Y-7570000D01*
X4969520Y-4328821D02*
X5018149Y-4364151D01*
X6750000Y-5370000D02*
X6750000Y-6420000D01*
X704151Y-4244151D02*
X752780Y-4208821D01*
X2561727Y-3924138D02*
X2573704Y-3920246D01*
X2580000Y-4460000D02*
X2573704Y-4459754D01*
X4969520Y-5231179D02*
X4915203Y-5248828D01*
X2561727Y-2095862D02*
X2551539Y-2088461D01*
X2676775Y-1950000D02*
X3929300Y-1950000D01*
X5072300Y-2370000D02*
X4922300Y-2370000D01*
X651172Y-5212903D02*
X650000Y-5182932D01*
X2573704Y-1560246D02*
X2580000Y-1560000D01*
X840000Y-2860000D02*
X1620000Y-2860000D01*
X4922300Y-3320000D02*
X4922054Y-3313704D01*
X3929300Y-1560000D02*
X3929300Y-1710000D01*
X2561727Y-4455862D02*
X2551539Y-4448461D01*
X4900573Y-2104138D02*
X4888596Y-2100246D01*
X5053479Y-2787220D02*
X5018149Y-2835849D01*
X821727Y-2855862D02*
X833704Y-2859754D01*
X5018149Y-3184151D02*
X5053479Y-3232780D01*
X4915203Y-771172D02*
X4969520Y-788821D01*
X5490000Y-5370000D02*
X6750000Y-5370000D01*
X807097Y-1831172D02*
X837068Y-1830000D01*
X2540246Y-2066296D02*
X2540000Y-2060000D01*
X1620000Y-2860000D02*
X1620000Y-3160000D01*
X3929300Y-5250000D02*
X2676775Y-5250000D01*
X4922054Y-3313704D02*
X4918162Y-3301727D01*
X4882300Y-2740000D02*
X4888596Y-2739754D01*
X0Y0D02*
X0Y-8220000D01*
X4029300Y-4460000D02*
X4029300Y-4310000D01*
X2539754Y-1646296D02*
X2540000Y-1640000D01*
X1720000Y-4040000D02*
X2500000Y-4040000D01*
X2676775Y-3130000D02*
X3929300Y-3130000D01*
X837068Y-1830000D02*
X807097Y-1828828D01*
X668821Y-3112780D02*
X704151Y-3064151D01*
X800000Y-1290000D02*
X800000Y-1640000D01*
X2535862Y-2838273D02*
X2539754Y-2826296D01*
X651172Y-4347097D02*
X668821Y-4292780D01*
X821727Y-5215862D02*
X833704Y-5219754D01*
X4029300Y-2100000D02*
X4029300Y-1950000D01*
X6600000Y-6420000D02*
X6600000Y-5520000D01*
X804138Y-2838273D02*
X811539Y-2848461D01*
X5072300Y-3317068D02*
X5072300Y-3550000D01*
X4029300Y-5460000D02*
X4029300Y-5370000D01*
X2518273Y-5215862D02*
X2528461Y-5208461D01*
X1910000Y-5220000D02*
X1910000Y-5520000D01*
X4922300Y-1520000D02*
X4922300Y-1290000D01*
X4910761Y-1548461D02*
X4918162Y-1538273D01*
X4882300Y-2100000D02*
X4029300Y-2100000D01*
X2671179Y-1932780D02*
X2676775Y-1950000D01*
X2561727Y-3275862D02*
X2551539Y-3268461D01*
X4900573Y-3284138D02*
X4888596Y-3280246D01*
X4915203Y-3131172D02*
X4969520Y-3148821D01*
X840000Y-5220000D02*
X1620000Y-5220000D01*
X650000Y-837068D02*
X651172Y-807097D01*
X2540246Y-4426296D02*
X2540000Y-4420000D01*
X4922300Y-4500000D02*
X4922054Y-4493704D01*
X4922054Y-3886296D02*
X4922300Y-3880000D01*
X2506296Y-2859754D02*
X2518273Y-2855862D01*
X4029300Y-4070000D02*
X4029300Y-3920000D01*
X668821Y-4292780D02*
X704151Y-4244151D01*
X2540246Y-3246296D02*
X2540000Y-3240000D01*
X650000Y-3550000D02*
X650000Y-3197068D01*
X4885232Y-3130000D02*
X4915203Y-3131172D01*
X2540246Y-2773704D02*
X2544138Y-2761727D01*
X2540000Y-3240000D02*
X2540000Y-3200000D01*
X2506296Y-5219754D02*
X2518273Y-5215862D01*
X4969520Y-4051179D02*
X4915203Y-4068828D01*
X650000Y-2822931D02*
X650000Y-2470000D01*
X5490000Y-7570000D02*
X5490000Y-7420000D01*
X2502932Y-4190000D02*
X2532903Y-4191172D01*
X2587220Y-4171179D02*
X2532903Y-4188828D01*
X821727Y-4035862D02*
X833704Y-4039754D01*
X2500000Y-4040000D02*
X2506296Y-4039754D01*
X2500000Y-1980000D02*
X1720000Y-1980000D01*
X2676775Y-4070000D02*
X2671179Y-4087220D01*
X2544138Y-1581727D02*
X2551539Y-1571539D01*
X5053479Y-5147220D02*
X5018149Y-5195849D01*
X5053479Y-1607220D02*
X5018149Y-1655849D01*
X800246Y-3193704D02*
X800000Y-3200000D01*
X3929300Y-4460000D02*
X2580000Y-4460000D01*
X800000Y-2820000D02*
X800246Y-2826296D01*
X5018149Y-4015849D02*
X4969520Y-4051179D01*
X1620000Y-5220000D02*
X1620000Y-5520000D01*
X4922054Y-1526296D02*
X4922300Y-1520000D01*
X811539Y-2848461D02*
X821727Y-2855862D01*
X4922300Y-2700000D02*
X4922300Y-2470000D01*
X2502932Y-5370000D02*
X3929300Y-5370000D01*
X2535862Y-4018273D02*
X2539754Y-4006296D01*
X2635849Y-4135849D02*
X2587220Y-4171179D01*
X4915203Y-1951172D02*
X4969520Y-1968821D01*
X821727Y-4344138D02*
X811539Y-4351539D01*
X3929300Y-770000D02*
X3929300Y-920000D01*
X5490000Y-5520000D02*
X5490000Y-5370000D01*
X2671179Y-3112780D02*
X2676775Y-3130000D01*
X4922300Y-2470000D02*
X5072300Y-2470000D01*
X752780Y-3028821D02*
X807097Y-3011172D01*
X1620000Y-1980000D02*
X840000Y-1980000D01*
X811539Y-3171539D02*
X804138Y-3181727D01*
X4029300Y-2740000D02*
X4882300Y-2740000D01*
X2540000Y-1600000D02*
X2540246Y-1593704D01*
X2580000Y-2740000D02*
X3929300Y-2740000D01*
X5072300Y-4497068D02*
X5072300Y-4730000D01*
X5072300Y-2470000D02*
X5072300Y-2702932D01*
X0Y-8220000D02*
X7400000Y-8220000D01*
X5072300Y-1190000D02*
X4922300Y-1190000D01*
X2518273Y-804138D02*
X2506296Y-800246D01*
X4915203Y-1708828D02*
X4885232Y-1710000D01*
X1720000Y-5220000D02*
X1910000Y-5220000D01*
X821727Y-3164138D02*
X811539Y-3171539D01*
X651172Y-1672903D02*
X650000Y-1642931D01*
X2580000Y-1560000D02*
X3929300Y-1560000D01*
X2551539Y-2088461D02*
X2544138Y-2078273D01*
X4910761Y-2111539D02*
X4900573Y-2104138D01*
X4900573Y-924138D02*
X4888596Y-920246D01*
X4910761Y-3291539D02*
X4900573Y-3284138D01*
X650000Y-5182932D02*
X650000Y-4830000D01*
X4029300Y-3920000D02*
X4882300Y-3920000D01*
X833704Y-1980246D02*
X821727Y-1984138D01*
X2539754Y-2826296D02*
X2540000Y-2820000D01*
X668821Y-5267220D02*
X651172Y-5212903D01*
X833704Y-3160246D02*
X821727Y-3164138D01*
X2561727Y-915862D02*
X2551539Y-908461D01*
X5018149Y-2004151D02*
X5053479Y-2052780D01*
X1620000Y-3160000D02*
X840000Y-3160000D01*
X2551539Y-1571539D02*
X2561727Y-1564138D01*
X2532903Y-651172D02*
X2587220Y-668821D01*
X1620000Y-1680000D02*
X1620000Y-1980000D01*
X2506296Y-3160246D02*
X2500000Y-3160000D01*
X2502932Y-650000D02*
X2532903Y-651172D01*
X704151Y-5315849D02*
X668821Y-5267220D01*
X2532903Y-1828828D02*
X2502932Y-1830000D01*
X5071128Y-2107097D02*
X5072300Y-2137068D01*
X2635849Y-3064151D02*
X2671179Y-3112780D01*
X2540000Y-5140000D02*
X2540246Y-5133704D01*
X837068Y-650000D02*
X1620000Y-650000D01*
X704151Y-704151D02*
X752780Y-668821D01*
X1720000Y-1680000D02*
X2500000Y-1680000D01*
X2502932Y-3010000D02*
X2532903Y-3011172D01*
X2580000Y-2100000D02*
X2573704Y-2099754D01*
X800246Y-5186296D02*
X804138Y-5198273D01*
X2544138Y-2761727D02*
X2551539Y-2751539D01*
X2506296Y-4340246D02*
X2500000Y-4340000D01*
X837068Y-3010000D02*
X807097Y-3008828D01*
X3929300Y-1950000D02*
X3929300Y-2100000D01*
X4922300Y-5060000D02*
X4922300Y-4830000D01*
X2540000Y-2060000D02*
X2540000Y-2020000D01*
X804138Y-3181727D02*
X800246Y-3193704D01*
X2544138Y-898273D02*
X2540246Y-886296D01*
X800000Y-4830000D02*
X800000Y-5180000D01*
X2535862Y-3181727D02*
X2528461Y-3171539D01*
X800000Y-4380000D02*
X800000Y-4730000D01*
X2506296Y-4039754D02*
X2518273Y-4035862D01*
X2635849Y-1775849D02*
X2587220Y-1811179D01*
X2544138Y-3258273D02*
X2540246Y-3246296D01*
X1720000Y-800000D02*
X1720000Y-650000D01*
X4922300Y-3880000D02*
X4922300Y-3650000D01*
X2500000Y-1680000D02*
X2506296Y-1679754D01*
X5071128Y-1552903D02*
X5053479Y-1607220D01*
X651172Y-2852903D02*
X650000Y-2822931D01*
X650000Y-4002931D02*
X650000Y-3650000D01*
X811539Y-5208461D02*
X821727Y-5215862D01*
X4900573Y-1555862D02*
X4910761Y-1548461D01*
X4922300Y-1190000D02*
X4922300Y-960000D01*
X840000Y-1980000D02*
X833704Y-1980246D01*
X2561727Y-2744138D02*
X2573704Y-2740246D01*
X1720000Y-2860000D02*
X2500000Y-2860000D01*
X4918162Y-2121727D02*
X4910761Y-2111539D01*
X4882300Y-5100000D02*
X4888596Y-5099754D01*
X650000Y-6420000D02*
X650000Y-5370000D01*
X650000Y-5370000D02*
X837068Y-5370000D01*
X2635849Y-704151D02*
X2671179Y-752780D01*
X4888596Y-3280246D02*
X4882300Y-3280000D01*
X4922300Y-960000D02*
X4922054Y-953704D01*
X4915203Y-4068828D02*
X4885232Y-4070000D01*
X5053479Y-872780D02*
X5071128Y-927097D01*
X5053479Y-4412780D02*
X5071128Y-4467097D01*
X2587220Y-2991179D02*
X2532903Y-3008828D01*
X804138Y-5198273D02*
X811539Y-5208461D01*
X5390000Y-7420000D02*
X5390000Y-7570000D01*
X4922300Y-4730000D02*
X4922300Y-4500000D01*
X5072300Y-1522931D02*
X5071128Y-1552903D01*
X668821Y-1727220D02*
X651172Y-1672903D01*
X4922054Y-2706296D02*
X4922300Y-2700000D01*
X2010000Y-5220000D02*
X2500000Y-5220000D01*
X1620000Y-4040000D02*
X1620000Y-4340000D01*
X7400000Y0D02*
X0Y0D01*
X4900573Y-4464138D02*
X4888596Y-4460246D01*
X668821Y-1932780D02*
X704151Y-1884151D01*
X650000Y-4377068D02*
X651172Y-4347097D01*
X2518273Y-1984138D02*
X2506296Y-1980246D01*
X1620000Y-4340000D02*
X840000Y-4340000D01*
X5018149Y-5195849D02*
X4969520Y-5231179D01*
X6600000Y-7420000D02*
X6600000Y-6520000D01*
X4029300Y-1950000D02*
X4885232Y-1950000D01*
X2573704Y-2099754D02*
X2561727Y-2095862D01*
X2676775Y-5250000D02*
X2671179Y-5267220D01*
X3929300Y-3920000D02*
X3929300Y-4070000D01*
X804138Y-2001727D02*
X800246Y-2013704D01*
X4882300Y-3280000D02*
X4029300Y-3280000D01*
X3929300Y-4070000D02*
X2676775Y-4070000D01*
X5071128Y-927097D02*
X5072300Y-957068D01*
X1620000Y-800000D02*
X840000Y-800000D01*
X5018149Y-2835849D02*
X4969520Y-2871179D01*
X4922300Y-2370000D02*
X4922300Y-2140000D01*
X3929300Y-2100000D02*
X2580000Y-2100000D01*
X2532903Y-1831172D02*
X2587220Y-1848821D01*
X3929300Y-5370000D02*
X3929300Y-5460000D01*
X2502932Y-1830000D02*
X2532903Y-1831172D01*
X2544138Y-2078273D02*
X2540246Y-2066296D01*
X650000Y-1290000D02*
X800000Y-1290000D01*
X650000Y-1642931D02*
X650000Y-1290000D01*
X4922054Y-4493704D02*
X4918162Y-4481727D01*
X2551539Y-3268461D02*
X2544138Y-3258273D01*
X833704Y-4340246D02*
X821727Y-4344138D01*
X1910000Y-7420000D02*
X1910000Y-7570000D01*
X5072300Y-1290000D02*
X5072300Y-1522931D01*
X4918162Y-3898273D02*
X4922054Y-3886296D01*
X4969520Y-1968821D02*
X5018149Y-2004151D01*
X4922300Y-2140000D02*
X4922054Y-2133704D01*
X2528461Y-811539D02*
X2518273Y-804138D01*
X650000Y-1190000D02*
X650000Y-837068D01*
X1910000Y-7570000D02*
X650000Y-7570000D01*
X4900573Y-2735862D02*
X4910761Y-2728461D01*
X807097Y-3011172D02*
X837068Y-3010000D01*
X2540000Y-4000000D02*
X2540000Y-3960000D01*
X800000Y-3650000D02*
X800000Y-4000000D01*
X4922054Y-2133704D02*
X4918162Y-2121727D01*
X4910761Y-3908461D02*
X4918162Y-3898273D01*
X2539754Y-833704D02*
X2535862Y-821727D01*
X5018149Y-824151D02*
X5053479Y-872780D01*
X800000Y-2370000D02*
X650000Y-2370000D01*
X5018149Y-1655849D02*
X4969520Y-1691179D01*
X2540000Y-2020000D02*
X2539754Y-2013704D01*
X752780Y-4208821D02*
X807097Y-4191172D01*
X833704Y-800246D02*
X821727Y-804138D01*
X2676775Y-4310000D02*
X3929300Y-4310000D01*
X4922300Y-3550000D02*
X4922300Y-3320000D01*
X752780Y-1848821D02*
X807097Y-1831172D01*
X5490000Y-7420000D02*
X6600000Y-7420000D01*
X2539754Y-3193704D02*
X2535862Y-3181727D01*
X5018149Y-4364151D02*
X5053479Y-4412780D01*
X2540000Y-1640000D02*
X2540000Y-1600000D01*
X4885232Y-5250000D02*
X4029300Y-5250000D01*
X704151Y-1775849D02*
X668821Y-1727220D01*
X704151Y-1884151D02*
X752780Y-1848821D01*
X752780Y-668821D02*
X807097Y-651172D01*
X2671179Y-752780D02*
X2676775Y-770000D01*
X4918162Y-3301727D02*
X4910761Y-3291539D01*
X1720000Y-4340000D02*
X1720000Y-4040000D01*
X804138Y-1658273D02*
X811539Y-1668461D01*
X833704Y-2859754D02*
X840000Y-2860000D01*
X2540000Y-4380000D02*
X2539754Y-4373704D01*
X2539754Y-5186296D02*
X2540000Y-5180000D01*
X3929300Y-920000D02*
X2580000Y-920000D01*
X4029300Y-5250000D02*
X4029300Y-5100000D01*
X5072300Y-2137068D02*
X5072300Y-2370000D01*
X650000Y-4730000D02*
X650000Y-4377068D01*
X4029300Y-1710000D02*
X4029300Y-1560000D01*
X2532903Y-4188828D02*
X2502932Y-4190000D01*
X4029300Y-3130000D02*
X4885232Y-3130000D01*
X1620000Y-5520000D02*
X800000Y-5520000D01*
X4922300Y-3650000D02*
X5072300Y-3650000D01*
X2506296Y-1679754D02*
X2518273Y-1675862D01*
X800246Y-4006296D02*
X804138Y-4018273D01*
X2500000Y-2860000D02*
X2506296Y-2859754D01*
X811539Y-1668461D02*
X821727Y-1675862D01*
X4882300Y-920000D02*
X4029300Y-920000D01*
X5071128Y-5092903D02*
X5053479Y-5147220D01*
X800000Y-1640000D02*
X800246Y-1646296D01*
X2561727Y-1564138D02*
X2573704Y-1560246D01*
X650000Y-2017068D02*
X651172Y-1987097D01*
X833704Y-4039754D02*
X840000Y-4040000D01*
X800000Y-2470000D02*
X800000Y-2820000D01*
X4918162Y-2718273D02*
X4922054Y-2706296D01*
X2551539Y-5111539D02*
X2561727Y-5104138D01*
X2540246Y-5133704D02*
X2544138Y-5121727D01*
X2518273Y-3164138D02*
X2506296Y-3160246D01*
X2539754Y-2013704D02*
X2535862Y-2001727D01*
X4969520Y-788821D02*
X5018149Y-824151D01*
X752780Y-5351179D02*
X704151Y-5315849D01*
X650000Y-2370000D02*
X650000Y-2017068D01*
X2580000Y-5100000D02*
X3929300Y-5100000D01*
X2587220Y-1811179D02*
X2532903Y-1828828D01*
X2528461Y-4028461D02*
X2535862Y-4018273D01*
X5072300Y-957068D02*
X5072300Y-1190000D01*
X811539Y-1991539D02*
X804138Y-2001727D01*
X800000Y-6420000D02*
X650000Y-6420000D01*
X800000Y-5180000D02*
X800246Y-5186296D01*
X2551539Y-2751539D02*
X2561727Y-2744138D01*
X3929300Y-5460000D02*
X4029300Y-5460000D01*
X4885232Y-1710000D02*
X4029300Y-1710000D01*
X800000Y-3550000D02*
X650000Y-3550000D01*
X650000Y-3197068D02*
X651172Y-3167097D01*
X2587220Y-1848821D02*
X2635849Y-1884151D01*
X2587220Y-668821D02*
X2635849Y-704151D01*
X804138Y-821727D02*
X800246Y-833704D01*
X4029300Y-920000D02*
X4029300Y-770000D01*
X650000Y-4830000D02*
X800000Y-4830000D01*
X5072300Y-3550000D02*
X4922300Y-3550000D01*
X4029300Y-5370000D02*
X5390000Y-5370000D01*
X840000Y-4340000D02*
X833704Y-4340246D01*
X811539Y-4028461D02*
X821727Y-4035862D01*
X5053479Y-3967220D02*
X5018149Y-4015849D01*
X4882300Y-1560000D02*
X4888596Y-1559754D01*
X4969520Y-1691179D02*
X4915203Y-1708828D01*
X2010000Y-5520000D02*
X2010000Y-5220000D01*
X2532903Y-4191172D02*
X2587220Y-4208821D01*
X5072300Y-5062932D02*
X5071128Y-5092903D01*
X2573704Y-4459754D02*
X2561727Y-4455862D01*
X2671179Y-4292780D02*
X2676775Y-4310000D01*
X2580000Y-3280000D02*
X2573704Y-3279754D01*
X1620000Y-650000D02*
X1620000Y-800000D01*
X2539754Y-4006296D02*
X2540000Y-4000000D01*
X2544138Y-3941727D02*
X2551539Y-3931539D01*
X2528461Y-1991539D02*
X2518273Y-1984138D01*
X4888596Y-4460246D02*
X4882300Y-4460000D01*
X2540000Y-840000D02*
X2539754Y-833704D01*
X2540246Y-886296D02*
X2540000Y-880000D01*
X6600000Y-5520000D02*
X5490000Y-5520000D01*
X5072300Y-4830000D02*
X5072300Y-5062932D01*
X650000Y-6520000D02*
X800000Y-6520000D01*
X6750000Y-7570000D02*
X5490000Y-7570000D01*
X4885232Y-2890000D02*
X4029300Y-2890000D01*
X2532903Y-5368828D02*
X2502932Y-5370000D01*
X4029300Y-4310000D02*
X4885232Y-4310000D01*
X4888596Y-1559754D02*
X4900573Y-1555862D01*
X704151Y-2955849D02*
X668821Y-2907220D01*
X650000Y-3650000D02*
X800000Y-3650000D01*
X2535862Y-5198273D02*
X2539754Y-5186296D01*
X4915203Y-2888828D02*
X4885232Y-2890000D01*
X4885232Y-4310000D02*
X4915203Y-4311172D01*
X2528461Y-1668461D02*
X2535862Y-1658273D01*
X3929300Y-1710000D02*
X2676775Y-1710000D01*
X668821Y-2907220D02*
X651172Y-2852903D01*
X4900573Y-5095862D02*
X4910761Y-5088461D01*
X2540000Y-4420000D02*
X2540000Y-4380000D01*
X2540000Y-5180000D02*
X2540000Y-5140000D01*
X2500000Y-3160000D02*
X1720000Y-3160000D01*
X5053479Y-3232780D02*
X5071128Y-3287097D01*
X2540000Y-3200000D02*
X2539754Y-3193704D01*
X840000Y-800000D02*
X833704Y-800246D01*
X800000Y-4000000D02*
X800246Y-4006296D01*
X3929300Y-5100000D02*
X3929300Y-5250000D01*
X4029300Y-5100000D02*
X4882300Y-5100000D01*
X800000Y-6520000D02*
X800000Y-7420000D01*
X833704Y-1679754D02*
X840000Y-1680000D01*
X4885232Y-1950000D02*
X4915203Y-1951172D01*
X650000Y-7570000D02*
X650000Y-6520000D01*
X5072300Y-4730000D02*
X4922300Y-4730000D01*
X5071128Y-3912903D02*
X5053479Y-3967220D01*
X2540246Y-1593704D02*
X2544138Y-1581727D01*
X1720000Y-5520000D02*
X1720000Y-5220000D01*
X651172Y-3167097D02*
X668821Y-3112780D01*
X5071128Y-2732903D02*
X5053479Y-2787220D01*
X807097Y-4191172D02*
X837068Y-4190000D01*
X4900573Y-3915862D02*
X4910761Y-3908461D01*
X2587220Y-4208821D02*
X2635849Y-4244151D01*
X668821Y-4087220D02*
X651172Y-4032903D01*
X2635849Y-4244151D02*
X2671179Y-4292780D01*
X2573704Y-919754D02*
X2561727Y-915862D01*
X4969520Y-3148821D02*
X5018149Y-3184151D01*
X800246Y-4373704D02*
X800000Y-4380000D01*
X2635849Y-1884151D02*
X2671179Y-1932780D01*
X2676775Y-770000D02*
X3929300Y-770000D01*
X2671179Y-2907220D02*
X2635849Y-2955849D01*
X4915203Y-4311172D02*
X4969520Y-4328821D01*
X821727Y-1984138D02*
X811539Y-1991539D01*
X2676775Y-2890000D02*
X2671179Y-2907220D01*
X704151Y-3064151D02*
X752780Y-3028821D01*
X4922054Y-5066296D02*
X4922300Y-5060000D01*
X2544138Y-5121727D02*
X2551539Y-5111539D01*
X800000Y-2020000D02*
X800000Y-2370000D01*
X2561727Y-5104138D02*
X2573704Y-5100246D01*
X4918162Y-4481727D02*
X4910761Y-4471539D01*
X2540000Y-880000D02*
X2540000Y-840000D01*
X4910761Y-931539D02*
X4900573Y-924138D01*
X2580000Y-3920000D02*
X3929300Y-3920000D01*
X5072300Y-2702932D02*
X5071128Y-2732903D01*
X2518273Y-1675862D02*
X2528461Y-1668461D01*
X840000Y-4040000D02*
X1620000Y-4040000D01*
X2528461Y-2848461D02*
X2535862Y-2838273D01*
X752780Y-4171179D02*
X704151Y-4135849D01*
X2528461Y-5208461D02*
X2535862Y-5198273D01*
X800246Y-833704D02*
X800000Y-840000D01*
X800000Y-7420000D02*
X1910000Y-7420000D01*
X2540246Y-3953704D02*
X2544138Y-3941727D01*
X651172Y-807097D02*
X668821Y-752780D01*
X752780Y-1811179D02*
X704151Y-1775849D01*
X5053479Y-2052780D02*
X5071128Y-2107097D01*
X800246Y-2013704D02*
X800000Y-2020000D01*
X4029300Y-2890000D02*
X4029300Y-2740000D01*
X2671179Y-5267220D02*
X2635849Y-5315849D01*
X2535862Y-1658273D02*
X2539754Y-1646296D01*
X2540000Y-2820000D02*
X2540000Y-2780000D01*
X4888596Y-2739754D02*
X4900573Y-2735862D01*
X800000Y-4730000D02*
X650000Y-4730000D01*
X840000Y-3160000D02*
X833704Y-3160246D01*
X2573704Y-5100246D02*
X2580000Y-5100000D01*
X4915203Y-5248828D02*
X4885232Y-5250000D01*
X7400000Y-8220000D02*
X7400000Y0D01*
X807097Y-4188828D02*
X752780Y-4171179D01*
X5072300Y-3882931D02*
X5071128Y-3912903D01*
X3929300Y-3280000D02*
X2580000Y-3280000D01*
X6750000Y-6420000D02*
X6600000Y-6420000D01*
X3929300Y-2740000D02*
X3929300Y-2890000D01*
X804138Y-4361727D02*
X800246Y-4373704D01*
X6600000Y-6520000D02*
X6750000Y-6520000D01*
X800246Y-2826296D02*
X804138Y-2838273D01*
X800000Y-3200000D02*
X800000Y-3550000D01*
X4888596Y-2100246D02*
X4882300Y-2100000D01*
X807097Y-3008828D02*
X752780Y-2991179D01*
X821727Y-804138D02*
X811539Y-811539D01*
X2539754Y-4373704D02*
X2535862Y-4361727D01*
X2573704Y-3279754D02*
X2561727Y-3275862D01*
X2532903Y-3008828D02*
X2502932Y-3010000D01*
X3929300Y-4310000D02*
X3929300Y-4460000D01*
X800246Y-1646296D02*
X804138Y-1658273D01*
D11*
X150000Y-150000D02*
X350000Y-350000D01*
X350000Y-150000D02*
X150000Y-350000D01*
X150000Y-7870000D02*
X350000Y-8070000D01*
X350000Y-7870000D02*
X150000Y-8070000D01*
X6550000Y-7870000D02*
X6750000Y-8070000D01*
X6750000Y-7870000D02*
X6550000Y-8070000D01*
X7050000Y-150000D02*
X7250000Y-350000D01*
X7250000Y-150000D02*
X7050000Y-350000D01*
X258277Y-8533984D02*
X258277Y-8333984D01*
X258277Y-8333984D02*
X305896Y-8333984D01*
X305896Y-8333984D02*
X334467Y-8343508D01*
X334467Y-8343508D02*
X353515Y-8362555D01*
X353515Y-8362555D02*
X363039Y-8381603D01*
X363039Y-8381603D02*
X372562Y-8419698D01*
X372562Y-8419698D02*
X372562Y-8448270D01*
X372562Y-8448270D02*
X363039Y-8486365D01*
X363039Y-8486365D02*
X353515Y-8505412D01*
X353515Y-8505412D02*
X334467Y-8524460D01*
X334467Y-8524460D02*
X305896Y-8533984D01*
X305896Y-8533984D02*
X258277Y-8533984D01*
X458277Y-8533984D02*
X458277Y-8400650D01*
X458277Y-8438746D02*
X467801Y-8419698D01*
X467801Y-8419698D02*
X477324Y-8410174D01*
X477324Y-8410174D02*
X496372Y-8400650D01*
X496372Y-8400650D02*
X515420Y-8400650D01*
X582086Y-8533984D02*
X582086Y-8400650D01*
X582086Y-8333984D02*
X572563Y-8343508D01*
X572563Y-8343508D02*
X582086Y-8353031D01*
X582086Y-8353031D02*
X591610Y-8343508D01*
X591610Y-8343508D02*
X582086Y-8333984D01*
X582086Y-8333984D02*
X582086Y-8353031D01*
X705896Y-8533984D02*
X686848Y-8524460D01*
X686848Y-8524460D02*
X677324Y-8505412D01*
X677324Y-8505412D02*
X677324Y-8333984D01*
X810658Y-8533984D02*
X791610Y-8524460D01*
X791610Y-8524460D02*
X782086Y-8505412D01*
X782086Y-8505412D02*
X782086Y-8333984D01*
X1039229Y-8533984D02*
X1039229Y-8333984D01*
X1039229Y-8333984D02*
X1105896Y-8476841D01*
X1105896Y-8476841D02*
X1172563Y-8333984D01*
X1172563Y-8333984D02*
X1172563Y-8533984D01*
X1353515Y-8533984D02*
X1353515Y-8429222D01*
X1353515Y-8429222D02*
X1343991Y-8410174D01*
X1343991Y-8410174D02*
X1324944Y-8400650D01*
X1324944Y-8400650D02*
X1286848Y-8400650D01*
X1286848Y-8400650D02*
X1267801Y-8410174D01*
X1353515Y-8524460D02*
X1334467Y-8533984D01*
X1334467Y-8533984D02*
X1286848Y-8533984D01*
X1286848Y-8533984D02*
X1267801Y-8524460D01*
X1267801Y-8524460D02*
X1258277Y-8505412D01*
X1258277Y-8505412D02*
X1258277Y-8486365D01*
X1258277Y-8486365D02*
X1267801Y-8467317D01*
X1267801Y-8467317D02*
X1286848Y-8457793D01*
X1286848Y-8457793D02*
X1334467Y-8457793D01*
X1334467Y-8457793D02*
X1353515Y-8448270D01*
X1448753Y-8400650D02*
X1448753Y-8600650D01*
X1448753Y-8410174D02*
X1467801Y-8400650D01*
X1467801Y-8400650D02*
X1505896Y-8400650D01*
X1505896Y-8400650D02*
X1524943Y-8410174D01*
X1524943Y-8410174D02*
X1534467Y-8419698D01*
X1534467Y-8419698D02*
X1543991Y-8438746D01*
X1543991Y-8438746D02*
X1543991Y-8495889D01*
X1543991Y-8495889D02*
X1534467Y-8514936D01*
X1534467Y-8514936D02*
X1524943Y-8524460D01*
X1524943Y-8524460D02*
X1505896Y-8533984D01*
X1505896Y-8533984D02*
X1467801Y-8533984D01*
X1467801Y-8533984D02*
X1448753Y-8524460D01*
X1629705Y-8514936D02*
X1639229Y-8524460D01*
X1639229Y-8524460D02*
X1629705Y-8533984D01*
X1629705Y-8533984D02*
X1620182Y-8524460D01*
X1620182Y-8524460D02*
X1629705Y-8514936D01*
X1629705Y-8514936D02*
X1629705Y-8533984D01*
X1629705Y-8410174D02*
X1639229Y-8419698D01*
X1639229Y-8419698D02*
X1629705Y-8429222D01*
X1629705Y-8429222D02*
X1620182Y-8419698D01*
X1620182Y-8419698D02*
X1629705Y-8410174D01*
X1629705Y-8410174D02*
X1629705Y-8429222D01*
X-202500Y-8762500D02*
X-2500Y-8962500D01*
X-2500Y-8762500D02*
X-202500Y-8962500D01*
X248753Y-8773031D02*
X258277Y-8763508D01*
X258277Y-8763508D02*
X277324Y-8753984D01*
X277324Y-8753984D02*
X324944Y-8753984D01*
X324944Y-8753984D02*
X343991Y-8763508D01*
X343991Y-8763508D02*
X353515Y-8773031D01*
X353515Y-8773031D02*
X363039Y-8792079D01*
X363039Y-8792079D02*
X363039Y-8811127D01*
X363039Y-8811127D02*
X353515Y-8839698D01*
X353515Y-8839698D02*
X239229Y-8953984D01*
X239229Y-8953984D02*
X363039Y-8953984D01*
X448753Y-8934936D02*
X458277Y-8944460D01*
X458277Y-8944460D02*
X448753Y-8953984D01*
X448753Y-8953984D02*
X439229Y-8944460D01*
X439229Y-8944460D02*
X448753Y-8934936D01*
X448753Y-8934936D02*
X448753Y-8953984D01*
X582086Y-8753984D02*
X601134Y-8753984D01*
X601134Y-8753984D02*
X620182Y-8763508D01*
X620182Y-8763508D02*
X629705Y-8773031D01*
X629705Y-8773031D02*
X639229Y-8792079D01*
X639229Y-8792079D02*
X648753Y-8830174D01*
X648753Y-8830174D02*
X648753Y-8877793D01*
X648753Y-8877793D02*
X639229Y-8915889D01*
X639229Y-8915889D02*
X629705Y-8934936D01*
X629705Y-8934936D02*
X620182Y-8944460D01*
X620182Y-8944460D02*
X601134Y-8953984D01*
X601134Y-8953984D02*
X582086Y-8953984D01*
X582086Y-8953984D02*
X563039Y-8944460D01*
X563039Y-8944460D02*
X553515Y-8934936D01*
X553515Y-8934936D02*
X543991Y-8915889D01*
X543991Y-8915889D02*
X534467Y-8877793D01*
X534467Y-8877793D02*
X534467Y-8830174D01*
X534467Y-8830174D02*
X543991Y-8792079D01*
X543991Y-8792079D02*
X553515Y-8773031D01*
X553515Y-8773031D02*
X563039Y-8763508D01*
X563039Y-8763508D02*
X582086Y-8753984D01*
X772562Y-8753984D02*
X791610Y-8753984D01*
X791610Y-8753984D02*
X810658Y-8763508D01*
X810658Y-8763508D02*
X820182Y-8773031D01*
X820182Y-8773031D02*
X829705Y-8792079D01*
X829705Y-8792079D02*
X839229Y-8830174D01*
X839229Y-8830174D02*
X839229Y-8877793D01*
X839229Y-8877793D02*
X829705Y-8915889D01*
X829705Y-8915889D02*
X820182Y-8934936D01*
X820182Y-8934936D02*
X810658Y-8944460D01*
X810658Y-8944460D02*
X791610Y-8953984D01*
X791610Y-8953984D02*
X772562Y-8953984D01*
X772562Y-8953984D02*
X753515Y-8944460D01*
X753515Y-8944460D02*
X743991Y-8934936D01*
X743991Y-8934936D02*
X734467Y-8915889D01*
X734467Y-8915889D02*
X724943Y-8877793D01*
X724943Y-8877793D02*
X724943Y-8830174D01*
X724943Y-8830174D02*
X734467Y-8792079D01*
X734467Y-8792079D02*
X743991Y-8773031D01*
X743991Y-8773031D02*
X753515Y-8763508D01*
X753515Y-8763508D02*
X772562Y-8753984D01*
X963039Y-8753984D02*
X982086Y-8753984D01*
X982086Y-8753984D02*
X1001134Y-8763508D01*
X1001134Y-8763508D02*
X1010658Y-8773031D01*
X1010658Y-8773031D02*
X1020182Y-8792079D01*
X1020182Y-8792079D02*
X1029705Y-8830174D01*
X1029705Y-8830174D02*
X1029705Y-8877793D01*
X1029705Y-8877793D02*
X1020182Y-8915889D01*
X1020182Y-8915889D02*
X1010658Y-8934936D01*
X1010658Y-8934936D02*
X1001134Y-8944460D01*
X1001134Y-8944460D02*
X982086Y-8953984D01*
X982086Y-8953984D02*
X963039Y-8953984D01*
X963039Y-8953984D02*
X943991Y-8944460D01*
X943991Y-8944460D02*
X934467Y-8934936D01*
X934467Y-8934936D02*
X924943Y-8915889D01*
X924943Y-8915889D02*
X915420Y-8877793D01*
X915420Y-8877793D02*
X915420Y-8830174D01*
X915420Y-8830174D02*
X924943Y-8792079D01*
X924943Y-8792079D02*
X934467Y-8773031D01*
X934467Y-8773031D02*
X943991Y-8763508D01*
X943991Y-8763508D02*
X963039Y-8753984D01*
X1115420Y-8953984D02*
X1115420Y-8820650D01*
X1115420Y-8839698D02*
X1124944Y-8830174D01*
X1124944Y-8830174D02*
X1143991Y-8820650D01*
X1143991Y-8820650D02*
X1172563Y-8820650D01*
X1172563Y-8820650D02*
X1191610Y-8830174D01*
X1191610Y-8830174D02*
X1201134Y-8849222D01*
X1201134Y-8849222D02*
X1201134Y-8953984D01*
X1201134Y-8849222D02*
X1210658Y-8830174D01*
X1210658Y-8830174D02*
X1229705Y-8820650D01*
X1229705Y-8820650D02*
X1258277Y-8820650D01*
X1258277Y-8820650D02*
X1277325Y-8830174D01*
X1277325Y-8830174D02*
X1286848Y-8849222D01*
X1286848Y-8849222D02*
X1286848Y-8953984D01*
X1382086Y-8953984D02*
X1382086Y-8820650D01*
X1382086Y-8839698D02*
X1391610Y-8830174D01*
X1391610Y-8830174D02*
X1410658Y-8820650D01*
X1410658Y-8820650D02*
X1439229Y-8820650D01*
X1439229Y-8820650D02*
X1458277Y-8830174D01*
X1458277Y-8830174D02*
X1467801Y-8849222D01*
X1467801Y-8849222D02*
X1467801Y-8953984D01*
X1467801Y-8849222D02*
X1477324Y-8830174D01*
X1477324Y-8830174D02*
X1496372Y-8820650D01*
X1496372Y-8820650D02*
X1524943Y-8820650D01*
X1524943Y-8820650D02*
X1543991Y-8830174D01*
X1543991Y-8830174D02*
X1553515Y-8849222D01*
X1553515Y-8849222D02*
X1553515Y-8953984D01*
X1943991Y-8744460D02*
X1772563Y-9001603D01*
X2201134Y-8753984D02*
X2220182Y-8753984D01*
X2220182Y-8753984D02*
X2239229Y-8763508D01*
X2239229Y-8763508D02*
X2248753Y-8773031D01*
X2248753Y-8773031D02*
X2258277Y-8792079D01*
X2258277Y-8792079D02*
X2267801Y-8830174D01*
X2267801Y-8830174D02*
X2267801Y-8877793D01*
X2267801Y-8877793D02*
X2258277Y-8915889D01*
X2258277Y-8915889D02*
X2248753Y-8934936D01*
X2248753Y-8934936D02*
X2239229Y-8944460D01*
X2239229Y-8944460D02*
X2220182Y-8953984D01*
X2220182Y-8953984D02*
X2201134Y-8953984D01*
X2201134Y-8953984D02*
X2182087Y-8944460D01*
X2182087Y-8944460D02*
X2172563Y-8934936D01*
X2172563Y-8934936D02*
X2163039Y-8915889D01*
X2163039Y-8915889D02*
X2153515Y-8877793D01*
X2153515Y-8877793D02*
X2153515Y-8830174D01*
X2153515Y-8830174D02*
X2163039Y-8792079D01*
X2163039Y-8792079D02*
X2172563Y-8773031D01*
X2172563Y-8773031D02*
X2182087Y-8763508D01*
X2182087Y-8763508D02*
X2201134Y-8753984D01*
X2353515Y-8934936D02*
X2363039Y-8944460D01*
X2363039Y-8944460D02*
X2353515Y-8953984D01*
X2353515Y-8953984D02*
X2343991Y-8944460D01*
X2343991Y-8944460D02*
X2353515Y-8934936D01*
X2353515Y-8934936D02*
X2353515Y-8953984D01*
X2486848Y-8753984D02*
X2505896Y-8753984D01*
X2505896Y-8753984D02*
X2524944Y-8763508D01*
X2524944Y-8763508D02*
X2534468Y-8773031D01*
X2534468Y-8773031D02*
X2543991Y-8792079D01*
X2543991Y-8792079D02*
X2553515Y-8830174D01*
X2553515Y-8830174D02*
X2553515Y-8877793D01*
X2553515Y-8877793D02*
X2543991Y-8915889D01*
X2543991Y-8915889D02*
X2534468Y-8934936D01*
X2534468Y-8934936D02*
X2524944Y-8944460D01*
X2524944Y-8944460D02*
X2505896Y-8953984D01*
X2505896Y-8953984D02*
X2486848Y-8953984D01*
X2486848Y-8953984D02*
X2467801Y-8944460D01*
X2467801Y-8944460D02*
X2458277Y-8934936D01*
X2458277Y-8934936D02*
X2448753Y-8915889D01*
X2448753Y-8915889D02*
X2439229Y-8877793D01*
X2439229Y-8877793D02*
X2439229Y-8830174D01*
X2439229Y-8830174D02*
X2448753Y-8792079D01*
X2448753Y-8792079D02*
X2458277Y-8773031D01*
X2458277Y-8773031D02*
X2467801Y-8763508D01*
X2467801Y-8763508D02*
X2486848Y-8753984D01*
X2620182Y-8753984D02*
X2753515Y-8753984D01*
X2753515Y-8753984D02*
X2667801Y-8953984D01*
X2858277Y-8839698D02*
X2839229Y-8830174D01*
X2839229Y-8830174D02*
X2829706Y-8820650D01*
X2829706Y-8820650D02*
X2820182Y-8801603D01*
X2820182Y-8801603D02*
X2820182Y-8792079D01*
X2820182Y-8792079D02*
X2829706Y-8773031D01*
X2829706Y-8773031D02*
X2839229Y-8763508D01*
X2839229Y-8763508D02*
X2858277Y-8753984D01*
X2858277Y-8753984D02*
X2896372Y-8753984D01*
X2896372Y-8753984D02*
X2915420Y-8763508D01*
X2915420Y-8763508D02*
X2924944Y-8773031D01*
X2924944Y-8773031D02*
X2934467Y-8792079D01*
X2934467Y-8792079D02*
X2934467Y-8801603D01*
X2934467Y-8801603D02*
X2924944Y-8820650D01*
X2924944Y-8820650D02*
X2915420Y-8830174D01*
X2915420Y-8830174D02*
X2896372Y-8839698D01*
X2896372Y-8839698D02*
X2858277Y-8839698D01*
X2858277Y-8839698D02*
X2839229Y-8849222D01*
X2839229Y-8849222D02*
X2829706Y-8858746D01*
X2829706Y-8858746D02*
X2820182Y-8877793D01*
X2820182Y-8877793D02*
X2820182Y-8915889D01*
X2820182Y-8915889D02*
X2829706Y-8934936D01*
X2829706Y-8934936D02*
X2839229Y-8944460D01*
X2839229Y-8944460D02*
X2858277Y-8953984D01*
X2858277Y-8953984D02*
X2896372Y-8953984D01*
X2896372Y-8953984D02*
X2915420Y-8944460D01*
X2915420Y-8944460D02*
X2924944Y-8934936D01*
X2924944Y-8934936D02*
X2934467Y-8915889D01*
X2934467Y-8915889D02*
X2934467Y-8877793D01*
X2934467Y-8877793D02*
X2924944Y-8858746D01*
X2924944Y-8858746D02*
X2915420Y-8849222D01*
X2915420Y-8849222D02*
X2896372Y-8839698D01*
X3001134Y-8753984D02*
X3134467Y-8753984D01*
X3134467Y-8753984D02*
X3048753Y-8953984D01*
X3201134Y-8753984D02*
X3201134Y-8792079D01*
X3277325Y-8753984D02*
X3277325Y-8792079D01*
X3572563Y-9030174D02*
X3563039Y-9020650D01*
X3563039Y-9020650D02*
X3543991Y-8992079D01*
X3543991Y-8992079D02*
X3534468Y-8973031D01*
X3534468Y-8973031D02*
X3524944Y-8944460D01*
X3524944Y-8944460D02*
X3515420Y-8896841D01*
X3515420Y-8896841D02*
X3515420Y-8858746D01*
X3515420Y-8858746D02*
X3524944Y-8811127D01*
X3524944Y-8811127D02*
X3534468Y-8782555D01*
X3534468Y-8782555D02*
X3543991Y-8763508D01*
X3543991Y-8763508D02*
X3563039Y-8734936D01*
X3563039Y-8734936D02*
X3572563Y-8725412D01*
X3734468Y-8820650D02*
X3734468Y-8953984D01*
X3686848Y-8744460D02*
X3639229Y-8887317D01*
X3639229Y-8887317D02*
X3763039Y-8887317D01*
X3991610Y-8953984D02*
X3991610Y-8753984D01*
X4077325Y-8953984D02*
X4077325Y-8849222D01*
X4077325Y-8849222D02*
X4067801Y-8830174D01*
X4067801Y-8830174D02*
X4048753Y-8820650D01*
X4048753Y-8820650D02*
X4020182Y-8820650D01*
X4020182Y-8820650D02*
X4001134Y-8830174D01*
X4001134Y-8830174D02*
X3991610Y-8839698D01*
X4201134Y-8953984D02*
X4182087Y-8944460D01*
X4182087Y-8944460D02*
X4172563Y-8934936D01*
X4172563Y-8934936D02*
X4163039Y-8915889D01*
X4163039Y-8915889D02*
X4163039Y-8858746D01*
X4163039Y-8858746D02*
X4172563Y-8839698D01*
X4172563Y-8839698D02*
X4182087Y-8830174D01*
X4182087Y-8830174D02*
X4201134Y-8820650D01*
X4201134Y-8820650D02*
X4229706Y-8820650D01*
X4229706Y-8820650D02*
X4248753Y-8830174D01*
X4248753Y-8830174D02*
X4258277Y-8839698D01*
X4258277Y-8839698D02*
X4267801Y-8858746D01*
X4267801Y-8858746D02*
X4267801Y-8915889D01*
X4267801Y-8915889D02*
X4258277Y-8934936D01*
X4258277Y-8934936D02*
X4248753Y-8944460D01*
X4248753Y-8944460D02*
X4229706Y-8953984D01*
X4229706Y-8953984D02*
X4201134Y-8953984D01*
X4382087Y-8953984D02*
X4363039Y-8944460D01*
X4363039Y-8944460D02*
X4353515Y-8925412D01*
X4353515Y-8925412D02*
X4353515Y-8753984D01*
X4534468Y-8944460D02*
X4515420Y-8953984D01*
X4515420Y-8953984D02*
X4477325Y-8953984D01*
X4477325Y-8953984D02*
X4458277Y-8944460D01*
X4458277Y-8944460D02*
X4448753Y-8925412D01*
X4448753Y-8925412D02*
X4448753Y-8849222D01*
X4448753Y-8849222D02*
X4458277Y-8830174D01*
X4458277Y-8830174D02*
X4477325Y-8820650D01*
X4477325Y-8820650D02*
X4515420Y-8820650D01*
X4515420Y-8820650D02*
X4534468Y-8830174D01*
X4534468Y-8830174D02*
X4543992Y-8849222D01*
X4543992Y-8849222D02*
X4543992Y-8868270D01*
X4543992Y-8868270D02*
X4448753Y-8887317D01*
X4620182Y-8944460D02*
X4639230Y-8953984D01*
X4639230Y-8953984D02*
X4677325Y-8953984D01*
X4677325Y-8953984D02*
X4696373Y-8944460D01*
X4696373Y-8944460D02*
X4705896Y-8925412D01*
X4705896Y-8925412D02*
X4705896Y-8915889D01*
X4705896Y-8915889D02*
X4696373Y-8896841D01*
X4696373Y-8896841D02*
X4677325Y-8887317D01*
X4677325Y-8887317D02*
X4648753Y-8887317D01*
X4648753Y-8887317D02*
X4629706Y-8877793D01*
X4629706Y-8877793D02*
X4620182Y-8858746D01*
X4620182Y-8858746D02*
X4620182Y-8849222D01*
X4620182Y-8849222D02*
X4629706Y-8830174D01*
X4629706Y-8830174D02*
X4648753Y-8820650D01*
X4648753Y-8820650D02*
X4677325Y-8820650D01*
X4677325Y-8820650D02*
X4696373Y-8830174D01*
X4772563Y-9030174D02*
X4782087Y-9020650D01*
X4782087Y-9020650D02*
X4801134Y-8992079D01*
X4801134Y-8992079D02*
X4810658Y-8973031D01*
X4810658Y-8973031D02*
X4820182Y-8944460D01*
X4820182Y-8944460D02*
X4829706Y-8896841D01*
X4829706Y-8896841D02*
X4829706Y-8858746D01*
X4829706Y-8858746D02*
X4820182Y-8811127D01*
X4820182Y-8811127D02*
X4810658Y-8782555D01*
X4810658Y-8782555D02*
X4801134Y-8763508D01*
X4801134Y-8763508D02*
X4782087Y-8734936D01*
X4782087Y-8734936D02*
X4772563Y-8725412D01*
X5134468Y-9030174D02*
X5124944Y-9020650D01*
X5124944Y-9020650D02*
X5105896Y-8992079D01*
X5105896Y-8992079D02*
X5096373Y-8973031D01*
X5096373Y-8973031D02*
X5086849Y-8944460D01*
X5086849Y-8944460D02*
X5077325Y-8896841D01*
X5077325Y-8896841D02*
X5077325Y-8858746D01*
X5077325Y-8858746D02*
X5086849Y-8811127D01*
X5086849Y-8811127D02*
X5096373Y-8782555D01*
X5096373Y-8782555D02*
X5105896Y-8763508D01*
X5105896Y-8763508D02*
X5124944Y-8734936D01*
X5124944Y-8734936D02*
X5134468Y-8725412D01*
X5210658Y-8820650D02*
X5210658Y-8953984D01*
X5210658Y-8839698D02*
X5220182Y-8830174D01*
X5220182Y-8830174D02*
X5239230Y-8820650D01*
X5239230Y-8820650D02*
X5267801Y-8820650D01*
X5267801Y-8820650D02*
X5286849Y-8830174D01*
X5286849Y-8830174D02*
X5296373Y-8849222D01*
X5296373Y-8849222D02*
X5296373Y-8953984D01*
X5420182Y-8953984D02*
X5401134Y-8944460D01*
X5401134Y-8944460D02*
X5391611Y-8934936D01*
X5391611Y-8934936D02*
X5382087Y-8915889D01*
X5382087Y-8915889D02*
X5382087Y-8858746D01*
X5382087Y-8858746D02*
X5391611Y-8839698D01*
X5391611Y-8839698D02*
X5401134Y-8830174D01*
X5401134Y-8830174D02*
X5420182Y-8820650D01*
X5420182Y-8820650D02*
X5448754Y-8820650D01*
X5448754Y-8820650D02*
X5467801Y-8830174D01*
X5467801Y-8830174D02*
X5477325Y-8839698D01*
X5477325Y-8839698D02*
X5486849Y-8858746D01*
X5486849Y-8858746D02*
X5486849Y-8915889D01*
X5486849Y-8915889D02*
X5477325Y-8934936D01*
X5477325Y-8934936D02*
X5467801Y-8944460D01*
X5467801Y-8944460D02*
X5448754Y-8953984D01*
X5448754Y-8953984D02*
X5420182Y-8953984D01*
X5543992Y-8820650D02*
X5620182Y-8820650D01*
X5572563Y-8753984D02*
X5572563Y-8925412D01*
X5572563Y-8925412D02*
X5582087Y-8944460D01*
X5582087Y-8944460D02*
X5601134Y-8953984D01*
X5601134Y-8953984D02*
X5620182Y-8953984D01*
X5839230Y-8820650D02*
X5839230Y-9020650D01*
X5839230Y-8830174D02*
X5858277Y-8820650D01*
X5858277Y-8820650D02*
X5896373Y-8820650D01*
X5896373Y-8820650D02*
X5915420Y-8830174D01*
X5915420Y-8830174D02*
X5924944Y-8839698D01*
X5924944Y-8839698D02*
X5934468Y-8858746D01*
X5934468Y-8858746D02*
X5934468Y-8915889D01*
X5934468Y-8915889D02*
X5924944Y-8934936D01*
X5924944Y-8934936D02*
X5915420Y-8944460D01*
X5915420Y-8944460D02*
X5896373Y-8953984D01*
X5896373Y-8953984D02*
X5858277Y-8953984D01*
X5858277Y-8953984D02*
X5839230Y-8944460D01*
X6048753Y-8953984D02*
X6029706Y-8944460D01*
X6029706Y-8944460D02*
X6020182Y-8925412D01*
X6020182Y-8925412D02*
X6020182Y-8753984D01*
X6210658Y-8953984D02*
X6210658Y-8849222D01*
X6210658Y-8849222D02*
X6201134Y-8830174D01*
X6201134Y-8830174D02*
X6182087Y-8820650D01*
X6182087Y-8820650D02*
X6143992Y-8820650D01*
X6143992Y-8820650D02*
X6124944Y-8830174D01*
X6210658Y-8944460D02*
X6191611Y-8953984D01*
X6191611Y-8953984D02*
X6143992Y-8953984D01*
X6143992Y-8953984D02*
X6124944Y-8944460D01*
X6124944Y-8944460D02*
X6115420Y-8925412D01*
X6115420Y-8925412D02*
X6115420Y-8906365D01*
X6115420Y-8906365D02*
X6124944Y-8887317D01*
X6124944Y-8887317D02*
X6143992Y-8877793D01*
X6143992Y-8877793D02*
X6191611Y-8877793D01*
X6191611Y-8877793D02*
X6210658Y-8868270D01*
X6277325Y-8820650D02*
X6353515Y-8820650D01*
X6305896Y-8753984D02*
X6305896Y-8925412D01*
X6305896Y-8925412D02*
X6315420Y-8944460D01*
X6315420Y-8944460D02*
X6334468Y-8953984D01*
X6334468Y-8953984D02*
X6353515Y-8953984D01*
X6496373Y-8944460D02*
X6477325Y-8953984D01*
X6477325Y-8953984D02*
X6439230Y-8953984D01*
X6439230Y-8953984D02*
X6420182Y-8944460D01*
X6420182Y-8944460D02*
X6410658Y-8925412D01*
X6410658Y-8925412D02*
X6410658Y-8849222D01*
X6410658Y-8849222D02*
X6420182Y-8830174D01*
X6420182Y-8830174D02*
X6439230Y-8820650D01*
X6439230Y-8820650D02*
X6477325Y-8820650D01*
X6477325Y-8820650D02*
X6496373Y-8830174D01*
X6496373Y-8830174D02*
X6505896Y-8849222D01*
X6505896Y-8849222D02*
X6505896Y-8868270D01*
X6505896Y-8868270D02*
X6410658Y-8887317D01*
X6677325Y-8953984D02*
X6677325Y-8753984D01*
X6677325Y-8944460D02*
X6658277Y-8953984D01*
X6658277Y-8953984D02*
X6620182Y-8953984D01*
X6620182Y-8953984D02*
X6601134Y-8944460D01*
X6601134Y-8944460D02*
X6591611Y-8934936D01*
X6591611Y-8934936D02*
X6582087Y-8915889D01*
X6582087Y-8915889D02*
X6582087Y-8858746D01*
X6582087Y-8858746D02*
X6591611Y-8839698D01*
X6591611Y-8839698D02*
X6601134Y-8830174D01*
X6601134Y-8830174D02*
X6620182Y-8820650D01*
X6620182Y-8820650D02*
X6658277Y-8820650D01*
X6658277Y-8820650D02*
X6677325Y-8830174D01*
X6753515Y-9030174D02*
X6763039Y-9020650D01*
X6763039Y-9020650D02*
X6782087Y-8992079D01*
X6782087Y-8992079D02*
X6791611Y-8973031D01*
X6791611Y-8973031D02*
X6801134Y-8944460D01*
X6801134Y-8944460D02*
X6810658Y-8896841D01*
X6810658Y-8896841D02*
X6810658Y-8858746D01*
X6810658Y-8858746D02*
X6801134Y-8811127D01*
X6801134Y-8811127D02*
X6791611Y-8782555D01*
X6791611Y-8782555D02*
X6782087Y-8763508D01*
X6782087Y-8763508D02*
X6763039Y-8734936D01*
X6763039Y-8734936D02*
X6753515Y-8725412D01*
M02*
