M48
; DRILL file {KiCad 9.0.2+dfsg-1} date 2026-10-04T10:34:03-0400
; FORMAT={-:-/ absolute / metric / decimal}
; #@! TF.CreationDate,2026-10-04T10:34:03-04:00
; #@! TF.GenerationSoftware,Kicad,Pcbnew,9.0.2+dfsg-1
; #@! TF.FileFunction,Plated,1,2,PTH
FMAT,2
METRIC
; #@! TA.AperFunction,Plated,PTH,ViaDrill
T1C0.300
; #@! TA.AperFunction,Plated,PTH,ComponentDrill
T2C0.750
; #@! TA.AperFunction,Plated,PTH,ComponentDrill
T3C2.300
%
G90
G05
T1
X9.55Y-59.2
X9.55Y-62.2
X9.55Y-64.2
X9.55Y-67.2
X9.55Y-69.7
X9.55Y-71.7
X21.281Y-12.682
X21.281Y-24.482
X21.281Y-36.282
X21.281Y-48.082
X24.05Y-15.75
X24.05Y-27.55
X24.05Y-39.35
X24.05Y-51.15
X24.65Y-15.75
X24.65Y-27.55
X24.65Y-39.35
X24.65Y-51.15
X24.95Y-12.05
X24.95Y-12.75
X24.95Y-23.85
X24.95Y-24.55
X24.95Y-35.65
X24.95Y-36.35
X24.95Y-47.45
X24.95Y-48.15
X34.878Y-12.05
X34.878Y-12.75
X34.878Y-23.85
X34.878Y-24.55
X34.878Y-35.65
X34.878Y-36.35
X34.878Y-47.45
X34.878Y-48.15
X38.428Y-12.4
X38.428Y-24.2
X38.428Y-36.0
X38.428Y-47.8
X39.428Y-12.4
X39.428Y-24.2
X39.428Y-36.0
X39.428Y-47.8
X40.628Y-12.4
X40.628Y-24.2
X40.628Y-36.0
X40.628Y-47.8
X41.828Y-12.4
X41.828Y-24.2
X41.828Y-36.0
X41.828Y-47.8
X43.028Y-12.4
X43.028Y-24.2
X43.028Y-36.0
X43.028Y-47.8
X43.728Y-12.4
X43.728Y-24.2
X43.728Y-36.0
X43.728Y-47.8
X45.228Y-14.8
X45.228Y-26.6
X45.228Y-38.4
X45.228Y-50.2
X45.428Y-10.0
X45.428Y-21.8
X45.428Y-33.6
X45.428Y-45.4
X47.585Y-10.413
X47.585Y-22.213
X47.585Y-34.013
X47.585Y-45.813
X48.863Y-14.85
X48.863Y-26.65
X48.863Y-38.45
X48.863Y-50.25
X49.303Y-10.95
X49.303Y-13.85
X49.303Y-22.75
X49.303Y-25.65
X49.303Y-34.55
X49.303Y-37.45
X49.303Y-46.35
X49.303Y-49.25
X64.45Y-59.2
X64.45Y-62.2
X64.45Y-64.2
X64.45Y-67.2
X64.45Y-69.7
X64.45Y-71.7
T2
X12.4Y-11.6
X12.4Y-23.4
X12.4Y-35.2
X12.4Y-47.0
X12.9Y-13.2
X12.9Y-25.0
X12.9Y-36.8
X12.9Y-48.6
X14.4Y-11.6
X14.4Y-23.4
X14.4Y-35.2
X14.4Y-47.0
X15.4Y-13.2
X15.4Y-25.0
X15.4Y-36.8
X15.4Y-48.6
X16.4Y-11.6
X16.4Y-23.4
X16.4Y-35.2
X16.4Y-47.0
X17.4Y-13.2
X17.4Y-25.0
X17.4Y-36.8
X17.4Y-48.6
X18.4Y-11.6
X18.4Y-23.4
X18.4Y-35.2
X18.4Y-47.0
X19.9Y-13.2
X19.9Y-25.0
X19.9Y-36.8
X19.9Y-48.6
X20.4Y-11.6
X20.4Y-23.4
X20.4Y-35.2
X20.4Y-47.0
T3
X9.825Y-13.05
X9.825Y-24.85
X9.825Y-36.65
X9.825Y-48.45
X22.975Y-13.05
X22.975Y-24.85
X22.975Y-36.65
X22.975Y-48.45
M30
