G04 #@! TF.GenerationSoftware,KiCad,Pcbnew,9.0.2+dfsg-1*
G04 #@! TF.CreationDate,2026-10-04T09:34:10-04:00*
G04 #@! TF.ProjectId,panel_a25,70616e65-6c5f-4613-9235-2e6b69636164,rev?*
G04 #@! TF.SameCoordinates,Original*
G04 #@! TF.FileFunction,Soldermask,Top*
G04 #@! TF.FilePolarity,Negative*
%FSLAX46Y46*%
G04 Gerber Fmt 4.6, Leading zero omitted, Abs format (unit mm)*
G04 Created by KiCad (PCBNEW 9.0.2+dfsg-1) date 2026-10-04 09:34:10*
%MOMM*%
%LPD*%
G01*
G04 APERTURE LIST*
G04 Aperture macros list*
%AMRoundRect*
0 Rectangle with rounded corners*
0 $1 Rounding radius*
0 $2 $3 $4 $5 $6 $7 $8 $9 X,Y pos of 4 corners*
0 Add a 4 corners polygon primitive as box body*
4,1,4,$2,$3,$4,$5,$6,$7,$8,$9,$2,$3,0*
0 Add four circle primitives for the rounded corners*
1,1,$1+$1,$2,$3*
1,1,$1+$1,$4,$5*
1,1,$1+$1,$6,$7*
1,1,$1+$1,$8,$9*
0 Add four rect primitives between the rounded corners*
20,1,$1+$1,$2,$3,$4,$5,0*
20,1,$1+$1,$4,$5,$6,$7,0*
20,1,$1+$1,$6,$7,$8,$9,0*
20,1,$1+$1,$8,$9,$2,$3,0*%
G04 Aperture macros list end*
%ADD10C,2.000000*%
%ADD11R,0.800000X0.500000*%
%ADD12RoundRect,0.062500X0.372500X0.062500X-0.372500X0.062500X-0.372500X-0.062500X0.372500X-0.062500X0*%
%ADD13R,0.610000X2.200000*%
%ADD14RoundRect,0.057500X-0.057500X-0.292500X0.057500X-0.292500X0.057500X0.292500X-0.057500X0.292500X0*%
%ADD15C,1.250000*%
%ADD16C,2.800000*%
%ADD17RoundRect,0.100000X-0.130000X-0.100000X0.130000X-0.100000X0.130000X0.100000X-0.130000X0.100000X0*%
G04 APERTURE END LIST*
D10*
G04 #@! TO.C,FID7*
X2500000Y-36000000D03*
G04 #@! TD*
G04 #@! TO.C,FID6*
X2500000Y-24200000D03*
G04 #@! TD*
D11*
G04 #@! TO.C,TP3A_T*
X10400000Y-71700001D03*
X10400000Y-70700001D03*
X10400000Y-69700001D03*
G04 #@! TD*
D12*
G04 #@! TO.C,U1_A1*
X48468000Y-13150000D03*
X48468000Y-12650000D03*
X48468000Y-12150000D03*
X48468000Y-11650000D03*
X46588000Y-11650000D03*
X46588000Y-12150000D03*
X46588000Y-12650000D03*
X46588000Y-13150000D03*
D13*
X47528000Y-12400000D03*
G04 #@! TD*
D11*
G04 #@! TO.C,TP3B_T*
X63600000Y-71700001D03*
X63600000Y-70700001D03*
X63600000Y-69700001D03*
G04 #@! TD*
D10*
G04 #@! TO.C,FID5*
X2500000Y-12400000D03*
G04 #@! TD*
D14*
G04 #@! TO.C,J2_A3*
X34993000Y-34700001D03*
X34993000Y-37300001D03*
X35393000Y-34700001D03*
X35393000Y-37300001D03*
X35793000Y-34700001D03*
X35793000Y-37300001D03*
X36193000Y-34700001D03*
X36193000Y-37300001D03*
X36593000Y-34700001D03*
X36593000Y-37300001D03*
X36993000Y-34700001D03*
X36993000Y-37300001D03*
X37393000Y-34700001D03*
X37393000Y-37300001D03*
X37793000Y-34700001D03*
X37793000Y-37300001D03*
X38193000Y-34700001D03*
X38193000Y-37300001D03*
X38593000Y-34700001D03*
X38593000Y-37300001D03*
X38993000Y-34700001D03*
X38993000Y-37300001D03*
X39393000Y-34700001D03*
X39393000Y-37300001D03*
X39793000Y-34700001D03*
X39793000Y-37300001D03*
X40193000Y-34700001D03*
X40193000Y-37300001D03*
X40593000Y-34700001D03*
X40593000Y-37300001D03*
X40993000Y-34700001D03*
X40993000Y-37300001D03*
X41393000Y-34700001D03*
X41393000Y-37300001D03*
X41793000Y-34700001D03*
X41793000Y-37300001D03*
X42193000Y-34700001D03*
X42193000Y-37300001D03*
X42593000Y-34700001D03*
X42593000Y-37300001D03*
X42993000Y-34700001D03*
X42993000Y-37300001D03*
X43393000Y-34700001D03*
X43393000Y-37300001D03*
X43793000Y-34700001D03*
X43793000Y-37300001D03*
X44193000Y-34700001D03*
X44193000Y-37300001D03*
X44593000Y-34700001D03*
X44593000Y-37300001D03*
G04 #@! TD*
D15*
G04 #@! TO.C,J1_A1*
X12900000Y-13200000D03*
X15400000Y-13200000D03*
X17400000Y-13200000D03*
X19900000Y-13200000D03*
X20400000Y-11600000D03*
X18400000Y-11600000D03*
X16400000Y-11600000D03*
X14400000Y-11600000D03*
X12400000Y-11600000D03*
D16*
X9825000Y-13050000D03*
X22975000Y-13050000D03*
G04 #@! TD*
D14*
G04 #@! TO.C,J2_A1*
X34993000Y-11100000D03*
X34993000Y-13700000D03*
X35393000Y-11100000D03*
X35393000Y-13700000D03*
X35793000Y-11100000D03*
X35793000Y-13700000D03*
X36193000Y-11100000D03*
X36193000Y-13700000D03*
X36593000Y-11100000D03*
X36593000Y-13700000D03*
X36993000Y-11100000D03*
X36993000Y-13700000D03*
X37393000Y-11100000D03*
X37393000Y-13700000D03*
X37793000Y-11100000D03*
X37793000Y-13700000D03*
X38193000Y-11100000D03*
X38193000Y-13700000D03*
X38593000Y-11100000D03*
X38593000Y-13700000D03*
X38993000Y-11100000D03*
X38993000Y-13700000D03*
X39393000Y-11100000D03*
X39393000Y-13700000D03*
X39793000Y-11100000D03*
X39793000Y-13700000D03*
X40193000Y-11100000D03*
X40193000Y-13700000D03*
X40593000Y-11100000D03*
X40593000Y-13700000D03*
X40993000Y-11100000D03*
X40993000Y-13700000D03*
X41393000Y-11100000D03*
X41393000Y-13700000D03*
X41793000Y-11100000D03*
X41793000Y-13700000D03*
X42193000Y-11100000D03*
X42193000Y-13700000D03*
X42593000Y-11100000D03*
X42593000Y-13700000D03*
X42993000Y-11100000D03*
X42993000Y-13700000D03*
X43393000Y-11100000D03*
X43393000Y-13700000D03*
X43793000Y-11100000D03*
X43793000Y-13700000D03*
X44193000Y-11100000D03*
X44193000Y-13700000D03*
X44593000Y-11100000D03*
X44593000Y-13700000D03*
G04 #@! TD*
D12*
G04 #@! TO.C,U1_A2*
X48468000Y-24950001D03*
X48468000Y-24450001D03*
X48468000Y-23950001D03*
X48468000Y-23450001D03*
X46588000Y-23450001D03*
X46588000Y-23950001D03*
X46588000Y-24450001D03*
X46588000Y-24950001D03*
D13*
X47528000Y-24200001D03*
G04 #@! TD*
D11*
G04 #@! TO.C,TP1A_T*
X10400000Y-62200001D03*
X10400000Y-61200001D03*
X10400000Y-60200001D03*
X10400000Y-59200001D03*
G04 #@! TD*
D10*
G04 #@! TO.C,FID1*
X10000000Y-3850000D03*
G04 #@! TD*
G04 #@! TO.C,FID4*
X59000000Y-78350000D03*
G04 #@! TD*
D15*
G04 #@! TO.C,J1_A3*
X12900000Y-36800001D03*
X15400000Y-36800001D03*
X17400000Y-36800001D03*
X19900000Y-36800001D03*
X20400000Y-35200001D03*
X18400000Y-35200001D03*
X16400000Y-35200001D03*
X14400000Y-35200001D03*
X12400000Y-35200001D03*
D16*
X9825000Y-36650001D03*
X22975000Y-36650001D03*
G04 #@! TD*
D15*
G04 #@! TO.C,J1_A2*
X12900000Y-25000001D03*
X15400000Y-25000001D03*
X17400000Y-25000001D03*
X19900000Y-25000001D03*
X20400000Y-23400001D03*
X18400000Y-23400001D03*
X16400000Y-23400001D03*
X14400000Y-23400001D03*
X12400000Y-23400001D03*
D16*
X9825000Y-24850001D03*
X22975000Y-24850001D03*
G04 #@! TD*
D17*
G04 #@! TO.C,C1_A1*
X46608000Y-14800000D03*
X47248000Y-14800000D03*
G04 #@! TD*
D10*
G04 #@! TO.C,TH1*
X2500000Y-2500000D03*
G04 #@! TD*
D17*
G04 #@! TO.C,C1_A4*
X46608000Y-50200001D03*
X47248000Y-50200001D03*
G04 #@! TD*
D11*
G04 #@! TO.C,TP2A_T*
X10400000Y-67200001D03*
X10400000Y-66200001D03*
X10400000Y-65200001D03*
X10400000Y-64200001D03*
G04 #@! TD*
D10*
G04 #@! TO.C,FID3*
X10000000Y-78350000D03*
G04 #@! TD*
D12*
G04 #@! TO.C,U1_A4*
X48468000Y-48550001D03*
X48468000Y-48050001D03*
X48468000Y-47550001D03*
X48468000Y-47050001D03*
X46588000Y-47050001D03*
X46588000Y-47550001D03*
X46588000Y-48050001D03*
X46588000Y-48550001D03*
D13*
X47528000Y-47800001D03*
G04 #@! TD*
D10*
G04 #@! TO.C,FID8*
X2500000Y-47800000D03*
G04 #@! TD*
D14*
G04 #@! TO.C,J2_A4*
X34993000Y-46500001D03*
X34993000Y-49100001D03*
X35393000Y-46500001D03*
X35393000Y-49100001D03*
X35793000Y-46500001D03*
X35793000Y-49100001D03*
X36193000Y-46500001D03*
X36193000Y-49100001D03*
X36593000Y-46500001D03*
X36593000Y-49100001D03*
X36993000Y-46500001D03*
X36993000Y-49100001D03*
X37393000Y-46500001D03*
X37393000Y-49100001D03*
X37793000Y-46500001D03*
X37793000Y-49100001D03*
X38193000Y-46500001D03*
X38193000Y-49100001D03*
X38593000Y-46500001D03*
X38593000Y-49100001D03*
X38993000Y-46500001D03*
X38993000Y-49100001D03*
X39393000Y-46500001D03*
X39393000Y-49100001D03*
X39793000Y-46500001D03*
X39793000Y-49100001D03*
X40193000Y-46500001D03*
X40193000Y-49100001D03*
X40593000Y-46500001D03*
X40593000Y-49100001D03*
X40993000Y-46500001D03*
X40993000Y-49100001D03*
X41393000Y-46500001D03*
X41393000Y-49100001D03*
X41793000Y-46500001D03*
X41793000Y-49100001D03*
X42193000Y-46500001D03*
X42193000Y-49100001D03*
X42593000Y-46500001D03*
X42593000Y-49100001D03*
X42993000Y-46500001D03*
X42993000Y-49100001D03*
X43393000Y-46500001D03*
X43393000Y-49100001D03*
X43793000Y-46500001D03*
X43793000Y-49100001D03*
X44193000Y-46500001D03*
X44193000Y-49100001D03*
X44593000Y-46500001D03*
X44593000Y-49100001D03*
G04 #@! TD*
D11*
G04 #@! TO.C,TP1B_T*
X63600000Y-62200001D03*
X63600000Y-61200001D03*
X63600000Y-60200001D03*
X63600000Y-59200001D03*
G04 #@! TD*
D17*
G04 #@! TO.C,C1_A2*
X46608000Y-26600001D03*
X47248000Y-26600001D03*
G04 #@! TD*
G04 #@! TO.C,C1_A3*
X46608000Y-38400001D03*
X47248000Y-38400001D03*
G04 #@! TD*
D12*
G04 #@! TO.C,U1_A3*
X48468000Y-36750001D03*
X48468000Y-36250001D03*
X48468000Y-35750001D03*
X48468000Y-35250001D03*
X46588000Y-35250001D03*
X46588000Y-35750001D03*
X46588000Y-36250001D03*
X46588000Y-36750001D03*
D13*
X47528000Y-36000001D03*
G04 #@! TD*
D10*
G04 #@! TO.C,FID2*
X64000000Y-3850000D03*
G04 #@! TD*
D14*
G04 #@! TO.C,J2_A2*
X34993000Y-22900001D03*
X34993000Y-25500001D03*
X35393000Y-22900001D03*
X35393000Y-25500001D03*
X35793000Y-22900001D03*
X35793000Y-25500001D03*
X36193000Y-22900001D03*
X36193000Y-25500001D03*
X36593000Y-22900001D03*
X36593000Y-25500001D03*
X36993000Y-22900001D03*
X36993000Y-25500001D03*
X37393000Y-22900001D03*
X37393000Y-25500001D03*
X37793000Y-22900001D03*
X37793000Y-25500001D03*
X38193000Y-22900001D03*
X38193000Y-25500001D03*
X38593000Y-22900001D03*
X38593000Y-25500001D03*
X38993000Y-22900001D03*
X38993000Y-25500001D03*
X39393000Y-22900001D03*
X39393000Y-25500001D03*
X39793000Y-22900001D03*
X39793000Y-25500001D03*
X40193000Y-22900001D03*
X40193000Y-25500001D03*
X40593000Y-22900001D03*
X40593000Y-25500001D03*
X40993000Y-22900001D03*
X40993000Y-25500001D03*
X41393000Y-22900001D03*
X41393000Y-25500001D03*
X41793000Y-22900001D03*
X41793000Y-25500001D03*
X42193000Y-22900001D03*
X42193000Y-25500001D03*
X42593000Y-22900001D03*
X42593000Y-25500001D03*
X42993000Y-22900001D03*
X42993000Y-25500001D03*
X43393000Y-22900001D03*
X43393000Y-25500001D03*
X43793000Y-22900001D03*
X43793000Y-25500001D03*
X44193000Y-22900001D03*
X44193000Y-25500001D03*
X44593000Y-22900001D03*
X44593000Y-25500001D03*
G04 #@! TD*
D10*
G04 #@! TO.C,TH2*
X71500000Y-2500000D03*
G04 #@! TD*
G04 #@! TO.C,TH3*
X2500000Y-79700000D03*
G04 #@! TD*
G04 #@! TO.C,TH4*
X66500000Y-79700000D03*
G04 #@! TD*
D11*
G04 #@! TO.C,TP2B_T*
X63600000Y-67200001D03*
X63600000Y-66200001D03*
X63600000Y-65200001D03*
X63600000Y-64200001D03*
G04 #@! TD*
D15*
G04 #@! TO.C,J1_A4*
X12900000Y-48600001D03*
X15400000Y-48600001D03*
X17400000Y-48600001D03*
X19900000Y-48600001D03*
X20400000Y-47000001D03*
X18400000Y-47000001D03*
X16400000Y-47000001D03*
X14400000Y-47000001D03*
X12400000Y-47000001D03*
D16*
X9825000Y-48450001D03*
X22975000Y-48450001D03*
G04 #@! TD*
M02*
