G04 #@! TF.GenerationSoftware,KiCad,Pcbnew,9.0.2+dfsg-1*
G04 #@! TF.CreationDate,2026-10-04T09:34:10-04:00*
G04 #@! TF.ProjectId,panel_a25,70616e65-6c5f-4613-9235-2e6b69636164,rev?*
G04 #@! TF.SameCoordinates,Original*
G04 #@! TF.FileFunction,Other,User*
%FSLAX46Y46*%
G04 Gerber Fmt 4.6, Leading zero omitted, Abs format (unit mm)*
G04 Created by KiCad (PCBNEW 9.0.2+dfsg-1) date 2026-10-04 09:34:10*
%MOMM*%
%LPD*%
G01*
G04 APERTURE LIST*
%ADD10C,0.100000*%
%ADD11C,0.084000*%
G04 APERTURE END LIST*
D10*
X33878000Y-39200001D02*
X49223000Y-39200001D01*
X33878000Y-15600000D02*
X49223000Y-15600000D01*
X49223000Y-27400001D02*
X49223000Y-21000001D01*
X25400000Y-31600001D02*
X8000000Y-31600001D01*
X33878000Y-9200000D02*
X33878000Y-15600000D01*
X49223000Y-32800001D02*
X33878000Y-32800001D01*
X25400000Y-43400001D02*
X8000000Y-43400001D01*
X25400000Y-8000000D02*
X8000000Y-8000000D01*
X33878000Y-32800001D02*
X33878000Y-39200001D01*
X8000000Y-31600001D02*
X8000000Y-40400001D01*
X49223000Y-44600001D02*
X33878000Y-44600001D01*
X33878000Y-21000001D02*
X33878000Y-27400001D01*
X25400000Y-28600001D02*
X25400000Y-19800001D01*
X49223000Y-15600000D02*
X49223000Y-9200000D01*
X49223000Y-21000001D02*
X33878000Y-21000001D01*
X25400000Y-52200001D02*
X25400000Y-43400001D01*
X8000000Y-19800001D02*
X8000000Y-28600001D01*
X49223000Y-9200000D02*
X33878000Y-9200000D01*
X33878000Y-27400001D02*
X49223000Y-27400001D01*
X8000000Y-43400001D02*
X8000000Y-52200001D01*
X33878000Y-44600001D02*
X33878000Y-51000001D01*
X49223000Y-51000001D02*
X49223000Y-44600001D01*
X8000000Y-52200001D02*
X25400000Y-52200001D01*
X8000000Y-40400001D02*
X25400000Y-40400001D01*
X33878000Y-51000001D02*
X49223000Y-51000001D01*
X25400000Y-40400001D02*
X25400000Y-31600001D01*
X25400000Y-16800000D02*
X25400000Y-8000000D01*
X49223000Y-39200001D02*
X49223000Y-32800001D01*
X8000000Y-28600001D02*
X25400000Y-28600001D01*
X8000000Y-16800000D02*
X25400000Y-16800000D01*
X25400000Y-19800001D02*
X8000000Y-19800001D01*
X8000000Y-8000000D02*
X8000000Y-16800000D01*
D11*
X29435856Y-51958918D02*
X29235856Y-51958918D01*
X29235856Y-52273204D02*
X29235856Y-51673204D01*
X29235856Y-51673204D02*
X29521570Y-51673204D01*
X30092999Y-52273204D02*
X29892999Y-51987490D01*
X29750142Y-52273204D02*
X29750142Y-51673204D01*
X29750142Y-51673204D02*
X29978713Y-51673204D01*
X29978713Y-51673204D02*
X30035856Y-51701775D01*
X30035856Y-51701775D02*
X30064427Y-51730347D01*
X30064427Y-51730347D02*
X30092999Y-51787490D01*
X30092999Y-51787490D02*
X30092999Y-51873204D01*
X30092999Y-51873204D02*
X30064427Y-51930347D01*
X30064427Y-51930347D02*
X30035856Y-51958918D01*
X30035856Y-51958918D02*
X29978713Y-51987490D01*
X29978713Y-51987490D02*
X29750142Y-51987490D01*
X30607285Y-51873204D02*
X30607285Y-52273204D01*
X30464427Y-51644633D02*
X30321570Y-52073204D01*
X30321570Y-52073204D02*
X30692999Y-52073204D01*
X31492999Y-51673204D02*
X31550142Y-51673204D01*
X31550142Y-51673204D02*
X31607285Y-51701775D01*
X31607285Y-51701775D02*
X31635857Y-51730347D01*
X31635857Y-51730347D02*
X31664428Y-51787490D01*
X31664428Y-51787490D02*
X31692999Y-51901775D01*
X31692999Y-51901775D02*
X31692999Y-52044633D01*
X31692999Y-52044633D02*
X31664428Y-52158918D01*
X31664428Y-52158918D02*
X31635857Y-52216061D01*
X31635857Y-52216061D02*
X31607285Y-52244633D01*
X31607285Y-52244633D02*
X31550142Y-52273204D01*
X31550142Y-52273204D02*
X31492999Y-52273204D01*
X31492999Y-52273204D02*
X31435857Y-52244633D01*
X31435857Y-52244633D02*
X31407285Y-52216061D01*
X31407285Y-52216061D02*
X31378714Y-52158918D01*
X31378714Y-52158918D02*
X31350142Y-52044633D01*
X31350142Y-52044633D02*
X31350142Y-51901775D01*
X31350142Y-51901775D02*
X31378714Y-51787490D01*
X31378714Y-51787490D02*
X31407285Y-51730347D01*
X31407285Y-51730347D02*
X31435857Y-51701775D01*
X31435857Y-51701775D02*
X31492999Y-51673204D01*
X31950143Y-52216061D02*
X31978714Y-52244633D01*
X31978714Y-52244633D02*
X31950143Y-52273204D01*
X31950143Y-52273204D02*
X31921571Y-52244633D01*
X31921571Y-52244633D02*
X31950143Y-52216061D01*
X31950143Y-52216061D02*
X31950143Y-52273204D01*
X32493000Y-51673204D02*
X32378714Y-51673204D01*
X32378714Y-51673204D02*
X32321571Y-51701775D01*
X32321571Y-51701775D02*
X32293000Y-51730347D01*
X32293000Y-51730347D02*
X32235857Y-51816061D01*
X32235857Y-51816061D02*
X32207285Y-51930347D01*
X32207285Y-51930347D02*
X32207285Y-52158918D01*
X32207285Y-52158918D02*
X32235857Y-52216061D01*
X32235857Y-52216061D02*
X32264428Y-52244633D01*
X32264428Y-52244633D02*
X32321571Y-52273204D01*
X32321571Y-52273204D02*
X32435857Y-52273204D01*
X32435857Y-52273204D02*
X32493000Y-52244633D01*
X32493000Y-52244633D02*
X32521571Y-52216061D01*
X32521571Y-52216061D02*
X32550142Y-52158918D01*
X32550142Y-52158918D02*
X32550142Y-52016061D01*
X32550142Y-52016061D02*
X32521571Y-51958918D01*
X32521571Y-51958918D02*
X32493000Y-51930347D01*
X32493000Y-51930347D02*
X32435857Y-51901775D01*
X32435857Y-51901775D02*
X32321571Y-51901775D01*
X32321571Y-51901775D02*
X32264428Y-51930347D01*
X32264428Y-51930347D02*
X32235857Y-51958918D01*
X32235857Y-51958918D02*
X32207285Y-52016061D01*
X33235857Y-52244633D02*
X33293000Y-52273204D01*
X33293000Y-52273204D02*
X33407286Y-52273204D01*
X33407286Y-52273204D02*
X33464429Y-52244633D01*
X33464429Y-52244633D02*
X33493000Y-52187490D01*
X33493000Y-52187490D02*
X33493000Y-52158918D01*
X33493000Y-52158918D02*
X33464429Y-52101775D01*
X33464429Y-52101775D02*
X33407286Y-52073204D01*
X33407286Y-52073204D02*
X33321572Y-52073204D01*
X33321572Y-52073204D02*
X33264429Y-52044633D01*
X33264429Y-52044633D02*
X33235857Y-51987490D01*
X33235857Y-51987490D02*
X33235857Y-51958918D01*
X33235857Y-51958918D02*
X33264429Y-51901775D01*
X33264429Y-51901775D02*
X33321572Y-51873204D01*
X33321572Y-51873204D02*
X33407286Y-51873204D01*
X33407286Y-51873204D02*
X33464429Y-51901775D01*
X33664428Y-51873204D02*
X33893000Y-51873204D01*
X33750143Y-51673204D02*
X33750143Y-52187490D01*
X33750143Y-52187490D02*
X33778714Y-52244633D01*
X33778714Y-52244633D02*
X33835857Y-52273204D01*
X33835857Y-52273204D02*
X33893000Y-52273204D01*
X34093000Y-52273204D02*
X34093000Y-51873204D01*
X34093000Y-51673204D02*
X34064428Y-51701775D01*
X34064428Y-51701775D02*
X34093000Y-51730347D01*
X34093000Y-51730347D02*
X34121571Y-51701775D01*
X34121571Y-51701775D02*
X34093000Y-51673204D01*
X34093000Y-51673204D02*
X34093000Y-51730347D01*
X34292999Y-51873204D02*
X34521571Y-51873204D01*
X34378714Y-52273204D02*
X34378714Y-51758918D01*
X34378714Y-51758918D02*
X34407285Y-51701775D01*
X34407285Y-51701775D02*
X34464428Y-51673204D01*
X34464428Y-51673204D02*
X34521571Y-51673204D01*
X34635856Y-51873204D02*
X34864428Y-51873204D01*
X34721571Y-52273204D02*
X34721571Y-51758918D01*
X34721571Y-51758918D02*
X34750142Y-51701775D01*
X34750142Y-51701775D02*
X34807285Y-51673204D01*
X34807285Y-51673204D02*
X34864428Y-51673204D01*
X35292999Y-52244633D02*
X35235856Y-52273204D01*
X35235856Y-52273204D02*
X35121571Y-52273204D01*
X35121571Y-52273204D02*
X35064428Y-52244633D01*
X35064428Y-52244633D02*
X35035856Y-52187490D01*
X35035856Y-52187490D02*
X35035856Y-51958918D01*
X35035856Y-51958918D02*
X35064428Y-51901775D01*
X35064428Y-51901775D02*
X35121571Y-51873204D01*
X35121571Y-51873204D02*
X35235856Y-51873204D01*
X35235856Y-51873204D02*
X35292999Y-51901775D01*
X35292999Y-51901775D02*
X35321571Y-51958918D01*
X35321571Y-51958918D02*
X35321571Y-52016061D01*
X35321571Y-52016061D02*
X35035856Y-52073204D01*
X35578714Y-51873204D02*
X35578714Y-52273204D01*
X35578714Y-51930347D02*
X35607285Y-51901775D01*
X35607285Y-51901775D02*
X35664428Y-51873204D01*
X35664428Y-51873204D02*
X35750142Y-51873204D01*
X35750142Y-51873204D02*
X35807285Y-51901775D01*
X35807285Y-51901775D02*
X35835857Y-51958918D01*
X35835857Y-51958918D02*
X35835857Y-52273204D01*
X36350142Y-52244633D02*
X36292999Y-52273204D01*
X36292999Y-52273204D02*
X36178714Y-52273204D01*
X36178714Y-52273204D02*
X36121571Y-52244633D01*
X36121571Y-52244633D02*
X36092999Y-52187490D01*
X36092999Y-52187490D02*
X36092999Y-51958918D01*
X36092999Y-51958918D02*
X36121571Y-51901775D01*
X36121571Y-51901775D02*
X36178714Y-51873204D01*
X36178714Y-51873204D02*
X36292999Y-51873204D01*
X36292999Y-51873204D02*
X36350142Y-51901775D01*
X36350142Y-51901775D02*
X36378714Y-51958918D01*
X36378714Y-51958918D02*
X36378714Y-52016061D01*
X36378714Y-52016061D02*
X36092999Y-52073204D01*
X36635857Y-52273204D02*
X36635857Y-51873204D01*
X36635857Y-51987490D02*
X36664428Y-51930347D01*
X36664428Y-51930347D02*
X36693000Y-51901775D01*
X36693000Y-51901775D02*
X36750142Y-51873204D01*
X36750142Y-51873204D02*
X36807285Y-51873204D01*
X37635857Y-52501775D02*
X37607286Y-52473204D01*
X37607286Y-52473204D02*
X37550143Y-52387490D01*
X37550143Y-52387490D02*
X37521572Y-52330347D01*
X37521572Y-52330347D02*
X37493000Y-52244633D01*
X37493000Y-52244633D02*
X37464429Y-52101775D01*
X37464429Y-52101775D02*
X37464429Y-51987490D01*
X37464429Y-51987490D02*
X37493000Y-51844633D01*
X37493000Y-51844633D02*
X37521572Y-51758918D01*
X37521572Y-51758918D02*
X37550143Y-51701775D01*
X37550143Y-51701775D02*
X37607286Y-51616061D01*
X37607286Y-51616061D02*
X37635857Y-51587490D01*
X38064429Y-51958918D02*
X38150143Y-51987490D01*
X38150143Y-51987490D02*
X38178714Y-52016061D01*
X38178714Y-52016061D02*
X38207286Y-52073204D01*
X38207286Y-52073204D02*
X38207286Y-52158918D01*
X38207286Y-52158918D02*
X38178714Y-52216061D01*
X38178714Y-52216061D02*
X38150143Y-52244633D01*
X38150143Y-52244633D02*
X38093000Y-52273204D01*
X38093000Y-52273204D02*
X37864429Y-52273204D01*
X37864429Y-52273204D02*
X37864429Y-51673204D01*
X37864429Y-51673204D02*
X38064429Y-51673204D01*
X38064429Y-51673204D02*
X38121572Y-51701775D01*
X38121572Y-51701775D02*
X38150143Y-51730347D01*
X38150143Y-51730347D02*
X38178714Y-51787490D01*
X38178714Y-51787490D02*
X38178714Y-51844633D01*
X38178714Y-51844633D02*
X38150143Y-51901775D01*
X38150143Y-51901775D02*
X38121572Y-51930347D01*
X38121572Y-51930347D02*
X38064429Y-51958918D01*
X38064429Y-51958918D02*
X37864429Y-51958918D01*
X38407286Y-52501775D02*
X38435857Y-52473204D01*
X38435857Y-52473204D02*
X38493000Y-52387490D01*
X38493000Y-52387490D02*
X38521572Y-52330347D01*
X38521572Y-52330347D02*
X38550143Y-52244633D01*
X38550143Y-52244633D02*
X38578714Y-52101775D01*
X38578714Y-52101775D02*
X38578714Y-51987490D01*
X38578714Y-51987490D02*
X38550143Y-51844633D01*
X38550143Y-51844633D02*
X38521572Y-51758918D01*
X38521572Y-51758918D02*
X38493000Y-51701775D01*
X38493000Y-51701775D02*
X38435857Y-51616061D01*
X38435857Y-51616061D02*
X38407286Y-51587490D01*
X39578715Y-51873204D02*
X39578715Y-52273204D01*
X39321572Y-51873204D02*
X39321572Y-52187490D01*
X39321572Y-52187490D02*
X39350143Y-52244633D01*
X39350143Y-52244633D02*
X39407286Y-52273204D01*
X39407286Y-52273204D02*
X39493000Y-52273204D01*
X39493000Y-52273204D02*
X39550143Y-52244633D01*
X39550143Y-52244633D02*
X39578715Y-52216061D01*
X39864429Y-51873204D02*
X39864429Y-52273204D01*
X39864429Y-51930347D02*
X39893000Y-51901775D01*
X39893000Y-51901775D02*
X39950143Y-51873204D01*
X39950143Y-51873204D02*
X40035857Y-51873204D01*
X40035857Y-51873204D02*
X40093000Y-51901775D01*
X40093000Y-51901775D02*
X40121572Y-51958918D01*
X40121572Y-51958918D02*
X40121572Y-52273204D01*
X40664429Y-52273204D02*
X40664429Y-51673204D01*
X40664429Y-52244633D02*
X40607286Y-52273204D01*
X40607286Y-52273204D02*
X40493000Y-52273204D01*
X40493000Y-52273204D02*
X40435857Y-52244633D01*
X40435857Y-52244633D02*
X40407286Y-52216061D01*
X40407286Y-52216061D02*
X40378714Y-52158918D01*
X40378714Y-52158918D02*
X40378714Y-51987490D01*
X40378714Y-51987490D02*
X40407286Y-51930347D01*
X40407286Y-51930347D02*
X40435857Y-51901775D01*
X40435857Y-51901775D02*
X40493000Y-51873204D01*
X40493000Y-51873204D02*
X40607286Y-51873204D01*
X40607286Y-51873204D02*
X40664429Y-51901775D01*
X41178714Y-52244633D02*
X41121571Y-52273204D01*
X41121571Y-52273204D02*
X41007286Y-52273204D01*
X41007286Y-52273204D02*
X40950143Y-52244633D01*
X40950143Y-52244633D02*
X40921571Y-52187490D01*
X40921571Y-52187490D02*
X40921571Y-51958918D01*
X40921571Y-51958918D02*
X40950143Y-51901775D01*
X40950143Y-51901775D02*
X41007286Y-51873204D01*
X41007286Y-51873204D02*
X41121571Y-51873204D01*
X41121571Y-51873204D02*
X41178714Y-51901775D01*
X41178714Y-51901775D02*
X41207286Y-51958918D01*
X41207286Y-51958918D02*
X41207286Y-52016061D01*
X41207286Y-52016061D02*
X40921571Y-52073204D01*
X41464429Y-52273204D02*
X41464429Y-51873204D01*
X41464429Y-51987490D02*
X41493000Y-51930347D01*
X41493000Y-51930347D02*
X41521572Y-51901775D01*
X41521572Y-51901775D02*
X41578714Y-51873204D01*
X41578714Y-51873204D02*
X41635857Y-51873204D01*
X42207286Y-51873204D02*
X42435858Y-51873204D01*
X42293001Y-51673204D02*
X42293001Y-52187490D01*
X42293001Y-52187490D02*
X42321572Y-52244633D01*
X42321572Y-52244633D02*
X42378715Y-52273204D01*
X42378715Y-52273204D02*
X42435858Y-52273204D01*
X42635858Y-52273204D02*
X42635858Y-51673204D01*
X42893001Y-52273204D02*
X42893001Y-51958918D01*
X42893001Y-51958918D02*
X42864429Y-51901775D01*
X42864429Y-51901775D02*
X42807286Y-51873204D01*
X42807286Y-51873204D02*
X42721572Y-51873204D01*
X42721572Y-51873204D02*
X42664429Y-51901775D01*
X42664429Y-51901775D02*
X42635858Y-51930347D01*
X43407286Y-52244633D02*
X43350143Y-52273204D01*
X43350143Y-52273204D02*
X43235858Y-52273204D01*
X43235858Y-52273204D02*
X43178715Y-52244633D01*
X43178715Y-52244633D02*
X43150143Y-52187490D01*
X43150143Y-52187490D02*
X43150143Y-51958918D01*
X43150143Y-51958918D02*
X43178715Y-51901775D01*
X43178715Y-51901775D02*
X43235858Y-51873204D01*
X43235858Y-51873204D02*
X43350143Y-51873204D01*
X43350143Y-51873204D02*
X43407286Y-51901775D01*
X43407286Y-51901775D02*
X43435858Y-51958918D01*
X43435858Y-51958918D02*
X43435858Y-52016061D01*
X43435858Y-52016061D02*
X43150143Y-52073204D01*
X44150144Y-52273204D02*
X44150144Y-51673204D01*
X44407287Y-52273204D02*
X44407287Y-51958918D01*
X44407287Y-51958918D02*
X44378715Y-51901775D01*
X44378715Y-51901775D02*
X44321572Y-51873204D01*
X44321572Y-51873204D02*
X44235858Y-51873204D01*
X44235858Y-51873204D02*
X44178715Y-51901775D01*
X44178715Y-51901775D02*
X44150144Y-51930347D01*
X44921572Y-52244633D02*
X44864429Y-52273204D01*
X44864429Y-52273204D02*
X44750144Y-52273204D01*
X44750144Y-52273204D02*
X44693001Y-52244633D01*
X44693001Y-52244633D02*
X44664429Y-52187490D01*
X44664429Y-52187490D02*
X44664429Y-51958918D01*
X44664429Y-51958918D02*
X44693001Y-51901775D01*
X44693001Y-51901775D02*
X44750144Y-51873204D01*
X44750144Y-51873204D02*
X44864429Y-51873204D01*
X44864429Y-51873204D02*
X44921572Y-51901775D01*
X44921572Y-51901775D02*
X44950144Y-51958918D01*
X44950144Y-51958918D02*
X44950144Y-52016061D01*
X44950144Y-52016061D02*
X44664429Y-52073204D01*
X45464430Y-52273204D02*
X45464430Y-51958918D01*
X45464430Y-51958918D02*
X45435858Y-51901775D01*
X45435858Y-51901775D02*
X45378715Y-51873204D01*
X45378715Y-51873204D02*
X45264430Y-51873204D01*
X45264430Y-51873204D02*
X45207287Y-51901775D01*
X45464430Y-52244633D02*
X45407287Y-52273204D01*
X45407287Y-52273204D02*
X45264430Y-52273204D01*
X45264430Y-52273204D02*
X45207287Y-52244633D01*
X45207287Y-52244633D02*
X45178715Y-52187490D01*
X45178715Y-52187490D02*
X45178715Y-52130347D01*
X45178715Y-52130347D02*
X45207287Y-52073204D01*
X45207287Y-52073204D02*
X45264430Y-52044633D01*
X45264430Y-52044633D02*
X45407287Y-52044633D01*
X45407287Y-52044633D02*
X45464430Y-52016061D01*
X46007287Y-52273204D02*
X46007287Y-51673204D01*
X46007287Y-52244633D02*
X45950144Y-52273204D01*
X45950144Y-52273204D02*
X45835858Y-52273204D01*
X45835858Y-52273204D02*
X45778715Y-52244633D01*
X45778715Y-52244633D02*
X45750144Y-52216061D01*
X45750144Y-52216061D02*
X45721572Y-52158918D01*
X45721572Y-52158918D02*
X45721572Y-51987490D01*
X45721572Y-51987490D02*
X45750144Y-51930347D01*
X45750144Y-51930347D02*
X45778715Y-51901775D01*
X45778715Y-51901775D02*
X45835858Y-51873204D01*
X45835858Y-51873204D02*
X45950144Y-51873204D01*
X45950144Y-51873204D02*
X46007287Y-51901775D01*
X46521572Y-52244633D02*
X46464429Y-52273204D01*
X46464429Y-52273204D02*
X46350144Y-52273204D01*
X46350144Y-52273204D02*
X46293001Y-52244633D01*
X46293001Y-52244633D02*
X46264429Y-52187490D01*
X46264429Y-52187490D02*
X46264429Y-51958918D01*
X46264429Y-51958918D02*
X46293001Y-51901775D01*
X46293001Y-51901775D02*
X46350144Y-51873204D01*
X46350144Y-51873204D02*
X46464429Y-51873204D01*
X46464429Y-51873204D02*
X46521572Y-51901775D01*
X46521572Y-51901775D02*
X46550144Y-51958918D01*
X46550144Y-51958918D02*
X46550144Y-52016061D01*
X46550144Y-52016061D02*
X46264429Y-52073204D01*
X46807287Y-52273204D02*
X46807287Y-51873204D01*
X46807287Y-51987490D02*
X46835858Y-51930347D01*
X46835858Y-51930347D02*
X46864430Y-51901775D01*
X46864430Y-51901775D02*
X46921572Y-51873204D01*
X46921572Y-51873204D02*
X46978715Y-51873204D01*
X47635859Y-51873204D02*
X47635859Y-52473204D01*
X47635859Y-51901775D02*
X47693002Y-51873204D01*
X47693002Y-51873204D02*
X47807287Y-51873204D01*
X47807287Y-51873204D02*
X47864430Y-51901775D01*
X47864430Y-51901775D02*
X47893002Y-51930347D01*
X47893002Y-51930347D02*
X47921573Y-51987490D01*
X47921573Y-51987490D02*
X47921573Y-52158918D01*
X47921573Y-52158918D02*
X47893002Y-52216061D01*
X47893002Y-52216061D02*
X47864430Y-52244633D01*
X47864430Y-52244633D02*
X47807287Y-52273204D01*
X47807287Y-52273204D02*
X47693002Y-52273204D01*
X47693002Y-52273204D02*
X47635859Y-52244633D01*
X48435859Y-52273204D02*
X48435859Y-51958918D01*
X48435859Y-51958918D02*
X48407287Y-51901775D01*
X48407287Y-51901775D02*
X48350144Y-51873204D01*
X48350144Y-51873204D02*
X48235859Y-51873204D01*
X48235859Y-51873204D02*
X48178716Y-51901775D01*
X48435859Y-52244633D02*
X48378716Y-52273204D01*
X48378716Y-52273204D02*
X48235859Y-52273204D01*
X48235859Y-52273204D02*
X48178716Y-52244633D01*
X48178716Y-52244633D02*
X48150144Y-52187490D01*
X48150144Y-52187490D02*
X48150144Y-52130347D01*
X48150144Y-52130347D02*
X48178716Y-52073204D01*
X48178716Y-52073204D02*
X48235859Y-52044633D01*
X48235859Y-52044633D02*
X48378716Y-52044633D01*
X48378716Y-52044633D02*
X48435859Y-52016061D01*
X48978716Y-52273204D02*
X48978716Y-51673204D01*
X48978716Y-52244633D02*
X48921573Y-52273204D01*
X48921573Y-52273204D02*
X48807287Y-52273204D01*
X48807287Y-52273204D02*
X48750144Y-52244633D01*
X48750144Y-52244633D02*
X48721573Y-52216061D01*
X48721573Y-52216061D02*
X48693001Y-52158918D01*
X48693001Y-52158918D02*
X48693001Y-51987490D01*
X48693001Y-51987490D02*
X48721573Y-51930347D01*
X48721573Y-51930347D02*
X48750144Y-51901775D01*
X48750144Y-51901775D02*
X48807287Y-51873204D01*
X48807287Y-51873204D02*
X48921573Y-51873204D01*
X48921573Y-51873204D02*
X48978716Y-51901775D01*
X49521573Y-52273204D02*
X49521573Y-51673204D01*
X49521573Y-52244633D02*
X49464430Y-52273204D01*
X49464430Y-52273204D02*
X49350144Y-52273204D01*
X49350144Y-52273204D02*
X49293001Y-52244633D01*
X49293001Y-52244633D02*
X49264430Y-52216061D01*
X49264430Y-52216061D02*
X49235858Y-52158918D01*
X49235858Y-52158918D02*
X49235858Y-51987490D01*
X49235858Y-51987490D02*
X49264430Y-51930347D01*
X49264430Y-51930347D02*
X49293001Y-51901775D01*
X49293001Y-51901775D02*
X49350144Y-51873204D01*
X49350144Y-51873204D02*
X49464430Y-51873204D01*
X49464430Y-51873204D02*
X49521573Y-51901775D01*
X49893001Y-52273204D02*
X49835858Y-52244633D01*
X49835858Y-52244633D02*
X49807287Y-52187490D01*
X49807287Y-52187490D02*
X49807287Y-51673204D01*
X50350144Y-52244633D02*
X50293001Y-52273204D01*
X50293001Y-52273204D02*
X50178716Y-52273204D01*
X50178716Y-52273204D02*
X50121573Y-52244633D01*
X50121573Y-52244633D02*
X50093001Y-52187490D01*
X50093001Y-52187490D02*
X50093001Y-51958918D01*
X50093001Y-51958918D02*
X50121573Y-51901775D01*
X50121573Y-51901775D02*
X50178716Y-51873204D01*
X50178716Y-51873204D02*
X50293001Y-51873204D01*
X50293001Y-51873204D02*
X50350144Y-51901775D01*
X50350144Y-51901775D02*
X50378716Y-51958918D01*
X50378716Y-51958918D02*
X50378716Y-52016061D01*
X50378716Y-52016061D02*
X50093001Y-52073204D01*
X7171427Y-29558918D02*
X6971427Y-29558918D01*
X6971427Y-29873204D02*
X6971427Y-29273204D01*
X6971427Y-29273204D02*
X7257141Y-29273204D01*
X7828570Y-29873204D02*
X7628570Y-29587490D01*
X7485713Y-29873204D02*
X7485713Y-29273204D01*
X7485713Y-29273204D02*
X7714284Y-29273204D01*
X7714284Y-29273204D02*
X7771427Y-29301775D01*
X7771427Y-29301775D02*
X7799998Y-29330347D01*
X7799998Y-29330347D02*
X7828570Y-29387490D01*
X7828570Y-29387490D02*
X7828570Y-29473204D01*
X7828570Y-29473204D02*
X7799998Y-29530347D01*
X7799998Y-29530347D02*
X7771427Y-29558918D01*
X7771427Y-29558918D02*
X7714284Y-29587490D01*
X7714284Y-29587490D02*
X7485713Y-29587490D01*
X8342856Y-29473204D02*
X8342856Y-29873204D01*
X8199998Y-29244633D02*
X8057141Y-29673204D01*
X8057141Y-29673204D02*
X8428570Y-29673204D01*
X9428570Y-29873204D02*
X9085713Y-29873204D01*
X9257142Y-29873204D02*
X9257142Y-29273204D01*
X9257142Y-29273204D02*
X9199999Y-29358918D01*
X9199999Y-29358918D02*
X9142856Y-29416061D01*
X9142856Y-29416061D02*
X9085713Y-29444633D01*
X9685714Y-29816061D02*
X9714285Y-29844633D01*
X9714285Y-29844633D02*
X9685714Y-29873204D01*
X9685714Y-29873204D02*
X9657142Y-29844633D01*
X9657142Y-29844633D02*
X9685714Y-29816061D01*
X9685714Y-29816061D02*
X9685714Y-29873204D01*
X10085713Y-29273204D02*
X10142856Y-29273204D01*
X10142856Y-29273204D02*
X10199999Y-29301775D01*
X10199999Y-29301775D02*
X10228571Y-29330347D01*
X10228571Y-29330347D02*
X10257142Y-29387490D01*
X10257142Y-29387490D02*
X10285713Y-29501775D01*
X10285713Y-29501775D02*
X10285713Y-29644633D01*
X10285713Y-29644633D02*
X10257142Y-29758918D01*
X10257142Y-29758918D02*
X10228571Y-29816061D01*
X10228571Y-29816061D02*
X10199999Y-29844633D01*
X10199999Y-29844633D02*
X10142856Y-29873204D01*
X10142856Y-29873204D02*
X10085713Y-29873204D01*
X10085713Y-29873204D02*
X10028571Y-29844633D01*
X10028571Y-29844633D02*
X9999999Y-29816061D01*
X9999999Y-29816061D02*
X9971428Y-29758918D01*
X9971428Y-29758918D02*
X9942856Y-29644633D01*
X9942856Y-29644633D02*
X9942856Y-29501775D01*
X9942856Y-29501775D02*
X9971428Y-29387490D01*
X9971428Y-29387490D02*
X9999999Y-29330347D01*
X9999999Y-29330347D02*
X10028571Y-29301775D01*
X10028571Y-29301775D02*
X10085713Y-29273204D01*
X10971428Y-29844633D02*
X11028571Y-29873204D01*
X11028571Y-29873204D02*
X11142857Y-29873204D01*
X11142857Y-29873204D02*
X11200000Y-29844633D01*
X11200000Y-29844633D02*
X11228571Y-29787490D01*
X11228571Y-29787490D02*
X11228571Y-29758918D01*
X11228571Y-29758918D02*
X11200000Y-29701775D01*
X11200000Y-29701775D02*
X11142857Y-29673204D01*
X11142857Y-29673204D02*
X11057143Y-29673204D01*
X11057143Y-29673204D02*
X11000000Y-29644633D01*
X11000000Y-29644633D02*
X10971428Y-29587490D01*
X10971428Y-29587490D02*
X10971428Y-29558918D01*
X10971428Y-29558918D02*
X11000000Y-29501775D01*
X11000000Y-29501775D02*
X11057143Y-29473204D01*
X11057143Y-29473204D02*
X11142857Y-29473204D01*
X11142857Y-29473204D02*
X11200000Y-29501775D01*
X11399999Y-29473204D02*
X11628571Y-29473204D01*
X11485714Y-29273204D02*
X11485714Y-29787490D01*
X11485714Y-29787490D02*
X11514285Y-29844633D01*
X11514285Y-29844633D02*
X11571428Y-29873204D01*
X11571428Y-29873204D02*
X11628571Y-29873204D01*
X11828571Y-29873204D02*
X11828571Y-29473204D01*
X11828571Y-29273204D02*
X11799999Y-29301775D01*
X11799999Y-29301775D02*
X11828571Y-29330347D01*
X11828571Y-29330347D02*
X11857142Y-29301775D01*
X11857142Y-29301775D02*
X11828571Y-29273204D01*
X11828571Y-29273204D02*
X11828571Y-29330347D01*
X12028570Y-29473204D02*
X12257142Y-29473204D01*
X12114285Y-29873204D02*
X12114285Y-29358918D01*
X12114285Y-29358918D02*
X12142856Y-29301775D01*
X12142856Y-29301775D02*
X12199999Y-29273204D01*
X12199999Y-29273204D02*
X12257142Y-29273204D01*
X12371427Y-29473204D02*
X12599999Y-29473204D01*
X12457142Y-29873204D02*
X12457142Y-29358918D01*
X12457142Y-29358918D02*
X12485713Y-29301775D01*
X12485713Y-29301775D02*
X12542856Y-29273204D01*
X12542856Y-29273204D02*
X12599999Y-29273204D01*
X13028570Y-29844633D02*
X12971427Y-29873204D01*
X12971427Y-29873204D02*
X12857142Y-29873204D01*
X12857142Y-29873204D02*
X12799999Y-29844633D01*
X12799999Y-29844633D02*
X12771427Y-29787490D01*
X12771427Y-29787490D02*
X12771427Y-29558918D01*
X12771427Y-29558918D02*
X12799999Y-29501775D01*
X12799999Y-29501775D02*
X12857142Y-29473204D01*
X12857142Y-29473204D02*
X12971427Y-29473204D01*
X12971427Y-29473204D02*
X13028570Y-29501775D01*
X13028570Y-29501775D02*
X13057142Y-29558918D01*
X13057142Y-29558918D02*
X13057142Y-29616061D01*
X13057142Y-29616061D02*
X12771427Y-29673204D01*
X13314285Y-29473204D02*
X13314285Y-29873204D01*
X13314285Y-29530347D02*
X13342856Y-29501775D01*
X13342856Y-29501775D02*
X13399999Y-29473204D01*
X13399999Y-29473204D02*
X13485713Y-29473204D01*
X13485713Y-29473204D02*
X13542856Y-29501775D01*
X13542856Y-29501775D02*
X13571428Y-29558918D01*
X13571428Y-29558918D02*
X13571428Y-29873204D01*
X14085713Y-29844633D02*
X14028570Y-29873204D01*
X14028570Y-29873204D02*
X13914285Y-29873204D01*
X13914285Y-29873204D02*
X13857142Y-29844633D01*
X13857142Y-29844633D02*
X13828570Y-29787490D01*
X13828570Y-29787490D02*
X13828570Y-29558918D01*
X13828570Y-29558918D02*
X13857142Y-29501775D01*
X13857142Y-29501775D02*
X13914285Y-29473204D01*
X13914285Y-29473204D02*
X14028570Y-29473204D01*
X14028570Y-29473204D02*
X14085713Y-29501775D01*
X14085713Y-29501775D02*
X14114285Y-29558918D01*
X14114285Y-29558918D02*
X14114285Y-29616061D01*
X14114285Y-29616061D02*
X13828570Y-29673204D01*
X14371428Y-29873204D02*
X14371428Y-29473204D01*
X14371428Y-29587490D02*
X14399999Y-29530347D01*
X14399999Y-29530347D02*
X14428571Y-29501775D01*
X14428571Y-29501775D02*
X14485713Y-29473204D01*
X14485713Y-29473204D02*
X14542856Y-29473204D01*
X15371428Y-30101775D02*
X15342857Y-30073204D01*
X15342857Y-30073204D02*
X15285714Y-29987490D01*
X15285714Y-29987490D02*
X15257143Y-29930347D01*
X15257143Y-29930347D02*
X15228571Y-29844633D01*
X15228571Y-29844633D02*
X15200000Y-29701775D01*
X15200000Y-29701775D02*
X15200000Y-29587490D01*
X15200000Y-29587490D02*
X15228571Y-29444633D01*
X15228571Y-29444633D02*
X15257143Y-29358918D01*
X15257143Y-29358918D02*
X15285714Y-29301775D01*
X15285714Y-29301775D02*
X15342857Y-29216061D01*
X15342857Y-29216061D02*
X15371428Y-29187490D01*
X15800000Y-29558918D02*
X15885714Y-29587490D01*
X15885714Y-29587490D02*
X15914285Y-29616061D01*
X15914285Y-29616061D02*
X15942857Y-29673204D01*
X15942857Y-29673204D02*
X15942857Y-29758918D01*
X15942857Y-29758918D02*
X15914285Y-29816061D01*
X15914285Y-29816061D02*
X15885714Y-29844633D01*
X15885714Y-29844633D02*
X15828571Y-29873204D01*
X15828571Y-29873204D02*
X15600000Y-29873204D01*
X15600000Y-29873204D02*
X15600000Y-29273204D01*
X15600000Y-29273204D02*
X15800000Y-29273204D01*
X15800000Y-29273204D02*
X15857143Y-29301775D01*
X15857143Y-29301775D02*
X15885714Y-29330347D01*
X15885714Y-29330347D02*
X15914285Y-29387490D01*
X15914285Y-29387490D02*
X15914285Y-29444633D01*
X15914285Y-29444633D02*
X15885714Y-29501775D01*
X15885714Y-29501775D02*
X15857143Y-29530347D01*
X15857143Y-29530347D02*
X15800000Y-29558918D01*
X15800000Y-29558918D02*
X15600000Y-29558918D01*
X16228571Y-29844633D02*
X16228571Y-29873204D01*
X16228571Y-29873204D02*
X16200000Y-29930347D01*
X16200000Y-29930347D02*
X16171428Y-29958918D01*
X16942857Y-29873204D02*
X16942857Y-29273204D01*
X16942857Y-29273204D02*
X17171428Y-29273204D01*
X17171428Y-29273204D02*
X17228571Y-29301775D01*
X17228571Y-29301775D02*
X17257142Y-29330347D01*
X17257142Y-29330347D02*
X17285714Y-29387490D01*
X17285714Y-29387490D02*
X17285714Y-29473204D01*
X17285714Y-29473204D02*
X17257142Y-29530347D01*
X17257142Y-29530347D02*
X17228571Y-29558918D01*
X17228571Y-29558918D02*
X17171428Y-29587490D01*
X17171428Y-29587490D02*
X16942857Y-29587490D01*
X17514285Y-29844633D02*
X17600000Y-29873204D01*
X17600000Y-29873204D02*
X17742857Y-29873204D01*
X17742857Y-29873204D02*
X17800000Y-29844633D01*
X17800000Y-29844633D02*
X17828571Y-29816061D01*
X17828571Y-29816061D02*
X17857142Y-29758918D01*
X17857142Y-29758918D02*
X17857142Y-29701775D01*
X17857142Y-29701775D02*
X17828571Y-29644633D01*
X17828571Y-29644633D02*
X17800000Y-29616061D01*
X17800000Y-29616061D02*
X17742857Y-29587490D01*
X17742857Y-29587490D02*
X17628571Y-29558918D01*
X17628571Y-29558918D02*
X17571428Y-29530347D01*
X17571428Y-29530347D02*
X17542857Y-29501775D01*
X17542857Y-29501775D02*
X17514285Y-29444633D01*
X17514285Y-29444633D02*
X17514285Y-29387490D01*
X17514285Y-29387490D02*
X17542857Y-29330347D01*
X17542857Y-29330347D02*
X17571428Y-29301775D01*
X17571428Y-29301775D02*
X17628571Y-29273204D01*
X17628571Y-29273204D02*
X17771428Y-29273204D01*
X17771428Y-29273204D02*
X17857142Y-29301775D01*
X18085714Y-29701775D02*
X18371429Y-29701775D01*
X18028571Y-29873204D02*
X18228571Y-29273204D01*
X18228571Y-29273204D02*
X18428571Y-29873204D01*
X18571429Y-30101775D02*
X18600000Y-30073204D01*
X18600000Y-30073204D02*
X18657143Y-29987490D01*
X18657143Y-29987490D02*
X18685715Y-29930347D01*
X18685715Y-29930347D02*
X18714286Y-29844633D01*
X18714286Y-29844633D02*
X18742857Y-29701775D01*
X18742857Y-29701775D02*
X18742857Y-29587490D01*
X18742857Y-29587490D02*
X18714286Y-29444633D01*
X18714286Y-29444633D02*
X18685715Y-29358918D01*
X18685715Y-29358918D02*
X18657143Y-29301775D01*
X18657143Y-29301775D02*
X18600000Y-29216061D01*
X18600000Y-29216061D02*
X18571429Y-29187490D01*
X19742858Y-29473204D02*
X19742858Y-29873204D01*
X19485715Y-29473204D02*
X19485715Y-29787490D01*
X19485715Y-29787490D02*
X19514286Y-29844633D01*
X19514286Y-29844633D02*
X19571429Y-29873204D01*
X19571429Y-29873204D02*
X19657143Y-29873204D01*
X19657143Y-29873204D02*
X19714286Y-29844633D01*
X19714286Y-29844633D02*
X19742858Y-29816061D01*
X20028572Y-29473204D02*
X20028572Y-29873204D01*
X20028572Y-29530347D02*
X20057143Y-29501775D01*
X20057143Y-29501775D02*
X20114286Y-29473204D01*
X20114286Y-29473204D02*
X20200000Y-29473204D01*
X20200000Y-29473204D02*
X20257143Y-29501775D01*
X20257143Y-29501775D02*
X20285715Y-29558918D01*
X20285715Y-29558918D02*
X20285715Y-29873204D01*
X20828572Y-29873204D02*
X20828572Y-29273204D01*
X20828572Y-29844633D02*
X20771429Y-29873204D01*
X20771429Y-29873204D02*
X20657143Y-29873204D01*
X20657143Y-29873204D02*
X20600000Y-29844633D01*
X20600000Y-29844633D02*
X20571429Y-29816061D01*
X20571429Y-29816061D02*
X20542857Y-29758918D01*
X20542857Y-29758918D02*
X20542857Y-29587490D01*
X20542857Y-29587490D02*
X20571429Y-29530347D01*
X20571429Y-29530347D02*
X20600000Y-29501775D01*
X20600000Y-29501775D02*
X20657143Y-29473204D01*
X20657143Y-29473204D02*
X20771429Y-29473204D01*
X20771429Y-29473204D02*
X20828572Y-29501775D01*
X21342857Y-29844633D02*
X21285714Y-29873204D01*
X21285714Y-29873204D02*
X21171429Y-29873204D01*
X21171429Y-29873204D02*
X21114286Y-29844633D01*
X21114286Y-29844633D02*
X21085714Y-29787490D01*
X21085714Y-29787490D02*
X21085714Y-29558918D01*
X21085714Y-29558918D02*
X21114286Y-29501775D01*
X21114286Y-29501775D02*
X21171429Y-29473204D01*
X21171429Y-29473204D02*
X21285714Y-29473204D01*
X21285714Y-29473204D02*
X21342857Y-29501775D01*
X21342857Y-29501775D02*
X21371429Y-29558918D01*
X21371429Y-29558918D02*
X21371429Y-29616061D01*
X21371429Y-29616061D02*
X21085714Y-29673204D01*
X21628572Y-29873204D02*
X21628572Y-29473204D01*
X21628572Y-29587490D02*
X21657143Y-29530347D01*
X21657143Y-29530347D02*
X21685715Y-29501775D01*
X21685715Y-29501775D02*
X21742857Y-29473204D01*
X21742857Y-29473204D02*
X21800000Y-29473204D01*
X22371429Y-29473204D02*
X22600001Y-29473204D01*
X22457144Y-29273204D02*
X22457144Y-29787490D01*
X22457144Y-29787490D02*
X22485715Y-29844633D01*
X22485715Y-29844633D02*
X22542858Y-29873204D01*
X22542858Y-29873204D02*
X22600001Y-29873204D01*
X22800001Y-29873204D02*
X22800001Y-29273204D01*
X23057144Y-29873204D02*
X23057144Y-29558918D01*
X23057144Y-29558918D02*
X23028572Y-29501775D01*
X23028572Y-29501775D02*
X22971429Y-29473204D01*
X22971429Y-29473204D02*
X22885715Y-29473204D01*
X22885715Y-29473204D02*
X22828572Y-29501775D01*
X22828572Y-29501775D02*
X22800001Y-29530347D01*
X23571429Y-29844633D02*
X23514286Y-29873204D01*
X23514286Y-29873204D02*
X23400001Y-29873204D01*
X23400001Y-29873204D02*
X23342858Y-29844633D01*
X23342858Y-29844633D02*
X23314286Y-29787490D01*
X23314286Y-29787490D02*
X23314286Y-29558918D01*
X23314286Y-29558918D02*
X23342858Y-29501775D01*
X23342858Y-29501775D02*
X23400001Y-29473204D01*
X23400001Y-29473204D02*
X23514286Y-29473204D01*
X23514286Y-29473204D02*
X23571429Y-29501775D01*
X23571429Y-29501775D02*
X23600001Y-29558918D01*
X23600001Y-29558918D02*
X23600001Y-29616061D01*
X23600001Y-29616061D02*
X23314286Y-29673204D01*
X24314287Y-29473204D02*
X24314287Y-30073204D01*
X24314287Y-29501775D02*
X24371430Y-29473204D01*
X24371430Y-29473204D02*
X24485715Y-29473204D01*
X24485715Y-29473204D02*
X24542858Y-29501775D01*
X24542858Y-29501775D02*
X24571430Y-29530347D01*
X24571430Y-29530347D02*
X24600001Y-29587490D01*
X24600001Y-29587490D02*
X24600001Y-29758918D01*
X24600001Y-29758918D02*
X24571430Y-29816061D01*
X24571430Y-29816061D02*
X24542858Y-29844633D01*
X24542858Y-29844633D02*
X24485715Y-29873204D01*
X24485715Y-29873204D02*
X24371430Y-29873204D01*
X24371430Y-29873204D02*
X24314287Y-29844633D01*
X24942858Y-29873204D02*
X24885715Y-29844633D01*
X24885715Y-29844633D02*
X24857144Y-29816061D01*
X24857144Y-29816061D02*
X24828572Y-29758918D01*
X24828572Y-29758918D02*
X24828572Y-29587490D01*
X24828572Y-29587490D02*
X24857144Y-29530347D01*
X24857144Y-29530347D02*
X24885715Y-29501775D01*
X24885715Y-29501775D02*
X24942858Y-29473204D01*
X24942858Y-29473204D02*
X25028572Y-29473204D01*
X25028572Y-29473204D02*
X25085715Y-29501775D01*
X25085715Y-29501775D02*
X25114287Y-29530347D01*
X25114287Y-29530347D02*
X25142858Y-29587490D01*
X25142858Y-29587490D02*
X25142858Y-29758918D01*
X25142858Y-29758918D02*
X25114287Y-29816061D01*
X25114287Y-29816061D02*
X25085715Y-29844633D01*
X25085715Y-29844633D02*
X25028572Y-29873204D01*
X25028572Y-29873204D02*
X24942858Y-29873204D01*
X25400001Y-29873204D02*
X25400001Y-29473204D01*
X25400001Y-29587490D02*
X25428572Y-29530347D01*
X25428572Y-29530347D02*
X25457144Y-29501775D01*
X25457144Y-29501775D02*
X25514286Y-29473204D01*
X25514286Y-29473204D02*
X25571429Y-29473204D01*
X25685715Y-29473204D02*
X25914287Y-29473204D01*
X25771430Y-29273204D02*
X25771430Y-29787490D01*
X25771430Y-29787490D02*
X25800001Y-29844633D01*
X25800001Y-29844633D02*
X25857144Y-29873204D01*
X25857144Y-29873204D02*
X25914287Y-29873204D01*
X7171427Y-17758917D02*
X6971427Y-17758917D01*
X6971427Y-18073203D02*
X6971427Y-17473203D01*
X6971427Y-17473203D02*
X7257141Y-17473203D01*
X7828570Y-18073203D02*
X7628570Y-17787489D01*
X7485713Y-18073203D02*
X7485713Y-17473203D01*
X7485713Y-17473203D02*
X7714284Y-17473203D01*
X7714284Y-17473203D02*
X7771427Y-17501774D01*
X7771427Y-17501774D02*
X7799998Y-17530346D01*
X7799998Y-17530346D02*
X7828570Y-17587489D01*
X7828570Y-17587489D02*
X7828570Y-17673203D01*
X7828570Y-17673203D02*
X7799998Y-17730346D01*
X7799998Y-17730346D02*
X7771427Y-17758917D01*
X7771427Y-17758917D02*
X7714284Y-17787489D01*
X7714284Y-17787489D02*
X7485713Y-17787489D01*
X8342856Y-17673203D02*
X8342856Y-18073203D01*
X8199998Y-17444632D02*
X8057141Y-17873203D01*
X8057141Y-17873203D02*
X8428570Y-17873203D01*
X9428570Y-18073203D02*
X9085713Y-18073203D01*
X9257142Y-18073203D02*
X9257142Y-17473203D01*
X9257142Y-17473203D02*
X9199999Y-17558917D01*
X9199999Y-17558917D02*
X9142856Y-17616060D01*
X9142856Y-17616060D02*
X9085713Y-17644632D01*
X9685714Y-18016060D02*
X9714285Y-18044632D01*
X9714285Y-18044632D02*
X9685714Y-18073203D01*
X9685714Y-18073203D02*
X9657142Y-18044632D01*
X9657142Y-18044632D02*
X9685714Y-18016060D01*
X9685714Y-18016060D02*
X9685714Y-18073203D01*
X10085713Y-17473203D02*
X10142856Y-17473203D01*
X10142856Y-17473203D02*
X10199999Y-17501774D01*
X10199999Y-17501774D02*
X10228571Y-17530346D01*
X10228571Y-17530346D02*
X10257142Y-17587489D01*
X10257142Y-17587489D02*
X10285713Y-17701774D01*
X10285713Y-17701774D02*
X10285713Y-17844632D01*
X10285713Y-17844632D02*
X10257142Y-17958917D01*
X10257142Y-17958917D02*
X10228571Y-18016060D01*
X10228571Y-18016060D02*
X10199999Y-18044632D01*
X10199999Y-18044632D02*
X10142856Y-18073203D01*
X10142856Y-18073203D02*
X10085713Y-18073203D01*
X10085713Y-18073203D02*
X10028571Y-18044632D01*
X10028571Y-18044632D02*
X9999999Y-18016060D01*
X9999999Y-18016060D02*
X9971428Y-17958917D01*
X9971428Y-17958917D02*
X9942856Y-17844632D01*
X9942856Y-17844632D02*
X9942856Y-17701774D01*
X9942856Y-17701774D02*
X9971428Y-17587489D01*
X9971428Y-17587489D02*
X9999999Y-17530346D01*
X9999999Y-17530346D02*
X10028571Y-17501774D01*
X10028571Y-17501774D02*
X10085713Y-17473203D01*
X10971428Y-18044632D02*
X11028571Y-18073203D01*
X11028571Y-18073203D02*
X11142857Y-18073203D01*
X11142857Y-18073203D02*
X11200000Y-18044632D01*
X11200000Y-18044632D02*
X11228571Y-17987489D01*
X11228571Y-17987489D02*
X11228571Y-17958917D01*
X11228571Y-17958917D02*
X11200000Y-17901774D01*
X11200000Y-17901774D02*
X11142857Y-17873203D01*
X11142857Y-17873203D02*
X11057143Y-17873203D01*
X11057143Y-17873203D02*
X11000000Y-17844632D01*
X11000000Y-17844632D02*
X10971428Y-17787489D01*
X10971428Y-17787489D02*
X10971428Y-17758917D01*
X10971428Y-17758917D02*
X11000000Y-17701774D01*
X11000000Y-17701774D02*
X11057143Y-17673203D01*
X11057143Y-17673203D02*
X11142857Y-17673203D01*
X11142857Y-17673203D02*
X11200000Y-17701774D01*
X11399999Y-17673203D02*
X11628571Y-17673203D01*
X11485714Y-17473203D02*
X11485714Y-17987489D01*
X11485714Y-17987489D02*
X11514285Y-18044632D01*
X11514285Y-18044632D02*
X11571428Y-18073203D01*
X11571428Y-18073203D02*
X11628571Y-18073203D01*
X11828571Y-18073203D02*
X11828571Y-17673203D01*
X11828571Y-17473203D02*
X11799999Y-17501774D01*
X11799999Y-17501774D02*
X11828571Y-17530346D01*
X11828571Y-17530346D02*
X11857142Y-17501774D01*
X11857142Y-17501774D02*
X11828571Y-17473203D01*
X11828571Y-17473203D02*
X11828571Y-17530346D01*
X12028570Y-17673203D02*
X12257142Y-17673203D01*
X12114285Y-18073203D02*
X12114285Y-17558917D01*
X12114285Y-17558917D02*
X12142856Y-17501774D01*
X12142856Y-17501774D02*
X12199999Y-17473203D01*
X12199999Y-17473203D02*
X12257142Y-17473203D01*
X12371427Y-17673203D02*
X12599999Y-17673203D01*
X12457142Y-18073203D02*
X12457142Y-17558917D01*
X12457142Y-17558917D02*
X12485713Y-17501774D01*
X12485713Y-17501774D02*
X12542856Y-17473203D01*
X12542856Y-17473203D02*
X12599999Y-17473203D01*
X13028570Y-18044632D02*
X12971427Y-18073203D01*
X12971427Y-18073203D02*
X12857142Y-18073203D01*
X12857142Y-18073203D02*
X12799999Y-18044632D01*
X12799999Y-18044632D02*
X12771427Y-17987489D01*
X12771427Y-17987489D02*
X12771427Y-17758917D01*
X12771427Y-17758917D02*
X12799999Y-17701774D01*
X12799999Y-17701774D02*
X12857142Y-17673203D01*
X12857142Y-17673203D02*
X12971427Y-17673203D01*
X12971427Y-17673203D02*
X13028570Y-17701774D01*
X13028570Y-17701774D02*
X13057142Y-17758917D01*
X13057142Y-17758917D02*
X13057142Y-17816060D01*
X13057142Y-17816060D02*
X12771427Y-17873203D01*
X13314285Y-17673203D02*
X13314285Y-18073203D01*
X13314285Y-17730346D02*
X13342856Y-17701774D01*
X13342856Y-17701774D02*
X13399999Y-17673203D01*
X13399999Y-17673203D02*
X13485713Y-17673203D01*
X13485713Y-17673203D02*
X13542856Y-17701774D01*
X13542856Y-17701774D02*
X13571428Y-17758917D01*
X13571428Y-17758917D02*
X13571428Y-18073203D01*
X14085713Y-18044632D02*
X14028570Y-18073203D01*
X14028570Y-18073203D02*
X13914285Y-18073203D01*
X13914285Y-18073203D02*
X13857142Y-18044632D01*
X13857142Y-18044632D02*
X13828570Y-17987489D01*
X13828570Y-17987489D02*
X13828570Y-17758917D01*
X13828570Y-17758917D02*
X13857142Y-17701774D01*
X13857142Y-17701774D02*
X13914285Y-17673203D01*
X13914285Y-17673203D02*
X14028570Y-17673203D01*
X14028570Y-17673203D02*
X14085713Y-17701774D01*
X14085713Y-17701774D02*
X14114285Y-17758917D01*
X14114285Y-17758917D02*
X14114285Y-17816060D01*
X14114285Y-17816060D02*
X13828570Y-17873203D01*
X14371428Y-18073203D02*
X14371428Y-17673203D01*
X14371428Y-17787489D02*
X14399999Y-17730346D01*
X14399999Y-17730346D02*
X14428571Y-17701774D01*
X14428571Y-17701774D02*
X14485713Y-17673203D01*
X14485713Y-17673203D02*
X14542856Y-17673203D01*
X15371428Y-18301774D02*
X15342857Y-18273203D01*
X15342857Y-18273203D02*
X15285714Y-18187489D01*
X15285714Y-18187489D02*
X15257143Y-18130346D01*
X15257143Y-18130346D02*
X15228571Y-18044632D01*
X15228571Y-18044632D02*
X15200000Y-17901774D01*
X15200000Y-17901774D02*
X15200000Y-17787489D01*
X15200000Y-17787489D02*
X15228571Y-17644632D01*
X15228571Y-17644632D02*
X15257143Y-17558917D01*
X15257143Y-17558917D02*
X15285714Y-17501774D01*
X15285714Y-17501774D02*
X15342857Y-17416060D01*
X15342857Y-17416060D02*
X15371428Y-17387489D01*
X15800000Y-17758917D02*
X15885714Y-17787489D01*
X15885714Y-17787489D02*
X15914285Y-17816060D01*
X15914285Y-17816060D02*
X15942857Y-17873203D01*
X15942857Y-17873203D02*
X15942857Y-17958917D01*
X15942857Y-17958917D02*
X15914285Y-18016060D01*
X15914285Y-18016060D02*
X15885714Y-18044632D01*
X15885714Y-18044632D02*
X15828571Y-18073203D01*
X15828571Y-18073203D02*
X15600000Y-18073203D01*
X15600000Y-18073203D02*
X15600000Y-17473203D01*
X15600000Y-17473203D02*
X15800000Y-17473203D01*
X15800000Y-17473203D02*
X15857143Y-17501774D01*
X15857143Y-17501774D02*
X15885714Y-17530346D01*
X15885714Y-17530346D02*
X15914285Y-17587489D01*
X15914285Y-17587489D02*
X15914285Y-17644632D01*
X15914285Y-17644632D02*
X15885714Y-17701774D01*
X15885714Y-17701774D02*
X15857143Y-17730346D01*
X15857143Y-17730346D02*
X15800000Y-17758917D01*
X15800000Y-17758917D02*
X15600000Y-17758917D01*
X16228571Y-18044632D02*
X16228571Y-18073203D01*
X16228571Y-18073203D02*
X16200000Y-18130346D01*
X16200000Y-18130346D02*
X16171428Y-18158917D01*
X16942857Y-18073203D02*
X16942857Y-17473203D01*
X16942857Y-17473203D02*
X17171428Y-17473203D01*
X17171428Y-17473203D02*
X17228571Y-17501774D01*
X17228571Y-17501774D02*
X17257142Y-17530346D01*
X17257142Y-17530346D02*
X17285714Y-17587489D01*
X17285714Y-17587489D02*
X17285714Y-17673203D01*
X17285714Y-17673203D02*
X17257142Y-17730346D01*
X17257142Y-17730346D02*
X17228571Y-17758917D01*
X17228571Y-17758917D02*
X17171428Y-17787489D01*
X17171428Y-17787489D02*
X16942857Y-17787489D01*
X17514285Y-18044632D02*
X17600000Y-18073203D01*
X17600000Y-18073203D02*
X17742857Y-18073203D01*
X17742857Y-18073203D02*
X17800000Y-18044632D01*
X17800000Y-18044632D02*
X17828571Y-18016060D01*
X17828571Y-18016060D02*
X17857142Y-17958917D01*
X17857142Y-17958917D02*
X17857142Y-17901774D01*
X17857142Y-17901774D02*
X17828571Y-17844632D01*
X17828571Y-17844632D02*
X17800000Y-17816060D01*
X17800000Y-17816060D02*
X17742857Y-17787489D01*
X17742857Y-17787489D02*
X17628571Y-17758917D01*
X17628571Y-17758917D02*
X17571428Y-17730346D01*
X17571428Y-17730346D02*
X17542857Y-17701774D01*
X17542857Y-17701774D02*
X17514285Y-17644632D01*
X17514285Y-17644632D02*
X17514285Y-17587489D01*
X17514285Y-17587489D02*
X17542857Y-17530346D01*
X17542857Y-17530346D02*
X17571428Y-17501774D01*
X17571428Y-17501774D02*
X17628571Y-17473203D01*
X17628571Y-17473203D02*
X17771428Y-17473203D01*
X17771428Y-17473203D02*
X17857142Y-17501774D01*
X18085714Y-17901774D02*
X18371429Y-17901774D01*
X18028571Y-18073203D02*
X18228571Y-17473203D01*
X18228571Y-17473203D02*
X18428571Y-18073203D01*
X18571429Y-18301774D02*
X18600000Y-18273203D01*
X18600000Y-18273203D02*
X18657143Y-18187489D01*
X18657143Y-18187489D02*
X18685715Y-18130346D01*
X18685715Y-18130346D02*
X18714286Y-18044632D01*
X18714286Y-18044632D02*
X18742857Y-17901774D01*
X18742857Y-17901774D02*
X18742857Y-17787489D01*
X18742857Y-17787489D02*
X18714286Y-17644632D01*
X18714286Y-17644632D02*
X18685715Y-17558917D01*
X18685715Y-17558917D02*
X18657143Y-17501774D01*
X18657143Y-17501774D02*
X18600000Y-17416060D01*
X18600000Y-17416060D02*
X18571429Y-17387489D01*
X19742858Y-17673203D02*
X19742858Y-18073203D01*
X19485715Y-17673203D02*
X19485715Y-17987489D01*
X19485715Y-17987489D02*
X19514286Y-18044632D01*
X19514286Y-18044632D02*
X19571429Y-18073203D01*
X19571429Y-18073203D02*
X19657143Y-18073203D01*
X19657143Y-18073203D02*
X19714286Y-18044632D01*
X19714286Y-18044632D02*
X19742858Y-18016060D01*
X20028572Y-17673203D02*
X20028572Y-18073203D01*
X20028572Y-17730346D02*
X20057143Y-17701774D01*
X20057143Y-17701774D02*
X20114286Y-17673203D01*
X20114286Y-17673203D02*
X20200000Y-17673203D01*
X20200000Y-17673203D02*
X20257143Y-17701774D01*
X20257143Y-17701774D02*
X20285715Y-17758917D01*
X20285715Y-17758917D02*
X20285715Y-18073203D01*
X20828572Y-18073203D02*
X20828572Y-17473203D01*
X20828572Y-18044632D02*
X20771429Y-18073203D01*
X20771429Y-18073203D02*
X20657143Y-18073203D01*
X20657143Y-18073203D02*
X20600000Y-18044632D01*
X20600000Y-18044632D02*
X20571429Y-18016060D01*
X20571429Y-18016060D02*
X20542857Y-17958917D01*
X20542857Y-17958917D02*
X20542857Y-17787489D01*
X20542857Y-17787489D02*
X20571429Y-17730346D01*
X20571429Y-17730346D02*
X20600000Y-17701774D01*
X20600000Y-17701774D02*
X20657143Y-17673203D01*
X20657143Y-17673203D02*
X20771429Y-17673203D01*
X20771429Y-17673203D02*
X20828572Y-17701774D01*
X21342857Y-18044632D02*
X21285714Y-18073203D01*
X21285714Y-18073203D02*
X21171429Y-18073203D01*
X21171429Y-18073203D02*
X21114286Y-18044632D01*
X21114286Y-18044632D02*
X21085714Y-17987489D01*
X21085714Y-17987489D02*
X21085714Y-17758917D01*
X21085714Y-17758917D02*
X21114286Y-17701774D01*
X21114286Y-17701774D02*
X21171429Y-17673203D01*
X21171429Y-17673203D02*
X21285714Y-17673203D01*
X21285714Y-17673203D02*
X21342857Y-17701774D01*
X21342857Y-17701774D02*
X21371429Y-17758917D01*
X21371429Y-17758917D02*
X21371429Y-17816060D01*
X21371429Y-17816060D02*
X21085714Y-17873203D01*
X21628572Y-18073203D02*
X21628572Y-17673203D01*
X21628572Y-17787489D02*
X21657143Y-17730346D01*
X21657143Y-17730346D02*
X21685715Y-17701774D01*
X21685715Y-17701774D02*
X21742857Y-17673203D01*
X21742857Y-17673203D02*
X21800000Y-17673203D01*
X22371429Y-17673203D02*
X22600001Y-17673203D01*
X22457144Y-17473203D02*
X22457144Y-17987489D01*
X22457144Y-17987489D02*
X22485715Y-18044632D01*
X22485715Y-18044632D02*
X22542858Y-18073203D01*
X22542858Y-18073203D02*
X22600001Y-18073203D01*
X22800001Y-18073203D02*
X22800001Y-17473203D01*
X23057144Y-18073203D02*
X23057144Y-17758917D01*
X23057144Y-17758917D02*
X23028572Y-17701774D01*
X23028572Y-17701774D02*
X22971429Y-17673203D01*
X22971429Y-17673203D02*
X22885715Y-17673203D01*
X22885715Y-17673203D02*
X22828572Y-17701774D01*
X22828572Y-17701774D02*
X22800001Y-17730346D01*
X23571429Y-18044632D02*
X23514286Y-18073203D01*
X23514286Y-18073203D02*
X23400001Y-18073203D01*
X23400001Y-18073203D02*
X23342858Y-18044632D01*
X23342858Y-18044632D02*
X23314286Y-17987489D01*
X23314286Y-17987489D02*
X23314286Y-17758917D01*
X23314286Y-17758917D02*
X23342858Y-17701774D01*
X23342858Y-17701774D02*
X23400001Y-17673203D01*
X23400001Y-17673203D02*
X23514286Y-17673203D01*
X23514286Y-17673203D02*
X23571429Y-17701774D01*
X23571429Y-17701774D02*
X23600001Y-17758917D01*
X23600001Y-17758917D02*
X23600001Y-17816060D01*
X23600001Y-17816060D02*
X23314286Y-17873203D01*
X24314287Y-17673203D02*
X24314287Y-18273203D01*
X24314287Y-17701774D02*
X24371430Y-17673203D01*
X24371430Y-17673203D02*
X24485715Y-17673203D01*
X24485715Y-17673203D02*
X24542858Y-17701774D01*
X24542858Y-17701774D02*
X24571430Y-17730346D01*
X24571430Y-17730346D02*
X24600001Y-17787489D01*
X24600001Y-17787489D02*
X24600001Y-17958917D01*
X24600001Y-17958917D02*
X24571430Y-18016060D01*
X24571430Y-18016060D02*
X24542858Y-18044632D01*
X24542858Y-18044632D02*
X24485715Y-18073203D01*
X24485715Y-18073203D02*
X24371430Y-18073203D01*
X24371430Y-18073203D02*
X24314287Y-18044632D01*
X24942858Y-18073203D02*
X24885715Y-18044632D01*
X24885715Y-18044632D02*
X24857144Y-18016060D01*
X24857144Y-18016060D02*
X24828572Y-17958917D01*
X24828572Y-17958917D02*
X24828572Y-17787489D01*
X24828572Y-17787489D02*
X24857144Y-17730346D01*
X24857144Y-17730346D02*
X24885715Y-17701774D01*
X24885715Y-17701774D02*
X24942858Y-17673203D01*
X24942858Y-17673203D02*
X25028572Y-17673203D01*
X25028572Y-17673203D02*
X25085715Y-17701774D01*
X25085715Y-17701774D02*
X25114287Y-17730346D01*
X25114287Y-17730346D02*
X25142858Y-17787489D01*
X25142858Y-17787489D02*
X25142858Y-17958917D01*
X25142858Y-17958917D02*
X25114287Y-18016060D01*
X25114287Y-18016060D02*
X25085715Y-18044632D01*
X25085715Y-18044632D02*
X25028572Y-18073203D01*
X25028572Y-18073203D02*
X24942858Y-18073203D01*
X25400001Y-18073203D02*
X25400001Y-17673203D01*
X25400001Y-17787489D02*
X25428572Y-17730346D01*
X25428572Y-17730346D02*
X25457144Y-17701774D01*
X25457144Y-17701774D02*
X25514286Y-17673203D01*
X25514286Y-17673203D02*
X25571429Y-17673203D01*
X25685715Y-17673203D02*
X25914287Y-17673203D01*
X25771430Y-17473203D02*
X25771430Y-17987489D01*
X25771430Y-17987489D02*
X25800001Y-18044632D01*
X25800001Y-18044632D02*
X25857144Y-18073203D01*
X25857144Y-18073203D02*
X25914287Y-18073203D01*
X7171427Y-53158918D02*
X6971427Y-53158918D01*
X6971427Y-53473204D02*
X6971427Y-52873204D01*
X6971427Y-52873204D02*
X7257141Y-52873204D01*
X7828570Y-53473204D02*
X7628570Y-53187490D01*
X7485713Y-53473204D02*
X7485713Y-52873204D01*
X7485713Y-52873204D02*
X7714284Y-52873204D01*
X7714284Y-52873204D02*
X7771427Y-52901775D01*
X7771427Y-52901775D02*
X7799998Y-52930347D01*
X7799998Y-52930347D02*
X7828570Y-52987490D01*
X7828570Y-52987490D02*
X7828570Y-53073204D01*
X7828570Y-53073204D02*
X7799998Y-53130347D01*
X7799998Y-53130347D02*
X7771427Y-53158918D01*
X7771427Y-53158918D02*
X7714284Y-53187490D01*
X7714284Y-53187490D02*
X7485713Y-53187490D01*
X8342856Y-53073204D02*
X8342856Y-53473204D01*
X8199998Y-52844633D02*
X8057141Y-53273204D01*
X8057141Y-53273204D02*
X8428570Y-53273204D01*
X9428570Y-53473204D02*
X9085713Y-53473204D01*
X9257142Y-53473204D02*
X9257142Y-52873204D01*
X9257142Y-52873204D02*
X9199999Y-52958918D01*
X9199999Y-52958918D02*
X9142856Y-53016061D01*
X9142856Y-53016061D02*
X9085713Y-53044633D01*
X9685714Y-53416061D02*
X9714285Y-53444633D01*
X9714285Y-53444633D02*
X9685714Y-53473204D01*
X9685714Y-53473204D02*
X9657142Y-53444633D01*
X9657142Y-53444633D02*
X9685714Y-53416061D01*
X9685714Y-53416061D02*
X9685714Y-53473204D01*
X10085713Y-52873204D02*
X10142856Y-52873204D01*
X10142856Y-52873204D02*
X10199999Y-52901775D01*
X10199999Y-52901775D02*
X10228571Y-52930347D01*
X10228571Y-52930347D02*
X10257142Y-52987490D01*
X10257142Y-52987490D02*
X10285713Y-53101775D01*
X10285713Y-53101775D02*
X10285713Y-53244633D01*
X10285713Y-53244633D02*
X10257142Y-53358918D01*
X10257142Y-53358918D02*
X10228571Y-53416061D01*
X10228571Y-53416061D02*
X10199999Y-53444633D01*
X10199999Y-53444633D02*
X10142856Y-53473204D01*
X10142856Y-53473204D02*
X10085713Y-53473204D01*
X10085713Y-53473204D02*
X10028571Y-53444633D01*
X10028571Y-53444633D02*
X9999999Y-53416061D01*
X9999999Y-53416061D02*
X9971428Y-53358918D01*
X9971428Y-53358918D02*
X9942856Y-53244633D01*
X9942856Y-53244633D02*
X9942856Y-53101775D01*
X9942856Y-53101775D02*
X9971428Y-52987490D01*
X9971428Y-52987490D02*
X9999999Y-52930347D01*
X9999999Y-52930347D02*
X10028571Y-52901775D01*
X10028571Y-52901775D02*
X10085713Y-52873204D01*
X10971428Y-53444633D02*
X11028571Y-53473204D01*
X11028571Y-53473204D02*
X11142857Y-53473204D01*
X11142857Y-53473204D02*
X11200000Y-53444633D01*
X11200000Y-53444633D02*
X11228571Y-53387490D01*
X11228571Y-53387490D02*
X11228571Y-53358918D01*
X11228571Y-53358918D02*
X11200000Y-53301775D01*
X11200000Y-53301775D02*
X11142857Y-53273204D01*
X11142857Y-53273204D02*
X11057143Y-53273204D01*
X11057143Y-53273204D02*
X11000000Y-53244633D01*
X11000000Y-53244633D02*
X10971428Y-53187490D01*
X10971428Y-53187490D02*
X10971428Y-53158918D01*
X10971428Y-53158918D02*
X11000000Y-53101775D01*
X11000000Y-53101775D02*
X11057143Y-53073204D01*
X11057143Y-53073204D02*
X11142857Y-53073204D01*
X11142857Y-53073204D02*
X11200000Y-53101775D01*
X11399999Y-53073204D02*
X11628571Y-53073204D01*
X11485714Y-52873204D02*
X11485714Y-53387490D01*
X11485714Y-53387490D02*
X11514285Y-53444633D01*
X11514285Y-53444633D02*
X11571428Y-53473204D01*
X11571428Y-53473204D02*
X11628571Y-53473204D01*
X11828571Y-53473204D02*
X11828571Y-53073204D01*
X11828571Y-52873204D02*
X11799999Y-52901775D01*
X11799999Y-52901775D02*
X11828571Y-52930347D01*
X11828571Y-52930347D02*
X11857142Y-52901775D01*
X11857142Y-52901775D02*
X11828571Y-52873204D01*
X11828571Y-52873204D02*
X11828571Y-52930347D01*
X12028570Y-53073204D02*
X12257142Y-53073204D01*
X12114285Y-53473204D02*
X12114285Y-52958918D01*
X12114285Y-52958918D02*
X12142856Y-52901775D01*
X12142856Y-52901775D02*
X12199999Y-52873204D01*
X12199999Y-52873204D02*
X12257142Y-52873204D01*
X12371427Y-53073204D02*
X12599999Y-53073204D01*
X12457142Y-53473204D02*
X12457142Y-52958918D01*
X12457142Y-52958918D02*
X12485713Y-52901775D01*
X12485713Y-52901775D02*
X12542856Y-52873204D01*
X12542856Y-52873204D02*
X12599999Y-52873204D01*
X13028570Y-53444633D02*
X12971427Y-53473204D01*
X12971427Y-53473204D02*
X12857142Y-53473204D01*
X12857142Y-53473204D02*
X12799999Y-53444633D01*
X12799999Y-53444633D02*
X12771427Y-53387490D01*
X12771427Y-53387490D02*
X12771427Y-53158918D01*
X12771427Y-53158918D02*
X12799999Y-53101775D01*
X12799999Y-53101775D02*
X12857142Y-53073204D01*
X12857142Y-53073204D02*
X12971427Y-53073204D01*
X12971427Y-53073204D02*
X13028570Y-53101775D01*
X13028570Y-53101775D02*
X13057142Y-53158918D01*
X13057142Y-53158918D02*
X13057142Y-53216061D01*
X13057142Y-53216061D02*
X12771427Y-53273204D01*
X13314285Y-53073204D02*
X13314285Y-53473204D01*
X13314285Y-53130347D02*
X13342856Y-53101775D01*
X13342856Y-53101775D02*
X13399999Y-53073204D01*
X13399999Y-53073204D02*
X13485713Y-53073204D01*
X13485713Y-53073204D02*
X13542856Y-53101775D01*
X13542856Y-53101775D02*
X13571428Y-53158918D01*
X13571428Y-53158918D02*
X13571428Y-53473204D01*
X14085713Y-53444633D02*
X14028570Y-53473204D01*
X14028570Y-53473204D02*
X13914285Y-53473204D01*
X13914285Y-53473204D02*
X13857142Y-53444633D01*
X13857142Y-53444633D02*
X13828570Y-53387490D01*
X13828570Y-53387490D02*
X13828570Y-53158918D01*
X13828570Y-53158918D02*
X13857142Y-53101775D01*
X13857142Y-53101775D02*
X13914285Y-53073204D01*
X13914285Y-53073204D02*
X14028570Y-53073204D01*
X14028570Y-53073204D02*
X14085713Y-53101775D01*
X14085713Y-53101775D02*
X14114285Y-53158918D01*
X14114285Y-53158918D02*
X14114285Y-53216061D01*
X14114285Y-53216061D02*
X13828570Y-53273204D01*
X14371428Y-53473204D02*
X14371428Y-53073204D01*
X14371428Y-53187490D02*
X14399999Y-53130347D01*
X14399999Y-53130347D02*
X14428571Y-53101775D01*
X14428571Y-53101775D02*
X14485713Y-53073204D01*
X14485713Y-53073204D02*
X14542856Y-53073204D01*
X15371428Y-53701775D02*
X15342857Y-53673204D01*
X15342857Y-53673204D02*
X15285714Y-53587490D01*
X15285714Y-53587490D02*
X15257143Y-53530347D01*
X15257143Y-53530347D02*
X15228571Y-53444633D01*
X15228571Y-53444633D02*
X15200000Y-53301775D01*
X15200000Y-53301775D02*
X15200000Y-53187490D01*
X15200000Y-53187490D02*
X15228571Y-53044633D01*
X15228571Y-53044633D02*
X15257143Y-52958918D01*
X15257143Y-52958918D02*
X15285714Y-52901775D01*
X15285714Y-52901775D02*
X15342857Y-52816061D01*
X15342857Y-52816061D02*
X15371428Y-52787490D01*
X15800000Y-53158918D02*
X15885714Y-53187490D01*
X15885714Y-53187490D02*
X15914285Y-53216061D01*
X15914285Y-53216061D02*
X15942857Y-53273204D01*
X15942857Y-53273204D02*
X15942857Y-53358918D01*
X15942857Y-53358918D02*
X15914285Y-53416061D01*
X15914285Y-53416061D02*
X15885714Y-53444633D01*
X15885714Y-53444633D02*
X15828571Y-53473204D01*
X15828571Y-53473204D02*
X15600000Y-53473204D01*
X15600000Y-53473204D02*
X15600000Y-52873204D01*
X15600000Y-52873204D02*
X15800000Y-52873204D01*
X15800000Y-52873204D02*
X15857143Y-52901775D01*
X15857143Y-52901775D02*
X15885714Y-52930347D01*
X15885714Y-52930347D02*
X15914285Y-52987490D01*
X15914285Y-52987490D02*
X15914285Y-53044633D01*
X15914285Y-53044633D02*
X15885714Y-53101775D01*
X15885714Y-53101775D02*
X15857143Y-53130347D01*
X15857143Y-53130347D02*
X15800000Y-53158918D01*
X15800000Y-53158918D02*
X15600000Y-53158918D01*
X16228571Y-53444633D02*
X16228571Y-53473204D01*
X16228571Y-53473204D02*
X16200000Y-53530347D01*
X16200000Y-53530347D02*
X16171428Y-53558918D01*
X16942857Y-53473204D02*
X16942857Y-52873204D01*
X16942857Y-52873204D02*
X17171428Y-52873204D01*
X17171428Y-52873204D02*
X17228571Y-52901775D01*
X17228571Y-52901775D02*
X17257142Y-52930347D01*
X17257142Y-52930347D02*
X17285714Y-52987490D01*
X17285714Y-52987490D02*
X17285714Y-53073204D01*
X17285714Y-53073204D02*
X17257142Y-53130347D01*
X17257142Y-53130347D02*
X17228571Y-53158918D01*
X17228571Y-53158918D02*
X17171428Y-53187490D01*
X17171428Y-53187490D02*
X16942857Y-53187490D01*
X17514285Y-53444633D02*
X17600000Y-53473204D01*
X17600000Y-53473204D02*
X17742857Y-53473204D01*
X17742857Y-53473204D02*
X17800000Y-53444633D01*
X17800000Y-53444633D02*
X17828571Y-53416061D01*
X17828571Y-53416061D02*
X17857142Y-53358918D01*
X17857142Y-53358918D02*
X17857142Y-53301775D01*
X17857142Y-53301775D02*
X17828571Y-53244633D01*
X17828571Y-53244633D02*
X17800000Y-53216061D01*
X17800000Y-53216061D02*
X17742857Y-53187490D01*
X17742857Y-53187490D02*
X17628571Y-53158918D01*
X17628571Y-53158918D02*
X17571428Y-53130347D01*
X17571428Y-53130347D02*
X17542857Y-53101775D01*
X17542857Y-53101775D02*
X17514285Y-53044633D01*
X17514285Y-53044633D02*
X17514285Y-52987490D01*
X17514285Y-52987490D02*
X17542857Y-52930347D01*
X17542857Y-52930347D02*
X17571428Y-52901775D01*
X17571428Y-52901775D02*
X17628571Y-52873204D01*
X17628571Y-52873204D02*
X17771428Y-52873204D01*
X17771428Y-52873204D02*
X17857142Y-52901775D01*
X18085714Y-53301775D02*
X18371429Y-53301775D01*
X18028571Y-53473204D02*
X18228571Y-52873204D01*
X18228571Y-52873204D02*
X18428571Y-53473204D01*
X18571429Y-53701775D02*
X18600000Y-53673204D01*
X18600000Y-53673204D02*
X18657143Y-53587490D01*
X18657143Y-53587490D02*
X18685715Y-53530347D01*
X18685715Y-53530347D02*
X18714286Y-53444633D01*
X18714286Y-53444633D02*
X18742857Y-53301775D01*
X18742857Y-53301775D02*
X18742857Y-53187490D01*
X18742857Y-53187490D02*
X18714286Y-53044633D01*
X18714286Y-53044633D02*
X18685715Y-52958918D01*
X18685715Y-52958918D02*
X18657143Y-52901775D01*
X18657143Y-52901775D02*
X18600000Y-52816061D01*
X18600000Y-52816061D02*
X18571429Y-52787490D01*
X19742858Y-53073204D02*
X19742858Y-53473204D01*
X19485715Y-53073204D02*
X19485715Y-53387490D01*
X19485715Y-53387490D02*
X19514286Y-53444633D01*
X19514286Y-53444633D02*
X19571429Y-53473204D01*
X19571429Y-53473204D02*
X19657143Y-53473204D01*
X19657143Y-53473204D02*
X19714286Y-53444633D01*
X19714286Y-53444633D02*
X19742858Y-53416061D01*
X20028572Y-53073204D02*
X20028572Y-53473204D01*
X20028572Y-53130347D02*
X20057143Y-53101775D01*
X20057143Y-53101775D02*
X20114286Y-53073204D01*
X20114286Y-53073204D02*
X20200000Y-53073204D01*
X20200000Y-53073204D02*
X20257143Y-53101775D01*
X20257143Y-53101775D02*
X20285715Y-53158918D01*
X20285715Y-53158918D02*
X20285715Y-53473204D01*
X20828572Y-53473204D02*
X20828572Y-52873204D01*
X20828572Y-53444633D02*
X20771429Y-53473204D01*
X20771429Y-53473204D02*
X20657143Y-53473204D01*
X20657143Y-53473204D02*
X20600000Y-53444633D01*
X20600000Y-53444633D02*
X20571429Y-53416061D01*
X20571429Y-53416061D02*
X20542857Y-53358918D01*
X20542857Y-53358918D02*
X20542857Y-53187490D01*
X20542857Y-53187490D02*
X20571429Y-53130347D01*
X20571429Y-53130347D02*
X20600000Y-53101775D01*
X20600000Y-53101775D02*
X20657143Y-53073204D01*
X20657143Y-53073204D02*
X20771429Y-53073204D01*
X20771429Y-53073204D02*
X20828572Y-53101775D01*
X21342857Y-53444633D02*
X21285714Y-53473204D01*
X21285714Y-53473204D02*
X21171429Y-53473204D01*
X21171429Y-53473204D02*
X21114286Y-53444633D01*
X21114286Y-53444633D02*
X21085714Y-53387490D01*
X21085714Y-53387490D02*
X21085714Y-53158918D01*
X21085714Y-53158918D02*
X21114286Y-53101775D01*
X21114286Y-53101775D02*
X21171429Y-53073204D01*
X21171429Y-53073204D02*
X21285714Y-53073204D01*
X21285714Y-53073204D02*
X21342857Y-53101775D01*
X21342857Y-53101775D02*
X21371429Y-53158918D01*
X21371429Y-53158918D02*
X21371429Y-53216061D01*
X21371429Y-53216061D02*
X21085714Y-53273204D01*
X21628572Y-53473204D02*
X21628572Y-53073204D01*
X21628572Y-53187490D02*
X21657143Y-53130347D01*
X21657143Y-53130347D02*
X21685715Y-53101775D01*
X21685715Y-53101775D02*
X21742857Y-53073204D01*
X21742857Y-53073204D02*
X21800000Y-53073204D01*
X22371429Y-53073204D02*
X22600001Y-53073204D01*
X22457144Y-52873204D02*
X22457144Y-53387490D01*
X22457144Y-53387490D02*
X22485715Y-53444633D01*
X22485715Y-53444633D02*
X22542858Y-53473204D01*
X22542858Y-53473204D02*
X22600001Y-53473204D01*
X22800001Y-53473204D02*
X22800001Y-52873204D01*
X23057144Y-53473204D02*
X23057144Y-53158918D01*
X23057144Y-53158918D02*
X23028572Y-53101775D01*
X23028572Y-53101775D02*
X22971429Y-53073204D01*
X22971429Y-53073204D02*
X22885715Y-53073204D01*
X22885715Y-53073204D02*
X22828572Y-53101775D01*
X22828572Y-53101775D02*
X22800001Y-53130347D01*
X23571429Y-53444633D02*
X23514286Y-53473204D01*
X23514286Y-53473204D02*
X23400001Y-53473204D01*
X23400001Y-53473204D02*
X23342858Y-53444633D01*
X23342858Y-53444633D02*
X23314286Y-53387490D01*
X23314286Y-53387490D02*
X23314286Y-53158918D01*
X23314286Y-53158918D02*
X23342858Y-53101775D01*
X23342858Y-53101775D02*
X23400001Y-53073204D01*
X23400001Y-53073204D02*
X23514286Y-53073204D01*
X23514286Y-53073204D02*
X23571429Y-53101775D01*
X23571429Y-53101775D02*
X23600001Y-53158918D01*
X23600001Y-53158918D02*
X23600001Y-53216061D01*
X23600001Y-53216061D02*
X23314286Y-53273204D01*
X24314287Y-53073204D02*
X24314287Y-53673204D01*
X24314287Y-53101775D02*
X24371430Y-53073204D01*
X24371430Y-53073204D02*
X24485715Y-53073204D01*
X24485715Y-53073204D02*
X24542858Y-53101775D01*
X24542858Y-53101775D02*
X24571430Y-53130347D01*
X24571430Y-53130347D02*
X24600001Y-53187490D01*
X24600001Y-53187490D02*
X24600001Y-53358918D01*
X24600001Y-53358918D02*
X24571430Y-53416061D01*
X24571430Y-53416061D02*
X24542858Y-53444633D01*
X24542858Y-53444633D02*
X24485715Y-53473204D01*
X24485715Y-53473204D02*
X24371430Y-53473204D01*
X24371430Y-53473204D02*
X24314287Y-53444633D01*
X24942858Y-53473204D02*
X24885715Y-53444633D01*
X24885715Y-53444633D02*
X24857144Y-53416061D01*
X24857144Y-53416061D02*
X24828572Y-53358918D01*
X24828572Y-53358918D02*
X24828572Y-53187490D01*
X24828572Y-53187490D02*
X24857144Y-53130347D01*
X24857144Y-53130347D02*
X24885715Y-53101775D01*
X24885715Y-53101775D02*
X24942858Y-53073204D01*
X24942858Y-53073204D02*
X25028572Y-53073204D01*
X25028572Y-53073204D02*
X25085715Y-53101775D01*
X25085715Y-53101775D02*
X25114287Y-53130347D01*
X25114287Y-53130347D02*
X25142858Y-53187490D01*
X25142858Y-53187490D02*
X25142858Y-53358918D01*
X25142858Y-53358918D02*
X25114287Y-53416061D01*
X25114287Y-53416061D02*
X25085715Y-53444633D01*
X25085715Y-53444633D02*
X25028572Y-53473204D01*
X25028572Y-53473204D02*
X24942858Y-53473204D01*
X25400001Y-53473204D02*
X25400001Y-53073204D01*
X25400001Y-53187490D02*
X25428572Y-53130347D01*
X25428572Y-53130347D02*
X25457144Y-53101775D01*
X25457144Y-53101775D02*
X25514286Y-53073204D01*
X25514286Y-53073204D02*
X25571429Y-53073204D01*
X25685715Y-53073204D02*
X25914287Y-53073204D01*
X25771430Y-52873204D02*
X25771430Y-53387490D01*
X25771430Y-53387490D02*
X25800001Y-53444633D01*
X25800001Y-53444633D02*
X25857144Y-53473204D01*
X25857144Y-53473204D02*
X25914287Y-53473204D01*
X29435856Y-28358918D02*
X29235856Y-28358918D01*
X29235856Y-28673204D02*
X29235856Y-28073204D01*
X29235856Y-28073204D02*
X29521570Y-28073204D01*
X30092999Y-28673204D02*
X29892999Y-28387490D01*
X29750142Y-28673204D02*
X29750142Y-28073204D01*
X29750142Y-28073204D02*
X29978713Y-28073204D01*
X29978713Y-28073204D02*
X30035856Y-28101775D01*
X30035856Y-28101775D02*
X30064427Y-28130347D01*
X30064427Y-28130347D02*
X30092999Y-28187490D01*
X30092999Y-28187490D02*
X30092999Y-28273204D01*
X30092999Y-28273204D02*
X30064427Y-28330347D01*
X30064427Y-28330347D02*
X30035856Y-28358918D01*
X30035856Y-28358918D02*
X29978713Y-28387490D01*
X29978713Y-28387490D02*
X29750142Y-28387490D01*
X30607285Y-28273204D02*
X30607285Y-28673204D01*
X30464427Y-28044633D02*
X30321570Y-28473204D01*
X30321570Y-28473204D02*
X30692999Y-28473204D01*
X31492999Y-28073204D02*
X31550142Y-28073204D01*
X31550142Y-28073204D02*
X31607285Y-28101775D01*
X31607285Y-28101775D02*
X31635857Y-28130347D01*
X31635857Y-28130347D02*
X31664428Y-28187490D01*
X31664428Y-28187490D02*
X31692999Y-28301775D01*
X31692999Y-28301775D02*
X31692999Y-28444633D01*
X31692999Y-28444633D02*
X31664428Y-28558918D01*
X31664428Y-28558918D02*
X31635857Y-28616061D01*
X31635857Y-28616061D02*
X31607285Y-28644633D01*
X31607285Y-28644633D02*
X31550142Y-28673204D01*
X31550142Y-28673204D02*
X31492999Y-28673204D01*
X31492999Y-28673204D02*
X31435857Y-28644633D01*
X31435857Y-28644633D02*
X31407285Y-28616061D01*
X31407285Y-28616061D02*
X31378714Y-28558918D01*
X31378714Y-28558918D02*
X31350142Y-28444633D01*
X31350142Y-28444633D02*
X31350142Y-28301775D01*
X31350142Y-28301775D02*
X31378714Y-28187490D01*
X31378714Y-28187490D02*
X31407285Y-28130347D01*
X31407285Y-28130347D02*
X31435857Y-28101775D01*
X31435857Y-28101775D02*
X31492999Y-28073204D01*
X31950143Y-28616061D02*
X31978714Y-28644633D01*
X31978714Y-28644633D02*
X31950143Y-28673204D01*
X31950143Y-28673204D02*
X31921571Y-28644633D01*
X31921571Y-28644633D02*
X31950143Y-28616061D01*
X31950143Y-28616061D02*
X31950143Y-28673204D01*
X32493000Y-28073204D02*
X32378714Y-28073204D01*
X32378714Y-28073204D02*
X32321571Y-28101775D01*
X32321571Y-28101775D02*
X32293000Y-28130347D01*
X32293000Y-28130347D02*
X32235857Y-28216061D01*
X32235857Y-28216061D02*
X32207285Y-28330347D01*
X32207285Y-28330347D02*
X32207285Y-28558918D01*
X32207285Y-28558918D02*
X32235857Y-28616061D01*
X32235857Y-28616061D02*
X32264428Y-28644633D01*
X32264428Y-28644633D02*
X32321571Y-28673204D01*
X32321571Y-28673204D02*
X32435857Y-28673204D01*
X32435857Y-28673204D02*
X32493000Y-28644633D01*
X32493000Y-28644633D02*
X32521571Y-28616061D01*
X32521571Y-28616061D02*
X32550142Y-28558918D01*
X32550142Y-28558918D02*
X32550142Y-28416061D01*
X32550142Y-28416061D02*
X32521571Y-28358918D01*
X32521571Y-28358918D02*
X32493000Y-28330347D01*
X32493000Y-28330347D02*
X32435857Y-28301775D01*
X32435857Y-28301775D02*
X32321571Y-28301775D01*
X32321571Y-28301775D02*
X32264428Y-28330347D01*
X32264428Y-28330347D02*
X32235857Y-28358918D01*
X32235857Y-28358918D02*
X32207285Y-28416061D01*
X33235857Y-28644633D02*
X33293000Y-28673204D01*
X33293000Y-28673204D02*
X33407286Y-28673204D01*
X33407286Y-28673204D02*
X33464429Y-28644633D01*
X33464429Y-28644633D02*
X33493000Y-28587490D01*
X33493000Y-28587490D02*
X33493000Y-28558918D01*
X33493000Y-28558918D02*
X33464429Y-28501775D01*
X33464429Y-28501775D02*
X33407286Y-28473204D01*
X33407286Y-28473204D02*
X33321572Y-28473204D01*
X33321572Y-28473204D02*
X33264429Y-28444633D01*
X33264429Y-28444633D02*
X33235857Y-28387490D01*
X33235857Y-28387490D02*
X33235857Y-28358918D01*
X33235857Y-28358918D02*
X33264429Y-28301775D01*
X33264429Y-28301775D02*
X33321572Y-28273204D01*
X33321572Y-28273204D02*
X33407286Y-28273204D01*
X33407286Y-28273204D02*
X33464429Y-28301775D01*
X33664428Y-28273204D02*
X33893000Y-28273204D01*
X33750143Y-28073204D02*
X33750143Y-28587490D01*
X33750143Y-28587490D02*
X33778714Y-28644633D01*
X33778714Y-28644633D02*
X33835857Y-28673204D01*
X33835857Y-28673204D02*
X33893000Y-28673204D01*
X34093000Y-28673204D02*
X34093000Y-28273204D01*
X34093000Y-28073204D02*
X34064428Y-28101775D01*
X34064428Y-28101775D02*
X34093000Y-28130347D01*
X34093000Y-28130347D02*
X34121571Y-28101775D01*
X34121571Y-28101775D02*
X34093000Y-28073204D01*
X34093000Y-28073204D02*
X34093000Y-28130347D01*
X34292999Y-28273204D02*
X34521571Y-28273204D01*
X34378714Y-28673204D02*
X34378714Y-28158918D01*
X34378714Y-28158918D02*
X34407285Y-28101775D01*
X34407285Y-28101775D02*
X34464428Y-28073204D01*
X34464428Y-28073204D02*
X34521571Y-28073204D01*
X34635856Y-28273204D02*
X34864428Y-28273204D01*
X34721571Y-28673204D02*
X34721571Y-28158918D01*
X34721571Y-28158918D02*
X34750142Y-28101775D01*
X34750142Y-28101775D02*
X34807285Y-28073204D01*
X34807285Y-28073204D02*
X34864428Y-28073204D01*
X35292999Y-28644633D02*
X35235856Y-28673204D01*
X35235856Y-28673204D02*
X35121571Y-28673204D01*
X35121571Y-28673204D02*
X35064428Y-28644633D01*
X35064428Y-28644633D02*
X35035856Y-28587490D01*
X35035856Y-28587490D02*
X35035856Y-28358918D01*
X35035856Y-28358918D02*
X35064428Y-28301775D01*
X35064428Y-28301775D02*
X35121571Y-28273204D01*
X35121571Y-28273204D02*
X35235856Y-28273204D01*
X35235856Y-28273204D02*
X35292999Y-28301775D01*
X35292999Y-28301775D02*
X35321571Y-28358918D01*
X35321571Y-28358918D02*
X35321571Y-28416061D01*
X35321571Y-28416061D02*
X35035856Y-28473204D01*
X35578714Y-28273204D02*
X35578714Y-28673204D01*
X35578714Y-28330347D02*
X35607285Y-28301775D01*
X35607285Y-28301775D02*
X35664428Y-28273204D01*
X35664428Y-28273204D02*
X35750142Y-28273204D01*
X35750142Y-28273204D02*
X35807285Y-28301775D01*
X35807285Y-28301775D02*
X35835857Y-28358918D01*
X35835857Y-28358918D02*
X35835857Y-28673204D01*
X36350142Y-28644633D02*
X36292999Y-28673204D01*
X36292999Y-28673204D02*
X36178714Y-28673204D01*
X36178714Y-28673204D02*
X36121571Y-28644633D01*
X36121571Y-28644633D02*
X36092999Y-28587490D01*
X36092999Y-28587490D02*
X36092999Y-28358918D01*
X36092999Y-28358918D02*
X36121571Y-28301775D01*
X36121571Y-28301775D02*
X36178714Y-28273204D01*
X36178714Y-28273204D02*
X36292999Y-28273204D01*
X36292999Y-28273204D02*
X36350142Y-28301775D01*
X36350142Y-28301775D02*
X36378714Y-28358918D01*
X36378714Y-28358918D02*
X36378714Y-28416061D01*
X36378714Y-28416061D02*
X36092999Y-28473204D01*
X36635857Y-28673204D02*
X36635857Y-28273204D01*
X36635857Y-28387490D02*
X36664428Y-28330347D01*
X36664428Y-28330347D02*
X36693000Y-28301775D01*
X36693000Y-28301775D02*
X36750142Y-28273204D01*
X36750142Y-28273204D02*
X36807285Y-28273204D01*
X37635857Y-28901775D02*
X37607286Y-28873204D01*
X37607286Y-28873204D02*
X37550143Y-28787490D01*
X37550143Y-28787490D02*
X37521572Y-28730347D01*
X37521572Y-28730347D02*
X37493000Y-28644633D01*
X37493000Y-28644633D02*
X37464429Y-28501775D01*
X37464429Y-28501775D02*
X37464429Y-28387490D01*
X37464429Y-28387490D02*
X37493000Y-28244633D01*
X37493000Y-28244633D02*
X37521572Y-28158918D01*
X37521572Y-28158918D02*
X37550143Y-28101775D01*
X37550143Y-28101775D02*
X37607286Y-28016061D01*
X37607286Y-28016061D02*
X37635857Y-27987490D01*
X38064429Y-28358918D02*
X38150143Y-28387490D01*
X38150143Y-28387490D02*
X38178714Y-28416061D01*
X38178714Y-28416061D02*
X38207286Y-28473204D01*
X38207286Y-28473204D02*
X38207286Y-28558918D01*
X38207286Y-28558918D02*
X38178714Y-28616061D01*
X38178714Y-28616061D02*
X38150143Y-28644633D01*
X38150143Y-28644633D02*
X38093000Y-28673204D01*
X38093000Y-28673204D02*
X37864429Y-28673204D01*
X37864429Y-28673204D02*
X37864429Y-28073204D01*
X37864429Y-28073204D02*
X38064429Y-28073204D01*
X38064429Y-28073204D02*
X38121572Y-28101775D01*
X38121572Y-28101775D02*
X38150143Y-28130347D01*
X38150143Y-28130347D02*
X38178714Y-28187490D01*
X38178714Y-28187490D02*
X38178714Y-28244633D01*
X38178714Y-28244633D02*
X38150143Y-28301775D01*
X38150143Y-28301775D02*
X38121572Y-28330347D01*
X38121572Y-28330347D02*
X38064429Y-28358918D01*
X38064429Y-28358918D02*
X37864429Y-28358918D01*
X38407286Y-28901775D02*
X38435857Y-28873204D01*
X38435857Y-28873204D02*
X38493000Y-28787490D01*
X38493000Y-28787490D02*
X38521572Y-28730347D01*
X38521572Y-28730347D02*
X38550143Y-28644633D01*
X38550143Y-28644633D02*
X38578714Y-28501775D01*
X38578714Y-28501775D02*
X38578714Y-28387490D01*
X38578714Y-28387490D02*
X38550143Y-28244633D01*
X38550143Y-28244633D02*
X38521572Y-28158918D01*
X38521572Y-28158918D02*
X38493000Y-28101775D01*
X38493000Y-28101775D02*
X38435857Y-28016061D01*
X38435857Y-28016061D02*
X38407286Y-27987490D01*
X39578715Y-28273204D02*
X39578715Y-28673204D01*
X39321572Y-28273204D02*
X39321572Y-28587490D01*
X39321572Y-28587490D02*
X39350143Y-28644633D01*
X39350143Y-28644633D02*
X39407286Y-28673204D01*
X39407286Y-28673204D02*
X39493000Y-28673204D01*
X39493000Y-28673204D02*
X39550143Y-28644633D01*
X39550143Y-28644633D02*
X39578715Y-28616061D01*
X39864429Y-28273204D02*
X39864429Y-28673204D01*
X39864429Y-28330347D02*
X39893000Y-28301775D01*
X39893000Y-28301775D02*
X39950143Y-28273204D01*
X39950143Y-28273204D02*
X40035857Y-28273204D01*
X40035857Y-28273204D02*
X40093000Y-28301775D01*
X40093000Y-28301775D02*
X40121572Y-28358918D01*
X40121572Y-28358918D02*
X40121572Y-28673204D01*
X40664429Y-28673204D02*
X40664429Y-28073204D01*
X40664429Y-28644633D02*
X40607286Y-28673204D01*
X40607286Y-28673204D02*
X40493000Y-28673204D01*
X40493000Y-28673204D02*
X40435857Y-28644633D01*
X40435857Y-28644633D02*
X40407286Y-28616061D01*
X40407286Y-28616061D02*
X40378714Y-28558918D01*
X40378714Y-28558918D02*
X40378714Y-28387490D01*
X40378714Y-28387490D02*
X40407286Y-28330347D01*
X40407286Y-28330347D02*
X40435857Y-28301775D01*
X40435857Y-28301775D02*
X40493000Y-28273204D01*
X40493000Y-28273204D02*
X40607286Y-28273204D01*
X40607286Y-28273204D02*
X40664429Y-28301775D01*
X41178714Y-28644633D02*
X41121571Y-28673204D01*
X41121571Y-28673204D02*
X41007286Y-28673204D01*
X41007286Y-28673204D02*
X40950143Y-28644633D01*
X40950143Y-28644633D02*
X40921571Y-28587490D01*
X40921571Y-28587490D02*
X40921571Y-28358918D01*
X40921571Y-28358918D02*
X40950143Y-28301775D01*
X40950143Y-28301775D02*
X41007286Y-28273204D01*
X41007286Y-28273204D02*
X41121571Y-28273204D01*
X41121571Y-28273204D02*
X41178714Y-28301775D01*
X41178714Y-28301775D02*
X41207286Y-28358918D01*
X41207286Y-28358918D02*
X41207286Y-28416061D01*
X41207286Y-28416061D02*
X40921571Y-28473204D01*
X41464429Y-28673204D02*
X41464429Y-28273204D01*
X41464429Y-28387490D02*
X41493000Y-28330347D01*
X41493000Y-28330347D02*
X41521572Y-28301775D01*
X41521572Y-28301775D02*
X41578714Y-28273204D01*
X41578714Y-28273204D02*
X41635857Y-28273204D01*
X42207286Y-28273204D02*
X42435858Y-28273204D01*
X42293001Y-28073204D02*
X42293001Y-28587490D01*
X42293001Y-28587490D02*
X42321572Y-28644633D01*
X42321572Y-28644633D02*
X42378715Y-28673204D01*
X42378715Y-28673204D02*
X42435858Y-28673204D01*
X42635858Y-28673204D02*
X42635858Y-28073204D01*
X42893001Y-28673204D02*
X42893001Y-28358918D01*
X42893001Y-28358918D02*
X42864429Y-28301775D01*
X42864429Y-28301775D02*
X42807286Y-28273204D01*
X42807286Y-28273204D02*
X42721572Y-28273204D01*
X42721572Y-28273204D02*
X42664429Y-28301775D01*
X42664429Y-28301775D02*
X42635858Y-28330347D01*
X43407286Y-28644633D02*
X43350143Y-28673204D01*
X43350143Y-28673204D02*
X43235858Y-28673204D01*
X43235858Y-28673204D02*
X43178715Y-28644633D01*
X43178715Y-28644633D02*
X43150143Y-28587490D01*
X43150143Y-28587490D02*
X43150143Y-28358918D01*
X43150143Y-28358918D02*
X43178715Y-28301775D01*
X43178715Y-28301775D02*
X43235858Y-28273204D01*
X43235858Y-28273204D02*
X43350143Y-28273204D01*
X43350143Y-28273204D02*
X43407286Y-28301775D01*
X43407286Y-28301775D02*
X43435858Y-28358918D01*
X43435858Y-28358918D02*
X43435858Y-28416061D01*
X43435858Y-28416061D02*
X43150143Y-28473204D01*
X44150144Y-28673204D02*
X44150144Y-28073204D01*
X44407287Y-28673204D02*
X44407287Y-28358918D01*
X44407287Y-28358918D02*
X44378715Y-28301775D01*
X44378715Y-28301775D02*
X44321572Y-28273204D01*
X44321572Y-28273204D02*
X44235858Y-28273204D01*
X44235858Y-28273204D02*
X44178715Y-28301775D01*
X44178715Y-28301775D02*
X44150144Y-28330347D01*
X44921572Y-28644633D02*
X44864429Y-28673204D01*
X44864429Y-28673204D02*
X44750144Y-28673204D01*
X44750144Y-28673204D02*
X44693001Y-28644633D01*
X44693001Y-28644633D02*
X44664429Y-28587490D01*
X44664429Y-28587490D02*
X44664429Y-28358918D01*
X44664429Y-28358918D02*
X44693001Y-28301775D01*
X44693001Y-28301775D02*
X44750144Y-28273204D01*
X44750144Y-28273204D02*
X44864429Y-28273204D01*
X44864429Y-28273204D02*
X44921572Y-28301775D01*
X44921572Y-28301775D02*
X44950144Y-28358918D01*
X44950144Y-28358918D02*
X44950144Y-28416061D01*
X44950144Y-28416061D02*
X44664429Y-28473204D01*
X45464430Y-28673204D02*
X45464430Y-28358918D01*
X45464430Y-28358918D02*
X45435858Y-28301775D01*
X45435858Y-28301775D02*
X45378715Y-28273204D01*
X45378715Y-28273204D02*
X45264430Y-28273204D01*
X45264430Y-28273204D02*
X45207287Y-28301775D01*
X45464430Y-28644633D02*
X45407287Y-28673204D01*
X45407287Y-28673204D02*
X45264430Y-28673204D01*
X45264430Y-28673204D02*
X45207287Y-28644633D01*
X45207287Y-28644633D02*
X45178715Y-28587490D01*
X45178715Y-28587490D02*
X45178715Y-28530347D01*
X45178715Y-28530347D02*
X45207287Y-28473204D01*
X45207287Y-28473204D02*
X45264430Y-28444633D01*
X45264430Y-28444633D02*
X45407287Y-28444633D01*
X45407287Y-28444633D02*
X45464430Y-28416061D01*
X46007287Y-28673204D02*
X46007287Y-28073204D01*
X46007287Y-28644633D02*
X45950144Y-28673204D01*
X45950144Y-28673204D02*
X45835858Y-28673204D01*
X45835858Y-28673204D02*
X45778715Y-28644633D01*
X45778715Y-28644633D02*
X45750144Y-28616061D01*
X45750144Y-28616061D02*
X45721572Y-28558918D01*
X45721572Y-28558918D02*
X45721572Y-28387490D01*
X45721572Y-28387490D02*
X45750144Y-28330347D01*
X45750144Y-28330347D02*
X45778715Y-28301775D01*
X45778715Y-28301775D02*
X45835858Y-28273204D01*
X45835858Y-28273204D02*
X45950144Y-28273204D01*
X45950144Y-28273204D02*
X46007287Y-28301775D01*
X46521572Y-28644633D02*
X46464429Y-28673204D01*
X46464429Y-28673204D02*
X46350144Y-28673204D01*
X46350144Y-28673204D02*
X46293001Y-28644633D01*
X46293001Y-28644633D02*
X46264429Y-28587490D01*
X46264429Y-28587490D02*
X46264429Y-28358918D01*
X46264429Y-28358918D02*
X46293001Y-28301775D01*
X46293001Y-28301775D02*
X46350144Y-28273204D01*
X46350144Y-28273204D02*
X46464429Y-28273204D01*
X46464429Y-28273204D02*
X46521572Y-28301775D01*
X46521572Y-28301775D02*
X46550144Y-28358918D01*
X46550144Y-28358918D02*
X46550144Y-28416061D01*
X46550144Y-28416061D02*
X46264429Y-28473204D01*
X46807287Y-28673204D02*
X46807287Y-28273204D01*
X46807287Y-28387490D02*
X46835858Y-28330347D01*
X46835858Y-28330347D02*
X46864430Y-28301775D01*
X46864430Y-28301775D02*
X46921572Y-28273204D01*
X46921572Y-28273204D02*
X46978715Y-28273204D01*
X47635859Y-28273204D02*
X47635859Y-28873204D01*
X47635859Y-28301775D02*
X47693002Y-28273204D01*
X47693002Y-28273204D02*
X47807287Y-28273204D01*
X47807287Y-28273204D02*
X47864430Y-28301775D01*
X47864430Y-28301775D02*
X47893002Y-28330347D01*
X47893002Y-28330347D02*
X47921573Y-28387490D01*
X47921573Y-28387490D02*
X47921573Y-28558918D01*
X47921573Y-28558918D02*
X47893002Y-28616061D01*
X47893002Y-28616061D02*
X47864430Y-28644633D01*
X47864430Y-28644633D02*
X47807287Y-28673204D01*
X47807287Y-28673204D02*
X47693002Y-28673204D01*
X47693002Y-28673204D02*
X47635859Y-28644633D01*
X48435859Y-28673204D02*
X48435859Y-28358918D01*
X48435859Y-28358918D02*
X48407287Y-28301775D01*
X48407287Y-28301775D02*
X48350144Y-28273204D01*
X48350144Y-28273204D02*
X48235859Y-28273204D01*
X48235859Y-28273204D02*
X48178716Y-28301775D01*
X48435859Y-28644633D02*
X48378716Y-28673204D01*
X48378716Y-28673204D02*
X48235859Y-28673204D01*
X48235859Y-28673204D02*
X48178716Y-28644633D01*
X48178716Y-28644633D02*
X48150144Y-28587490D01*
X48150144Y-28587490D02*
X48150144Y-28530347D01*
X48150144Y-28530347D02*
X48178716Y-28473204D01*
X48178716Y-28473204D02*
X48235859Y-28444633D01*
X48235859Y-28444633D02*
X48378716Y-28444633D01*
X48378716Y-28444633D02*
X48435859Y-28416061D01*
X48978716Y-28673204D02*
X48978716Y-28073204D01*
X48978716Y-28644633D02*
X48921573Y-28673204D01*
X48921573Y-28673204D02*
X48807287Y-28673204D01*
X48807287Y-28673204D02*
X48750144Y-28644633D01*
X48750144Y-28644633D02*
X48721573Y-28616061D01*
X48721573Y-28616061D02*
X48693001Y-28558918D01*
X48693001Y-28558918D02*
X48693001Y-28387490D01*
X48693001Y-28387490D02*
X48721573Y-28330347D01*
X48721573Y-28330347D02*
X48750144Y-28301775D01*
X48750144Y-28301775D02*
X48807287Y-28273204D01*
X48807287Y-28273204D02*
X48921573Y-28273204D01*
X48921573Y-28273204D02*
X48978716Y-28301775D01*
X49521573Y-28673204D02*
X49521573Y-28073204D01*
X49521573Y-28644633D02*
X49464430Y-28673204D01*
X49464430Y-28673204D02*
X49350144Y-28673204D01*
X49350144Y-28673204D02*
X49293001Y-28644633D01*
X49293001Y-28644633D02*
X49264430Y-28616061D01*
X49264430Y-28616061D02*
X49235858Y-28558918D01*
X49235858Y-28558918D02*
X49235858Y-28387490D01*
X49235858Y-28387490D02*
X49264430Y-28330347D01*
X49264430Y-28330347D02*
X49293001Y-28301775D01*
X49293001Y-28301775D02*
X49350144Y-28273204D01*
X49350144Y-28273204D02*
X49464430Y-28273204D01*
X49464430Y-28273204D02*
X49521573Y-28301775D01*
X49893001Y-28673204D02*
X49835858Y-28644633D01*
X49835858Y-28644633D02*
X49807287Y-28587490D01*
X49807287Y-28587490D02*
X49807287Y-28073204D01*
X50350144Y-28644633D02*
X50293001Y-28673204D01*
X50293001Y-28673204D02*
X50178716Y-28673204D01*
X50178716Y-28673204D02*
X50121573Y-28644633D01*
X50121573Y-28644633D02*
X50093001Y-28587490D01*
X50093001Y-28587490D02*
X50093001Y-28358918D01*
X50093001Y-28358918D02*
X50121573Y-28301775D01*
X50121573Y-28301775D02*
X50178716Y-28273204D01*
X50178716Y-28273204D02*
X50293001Y-28273204D01*
X50293001Y-28273204D02*
X50350144Y-28301775D01*
X50350144Y-28301775D02*
X50378716Y-28358918D01*
X50378716Y-28358918D02*
X50378716Y-28416061D01*
X50378716Y-28416061D02*
X50093001Y-28473204D01*
X7171427Y-41358918D02*
X6971427Y-41358918D01*
X6971427Y-41673204D02*
X6971427Y-41073204D01*
X6971427Y-41073204D02*
X7257141Y-41073204D01*
X7828570Y-41673204D02*
X7628570Y-41387490D01*
X7485713Y-41673204D02*
X7485713Y-41073204D01*
X7485713Y-41073204D02*
X7714284Y-41073204D01*
X7714284Y-41073204D02*
X7771427Y-41101775D01*
X7771427Y-41101775D02*
X7799998Y-41130347D01*
X7799998Y-41130347D02*
X7828570Y-41187490D01*
X7828570Y-41187490D02*
X7828570Y-41273204D01*
X7828570Y-41273204D02*
X7799998Y-41330347D01*
X7799998Y-41330347D02*
X7771427Y-41358918D01*
X7771427Y-41358918D02*
X7714284Y-41387490D01*
X7714284Y-41387490D02*
X7485713Y-41387490D01*
X8342856Y-41273204D02*
X8342856Y-41673204D01*
X8199998Y-41044633D02*
X8057141Y-41473204D01*
X8057141Y-41473204D02*
X8428570Y-41473204D01*
X9428570Y-41673204D02*
X9085713Y-41673204D01*
X9257142Y-41673204D02*
X9257142Y-41073204D01*
X9257142Y-41073204D02*
X9199999Y-41158918D01*
X9199999Y-41158918D02*
X9142856Y-41216061D01*
X9142856Y-41216061D02*
X9085713Y-41244633D01*
X9685714Y-41616061D02*
X9714285Y-41644633D01*
X9714285Y-41644633D02*
X9685714Y-41673204D01*
X9685714Y-41673204D02*
X9657142Y-41644633D01*
X9657142Y-41644633D02*
X9685714Y-41616061D01*
X9685714Y-41616061D02*
X9685714Y-41673204D01*
X10085713Y-41073204D02*
X10142856Y-41073204D01*
X10142856Y-41073204D02*
X10199999Y-41101775D01*
X10199999Y-41101775D02*
X10228571Y-41130347D01*
X10228571Y-41130347D02*
X10257142Y-41187490D01*
X10257142Y-41187490D02*
X10285713Y-41301775D01*
X10285713Y-41301775D02*
X10285713Y-41444633D01*
X10285713Y-41444633D02*
X10257142Y-41558918D01*
X10257142Y-41558918D02*
X10228571Y-41616061D01*
X10228571Y-41616061D02*
X10199999Y-41644633D01*
X10199999Y-41644633D02*
X10142856Y-41673204D01*
X10142856Y-41673204D02*
X10085713Y-41673204D01*
X10085713Y-41673204D02*
X10028571Y-41644633D01*
X10028571Y-41644633D02*
X9999999Y-41616061D01*
X9999999Y-41616061D02*
X9971428Y-41558918D01*
X9971428Y-41558918D02*
X9942856Y-41444633D01*
X9942856Y-41444633D02*
X9942856Y-41301775D01*
X9942856Y-41301775D02*
X9971428Y-41187490D01*
X9971428Y-41187490D02*
X9999999Y-41130347D01*
X9999999Y-41130347D02*
X10028571Y-41101775D01*
X10028571Y-41101775D02*
X10085713Y-41073204D01*
X10971428Y-41644633D02*
X11028571Y-41673204D01*
X11028571Y-41673204D02*
X11142857Y-41673204D01*
X11142857Y-41673204D02*
X11200000Y-41644633D01*
X11200000Y-41644633D02*
X11228571Y-41587490D01*
X11228571Y-41587490D02*
X11228571Y-41558918D01*
X11228571Y-41558918D02*
X11200000Y-41501775D01*
X11200000Y-41501775D02*
X11142857Y-41473204D01*
X11142857Y-41473204D02*
X11057143Y-41473204D01*
X11057143Y-41473204D02*
X11000000Y-41444633D01*
X11000000Y-41444633D02*
X10971428Y-41387490D01*
X10971428Y-41387490D02*
X10971428Y-41358918D01*
X10971428Y-41358918D02*
X11000000Y-41301775D01*
X11000000Y-41301775D02*
X11057143Y-41273204D01*
X11057143Y-41273204D02*
X11142857Y-41273204D01*
X11142857Y-41273204D02*
X11200000Y-41301775D01*
X11399999Y-41273204D02*
X11628571Y-41273204D01*
X11485714Y-41073204D02*
X11485714Y-41587490D01*
X11485714Y-41587490D02*
X11514285Y-41644633D01*
X11514285Y-41644633D02*
X11571428Y-41673204D01*
X11571428Y-41673204D02*
X11628571Y-41673204D01*
X11828571Y-41673204D02*
X11828571Y-41273204D01*
X11828571Y-41073204D02*
X11799999Y-41101775D01*
X11799999Y-41101775D02*
X11828571Y-41130347D01*
X11828571Y-41130347D02*
X11857142Y-41101775D01*
X11857142Y-41101775D02*
X11828571Y-41073204D01*
X11828571Y-41073204D02*
X11828571Y-41130347D01*
X12028570Y-41273204D02*
X12257142Y-41273204D01*
X12114285Y-41673204D02*
X12114285Y-41158918D01*
X12114285Y-41158918D02*
X12142856Y-41101775D01*
X12142856Y-41101775D02*
X12199999Y-41073204D01*
X12199999Y-41073204D02*
X12257142Y-41073204D01*
X12371427Y-41273204D02*
X12599999Y-41273204D01*
X12457142Y-41673204D02*
X12457142Y-41158918D01*
X12457142Y-41158918D02*
X12485713Y-41101775D01*
X12485713Y-41101775D02*
X12542856Y-41073204D01*
X12542856Y-41073204D02*
X12599999Y-41073204D01*
X13028570Y-41644633D02*
X12971427Y-41673204D01*
X12971427Y-41673204D02*
X12857142Y-41673204D01*
X12857142Y-41673204D02*
X12799999Y-41644633D01*
X12799999Y-41644633D02*
X12771427Y-41587490D01*
X12771427Y-41587490D02*
X12771427Y-41358918D01*
X12771427Y-41358918D02*
X12799999Y-41301775D01*
X12799999Y-41301775D02*
X12857142Y-41273204D01*
X12857142Y-41273204D02*
X12971427Y-41273204D01*
X12971427Y-41273204D02*
X13028570Y-41301775D01*
X13028570Y-41301775D02*
X13057142Y-41358918D01*
X13057142Y-41358918D02*
X13057142Y-41416061D01*
X13057142Y-41416061D02*
X12771427Y-41473204D01*
X13314285Y-41273204D02*
X13314285Y-41673204D01*
X13314285Y-41330347D02*
X13342856Y-41301775D01*
X13342856Y-41301775D02*
X13399999Y-41273204D01*
X13399999Y-41273204D02*
X13485713Y-41273204D01*
X13485713Y-41273204D02*
X13542856Y-41301775D01*
X13542856Y-41301775D02*
X13571428Y-41358918D01*
X13571428Y-41358918D02*
X13571428Y-41673204D01*
X14085713Y-41644633D02*
X14028570Y-41673204D01*
X14028570Y-41673204D02*
X13914285Y-41673204D01*
X13914285Y-41673204D02*
X13857142Y-41644633D01*
X13857142Y-41644633D02*
X13828570Y-41587490D01*
X13828570Y-41587490D02*
X13828570Y-41358918D01*
X13828570Y-41358918D02*
X13857142Y-41301775D01*
X13857142Y-41301775D02*
X13914285Y-41273204D01*
X13914285Y-41273204D02*
X14028570Y-41273204D01*
X14028570Y-41273204D02*
X14085713Y-41301775D01*
X14085713Y-41301775D02*
X14114285Y-41358918D01*
X14114285Y-41358918D02*
X14114285Y-41416061D01*
X14114285Y-41416061D02*
X13828570Y-41473204D01*
X14371428Y-41673204D02*
X14371428Y-41273204D01*
X14371428Y-41387490D02*
X14399999Y-41330347D01*
X14399999Y-41330347D02*
X14428571Y-41301775D01*
X14428571Y-41301775D02*
X14485713Y-41273204D01*
X14485713Y-41273204D02*
X14542856Y-41273204D01*
X15371428Y-41901775D02*
X15342857Y-41873204D01*
X15342857Y-41873204D02*
X15285714Y-41787490D01*
X15285714Y-41787490D02*
X15257143Y-41730347D01*
X15257143Y-41730347D02*
X15228571Y-41644633D01*
X15228571Y-41644633D02*
X15200000Y-41501775D01*
X15200000Y-41501775D02*
X15200000Y-41387490D01*
X15200000Y-41387490D02*
X15228571Y-41244633D01*
X15228571Y-41244633D02*
X15257143Y-41158918D01*
X15257143Y-41158918D02*
X15285714Y-41101775D01*
X15285714Y-41101775D02*
X15342857Y-41016061D01*
X15342857Y-41016061D02*
X15371428Y-40987490D01*
X15800000Y-41358918D02*
X15885714Y-41387490D01*
X15885714Y-41387490D02*
X15914285Y-41416061D01*
X15914285Y-41416061D02*
X15942857Y-41473204D01*
X15942857Y-41473204D02*
X15942857Y-41558918D01*
X15942857Y-41558918D02*
X15914285Y-41616061D01*
X15914285Y-41616061D02*
X15885714Y-41644633D01*
X15885714Y-41644633D02*
X15828571Y-41673204D01*
X15828571Y-41673204D02*
X15600000Y-41673204D01*
X15600000Y-41673204D02*
X15600000Y-41073204D01*
X15600000Y-41073204D02*
X15800000Y-41073204D01*
X15800000Y-41073204D02*
X15857143Y-41101775D01*
X15857143Y-41101775D02*
X15885714Y-41130347D01*
X15885714Y-41130347D02*
X15914285Y-41187490D01*
X15914285Y-41187490D02*
X15914285Y-41244633D01*
X15914285Y-41244633D02*
X15885714Y-41301775D01*
X15885714Y-41301775D02*
X15857143Y-41330347D01*
X15857143Y-41330347D02*
X15800000Y-41358918D01*
X15800000Y-41358918D02*
X15600000Y-41358918D01*
X16228571Y-41644633D02*
X16228571Y-41673204D01*
X16228571Y-41673204D02*
X16200000Y-41730347D01*
X16200000Y-41730347D02*
X16171428Y-41758918D01*
X16942857Y-41673204D02*
X16942857Y-41073204D01*
X16942857Y-41073204D02*
X17171428Y-41073204D01*
X17171428Y-41073204D02*
X17228571Y-41101775D01*
X17228571Y-41101775D02*
X17257142Y-41130347D01*
X17257142Y-41130347D02*
X17285714Y-41187490D01*
X17285714Y-41187490D02*
X17285714Y-41273204D01*
X17285714Y-41273204D02*
X17257142Y-41330347D01*
X17257142Y-41330347D02*
X17228571Y-41358918D01*
X17228571Y-41358918D02*
X17171428Y-41387490D01*
X17171428Y-41387490D02*
X16942857Y-41387490D01*
X17514285Y-41644633D02*
X17600000Y-41673204D01*
X17600000Y-41673204D02*
X17742857Y-41673204D01*
X17742857Y-41673204D02*
X17800000Y-41644633D01*
X17800000Y-41644633D02*
X17828571Y-41616061D01*
X17828571Y-41616061D02*
X17857142Y-41558918D01*
X17857142Y-41558918D02*
X17857142Y-41501775D01*
X17857142Y-41501775D02*
X17828571Y-41444633D01*
X17828571Y-41444633D02*
X17800000Y-41416061D01*
X17800000Y-41416061D02*
X17742857Y-41387490D01*
X17742857Y-41387490D02*
X17628571Y-41358918D01*
X17628571Y-41358918D02*
X17571428Y-41330347D01*
X17571428Y-41330347D02*
X17542857Y-41301775D01*
X17542857Y-41301775D02*
X17514285Y-41244633D01*
X17514285Y-41244633D02*
X17514285Y-41187490D01*
X17514285Y-41187490D02*
X17542857Y-41130347D01*
X17542857Y-41130347D02*
X17571428Y-41101775D01*
X17571428Y-41101775D02*
X17628571Y-41073204D01*
X17628571Y-41073204D02*
X17771428Y-41073204D01*
X17771428Y-41073204D02*
X17857142Y-41101775D01*
X18085714Y-41501775D02*
X18371429Y-41501775D01*
X18028571Y-41673204D02*
X18228571Y-41073204D01*
X18228571Y-41073204D02*
X18428571Y-41673204D01*
X18571429Y-41901775D02*
X18600000Y-41873204D01*
X18600000Y-41873204D02*
X18657143Y-41787490D01*
X18657143Y-41787490D02*
X18685715Y-41730347D01*
X18685715Y-41730347D02*
X18714286Y-41644633D01*
X18714286Y-41644633D02*
X18742857Y-41501775D01*
X18742857Y-41501775D02*
X18742857Y-41387490D01*
X18742857Y-41387490D02*
X18714286Y-41244633D01*
X18714286Y-41244633D02*
X18685715Y-41158918D01*
X18685715Y-41158918D02*
X18657143Y-41101775D01*
X18657143Y-41101775D02*
X18600000Y-41016061D01*
X18600000Y-41016061D02*
X18571429Y-40987490D01*
X19742858Y-41273204D02*
X19742858Y-41673204D01*
X19485715Y-41273204D02*
X19485715Y-41587490D01*
X19485715Y-41587490D02*
X19514286Y-41644633D01*
X19514286Y-41644633D02*
X19571429Y-41673204D01*
X19571429Y-41673204D02*
X19657143Y-41673204D01*
X19657143Y-41673204D02*
X19714286Y-41644633D01*
X19714286Y-41644633D02*
X19742858Y-41616061D01*
X20028572Y-41273204D02*
X20028572Y-41673204D01*
X20028572Y-41330347D02*
X20057143Y-41301775D01*
X20057143Y-41301775D02*
X20114286Y-41273204D01*
X20114286Y-41273204D02*
X20200000Y-41273204D01*
X20200000Y-41273204D02*
X20257143Y-41301775D01*
X20257143Y-41301775D02*
X20285715Y-41358918D01*
X20285715Y-41358918D02*
X20285715Y-41673204D01*
X20828572Y-41673204D02*
X20828572Y-41073204D01*
X20828572Y-41644633D02*
X20771429Y-41673204D01*
X20771429Y-41673204D02*
X20657143Y-41673204D01*
X20657143Y-41673204D02*
X20600000Y-41644633D01*
X20600000Y-41644633D02*
X20571429Y-41616061D01*
X20571429Y-41616061D02*
X20542857Y-41558918D01*
X20542857Y-41558918D02*
X20542857Y-41387490D01*
X20542857Y-41387490D02*
X20571429Y-41330347D01*
X20571429Y-41330347D02*
X20600000Y-41301775D01*
X20600000Y-41301775D02*
X20657143Y-41273204D01*
X20657143Y-41273204D02*
X20771429Y-41273204D01*
X20771429Y-41273204D02*
X20828572Y-41301775D01*
X21342857Y-41644633D02*
X21285714Y-41673204D01*
X21285714Y-41673204D02*
X21171429Y-41673204D01*
X21171429Y-41673204D02*
X21114286Y-41644633D01*
X21114286Y-41644633D02*
X21085714Y-41587490D01*
X21085714Y-41587490D02*
X21085714Y-41358918D01*
X21085714Y-41358918D02*
X21114286Y-41301775D01*
X21114286Y-41301775D02*
X21171429Y-41273204D01*
X21171429Y-41273204D02*
X21285714Y-41273204D01*
X21285714Y-41273204D02*
X21342857Y-41301775D01*
X21342857Y-41301775D02*
X21371429Y-41358918D01*
X21371429Y-41358918D02*
X21371429Y-41416061D01*
X21371429Y-41416061D02*
X21085714Y-41473204D01*
X21628572Y-41673204D02*
X21628572Y-41273204D01*
X21628572Y-41387490D02*
X21657143Y-41330347D01*
X21657143Y-41330347D02*
X21685715Y-41301775D01*
X21685715Y-41301775D02*
X21742857Y-41273204D01*
X21742857Y-41273204D02*
X21800000Y-41273204D01*
X22371429Y-41273204D02*
X22600001Y-41273204D01*
X22457144Y-41073204D02*
X22457144Y-41587490D01*
X22457144Y-41587490D02*
X22485715Y-41644633D01*
X22485715Y-41644633D02*
X22542858Y-41673204D01*
X22542858Y-41673204D02*
X22600001Y-41673204D01*
X22800001Y-41673204D02*
X22800001Y-41073204D01*
X23057144Y-41673204D02*
X23057144Y-41358918D01*
X23057144Y-41358918D02*
X23028572Y-41301775D01*
X23028572Y-41301775D02*
X22971429Y-41273204D01*
X22971429Y-41273204D02*
X22885715Y-41273204D01*
X22885715Y-41273204D02*
X22828572Y-41301775D01*
X22828572Y-41301775D02*
X22800001Y-41330347D01*
X23571429Y-41644633D02*
X23514286Y-41673204D01*
X23514286Y-41673204D02*
X23400001Y-41673204D01*
X23400001Y-41673204D02*
X23342858Y-41644633D01*
X23342858Y-41644633D02*
X23314286Y-41587490D01*
X23314286Y-41587490D02*
X23314286Y-41358918D01*
X23314286Y-41358918D02*
X23342858Y-41301775D01*
X23342858Y-41301775D02*
X23400001Y-41273204D01*
X23400001Y-41273204D02*
X23514286Y-41273204D01*
X23514286Y-41273204D02*
X23571429Y-41301775D01*
X23571429Y-41301775D02*
X23600001Y-41358918D01*
X23600001Y-41358918D02*
X23600001Y-41416061D01*
X23600001Y-41416061D02*
X23314286Y-41473204D01*
X24314287Y-41273204D02*
X24314287Y-41873204D01*
X24314287Y-41301775D02*
X24371430Y-41273204D01*
X24371430Y-41273204D02*
X24485715Y-41273204D01*
X24485715Y-41273204D02*
X24542858Y-41301775D01*
X24542858Y-41301775D02*
X24571430Y-41330347D01*
X24571430Y-41330347D02*
X24600001Y-41387490D01*
X24600001Y-41387490D02*
X24600001Y-41558918D01*
X24600001Y-41558918D02*
X24571430Y-41616061D01*
X24571430Y-41616061D02*
X24542858Y-41644633D01*
X24542858Y-41644633D02*
X24485715Y-41673204D01*
X24485715Y-41673204D02*
X24371430Y-41673204D01*
X24371430Y-41673204D02*
X24314287Y-41644633D01*
X24942858Y-41673204D02*
X24885715Y-41644633D01*
X24885715Y-41644633D02*
X24857144Y-41616061D01*
X24857144Y-41616061D02*
X24828572Y-41558918D01*
X24828572Y-41558918D02*
X24828572Y-41387490D01*
X24828572Y-41387490D02*
X24857144Y-41330347D01*
X24857144Y-41330347D02*
X24885715Y-41301775D01*
X24885715Y-41301775D02*
X24942858Y-41273204D01*
X24942858Y-41273204D02*
X25028572Y-41273204D01*
X25028572Y-41273204D02*
X25085715Y-41301775D01*
X25085715Y-41301775D02*
X25114287Y-41330347D01*
X25114287Y-41330347D02*
X25142858Y-41387490D01*
X25142858Y-41387490D02*
X25142858Y-41558918D01*
X25142858Y-41558918D02*
X25114287Y-41616061D01*
X25114287Y-41616061D02*
X25085715Y-41644633D01*
X25085715Y-41644633D02*
X25028572Y-41673204D01*
X25028572Y-41673204D02*
X24942858Y-41673204D01*
X25400001Y-41673204D02*
X25400001Y-41273204D01*
X25400001Y-41387490D02*
X25428572Y-41330347D01*
X25428572Y-41330347D02*
X25457144Y-41301775D01*
X25457144Y-41301775D02*
X25514286Y-41273204D01*
X25514286Y-41273204D02*
X25571429Y-41273204D01*
X25685715Y-41273204D02*
X25914287Y-41273204D01*
X25771430Y-41073204D02*
X25771430Y-41587490D01*
X25771430Y-41587490D02*
X25800001Y-41644633D01*
X25800001Y-41644633D02*
X25857144Y-41673204D01*
X25857144Y-41673204D02*
X25914287Y-41673204D01*
X29435856Y-16558917D02*
X29235856Y-16558917D01*
X29235856Y-16873203D02*
X29235856Y-16273203D01*
X29235856Y-16273203D02*
X29521570Y-16273203D01*
X30092999Y-16873203D02*
X29892999Y-16587489D01*
X29750142Y-16873203D02*
X29750142Y-16273203D01*
X29750142Y-16273203D02*
X29978713Y-16273203D01*
X29978713Y-16273203D02*
X30035856Y-16301774D01*
X30035856Y-16301774D02*
X30064427Y-16330346D01*
X30064427Y-16330346D02*
X30092999Y-16387489D01*
X30092999Y-16387489D02*
X30092999Y-16473203D01*
X30092999Y-16473203D02*
X30064427Y-16530346D01*
X30064427Y-16530346D02*
X30035856Y-16558917D01*
X30035856Y-16558917D02*
X29978713Y-16587489D01*
X29978713Y-16587489D02*
X29750142Y-16587489D01*
X30607285Y-16473203D02*
X30607285Y-16873203D01*
X30464427Y-16244632D02*
X30321570Y-16673203D01*
X30321570Y-16673203D02*
X30692999Y-16673203D01*
X31492999Y-16273203D02*
X31550142Y-16273203D01*
X31550142Y-16273203D02*
X31607285Y-16301774D01*
X31607285Y-16301774D02*
X31635857Y-16330346D01*
X31635857Y-16330346D02*
X31664428Y-16387489D01*
X31664428Y-16387489D02*
X31692999Y-16501774D01*
X31692999Y-16501774D02*
X31692999Y-16644632D01*
X31692999Y-16644632D02*
X31664428Y-16758917D01*
X31664428Y-16758917D02*
X31635857Y-16816060D01*
X31635857Y-16816060D02*
X31607285Y-16844632D01*
X31607285Y-16844632D02*
X31550142Y-16873203D01*
X31550142Y-16873203D02*
X31492999Y-16873203D01*
X31492999Y-16873203D02*
X31435857Y-16844632D01*
X31435857Y-16844632D02*
X31407285Y-16816060D01*
X31407285Y-16816060D02*
X31378714Y-16758917D01*
X31378714Y-16758917D02*
X31350142Y-16644632D01*
X31350142Y-16644632D02*
X31350142Y-16501774D01*
X31350142Y-16501774D02*
X31378714Y-16387489D01*
X31378714Y-16387489D02*
X31407285Y-16330346D01*
X31407285Y-16330346D02*
X31435857Y-16301774D01*
X31435857Y-16301774D02*
X31492999Y-16273203D01*
X31950143Y-16816060D02*
X31978714Y-16844632D01*
X31978714Y-16844632D02*
X31950143Y-16873203D01*
X31950143Y-16873203D02*
X31921571Y-16844632D01*
X31921571Y-16844632D02*
X31950143Y-16816060D01*
X31950143Y-16816060D02*
X31950143Y-16873203D01*
X32493000Y-16273203D02*
X32378714Y-16273203D01*
X32378714Y-16273203D02*
X32321571Y-16301774D01*
X32321571Y-16301774D02*
X32293000Y-16330346D01*
X32293000Y-16330346D02*
X32235857Y-16416060D01*
X32235857Y-16416060D02*
X32207285Y-16530346D01*
X32207285Y-16530346D02*
X32207285Y-16758917D01*
X32207285Y-16758917D02*
X32235857Y-16816060D01*
X32235857Y-16816060D02*
X32264428Y-16844632D01*
X32264428Y-16844632D02*
X32321571Y-16873203D01*
X32321571Y-16873203D02*
X32435857Y-16873203D01*
X32435857Y-16873203D02*
X32493000Y-16844632D01*
X32493000Y-16844632D02*
X32521571Y-16816060D01*
X32521571Y-16816060D02*
X32550142Y-16758917D01*
X32550142Y-16758917D02*
X32550142Y-16616060D01*
X32550142Y-16616060D02*
X32521571Y-16558917D01*
X32521571Y-16558917D02*
X32493000Y-16530346D01*
X32493000Y-16530346D02*
X32435857Y-16501774D01*
X32435857Y-16501774D02*
X32321571Y-16501774D01*
X32321571Y-16501774D02*
X32264428Y-16530346D01*
X32264428Y-16530346D02*
X32235857Y-16558917D01*
X32235857Y-16558917D02*
X32207285Y-16616060D01*
X33235857Y-16844632D02*
X33293000Y-16873203D01*
X33293000Y-16873203D02*
X33407286Y-16873203D01*
X33407286Y-16873203D02*
X33464429Y-16844632D01*
X33464429Y-16844632D02*
X33493000Y-16787489D01*
X33493000Y-16787489D02*
X33493000Y-16758917D01*
X33493000Y-16758917D02*
X33464429Y-16701774D01*
X33464429Y-16701774D02*
X33407286Y-16673203D01*
X33407286Y-16673203D02*
X33321572Y-16673203D01*
X33321572Y-16673203D02*
X33264429Y-16644632D01*
X33264429Y-16644632D02*
X33235857Y-16587489D01*
X33235857Y-16587489D02*
X33235857Y-16558917D01*
X33235857Y-16558917D02*
X33264429Y-16501774D01*
X33264429Y-16501774D02*
X33321572Y-16473203D01*
X33321572Y-16473203D02*
X33407286Y-16473203D01*
X33407286Y-16473203D02*
X33464429Y-16501774D01*
X33664428Y-16473203D02*
X33893000Y-16473203D01*
X33750143Y-16273203D02*
X33750143Y-16787489D01*
X33750143Y-16787489D02*
X33778714Y-16844632D01*
X33778714Y-16844632D02*
X33835857Y-16873203D01*
X33835857Y-16873203D02*
X33893000Y-16873203D01*
X34093000Y-16873203D02*
X34093000Y-16473203D01*
X34093000Y-16273203D02*
X34064428Y-16301774D01*
X34064428Y-16301774D02*
X34093000Y-16330346D01*
X34093000Y-16330346D02*
X34121571Y-16301774D01*
X34121571Y-16301774D02*
X34093000Y-16273203D01*
X34093000Y-16273203D02*
X34093000Y-16330346D01*
X34292999Y-16473203D02*
X34521571Y-16473203D01*
X34378714Y-16873203D02*
X34378714Y-16358917D01*
X34378714Y-16358917D02*
X34407285Y-16301774D01*
X34407285Y-16301774D02*
X34464428Y-16273203D01*
X34464428Y-16273203D02*
X34521571Y-16273203D01*
X34635856Y-16473203D02*
X34864428Y-16473203D01*
X34721571Y-16873203D02*
X34721571Y-16358917D01*
X34721571Y-16358917D02*
X34750142Y-16301774D01*
X34750142Y-16301774D02*
X34807285Y-16273203D01*
X34807285Y-16273203D02*
X34864428Y-16273203D01*
X35292999Y-16844632D02*
X35235856Y-16873203D01*
X35235856Y-16873203D02*
X35121571Y-16873203D01*
X35121571Y-16873203D02*
X35064428Y-16844632D01*
X35064428Y-16844632D02*
X35035856Y-16787489D01*
X35035856Y-16787489D02*
X35035856Y-16558917D01*
X35035856Y-16558917D02*
X35064428Y-16501774D01*
X35064428Y-16501774D02*
X35121571Y-16473203D01*
X35121571Y-16473203D02*
X35235856Y-16473203D01*
X35235856Y-16473203D02*
X35292999Y-16501774D01*
X35292999Y-16501774D02*
X35321571Y-16558917D01*
X35321571Y-16558917D02*
X35321571Y-16616060D01*
X35321571Y-16616060D02*
X35035856Y-16673203D01*
X35578714Y-16473203D02*
X35578714Y-16873203D01*
X35578714Y-16530346D02*
X35607285Y-16501774D01*
X35607285Y-16501774D02*
X35664428Y-16473203D01*
X35664428Y-16473203D02*
X35750142Y-16473203D01*
X35750142Y-16473203D02*
X35807285Y-16501774D01*
X35807285Y-16501774D02*
X35835857Y-16558917D01*
X35835857Y-16558917D02*
X35835857Y-16873203D01*
X36350142Y-16844632D02*
X36292999Y-16873203D01*
X36292999Y-16873203D02*
X36178714Y-16873203D01*
X36178714Y-16873203D02*
X36121571Y-16844632D01*
X36121571Y-16844632D02*
X36092999Y-16787489D01*
X36092999Y-16787489D02*
X36092999Y-16558917D01*
X36092999Y-16558917D02*
X36121571Y-16501774D01*
X36121571Y-16501774D02*
X36178714Y-16473203D01*
X36178714Y-16473203D02*
X36292999Y-16473203D01*
X36292999Y-16473203D02*
X36350142Y-16501774D01*
X36350142Y-16501774D02*
X36378714Y-16558917D01*
X36378714Y-16558917D02*
X36378714Y-16616060D01*
X36378714Y-16616060D02*
X36092999Y-16673203D01*
X36635857Y-16873203D02*
X36635857Y-16473203D01*
X36635857Y-16587489D02*
X36664428Y-16530346D01*
X36664428Y-16530346D02*
X36693000Y-16501774D01*
X36693000Y-16501774D02*
X36750142Y-16473203D01*
X36750142Y-16473203D02*
X36807285Y-16473203D01*
X37635857Y-17101774D02*
X37607286Y-17073203D01*
X37607286Y-17073203D02*
X37550143Y-16987489D01*
X37550143Y-16987489D02*
X37521572Y-16930346D01*
X37521572Y-16930346D02*
X37493000Y-16844632D01*
X37493000Y-16844632D02*
X37464429Y-16701774D01*
X37464429Y-16701774D02*
X37464429Y-16587489D01*
X37464429Y-16587489D02*
X37493000Y-16444632D01*
X37493000Y-16444632D02*
X37521572Y-16358917D01*
X37521572Y-16358917D02*
X37550143Y-16301774D01*
X37550143Y-16301774D02*
X37607286Y-16216060D01*
X37607286Y-16216060D02*
X37635857Y-16187489D01*
X38064429Y-16558917D02*
X38150143Y-16587489D01*
X38150143Y-16587489D02*
X38178714Y-16616060D01*
X38178714Y-16616060D02*
X38207286Y-16673203D01*
X38207286Y-16673203D02*
X38207286Y-16758917D01*
X38207286Y-16758917D02*
X38178714Y-16816060D01*
X38178714Y-16816060D02*
X38150143Y-16844632D01*
X38150143Y-16844632D02*
X38093000Y-16873203D01*
X38093000Y-16873203D02*
X37864429Y-16873203D01*
X37864429Y-16873203D02*
X37864429Y-16273203D01*
X37864429Y-16273203D02*
X38064429Y-16273203D01*
X38064429Y-16273203D02*
X38121572Y-16301774D01*
X38121572Y-16301774D02*
X38150143Y-16330346D01*
X38150143Y-16330346D02*
X38178714Y-16387489D01*
X38178714Y-16387489D02*
X38178714Y-16444632D01*
X38178714Y-16444632D02*
X38150143Y-16501774D01*
X38150143Y-16501774D02*
X38121572Y-16530346D01*
X38121572Y-16530346D02*
X38064429Y-16558917D01*
X38064429Y-16558917D02*
X37864429Y-16558917D01*
X38407286Y-17101774D02*
X38435857Y-17073203D01*
X38435857Y-17073203D02*
X38493000Y-16987489D01*
X38493000Y-16987489D02*
X38521572Y-16930346D01*
X38521572Y-16930346D02*
X38550143Y-16844632D01*
X38550143Y-16844632D02*
X38578714Y-16701774D01*
X38578714Y-16701774D02*
X38578714Y-16587489D01*
X38578714Y-16587489D02*
X38550143Y-16444632D01*
X38550143Y-16444632D02*
X38521572Y-16358917D01*
X38521572Y-16358917D02*
X38493000Y-16301774D01*
X38493000Y-16301774D02*
X38435857Y-16216060D01*
X38435857Y-16216060D02*
X38407286Y-16187489D01*
X39578715Y-16473203D02*
X39578715Y-16873203D01*
X39321572Y-16473203D02*
X39321572Y-16787489D01*
X39321572Y-16787489D02*
X39350143Y-16844632D01*
X39350143Y-16844632D02*
X39407286Y-16873203D01*
X39407286Y-16873203D02*
X39493000Y-16873203D01*
X39493000Y-16873203D02*
X39550143Y-16844632D01*
X39550143Y-16844632D02*
X39578715Y-16816060D01*
X39864429Y-16473203D02*
X39864429Y-16873203D01*
X39864429Y-16530346D02*
X39893000Y-16501774D01*
X39893000Y-16501774D02*
X39950143Y-16473203D01*
X39950143Y-16473203D02*
X40035857Y-16473203D01*
X40035857Y-16473203D02*
X40093000Y-16501774D01*
X40093000Y-16501774D02*
X40121572Y-16558917D01*
X40121572Y-16558917D02*
X40121572Y-16873203D01*
X40664429Y-16873203D02*
X40664429Y-16273203D01*
X40664429Y-16844632D02*
X40607286Y-16873203D01*
X40607286Y-16873203D02*
X40493000Y-16873203D01*
X40493000Y-16873203D02*
X40435857Y-16844632D01*
X40435857Y-16844632D02*
X40407286Y-16816060D01*
X40407286Y-16816060D02*
X40378714Y-16758917D01*
X40378714Y-16758917D02*
X40378714Y-16587489D01*
X40378714Y-16587489D02*
X40407286Y-16530346D01*
X40407286Y-16530346D02*
X40435857Y-16501774D01*
X40435857Y-16501774D02*
X40493000Y-16473203D01*
X40493000Y-16473203D02*
X40607286Y-16473203D01*
X40607286Y-16473203D02*
X40664429Y-16501774D01*
X41178714Y-16844632D02*
X41121571Y-16873203D01*
X41121571Y-16873203D02*
X41007286Y-16873203D01*
X41007286Y-16873203D02*
X40950143Y-16844632D01*
X40950143Y-16844632D02*
X40921571Y-16787489D01*
X40921571Y-16787489D02*
X40921571Y-16558917D01*
X40921571Y-16558917D02*
X40950143Y-16501774D01*
X40950143Y-16501774D02*
X41007286Y-16473203D01*
X41007286Y-16473203D02*
X41121571Y-16473203D01*
X41121571Y-16473203D02*
X41178714Y-16501774D01*
X41178714Y-16501774D02*
X41207286Y-16558917D01*
X41207286Y-16558917D02*
X41207286Y-16616060D01*
X41207286Y-16616060D02*
X40921571Y-16673203D01*
X41464429Y-16873203D02*
X41464429Y-16473203D01*
X41464429Y-16587489D02*
X41493000Y-16530346D01*
X41493000Y-16530346D02*
X41521572Y-16501774D01*
X41521572Y-16501774D02*
X41578714Y-16473203D01*
X41578714Y-16473203D02*
X41635857Y-16473203D01*
X42207286Y-16473203D02*
X42435858Y-16473203D01*
X42293001Y-16273203D02*
X42293001Y-16787489D01*
X42293001Y-16787489D02*
X42321572Y-16844632D01*
X42321572Y-16844632D02*
X42378715Y-16873203D01*
X42378715Y-16873203D02*
X42435858Y-16873203D01*
X42635858Y-16873203D02*
X42635858Y-16273203D01*
X42893001Y-16873203D02*
X42893001Y-16558917D01*
X42893001Y-16558917D02*
X42864429Y-16501774D01*
X42864429Y-16501774D02*
X42807286Y-16473203D01*
X42807286Y-16473203D02*
X42721572Y-16473203D01*
X42721572Y-16473203D02*
X42664429Y-16501774D01*
X42664429Y-16501774D02*
X42635858Y-16530346D01*
X43407286Y-16844632D02*
X43350143Y-16873203D01*
X43350143Y-16873203D02*
X43235858Y-16873203D01*
X43235858Y-16873203D02*
X43178715Y-16844632D01*
X43178715Y-16844632D02*
X43150143Y-16787489D01*
X43150143Y-16787489D02*
X43150143Y-16558917D01*
X43150143Y-16558917D02*
X43178715Y-16501774D01*
X43178715Y-16501774D02*
X43235858Y-16473203D01*
X43235858Y-16473203D02*
X43350143Y-16473203D01*
X43350143Y-16473203D02*
X43407286Y-16501774D01*
X43407286Y-16501774D02*
X43435858Y-16558917D01*
X43435858Y-16558917D02*
X43435858Y-16616060D01*
X43435858Y-16616060D02*
X43150143Y-16673203D01*
X44150144Y-16873203D02*
X44150144Y-16273203D01*
X44407287Y-16873203D02*
X44407287Y-16558917D01*
X44407287Y-16558917D02*
X44378715Y-16501774D01*
X44378715Y-16501774D02*
X44321572Y-16473203D01*
X44321572Y-16473203D02*
X44235858Y-16473203D01*
X44235858Y-16473203D02*
X44178715Y-16501774D01*
X44178715Y-16501774D02*
X44150144Y-16530346D01*
X44921572Y-16844632D02*
X44864429Y-16873203D01*
X44864429Y-16873203D02*
X44750144Y-16873203D01*
X44750144Y-16873203D02*
X44693001Y-16844632D01*
X44693001Y-16844632D02*
X44664429Y-16787489D01*
X44664429Y-16787489D02*
X44664429Y-16558917D01*
X44664429Y-16558917D02*
X44693001Y-16501774D01*
X44693001Y-16501774D02*
X44750144Y-16473203D01*
X44750144Y-16473203D02*
X44864429Y-16473203D01*
X44864429Y-16473203D02*
X44921572Y-16501774D01*
X44921572Y-16501774D02*
X44950144Y-16558917D01*
X44950144Y-16558917D02*
X44950144Y-16616060D01*
X44950144Y-16616060D02*
X44664429Y-16673203D01*
X45464430Y-16873203D02*
X45464430Y-16558917D01*
X45464430Y-16558917D02*
X45435858Y-16501774D01*
X45435858Y-16501774D02*
X45378715Y-16473203D01*
X45378715Y-16473203D02*
X45264430Y-16473203D01*
X45264430Y-16473203D02*
X45207287Y-16501774D01*
X45464430Y-16844632D02*
X45407287Y-16873203D01*
X45407287Y-16873203D02*
X45264430Y-16873203D01*
X45264430Y-16873203D02*
X45207287Y-16844632D01*
X45207287Y-16844632D02*
X45178715Y-16787489D01*
X45178715Y-16787489D02*
X45178715Y-16730346D01*
X45178715Y-16730346D02*
X45207287Y-16673203D01*
X45207287Y-16673203D02*
X45264430Y-16644632D01*
X45264430Y-16644632D02*
X45407287Y-16644632D01*
X45407287Y-16644632D02*
X45464430Y-16616060D01*
X46007287Y-16873203D02*
X46007287Y-16273203D01*
X46007287Y-16844632D02*
X45950144Y-16873203D01*
X45950144Y-16873203D02*
X45835858Y-16873203D01*
X45835858Y-16873203D02*
X45778715Y-16844632D01*
X45778715Y-16844632D02*
X45750144Y-16816060D01*
X45750144Y-16816060D02*
X45721572Y-16758917D01*
X45721572Y-16758917D02*
X45721572Y-16587489D01*
X45721572Y-16587489D02*
X45750144Y-16530346D01*
X45750144Y-16530346D02*
X45778715Y-16501774D01*
X45778715Y-16501774D02*
X45835858Y-16473203D01*
X45835858Y-16473203D02*
X45950144Y-16473203D01*
X45950144Y-16473203D02*
X46007287Y-16501774D01*
X46521572Y-16844632D02*
X46464429Y-16873203D01*
X46464429Y-16873203D02*
X46350144Y-16873203D01*
X46350144Y-16873203D02*
X46293001Y-16844632D01*
X46293001Y-16844632D02*
X46264429Y-16787489D01*
X46264429Y-16787489D02*
X46264429Y-16558917D01*
X46264429Y-16558917D02*
X46293001Y-16501774D01*
X46293001Y-16501774D02*
X46350144Y-16473203D01*
X46350144Y-16473203D02*
X46464429Y-16473203D01*
X46464429Y-16473203D02*
X46521572Y-16501774D01*
X46521572Y-16501774D02*
X46550144Y-16558917D01*
X46550144Y-16558917D02*
X46550144Y-16616060D01*
X46550144Y-16616060D02*
X46264429Y-16673203D01*
X46807287Y-16873203D02*
X46807287Y-16473203D01*
X46807287Y-16587489D02*
X46835858Y-16530346D01*
X46835858Y-16530346D02*
X46864430Y-16501774D01*
X46864430Y-16501774D02*
X46921572Y-16473203D01*
X46921572Y-16473203D02*
X46978715Y-16473203D01*
X47635859Y-16473203D02*
X47635859Y-17073203D01*
X47635859Y-16501774D02*
X47693002Y-16473203D01*
X47693002Y-16473203D02*
X47807287Y-16473203D01*
X47807287Y-16473203D02*
X47864430Y-16501774D01*
X47864430Y-16501774D02*
X47893002Y-16530346D01*
X47893002Y-16530346D02*
X47921573Y-16587489D01*
X47921573Y-16587489D02*
X47921573Y-16758917D01*
X47921573Y-16758917D02*
X47893002Y-16816060D01*
X47893002Y-16816060D02*
X47864430Y-16844632D01*
X47864430Y-16844632D02*
X47807287Y-16873203D01*
X47807287Y-16873203D02*
X47693002Y-16873203D01*
X47693002Y-16873203D02*
X47635859Y-16844632D01*
X48435859Y-16873203D02*
X48435859Y-16558917D01*
X48435859Y-16558917D02*
X48407287Y-16501774D01*
X48407287Y-16501774D02*
X48350144Y-16473203D01*
X48350144Y-16473203D02*
X48235859Y-16473203D01*
X48235859Y-16473203D02*
X48178716Y-16501774D01*
X48435859Y-16844632D02*
X48378716Y-16873203D01*
X48378716Y-16873203D02*
X48235859Y-16873203D01*
X48235859Y-16873203D02*
X48178716Y-16844632D01*
X48178716Y-16844632D02*
X48150144Y-16787489D01*
X48150144Y-16787489D02*
X48150144Y-16730346D01*
X48150144Y-16730346D02*
X48178716Y-16673203D01*
X48178716Y-16673203D02*
X48235859Y-16644632D01*
X48235859Y-16644632D02*
X48378716Y-16644632D01*
X48378716Y-16644632D02*
X48435859Y-16616060D01*
X48978716Y-16873203D02*
X48978716Y-16273203D01*
X48978716Y-16844632D02*
X48921573Y-16873203D01*
X48921573Y-16873203D02*
X48807287Y-16873203D01*
X48807287Y-16873203D02*
X48750144Y-16844632D01*
X48750144Y-16844632D02*
X48721573Y-16816060D01*
X48721573Y-16816060D02*
X48693001Y-16758917D01*
X48693001Y-16758917D02*
X48693001Y-16587489D01*
X48693001Y-16587489D02*
X48721573Y-16530346D01*
X48721573Y-16530346D02*
X48750144Y-16501774D01*
X48750144Y-16501774D02*
X48807287Y-16473203D01*
X48807287Y-16473203D02*
X48921573Y-16473203D01*
X48921573Y-16473203D02*
X48978716Y-16501774D01*
X49521573Y-16873203D02*
X49521573Y-16273203D01*
X49521573Y-16844632D02*
X49464430Y-16873203D01*
X49464430Y-16873203D02*
X49350144Y-16873203D01*
X49350144Y-16873203D02*
X49293001Y-16844632D01*
X49293001Y-16844632D02*
X49264430Y-16816060D01*
X49264430Y-16816060D02*
X49235858Y-16758917D01*
X49235858Y-16758917D02*
X49235858Y-16587489D01*
X49235858Y-16587489D02*
X49264430Y-16530346D01*
X49264430Y-16530346D02*
X49293001Y-16501774D01*
X49293001Y-16501774D02*
X49350144Y-16473203D01*
X49350144Y-16473203D02*
X49464430Y-16473203D01*
X49464430Y-16473203D02*
X49521573Y-16501774D01*
X49893001Y-16873203D02*
X49835858Y-16844632D01*
X49835858Y-16844632D02*
X49807287Y-16787489D01*
X49807287Y-16787489D02*
X49807287Y-16273203D01*
X50350144Y-16844632D02*
X50293001Y-16873203D01*
X50293001Y-16873203D02*
X50178716Y-16873203D01*
X50178716Y-16873203D02*
X50121573Y-16844632D01*
X50121573Y-16844632D02*
X50093001Y-16787489D01*
X50093001Y-16787489D02*
X50093001Y-16558917D01*
X50093001Y-16558917D02*
X50121573Y-16501774D01*
X50121573Y-16501774D02*
X50178716Y-16473203D01*
X50178716Y-16473203D02*
X50293001Y-16473203D01*
X50293001Y-16473203D02*
X50350144Y-16501774D01*
X50350144Y-16501774D02*
X50378716Y-16558917D01*
X50378716Y-16558917D02*
X50378716Y-16616060D01*
X50378716Y-16616060D02*
X50093001Y-16673203D01*
X29435856Y-40158918D02*
X29235856Y-40158918D01*
X29235856Y-40473204D02*
X29235856Y-39873204D01*
X29235856Y-39873204D02*
X29521570Y-39873204D01*
X30092999Y-40473204D02*
X29892999Y-40187490D01*
X29750142Y-40473204D02*
X29750142Y-39873204D01*
X29750142Y-39873204D02*
X29978713Y-39873204D01*
X29978713Y-39873204D02*
X30035856Y-39901775D01*
X30035856Y-39901775D02*
X30064427Y-39930347D01*
X30064427Y-39930347D02*
X30092999Y-39987490D01*
X30092999Y-39987490D02*
X30092999Y-40073204D01*
X30092999Y-40073204D02*
X30064427Y-40130347D01*
X30064427Y-40130347D02*
X30035856Y-40158918D01*
X30035856Y-40158918D02*
X29978713Y-40187490D01*
X29978713Y-40187490D02*
X29750142Y-40187490D01*
X30607285Y-40073204D02*
X30607285Y-40473204D01*
X30464427Y-39844633D02*
X30321570Y-40273204D01*
X30321570Y-40273204D02*
X30692999Y-40273204D01*
X31492999Y-39873204D02*
X31550142Y-39873204D01*
X31550142Y-39873204D02*
X31607285Y-39901775D01*
X31607285Y-39901775D02*
X31635857Y-39930347D01*
X31635857Y-39930347D02*
X31664428Y-39987490D01*
X31664428Y-39987490D02*
X31692999Y-40101775D01*
X31692999Y-40101775D02*
X31692999Y-40244633D01*
X31692999Y-40244633D02*
X31664428Y-40358918D01*
X31664428Y-40358918D02*
X31635857Y-40416061D01*
X31635857Y-40416061D02*
X31607285Y-40444633D01*
X31607285Y-40444633D02*
X31550142Y-40473204D01*
X31550142Y-40473204D02*
X31492999Y-40473204D01*
X31492999Y-40473204D02*
X31435857Y-40444633D01*
X31435857Y-40444633D02*
X31407285Y-40416061D01*
X31407285Y-40416061D02*
X31378714Y-40358918D01*
X31378714Y-40358918D02*
X31350142Y-40244633D01*
X31350142Y-40244633D02*
X31350142Y-40101775D01*
X31350142Y-40101775D02*
X31378714Y-39987490D01*
X31378714Y-39987490D02*
X31407285Y-39930347D01*
X31407285Y-39930347D02*
X31435857Y-39901775D01*
X31435857Y-39901775D02*
X31492999Y-39873204D01*
X31950143Y-40416061D02*
X31978714Y-40444633D01*
X31978714Y-40444633D02*
X31950143Y-40473204D01*
X31950143Y-40473204D02*
X31921571Y-40444633D01*
X31921571Y-40444633D02*
X31950143Y-40416061D01*
X31950143Y-40416061D02*
X31950143Y-40473204D01*
X32493000Y-39873204D02*
X32378714Y-39873204D01*
X32378714Y-39873204D02*
X32321571Y-39901775D01*
X32321571Y-39901775D02*
X32293000Y-39930347D01*
X32293000Y-39930347D02*
X32235857Y-40016061D01*
X32235857Y-40016061D02*
X32207285Y-40130347D01*
X32207285Y-40130347D02*
X32207285Y-40358918D01*
X32207285Y-40358918D02*
X32235857Y-40416061D01*
X32235857Y-40416061D02*
X32264428Y-40444633D01*
X32264428Y-40444633D02*
X32321571Y-40473204D01*
X32321571Y-40473204D02*
X32435857Y-40473204D01*
X32435857Y-40473204D02*
X32493000Y-40444633D01*
X32493000Y-40444633D02*
X32521571Y-40416061D01*
X32521571Y-40416061D02*
X32550142Y-40358918D01*
X32550142Y-40358918D02*
X32550142Y-40216061D01*
X32550142Y-40216061D02*
X32521571Y-40158918D01*
X32521571Y-40158918D02*
X32493000Y-40130347D01*
X32493000Y-40130347D02*
X32435857Y-40101775D01*
X32435857Y-40101775D02*
X32321571Y-40101775D01*
X32321571Y-40101775D02*
X32264428Y-40130347D01*
X32264428Y-40130347D02*
X32235857Y-40158918D01*
X32235857Y-40158918D02*
X32207285Y-40216061D01*
X33235857Y-40444633D02*
X33293000Y-40473204D01*
X33293000Y-40473204D02*
X33407286Y-40473204D01*
X33407286Y-40473204D02*
X33464429Y-40444633D01*
X33464429Y-40444633D02*
X33493000Y-40387490D01*
X33493000Y-40387490D02*
X33493000Y-40358918D01*
X33493000Y-40358918D02*
X33464429Y-40301775D01*
X33464429Y-40301775D02*
X33407286Y-40273204D01*
X33407286Y-40273204D02*
X33321572Y-40273204D01*
X33321572Y-40273204D02*
X33264429Y-40244633D01*
X33264429Y-40244633D02*
X33235857Y-40187490D01*
X33235857Y-40187490D02*
X33235857Y-40158918D01*
X33235857Y-40158918D02*
X33264429Y-40101775D01*
X33264429Y-40101775D02*
X33321572Y-40073204D01*
X33321572Y-40073204D02*
X33407286Y-40073204D01*
X33407286Y-40073204D02*
X33464429Y-40101775D01*
X33664428Y-40073204D02*
X33893000Y-40073204D01*
X33750143Y-39873204D02*
X33750143Y-40387490D01*
X33750143Y-40387490D02*
X33778714Y-40444633D01*
X33778714Y-40444633D02*
X33835857Y-40473204D01*
X33835857Y-40473204D02*
X33893000Y-40473204D01*
X34093000Y-40473204D02*
X34093000Y-40073204D01*
X34093000Y-39873204D02*
X34064428Y-39901775D01*
X34064428Y-39901775D02*
X34093000Y-39930347D01*
X34093000Y-39930347D02*
X34121571Y-39901775D01*
X34121571Y-39901775D02*
X34093000Y-39873204D01*
X34093000Y-39873204D02*
X34093000Y-39930347D01*
X34292999Y-40073204D02*
X34521571Y-40073204D01*
X34378714Y-40473204D02*
X34378714Y-39958918D01*
X34378714Y-39958918D02*
X34407285Y-39901775D01*
X34407285Y-39901775D02*
X34464428Y-39873204D01*
X34464428Y-39873204D02*
X34521571Y-39873204D01*
X34635856Y-40073204D02*
X34864428Y-40073204D01*
X34721571Y-40473204D02*
X34721571Y-39958918D01*
X34721571Y-39958918D02*
X34750142Y-39901775D01*
X34750142Y-39901775D02*
X34807285Y-39873204D01*
X34807285Y-39873204D02*
X34864428Y-39873204D01*
X35292999Y-40444633D02*
X35235856Y-40473204D01*
X35235856Y-40473204D02*
X35121571Y-40473204D01*
X35121571Y-40473204D02*
X35064428Y-40444633D01*
X35064428Y-40444633D02*
X35035856Y-40387490D01*
X35035856Y-40387490D02*
X35035856Y-40158918D01*
X35035856Y-40158918D02*
X35064428Y-40101775D01*
X35064428Y-40101775D02*
X35121571Y-40073204D01*
X35121571Y-40073204D02*
X35235856Y-40073204D01*
X35235856Y-40073204D02*
X35292999Y-40101775D01*
X35292999Y-40101775D02*
X35321571Y-40158918D01*
X35321571Y-40158918D02*
X35321571Y-40216061D01*
X35321571Y-40216061D02*
X35035856Y-40273204D01*
X35578714Y-40073204D02*
X35578714Y-40473204D01*
X35578714Y-40130347D02*
X35607285Y-40101775D01*
X35607285Y-40101775D02*
X35664428Y-40073204D01*
X35664428Y-40073204D02*
X35750142Y-40073204D01*
X35750142Y-40073204D02*
X35807285Y-40101775D01*
X35807285Y-40101775D02*
X35835857Y-40158918D01*
X35835857Y-40158918D02*
X35835857Y-40473204D01*
X36350142Y-40444633D02*
X36292999Y-40473204D01*
X36292999Y-40473204D02*
X36178714Y-40473204D01*
X36178714Y-40473204D02*
X36121571Y-40444633D01*
X36121571Y-40444633D02*
X36092999Y-40387490D01*
X36092999Y-40387490D02*
X36092999Y-40158918D01*
X36092999Y-40158918D02*
X36121571Y-40101775D01*
X36121571Y-40101775D02*
X36178714Y-40073204D01*
X36178714Y-40073204D02*
X36292999Y-40073204D01*
X36292999Y-40073204D02*
X36350142Y-40101775D01*
X36350142Y-40101775D02*
X36378714Y-40158918D01*
X36378714Y-40158918D02*
X36378714Y-40216061D01*
X36378714Y-40216061D02*
X36092999Y-40273204D01*
X36635857Y-40473204D02*
X36635857Y-40073204D01*
X36635857Y-40187490D02*
X36664428Y-40130347D01*
X36664428Y-40130347D02*
X36693000Y-40101775D01*
X36693000Y-40101775D02*
X36750142Y-40073204D01*
X36750142Y-40073204D02*
X36807285Y-40073204D01*
X37635857Y-40701775D02*
X37607286Y-40673204D01*
X37607286Y-40673204D02*
X37550143Y-40587490D01*
X37550143Y-40587490D02*
X37521572Y-40530347D01*
X37521572Y-40530347D02*
X37493000Y-40444633D01*
X37493000Y-40444633D02*
X37464429Y-40301775D01*
X37464429Y-40301775D02*
X37464429Y-40187490D01*
X37464429Y-40187490D02*
X37493000Y-40044633D01*
X37493000Y-40044633D02*
X37521572Y-39958918D01*
X37521572Y-39958918D02*
X37550143Y-39901775D01*
X37550143Y-39901775D02*
X37607286Y-39816061D01*
X37607286Y-39816061D02*
X37635857Y-39787490D01*
X38064429Y-40158918D02*
X38150143Y-40187490D01*
X38150143Y-40187490D02*
X38178714Y-40216061D01*
X38178714Y-40216061D02*
X38207286Y-40273204D01*
X38207286Y-40273204D02*
X38207286Y-40358918D01*
X38207286Y-40358918D02*
X38178714Y-40416061D01*
X38178714Y-40416061D02*
X38150143Y-40444633D01*
X38150143Y-40444633D02*
X38093000Y-40473204D01*
X38093000Y-40473204D02*
X37864429Y-40473204D01*
X37864429Y-40473204D02*
X37864429Y-39873204D01*
X37864429Y-39873204D02*
X38064429Y-39873204D01*
X38064429Y-39873204D02*
X38121572Y-39901775D01*
X38121572Y-39901775D02*
X38150143Y-39930347D01*
X38150143Y-39930347D02*
X38178714Y-39987490D01*
X38178714Y-39987490D02*
X38178714Y-40044633D01*
X38178714Y-40044633D02*
X38150143Y-40101775D01*
X38150143Y-40101775D02*
X38121572Y-40130347D01*
X38121572Y-40130347D02*
X38064429Y-40158918D01*
X38064429Y-40158918D02*
X37864429Y-40158918D01*
X38407286Y-40701775D02*
X38435857Y-40673204D01*
X38435857Y-40673204D02*
X38493000Y-40587490D01*
X38493000Y-40587490D02*
X38521572Y-40530347D01*
X38521572Y-40530347D02*
X38550143Y-40444633D01*
X38550143Y-40444633D02*
X38578714Y-40301775D01*
X38578714Y-40301775D02*
X38578714Y-40187490D01*
X38578714Y-40187490D02*
X38550143Y-40044633D01*
X38550143Y-40044633D02*
X38521572Y-39958918D01*
X38521572Y-39958918D02*
X38493000Y-39901775D01*
X38493000Y-39901775D02*
X38435857Y-39816061D01*
X38435857Y-39816061D02*
X38407286Y-39787490D01*
X39578715Y-40073204D02*
X39578715Y-40473204D01*
X39321572Y-40073204D02*
X39321572Y-40387490D01*
X39321572Y-40387490D02*
X39350143Y-40444633D01*
X39350143Y-40444633D02*
X39407286Y-40473204D01*
X39407286Y-40473204D02*
X39493000Y-40473204D01*
X39493000Y-40473204D02*
X39550143Y-40444633D01*
X39550143Y-40444633D02*
X39578715Y-40416061D01*
X39864429Y-40073204D02*
X39864429Y-40473204D01*
X39864429Y-40130347D02*
X39893000Y-40101775D01*
X39893000Y-40101775D02*
X39950143Y-40073204D01*
X39950143Y-40073204D02*
X40035857Y-40073204D01*
X40035857Y-40073204D02*
X40093000Y-40101775D01*
X40093000Y-40101775D02*
X40121572Y-40158918D01*
X40121572Y-40158918D02*
X40121572Y-40473204D01*
X40664429Y-40473204D02*
X40664429Y-39873204D01*
X40664429Y-40444633D02*
X40607286Y-40473204D01*
X40607286Y-40473204D02*
X40493000Y-40473204D01*
X40493000Y-40473204D02*
X40435857Y-40444633D01*
X40435857Y-40444633D02*
X40407286Y-40416061D01*
X40407286Y-40416061D02*
X40378714Y-40358918D01*
X40378714Y-40358918D02*
X40378714Y-40187490D01*
X40378714Y-40187490D02*
X40407286Y-40130347D01*
X40407286Y-40130347D02*
X40435857Y-40101775D01*
X40435857Y-40101775D02*
X40493000Y-40073204D01*
X40493000Y-40073204D02*
X40607286Y-40073204D01*
X40607286Y-40073204D02*
X40664429Y-40101775D01*
X41178714Y-40444633D02*
X41121571Y-40473204D01*
X41121571Y-40473204D02*
X41007286Y-40473204D01*
X41007286Y-40473204D02*
X40950143Y-40444633D01*
X40950143Y-40444633D02*
X40921571Y-40387490D01*
X40921571Y-40387490D02*
X40921571Y-40158918D01*
X40921571Y-40158918D02*
X40950143Y-40101775D01*
X40950143Y-40101775D02*
X41007286Y-40073204D01*
X41007286Y-40073204D02*
X41121571Y-40073204D01*
X41121571Y-40073204D02*
X41178714Y-40101775D01*
X41178714Y-40101775D02*
X41207286Y-40158918D01*
X41207286Y-40158918D02*
X41207286Y-40216061D01*
X41207286Y-40216061D02*
X40921571Y-40273204D01*
X41464429Y-40473204D02*
X41464429Y-40073204D01*
X41464429Y-40187490D02*
X41493000Y-40130347D01*
X41493000Y-40130347D02*
X41521572Y-40101775D01*
X41521572Y-40101775D02*
X41578714Y-40073204D01*
X41578714Y-40073204D02*
X41635857Y-40073204D01*
X42207286Y-40073204D02*
X42435858Y-40073204D01*
X42293001Y-39873204D02*
X42293001Y-40387490D01*
X42293001Y-40387490D02*
X42321572Y-40444633D01*
X42321572Y-40444633D02*
X42378715Y-40473204D01*
X42378715Y-40473204D02*
X42435858Y-40473204D01*
X42635858Y-40473204D02*
X42635858Y-39873204D01*
X42893001Y-40473204D02*
X42893001Y-40158918D01*
X42893001Y-40158918D02*
X42864429Y-40101775D01*
X42864429Y-40101775D02*
X42807286Y-40073204D01*
X42807286Y-40073204D02*
X42721572Y-40073204D01*
X42721572Y-40073204D02*
X42664429Y-40101775D01*
X42664429Y-40101775D02*
X42635858Y-40130347D01*
X43407286Y-40444633D02*
X43350143Y-40473204D01*
X43350143Y-40473204D02*
X43235858Y-40473204D01*
X43235858Y-40473204D02*
X43178715Y-40444633D01*
X43178715Y-40444633D02*
X43150143Y-40387490D01*
X43150143Y-40387490D02*
X43150143Y-40158918D01*
X43150143Y-40158918D02*
X43178715Y-40101775D01*
X43178715Y-40101775D02*
X43235858Y-40073204D01*
X43235858Y-40073204D02*
X43350143Y-40073204D01*
X43350143Y-40073204D02*
X43407286Y-40101775D01*
X43407286Y-40101775D02*
X43435858Y-40158918D01*
X43435858Y-40158918D02*
X43435858Y-40216061D01*
X43435858Y-40216061D02*
X43150143Y-40273204D01*
X44150144Y-40473204D02*
X44150144Y-39873204D01*
X44407287Y-40473204D02*
X44407287Y-40158918D01*
X44407287Y-40158918D02*
X44378715Y-40101775D01*
X44378715Y-40101775D02*
X44321572Y-40073204D01*
X44321572Y-40073204D02*
X44235858Y-40073204D01*
X44235858Y-40073204D02*
X44178715Y-40101775D01*
X44178715Y-40101775D02*
X44150144Y-40130347D01*
X44921572Y-40444633D02*
X44864429Y-40473204D01*
X44864429Y-40473204D02*
X44750144Y-40473204D01*
X44750144Y-40473204D02*
X44693001Y-40444633D01*
X44693001Y-40444633D02*
X44664429Y-40387490D01*
X44664429Y-40387490D02*
X44664429Y-40158918D01*
X44664429Y-40158918D02*
X44693001Y-40101775D01*
X44693001Y-40101775D02*
X44750144Y-40073204D01*
X44750144Y-40073204D02*
X44864429Y-40073204D01*
X44864429Y-40073204D02*
X44921572Y-40101775D01*
X44921572Y-40101775D02*
X44950144Y-40158918D01*
X44950144Y-40158918D02*
X44950144Y-40216061D01*
X44950144Y-40216061D02*
X44664429Y-40273204D01*
X45464430Y-40473204D02*
X45464430Y-40158918D01*
X45464430Y-40158918D02*
X45435858Y-40101775D01*
X45435858Y-40101775D02*
X45378715Y-40073204D01*
X45378715Y-40073204D02*
X45264430Y-40073204D01*
X45264430Y-40073204D02*
X45207287Y-40101775D01*
X45464430Y-40444633D02*
X45407287Y-40473204D01*
X45407287Y-40473204D02*
X45264430Y-40473204D01*
X45264430Y-40473204D02*
X45207287Y-40444633D01*
X45207287Y-40444633D02*
X45178715Y-40387490D01*
X45178715Y-40387490D02*
X45178715Y-40330347D01*
X45178715Y-40330347D02*
X45207287Y-40273204D01*
X45207287Y-40273204D02*
X45264430Y-40244633D01*
X45264430Y-40244633D02*
X45407287Y-40244633D01*
X45407287Y-40244633D02*
X45464430Y-40216061D01*
X46007287Y-40473204D02*
X46007287Y-39873204D01*
X46007287Y-40444633D02*
X45950144Y-40473204D01*
X45950144Y-40473204D02*
X45835858Y-40473204D01*
X45835858Y-40473204D02*
X45778715Y-40444633D01*
X45778715Y-40444633D02*
X45750144Y-40416061D01*
X45750144Y-40416061D02*
X45721572Y-40358918D01*
X45721572Y-40358918D02*
X45721572Y-40187490D01*
X45721572Y-40187490D02*
X45750144Y-40130347D01*
X45750144Y-40130347D02*
X45778715Y-40101775D01*
X45778715Y-40101775D02*
X45835858Y-40073204D01*
X45835858Y-40073204D02*
X45950144Y-40073204D01*
X45950144Y-40073204D02*
X46007287Y-40101775D01*
X46521572Y-40444633D02*
X46464429Y-40473204D01*
X46464429Y-40473204D02*
X46350144Y-40473204D01*
X46350144Y-40473204D02*
X46293001Y-40444633D01*
X46293001Y-40444633D02*
X46264429Y-40387490D01*
X46264429Y-40387490D02*
X46264429Y-40158918D01*
X46264429Y-40158918D02*
X46293001Y-40101775D01*
X46293001Y-40101775D02*
X46350144Y-40073204D01*
X46350144Y-40073204D02*
X46464429Y-40073204D01*
X46464429Y-40073204D02*
X46521572Y-40101775D01*
X46521572Y-40101775D02*
X46550144Y-40158918D01*
X46550144Y-40158918D02*
X46550144Y-40216061D01*
X46550144Y-40216061D02*
X46264429Y-40273204D01*
X46807287Y-40473204D02*
X46807287Y-40073204D01*
X46807287Y-40187490D02*
X46835858Y-40130347D01*
X46835858Y-40130347D02*
X46864430Y-40101775D01*
X46864430Y-40101775D02*
X46921572Y-40073204D01*
X46921572Y-40073204D02*
X46978715Y-40073204D01*
X47635859Y-40073204D02*
X47635859Y-40673204D01*
X47635859Y-40101775D02*
X47693002Y-40073204D01*
X47693002Y-40073204D02*
X47807287Y-40073204D01*
X47807287Y-40073204D02*
X47864430Y-40101775D01*
X47864430Y-40101775D02*
X47893002Y-40130347D01*
X47893002Y-40130347D02*
X47921573Y-40187490D01*
X47921573Y-40187490D02*
X47921573Y-40358918D01*
X47921573Y-40358918D02*
X47893002Y-40416061D01*
X47893002Y-40416061D02*
X47864430Y-40444633D01*
X47864430Y-40444633D02*
X47807287Y-40473204D01*
X47807287Y-40473204D02*
X47693002Y-40473204D01*
X47693002Y-40473204D02*
X47635859Y-40444633D01*
X48435859Y-40473204D02*
X48435859Y-40158918D01*
X48435859Y-40158918D02*
X48407287Y-40101775D01*
X48407287Y-40101775D02*
X48350144Y-40073204D01*
X48350144Y-40073204D02*
X48235859Y-40073204D01*
X48235859Y-40073204D02*
X48178716Y-40101775D01*
X48435859Y-40444633D02*
X48378716Y-40473204D01*
X48378716Y-40473204D02*
X48235859Y-40473204D01*
X48235859Y-40473204D02*
X48178716Y-40444633D01*
X48178716Y-40444633D02*
X48150144Y-40387490D01*
X48150144Y-40387490D02*
X48150144Y-40330347D01*
X48150144Y-40330347D02*
X48178716Y-40273204D01*
X48178716Y-40273204D02*
X48235859Y-40244633D01*
X48235859Y-40244633D02*
X48378716Y-40244633D01*
X48378716Y-40244633D02*
X48435859Y-40216061D01*
X48978716Y-40473204D02*
X48978716Y-39873204D01*
X48978716Y-40444633D02*
X48921573Y-40473204D01*
X48921573Y-40473204D02*
X48807287Y-40473204D01*
X48807287Y-40473204D02*
X48750144Y-40444633D01*
X48750144Y-40444633D02*
X48721573Y-40416061D01*
X48721573Y-40416061D02*
X48693001Y-40358918D01*
X48693001Y-40358918D02*
X48693001Y-40187490D01*
X48693001Y-40187490D02*
X48721573Y-40130347D01*
X48721573Y-40130347D02*
X48750144Y-40101775D01*
X48750144Y-40101775D02*
X48807287Y-40073204D01*
X48807287Y-40073204D02*
X48921573Y-40073204D01*
X48921573Y-40073204D02*
X48978716Y-40101775D01*
X49521573Y-40473204D02*
X49521573Y-39873204D01*
X49521573Y-40444633D02*
X49464430Y-40473204D01*
X49464430Y-40473204D02*
X49350144Y-40473204D01*
X49350144Y-40473204D02*
X49293001Y-40444633D01*
X49293001Y-40444633D02*
X49264430Y-40416061D01*
X49264430Y-40416061D02*
X49235858Y-40358918D01*
X49235858Y-40358918D02*
X49235858Y-40187490D01*
X49235858Y-40187490D02*
X49264430Y-40130347D01*
X49264430Y-40130347D02*
X49293001Y-40101775D01*
X49293001Y-40101775D02*
X49350144Y-40073204D01*
X49350144Y-40073204D02*
X49464430Y-40073204D01*
X49464430Y-40073204D02*
X49521573Y-40101775D01*
X49893001Y-40473204D02*
X49835858Y-40444633D01*
X49835858Y-40444633D02*
X49807287Y-40387490D01*
X49807287Y-40387490D02*
X49807287Y-39873204D01*
X50350144Y-40444633D02*
X50293001Y-40473204D01*
X50293001Y-40473204D02*
X50178716Y-40473204D01*
X50178716Y-40473204D02*
X50121573Y-40444633D01*
X50121573Y-40444633D02*
X50093001Y-40387490D01*
X50093001Y-40387490D02*
X50093001Y-40158918D01*
X50093001Y-40158918D02*
X50121573Y-40101775D01*
X50121573Y-40101775D02*
X50178716Y-40073204D01*
X50178716Y-40073204D02*
X50293001Y-40073204D01*
X50293001Y-40073204D02*
X50350144Y-40101775D01*
X50350144Y-40101775D02*
X50378716Y-40158918D01*
X50378716Y-40158918D02*
X50378716Y-40216061D01*
X50378716Y-40216061D02*
X50093001Y-40273204D01*
M02*
