  0
SECTION
  2
HEADER
  9
$ACADVER
  1
AC1024
  9
$ACADMAINTVER
 70
6
  9
$DWGCODEPAGE
  3
ANSI_1252
  9
$LASTSAVEDBY
  1
ezdxf
  9
$INSBASE
 10
0.0
 20
0.0
 30
0.0
  9
$EXTMIN
 10
1e+20
 20
1e+20
 30
1e+20
  9
$EXTMAX
 10
-1e+20
 20
-1e+20
 30
-1e+20
  9
$LIMMIN
 10
0.0
 20
0.0
  9
$LIMMAX
 10
420.0
 20
297.0
  9
$ORTHOMODE
 70
0
  9
$REGENMODE
 70
1
  9
$FILLMODE
 70
1
  9
$QTEXTMODE
 70
0
  9
$MIRRTEXT
 70
1
  9
$LTSCALE
 40
1.0
  9
$ATTMODE
 70
1
  9
$TEXTSIZE
 40
2.5
  9
$TRACEWID
 40
1.0
  9
$TEXTSTYLE
  7
Standard
  9
$CLAYER
  8
0
  9
$CELTYPE
  6
ByLayer
  9
$CECOLOR
 62
256
  9
$CELTSCALE
 40
1.0
  9
$DISPSILH
 70
0
  9
$DIMSCALE
 40
1.0
  9
$DIMASZ
 40
2.5
  9
$DIMEXO
 40
0.625
  9
$DIMDLI
 40
3.75
  9
$DIMRND
 40
0.0
  9
$DIMDLE
 40
0.0
  9
$DIMEXE
 40
1.25
  9
$DIMTP
 40
0.0
  9
$DIMTM
 40
0.0
  9
$DIMTXT
 40
2.5
  9
$DIMCEN
 40
2.5
  9
$DIMTSZ
 40
0.0
  9
$DIMTOL
 70
0
  9
$DIMLIM
 70
0
  9
$DIMTIH
 70
0
  9
$DIMTOH
 70
0
  9
$DIMSE1
 70
0
  9
$DIMSE2
 70
0
  9
$DIMTAD
 70
1
  9
$DIMZIN
 70
8
  9
$DIMBLK
  1

  9
$DIMASO
 70
1
  9
$DIMSHO
 70
1
  9
$DIMPOST
  1

  9
$DIMAPOST
  1

  9
$DIMALT
 70
0
  9
$DIMALTD
 70
3
  9
$DIMALTF
 40
0.03937007874
  9
$DIMLFAC
 40
1.0
  9
$DIMTOFL
 70
1
  9
$DIMTVP
 40
0.0
  9
$DIMTIX
 70
0
  9
$DIMSOXD
 70
0
  9
$DIMSAH
 70
0
  9
$DIMBLK1
  1

  9
$DIMBLK2
  1

  9
$DIMSTYLE
  2
ISO-25
  9
$DIMCLRD
 70
0
  9
$DIMCLRE
 70
0
  9
$DIMCLRT
 70
0
  9
$DIMTFAC
 40
1.0
  9
$DIMGAP
 40
0.625
  9
$DIMJUST
 70
0
  9
$DIMSD1
 70
0
  9
$DIMSD2
 70
0
  9
$DIMTOLJ
 70
0
  9
$DIMTZIN
 70
8
  9
$DIMALTZ
 70
0
  9
$DIMALTTZ
 70
0
  9
$DIMUPT
 70
0
  9
$DIMDEC
 70
2
  9
$DIMTDEC
 70
2
  9
$DIMALTU
 70
2
  9
$DIMALTTD
 70
3
  9
$DIMTXSTY
  7
Standard
  9
$DIMAUNIT
 70
0
  9
$DIMADEC
 70
0
  9
$DIMALTRND
 40
0.0
  9
$DIMAZIN
 70
0
  9
$DIMDSEP
 70
44
  9
$DIMATFIT
 70
3
  9
$DIMFRAC
 70
0
  9
$DIMLDRBLK
  1

  9
$DIMLUNIT
 70
2
  9
$DIMLWD
 70
-2
  9
$DIMLWE
 70
-2
  9
$DIMTMOVE
 70
0
  9
$DIMFXL
 40
1.0
  9
$DIMFXLON
 70
0
  9
$DIMJOGANG
 40
0.785398163397
  9
$DIMTFILL
 70
0
  9
$DIMTFILLCLR
 70
0
  9
$DIMARCSYM
 70
0
  9
$DIMLTYPE
  6

  9
$DIMLTEX1
  6

  9
$DIMLTEX2
  6

  9
$DIMTXTDIRECTION
 70
0
  9
$LUNITS
 70
2
  9
$LUPREC
 70
4
  9
$SKETCHINC
 40
1.0
  9
$FILLETRAD
 40
10.0
  9
$AUNITS
 70
0
  9
$AUPREC
 70
2
  9
$MENU
  1
.
  9
$ELEVATION
 40
0.0
  9
$PELEVATION
 40
0.0
  9
$THICKNESS
 40
0.0
  9
$LIMCHECK
 70
0
  9
$CHAMFERA
 40
0.0
  9
$CHAMFERB
 40
0.0
  9
$CHAMFERC
 40
0.0
  9
$CHAMFERD
 40
0.0
  9
$SKPOLY
 70
0
  9
$TDCREATE
 40
2461316.4480787036
  9
$TDUCREATE
 40
2458532.153996898
  9
$TDUPDATE
 40
2461316.4480902776
  9
$TDUUPDATE
 40
2458532.1544311
  9
$TDINDWG
 40
0.0
  9
$TDUSRTIMER
 40
0.0
  9
$USRTIMER
 70
1
  9
$ANGBASE
 50
0.0
  9
$ANGDIR
 70
0
  9
$PDMODE
 70
0
  9
$PDSIZE
 40
0.0
  9
$PLINEWID
 40
0.0
  9
$SPLFRAME
 70
0
  9
$SPLINETYPE
 70
6
  9
$SPLINESEGS
 70
8
  9
$HANDSEED
  5
C5
  9
$SURFTAB1
 70
6
  9
$SURFTAB2
 70
6
  9
$SURFTYPE
 70
6
  9
$SURFU
 70
6
  9
$SURFV
 70
6
  9
$UCSBASE
  2

  9
$UCSNAME
  2

  9
$UCSORG
 10
0.0
 20
0.0
 30
0.0
  9
$UCSXDIR
 10
1.0
 20
0.0
 30
0.0
  9
$UCSYDIR
 10
0.0
 20
1.0
 30
0.0
  9
$UCSORTHOREF
  2

  9
$UCSORTHOVIEW
 70
0
  9
$UCSORGTOP
 10
0.0
 20
0.0
 30
0.0
  9
$UCSORGBOTTOM
 10
0.0
 20
0.0
 30
0.0
  9
$UCSORGLEFT
 10
0.0
 20
0.0
 30
0.0
  9
$UCSORGRIGHT
 10
0.0
 20
0.0
 30
0.0
  9
$UCSORGFRONT
 10
0.0
 20
0.0
 30
0.0
  9
$UCSORGBACK
 10
0.0
 20
0.0
 30
0.0
  9
$PUCSBASE
  2

  9
$PUCSNAME
  2

  9
$PUCSORG
 10
0.0
 20
0.0
 30
0.0
  9
$PUCSXDIR
 10
1.0
 20
0.0
 30
0.0
  9
$PUCSYDIR
 10
0.0
 20
1.0
 30
0.0
  9
$PUCSORTHOREF
  2

  9
$PUCSORTHOVIEW
 70
0
  9
$PUCSORGTOP
 10
0.0
 20
0.0
 30
0.0
  9
$PUCSORGBOTTOM
 10
0.0
 20
0.0
 30
0.0
  9
$PUCSORGLEFT
 10
0.0
 20
0.0
 30
0.0
  9
$PUCSORGRIGHT
 10
0.0
 20
0.0
 30
0.0
  9
$PUCSORGFRONT
 10
0.0
 20
0.0
 30
0.0
  9
$PUCSORGBACK
 10
0.0
 20
0.0
 30
0.0
  9
$USERI1
 70
0
  9
$USERI2
 70
0
  9
$USERI3
 70
0
  9
$USERI4
 70
0
  9
$USERI5
 70
0
  9
$USERR1
 40
0.0
  9
$USERR2
 40
0.0
  9
$USERR3
 40
0.0
  9
$USERR4
 40
0.0
  9
$USERR5
 40
0.0
  9
$WORLDVIEW
 70
1
  9
$SHADEDGE
 70
3
  9
$SHADEDIF
 70
70
  9
$TILEMODE
 70
1
  9
$MAXACTVP
 70
64
  9
$PINSBASE
 10
0.0
 20
0.0
 30
0.0
  9
$PLIMCHECK
 70
0
  9
$PEXTMIN
 10
1e+20
 20
1e+20
 30
1e+20
  9
$PEXTMAX
 10
-1e+20
 20
-1e+20
 30
-1e+20
  9
$PLIMMIN
 10
0.0
 20
0.0
  9
$PLIMMAX
 10
420.0
 20
297.0
  9
$UNITMODE
 70
0
  9
$VISRETAIN
 70
1
  9
$PLINEGEN
 70
0
  9
$PSLTSCALE
 70
1
  9
$TREEDEPTH
 70
3020
  9
$CMLSTYLE
  2
Standard
  9
$CMLJUST
 70
0
  9
$CMLSCALE
 40
20.0
  9
$PROXYGRAPHICS
 70
1
  9
$MEASUREMENT
 70
1
  9
$CELWEIGHT
370
-1
  9
$ENDCAPS
280
0
  9
$JOINSTYLE
280
0
  9
$LWDISPLAY
290
0
  9
$INSUNITS
 70
6
  9
$HYPERLINKBASE
  1

  9
$STYLESHEET
  1

  9
$XEDIT
290
1
  9
$CEPSNTYPE
380
0
  9
$PSTYLEMODE
290
1
  9
$FINGERPRINTGUID
  2
{CCB94DBE-FB94-44BC-8746-53B45B057A0A}
  9
$VERSIONGUID
  2
{5D09A46F-215B-4A33-9BD6-B4C9FF4FFA02}
  9
$EXTNAMES
290
1
  9
$PSVPSCALE
 40
0.0
  9
$OLESTARTUP
290
0
  9
$SORTENTS
280
127
  9
$INDEXCTL
280
0
  9
$HIDETEXT
280
1
  9
$XCLIPFRAME
280
1
  9
$HALOGAP
280
0
  9
$OBSCOLOR
 70
257
  9
$OBSLTYPE
280
0
  9
$INTERSECTIONDISPLAY
280
0
  9
$INTERSECTIONCOLOR
 70
257
  9
$DIMASSOC
280
2
  9
$PROJECTNAME
  1

  9
$CAMERADISPLAY
290
0
  9
$LENSLENGTH
 40
50.0
  9
$CAMERAHEIGHT
 40
0.0
  9
$STEPSPERSEC
 40
24.0
  9
$STEPSIZE
 40
100.0
  9
$3DDWFPREC
 40
2.0
  9
$PSOLWIDTH
 40
0.005
  9
$PSOLHEIGHT
 40
0.08
  9
$LOFTANG1
 40
1.570796326795
  9
$LOFTANG2
 40
1.570796326795
  9
$LOFTMAG1
 40
0.0
  9
$LOFTMAG2
 40
0.0
  9
$LOFTPARAM
 70
7
  9
$LOFTNORMALS
280
1
  9
$LATITUDE
 40
37.795
  9
$LONGITUDE
 40
-122.394
  9
$NORTHDIRECTION
 40
0.0
  9
$TIMEZONE
 70
-8000
  9
$LIGHTGLYPHDISPLAY
280
1
  9
$TILEMODELIGHTSYNCH
280
1
  9
$CMATERIAL
347
20
  9
$SOLIDHIST
280
0
  9
$SHOWHIST
280
1
  9
$DWFFRAME
280
2
  9
$DGNFRAME
280
2
  9
$REALWORLDSCALE
290
1
  9
$INTERFERECOLOR
 62
256
  9
$CSHADOW
280
0
  9
$SHADOWPLANELOCATION
 40
0.0
  0
ENDSEC
  0
SECTION
  2
CLASSES
  0
CLASS
  1
ACDBDICTIONARYWDFLT
  2
AcDbDictionaryWithDefault
  3
ObjectDBX Classes
 90
0
 91
0
280
0
281
0
  0
CLASS
  1
SUN
  2
AcDbSun
  3
SCENEOE
 90
1153
 91
0
280
0
281
0
  0
CLASS
  1
VISUALSTYLE
  2
AcDbVisualStyle
  3
ObjectDBX Classes
 90
4095
 91
0
280
0
281
0
  0
CLASS
  1
MATERIAL
  2
AcDbMaterial
  3
ObjectDBX Classes
 90
1153
 91
0
280
0
281
0
  0
CLASS
  1
SCALE
  2
AcDbScale
  3
ObjectDBX Classes
 90
1153
 91
0
280
0
281
0
  0
CLASS
  1
TABLESTYLE
  2
AcDbTableStyle
  3
ObjectDBX Classes
 90
4095
 91
0
280
0
281
0
  0
CLASS
  1
MLEADERSTYLE
  2
AcDbMLeaderStyle
  3
ACDB_MLEADERSTYLE_CLASS
 90
4095
 91
0
280
0
281
0
  0
CLASS
  1
DICTIONARYVAR
  2
AcDbDictionaryVar
  3
ObjectDBX Classes
 90
0
 91
0
280
0
281
0
  0
CLASS
  1
CELLSTYLEMAP
  2
AcDbCellStyleMap
  3
ObjectDBX Classes
 90
1152
 91
0
280
0
281
0
  0
CLASS
  1
MENTALRAYRENDERSETTINGS
  2
AcDbMentalRayRenderSettings
  3
SCENEOE
 90
1024
 91
0
280
0
281
0
  0
CLASS
  1
ACDBDETAILVIEWSTYLE
  2
AcDbDetailViewStyle
  3
ObjectDBX Classes
 90
1025
 91
0
280
0
281
0
  0
CLASS
  1
ACDBSECTIONVIEWSTYLE
  2
AcDbSectionViewStyle
  3
ObjectDBX Classes
 90
1025
 91
0
280
0
281
0
  0
CLASS
  1
RASTERVARIABLES
  2
AcDbRasterVariables
  3
ISM
 90
0
 91
0
280
0
281
0
  0
CLASS
  1
ACDBPLACEHOLDER
  2
AcDbPlaceHolder
  3
ObjectDBX Classes
 90
0
 91
0
280
0
281
0
  0
CLASS
  1
LAYOUT
  2
AcDbLayout
  3
ObjectDBX Classes
 90
0
 91
0
280
0
281
0
  0
ENDSEC
  0
SECTION
  2
TABLES
  0
TABLE
  2
VPORT
  5
8
330
0
100
AcDbSymbolTable
 70
1
  0
VPORT
  5
23
330
8
100
AcDbSymbolTableRecord
100
AcDbViewportTableRecord
  2
*Active
 70
0
 10
0.0
 20
0.0
 11
1.0
 21
1.0
 12
0.0
 22
0.0
 13
0.0
 23
0.0
 14
0.5
 24
0.5
 15
0.5
 25
0.5
 16
0.0
 26
0.0
 36
1.0
 17
0.0
 27
0.0
 37
0.0
 40
1000.0
 41
1.34
 42
50.0
 43
0.0
 44
0.0
 50
0.0
 51
0.0
 71
0
 72
1000
 73
1
 74
3
 75
0
 76
0
 77
0
 78
0
281
0
 65
0
146
0.0
  0
ENDTAB
  0
TABLE
  2
LTYPE
  5
2
330
0
100
AcDbSymbolTable
 70
3
  0
LTYPE
  5
24
330
2
100
AcDbSymbolTableRecord
100
AcDbLinetypeTableRecord
  2
ByBlock
 70
0
  3

 72
65
 73
0
 40
0.0
  0
LTYPE
  5
25
330
2
100
AcDbSymbolTableRecord
100
AcDbLinetypeTableRecord
  2
ByLayer
 70
0
  3

 72
65
 73
0
 40
0.0
  0
LTYPE
  5
26
330
2
100
AcDbSymbolTableRecord
100
AcDbLinetypeTableRecord
  2
Continuous
 70
0
  3

 72
65
 73
0
 40
0.0
  0
ENDTAB
  0
TABLE
  2
LAYER
  5
1
330
0
100
AcDbSymbolTable
 70
17
  0
LAYER
  5
27
330
1
100
AcDbSymbolTableRecord
100
AcDbLayerTableRecord
  2
0
 70
0
 62
7
  6
Continuous
370
-3
390
13
347
21
  0
LAYER
  5
28
330
1
100
AcDbSymbolTableRecord
100
AcDbLayerTableRecord
  2
Defpoints
 70
0
 62
7
  6
Continuous
290
0
370
-3
390
13
347
21
  0
LAYER
  5
2F
330
1
100
AcDbSymbolTableRecord
100
AcDbLayerTableRecord
  2
FLEX_OUTLINE
 70
0
 62
30
  6
Continuous
370
-3
390
13
347
21
  0
LAYER
  5
30
330
1
100
AcDbSymbolTableRecord
100
AcDbLayerTableRecord
  2
FLEX_CUTOUTS
 70
0
 62
30
  6
Continuous
370
-3
390
13
347
21
  0
LAYER
  5
31
330
1
100
AcDbSymbolTableRecord
100
AcDbLayerTableRecord
  2
FLEX_HOLES
 70
0
 62
30
  6
Continuous
370
-3
390
13
347
21
  0
LAYER
  5
32
330
1
100
AcDbSymbolTableRecord
100
AcDbLayerTableRecord
  2
FLEX_LIGHT_PADS
 70
0
 62
5
  6
Continuous
370
-3
390
13
347
21
  0
LAYER
  5
33
330
1
100
AcDbSymbolTableRecord
100
AcDbLayerTableRecord
  2
FLEX_LEDS
 70
0
 62
2
  6
Continuous
370
-3
390
13
347
21
  0
LAYER
  5
34
330
1
100
AcDbSymbolTableRecord
100
AcDbLayerTableRecord
  2
FLEX_BUTTON
 70
0
 62
6
  6
Continuous
370
-3
390
13
347
21
  0
LAYER
  5
35
330
1
100
AcDbSymbolTableRecord
100
AcDbLayerTableRecord
  2
FLEX_TAIL
 70
0
 62
8
  6
Continuous
370
-3
390
13
347
21
  0
LAYER
  5
36
330
1
100
AcDbSymbolTableRecord
100
AcDbLayerTableRecord
  2
FLEX_CONTACTS
 70
0
 62
40
  6
Continuous
370
-3
390
13
347
21
  0
LAYER
  5
37
330
1
100
AcDbSymbolTableRecord
100
AcDbLayerTableRecord
  2
FLEX_SILVER_FRAMES
 70
0
 62
9
  6
Continuous
370
-3
390
13
347
21
  0
LAYER
  5
38
330
1
100
AcDbSymbolTableRecord
100
AcDbLayerTableRecord
  2
IGNORED_BLACK_TAB
 70
0
 62
251
  6
Continuous
370
-3
390
13
347
21
  0
LAYER
  5
39
330
1
100
AcDbSymbolTableRecord
100
AcDbLayerTableRecord
  2
REF_PLATE_OUTLINE
 70
0
 62
7
  6
Continuous
370
-3
390
13
347
21
  0
LAYER
  5
3A
330
1
100
AcDbSymbolTableRecord
100
AcDbLayerTableRecord
  2
REF_PLATE_OPENINGS
 70
0
 62
7
  6
Continuous
370
-3
390
13
347
21
  0
LAYER
  5
3B
330
1
100
AcDbSymbolTableRecord
100
AcDbLayerTableRecord
  2
REF_LIGHT_WINDOWS
 70
0
 62
2
  6
Continuous
370
-3
390
13
347
21
  0
LAYER
  5
3C
330
1
100
AcDbSymbolTableRecord
100
AcDbLayerTableRecord
  2
REF_LED_POCKETS
 70
0
 62
1
  6
Continuous
370
-3
390
13
347
21
  0
LAYER
  5
3D
330
1
100
AcDbSymbolTableRecord
100
AcDbLayerTableRecord
  2
NOTES
 70
0
 62
7
  6
Continuous
370
-3
390
13
347
21
  0
ENDTAB
  0
TABLE
  2
STYLE
  5
5
330
0
100
AcDbSymbolTable
 70
1
  0
STYLE
  5
29
330
5
100
AcDbSymbolTableRecord
100
AcDbTextStyleTableRecord
  2
Standard
 70
0
 40
0.0
 41
1.0
 50
0.0
 71
0
 42
2.5
  3
txt
  4

  0
ENDTAB
  0
TABLE
  2
VIEW
  5
7
330
0
100
AcDbSymbolTable
 70
0
  0
ENDTAB
  0
TABLE
  2
UCS
  5
6
330
0
100
AcDbSymbolTable
 70
0
  0
ENDTAB
  0
TABLE
  2
APPID
  5
3
330
0
100
AcDbSymbolTable
 70
3
  0
APPID
  5
2A
330
3
100
AcDbSymbolTableRecord
100
AcDbRegAppTableRecord
  2
ACAD
 70
0
  0
APPID
  5
C2
330
3
100
AcDbSymbolTableRecord
100
AcDbRegAppTableRecord
  2
HATCHBACKGROUNDCOLOR
 70
0
  0
APPID
  5
C3
330
3
100
AcDbSymbolTableRecord
100
AcDbRegAppTableRecord
  2
EZDXF
 70
0
  0
ENDTAB
  0
TABLE
  2
DIMSTYLE
  5
4
330
0
100
AcDbSymbolTable
 70
1
100
AcDbDimStyleTable
  0
DIMSTYLE
105
2B
330
4
100
AcDbSymbolTableRecord
100
AcDbDimStyleTableRecord
  2
Standard
 70
0
 40
1.0
 41
2.5
 42
0.625
 43
3.75
 44
1.25
 45
0.0
 46
0.0
 47
0.0
 48
0.0
 49
2.5
140
2.5
141
2.5
142
0.0
143
0.03937007874
144
1.0
145
0.0
146
1.0
147
0.625
148
0.0
 69
0
 70
0
 71
0
 72
0
 73
0
 74
0
 75
0
 76
0
 77
1
 78
8
 79
3
170
0
171
3
172
1
173
0
174
0
175
0
176
0
177
0
178
0
179
2
271
2
272
2
273
2
274
3
275
0
276
0
277
2
278
44
279
0
280
0
281
0
282
0
283
0
284
8
285
0
286
0
288
0
289
3
290
0
371
-2
372
-2
  0
ENDTAB
  0
TABLE
  2
BLOCK_RECORD
  5
9
330
0
100
AcDbSymbolTable
 70
2
  0
BLOCK_RECORD
  5
17
330
9
100
AcDbSymbolTableRecord
100
AcDbBlockTableRecord
  2
*Model_Space
340
1A
 70
0
280
1
281
0
  0
BLOCK_RECORD
  5
1B
330
9
100
AcDbSymbolTableRecord
100
AcDbBlockTableRecord
  2
*Paper_Space
340
1E
 70
0
280
1
281
0
  0
ENDTAB
  0
ENDSEC
  0
SECTION
  2
BLOCKS
  0
BLOCK
  5
18
330
17
100
AcDbEntity
  8
0
100
AcDbBlockBegin
  2
*Model_Space
 70
0
 10
0.0
 20
0.0
 30
0.0
  3
*Model_Space
  1

  0
ENDBLK
  5
19
330
17
100
AcDbEntity
  8
0
100
AcDbBlockEnd
  0
BLOCK
  5
1C
330
1B
100
AcDbEntity
  8
0
100
AcDbBlockBegin
  2
*Paper_Space
 70
0
 10
0.0
 20
0.0
 30
0.0
  3
*Paper_Space
  1

  0
ENDBLK
  5
1D
330
1B
100
AcDbEntity
  8
0
100
AcDbBlockEnd
  0
ENDSEC
  0
SECTION
  2
ENTITIES
  0
LWPOLYLINE
  5
3E
330
17
100
AcDbEntity
  8
FLEX_OUTLINE
100
AcDbPolyline
 90
179
 70
1
 10
65.733
 20
115.626
 10
64.858
 20
115.801
 10
64.408
 20
115.826
 10
64.383
 20
115.851
 10
63.808
 20
115.851
 10
63.783
 20
115.876
 10
63.758
 20
115.851
 10
63.183
 20
115.851
 10
63.158
 20
115.826
 10
62.908
 20
115.826
 10
62.883
 20
115.801
 10
62.408
 20
115.751
 10
61.483
 20
115.526
 10
60.733
 20
115.251
 10
59.883
 20
114.826
 10
59.358
 20
114.476
 10
59.308
 20
114.476
 10
58.558
 20
115.101
 10
58.233
 20
115.326
 10
57.933
 20
115.476
 10
57.458
 20
115.601
 10
57.183
 20
115.601
 10
57.158
 20
115.626
 10
57.133
 20
115.601
 10
56.858
 20
115.601
 10
56.383
 20
115.476
 10
55.933
 20
115.226
 10
55.533
 20
114.851
 10
55.358
 20
114.601
 10
55.208
 20
114.301
 10
55.108
 20
113.976
 10
55.083
 20
113.551
 10
55.058
 20
113.526
 10
55.083
 20
113.501
 10
55.083
 20
113.226
 10
55.133
 20
112.976
 10
55.358
 20
112.451
 10
55.533
 20
112.201
 10
55.908
 20
111.826
 10
56.658
 20
111.226
 10
56.358
 20
110.401
 10
56.208
 20
109.851
 10
56.108
 20
109.201
 10
56.083
 20
109.176
 10
56.058
 20
108.726
 10
56.033
 20
108.701
 10
56.033
 20
108.126
 10
55.983
 20
108.101
 10
55.983
 20
102.926
 10
55.958
 20
102.901
 10
55.208
 20
102.901
 10
55.183
 20
102.926
 10
55.183
 20
111.201
 10
55.158
 20
111.226
 10
55.133
 20
111.851
 10
55.033
 20
112.351
 10
54.858
 20
112.876
 10
54.608
 20
113.401
 10
54.283
 20
113.901
 10
54.058
 20
114.176
 10
53.658
 20
114.576
 10
53.383
 20
114.801
 10
52.883
 20
115.126
 10
52.533
 20
115.301
 10
51.733
 20
115.576
 10
51.333
 20
115.651
 10
51.158
 20
115.651
 10
51.133
 20
115.676
 10
50.708
 20
115.676
 10
50.683
 20
115.701
 10
31.533
 20
115.701
 10
31.508
 20
115.676
 10
31.233
 20
115.651
 10
30.933
 20
115.501
 10
30.733
 20
115.301
 10
30.583
 20
115.001
 10
30.558
 20
114.726
 10
30.533
 20
114.701
 10
30.533
 20
23.401
 10
30.558
 20
23.376
 10
30.558
 20
23.126
 10
30.683
 20
22.726
 10
30.833
 20
22.476
 10
31.208
 20
22.101
 10
31.408
 20
21.976
 10
31.658
 20
21.876
 10
31.858
 20
21.826
 10
32.108
 20
21.826
 10
32.133
 20
21.801
 10
36.083
 20
21.801
 10
36.108
 20
21.776
 10
36.108
 20
11.251
 10
36.133
 20
11.226
 10
36.158
 20
10.901
 10
36.358
 20
10.501
 10
36.608
 20
10.251
 10
37.008
 20
10.051
 10
37.333
 20
10.026
 10
37.358
 20
10.001
 10
69.358
 20
10.001
 10
69.383
 20
10.026
 10
69.583
 20
10.026
 10
69.783
 20
10.076
 10
70.108
 20
10.251
 10
70.358
 20
10.501
 10
70.533
 20
10.826
 10
70.583
 20
11.026
 10
70.583
 20
11.226
 10
70.608
 20
11.251
 10
70.608
 20
21.776
 10
70.633
 20
21.801
 10
74.633
 20
21.801
 10
74.658
 20
21.826
 10
75.008
 20
21.851
 10
75.283
 20
21.951
 10
75.533
 20
22.101
 10
75.833
 20
22.401
 10
75.958
 20
22.601
 10
76.083
 20
22.926
 10
76.108
 20
23.276
 10
76.133
 20
23.301
 10
76.133
 20
28.201
 10
76.158
 20
28.226
 10
80.283
 20
28.226
 10
80.433
 20
28.276
 10
80.558
 20
28.426
 10
80.583
 20
28.526
 10
80.583
 20
46.826
 10
80.533
 20
46.976
 10
80.433
 20
47.076
 10
80.283
 20
47.126
 10
76.158
 20
47.126
 10
76.133
 20
47.151
 10
76.133
 20
99.951
 10
76.108
 20
99.976
 10
76.108
 20
100.176
 10
75.958
 20
100.551
 10
75.808
 20
100.751
 10
75.583
 20
100.926
 10
75.208
 20
101.076
 10
75.008
 20
101.076
 10
74.983
 20
101.101
 10
71.483
 20
101.101
 10
71.458
 20
101.126
 10
71.908
 20
101.401
 10
72.208
 20
101.701
 10
72.383
 20
101.951
 10
72.608
 20
102.476
 10
72.658
 20
102.726
 10
72.658
 20
103.001
 10
72.683
 20
103.026
 10
72.658
 20
103.051
 10
72.658
 20
103.326
 10
72.608
 20
103.576
 10
72.533
 20
103.801
 10
72.283
 20
104.251
 10
71.908
 20
104.651
 10
71.033
 20
105.301
 10
71.308
 20
106.151
 10
71.433
 20
106.726
 10
71.483
 20
107.201
 10
71.508
 20
107.226
 10
71.533
 20
108.076
 10
71.558
 20
108.101
 10
71.533
 20
108.126
 10
71.533
 20
108.701
 10
71.508
 20
108.726
 10
71.508
 20
108.976
 10
71.483
 20
109.001
 10
71.433
 20
109.476
 10
71.308
 20
110.051
 10
71.083
 20
110.776
 10
70.633
 20
111.776
 10
70.158
 20
112.551
 10
69.583
 20
113.276
 10
68.958
 20
113.901
 10
68.233
 20
114.476
 10
67.458
 20
114.951
 10
66.458
 20
115.401
  0
LWPOLYLINE
  5
3F
330
17
100
AcDbEntity
  8
FLEX_TAIL
100
AcDbPolyline
 90
36
 70
1
 10
80.283
 20
32.901
 10
80.283
 20
28.151
 10
108.158
 20
28.151
 10
108.358
 20
27.451
 10
108.608
 20
26.926
 10
108.883
 20
26.501
 10
109.383
 20
25.951
 10
109.983
 20
25.501
 10
110.508
 20
25.226
 10
111.008
 20
25.051
 10
111.583
 20
24.926
 10
111.583
 20
-11.199
 10
107.833
 20
-13.799
 10
107.833
 20
-19.099
 10
107.883
 20
-19.249
 10
107.983
 20
-19.349
 10
108.133
 20
-19.399
 10
115.783
 20
-19.399
 10
115.933
 20
-19.349
 10
116.033
 20
-19.249
 10
116.083
 20
-19.099
 10
116.083
 20
28.901
 10
116.058
 20
28.926
 10
116.033
 20
29.526
 10
115.933
 20
29.976
 10
115.758
 20
30.476
 10
115.558
 20
30.876
 10
115.283
 20
31.301
 10
114.783
 20
31.851
 10
114.483
 20
32.101
 10
114.058
 20
32.376
 10
113.658
 20
32.576
 10
113.158
 20
32.751
 10
112.708
 20
32.851
 10
112.108
 20
32.876
 10
112.083
 20
32.901
  0
LWPOLYLINE
  5
40
330
17
100
AcDbEntity
  8
FLEX_CONTACTS
100
AcDbPolyline
 90
4
 70
1
 10
108.505
 20
-18.95
 10
108.805
 20
-18.95
 10
108.805
 20
-17.15
 10
108.505
 20
-17.15
  0
LWPOLYLINE
  5
41
330
17
100
AcDbEntity
  8
FLEX_CONTACTS
100
AcDbPolyline
 90
4
 70
1
 10
109.005
 20
-18.95
 10
109.305
 20
-18.95
 10
109.305
 20
-17.15
 10
109.005
 20
-17.15
  0
LWPOLYLINE
  5
42
330
17
100
AcDbEntity
  8
FLEX_CONTACTS
100
AcDbPolyline
 90
4
 70
1
 10
109.505
 20
-18.95
 10
109.805
 20
-18.95
 10
109.805
 20
-17.15
 10
109.505
 20
-17.15
  0
LWPOLYLINE
  5
43
330
17
100
AcDbEntity
  8
FLEX_CONTACTS
100
AcDbPolyline
 90
4
 70
1
 10
110.005
 20
-18.95
 10
110.305
 20
-18.95
 10
110.305
 20
-17.15
 10
110.005
 20
-17.15
  0
LWPOLYLINE
  5
44
330
17
100
AcDbEntity
  8
FLEX_CONTACTS
100
AcDbPolyline
 90
4
 70
1
 10
110.505
 20
-18.95
 10
110.805
 20
-18.95
 10
110.805
 20
-17.15
 10
110.505
 20
-17.15
  0
LWPOLYLINE
  5
45
330
17
100
AcDbEntity
  8
FLEX_CONTACTS
100
AcDbPolyline
 90
4
 70
1
 10
111.005
 20
-18.95
 10
111.305
 20
-18.95
 10
111.305
 20
-17.15
 10
111.005
 20
-17.15
  0
LWPOLYLINE
  5
46
330
17
100
AcDbEntity
  8
FLEX_CONTACTS
100
AcDbPolyline
 90
4
 70
1
 10
111.505
 20
-18.95
 10
111.805
 20
-18.95
 10
111.805
 20
-17.15
 10
111.505
 20
-17.15
  0
LWPOLYLINE
  5
47
330
17
100
AcDbEntity
  8
FLEX_CONTACTS
100
AcDbPolyline
 90
4
 70
1
 10
112.005
 20
-18.95
 10
112.305
 20
-18.95
 10
112.305
 20
-17.15
 10
112.005
 20
-17.15
  0
LWPOLYLINE
  5
48
330
17
100
AcDbEntity
  8
FLEX_CONTACTS
100
AcDbPolyline
 90
4
 70
1
 10
112.505
 20
-18.95
 10
112.805
 20
-18.95
 10
112.805
 20
-17.15
 10
112.505
 20
-17.15
  0
LWPOLYLINE
  5
49
330
17
100
AcDbEntity
  8
FLEX_CONTACTS
100
AcDbPolyline
 90
4
 70
1
 10
113.005
 20
-18.95
 10
113.305
 20
-18.95
 10
113.305
 20
-17.15
 10
113.005
 20
-17.15
  0
LWPOLYLINE
  5
4A
330
17
100
AcDbEntity
  8
FLEX_CONTACTS
100
AcDbPolyline
 90
4
 70
1
 10
113.505
 20
-18.95
 10
113.805
 20
-18.95
 10
113.805
 20
-17.15
 10
113.505
 20
-17.15
  0
LWPOLYLINE
  5
4B
330
17
100
AcDbEntity
  8
FLEX_CONTACTS
100
AcDbPolyline
 90
4
 70
1
 10
114.005
 20
-18.95
 10
114.305
 20
-18.95
 10
114.305
 20
-17.15
 10
114.005
 20
-17.15
  0
LWPOLYLINE
  5
4C
330
17
100
AcDbEntity
  8
FLEX_CONTACTS
100
AcDbPolyline
 90
4
 70
1
 10
114.505
 20
-18.95
 10
114.805
 20
-18.95
 10
114.805
 20
-17.15
 10
114.505
 20
-17.15
  0
LWPOLYLINE
  5
4D
330
17
100
AcDbEntity
  8
FLEX_CONTACTS
100
AcDbPolyline
 90
4
 70
1
 10
115.005
 20
-18.95
 10
115.305
 20
-18.95
 10
115.305
 20
-17.15
 10
115.005
 20
-17.15
  0
LWPOLYLINE
  5
4E
330
17
100
AcDbEntity
  8
IGNORED_BLACK_TAB
100
AcDbPolyline
 90
36
 70
1
 10
94.08
 20
64.5
 10
94.07039264020162
 20
64.59754516100807
 10
94.04193976625564
 20
64.69134171618255
 10
93.99573480615128
 20
64.7777851165098
 10
93.93355339059327
 20
64.85355339059328
 10
93.8577851165098
 20
64.91573480615128
 10
93.77134171618255
 20
64.96193976625564
 10
93.67754516100807
 20
64.99039264020162
 10
93.58
 20
65.0
 10
81.08
 20
65.0
 10
80.98245483899193
 20
64.99039264020162
 10
80.88865828381745
 20
64.96193976625564
 10
80.8022148834902
 20
64.91573480615128
 10
80.72644660940672
 20
64.85355339059328
 10
80.66426519384872
 20
64.7777851165098
 10
80.61806023374436
 20
64.69134171618255
 10
80.58960735979838
 20
64.59754516100807
 10
80.58
 20
64.5
 10
80.58
 20
28.75
 10
80.58960735979838
 20
28.652454838991936
 10
80.61806023374436
 20
28.558658283817454
 10
80.66426519384872
 20
28.4722148834902
 10
80.72644660940672
 20
28.396446609406727
 10
80.8022148834902
 20
28.334265193848726
 10
80.88865828381745
 20
28.288060233744357
 10
80.98245483899193
 20
28.259607359798384
 10
81.08
 20
28.25
 10
93.58
 20
28.25
 10
93.67754516100807
 20
28.259607359798384
 10
93.77134171618255
 20
28.288060233744357
 10
93.8577851165098
 20
28.334265193848726
 10
93.93355339059327
 20
28.396446609406727
 10
93.99573480615128
 20
28.4722148834902
 10
94.04193976625564
 20
28.558658283817454
 10
94.07039264020162
 20
28.652454838991936
 10
94.08
 20
28.75
  0
LWPOLYLINE
  5
4F
330
17
100
AcDbEntity
  8
FLEX_CUTOUTS
100
AcDbPolyline
 90
36
 70
1
 10
51.028
 20
107.084
 10
50.97227731316937
 20
107.64976193384678
 10
50.80725064428273
 20
108.19378195385876
 10
50.53926187567738
 20
108.69515367575686
 10
50.17860966544099
 20
109.13460966544099
 10
49.739153675756846
 20
109.49526187567739
 10
49.23778195385876
 20
109.76325064428273
 10
48.69376193384677
 20
109.92827731316937
 10
48.128
 20
109.98400000000001
 10
37.788
 20
109.98400000000001
 10
37.222238066153224
 20
109.92827731316937
 10
36.67821804614124
 20
109.76325064428273
 10
36.17684632424315
 20
109.49526187567739
 10
35.73739033455901
 20
109.13460966544099
 10
35.376738124322614
 20
108.69515367575686
 10
35.108749355717265
 20
108.19378195385876
 10
34.943722686830625
 20
107.64976193384678
 10
34.888
 20
107.084
 10
34.888
 20
107.054
 10
34.943722686830625
 20
106.48823806615323
 10
35.108749355717265
 20
105.94421804614124
 10
35.376738124322614
 20
105.44284632424315
 10
35.73739033455901
 20
105.00339033455901
 10
36.17684632424315
 20
104.64273812432262
 10
36.67821804614124
 20
104.37474935571727
 10
37.222238066153224
 20
104.20972268683063
 10
37.788
 20
104.154
 10
48.128
 20
104.154
 10
48.69376193384677
 20
104.20972268683063
 10
49.237781953858764
 20
104.37474935571727
 10
49.739153675756846
 20
104.64273812432262
 10
50.17860966544099
 20
105.00339033455901
 10
50.53926187567738
 20
105.44284632424315
 10
50.80725064428273
 20
105.94421804614124
 10
50.97227731316937
 20
106.48823806615323
 10
51.028
 20
107.054
  0
TEXT
  5
50
330
17
100
AcDbEntity
  8
NOTES
100
AcDbText
 10
41.458
 20
107.069
 30
0.0
 40
1.0
  1
HDMI
 11
41.458
 21
107.069
 31
0.0
100
AcDbText
  0
LWPOLYLINE
  5
51
330
17
100
AcDbEntity
  8
FLEX_CUTOUTS
100
AcDbPolyline
 90
36
 70
1
 10
50.222
 20
95.492
 10
50.19125644864517
 20
95.80414451522581
 10
50.10020725201806
 20
96.10429349178415
 10
49.952351379684075
 20
96.38091237283138
 10
49.753370849898474
 20
96.62337084989848
 10
49.51091237283136
 20
96.82235137968408
 10
49.23429349178414
 20
96.97020725201806
 10
48.9341445152258
 20
97.06125644864517
 10
48.622
 20
97.092
 10
37.682
 20
97.092
 10
37.3698554847742
 20
97.06125644864517
 10
37.06970650821586
 20
96.97020725201806
 10
36.79308762716864
 20
96.82235137968408
 10
36.55062915010153
 20
96.62337084989848
 10
36.35164862031593
 20
96.38091237283138
 10
36.20379274798194
 20
96.10429349178415
 10
36.11274355135483
 20
95.80414451522581
 10
36.082
 20
95.492
 10
36.082
 20
87.32199999999999
 10
36.11274355135483
 20
87.00985548477418
 10
36.20379274798194
 20
86.70970650821585
 10
36.35164862031593
 20
86.43308762716862
 10
36.55062915010153
 20
86.19062915010151
 10
36.79308762716864
 20
85.99164862031591
 10
37.06970650821586
 20
85.84379274798192
 10
37.3698554847742
 20
85.75274355135483
 10
37.682
 20
85.722
 10
48.622
 20
85.722
 10
48.9341445152258
 20
85.75274355135483
 10
49.23429349178414
 20
85.84379274798194
 10
49.51091237283136
 20
85.99164862031591
 10
49.753370849898474
 20
86.19062915010151
 10
49.952351379684075
 20
86.43308762716862
 10
50.10020725201806
 20
86.70970650821585
 10
50.19125644864517
 20
87.00985548477418
 10
50.222
 20
87.32199999999999
  0
TEXT
  5
52
330
17
100
AcDbEntity
  8
NOTES
100
AcDbText
 10
41.652
 20
91.407
 30
0.0
 40
1.0
  1
ETH2
 11
41.652
 21
91.407
 31
0.0
100
AcDbText
  0
LWPOLYLINE
  5
53
330
17
100
AcDbEntity
  8
FLEX_CUTOUTS
100
AcDbPolyline
 90
36
 70
1
 10
70.771
 20
95.61
 10
70.74506012854437
 20
95.87337193472177
 10
70.66823736889025
 20
96.12662263369288
 10
70.54348397660844
 20
96.36001981457646
 10
70.37559415460184
 20
96.56459415460183
 10
70.17101981457647
 20
96.73248397660844
 10
69.93762263369288
 20
96.85723736889024
 10
69.68437193472178
 20
96.93406012854436
 10
69.421
 20
96.96
 10
57.921
 20
96.96
 10
57.657628065278224
 20
96.93406012854436
 10
57.40437736630713
 20
96.85723736889024
 10
57.17098018542354
 20
96.73248397660844
 10
56.96640584539816
 20
96.56459415460183
 10
56.798516023391564
 20
96.36001981457646
 10
56.67376263110976
 20
96.12662263369288
 10
56.59693987145564
 20
95.87337193472177
 10
56.571
 20
95.61
 10
56.571
 20
87.58
 10
56.59693987145564
 20
87.31662806527822
 10
56.67376263110976
 20
87.06337736630712
 10
56.798516023391564
 20
86.82998018542354
 10
56.96640584539816
 20
86.62540584539816
 10
57.17098018542354
 20
86.45751602339156
 10
57.40437736630713
 20
86.33276263110976
 10
57.657628065278224
 20
86.25593987145564
 10
57.921
 20
86.23
 10
69.421
 20
86.23
 10
69.68437193472178
 20
86.25593987145564
 10
69.93762263369288
 20
86.33276263110976
 10
70.17101981457647
 20
86.45751602339156
 10
70.37559415460184
 20
86.62540584539816
 10
70.54348397660844
 20
86.82998018542354
 10
70.66823736889025
 20
87.06337736630712
 10
70.74506012854437
 20
87.31662806527822
 10
70.771
 20
87.58
  0
TEXT
  5
54
330
17
100
AcDbEntity
  8
NOTES
100
AcDbText
 10
62.171
 20
91.595
 30
0.0
 40
1.0
  1
ETH1
 11
62.171
 21
91.595
 31
0.0
100
AcDbText
  0
LWPOLYLINE
  5
55
330
17
100
AcDbEntity
  8
FLEX_CUTOUTS
100
AcDbPolyline
 90
36
 70
1
 10
48.001
 20
76.557
 10
47.957766880907265
 20
76.9959532245363
 10
47.82972894815039
 20
77.41803772282145
 10
47.621806627680726
 20
77.80703302429411
 10
47.34199025766973
 20
78.14799025766973
 10
47.0010330242941
 20
78.42780662768072
 10
46.61203772282145
 20
78.6357289481504
 10
46.18995322453629
 20
78.76376688090727
 10
45.751
 20
78.807
 10
40.421
 20
78.807
 10
39.98204677546371
 20
78.76376688090727
 10
39.55996227717855
 20
78.6357289481504
 10
39.170966975705895
 20
78.42780662768072
 10
38.83000974233027
 20
78.14799025766973
 10
38.55019337231927
 20
77.80703302429411
 10
38.34227105184961
 20
77.41803772282145
 10
38.21423311909273
 20
76.9959532245363
 10
38.171
 20
76.557
 10
38.171
 20
74.95700000000001
 10
38.21423311909273
 20
74.51804677546372
 10
38.34227105184961
 20
74.09596227717856
 10
38.55019337231927
 20
73.7069669757059
 10
38.83000974233027
 20
73.36600974233028
 10
39.170966975705895
 20
73.08619337231929
 10
39.55996227717855
 20
72.87827105184961
 10
39.98204677546371
 20
72.75023311909274
 10
40.421
 20
72.70700000000001
 10
45.751
 20
72.70700000000001
 10
46.18995322453629
 20
72.75023311909274
 10
46.61203772282145
 20
72.87827105184961
 10
47.0010330242941
 20
73.08619337231929
 10
47.34199025766973
 20
73.36600974233028
 10
47.621806627680726
 20
73.7069669757059
 10
47.82972894815039
 20
74.09596227717856
 10
47.957766880907265
 20
74.51804677546372
 10
48.001
 20
74.95700000000001
  0
TEXT
  5
56
330
17
100
AcDbEntity
  8
NOTES
100
AcDbText
 10
41.586
 20
75.757
 30
0.0
 40
1.0
  1
C1
 11
41.586
 21
75.757
 31
0.0
100
AcDbText
  0
LWPOLYLINE
  5
57
330
17
100
AcDbEntity
  8
FLEX_CUTOUTS
100
AcDbPolyline
 90
36
 70
1
 10
68.601
 20
76.557
 10
68.55776688090727
 20
76.9959532245363
 10
68.4297289481504
 20
77.41803772282145
 10
68.22180662768072
 20
77.80703302429411
 10
67.94199025766973
 20
78.14799025766973
 10
67.60103302429411
 20
78.42780662768072
 10
67.21203772282145
 20
78.6357289481504
 10
66.78995322453629
 20
78.76376688090727
 10
66.351
 20
78.807
 10
61.021
 20
78.807
 10
60.58204677546371
 20
78.76376688090727
 10
60.15996227717855
 20
78.6357289481504
 10
59.770966975705896
 20
78.42780662768072
 10
59.43000974233027
 20
78.14799025766973
 10
59.15019337231927
 20
77.80703302429411
 10
58.94227105184961
 20
77.41803772282145
 10
58.814233119092734
 20
76.9959532245363
 10
58.771
 20
76.557
 10
58.771
 20
74.95700000000001
 10
58.814233119092734
 20
74.51804677546372
 10
58.9422710518496
 20
74.09596227717856
 10
59.15019337231927
 20
73.7069669757059
 10
59.43000974233027
 20
73.36600974233028
 10
59.770966975705896
 20
73.08619337231929
 10
60.15996227717855
 20
72.87827105184961
 10
60.58204677546371
 20
72.75023311909274
 10
61.021
 20
72.70700000000001
 10
66.351
 20
72.70700000000001
 10
66.78995322453629
 20
72.75023311909274
 10
67.21203772282145
 20
72.87827105184961
 10
67.6010330242941
 20
73.08619337231929
 10
67.94199025766973
 20
73.36600974233028
 10
68.22180662768072
 20
73.7069669757059
 10
68.4297289481504
 20
74.09596227717856
 10
68.55776688090727
 20
74.51804677546372
 10
68.601
 20
74.95700000000001
  0
TEXT
  5
58
330
17
100
AcDbEntity
  8
NOTES
100
AcDbText
 10
62.186
 20
75.757
 30
0.0
 40
1.0
  1
C4
 11
62.186
 21
75.757
 31
0.0
100
AcDbText
  0
LWPOLYLINE
  5
59
330
17
100
AcDbEntity
  8
FLEX_CUTOUTS
100
AcDbPolyline
 90
36
 70
1
 10
48.001
 20
66.64
 10
47.957766880907265
 20
67.07895322453629
 10
47.82972894815039
 20
67.50103772282145
 10
47.621806627680726
 20
67.89003302429411
 10
47.34199025766973
 20
68.23099025766973
 10
47.0010330242941
 20
68.51080662768072
 10
46.61203772282145
 20
68.7187289481504
 10
46.18995322453629
 20
68.84676688090727
 10
45.751
 20
68.89
 10
40.421
 20
68.89
 10
39.98204677546371
 20
68.84676688090727
 10
39.55996227717855
 20
68.7187289481504
 10
39.170966975705895
 20
68.51080662768072
 10
38.83000974233027
 20
68.23099025766973
 10
38.55019337231927
 20
67.89003302429411
 10
38.34227105184961
 20
67.50103772282145
 10
38.21423311909273
 20
67.07895322453629
 10
38.171
 20
66.64
 10
38.171
 20
65.04
 10
38.21423311909273
 20
64.60104677546371
 10
38.34227105184961
 20
64.17896227717856
 10
38.55019337231927
 20
63.7899669757059
 10
38.83000974233027
 20
63.449009742330276
 10
39.170966975705895
 20
63.16919337231928
 10
39.55996227717855
 20
62.96127105184961
 10
39.98204677546371
 20
62.83323311909274
 10
40.421
 20
62.790000000000006
 10
45.751
 20
62.790000000000006
 10
46.18995322453629
 20
62.83323311909274
 10
46.61203772282145
 20
62.961271051849614
 10
47.0010330242941
 20
63.16919337231928
 10
47.34199025766973
 20
63.449009742330276
 10
47.621806627680726
 20
63.7899669757059
 10
47.82972894815039
 20
64.17896227717856
 10
47.957766880907265
 20
64.60104677546371
 10
48.001
 20
65.04
  0
TEXT
  5
5A
330
17
100
AcDbEntity
  8
NOTES
100
AcDbText
 10
41.586
 20
65.84
 30
0.0
 40
1.0
  1
C2
 11
41.586
 21
65.84
 31
0.0
100
AcDbText
  0
LWPOLYLINE
  5
5B
330
17
100
AcDbEntity
  8
FLEX_CUTOUTS
100
AcDbPolyline
 90
36
 70
1
 10
68.601
 20
66.64
 10
68.55776688090727
 20
67.07895322453629
 10
68.4297289481504
 20
67.50103772282145
 10
68.22180662768072
 20
67.89003302429411
 10
67.94199025766973
 20
68.23099025766973
 10
67.60103302429411
 20
68.51080662768072
 10
67.21203772282145
 20
68.7187289481504
 10
66.78995322453629
 20
68.84676688090727
 10
66.351
 20
68.89
 10
61.021
 20
68.89
 10
60.58204677546371
 20
68.84676688090727
 10
60.15996227717855
 20
68.7187289481504
 10
59.770966975705896
 20
68.51080662768072
 10
59.43000974233027
 20
68.23099025766973
 10
59.15019337231927
 20
67.89003302429411
 10
58.94227105184961
 20
67.50103772282145
 10
58.814233119092734
 20
67.07895322453629
 10
58.771
 20
66.64
 10
58.771
 20
65.04
 10
58.814233119092734
 20
64.60104677546371
 10
58.9422710518496
 20
64.17896227717856
 10
59.15019337231927
 20
63.7899669757059
 10
59.43000974233027
 20
63.449009742330276
 10
59.770966975705896
 20
63.16919337231928
 10
60.15996227717855
 20
62.96127105184961
 10
60.58204677546371
 20
62.83323311909274
 10
61.021
 20
62.790000000000006
 10
66.351
 20
62.790000000000006
 10
66.78995322453629
 20
62.83323311909274
 10
67.21203772282145
 20
62.961271051849614
 10
67.6010330242941
 20
63.16919337231928
 10
67.94199025766973
 20
63.449009742330276
 10
68.22180662768072
 20
63.7899669757059
 10
68.4297289481504
 20
64.17896227717856
 10
68.55776688090727
 20
64.60104677546371
 10
68.601
 20
65.04
  0
TEXT
  5
5C
330
17
100
AcDbEntity
  8
NOTES
100
AcDbText
 10
62.186
 20
65.84
 30
0.0
 40
1.0
  1
C5
 11
62.186
 21
65.84
 31
0.0
100
AcDbText
  0
LWPOLYLINE
  5
5D
330
17
100
AcDbEntity
  8
FLEX_CUTOUTS
100
AcDbPolyline
 90
36
 70
1
 10
48.001
 20
56.772
 10
47.957766880907265
 20
57.21095322453629
 10
47.82972894815039
 20
57.63303772282145
 10
47.621806627680726
 20
58.0220330242941
 10
47.34199025766973
 20
58.36299025766973
 10
47.0010330242941
 20
58.64280662768073
 10
46.61203772282145
 20
58.85072894815039
 10
46.18995322453629
 20
58.978766880907266
 10
45.751
 20
59.022
 10
40.421
 20
59.022
 10
39.98204677546371
 20
58.978766880907266
 10
39.55996227717855
 20
58.85072894815039
 10
39.170966975705895
 20
58.64280662768073
 10
38.83000974233027
 20
58.36299025766973
 10
38.55019337231927
 20
58.0220330242941
 10
38.34227105184961
 20
57.63303772282145
 10
38.21423311909273
 20
57.21095322453629
 10
38.171
 20
56.772
 10
38.171
 20
55.172000000000004
 10
38.21423311909273
 20
54.73304677546371
 10
38.34227105184961
 20
54.310962277178554
 10
38.55019337231927
 20
53.9219669757059
 10
38.83000974233027
 20
53.581009742330274
 10
39.170966975705895
 20
53.301193372319275
 10
39.55996227717855
 20
53.09327105184961
 10
39.98204677546371
 20
52.96523311909274
 10
40.421
 20
52.922000000000004
 10
45.751
 20
52.922000000000004
 10
46.18995322453629
 20
52.96523311909274
 10
46.61203772282145
 20
53.09327105184961
 10
47.0010330242941
 20
53.301193372319275
 10
47.34199025766973
 20
53.581009742330274
 10
47.621806627680726
 20
53.9219669757059
 10
47.82972894815039
 20
54.310962277178554
 10
47.957766880907265
 20
54.73304677546371
 10
48.001
 20
55.172000000000004
  0
TEXT
  5
5E
330
17
100
AcDbEntity
  8
NOTES
100
AcDbText
 10
41.586
 20
55.972
 30
0.0
 40
1.0
  1
C3
 11
41.586
 21
55.972
 31
0.0
100
AcDbText
  0
LWPOLYLINE
  5
5F
330
17
100
AcDbEntity
  8
FLEX_CUTOUTS
100
AcDbPolyline
 90
36
 70
1
 10
68.601
 20
56.772
 10
68.55776688090727
 20
57.21095322453629
 10
68.4297289481504
 20
57.63303772282145
 10
68.22180662768072
 20
58.0220330242941
 10
67.94199025766973
 20
58.36299025766973
 10
67.60103302429411
 20
58.64280662768073
 10
67.21203772282145
 20
58.85072894815039
 10
66.78995322453629
 20
58.978766880907266
 10
66.351
 20
59.022
 10
61.021
 20
59.022
 10
60.58204677546371
 20
58.978766880907266
 10
60.15996227717855
 20
58.85072894815039
 10
59.770966975705896
 20
58.64280662768073
 10
59.43000974233027
 20
58.36299025766973
 10
59.15019337231927
 20
58.0220330242941
 10
58.94227105184961
 20
57.63303772282145
 10
58.814233119092734
 20
57.21095322453629
 10
58.771
 20
56.772
 10
58.771
 20
55.172000000000004
 10
58.814233119092734
 20
54.73304677546371
 10
58.9422710518496
 20
54.310962277178554
 10
59.15019337231927
 20
53.9219669757059
 10
59.43000974233027
 20
53.581009742330274
 10
59.770966975705896
 20
53.301193372319275
 10
60.15996227717855
 20
53.09327105184961
 10
60.58204677546371
 20
52.96523311909274
 10
61.021
 20
52.922000000000004
 10
66.351
 20
52.922000000000004
 10
66.78995322453629
 20
52.96523311909274
 10
67.21203772282145
 20
53.09327105184961
 10
67.6010330242941
 20
53.301193372319275
 10
67.94199025766973
 20
53.581009742330274
 10
68.22180662768072
 20
53.9219669757059
 10
68.4297289481504
 20
54.310962277178554
 10
68.55776688090727
 20
54.73304677546371
 10
68.601
 20
55.172000000000004
  0
TEXT
  5
60
330
17
100
AcDbEntity
  8
NOTES
100
AcDbText
 10
62.186
 20
55.972
 30
0.0
 40
1.0
  1
C6
 11
62.186
 21
55.972
 31
0.0
100
AcDbText
  0
LWPOLYLINE
  5
61
330
17
100
AcDbEntity
  8
FLEX_CUTOUTS
100
AcDbPolyline
 90
36
 70
1
 10
50.449
 20
44.193
 10
50.417487859861296
 20
44.51294812810645
 10
50.324162433318506
 20
44.82060082907874
 10
50.17261016417617
 20
45.10413518215215
 10
49.968655121145936
 20
45.352655121145936
 10
49.72013518215215
 20
45.55661016417617
 10
49.43660082907874
 20
45.708162433318506
 10
49.12894812810645
 20
45.8014878598613
 10
48.809
 20
45.833
 10
37.429
 20
45.833
 10
37.10905187189355
 20
45.8014878598613
 10
36.80139917092126
 20
45.708162433318506
 10
36.51786481784785
 20
45.55661016417617
 10
36.26934487885406
 20
45.352655121145936
 10
36.06538983582383
 20
45.10413518215215
 10
35.913837566681494
 20
44.82060082907874
 10
35.8205121401387
 20
44.51294812810645
 10
35.789
 20
44.193
 10
35.789
 20
41.083
 10
35.8205121401387
 20
40.763051871893545
 10
35.913837566681494
 20
40.455399170921254
 10
36.06538983582383
 20
40.17186481784785
 10
36.26934487885406
 20
39.92334487885406
 10
36.51786481784785
 20
39.719389835823826
 10
36.80139917092126
 20
39.56783756668149
 10
37.10905187189355
 20
39.4745121401387
 10
37.429
 20
39.443
 10
48.809
 20
39.443
 10
49.12894812810645
 20
39.4745121401387
 10
49.43660082907874
 20
39.56783756668149
 10
49.72013518215214
 20
39.719389835823826
 10
49.968655121145936
 20
39.92334487885406
 10
50.17261016417617
 20
40.17186481784785
 10
50.324162433318506
 20
40.455399170921254
 10
50.417487859861296
 20
40.763051871893545
 10
50.449
 20
41.083
  0
TEXT
  5
62
330
17
100
AcDbEntity
  8
NOTES
100
AcDbText
 10
41.619
 20
42.638
 30
0.0
 40
1.0
  1
A1
 11
41.619
 21
42.638
 31
0.0
100
AcDbText
  0
LWPOLYLINE
  5
63
330
17
100
AcDbEntity
  8
FLEX_CUTOUTS
100
AcDbPolyline
 90
36
 70
1
 10
50.449
 20
34.089999999999996
 10
50.417487859861296
 20
34.40994812810645
 10
50.324162433318506
 20
34.71760082907874
 10
50.17261016417617
 20
35.00113518215215
 10
49.968655121145936
 20
35.249655121145935
 10
49.72013518215215
 20
35.45361016417617
 10
49.43660082907874
 20
35.605162433318505
 10
49.12894812810645
 20
35.698487859861295
 10
48.809
 20
35.73
 10
37.429
 20
35.73
 10
37.10905187189355
 20
35.698487859861295
 10
36.80139917092126
 20
35.605162433318505
 10
36.51786481784785
 20
35.45361016417617
 10
36.26934487885406
 20
35.249655121145935
 10
36.06538983582383
 20
35.00113518215215
 10
35.913837566681494
 20
34.71760082907874
 10
35.8205121401387
 20
34.40994812810645
 10
35.789
 20
34.089999999999996
 10
35.789
 20
30.979999999999997
 10
35.8205121401387
 20
30.660051871893547
 10
35.913837566681494
 20
30.35239917092125
 10
36.06538983582383
 20
30.06886481784785
 10
36.26934487885406
 20
29.82034487885406
 10
36.51786481784785
 20
29.616389835823824
 10
36.80139917092126
 20
29.464837566681485
 10
37.10905187189355
 20
29.371512140138698
 10
37.429
 20
29.339999999999996
 10
48.809
 20
29.339999999999996
 10
49.12894812810645
 20
29.371512140138698
 10
49.43660082907874
 20
29.46483756668149
 10
49.72013518215214
 20
29.616389835823824
 10
49.968655121145936
 20
29.82034487885406
 10
50.17261016417617
 20
30.06886481784785
 10
50.324162433318506
 20
30.35239917092125
 10
50.417487859861296
 20
30.660051871893547
 10
50.449
 20
30.979999999999997
  0
TEXT
  5
64
330
17
100
AcDbEntity
  8
NOTES
100
AcDbText
 10
41.619
 20
32.535
 30
0.0
 40
1.0
  1
A2
 11
41.619
 21
32.535
 31
0.0
100
AcDbText
  0
LWPOLYLINE
  5
65
330
17
100
AcDbEntity
  8
FLEX_CUTOUTS
100
AcDbPolyline
 90
36
 70
1
 10
71.09100000000001
 20
44.193
 10
71.0594878598613
 20
44.51294812810645
 10
70.96616243331852
 20
44.82060082907874
 10
70.81461016417619
 20
45.10413518215215
 10
70.61065512114594
 20
45.352655121145936
 10
70.36213518215216
 20
45.55661016417617
 10
70.07860082907875
 20
45.708162433318506
 10
69.77094812810645
 20
45.8014878598613
 10
69.45100000000001
 20
45.833
 10
58.071000000000005
 20
45.833
 10
57.75105187189355
 20
45.8014878598613
 10
57.44339917092126
 20
45.708162433318506
 10
57.159864817847854
 20
45.55661016417617
 10
56.91134487885407
 20
45.352655121145936
 10
56.70738983582383
 20
45.10413518215215
 10
56.5558375666815
 20
44.82060082907874
 10
56.462512140138706
 20
44.51294812810645
 10
56.431000000000004
 20
44.193
 10
56.431000000000004
 20
41.083
 10
56.462512140138706
 20
40.763051871893545
 10
56.5558375666815
 20
40.455399170921254
 10
56.70738983582383
 20
40.17186481784785
 10
56.91134487885407
 20
39.92334487885406
 10
57.159864817847854
 20
39.719389835823826
 10
57.44339917092126
 20
39.56783756668149
 10
57.75105187189355
 20
39.4745121401387
 10
58.071000000000005
 20
39.443
 10
69.45100000000001
 20
39.443
 10
69.77094812810645
 20
39.4745121401387
 10
70.07860082907875
 20
39.56783756668149
 10
70.36213518215216
 20
39.719389835823826
 10
70.61065512114594
 20
39.92334487885406
 10
70.81461016417619
 20
40.17186481784785
 10
70.96616243331852
 20
40.455399170921254
 10
71.0594878598613
 20
40.763051871893545
 10
71.09100000000001
 20
41.083
  0
TEXT
  5
66
330
17
100
AcDbEntity
  8
NOTES
100
AcDbText
 10
62.261
 20
42.638
 30
0.0
 40
1.0
  1
A3
 11
62.261
 21
42.638
 31
0.0
100
AcDbText
  0
LWPOLYLINE
  5
67
330
17
100
AcDbEntity
  8
FLEX_CUTOUTS
100
AcDbPolyline
 90
36
 70
1
 10
71.09100000000001
 20
34.089999999999996
 10
71.0594878598613
 20
34.40994812810645
 10
70.96616243331852
 20
34.71760082907874
 10
70.81461016417619
 20
35.00113518215215
 10
70.61065512114594
 20
35.249655121145935
 10
70.36213518215216
 20
35.45361016417617
 10
70.07860082907875
 20
35.605162433318505
 10
69.77094812810645
 20
35.698487859861295
 10
69.45100000000001
 20
35.73
 10
58.071000000000005
 20
35.73
 10
57.75105187189355
 20
35.698487859861295
 10
57.44339917092126
 20
35.605162433318505
 10
57.159864817847854
 20
35.45361016417617
 10
56.91134487885407
 20
35.249655121145935
 10
56.70738983582383
 20
35.00113518215215
 10
56.5558375666815
 20
34.71760082907874
 10
56.462512140138706
 20
34.40994812810645
 10
56.431000000000004
 20
34.089999999999996
 10
56.431000000000004
 20
30.979999999999997
 10
56.462512140138706
 20
30.660051871893547
 10
56.5558375666815
 20
30.35239917092125
 10
56.70738983582383
 20
30.06886481784785
 10
56.91134487885407
 20
29.82034487885406
 10
57.159864817847854
 20
29.616389835823824
 10
57.44339917092126
 20
29.464837566681485
 10
57.75105187189355
 20
29.371512140138698
 10
58.071000000000005
 20
29.339999999999996
 10
69.45100000000001
 20
29.339999999999996
 10
69.77094812810645
 20
29.371512140138698
 10
70.07860082907875
 20
29.46483756668149
 10
70.36213518215216
 20
29.616389835823824
 10
70.61065512114594
 20
29.82034487885406
 10
70.81461016417619
 20
30.06886481784785
 10
70.96616243331852
 20
30.35239917092125
 10
71.0594878598613
 20
30.660051871893547
 10
71.09100000000001
 20
30.979999999999997
  0
TEXT
  5
68
330
17
100
AcDbEntity
  8
NOTES
100
AcDbText
 10
62.261
 20
32.535
 30
0.0
 40
1.0
  1
A4
 11
62.261
 21
32.535
 31
0.0
100
AcDbText
  0
CIRCLE
  5
69
330
17
100
AcDbEntity
  8
FLEX_CUTOUTS
100
AcDbCircle
 10
43.06
 20
19.027
 30
0.0
 40
4.025
  0
TEXT
  5
6A
330
17
100
AcDbEntity
  8
NOTES
100
AcDbText
 10
41.56
 20
19.027
 30
0.0
 40
1.0
  1
AUD_H
 11
41.56
 21
19.027
 31
0.0
100
AcDbText
  0
CIRCLE
  5
6B
330
17
100
AcDbEntity
  8
FLEX_CUTOUTS
100
AcDbCircle
 10
63.738
 20
19.027
 30
0.0
 40
4.025
  0
TEXT
  5
6C
330
17
100
AcDbEntity
  8
NOTES
100
AcDbText
 10
62.238
 20
19.027
 30
0.0
 40
1.0
  1
AUD_O
 11
62.238
 21
19.027
 31
0.0
100
AcDbText
  0
CIRCLE
  5
6D
330
17
100
AcDbEntity
  8
FLEX_HOLES
100
AcDbCircle
 10
53.177
 20
75.528
 30
0.0
 40
1.65
  0
CIRCLE
  5
6E
330
17
100
AcDbEntity
  8
FLEX_HOLES
100
AcDbCircle
 10
53.352
 20
58.161
 30
0.0
 40
2.54
  0
CIRCLE
  5
6F
330
17
100
AcDbEntity
  8
FLEX_HOLES
100
AcDbCircle
 10
53.381
 20
19.272
 30
0.0
 40
2.835
  0
CIRCLE
  5
70
330
17
100
AcDbEntity
  8
FLEX_HOLES
100
AcDbCircle
 10
57.163
 20
113.531
 30
0.0
 40
0.9
  0
CIRCLE
  5
71
330
17
100
AcDbEntity
  8
FLEX_HOLES
100
AcDbCircle
 10
70.583
 20
103.031
 30
0.0
 40
0.9
  0
LWPOLYLINE
  5
72
330
17
100
AcDbEntity
  8
FLEX_LIGHT_PADS
100
AcDbPolyline
 90
36
 70
1
 10
49.226
 20
115.234
 10
49.22023558412097
 20
115.29252709660483
 10
49.20316385975339
 20
115.34880502970952
 10
49.17544088369077
 20
115.40067106990587
 10
49.13813203435597
 20
115.44613203435595
 10
49.09267106990588
 20
115.48344088369076
 10
49.04080502970953
 20
115.51116385975338
 10
48.98452709660484
 20
115.52823558412096
 10
48.926
 20
115.53399999999999
 10
37.885999999999996
 20
115.53399999999999
 10
37.827472903395154
 20
115.52823558412096
 10
37.771194970290466
 20
115.51116385975338
 10
37.719328930094115
 20
115.48344088369076
 10
37.67386796564403
 20
115.44613203435595
 10
37.63655911630923
 20
115.40067106990587
 10
37.60883614024661
 20
115.34880502970952
 10
37.59176441587903
 20
115.29252709660483
 10
37.586
 20
115.234
 10
37.586
 20
110.954
 10
37.59176441587903
 20
110.89547290339516
 10
37.60883614024661
 20
110.83919497029046
 10
37.63655911630923
 20
110.78732893009412
 10
37.67386796564403
 20
110.74186796564403
 10
37.719328930094115
 20
110.70455911630923
 10
37.771194970290466
 20
110.6768361402466
 10
37.827472903395154
 20
110.65976441587902
 10
37.885999999999996
 20
110.654
 10
48.926
 20
110.654
 10
48.98452709660484
 20
110.65976441587902
 10
49.04080502970953
 20
110.6768361402466
 10
49.09267106990588
 20
110.70455911630923
 10
49.13813203435597
 20
110.74186796564403
 10
49.17544088369077
 20
110.78732893009412
 10
49.20316385975339
 20
110.83919497029046
 10
49.22023558412097
 20
110.89547290339516
 10
49.226
 20
110.954
  0
TEXT
  5
73
330
17
100
AcDbEntity
  8
NOTES
100
AcDbText
 10
41.406
 20
115.83399999999999
 30
0.0
 40
0.8
  1
PAD_HDMI
 11
41.406
 21
115.83399999999999
 31
0.0
100
AcDbText
  0
LWPOLYLINE
  5
74
330
17
100
AcDbEntity
  8
FLEX_LIGHT_PADS
100
AcDbPolyline
 90
36
 70
1
 10
56.254999999999995
 20
95.822
 10
56.24923558412097
 20
95.88052709660484
 10
56.232163859753385
 20
95.93680502970953
 10
56.204440883690765
 20
95.98867106990588
 10
56.167132034355966
 20
96.03413203435596
 10
56.12167106990588
 20
96.07144088369077
 10
56.06980502970953
 20
96.09916385975339
 10
56.01352709660484
 20
96.11623558412097
 10
55.955
 20
96.122
 10
50.864999999999995
 20
96.122
 10
50.806472903395154
 20
96.11623558412097
 10
50.750194970290465
 20
96.09916385975339
 10
50.698328930094114
 20
96.07144088369077
 10
50.65286796564403
 20
96.03413203435596
 10
50.61555911630923
 20
95.98867106990588
 10
50.58783614024661
 20
95.93680502970953
 10
50.570764415879026
 20
95.88052709660484
 10
50.565
 20
95.822
 10
50.565
 20
88.71199999999999
 10
50.570764415879026
 20
88.65347290339515
 10
50.58783614024661
 20
88.59719497029046
 10
50.61555911630923
 20
88.54532893009412
 10
50.65286796564403
 20
88.49986796564403
 10
50.698328930094114
 20
88.46255911630922
 10
50.750194970290465
 20
88.4348361402466
 10
50.806472903395154
 20
88.41776441587902
 10
50.864999999999995
 20
88.41199999999999
 10
55.955
 20
88.41199999999999
 10
56.01352709660484
 20
88.41776441587902
 10
56.06980502970953
 20
88.4348361402466
 10
56.12167106990588
 20
88.46255911630922
 10
56.167132034355966
 20
88.49986796564403
 10
56.204440883690765
 20
88.54532893009412
 10
56.232163859753385
 20
88.59719497029046
 10
56.24923558412097
 20
88.65347290339515
 10
56.254999999999995
 20
88.71199999999999
  0
TEXT
  5
75
330
17
100
AcDbEntity
  8
NOTES
100
AcDbText
 10
51.41
 20
96.422
 30
0.0
 40
0.8
  1
PAD_ETH
 11
51.41
 21
96.422
 31
0.0
100
AcDbText
  0
LWPOLYLINE
  5
76
330
17
100
AcDbEntity
  8
FLEX_LIGHT_PADS
100
AcDbPolyline
 90
36
 70
1
 10
56.105
 20
69.94600000000001
 10
56.09923558412097
 20
70.00452709660485
 10
56.082163859753386
 20
70.06080502970954
 10
56.054440883690766
 20
70.11267106990589
 10
56.01713203435597
 20
70.15813203435597
 10
55.97167106990588
 20
70.19544088369078
 10
55.91980502970953
 20
70.2231638597534
 10
55.86352709660484
 20
70.24023558412098
 10
55.805
 20
70.24600000000001
 10
50.904999999999994
 20
70.24600000000001
 10
50.84647290339515
 20
70.24023558412098
 10
50.790194970290464
 20
70.2231638597534
 10
50.73832893009411
 20
70.19544088369078
 10
50.69286796564403
 20
70.15813203435597
 10
50.65555911630923
 20
70.11267106990589
 10
50.62783614024661
 20
70.06080502970954
 10
50.610764415879025
 20
70.00452709660485
 10
50.605
 20
69.94600000000001
 10
50.605
 20
61.936
 10
50.610764415879025
 20
61.87747290339516
 10
50.62783614024661
 20
61.82119497029047
 10
50.65555911630923
 20
61.76932893009412
 10
50.69286796564403
 20
61.72386796564403
 10
50.73832893009411
 20
61.68655911630923
 10
50.790194970290464
 20
61.65883614024661
 10
50.84647290339515
 20
61.64176441587903
 10
50.904999999999994
 20
61.636
 10
55.805
 20
61.636
 10
55.86352709660484
 20
61.64176441587903
 10
55.91980502970953
 20
61.65883614024661
 10
55.97167106990588
 20
61.68655911630923
 10
56.01713203435597
 20
61.72386796564403
 10
56.054440883690766
 20
61.76932893009412
 10
56.082163859753386
 20
61.82119497029047
 10
56.09923558412097
 20
61.87747290339516
 10
56.105
 20
61.936
  0
TEXT
  5
77
330
17
100
AcDbEntity
  8
NOTES
100
AcDbText
 10
51.355
 20
70.546
 30
0.0
 40
0.8
  1
PAD_TB
 11
51.355
 21
70.546
 31
0.0
100
AcDbText
  0
LWPOLYLINE
  5
78
330
17
100
AcDbEntity
  8
FLEX_LIGHT_PADS
100
AcDbPolyline
 90
36
 70
1
 10
56.231
 20
41.935
 10
56.22523558412097
 20
41.99352709660484
 10
56.20816385975339
 20
42.04980502970953
 10
56.18044088369077
 20
42.10167106990588
 10
56.14313203435597
 20
42.14713203435597
 10
56.097671069905886
 20
42.18444088369077
 10
56.045805029709534
 20
42.21216385975339
 10
55.989527096604846
 20
42.22923558412097
 10
55.931000000000004
 20
42.235
 10
50.99099999999999
 20
42.235
 10
50.93247290339515
 20
42.22923558412097
 10
50.87619497029046
 20
42.21216385975339
 10
50.82432893009411
 20
42.18444088369077
 10
50.778867965644025
 20
42.14713203435597
 10
50.741559116309226
 20
42.10167106990588
 10
50.713836140246606
 20
42.04980502970953
 10
50.696764415879024
 20
41.99352709660484
 10
50.690999999999995
 20
41.935
 10
50.690999999999995
 20
33.905
 10
50.696764415879024
 20
33.84647290339516
 10
50.713836140246606
 20
33.79019497029047
 10
50.741559116309226
 20
33.73832893009412
 10
50.778867965644025
 20
33.692867965644034
 10
50.82432893009411
 20
33.655559116309234
 10
50.87619497029046
 20
33.627836140246615
 10
50.93247290339515
 20
33.61076441587903
 10
50.99099999999999
 20
33.605000000000004
 10
55.931000000000004
 20
33.605000000000004
 10
55.989527096604846
 20
33.61076441587903
 10
56.045805029709534
 20
33.627836140246615
 10
56.097671069905886
 20
33.655559116309234
 10
56.14313203435597
 20
33.692867965644034
 10
56.18044088369077
 20
33.73832893009412
 10
56.20816385975339
 20
33.79019497029047
 10
56.22523558412097
 20
33.84647290339516
 10
56.231
 20
33.905
  0
TEXT
  5
79
330
17
100
AcDbEntity
  8
NOTES
100
AcDbText
 10
51.461
 20
42.535
 30
0.0
 40
0.8
  1
PAD_USB
 11
51.461
 21
42.535
 31
0.0
100
AcDbText
  0
LWPOLYLINE
  5
7A
330
17
100
AcDbEntity
  8
FLEX_LIGHT_PADS
100
AcDbPolyline
 90
36
 70
1
 10
47.823
 20
14.501
 10
47.81723558412097
 20
14.559527096604837
 10
47.80016385975339
 20
14.615805029709527
 10
47.77244088369077
 20
14.66767106990588
 10
47.73513203435597
 20
14.713132034355963
 10
47.689671069905884
 20
14.750440883690763
 10
47.63780502970953
 20
14.778163859753386
 10
47.581527096604844
 20
14.795235584120968
 10
47.523
 20
14.801
 10
39.25299999999999
 20
14.801
 10
39.19447290339515
 20
14.795235584120968
 10
39.13819497029046
 20
14.778163859753386
 10
39.08632893009411
 20
14.750440883690763
 10
39.040867965644026
 20
14.713132034355963
 10
39.003559116309226
 20
14.66767106990588
 10
38.97583614024661
 20
14.615805029709527
 10
38.958764415879024
 20
14.559527096604837
 10
38.952999999999996
 20
14.501
 10
38.952999999999996
 20
10.301
 10
38.958764415879024
 20
10.242472903395162
 10
38.97583614024661
 20
10.186194970290472
 10
39.003559116309226
 20
10.134328930094119
 10
39.040867965644026
 20
10.088867965644036
 10
39.08632893009411
 20
10.051559116309237
 10
39.13819497029046
 20
10.023836140246614
 10
39.19447290339515
 20
10.006764415879031
 10
39.25299999999999
 20
10.001
 10
47.523
 20
10.001
 10
47.581527096604844
 20
10.006764415879031
 10
47.63780502970953
 20
10.023836140246614
 10
47.689671069905884
 20
10.051559116309237
 10
47.73513203435597
 20
10.088867965644036
 10
47.77244088369077
 20
10.134328930094119
 10
47.80016385975339
 20
10.186194970290474
 10
47.81723558412097
 20
10.24247290339516
 10
47.823
 20
10.301
  0
TEXT
  5
7B
330
17
100
AcDbEntity
  8
NOTES
100
AcDbText
 10
41.388
 20
15.101
 30
0.0
 40
0.8
  1
PAD_AUD_H
 11
41.388
 21
15.101
 31
0.0
100
AcDbText
  0
LWPOLYLINE
  5
7C
330
17
100
AcDbEntity
  8
FLEX_LIGHT_PADS
100
AcDbPolyline
 90
36
 70
1
 10
67.938
 20
14.501
 10
67.93223558412097
 20
14.559527096604837
 10
67.91516385975339
 20
14.615805029709527
 10
67.88744088369077
 20
14.66767106990588
 10
67.85013203435597
 20
14.713132034355963
 10
67.80467106990588
 20
14.750440883690763
 10
67.75280502970953
 20
14.778163859753386
 10
67.69652709660484
 20
14.795235584120968
 10
67.638
 20
14.801
 10
59.587999999999994
 20
14.801
 10
59.52947290339515
 20
14.795235584120968
 10
59.473194970290464
 20
14.778163859753386
 10
59.42132893009411
 20
14.750440883690763
 10
59.37586796564403
 20
14.713132034355963
 10
59.33855911630923
 20
14.66767106990588
 10
59.31083614024661
 20
14.615805029709527
 10
59.293764415879025
 20
14.559527096604837
 10
59.288
 20
14.501
 10
59.288
 20
10.301
 10
59.293764415879025
 20
10.242472903395162
 10
59.31083614024661
 20
10.186194970290472
 10
59.33855911630923
 20
10.134328930094119
 10
59.37586796564403
 20
10.088867965644036
 10
59.42132893009411
 20
10.051559116309237
 10
59.473194970290464
 20
10.023836140246614
 10
59.52947290339515
 20
10.006764415879031
 10
59.587999999999994
 20
10.001
 10
67.638
 20
10.001
 10
67.69652709660484
 20
10.006764415879031
 10
67.75280502970953
 20
10.023836140246614
 10
67.80467106990588
 20
10.051559116309237
 10
67.85013203435597
 20
10.088867965644036
 10
67.88744088369077
 20
10.134328930094119
 10
67.91516385975339
 20
10.186194970290474
 10
67.93223558412097
 20
10.24247290339516
 10
67.938
 20
10.301
  0
TEXT
  5
7D
330
17
100
AcDbEntity
  8
NOTES
100
AcDbText
 10
61.613
 20
15.101
 30
0.0
 40
0.8
  1
PAD_AUD_O
 11
61.613
 21
15.101
 31
0.0
100
AcDbText
  0
LWPOLYLINE
  5
7E
330
17
100
AcDbEntity
  8
FLEX_LEDS
100
AcDbPolyline
 90
36
 70
1
 10
50.608000000000004
 20
114.52600000000001
 10
50.607039264020166
 20
114.53575451610082
 10
50.604193976625574
 20
114.54513417161826
 10
50.599573480615135
 20
114.55377851165099
 10
50.593355339059336
 20
114.56135533905933
 10
50.585778511650986
 20
114.56757348061514
 10
50.57713417161826
 20
114.57219397662557
 10
50.56775451610081
 20
114.57503926402018
 10
50.55800000000001
 20
114.57600000000001
 10
49.507999999999996
 20
114.57600000000001
 10
49.49824548389919
 20
114.57503926402018
 10
49.48886582838174
 20
114.57219397662557
 10
49.48022148834902
 20
114.56757348061514
 10
49.47264466094067
 20
114.56135533905933
 10
49.46642651938487
 20
114.55377851165099
 10
49.46180602337443
 20
114.54513417161826
 10
49.458960735979836
 20
114.53575451610082
 10
49.458
 20
114.52600000000001
 10
49.458
 20
111.076
 10
49.458960735979836
 20
111.06624548389918
 10
49.46180602337443
 20
111.05686582838175
 10
49.46642651938487
 20
111.04822148834901
 10
49.47264466094067
 20
111.04064466094067
 10
49.48022148834902
 20
111.03442651938487
 10
49.48886582838174
 20
111.02980602337443
 10
49.49824548389919
 20
111.02696073597983
 10
49.507999999999996
 20
111.026
 10
50.55800000000001
 20
111.026
 10
50.56775451610081
 20
111.02696073597983
 10
50.57713417161826
 20
111.02980602337443
 10
50.585778511650986
 20
111.03442651938487
 10
50.593355339059336
 20
111.04064466094067
 10
50.599573480615135
 20
111.04822148834901
 10
50.604193976625574
 20
111.05686582838175
 10
50.607039264020166
 20
111.06624548389918
 10
50.608000000000004
 20
111.076
  0
LWPOLYLINE
  5
7F
330
17
100
AcDbEntity
  8
REF_LED_POCKETS
100
AcDbPolyline
 90
36
 70
1
 10
50.858000000000004
 20
114.52600000000001
 10
50.852235584120976
 20
114.58452709660484
 10
50.83516385975339
 20
114.64080502970954
 10
50.807440883690774
 20
114.69267106990588
 10
50.770132034355974
 20
114.73813203435597
 10
50.72467106990589
 20
114.77544088369078
 10
50.67280502970954
 20
114.8031638597534
 10
50.61652709660485
 20
114.82023558412098
 10
50.55800000000001
 20
114.82600000000001
 10
49.507999999999996
 20
114.82600000000001
 10
49.449472903395154
 20
114.82023558412098
 10
49.393194970290466
 20
114.8031638597534
 10
49.341328930094114
 20
114.77544088369078
 10
49.29586796564403
 20
114.73813203435597
 10
49.25855911630923
 20
114.69267106990588
 10
49.23083614024661
 20
114.64080502970954
 10
49.21376441587903
 20
114.58452709660484
 10
49.208
 20
114.52600000000001
 10
49.208
 20
111.076
 10
49.21376441587903
 20
111.01747290339516
 10
49.23083614024661
 20
110.96119497029046
 10
49.25855911630923
 20
110.90932893009412
 10
49.29586796564403
 20
110.86386796564403
 10
49.341328930094114
 20
110.82655911630923
 10
49.393194970290466
 20
110.7988361402466
 10
49.449472903395154
 20
110.78176441587902
 10
49.507999999999996
 20
110.776
 10
50.55800000000001
 20
110.776
 10
50.61652709660485
 20
110.78176441587902
 10
50.67280502970954
 20
110.7988361402466
 10
50.72467106990589
 20
110.82655911630923
 10
50.770132034355974
 20
110.86386796564403
 10
50.807440883690774
 20
110.90932893009412
 10
50.83516385975339
 20
110.96119497029046
 10
50.852235584120976
 20
111.01747290339516
 10
50.858000000000004
 20
111.076
  0
LWPOLYLINE
  5
80
330
17
100
AcDbEntity
  8
FLEX_LEDS
100
AcDbPolyline
 90
36
 70
1
 10
66.158
 20
113.326
 10
66.15703926402017
 20
113.3357545161008
 10
66.15419397662556
 20
113.34513417161824
 10
66.14957348061513
 20
113.35377851165097
 10
66.14335533905933
 20
113.36135533905932
 10
66.13577851165098
 20
113.36757348061512
 10
66.12713417161825
 20
113.37219397662555
 10
66.11775451610082
 20
113.37503926402016
 10
66.108
 20
113.37599999999999
 10
61.257999999999996
 20
113.37599999999999
 10
61.24824548389919
 20
113.37503926402016
 10
61.23886582838174
 20
113.37219397662555
 10
61.23022148834902
 20
113.36757348061512
 10
61.22264466094067
 20
113.36135533905932
 10
61.21642651938487
 20
113.35377851165097
 10
61.21180602337443
 20
113.34513417161824
 10
61.208960735979836
 20
113.3357545161008
 10
61.208
 20
113.326
 10
61.208
 20
112.226
 10
61.208960735979836
 20
112.21624548389919
 10
61.21180602337443
 20
112.20686582838175
 10
61.21642651938487
 20
112.19822148834902
 10
61.22264466094067
 20
112.19064466094068
 10
61.23022148834902
 20
112.18442651938487
 10
61.23886582838174
 20
112.17980602337444
 10
61.24824548389919
 20
112.17696073597983
 10
61.257999999999996
 20
112.176
 10
66.108
 20
112.176
 10
66.11775451610082
 20
112.17696073597983
 10
66.12713417161825
 20
112.17980602337444
 10
66.13577851165098
 20
112.18442651938487
 10
66.14335533905933
 20
112.19064466094068
 10
66.14957348061513
 20
112.19822148834902
 10
66.15419397662556
 20
112.20686582838175
 10
66.15703926402017
 20
112.21624548389919
 10
66.158
 20
112.226
  0
LWPOLYLINE
  5
81
330
17
100
AcDbEntity
  8
REF_LED_POCKETS
100
AcDbPolyline
 90
36
 70
1
 10
66.408
 20
113.326
 10
66.40223558412097
 20
113.38452709660483
 10
66.38516385975339
 20
113.44080502970952
 10
66.35744088369077
 20
113.49267106990587
 10
66.32013203435596
 20
113.53813203435595
 10
66.27467106990588
 20
113.57544088369076
 10
66.22280502970953
 20
113.60316385975338
 10
66.16652709660484
 20
113.62023558412096
 10
66.108
 20
113.62599999999999
 10
61.257999999999996
 20
113.62599999999999
 10
61.199472903395154
 20
113.62023558412096
 10
61.143194970290466
 20
113.60316385975338
 10
61.091328930094114
 20
113.57544088369076
 10
61.04586796564403
 20
113.53813203435595
 10
61.00855911630923
 20
113.49267106990587
 10
60.98083614024661
 20
113.44080502970952
 10
60.96376441587903
 20
113.38452709660483
 10
60.958
 20
113.326
 10
60.958
 20
112.226
 10
60.96376441587903
 20
112.16747290339516
 10
60.98083614024661
 20
112.11119497029047
 10
61.00855911630923
 20
112.05932893009413
 10
61.04586796564403
 20
112.01386796564404
 10
61.091328930094114
 20
111.97655911630923
 10
61.143194970290466
 20
111.94883614024661
 10
61.199472903395154
 20
111.93176441587903
 10
61.257999999999996
 20
111.926
 10
66.108
 20
111.926
 10
66.16652709660484
 20
111.93176441587903
 10
66.22280502970953
 20
111.94883614024661
 10
66.27467106990588
 20
111.97655911630923
 10
66.32013203435596
 20
112.01386796564404
 10
66.35744088369077
 20
112.05932893009413
 10
66.38516385975339
 20
112.11119497029047
 10
66.40223558412097
 20
112.16747290339516
 10
66.408
 20
112.226
  0
LWPOLYLINE
  5
82
330
17
100
AcDbEntity
  8
FLEX_LEDS
100
AcDbPolyline
 90
36
 70
1
 10
66.658
 20
103.776
 10
66.65703926402017
 20
103.78575451610081
 10
66.65419397662556
 20
103.79513417161824
 10
66.64957348061513
 20
103.80377851165098
 10
66.64335533905933
 20
103.81135533905932
 10
66.63577851165098
 20
103.81757348061512
 10
66.62713417161825
 20
103.82219397662556
 10
66.61775451610082
 20
103.82503926402016
 10
66.608
 20
103.826
 10
62.358000000000004
 20
103.826
 10
62.3482454838992
 20
103.82503926402016
 10
62.33886582838175
 20
103.82219397662556
 10
62.330221488349025
 20
103.81757348061512
 10
62.322644660940675
 20
103.81135533905932
 10
62.316426519384876
 20
103.80377851165098
 10
62.31180602337444
 20
103.79513417161824
 10
62.308960735979845
 20
103.78575451610081
 10
62.30800000000001
 20
103.776
 10
62.30800000000001
 20
102.676
 10
62.308960735979845
 20
102.66624548389919
 10
62.31180602337444
 20
102.65686582838175
 10
62.316426519384876
 20
102.64822148834902
 10
62.322644660940675
 20
102.64064466094068
 10
62.330221488349025
 20
102.63442651938487
 10
62.33886582838175
 20
102.62980602337444
 10
62.3482454838992
 20
102.62696073597984
 10
62.358000000000004
 20
102.626
 10
66.608
 20
102.626
 10
66.61775451610082
 20
102.62696073597984
 10
66.62713417161825
 20
102.62980602337444
 10
66.63577851165098
 20
102.63442651938487
 10
66.64335533905933
 20
102.64064466094068
 10
66.64957348061513
 20
102.64822148834902
 10
66.65419397662556
 20
102.65686582838175
 10
66.65703926402017
 20
102.66624548389919
 10
66.658
 20
102.676
  0
LWPOLYLINE
  5
83
330
17
100
AcDbEntity
  8
REF_LED_POCKETS
100
AcDbPolyline
 90
36
 70
1
 10
66.908
 20
103.776
 10
66.90223558412097
 20
103.83452709660483
 10
66.88516385975339
 20
103.89080502970953
 10
66.85744088369077
 20
103.94267106990587
 10
66.82013203435596
 20
103.98813203435596
 10
66.77467106990588
 20
104.02544088369076
 10
66.72280502970953
 20
104.05316385975338
 10
66.66652709660484
 20
104.07023558412097
 10
66.608
 20
104.076
 10
62.358000000000004
 20
104.076
 10
62.29947290339516
 20
104.07023558412097
 10
62.243194970290475
 20
104.05316385975338
 10
62.19132893009412
 20
104.02544088369076
 10
62.14586796564404
 20
103.98813203435596
 10
62.10855911630924
 20
103.94267106990587
 10
62.08083614024662
 20
103.89080502970953
 10
62.063764415879035
 20
103.83452709660483
 10
62.05800000000001
 20
103.776
 10
62.05800000000001
 20
102.676
 10
62.063764415879035
 20
102.61747290339517
 10
62.08083614024662
 20
102.56119497029047
 10
62.10855911630924
 20
102.50932893009413
 10
62.14586796564404
 20
102.46386796564404
 10
62.19132893009412
 20
102.42655911630924
 10
62.243194970290475
 20
102.39883614024662
 10
62.29947290339516
 20
102.38176441587903
 10
62.358000000000004
 20
102.376
 10
66.608
 20
102.376
 10
66.66652709660484
 20
102.38176441587903
 10
66.72280502970953
 20
102.39883614024662
 10
66.77467106990588
 20
102.42655911630924
 10
66.82013203435596
 20
102.46386796564404
 10
66.85744088369077
 20
102.50932893009413
 10
66.88516385975339
 20
102.56119497029047
 10
66.90223558412097
 20
102.61747290339517
 10
66.908
 20
102.676
  0
LWPOLYLINE
  5
84
330
17
100
AcDbEntity
  8
FLEX_LEDS
100
AcDbPolyline
 90
36
 70
1
 10
74.50800000000001
 20
100.27600000000001
 10
74.50703926402018
 20
100.28575451610082
 10
74.50419397662557
 20
100.29513417161826
 10
74.49957348061514
 20
100.30377851165099
 10
74.49335533905933
 20
100.31135533905933
 10
74.48577851165099
 20
100.31757348061514
 10
74.47713417161826
 20
100.32219397662557
 10
74.46775451610083
 20
100.32503926402018
 10
74.45800000000001
 20
100.32600000000001
 10
73.408
 20
100.32600000000001
 10
73.39824548389919
 20
100.32503926402018
 10
73.38886582838175
 20
100.32219397662557
 10
73.38022148834902
 20
100.31757348061514
 10
73.37264466094068
 20
100.31135533905933
 10
73.36642651938487
 20
100.30377851165099
 10
73.36180602337444
 20
100.29513417161826
 10
73.35896073597984
 20
100.28575451610082
 10
73.358
 20
100.27600000000001
 10
73.358
 20
95.226
 10
73.35896073597984
 20
95.21624548389919
 10
73.36180602337444
 20
95.20686582838175
 10
73.36642651938487
 20
95.19822148834902
 10
73.37264466094068
 20
95.19064466094068
 10
73.38022148834902
 20
95.18442651938487
 10
73.38886582838175
 20
95.17980602337444
 10
73.39824548389919
 20
95.17696073597983
 10
73.408
 20
95.176
 10
74.45800000000001
 20
95.176
 10
74.46775451610083
 20
95.17696073597983
 10
74.47713417161826
 20
95.17980602337444
 10
74.48577851165099
 20
95.18442651938487
 10
74.49335533905933
 20
95.19064466094068
 10
74.49957348061514
 20
95.19822148834902
 10
74.50419397662557
 20
95.20686582838175
 10
74.50703926402018
 20
95.21624548389919
 10
74.50800000000001
 20
95.226
  0
LWPOLYLINE
  5
85
330
17
100
AcDbEntity
  8
REF_LED_POCKETS
100
AcDbPolyline
 90
36
 70
1
 10
74.75800000000001
 20
100.27600000000001
 10
74.75223558412098
 20
100.33452709660484
 10
74.7351638597534
 20
100.39080502970954
 10
74.70744088369078
 20
100.44267106990588
 10
74.67013203435597
 20
100.48813203435597
 10
74.62467106990589
 20
100.52544088369078
 10
74.57280502970954
 20
100.5531638597534
 10
74.51652709660485
 20
100.57023558412098
 10
74.45800000000001
 20
100.57600000000001
 10
73.408
 20
100.57600000000001
 10
73.34947290339517
 20
100.57023558412098
 10
73.29319497029047
 20
100.5531638597534
 10
73.24132893009413
 20
100.52544088369078
 10
73.19586796564404
 20
100.48813203435597
 10
73.15855911630923
 20
100.44267106990588
 10
73.13083614024661
 20
100.39080502970954
 10
73.11376441587903
 20
100.33452709660484
 10
73.108
 20
100.27600000000001
 10
73.108
 20
95.226
 10
73.11376441587903
 20
95.16747290339516
 10
73.13083614024661
 20
95.11119497029047
 10
73.15855911630923
 20
95.05932893009413
 10
73.19586796564404
 20
95.01386796564404
 10
73.24132893009413
 20
94.97655911630923
 10
73.29319497029047
 20
94.94883614024661
 10
73.34947290339517
 20
94.93176441587903
 10
73.408
 20
94.926
 10
74.45800000000001
 20
94.926
 10
74.51652709660485
 20
94.93176441587903
 10
74.57280502970954
 20
94.94883614024661
 10
74.62467106990589
 20
94.97655911630923
 10
74.67013203435597
 20
95.01386796564404
 10
74.70744088369078
 20
95.05932893009413
 10
74.7351638597534
 20
95.11119497029047
 10
74.75223558412098
 20
95.16747290339516
 10
74.75800000000001
 20
95.226
  0
LWPOLYLINE
  5
86
330
17
100
AcDbEntity
  8
FLEX_LEDS
100
AcDbPolyline
 90
36
 70
1
 10
37.808
 20
100.126
 10
37.80703926402016
 20
100.13575451610082
 10
37.80419397662557
 20
100.14513417161825
 10
37.79957348061513
 20
100.15377851165098
 10
37.79335533905933
 20
100.16135533905933
 10
37.78577851165098
 20
100.16757348061513
 10
37.77713417161826
 20
100.17219397662556
 10
37.76775451610081
 20
100.17503926402017
 10
37.758
 20
100.176
 10
32.657999999999994
 20
100.176
 10
32.64824548389919
 20
100.17503926402017
 10
32.63886582838174
 20
100.17219397662556
 10
32.630221488349015
 20
100.16757348061513
 10
32.622644660940665
 20
100.16135533905933
 10
32.616426519384866
 20
100.15377851165098
 10
32.61180602337443
 20
100.14513417161825
 10
32.608960735979835
 20
100.13575451610082
 10
32.608
 20
100.126
 10
32.608
 20
99.126
 10
32.608960735979835
 20
99.11624548389919
 10
32.61180602337443
 20
99.10686582838176
 10
32.616426519384866
 20
99.09822148834903
 10
32.622644660940665
 20
99.09064466094068
 10
32.630221488349015
 20
99.08442651938488
 10
32.63886582838174
 20
99.07980602337445
 10
32.64824548389919
 20
99.07696073597984
 10
32.657999999999994
 20
99.07600000000001
 10
37.758
 20
99.07600000000001
 10
37.76775451610081
 20
99.07696073597984
 10
37.77713417161826
 20
99.07980602337445
 10
37.78577851165098
 20
99.08442651938488
 10
37.79335533905933
 20
99.09064466094068
 10
37.79957348061513
 20
99.09822148834903
 10
37.80419397662557
 20
99.10686582838176
 10
37.80703926402016
 20
99.11624548389919
 10
37.808
 20
99.126
  0
LWPOLYLINE
  5
87
330
17
100
AcDbEntity
  8
REF_LED_POCKETS
100
AcDbPolyline
 90
36
 70
1
 10
38.058
 20
100.126
 10
38.05223558412097
 20
100.18452709660484
 10
38.03516385975339
 20
100.24080502970953
 10
38.00744088369077
 20
100.29267106990588
 10
37.97013203435597
 20
100.33813203435597
 10
37.924671069905884
 20
100.37544088369077
 10
37.87280502970953
 20
100.40316385975339
 10
37.816527096604844
 20
100.42023558412097
 10
37.758
 20
100.426
 10
32.657999999999994
 20
100.426
 10
32.59947290339515
 20
100.42023558412097
 10
32.543194970290465
 20
100.40316385975339
 10
32.49132893009411
 20
100.37544088369077
 10
32.44586796564403
 20
100.33813203435597
 10
32.40855911630923
 20
100.29267106990588
 10
32.38083614024661
 20
100.24080502970953
 10
32.363764415879025
 20
100.18452709660484
 10
32.358
 20
100.126
 10
32.358
 20
99.126
 10
32.363764415879025
 20
99.06747290339517
 10
32.38083614024661
 20
99.01119497029048
 10
32.40855911630923
 20
98.95932893009413
 10
32.44586796564403
 20
98.91386796564404
 10
32.49132893009411
 20
98.87655911630924
 10
32.543194970290465
 20
98.84883614024662
 10
32.59947290339515
 20
98.83176441587904
 10
32.657999999999994
 20
98.82600000000001
 10
37.758
 20
98.82600000000001
 10
37.816527096604844
 20
98.83176441587904
 10
37.87280502970953
 20
98.84883614024662
 10
37.924671069905884
 20
98.87655911630924
 10
37.97013203435597
 20
98.91386796564404
 10
38.00744088369077
 20
98.95932893009413
 10
38.03516385975339
 20
99.01119497029048
 10
38.05223558412097
 20
99.06747290339517
 10
38.058
 20
99.126
  0
LWPOLYLINE
  5
88
330
17
100
AcDbEntity
  8
FLEX_LEDS
100
AcDbPolyline
 90
36
 70
1
 10
55.858
 20
88.226
 10
55.85703926402016
 20
88.23575451610081
 10
55.85419397662557
 20
88.24513417161825
 10
55.84957348061513
 20
88.25377851165098
 10
55.84335533905933
 20
88.26135533905932
 10
55.83577851165098
 20
88.26757348061513
 10
55.827134171618255
 20
88.27219397662556
 10
55.817754516100806
 20
88.27503926402017
 10
55.808
 20
88.276
 10
51.657999999999994
 20
88.276
 10
51.64824548389919
 20
88.27503926402017
 10
51.63886582838174
 20
88.27219397662556
 10
51.630221488349015
 20
88.26757348061513
 10
51.622644660940665
 20
88.26135533905932
 10
51.616426519384866
 20
88.25377851165098
 10
51.61180602337443
 20
88.24513417161825
 10
51.608960735979835
 20
88.23575451610081
 10
51.608
 20
88.226
 10
51.608
 20
87.17599999999999
 10
51.608960735979835
 20
87.16624548389917
 10
51.61180602337443
 20
87.15686582838174
 10
51.616426519384866
 20
87.14822148834901
 10
51.622644660940665
 20
87.14064466094067
 10
51.630221488349015
 20
87.13442651938486
 10
51.63886582838174
 20
87.12980602337443
 10
51.64824548389919
 20
87.12696073597982
 10
51.657999999999994
 20
87.12599999999999
 10
55.808
 20
87.12599999999999
 10
55.817754516100806
 20
87.12696073597982
 10
55.827134171618255
 20
87.12980602337443
 10
55.83577851165098
 20
87.13442651938486
 10
55.84335533905933
 20
87.14064466094067
 10
55.84957348061513
 20
87.14822148834901
 10
55.85419397662557
 20
87.15686582838174
 10
55.85703926402016
 20
87.16624548389917
 10
55.858
 20
87.17599999999999
  0
LWPOLYLINE
  5
89
330
17
100
AcDbEntity
  8
REF_LED_POCKETS
100
AcDbPolyline
 90
36
 70
1
 10
56.108
 20
88.226
 10
56.10223558412097
 20
88.28452709660483
 10
56.085163859753386
 20
88.34080502970953
 10
56.05744088369077
 20
88.39267106990587
 10
56.02013203435597
 20
88.43813203435596
 10
55.97467106990588
 20
88.47544088369077
 10
55.92280502970953
 20
88.50316385975339
 10
55.86652709660484
 20
88.52023558412097
 10
55.808
 20
88.526
 10
51.657999999999994
 20
88.526
 10
51.59947290339515
 20
88.52023558412097
 10
51.543194970290465
 20
88.50316385975339
 10
51.49132893009411
 20
88.47544088369077
 10
51.44586796564403
 20
88.43813203435596
 10
51.40855911630923
 20
88.39267106990587
 10
51.38083614024661
 20
88.34080502970953
 10
51.363764415879025
 20
88.28452709660483
 10
51.358
 20
88.226
 10
51.358
 20
87.17599999999999
 10
51.363764415879025
 20
87.11747290339515
 10
51.38083614024661
 20
87.06119497029046
 10
51.40855911630923
 20
87.00932893009411
 10
51.44586796564403
 20
86.96386796564403
 10
51.49132893009411
 20
86.92655911630922
 10
51.543194970290465
 20
86.8988361402466
 10
51.59947290339515
 20
86.88176441587902
 10
51.657999999999994
 20
86.87599999999999
 10
55.808
 20
86.87599999999999
 10
55.86652709660484
 20
86.88176441587902
 10
55.92280502970953
 20
86.8988361402466
 10
55.97467106990588
 20
86.92655911630922
 10
56.02013203435597
 20
86.96386796564403
 10
56.05744088369077
 20
87.00932893009411
 10
56.085163859753386
 20
87.06119497029046
 10
56.10223558412097
 20
87.11747290339515
 10
56.108
 20
87.17599999999999
  0
LWPOLYLINE
  5
8A
330
17
100
AcDbEntity
  8
FLEX_LEDS
100
AcDbPolyline
 90
36
 70
1
 10
55.708000000000006
 20
86.07600000000001
 10
55.70703926402017
 20
86.08575451610082
 10
55.704193976625575
 20
86.09513417161826
 10
55.699573480615136
 20
86.10377851165099
 10
55.69335533905934
 20
86.11135533905933
 10
55.68577851165099
 20
86.11757348061514
 10
55.67713417161826
 20
86.12219397662557
 10
55.667754516100814
 20
86.12503926402017
 10
55.65800000000001
 20
86.126
 10
51.108
 20
86.126
 10
51.09824548389919
 20
86.12503926402017
 10
51.08886582838174
 20
86.12219397662557
 10
51.08022148834902
 20
86.11757348061514
 10
51.07264466094067
 20
86.11135533905933
 10
51.06642651938487
 20
86.10377851165099
 10
51.06180602337443
 20
86.09513417161826
 10
51.05896073597984
 20
86.08575451610082
 10
51.058
 20
86.07600000000001
 10
51.058
 20
85.12599999999999
 10
51.05896073597984
 20
85.11624548389918
 10
51.06180602337443
 20
85.10686582838174
 10
51.06642651938487
 20
85.09822148834901
 10
51.07264466094067
 20
85.09064466094067
 10
51.08022148834902
 20
85.08442651938486
 10
51.08886582838174
 20
85.07980602337443
 10
51.09824548389919
 20
85.07696073597982
 10
51.108
 20
85.076
 10
55.65800000000001
 20
85.076
 10
55.667754516100814
 20
85.07696073597982
 10
55.67713417161826
 20
85.07980602337443
 10
55.68577851165099
 20
85.08442651938486
 10
55.69335533905934
 20
85.09064466094067
 10
55.699573480615136
 20
85.09822148834901
 10
55.704193976625575
 20
85.10686582838174
 10
55.70703926402017
 20
85.11624548389918
 10
55.708000000000006
 20
85.12599999999999
  0
LWPOLYLINE
  5
8B
330
17
100
AcDbEntity
  8
REF_LED_POCKETS
100
AcDbPolyline
 90
36
 70
1
 10
55.958000000000006
 20
86.07600000000001
 10
55.95223558412098
 20
86.13452709660484
 10
55.935163859753395
 20
86.19080502970954
 10
55.907440883690775
 20
86.24267106990588
 10
55.870132034355976
 20
86.28813203435597
 10
55.82467106990589
 20
86.32544088369077
 10
55.77280502970954
 20
86.3531638597534
 10
55.71652709660485
 20
86.37023558412098
 10
55.65800000000001
 20
86.376
 10
51.108
 20
86.376
 10
51.049472903395156
 20
86.37023558412098
 10
50.99319497029047
 20
86.3531638597534
 10
50.941328930094116
 20
86.32544088369077
 10
50.89586796564403
 20
86.28813203435597
 10
50.85855911630923
 20
86.24267106990588
 10
50.83083614024661
 20
86.19080502970954
 10
50.81376441587903
 20
86.13452709660484
 10
50.808
 20
86.07600000000001
 10
50.808
 20
85.12599999999999
 10
50.81376441587903
 20
85.06747290339516
 10
50.83083614024661
 20
85.01119497029046
 10
50.85855911630923
 20
84.95932893009412
 10
50.89586796564403
 20
84.91386796564403
 10
50.941328930094116
 20
84.87655911630922
 10
50.99319497029047
 20
84.8488361402466
 10
51.049472903395156
 20
84.83176441587902
 10
51.108
 20
84.826
 10
55.65800000000001
 20
84.826
 10
55.71652709660485
 20
84.83176441587902
 10
55.77280502970954
 20
84.8488361402466
 10
55.82467106990589
 20
84.87655911630922
 10
55.870132034355976
 20
84.91386796564403
 10
55.907440883690775
 20
84.95932893009412
 10
55.935163859753395
 20
85.01119497029046
 10
55.95223558412098
 20
85.06747290339516
 10
55.958000000000006
 20
85.12599999999999
  0
LWPOLYLINE
  5
8C
330
17
100
AcDbEntity
  8
FLEX_LEDS
100
AcDbPolyline
 90
36
 70
1
 10
74.158
 20
83.126
 10
74.15703926402017
 20
83.13575451610082
 10
74.15419397662556
 20
83.14513417161825
 10
74.14957348061513
 20
83.15377851165098
 10
74.14335533905933
 20
83.16135533905933
 10
74.13577851165098
 20
83.16757348061513
 10
74.12713417161825
 20
83.17219397662556
 10
74.11775451610082
 20
83.17503926402017
 10
74.108
 20
83.176
 10
69.90799999999999
 20
83.176
 10
69.89824548389917
 20
83.17503926402017
 10
69.88886582838174
 20
83.17219397662556
 10
69.88022148834901
 20
83.16757348061513
 10
69.87264466094067
 20
83.16135533905933
 10
69.86642651938486
 20
83.15377851165098
 10
69.86180602337443
 20
83.14513417161825
 10
69.85896073597982
 20
83.13575451610082
 10
69.85799999999999
 20
83.126
 10
69.85799999999999
 20
82.126
 10
69.85896073597982
 20
82.11624548389919
 10
69.86180602337443
 20
82.10686582838176
 10
69.86642651938486
 20
82.09822148834903
 10
69.87264466094067
 20
82.09064466094068
 10
69.88022148834901
 20
82.08442651938488
 10
69.88886582838174
 20
82.07980602337445
 10
69.89824548389917
 20
82.07696073597984
 10
69.90799999999999
 20
82.07600000000001
 10
74.108
 20
82.07600000000001
 10
74.11775451610082
 20
82.07696073597984
 10
74.12713417161825
 20
82.07980602337445
 10
74.13577851165098
 20
82.08442651938488
 10
74.14335533905933
 20
82.09064466094068
 10
74.14957348061513
 20
82.09822148834903
 10
74.15419397662556
 20
82.10686582838176
 10
74.15703926402017
 20
82.11624548389919
 10
74.158
 20
82.126
  0
LWPOLYLINE
  5
8D
330
17
100
AcDbEntity
  8
REF_LED_POCKETS
100
AcDbPolyline
 90
36
 70
1
 10
74.408
 20
83.126
 10
74.40223558412097
 20
83.18452709660484
 10
74.38516385975339
 20
83.24080502970953
 10
74.35744088369077
 20
83.29267106990588
 10
74.32013203435596
 20
83.33813203435597
 10
74.27467106990588
 20
83.37544088369077
 10
74.22280502970953
 20
83.40316385975339
 10
74.16652709660484
 20
83.42023558412097
 10
74.108
 20
83.426
 10
69.90799999999999
 20
83.426
 10
69.84947290339515
 20
83.42023558412097
 10
69.79319497029046
 20
83.40316385975339
 10
69.74132893009411
 20
83.37544088369077
 10
69.69586796564403
 20
83.33813203435597
 10
69.65855911630922
 20
83.29267106990588
 10
69.6308361402466
 20
83.24080502970953
 10
69.61376441587902
 20
83.18452709660484
 10
69.60799999999999
 20
83.126
 10
69.60799999999999
 20
82.126
 10
69.61376441587902
 20
82.06747290339517
 10
69.6308361402466
 20
82.01119497029048
 10
69.65855911630922
 20
81.95932893009413
 10
69.69586796564403
 20
81.91386796564404
 10
69.74132893009411
 20
81.87655911630924
 10
69.79319497029046
 20
81.84883614024662
 10
69.84947290339515
 20
81.83176441587904
 10
69.90799999999999
 20
81.82600000000001
 10
74.108
 20
81.82600000000001
 10
74.16652709660484
 20
81.83176441587904
 10
74.22280502970953
 20
81.84883614024662
 10
74.27467106990588
 20
81.87655911630924
 10
74.32013203435596
 20
81.91386796564404
 10
74.35744088369077
 20
81.95932893009413
 10
74.38516385975339
 20
82.01119497029048
 10
74.40223558412097
 20
82.06747290339517
 10
74.408
 20
82.126
  0
LWPOLYLINE
  5
8E
330
17
100
AcDbEntity
  8
FLEX_LEDS
100
AcDbPolyline
 90
36
 70
1
 10
37.708
 20
82.126
 10
37.70703926402016
 20
82.13575451610082
 10
37.70419397662557
 20
82.14513417161825
 10
37.69957348061513
 20
82.15377851165098
 10
37.69335533905933
 20
82.16135533905933
 10
37.68577851165098
 20
82.16757348061513
 10
37.677134171618256
 20
82.17219397662556
 10
37.66775451610081
 20
82.17503926402017
 10
37.658
 20
82.176
 10
32.80799999999999
 20
82.176
 10
32.79824548389919
 20
82.17503926402017
 10
32.78886582838174
 20
82.17219397662556
 10
32.780221488349014
 20
82.16757348061513
 10
32.772644660940664
 20
82.16135533905933
 10
32.766426519384865
 20
82.15377851165098
 10
32.761806023374426
 20
82.14513417161825
 10
32.758960735979834
 20
82.13575451610082
 10
32.757999999999996
 20
82.126
 10
32.757999999999996
 20
81.17599999999999
 10
32.758960735979834
 20
81.16624548389917
 10
32.761806023374426
 20
81.15686582838174
 10
32.766426519384865
 20
81.14822148834901
 10
32.772644660940664
 20
81.14064466094067
 10
32.780221488349014
 20
81.13442651938486
 10
32.78886582838174
 20
81.12980602337443
 10
32.79824548389919
 20
81.12696073597982
 10
32.80799999999999
 20
81.12599999999999
 10
37.658
 20
81.12599999999999
 10
37.66775451610081
 20
81.12696073597982
 10
37.677134171618256
 20
81.12980602337443
 10
37.68577851165098
 20
81.13442651938486
 10
37.69335533905933
 20
81.14064466094067
 10
37.69957348061513
 20
81.14822148834901
 10
37.70419397662557
 20
81.15686582838174
 10
37.70703926402016
 20
81.16624548389917
 10
37.708
 20
81.17599999999999
  0
LWPOLYLINE
  5
8F
330
17
100
AcDbEntity
  8
REF_LED_POCKETS
100
AcDbPolyline
 90
36
 70
1
 10
37.958
 20
82.126
 10
37.95223558412097
 20
82.18452709660484
 10
37.93516385975339
 20
82.24080502970953
 10
37.90744088369077
 20
82.29267106990588
 10
37.87013203435597
 20
82.33813203435597
 10
37.82467106990588
 20
82.37544088369077
 10
37.77280502970953
 20
82.40316385975339
 10
37.71652709660484
 20
82.42023558412097
 10
37.658
 20
82.426
 10
32.80799999999999
 20
82.426
 10
32.74947290339515
 20
82.42023558412097
 10
32.69319497029046
 20
82.40316385975339
 10
32.64132893009411
 20
82.37544088369077
 10
32.595867965644025
 20
82.33813203435597
 10
32.558559116309226
 20
82.29267106990588
 10
32.530836140246606
 20
82.24080502970953
 10
32.513764415879024
 20
82.18452709660484
 10
32.507999999999996
 20
82.126
 10
32.507999999999996
 20
81.17599999999999
 10
32.513764415879024
 20
81.11747290339515
 10
32.530836140246606
 20
81.06119497029046
 10
32.558559116309226
 20
81.00932893009411
 10
32.595867965644025
 20
80.96386796564403
 10
32.64132893009411
 20
80.92655911630922
 10
32.69319497029046
 20
80.8988361402466
 10
32.74947290339515
 20
80.88176441587902
 10
32.80799999999999
 20
80.87599999999999
 10
37.658
 20
80.87599999999999
 10
37.71652709660484
 20
80.88176441587902
 10
37.77280502970953
 20
80.8988361402466
 10
37.82467106990588
 20
80.92655911630922
 10
37.87013203435597
 20
80.96386796564403
 10
37.90744088369077
 20
81.00932893009411
 10
37.93516385975339
 20
81.06119497029046
 10
37.95223558412097
 20
81.11747290339515
 10
37.958
 20
81.17599999999999
  0
LWPOLYLINE
  5
90
330
17
100
AcDbEntity
  8
FLEX_LEDS
100
AcDbPolyline
 90
36
 70
1
 10
75.458
 20
81.57600000000001
 10
75.45703926402017
 20
81.58575451610082
 10
75.45419397662556
 20
81.59513417161826
 10
75.44957348061513
 20
81.60377851165099
 10
75.44335533905932
 20
81.61135533905933
 10
75.43577851165098
 20
81.61757348061514
 10
75.42713417161825
 20
81.62219397662557
 10
75.41775451610081
 20
81.62503926402017
 10
75.408
 20
81.626
 10
74.408
 20
81.626
 10
74.39824548389919
 20
81.62503926402017
 10
74.38886582838175
 20
81.62219397662557
 10
74.38022148834902
 20
81.61757348061514
 10
74.37264466094068
 20
81.61135533905933
 10
74.36642651938487
 20
81.60377851165099
 10
74.36180602337444
 20
81.59513417161826
 10
74.35896073597984
 20
81.58575451610082
 10
74.358
 20
81.57600000000001
 10
74.358
 20
77.276
 10
74.35896073597984
 20
77.26624548389918
 10
74.36180602337444
 20
77.25686582838175
 10
74.36642651938487
 20
77.24822148834902
 10
74.37264466094068
 20
77.24064466094067
 10
74.38022148834902
 20
77.23442651938487
 10
74.38886582838175
 20
77.22980602337444
 10
74.39824548389919
 20
77.22696073597983
 10
74.408
 20
77.226
 10
75.408
 20
77.226
 10
75.41775451610081
 20
77.22696073597983
 10
75.42713417161825
 20
77.22980602337444
 10
75.43577851165098
 20
77.23442651938487
 10
75.44335533905932
 20
77.24064466094067
 10
75.44957348061513
 20
77.24822148834902
 10
75.45419397662556
 20
77.25686582838175
 10
75.45703926402017
 20
77.26624548389918
 10
75.458
 20
77.276
  0
LWPOLYLINE
  5
91
330
17
100
AcDbEntity
  8
REF_LED_POCKETS
100
AcDbPolyline
 90
36
 70
1
 10
75.708
 20
81.57600000000001
 10
75.70223558412097
 20
81.63452709660484
 10
75.68516385975339
 20
81.69080502970954
 10
75.65744088369077
 20
81.74267106990588
 10
75.62013203435596
 20
81.78813203435597
 10
75.57467106990588
 20
81.82544088369077
 10
75.52280502970953
 20
81.8531638597534
 10
75.46652709660484
 20
81.87023558412098
 10
75.408
 20
81.876
 10
74.408
 20
81.876
 10
74.34947290339517
 20
81.87023558412098
 10
74.29319497029047
 20
81.8531638597534
 10
74.24132893009413
 20
81.82544088369077
 10
74.19586796564404
 20
81.78813203435597
 10
74.15855911630923
 20
81.74267106990588
 10
74.13083614024661
 20
81.69080502970954
 10
74.11376441587903
 20
81.63452709660484
 10
74.108
 20
81.57600000000001
 10
74.108
 20
77.276
 10
74.11376441587903
 20
77.21747290339516
 10
74.13083614024661
 20
77.16119497029047
 10
74.15855911630923
 20
77.10932893009412
 10
74.19586796564404
 20
77.06386796564404
 10
74.24132893009413
 20
77.02655911630923
 10
74.29319497029047
 20
76.99883614024661
 10
74.34947290339517
 20
76.98176441587903
 10
74.408
 20
76.976
 10
75.408
 20
76.976
 10
75.46652709660484
 20
76.98176441587903
 10
75.52280502970953
 20
76.99883614024661
 10
75.57467106990588
 20
77.02655911630923
 10
75.62013203435596
 20
77.06386796564404
 10
75.65744088369077
 20
77.10932893009412
 10
75.68516385975339
 20
77.16119497029047
 10
75.70223558412097
 20
77.21747290339516
 10
75.708
 20
77.276
  0
LWPOLYLINE
  5
92
330
17
100
AcDbEntity
  8
FLEX_LEDS
100
AcDbPolyline
 90
36
 70
1
 10
55.858
 20
71.426
 10
55.85703926402016
 20
71.43575451610081
 10
55.85419397662557
 20
71.44513417161825
 10
55.84957348061513
 20
71.45377851165098
 10
55.84335533905933
 20
71.46135533905932
 10
55.83577851165098
 20
71.46757348061513
 10
55.827134171618255
 20
71.47219397662556
 10
55.817754516100806
 20
71.47503926402017
 10
55.808
 20
71.476
 10
51.157999999999994
 20
71.476
 10
51.14824548389919
 20
71.47503926402017
 10
51.13886582838174
 20
71.47219397662556
 10
51.130221488349015
 20
71.46757348061513
 10
51.122644660940665
 20
71.46135533905932
 10
51.116426519384866
 20
71.45377851165098
 10
51.11180602337443
 20
71.44513417161825
 10
51.108960735979835
 20
71.43575451610081
 10
51.108
 20
71.426
 10
51.108
 20
70.426
 10
51.108960735979835
 20
70.41624548389919
 10
51.11180602337443
 20
70.40686582838175
 10
51.116426519384866
 20
70.39822148834902
 10
51.122644660940665
 20
70.39064466094068
 10
51.130221488349015
 20
70.38442651938487
 10
51.13886582838174
 20
70.37980602337444
 10
51.14824548389919
 20
70.37696073597984
 10
51.157999999999994
 20
70.376
 10
55.808
 20
70.376
 10
55.817754516100806
 20
70.37696073597984
 10
55.827134171618255
 20
70.37980602337444
 10
55.83577851165098
 20
70.38442651938487
 10
55.84335533905933
 20
70.39064466094068
 10
55.84957348061513
 20
70.39822148834902
 10
55.85419397662557
 20
70.40686582838175
 10
55.85703926402016
 20
70.41624548389919
 10
55.858
 20
70.426
  0
LWPOLYLINE
  5
93
330
17
100
AcDbEntity
  8
REF_LED_POCKETS
100
AcDbPolyline
 90
36
 70
1
 10
56.108
 20
71.426
 10
56.10223558412097
 20
71.48452709660484
 10
56.085163859753386
 20
71.54080502970953
 10
56.05744088369077
 20
71.59267106990588
 10
56.02013203435597
 20
71.63813203435596
 10
55.97467106990588
 20
71.67544088369077
 10
55.92280502970953
 20
71.70316385975339
 10
55.86652709660484
 20
71.72023558412097
 10
55.808
 20
71.726
 10
51.157999999999994
 20
71.726
 10
51.09947290339515
 20
71.72023558412097
 10
51.043194970290465
 20
71.70316385975339
 10
50.99132893009411
 20
71.67544088369077
 10
50.94586796564403
 20
71.63813203435596
 10
50.90855911630923
 20
71.59267106990588
 10
50.88083614024661
 20
71.54080502970953
 10
50.863764415879025
 20
71.48452709660484
 10
50.858
 20
71.426
 10
50.858
 20
70.426
 10
50.863764415879025
 20
70.36747290339517
 10
50.88083614024661
 20
70.31119497029047
 10
50.90855911630923
 20
70.25932893009413
 10
50.94586796564403
 20
70.21386796564404
 10
50.99132893009411
 20
70.17655911630924
 10
51.043194970290465
 20
70.14883614024662
 10
51.09947290339515
 20
70.13176441587903
 10
51.157999999999994
 20
70.126
 10
55.808
 20
70.126
 10
55.86652709660484
 20
70.13176441587903
 10
55.92280502970953
 20
70.14883614024662
 10
55.97467106990588
 20
70.17655911630924
 10
56.02013203435597
 20
70.21386796564404
 10
56.05744088369077
 20
70.25932893009413
 10
56.085163859753386
 20
70.31119497029047
 10
56.10223558412097
 20
70.36747290339517
 10
56.108
 20
70.426
  0
LWPOLYLINE
  5
94
330
17
100
AcDbEntity
  8
FLEX_LEDS
100
AcDbPolyline
 90
36
 70
1
 10
74.208
 20
50.126000000000005
 10
74.20703926402017
 20
50.13575451610081
 10
74.20419397662556
 20
50.14513417161826
 10
74.19957348061513
 20
50.153778511650984
 10
74.19335533905932
 20
50.161355339059334
 10
74.18577851165098
 20
50.16757348061513
 10
74.17713417161825
 20
50.17219397662557
 10
74.16775451610081
 20
50.175039264020164
 10
74.158
 20
50.176
 10
69.158
 20
50.176
 10
69.14824548389919
 20
50.175039264020164
 10
69.13886582838175
 20
50.17219397662557
 10
69.13022148834902
 20
50.16757348061513
 10
69.12264466094068
 20
50.161355339059334
 10
69.11642651938487
 20
50.153778511650984
 10
69.11180602337444
 20
50.14513417161826
 10
69.10896073597984
 20
50.13575451610081
 10
69.108
 20
50.126000000000005
 10
69.108
 20
49.176
 10
69.10896073597984
 20
49.166245483899196
 10
69.11180602337444
 20
49.15686582838175
 10
69.11642651938487
 20
49.14822148834902
 10
69.12264466094068
 20
49.14064466094067
 10
69.13022148834902
 20
49.134426519384874
 10
69.13886582838175
 20
49.129806023374435
 10
69.14824548389919
 20
49.12696073597984
 10
69.158
 20
49.126000000000005
 10
74.158
 20
49.126000000000005
 10
74.16775451610081
 20
49.12696073597984
 10
74.17713417161825
 20
49.129806023374435
 10
74.18577851165098
 20
49.134426519384874
 10
74.19335533905932
 20
49.14064466094067
 10
74.19957348061513
 20
49.14822148834902
 10
74.20419397662556
 20
49.15686582838175
 10
74.20703926402017
 20
49.166245483899196
 10
74.208
 20
49.176
  0
LWPOLYLINE
  5
95
330
17
100
AcDbEntity
  8
REF_LED_POCKETS
100
AcDbPolyline
 90
36
 70
1
 10
74.458
 20
50.126000000000005
 10
74.45223558412097
 20
50.184527096604846
 10
74.43516385975339
 20
50.240805029709534
 10
74.40744088369077
 20
50.292671069905886
 10
74.37013203435596
 20
50.33813203435597
 10
74.32467106990588
 20
50.37544088369077
 10
74.27280502970953
 20
50.40316385975339
 10
74.21652709660484
 20
50.420235584120974
 10
74.158
 20
50.426
 10
69.158
 20
50.426
 10
69.09947290339517
 20
50.420235584120974
 10
69.04319497029047
 20
50.40316385975339
 10
68.99132893009413
 20
50.37544088369077
 10
68.94586796564404
 20
50.33813203435597
 10
68.90855911630923
 20
50.292671069905886
 10
68.88083614024661
 20
50.240805029709534
 10
68.86376441587903
 20
50.184527096604846
 10
68.858
 20
50.126000000000005
 10
68.858
 20
49.176
 10
68.86376441587903
 20
49.11747290339516
 10
68.88083614024661
 20
49.06119497029047
 10
68.90855911630923
 20
49.00932893009412
 10
68.94586796564404
 20
48.963867965644035
 10
68.99132893009413
 20
48.926559116309235
 10
69.04319497029047
 20
48.898836140246615
 10
69.09947290339517
 20
48.88176441587903
 10
69.158
 20
48.876000000000005
 10
74.158
 20
48.876000000000005
 10
74.21652709660484
 20
48.88176441587903
 10
74.27280502970953
 20
48.898836140246615
 10
74.32467106990588
 20
48.926559116309235
 10
74.37013203435596
 20
48.963867965644035
 10
74.40744088369077
 20
49.00932893009412
 10
74.43516385975339
 20
49.06119497029047
 10
74.45223558412097
 20
49.11747290339516
 10
74.458
 20
49.176
  0
LWPOLYLINE
  5
96
330
17
100
AcDbEntity
  8
FLEX_LEDS
100
AcDbPolyline
 90
36
 70
1
 10
37.708
 20
49.226
 10
37.70703926402016
 20
49.235754516100805
 10
37.70419397662557
 20
49.245134171618254
 10
37.69957348061513
 20
49.25377851165098
 10
37.69335533905933
 20
49.26135533905933
 10
37.68577851165098
 20
49.26757348061513
 10
37.677134171618256
 20
49.272193976625566
 10
37.66775451610081
 20
49.27503926402016
 10
37.658
 20
49.275999999999996
 10
32.80799999999999
 20
49.275999999999996
 10
32.79824548389919
 20
49.27503926402016
 10
32.78886582838174
 20
49.272193976625566
 10
32.780221488349014
 20
49.26757348061513
 10
32.772644660940664
 20
49.26135533905933
 10
32.766426519384865
 20
49.25377851165098
 10
32.761806023374426
 20
49.245134171618254
 10
32.758960735979834
 20
49.235754516100805
 10
32.757999999999996
 20
49.226
 10
32.757999999999996
 20
48.226
 10
32.758960735979834
 20
48.21624548389919
 10
32.761806023374426
 20
48.206865828381744
 10
32.766426519384865
 20
48.19822148834902
 10
32.772644660940664
 20
48.19064466094067
 10
32.780221488349014
 20
48.18442651938487
 10
32.78886582838174
 20
48.17980602337443
 10
32.79824548389919
 20
48.17696073597984
 10
32.80799999999999
 20
48.176
 10
37.658
 20
48.176
 10
37.66775451610081
 20
48.17696073597984
 10
37.677134171618256
 20
48.17980602337443
 10
37.68577851165098
 20
48.18442651938487
 10
37.69335533905933
 20
48.19064466094067
 10
37.69957348061513
 20
48.19822148834902
 10
37.70419397662557
 20
48.206865828381744
 10
37.70703926402016
 20
48.21624548389919
 10
37.708
 20
48.226
  0
LWPOLYLINE
  5
97
330
17
100
AcDbEntity
  8
REF_LED_POCKETS
100
AcDbPolyline
 90
36
 70
1
 10
37.958
 20
49.226
 10
37.95223558412097
 20
49.28452709660484
 10
37.93516385975339
 20
49.34080502970953
 10
37.90744088369077
 20
49.39267106990588
 10
37.87013203435597
 20
49.43813203435597
 10
37.82467106990588
 20
49.475440883690766
 10
37.77280502970953
 20
49.503163859753386
 10
37.71652709660484
 20
49.52023558412097
 10
37.658
 20
49.525999999999996
 10
32.80799999999999
 20
49.525999999999996
 10
32.74947290339515
 20
49.52023558412097
 10
32.69319497029046
 20
49.503163859753386
 10
32.64132893009411
 20
49.475440883690766
 10
32.595867965644025
 20
49.43813203435597
 10
32.558559116309226
 20
49.39267106990588
 10
32.530836140246606
 20
49.34080502970953
 10
32.513764415879024
 20
49.28452709660484
 10
32.507999999999996
 20
49.226
 10
32.507999999999996
 20
48.226
 10
32.513764415879024
 20
48.16747290339516
 10
32.530836140246606
 20
48.11119497029047
 10
32.558559116309226
 20
48.05932893009412
 10
32.595867965644025
 20
48.01386796564403
 10
32.64132893009411
 20
47.97655911630923
 10
32.69319497029046
 20
47.94883614024661
 10
32.74947290339515
 20
47.93176441587903
 10
32.80799999999999
 20
47.926
 10
37.658
 20
47.926
 10
37.71652709660484
 20
47.93176441587903
 10
37.77280502970953
 20
47.94883614024661
 10
37.82467106990588
 20
47.97655911630923
 10
37.87013203435597
 20
48.01386796564403
 10
37.90744088369077
 20
48.05932893009412
 10
37.93516385975339
 20
48.11119497029047
 10
37.95223558412097
 20
48.16747290339516
 10
37.958
 20
48.226
  0
LWPOLYLINE
  5
98
330
17
100
AcDbEntity
  8
FLEX_LEDS
100
AcDbPolyline
 90
36
 70
1
 10
75.408
 20
48.726
 10
75.40703926402017
 20
48.735754516100805
 10
75.40419397662556
 20
48.745134171618254
 10
75.39957348061513
 20
48.75377851165098
 10
75.39335533905933
 20
48.76135533905933
 10
75.38577851165098
 20
48.76757348061513
 10
75.37713417161825
 20
48.772193976625566
 10
75.36775451610082
 20
48.77503926402016
 10
75.358
 20
48.775999999999996
 10
74.208
 20
48.775999999999996
 10
74.19824548389919
 20
48.77503926402016
 10
74.18886582838175
 20
48.772193976625566
 10
74.18022148834902
 20
48.76757348061513
 10
74.17264466094068
 20
48.76135533905933
 10
74.16642651938487
 20
48.75377851165098
 10
74.16180602337444
 20
48.745134171618254
 10
74.15896073597983
 20
48.735754516100805
 10
74.158
 20
48.726
 10
74.158
 20
44.275999999999996
 10
74.15896073597983
 20
44.26624548389919
 10
74.16180602337444
 20
44.25686582838174
 10
74.16642651938487
 20
44.24822148834902
 10
74.17264466094068
 20
44.24064466094067
 10
74.18022148834902
 20
44.23442651938487
 10
74.18886582838175
 20
44.22980602337443
 10
74.19824548389919
 20
44.22696073597984
 10
74.208
 20
44.226
 10
75.358
 20
44.226
 10
75.36775451610082
 20
44.22696073597984
 10
75.37713417161825
 20
44.22980602337443
 10
75.38577851165098
 20
44.23442651938487
 10
75.39335533905933
 20
44.24064466094067
 10
75.39957348061513
 20
44.24822148834902
 10
75.40419397662556
 20
44.25686582838174
 10
75.40703926402017
 20
44.26624548389919
 10
75.408
 20
44.275999999999996
  0
LWPOLYLINE
  5
99
330
17
100
AcDbEntity
  8
REF_LED_POCKETS
100
AcDbPolyline
 90
36
 70
1
 10
75.658
 20
48.726
 10
75.65223558412097
 20
48.78452709660484
 10
75.63516385975339
 20
48.84080502970953
 10
75.60744088369077
 20
48.89267106990588
 10
75.57013203435596
 20
48.93813203435597
 10
75.52467106990588
 20
48.975440883690766
 10
75.47280502970953
 20
49.003163859753386
 10
75.41652709660484
 20
49.02023558412097
 10
75.358
 20
49.025999999999996
 10
74.208
 20
49.025999999999996
 10
74.14947290339516
 20
49.02023558412097
 10
74.09319497029047
 20
49.003163859753386
 10
74.04132893009412
 20
48.975440883690766
 10
73.99586796564404
 20
48.93813203435597
 10
73.95855911630923
 20
48.89267106990588
 10
73.93083614024661
 20
48.84080502970953
 10
73.91376441587903
 20
48.78452709660484
 10
73.908
 20
48.726
 10
73.908
 20
44.275999999999996
 10
73.91376441587903
 20
44.217472903395155
 10
73.93083614024661
 20
44.16119497029047
 10
73.95855911630923
 20
44.109328930094115
 10
73.99586796564404
 20
44.06386796564403
 10
74.04132893009412
 20
44.02655911630923
 10
74.09319497029047
 20
43.99883614024661
 10
74.14947290339516
 20
43.98176441587903
 10
74.208
 20
43.976
 10
75.358
 20
43.976
 10
75.41652709660484
 20
43.98176441587903
 10
75.47280502970953
 20
43.99883614024661
 10
75.52467106990588
 20
44.02655911630923
 10
75.57013203435596
 20
44.06386796564403
 10
75.60744088369077
 20
44.109328930094115
 10
75.63516385975339
 20
44.16119497029047
 10
75.65223558412097
 20
44.217472903395155
 10
75.658
 20
44.275999999999996
  0
LWPOLYLINE
  5
9A
330
17
100
AcDbEntity
  8
FLEX_LEDS
100
AcDbPolyline
 90
36
 70
1
 10
55.908
 20
43.426
 10
55.90703926402016
 20
43.43575451610081
 10
55.90419397662557
 20
43.44513417161826
 10
55.89957348061513
 20
43.45377851165098
 10
55.89335533905933
 20
43.46135533905933
 10
55.88577851165098
 20
43.46757348061513
 10
55.87713417161826
 20
43.47219397662557
 10
55.86775451610081
 20
43.47503926402016
 10
55.858000000000004
 20
43.476
 10
51.007999999999996
 20
43.476
 10
50.99824548389919
 20
43.47503926402016
 10
50.98886582838174
 20
43.47219397662557
 10
50.98022148834902
 20
43.46757348061513
 10
50.97264466094067
 20
43.46135533905933
 10
50.96642651938487
 20
43.45377851165098
 10
50.96180602337443
 20
43.44513417161826
 10
50.958960735979836
 20
43.43575451610081
 10
50.958
 20
43.426
 10
50.958
 20
42.426
 10
50.958960735979836
 20
42.416245483899196
 10
50.96180602337443
 20
42.40686582838175
 10
50.96642651938487
 20
42.39822148834902
 10
50.97264466094067
 20
42.39064466094067
 10
50.98022148834902
 20
42.384426519384874
 10
50.98886582838174
 20
42.379806023374435
 10
50.99824548389919
 20
42.37696073597984
 10
51.007999999999996
 20
42.376000000000005
 10
55.858000000000004
 20
42.376000000000005
 10
55.86775451610081
 20
42.37696073597984
 10
55.87713417161826
 20
42.379806023374435
 10
55.88577851165098
 20
42.384426519384874
 10
55.89335533905933
 20
42.39064466094067
 10
55.89957348061513
 20
42.39822148834902
 10
55.90419397662557
 20
42.40686582838175
 10
55.90703926402016
 20
42.416245483899196
 10
55.908
 20
42.426
  0
LWPOLYLINE
  5
9B
330
17
100
AcDbEntity
  8
REF_LED_POCKETS
100
AcDbPolyline
 90
36
 70
1
 10
56.158
 20
43.426
 10
56.15223558412097
 20
43.48452709660484
 10
56.13516385975339
 20
43.54080502970953
 10
56.10744088369077
 20
43.59267106990588
 10
56.07013203435597
 20
43.63813203435597
 10
56.024671069905885
 20
43.67544088369077
 10
55.972805029709534
 20
43.70316385975339
 10
55.916527096604845
 20
43.72023558412097
 10
55.858000000000004
 20
43.726
 10
51.007999999999996
 20
43.726
 10
50.949472903395154
 20
43.72023558412097
 10
50.893194970290466
 20
43.70316385975339
 10
50.841328930094114
 20
43.67544088369077
 10
50.79586796564403
 20
43.63813203435597
 10
50.75855911630923
 20
43.59267106990588
 10
50.73083614024661
 20
43.54080502970953
 10
50.71376441587903
 20
43.48452709660484
 10
50.708
 20
43.426
 10
50.708
 20
42.426
 10
50.71376441587903
 20
42.36747290339516
 10
50.73083614024661
 20
42.31119497029047
 10
50.75855911630923
 20
42.25932893009412
 10
50.79586796564403
 20
42.213867965644035
 10
50.841328930094114
 20
42.176559116309235
 10
50.893194970290466
 20
42.148836140246615
 10
50.949472903395154
 20
42.13176441587903
 10
51.007999999999996
 20
42.126000000000005
 10
55.858000000000004
 20
42.126000000000005
 10
55.916527096604845
 20
42.13176441587903
 10
55.972805029709534
 20
42.148836140246615
 10
56.024671069905885
 20
42.176559116309235
 10
56.07013203435597
 20
42.213867965644035
 10
56.10744088369077
 20
42.25932893009412
 10
56.13516385975339
 20
42.31119497029047
 10
56.15223558412097
 20
42.36747290339516
 10
56.158
 20
42.426
  0
LWPOLYLINE
  5
9C
330
17
100
AcDbEntity
  8
FLEX_LEDS
100
AcDbPolyline
 90
36
 70
1
 10
32.558
 20
29.625999999999998
 10
32.55703926402016
 20
29.635754516100803
 10
32.55419397662557
 20
29.645134171618253
 10
32.54957348061513
 20
29.653778511650977
 10
32.54335533905933
 20
29.661355339059327
 10
32.53577851165098
 20
29.667573480615125
 10
32.52713417161826
 20
29.67219397662556
 10
32.51775451610081
 20
29.67503926402016
 10
32.508
 20
29.676
 10
31.508000000000003
 20
29.676
 10
31.498245483899197
 20
29.67503926402016
 10
31.488865828381748
 20
29.67219397662556
 10
31.480221488349024
 20
29.667573480615125
 10
31.472644660940674
 20
29.661355339059327
 10
31.466426519384875
 20
29.653778511650977
 10
31.46180602337444
 20
29.645134171618253
 10
31.45896073597984
 20
29.635754516100803
 10
31.458000000000002
 20
29.625999999999998
 10
31.458000000000002
 20
25.426000000000002
 10
31.45896073597984
 20
25.416245483899196
 10
31.46180602337444
 20
25.406865828381747
 10
31.466426519384875
 20
25.398221488349023
 10
31.472644660940674
 20
25.390644660940673
 10
31.480221488349024
 20
25.384426519384874
 10
31.488865828381748
 20
25.37980602337444
 10
31.498245483899197
 20
25.37696073597984
 10
31.508000000000003
 20
25.376
 10
32.508
 20
25.376
 10
32.51775451610081
 20
25.37696073597984
 10
32.52713417161826
 20
25.37980602337444
 10
32.53577851165098
 20
25.384426519384874
 10
32.54335533905933
 20
25.390644660940673
 10
32.54957348061513
 20
25.398221488349023
 10
32.55419397662557
 20
25.406865828381747
 10
32.55703926402016
 20
25.416245483899196
 10
32.558
 20
25.426000000000002
  0
LWPOLYLINE
  5
9D
330
17
100
AcDbEntity
  8
REF_LED_POCKETS
100
AcDbPolyline
 90
36
 70
1
 10
32.808
 20
29.625999999999998
 10
32.80223558412097
 20
29.684527096604835
 10
32.78516385975339
 20
29.740805029709524
 10
32.75744088369077
 20
29.79267106990588
 10
32.72013203435597
 20
29.83813203435596
 10
32.674671069905884
 20
29.87544088369076
 10
32.62280502970953
 20
29.903163859753384
 10
32.566527096604844
 20
29.920235584120967
 10
32.508
 20
29.926
 10
31.508000000000003
 20
29.926
 10
31.449472903395165
 20
29.920235584120967
 10
31.393194970290477
 20
29.903163859753384
 10
31.34132893009412
 20
29.87544088369076
 10
31.29586796564404
 20
29.83813203435596
 10
31.25855911630924
 20
29.79267106990588
 10
31.230836140246616
 20
29.740805029709524
 10
31.213764415879034
 20
29.684527096604835
 10
31.208000000000002
 20
29.625999999999998
 10
31.208000000000002
 20
25.426000000000002
 10
31.213764415879034
 20
25.367472903395164
 10
31.230836140246616
 20
25.311194970290476
 10
31.25855911630924
 20
25.25932893009412
 10
31.29586796564404
 20
25.213867965644038
 10
31.34132893009412
 20
25.17655911630924
 10
31.393194970290477
 20
25.148836140246615
 10
31.449472903395165
 20
25.131764415879033
 10
31.508000000000003
 20
25.126
 10
32.508
 20
25.126
 10
32.566527096604844
 20
25.131764415879033
 10
32.62280502970953
 20
25.148836140246615
 10
32.674671069905884
 20
25.17655911630924
 10
32.72013203435597
 20
25.213867965644038
 10
32.75744088369077
 20
25.25932893009412
 10
32.78516385975339
 20
25.311194970290476
 10
32.80223558412097
 20
25.367472903395164
 10
32.808
 20
25.426000000000002
  0
LWPOLYLINE
  5
9E
330
17
100
AcDbEntity
  8
FLEX_LEDS
100
AcDbPolyline
 90
36
 70
1
 10
73.408
 20
26.476
 10
73.40703926402017
 20
26.485754516100805
 10
73.40419397662556
 20
26.495134171618254
 10
73.39957348061513
 20
26.503778511650978
 10
73.39335533905933
 20
26.511355339059328
 10
73.38577851165098
 20
26.517573480615127
 10
73.37713417161825
 20
26.522193976625562
 10
73.36775451610082
 20
26.52503926402016
 10
73.358
 20
26.526
 10
69.80799999999999
 20
26.526
 10
69.79824548389918
 20
26.52503926402016
 10
69.78886582838174
 20
26.522193976625562
 10
69.78022148834901
 20
26.517573480615127
 10
69.77264466094067
 20
26.511355339059328
 10
69.76642651938486
 20
26.503778511650978
 10
69.76180602337443
 20
26.495134171618254
 10
69.75896073597983
 20
26.485754516100805
 10
69.758
 20
26.476
 10
69.758
 20
25.576
 10
69.75896073597983
 20
25.566245483899195
 10
69.76180602337443
 20
25.556865828381746
 10
69.76642651938486
 20
25.54822148834902
 10
69.77264466094067
 20
25.54064466094067
 10
69.78022148834901
 20
25.534426519384873
 10
69.78886582838174
 20
25.529806023374437
 10
69.79824548389918
 20
25.526960735979838
 10
69.80799999999999
 20
25.526
 10
73.358
 20
25.526
 10
73.36775451610082
 20
25.526960735979838
 10
73.37713417161825
 20
25.529806023374437
 10
73.38577851165098
 20
25.534426519384873
 10
73.39335533905933
 20
25.54064466094067
 10
73.39957348061513
 20
25.54822148834902
 10
73.40419397662556
 20
25.556865828381746
 10
73.40703926402017
 20
25.566245483899195
 10
73.408
 20
25.576
  0
LWPOLYLINE
  5
9F
330
17
100
AcDbEntity
  8
REF_LED_POCKETS
100
AcDbPolyline
 90
36
 70
1
 10
73.658
 20
26.476
 10
73.65223558412097
 20
26.534527096604837
 10
73.63516385975339
 20
26.590805029709525
 10
73.60744088369077
 20
26.64267106990588
 10
73.57013203435596
 20
26.688132034355963
 10
73.52467106990588
 20
26.725440883690762
 10
73.47280502970953
 20
26.753163859753386
 10
73.41652709660484
 20
26.770235584120968
 10
73.358
 20
26.776
 10
69.80799999999999
 20
26.776
 10
69.74947290339516
 20
26.770235584120968
 10
69.69319497029046
 20
26.753163859753386
 10
69.64132893009412
 20
26.725440883690762
 10
69.59586796564403
 20
26.688132034355963
 10
69.55855911630923
 20
26.64267106990588
 10
69.5308361402466
 20
26.590805029709525
 10
69.51376441587902
 20
26.534527096604837
 10
69.508
 20
26.476
 10
69.508
 20
25.576
 10
69.51376441587902
 20
25.517472903395163
 10
69.5308361402466
 20
25.461194970290475
 10
69.55855911630923
 20
25.40932893009412
 10
69.59586796564403
 20
25.363867965644037
 10
69.64132893009412
 20
25.326559116309237
 10
69.69319497029046
 20
25.298836140246614
 10
69.74947290339516
 20
25.28176441587903
 10
69.80799999999999
 20
25.276
 10
73.358
 20
25.276
 10
73.41652709660484
 20
25.28176441587903
 10
73.47280502970953
 20
25.298836140246614
 10
73.52467106990588
 20
25.326559116309237
 10
73.57013203435596
 20
25.363867965644037
 10
73.60744088369077
 20
25.40932893009412
 10
73.63516385975339
 20
25.461194970290475
 10
73.65223558412097
 20
25.517472903395163
 10
73.658
 20
25.576
  0
LWPOLYLINE
  5
A0
330
17
100
AcDbEntity
  8
FLEX_LEDS
100
AcDbPolyline
 90
36
 70
1
 10
49.158
 20
15.225999999999999
 10
49.15703926402016
 20
15.235754516100805
 10
49.15419397662557
 20
15.245134171618254
 10
49.14957348061513
 20
15.25377851165098
 10
49.14335533905933
 20
15.261355339059326
 10
49.13577851165098
 20
15.267573480615127
 10
49.12713417161826
 20
15.272193976625564
 10
49.11775451610081
 20
15.27503926402016
 10
49.108000000000004
 20
15.276
 10
48.007999999999996
 20
15.276
 10
47.99824548389919
 20
15.27503926402016
 10
47.98886582838174
 20
15.272193976625564
 10
47.98022148834902
 20
15.267573480615127
 10
47.97264466094067
 20
15.261355339059326
 10
47.96642651938487
 20
15.25377851165098
 10
47.96180602337443
 20
15.245134171618254
 10
47.958960735979836
 20
15.235754516100805
 10
47.958
 20
15.225999999999999
 10
47.958
 20
10.826
 10
47.958960735979836
 20
10.816245483899195
 10
47.96180602337443
 20
10.806865828381746
 10
47.96642651938487
 20
10.79822148834902
 10
47.97264466094067
 20
10.790644660940673
 10
47.98022148834902
 20
10.784426519384873
 10
47.98886582838174
 20
10.779806023374435
 10
47.99824548389919
 20
10.77696073597984
 10
48.007999999999996
 20
10.776
 10
49.108000000000004
 20
10.776
 10
49.11775451610081
 20
10.77696073597984
 10
49.12713417161826
 20
10.779806023374435
 10
49.13577851165098
 20
10.784426519384873
 10
49.14335533905933
 20
10.790644660940673
 10
49.14957348061513
 20
10.79822148834902
 10
49.15419397662557
 20
10.806865828381746
 10
49.15703926402016
 20
10.816245483899195
 10
49.158
 20
10.826
  0
LWPOLYLINE
  5
A1
330
17
100
AcDbEntity
  8
REF_LED_POCKETS
100
AcDbPolyline
 90
36
 70
1
 10
49.408
 20
15.225999999999999
 10
49.40223558412097
 20
15.284527096604837
 10
49.38516385975339
 20
15.340805029709527
 10
49.35744088369077
 20
15.39267106990588
 10
49.32013203435597
 20
15.438132034355963
 10
49.274671069905885
 20
15.475440883690762
 10
49.222805029709534
 20
15.503163859753386
 10
49.166527096604845
 20
15.520235584120968
 10
49.108000000000004
 20
15.526
 10
48.007999999999996
 20
15.526
 10
47.949472903395154
 20
15.520235584120968
 10
47.893194970290466
 20
15.503163859753386
 10
47.841328930094114
 20
15.475440883690762
 10
47.79586796564403
 20
15.438132034355963
 10
47.75855911630923
 20
15.39267106990588
 10
47.73083614024661
 20
15.340805029709527
 10
47.71376441587903
 20
15.284527096604837
 10
47.708
 20
15.225999999999999
 10
47.708
 20
10.826
 10
47.71376441587903
 20
10.767472903395163
 10
47.73083614024661
 20
10.711194970290473
 10
47.75855911630923
 20
10.65932893009412
 10
47.79586796564403
 20
10.613867965644037
 10
47.841328930094114
 20
10.576559116309237
 10
47.893194970290466
 20
10.548836140246614
 10
47.949472903395154
 20
10.531764415879032
 10
48.007999999999996
 20
10.526
 10
49.108000000000004
 20
10.526
 10
49.166527096604845
 20
10.531764415879032
 10
49.222805029709534
 20
10.548836140246614
 10
49.274671069905885
 20
10.576559116309237
 10
49.32013203435597
 20
10.613867965644037
 10
49.35744088369077
 20
10.65932893009412
 10
49.38516385975339
 20
10.711194970290475
 10
49.40223558412097
 20
10.767472903395161
 10
49.408
 20
10.826
  0
LWPOLYLINE
  5
A2
330
17
100
AcDbEntity
  8
FLEX_LEDS
100
AcDbPolyline
 90
36
 70
1
 10
58.933
 20
15.301
 10
58.93203926402016
 20
15.310754516100806
 10
58.92919397662557
 20
15.320134171618255
 10
58.92457348061513
 20
15.328778511650981
 10
58.91835533905933
 20
15.336355339059327
 10
58.91077851165098
 20
15.342573480615128
 10
58.90213417161826
 20
15.347193976625565
 10
58.89275451610081
 20
15.350039264020161
 10
58.883
 20
15.351
 10
57.782999999999994
 20
15.351
 10
57.77324548389919
 20
15.350039264020161
 10
57.76386582838174
 20
15.347193976625565
 10
57.755221488349015
 20
15.342573480615128
 10
57.747644660940665
 20
15.336355339059327
 10
57.741426519384866
 20
15.328778511650981
 10
57.73680602337443
 20
15.320134171618255
 10
57.733960735979835
 20
15.310754516100806
 10
57.733
 20
15.301
 10
57.733
 20
10.901000000000002
 10
57.733960735979835
 20
10.891245483899196
 10
57.73680602337443
 20
10.881865828381747
 10
57.741426519384866
 20
10.87322148834902
 10
57.747644660940665
 20
10.865644660940674
 10
57.755221488349015
 20
10.859426519384874
 10
57.76386582838174
 20
10.854806023374437
 10
57.77324548389919
 20
10.85196073597984
 10
57.782999999999994
 20
10.851
 10
58.883
 20
10.851
 10
58.89275451610081
 20
10.85196073597984
 10
58.90213417161826
 20
10.854806023374437
 10
58.91077851165098
 20
10.859426519384874
 10
58.91835533905933
 20
10.865644660940674
 10
58.92457348061513
 20
10.87322148834902
 10
58.92919397662557
 20
10.881865828381747
 10
58.93203926402016
 20
10.891245483899196
 10
58.933
 20
10.901000000000002
  0
LWPOLYLINE
  5
A3
330
17
100
AcDbEntity
  8
REF_LED_POCKETS
100
AcDbPolyline
 90
36
 70
1
 10
59.183
 20
15.301
 10
59.17723558412097
 20
15.359527096604838
 10
59.16016385975339
 20
15.415805029709528
 10
59.13244088369077
 20
15.467671069905881
 10
59.09513203435597
 20
15.513132034355964
 10
59.049671069905884
 20
15.550440883690763
 10
58.99780502970953
 20
15.578163859753387
 10
58.941527096604844
 20
15.595235584120969
 10
58.883
 20
15.601
 10
57.782999999999994
 20
15.601
 10
57.72447290339515
 20
15.595235584120969
 10
57.668194970290465
 20
15.578163859753387
 10
57.61632893009411
 20
15.550440883690763
 10
57.57086796564403
 20
15.513132034355964
 10
57.53355911630923
 20
15.467671069905881
 10
57.50583614024661
 20
15.415805029709528
 10
57.488764415879025
 20
15.359527096604838
 10
57.483
 20
15.301
 10
57.483
 20
10.901000000000002
 10
57.488764415879025
 20
10.842472903395164
 10
57.50583614024661
 20
10.786194970290474
 10
57.53355911630923
 20
10.73432893009412
 10
57.57086796564403
 20
10.688867965644038
 10
57.61632893009411
 20
10.651559116309238
 10
57.668194970290465
 20
10.623836140246615
 10
57.72447290339515
 20
10.606764415879033
 10
57.782999999999994
 20
10.601
 10
58.883
 20
10.601
 10
58.941527096604844
 20
10.606764415879033
 10
58.99780502970953
 20
10.623836140246615
 10
59.049671069905884
 20
10.651559116309238
 10
59.09513203435597
 20
10.688867965644038
 10
59.13244088369077
 20
10.73432893009412
 10
59.16016385975339
 20
10.786194970290476
 10
59.17723558412097
 20
10.842472903395162
 10
59.183
 20
10.901000000000002
  0
LWPOLYLINE
  5
A4
330
17
100
AcDbEntity
  8
FLEX_SILVER_FRAMES
100
AcDbPolyline
 90
36
 70
1
 10
74.81
 20
98.45400000000001
 10
74.80039264020162
 20
98.55154516100808
 10
74.77193976625564
 20
98.64534171618256
 10
74.72573480615128
 20
98.73178511650981
 10
74.66355339059328
 20
98.80755339059328
 10
74.5877851165098
 20
98.86973480615129
 10
74.50134171618255
 20
98.91593976625565
 10
74.40754516100807
 20
98.94439264020163
 10
74.31
 20
98.95400000000001
 10
32.44
 20
98.95400000000001
 10
32.342454838991934
 20
98.94439264020163
 10
32.248658283817456
 20
98.91593976625565
 10
32.16221488349019
 20
98.86973480615129
 10
32.08644660940672
 20
98.80755339059328
 10
32.02426519384873
 20
98.73178511650981
 10
31.978060233744355
 20
98.64534171618256
 10
31.94960735979838
 20
98.55154516100808
 10
31.939999999999998
 20
98.45400000000001
 10
31.939999999999998
 20
83.874
 10
31.94960735979838
 20
83.77645483899192
 10
31.978060233744355
 20
83.68265828381745
 10
32.02426519384873
 20
83.59621488349019
 10
32.08644660940672
 20
83.52044660940672
 10
32.16221488349019
 20
83.45826519384872
 10
32.248658283817456
 20
83.41206023374436
 10
32.342454838991934
 20
83.38360735979838
 10
32.44
 20
83.374
 10
74.31
 20
83.374
 10
74.40754516100807
 20
83.38360735979838
 10
74.50134171618255
 20
83.41206023374436
 10
74.5877851165098
 20
83.45826519384872
 10
74.66355339059328
 20
83.52044660940672
 10
74.72573480615128
 20
83.59621488349019
 10
74.77193976625564
 20
83.68265828381745
 10
74.80039264020162
 20
83.77645483899192
 10
74.81
 20
83.874
  0
LWPOLYLINE
  5
A5
330
17
100
AcDbEntity
  8
FLEX_SILVER_FRAMES
100
AcDbPolyline
 90
36
 70
1
 10
74.832
 20
80.354
 10
74.82239264020161
 20
80.45154516100807
 10
74.79393976625563
 20
80.54534171618255
 10
74.74773480615127
 20
80.6317851165098
 10
74.68555339059327
 20
80.70755339059328
 10
74.6097851165098
 20
80.76973480615128
 10
74.52334171618254
 20
80.81593976625564
 10
74.42954516100806
 20
80.84439264020162
 10
74.332
 20
80.854
 10
32.382
 20
80.854
 10
32.284454838991934
 20
80.84439264020162
 10
32.190658283817456
 20
80.81593976625564
 10
32.104214883490194
 20
80.76973480615128
 10
32.02844660940672
 20
80.70755339059328
 10
31.966265193848724
 20
80.6317851165098
 10
31.920060233744355
 20
80.54534171618255
 10
31.891607359798382
 20
80.45154516100807
 10
31.881999999999998
 20
80.354
 10
31.881999999999998
 20
50.874
 10
31.891607359798382
 20
50.77645483899194
 10
31.920060233744355
 20
50.68265828381746
 10
31.966265193848724
 20
50.5962148834902
 10
32.02844660940672
 20
50.520446609406726
 10
32.104214883490194
 20
50.45826519384873
 10
32.190658283817456
 20
50.412060233744356
 10
32.284454838991934
 20
50.38360735979839
 10
32.382
 20
50.374
 10
74.332
 20
50.374
 10
74.42954516100806
 20
50.38360735979839
 10
74.52334171618254
 20
50.412060233744356
 10
74.6097851165098
 20
50.45826519384873
 10
74.68555339059327
 20
50.520446609406726
 10
74.74773480615127
 20
50.5962148834902
 10
74.79393976625563
 20
50.68265828381746
 10
74.82239264020161
 20
50.77645483899194
 10
74.832
 20
50.874
  0
LWPOLYLINE
  5
A6
330
17
100
AcDbEntity
  8
FLEX_SILVER_FRAMES
100
AcDbPolyline
 90
36
 70
1
 10
74.813
 20
47.504
 10
74.80339264020162
 20
47.60154516100806
 10
74.77493976625564
 20
47.69534171618254
 10
74.72873480615128
 20
47.7817851165098
 10
74.66655339059328
 20
47.857553390593274
 10
74.5907851165098
 20
47.91973480615127
 10
74.50434171618255
 20
47.965939766255644
 10
74.41054516100807
 20
47.99439264020161
 10
74.313
 20
48.004
 10
32.503
 20
48.004
 10
32.405454838991936
 20
47.99439264020161
 10
32.31165828381746
 20
47.965939766255644
 10
32.225214883490196
 20
47.91973480615127
 10
32.14944660940672
 20
47.857553390593274
 10
32.08726519384873
 20
47.7817851165098
 10
32.04106023374435
 20
47.69534171618254
 10
32.01260735979839
 20
47.60154516100806
 10
32.003
 20
47.504
 10
32.003
 20
27.253999999999998
 10
32.01260735979839
 20
27.156454838991934
 10
32.04106023374435
 20
27.062658283817452
 10
32.08726519384873
 20
26.976214883490197
 10
32.14944660940672
 20
26.900446609406725
 10
32.225214883490196
 20
26.838265193848724
 10
32.31165828381746
 20
26.792060233744355
 10
32.405454838991936
 20
26.76360735979838
 10
32.503
 20
26.753999999999998
 10
74.313
 20
26.753999999999998
 10
74.41054516100807
 20
26.76360735979838
 10
74.50434171618255
 20
26.792060233744355
 10
74.5907851165098
 20
26.838265193848724
 10
74.66655339059328
 20
26.900446609406725
 10
74.72873480615128
 20
26.976214883490197
 10
74.77493976625564
 20
27.062658283817452
 10
74.80339264020162
 20
27.156454838991934
 10
74.813
 20
27.253999999999998
  0
CIRCLE
  5
A7
330
17
100
AcDbEntity
  8
FLEX_BUTTON
100
AcDbCircle
 10
63.793
 20
108.111
 30
0.0
 40
7.785
  0
CIRCLE
  5
A8
330
17
100
AcDbEntity
  8
FLEX_BUTTON
100
AcDbCircle
 10
63.793
 20
108.111
 30
0.0
 40
2.0
  0
LWPOLYLINE
  5
A9
330
17
100
AcDbEntity
  8
REF_PLATE_OUTLINE
100
AcDbPolyline
 90
36
 70
1
 10
79.14
 20
147.12
 10
78.91903072463715
 20
149.36353870318547
 10
78.2646146238798
 20
151.52085947219854
 10
77.20190054147928
 20
153.50905767972543
 10
75.77172798364529
 20
155.2517279836453
 10
74.02905767972543
 20
156.68190054147928
 10
72.04085947219853
 20
157.7446146238798
 10
69.88353870318548
 20
158.39903072463716
 10
67.64
 20
158.62
 10
38.739999999999995
 20
158.62
 10
36.49646129681452
 20
158.39903072463716
 10
34.33914052780146
 20
157.7446146238798
 10
32.35094232027457
 20
156.68190054147928
 10
30.608272016354697
 20
155.2517279836453
 10
29.178099458520723
 20
153.50905767972543
 10
28.115385376120198
 20
151.52085947219854
 10
27.460969275362846
 20
149.36353870318547
 10
27.239999999999995
 20
147.12
 10
27.239999999999995
 20
7.019999999999998
 10
27.460969275362846
 20
4.77646129681452
 10
28.115385376120194
 20
2.6191405278014646
 10
29.178099458520727
 20
0.6309423202745696
 10
30.608272016354697
 20
-1.1117279836453005
 10
32.35094232027457
 20
-2.541900541479274
 10
34.33914052780146
 20
-3.6046146238798027
 10
36.496461296814516
 20
-4.259030724637153
 10
38.739999999999995
 20
-4.480000000000004
 10
67.64
 20
-4.480000000000004
 10
69.88353870318548
 20
-4.259030724637153
 10
72.04085947219853
 20
-3.604614623879801
 10
74.02905767972543
 20
-2.5419005414792775
 10
75.77172798364529
 20
-1.1117279836453022
 10
77.20190054147928
 20
0.6309423202745705
 10
78.2646146238798
 20
2.6191405278014663
 10
78.91903072463715
 20
4.7764612968145155
 10
79.14
 20
7.019999999999993
  0
LWPOLYLINE
  5
AA
330
17
100
AcDbEntity
  8
REF_PLATE_OPENINGS
100
AcDbPolyline
 90
36
 70
1
 10
47.885999999999996
 20
75.95700000000001
 10
47.85141350472581
 20
76.30816257962904
 10
47.74898315852032
 20
76.64583017825717
 10
47.58264530214458
 20
76.9570264194353
 10
47.35879220613578
 20
77.2297922061358
 10
47.086026419435285
 20
77.4536453021446
 10
46.77483017825716
 20
77.61998315852033
 10
46.43716257962903
 20
77.72241350472582
 10
46.086
 20
77.757
 10
40.086
 20
77.757
 10
39.734837420370965
 20
77.72241350472582
 10
39.397169821742835
 20
77.61998315852033
 10
39.08597358056471
 20
77.4536453021446
 10
38.813207793864215
 20
77.2297922061358
 10
38.58935469785542
 20
76.9570264194353
 10
38.42301684147968
 20
76.64583017825717
 10
38.320586495274185
 20
76.30816257962904
 10
38.286
 20
75.95700000000001
 10
38.286
 20
75.557
 10
38.320586495274185
 20
75.20583742037097
 10
38.42301684147968
 20
74.86816982174284
 10
38.58935469785542
 20
74.55697358056472
 10
38.813207793864215
 20
74.28420779386421
 10
39.08597358056471
 20
74.06035469785542
 10
39.397169821742835
 20
73.89401684147968
 10
39.734837420370965
 20
73.79158649527419
 10
40.086
 20
73.757
 10
46.086
 20
73.757
 10
46.43716257962903
 20
73.79158649527419
 10
46.77483017825716
 20
73.89401684147968
 10
47.086026419435285
 20
74.06035469785542
 10
47.35879220613578
 20
74.28420779386421
 10
47.58264530214458
 20
74.55697358056472
 10
47.74898315852032
 20
74.86816982174284
 10
47.85141350472581
 20
75.20583742037097
 10
47.885999999999996
 20
75.557
  0
LWPOLYLINE
  5
AB
330
17
100
AcDbEntity
  8
REF_PLATE_OPENINGS
100
AcDbPolyline
 90
36
 70
1
 10
68.486
 20
75.95700000000001
 10
68.45141350472582
 20
76.30816257962904
 10
68.34898315852033
 20
76.64583017825717
 10
68.18264530214459
 20
76.9570264194353
 10
67.9587922061358
 20
77.2297922061358
 10
67.6860264194353
 20
77.4536453021446
 10
67.37483017825717
 20
77.61998315852033
 10
67.03716257962904
 20
77.72241350472582
 10
66.686
 20
77.757
 10
60.686
 20
77.757
 10
60.33483742037097
 20
77.72241350472582
 10
59.99716982174284
 20
77.61998315852033
 10
59.68597358056471
 20
77.4536453021446
 10
59.41320779386422
 20
77.2297922061358
 10
59.18935469785542
 20
76.9570264194353
 10
59.02301684147968
 20
76.64583017825717
 10
58.920586495274186
 20
76.30816257962904
 10
58.886
 20
75.95700000000001
 10
58.886
 20
75.557
 10
58.920586495274186
 20
75.20583742037097
 10
59.02301684147968
 20
74.86816982174284
 10
59.18935469785542
 20
74.55697358056472
 10
59.41320779386422
 20
74.28420779386421
 10
59.68597358056471
 20
74.06035469785542
 10
59.99716982174284
 20
73.89401684147968
 10
60.33483742037097
 20
73.79158649527419
 10
60.686
 20
73.757
 10
66.686
 20
73.757
 10
67.03716257962904
 20
73.79158649527419
 10
67.37483017825717
 20
73.89401684147968
 10
67.6860264194353
 20
74.06035469785542
 10
67.9587922061358
 20
74.28420779386421
 10
68.18264530214459
 20
74.55697358056472
 10
68.34898315852033
 20
74.86816982174284
 10
68.45141350472582
 20
75.20583742037097
 10
68.486
 20
75.557
  0
LWPOLYLINE
  5
AC
330
17
100
AcDbEntity
  8
REF_PLATE_OPENINGS
100
AcDbPolyline
 90
36
 70
1
 10
47.885999999999996
 20
66.04
 10
47.85141350472581
 20
66.39116257962904
 10
47.74898315852032
 20
66.72883017825717
 10
47.58264530214458
 20
67.04002641943529
 10
47.35879220613578
 20
67.3127922061358
 10
47.086026419435285
 20
67.53664530214459
 10
46.77483017825716
 20
67.70298315852033
 10
46.43716257962903
 20
67.80541350472582
 10
46.086
 20
67.84
 10
40.086
 20
67.84
 10
39.734837420370965
 20
67.80541350472582
 10
39.397169821742835
 20
67.70298315852033
 10
39.08597358056471
 20
67.53664530214459
 10
38.813207793864215
 20
67.3127922061358
 10
38.58935469785542
 20
67.04002641943529
 10
38.42301684147968
 20
66.72883017825717
 10
38.320586495274185
 20
66.39116257962904
 10
38.286
 20
66.04
 10
38.286
 20
65.64
 10
38.320586495274185
 20
65.28883742037097
 10
38.42301684147968
 20
64.95116982174284
 10
38.58935469785542
 20
64.63997358056471
 10
38.813207793864215
 20
64.36720779386421
 10
39.08597358056471
 20
64.14335469785541
 10
39.397169821742835
 20
63.97701684147968
 10
39.734837420370965
 20
63.87458649527419
 10
40.086
 20
63.84
 10
46.086
 20
63.84
 10
46.43716257962903
 20
63.87458649527419
 10
46.77483017825716
 20
63.97701684147968
 10
47.086026419435285
 20
64.14335469785541
 10
47.35879220613578
 20
64.36720779386421
 10
47.58264530214458
 20
64.63997358056471
 10
47.74898315852032
 20
64.95116982174284
 10
47.85141350472581
 20
65.28883742037097
 10
47.885999999999996
 20
65.64
  0
LWPOLYLINE
  5
AD
330
17
100
AcDbEntity
  8
REF_PLATE_OPENINGS
100
AcDbPolyline
 90
36
 70
1
 10
68.486
 20
66.04
 10
68.45141350472582
 20
66.39116257962904
 10
68.34898315852033
 20
66.72883017825717
 10
68.18264530214459
 20
67.04002641943529
 10
67.9587922061358
 20
67.3127922061358
 10
67.6860264194353
 20
67.53664530214459
 10
67.37483017825717
 20
67.70298315852033
 10
67.03716257962904
 20
67.80541350472582
 10
66.686
 20
67.84
 10
60.686
 20
67.84
 10
60.33483742037097
 20
67.80541350472582
 10
59.99716982174284
 20
67.70298315852033
 10
59.68597358056471
 20
67.53664530214459
 10
59.41320779386422
 20
67.3127922061358
 10
59.18935469785542
 20
67.04002641943529
 10
59.02301684147968
 20
66.72883017825717
 10
58.920586495274186
 20
66.39116257962904
 10
58.886
 20
66.04
 10
58.886
 20
65.64
 10
58.920586495274186
 20
65.28883742037097
 10
59.02301684147968
 20
64.95116982174284
 10
59.18935469785542
 20
64.63997358056471
 10
59.41320779386422
 20
64.36720779386421
 10
59.68597358056471
 20
64.14335469785541
 10
59.99716982174284
 20
63.97701684147968
 10
60.33483742037097
 20
63.87458649527419
 10
60.686
 20
63.84
 10
66.686
 20
63.84
 10
67.03716257962904
 20
63.87458649527419
 10
67.37483017825717
 20
63.97701684147968
 10
67.6860264194353
 20
64.14335469785541
 10
67.9587922061358
 20
64.36720779386421
 10
68.18264530214459
 20
64.63997358056471
 10
68.34898315852033
 20
64.95116982174284
 10
68.45141350472582
 20
65.28883742037097
 10
68.486
 20
65.64
  0
LWPOLYLINE
  5
AE
330
17
100
AcDbEntity
  8
REF_PLATE_OPENINGS
100
AcDbPolyline
 90
36
 70
1
 10
47.885999999999996
 20
56.172000000000004
 10
47.85141350472581
 20
56.52316257962904
 10
47.74898315852032
 20
56.86083017825717
 10
47.58264530214458
 20
57.17202641943529
 10
47.35879220613578
 20
57.44479220613579
 10
47.086026419435285
 20
57.66864530214458
 10
46.77483017825716
 20
57.83498315852032
 10
46.43716257962903
 20
57.93741350472582
 10
46.086
 20
57.972
 10
40.086
 20
57.972
 10
39.734837420370965
 20
57.93741350472582
 10
39.397169821742835
 20
57.83498315852032
 10
39.08597358056471
 20
57.66864530214458
 10
38.813207793864215
 20
57.44479220613579
 10
38.58935469785542
 20
57.17202641943529
 10
38.42301684147968
 20
56.86083017825717
 10
38.320586495274185
 20
56.52316257962904
 10
38.286
 20
56.172000000000004
 10
38.286
 20
55.772
 10
38.320586495274185
 20
55.420837420370965
 10
38.42301684147968
 20
55.083169821742835
 10
38.58935469785542
 20
54.77197358056471
 10
38.813207793864215
 20
54.499207793864215
 10
39.08597358056471
 20
54.27535469785542
 10
39.397169821742835
 20
54.10901684147968
 10
39.734837420370965
 20
54.006586495274185
 10
40.086
 20
53.972
 10
46.086
 20
53.972
 10
46.43716257962903
 20
54.006586495274185
 10
46.77483017825716
 20
54.10901684147968
 10
47.086026419435285
 20
54.27535469785542
 10
47.35879220613578
 20
54.499207793864215
 10
47.58264530214458
 20
54.77197358056471
 10
47.74898315852032
 20
55.083169821742835
 10
47.85141350472581
 20
55.420837420370965
 10
47.885999999999996
 20
55.772
  0
LWPOLYLINE
  5
AF
330
17
100
AcDbEntity
  8
REF_PLATE_OPENINGS
100
AcDbPolyline
 90
36
 70
1
 10
68.486
 20
56.172000000000004
 10
68.45141350472582
 20
56.52316257962904
 10
68.34898315852033
 20
56.86083017825717
 10
68.18264530214459
 20
57.17202641943529
 10
67.9587922061358
 20
57.44479220613579
 10
67.6860264194353
 20
57.66864530214458
 10
67.37483017825717
 20
57.83498315852032
 10
67.03716257962904
 20
57.93741350472582
 10
66.686
 20
57.972
 10
60.686
 20
57.972
 10
60.33483742037097
 20
57.93741350472582
 10
59.99716982174284
 20
57.83498315852032
 10
59.68597358056471
 20
57.66864530214458
 10
59.41320779386422
 20
57.44479220613579
 10
59.18935469785542
 20
57.17202641943529
 10
59.02301684147968
 20
56.86083017825717
 10
58.920586495274186
 20
56.52316257962904
 10
58.886
 20
56.172000000000004
 10
58.886
 20
55.772
 10
58.920586495274186
 20
55.420837420370965
 10
59.02301684147968
 20
55.083169821742835
 10
59.18935469785542
 20
54.77197358056471
 10
59.41320779386422
 20
54.499207793864215
 10
59.68597358056471
 20
54.27535469785542
 10
59.99716982174284
 20
54.10901684147968
 10
60.33483742037097
 20
54.006586495274185
 10
60.686
 20
53.972
 10
66.686
 20
53.972
 10
67.03716257962904
 20
54.006586495274185
 10
67.37483017825717
 20
54.10901684147968
 10
67.6860264194353
 20
54.27535469785542
 10
67.9587922061358
 20
54.499207793864215
 10
68.18264530214459
 20
54.77197358056471
 10
68.34898315852033
 20
55.083169821742835
 10
68.45141350472582
 20
55.420837420370965
 10
68.486
 20
55.772
  0
LWPOLYLINE
  5
B0
330
17
100
AcDbEntity
  8
REF_PLATE_OPENINGS
100
AcDbPolyline
 90
36
 70
1
 10
50.119
 20
45.038
 10
50.107471168241936
 20
45.15505419320967
 10
50.07332771950677
 20
45.26761005941905
 10
50.017881767381525
 20
45.37134213981176
 10
49.943264068711926
 20
45.462264068711924
 10
49.85234213981176
 20
45.53688176738152
 10
49.74861005941905
 20
45.59232771950677
 10
49.636054193209674
 20
45.626471168241935
 10
49.519
 20
45.638
 10
36.719
 20
45.638
 10
36.601945806790326
 20
45.626471168241935
 10
36.48938994058095
 20
45.59232771950677
 10
36.38565786018824
 20
45.53688176738152
 10
36.29473593128807
 20
45.462264068711924
 10
36.220118232618475
 20
45.37134213981176
 10
36.16467228049323
 20
45.26761005941905
 10
36.13052883175806
 20
45.15505419320967
 10
36.119
 20
45.038
 10
36.119
 20
40.238
 10
36.13052883175806
 20
40.120945806790324
 10
36.16467228049323
 20
40.00838994058095
 10
36.220118232618475
 20
39.90465786018824
 10
36.29473593128807
 20
39.81373593128807
 10
36.38565786018824
 20
39.73911823261847
 10
36.48938994058095
 20
39.68367228049323
 10
36.601945806790326
 20
39.64952883175806
 10
36.719
 20
39.638
 10
49.519
 20
39.638
 10
49.636054193209674
 20
39.64952883175806
 10
49.74861005941905
 20
39.68367228049323
 10
49.85234213981176
 20
39.73911823261847
 10
49.943264068711926
 20
39.81373593128807
 10
50.017881767381525
 20
39.90465786018824
 10
50.07332771950677
 20
40.00838994058095
 10
50.107471168241936
 20
40.120945806790324
 10
50.119
 20
40.238
  0
LWPOLYLINE
  5
B1
330
17
100
AcDbEntity
  8
REF_PLATE_OPENINGS
100
AcDbPolyline
 90
36
 70
1
 10
50.119
 20
34.934999999999995
 10
50.107471168241936
 20
35.05205419320967
 10
50.07332771950677
 20
35.16461005941905
 10
50.017881767381525
 20
35.26834213981176
 10
49.943264068711926
 20
35.35926406871192
 10
49.85234213981176
 20
35.43388176738152
 10
49.74861005941905
 20
35.48932771950677
 10
49.636054193209674
 20
35.52347116824193
 10
49.519
 20
35.535
 10
36.719
 20
35.535
 10
36.601945806790326
 20
35.52347116824193
 10
36.48938994058095
 20
35.48932771950677
 10
36.38565786018824
 20
35.43388176738152
 10
36.29473593128807
 20
35.35926406871192
 10
36.220118232618475
 20
35.26834213981176
 10
36.16467228049323
 20
35.16461005941905
 10
36.13052883175806
 20
35.05205419320967
 10
36.119
 20
34.934999999999995
 10
36.119
 20
30.134999999999998
 10
36.13052883175806
 20
30.017945806790323
 10
36.16467228049323
 20
29.905389940580942
 10
36.220118232618475
 20
29.801657860188236
 10
36.29473593128807
 20
29.71073593128807
 10
36.38565786018824
 20
29.636118232618472
 10
36.48938994058095
 20
29.580672280493225
 10
36.601945806790326
 20
29.54652883175806
 10
36.719
 20
29.534999999999997
 10
49.519
 20
29.534999999999997
 10
49.636054193209674
 20
29.54652883175806
 10
49.74861005941905
 20
29.580672280493225
 10
49.85234213981176
 20
29.636118232618472
 10
49.943264068711926
 20
29.71073593128807
 10
50.017881767381525
 20
29.801657860188236
 10
50.07332771950677
 20
29.905389940580946
 10
50.107471168241936
 20
30.01794580679032
 10
50.119
 20
30.134999999999998
  0
LWPOLYLINE
  5
B2
330
17
100
AcDbEntity
  8
REF_PLATE_OPENINGS
100
AcDbPolyline
 90
36
 70
1
 10
70.761
 20
45.038
 10
70.74947116824194
 20
45.15505419320967
 10
70.71532771950677
 20
45.26761005941905
 10
70.65988176738153
 20
45.37134213981176
 10
70.58526406871194
 20
45.462264068711924
 10
70.49434213981176
 20
45.53688176738152
 10
70.39061005941906
 20
45.59232771950677
 10
70.27805419320968
 20
45.626471168241935
 10
70.161
 20
45.638
 10
57.361000000000004
 20
45.638
 10
57.24394580679033
 20
45.626471168241935
 10
57.13138994058095
 20
45.59232771950677
 10
57.02765786018824
 20
45.53688176738152
 10
56.93673593128808
 20
45.462264068711924
 10
56.86211823261848
 20
45.37134213981176
 10
56.80667228049323
 20
45.26761005941905
 10
56.772528831758066
 20
45.15505419320967
 10
56.761
 20
45.038
 10
56.761
 20
40.238
 10
56.772528831758066
 20
40.120945806790324
 10
56.80667228049323
 20
40.00838994058095
 10
56.86211823261848
 20
39.90465786018824
 10
56.93673593128808
 20
39.81373593128807
 10
57.02765786018824
 20
39.73911823261847
 10
57.13138994058095
 20
39.68367228049323
 10
57.24394580679033
 20
39.64952883175806
 10
57.361000000000004
 20
39.638
 10
70.161
 20
39.638
 10
70.27805419320968
 20
39.64952883175806
 10
70.39061005941906
 20
39.68367228049323
 10
70.49434213981176
 20
39.73911823261847
 10
70.58526406871194
 20
39.81373593128807
 10
70.65988176738153
 20
39.90465786018824
 10
70.71532771950677
 20
40.00838994058095
 10
70.74947116824194
 20
40.120945806790324
 10
70.761
 20
40.238
  0
LWPOLYLINE
  5
B3
330
17
100
AcDbEntity
  8
REF_PLATE_OPENINGS
100
AcDbPolyline
 90
36
 70
1
 10
70.761
 20
34.934999999999995
 10
70.74947116824194
 20
35.05205419320967
 10
70.71532771950677
 20
35.16461005941905
 10
70.65988176738153
 20
35.26834213981176
 10
70.58526406871194
 20
35.35926406871192
 10
70.49434213981176
 20
35.43388176738152
 10
70.39061005941906
 20
35.48932771950677
 10
70.27805419320968
 20
35.52347116824193
 10
70.161
 20
35.535
 10
57.361000000000004
 20
35.535
 10
57.24394580679033
 20
35.52347116824193
 10
57.13138994058095
 20
35.48932771950677
 10
57.02765786018824
 20
35.43388176738152
 10
56.93673593128808
 20
35.35926406871192
 10
56.86211823261848
 20
35.26834213981176
 10
56.80667228049323
 20
35.16461005941905
 10
56.772528831758066
 20
35.05205419320967
 10
56.761
 20
34.934999999999995
 10
56.761
 20
30.134999999999998
 10
56.772528831758066
 20
30.017945806790323
 10
56.80667228049323
 20
29.905389940580942
 10
56.86211823261848
 20
29.801657860188236
 10
56.93673593128808
 20
29.71073593128807
 10
57.02765786018824
 20
29.636118232618472
 10
57.13138994058095
 20
29.580672280493225
 10
57.24394580679033
 20
29.54652883175806
 10
57.361000000000004
 20
29.534999999999997
 10
70.161
 20
29.534999999999997
 10
70.27805419320968
 20
29.54652883175806
 10
70.39061005941906
 20
29.580672280493225
 10
70.49434213981176
 20
29.636118232618472
 10
70.58526406871194
 20
29.71073593128807
 10
70.65988176738153
 20
29.801657860188236
 10
70.71532771950677
 20
29.905389940580946
 10
70.74947116824194
 20
30.01794580679032
 10
70.761
 20
30.134999999999998
  0
LWPOLYLINE
  5
B4
330
17
100
AcDbEntity
  8
REF_PLATE_OPENINGS
100
AcDbPolyline
 90
36
 70
1
 10
70.17099999999999
 20
96.295
 10
70.16139264020161
 20
96.39254516100807
 10
70.13293976625563
 20
96.48634171618255
 10
70.08673480615127
 20
96.5727851165098
 10
70.02455339059327
 20
96.64855339059328
 10
69.9487851165098
 20
96.71073480615128
 10
69.86234171618254
 20
96.75693976625564
 10
69.76854516100806
 20
96.78539264020162
 10
69.67099999999999
 20
96.795
 10
57.671
 20
96.795
 10
57.573454838991935
 20
96.78539264020162
 10
57.47965828381746
 20
96.75693976625564
 10
57.393214883490195
 20
96.71073480615128
 10
57.31744660940672
 20
96.64855339059328
 10
57.25526519384873
 20
96.5727851165098
 10
57.20906023374435
 20
96.48634171618255
 10
57.18060735979839
 20
96.39254516100807
 10
57.171
 20
96.295
 10
57.171
 20
86.895
 10
57.18060735979839
 20
86.79745483899192
 10
57.20906023374435
 20
86.70365828381745
 10
57.25526519384873
 20
86.61721488349019
 10
57.31744660940672
 20
86.54144660940672
 10
57.393214883490195
 20
86.47926519384872
 10
57.47965828381746
 20
86.43306023374436
 10
57.573454838991935
 20
86.40460735979838
 10
57.671
 20
86.395
 10
69.67099999999999
 20
86.395
 10
69.76854516100806
 20
86.40460735979838
 10
69.86234171618254
 20
86.43306023374436
 10
69.9487851165098
 20
86.47926519384872
 10
70.02455339059327
 20
86.54144660940672
 10
70.08673480615127
 20
86.61721488349019
 10
70.13293976625563
 20
86.70365828381745
 10
70.16139264020161
 20
86.79745483899192
 10
70.17099999999999
 20
86.895
  0
LWPOLYLINE
  5
B5
330
17
100
AcDbEntity
  8
REF_PLATE_OPENINGS
100
AcDbPolyline
 90
36
 70
1
 10
49.652
 20
96.25699999999999
 10
49.642392640201614
 20
96.35454516100806
 10
49.61393976625565
 20
96.44834171618254
 10
49.56773480615127
 20
96.5347851165098
 10
49.50555339059328
 20
96.61055339059327
 10
49.429785116509805
 20
96.67273480615127
 10
49.34334171618254
 20
96.71893976625563
 10
49.249545161008065
 20
96.74739264020161
 10
49.152
 20
96.75699999999999
 10
37.152
 20
96.75699999999999
 10
37.05445483899194
 20
96.74739264020161
 10
36.96065828381746
 20
96.71893976625563
 10
36.8742148834902
 20
96.67273480615127
 10
36.798446609406724
 20
96.61055339059327
 10
36.73626519384873
 20
96.5347851165098
 10
36.690060233744354
 20
96.44834171618254
 10
36.66160735979839
 20
96.35454516100806
 10
36.652
 20
96.25699999999999
 10
36.652
 20
86.557
 10
36.66160735979839
 20
86.45945483899193
 10
36.690060233744354
 20
86.36565828381745
 10
36.73626519384873
 20
86.2792148834902
 10
36.798446609406724
 20
86.20344660940673
 10
36.8742148834902
 20
86.14126519384872
 10
36.96065828381746
 20
86.09506023374436
 10
37.05445483899194
 20
86.06660735979838
 10
37.152
 20
86.057
 10
49.152
 20
86.057
 10
49.249545161008065
 20
86.06660735979838
 10
49.34334171618254
 20
86.09506023374436
 10
49.429785116509805
 20
86.14126519384872
 10
49.50555339059328
 20
86.20344660940673
 10
49.56773480615127
 20
86.2792148834902
 10
49.61393976625565
 20
86.36565828381745
 10
49.642392640201614
 20
86.45945483899193
 10
49.652
 20
86.557
  0
LWPOLYLINE
  5
B6
330
17
100
AcDbEntity
  8
REF_PLATE_OPENINGS
100
AcDbPolyline
 90
36
 70
1
 10
50.757999999999996
 20
108.919
 10
50.73878528040323
 20
109.11409032201612
 10
50.68187953251128
 20
109.30168343236508
 10
50.589469612302544
 20
109.4745702330196
 10
50.46510678118654
 20
109.62610678118655
 10
50.3135702330196
 20
109.75046961230254
 10
50.14068343236509
 20
109.84287953251129
 10
49.95309032201612
 20
109.89978528040322
 10
49.757999999999996
 20
109.919
 10
36.158
 20
109.919
 10
35.96290967798387
 20
109.89978528040322
 10
35.77531656763491
 20
109.84287953251129
 10
35.6024297669804
 20
109.75046961230254
 10
35.450893218813455
 20
109.62610678118655
 10
35.32653038769745
 20
109.4745702330196
 10
35.234120467488715
 20
109.30168343236508
 10
35.17721471959677
 20
109.11409032201612
 10
35.158
 20
108.919
 10
35.158
 20
105.21900000000001
 10
35.17721471959677
 20
105.02390967798388
 10
35.234120467488715
 20
104.83631656763492
 10
35.32653038769745
 20
104.6634297669804
 10
35.450893218813455
 20
104.51189321881346
 10
35.6024297669804
 20
104.38753038769747
 10
35.77531656763491
 20
104.29512046748872
 10
35.96290967798387
 20
104.23821471959678
 10
36.158
 20
104.21900000000001
 10
49.757999999999996
 20
104.21900000000001
 10
49.95309032201612
 20
104.23821471959678
 10
50.14068343236509
 20
104.29512046748872
 10
50.3135702330196
 20
104.38753038769747
 10
50.46510678118654
 20
104.51189321881346
 10
50.589469612302544
 20
104.6634297669804
 10
50.68187953251128
 20
104.83631656763492
 10
50.73878528040323
 20
105.02390967798388
 10
50.757999999999996
 20
105.21900000000001
  0
LWPOLYLINE
  5
B7
330
17
100
AcDbEntity
  8
REF_PLATE_OPENINGS
100
AcDbPolyline
 90
36
 70
1
 10
69.35499999999999
 20
139.27499999999998
 10
69.29735584120968
 20
139.86027096604838
 10
69.12663859753386
 20
140.42305029709524
 10
68.84940883690763
 20
140.94171069905877
 10
68.47632034355964
 20
141.3963203435596
 10
68.0217106990588
 20
141.76940883690762
 10
67.50305029709526
 20
142.04663859753384
 10
66.94027096604837
 20
142.21735584120967
 10
66.35499999999999
 20
142.27499999999998
 10
37.805
 20
142.27499999999998
 10
37.219729033951616
 20
142.21735584120967
 10
36.65694970290473
 20
142.04663859753384
 10
36.138289300941196
 20
141.76940883690762
 10
35.683679656440354
 20
141.3963203435596
 10
35.31059116309236
 20
140.94171069905877
 10
35.03336140246614
 20
140.42305029709524
 10
34.86264415879031
 20
139.86027096604838
 10
34.805
 20
139.27499999999998
 10
34.805
 20
120.62499999999999
 10
34.86264415879031
 20
120.0397290339516
 10
35.03336140246614
 20
119.47694970290472
 10
35.31059116309236
 20
118.95828930094117
 10
35.683679656440354
 20
118.50367965644034
 10
36.138289300941196
 20
118.13059116309235
 10
36.65694970290473
 20
117.85336140246612
 10
37.219729033951616
 20
117.6826441587903
 10
37.805
 20
117.62499999999999
 10
66.35499999999999
 20
117.62499999999999
 10
66.94027096604837
 20
117.6826441587903
 10
67.50305029709526
 20
117.85336140246612
 10
68.0217106990588
 20
118.13059116309235
 10
68.47632034355964
 20
118.50367965644034
 10
68.84940883690763
 20
118.95828930094117
 10
69.12663859753386
 20
119.47694970290472
 10
69.29735584120968
 20
120.0397290339516
 10
69.35499999999999
 20
120.62499999999999
  0
CIRCLE
  5
B8
330
17
100
AcDbEntity
  8
REF_PLATE_OPENINGS
100
AcDbCircle
 10
43.4
 20
19.1
 30
0.0
 40
2.4
  0
CIRCLE
  5
B9
330
17
100
AcDbEntity
  8
REF_PLATE_OPENINGS
100
AcDbCircle
 10
64.65
 20
19.4
 30
0.0
 40
2.4
  0
CIRCLE
  5
BA
330
17
100
AcDbEntity
  8
REF_PLATE_OPENINGS
100
AcDbCircle
 10
63.793
 20
108.111
 30
0.0
 40
6.2
  0
LWPOLYLINE
  5
BB
330
17
100
AcDbEntity
  8
REF_LIGHT_WINDOWS
100
AcDbPolyline
 90
36
 70
1
 10
46.906
 20
113.294
 10
46.894471168241935
 20
113.41105419320968
 10
46.86032771950677
 20
113.52361005941906
 10
46.804881767381524
 20
113.62734213981176
 10
46.730264068711925
 20
113.71826406871193
 10
46.63934213981176
 20
113.79288176738153
 10
46.53561005941905
 20
113.84832771950677
 10
46.42305419320967
 20
113.88247116824193
 10
46.306
 20
113.89399999999999
 10
40.506
 20
113.89399999999999
 10
40.388945806790325
 20
113.88247116824193
 10
40.27638994058095
 20
113.84832771950677
 10
40.17265786018824
 20
113.79288176738153
 10
40.08173593128807
 20
113.71826406871193
 10
40.007118232618474
 20
113.62734213981176
 10
39.95167228049323
 20
113.52361005941906
 10
39.91752883175806
 20
113.41105419320968
 10
39.906
 20
113.294
 10
39.906
 20
112.89399999999999
 10
39.91752883175806
 20
112.77694580679031
 10
39.95167228049323
 20
112.66438994058093
 10
40.007118232618474
 20
112.56065786018823
 10
40.08173593128807
 20
112.46973593128806
 10
40.17265786018824
 20
112.39511823261846
 10
40.27638994058095
 20
112.33967228049322
 10
40.388945806790325
 20
112.30552883175805
 10
40.506
 20
112.294
 10
46.306
 20
112.294
 10
46.42305419320967
 20
112.30552883175805
 10
46.53561005941905
 20
112.33967228049322
 10
46.63934213981176
 20
112.39511823261846
 10
46.730264068711925
 20
112.46973593128806
 10
46.804881767381524
 20
112.56065786018823
 10
46.86032771950677
 20
112.66438994058093
 10
46.894471168241935
 20
112.77694580679031
 10
46.906
 20
112.89399999999999
  0
LWPOLYLINE
  5
BC
330
17
100
AcDbEntity
  8
REF_LIGHT_WINDOWS
100
AcDbPolyline
 90
36
 70
1
 10
54.91
 20
93.767
 10
54.89078528040323
 20
93.96209032201612
 10
54.83387953251128
 20
94.14968343236508
 10
54.741469612302545
 20
94.3225702330196
 10
54.61710678118654
 20
94.47410678118655
 10
54.4655702330196
 20
94.59846961230254
 10
54.29268343236509
 20
94.69087953251129
 10
54.105090322016125
 20
94.74778528040322
 10
53.91
 20
94.767
 10
52.91
 20
94.767
 10
52.71490967798387
 20
94.74778528040322
 10
52.527316567634905
 20
94.69087953251129
 10
52.354429766980395
 20
94.59846961230254
 10
52.20289321881345
 20
94.47410678118655
 10
52.07853038769745
 20
94.3225702330196
 10
51.98612046748871
 20
94.14968343236508
 10
51.929214719596764
 20
93.96209032201612
 10
51.91
 20
93.767
 10
51.91
 20
90.767
 10
51.929214719596764
 20
90.57190967798387
 10
51.98612046748871
 20
90.38431656763491
 10
52.07853038769745
 20
90.21142976698039
 10
52.20289321881345
 20
90.05989321881344
 10
52.354429766980395
 20
89.93553038769745
 10
52.527316567634905
 20
89.8431204674887
 10
52.71490967798387
 20
89.78621471959677
 10
52.91
 20
89.767
 10
53.91
 20
89.767
 10
54.105090322016125
 20
89.78621471959677
 10
54.29268343236509
 20
89.8431204674887
 10
54.4655702330196
 20
89.93553038769745
 10
54.61710678118654
 20
90.05989321881344
 10
54.741469612302545
 20
90.21142976698039
 10
54.83387953251128
 20
90.38431656763491
 10
54.89078528040323
 20
90.57190967798387
 10
54.91
 20
90.767
  0
LWPOLYLINE
  5
BD
330
17
100
AcDbEntity
  8
REF_LIGHT_WINDOWS
100
AcDbPolyline
 90
36
 70
1
 10
54.855
 20
67.441
 10
54.83578528040323
 20
67.63609032201613
 10
54.77887953251128
 20
67.82368343236509
 10
54.686469612302545
 20
67.99657023301961
 10
54.56210678118654
 20
68.14810678118656
 10
54.4105702330196
 20
68.27246961230254
 10
54.23768343236509
 20
68.3648795325113
 10
54.050090322016125
 20
68.42178528040323
 10
53.855
 20
68.441
 10
52.855
 20
68.441
 10
52.65990967798387
 20
68.42178528040323
 10
52.472316567634905
 20
68.3648795325113
 10
52.299429766980396
 20
68.27246961230254
 10
52.14789321881345
 20
68.14810678118656
 10
52.02353038769745
 20
67.99657023301961
 10
51.93112046748871
 20
67.82368343236509
 10
51.874214719596765
 20
67.63609032201613
 10
51.855
 20
67.441
 10
51.855
 20
64.441
 10
51.874214719596765
 20
64.24590967798387
 10
51.93112046748871
 20
64.05831656763492
 10
52.02353038769745
 20
63.8854297669804
 10
52.14789321881345
 20
63.733893218813456
 10
52.299429766980396
 20
63.609530387697454
 10
52.472316567634905
 20
63.517120467488716
 10
52.65990967798387
 20
63.46021471959677
 10
52.855
 20
63.441
 10
53.855
 20
63.441
 10
54.050090322016125
 20
63.46021471959677
 10
54.23768343236509
 20
63.517120467488716
 10
54.4105702330196
 20
63.609530387697454
 10
54.56210678118654
 20
63.733893218813456
 10
54.686469612302545
 20
63.8854297669804
 10
54.77887953251128
 20
64.05831656763492
 10
54.83578528040323
 20
64.24590967798387
 10
54.855
 20
64.441
  0
LWPOLYLINE
  5
BE
330
17
100
AcDbEntity
  8
REF_LIGHT_WINDOWS
100
AcDbPolyline
 90
36
 70
1
 10
54.961
 20
39.92
 10
54.94178528040323
 20
40.11509032201613
 10
54.884879532511285
 20
40.30268343236509
 10
54.79246961230255
 20
40.4755702330196
 10
54.668106781186545
 20
40.62710678118655
 10
54.5165702330196
 20
40.75146961230255
 10
54.34368343236509
 20
40.84387953251129
 10
54.15609032201613
 20
40.900785280403234
 10
53.961
 20
40.92
 10
52.961
 20
40.92
 10
52.76590967798387
 20
40.900785280403234
 10
52.57831656763491
 20
40.84387953251129
 10
52.4054297669804
 20
40.75146961230255
 10
52.25389321881345
 20
40.62710678118655
 10
52.12953038769745
 20
40.4755702330196
 10
52.03712046748871
 20
40.30268343236509
 10
51.980214719596766
 20
40.11509032201613
 10
51.961
 20
39.92
 10
51.961
 20
35.92
 10
51.980214719596766
 20
35.724909677983874
 10
52.03712046748871
 20
35.53731656763491
 10
52.12953038769745
 20
35.3644297669804
 10
52.25389321881345
 20
35.212893218813456
 10
52.4054297669804
 20
35.08853038769745
 10
52.57831656763491
 20
34.996120467488716
 10
52.76590967798387
 20
34.93921471959677
 10
52.961
 20
34.92
 10
53.961
 20
34.92
 10
54.15609032201613
 20
34.93921471959677
 10
54.34368343236509
 20
34.996120467488716
 10
54.5165702330196
 20
35.08853038769745
 10
54.668106781186545
 20
35.212893218813456
 10
54.79246961230255
 20
35.3644297669804
 10
54.884879532511285
 20
35.53731656763491
 10
54.94178528040323
 20
35.724909677983874
 10
54.961
 20
35.92
  0
LWPOLYLINE
  5
BF
330
17
100
AcDbEntity
  8
REF_LIGHT_WINDOWS
100
AcDbPolyline
 90
36
 70
1
 10
45.388
 20
12.800999999999998
 10
45.37262822432258
 20
12.957072257612902
 10
45.32710362600903
 20
13.10714674589207
 10
45.25317568984204
 20
13.24545618641568
 10
45.15368542494924
 20
13.366685424949237
 10
45.032456186415686
 20
13.466175689842034
 10
44.89414674589207
 20
13.540103626009028
 10
44.744072257612906
 20
13.585628224322583
 10
44.588
 20
13.600999999999999
 10
42.187999999999995
 20
13.600999999999999
 10
42.03192774238709
 20
13.585628224322583
 10
41.881853254107924
 20
13.540103626009028
 10
41.74354381358431
 20
13.466175689842034
 10
41.62231457505076
 20
13.366685424949237
 10
41.52282431015796
 20
13.24545618641568
 10
41.44889637399097
 20
13.10714674589207
 10
41.403371775677414
 20
12.9570722576129
 10
41.388
 20
12.800999999999998
 10
41.388
 20
12.001000000000001
 10
41.403371775677414
 20
11.844927742387098
 10
41.44889637399096
 20
11.69485325410793
 10
41.52282431015796
 20
11.55654381358432
 10
41.62231457505076
 20
11.435314575050763
 10
41.74354381358431
 20
11.335824310157966
 10
41.881853254107924
 20
11.261896373990972
 10
42.03192774238709
 20
11.216371775677416
 10
42.187999999999995
 20
11.201
 10
44.588
 20
11.201
 10
44.744072257612906
 20
11.216371775677416
 10
44.89414674589207
 20
11.261896373990972
 10
45.03245618641568
 20
11.335824310157964
 10
45.15368542494924
 20
11.435314575050763
 10
45.25317568984204
 20
11.55654381358432
 10
45.327103626009034
 20
11.69485325410793
 10
45.37262822432258
 20
11.844927742387098
 10
45.388
 20
12.001000000000001
  0
LWPOLYLINE
  5
C0
330
17
100
AcDbEntity
  8
REF_LIGHT_WINDOWS
100
AcDbPolyline
 90
36
 70
1
 10
65.613
 20
12.800999999999998
 10
65.59762822432259
 20
12.957072257612902
 10
65.55210362600903
 20
13.10714674589207
 10
65.47817568984203
 20
13.24545618641568
 10
65.37868542494924
 20
13.366685424949237
 10
65.25745618641568
 20
13.466175689842034
 10
65.11914674589208
 20
13.540103626009028
 10
64.96907225761291
 20
13.585628224322583
 10
64.813
 20
13.600999999999999
 10
62.413
 20
13.600999999999999
 10
62.25692774238709
 20
13.585628224322583
 10
62.106853254107925
 20
13.540103626009028
 10
61.96854381358431
 20
13.466175689842034
 10
61.84731457505076
 20
13.366685424949237
 10
61.74782431015796
 20
13.24545618641568
 10
61.67389637399097
 20
13.10714674589207
 10
61.628371775677415
 20
12.9570722576129
 10
61.613
 20
12.800999999999998
 10
61.613
 20
12.001000000000001
 10
61.628371775677415
 20
11.844927742387098
 10
61.67389637399097
 20
11.69485325410793
 10
61.74782431015796
 20
11.55654381358432
 10
61.84731457505076
 20
11.435314575050763
 10
61.96854381358432
 20
11.335824310157966
 10
62.106853254107925
 20
11.261896373990972
 10
62.25692774238709
 20
11.216371775677416
 10
62.413
 20
11.201
 10
64.813
 20
11.201
 10
64.96907225761291
 20
11.216371775677416
 10
65.11914674589208
 20
11.261896373990972
 10
65.25745618641568
 20
11.335824310157964
 10
65.37868542494924
 20
11.435314575050763
 10
65.47817568984203
 20
11.55654381358432
 10
65.55210362600903
 20
11.69485325410793
 10
65.59762822432259
 20
11.844927742387098
 10
65.613
 20
12.001000000000001
  0
TEXT
  5
C1
330
17
100
AcDbEntity
  8
NOTES
100
AcDbText
 10
20.0
 20
-26.0
 30
0.0
 40
1.6
  1
821-2222-A I/O-wall flex trace (plate-facing side, back view, mm) from Aidan flatbed scan 06ea8deb (200 dpi, ruler-calibrated, idealised); +-0.15; VERIFY by caliper
 11
20.0
 21
-26.0
 31
0.0
100
AcDbText
  0
ENDSEC
  0
SECTION
  2
OBJECTS
  0
DICTIONARY
  5
A
330
0
100
AcDbDictionary
281
1
  3
ACAD_COLOR
350
B
  3
ACAD_GROUP
350
C
  3
ACAD_LAYOUT
350
D
  3
ACAD_MATERIAL
350
E
  3
ACAD_MLEADERSTYLE
350
F
  3
ACAD_MLINESTYLE
350
10
  3
ACAD_PLOTSETTINGS
350
11
  3
ACAD_PLOTSTYLENAME
350
12
  3
ACAD_SCALELIST
350
14
  3
ACAD_TABLESTYLE
350
15
  3
ACAD_VISUALSTYLE
350
16
  3
EZDXF_META
350
2D
  0
DICTIONARY
  5
B
330
A
100
AcDbDictionary
281
1
  0
DICTIONARY
  5
C
330
A
100
AcDbDictionary
281
1
  0
DICTIONARY
  5
D
330
A
100
AcDbDictionary
281
1
  3
Model
350
1A
  3
Layout1
350
1E
  0
DICTIONARY
  5
E
330
A
100
AcDbDictionary
281
1
  3
ByBlock
350
1F
  3
ByLayer
350
20
  3
Global
350
21
  0
DICTIONARY
  5
F
330
A
100
AcDbDictionary
281
1
  3
Standard
350
2C
  0
DICTIONARY
  5
10
330
A
100
AcDbDictionary
281
1
  3
Standard
350
22
  0
DICTIONARY
  5
11
330
A
100
AcDbDictionary
281
1
  0
ACDBDICTIONARYWDFLT
  5
12
330
A
100
AcDbDictionary
281
1
  3
Normal
350
13
100
AcDbDictionaryWithDefault
340
13
  0
ACDBPLACEHOLDER
  5
13
330
12
  0
DICTIONARY
  5
14
330
A
100
AcDbDictionary
281
1
  0
DICTIONARY
  5
15
330
A
100
AcDbDictionary
281
1
  0
DICTIONARY
  5
16
330
A
100
AcDbDictionary
281
1
  0
LAYOUT
  5
1A
330
D
100
AcDbPlotSettings
  1

  4
A3
  6

 40
7.5
 41
20.0
 42
7.5
 43
20.0
 44
420.0
 45
297.0
 46
0.0
 47
0.0
 48
0.0
 49
0.0
140
0.0
141
0.0
142
1.0
143
1.0
 70
1024
 72
1
 73
0
 74
5
  7

 75
16
 76
0
 77
2
 78
300
147
1.0
148
0.0
149
0.0
100
AcDbLayout
  1
Model
 70
1
 71
0
 10
0.0
 20
0.0
 11
420.0
 21
297.0
 12
0.0
 22
0.0
 32
0.0
 14
1e+20
 24
1e+20
 34
1e+20
 15
-1e+20
 25
-1e+20
 35
-1e+20
146
0.0
 13
0.0
 23
0.0
 33
0.0
 16
1.0
 26
0.0
 36
0.0
 17
0.0
 27
1.0
 37
0.0
 76
1
330
17
  0
LAYOUT
  5
1E
330
D
100
AcDbPlotSettings
  1

  4
A3
  6

 40
7.5
 41
20.0
 42
7.5
 43
20.0
 44
420.0
 45
297.0
 46
0.0
 47
0.0
 48
0.0
 49
0.0
140
0.0
141
0.0
142
1.0
143
1.0
 70
0
 72
1
 73
0
 74
5
  7

 75
16
 76
0
 77
2
 78
300
147
1.0
148
0.0
149
0.0
100
AcDbLayout
  1
Layout1
 70
1
 71
1
 10
0.0
 20
0.0
 11
420.0
 21
297.0
 12
0.0
 22
0.0
 32
0.0
 14
1e+20
 24
1e+20
 34
1e+20
 15
-1e+20
 25
-1e+20
 35
-1e+20
146
0.0
 13
0.0
 23
0.0
 33
0.0
 16
1.0
 26
0.0
 36
0.0
 17
0.0
 27
1.0
 37
0.0
 76
1
330
1B
  0
MATERIAL
  5
1F
102
{ACAD_REACTORS
330
E
102
}
330
E
100
AcDbMaterial
  1
ByBlock
  2

 70
0
 40
1.0
 71
1
 41
1.0
 91
-1023410177
 42
1.0
 72
1
  3

 73
1
 74
1
 75
1
 44
0.5
 73
0
 45
1.0
 46
1.0
 77
1
  4

 78
1
 79
1
170
1
 48
1.0
171
1
  6

172
1
173
1
174
1
140
1.0
141
1.0
175
1
  7

176
1
177
1
178
1
143
1.0
179
1
  8

270
1
271
1
272
1
145
1.0
146
1.0
273
1
  9

274
1
275
1
276
1
 42
1.0
 72
1
  3

 73
1
 74
1
 75
1
 94
63
  0
MATERIAL
  5
20
102
{ACAD_REACTORS
330
E
102
}
330
E
100
AcDbMaterial
  1
ByLayer
  2

 70
0
 40
1.0
 71
1
 41
1.0
 91
-1023410177
 42
1.0
 72
1
  3

 73
1
 74
1
 75
1
 44
0.5
 73
0
 45
1.0
 46
1.0
 77
1
  4

 78
1
 79
1
170
1
 48
1.0
171
1
  6

172
1
173
1
174
1
140
1.0
141
1.0
175
1
  7

176
1
177
1
178
1
143
1.0
179
1
  8

270
1
271
1
272
1
145
1.0
146
1.0
273
1
  9

274
1
275
1
276
1
 42
1.0
 72
1
  3

 73
1
 74
1
 75
1
 94
63
  0
MATERIAL
  5
21
102
{ACAD_REACTORS
330
E
102
}
330
E
100
AcDbMaterial
  1
Global
  2

 70
0
 40
1.0
 71
1
 41
1.0
 91
-1023410177
 42
1.0
 72
1
  3

 73
1
 74
1
 75
1
 44
0.5
 73
0
 45
1.0
 46
1.0
 77
1
  4

 78
1
 79
1
170
1
 48
1.0
171
1
  6

172
1
173
1
174
1
140
1.0
141
1.0
175
1
  7

176
1
177
1
178
1
143
1.0
179
1
  8

270
1
271
1
272
1
145
1.0
146
1.0
273
1
  9

274
1
275
1
276
1
 42
1.0
 72
1
  3

 73
1
 74
1
 75
1
 94
63
  0
MLINESTYLE
  5
22
102
{ACAD_REACTORS
330
10
102
}
330
10
100
AcDbMlineStyle
  2
Standard
 70
0
  3

 62
256
 51
90.0
 52
90.0
 71
2
 49
0.5
 62
256
  6
BYLAYER
 49
-0.5
 62
256
  6
BYLAYER
  0
MLEADERSTYLE
  5
2C
102
{ACAD_REACTORS
330
F
102
}
330
F
100
AcDbMLeaderStyle
179
2
170
2
171
1
172
0
 90
2
 40
0.0
 41
0.0
173
1
 91
-1056964608
 92
-2
290
1
 42
2.0
291
1
 43
8.0
  3
Standard
 44
4.0
300

342
29
174
1
175
1
176
0
178
1
 93
-1056964608
 45
4.0
292
0
297
0
 46
4.0
 94
-1056964608
 47
1.0
 49
1.0
140
1.0
294
1
141
0.0
177
0
142
1.0
295
0
296
0
143
3.75
271
0
272
9
273
9
  0
DICTIONARY
  5
2D
330
A
100
AcDbDictionary
280
1
281
1
  3
CREATED_BY_EZDXF
350
2E
  3
WRITTEN_BY_EZDXF
350
C4
  0
DICTIONARYVAR
  5
2E
330
2D
100
DictionaryVariables
280
0
  1
1.4.4 @ 2026-10-02T14:45:14.982696+00:00
  0
DICTIONARYVAR
  5
C4
330
2D
100
DictionaryVariables
280
0
  1
1.4.4 @ 2026-10-02T14:45:15.003136+00:00
  0
ENDSEC
  0
EOF
