  0
SECTION
  2
HEADER
  9
$ACADVER
  1
AC1024
  9
$ACADMAINTVER
 70
6
  9
$DWGCODEPAGE
  3
ANSI_1252
  9
$LASTSAVEDBY
  1
ezdxf
  9
$INSBASE
 10
0.0
 20
0.0
 30
0.0
  9
$EXTMIN
 10
1e+20
 20
1e+20
 30
1e+20
  9
$EXTMAX
 10
-1e+20
 20
-1e+20
 30
-1e+20
  9
$LIMMIN
 10
0.0
 20
0.0
  9
$LIMMAX
 10
420.0
 20
297.0
  9
$ORTHOMODE
 70
0
  9
$REGENMODE
 70
1
  9
$FILLMODE
 70
1
  9
$QTEXTMODE
 70
0
  9
$MIRRTEXT
 70
1
  9
$LTSCALE
 40
1.0
  9
$ATTMODE
 70
1
  9
$TEXTSIZE
 40
2.5
  9
$TRACEWID
 40
1.0
  9
$TEXTSTYLE
  7
Standard
  9
$CLAYER
  8
0
  9
$CELTYPE
  6
ByLayer
  9
$CECOLOR
 62
256
  9
$CELTSCALE
 40
1.0
  9
$DISPSILH
 70
0
  9
$DIMSCALE
 40
1.0
  9
$DIMASZ
 40
2.5
  9
$DIMEXO
 40
0.625
  9
$DIMDLI
 40
3.75
  9
$DIMRND
 40
0.0
  9
$DIMDLE
 40
0.0
  9
$DIMEXE
 40
1.25
  9
$DIMTP
 40
0.0
  9
$DIMTM
 40
0.0
  9
$DIMTXT
 40
2.5
  9
$DIMCEN
 40
2.5
  9
$DIMTSZ
 40
0.0
  9
$DIMTOL
 70
0
  9
$DIMLIM
 70
0
  9
$DIMTIH
 70
0
  9
$DIMTOH
 70
0
  9
$DIMSE1
 70
0
  9
$DIMSE2
 70
0
  9
$DIMTAD
 70
1
  9
$DIMZIN
 70
8
  9
$DIMBLK
  1

  9
$DIMASO
 70
1
  9
$DIMSHO
 70
1
  9
$DIMPOST
  1

  9
$DIMAPOST
  1

  9
$DIMALT
 70
0
  9
$DIMALTD
 70
3
  9
$DIMALTF
 40
0.03937007874
  9
$DIMLFAC
 40
1.0
  9
$DIMTOFL
 70
1
  9
$DIMTVP
 40
0.0
  9
$DIMTIX
 70
0
  9
$DIMSOXD
 70
0
  9
$DIMSAH
 70
0
  9
$DIMBLK1
  1

  9
$DIMBLK2
  1

  9
$DIMSTYLE
  2
ISO-25
  9
$DIMCLRD
 70
0
  9
$DIMCLRE
 70
0
  9
$DIMCLRT
 70
0
  9
$DIMTFAC
 40
1.0
  9
$DIMGAP
 40
0.625
  9
$DIMJUST
 70
0
  9
$DIMSD1
 70
0
  9
$DIMSD2
 70
0
  9
$DIMTOLJ
 70
0
  9
$DIMTZIN
 70
8
  9
$DIMALTZ
 70
0
  9
$DIMALTTZ
 70
0
  9
$DIMUPT
 70
0
  9
$DIMDEC
 70
2
  9
$DIMTDEC
 70
2
  9
$DIMALTU
 70
2
  9
$DIMALTTD
 70
3
  9
$DIMTXSTY
  7
Standard
  9
$DIMAUNIT
 70
0
  9
$DIMADEC
 70
0
  9
$DIMALTRND
 40
0.0
  9
$DIMAZIN
 70
0
  9
$DIMDSEP
 70
44
  9
$DIMATFIT
 70
3
  9
$DIMFRAC
 70
0
  9
$DIMLDRBLK
  1

  9
$DIMLUNIT
 70
2
  9
$DIMLWD
 70
-2
  9
$DIMLWE
 70
-2
  9
$DIMTMOVE
 70
0
  9
$DIMFXL
 40
1.0
  9
$DIMFXLON
 70
0
  9
$DIMJOGANG
 40
0.785398163397
  9
$DIMTFILL
 70
0
  9
$DIMTFILLCLR
 70
0
  9
$DIMARCSYM
 70
0
  9
$DIMLTYPE
  6

  9
$DIMLTEX1
  6

  9
$DIMLTEX2
  6

  9
$DIMTXTDIRECTION
 70
0
  9
$LUNITS
 70
2
  9
$LUPREC
 70
4
  9
$SKETCHINC
 40
1.0
  9
$FILLETRAD
 40
10.0
  9
$AUNITS
 70
0
  9
$AUPREC
 70
2
  9
$MENU
  1
.
  9
$ELEVATION
 40
0.0
  9
$PELEVATION
 40
0.0
  9
$THICKNESS
 40
0.0
  9
$LIMCHECK
 70
0
  9
$CHAMFERA
 40
0.0
  9
$CHAMFERB
 40
0.0
  9
$CHAMFERC
 40
0.0
  9
$CHAMFERD
 40
0.0
  9
$SKPOLY
 70
0
  9
$TDCREATE
 40
2461316.6810300928
  9
$TDUCREATE
 40
2458532.153996898
  9
$TDUPDATE
 40
2461316.6810300928
  9
$TDUUPDATE
 40
2458532.1544311
  9
$TDINDWG
 40
0.0
  9
$TDUSRTIMER
 40
0.0
  9
$USRTIMER
 70
1
  9
$ANGBASE
 50
0.0
  9
$ANGDIR
 70
0
  9
$PDMODE
 70
0
  9
$PDSIZE
 40
0.0
  9
$PLINEWID
 40
0.0
  9
$SPLFRAME
 70
0
  9
$SPLINETYPE
 70
6
  9
$SPLINESEGS
 70
8
  9
$HANDSEED
  5
C5
  9
$SURFTAB1
 70
6
  9
$SURFTAB2
 70
6
  9
$SURFTYPE
 70
6
  9
$SURFU
 70
6
  9
$SURFV
 70
6
  9
$UCSBASE
  2

  9
$UCSNAME
  2

  9
$UCSORG
 10
0.0
 20
0.0
 30
0.0
  9
$UCSXDIR
 10
1.0
 20
0.0
 30
0.0
  9
$UCSYDIR
 10
0.0
 20
1.0
 30
0.0
  9
$UCSORTHOREF
  2

  9
$UCSORTHOVIEW
 70
0
  9
$UCSORGTOP
 10
0.0
 20
0.0
 30
0.0
  9
$UCSORGBOTTOM
 10
0.0
 20
0.0
 30
0.0
  9
$UCSORGLEFT
 10
0.0
 20
0.0
 30
0.0
  9
$UCSORGRIGHT
 10
0.0
 20
0.0
 30
0.0
  9
$UCSORGFRONT
 10
0.0
 20
0.0
 30
0.0
  9
$UCSORGBACK
 10
0.0
 20
0.0
 30
0.0
  9
$PUCSBASE
  2

  9
$PUCSNAME
  2

  9
$PUCSORG
 10
0.0
 20
0.0
 30
0.0
  9
$PUCSXDIR
 10
1.0
 20
0.0
 30
0.0
  9
$PUCSYDIR
 10
0.0
 20
1.0
 30
0.0
  9
$PUCSORTHOREF
  2

  9
$PUCSORTHOVIEW
 70
0
  9
$PUCSORGTOP
 10
0.0
 20
0.0
 30
0.0
  9
$PUCSORGBOTTOM
 10
0.0
 20
0.0
 30
0.0
  9
$PUCSORGLEFT
 10
0.0
 20
0.0
 30
0.0
  9
$PUCSORGRIGHT
 10
0.0
 20
0.0
 30
0.0
  9
$PUCSORGFRONT
 10
0.0
 20
0.0
 30
0.0
  9
$PUCSORGBACK
 10
0.0
 20
0.0
 30
0.0
  9
$USERI1
 70
0
  9
$USERI2
 70
0
  9
$USERI3
 70
0
  9
$USERI4
 70
0
  9
$USERI5
 70
0
  9
$USERR1
 40
0.0
  9
$USERR2
 40
0.0
  9
$USERR3
 40
0.0
  9
$USERR4
 40
0.0
  9
$USERR5
 40
0.0
  9
$WORLDVIEW
 70
1
  9
$SHADEDGE
 70
3
  9
$SHADEDIF
 70
70
  9
$TILEMODE
 70
1
  9
$MAXACTVP
 70
64
  9
$PINSBASE
 10
0.0
 20
0.0
 30
0.0
  9
$PLIMCHECK
 70
0
  9
$PEXTMIN
 10
1e+20
 20
1e+20
 30
1e+20
  9
$PEXTMAX
 10
-1e+20
 20
-1e+20
 30
-1e+20
  9
$PLIMMIN
 10
0.0
 20
0.0
  9
$PLIMMAX
 10
420.0
 20
297.0
  9
$UNITMODE
 70
0
  9
$VISRETAIN
 70
1
  9
$PLINEGEN
 70
0
  9
$PSLTSCALE
 70
1
  9
$TREEDEPTH
 70
3020
  9
$CMLSTYLE
  2
Standard
  9
$CMLJUST
 70
0
  9
$CMLSCALE
 40
20.0
  9
$PROXYGRAPHICS
 70
1
  9
$MEASUREMENT
 70
1
  9
$CELWEIGHT
370
-1
  9
$ENDCAPS
280
0
  9
$JOINSTYLE
280
0
  9
$LWDISPLAY
290
0
  9
$INSUNITS
 70
6
  9
$HYPERLINKBASE
  1

  9
$STYLESHEET
  1

  9
$XEDIT
290
1
  9
$CEPSNTYPE
380
0
  9
$PSTYLEMODE
290
1
  9
$FINGERPRINTGUID
  2
{819F4772-0499-4495-B28C-DC1A6FC35698}
  9
$VERSIONGUID
  2
{55B19859-AFF4-4DE3-BA5B-BF983D8CB8D8}
  9
$EXTNAMES
290
1
  9
$PSVPSCALE
 40
0.0
  9
$OLESTARTUP
290
0
  9
$SORTENTS
280
127
  9
$INDEXCTL
280
0
  9
$HIDETEXT
280
1
  9
$XCLIPFRAME
280
1
  9
$HALOGAP
280
0
  9
$OBSCOLOR
 70
257
  9
$OBSLTYPE
280
0
  9
$INTERSECTIONDISPLAY
280
0
  9
$INTERSECTIONCOLOR
 70
257
  9
$DIMASSOC
280
2
  9
$PROJECTNAME
  1

  9
$CAMERADISPLAY
290
0
  9
$LENSLENGTH
 40
50.0
  9
$CAMERAHEIGHT
 40
0.0
  9
$STEPSPERSEC
 40
24.0
  9
$STEPSIZE
 40
100.0
  9
$3DDWFPREC
 40
2.0
  9
$PSOLWIDTH
 40
0.005
  9
$PSOLHEIGHT
 40
0.08
  9
$LOFTANG1
 40
1.570796326795
  9
$LOFTANG2
 40
1.570796326795
  9
$LOFTMAG1
 40
0.0
  9
$LOFTMAG2
 40
0.0
  9
$LOFTPARAM
 70
7
  9
$LOFTNORMALS
280
1
  9
$LATITUDE
 40
37.795
  9
$LONGITUDE
 40
-122.394
  9
$NORTHDIRECTION
 40
0.0
  9
$TIMEZONE
 70
-8000
  9
$LIGHTGLYPHDISPLAY
280
1
  9
$TILEMODELIGHTSYNCH
280
1
  9
$CMATERIAL
347
20
  9
$SOLIDHIST
280
0
  9
$SHOWHIST
280
1
  9
$DWFFRAME
280
2
  9
$DGNFRAME
280
2
  9
$REALWORLDSCALE
290
1
  9
$INTERFERECOLOR
 62
256
  9
$CSHADOW
280
0
  9
$SHADOWPLANELOCATION
 40
0.0
  0
ENDSEC
  0
SECTION
  2
CLASSES
  0
CLASS
  1
ACDBDICTIONARYWDFLT
  2
AcDbDictionaryWithDefault
  3
ObjectDBX Classes
 90
0
 91
0
280
0
281
0
  0
CLASS
  1
SUN
  2
AcDbSun
  3
SCENEOE
 90
1153
 91
0
280
0
281
0
  0
CLASS
  1
VISUALSTYLE
  2
AcDbVisualStyle
  3
ObjectDBX Classes
 90
4095
 91
0
280
0
281
0
  0
CLASS
  1
MATERIAL
  2
AcDbMaterial
  3
ObjectDBX Classes
 90
1153
 91
0
280
0
281
0
  0
CLASS
  1
SCALE
  2
AcDbScale
  3
ObjectDBX Classes
 90
1153
 91
0
280
0
281
0
  0
CLASS
  1
TABLESTYLE
  2
AcDbTableStyle
  3
ObjectDBX Classes
 90
4095
 91
0
280
0
281
0
  0
CLASS
  1
MLEADERSTYLE
  2
AcDbMLeaderStyle
  3
ACDB_MLEADERSTYLE_CLASS
 90
4095
 91
0
280
0
281
0
  0
CLASS
  1
DICTIONARYVAR
  2
AcDbDictionaryVar
  3
ObjectDBX Classes
 90
0
 91
0
280
0
281
0
  0
CLASS
  1
CELLSTYLEMAP
  2
AcDbCellStyleMap
  3
ObjectDBX Classes
 90
1152
 91
0
280
0
281
0
  0
CLASS
  1
MENTALRAYRENDERSETTINGS
  2
AcDbMentalRayRenderSettings
  3
SCENEOE
 90
1024
 91
0
280
0
281
0
  0
CLASS
  1
ACDBDETAILVIEWSTYLE
  2
AcDbDetailViewStyle
  3
ObjectDBX Classes
 90
1025
 91
0
280
0
281
0
  0
CLASS
  1
ACDBSECTIONVIEWSTYLE
  2
AcDbSectionViewStyle
  3
ObjectDBX Classes
 90
1025
 91
0
280
0
281
0
  0
CLASS
  1
RASTERVARIABLES
  2
AcDbRasterVariables
  3
ISM
 90
0
 91
0
280
0
281
0
  0
CLASS
  1
LAYOUT
  2
AcDbLayout
  3
ObjectDBX Classes
 90
0
 91
0
280
0
281
0
  0
CLASS
  1
ACDBPLACEHOLDER
  2
AcDbPlaceHolder
  3
ObjectDBX Classes
 90
0
 91
0
280
0
281
0
  0
ENDSEC
  0
SECTION
  2
TABLES
  0
TABLE
  2
VPORT
  5
8
330
0
100
AcDbSymbolTable
 70
1
  0
VPORT
  5
23
330
8
100
AcDbSymbolTableRecord
100
AcDbViewportTableRecord
  2
*Active
 70
0
 10
0.0
 20
0.0
 11
1.0
 21
1.0
 12
0.0
 22
0.0
 13
0.0
 23
0.0
 14
0.5
 24
0.5
 15
0.5
 25
0.5
 16
0.0
 26
0.0
 36
1.0
 17
0.0
 27
0.0
 37
0.0
 40
1000.0
 41
1.34
 42
50.0
 43
0.0
 44
0.0
 50
0.0
 51
0.0
 71
0
 72
1000
 73
1
 74
3
 75
0
 76
0
 77
0
 78
0
281
0
 65
0
146
0.0
  0
ENDTAB
  0
TABLE
  2
LTYPE
  5
2
330
0
100
AcDbSymbolTable
 70
3
  0
LTYPE
  5
24
330
2
100
AcDbSymbolTableRecord
100
AcDbLinetypeTableRecord
  2
ByBlock
 70
0
  3

 72
65
 73
0
 40
0.0
  0
LTYPE
  5
25
330
2
100
AcDbSymbolTableRecord
100
AcDbLinetypeTableRecord
  2
ByLayer
 70
0
  3

 72
65
 73
0
 40
0.0
  0
LTYPE
  5
26
330
2
100
AcDbSymbolTableRecord
100
AcDbLinetypeTableRecord
  2
Continuous
 70
0
  3

 72
65
 73
0
 40
0.0
  0
ENDTAB
  0
TABLE
  2
LAYER
  5
1
330
0
100
AcDbSymbolTable
 70
17
  0
LAYER
  5
27
330
1
100
AcDbSymbolTableRecord
100
AcDbLayerTableRecord
  2
0
 70
0
 62
7
  6
Continuous
370
-3
390
13
347
21
  0
LAYER
  5
28
330
1
100
AcDbSymbolTableRecord
100
AcDbLayerTableRecord
  2
Defpoints
 70
0
 62
7
  6
Continuous
290
0
370
-3
390
13
347
21
  0
LAYER
  5
2F
330
1
100
AcDbSymbolTableRecord
100
AcDbLayerTableRecord
  2
FLEX_OUTLINE
 70
0
 62
30
  6
Continuous
370
-3
390
13
347
21
  0
LAYER
  5
30
330
1
100
AcDbSymbolTableRecord
100
AcDbLayerTableRecord
  2
FLEX_CUTOUTS
 70
0
 62
30
  6
Continuous
370
-3
390
13
347
21
  0
LAYER
  5
31
330
1
100
AcDbSymbolTableRecord
100
AcDbLayerTableRecord
  2
FLEX_HOLES
 70
0
 62
30
  6
Continuous
370
-3
390
13
347
21
  0
LAYER
  5
32
330
1
100
AcDbSymbolTableRecord
100
AcDbLayerTableRecord
  2
FLEX_LIGHT_PADS
 70
0
 62
5
  6
Continuous
370
-3
390
13
347
21
  0
LAYER
  5
33
330
1
100
AcDbSymbolTableRecord
100
AcDbLayerTableRecord
  2
FLEX_LEDS
 70
0
 62
2
  6
Continuous
370
-3
390
13
347
21
  0
LAYER
  5
34
330
1
100
AcDbSymbolTableRecord
100
AcDbLayerTableRecord
  2
FLEX_BUTTON
 70
0
 62
6
  6
Continuous
370
-3
390
13
347
21
  0
LAYER
  5
35
330
1
100
AcDbSymbolTableRecord
100
AcDbLayerTableRecord
  2
FLEX_TAIL
 70
0
 62
8
  6
Continuous
370
-3
390
13
347
21
  0
LAYER
  5
36
330
1
100
AcDbSymbolTableRecord
100
AcDbLayerTableRecord
  2
FLEX_CONTACTS
 70
0
 62
40
  6
Continuous
370
-3
390
13
347
21
  0
LAYER
  5
37
330
1
100
AcDbSymbolTableRecord
100
AcDbLayerTableRecord
  2
FLEX_SILVER_FRAMES
 70
0
 62
9
  6
Continuous
370
-3
390
13
347
21
  0
LAYER
  5
38
330
1
100
AcDbSymbolTableRecord
100
AcDbLayerTableRecord
  2
IGNORED_BLACK_TAB
 70
0
 62
251
  6
Continuous
370
-3
390
13
347
21
  0
LAYER
  5
39
330
1
100
AcDbSymbolTableRecord
100
AcDbLayerTableRecord
  2
REF_PLATE_OUTLINE
 70
0
 62
7
  6
Continuous
370
-3
390
13
347
21
  0
LAYER
  5
3A
330
1
100
AcDbSymbolTableRecord
100
AcDbLayerTableRecord
  2
REF_PLATE_OPENINGS
 70
0
 62
7
  6
Continuous
370
-3
390
13
347
21
  0
LAYER
  5
3B
330
1
100
AcDbSymbolTableRecord
100
AcDbLayerTableRecord
  2
REF_LIGHT_WINDOWS
 70
0
 62
2
  6
Continuous
370
-3
390
13
347
21
  0
LAYER
  5
3C
330
1
100
AcDbSymbolTableRecord
100
AcDbLayerTableRecord
  2
REF_LED_POCKETS
 70
0
 62
1
  6
Continuous
370
-3
390
13
347
21
  0
LAYER
  5
3D
330
1
100
AcDbSymbolTableRecord
100
AcDbLayerTableRecord
  2
NOTES
 70
0
 62
7
  6
Continuous
370
-3
390
13
347
21
  0
ENDTAB
  0
TABLE
  2
STYLE
  5
5
330
0
100
AcDbSymbolTable
 70
1
  0
STYLE
  5
29
330
5
100
AcDbSymbolTableRecord
100
AcDbTextStyleTableRecord
  2
Standard
 70
0
 40
0.0
 41
1.0
 50
0.0
 71
0
 42
2.5
  3
txt
  4

  0
ENDTAB
  0
TABLE
  2
VIEW
  5
7
330
0
100
AcDbSymbolTable
 70
0
  0
ENDTAB
  0
TABLE
  2
UCS
  5
6
330
0
100
AcDbSymbolTable
 70
0
  0
ENDTAB
  0
TABLE
  2
APPID
  5
3
330
0
100
AcDbSymbolTable
 70
3
  0
APPID
  5
2A
330
3
100
AcDbSymbolTableRecord
100
AcDbRegAppTableRecord
  2
ACAD
 70
0
  0
APPID
  5
C2
330
3
100
AcDbSymbolTableRecord
100
AcDbRegAppTableRecord
  2
HATCHBACKGROUNDCOLOR
 70
0
  0
APPID
  5
C3
330
3
100
AcDbSymbolTableRecord
100
AcDbRegAppTableRecord
  2
EZDXF
 70
0
  0
ENDTAB
  0
TABLE
  2
DIMSTYLE
  5
4
330
0
100
AcDbSymbolTable
 70
1
100
AcDbDimStyleTable
  0
DIMSTYLE
105
2B
330
4
100
AcDbSymbolTableRecord
100
AcDbDimStyleTableRecord
  2
Standard
 70
0
 40
1.0
 41
2.5
 42
0.625
 43
3.75
 44
1.25
 45
0.0
 46
0.0
 47
0.0
 48
0.0
 49
2.5
140
2.5
141
2.5
142
0.0
143
0.03937007874
144
1.0
145
0.0
146
1.0
147
0.625
148
0.0
 69
0
 70
0
 71
0
 72
0
 73
0
 74
0
 75
0
 76
0
 77
1
 78
8
 79
3
170
0
171
3
172
1
173
0
174
0
175
0
176
0
177
0
178
0
179
2
271
2
272
2
273
2
274
3
275
0
276
0
277
2
278
44
279
0
280
0
281
0
282
0
283
0
284
8
285
0
286
0
288
0
289
3
290
0
371
-2
372
-2
  0
ENDTAB
  0
TABLE
  2
BLOCK_RECORD
  5
9
330
0
100
AcDbSymbolTable
 70
2
  0
BLOCK_RECORD
  5
17
330
9
100
AcDbSymbolTableRecord
100
AcDbBlockTableRecord
  2
*Model_Space
340
1A
 70
0
280
1
281
0
  0
BLOCK_RECORD
  5
1B
330
9
100
AcDbSymbolTableRecord
100
AcDbBlockTableRecord
  2
*Paper_Space
340
1E
 70
0
280
1
281
0
  0
ENDTAB
  0
ENDSEC
  0
SECTION
  2
BLOCKS
  0
BLOCK
  5
18
330
17
100
AcDbEntity
  8
0
100
AcDbBlockBegin
  2
*Model_Space
 70
0
 10
0.0
 20
0.0
 30
0.0
  3
*Model_Space
  1

  0
ENDBLK
  5
19
330
17
100
AcDbEntity
  8
0
100
AcDbBlockEnd
  0
BLOCK
  5
1C
330
1B
100
AcDbEntity
  8
0
100
AcDbBlockBegin
  2
*Paper_Space
 70
0
 10
0.0
 20
0.0
 30
0.0
  3
*Paper_Space
  1

  0
ENDBLK
  5
1D
330
1B
100
AcDbEntity
  8
0
100
AcDbBlockEnd
  0
ENDSEC
  0
SECTION
  2
ENTITIES
  0
LWPOLYLINE
  5
3E
330
17
100
AcDbEntity
  8
FLEX_OUTLINE
100
AcDbPolyline
 90
179
 70
1
 10
40.358
 20
115.401
 10
39.358
 20
114.951
 10
38.583
 20
114.476
 10
37.858
 20
113.901
 10
37.233
 20
113.276
 10
36.658
 20
112.551
 10
36.183
 20
111.776
 10
35.733
 20
110.776
 10
35.508
 20
110.051
 10
35.383
 20
109.476
 10
35.333
 20
109.001
 10
35.308
 20
108.976
 10
35.308
 20
108.726
 10
35.283
 20
108.701
 10
35.283
 20
108.126
 10
35.258
 20
108.101
 10
35.283
 20
108.076
 10
35.308
 20
107.226
 10
35.333
 20
107.201
 10
35.383
 20
106.726
 10
35.508
 20
106.151
 10
35.783
 20
105.301
 10
34.908
 20
104.651
 10
34.533
 20
104.251
 10
34.283
 20
103.801
 10
34.208
 20
103.576
 10
34.158
 20
103.326
 10
34.158
 20
103.051
 10
34.133
 20
103.026
 10
34.158
 20
103.001
 10
34.158
 20
102.726
 10
34.208
 20
102.476
 10
34.433
 20
101.951
 10
34.608
 20
101.701
 10
34.908
 20
101.401
 10
35.358
 20
101.126
 10
35.333
 20
101.101
 10
31.833
 20
101.101
 10
31.808
 20
101.076
 10
31.608
 20
101.076
 10
31.233
 20
100.926
 10
31.008
 20
100.751
 10
30.858
 20
100.551
 10
30.708
 20
100.176
 10
30.708
 20
99.976
 10
30.683
 20
99.951
 10
30.683
 20
47.151
 10
30.658
 20
47.126
 10
26.533
 20
47.126
 10
26.383
 20
47.076
 10
26.283
 20
46.976
 10
26.233
 20
46.826
 10
26.233
 20
28.526
 10
26.258
 20
28.426
 10
26.383
 20
28.276
 10
26.533
 20
28.226
 10
30.658
 20
28.226
 10
30.683
 20
28.201
 10
30.683
 20
23.301
 10
30.708
 20
23.276
 10
30.733
 20
22.926
 10
30.858
 20
22.601
 10
30.983
 20
22.401
 10
31.283
 20
22.101
 10
31.533
 20
21.951
 10
31.808
 20
21.851
 10
32.158
 20
21.826
 10
32.183
 20
21.801
 10
36.183
 20
21.801
 10
36.208
 20
21.776
 10
36.208
 20
11.251
 10
36.233
 20
11.226
 10
36.233
 20
11.026
 10
36.283
 20
10.826
 10
36.458
 20
10.501
 10
36.708
 20
10.251
 10
37.033
 20
10.076
 10
37.233
 20
10.026
 10
37.433
 20
10.026
 10
37.458
 20
10.001
 10
69.458
 20
10.001
 10
69.483
 20
10.026
 10
69.808
 20
10.051
 10
70.208
 20
10.251
 10
70.458
 20
10.501
 10
70.658
 20
10.901
 10
70.683
 20
11.226
 10
70.708
 20
11.251
 10
70.708
 20
21.776
 10
70.733
 20
21.801
 10
74.683
 20
21.801
 10
74.708
 20
21.826
 10
74.958
 20
21.826
 10
75.158
 20
21.876
 10
75.408
 20
21.976
 10
75.608
 20
22.101
 10
75.983
 20
22.476
 10
76.133
 20
22.726
 10
76.258
 20
23.126
 10
76.258
 20
23.376
 10
76.283
 20
23.401
 10
76.283
 20
114.701
 10
76.258
 20
114.726
 10
76.233
 20
115.001
 10
76.083
 20
115.301
 10
75.883
 20
115.501
 10
75.583
 20
115.651
 10
75.308
 20
115.676
 10
75.283
 20
115.701
 10
56.133
 20
115.701
 10
56.108
 20
115.676
 10
55.683
 20
115.676
 10
55.658
 20
115.651
 10
55.483
 20
115.651
 10
55.083
 20
115.576
 10
54.283
 20
115.301
 10
53.933
 20
115.126
 10
53.433
 20
114.801
 10
53.158
 20
114.576
 10
52.758
 20
114.176
 10
52.533
 20
113.901
 10
52.208
 20
113.401
 10
51.958
 20
112.876
 10
51.783
 20
112.351
 10
51.683
 20
111.851
 10
51.658
 20
111.226
 10
51.633
 20
111.201
 10
51.633
 20
102.926
 10
51.608
 20
102.901
 10
50.858
 20
102.901
 10
50.833
 20
102.926
 10
50.833
 20
108.101
 10
50.783
 20
108.126
 10
50.783
 20
108.701
 10
50.758
 20
108.726
 10
50.733
 20
109.176
 10
50.708
 20
109.201
 10
50.608
 20
109.851
 10
50.458
 20
110.401
 10
50.158
 20
111.226
 10
50.908
 20
111.826
 10
51.283
 20
112.201
 10
51.458
 20
112.451
 10
51.683
 20
112.976
 10
51.733
 20
113.226
 10
51.733
 20
113.501
 10
51.758
 20
113.526
 10
51.733
 20
113.551
 10
51.708
 20
113.976
 10
51.608
 20
114.301
 10
51.458
 20
114.601
 10
51.283
 20
114.851
 10
50.883
 20
115.226
 10
50.433
 20
115.476
 10
49.958
 20
115.601
 10
49.683
 20
115.601
 10
49.658
 20
115.626
 10
49.633
 20
115.601
 10
49.358
 20
115.601
 10
48.883
 20
115.476
 10
48.583
 20
115.326
 10
48.258
 20
115.101
 10
47.508
 20
114.476
 10
47.458
 20
114.476
 10
46.933
 20
114.826
 10
46.083
 20
115.251
 10
45.333
 20
115.526
 10
44.408
 20
115.751
 10
43.933
 20
115.801
 10
43.908
 20
115.826
 10
43.658
 20
115.826
 10
43.633
 20
115.851
 10
43.058
 20
115.851
 10
43.033
 20
115.876
 10
43.008
 20
115.851
 10
42.433
 20
115.851
 10
42.408
 20
115.826
 10
41.958
 20
115.801
 10
41.083
 20
115.626
  0
LWPOLYLINE
  5
3F
330
17
100
AcDbEntity
  8
FLEX_TAIL
100
AcDbPolyline
 90
36
 70
1
 10
-5.267
 20
32.901
 10
-5.292
 20
32.876
 10
-5.892
 20
32.851
 10
-6.342
 20
32.751
 10
-6.842
 20
32.576
 10
-7.242
 20
32.376
 10
-7.667
 20
32.101
 10
-7.967
 20
31.851
 10
-8.467
 20
31.301
 10
-8.742
 20
30.876
 10
-8.942
 20
30.476
 10
-9.117
 20
29.976
 10
-9.217
 20
29.526
 10
-9.242
 20
28.926
 10
-9.267
 20
28.901
 10
-9.267
 20
-19.099
 10
-9.217
 20
-19.249
 10
-9.117
 20
-19.349
 10
-8.967
 20
-19.399
 10
-1.317
 20
-19.399
 10
-1.167
 20
-19.349
 10
-1.067
 20
-19.249
 10
-1.017
 20
-19.099
 10
-1.017
 20
-13.799
 10
-4.767
 20
-11.199
 10
-4.767
 20
24.926
 10
-4.192
 20
25.051
 10
-3.692
 20
25.226
 10
-3.167
 20
25.501
 10
-2.567
 20
25.951
 10
-2.067
 20
26.501
 10
-1.792
 20
26.926
 10
-1.542
 20
27.451
 10
-1.342
 20
28.151
 10
26.533
 20
28.151
 10
26.533
 20
32.901
  0
LWPOLYLINE
  5
40
330
17
100
AcDbEntity
  8
FLEX_CONTACTS
100
AcDbPolyline
 90
4
 70
1
 10
-8.488999999999999
 20
-18.95
 10
-8.188999999999998
 20
-18.95
 10
-8.188999999999998
 20
-17.15
 10
-8.488999999999999
 20
-17.15
  0
LWPOLYLINE
  5
41
330
17
100
AcDbEntity
  8
FLEX_CONTACTS
100
AcDbPolyline
 90
4
 70
1
 10
-7.988999999999999
 20
-18.95
 10
-7.688999999999998
 20
-18.95
 10
-7.688999999999998
 20
-17.15
 10
-7.988999999999999
 20
-17.15
  0
LWPOLYLINE
  5
42
330
17
100
AcDbEntity
  8
FLEX_CONTACTS
100
AcDbPolyline
 90
4
 70
1
 10
-7.488999999999999
 20
-18.95
 10
-7.188999999999998
 20
-18.95
 10
-7.188999999999998
 20
-17.15
 10
-7.488999999999999
 20
-17.15
  0
LWPOLYLINE
  5
43
330
17
100
AcDbEntity
  8
FLEX_CONTACTS
100
AcDbPolyline
 90
4
 70
1
 10
-6.988999999999999
 20
-18.95
 10
-6.688999999999998
 20
-18.95
 10
-6.688999999999998
 20
-17.15
 10
-6.988999999999999
 20
-17.15
  0
LWPOLYLINE
  5
44
330
17
100
AcDbEntity
  8
FLEX_CONTACTS
100
AcDbPolyline
 90
4
 70
1
 10
-6.488999999999999
 20
-18.95
 10
-6.188999999999998
 20
-18.95
 10
-6.188999999999998
 20
-17.15
 10
-6.488999999999999
 20
-17.15
  0
LWPOLYLINE
  5
45
330
17
100
AcDbEntity
  8
FLEX_CONTACTS
100
AcDbPolyline
 90
4
 70
1
 10
-5.988999999999999
 20
-18.95
 10
-5.688999999999998
 20
-18.95
 10
-5.688999999999998
 20
-17.15
 10
-5.988999999999999
 20
-17.15
  0
LWPOLYLINE
  5
46
330
17
100
AcDbEntity
  8
FLEX_CONTACTS
100
AcDbPolyline
 90
4
 70
1
 10
-5.488999999999999
 20
-18.95
 10
-5.188999999999998
 20
-18.95
 10
-5.188999999999998
 20
-17.15
 10
-5.488999999999999
 20
-17.15
  0
LWPOLYLINE
  5
47
330
17
100
AcDbEntity
  8
FLEX_CONTACTS
100
AcDbPolyline
 90
4
 70
1
 10
-4.988999999999999
 20
-18.95
 10
-4.688999999999998
 20
-18.95
 10
-4.688999999999998
 20
-17.15
 10
-4.988999999999999
 20
-17.15
  0
LWPOLYLINE
  5
48
330
17
100
AcDbEntity
  8
FLEX_CONTACTS
100
AcDbPolyline
 90
4
 70
1
 10
-4.488999999999999
 20
-18.95
 10
-4.188999999999998
 20
-18.95
 10
-4.188999999999998
 20
-17.15
 10
-4.488999999999999
 20
-17.15
  0
LWPOLYLINE
  5
49
330
17
100
AcDbEntity
  8
FLEX_CONTACTS
100
AcDbPolyline
 90
4
 70
1
 10
-3.9889999999999985
 20
-18.95
 10
-3.6889999999999987
 20
-18.95
 10
-3.6889999999999987
 20
-17.15
 10
-3.9889999999999985
 20
-17.15
  0
LWPOLYLINE
  5
4A
330
17
100
AcDbEntity
  8
FLEX_CONTACTS
100
AcDbPolyline
 90
4
 70
1
 10
-3.4889999999999985
 20
-18.95
 10
-3.1889999999999987
 20
-18.95
 10
-3.1889999999999987
 20
-17.15
 10
-3.4889999999999985
 20
-17.15
  0
LWPOLYLINE
  5
4B
330
17
100
AcDbEntity
  8
FLEX_CONTACTS
100
AcDbPolyline
 90
4
 70
1
 10
-2.9889999999999985
 20
-18.95
 10
-2.6889999999999987
 20
-18.95
 10
-2.6889999999999987
 20
-17.15
 10
-2.9889999999999985
 20
-17.15
  0
LWPOLYLINE
  5
4C
330
17
100
AcDbEntity
  8
FLEX_CONTACTS
100
AcDbPolyline
 90
4
 70
1
 10
-2.4889999999999985
 20
-18.95
 10
-2.1889999999999987
 20
-18.95
 10
-2.1889999999999987
 20
-17.15
 10
-2.4889999999999985
 20
-17.15
  0
LWPOLYLINE
  5
4D
330
17
100
AcDbEntity
  8
FLEX_CONTACTS
100
AcDbPolyline
 90
4
 70
1
 10
-1.9889999999999985
 20
-18.95
 10
-1.6889999999999987
 20
-18.95
 10
-1.6889999999999987
 20
-17.15
 10
-1.9889999999999985
 20
-17.15
  0
LWPOLYLINE
  5
4E
330
17
100
AcDbEntity
  8
IGNORED_BLACK_TAB
100
AcDbPolyline
 90
36
 70
1
 10
26.236
 20
64.5
 10
26.226392640201617
 20
64.59754516100807
 10
26.197939766255644
 20
64.69134171618255
 10
26.151734806151275
 20
64.7777851165098
 10
26.089553390593274
 20
64.85355339059328
 10
26.0137851165098
 20
64.91573480615128
 10
25.927341716182546
 20
64.96193976625564
 10
25.833545161008065
 20
64.99039264020162
 10
25.736
 20
65.0
 10
13.236
 20
65.0
 10
13.138454838991937
 20
64.99039264020162
 10
13.044658283817455
 20
64.96193976625564
 10
12.9582148834902
 20
64.91573480615128
 10
12.882446609406728
 20
64.85355339059328
 10
12.820265193848728
 20
64.7777851165098
 10
12.774060233744358
 20
64.69134171618255
 10
12.745607359798385
 20
64.59754516100807
 10
12.736
 20
64.5
 10
12.736
 20
28.75
 10
12.745607359798385
 20
28.652454838991936
 10
12.774060233744358
 20
28.558658283817454
 10
12.820265193848728
 20
28.4722148834902
 10
12.882446609406728
 20
28.396446609406727
 10
12.9582148834902
 20
28.334265193848726
 10
13.044658283817457
 20
28.288060233744357
 10
13.138454838991937
 20
28.259607359798384
 10
13.236
 20
28.25
 10
25.736
 20
28.25
 10
25.833545161008065
 20
28.259607359798384
 10
25.927341716182546
 20
28.288060233744357
 10
26.0137851165098
 20
28.334265193848726
 10
26.089553390593274
 20
28.396446609406727
 10
26.151734806151275
 20
28.4722148834902
 10
26.197939766255644
 20
28.558658283817454
 10
26.226392640201617
 20
28.652454838991936
 10
26.236
 20
28.75
  0
LWPOLYLINE
  5
4F
330
17
100
AcDbEntity
  8
FLEX_CUTOUTS
100
AcDbPolyline
 90
36
 70
1
 10
71.928
 20
107.084
 10
71.87227731316936
 20
107.64976193384678
 10
71.70725064428272
 20
108.19378195385876
 10
71.43926187567737
 20
108.69515367575686
 10
71.07860966544098
 20
109.13460966544099
 10
70.63915367575684
 20
109.49526187567739
 10
70.13778195385875
 20
109.76325064428273
 10
69.59376193384676
 20
109.92827731316937
 10
69.02799999999999
 20
109.98400000000001
 10
58.687999999999995
 20
109.98400000000001
 10
58.12223806615322
 20
109.92827731316937
 10
57.57821804614124
 20
109.76325064428273
 10
57.07684632424315
 20
109.49526187567739
 10
56.63739033455901
 20
109.13460966544099
 10
56.27673812432261
 20
108.69515367575686
 10
56.00874935571726
 20
108.19378195385876
 10
55.843722686830624
 20
107.64976193384678
 10
55.788
 20
107.084
 10
55.788
 20
107.054
 10
55.843722686830624
 20
106.48823806615323
 10
56.00874935571726
 20
105.94421804614124
 10
56.27673812432261
 20
105.44284632424315
 10
56.63739033455901
 20
105.00339033455901
 10
57.07684632424315
 20
104.64273812432262
 10
57.57821804614124
 20
104.37474935571727
 10
58.12223806615322
 20
104.20972268683063
 10
58.687999999999995
 20
104.154
 10
69.02799999999999
 20
104.154
 10
69.59376193384676
 20
104.20972268683063
 10
70.13778195385875
 20
104.37474935571727
 10
70.63915367575683
 20
104.64273812432262
 10
71.07860966544098
 20
105.00339033455901
 10
71.43926187567737
 20
105.44284632424315
 10
71.70725064428272
 20
105.94421804614124
 10
71.87227731316936
 20
106.48823806615323
 10
71.928
 20
107.054
  0
TEXT
  5
50
330
17
100
AcDbEntity
  8
NOTES
100
AcDbText
 10
62.358
 20
107.069
 30
0.0
 40
1.0
  1
HDMI
 11
62.358
 21
107.069
 31
0.0
100
AcDbText
  0
LWPOLYLINE
  5
51
330
17
100
AcDbEntity
  8
FLEX_CUTOUTS
100
AcDbPolyline
 90
36
 70
1
 10
70.73400000000001
 20
95.492
 10
70.70325644864518
 20
95.80414451522581
 10
70.61220725201807
 20
96.10429349178415
 10
70.46435137968409
 20
96.38091237283138
 10
70.26537084989849
 20
96.62337084989848
 10
70.02291237283139
 20
96.82235137968408
 10
69.74629349178416
 20
96.97020725201806
 10
69.44614451522582
 20
97.06125644864517
 10
69.13400000000001
 20
97.092
 10
58.194
 20
97.092
 10
57.8818554847742
 20
97.06125644864517
 10
57.58170650821586
 20
96.97020725201806
 10
57.30508762716864
 20
96.82235137968408
 10
57.06262915010153
 20
96.62337084989848
 10
56.86364862031593
 20
96.38091237283138
 10
56.71579274798194
 20
96.10429349178415
 10
56.62474355135483
 20
95.80414451522581
 10
56.594
 20
95.492
 10
56.594
 20
87.32199999999999
 10
56.62474355135483
 20
87.00985548477418
 10
56.71579274798194
 20
86.70970650821585
 10
56.86364862031593
 20
86.43308762716862
 10
57.06262915010153
 20
86.19062915010151
 10
57.30508762716864
 20
85.99164862031591
 10
57.58170650821586
 20
85.84379274798192
 10
57.8818554847742
 20
85.75274355135483
 10
58.194
 20
85.722
 10
69.13400000000001
 20
85.722
 10
69.44614451522582
 20
85.75274355135483
 10
69.74629349178416
 20
85.84379274798194
 10
70.02291237283137
 20
85.99164862031591
 10
70.26537084989849
 20
86.19062915010151
 10
70.46435137968409
 20
86.43308762716862
 10
70.61220725201807
 20
86.70970650821585
 10
70.70325644864518
 20
87.00985548477418
 10
70.73400000000001
 20
87.32199999999999
  0
TEXT
  5
52
330
17
100
AcDbEntity
  8
NOTES
100
AcDbText
 10
62.164
 20
91.407
 30
0.0
 40
1.0
  1
ETH1
 11
62.164
 21
91.407
 31
0.0
100
AcDbText
  0
LWPOLYLINE
  5
53
330
17
100
AcDbEntity
  8
FLEX_CUTOUTS
100
AcDbPolyline
 90
36
 70
1
 10
50.245000000000005
 20
95.61
 10
50.21906012854436
 20
95.87337193472177
 10
50.14223736889024
 20
96.12662263369288
 10
50.01748397660844
 20
96.36001981457646
 10
49.849594154601846
 20
96.56459415460183
 10
49.645019814576465
 20
96.73248397660844
 10
49.41162263369287
 20
96.85723736889024
 10
49.15837193472178
 20
96.93406012854436
 10
48.895
 20
96.96
 10
37.395
 20
96.96
 10
37.13162806527823
 20
96.93406012854436
 10
36.878377366307134
 20
96.85723736889024
 10
36.64498018542354
 20
96.73248397660844
 10
36.44040584539816
 20
96.56459415460183
 10
36.27251602339157
 20
96.36001981457646
 10
36.147762631109764
 20
96.12662263369288
 10
36.07093987145564
 20
95.87337193472177
 10
36.045
 20
95.61
 10
36.045
 20
87.58
 10
36.07093987145564
 20
87.31662806527822
 10
36.147762631109764
 20
87.06337736630712
 10
36.27251602339157
 20
86.82998018542354
 10
36.44040584539816
 20
86.62540584539816
 10
36.64498018542354
 20
86.45751602339156
 10
36.878377366307134
 20
86.33276263110976
 10
37.13162806527823
 20
86.25593987145564
 10
37.395
 20
86.23
 10
48.895
 20
86.23
 10
49.15837193472178
 20
86.25593987145564
 10
49.41162263369287
 20
86.33276263110976
 10
49.645019814576465
 20
86.45751602339156
 10
49.84959415460184
 20
86.62540584539816
 10
50.01748397660844
 20
86.82998018542354
 10
50.14223736889024
 20
87.06337736630712
 10
50.21906012854436
 20
87.31662806527822
 10
50.245000000000005
 20
87.58
  0
TEXT
  5
54
330
17
100
AcDbEntity
  8
NOTES
100
AcDbText
 10
41.645
 20
91.595
 30
0.0
 40
1.0
  1
ETH2
 11
41.645
 21
91.595
 31
0.0
100
AcDbText
  0
LWPOLYLINE
  5
55
330
17
100
AcDbEntity
  8
FLEX_CUTOUTS
100
AcDbPolyline
 90
36
 70
1
 10
68.645
 20
76.557
 10
68.60176688090726
 20
76.9959532245363
 10
68.4737289481504
 20
77.41803772282145
 10
68.26580662768072
 20
77.80703302429411
 10
67.98599025766973
 20
78.14799025766973
 10
67.64503302429411
 20
78.42780662768072
 10
67.25603772282145
 20
78.6357289481504
 10
66.83395322453629
 20
78.76376688090727
 10
66.395
 20
78.807
 10
61.065
 20
78.807
 10
60.626046775463706
 20
78.76376688090727
 10
60.20396227717855
 20
78.6357289481504
 10
59.81496697570589
 20
78.42780662768072
 10
59.47400974233027
 20
78.14799025766973
 10
59.19419337231927
 20
77.80703302429411
 10
58.986271051849606
 20
77.41803772282145
 10
58.85823311909273
 20
76.9959532245363
 10
58.815
 20
76.557
 10
58.815
 20
74.95700000000001
 10
58.85823311909273
 20
74.51804677546372
 10
58.9862710518496
 20
74.09596227717856
 10
59.19419337231927
 20
73.7069669757059
 10
59.47400974233027
 20
73.36600974233028
 10
59.81496697570589
 20
73.08619337231929
 10
60.20396227717855
 20
72.87827105184961
 10
60.626046775463706
 20
72.75023311909274
 10
61.065
 20
72.70700000000001
 10
66.395
 20
72.70700000000001
 10
66.83395322453629
 20
72.75023311909274
 10
67.25603772282145
 20
72.87827105184961
 10
67.6450330242941
 20
73.08619337231929
 10
67.98599025766973
 20
73.36600974233028
 10
68.26580662768072
 20
73.7069669757059
 10
68.4737289481504
 20
74.09596227717856
 10
68.60176688090726
 20
74.51804677546372
 10
68.645
 20
74.95700000000001
  0
TEXT
  5
56
330
17
100
AcDbEntity
  8
NOTES
100
AcDbText
 10
62.23
 20
75.757
 30
0.0
 40
1.0
  1
C4
 11
62.23
 21
75.757
 31
0.0
100
AcDbText
  0
LWPOLYLINE
  5
57
330
17
100
AcDbEntity
  8
FLEX_CUTOUTS
100
AcDbPolyline
 90
36
 70
1
 10
48.045
 20
76.557
 10
48.00176688090727
 20
76.9959532245363
 10
47.873728948150394
 20
77.41803772282145
 10
47.66580662768073
 20
77.80703302429411
 10
47.38599025766973
 20
78.14799025766973
 10
47.045033024294106
 20
78.42780662768072
 10
46.65603772282145
 20
78.6357289481504
 10
46.23395322453629
 20
78.76376688090727
 10
45.795
 20
78.807
 10
40.465
 20
78.807
 10
40.02604677546371
 20
78.76376688090727
 10
39.60396227717855
 20
78.6357289481504
 10
39.2149669757059
 20
78.42780662768072
 10
38.87400974233027
 20
78.14799025766973
 10
38.594193372319275
 20
77.80703302429411
 10
38.38627105184961
 20
77.41803772282145
 10
38.258233119092736
 20
76.9959532245363
 10
38.215
 20
76.557
 10
38.215
 20
74.95700000000001
 10
38.258233119092736
 20
74.51804677546372
 10
38.386271051849604
 20
74.09596227717856
 10
38.594193372319275
 20
73.7069669757059
 10
38.87400974233027
 20
73.36600974233028
 10
39.2149669757059
 20
73.08619337231929
 10
39.60396227717855
 20
72.87827105184961
 10
40.02604677546371
 20
72.75023311909274
 10
40.465
 20
72.70700000000001
 10
45.795
 20
72.70700000000001
 10
46.23395322453629
 20
72.75023311909274
 10
46.65603772282145
 20
72.87827105184961
 10
47.045033024294106
 20
73.08619337231929
 10
47.38599025766973
 20
73.36600974233028
 10
47.66580662768073
 20
73.7069669757059
 10
47.8737289481504
 20
74.09596227717856
 10
48.00176688090727
 20
74.51804677546372
 10
48.045
 20
74.95700000000001
  0
TEXT
  5
58
330
17
100
AcDbEntity
  8
NOTES
100
AcDbText
 10
41.63
 20
75.757
 30
0.0
 40
1.0
  1
C1
 11
41.63
 21
75.757
 31
0.0
100
AcDbText
  0
LWPOLYLINE
  5
59
330
17
100
AcDbEntity
  8
FLEX_CUTOUTS
100
AcDbPolyline
 90
36
 70
1
 10
68.645
 20
66.64
 10
68.60176688090726
 20
67.07895322453629
 10
68.4737289481504
 20
67.50103772282145
 10
68.26580662768072
 20
67.89003302429411
 10
67.98599025766973
 20
68.23099025766973
 10
67.64503302429411
 20
68.51080662768072
 10
67.25603772282145
 20
68.7187289481504
 10
66.83395322453629
 20
68.84676688090727
 10
66.395
 20
68.89
 10
61.065
 20
68.89
 10
60.626046775463706
 20
68.84676688090727
 10
60.20396227717855
 20
68.7187289481504
 10
59.81496697570589
 20
68.51080662768072
 10
59.47400974233027
 20
68.23099025766973
 10
59.19419337231927
 20
67.89003302429411
 10
58.986271051849606
 20
67.50103772282145
 10
58.85823311909273
 20
67.07895322453629
 10
58.815
 20
66.64
 10
58.815
 20
65.04
 10
58.85823311909273
 20
64.60104677546371
 10
58.9862710518496
 20
64.17896227717856
 10
59.19419337231927
 20
63.7899669757059
 10
59.47400974233027
 20
63.449009742330276
 10
59.81496697570589
 20
63.16919337231928
 10
60.20396227717855
 20
62.96127105184961
 10
60.626046775463706
 20
62.83323311909274
 10
61.065
 20
62.790000000000006
 10
66.395
 20
62.790000000000006
 10
66.83395322453629
 20
62.83323311909274
 10
67.25603772282145
 20
62.961271051849614
 10
67.6450330242941
 20
63.16919337231928
 10
67.98599025766973
 20
63.449009742330276
 10
68.26580662768072
 20
63.7899669757059
 10
68.4737289481504
 20
64.17896227717856
 10
68.60176688090726
 20
64.60104677546371
 10
68.645
 20
65.04
  0
TEXT
  5
5A
330
17
100
AcDbEntity
  8
NOTES
100
AcDbText
 10
62.23
 20
65.84
 30
0.0
 40
1.0
  1
C5
 11
62.23
 21
65.84
 31
0.0
100
AcDbText
  0
LWPOLYLINE
  5
5B
330
17
100
AcDbEntity
  8
FLEX_CUTOUTS
100
AcDbPolyline
 90
36
 70
1
 10
48.045
 20
66.64
 10
48.00176688090727
 20
67.07895322453629
 10
47.873728948150394
 20
67.50103772282145
 10
47.66580662768073
 20
67.89003302429411
 10
47.38599025766973
 20
68.23099025766973
 10
47.045033024294106
 20
68.51080662768072
 10
46.65603772282145
 20
68.7187289481504
 10
46.23395322453629
 20
68.84676688090727
 10
45.795
 20
68.89
 10
40.465
 20
68.89
 10
40.02604677546371
 20
68.84676688090727
 10
39.60396227717855
 20
68.7187289481504
 10
39.2149669757059
 20
68.51080662768072
 10
38.87400974233027
 20
68.23099025766973
 10
38.594193372319275
 20
67.89003302429411
 10
38.38627105184961
 20
67.50103772282145
 10
38.258233119092736
 20
67.07895322453629
 10
38.215
 20
66.64
 10
38.215
 20
65.04
 10
38.258233119092736
 20
64.60104677546371
 10
38.386271051849604
 20
64.17896227717856
 10
38.594193372319275
 20
63.7899669757059
 10
38.87400974233027
 20
63.449009742330276
 10
39.2149669757059
 20
63.16919337231928
 10
39.60396227717855
 20
62.96127105184961
 10
40.02604677546371
 20
62.83323311909274
 10
40.465
 20
62.790000000000006
 10
45.795
 20
62.790000000000006
 10
46.23395322453629
 20
62.83323311909274
 10
46.65603772282145
 20
62.961271051849614
 10
47.045033024294106
 20
63.16919337231928
 10
47.38599025766973
 20
63.449009742330276
 10
47.66580662768073
 20
63.7899669757059
 10
47.8737289481504
 20
64.17896227717856
 10
48.00176688090727
 20
64.60104677546371
 10
48.045
 20
65.04
  0
TEXT
  5
5C
330
17
100
AcDbEntity
  8
NOTES
100
AcDbText
 10
41.63
 20
65.84
 30
0.0
 40
1.0
  1
C2
 11
41.63
 21
65.84
 31
0.0
100
AcDbText
  0
LWPOLYLINE
  5
5D
330
17
100
AcDbEntity
  8
FLEX_CUTOUTS
100
AcDbPolyline
 90
36
 70
1
 10
68.645
 20
56.772
 10
68.60176688090726
 20
57.21095322453629
 10
68.4737289481504
 20
57.63303772282145
 10
68.26580662768072
 20
58.0220330242941
 10
67.98599025766973
 20
58.36299025766973
 10
67.64503302429411
 20
58.64280662768073
 10
67.25603772282145
 20
58.85072894815039
 10
66.83395322453629
 20
58.978766880907266
 10
66.395
 20
59.022
 10
61.065
 20
59.022
 10
60.626046775463706
 20
58.978766880907266
 10
60.20396227717855
 20
58.85072894815039
 10
59.81496697570589
 20
58.64280662768073
 10
59.47400974233027
 20
58.36299025766973
 10
59.19419337231927
 20
58.0220330242941
 10
58.986271051849606
 20
57.63303772282145
 10
58.85823311909273
 20
57.21095322453629
 10
58.815
 20
56.772
 10
58.815
 20
55.172000000000004
 10
58.85823311909273
 20
54.73304677546371
 10
58.9862710518496
 20
54.310962277178554
 10
59.19419337231927
 20
53.9219669757059
 10
59.47400974233027
 20
53.581009742330274
 10
59.81496697570589
 20
53.301193372319275
 10
60.20396227717855
 20
53.09327105184961
 10
60.626046775463706
 20
52.96523311909274
 10
61.065
 20
52.922000000000004
 10
66.395
 20
52.922000000000004
 10
66.83395322453629
 20
52.96523311909274
 10
67.25603772282145
 20
53.09327105184961
 10
67.6450330242941
 20
53.301193372319275
 10
67.98599025766973
 20
53.581009742330274
 10
68.26580662768072
 20
53.9219669757059
 10
68.4737289481504
 20
54.310962277178554
 10
68.60176688090726
 20
54.73304677546371
 10
68.645
 20
55.172000000000004
  0
TEXT
  5
5E
330
17
100
AcDbEntity
  8
NOTES
100
AcDbText
 10
62.23
 20
55.972
 30
0.0
 40
1.0
  1
C6
 11
62.23
 21
55.972
 31
0.0
100
AcDbText
  0
LWPOLYLINE
  5
5F
330
17
100
AcDbEntity
  8
FLEX_CUTOUTS
100
AcDbPolyline
 90
36
 70
1
 10
48.045
 20
56.772
 10
48.00176688090727
 20
57.21095322453629
 10
47.873728948150394
 20
57.63303772282145
 10
47.66580662768073
 20
58.0220330242941
 10
47.38599025766973
 20
58.36299025766973
 10
47.045033024294106
 20
58.64280662768073
 10
46.65603772282145
 20
58.85072894815039
 10
46.23395322453629
 20
58.978766880907266
 10
45.795
 20
59.022
 10
40.465
 20
59.022
 10
40.02604677546371
 20
58.978766880907266
 10
39.60396227717855
 20
58.85072894815039
 10
39.2149669757059
 20
58.64280662768073
 10
38.87400974233027
 20
58.36299025766973
 10
38.594193372319275
 20
58.0220330242941
 10
38.38627105184961
 20
57.63303772282145
 10
38.258233119092736
 20
57.21095322453629
 10
38.215
 20
56.772
 10
38.215
 20
55.172000000000004
 10
38.258233119092736
 20
54.73304677546371
 10
38.386271051849604
 20
54.310962277178554
 10
38.594193372319275
 20
53.9219669757059
 10
38.87400974233027
 20
53.581009742330274
 10
39.2149669757059
 20
53.301193372319275
 10
39.60396227717855
 20
53.09327105184961
 10
40.02604677546371
 20
52.96523311909274
 10
40.465
 20
52.922000000000004
 10
45.795
 20
52.922000000000004
 10
46.23395322453629
 20
52.96523311909274
 10
46.65603772282145
 20
53.09327105184961
 10
47.045033024294106
 20
53.301193372319275
 10
47.38599025766973
 20
53.581009742330274
 10
47.66580662768073
 20
53.9219669757059
 10
47.8737289481504
 20
54.310962277178554
 10
48.00176688090727
 20
54.73304677546371
 10
48.045
 20
55.172000000000004
  0
TEXT
  5
60
330
17
100
AcDbEntity
  8
NOTES
100
AcDbText
 10
41.63
 20
55.972
 30
0.0
 40
1.0
  1
C3
 11
41.63
 21
55.972
 31
0.0
100
AcDbText
  0
LWPOLYLINE
  5
61
330
17
100
AcDbEntity
  8
FLEX_CUTOUTS
100
AcDbPolyline
 90
36
 70
1
 10
71.027
 20
44.193
 10
70.9954878598613
 20
44.51294812810645
 10
70.90216243331851
 20
44.82060082907874
 10
70.75061016417618
 20
45.10413518215215
 10
70.54665512114593
 20
45.352655121145936
 10
70.29813518215215
 20
45.55661016417617
 10
70.01460082907874
 20
45.708162433318506
 10
69.70694812810645
 20
45.8014878598613
 10
69.387
 20
45.833
 10
58.007000000000005
 20
45.833
 10
57.68705187189355
 20
45.8014878598613
 10
57.37939917092126
 20
45.708162433318506
 10
57.095864817847854
 20
45.55661016417617
 10
56.84734487885407
 20
45.352655121145936
 10
56.64338983582383
 20
45.10413518215215
 10
56.4918375666815
 20
44.82060082907874
 10
56.398512140138706
 20
44.51294812810645
 10
56.367000000000004
 20
44.193
 10
56.367000000000004
 20
41.083
 10
56.398512140138706
 20
40.763051871893545
 10
56.4918375666815
 20
40.455399170921254
 10
56.64338983582383
 20
40.17186481784785
 10
56.84734487885407
 20
39.92334487885406
 10
57.095864817847854
 20
39.719389835823826
 10
57.37939917092126
 20
39.56783756668149
 10
57.68705187189355
 20
39.4745121401387
 10
58.007000000000005
 20
39.443
 10
69.387
 20
39.443
 10
69.70694812810645
 20
39.4745121401387
 10
70.01460082907874
 20
39.56783756668149
 10
70.29813518215215
 20
39.719389835823826
 10
70.54665512114593
 20
39.92334487885406
 10
70.75061016417618
 20
40.17186481784785
 10
70.90216243331851
 20
40.455399170921254
 10
70.9954878598613
 20
40.763051871893545
 10
71.027
 20
41.083
  0
TEXT
  5
62
330
17
100
AcDbEntity
  8
NOTES
100
AcDbText
 10
62.197
 20
42.638
 30
0.0
 40
1.0
  1
A3
 11
62.197
 21
42.638
 31
0.0
100
AcDbText
  0
LWPOLYLINE
  5
63
330
17
100
AcDbEntity
  8
FLEX_CUTOUTS
100
AcDbPolyline
 90
36
 70
1
 10
71.027
 20
34.089999999999996
 10
70.9954878598613
 20
34.40994812810645
 10
70.90216243331851
 20
34.71760082907874
 10
70.75061016417618
 20
35.00113518215215
 10
70.54665512114593
 20
35.249655121145935
 10
70.29813518215215
 20
35.45361016417617
 10
70.01460082907874
 20
35.605162433318505
 10
69.70694812810645
 20
35.698487859861295
 10
69.387
 20
35.73
 10
58.007000000000005
 20
35.73
 10
57.68705187189355
 20
35.698487859861295
 10
57.37939917092126
 20
35.605162433318505
 10
57.095864817847854
 20
35.45361016417617
 10
56.84734487885407
 20
35.249655121145935
 10
56.64338983582383
 20
35.00113518215215
 10
56.4918375666815
 20
34.71760082907874
 10
56.398512140138706
 20
34.40994812810645
 10
56.367000000000004
 20
34.089999999999996
 10
56.367000000000004
 20
30.979999999999997
 10
56.398512140138706
 20
30.660051871893547
 10
56.4918375666815
 20
30.35239917092125
 10
56.64338983582383
 20
30.06886481784785
 10
56.84734487885407
 20
29.82034487885406
 10
57.095864817847854
 20
29.616389835823824
 10
57.37939917092126
 20
29.464837566681485
 10
57.68705187189355
 20
29.371512140138698
 10
58.007000000000005
 20
29.339999999999996
 10
69.387
 20
29.339999999999996
 10
69.70694812810645
 20
29.371512140138698
 10
70.01460082907874
 20
29.46483756668149
 10
70.29813518215215
 20
29.616389835823824
 10
70.54665512114593
 20
29.82034487885406
 10
70.75061016417618
 20
30.06886481784785
 10
70.90216243331851
 20
30.35239917092125
 10
70.9954878598613
 20
30.660051871893547
 10
71.027
 20
30.979999999999997
  0
TEXT
  5
64
330
17
100
AcDbEntity
  8
NOTES
100
AcDbText
 10
62.197
 20
32.535
 30
0.0
 40
1.0
  1
A4
 11
62.197
 21
32.535
 31
0.0
100
AcDbText
  0
LWPOLYLINE
  5
65
330
17
100
AcDbEntity
  8
FLEX_CUTOUTS
100
AcDbPolyline
 90
36
 70
1
 10
50.385
 20
44.193
 10
50.353487859861296
 20
44.51294812810645
 10
50.260162433318506
 20
44.82060082907874
 10
50.10861016417617
 20
45.10413518215215
 10
49.904655121145936
 20
45.352655121145936
 10
49.65613518215215
 20
45.55661016417617
 10
49.37260082907874
 20
45.708162433318506
 10
49.06494812810645
 20
45.8014878598613
 10
48.745
 20
45.833
 10
37.365
 20
45.833
 10
37.04505187189355
 20
45.8014878598613
 10
36.73739917092126
 20
45.708162433318506
 10
36.45386481784785
 20
45.55661016417617
 10
36.20534487885406
 20
45.352655121145936
 10
36.00138983582383
 20
45.10413518215215
 10
35.849837566681494
 20
44.82060082907874
 10
35.7565121401387
 20
44.51294812810645
 10
35.725
 20
44.193
 10
35.725
 20
41.083
 10
35.7565121401387
 20
40.763051871893545
 10
35.849837566681494
 20
40.455399170921254
 10
36.00138983582383
 20
40.17186481784785
 10
36.20534487885406
 20
39.92334487885406
 10
36.45386481784785
 20
39.719389835823826
 10
36.73739917092126
 20
39.56783756668149
 10
37.04505187189355
 20
39.4745121401387
 10
37.365
 20
39.443
 10
48.745
 20
39.443
 10
49.06494812810645
 20
39.4745121401387
 10
49.37260082907874
 20
39.56783756668149
 10
49.65613518215214
 20
39.719389835823826
 10
49.904655121145936
 20
39.92334487885406
 10
50.10861016417617
 20
40.17186481784785
 10
50.260162433318506
 20
40.455399170921254
 10
50.353487859861296
 20
40.763051871893545
 10
50.385
 20
41.083
  0
TEXT
  5
66
330
17
100
AcDbEntity
  8
NOTES
100
AcDbText
 10
41.555
 20
42.638
 30
0.0
 40
1.0
  1
A1
 11
41.555
 21
42.638
 31
0.0
100
AcDbText
  0
LWPOLYLINE
  5
67
330
17
100
AcDbEntity
  8
FLEX_CUTOUTS
100
AcDbPolyline
 90
36
 70
1
 10
50.385
 20
34.089999999999996
 10
50.353487859861296
 20
34.40994812810645
 10
50.260162433318506
 20
34.71760082907874
 10
50.10861016417617
 20
35.00113518215215
 10
49.904655121145936
 20
35.249655121145935
 10
49.65613518215215
 20
35.45361016417617
 10
49.37260082907874
 20
35.605162433318505
 10
49.06494812810645
 20
35.698487859861295
 10
48.745
 20
35.73
 10
37.365
 20
35.73
 10
37.04505187189355
 20
35.698487859861295
 10
36.73739917092126
 20
35.605162433318505
 10
36.45386481784785
 20
35.45361016417617
 10
36.20534487885406
 20
35.249655121145935
 10
36.00138983582383
 20
35.00113518215215
 10
35.849837566681494
 20
34.71760082907874
 10
35.7565121401387
 20
34.40994812810645
 10
35.725
 20
34.089999999999996
 10
35.725
 20
30.979999999999997
 10
35.7565121401387
 20
30.660051871893547
 10
35.849837566681494
 20
30.35239917092125
 10
36.00138983582383
 20
30.06886481784785
 10
36.20534487885406
 20
29.82034487885406
 10
36.45386481784785
 20
29.616389835823824
 10
36.73739917092126
 20
29.464837566681485
 10
37.04505187189355
 20
29.371512140138698
 10
37.365
 20
29.339999999999996
 10
48.745
 20
29.339999999999996
 10
49.06494812810645
 20
29.371512140138698
 10
49.37260082907874
 20
29.46483756668149
 10
49.65613518215214
 20
29.616389835823824
 10
49.904655121145936
 20
29.82034487885406
 10
50.10861016417617
 20
30.06886481784785
 10
50.260162433318506
 20
30.35239917092125
 10
50.353487859861296
 20
30.660051871893547
 10
50.385
 20
30.979999999999997
  0
TEXT
  5
68
330
17
100
AcDbEntity
  8
NOTES
100
AcDbText
 10
41.555
 20
32.535
 30
0.0
 40
1.0
  1
A2
 11
41.555
 21
32.535
 31
0.0
100
AcDbText
  0
CIRCLE
  5
69
330
17
100
AcDbEntity
  8
FLEX_CUTOUTS
100
AcDbCircle
 10
63.756
 20
19.027
 30
0.0
 40
4.025
  0
TEXT
  5
6A
330
17
100
AcDbEntity
  8
NOTES
100
AcDbText
 10
62.256
 20
19.027
 30
0.0
 40
1.0
  1
AUD_O
 11
62.256
 21
19.027
 31
0.0
100
AcDbText
  0
CIRCLE
  5
6B
330
17
100
AcDbEntity
  8
FLEX_CUTOUTS
100
AcDbCircle
 10
43.078
 20
19.027
 30
0.0
 40
4.025
  0
TEXT
  5
6C
330
17
100
AcDbEntity
  8
NOTES
100
AcDbText
 10
41.578
 20
19.027
 30
0.0
 40
1.0
  1
AUD_H
 11
41.578
 21
19.027
 31
0.0
100
AcDbText
  0
CIRCLE
  5
6D
330
17
100
AcDbEntity
  8
FLEX_HOLES
100
AcDbCircle
 10
53.639
 20
75.528
 30
0.0
 40
1.65
  0
CIRCLE
  5
6E
330
17
100
AcDbEntity
  8
FLEX_HOLES
100
AcDbCircle
 10
53.464
 20
58.161
 30
0.0
 40
2.54
  0
CIRCLE
  5
6F
330
17
100
AcDbEntity
  8
FLEX_HOLES
100
AcDbCircle
 10
53.435
 20
19.272
 30
0.0
 40
2.835
  0
CIRCLE
  5
70
330
17
100
AcDbEntity
  8
FLEX_HOLES
100
AcDbCircle
 10
49.653
 20
113.531
 30
0.0
 40
0.9
  0
CIRCLE
  5
71
330
17
100
AcDbEntity
  8
FLEX_HOLES
100
AcDbCircle
 10
36.233
 20
103.031
 30
0.0
 40
0.9
  0
LWPOLYLINE
  5
72
330
17
100
AcDbEntity
  8
FLEX_LIGHT_PADS
100
AcDbPolyline
 90
36
 70
1
 10
69.22999999999999
 20
115.234
 10
69.22423558412096
 20
115.29252709660483
 10
69.20716385975338
 20
115.34880502970952
 10
69.17944088369076
 20
115.40067106990587
 10
69.14213203435595
 20
115.44613203435595
 10
69.09667106990587
 20
115.48344088369076
 10
69.04480502970952
 20
115.51116385975338
 10
68.98852709660483
 20
115.52823558412096
 10
68.92999999999999
 20
115.53399999999999
 10
57.88999999999999
 20
115.53399999999999
 10
57.83147290339515
 20
115.52823558412096
 10
57.775194970290464
 20
115.51116385975338
 10
57.72332893009411
 20
115.48344088369076
 10
57.677867965644026
 20
115.44613203435595
 10
57.64055911630923
 20
115.40067106990587
 10
57.61283614024661
 20
115.34880502970952
 10
57.595764415879025
 20
115.29252709660483
 10
57.589999999999996
 20
115.234
 10
57.589999999999996
 20
110.954
 10
57.595764415879025
 20
110.89547290339516
 10
57.61283614024661
 20
110.83919497029046
 10
57.64055911630923
 20
110.78732893009412
 10
57.677867965644026
 20
110.74186796564403
 10
57.72332893009411
 20
110.70455911630923
 10
57.775194970290464
 20
110.6768361402466
 10
57.83147290339515
 20
110.65976441587902
 10
57.88999999999999
 20
110.654
 10
68.92999999999999
 20
110.654
 10
68.98852709660483
 20
110.65976441587902
 10
69.04480502970952
 20
110.6768361402466
 10
69.09667106990587
 20
110.70455911630923
 10
69.14213203435595
 20
110.74186796564403
 10
69.17944088369076
 20
110.78732893009412
 10
69.20716385975338
 20
110.83919497029046
 10
69.22423558412096
 20
110.89547290339516
 10
69.22999999999999
 20
110.954
  0
TEXT
  5
73
330
17
100
AcDbEntity
  8
NOTES
100
AcDbText
 10
61.41
 20
115.83399999999999
 30
0.0
 40
0.8
  1
PAD_HDMI
 11
61.41
 21
115.83399999999999
 31
0.0
100
AcDbText
  0
LWPOLYLINE
  5
74
330
17
100
AcDbEntity
  8
FLEX_LIGHT_PADS
100
AcDbPolyline
 90
36
 70
1
 10
56.251
 20
95.822
 10
56.24523558412097
 20
95.88052709660484
 10
56.22816385975339
 20
95.93680502970953
 10
56.20044088369077
 20
95.98867106990588
 10
56.16313203435597
 20
96.03413203435596
 10
56.11767106990588
 20
96.07144088369077
 10
56.06580502970953
 20
96.09916385975339
 10
56.00952709660484
 20
96.11623558412097
 10
55.951
 20
96.122
 10
50.861
 20
96.122
 10
50.802472903395156
 20
96.11623558412097
 10
50.74619497029047
 20
96.09916385975339
 10
50.694328930094116
 20
96.07144088369077
 10
50.64886796564403
 20
96.03413203435596
 10
50.61155911630923
 20
95.98867106990588
 10
50.58383614024661
 20
95.93680502970953
 10
50.56676441587903
 20
95.88052709660484
 10
50.561
 20
95.822
 10
50.561
 20
88.71199999999999
 10
50.56676441587903
 20
88.65347290339515
 10
50.58383614024661
 20
88.59719497029046
 10
50.61155911630923
 20
88.54532893009412
 10
50.64886796564403
 20
88.49986796564403
 10
50.694328930094116
 20
88.46255911630922
 10
50.74619497029047
 20
88.4348361402466
 10
50.802472903395156
 20
88.41776441587902
 10
50.861
 20
88.41199999999999
 10
55.951
 20
88.41199999999999
 10
56.00952709660484
 20
88.41776441587902
 10
56.06580502970953
 20
88.4348361402466
 10
56.11767106990588
 20
88.46255911630922
 10
56.16313203435597
 20
88.49986796564403
 10
56.20044088369077
 20
88.54532893009412
 10
56.22816385975339
 20
88.59719497029046
 10
56.24523558412097
 20
88.65347290339515
 10
56.251
 20
88.71199999999999
  0
TEXT
  5
75
330
17
100
AcDbEntity
  8
NOTES
100
AcDbText
 10
51.406
 20
96.422
 30
0.0
 40
0.8
  1
PAD_ETH
 11
51.406
 21
96.422
 31
0.0
100
AcDbText
  0
LWPOLYLINE
  5
76
330
17
100
AcDbEntity
  8
FLEX_LIGHT_PADS
100
AcDbPolyline
 90
36
 70
1
 10
56.211
 20
69.94600000000001
 10
56.20523558412097
 20
70.00452709660485
 10
56.18816385975339
 20
70.06080502970954
 10
56.16044088369077
 20
70.11267106990589
 10
56.12313203435597
 20
70.15813203435597
 10
56.07767106990588
 20
70.19544088369078
 10
56.02580502970953
 20
70.2231638597534
 10
55.96952709660484
 20
70.24023558412098
 10
55.911
 20
70.24600000000001
 10
51.010999999999996
 20
70.24600000000001
 10
50.952472903395154
 20
70.24023558412098
 10
50.896194970290466
 20
70.2231638597534
 10
50.844328930094115
 20
70.19544088369078
 10
50.79886796564403
 20
70.15813203435597
 10
50.76155911630923
 20
70.11267106990589
 10
50.73383614024661
 20
70.06080502970954
 10
50.71676441587903
 20
70.00452709660485
 10
50.711
 20
69.94600000000001
 10
50.711
 20
61.936
 10
50.71676441587903
 20
61.87747290339516
 10
50.73383614024661
 20
61.82119497029047
 10
50.76155911630923
 20
61.76932893009412
 10
50.79886796564403
 20
61.72386796564403
 10
50.844328930094115
 20
61.68655911630923
 10
50.896194970290466
 20
61.65883614024661
 10
50.952472903395154
 20
61.64176441587903
 10
51.010999999999996
 20
61.636
 10
55.911
 20
61.636
 10
55.96952709660484
 20
61.64176441587903
 10
56.02580502970953
 20
61.65883614024661
 10
56.07767106990588
 20
61.68655911630923
 10
56.12313203435597
 20
61.72386796564403
 10
56.16044088369077
 20
61.76932893009412
 10
56.18816385975339
 20
61.82119497029047
 10
56.20523558412097
 20
61.87747290339516
 10
56.211
 20
61.936
  0
TEXT
  5
77
330
17
100
AcDbEntity
  8
NOTES
100
AcDbText
 10
51.461
 20
70.546
 30
0.0
 40
0.8
  1
PAD_TB
 11
51.461
 21
70.546
 31
0.0
100
AcDbText
  0
LWPOLYLINE
  5
78
330
17
100
AcDbEntity
  8
FLEX_LIGHT_PADS
100
AcDbPolyline
 90
36
 70
1
 10
56.125
 20
41.935
 10
56.11923558412097
 20
41.99352709660484
 10
56.10216385975339
 20
42.04980502970953
 10
56.07444088369077
 20
42.10167106990588
 10
56.03713203435597
 20
42.14713203435597
 10
55.991671069905884
 20
42.18444088369077
 10
55.93980502970953
 20
42.21216385975339
 10
55.883527096604844
 20
42.22923558412097
 10
55.825
 20
42.235
 10
50.88499999999999
 20
42.235
 10
50.82647290339515
 20
42.22923558412097
 10
50.77019497029046
 20
42.21216385975339
 10
50.71832893009411
 20
42.18444088369077
 10
50.67286796564402
 20
42.14713203435597
 10
50.635559116309224
 20
42.10167106990588
 10
50.607836140246604
 20
42.04980502970953
 10
50.59076441587902
 20
41.99352709660484
 10
50.584999999999994
 20
41.935
 10
50.584999999999994
 20
33.905
 10
50.59076441587902
 20
33.84647290339516
 10
50.607836140246604
 20
33.79019497029047
 10
50.635559116309224
 20
33.73832893009412
 10
50.67286796564402
 20
33.692867965644034
 10
50.71832893009411
 20
33.655559116309234
 10
50.77019497029046
 20
33.627836140246615
 10
50.82647290339515
 20
33.61076441587903
 10
50.88499999999999
 20
33.605000000000004
 10
55.825
 20
33.605000000000004
 10
55.883527096604844
 20
33.61076441587903
 10
55.93980502970953
 20
33.627836140246615
 10
55.991671069905884
 20
33.655559116309234
 10
56.03713203435597
 20
33.692867965644034
 10
56.07444088369077
 20
33.73832893009412
 10
56.10216385975339
 20
33.79019497029047
 10
56.11923558412097
 20
33.84647290339516
 10
56.125
 20
33.905
  0
TEXT
  5
79
330
17
100
AcDbEntity
  8
NOTES
100
AcDbText
 10
51.355
 20
42.535
 30
0.0
 40
0.8
  1
PAD_USB
 11
51.355
 21
42.535
 31
0.0
100
AcDbText
  0
LWPOLYLINE
  5
7A
330
17
100
AcDbEntity
  8
FLEX_LIGHT_PADS
100
AcDbPolyline
 90
36
 70
1
 10
67.863
 20
14.501
 10
67.85723558412097
 20
14.559527096604837
 10
67.84016385975339
 20
14.615805029709527
 10
67.81244088369077
 20
14.66767106990588
 10
67.77513203435596
 20
14.713132034355963
 10
67.72967106990588
 20
14.750440883690763
 10
67.67780502970953
 20
14.778163859753386
 10
67.62152709660484
 20
14.795235584120968
 10
67.563
 20
14.801
 10
59.29299999999999
 20
14.801
 10
59.23447290339515
 20
14.795235584120968
 10
59.17819497029046
 20
14.778163859753386
 10
59.12632893009411
 20
14.750440883690763
 10
59.080867965644025
 20
14.713132034355963
 10
59.043559116309225
 20
14.66767106990588
 10
59.015836140246606
 20
14.615805029709527
 10
58.99876441587902
 20
14.559527096604837
 10
58.992999999999995
 20
14.501
 10
58.992999999999995
 20
10.301
 10
58.99876441587902
 20
10.242472903395162
 10
59.015836140246606
 20
10.186194970290472
 10
59.043559116309225
 20
10.134328930094119
 10
59.080867965644025
 20
10.088867965644036
 10
59.12632893009411
 20
10.051559116309237
 10
59.17819497029046
 20
10.023836140246614
 10
59.23447290339515
 20
10.006764415879031
 10
59.29299999999999
 20
10.001
 10
67.563
 20
10.001
 10
67.62152709660484
 20
10.006764415879031
 10
67.67780502970953
 20
10.023836140246614
 10
67.72967106990588
 20
10.051559116309237
 10
67.77513203435596
 20
10.088867965644036
 10
67.81244088369077
 20
10.134328930094119
 10
67.84016385975339
 20
10.186194970290474
 10
67.85723558412097
 20
10.24247290339516
 10
67.863
 20
10.301
  0
TEXT
  5
7B
330
17
100
AcDbEntity
  8
NOTES
100
AcDbText
 10
61.428
 20
15.101
 30
0.0
 40
0.8
  1
PAD_AUD_O
 11
61.428
 21
15.101
 31
0.0
100
AcDbText
  0
LWPOLYLINE
  5
7C
330
17
100
AcDbEntity
  8
FLEX_LIGHT_PADS
100
AcDbPolyline
 90
36
 70
1
 10
47.528000000000006
 20
14.501
 10
47.52223558412098
 20
14.559527096604837
 10
47.505163859753395
 20
14.615805029709527
 10
47.477440883690775
 20
14.66767106990588
 10
47.440132034355976
 20
14.713132034355963
 10
47.39467106990589
 20
14.750440883690763
 10
47.34280502970954
 20
14.778163859753386
 10
47.28652709660485
 20
14.795235584120968
 10
47.22800000000001
 20
14.801
 10
39.178
 20
14.801
 10
39.119472903395156
 20
14.795235584120968
 10
39.06319497029047
 20
14.778163859753386
 10
39.011328930094116
 20
14.750440883690763
 10
38.96586796564403
 20
14.713132034355963
 10
38.92855911630923
 20
14.66767106990588
 10
38.90083614024661
 20
14.615805029709527
 10
38.88376441587903
 20
14.559527096604837
 10
38.878
 20
14.501
 10
38.878
 20
10.301
 10
38.88376441587903
 20
10.242472903395162
 10
38.90083614024661
 20
10.186194970290472
 10
38.92855911630923
 20
10.134328930094119
 10
38.96586796564403
 20
10.088867965644036
 10
39.011328930094116
 20
10.051559116309237
 10
39.06319497029047
 20
10.023836140246614
 10
39.119472903395156
 20
10.006764415879031
 10
39.178
 20
10.001
 10
47.22800000000001
 20
10.001
 10
47.28652709660485
 20
10.006764415879031
 10
47.34280502970954
 20
10.023836140246614
 10
47.39467106990589
 20
10.051559116309237
 10
47.440132034355976
 20
10.088867965644036
 10
47.477440883690775
 20
10.134328930094119
 10
47.505163859753395
 20
10.186194970290474
 10
47.52223558412098
 20
10.24247290339516
 10
47.528000000000006
 20
10.301
  0
TEXT
  5
7D
330
17
100
AcDbEntity
  8
NOTES
100
AcDbText
 10
41.203
 20
15.101
 30
0.0
 40
0.8
  1
PAD_AUD_H
 11
41.203
 21
15.101
 31
0.0
100
AcDbText
  0
LWPOLYLINE
  5
7E
330
17
100
AcDbEntity
  8
FLEX_LEDS
100
AcDbPolyline
 90
36
 70
1
 10
57.358000000000004
 20
114.52600000000001
 10
57.357039264020166
 20
114.53575451610082
 10
57.354193976625574
 20
114.54513417161826
 10
57.349573480615135
 20
114.55377851165099
 10
57.343355339059336
 20
114.56135533905933
 10
57.335778511650986
 20
114.56757348061514
 10
57.32713417161826
 20
114.57219397662557
 10
57.31775451610081
 20
114.57503926402018
 10
57.30800000000001
 20
114.57600000000001
 10
56.257999999999996
 20
114.57600000000001
 10
56.24824548389919
 20
114.57503926402018
 10
56.23886582838174
 20
114.57219397662557
 10
56.23022148834902
 20
114.56757348061514
 10
56.22264466094067
 20
114.56135533905933
 10
56.21642651938487
 20
114.55377851165099
 10
56.21180602337443
 20
114.54513417161826
 10
56.208960735979836
 20
114.53575451610082
 10
56.208
 20
114.52600000000001
 10
56.208
 20
111.076
 10
56.208960735979836
 20
111.06624548389918
 10
56.21180602337443
 20
111.05686582838175
 10
56.21642651938487
 20
111.04822148834901
 10
56.22264466094067
 20
111.04064466094067
 10
56.23022148834902
 20
111.03442651938487
 10
56.23886582838174
 20
111.02980602337443
 10
56.24824548389919
 20
111.02696073597983
 10
56.257999999999996
 20
111.026
 10
57.30800000000001
 20
111.026
 10
57.31775451610081
 20
111.02696073597983
 10
57.32713417161826
 20
111.02980602337443
 10
57.335778511650986
 20
111.03442651938487
 10
57.343355339059336
 20
111.04064466094067
 10
57.349573480615135
 20
111.04822148834901
 10
57.354193976625574
 20
111.05686582838175
 10
57.357039264020166
 20
111.06624548389918
 10
57.358000000000004
 20
111.076
  0
LWPOLYLINE
  5
7F
330
17
100
AcDbEntity
  8
REF_LED_POCKETS
100
AcDbPolyline
 90
36
 70
1
 10
57.608000000000004
 20
114.52600000000001
 10
57.602235584120976
 20
114.58452709660484
 10
57.58516385975339
 20
114.64080502970954
 10
57.557440883690774
 20
114.69267106990588
 10
57.520132034355974
 20
114.73813203435597
 10
57.47467106990589
 20
114.77544088369078
 10
57.42280502970954
 20
114.8031638597534
 10
57.36652709660485
 20
114.82023558412098
 10
57.30800000000001
 20
114.82600000000001
 10
56.257999999999996
 20
114.82600000000001
 10
56.199472903395154
 20
114.82023558412098
 10
56.143194970290466
 20
114.8031638597534
 10
56.091328930094114
 20
114.77544088369078
 10
56.04586796564403
 20
114.73813203435597
 10
56.00855911630923
 20
114.69267106990588
 10
55.98083614024661
 20
114.64080502970954
 10
55.96376441587903
 20
114.58452709660484
 10
55.958
 20
114.52600000000001
 10
55.958
 20
111.076
 10
55.96376441587903
 20
111.01747290339516
 10
55.98083614024661
 20
110.96119497029046
 10
56.00855911630923
 20
110.90932893009412
 10
56.04586796564403
 20
110.86386796564403
 10
56.091328930094114
 20
110.82655911630923
 10
56.143194970290466
 20
110.7988361402466
 10
56.199472903395154
 20
110.78176441587902
 10
56.257999999999996
 20
110.776
 10
57.30800000000001
 20
110.776
 10
57.36652709660485
 20
110.78176441587902
 10
57.42280502970954
 20
110.7988361402466
 10
57.47467106990589
 20
110.82655911630923
 10
57.520132034355974
 20
110.86386796564403
 10
57.557440883690774
 20
110.90932893009412
 10
57.58516385975339
 20
110.96119497029046
 10
57.602235584120976
 20
111.01747290339516
 10
57.608000000000004
 20
111.076
  0
LWPOLYLINE
  5
80
330
17
100
AcDbEntity
  8
FLEX_LEDS
100
AcDbPolyline
 90
36
 70
1
 10
45.608000000000004
 20
113.326
 10
45.607039264020166
 20
113.3357545161008
 10
45.604193976625574
 20
113.34513417161824
 10
45.599573480615135
 20
113.35377851165097
 10
45.593355339059336
 20
113.36135533905932
 10
45.585778511650986
 20
113.36757348061512
 10
45.57713417161826
 20
113.37219397662555
 10
45.56775451610081
 20
113.37503926402016
 10
45.55800000000001
 20
113.37599999999999
 10
40.708
 20
113.37599999999999
 10
40.69824548389919
 20
113.37503926402016
 10
40.68886582838174
 20
113.37219397662555
 10
40.68022148834902
 20
113.36757348061512
 10
40.67264466094067
 20
113.36135533905932
 10
40.66642651938487
 20
113.35377851165097
 10
40.66180602337443
 20
113.34513417161824
 10
40.65896073597984
 20
113.3357545161008
 10
40.658
 20
113.326
 10
40.658
 20
112.226
 10
40.65896073597984
 20
112.21624548389919
 10
40.66180602337443
 20
112.20686582838175
 10
40.66642651938487
 20
112.19822148834902
 10
40.67264466094067
 20
112.19064466094068
 10
40.68022148834902
 20
112.18442651938487
 10
40.68886582838174
 20
112.17980602337444
 10
40.69824548389919
 20
112.17696073597983
 10
40.708
 20
112.176
 10
45.55800000000001
 20
112.176
 10
45.56775451610081
 20
112.17696073597983
 10
45.57713417161826
 20
112.17980602337444
 10
45.585778511650986
 20
112.18442651938487
 10
45.593355339059336
 20
112.19064466094068
 10
45.599573480615135
 20
112.19822148834902
 10
45.604193976625574
 20
112.20686582838175
 10
45.607039264020166
 20
112.21624548389919
 10
45.608000000000004
 20
112.226
  0
LWPOLYLINE
  5
81
330
17
100
AcDbEntity
  8
REF_LED_POCKETS
100
AcDbPolyline
 90
36
 70
1
 10
45.858000000000004
 20
113.326
 10
45.852235584120976
 20
113.38452709660483
 10
45.83516385975339
 20
113.44080502970952
 10
45.807440883690774
 20
113.49267106990587
 10
45.770132034355974
 20
113.53813203435595
 10
45.72467106990589
 20
113.57544088369076
 10
45.67280502970954
 20
113.60316385975338
 10
45.61652709660485
 20
113.62023558412096
 10
45.55800000000001
 20
113.62599999999999
 10
40.708
 20
113.62599999999999
 10
40.64947290339516
 20
113.62023558412096
 10
40.59319497029047
 20
113.60316385975338
 10
40.54132893009412
 20
113.57544088369076
 10
40.49586796564403
 20
113.53813203435595
 10
40.45855911630923
 20
113.49267106990587
 10
40.43083614024661
 20
113.44080502970952
 10
40.41376441587903
 20
113.38452709660483
 10
40.408
 20
113.326
 10
40.408
 20
112.226
 10
40.41376441587903
 20
112.16747290339516
 10
40.43083614024661
 20
112.11119497029047
 10
40.45855911630923
 20
112.05932893009413
 10
40.49586796564403
 20
112.01386796564404
 10
40.54132893009412
 20
111.97655911630923
 10
40.59319497029047
 20
111.94883614024661
 10
40.64947290339516
 20
111.93176441587903
 10
40.708
 20
111.926
 10
45.55800000000001
 20
111.926
 10
45.61652709660485
 20
111.93176441587903
 10
45.67280502970954
 20
111.94883614024661
 10
45.72467106990589
 20
111.97655911630923
 10
45.770132034355974
 20
112.01386796564404
 10
45.807440883690774
 20
112.05932893009413
 10
45.83516385975339
 20
112.11119497029047
 10
45.852235584120976
 20
112.16747290339516
 10
45.858000000000004
 20
112.226
  0
LWPOLYLINE
  5
82
330
17
100
AcDbEntity
  8
FLEX_LEDS
100
AcDbPolyline
 90
36
 70
1
 10
44.507999999999996
 20
103.776
 10
44.50703926402016
 20
103.78575451610081
 10
44.504193976625565
 20
103.79513417161824
 10
44.499573480615126
 20
103.80377851165098
 10
44.49335533905933
 20
103.81135533905932
 10
44.48577851165098
 20
103.81757348061512
 10
44.47713417161825
 20
103.82219397662556
 10
44.467754516100804
 20
103.82503926402016
 10
44.458
 20
103.826
 10
40.208
 20
103.826
 10
40.19824548389919
 20
103.82503926402016
 10
40.18886582838174
 20
103.82219397662556
 10
40.18022148834902
 20
103.81757348061512
 10
40.17264466094067
 20
103.81135533905932
 10
40.16642651938487
 20
103.80377851165098
 10
40.16180602337443
 20
103.79513417161824
 10
40.15896073597984
 20
103.78575451610081
 10
40.158
 20
103.776
 10
40.158
 20
102.676
 10
40.15896073597984
 20
102.66624548389919
 10
40.16180602337443
 20
102.65686582838175
 10
40.16642651938487
 20
102.64822148834902
 10
40.17264466094067
 20
102.64064466094068
 10
40.18022148834902
 20
102.63442651938487
 10
40.18886582838174
 20
102.62980602337444
 10
40.19824548389919
 20
102.62696073597984
 10
40.208
 20
102.626
 10
44.458
 20
102.626
 10
44.467754516100804
 20
102.62696073597984
 10
44.47713417161825
 20
102.62980602337444
 10
44.48577851165098
 20
102.63442651938487
 10
44.49335533905933
 20
102.64064466094068
 10
44.499573480615126
 20
102.64822148834902
 10
44.504193976625565
 20
102.65686582838175
 10
44.50703926402016
 20
102.66624548389919
 10
44.507999999999996
 20
102.676
  0
LWPOLYLINE
  5
83
330
17
100
AcDbEntity
  8
REF_LED_POCKETS
100
AcDbPolyline
 90
36
 70
1
 10
44.757999999999996
 20
103.776
 10
44.75223558412097
 20
103.83452709660483
 10
44.735163859753385
 20
103.89080502970953
 10
44.707440883690765
 20
103.94267106990587
 10
44.670132034355966
 20
103.98813203435596
 10
44.62467106990588
 20
104.02544088369076
 10
44.57280502970953
 20
104.05316385975338
 10
44.51652709660484
 20
104.07023558412097
 10
44.458
 20
104.076
 10
40.208
 20
104.076
 10
40.14947290339516
 20
104.07023558412097
 10
40.09319497029047
 20
104.05316385975338
 10
40.04132893009412
 20
104.02544088369076
 10
39.99586796564403
 20
103.98813203435596
 10
39.95855911630923
 20
103.94267106990587
 10
39.93083614024661
 20
103.89080502970953
 10
39.91376441587903
 20
103.83452709660483
 10
39.908
 20
103.776
 10
39.908
 20
102.676
 10
39.91376441587903
 20
102.61747290339517
 10
39.93083614024661
 20
102.56119497029047
 10
39.95855911630923
 20
102.50932893009413
 10
39.99586796564403
 20
102.46386796564404
 10
40.04132893009412
 20
102.42655911630924
 10
40.09319497029047
 20
102.39883614024662
 10
40.14947290339516
 20
102.38176441587903
 10
40.208
 20
102.376
 10
44.458
 20
102.376
 10
44.51652709660484
 20
102.38176441587903
 10
44.57280502970953
 20
102.39883614024662
 10
44.62467106990588
 20
102.42655911630924
 10
44.670132034355966
 20
102.46386796564404
 10
44.707440883690765
 20
102.50932893009413
 10
44.735163859753385
 20
102.56119497029047
 10
44.75223558412097
 20
102.61747290339517
 10
44.757999999999996
 20
102.676
  0
LWPOLYLINE
  5
84
330
17
100
AcDbEntity
  8
FLEX_LEDS
100
AcDbPolyline
 90
36
 70
1
 10
33.458000000000006
 20
100.27600000000001
 10
33.45703926402017
 20
100.28575451610082
 10
33.454193976625575
 20
100.29513417161826
 10
33.449573480615136
 20
100.30377851165099
 10
33.44335533905934
 20
100.31135533905933
 10
33.43577851165099
 20
100.31757348061514
 10
33.42713417161826
 20
100.32219397662557
 10
33.417754516100814
 20
100.32503926402018
 10
33.40800000000001
 20
100.32600000000001
 10
32.358
 20
100.32600000000001
 10
32.34824548389919
 20
100.32503926402018
 10
32.33886582838174
 20
100.32219397662557
 10
32.33022148834902
 20
100.31757348061514
 10
32.32264466094067
 20
100.31135533905933
 10
32.31642651938487
 20
100.30377851165099
 10
32.31180602337443
 20
100.29513417161826
 10
32.30896073597984
 20
100.28575451610082
 10
32.308
 20
100.27600000000001
 10
32.308
 20
95.226
 10
32.30896073597984
 20
95.21624548389919
 10
32.31180602337443
 20
95.20686582838175
 10
32.31642651938487
 20
95.19822148834902
 10
32.32264466094067
 20
95.19064466094068
 10
32.33022148834902
 20
95.18442651938487
 10
32.33886582838174
 20
95.17980602337444
 10
32.34824548389919
 20
95.17696073597983
 10
32.358
 20
95.176
 10
33.40800000000001
 20
95.176
 10
33.417754516100814
 20
95.17696073597983
 10
33.42713417161826
 20
95.17980602337444
 10
33.43577851165099
 20
95.18442651938487
 10
33.44335533905934
 20
95.19064466094068
 10
33.449573480615136
 20
95.19822148834902
 10
33.454193976625575
 20
95.20686582838175
 10
33.45703926402017
 20
95.21624548389919
 10
33.458000000000006
 20
95.226
  0
LWPOLYLINE
  5
85
330
17
100
AcDbEntity
  8
REF_LED_POCKETS
100
AcDbPolyline
 90
36
 70
1
 10
33.708000000000006
 20
100.27600000000001
 10
33.70223558412098
 20
100.33452709660484
 10
33.685163859753395
 20
100.39080502970954
 10
33.657440883690775
 20
100.44267106990588
 10
33.620132034355976
 20
100.48813203435597
 10
33.57467106990589
 20
100.52544088369078
 10
33.52280502970954
 20
100.5531638597534
 10
33.46652709660485
 20
100.57023558412098
 10
33.40800000000001
 20
100.57600000000001
 10
32.358
 20
100.57600000000001
 10
32.299472903395156
 20
100.57023558412098
 10
32.24319497029047
 20
100.5531638597534
 10
32.191328930094116
 20
100.52544088369078
 10
32.14586796564403
 20
100.48813203435597
 10
32.10855911630923
 20
100.44267106990588
 10
32.08083614024661
 20
100.39080502970954
 10
32.06376441587903
 20
100.33452709660484
 10
32.058
 20
100.27600000000001
 10
32.058
 20
95.226
 10
32.06376441587903
 20
95.16747290339516
 10
32.08083614024661
 20
95.11119497029047
 10
32.10855911630923
 20
95.05932893009413
 10
32.14586796564403
 20
95.01386796564404
 10
32.191328930094116
 20
94.97655911630923
 10
32.24319497029047
 20
94.94883614024661
 10
32.299472903395156
 20
94.93176441587903
 10
32.358
 20
94.926
 10
33.40800000000001
 20
94.926
 10
33.46652709660485
 20
94.93176441587903
 10
33.52280502970954
 20
94.94883614024661
 10
33.57467106990589
 20
94.97655911630923
 10
33.620132034355976
 20
95.01386796564404
 10
33.657440883690775
 20
95.05932893009413
 10
33.685163859753395
 20
95.11119497029047
 10
33.70223558412098
 20
95.16747290339516
 10
33.708000000000006
 20
95.226
  0
LWPOLYLINE
  5
86
330
17
100
AcDbEntity
  8
FLEX_LEDS
100
AcDbPolyline
 90
36
 70
1
 10
74.208
 20
100.126
 10
74.20703926402017
 20
100.13575451610082
 10
74.20419397662556
 20
100.14513417161825
 10
74.19957348061513
 20
100.15377851165098
 10
74.19335533905932
 20
100.16135533905933
 10
74.18577851165098
 20
100.16757348061513
 10
74.17713417161825
 20
100.17219397662556
 10
74.16775451610081
 20
100.17503926402017
 10
74.158
 20
100.176
 10
69.058
 20
100.176
 10
69.0482454838992
 20
100.17503926402017
 10
69.03886582838176
 20
100.17219397662556
 10
69.03022148834903
 20
100.16757348061513
 10
69.02264466094068
 20
100.16135533905933
 10
69.01642651938488
 20
100.15377851165098
 10
69.01180602337445
 20
100.14513417161825
 10
69.00896073597984
 20
100.13575451610082
 10
69.00800000000001
 20
100.126
 10
69.00800000000001
 20
99.126
 10
69.00896073597984
 20
99.11624548389919
 10
69.01180602337445
 20
99.10686582838176
 10
69.01642651938488
 20
99.09822148834903
 10
69.02264466094068
 20
99.09064466094068
 10
69.03022148834903
 20
99.08442651938488
 10
69.03886582838176
 20
99.07980602337445
 10
69.0482454838992
 20
99.07696073597984
 10
69.058
 20
99.07600000000001
 10
74.158
 20
99.07600000000001
 10
74.16775451610081
 20
99.07696073597984
 10
74.17713417161825
 20
99.07980602337445
 10
74.18577851165098
 20
99.08442651938488
 10
74.19335533905932
 20
99.09064466094068
 10
74.19957348061513
 20
99.09822148834903
 10
74.20419397662556
 20
99.10686582838176
 10
74.20703926402017
 20
99.11624548389919
 10
74.208
 20
99.126
  0
LWPOLYLINE
  5
87
330
17
100
AcDbEntity
  8
REF_LED_POCKETS
100
AcDbPolyline
 90
36
 70
1
 10
74.458
 20
100.126
 10
74.45223558412097
 20
100.18452709660484
 10
74.43516385975339
 20
100.24080502970953
 10
74.40744088369077
 20
100.29267106990588
 10
74.37013203435596
 20
100.33813203435597
 10
74.32467106990588
 20
100.37544088369077
 10
74.27280502970953
 20
100.40316385975339
 10
74.21652709660484
 20
100.42023558412097
 10
74.158
 20
100.426
 10
69.058
 20
100.426
 10
68.99947290339517
 20
100.42023558412097
 10
68.94319497029048
 20
100.40316385975339
 10
68.89132893009413
 20
100.37544088369077
 10
68.84586796564405
 20
100.33813203435597
 10
68.80855911630924
 20
100.29267106990588
 10
68.78083614024662
 20
100.24080502970953
 10
68.76376441587904
 20
100.18452709660484
 10
68.75800000000001
 20
100.126
 10
68.75800000000001
 20
99.126
 10
68.76376441587904
 20
99.06747290339517
 10
68.78083614024662
 20
99.01119497029048
 10
68.80855911630924
 20
98.95932893009413
 10
68.84586796564405
 20
98.91386796564404
 10
68.89132893009413
 20
98.87655911630924
 10
68.94319497029048
 20
98.84883614024662
 10
68.99947290339517
 20
98.83176441587904
 10
69.058
 20
98.82600000000001
 10
74.158
 20
98.82600000000001
 10
74.21652709660484
 20
98.83176441587904
 10
74.27280502970953
 20
98.84883614024662
 10
74.32467106990588
 20
98.87655911630924
 10
74.37013203435596
 20
98.91386796564404
 10
74.40744088369077
 20
98.95932893009413
 10
74.43516385975339
 20
99.01119497029048
 10
74.45223558412097
 20
99.06747290339517
 10
74.458
 20
99.126
  0
LWPOLYLINE
  5
88
330
17
100
AcDbEntity
  8
FLEX_LEDS
100
AcDbPolyline
 90
36
 70
1
 10
55.208
 20
88.226
 10
55.20703926402016
 20
88.23575451610081
 10
55.20419397662557
 20
88.24513417161825
 10
55.19957348061513
 20
88.25377851165098
 10
55.19335533905933
 20
88.26135533905932
 10
55.18577851165098
 20
88.26757348061513
 10
55.177134171618256
 20
88.27219397662556
 10
55.16775451610081
 20
88.27503926402017
 10
55.158
 20
88.276
 10
51.007999999999996
 20
88.276
 10
50.99824548389919
 20
88.27503926402017
 10
50.98886582838174
 20
88.27219397662556
 10
50.98022148834902
 20
88.26757348061513
 10
50.97264466094067
 20
88.26135533905932
 10
50.96642651938487
 20
88.25377851165098
 10
50.96180602337443
 20
88.24513417161825
 10
50.958960735979836
 20
88.23575451610081
 10
50.958
 20
88.226
 10
50.958
 20
87.17599999999999
 10
50.958960735979836
 20
87.16624548389917
 10
50.96180602337443
 20
87.15686582838174
 10
50.96642651938487
 20
87.14822148834901
 10
50.97264466094067
 20
87.14064466094067
 10
50.98022148834902
 20
87.13442651938486
 10
50.98886582838174
 20
87.12980602337443
 10
50.99824548389919
 20
87.12696073597982
 10
51.007999999999996
 20
87.12599999999999
 10
55.158
 20
87.12599999999999
 10
55.16775451610081
 20
87.12696073597982
 10
55.177134171618256
 20
87.12980602337443
 10
55.18577851165098
 20
87.13442651938486
 10
55.19335533905933
 20
87.14064466094067
 10
55.19957348061513
 20
87.14822148834901
 10
55.20419397662557
 20
87.15686582838174
 10
55.20703926402016
 20
87.16624548389917
 10
55.208
 20
87.17599999999999
  0
LWPOLYLINE
  5
89
330
17
100
AcDbEntity
  8
REF_LED_POCKETS
100
AcDbPolyline
 90
36
 70
1
 10
55.458
 20
88.226
 10
55.45223558412097
 20
88.28452709660483
 10
55.43516385975339
 20
88.34080502970953
 10
55.40744088369077
 20
88.39267106990587
 10
55.37013203435597
 20
88.43813203435596
 10
55.32467106990588
 20
88.47544088369077
 10
55.27280502970953
 20
88.50316385975339
 10
55.21652709660484
 20
88.52023558412097
 10
55.158
 20
88.526
 10
51.007999999999996
 20
88.526
 10
50.949472903395154
 20
88.52023558412097
 10
50.893194970290466
 20
88.50316385975339
 10
50.841328930094114
 20
88.47544088369077
 10
50.79586796564403
 20
88.43813203435596
 10
50.75855911630923
 20
88.39267106990587
 10
50.73083614024661
 20
88.34080502970953
 10
50.71376441587903
 20
88.28452709660483
 10
50.708
 20
88.226
 10
50.708
 20
87.17599999999999
 10
50.71376441587903
 20
87.11747290339515
 10
50.73083614024661
 20
87.06119497029046
 10
50.75855911630923
 20
87.00932893009411
 10
50.79586796564403
 20
86.96386796564403
 10
50.841328930094114
 20
86.92655911630922
 10
50.893194970290466
 20
86.8988361402466
 10
50.949472903395154
 20
86.88176441587902
 10
51.007999999999996
 20
86.87599999999999
 10
55.158
 20
86.87599999999999
 10
55.21652709660484
 20
86.88176441587902
 10
55.27280502970953
 20
86.8988361402466
 10
55.32467106990588
 20
86.92655911630922
 10
55.37013203435597
 20
86.96386796564403
 10
55.40744088369077
 20
87.00932893009411
 10
55.43516385975339
 20
87.06119497029046
 10
55.45223558412097
 20
87.11747290339515
 10
55.458
 20
87.17599999999999
  0
LWPOLYLINE
  5
8A
330
17
100
AcDbEntity
  8
FLEX_LEDS
100
AcDbPolyline
 90
36
 70
1
 10
55.758
 20
86.07600000000001
 10
55.757039264020165
 20
86.08575451610082
 10
55.75419397662557
 20
86.09513417161826
 10
55.74957348061513
 20
86.10377851165099
 10
55.743355339059335
 20
86.11135533905933
 10
55.735778511650985
 20
86.11757348061514
 10
55.72713417161826
 20
86.12219397662557
 10
55.71775451610081
 20
86.12503926402017
 10
55.708000000000006
 20
86.126
 10
51.157999999999994
 20
86.126
 10
51.14824548389919
 20
86.12503926402017
 10
51.13886582838174
 20
86.12219397662557
 10
51.130221488349015
 20
86.11757348061514
 10
51.122644660940665
 20
86.11135533905933
 10
51.116426519384866
 20
86.10377851165099
 10
51.11180602337443
 20
86.09513417161826
 10
51.108960735979835
 20
86.08575451610082
 10
51.108
 20
86.07600000000001
 10
51.108
 20
85.12599999999999
 10
51.108960735979835
 20
85.11624548389918
 10
51.11180602337443
 20
85.10686582838174
 10
51.116426519384866
 20
85.09822148834901
 10
51.122644660940665
 20
85.09064466094067
 10
51.130221488349015
 20
85.08442651938486
 10
51.13886582838174
 20
85.07980602337443
 10
51.14824548389919
 20
85.07696073597982
 10
51.157999999999994
 20
85.076
 10
55.708000000000006
 20
85.076
 10
55.71775451610081
 20
85.07696073597982
 10
55.72713417161826
 20
85.07980602337443
 10
55.735778511650985
 20
85.08442651938486
 10
55.743355339059335
 20
85.09064466094067
 10
55.74957348061513
 20
85.09822148834901
 10
55.75419397662557
 20
85.10686582838174
 10
55.757039264020165
 20
85.11624548389918
 10
55.758
 20
85.12599999999999
  0
LWPOLYLINE
  5
8B
330
17
100
AcDbEntity
  8
REF_LED_POCKETS
100
AcDbPolyline
 90
36
 70
1
 10
56.008
 20
86.07600000000001
 10
56.002235584120974
 20
86.13452709660484
 10
55.98516385975339
 20
86.19080502970954
 10
55.95744088369077
 20
86.24267106990588
 10
55.92013203435597
 20
86.28813203435597
 10
55.87467106990589
 20
86.32544088369077
 10
55.822805029709535
 20
86.3531638597534
 10
55.76652709660485
 20
86.37023558412098
 10
55.708000000000006
 20
86.376
 10
51.157999999999994
 20
86.376
 10
51.09947290339515
 20
86.37023558412098
 10
51.043194970290465
 20
86.3531638597534
 10
50.99132893009411
 20
86.32544088369077
 10
50.94586796564403
 20
86.28813203435597
 10
50.90855911630923
 20
86.24267106990588
 10
50.88083614024661
 20
86.19080502970954
 10
50.863764415879025
 20
86.13452709660484
 10
50.858
 20
86.07600000000001
 10
50.858
 20
85.12599999999999
 10
50.863764415879025
 20
85.06747290339516
 10
50.88083614024661
 20
85.01119497029046
 10
50.90855911630923
 20
84.95932893009412
 10
50.94586796564403
 20
84.91386796564403
 10
50.99132893009411
 20
84.87655911630922
 10
51.043194970290465
 20
84.8488361402466
 10
51.09947290339515
 20
84.83176441587902
 10
51.157999999999994
 20
84.826
 10
55.708000000000006
 20
84.826
 10
55.76652709660485
 20
84.83176441587902
 10
55.822805029709535
 20
84.8488361402466
 10
55.87467106990589
 20
84.87655911630922
 10
55.92013203435597
 20
84.91386796564403
 10
55.95744088369077
 20
84.95932893009412
 10
55.98516385975339
 20
85.01119497029046
 10
56.002235584120974
 20
85.06747290339516
 10
56.008
 20
85.12599999999999
  0
LWPOLYLINE
  5
8C
330
17
100
AcDbEntity
  8
FLEX_LEDS
100
AcDbPolyline
 90
36
 70
1
 10
36.958
 20
83.126
 10
36.95703926402016
 20
83.13575451610082
 10
36.95419397662557
 20
83.14513417161825
 10
36.94957348061513
 20
83.15377851165098
 10
36.94335533905933
 20
83.16135533905933
 10
36.93577851165098
 20
83.16757348061513
 10
36.927134171618256
 20
83.17219397662556
 10
36.91775451610081
 20
83.17503926402017
 10
36.908
 20
83.176
 10
32.708
 20
83.176
 10
32.69824548389919
 20
83.17503926402017
 10
32.68886582838174
 20
83.17219397662556
 10
32.68022148834902
 20
83.16757348061513
 10
32.67264466094067
 20
83.16135533905933
 10
32.66642651938487
 20
83.15377851165098
 10
32.66180602337443
 20
83.14513417161825
 10
32.65896073597984
 20
83.13575451610082
 10
32.658
 20
83.126
 10
32.658
 20
82.126
 10
32.65896073597984
 20
82.11624548389919
 10
32.66180602337443
 20
82.10686582838176
 10
32.66642651938487
 20
82.09822148834903
 10
32.67264466094067
 20
82.09064466094068
 10
32.68022148834902
 20
82.08442651938488
 10
32.68886582838174
 20
82.07980602337445
 10
32.69824548389919
 20
82.07696073597984
 10
32.708
 20
82.07600000000001
 10
36.908
 20
82.07600000000001
 10
36.91775451610081
 20
82.07696073597984
 10
36.927134171618256
 20
82.07980602337445
 10
36.93577851165098
 20
82.08442651938488
 10
36.94335533905933
 20
82.09064466094068
 10
36.94957348061513
 20
82.09822148834903
 10
36.95419397662557
 20
82.10686582838176
 10
36.95703926402016
 20
82.11624548389919
 10
36.958
 20
82.126
  0
LWPOLYLINE
  5
8D
330
17
100
AcDbEntity
  8
REF_LED_POCKETS
100
AcDbPolyline
 90
36
 70
1
 10
37.208
 20
83.126
 10
37.20223558412097
 20
83.18452709660484
 10
37.18516385975339
 20
83.24080502970953
 10
37.15744088369077
 20
83.29267106990588
 10
37.12013203435597
 20
83.33813203435597
 10
37.07467106990588
 20
83.37544088369077
 10
37.02280502970953
 20
83.40316385975339
 10
36.96652709660484
 20
83.42023558412097
 10
36.908
 20
83.426
 10
32.708
 20
83.426
 10
32.64947290339516
 20
83.42023558412097
 10
32.59319497029047
 20
83.40316385975339
 10
32.54132893009412
 20
83.37544088369077
 10
32.49586796564403
 20
83.33813203435597
 10
32.45855911630923
 20
83.29267106990588
 10
32.43083614024661
 20
83.24080502970953
 10
32.41376441587903
 20
83.18452709660484
 10
32.408
 20
83.126
 10
32.408
 20
82.126
 10
32.41376441587903
 20
82.06747290339517
 10
32.43083614024661
 20
82.01119497029048
 10
32.45855911630923
 20
81.95932893009413
 10
32.49586796564403
 20
81.91386796564404
 10
32.54132893009412
 20
81.87655911630924
 10
32.59319497029047
 20
81.84883614024662
 10
32.64947290339516
 20
81.83176441587904
 10
32.708
 20
81.82600000000001
 10
36.908
 20
81.82600000000001
 10
36.96652709660484
 20
81.83176441587904
 10
37.02280502970953
 20
81.84883614024662
 10
37.07467106990588
 20
81.87655911630924
 10
37.12013203435597
 20
81.91386796564404
 10
37.15744088369077
 20
81.95932893009413
 10
37.18516385975339
 20
82.01119497029048
 10
37.20223558412097
 20
82.06747290339517
 10
37.208
 20
82.126
  0
LWPOLYLINE
  5
8E
330
17
100
AcDbEntity
  8
FLEX_LEDS
100
AcDbPolyline
 90
36
 70
1
 10
74.05799999999999
 20
82.126
 10
74.05703926402016
 20
82.13575451610082
 10
74.05419397662556
 20
82.14513417161825
 10
74.04957348061512
 20
82.15377851165098
 10
74.04335533905932
 20
82.16135533905933
 10
74.03577851165097
 20
82.16757348061513
 10
74.02713417161824
 20
82.17219397662556
 10
74.01775451610081
 20
82.17503926402017
 10
74.008
 20
82.176
 10
69.158
 20
82.176
 10
69.14824548389919
 20
82.17503926402017
 10
69.13886582838175
 20
82.17219397662556
 10
69.13022148834902
 20
82.16757348061513
 10
69.12264466094068
 20
82.16135533905933
 10
69.11642651938487
 20
82.15377851165098
 10
69.11180602337444
 20
82.14513417161825
 10
69.10896073597984
 20
82.13575451610082
 10
69.108
 20
82.126
 10
69.108
 20
81.17599999999999
 10
69.10896073597984
 20
81.16624548389917
 10
69.11180602337444
 20
81.15686582838174
 10
69.11642651938487
 20
81.14822148834901
 10
69.12264466094068
 20
81.14064466094067
 10
69.13022148834902
 20
81.13442651938486
 10
69.13886582838175
 20
81.12980602337443
 10
69.14824548389919
 20
81.12696073597982
 10
69.158
 20
81.12599999999999
 10
74.008
 20
81.12599999999999
 10
74.01775451610081
 20
81.12696073597982
 10
74.02713417161824
 20
81.12980602337443
 10
74.03577851165097
 20
81.13442651938486
 10
74.04335533905932
 20
81.14064466094067
 10
74.04957348061512
 20
81.14822148834901
 10
74.05419397662556
 20
81.15686582838174
 10
74.05703926402016
 20
81.16624548389917
 10
74.05799999999999
 20
81.17599999999999
  0
LWPOLYLINE
  5
8F
330
17
100
AcDbEntity
  8
REF_LED_POCKETS
100
AcDbPolyline
 90
36
 70
1
 10
74.30799999999999
 20
82.126
 10
74.30223558412096
 20
82.18452709660484
 10
74.28516385975338
 20
82.24080502970953
 10
74.25744088369076
 20
82.29267106990588
 10
74.22013203435596
 20
82.33813203435597
 10
74.17467106990587
 20
82.37544088369077
 10
74.12280502970953
 20
82.40316385975339
 10
74.06652709660483
 20
82.42023558412097
 10
74.008
 20
82.426
 10
69.158
 20
82.426
 10
69.09947290339517
 20
82.42023558412097
 10
69.04319497029047
 20
82.40316385975339
 10
68.99132893009413
 20
82.37544088369077
 10
68.94586796564404
 20
82.33813203435597
 10
68.90855911630923
 20
82.29267106990588
 10
68.88083614024661
 20
82.24080502970953
 10
68.86376441587903
 20
82.18452709660484
 10
68.858
 20
82.126
 10
68.858
 20
81.17599999999999
 10
68.86376441587903
 20
81.11747290339515
 10
68.88083614024661
 20
81.06119497029046
 10
68.90855911630923
 20
81.00932893009411
 10
68.94586796564404
 20
80.96386796564403
 10
68.99132893009413
 20
80.92655911630922
 10
69.04319497029047
 20
80.8988361402466
 10
69.09947290339517
 20
80.88176441587902
 10
69.158
 20
80.87599999999999
 10
74.008
 20
80.87599999999999
 10
74.06652709660483
 20
80.88176441587902
 10
74.12280502970953
 20
80.8988361402466
 10
74.17467106990587
 20
80.92655911630922
 10
74.22013203435596
 20
80.96386796564403
 10
74.25744088369076
 20
81.00932893009411
 10
74.28516385975338
 20
81.06119497029046
 10
74.30223558412096
 20
81.11747290339515
 10
74.30799999999999
 20
81.17599999999999
  0
LWPOLYLINE
  5
90
330
17
100
AcDbEntity
  8
FLEX_LEDS
100
AcDbPolyline
 90
36
 70
1
 10
32.458
 20
81.57600000000001
 10
32.45703926402016
 20
81.58575451610082
 10
32.45419397662557
 20
81.59513417161826
 10
32.44957348061513
 20
81.60377851165099
 10
32.44335533905933
 20
81.61135533905933
 10
32.43577851165098
 20
81.61757348061514
 10
32.427134171618256
 20
81.62219397662557
 10
32.41775451610081
 20
81.62503926402017
 10
32.408
 20
81.626
 10
31.408
 20
81.626
 10
31.398245483899196
 20
81.62503926402017
 10
31.388865828381746
 20
81.62219397662557
 10
31.380221488349022
 20
81.61757348061514
 10
31.372644660940672
 20
81.61135533905933
 10
31.366426519384873
 20
81.60377851165099
 10
31.361806023374438
 20
81.59513417161826
 10
31.35896073597984
 20
81.58575451610082
 10
31.358
 20
81.57600000000001
 10
31.358
 20
77.276
 10
31.35896073597984
 20
77.26624548389918
 10
31.361806023374438
 20
77.25686582838175
 10
31.366426519384873
 20
77.24822148834902
 10
31.372644660940672
 20
77.24064466094067
 10
31.380221488349022
 20
77.23442651938487
 10
31.388865828381746
 20
77.22980602337444
 10
31.398245483899196
 20
77.22696073597983
 10
31.408
 20
77.226
 10
32.408
 20
77.226
 10
32.41775451610081
 20
77.22696073597983
 10
32.427134171618256
 20
77.22980602337444
 10
32.43577851165098
 20
77.23442651938487
 10
32.44335533905933
 20
77.24064466094067
 10
32.44957348061513
 20
77.24822148834902
 10
32.45419397662557
 20
77.25686582838175
 10
32.45703926402016
 20
77.26624548389918
 10
32.458
 20
77.276
  0
LWPOLYLINE
  5
91
330
17
100
AcDbEntity
  8
REF_LED_POCKETS
100
AcDbPolyline
 90
36
 70
1
 10
32.708
 20
81.57600000000001
 10
32.70223558412097
 20
81.63452709660484
 10
32.68516385975339
 20
81.69080502970954
 10
32.65744088369077
 20
81.74267106990588
 10
32.62013203435597
 20
81.78813203435597
 10
32.57467106990588
 20
81.82544088369077
 10
32.52280502970953
 20
81.8531638597534
 10
32.46652709660484
 20
81.87023558412098
 10
32.408
 20
81.876
 10
31.408
 20
81.876
 10
31.349472903395164
 20
81.87023558412098
 10
31.293194970290475
 20
81.8531638597534
 10
31.24132893009412
 20
81.82544088369077
 10
31.195867965644037
 20
81.78813203435597
 10
31.158559116309238
 20
81.74267106990588
 10
31.130836140246615
 20
81.69080502970954
 10
31.113764415879032
 20
81.63452709660484
 10
31.108
 20
81.57600000000001
 10
31.108
 20
77.276
 10
31.113764415879032
 20
77.21747290339516
 10
31.130836140246615
 20
77.16119497029047
 10
31.158559116309238
 20
77.10932893009412
 10
31.195867965644037
 20
77.06386796564404
 10
31.24132893009412
 20
77.02655911630923
 10
31.293194970290475
 20
76.99883614024661
 10
31.349472903395164
 20
76.98176441587903
 10
31.408
 20
76.976
 10
32.408
 20
76.976
 10
32.46652709660484
 20
76.98176441587903
 10
32.52280502970953
 20
76.99883614024661
 10
32.57467106990588
 20
77.02655911630923
 10
32.62013203435597
 20
77.06386796564404
 10
32.65744088369077
 20
77.10932893009412
 10
32.68516385975339
 20
77.16119497029047
 10
32.70223558412097
 20
77.21747290339516
 10
32.708
 20
77.276
  0
LWPOLYLINE
  5
92
330
17
100
AcDbEntity
  8
FLEX_LEDS
100
AcDbPolyline
 90
36
 70
1
 10
55.708
 20
71.426
 10
55.70703926402016
 20
71.43575451610081
 10
55.70419397662557
 20
71.44513417161825
 10
55.69957348061513
 20
71.45377851165098
 10
55.69335533905933
 20
71.46135533905932
 10
55.68577851165098
 20
71.46757348061513
 10
55.677134171618256
 20
71.47219397662556
 10
55.66775451610081
 20
71.47503926402017
 10
55.658
 20
71.476
 10
51.007999999999996
 20
71.476
 10
50.99824548389919
 20
71.47503926402017
 10
50.98886582838174
 20
71.47219397662556
 10
50.98022148834902
 20
71.46757348061513
 10
50.97264466094067
 20
71.46135533905932
 10
50.96642651938487
 20
71.45377851165098
 10
50.96180602337443
 20
71.44513417161825
 10
50.958960735979836
 20
71.43575451610081
 10
50.958
 20
71.426
 10
50.958
 20
70.426
 10
50.958960735979836
 20
70.41624548389919
 10
50.96180602337443
 20
70.40686582838175
 10
50.96642651938487
 20
70.39822148834902
 10
50.97264466094067
 20
70.39064466094068
 10
50.98022148834902
 20
70.38442651938487
 10
50.98886582838174
 20
70.37980602337444
 10
50.99824548389919
 20
70.37696073597984
 10
51.007999999999996
 20
70.376
 10
55.658
 20
70.376
 10
55.66775451610081
 20
70.37696073597984
 10
55.677134171618256
 20
70.37980602337444
 10
55.68577851165098
 20
70.38442651938487
 10
55.69335533905933
 20
70.39064466094068
 10
55.69957348061513
 20
70.39822148834902
 10
55.70419397662557
 20
70.40686582838175
 10
55.70703926402016
 20
70.41624548389919
 10
55.708
 20
70.426
  0
LWPOLYLINE
  5
93
330
17
100
AcDbEntity
  8
REF_LED_POCKETS
100
AcDbPolyline
 90
36
 70
1
 10
55.958
 20
71.426
 10
55.95223558412097
 20
71.48452709660484
 10
55.93516385975339
 20
71.54080502970953
 10
55.90744088369077
 20
71.59267106990588
 10
55.87013203435597
 20
71.63813203435596
 10
55.82467106990588
 20
71.67544088369077
 10
55.77280502970953
 20
71.70316385975339
 10
55.71652709660484
 20
71.72023558412097
 10
55.658
 20
71.726
 10
51.007999999999996
 20
71.726
 10
50.949472903395154
 20
71.72023558412097
 10
50.893194970290466
 20
71.70316385975339
 10
50.841328930094114
 20
71.67544088369077
 10
50.79586796564403
 20
71.63813203435596
 10
50.75855911630923
 20
71.59267106990588
 10
50.73083614024661
 20
71.54080502970953
 10
50.71376441587903
 20
71.48452709660484
 10
50.708
 20
71.426
 10
50.708
 20
70.426
 10
50.71376441587903
 20
70.36747290339517
 10
50.73083614024661
 20
70.31119497029047
 10
50.75855911630923
 20
70.25932893009413
 10
50.79586796564403
 20
70.21386796564404
 10
50.841328930094114
 20
70.17655911630924
 10
50.893194970290466
 20
70.14883614024662
 10
50.949472903395154
 20
70.13176441587903
 10
51.007999999999996
 20
70.126
 10
55.658
 20
70.126
 10
55.71652709660484
 20
70.13176441587903
 10
55.77280502970953
 20
70.14883614024662
 10
55.82467106990588
 20
70.17655911630924
 10
55.87013203435597
 20
70.21386796564404
 10
55.90744088369077
 20
70.25932893009413
 10
55.93516385975339
 20
70.31119497029047
 10
55.95223558412097
 20
70.36747290339517
 10
55.958
 20
70.426
  0
LWPOLYLINE
  5
94
330
17
100
AcDbEntity
  8
FLEX_LEDS
100
AcDbPolyline
 90
36
 70
1
 10
37.708
 20
50.126000000000005
 10
37.70703926402016
 20
50.13575451610081
 10
37.70419397662557
 20
50.14513417161826
 10
37.69957348061513
 20
50.153778511650984
 10
37.69335533905933
 20
50.161355339059334
 10
37.68577851165098
 20
50.16757348061513
 10
37.677134171618256
 20
50.17219397662557
 10
37.66775451610081
 20
50.175039264020164
 10
37.658
 20
50.176
 10
32.658
 20
50.176
 10
32.648245483899196
 20
50.175039264020164
 10
32.638865828381746
 20
50.17219397662557
 10
32.63022148834902
 20
50.16757348061513
 10
32.62264466094067
 20
50.161355339059334
 10
32.61642651938487
 20
50.153778511650984
 10
32.611806023374434
 20
50.14513417161826
 10
32.60896073597984
 20
50.13575451610081
 10
32.608000000000004
 20
50.126000000000005
 10
32.608000000000004
 20
49.176
 10
32.60896073597984
 20
49.166245483899196
 10
32.611806023374434
 20
49.15686582838175
 10
32.61642651938487
 20
49.14822148834902
 10
32.62264466094067
 20
49.14064466094067
 10
32.63022148834902
 20
49.134426519384874
 10
32.638865828381746
 20
49.129806023374435
 10
32.648245483899196
 20
49.12696073597984
 10
32.658
 20
49.126000000000005
 10
37.658
 20
49.126000000000005
 10
37.66775451610081
 20
49.12696073597984
 10
37.677134171618256
 20
49.129806023374435
 10
37.68577851165098
 20
49.134426519384874
 10
37.69335533905933
 20
49.14064466094067
 10
37.69957348061513
 20
49.14822148834902
 10
37.70419397662557
 20
49.15686582838175
 10
37.70703926402016
 20
49.166245483899196
 10
37.708
 20
49.176
  0
LWPOLYLINE
  5
95
330
17
100
AcDbEntity
  8
REF_LED_POCKETS
100
AcDbPolyline
 90
36
 70
1
 10
37.958
 20
50.126000000000005
 10
37.95223558412097
 20
50.184527096604846
 10
37.93516385975339
 20
50.240805029709534
 10
37.90744088369077
 20
50.292671069905886
 10
37.87013203435597
 20
50.33813203435597
 10
37.82467106990588
 20
50.37544088369077
 10
37.77280502970953
 20
50.40316385975339
 10
37.71652709660484
 20
50.420235584120974
 10
37.658
 20
50.426
 10
32.658
 20
50.426
 10
32.59947290339516
 20
50.420235584120974
 10
32.54319497029047
 20
50.40316385975339
 10
32.49132893009412
 20
50.37544088369077
 10
32.445867965644034
 20
50.33813203435597
 10
32.408559116309235
 20
50.292671069905886
 10
32.380836140246615
 20
50.240805029709534
 10
32.36376441587903
 20
50.184527096604846
 10
32.358000000000004
 20
50.126000000000005
 10
32.358000000000004
 20
49.176
 10
32.36376441587903
 20
49.11747290339516
 10
32.380836140246615
 20
49.06119497029047
 10
32.408559116309235
 20
49.00932893009412
 10
32.445867965644034
 20
48.963867965644035
 10
32.49132893009412
 20
48.926559116309235
 10
32.54319497029047
 20
48.898836140246615
 10
32.59947290339516
 20
48.88176441587903
 10
32.658
 20
48.876000000000005
 10
37.658
 20
48.876000000000005
 10
37.71652709660484
 20
48.88176441587903
 10
37.77280502970953
 20
48.898836140246615
 10
37.82467106990588
 20
48.926559116309235
 10
37.87013203435597
 20
48.963867965644035
 10
37.90744088369077
 20
49.00932893009412
 10
37.93516385975339
 20
49.06119497029047
 10
37.95223558412097
 20
49.11747290339516
 10
37.958
 20
49.176
  0
LWPOLYLINE
  5
96
330
17
100
AcDbEntity
  8
FLEX_LEDS
100
AcDbPolyline
 90
36
 70
1
 10
74.05799999999999
 20
49.226
 10
74.05703926402016
 20
49.235754516100805
 10
74.05419397662556
 20
49.245134171618254
 10
74.04957348061512
 20
49.25377851165098
 10
74.04335533905932
 20
49.26135533905933
 10
74.03577851165097
 20
49.26757348061513
 10
74.02713417161824
 20
49.272193976625566
 10
74.01775451610081
 20
49.27503926402016
 10
74.008
 20
49.275999999999996
 10
69.158
 20
49.275999999999996
 10
69.14824548389919
 20
49.27503926402016
 10
69.13886582838175
 20
49.272193976625566
 10
69.13022148834902
 20
49.26757348061513
 10
69.12264466094068
 20
49.26135533905933
 10
69.11642651938487
 20
49.25377851165098
 10
69.11180602337444
 20
49.245134171618254
 10
69.10896073597984
 20
49.235754516100805
 10
69.108
 20
49.226
 10
69.108
 20
48.226
 10
69.10896073597984
 20
48.21624548389919
 10
69.11180602337444
 20
48.206865828381744
 10
69.11642651938487
 20
48.19822148834902
 10
69.12264466094068
 20
48.19064466094067
 10
69.13022148834902
 20
48.18442651938487
 10
69.13886582838175
 20
48.17980602337443
 10
69.14824548389919
 20
48.17696073597984
 10
69.158
 20
48.176
 10
74.008
 20
48.176
 10
74.01775451610081
 20
48.17696073597984
 10
74.02713417161824
 20
48.17980602337443
 10
74.03577851165097
 20
48.18442651938487
 10
74.04335533905932
 20
48.19064466094067
 10
74.04957348061512
 20
48.19822148834902
 10
74.05419397662556
 20
48.206865828381744
 10
74.05703926402016
 20
48.21624548389919
 10
74.05799999999999
 20
48.226
  0
LWPOLYLINE
  5
97
330
17
100
AcDbEntity
  8
REF_LED_POCKETS
100
AcDbPolyline
 90
36
 70
1
 10
74.30799999999999
 20
49.226
 10
74.30223558412096
 20
49.28452709660484
 10
74.28516385975338
 20
49.34080502970953
 10
74.25744088369076
 20
49.39267106990588
 10
74.22013203435596
 20
49.43813203435597
 10
74.17467106990587
 20
49.475440883690766
 10
74.12280502970953
 20
49.503163859753386
 10
74.06652709660483
 20
49.52023558412097
 10
74.008
 20
49.525999999999996
 10
69.158
 20
49.525999999999996
 10
69.09947290339517
 20
49.52023558412097
 10
69.04319497029047
 20
49.503163859753386
 10
68.99132893009413
 20
49.475440883690766
 10
68.94586796564404
 20
49.43813203435597
 10
68.90855911630923
 20
49.39267106990588
 10
68.88083614024661
 20
49.34080502970953
 10
68.86376441587903
 20
49.28452709660484
 10
68.858
 20
49.226
 10
68.858
 20
48.226
 10
68.86376441587903
 20
48.16747290339516
 10
68.88083614024661
 20
48.11119497029047
 10
68.90855911630923
 20
48.05932893009412
 10
68.94586796564404
 20
48.01386796564403
 10
68.99132893009413
 20
47.97655911630923
 10
69.04319497029047
 20
47.94883614024661
 10
69.09947290339517
 20
47.93176441587903
 10
69.158
 20
47.926
 10
74.008
 20
47.926
 10
74.06652709660483
 20
47.93176441587903
 10
74.12280502970953
 20
47.94883614024661
 10
74.17467106990587
 20
47.97655911630923
 10
74.22013203435596
 20
48.01386796564403
 10
74.25744088369076
 20
48.05932893009412
 10
74.28516385975338
 20
48.11119497029047
 10
74.30223558412096
 20
48.16747290339516
 10
74.30799999999999
 20
48.226
  0
LWPOLYLINE
  5
98
330
17
100
AcDbEntity
  8
FLEX_LEDS
100
AcDbPolyline
 90
36
 70
1
 10
32.658
 20
48.726
 10
32.65703926402016
 20
48.735754516100805
 10
32.65419397662557
 20
48.745134171618254
 10
32.64957348061513
 20
48.75377851165098
 10
32.64335533905933
 20
48.76135533905933
 10
32.63577851165098
 20
48.76757348061513
 10
32.62713417161826
 20
48.772193976625566
 10
32.61775451610081
 20
48.77503926402016
 10
32.608000000000004
 20
48.775999999999996
 10
31.458000000000002
 20
48.775999999999996
 10
31.448245483899196
 20
48.77503926402016
 10
31.438865828381747
 20
48.772193976625566
 10
31.430221488349023
 20
48.76757348061513
 10
31.422644660940673
 20
48.76135533905933
 10
31.416426519384874
 20
48.75377851165098
 10
31.41180602337444
 20
48.745134171618254
 10
31.40896073597984
 20
48.735754516100805
 10
31.408
 20
48.726
 10
31.408
 20
44.275999999999996
 10
31.40896073597984
 20
44.26624548389919
 10
31.41180602337444
 20
44.25686582838174
 10
31.416426519384874
 20
44.24822148834902
 10
31.422644660940673
 20
44.24064466094067
 10
31.430221488349023
 20
44.23442651938487
 10
31.438865828381747
 20
44.22980602337443
 10
31.448245483899196
 20
44.22696073597984
 10
31.458000000000002
 20
44.226
 10
32.608000000000004
 20
44.226
 10
32.61775451610081
 20
44.22696073597984
 10
32.62713417161826
 20
44.22980602337443
 10
32.63577851165098
 20
44.23442651938487
 10
32.64335533905933
 20
44.24064466094067
 10
32.64957348061513
 20
44.24822148834902
 10
32.65419397662557
 20
44.25686582838174
 10
32.65703926402016
 20
44.26624548389919
 10
32.658
 20
44.275999999999996
  0
LWPOLYLINE
  5
99
330
17
100
AcDbEntity
  8
REF_LED_POCKETS
100
AcDbPolyline
 90
36
 70
1
 10
32.908
 20
48.726
 10
32.90223558412097
 20
48.78452709660484
 10
32.88516385975339
 20
48.84080502970953
 10
32.85744088369077
 20
48.89267106990588
 10
32.82013203435597
 20
48.93813203435597
 10
32.774671069905885
 20
48.975440883690766
 10
32.722805029709534
 20
49.003163859753386
 10
32.666527096604845
 20
49.02023558412097
 10
32.608000000000004
 20
49.025999999999996
 10
31.458000000000002
 20
49.025999999999996
 10
31.399472903395164
 20
49.02023558412097
 10
31.343194970290476
 20
49.003163859753386
 10
31.29132893009412
 20
48.975440883690766
 10
31.245867965644038
 20
48.93813203435597
 10
31.20855911630924
 20
48.89267106990588
 10
31.180836140246615
 20
48.84080502970953
 10
31.163764415879033
 20
48.78452709660484
 10
31.158
 20
48.726
 10
31.158
 20
44.275999999999996
 10
31.163764415879033
 20
44.217472903395155
 10
31.180836140246615
 20
44.16119497029047
 10
31.20855911630924
 20
44.109328930094115
 10
31.245867965644038
 20
44.06386796564403
 10
31.29132893009412
 20
44.02655911630923
 10
31.343194970290476
 20
43.99883614024661
 10
31.399472903395164
 20
43.98176441587903
 10
31.458000000000002
 20
43.976
 10
32.608000000000004
 20
43.976
 10
32.666527096604845
 20
43.98176441587903
 10
32.722805029709534
 20
43.99883614024661
 10
32.774671069905885
 20
44.02655911630923
 10
32.82013203435597
 20
44.06386796564403
 10
32.85744088369077
 20
44.109328930094115
 10
32.88516385975339
 20
44.16119497029047
 10
32.90223558412097
 20
44.217472903395155
 10
32.908
 20
44.275999999999996
  0
LWPOLYLINE
  5
9A
330
17
100
AcDbEntity
  8
FLEX_LEDS
100
AcDbPolyline
 90
36
 70
1
 10
55.858000000000004
 20
43.426
 10
55.857039264020166
 20
43.43575451610081
 10
55.854193976625574
 20
43.44513417161826
 10
55.849573480615135
 20
43.45377851165098
 10
55.843355339059336
 20
43.46135533905933
 10
55.835778511650986
 20
43.46757348061513
 10
55.82713417161826
 20
43.47219397662557
 10
55.81775451610081
 20
43.47503926402016
 10
55.80800000000001
 20
43.476
 10
50.958
 20
43.476
 10
50.94824548389919
 20
43.47503926402016
 10
50.93886582838174
 20
43.47219397662557
 10
50.93022148834902
 20
43.46757348061513
 10
50.92264466094067
 20
43.46135533905933
 10
50.91642651938487
 20
43.45377851165098
 10
50.91180602337443
 20
43.44513417161826
 10
50.90896073597984
 20
43.43575451610081
 10
50.908
 20
43.426
 10
50.908
 20
42.426
 10
50.90896073597984
 20
42.416245483899196
 10
50.91180602337443
 20
42.40686582838175
 10
50.91642651938487
 20
42.39822148834902
 10
50.92264466094067
 20
42.39064466094067
 10
50.93022148834902
 20
42.384426519384874
 10
50.93886582838174
 20
42.379806023374435
 10
50.94824548389919
 20
42.37696073597984
 10
50.958
 20
42.376000000000005
 10
55.80800000000001
 20
42.376000000000005
 10
55.81775451610081
 20
42.37696073597984
 10
55.82713417161826
 20
42.379806023374435
 10
55.835778511650986
 20
42.384426519384874
 10
55.843355339059336
 20
42.39064466094067
 10
55.849573480615135
 20
42.39822148834902
 10
55.854193976625574
 20
42.40686582838175
 10
55.857039264020166
 20
42.416245483899196
 10
55.858000000000004
 20
42.426
  0
LWPOLYLINE
  5
9B
330
17
100
AcDbEntity
  8
REF_LED_POCKETS
100
AcDbPolyline
 90
36
 70
1
 10
56.108000000000004
 20
43.426
 10
56.102235584120976
 20
43.48452709660484
 10
56.08516385975339
 20
43.54080502970953
 10
56.057440883690774
 20
43.59267106990588
 10
56.020132034355974
 20
43.63813203435597
 10
55.97467106990589
 20
43.67544088369077
 10
55.92280502970954
 20
43.70316385975339
 10
55.86652709660485
 20
43.72023558412097
 10
55.80800000000001
 20
43.726
 10
50.958
 20
43.726
 10
50.89947290339516
 20
43.72023558412097
 10
50.84319497029047
 20
43.70316385975339
 10
50.79132893009412
 20
43.67544088369077
 10
50.74586796564403
 20
43.63813203435597
 10
50.70855911630923
 20
43.59267106990588
 10
50.68083614024661
 20
43.54080502970953
 10
50.66376441587903
 20
43.48452709660484
 10
50.658
 20
43.426
 10
50.658
 20
42.426
 10
50.66376441587903
 20
42.36747290339516
 10
50.68083614024661
 20
42.31119497029047
 10
50.70855911630923
 20
42.25932893009412
 10
50.74586796564403
 20
42.213867965644035
 10
50.79132893009412
 20
42.176559116309235
 10
50.84319497029047
 20
42.148836140246615
 10
50.89947290339516
 20
42.13176441587903
 10
50.958
 20
42.126000000000005
 10
55.80800000000001
 20
42.126000000000005
 10
55.86652709660485
 20
42.13176441587903
 10
55.92280502970954
 20
42.148836140246615
 10
55.97467106990589
 20
42.176559116309235
 10
56.020132034355974
 20
42.213867965644035
 10
56.057440883690774
 20
42.25932893009412
 10
56.08516385975339
 20
42.31119497029047
 10
56.102235584120976
 20
42.36747290339516
 10
56.108000000000004
 20
42.426
  0
LWPOLYLINE
  5
9C
330
17
100
AcDbEntity
  8
FLEX_LEDS
100
AcDbPolyline
 90
36
 70
1
 10
75.358
 20
29.625999999999998
 10
75.35703926402017
 20
29.635754516100803
 10
75.35419397662557
 20
29.645134171618253
 10
75.34957348061513
 20
29.653778511650977
 10
75.34335533905933
 20
29.661355339059327
 10
75.33577851165099
 20
29.667573480615125
 10
75.32713417161825
 20
29.67219397662556
 10
75.31775451610082
 20
29.67503926402016
 10
75.308
 20
29.676
 10
74.308
 20
29.676
 10
74.2982454838992
 20
29.67503926402016
 10
74.28886582838176
 20
29.67219397662556
 10
74.28022148834903
 20
29.667573480615125
 10
74.27264466094068
 20
29.661355339059327
 10
74.26642651938488
 20
29.653778511650977
 10
74.26180602337445
 20
29.645134171618253
 10
74.25896073597984
 20
29.635754516100803
 10
74.25800000000001
 20
29.625999999999998
 10
74.25800000000001
 20
25.426000000000002
 10
74.25896073597984
 20
25.416245483899196
 10
74.26180602337445
 20
25.406865828381747
 10
74.26642651938488
 20
25.398221488349023
 10
74.27264466094068
 20
25.390644660940673
 10
74.28022148834903
 20
25.384426519384874
 10
74.28886582838176
 20
25.37980602337444
 10
74.2982454838992
 20
25.37696073597984
 10
74.308
 20
25.376
 10
75.308
 20
25.376
 10
75.31775451610082
 20
25.37696073597984
 10
75.32713417161825
 20
25.37980602337444
 10
75.33577851165099
 20
25.384426519384874
 10
75.34335533905933
 20
25.390644660940673
 10
75.34957348061513
 20
25.398221488349023
 10
75.35419397662557
 20
25.406865828381747
 10
75.35703926402017
 20
25.416245483899196
 10
75.358
 20
25.426000000000002
  0
LWPOLYLINE
  5
9D
330
17
100
AcDbEntity
  8
REF_LED_POCKETS
100
AcDbPolyline
 90
36
 70
1
 10
75.608
 20
29.625999999999998
 10
75.60223558412098
 20
29.684527096604835
 10
75.5851638597534
 20
29.740805029709524
 10
75.55744088369077
 20
29.79267106990588
 10
75.52013203435597
 20
29.83813203435596
 10
75.47467106990588
 20
29.87544088369076
 10
75.42280502970954
 20
29.903163859753384
 10
75.36652709660484
 20
29.920235584120967
 10
75.308
 20
29.926
 10
74.308
 20
29.926
 10
74.24947290339517
 20
29.920235584120967
 10
74.19319497029048
 20
29.903163859753384
 10
74.14132893009413
 20
29.87544088369076
 10
74.09586796564405
 20
29.83813203435596
 10
74.05855911630924
 20
29.79267106990588
 10
74.03083614024662
 20
29.740805029709524
 10
74.01376441587904
 20
29.684527096604835
 10
74.00800000000001
 20
29.625999999999998
 10
74.00800000000001
 20
25.426000000000002
 10
74.01376441587904
 20
25.367472903395164
 10
74.03083614024662
 20
25.311194970290476
 10
74.05855911630924
 20
25.25932893009412
 10
74.09586796564405
 20
25.213867965644038
 10
74.14132893009413
 20
25.17655911630924
 10
74.19319497029048
 20
25.148836140246615
 10
74.24947290339517
 20
25.131764415879033
 10
74.308
 20
25.126
 10
75.308
 20
25.126
 10
75.36652709660484
 20
25.131764415879033
 10
75.42280502970954
 20
25.148836140246615
 10
75.47467106990588
 20
25.17655911630924
 10
75.52013203435597
 20
25.213867965644038
 10
75.55744088369077
 20
25.25932893009412
 10
75.5851638597534
 20
25.311194970290476
 10
75.60223558412098
 20
25.367472903395164
 10
75.608
 20
25.426000000000002
  0
LWPOLYLINE
  5
9E
330
17
100
AcDbEntity
  8
FLEX_LEDS
100
AcDbPolyline
 90
36
 70
1
 10
37.058
 20
26.476
 10
37.05703926402016
 20
26.485754516100805
 10
37.05419397662557
 20
26.495134171618254
 10
37.04957348061513
 20
26.503778511650978
 10
37.04335533905933
 20
26.511355339059328
 10
37.03577851165098
 20
26.517573480615127
 10
37.02713417161826
 20
26.522193976625562
 10
37.01775451610081
 20
26.52503926402016
 10
37.008
 20
26.526
 10
33.45799999999999
 20
26.526
 10
33.448245483899186
 20
26.52503926402016
 10
33.438865828381736
 20
26.522193976625562
 10
33.43022148834901
 20
26.517573480615127
 10
33.42264466094066
 20
26.511355339059328
 10
33.41642651938486
 20
26.503778511650978
 10
33.411806023374425
 20
26.495134171618254
 10
33.40896073597983
 20
26.485754516100805
 10
33.407999999999994
 20
26.476
 10
33.407999999999994
 20
25.576
 10
33.40896073597983
 20
25.566245483899195
 10
33.411806023374425
 20
25.556865828381746
 10
33.41642651938486
 20
25.54822148834902
 10
33.42264466094066
 20
25.54064466094067
 10
33.43022148834901
 20
25.534426519384873
 10
33.438865828381736
 20
25.529806023374437
 10
33.448245483899186
 20
25.526960735979838
 10
33.45799999999999
 20
25.526
 10
37.008
 20
25.526
 10
37.01775451610081
 20
25.526960735979838
 10
37.02713417161826
 20
25.529806023374437
 10
37.03577851165098
 20
25.534426519384873
 10
37.04335533905933
 20
25.54064466094067
 10
37.04957348061513
 20
25.54822148834902
 10
37.05419397662557
 20
25.556865828381746
 10
37.05703926402016
 20
25.566245483899195
 10
37.058
 20
25.576
  0
LWPOLYLINE
  5
9F
330
17
100
AcDbEntity
  8
REF_LED_POCKETS
100
AcDbPolyline
 90
36
 70
1
 10
37.308
 20
26.476
 10
37.30223558412097
 20
26.534527096604837
 10
37.28516385975339
 20
26.590805029709525
 10
37.25744088369077
 20
26.64267106990588
 10
37.22013203435597
 20
26.688132034355963
 10
37.174671069905884
 20
26.725440883690762
 10
37.12280502970953
 20
26.753163859753386
 10
37.066527096604844
 20
26.770235584120968
 10
37.008
 20
26.776
 10
33.45799999999999
 20
26.776
 10
33.39947290339515
 20
26.770235584120968
 10
33.34319497029046
 20
26.753163859753386
 10
33.29132893009411
 20
26.725440883690762
 10
33.245867965644024
 20
26.688132034355963
 10
33.208559116309225
 20
26.64267106990588
 10
33.180836140246605
 20
26.590805029709525
 10
33.16376441587902
 20
26.534527096604837
 10
33.157999999999994
 20
26.476
 10
33.157999999999994
 20
25.576
 10
33.16376441587902
 20
25.517472903395163
 10
33.180836140246605
 20
25.461194970290475
 10
33.208559116309225
 20
25.40932893009412
 10
33.245867965644024
 20
25.363867965644037
 10
33.29132893009411
 20
25.326559116309237
 10
33.34319497029046
 20
25.298836140246614
 10
33.39947290339515
 20
25.28176441587903
 10
33.45799999999999
 20
25.276
 10
37.008
 20
25.276
 10
37.066527096604844
 20
25.28176441587903
 10
37.12280502970953
 20
25.298836140246614
 10
37.174671069905884
 20
25.326559116309237
 10
37.22013203435597
 20
25.363867965644037
 10
37.25744088369077
 20
25.40932893009412
 10
37.28516385975339
 20
25.461194970290475
 10
37.30223558412097
 20
25.517472903395163
 10
37.308
 20
25.576
  0
LWPOLYLINE
  5
A0
330
17
100
AcDbEntity
  8
FLEX_LEDS
100
AcDbPolyline
 90
36
 70
1
 10
58.858000000000004
 20
15.225999999999999
 10
58.857039264020166
 20
15.235754516100805
 10
58.854193976625574
 20
15.245134171618254
 10
58.849573480615135
 20
15.25377851165098
 10
58.843355339059336
 20
15.261355339059326
 10
58.835778511650986
 20
15.267573480615127
 10
58.82713417161826
 20
15.272193976625564
 10
58.81775451610081
 20
15.27503926402016
 10
58.80800000000001
 20
15.276
 10
57.708
 20
15.276
 10
57.69824548389919
 20
15.27503926402016
 10
57.68886582838174
 20
15.272193976625564
 10
57.68022148834902
 20
15.267573480615127
 10
57.67264466094067
 20
15.261355339059326
 10
57.66642651938487
 20
15.25377851165098
 10
57.66180602337443
 20
15.245134171618254
 10
57.65896073597984
 20
15.235754516100805
 10
57.658
 20
15.225999999999999
 10
57.658
 20
10.826
 10
57.65896073597984
 20
10.816245483899195
 10
57.66180602337443
 20
10.806865828381746
 10
57.66642651938487
 20
10.79822148834902
 10
57.67264466094067
 20
10.790644660940673
 10
57.68022148834902
 20
10.784426519384873
 10
57.68886582838174
 20
10.779806023374435
 10
57.69824548389919
 20
10.77696073597984
 10
57.708
 20
10.776
 10
58.80800000000001
 20
10.776
 10
58.81775451610081
 20
10.77696073597984
 10
58.82713417161826
 20
10.779806023374435
 10
58.835778511650986
 20
10.784426519384873
 10
58.843355339059336
 20
10.790644660940673
 10
58.849573480615135
 20
10.79822148834902
 10
58.854193976625574
 20
10.806865828381746
 10
58.857039264020166
 20
10.816245483899195
 10
58.858000000000004
 20
10.826
  0
LWPOLYLINE
  5
A1
330
17
100
AcDbEntity
  8
REF_LED_POCKETS
100
AcDbPolyline
 90
36
 70
1
 10
59.108000000000004
 20
15.225999999999999
 10
59.102235584120976
 20
15.284527096604837
 10
59.08516385975339
 20
15.340805029709527
 10
59.057440883690774
 20
15.39267106990588
 10
59.020132034355974
 20
15.438132034355963
 10
58.97467106990589
 20
15.475440883690762
 10
58.92280502970954
 20
15.503163859753386
 10
58.86652709660485
 20
15.520235584120968
 10
58.80800000000001
 20
15.526
 10
57.708
 20
15.526
 10
57.64947290339516
 20
15.520235584120968
 10
57.59319497029047
 20
15.503163859753386
 10
57.54132893009412
 20
15.475440883690762
 10
57.49586796564403
 20
15.438132034355963
 10
57.45855911630923
 20
15.39267106990588
 10
57.43083614024661
 20
15.340805029709527
 10
57.41376441587903
 20
15.284527096604837
 10
57.408
 20
15.225999999999999
 10
57.408
 20
10.826
 10
57.41376441587903
 20
10.767472903395163
 10
57.43083614024661
 20
10.711194970290473
 10
57.45855911630923
 20
10.65932893009412
 10
57.49586796564403
 20
10.613867965644037
 10
57.54132893009412
 20
10.576559116309237
 10
57.59319497029047
 20
10.548836140246614
 10
57.64947290339516
 20
10.531764415879032
 10
57.708
 20
10.526
 10
58.80800000000001
 20
10.526
 10
58.86652709660485
 20
10.531764415879032
 10
58.92280502970954
 20
10.548836140246614
 10
58.97467106990589
 20
10.576559116309237
 10
59.020132034355974
 20
10.613867965644037
 10
59.057440883690774
 20
10.65932893009412
 10
59.08516385975339
 20
10.711194970290475
 10
59.102235584120976
 20
10.767472903395161
 10
59.108000000000004
 20
10.826
  0
LWPOLYLINE
  5
A2
330
17
100
AcDbEntity
  8
FLEX_LEDS
100
AcDbPolyline
 90
36
 70
1
 10
49.083
 20
15.301
 10
49.08203926402016
 20
15.310754516100806
 10
49.07919397662557
 20
15.320134171618255
 10
49.07457348061513
 20
15.328778511650981
 10
49.06835533905933
 20
15.336355339059327
 10
49.06077851165098
 20
15.342573480615128
 10
49.052134171618256
 20
15.347193976625565
 10
49.04275451610081
 20
15.350039264020161
 10
49.033
 20
15.351
 10
47.93299999999999
 20
15.351
 10
47.92324548389919
 20
15.350039264020161
 10
47.91386582838174
 20
15.347193976625565
 10
47.905221488349014
 20
15.342573480615128
 10
47.897644660940664
 20
15.336355339059327
 10
47.891426519384865
 20
15.328778511650981
 10
47.886806023374426
 20
15.320134171618255
 10
47.883960735979834
 20
15.310754516100806
 10
47.882999999999996
 20
15.301
 10
47.882999999999996
 20
10.901000000000002
 10
47.883960735979834
 20
10.891245483899196
 10
47.886806023374426
 20
10.881865828381747
 10
47.891426519384865
 20
10.87322148834902
 10
47.897644660940664
 20
10.865644660940674
 10
47.905221488349014
 20
10.859426519384874
 10
47.91386582838174
 20
10.854806023374437
 10
47.92324548389919
 20
10.85196073597984
 10
47.93299999999999
 20
10.851
 10
49.033
 20
10.851
 10
49.04275451610081
 20
10.85196073597984
 10
49.052134171618256
 20
10.854806023374437
 10
49.06077851165098
 20
10.859426519384874
 10
49.06835533905933
 20
10.865644660940674
 10
49.07457348061513
 20
10.87322148834902
 10
49.07919397662557
 20
10.881865828381747
 10
49.08203926402016
 20
10.891245483899196
 10
49.083
 20
10.901000000000002
  0
LWPOLYLINE
  5
A3
330
17
100
AcDbEntity
  8
REF_LED_POCKETS
100
AcDbPolyline
 90
36
 70
1
 10
49.333
 20
15.301
 10
49.32723558412097
 20
15.359527096604838
 10
49.31016385975339
 20
15.415805029709528
 10
49.28244088369077
 20
15.467671069905881
 10
49.24513203435597
 20
15.513132034355964
 10
49.19967106990588
 20
15.550440883690763
 10
49.14780502970953
 20
15.578163859753387
 10
49.09152709660484
 20
15.595235584120969
 10
49.033
 20
15.601
 10
47.93299999999999
 20
15.601
 10
47.87447290339515
 20
15.595235584120969
 10
47.81819497029046
 20
15.578163859753387
 10
47.76632893009411
 20
15.550440883690763
 10
47.720867965644025
 20
15.513132034355964
 10
47.683559116309226
 20
15.467671069905881
 10
47.655836140246606
 20
15.415805029709528
 10
47.638764415879024
 20
15.359527096604838
 10
47.632999999999996
 20
15.301
 10
47.632999999999996
 20
10.901000000000002
 10
47.638764415879024
 20
10.842472903395164
 10
47.655836140246606
 20
10.786194970290474
 10
47.683559116309226
 20
10.73432893009412
 10
47.720867965644025
 20
10.688867965644038
 10
47.76632893009411
 20
10.651559116309238
 10
47.81819497029046
 20
10.623836140246615
 10
47.87447290339515
 20
10.606764415879033
 10
47.93299999999999
 20
10.601
 10
49.033
 20
10.601
 10
49.09152709660484
 20
10.606764415879033
 10
49.14780502970953
 20
10.623836140246615
 10
49.19967106990588
 20
10.651559116309238
 10
49.24513203435597
 20
10.688867965644038
 10
49.28244088369077
 20
10.73432893009412
 10
49.31016385975339
 20
10.786194970290476
 10
49.32723558412097
 20
10.842472903395162
 10
49.333
 20
10.901000000000002
  0
LWPOLYLINE
  5
A4
330
17
100
AcDbEntity
  8
FLEX_SILVER_FRAMES
100
AcDbPolyline
 90
36
 70
1
 10
74.876
 20
98.45400000000001
 10
74.86639264020162
 20
98.55154516100808
 10
74.83793976625564
 20
98.64534171618256
 10
74.79173480615128
 20
98.73178511650981
 10
74.72955339059328
 20
98.80755339059328
 10
74.65378511650981
 20
98.86973480615129
 10
74.56734171618255
 20
98.91593976625565
 10
74.47354516100808
 20
98.94439264020163
 10
74.376
 20
98.95400000000001
 10
32.506
 20
98.95400000000001
 10
32.408454838991936
 20
98.94439264020163
 10
32.31465828381746
 20
98.91593976625565
 10
32.228214883490196
 20
98.86973480615129
 10
32.152446609406724
 20
98.80755339059328
 10
32.09026519384873
 20
98.73178511650981
 10
32.044060233744354
 20
98.64534171618256
 10
32.01560735979839
 20
98.55154516100808
 10
32.006
 20
98.45400000000001
 10
32.006
 20
83.874
 10
32.01560735979839
 20
83.77645483899192
 10
32.044060233744354
 20
83.68265828381745
 10
32.09026519384873
 20
83.59621488349019
 10
32.152446609406724
 20
83.52044660940672
 10
32.228214883490196
 20
83.45826519384872
 10
32.31465828381746
 20
83.41206023374436
 10
32.408454838991936
 20
83.38360735979838
 10
32.506
 20
83.374
 10
74.376
 20
83.374
 10
74.47354516100808
 20
83.38360735979838
 10
74.56734171618255
 20
83.41206023374436
 10
74.65378511650981
 20
83.45826519384872
 10
74.72955339059328
 20
83.52044660940672
 10
74.79173480615128
 20
83.59621488349019
 10
74.83793976625564
 20
83.68265828381745
 10
74.86639264020162
 20
83.77645483899192
 10
74.876
 20
83.874
  0
LWPOLYLINE
  5
A5
330
17
100
AcDbEntity
  8
FLEX_SILVER_FRAMES
100
AcDbPolyline
 90
36
 70
1
 10
74.934
 20
80.354
 10
74.92439264020162
 20
80.45154516100807
 10
74.89593976625564
 20
80.54534171618255
 10
74.84973480615128
 20
80.6317851165098
 10
74.78755339059327
 20
80.70755339059328
 10
74.7117851165098
 20
80.76973480615128
 10
74.62534171618255
 20
80.81593976625564
 10
74.53154516100807
 20
80.84439264020162
 10
74.434
 20
80.854
 10
32.484
 20
80.854
 10
32.38645483899194
 20
80.84439264020162
 10
32.29265828381746
 20
80.81593976625564
 10
32.2062148834902
 20
80.76973480615128
 10
32.130446609406725
 20
80.70755339059328
 10
32.06826519384873
 20
80.6317851165098
 10
32.022060233744355
 20
80.54534171618255
 10
31.993607359798386
 20
80.45154516100807
 10
31.984
 20
80.354
 10
31.984
 20
50.874
 10
31.993607359798386
 20
50.77645483899194
 10
32.022060233744355
 20
50.68265828381746
 10
32.06826519384873
 20
50.5962148834902
 10
32.130446609406725
 20
50.520446609406726
 10
32.2062148834902
 20
50.45826519384873
 10
32.29265828381746
 20
50.412060233744356
 10
32.38645483899194
 20
50.38360735979839
 10
32.484
 20
50.374
 10
74.434
 20
50.374
 10
74.53154516100807
 20
50.38360735979839
 10
74.62534171618255
 20
50.412060233744356
 10
74.7117851165098
 20
50.45826519384873
 10
74.78755339059327
 20
50.520446609406726
 10
74.84973480615128
 20
50.5962148834902
 10
74.89593976625564
 20
50.68265828381746
 10
74.92439264020162
 20
50.77645483899194
 10
74.934
 20
50.874
  0
LWPOLYLINE
  5
A6
330
17
100
AcDbEntity
  8
FLEX_SILVER_FRAMES
100
AcDbPolyline
 90
36
 70
1
 10
74.813
 20
47.504
 10
74.80339264020162
 20
47.60154516100806
 10
74.77493976625564
 20
47.69534171618254
 10
74.72873480615128
 20
47.7817851165098
 10
74.66655339059328
 20
47.857553390593274
 10
74.5907851165098
 20
47.91973480615127
 10
74.50434171618255
 20
47.965939766255644
 10
74.41054516100807
 20
47.99439264020161
 10
74.313
 20
48.004
 10
32.503
 20
48.004
 10
32.405454838991936
 20
47.99439264020161
 10
32.31165828381746
 20
47.965939766255644
 10
32.225214883490196
 20
47.91973480615127
 10
32.14944660940672
 20
47.857553390593274
 10
32.08726519384873
 20
47.7817851165098
 10
32.04106023374435
 20
47.69534171618254
 10
32.01260735979839
 20
47.60154516100806
 10
32.003
 20
47.504
 10
32.003
 20
27.253999999999998
 10
32.01260735979839
 20
27.156454838991934
 10
32.04106023374435
 20
27.062658283817452
 10
32.08726519384873
 20
26.976214883490197
 10
32.14944660940672
 20
26.900446609406725
 10
32.225214883490196
 20
26.838265193848724
 10
32.31165828381746
 20
26.792060233744355
 10
32.405454838991936
 20
26.76360735979838
 10
32.503
 20
26.753999999999998
 10
74.313
 20
26.753999999999998
 10
74.41054516100807
 20
26.76360735979838
 10
74.50434171618255
 20
26.792060233744355
 10
74.5907851165098
 20
26.838265193848724
 10
74.66655339059328
 20
26.900446609406725
 10
74.72873480615128
 20
26.976214883490197
 10
74.77493976625564
 20
27.062658283817452
 10
74.80339264020162
 20
27.156454838991934
 10
74.813
 20
27.253999999999998
  0
CIRCLE
  5
A7
330
17
100
AcDbEntity
  8
FLEX_BUTTON
100
AcDbCircle
 10
43.023
 20
108.111
 30
0.0
 40
7.785
  0
CIRCLE
  5
A8
330
17
100
AcDbEntity
  8
FLEX_BUTTON
100
AcDbCircle
 10
43.023
 20
108.111
 30
0.0
 40
2.0
  0
LWPOLYLINE
  5
A9
330
17
100
AcDbEntity
  8
REF_PLATE_OUTLINE
100
AcDbPolyline
 90
36
 70
1
 10
79.14
 20
147.12
 10
78.91903072463715
 20
149.36353870318547
 10
78.2646146238798
 20
151.52085947219854
 10
77.20190054147928
 20
153.50905767972543
 10
75.77172798364529
 20
155.2517279836453
 10
74.02905767972543
 20
156.68190054147928
 10
72.04085947219853
 20
157.7446146238798
 10
69.88353870318548
 20
158.39903072463716
 10
67.64
 20
158.62
 10
38.739999999999995
 20
158.62
 10
36.49646129681452
 20
158.39903072463716
 10
34.33914052780146
 20
157.7446146238798
 10
32.35094232027457
 20
156.68190054147928
 10
30.608272016354697
 20
155.2517279836453
 10
29.178099458520723
 20
153.50905767972543
 10
28.115385376120198
 20
151.52085947219854
 10
27.460969275362846
 20
149.36353870318547
 10
27.239999999999995
 20
147.12
 10
27.239999999999995
 20
7.019999999999998
 10
27.460969275362846
 20
4.77646129681452
 10
28.115385376120194
 20
2.6191405278014646
 10
29.178099458520727
 20
0.6309423202745696
 10
30.608272016354697
 20
-1.1117279836453005
 10
32.35094232027457
 20
-2.541900541479274
 10
34.33914052780146
 20
-3.6046146238798027
 10
36.496461296814516
 20
-4.259030724637153
 10
38.739999999999995
 20
-4.480000000000004
 10
67.64
 20
-4.480000000000004
 10
69.88353870318548
 20
-4.259030724637153
 10
72.04085947219853
 20
-3.604614623879801
 10
74.02905767972543
 20
-2.5419005414792775
 10
75.77172798364529
 20
-1.1117279836453022
 10
77.20190054147928
 20
0.6309423202745705
 10
78.2646146238798
 20
2.6191405278014663
 10
78.91903072463715
 20
4.7764612968145155
 10
79.14
 20
7.019999999999993
  0
LWPOLYLINE
  5
AA
330
17
100
AcDbEntity
  8
REF_PLATE_OPENINGS
100
AcDbPolyline
 90
36
 70
1
 10
47.93
 20
75.95700000000001
 10
47.895413504725816
 20
76.30816257962904
 10
47.79298315852032
 20
76.64583017825717
 10
47.62664530214458
 20
76.9570264194353
 10
47.402792206135786
 20
77.2297922061358
 10
47.13002641943529
 20
77.4536453021446
 10
46.818830178257166
 20
77.61998315852033
 10
46.481162579629036
 20
77.72241350472582
 10
46.13
 20
77.757
 10
40.13
 20
77.757
 10
39.77883742037097
 20
77.72241350472582
 10
39.44116982174284
 20
77.61998315852033
 10
39.129973580564716
 20
77.4536453021446
 10
38.85720779386422
 20
77.2297922061358
 10
38.633354697855424
 20
76.9570264194353
 10
38.46701684147968
 20
76.64583017825717
 10
38.36458649527419
 20
76.30816257962904
 10
38.330000000000005
 20
75.95700000000001
 10
38.330000000000005
 20
75.557
 10
38.36458649527419
 20
75.20583742037097
 10
38.46701684147968
 20
74.86816982174284
 10
38.633354697855424
 20
74.55697358056472
 10
38.85720779386422
 20
74.28420779386421
 10
39.129973580564716
 20
74.06035469785542
 10
39.44116982174284
 20
73.89401684147968
 10
39.77883742037097
 20
73.79158649527419
 10
40.13
 20
73.757
 10
46.13
 20
73.757
 10
46.481162579629036
 20
73.79158649527419
 10
46.818830178257166
 20
73.89401684147968
 10
47.13002641943529
 20
74.06035469785542
 10
47.402792206135786
 20
74.28420779386421
 10
47.62664530214458
 20
74.55697358056472
 10
47.79298315852032
 20
74.86816982174284
 10
47.895413504725816
 20
75.20583742037097
 10
47.93
 20
75.557
  0
LWPOLYLINE
  5
AB
330
17
100
AcDbEntity
  8
REF_PLATE_OPENINGS
100
AcDbPolyline
 90
36
 70
1
 10
68.53
 20
75.95700000000001
 10
68.49541350472582
 20
76.30816257962904
 10
68.39298315852032
 20
76.64583017825717
 10
68.22664530214459
 20
76.9570264194353
 10
68.0027922061358
 20
77.2297922061358
 10
67.73002641943529
 20
77.4536453021446
 10
67.41883017825717
 20
77.61998315852033
 10
67.08116257962904
 20
77.72241350472582
 10
66.73
 20
77.757
 10
60.73
 20
77.757
 10
60.378837420370964
 20
77.72241350472582
 10
60.041169821742834
 20
77.61998315852033
 10
59.72997358056471
 20
77.4536453021446
 10
59.457207793864214
 20
77.2297922061358
 10
59.23335469785542
 20
76.9570264194353
 10
59.06701684147968
 20
76.64583017825717
 10
58.96458649527418
 20
76.30816257962904
 10
58.93
 20
75.95700000000001
 10
58.93
 20
75.557
 10
58.96458649527418
 20
75.20583742037097
 10
59.06701684147968
 20
74.86816982174284
 10
59.23335469785542
 20
74.55697358056472
 10
59.457207793864214
 20
74.28420779386421
 10
59.72997358056471
 20
74.06035469785542
 10
60.041169821742834
 20
73.89401684147968
 10
60.378837420370964
 20
73.79158649527419
 10
60.73
 20
73.757
 10
66.73
 20
73.757
 10
67.08116257962904
 20
73.79158649527419
 10
67.41883017825717
 20
73.89401684147968
 10
67.73002641943529
 20
74.06035469785542
 10
68.0027922061358
 20
74.28420779386421
 10
68.22664530214459
 20
74.55697358056472
 10
68.39298315852032
 20
74.86816982174284
 10
68.49541350472582
 20
75.20583742037097
 10
68.53
 20
75.557
  0
LWPOLYLINE
  5
AC
330
17
100
AcDbEntity
  8
REF_PLATE_OPENINGS
100
AcDbPolyline
 90
36
 70
1
 10
47.93
 20
66.04
 10
47.895413504725816
 20
66.39116257962904
 10
47.79298315852032
 20
66.72883017825717
 10
47.62664530214458
 20
67.04002641943529
 10
47.402792206135786
 20
67.3127922061358
 10
47.13002641943529
 20
67.53664530214459
 10
46.818830178257166
 20
67.70298315852033
 10
46.481162579629036
 20
67.80541350472582
 10
46.13
 20
67.84
 10
40.13
 20
67.84
 10
39.77883742037097
 20
67.80541350472582
 10
39.44116982174284
 20
67.70298315852033
 10
39.129973580564716
 20
67.53664530214459
 10
38.85720779386422
 20
67.3127922061358
 10
38.633354697855424
 20
67.04002641943529
 10
38.46701684147968
 20
66.72883017825717
 10
38.36458649527419
 20
66.39116257962904
 10
38.330000000000005
 20
66.04
 10
38.330000000000005
 20
65.64
 10
38.36458649527419
 20
65.28883742037097
 10
38.46701684147968
 20
64.95116982174284
 10
38.633354697855424
 20
64.63997358056471
 10
38.85720779386422
 20
64.36720779386421
 10
39.129973580564716
 20
64.14335469785541
 10
39.44116982174284
 20
63.97701684147968
 10
39.77883742037097
 20
63.87458649527419
 10
40.13
 20
63.84
 10
46.13
 20
63.84
 10
46.481162579629036
 20
63.87458649527419
 10
46.818830178257166
 20
63.97701684147968
 10
47.13002641943529
 20
64.14335469785541
 10
47.402792206135786
 20
64.36720779386421
 10
47.62664530214458
 20
64.63997358056471
 10
47.79298315852032
 20
64.95116982174284
 10
47.895413504725816
 20
65.28883742037097
 10
47.93
 20
65.64
  0
LWPOLYLINE
  5
AD
330
17
100
AcDbEntity
  8
REF_PLATE_OPENINGS
100
AcDbPolyline
 90
36
 70
1
 10
68.53
 20
66.04
 10
68.49541350472582
 20
66.39116257962904
 10
68.39298315852032
 20
66.72883017825717
 10
68.22664530214459
 20
67.04002641943529
 10
68.0027922061358
 20
67.3127922061358
 10
67.73002641943529
 20
67.53664530214459
 10
67.41883017825717
 20
67.70298315852033
 10
67.08116257962904
 20
67.80541350472582
 10
66.73
 20
67.84
 10
60.73
 20
67.84
 10
60.378837420370964
 20
67.80541350472582
 10
60.041169821742834
 20
67.70298315852033
 10
59.72997358056471
 20
67.53664530214459
 10
59.457207793864214
 20
67.3127922061358
 10
59.23335469785542
 20
67.04002641943529
 10
59.06701684147968
 20
66.72883017825717
 10
58.96458649527418
 20
66.39116257962904
 10
58.93
 20
66.04
 10
58.93
 20
65.64
 10
58.96458649527418
 20
65.28883742037097
 10
59.06701684147968
 20
64.95116982174284
 10
59.23335469785542
 20
64.63997358056471
 10
59.457207793864214
 20
64.36720779386421
 10
59.72997358056471
 20
64.14335469785541
 10
60.041169821742834
 20
63.97701684147968
 10
60.378837420370964
 20
63.87458649527419
 10
60.73
 20
63.84
 10
66.73
 20
63.84
 10
67.08116257962904
 20
63.87458649527419
 10
67.41883017825717
 20
63.97701684147968
 10
67.73002641943529
 20
64.14335469785541
 10
68.0027922061358
 20
64.36720779386421
 10
68.22664530214459
 20
64.63997358056471
 10
68.39298315852032
 20
64.95116982174284
 10
68.49541350472582
 20
65.28883742037097
 10
68.53
 20
65.64
  0
LWPOLYLINE
  5
AE
330
17
100
AcDbEntity
  8
REF_PLATE_OPENINGS
100
AcDbPolyline
 90
36
 70
1
 10
47.93
 20
56.172000000000004
 10
47.895413504725816
 20
56.52316257962904
 10
47.79298315852032
 20
56.86083017825717
 10
47.62664530214458
 20
57.17202641943529
 10
47.402792206135786
 20
57.44479220613579
 10
47.13002641943529
 20
57.66864530214458
 10
46.818830178257166
 20
57.83498315852032
 10
46.481162579629036
 20
57.93741350472582
 10
46.13
 20
57.972
 10
40.13
 20
57.972
 10
39.77883742037097
 20
57.93741350472582
 10
39.44116982174284
 20
57.83498315852032
 10
39.129973580564716
 20
57.66864530214458
 10
38.85720779386422
 20
57.44479220613579
 10
38.633354697855424
 20
57.17202641943529
 10
38.46701684147968
 20
56.86083017825717
 10
38.36458649527419
 20
56.52316257962904
 10
38.330000000000005
 20
56.172000000000004
 10
38.330000000000005
 20
55.772
 10
38.36458649527419
 20
55.420837420370965
 10
38.46701684147968
 20
55.083169821742835
 10
38.633354697855424
 20
54.77197358056471
 10
38.85720779386422
 20
54.499207793864215
 10
39.129973580564716
 20
54.27535469785542
 10
39.44116982174284
 20
54.10901684147968
 10
39.77883742037097
 20
54.006586495274185
 10
40.13
 20
53.972
 10
46.13
 20
53.972
 10
46.481162579629036
 20
54.006586495274185
 10
46.818830178257166
 20
54.10901684147968
 10
47.13002641943529
 20
54.27535469785542
 10
47.402792206135786
 20
54.499207793864215
 10
47.62664530214458
 20
54.77197358056471
 10
47.79298315852032
 20
55.083169821742835
 10
47.895413504725816
 20
55.420837420370965
 10
47.93
 20
55.772
  0
LWPOLYLINE
  5
AF
330
17
100
AcDbEntity
  8
REF_PLATE_OPENINGS
100
AcDbPolyline
 90
36
 70
1
 10
68.53
 20
56.172000000000004
 10
68.49541350472582
 20
56.52316257962904
 10
68.39298315852032
 20
56.86083017825717
 10
68.22664530214459
 20
57.17202641943529
 10
68.0027922061358
 20
57.44479220613579
 10
67.73002641943529
 20
57.66864530214458
 10
67.41883017825717
 20
57.83498315852032
 10
67.08116257962904
 20
57.93741350472582
 10
66.73
 20
57.972
 10
60.73
 20
57.972
 10
60.378837420370964
 20
57.93741350472582
 10
60.041169821742834
 20
57.83498315852032
 10
59.72997358056471
 20
57.66864530214458
 10
59.457207793864214
 20
57.44479220613579
 10
59.23335469785542
 20
57.17202641943529
 10
59.06701684147968
 20
56.86083017825717
 10
58.96458649527418
 20
56.52316257962904
 10
58.93
 20
56.172000000000004
 10
58.93
 20
55.772
 10
58.96458649527418
 20
55.420837420370965
 10
59.06701684147968
 20
55.083169821742835
 10
59.23335469785542
 20
54.77197358056471
 10
59.457207793864214
 20
54.499207793864215
 10
59.72997358056471
 20
54.27535469785542
 10
60.041169821742834
 20
54.10901684147968
 10
60.378837420370964
 20
54.006586495274185
 10
60.73
 20
53.972
 10
66.73
 20
53.972
 10
67.08116257962904
 20
54.006586495274185
 10
67.41883017825717
 20
54.10901684147968
 10
67.73002641943529
 20
54.27535469785542
 10
68.0027922061358
 20
54.499207793864215
 10
68.22664530214459
 20
54.77197358056471
 10
68.39298315852032
 20
55.083169821742835
 10
68.49541350472582
 20
55.420837420370965
 10
68.53
 20
55.772
  0
LWPOLYLINE
  5
B0
330
17
100
AcDbEntity
  8
REF_PLATE_OPENINGS
100
AcDbPolyline
 90
36
 70
1
 10
50.055
 20
45.038
 10
50.043471168241936
 20
45.15505419320967
 10
50.00932771950677
 20
45.26761005941905
 10
49.953881767381525
 20
45.37134213981176
 10
49.879264068711926
 20
45.462264068711924
 10
49.78834213981176
 20
45.53688176738152
 10
49.68461005941905
 20
45.59232771950677
 10
49.572054193209674
 20
45.626471168241935
 10
49.455
 20
45.638
 10
36.655
 20
45.638
 10
36.537945806790326
 20
45.626471168241935
 10
36.42538994058095
 20
45.59232771950677
 10
36.32165786018824
 20
45.53688176738152
 10
36.23073593128807
 20
45.462264068711924
 10
36.156118232618475
 20
45.37134213981176
 10
36.10067228049323
 20
45.26761005941905
 10
36.06652883175806
 20
45.15505419320967
 10
36.055
 20
45.038
 10
36.055
 20
40.238
 10
36.06652883175806
 20
40.120945806790324
 10
36.10067228049323
 20
40.00838994058095
 10
36.156118232618475
 20
39.90465786018824
 10
36.23073593128807
 20
39.81373593128807
 10
36.32165786018824
 20
39.73911823261847
 10
36.42538994058095
 20
39.68367228049323
 10
36.537945806790326
 20
39.64952883175806
 10
36.655
 20
39.638
 10
49.455
 20
39.638
 10
49.572054193209674
 20
39.64952883175806
 10
49.68461005941905
 20
39.68367228049323
 10
49.78834213981176
 20
39.73911823261847
 10
49.879264068711926
 20
39.81373593128807
 10
49.953881767381525
 20
39.90465786018824
 10
50.00932771950677
 20
40.00838994058095
 10
50.043471168241936
 20
40.120945806790324
 10
50.055
 20
40.238
  0
LWPOLYLINE
  5
B1
330
17
100
AcDbEntity
  8
REF_PLATE_OPENINGS
100
AcDbPolyline
 90
36
 70
1
 10
50.055
 20
34.934999999999995
 10
50.043471168241936
 20
35.05205419320967
 10
50.00932771950677
 20
35.16461005941905
 10
49.953881767381525
 20
35.26834213981176
 10
49.879264068711926
 20
35.35926406871192
 10
49.78834213981176
 20
35.43388176738152
 10
49.68461005941905
 20
35.48932771950677
 10
49.572054193209674
 20
35.52347116824193
 10
49.455
 20
35.535
 10
36.655
 20
35.535
 10
36.537945806790326
 20
35.52347116824193
 10
36.42538994058095
 20
35.48932771950677
 10
36.32165786018824
 20
35.43388176738152
 10
36.23073593128807
 20
35.35926406871192
 10
36.156118232618475
 20
35.26834213981176
 10
36.10067228049323
 20
35.16461005941905
 10
36.06652883175806
 20
35.05205419320967
 10
36.055
 20
34.934999999999995
 10
36.055
 20
30.134999999999998
 10
36.06652883175806
 20
30.017945806790323
 10
36.10067228049323
 20
29.905389940580942
 10
36.156118232618475
 20
29.801657860188236
 10
36.23073593128807
 20
29.71073593128807
 10
36.32165786018824
 20
29.636118232618472
 10
36.42538994058095
 20
29.580672280493225
 10
36.537945806790326
 20
29.54652883175806
 10
36.655
 20
29.534999999999997
 10
49.455
 20
29.534999999999997
 10
49.572054193209674
 20
29.54652883175806
 10
49.68461005941905
 20
29.580672280493225
 10
49.78834213981176
 20
29.636118232618472
 10
49.879264068711926
 20
29.71073593128807
 10
49.953881767381525
 20
29.801657860188236
 10
50.00932771950677
 20
29.905389940580946
 10
50.043471168241936
 20
30.01794580679032
 10
50.055
 20
30.134999999999998
  0
LWPOLYLINE
  5
B2
330
17
100
AcDbEntity
  8
REF_PLATE_OPENINGS
100
AcDbPolyline
 90
36
 70
1
 10
70.697
 20
45.038
 10
70.68547116824195
 20
45.15505419320967
 10
70.65132771950678
 20
45.26761005941905
 10
70.59588176738154
 20
45.37134213981176
 10
70.52126406871194
 20
45.462264068711924
 10
70.43034213981177
 20
45.53688176738152
 10
70.32661005941907
 20
45.59232771950677
 10
70.21405419320969
 20
45.626471168241935
 10
70.09700000000001
 20
45.638
 10
57.297000000000004
 20
45.638
 10
57.17994580679033
 20
45.626471168241935
 10
57.06738994058095
 20
45.59232771950677
 10
56.96365786018824
 20
45.53688176738152
 10
56.87273593128808
 20
45.462264068711924
 10
56.79811823261848
 20
45.37134213981176
 10
56.74267228049323
 20
45.26761005941905
 10
56.708528831758066
 20
45.15505419320967
 10
56.697
 20
45.038
 10
56.697
 20
40.238
 10
56.708528831758066
 20
40.120945806790324
 10
56.74267228049323
 20
40.00838994058095
 10
56.79811823261848
 20
39.90465786018824
 10
56.87273593128808
 20
39.81373593128807
 10
56.96365786018824
 20
39.73911823261847
 10
57.06738994058095
 20
39.68367228049323
 10
57.17994580679033
 20
39.64952883175806
 10
57.297000000000004
 20
39.638
 10
70.09700000000001
 20
39.638
 10
70.21405419320969
 20
39.64952883175806
 10
70.32661005941907
 20
39.68367228049323
 10
70.43034213981177
 20
39.73911823261847
 10
70.52126406871194
 20
39.81373593128807
 10
70.59588176738154
 20
39.90465786018824
 10
70.65132771950678
 20
40.00838994058095
 10
70.68547116824195
 20
40.120945806790324
 10
70.697
 20
40.238
  0
LWPOLYLINE
  5
B3
330
17
100
AcDbEntity
  8
REF_PLATE_OPENINGS
100
AcDbPolyline
 90
36
 70
1
 10
70.697
 20
34.934999999999995
 10
70.68547116824195
 20
35.05205419320967
 10
70.65132771950678
 20
35.16461005941905
 10
70.59588176738154
 20
35.26834213981176
 10
70.52126406871194
 20
35.35926406871192
 10
70.43034213981177
 20
35.43388176738152
 10
70.32661005941907
 20
35.48932771950677
 10
70.21405419320969
 20
35.52347116824193
 10
70.09700000000001
 20
35.535
 10
57.297000000000004
 20
35.535
 10
57.17994580679033
 20
35.52347116824193
 10
57.06738994058095
 20
35.48932771950677
 10
56.96365786018824
 20
35.43388176738152
 10
56.87273593128808
 20
35.35926406871192
 10
56.79811823261848
 20
35.26834213981176
 10
56.74267228049323
 20
35.16461005941905
 10
56.708528831758066
 20
35.05205419320967
 10
56.697
 20
34.934999999999995
 10
56.697
 20
30.134999999999998
 10
56.708528831758066
 20
30.017945806790323
 10
56.74267228049323
 20
29.905389940580942
 10
56.79811823261848
 20
29.801657860188236
 10
56.87273593128808
 20
29.71073593128807
 10
56.96365786018824
 20
29.636118232618472
 10
57.06738994058095
 20
29.580672280493225
 10
57.17994580679033
 20
29.54652883175806
 10
57.297000000000004
 20
29.534999999999997
 10
70.09700000000001
 20
29.534999999999997
 10
70.21405419320969
 20
29.54652883175806
 10
70.32661005941907
 20
29.580672280493225
 10
70.43034213981177
 20
29.636118232618472
 10
70.52126406871194
 20
29.71073593128807
 10
70.59588176738154
 20
29.801657860188236
 10
70.65132771950678
 20
29.905389940580946
 10
70.68547116824195
 20
30.01794580679032
 10
70.697
 20
30.134999999999998
  0
LWPOLYLINE
  5
B4
330
17
100
AcDbEntity
  8
REF_PLATE_OPENINGS
100
AcDbPolyline
 90
36
 70
1
 10
70.164
 20
96.107
 10
70.15439264020162
 20
96.20454516100807
 10
70.12593976625564
 20
96.29834171618255
 10
70.07973480615128
 20
96.3847851165098
 10
70.01755339059328
 20
96.46055339059328
 10
69.9417851165098
 20
96.52273480615128
 10
69.85534171618255
 20
96.56893976625564
 10
69.76154516100807
 20
96.59739264020162
 10
69.664
 20
96.607
 10
57.664
 20
96.607
 10
57.56645483899194
 20
96.59739264020162
 10
57.47265828381746
 20
96.56893976625564
 10
57.3862148834902
 20
96.52273480615128
 10
57.310446609406725
 20
96.46055339059328
 10
57.24826519384873
 20
96.3847851165098
 10
57.202060233744355
 20
96.29834171618255
 10
57.17360735979839
 20
96.20454516100807
 10
57.164
 20
96.107
 10
57.164
 20
86.707
 10
57.17360735979839
 20
86.60945483899192
 10
57.202060233744355
 20
86.51565828381744
 10
57.24826519384873
 20
86.42921488349019
 10
57.310446609406725
 20
86.35344660940672
 10
57.3862148834902
 20
86.29126519384872
 10
57.47265828381746
 20
86.24506023374435
 10
57.56645483899194
 20
86.21660735979837
 10
57.664
 20
86.207
 10
69.664
 20
86.207
 10
69.76154516100807
 20
86.21660735979837
 10
69.85534171618255
 20
86.24506023374435
 10
69.9417851165098
 20
86.29126519384872
 10
70.01755339059328
 20
86.35344660940672
 10
70.07973480615128
 20
86.42921488349019
 10
70.12593976625564
 20
86.51565828381744
 10
70.15439264020162
 20
86.60945483899192
 10
70.164
 20
86.707
  0
LWPOLYLINE
  5
B5
330
17
100
AcDbEntity
  8
REF_PLATE_OPENINGS
100
AcDbPolyline
 90
36
 70
1
 10
49.645
 20
96.445
 10
49.635392640201616
 20
96.54254516100806
 10
49.60693976625565
 20
96.63634171618254
 10
49.560734806151274
 20
96.7227851165098
 10
49.49855339059328
 20
96.79855339059327
 10
49.42278511650981
 20
96.86073480615127
 10
49.336341716182545
 20
96.90693976625563
 10
49.24254516100807
 20
96.93539264020161
 10
49.145
 20
96.945
 10
37.145
 20
96.945
 10
37.04745483899194
 20
96.93539264020161
 10
36.95365828381746
 20
96.90693976625563
 10
36.8672148834902
 20
96.86073480615127
 10
36.79144660940673
 20
96.79855339059327
 10
36.72926519384873
 20
96.7227851165098
 10
36.68306023374436
 20
96.63634171618254
 10
36.65460735979839
 20
96.54254516100806
 10
36.645
 20
96.445
 10
36.645
 20
86.745
 10
36.65460735979839
 20
86.64745483899193
 10
36.68306023374436
 20
86.55365828381746
 10
36.72926519384873
 20
86.4672148834902
 10
36.79144660940673
 20
86.39144660940673
 10
36.8672148834902
 20
86.32926519384873
 10
36.95365828381746
 20
86.28306023374437
 10
37.04745483899194
 20
86.25460735979838
 10
37.145
 20
86.245
 10
49.145
 20
86.245
 10
49.24254516100807
 20
86.25460735979838
 10
49.336341716182545
 20
86.28306023374437
 10
49.42278511650981
 20
86.32926519384873
 10
49.49855339059328
 20
86.39144660940673
 10
49.560734806151274
 20
86.4672148834902
 10
49.60693976625565
 20
86.55365828381746
 10
49.635392640201616
 20
86.64745483899193
 10
49.645
 20
86.745
  0
LWPOLYLINE
  5
B6
330
17
100
AcDbEntity
  8
REF_PLATE_OPENINGS
100
AcDbPolyline
 90
36
 70
1
 10
71.658
 20
108.919
 10
71.63878528040323
 20
109.11409032201612
 10
71.5818795325113
 20
109.30168343236508
 10
71.48946961230254
 20
109.4745702330196
 10
71.36510678118655
 20
109.62610678118655
 10
71.21357023301961
 20
109.75046961230254
 10
71.04068343236509
 20
109.84287953251129
 10
70.85309032201613
 20
109.89978528040322
 10
70.658
 20
109.919
 10
57.058
 20
109.919
 10
56.86290967798387
 20
109.89978528040322
 10
56.67531656763491
 20
109.84287953251129
 10
56.5024297669804
 20
109.75046961230254
 10
56.350893218813454
 20
109.62610678118655
 10
56.22653038769745
 20
109.4745702330196
 10
56.134120467488714
 20
109.30168343236508
 10
56.07721471959677
 20
109.11409032201612
 10
56.058
 20
108.919
 10
56.058
 20
105.21900000000001
 10
56.07721471959677
 20
105.02390967798388
 10
56.134120467488714
 20
104.83631656763492
 10
56.22653038769745
 20
104.6634297669804
 10
56.350893218813454
 20
104.51189321881346
 10
56.5024297669804
 20
104.38753038769747
 10
56.67531656763491
 20
104.29512046748872
 10
56.86290967798387
 20
104.23821471959678
 10
57.058
 20
104.21900000000001
 10
70.658
 20
104.21900000000001
 10
70.85309032201613
 20
104.23821471959678
 10
71.04068343236509
 20
104.29512046748872
 10
71.21357023301961
 20
104.38753038769747
 10
71.36510678118655
 20
104.51189321881346
 10
71.48946961230254
 20
104.6634297669804
 10
71.5818795325113
 20
104.83631656763492
 10
71.63878528040323
 20
105.02390967798388
 10
71.658
 20
105.21900000000001
  0
LWPOLYLINE
  5
B7
330
17
100
AcDbEntity
  8
REF_PLATE_OPENINGS
100
AcDbPolyline
 90
36
 70
1
 10
70.57499999999999
 20
139.475
 10
70.51735584120968
 20
140.0602709660484
 10
70.34663859753385
 20
140.62305029709526
 10
70.06940883690763
 20
141.1417106990588
 10
69.69632034355963
 20
141.59632034355963
 10
69.2417106990588
 20
141.96940883690763
 10
68.72305029709526
 20
142.24663859753386
 10
68.16027096604837
 20
142.41735584120968
 10
67.57499999999999
 20
142.475
 10
39.025
 20
142.475
 10
38.439729033951615
 20
142.41735584120968
 10
37.87694970290473
 20
142.24663859753386
 10
37.358289300941195
 20
141.96940883690763
 10
36.90367965644035
 20
141.59632034355963
 10
36.53059116309236
 20
141.1417106990588
 10
36.25336140246614
 20
140.62305029709526
 10
36.08264415879031
 20
140.0602709660484
 10
36.025
 20
139.475
 10
36.025
 20
120.825
 10
36.08264415879031
 20
120.23972903395162
 10
36.25336140246614
 20
119.67694970290474
 10
36.53059116309236
 20
119.15828930094119
 10
36.90367965644035
 20
118.70367965644036
 10
37.358289300941195
 20
118.33059116309236
 10
37.87694970290473
 20
118.05336140246614
 10
38.439729033951615
 20
117.88264415879031
 10
39.025
 20
117.825
 10
67.57499999999999
 20
117.825
 10
68.16027096604837
 20
117.88264415879031
 10
68.72305029709526
 20
118.05336140246614
 10
69.2417106990588
 20
118.33059116309236
 10
69.69632034355963
 20
118.70367965644036
 10
70.06940883690763
 20
119.15828930094119
 10
70.34663859753385
 20
119.67694970290474
 10
70.51735584120968
 20
120.23972903395162
 10
70.57499999999999
 20
120.825
  0
CIRCLE
  5
B8
330
17
100
AcDbEntity
  8
REF_PLATE_OPENINGS
100
AcDbCircle
 10
42.17
 20
19.42
 30
0.0
 40
2.4
  0
CIRCLE
  5
B9
330
17
100
AcDbEntity
  8
REF_PLATE_OPENINGS
100
AcDbCircle
 10
63.41
 20
19.1
 30
0.0
 40
2.4
  0
CIRCLE
  5
BA
330
17
100
AcDbEntity
  8
REF_PLATE_OPENINGS
100
AcDbCircle
 10
43.023
 20
108.111
 30
0.0
 40
6.2
  0
LWPOLYLINE
  5
BB
330
17
100
AcDbEntity
  8
REF_LIGHT_WINDOWS
100
AcDbPolyline
 90
36
 70
1
 10
66.91
 20
113.294
 10
66.89847116824194
 20
113.41105419320968
 10
66.86432771950678
 20
113.52361005941906
 10
66.80888176738154
 20
113.62734213981176
 10
66.73426406871194
 20
113.71826406871193
 10
66.64334213981176
 20
113.79288176738153
 10
66.53961005941906
 20
113.84832771950677
 10
66.42705419320968
 20
113.88247116824193
 10
66.31
 20
113.89399999999999
 10
60.51
 20
113.89399999999999
 10
60.39294580679032
 20
113.88247116824193
 10
60.280389940580946
 20
113.84832771950677
 10
60.176657860188236
 20
113.79288176738153
 10
60.08573593128807
 20
113.71826406871193
 10
60.01111823261847
 20
113.62734213981176
 10
59.955672280493225
 20
113.52361005941906
 10
59.92152883175806
 20
113.41105419320968
 10
59.91
 20
113.294
 10
59.91
 20
112.89399999999999
 10
59.92152883175806
 20
112.77694580679031
 10
59.955672280493225
 20
112.66438994058093
 10
60.01111823261847
 20
112.56065786018823
 10
60.08573593128807
 20
112.46973593128806
 10
60.176657860188236
 20
112.39511823261846
 10
60.280389940580946
 20
112.33967228049322
 10
60.39294580679032
 20
112.30552883175805
 10
60.51
 20
112.294
 10
66.31
 20
112.294
 10
66.42705419320968
 20
112.30552883175805
 10
66.53961005941906
 20
112.33967228049322
 10
66.64334213981176
 20
112.39511823261846
 10
66.73426406871194
 20
112.46973593128806
 10
66.80888176738154
 20
112.56065786018823
 10
66.86432771950678
 20
112.66438994058093
 10
66.89847116824194
 20
112.77694580679031
 10
66.91
 20
112.89399999999999
  0
LWPOLYLINE
  5
BC
330
17
100
AcDbEntity
  8
REF_LIGHT_WINDOWS
100
AcDbPolyline
 90
36
 70
1
 10
54.906
 20
93.767
 10
54.88678528040323
 20
93.96209032201612
 10
54.829879532511285
 20
94.14968343236508
 10
54.73746961230255
 20
94.3225702330196
 10
54.613106781186545
 20
94.47410678118655
 10
54.4615702330196
 20
94.59846961230254
 10
54.28868343236509
 20
94.69087953251129
 10
54.10109032201613
 20
94.74778528040322
 10
53.906
 20
94.767
 10
52.906
 20
94.767
 10
52.71090967798387
 20
94.74778528040322
 10
52.52331656763491
 20
94.69087953251129
 10
52.3504297669804
 20
94.59846961230254
 10
52.19889321881345
 20
94.47410678118655
 10
52.07453038769745
 20
94.3225702330196
 10
51.98212046748871
 20
94.14968343236508
 10
51.92521471959677
 20
93.96209032201612
 10
51.906
 20
93.767
 10
51.906
 20
90.767
 10
51.92521471959677
 20
90.57190967798387
 10
51.98212046748871
 20
90.38431656763491
 10
52.07453038769745
 20
90.21142976698039
 10
52.19889321881345
 20
90.05989321881344
 10
52.3504297669804
 20
89.93553038769745
 10
52.52331656763491
 20
89.8431204674887
 10
52.71090967798387
 20
89.78621471959677
 10
52.906
 20
89.767
 10
53.906
 20
89.767
 10
54.10109032201613
 20
89.78621471959677
 10
54.28868343236509
 20
89.8431204674887
 10
54.4615702330196
 20
89.93553038769745
 10
54.613106781186545
 20
90.05989321881344
 10
54.73746961230255
 20
90.21142976698039
 10
54.829879532511285
 20
90.38431656763491
 10
54.88678528040323
 20
90.57190967798387
 10
54.906
 20
90.767
  0
LWPOLYLINE
  5
BD
330
17
100
AcDbEntity
  8
REF_LIGHT_WINDOWS
100
AcDbPolyline
 90
36
 70
1
 10
54.961
 20
67.441
 10
54.94178528040323
 20
67.63609032201613
 10
54.884879532511285
 20
67.82368343236509
 10
54.79246961230255
 20
67.99657023301961
 10
54.668106781186545
 20
68.14810678118656
 10
54.5165702330196
 20
68.27246961230254
 10
54.34368343236509
 20
68.3648795325113
 10
54.15609032201613
 20
68.42178528040323
 10
53.961
 20
68.441
 10
52.961
 20
68.441
 10
52.76590967798387
 20
68.42178528040323
 10
52.57831656763491
 20
68.3648795325113
 10
52.4054297669804
 20
68.27246961230254
 10
52.25389321881345
 20
68.14810678118656
 10
52.12953038769745
 20
67.99657023301961
 10
52.03712046748871
 20
67.82368343236509
 10
51.980214719596766
 20
67.63609032201613
 10
51.961
 20
67.441
 10
51.961
 20
64.441
 10
51.980214719596766
 20
64.24590967798387
 10
52.03712046748871
 20
64.05831656763492
 10
52.12953038769745
 20
63.8854297669804
 10
52.25389321881345
 20
63.733893218813456
 10
52.4054297669804
 20
63.609530387697454
 10
52.57831656763491
 20
63.517120467488716
 10
52.76590967798387
 20
63.46021471959677
 10
52.961
 20
63.441
 10
53.961
 20
63.441
 10
54.15609032201613
 20
63.46021471959677
 10
54.34368343236509
 20
63.517120467488716
 10
54.5165702330196
 20
63.609530387697454
 10
54.668106781186545
 20
63.733893218813456
 10
54.79246961230255
 20
63.8854297669804
 10
54.884879532511285
 20
64.05831656763492
 10
54.94178528040323
 20
64.24590967798387
 10
54.961
 20
64.441
  0
LWPOLYLINE
  5
BE
330
17
100
AcDbEntity
  8
REF_LIGHT_WINDOWS
100
AcDbPolyline
 90
36
 70
1
 10
54.855
 20
39.92
 10
54.83578528040323
 20
40.11509032201613
 10
54.77887953251128
 20
40.30268343236509
 10
54.686469612302545
 20
40.4755702330196
 10
54.56210678118654
 20
40.62710678118655
 10
54.4105702330196
 20
40.75146961230255
 10
54.23768343236509
 20
40.84387953251129
 10
54.050090322016125
 20
40.900785280403234
 10
53.855
 20
40.92
 10
52.855
 20
40.92
 10
52.65990967798387
 20
40.900785280403234
 10
52.472316567634905
 20
40.84387953251129
 10
52.299429766980396
 20
40.75146961230255
 10
52.14789321881345
 20
40.62710678118655
 10
52.02353038769745
 20
40.4755702330196
 10
51.93112046748871
 20
40.30268343236509
 10
51.874214719596765
 20
40.11509032201613
 10
51.855
 20
39.92
 10
51.855
 20
35.92
 10
51.874214719596765
 20
35.724909677983874
 10
51.93112046748871
 20
35.53731656763491
 10
52.02353038769745
 20
35.3644297669804
 10
52.14789321881345
 20
35.212893218813456
 10
52.299429766980396
 20
35.08853038769745
 10
52.472316567634905
 20
34.996120467488716
 10
52.65990967798387
 20
34.93921471959677
 10
52.855
 20
34.92
 10
53.855
 20
34.92
 10
54.050090322016125
 20
34.93921471959677
 10
54.23768343236509
 20
34.996120467488716
 10
54.4105702330196
 20
35.08853038769745
 10
54.56210678118654
 20
35.212893218813456
 10
54.686469612302545
 20
35.3644297669804
 10
54.77887953251128
 20
35.53731656763491
 10
54.83578528040323
 20
35.724909677983874
 10
54.855
 20
35.92
  0
LWPOLYLINE
  5
BF
330
17
100
AcDbEntity
  8
REF_LIGHT_WINDOWS
100
AcDbPolyline
 90
36
 70
1
 10
45.203
 20
12.800999999999998
 10
45.18762822432259
 20
12.957072257612902
 10
45.14210362600903
 20
13.10714674589207
 10
45.06817568984204
 20
13.24545618641568
 10
44.96868542494924
 20
13.366685424949237
 10
44.84745618641569
 20
13.466175689842034
 10
44.70914674589208
 20
13.540103626009028
 10
44.55907225761291
 20
13.585628224322583
 10
44.403000000000006
 20
13.600999999999999
 10
42.003
 20
13.600999999999999
 10
41.846927742387095
 20
13.585628224322583
 10
41.69685325410793
 20
13.540103626009028
 10
41.558543813584315
 20
13.466175689842034
 10
41.43731457505076
 20
13.366685424949237
 10
41.33782431015796
 20
13.24545618641568
 10
41.263896373990974
 20
13.10714674589207
 10
41.21837177567742
 20
12.9570722576129
 10
41.203
 20
12.800999999999998
 10
41.203
 20
12.001000000000001
 10
41.21837177567742
 20
11.844927742387098
 10
41.263896373990974
 20
11.69485325410793
 10
41.33782431015796
 20
11.55654381358432
 10
41.43731457505076
 20
11.435314575050763
 10
41.55854381358432
 20
11.335824310157966
 10
41.69685325410793
 20
11.261896373990972
 10
41.846927742387095
 20
11.216371775677416
 10
42.003
 20
11.201
 10
44.403000000000006
 20
11.201
 10
44.55907225761291
 20
11.216371775677416
 10
44.70914674589208
 20
11.261896373990972
 10
44.847456186415684
 20
11.335824310157964
 10
44.96868542494924
 20
11.435314575050763
 10
45.06817568984204
 20
11.55654381358432
 10
45.14210362600903
 20
11.69485325410793
 10
45.18762822432259
 20
11.844927742387098
 10
45.203
 20
12.001000000000001
  0
LWPOLYLINE
  5
C0
330
17
100
AcDbEntity
  8
REF_LIGHT_WINDOWS
100
AcDbPolyline
 90
36
 70
1
 10
65.428
 20
12.800999999999998
 10
65.41262822432259
 20
12.957072257612902
 10
65.36710362600903
 20
13.10714674589207
 10
65.29317568984203
 20
13.24545618641568
 10
65.19368542494924
 20
13.366685424949237
 10
65.07245618641568
 20
13.466175689842034
 10
64.93414674589208
 20
13.540103626009028
 10
64.7840722576129
 20
13.585628224322583
 10
64.628
 20
13.600999999999999
 10
62.227999999999994
 20
13.600999999999999
 10
62.07192774238709
 20
13.585628224322583
 10
61.92185325410792
 20
13.540103626009028
 10
61.78354381358431
 20
13.466175689842034
 10
61.66231457505076
 20
13.366685424949237
 10
61.56282431015796
 20
13.24545618641568
 10
61.48889637399097
 20
13.10714674589207
 10
61.44337177567741
 20
12.9570722576129
 10
61.428
 20
12.800999999999998
 10
61.428
 20
12.001000000000001
 10
61.44337177567741
 20
11.844927742387098
 10
61.48889637399097
 20
11.69485325410793
 10
61.56282431015796
 20
11.55654381358432
 10
61.66231457505076
 20
11.435314575050763
 10
61.783543813584316
 20
11.335824310157966
 10
61.92185325410792
 20
11.261896373990972
 10
62.07192774238709
 20
11.216371775677416
 10
62.227999999999994
 20
11.201
 10
64.628
 20
11.201
 10
64.7840722576129
 20
11.216371775677416
 10
64.93414674589208
 20
11.261896373990972
 10
65.07245618641568
 20
11.335824310157964
 10
65.19368542494924
 20
11.435314575050763
 10
65.29317568984203
 20
11.55654381358432
 10
65.36710362600903
 20
11.69485325410793
 10
65.41262822432259
 20
11.844927742387098
 10
65.428
 20
12.001000000000001
  0
TEXT
  5
C1
330
17
100
AcDbEntity
  8
NOTES
100
AcDbText
 10
20.0
 20
-26.0
 30
0.0
 40
1.6
  1
821-2222-A I/O-wall flex trace (plate-facing side, back view, mm) from Aidan flatbed scan 06ea8deb (200 dpi, ruler-calibrated, idealised); +-0.15; VERIFY by caliper
 11
20.0
 21
-26.0
 31
0.0
100
AcDbText
  0
ENDSEC
  0
SECTION
  2
OBJECTS
  0
DICTIONARY
  5
A
330
0
100
AcDbDictionary
281
1
  3
ACAD_COLOR
350
B
  3
ACAD_GROUP
350
C
  3
ACAD_LAYOUT
350
D
  3
ACAD_MATERIAL
350
E
  3
ACAD_MLEADERSTYLE
350
F
  3
ACAD_MLINESTYLE
350
10
  3
ACAD_PLOTSETTINGS
350
11
  3
ACAD_PLOTSTYLENAME
350
12
  3
ACAD_SCALELIST
350
14
  3
ACAD_TABLESTYLE
350
15
  3
ACAD_VISUALSTYLE
350
16
  3
EZDXF_META
350
2D
  0
DICTIONARY
  5
B
330
A
100
AcDbDictionary
281
1
  0
DICTIONARY
  5
C
330
A
100
AcDbDictionary
281
1
  0
DICTIONARY
  5
D
330
A
100
AcDbDictionary
281
1
  3
Model
350
1A
  3
Layout1
350
1E
  0
DICTIONARY
  5
E
330
A
100
AcDbDictionary
281
1
  3
ByBlock
350
1F
  3
ByLayer
350
20
  3
Global
350
21
  0
DICTIONARY
  5
F
330
A
100
AcDbDictionary
281
1
  3
Standard
350
2C
  0
DICTIONARY
  5
10
330
A
100
AcDbDictionary
281
1
  3
Standard
350
22
  0
DICTIONARY
  5
11
330
A
100
AcDbDictionary
281
1
  0
ACDBDICTIONARYWDFLT
  5
12
330
A
100
AcDbDictionary
281
1
  3
Normal
350
13
100
AcDbDictionaryWithDefault
340
13
  0
ACDBPLACEHOLDER
  5
13
330
12
  0
DICTIONARY
  5
14
330
A
100
AcDbDictionary
281
1
  0
DICTIONARY
  5
15
330
A
100
AcDbDictionary
281
1
  0
DICTIONARY
  5
16
330
A
100
AcDbDictionary
281
1
  0
LAYOUT
  5
1A
330
D
100
AcDbPlotSettings
  1

  4
A3
  6

 40
7.5
 41
20.0
 42
7.5
 43
20.0
 44
420.0
 45
297.0
 46
0.0
 47
0.0
 48
0.0
 49
0.0
140
0.0
141
0.0
142
1.0
143
1.0
 70
1024
 72
1
 73
0
 74
5
  7

 75
16
 76
0
 77
2
 78
300
147
1.0
148
0.0
149
0.0
100
AcDbLayout
  1
Model
 70
1
 71
0
 10
0.0
 20
0.0
 11
420.0
 21
297.0
 12
0.0
 22
0.0
 32
0.0
 14
1e+20
 24
1e+20
 34
1e+20
 15
-1e+20
 25
-1e+20
 35
-1e+20
146
0.0
 13
0.0
 23
0.0
 33
0.0
 16
1.0
 26
0.0
 36
0.0
 17
0.0
 27
1.0
 37
0.0
 76
1
330
17
  0
LAYOUT
  5
1E
330
D
100
AcDbPlotSettings
  1

  4
A3
  6

 40
7.5
 41
20.0
 42
7.5
 43
20.0
 44
420.0
 45
297.0
 46
0.0
 47
0.0
 48
0.0
 49
0.0
140
0.0
141
0.0
142
1.0
143
1.0
 70
0
 72
1
 73
0
 74
5
  7

 75
16
 76
0
 77
2
 78
300
147
1.0
148
0.0
149
0.0
100
AcDbLayout
  1
Layout1
 70
1
 71
1
 10
0.0
 20
0.0
 11
420.0
 21
297.0
 12
0.0
 22
0.0
 32
0.0
 14
1e+20
 24
1e+20
 34
1e+20
 15
-1e+20
 25
-1e+20
 35
-1e+20
146
0.0
 13
0.0
 23
0.0
 33
0.0
 16
1.0
 26
0.0
 36
0.0
 17
0.0
 27
1.0
 37
0.0
 76
1
330
1B
  0
MATERIAL
  5
1F
102
{ACAD_REACTORS
330
E
102
}
330
E
100
AcDbMaterial
  1
ByBlock
  2

 70
0
 40
1.0
 71
1
 41
1.0
 91
-1023410177
 42
1.0
 72
1
  3

 73
1
 74
1
 75
1
 44
0.5
 73
0
 45
1.0
 46
1.0
 77
1
  4

 78
1
 79
1
170
1
 48
1.0
171
1
  6

172
1
173
1
174
1
140
1.0
141
1.0
175
1
  7

176
1
177
1
178
1
143
1.0
179
1
  8

270
1
271
1
272
1
145
1.0
146
1.0
273
1
  9

274
1
275
1
276
1
 42
1.0
 72
1
  3

 73
1
 74
1
 75
1
 94
63
  0
MATERIAL
  5
20
102
{ACAD_REACTORS
330
E
102
}
330
E
100
AcDbMaterial
  1
ByLayer
  2

 70
0
 40
1.0
 71
1
 41
1.0
 91
-1023410177
 42
1.0
 72
1
  3

 73
1
 74
1
 75
1
 44
0.5
 73
0
 45
1.0
 46
1.0
 77
1
  4

 78
1
 79
1
170
1
 48
1.0
171
1
  6

172
1
173
1
174
1
140
1.0
141
1.0
175
1
  7

176
1
177
1
178
1
143
1.0
179
1
  8

270
1
271
1
272
1
145
1.0
146
1.0
273
1
  9

274
1
275
1
276
1
 42
1.0
 72
1
  3

 73
1
 74
1
 75
1
 94
63
  0
MATERIAL
  5
21
102
{ACAD_REACTORS
330
E
102
}
330
E
100
AcDbMaterial
  1
Global
  2

 70
0
 40
1.0
 71
1
 41
1.0
 91
-1023410177
 42
1.0
 72
1
  3

 73
1
 74
1
 75
1
 44
0.5
 73
0
 45
1.0
 46
1.0
 77
1
  4

 78
1
 79
1
170
1
 48
1.0
171
1
  6

172
1
173
1
174
1
140
1.0
141
1.0
175
1
  7

176
1
177
1
178
1
143
1.0
179
1
  8

270
1
271
1
272
1
145
1.0
146
1.0
273
1
  9

274
1
275
1
276
1
 42
1.0
 72
1
  3

 73
1
 74
1
 75
1
 94
63
  0
MLINESTYLE
  5
22
102
{ACAD_REACTORS
330
10
102
}
330
10
100
AcDbMlineStyle
  2
Standard
 70
0
  3

 62
256
 51
90.0
 52
90.0
 71
2
 49
0.5
 62
256
  6
BYLAYER
 49
-0.5
 62
256
  6
BYLAYER
  0
MLEADERSTYLE
  5
2C
102
{ACAD_REACTORS
330
F
102
}
330
F
100
AcDbMLeaderStyle
179
2
170
2
171
1
172
0
 90
2
 40
0.0
 41
0.0
173
1
 91
-1056964608
 92
-2
290
1
 42
2.0
291
1
 43
8.0
  3
Standard
 44
4.0
300

342
29
174
1
175
1
176
0
178
1
 93
-1056964608
 45
4.0
292
0
297
0
 46
4.0
 94
-1056964608
 47
1.0
 49
1.0
140
1.0
294
1
141
0.0
177
0
142
1.0
295
0
296
0
143
3.75
271
0
272
9
273
9
  0
DICTIONARY
  5
2D
330
A
100
AcDbDictionary
280
1
281
1
  3
CREATED_BY_EZDXF
350
2E
  3
WRITTEN_BY_EZDXF
350
C4
  0
DICTIONARYVAR
  5
2E
330
2D
100
DictionaryVariables
280
0
  1
1.4.4 @ 2026-10-02T20:20:41.709776+00:00
  0
DICTIONARYVAR
  5
C4
330
2D
100
DictionaryVariables
280
0
  1
1.4.4 @ 2026-10-02T20:20:41.730841+00:00
  0
ENDSEC
  0
EOF
