  0
SECTION
  2
HEADER
  9
$ACADVER
  1
AC1024
  9
$ACADMAINTVER
 70
6
  9
$DWGCODEPAGE
  3
ANSI_1252
  9
$LASTSAVEDBY
  1
ezdxf
  9
$INSBASE
 10
0.0
 20
0.0
 30
0.0
  9
$EXTMIN
 10
1e+20
 20
1e+20
 30
1e+20
  9
$EXTMAX
 10
-1e+20
 20
-1e+20
 30
-1e+20
  9
$LIMMIN
 10
0.0
 20
0.0
  9
$LIMMAX
 10
420.0
 20
297.0
  9
$ORTHOMODE
 70
0
  9
$REGENMODE
 70
1
  9
$FILLMODE
 70
1
  9
$QTEXTMODE
 70
0
  9
$MIRRTEXT
 70
1
  9
$LTSCALE
 40
1.0
  9
$ATTMODE
 70
1
  9
$TEXTSIZE
 40
2.5
  9
$TRACEWID
 40
1.0
  9
$TEXTSTYLE
  7
Standard
  9
$CLAYER
  8
0
  9
$CELTYPE
  6
ByLayer
  9
$CECOLOR
 62
256
  9
$CELTSCALE
 40
1.0
  9
$DISPSILH
 70
0
  9
$DIMSCALE
 40
1.0
  9
$DIMASZ
 40
2.5
  9
$DIMEXO
 40
0.625
  9
$DIMDLI
 40
3.75
  9
$DIMRND
 40
0.0
  9
$DIMDLE
 40
0.0
  9
$DIMEXE
 40
1.25
  9
$DIMTP
 40
0.0
  9
$DIMTM
 40
0.0
  9
$DIMTXT
 40
2.5
  9
$DIMCEN
 40
2.5
  9
$DIMTSZ
 40
0.0
  9
$DIMTOL
 70
0
  9
$DIMLIM
 70
0
  9
$DIMTIH
 70
0
  9
$DIMTOH
 70
0
  9
$DIMSE1
 70
0
  9
$DIMSE2
 70
0
  9
$DIMTAD
 70
1
  9
$DIMZIN
 70
8
  9
$DIMBLK
  1

  9
$DIMASO
 70
1
  9
$DIMSHO
 70
1
  9
$DIMPOST
  1

  9
$DIMAPOST
  1

  9
$DIMALT
 70
0
  9
$DIMALTD
 70
3
  9
$DIMALTF
 40
0.03937007874
  9
$DIMLFAC
 40
1.0
  9
$DIMTOFL
 70
1
  9
$DIMTVP
 40
0.0
  9
$DIMTIX
 70
0
  9
$DIMSOXD
 70
0
  9
$DIMSAH
 70
0
  9
$DIMBLK1
  1

  9
$DIMBLK2
  1

  9
$DIMSTYLE
  2
ISO-25
  9
$DIMCLRD
 70
0
  9
$DIMCLRE
 70
0
  9
$DIMCLRT
 70
0
  9
$DIMTFAC
 40
1.0
  9
$DIMGAP
 40
0.625
  9
$DIMJUST
 70
0
  9
$DIMSD1
 70
0
  9
$DIMSD2
 70
0
  9
$DIMTOLJ
 70
0
  9
$DIMTZIN
 70
8
  9
$DIMALTZ
 70
0
  9
$DIMALTTZ
 70
0
  9
$DIMUPT
 70
0
  9
$DIMDEC
 70
2
  9
$DIMTDEC
 70
2
  9
$DIMALTU
 70
2
  9
$DIMALTTD
 70
3
  9
$DIMTXSTY
  7
Standard
  9
$DIMAUNIT
 70
0
  9
$DIMADEC
 70
0
  9
$DIMALTRND
 40
0.0
  9
$DIMAZIN
 70
0
  9
$DIMDSEP
 70
44
  9
$DIMATFIT
 70
3
  9
$DIMFRAC
 70
0
  9
$DIMLDRBLK
  1

  9
$DIMLUNIT
 70
2
  9
$DIMLWD
 70
-2
  9
$DIMLWE
 70
-2
  9
$DIMTMOVE
 70
0
  9
$DIMFXL
 40
1.0
  9
$DIMFXLON
 70
0
  9
$DIMJOGANG
 40
0.785398163397
  9
$DIMTFILL
 70
0
  9
$DIMTFILLCLR
 70
0
  9
$DIMARCSYM
 70
0
  9
$DIMLTYPE
  6

  9
$DIMLTEX1
  6

  9
$DIMLTEX2
  6

  9
$DIMTXTDIRECTION
 70
0
  9
$LUNITS
 70
2
  9
$LUPREC
 70
4
  9
$SKETCHINC
 40
1.0
  9
$FILLETRAD
 40
10.0
  9
$AUNITS
 70
0
  9
$AUPREC
 70
2
  9
$MENU
  1
.
  9
$ELEVATION
 40
0.0
  9
$PELEVATION
 40
0.0
  9
$THICKNESS
 40
0.0
  9
$LIMCHECK
 70
0
  9
$CHAMFERA
 40
0.0
  9
$CHAMFERB
 40
0.0
  9
$CHAMFERC
 40
0.0
  9
$CHAMFERD
 40
0.0
  9
$SKPOLY
 70
0
  9
$TDCREATE
 40
2461316.3792824075
  9
$TDUCREATE
 40
2458532.153996898
  9
$TDUPDATE
 40
2461316.3792824075
  9
$TDUUPDATE
 40
2458532.1544311
  9
$TDINDWG
 40
0.0
  9
$TDUSRTIMER
 40
0.0
  9
$USRTIMER
 70
1
  9
$ANGBASE
 50
0.0
  9
$ANGDIR
 70
0
  9
$PDMODE
 70
0
  9
$PDSIZE
 40
0.0
  9
$PLINEWID
 40
0.0
  9
$SPLFRAME
 70
0
  9
$SPLINETYPE
 70
6
  9
$SPLINESEGS
 70
8
  9
$HANDSEED
  5
C2
  9
$SURFTAB1
 70
6
  9
$SURFTAB2
 70
6
  9
$SURFTYPE
 70
6
  9
$SURFU
 70
6
  9
$SURFV
 70
6
  9
$UCSBASE
  2

  9
$UCSNAME
  2

  9
$UCSORG
 10
0.0
 20
0.0
 30
0.0
  9
$UCSXDIR
 10
1.0
 20
0.0
 30
0.0
  9
$UCSYDIR
 10
0.0
 20
1.0
 30
0.0
  9
$UCSORTHOREF
  2

  9
$UCSORTHOVIEW
 70
0
  9
$UCSORGTOP
 10
0.0
 20
0.0
 30
0.0
  9
$UCSORGBOTTOM
 10
0.0
 20
0.0
 30
0.0
  9
$UCSORGLEFT
 10
0.0
 20
0.0
 30
0.0
  9
$UCSORGRIGHT
 10
0.0
 20
0.0
 30
0.0
  9
$UCSORGFRONT
 10
0.0
 20
0.0
 30
0.0
  9
$UCSORGBACK
 10
0.0
 20
0.0
 30
0.0
  9
$PUCSBASE
  2

  9
$PUCSNAME
  2

  9
$PUCSORG
 10
0.0
 20
0.0
 30
0.0
  9
$PUCSXDIR
 10
1.0
 20
0.0
 30
0.0
  9
$PUCSYDIR
 10
0.0
 20
1.0
 30
0.0
  9
$PUCSORTHOREF
  2

  9
$PUCSORTHOVIEW
 70
0
  9
$PUCSORGTOP
 10
0.0
 20
0.0
 30
0.0
  9
$PUCSORGBOTTOM
 10
0.0
 20
0.0
 30
0.0
  9
$PUCSORGLEFT
 10
0.0
 20
0.0
 30
0.0
  9
$PUCSORGRIGHT
 10
0.0
 20
0.0
 30
0.0
  9
$PUCSORGFRONT
 10
0.0
 20
0.0
 30
0.0
  9
$PUCSORGBACK
 10
0.0
 20
0.0
 30
0.0
  9
$USERI1
 70
0
  9
$USERI2
 70
0
  9
$USERI3
 70
0
  9
$USERI4
 70
0
  9
$USERI5
 70
0
  9
$USERR1
 40
0.0
  9
$USERR2
 40
0.0
  9
$USERR3
 40
0.0
  9
$USERR4
 40
0.0
  9
$USERR5
 40
0.0
  9
$WORLDVIEW
 70
1
  9
$SHADEDGE
 70
3
  9
$SHADEDIF
 70
70
  9
$TILEMODE
 70
1
  9
$MAXACTVP
 70
64
  9
$PINSBASE
 10
0.0
 20
0.0
 30
0.0
  9
$PLIMCHECK
 70
0
  9
$PEXTMIN
 10
1e+20
 20
1e+20
 30
1e+20
  9
$PEXTMAX
 10
-1e+20
 20
-1e+20
 30
-1e+20
  9
$PLIMMIN
 10
0.0
 20
0.0
  9
$PLIMMAX
 10
420.0
 20
297.0
  9
$UNITMODE
 70
0
  9
$VISRETAIN
 70
1
  9
$PLINEGEN
 70
0
  9
$PSLTSCALE
 70
1
  9
$TREEDEPTH
 70
3020
  9
$CMLSTYLE
  2
Standard
  9
$CMLJUST
 70
0
  9
$CMLSCALE
 40
20.0
  9
$PROXYGRAPHICS
 70
1
  9
$MEASUREMENT
 70
1
  9
$CELWEIGHT
370
-1
  9
$ENDCAPS
280
0
  9
$JOINSTYLE
280
0
  9
$LWDISPLAY
290
0
  9
$INSUNITS
 70
6
  9
$HYPERLINKBASE
  1

  9
$STYLESHEET
  1

  9
$XEDIT
290
1
  9
$CEPSNTYPE
380
0
  9
$PSTYLEMODE
290
1
  9
$FINGERPRINTGUID
  2
{FB636D1F-38F9-4AA5-9E38-47A4E74399B7}
  9
$VERSIONGUID
  2
{B923CE67-42CD-44C5-8F6A-6C89054D5EE2}
  9
$EXTNAMES
290
1
  9
$PSVPSCALE
 40
0.0
  9
$OLESTARTUP
290
0
  9
$SORTENTS
280
127
  9
$INDEXCTL
280
0
  9
$HIDETEXT
280
1
  9
$XCLIPFRAME
280
1
  9
$HALOGAP
280
0
  9
$OBSCOLOR
 70
257
  9
$OBSLTYPE
280
0
  9
$INTERSECTIONDISPLAY
280
0
  9
$INTERSECTIONCOLOR
 70
257
  9
$DIMASSOC
280
2
  9
$PROJECTNAME
  1

  9
$CAMERADISPLAY
290
0
  9
$LENSLENGTH
 40
50.0
  9
$CAMERAHEIGHT
 40
0.0
  9
$STEPSPERSEC
 40
24.0
  9
$STEPSIZE
 40
100.0
  9
$3DDWFPREC
 40
2.0
  9
$PSOLWIDTH
 40
0.005
  9
$PSOLHEIGHT
 40
0.08
  9
$LOFTANG1
 40
1.570796326795
  9
$LOFTANG2
 40
1.570796326795
  9
$LOFTMAG1
 40
0.0
  9
$LOFTMAG2
 40
0.0
  9
$LOFTPARAM
 70
7
  9
$LOFTNORMALS
280
1
  9
$LATITUDE
 40
37.795
  9
$LONGITUDE
 40
-122.394
  9
$NORTHDIRECTION
 40
0.0
  9
$TIMEZONE
 70
-8000
  9
$LIGHTGLYPHDISPLAY
280
1
  9
$TILEMODELIGHTSYNCH
280
1
  9
$CMATERIAL
347
20
  9
$SOLIDHIST
280
0
  9
$SHOWHIST
280
1
  9
$DWFFRAME
280
2
  9
$DGNFRAME
280
2
  9
$REALWORLDSCALE
290
1
  9
$INTERFERECOLOR
 62
256
  9
$CSHADOW
280
0
  9
$SHADOWPLANELOCATION
 40
0.0
  0
ENDSEC
  0
SECTION
  2
CLASSES
  0
CLASS
  1
ACDBDICTIONARYWDFLT
  2
AcDbDictionaryWithDefault
  3
ObjectDBX Classes
 90
0
 91
0
280
0
281
0
  0
CLASS
  1
SUN
  2
AcDbSun
  3
SCENEOE
 90
1153
 91
0
280
0
281
0
  0
CLASS
  1
VISUALSTYLE
  2
AcDbVisualStyle
  3
ObjectDBX Classes
 90
4095
 91
0
280
0
281
0
  0
CLASS
  1
MATERIAL
  2
AcDbMaterial
  3
ObjectDBX Classes
 90
1153
 91
0
280
0
281
0
  0
CLASS
  1
SCALE
  2
AcDbScale
  3
ObjectDBX Classes
 90
1153
 91
0
280
0
281
0
  0
CLASS
  1
TABLESTYLE
  2
AcDbTableStyle
  3
ObjectDBX Classes
 90
4095
 91
0
280
0
281
0
  0
CLASS
  1
MLEADERSTYLE
  2
AcDbMLeaderStyle
  3
ACDB_MLEADERSTYLE_CLASS
 90
4095
 91
0
280
0
281
0
  0
CLASS
  1
DICTIONARYVAR
  2
AcDbDictionaryVar
  3
ObjectDBX Classes
 90
0
 91
0
280
0
281
0
  0
CLASS
  1
CELLSTYLEMAP
  2
AcDbCellStyleMap
  3
ObjectDBX Classes
 90
1152
 91
0
280
0
281
0
  0
CLASS
  1
MENTALRAYRENDERSETTINGS
  2
AcDbMentalRayRenderSettings
  3
SCENEOE
 90
1024
 91
0
280
0
281
0
  0
CLASS
  1
ACDBDETAILVIEWSTYLE
  2
AcDbDetailViewStyle
  3
ObjectDBX Classes
 90
1025
 91
0
280
0
281
0
  0
CLASS
  1
ACDBSECTIONVIEWSTYLE
  2
AcDbSectionViewStyle
  3
ObjectDBX Classes
 90
1025
 91
0
280
0
281
0
  0
CLASS
  1
RASTERVARIABLES
  2
AcDbRasterVariables
  3
ISM
 90
0
 91
0
280
0
281
0
  0
CLASS
  1
LAYOUT
  2
AcDbLayout
  3
ObjectDBX Classes
 90
0
 91
0
280
0
281
0
  0
CLASS
  1
ACDBPLACEHOLDER
  2
AcDbPlaceHolder
  3
ObjectDBX Classes
 90
0
 91
0
280
0
281
0
  0
ENDSEC
  0
SECTION
  2
TABLES
  0
TABLE
  2
VPORT
  5
8
330
0
100
AcDbSymbolTable
 70
1
  0
VPORT
  5
23
330
8
100
AcDbSymbolTableRecord
100
AcDbViewportTableRecord
  2
*Active
 70
0
 10
0.0
 20
0.0
 11
1.0
 21
1.0
 12
0.0
 22
0.0
 13
0.0
 23
0.0
 14
0.5
 24
0.5
 15
0.5
 25
0.5
 16
0.0
 26
0.0
 36
1.0
 17
0.0
 27
0.0
 37
0.0
 40
1000.0
 41
1.34
 42
50.0
 43
0.0
 44
0.0
 50
0.0
 51
0.0
 71
0
 72
1000
 73
1
 74
3
 75
0
 76
0
 77
0
 78
0
281
0
 65
0
146
0.0
  0
ENDTAB
  0
TABLE
  2
LTYPE
  5
2
330
0
100
AcDbSymbolTable
 70
3
  0
LTYPE
  5
24
330
2
100
AcDbSymbolTableRecord
100
AcDbLinetypeTableRecord
  2
ByBlock
 70
0
  3

 72
65
 73
0
 40
0.0
  0
LTYPE
  5
25
330
2
100
AcDbSymbolTableRecord
100
AcDbLinetypeTableRecord
  2
ByLayer
 70
0
  3

 72
65
 73
0
 40
0.0
  0
LTYPE
  5
26
330
2
100
AcDbSymbolTableRecord
100
AcDbLinetypeTableRecord
  2
Continuous
 70
0
  3

 72
65
 73
0
 40
0.0
  0
ENDTAB
  0
TABLE
  2
LAYER
  5
1
330
0
100
AcDbSymbolTable
 70
16
  0
LAYER
  5
27
330
1
100
AcDbSymbolTableRecord
100
AcDbLayerTableRecord
  2
0
 70
0
 62
7
  6
Continuous
370
-3
390
13
347
21
  0
LAYER
  5
28
330
1
100
AcDbSymbolTableRecord
100
AcDbLayerTableRecord
  2
Defpoints
 70
0
 62
7
  6
Continuous
290
0
370
-3
390
13
347
21
  0
LAYER
  5
2F
330
1
100
AcDbSymbolTableRecord
100
AcDbLayerTableRecord
  2
FLEX_OUTLINE
 70
0
 62
30
  6
Continuous
370
-3
390
13
347
21
  0
LAYER
  5
30
330
1
100
AcDbSymbolTableRecord
100
AcDbLayerTableRecord
  2
FLEX_CUTOUTS
 70
0
 62
30
  6
Continuous
370
-3
390
13
347
21
  0
LAYER
  5
31
330
1
100
AcDbSymbolTableRecord
100
AcDbLayerTableRecord
  2
FLEX_FRAME_HOLES
 70
0
 62
30
  6
Continuous
370
-3
390
13
347
21
  0
LAYER
  5
32
330
1
100
AcDbSymbolTableRecord
100
AcDbLayerTableRecord
  2
FLEX_LIGHT_PADS
 70
0
 62
5
  6
Continuous
370
-3
390
13
347
21
  0
LAYER
  5
33
330
1
100
AcDbSymbolTableRecord
100
AcDbLayerTableRecord
  2
FLEX_LEDS
 70
0
 62
2
  6
Continuous
370
-3
390
13
347
21
  0
LAYER
  5
34
330
1
100
AcDbSymbolTableRecord
100
AcDbLayerTableRecord
  2
FLEX_BUTTON
 70
0
 62
6
  6
Continuous
370
-3
390
13
347
21
  0
LAYER
  5
35
330
1
100
AcDbSymbolTableRecord
100
AcDbLayerTableRecord
  2
FLEX_TAIL_APPROX
 70
0
 62
8
  6
Continuous
370
-3
390
13
347
21
  0
LAYER
  5
36
330
1
100
AcDbSymbolTableRecord
100
AcDbLayerTableRecord
  2
FLEX_SILVER_FRAMES
 70
0
 62
9
  6
Continuous
370
-3
390
13
347
21
  0
LAYER
  5
37
330
1
100
AcDbSymbolTableRecord
100
AcDbLayerTableRecord
  2
REF_PLATE_OUTLINE
 70
0
 62
7
  6
Continuous
370
-3
390
13
347
21
  0
LAYER
  5
38
330
1
100
AcDbSymbolTableRecord
100
AcDbLayerTableRecord
  2
REF_PLATE_OPENINGS
 70
0
 62
7
  6
Continuous
370
-3
390
13
347
21
  0
LAYER
  5
39
330
1
100
AcDbSymbolTableRecord
100
AcDbLayerTableRecord
  2
REF_LAND_BOSSES
 70
0
 62
1
  6
Continuous
370
-3
390
13
347
21
  0
LAYER
  5
3A
330
1
100
AcDbSymbolTableRecord
100
AcDbLayerTableRecord
  2
REF_LIGHT_WINDOWS
 70
0
 62
2
  6
Continuous
370
-3
390
13
347
21
  0
LAYER
  5
3B
330
1
100
AcDbSymbolTableRecord
100
AcDbLayerTableRecord
  2
A1_FLEX_CUTOUTS_PROPOSED
 70
0
 62
3
  6
Continuous
370
-3
390
13
347
21
  0
LAYER
  5
3C
330
1
100
AcDbSymbolTableRecord
100
AcDbLayerTableRecord
  2
NOTES
 70
0
 62
7
  6
Continuous
370
-3
390
13
347
21
  0
ENDTAB
  0
TABLE
  2
STYLE
  5
5
330
0
100
AcDbSymbolTable
 70
1
  0
STYLE
  5
29
330
5
100
AcDbSymbolTableRecord
100
AcDbTextStyleTableRecord
  2
Standard
 70
0
 40
0.0
 41
1.0
 50
0.0
 71
0
 42
2.5
  3
txt
  4

  0
ENDTAB
  0
TABLE
  2
VIEW
  5
7
330
0
100
AcDbSymbolTable
 70
0
  0
ENDTAB
  0
TABLE
  2
UCS
  5
6
330
0
100
AcDbSymbolTable
 70
0
  0
ENDTAB
  0
TABLE
  2
APPID
  5
3
330
0
100
AcDbSymbolTable
 70
3
  0
APPID
  5
2A
330
3
100
AcDbSymbolTableRecord
100
AcDbRegAppTableRecord
  2
ACAD
 70
0
  0
APPID
  5
BF
330
3
100
AcDbSymbolTableRecord
100
AcDbRegAppTableRecord
  2
HATCHBACKGROUNDCOLOR
 70
0
  0
APPID
  5
C0
330
3
100
AcDbSymbolTableRecord
100
AcDbRegAppTableRecord
  2
EZDXF
 70
0
  0
ENDTAB
  0
TABLE
  2
DIMSTYLE
  5
4
330
0
100
AcDbSymbolTable
 70
1
100
AcDbDimStyleTable
  0
DIMSTYLE
105
2B
330
4
100
AcDbSymbolTableRecord
100
AcDbDimStyleTableRecord
  2
Standard
 70
0
 40
1.0
 41
2.5
 42
0.625
 43
3.75
 44
1.25
 45
0.0
 46
0.0
 47
0.0
 48
0.0
 49
2.5
140
2.5
141
2.5
142
0.0
143
0.03937007874
144
1.0
145
0.0
146
1.0
147
0.625
148
0.0
 69
0
 70
0
 71
0
 72
0
 73
0
 74
0
 75
0
 76
0
 77
1
 78
8
 79
3
170
0
171
3
172
1
173
0
174
0
175
0
176
0
177
0
178
0
179
2
271
2
272
2
273
2
274
3
275
0
276
0
277
2
278
44
279
0
280
0
281
0
282
0
283
0
284
8
285
0
286
0
288
0
289
3
290
0
371
-2
372
-2
  0
ENDTAB
  0
TABLE
  2
BLOCK_RECORD
  5
9
330
0
100
AcDbSymbolTable
 70
2
  0
BLOCK_RECORD
  5
17
330
9
100
AcDbSymbolTableRecord
100
AcDbBlockTableRecord
  2
*Model_Space
340
1A
 70
0
280
1
281
0
  0
BLOCK_RECORD
  5
1B
330
9
100
AcDbSymbolTableRecord
100
AcDbBlockTableRecord
  2
*Paper_Space
340
1E
 70
0
280
1
281
0
  0
ENDTAB
  0
ENDSEC
  0
SECTION
  2
BLOCKS
  0
BLOCK
  5
18
330
17
100
AcDbEntity
  8
0
100
AcDbBlockBegin
  2
*Model_Space
 70
0
 10
0.0
 20
0.0
 30
0.0
  3
*Model_Space
  1

  0
ENDBLK
  5
19
330
17
100
AcDbEntity
  8
0
100
AcDbBlockEnd
  0
BLOCK
  5
1C
330
1B
100
AcDbEntity
  8
0
100
AcDbBlockBegin
  2
*Paper_Space
 70
0
 10
0.0
 20
0.0
 30
0.0
  3
*Paper_Space
  1

  0
ENDBLK
  5
1D
330
1B
100
AcDbEntity
  8
0
100
AcDbBlockEnd
  0
ENDSEC
  0
SECTION
  2
ENTITIES
  0
LWPOLYLINE
  5
3D
330
17
100
AcDbEntity
  8
FLEX_OUTLINE
100
AcDbPolyline
 90
90
 70
1
 10
29.617
 20
116.28
 10
35.961
 20
116.503
 10
35.342
 20
116.001
 10
35.477
 20
111.669
 10
35.942
 20
111.149
 10
36.912
 20
111.019
 10
47.559
 20
111.237
 10
48.059
 20
111.851
 10
49.018
 20
111.834
 10
49.035
 20
115.291
 10
47.904
 20
115.369
 10
47.774
 20
116.736
 10
49.984
 20
116.182
 10
52.601
 20
113.922
 10
54.008
 20
113.897
 10
54.847
 20
114.335
 10
55.521
 20
114.323
 10
56.48
 20
113.853
 10
57.826
 20
113.829
 10
58.718
 20
114.491
 10
63.079
 20
115.201
 10
66.038
 20
114.921
 10
66.871
 20
115.639
 10
67.875
 20
115.507
 10
69.825
 20
113.725
 10
69.664
 20
111.087
 10
70.278
 20
108.555
 10
70.339
 20
105.48
 10
71.613
 20
103.232
 10
71.781
 20
101.284
 10
74.205
 20
101.196
 10
75.03
 20
100.908
 10
75.58
 20
100.069
 10
75.627
 20
90.634
 10
76.478
 20
71.473
 10
76.77
 20
47.806
 10
77.68
 20
47.445
 10
78.267
 20
46.87
 10
79.977
 20
46.831
 10
79.923
 20
28.33
 10
77.539
 20
28.139
 10
77.008
 20
27.717
 10
76.795
 20
27.249
 10
76.79
 20
23.433
 10
76.1
 20
22.135
 10
75.253
 20
21.709
 10
72.974
 20
21.669
 10
71.542
 20
20.717
 10
71.288
 20
12.055
 10
70.708
 20
11.074
 10
70.021
 20
10.651
 10
68.434
 20
10.617
 10
68.583
 20
14.452
 10
68.157
 20
14.955
 10
63.211
 20
15.215
 10
61.821
 20
15.804
 10
60.962
 20
16.661
 10
59.626
 20
16.635
 10
59.368
 20
15.292
 10
58.299
 20
15.22
 10
58.379
 20
11.781
 10
59.394
 20
11.7
 10
59.295
 20
10.52
 10
48.323
 20
9.972
 10
48.306
 20
11.309
 10
49.327
 20
11.434
 10
49.34
 20
14.783
 10
48.261
 20
14.916
 10
47.974
 20
16.305
 10
46.678
 20
16.28
 10
45.719
 20
15.33
 10
44.484
 20
14.737
 10
39.237
 20
14.321
 10
38.923
 20
13.642
 10
39.149
 20
9.926
 10
37.36
 20
9.939
 10
36.533
 20
10.644
 10
36.245
 20
11.568
 10
36.303
 20
20.242
 10
36.075
 20
20.759
 10
34.911
 20
21.679
 10
32.226
 20
21.894
 10
31.28
 20
22.558
 10
30.995
 20
23.077
 10
30.748
 20
27.011
 10
30.274
 20
70.948
 10
30.39
 20
92.612
 10
29.804
 20
101.726
 10
28.277
 20
114.588
 10
28.766
 20
115.838
  0
LWPOLYLINE
  5
3E
330
17
100
AcDbEntity
  8
FLEX_CUTOUTS
100
AcDbPolyline
 90
26
 70
1
 10
33.893001556396484
 20
108.00399780273438
 10
34.779998779296875
 20
109.29399871826172
 10
35.73099899291992
 20
110.24400329589844
 10
36.2400016784668
 20
110.40599822998047
 10
46.4379997253418
 20
110.5770034790039
 10
47.74399948120117
 20
109.93299865722656
 10
49.45000076293945
 20
108.60700225830078
 10
49.625999450683594
 20
107.98400115966797
 10
49.49100112915039
 20
105.05799865722656
 10
48.590999603271484
 20
105.0719985961914
 10
48.63999938964844
 20
105.69000244140625
 10
48.47100067138672
 20
105.74800109863281
 10
48.30699920654297
 20
105.3010025024414
 10
47.6879997253418
 20
105.30999755859375
 10
47.63800048828125
 20
104.86000061035156
 10
45.33100128173828
 20
104.7249984741211
 10
45.15800094604492
 20
105.00900268554688
 10
44.43000030517578
 20
104.625
 10
43.638999938964844
 20
104.7490005493164
 10
41.215999603271484
 20
104.33300018310547
 10
36.79899978637695
 20
104.39600372314453
 10
36.05799865722656
 20
104.63300323486328
 10
36.053001403808594
 20
104.91500091552734
 10
35.65399932861328
 20
104.97699737548828
 10
35.47600173950195
 20
105.43199920654297
 10
34.05400085449219
 20
105.50900268554688
  0
TEXT
  5
3F
330
17
100
AcDbEntity
  8
NOTES
100
AcDbText
 10
40.24
 20
107.41
 30
0.0
 40
1.0
  1
HDMI
 11
40.24
 21
107.41
 31
0.0
100
AcDbText
  0
LWPOLYLINE
  5
40
330
17
100
AcDbEntity
  8
FLEX_CUTOUTS
100
AcDbPolyline
 90
24
 70
1
 10
36.02399826049805
 20
44.4010009765625
 10
36.34400177001953
 20
45.04499816894531
 10
37.05500030517578
 20
45.37099838256836
 10
49.137001037597656
 20
45.3120002746582
 10
49.7400016784668
 20
45.104000091552734
 10
50.18600082397461
 20
44.3650016784668
 10
50.284000396728516
 20
40.55099868774414
 10
50.016998291015625
 20
40.073001861572266
 10
49.417999267578125
 20
40.066001892089844
 10
48.93199920654297
 20
39.63800048828125
 10
47.2400016784668
 20
39.67300033569336
 10
47.08000183105469
 20
39.40700149536133
 10
46.47999954223633
 20
39.4010009765625
 10
46.15700149536133
 20
39.027000427246094
 10
43.53200149536133
 20
39.051998138427734
 10
43.308998107910156
 20
39.31399917602539
 10
43.150001525878906
 20
38.994998931884766
 10
42.49300003051758
 20
38.987998962402344
 10
41.939998626708984
 20
39.29999923706055
 10
41.391998291015625
 20
39.29399871826172
 10
41.2859992980957
 20
39.02799987792969
 10
39.53200149536133
 20
38.95600128173828
 10
37.16299819946289
 20
39.301998138427734
 10
36.26100158691406
 20
40.51499938964844
  0
TEXT
  5
41
330
17
100
AcDbEntity
  8
NOTES
100
AcDbText
 10
41.68
 20
42.23
 30
0.0
 40
1.0
  1
A1
 11
41.68
 21
42.23
 31
0.0
100
AcDbText
  0
LWPOLYLINE
  5
42
330
17
100
AcDbEntity
  8
FLEX_CUTOUTS
100
AcDbPolyline
 90
21
 70
1
 10
36.26100158691406
 20
34.470001220703125
 10
36.6870002746582
 20
35.215999603271484
 10
37.178001403808594
 20
35.38100051879883
 10
49.63800048828125
 20
35.268001556396484
 10
50.40999984741211
 20
34.27899932861328
 10
50.505001068115234
 20
30.659000396728516
 10
50.29600143432617
 20
30.027999877929688
 10
48.8849983215332
 20
30.059999465942383
 10
48.40299987792969
 20
29.530000686645508
 10
47.86000061035156
 20
29.52199935913086
 10
47.749000549316406
 20
29.729999542236328
 10
47.69900131225586
 20
29.415000915527344
 10
46.18000030517578
 20
29.183000564575195
 10
46.12300109863281
 20
29.392000198364258
 10
44.22200012207031
 20
29.155000686645508
 10
40.45800018310547
 20
29.257999420166016
 10
40.34600067138672
 20
29.465999603271484
 10
40.020999908447266
 20
29.250999450683594
 10
37.94300079345703
 20
29.27400016784668
 10
36.56100082397461
 20
30.042999267578125
 10
36.26499938964844
 20
31.250999450683594
  0
TEXT
  5
43
330
17
100
AcDbEntity
  8
NOTES
100
AcDbText
 10
41.89
 20
32.27
 30
0.0
 40
1.0
  1
A2
 11
41.89
 21
32.27
 31
0.0
100
AcDbText
  0
LWPOLYLINE
  5
44
330
17
100
AcDbEntity
  8
FLEX_CUTOUTS
100
AcDbPolyline
 90
17
 70
1
 10
36.78499984741211
 20
85.87100219726562
 10
36.60599899291992
 20
86.427001953125
 10
36.09400177001953
 20
86.76399993896484
 10
35.96799850463867
 20
87.48799896240234
 10
35.98899841308594
 20
95.802001953125
 10
36.42900085449219
 20
96.47000122070312
 10
37.49599838256836
 20
96.8499984741211
 10
45.375
 20
97.26399993896484
 10
48.18000030517578
 20
97.23100280761719
 10
48.91400146484375
 20
96.7760009765625
 10
49.20500183105469
 20
95.82499694824219
 10
49.375
 20
90.81800079345703
 10
49.20000076293945
 20
86.66600036621094
 10
48.816001892089844
 20
86.11599731445312
 10
48.319000244140625
 20
85.78800201416016
 10
43.1870002746582
 20
85.38200378417969
 10
38.64500045776367
 20
85.5250015258789
  0
TEXT
  5
45
330
17
100
AcDbEntity
  8
NOTES
100
AcDbText
 10
41.14
 20
91.3
 30
0.0
 40
1.0
  1
ETH2
 11
41.14
 21
91.3
 31
0.0
100
AcDbText
  0
LWPOLYLINE
  5
46
330
17
100
AcDbEntity
  8
FLEX_CUTOUTS
100
AcDbPolyline
 90
19
 70
1
 10
38.34400177001953
 20
57.08300018310547
 10
39.15399932861328
 20
58.327999114990234
 10
40.09000015258789
 20
58.70899963378906
 10
45.56100082397461
 20
58.72600173950195
 10
46.17100143432617
 20
58.51300048828125
 10
47.340999603271484
 20
57.439998626708984
 10
47.56800079345703
 20
56.957000732421875
 10
47.70399856567383
 20
54.86199951171875
 10
47.50199890136719
 20
53.46699905395508
 10
46.573001861572266
 20
53.03300094604492
 10
44.21099853515625
 20
52.805999755859375
 10
44.152000427246094
 20
53.07400131225586
 10
43.88100051879883
 20
52.75
 10
43.222999572753906
 20
52.58599853515625
 10
39.96699905395508
 20
52.67499923706055
 10
39.73699951171875
 20
53.21099853515625
 10
39.12300109863281
 20
53.58399963378906
 10
38.77799987792969
 20
54.33599853515625
 10
38.387001037597656
 20
54.54899978637695
  0
TEXT
  5
47
330
17
100
AcDbEntity
  8
NOTES
100
AcDbText
 10
41.47
 20
55.65
 30
0.0
 40
1.0
  1
C3
 11
41.47
 21
55.65
 31
0.0
100
AcDbText
  0
LWPOLYLINE
  5
48
330
17
100
AcDbEntity
  8
FLEX_CUTOUTS
100
AcDbPolyline
 90
16
 70
1
 10
38.39400100708008
 20
67.2239990234375
 10
39.04600143432617
 20
68.1510009765625
 10
39.81999969482422
 20
68.47799682617188
 10
45.81700134277344
 20
68.4749984741211
 10
46.992000579833984
 20
67.49600219726562
 10
47.388999938964844
 20
66.73500061035156
 10
47.321998596191406
 20
63.266998291015625
 10
46.999000549316406
 20
62.67100143432617
 10
45.558998107910156
 20
62.939998626708984
 10
45.457000732421875
 20
62.34400177001953
 10
41.138999938964844
 20
62.39099884033203
 10
41.08000183105469
 20
62.6609992980957
 10
39.69300079345703
 20
62.659000396728516
 10
39.119998931884766
 20
63.74399948120117
 10
38.7239990234375
 20
64.12300109863281
 10
38.39099884033203
 20
64.12300109863281
  0
TEXT
  5
49
330
17
100
AcDbEntity
  8
NOTES
100
AcDbText
 10
41.36
 20
65.43
 30
0.0
 40
1.0
  1
C2
 11
41.36
 21
65.43
 31
0.0
100
AcDbText
  0
LWPOLYLINE
  5
4A
330
17
100
AcDbEntity
  8
FLEX_CUTOUTS
100
AcDbPolyline
 90
15
 70
1
 10
38.178001403808594
 20
76.63899993896484
 10
38.72200012207031
 20
77.5719985961914
 10
39.60499954223633
 20
78.28399658203125
 10
43.0629997253418
 20
78.54399871826172
 10
45.849998474121094
 20
78.4219970703125
 10
47.202999114990234
 20
77.04499816894531
 10
47.19599914550781
 20
73.21499633789062
 10
46.814998626708984
 20
72.61499786376953
 10
45.987998962402344
 20
72.23500061035156
 10
41.097999572753906
 20
72.13500213623047
 10
39.922000885009766
 20
72.46499633789062
 10
39.292999267578125
 20
73.4530029296875
 10
38.95500183105469
 20
73.61799621582031
 10
38.95100021362305
 20
73.89199829101562
 10
38.612998962402344
 20
74.05699920654297
  0
TEXT
  5
4B
330
17
100
AcDbEntity
  8
NOTES
100
AcDbText
 10
41.24
 20
75.33
 30
0.0
 40
1.0
  1
C1
 11
41.24
 21
75.33
 31
0.0
100
AcDbText
  0
CIRCLE
  5
4C
330
17
100
AcDbEntity
  8
FLEX_CUTOUTS
100
AcDbCircle
 10
43.36
 20
19.33
 30
0.0
 40
3.705
  0
TEXT
  5
4D
330
17
100
AcDbEntity
  8
NOTES
100
AcDbText
 10
41.86
 20
19.33
 30
0.0
 40
1.0
  1
AUD_H
 11
41.86
 21
19.33
 31
0.0
100
AcDbText
  0
LWPOLYLINE
  5
4E
330
17
100
AcDbEntity
  8
FLEX_CUTOUTS
100
AcDbPolyline
 90
19
 70
1
 10
56.45199966430664
 20
96.69000244140625
 10
57.229000091552734
 20
97.01499938964844
 10
68.25800323486328
 20
96.9990005493164
 10
69.58200073242188
 20
96.76300048828125
 10
70.13500213623047
 20
95.6500015258789
 10
70.25900268554688
 20
87.55000305175781
 10
70.04199981689453
 20
86.29000091552734
 10
69.49400329589844
 20
85.85600280761719
 10
65.9229965209961
 20
86.21099853515625
 10
61.404998779296875
 20
86.18900299072266
 10
61.3489990234375
 20
86.3550033569336
 10
59.303001403808594
 20
86.58999633789062
 10
58.40999984741211
 20
87.64399719238281
 10
57.79999923706055
 20
87.75900268554688
 10
56.9010009765625
 20
89.36699676513672
 10
56.402000427246094
 20
89.37100219726562
 10
56.21200180053711
 20
92.13999938964844
 10
56.367000579833984
 20
93.52400207519531
 10
56.07699966430664
 20
95.0270004272461
  0
TEXT
  5
4F
330
17
100
AcDbEntity
  8
NOTES
100
AcDbText
 10
61.67
 20
91.49
 30
0.0
 40
1.0
  1
ETH1
 11
61.67
 21
91.49
 31
0.0
100
AcDbText
  0
LWPOLYLINE
  5
50
330
17
100
AcDbEntity
  8
FLEX_CUTOUTS
100
AcDbPolyline
 90
23
 70
1
 10
56.77199935913086
 20
44.63399887084961
 10
57.36399841308594
 20
45.275001525878906
 10
57.90599822998047
 20
45.4379997253418
 10
70.38500213623047
 20
45.4370002746582
 10
70.9229965209961
 20
45.125
 10
71.30000305175781
 20
44.49599838256836
 10
71.30500030517578
 20
40.39799880981445
 10
71.09100341796875
 20
40.02899932861328
 10
70.60900115966797
 20
40.02399826049805
 10
70.50199890136719
 20
39.76100158691406
 10
69.53700256347656
 20
39.487998962402344
 10
66.85199737548828
 20
39.45899963378906
 10
66.79900360107422
 20
39.249000549316406
 10
64.59300231933594
 20
39.27799987792969
 10
63.67599868774414
 20
39.58300018310547
 10
61.141998291015625
 20
39.34600067138672
 10
60.11399841308594
 20
39.6510009765625
 10
58.979000091552734
 20
39.58599853515625
 10
58.7599983215332
 20
39.900001525878906
 10
58.27299880981445
 20
39.946998596191406
 10
58.1619987487793
 20
40.262001037597656
 10
57.071998596191406
 20
41.095001220703125
 10
56.79600143432617
 20
41.67300033569336
  0
TEXT
  5
51
330
17
100
AcDbEntity
  8
NOTES
100
AcDbText
 10
62.55
 20
42.38
 30
0.0
 40
1.0
  1
A3
 11
62.55
 21
42.38
 31
0.0
100
AcDbText
  0
LWPOLYLINE
  5
52
330
17
100
AcDbEntity
  8
FLEX_CUTOUTS
100
AcDbPolyline
 90
27
 70
1
 10
56.88399887084961
 20
31.062000274658203
 10
56.86199951171875
 20
33.678001403808594
 10
57.07099914550781
 20
34.625
 10
57.551998138427734
 20
35.20800018310547
 10
58.25199890136719
 20
35.47800064086914
 10
69.76000213623047
 20
35.566001892089844
 10
70.93699645996094
 20
35.266998291015625
 10
71.4729995727539
 20
34.43899917602539
 10
71.42500305175781
 20
30.277000427246094
 10
71.1050033569336
 20
29.85700035095215
 10
70.197998046875
 20
29.8439998626709
 10
70.03900146484375
 20
29.582000732421875
 10
69.0250015258789
 20
29.46299934387207
 10
68.86499786376953
 20
29.201000213623047
 10
66.62000274658203
 20
29.115999221801758
 10
65.87000274658203
 20
29.364999771118164
 10
65.65699768066406
 20
29.101999282836914
 10
65.06800079345703
 20
29.0939998626709
 10
64.4229965209961
 20
29.5
 10
62.92300033569336
 20
29.270000457763672
 10
62.81399917602539
 20
29.52899932861328
 10
60.558998107910156
 20
29.34000015258789
 10
59.96500015258789
 20
29.695999145507812
 10
58.888999938964844
 20
29.680999755859375
 10
58.24100112915039
 20
29.93199920654297
 10
57.696998596191406
 20
30.499000549316406
 10
57.26599884033203
 20
30.545000076293945
  0
TEXT
  5
53
330
17
100
AcDbEntity
  8
NOTES
100
AcDbText
 10
62.67
 20
32.33
 30
0.0
 40
1.0
  1
A4
 11
62.67
 21
32.33
 31
0.0
100
AcDbText
  0
LWPOLYLINE
  5
54
330
17
100
AcDbEntity
  8
FLEX_CUTOUTS
100
AcDbPolyline
 90
20
 70
1
 10
58.88999938964844
 20
67.00700378417969
 10
60.08599853515625
 20
68.46700286865234
 10
60.797000885009766
 20
68.68299865722656
 10
66.97100067138672
 20
68.57099914550781
 10
67.9000015258789
 20
67.81600189208984
 10
68.44599914550781
 20
66.9000015258789
 10
68.56099700927734
 20
64.58699798583984
 10
68.34600067138672
 20
63.566001892089844
 10
66.93399810791016
 20
63.242000579833984
 10
66.77400207519531
 20
62.4900016784668
 10
61.87300109863281
 20
62.428001403808594
 10
61.65399932861328
 20
62.5890007019043
 10
61.8129997253418
 20
63.395999908447266
 10
60.882999420166016
 20
63.61000061035156
 10
60.82600021362305
 20
63.98699951171875
 10
59.73099899291992
 20
64.30899810791016
 10
59.61899948120117
 20
64.68599700927734
 10
59.345001220703125
 20
64.68599700927734
 10
59.34199905395508
 20
65.1709976196289
 10
58.84299850463867
 20
66.03500366210938
  0
TEXT
  5
55
330
17
100
AcDbEntity
  8
NOTES
100
AcDbText
 10
62.2
 20
65.5
 30
0.0
 40
1.0
  1
C5
 11
62.2
 21
65.5
 31
0.0
100
AcDbText
  0
LWPOLYLINE
  5
56
330
17
100
AcDbEntity
  8
FLEX_CUTOUTS
100
AcDbPolyline
 90
16
 70
1
 10
58.96099853515625
 20
57.21500015258789
 10
60.09700012207031
 20
58.45100021362305
 10
60.85900115966797
 20
58.72200012207031
 10
67.05799865722656
 20
58.6879997253418
 10
68.5260009765625
 20
57.30500030517578
 10
68.69000244140625
 20
56.29199981689453
 10
68.53500366210938
 20
53.736000061035156
 10
67.18499755859375
 20
53.03799819946289
 10
65.88600158691406
 20
53.08399963378906
 10
65.83100128173828
 20
53.297000885009766
 10
62.14500045776367
 20
52.957000732421875
 10
61.05699920654297
 20
53.21799850463867
 10
60.23500061035156
 20
54.119998931884766
 10
59.79899978637695
 20
54.17100143432617
 10
59.6870002746582
 20
54.6510009765625
 10
58.97800064086914
 20
54.80799865722656
  0
TEXT
  5
57
330
17
100
AcDbEntity
  8
NOTES
100
AcDbText
 10
62.3
 20
55.85
 30
0.0
 40
1.0
  1
C6
 11
62.3
 21
55.85
 31
0.0
100
AcDbText
  0
LWPOLYLINE
  5
58
330
17
100
AcDbEntity
  8
FLEX_CUTOUTS
100
AcDbPolyline
 90
18
 70
1
 10
58.87099838256836
 20
77.43699645996094
 10
60.349998474121094
 20
78.5780029296875
 10
66.72000122070312
 20
78.44100189208984
 10
67.43299865722656
 20
77.9469985961914
 10
68.2020034790039
 20
76.96499633789062
 10
68.31900024414062
 20
73.76100158691406
 10
68.10299682617188
 20
73.11199951171875
 10
67.1760025024414
 20
72.84300231933594
 10
67.12300109863281
 20
72.3550033569336
 10
61.87099838256836
 20
72.36599731445312
 10
61.9739990234375
 20
73.4520034790039
 10
60.763999938964844
 20
73.94400024414062
 10
60.814998626708984
 20
74.54199981689453
 10
59.933998107910156
 20
74.87100219726562
 10
59.930999755859375
 20
75.30699920654297
 10
59.709999084472656
 20
75.41600036621094
 10
59.869998931884766
 20
76.23300170898438
 10
58.87900161743164
 20
76.34600067138672
  0
TEXT
  5
59
330
17
100
AcDbEntity
  8
NOTES
100
AcDbText
 10
62.09
 20
75.47
 30
0.0
 40
1.0
  1
C4
 11
62.09
 21
75.47
 31
0.0
100
AcDbText
  0
CIRCLE
  5
5A
330
17
100
AcDbEntity
  8
FLEX_CUTOUTS
100
AcDbCircle
 10
64.33
 20
19.25
 30
0.0
 40
3.77
  0
TEXT
  5
5B
330
17
100
AcDbEntity
  8
NOTES
100
AcDbText
 10
62.83
 20
19.25
 30
0.0
 40
1.0
  1
AUD_O
 11
62.83
 21
19.25
 31
0.0
100
AcDbText
  0
CIRCLE
  5
5C
330
17
100
AcDbEntity
  8
FLEX_FRAME_HOLES
100
AcDbCircle
 10
52.57
 20
75.3
 30
0.0
 40
1.7
  0
CIRCLE
  5
5D
330
17
100
AcDbEntity
  8
FLEX_FRAME_HOLES
100
AcDbCircle
 10
53.1
 20
57.82
 30
0.0
 40
2.25
  0
CIRCLE
  5
5E
330
17
100
AcDbEntity
  8
FLEX_FRAME_HOLES
100
AcDbCircle
 10
53.91
 20
19.6
 30
0.0
 40
2.3
  0
LWPOLYLINE
  5
5F
330
17
100
AcDbEntity
  8
FLEX_LIGHT_PADS
100
AcDbPolyline
 90
36
 70
1
 10
55.575
 20
96.31500000000001
 10
55.569235584120975
 20
96.37352709660485
 10
55.55216385975339
 20
96.42980502970954
 10
55.52444088369077
 20
96.48167106990589
 10
55.48713203435597
 20
96.52713203435597
 10
55.44167106990589
 20
96.56444088369078
 10
55.389805029709535
 20
96.5921638597534
 10
55.33352709660485
 20
96.60923558412098
 10
55.275000000000006
 20
96.61500000000001
 10
49.785
 20
96.61500000000001
 10
49.726472903395155
 20
96.60923558412098
 10
49.67019497029047
 20
96.5921638597534
 10
49.618328930094115
 20
96.56444088369078
 10
49.57286796564403
 20
96.52713203435597
 10
49.53555911630923
 20
96.48167106990589
 10
49.50783614024661
 20
96.42980502970954
 10
49.49076441587903
 20
96.37352709660485
 10
49.485
 20
96.31500000000001
 10
49.485
 20
87.485
 10
49.49076441587903
 20
87.42647290339517
 10
49.50783614024661
 20
87.37019497029047
 10
49.53555911630923
 20
87.31832893009413
 10
49.57286796564403
 20
87.27286796564404
 10
49.618328930094115
 20
87.23555911630923
 10
49.67019497029047
 20
87.20783614024661
 10
49.726472903395155
 20
87.19076441587903
 10
49.785
 20
87.185
 10
55.275000000000006
 20
87.185
 10
55.33352709660485
 20
87.19076441587903
 10
55.389805029709535
 20
87.20783614024661
 10
55.44167106990589
 20
87.23555911630923
 10
55.48713203435597
 20
87.27286796564404
 10
55.52444088369077
 20
87.31832893009413
 10
55.55216385975339
 20
87.37019497029047
 10
55.569235584120975
 20
87.42647290339517
 10
55.575
 20
87.485
  0
TEXT
  5
60
330
17
100
AcDbEntity
  8
NOTES
100
AcDbText
 10
50.53
 20
96.915
 30
0.0
 40
0.8
  1
PAD_ETH
 11
50.53
 21
96.915
 31
0.0
100
AcDbText
  0
LWPOLYLINE
  5
61
330
17
100
AcDbEntity
  8
FLEX_LIGHT_PADS
100
AcDbPolyline
 90
36
 70
1
 10
55.83
 20
71.03500000000001
 10
55.82423558412097
 20
71.09352709660484
 10
55.80716385975339
 20
71.14980502970954
 10
55.77944088369077
 20
71.20167106990588
 10
55.74213203435597
 20
71.24713203435597
 10
55.69667106990588
 20
71.28444088369078
 10
55.64480502970953
 20
71.3121638597534
 10
55.58852709660484
 20
71.32923558412098
 10
55.53
 20
71.33500000000001
 10
50.31
 20
71.33500000000001
 10
50.25147290339516
 20
71.32923558412098
 10
50.19519497029047
 20
71.3121638597534
 10
50.14332893009412
 20
71.28444088369078
 10
50.097867965644035
 20
71.24713203435597
 10
50.060559116309236
 20
71.20167106990588
 10
50.032836140246616
 20
71.14980502970954
 10
50.01576441587903
 20
71.09352709660484
 10
50.010000000000005
 20
71.03500000000001
 10
50.010000000000005
 20
61.485
 10
50.01576441587903
 20
61.42647290339516
 10
50.032836140246616
 20
61.37019497029047
 10
50.060559116309236
 20
61.31832893009412
 10
50.097867965644035
 20
61.27286796564403
 10
50.14332893009412
 20
61.23555911630923
 10
50.19519497029047
 20
61.20783614024661
 10
50.25147290339516
 20
61.19076441587903
 10
50.31
 20
61.185
 10
55.53
 20
61.185
 10
55.58852709660484
 20
61.19076441587903
 10
55.64480502970953
 20
61.20783614024661
 10
55.69667106990588
 20
61.23555911630923
 10
55.74213203435597
 20
61.27286796564403
 10
55.77944088369077
 20
61.31832893009412
 10
55.80716385975339
 20
61.37019497029047
 10
55.82423558412097
 20
61.42647290339516
 10
55.83
 20
61.485
  0
TEXT
  5
62
330
17
100
AcDbEntity
  8
NOTES
100
AcDbText
 10
50.92
 20
71.635
 30
0.0
 40
0.8
  1
PAD_TB
 11
50.92
 21
71.635
 31
0.0
100
AcDbText
  0
LWPOLYLINE
  5
63
330
17
100
AcDbEntity
  8
FLEX_LIGHT_PADS
100
AcDbPolyline
 90
36
 70
1
 10
56.33
 20
42.690000000000005
 10
56.32423558412097
 20
42.748527096604846
 10
56.30716385975339
 20
42.804805029709534
 10
56.27944088369077
 20
42.856671069905886
 10
56.24213203435597
 20
42.90213203435597
 10
56.19667106990588
 20
42.93944088369077
 10
56.14480502970953
 20
42.96716385975339
 10
56.08852709660484
 20
42.984235584120974
 10
56.03
 20
42.99
 10
50.989999999999995
 20
42.99
 10
50.931472903395154
 20
42.984235584120974
 10
50.875194970290465
 20
42.96716385975339
 10
50.823328930094114
 20
42.93944088369077
 10
50.77786796564403
 20
42.90213203435597
 10
50.74055911630923
 20
42.856671069905886
 10
50.71283614024661
 20
42.804805029709534
 10
50.695764415879026
 20
42.748527096604846
 10
50.69
 20
42.690000000000005
 10
50.69
 20
30.39
 10
50.695764415879026
 20
30.331472903395163
 10
50.71283614024661
 20
30.275194970290475
 10
50.74055911630923
 20
30.22332893009412
 10
50.77786796564403
 20
30.177867965644037
 10
50.823328930094114
 20
30.140559116309237
 10
50.875194970290465
 20
30.112836140246614
 10
50.931472903395154
 20
30.09576441587903
 10
50.989999999999995
 20
30.09
 10
56.03
 20
30.09
 10
56.08852709660484
 20
30.09576441587903
 10
56.14480502970953
 20
30.112836140246614
 10
56.19667106990588
 20
30.140559116309237
 10
56.24213203435597
 20
30.177867965644037
 10
56.27944088369077
 20
30.22332893009412
 10
56.30716385975339
 20
30.275194970290475
 10
56.32423558412097
 20
30.331472903395163
 10
56.33
 20
30.39
  0
TEXT
  5
64
330
17
100
AcDbEntity
  8
NOTES
100
AcDbText
 10
51.51
 20
43.29
 30
0.0
 40
0.8
  1
PAD_USB
 11
51.51
 21
43.29
 31
0.0
100
AcDbText
  0
LWPOLYLINE
  5
65
330
17
100
AcDbEntity
  8
FLEX_LIGHT_PADS
100
AcDbPolyline
 90
36
 70
1
 10
48.055
 20
116.185
 10
48.04923558412097
 20
116.24352709660484
 10
48.03216385975339
 20
116.29980502970953
 10
48.00444088369077
 20
116.35167106990588
 10
47.96713203435597
 20
116.39713203435596
 10
47.921671069905884
 20
116.43444088369077
 10
47.86980502970953
 20
116.46216385975339
 10
47.813527096604844
 20
116.47923558412097
 10
47.755
 20
116.485
 10
35.324999999999996
 20
116.485
 10
35.266472903395155
 20
116.47923558412097
 10
35.210194970290466
 20
116.46216385975339
 10
35.158328930094115
 20
116.43444088369077
 10
35.11286796564403
 20
116.39713203435596
 10
35.07555911630923
 20
116.35167106990588
 10
35.04783614024661
 20
116.29980502970953
 10
35.03076441587903
 20
116.24352709660484
 10
35.025
 20
116.185
 10
35.025
 20
111.215
 10
35.03076441587903
 20
111.15647290339517
 10
35.04783614024661
 20
111.10019497029047
 10
35.07555911630923
 20
111.04832893009413
 10
35.11286796564403
 20
111.00286796564404
 10
35.158328930094115
 20
110.96555911630924
 10
35.210194970290466
 20
110.93783614024662
 10
35.266472903395155
 20
110.92076441587903
 10
35.324999999999996
 20
110.915
 10
47.755
 20
110.915
 10
47.813527096604844
 20
110.92076441587903
 10
47.86980502970953
 20
110.93783614024662
 10
47.921671069905884
 20
110.96555911630924
 10
47.96713203435597
 20
111.00286796564404
 10
48.00444088369077
 20
111.04832893009413
 10
48.03216385975339
 20
111.10019497029047
 10
48.04923558412097
 20
111.15647290339517
 10
48.055
 20
111.215
  0
TEXT
  5
66
330
17
100
AcDbEntity
  8
NOTES
100
AcDbText
 10
39.54
 20
116.785
 30
0.0
 40
0.8
  1
PAD_HDMI
 11
39.54
 21
116.785
 31
0.0
100
AcDbText
  0
LWPOLYLINE
  5
67
330
17
100
AcDbEntity
  8
FLEX_LIGHT_PADS
100
AcDbPolyline
 90
36
 70
1
 10
47.81
 20
16.025
 10
47.804235584120974
 20
16.083527096604836
 10
47.78716385975339
 20
16.139805029709525
 10
47.75944088369077
 20
16.19167106990588
 10
47.72213203435597
 20
16.237132034355962
 10
47.676671069905886
 20
16.27444088369076
 10
47.624805029709535
 20
16.302163859753385
 10
47.568527096604846
 20
16.319235584120968
 10
47.510000000000005
 20
16.325
 10
39.28999999999999
 20
16.325
 10
39.23147290339515
 20
16.319235584120968
 10
39.17519497029046
 20
16.302163859753385
 10
39.12332893009411
 20
16.27444088369076
 10
39.077867965644025
 20
16.237132034355962
 10
39.040559116309225
 20
16.19167106990588
 10
39.012836140246606
 20
16.139805029709525
 10
38.99576441587902
 20
16.083527096604836
 10
38.989999999999995
 20
16.025
 10
38.989999999999995
 20
10.035
 10
38.99576441587902
 20
9.976472903395162
 10
39.012836140246606
 20
9.920194970290472
 10
39.040559116309225
 20
9.868328930094119
 10
39.077867965644025
 20
9.822867965644036
 10
39.12332893009411
 20
9.785559116309237
 10
39.17519497029046
 20
9.757836140246614
 10
39.23147290339515
 20
9.740764415879031
 10
39.28999999999999
 20
9.735
 10
47.510000000000005
 20
9.735
 10
47.568527096604846
 20
9.740764415879031
 10
47.624805029709535
 20
9.757836140246614
 10
47.676671069905886
 20
9.785559116309237
 10
47.72213203435597
 20
9.822867965644036
 10
47.75944088369077
 20
9.868328930094119
 10
47.78716385975339
 20
9.920194970290474
 10
47.804235584120974
 20
9.97647290339516
 10
47.81
 20
10.035
  0
TEXT
  5
68
330
17
100
AcDbEntity
  8
NOTES
100
AcDbText
 10
41.4
 20
16.625
 30
0.0
 40
0.8
  1
PAD_AUD_H
 11
41.4
 21
16.625
 31
0.0
100
AcDbText
  0
LWPOLYLINE
  5
69
330
17
100
AcDbEntity
  8
FLEX_LIGHT_PADS
100
AcDbPolyline
 90
36
 70
1
 10
68.27
 20
16.419999999999998
 10
68.26423558412097
 20
16.478527096604836
 10
68.24716385975339
 20
16.534805029709524
 10
68.21944088369077
 20
16.58667106990588
 10
68.18213203435596
 20
16.632132034355962
 10
68.13667106990587
 20
16.66944088369076
 10
68.08480502970953
 20
16.697163859753385
 10
68.02852709660483
 20
16.714235584120967
 10
67.97
 20
16.72
 10
59.73
 20
16.72
 10
59.671472903395156
 20
16.714235584120967
 10
59.61519497029047
 20
16.697163859753385
 10
59.563328930094116
 20
16.66944088369076
 10
59.51786796564403
 20
16.632132034355962
 10
59.48055911630923
 20
16.58667106990588
 10
59.45283614024661
 20
16.534805029709524
 10
59.43576441587903
 20
16.478527096604836
 10
59.43
 20
16.419999999999998
 10
59.43
 20
10.48
 10
59.43576441587903
 20
10.421472903395163
 10
59.45283614024661
 20
10.365194970290473
 10
59.48055911630923
 20
10.31332893009412
 10
59.51786796564403
 20
10.267867965644037
 10
59.563328930094116
 20
10.230559116309237
 10
59.61519497029047
 20
10.202836140246614
 10
59.671472903395156
 20
10.185764415879031
 10
59.73
 20
10.18
 10
67.97
 20
10.18
 10
68.02852709660483
 20
10.185764415879031
 10
68.08480502970953
 20
10.202836140246614
 10
68.13667106990587
 20
10.230559116309237
 10
68.18213203435596
 20
10.267867965644037
 10
68.21944088369077
 20
10.31332893009412
 10
68.24716385975339
 20
10.365194970290474
 10
68.26423558412097
 20
10.421472903395161
 10
68.27
 20
10.48
  0
TEXT
  5
6A
330
17
100
AcDbEntity
  8
NOTES
100
AcDbText
 10
61.85
 20
17.02
 30
0.0
 40
0.8
  1
PAD_AUD_O
 11
61.85
 21
17.02
 31
0.0
100
AcDbText
  0
LWPOLYLINE
  5
6B
330
17
100
AcDbEntity
  8
FLEX_LEDS
100
AcDbPolyline
 90
36
 70
1
 10
32.595
 20
29.349999999999998
 10
32.59403926402016
 20
29.359754516100804
 10
32.59119397662557
 20
29.369134171618253
 10
32.58657348061513
 20
29.377778511650977
 10
32.58035533905933
 20
29.385355339059327
 10
32.57277851165098
 20
29.391573480615126
 10
32.56413417161826
 20
29.39619397662556
 10
32.55475451610081
 20
29.39903926402016
 10
32.545
 20
29.4
 10
31.515
 20
29.4
 10
31.505245483899195
 20
29.39903926402016
 10
31.495865828381746
 20
29.39619397662556
 10
31.48722148834902
 20
29.391573480615126
 10
31.47964466094067
 20
29.385355339059327
 10
31.473426519384873
 20
29.377778511650977
 10
31.468806023374437
 20
29.369134171618253
 10
31.465960735979838
 20
29.359754516100804
 10
31.465
 20
29.349999999999998
 10
31.465
 20
25.150000000000002
 10
31.465960735979838
 20
25.140245483899196
 10
31.468806023374437
 20
25.130865828381747
 10
31.473426519384873
 20
25.122221488349023
 10
31.47964466094067
 20
25.114644660940673
 10
31.48722148834902
 20
25.108426519384874
 10
31.495865828381746
 20
25.10380602337444
 10
31.505245483899195
 20
25.10096073597984
 10
31.515
 20
25.1
 10
32.545
 20
25.1
 10
32.55475451610081
 20
25.10096073597984
 10
32.56413417161826
 20
25.10380602337444
 10
32.57277851165098
 20
25.108426519384874
 10
32.58035533905933
 20
25.114644660940673
 10
32.58657348061513
 20
25.122221488349023
 10
32.59119397662557
 20
25.130865828381747
 10
32.59403926402016
 20
25.140245483899196
 10
32.595
 20
25.150000000000002
  0
LWPOLYLINE
  5
6C
330
17
100
AcDbEntity
  8
FLEX_LEDS
100
AcDbPolyline
 90
36
 70
1
 10
32.285
 20
52.81
 10
32.28403926402016
 20
52.81975451610081
 10
32.281193976625566
 20
52.82913417161826
 10
32.27657348061513
 20
52.83777851165098
 10
32.27035533905933
 20
52.84535533905933
 10
32.26277851165098
 20
52.85157348061513
 10
32.254134171618254
 20
52.85619397662557
 10
32.244754516100805
 20
52.85903926402016
 10
32.235
 20
52.86
 10
31.244999999999997
 20
52.86
 10
31.23524548389919
 20
52.85903926402016
 10
31.225865828381743
 20
52.85619397662557
 10
31.21722148834902
 20
52.85157348061513
 10
31.20964466094067
 20
52.84535533905933
 10
31.20342651938487
 20
52.83777851165098
 10
31.198806023374434
 20
52.82913417161826
 10
31.195960735979835
 20
52.81975451610081
 10
31.194999999999997
 20
52.81
 10
31.194999999999997
 20
48.67
 10
31.195960735979835
 20
48.660245483899196
 10
31.198806023374434
 20
48.65086582838175
 10
31.20342651938487
 20
48.64222148834902
 10
31.20964466094067
 20
48.63464466094067
 10
31.21722148834902
 20
48.628426519384874
 10
31.225865828381743
 20
48.623806023374435
 10
31.23524548389919
 20
48.62096073597984
 10
31.244999999999997
 20
48.620000000000005
 10
32.235
 20
48.620000000000005
 10
32.244754516100805
 20
48.62096073597984
 10
32.254134171618254
 20
48.623806023374435
 10
32.26277851165098
 20
48.628426519384874
 10
32.27035533905933
 20
48.63464466094067
 10
32.27657348061513
 20
48.64222148834902
 10
32.281193976625566
 20
48.65086582838175
 10
32.28403926402016
 20
48.660245483899196
 10
32.285
 20
48.67
  0
LWPOLYLINE
  5
6D
330
17
100
AcDbEntity
  8
FLEX_LEDS
100
AcDbPolyline
 90
36
 70
1
 10
32.055
 20
86.305
 10
32.05403926402016
 20
86.31475451610082
 10
32.05119397662557
 20
86.32413417161825
 10
32.04657348061513
 20
86.33277851165099
 10
32.04035533905933
 20
86.34035533905933
 10
32.03277851165098
 20
86.34657348061513
 10
32.02413417161826
 20
86.35119397662557
 10
32.01475451610081
 20
86.35403926402017
 10
32.005
 20
86.355
 10
31.095000000000002
 20
86.355
 10
31.085245483899197
 20
86.35403926402017
 10
31.075865828381747
 20
86.35119397662557
 10
31.067221488349023
 20
86.34657348061513
 10
31.059644660940673
 20
86.34035533905933
 10
31.053426519384875
 20
86.33277851165099
 10
31.04880602337444
 20
86.32413417161825
 10
31.04596073597984
 20
86.31475451610082
 10
31.045
 20
86.305
 10
31.045
 20
81.29499999999999
 10
31.04596073597984
 20
81.28524548389917
 10
31.04880602337444
 20
81.27586582838174
 10
31.053426519384875
 20
81.26722148834901
 10
31.059644660940673
 20
81.25964466094067
 10
31.067221488349023
 20
81.25342651938486
 10
31.075865828381747
 20
81.24880602337443
 10
31.085245483899197
 20
81.24596073597982
 10
31.095000000000002
 20
81.24499999999999
 10
32.005
 20
81.24499999999999
 10
32.01475451610081
 20
81.24596073597982
 10
32.02413417161826
 20
81.24880602337443
 10
32.03277851165098
 20
81.25342651938486
 10
32.04035533905933
 20
81.25964466094067
 10
32.04657348061513
 20
81.26722148834901
 10
32.05119397662557
 20
81.27586582838174
 10
32.05403926402016
 20
81.28524548389917
 10
32.055
 20
81.29499999999999
  0
LWPOLYLINE
  5
6E
330
17
100
AcDbEntity
  8
FLEX_LEDS
100
AcDbPolyline
 90
36
 70
1
 10
37.28
 20
48.68000000000001
 10
37.27903926402016
 20
48.68975451610081
 10
37.27619397662557
 20
48.69913417161826
 10
37.27157348061513
 20
48.707778511650986
 10
37.26535533905933
 20
48.715355339059336
 10
37.25777851165098
 20
48.721573480615135
 10
37.24913417161826
 20
48.726193976625574
 10
37.23975451610081
 20
48.729039264020166
 10
37.230000000000004
 20
48.730000000000004
 10
32.55
 20
48.730000000000004
 10
32.54024548389919
 20
48.729039264020166
 10
32.53086582838174
 20
48.726193976625574
 10
32.52222148834902
 20
48.721573480615135
 10
32.51464466094067
 20
48.715355339059336
 10
32.50842651938487
 20
48.707778511650986
 10
32.50380602337443
 20
48.69913417161826
 10
32.50096073597984
 20
48.68975451610081
 10
32.5
 20
48.68000000000001
 10
32.5
 20
47.8
 10
32.50096073597984
 20
47.79024548389919
 10
32.50380602337443
 20
47.78086582838174
 10
32.50842651938487
 20
47.77222148834902
 10
32.51464466094067
 20
47.76464466094067
 10
32.52222148834902
 20
47.75842651938487
 10
32.53086582838174
 20
47.75380602337443
 10
32.54024548389919
 20
47.75096073597984
 10
32.55
 20
47.75
 10
37.230000000000004
 20
47.75
 10
37.23975451610081
 20
47.75096073597984
 10
37.24913417161826
 20
47.75380602337443
 10
37.25777851165098
 20
47.75842651938487
 10
37.26535533905933
 20
47.76464466094067
 10
37.27157348061513
 20
47.77222148834902
 10
37.27619397662557
 20
47.78086582838174
 10
37.27903926402016
 20
47.79024548389919
 10
37.28
 20
47.8
  0
LWPOLYLINE
  5
6F
330
17
100
AcDbEntity
  8
FLEX_LEDS
100
AcDbPolyline
 90
36
 70
1
 10
36.625
 20
100.065
 10
36.62403926402016
 20
100.07475451610081
 10
36.62119397662557
 20
100.08413417161825
 10
36.61657348061513
 20
100.09277851165098
 10
36.61035533905933
 20
100.10035533905932
 10
36.60277851165098
 20
100.10657348061513
 10
36.59413417161826
 20
100.11119397662556
 10
36.58475451610081
 20
100.11403926402016
 10
36.575
 20
100.115
 10
31.884999999999998
 20
100.115
 10
31.875245483899192
 20
100.11403926402016
 10
31.865865828381743
 20
100.11119397662556
 10
31.85722148834902
 20
100.10657348061513
 10
31.84964466094067
 20
100.10035533905932
 10
31.84342651938487
 20
100.09277851165098
 10
31.838806023374435
 20
100.08413417161825
 10
31.835960735979835
 20
100.07475451610081
 10
31.834999999999997
 20
100.065
 10
31.834999999999997
 20
98.815
 10
31.835960735979835
 20
98.80524548389918
 10
31.838806023374435
 20
98.79586582838175
 10
31.84342651938487
 20
98.78722148834902
 10
31.84964466094067
 20
98.77964466094068
 10
31.85722148834902
 20
98.77342651938487
 10
31.865865828381743
 20
98.76880602337444
 10
31.875245483899192
 20
98.76596073597983
 10
31.884999999999998
 20
98.765
 10
36.575
 20
98.765
 10
36.58475451610081
 20
98.76596073597983
 10
36.59413417161826
 20
98.76880602337444
 10
36.60277851165098
 20
98.77342651938487
 10
36.61035533905933
 20
98.77964466094068
 10
36.61657348061513
 20
98.78722148834902
 10
36.62119397662557
 20
98.79586582838175
 10
36.62403926402016
 20
98.80524548389918
 10
36.625
 20
98.815
  0
LWPOLYLINE
  5
70
330
17
100
AcDbEntity
  8
FLEX_LEDS
100
AcDbPolyline
 90
36
 70
1
 10
36.91
 20
81.755
 10
36.90903926402016
 20
81.76475451610081
 10
36.906193976625566
 20
81.77413417161824
 10
36.90157348061513
 20
81.78277851165097
 10
36.89535533905933
 20
81.79035533905932
 10
36.88777851165098
 20
81.79657348061512
 10
36.879134171618254
 20
81.80119397662556
 10
36.869754516100805
 20
81.80403926402016
 10
36.86
 20
81.80499999999999
 10
32.22
 20
81.80499999999999
 10
32.21024548389919
 20
81.80403926402016
 10
32.200865828381744
 20
81.80119397662556
 10
32.19222148834902
 20
81.79657348061512
 10
32.18464466094067
 20
81.79035533905932
 10
32.17842651938487
 20
81.78277851165097
 10
32.17380602337443
 20
81.77413417161824
 10
32.17096073597984
 20
81.76475451610081
 10
32.17
 20
81.755
 10
32.17
 20
80.725
 10
32.17096073597984
 20
80.71524548389918
 10
32.17380602337443
 20
80.70586582838175
 10
32.17842651938487
 20
80.69722148834902
 10
32.18464466094067
 20
80.68964466094067
 10
32.19222148834902
 20
80.68342651938487
 10
32.200865828381744
 20
80.67880602337443
 10
32.21024548389919
 20
80.67596073597983
 10
32.22
 20
80.675
 10
36.86
 20
80.675
 10
36.869754516100805
 20
80.67596073597983
 10
36.879134171618254
 20
80.67880602337443
 10
36.88777851165098
 20
80.68342651938487
 10
36.89535533905933
 20
80.68964466094067
 10
36.90157348061513
 20
80.69722148834902
 10
36.906193976625566
 20
80.70586582838175
 10
36.90903926402016
 20
80.71524548389918
 10
36.91
 20
80.725
  0
LWPOLYLINE
  5
71
330
17
100
AcDbEntity
  8
FLEX_LEDS
100
AcDbPolyline
 90
36
 70
1
 10
44.73
 20
116.575
 10
44.72903926402016
 20
116.58475451610082
 10
44.72619397662557
 20
116.59413417161825
 10
44.72157348061513
 20
116.60277851165098
 10
44.71535533905933
 20
116.61035533905932
 10
44.70777851165098
 20
116.61657348061513
 10
44.699134171618255
 20
116.62119397662556
 10
44.689754516100805
 20
116.62403926402017
 10
44.68
 20
116.625
 10
38.18
 20
116.625
 10
38.170245483899194
 20
116.62403926402017
 10
38.160865828381745
 20
116.62119397662556
 10
38.15222148834902
 20
116.61657348061513
 10
38.14464466094067
 20
116.61035533905932
 10
38.13842651938487
 20
116.60277851165098
 10
38.13380602337443
 20
116.59413417161825
 10
38.13096073597984
 20
116.58475451610082
 10
38.13
 20
116.575
 10
38.13
 20
115.865
 10
38.13096073597984
 20
115.85524548389918
 10
38.13380602337443
 20
115.84586582838175
 10
38.13842651938487
 20
115.83722148834902
 10
38.14464466094067
 20
115.82964466094067
 10
38.15222148834902
 20
115.82342651938487
 10
38.160865828381745
 20
115.81880602337444
 10
38.170245483899194
 20
115.81596073597983
 10
38.18
 20
115.815
 10
44.68
 20
115.815
 10
44.689754516100805
 20
115.81596073597983
 10
44.699134171618255
 20
115.81880602337444
 10
44.70777851165098
 20
115.82342651938487
 10
44.71535533905933
 20
115.82964466094067
 10
44.72157348061513
 20
115.83722148834902
 10
44.72619397662557
 20
115.84586582838175
 10
44.72903926402016
 20
115.85524548389918
 10
44.73
 20
115.865
  0
LWPOLYLINE
  5
72
330
17
100
AcDbEntity
  8
FLEX_LEDS
100
AcDbPolyline
 90
36
 70
1
 10
48.58
 20
16.404999999999998
 10
48.57903926402016
 20
16.414754516100803
 10
48.57619397662557
 20
16.424134171618253
 10
48.57157348061513
 20
16.432778511650977
 10
48.56535533905933
 20
16.440355339059327
 10
48.55777851165098
 20
16.446573480615125
 10
48.549134171618256
 20
16.45119397662556
 10
48.53975451610081
 20
16.45403926402016
 10
48.53
 20
16.455
 10
45.629999999999995
 20
16.455
 10
45.62024548389919
 20
16.45403926402016
 10
45.61086582838174
 20
16.45119397662556
 10
45.60222148834902
 20
16.446573480615125
 10
45.594644660940666
 20
16.440355339059327
 10
45.58842651938487
 20
16.432778511650977
 10
45.58380602337443
 20
16.424134171618253
 10
45.580960735979836
 20
16.414754516100803
 10
45.58
 20
16.404999999999998
 10
45.58
 20
14.495000000000001
 10
45.580960735979836
 20
14.485245483899195
 10
45.58380602337443
 20
14.475865828381746
 10
45.58842651938487
 20
14.46722148834902
 10
45.594644660940666
 20
14.459644660940674
 10
45.60222148834902
 20
14.453426519384873
 10
45.61086582838174
 20
14.448806023374436
 10
45.62024548389919
 20
14.44596073597984
 10
45.629999999999995
 20
14.445
 10
48.53
 20
14.445
 10
48.53975451610081
 20
14.44596073597984
 10
48.549134171618256
 20
14.448806023374436
 10
48.55777851165098
 20
14.453426519384873
 10
48.56535533905933
 20
14.459644660940674
 10
48.57157348061513
 20
14.46722148834902
 10
48.57619397662557
 20
14.475865828381746
 10
48.57903926402016
 20
14.485245483899195
 10
48.58
 20
14.495000000000001
  0
LWPOLYLINE
  5
73
330
17
100
AcDbEntity
  8
FLEX_LEDS
100
AcDbPolyline
 90
36
 70
1
 10
47.410000000000004
 20
77.675
 10
47.409039264020166
 20
77.68475451610081
 10
47.40619397662557
 20
77.69413417161824
 10
47.401573480615134
 20
77.70277851165098
 10
47.395355339059336
 20
77.71035533905932
 10
47.387778511650986
 20
77.71657348061512
 10
47.37913417161826
 20
77.72119397662556
 10
47.36975451610081
 20
77.72403926402016
 10
47.36000000000001
 20
77.725
 10
46.419999999999995
 20
77.725
 10
46.41024548389919
 20
77.72403926402016
 10
46.40086582838174
 20
77.72119397662556
 10
46.392221488349016
 20
77.71657348061512
 10
46.384644660940666
 20
77.71035533905932
 10
46.37842651938487
 20
77.70277851165098
 10
46.37380602337443
 20
77.69413417161824
 10
46.370960735979835
 20
77.68475451610081
 10
46.37
 20
77.675
 10
46.37
 20
74.325
 10
46.370960735979835
 20
74.31524548389919
 10
46.37380602337443
 20
74.30586582838176
 10
46.37842651938487
 20
74.29722148834902
 10
46.384644660940666
 20
74.28964466094068
 10
46.392221488349016
 20
74.28342651938488
 10
46.40086582838174
 20
74.27880602337444
 10
46.41024548389919
 20
74.27596073597984
 10
46.419999999999995
 20
74.275
 10
47.36000000000001
 20
74.275
 10
47.36975451610081
 20
74.27596073597984
 10
47.37913417161826
 20
74.27880602337444
 10
47.387778511650986
 20
74.28342651938488
 10
47.395355339059336
 20
74.28964466094068
 10
47.401573480615134
 20
74.29722148834902
 10
47.40619397662557
 20
74.30586582838176
 10
47.409039264020166
 20
74.31524548389919
 10
47.410000000000004
 20
74.325
  0
LWPOLYLINE
  5
74
330
17
100
AcDbEntity
  8
FLEX_LEDS
100
AcDbPolyline
 90
36
 70
1
 10
49.38
 20
15.5
 10
49.379039264020165
 20
15.509754516100806
 10
49.37619397662557
 20
15.519134171618255
 10
49.37157348061513
 20
15.52777851165098
 10
49.365355339059334
 20
15.535355339059327
 10
49.357778511650984
 20
15.541573480615128
 10
49.34913417161826
 20
15.546193976625565
 10
49.33975451610081
 20
15.549039264020161
 10
49.330000000000005
 20
15.55
 10
48.29
 20
15.55
 10
48.28024548389919
 20
15.549039264020161
 10
48.270865828381744
 20
15.546193976625565
 10
48.26222148834902
 20
15.541573480615128
 10
48.25464466094067
 20
15.535355339059327
 10
48.24842651938487
 20
15.52777851165098
 10
48.24380602337443
 20
15.519134171618255
 10
48.24096073597984
 20
15.509754516100806
 10
48.24
 20
15.5
 10
48.24
 20
10.68
 10
48.24096073597984
 20
10.670245483899194
 10
48.24380602337443
 20
10.660865828381745
 10
48.24842651938487
 20
10.652221488349019
 10
48.25464466094067
 20
10.644644660940672
 10
48.26222148834902
 20
10.638426519384872
 10
48.270865828381744
 20
10.633806023374435
 10
48.28024548389919
 20
10.630960735979839
 10
48.29
 20
10.629999999999999
 10
49.330000000000005
 20
10.629999999999999
 10
49.33975451610081
 20
10.630960735979839
 10
49.34913417161826
 20
10.633806023374435
 10
49.357778511650984
 20
10.638426519384872
 10
49.365355339059334
 20
10.644644660940672
 10
49.37157348061513
 20
10.652221488349019
 10
49.37619397662557
 20
10.660865828381745
 10
49.379039264020165
 20
10.670245483899194
 10
49.38
 20
10.68
  0
LWPOLYLINE
  5
75
330
17
100
AcDbEntity
  8
FLEX_LEDS
100
AcDbPolyline
 90
36
 70
1
 10
49.125
 20
115.825
 10
49.12403926402016
 20
115.83475451610082
 10
49.12119397662557
 20
115.84413417161825
 10
49.11657348061513
 20
115.85277851165098
 10
49.11035533905933
 20
115.86035533905932
 10
49.10277851165098
 20
115.86657348061513
 10
49.09413417161826
 20
115.87119397662556
 10
49.08475451610081
 20
115.87403926402017
 10
49.075
 20
115.875
 10
48.045
 20
115.875
 10
48.035245483899196
 20
115.87403926402017
 10
48.02586582838175
 20
115.87119397662556
 10
48.01722148834902
 20
115.86657348061513
 10
48.00964466094067
 20
115.86035533905932
 10
48.003426519384874
 20
115.85277851165098
 10
47.998806023374435
 20
115.84413417161825
 10
47.99596073597984
 20
115.83475451610082
 10
47.995000000000005
 20
115.825
 10
47.995000000000005
 20
111.25500000000001
 10
47.99596073597984
 20
111.2452454838992
 10
47.998806023374435
 20
111.23586582838176
 10
48.003426519384874
 20
111.22722148834903
 10
48.00964466094067
 20
111.21964466094069
 10
48.01722148834902
 20
111.21342651938488
 10
48.02586582838175
 20
111.20880602337445
 10
48.035245483899196
 20
111.20596073597984
 10
48.045
 20
111.20500000000001
 10
49.075
 20
111.20500000000001
 10
49.08475451610081
 20
111.20596073597984
 10
49.09413417161826
 20
111.20880602337445
 10
49.10277851165098
 20
111.21342651938488
 10
49.11035533905933
 20
111.21964466094069
 10
49.11657348061513
 20
111.22722148834903
 10
49.12119397662557
 20
111.23586582838176
 10
49.12403926402016
 20
111.2452454838992
 10
49.125
 20
111.25500000000001
  0
LWPOLYLINE
  5
76
330
17
100
AcDbEntity
  8
FLEX_LEDS
100
AcDbPolyline
 90
36
 70
1
 10
55.3
 20
79.02
 10
55.29903926402016
 20
79.02975451610081
 10
55.29619397662557
 20
79.03913417161824
 10
55.29157348061513
 20
79.04777851165098
 10
55.28535533905933
 20
79.05535533905932
 10
55.27777851165098
 20
79.06157348061512
 10
55.269134171618255
 20
79.06619397662556
 10
55.259754516100806
 20
79.06903926402016
 10
55.25
 20
79.07
 10
50.19
 20
79.07
 10
50.18024548389919
 20
79.06903926402016
 10
50.17086582838174
 20
79.06619397662556
 10
50.16222148834902
 20
79.06157348061512
 10
50.15464466094067
 20
79.05535533905932
 10
50.14842651938487
 20
79.04777851165098
 10
50.14380602337443
 20
79.03913417161824
 10
50.14096073597984
 20
79.02975451610081
 10
50.14
 20
79.02
 10
50.14
 20
77.46
 10
50.14096073597984
 20
77.45024548389918
 10
50.14380602337443
 20
77.44086582838175
 10
50.14842651938487
 20
77.43222148834901
 10
50.15464466094067
 20
77.42464466094067
 10
50.16222148834902
 20
77.41842651938487
 10
50.17086582838174
 20
77.41380602337443
 10
50.18024548389919
 20
77.41096073597983
 10
50.19
 20
77.41
 10
55.25
 20
77.41
 10
55.259754516100806
 20
77.41096073597983
 10
55.269134171618255
 20
77.41380602337443
 10
55.27777851165098
 20
77.41842651938487
 10
55.28535533905933
 20
77.42464466094067
 10
55.29157348061513
 20
77.43222148834901
 10
55.29619397662557
 20
77.44086582838175
 10
55.29903926402016
 20
77.45024548389918
 10
55.3
 20
77.46
  0
LWPOLYLINE
  5
77
330
17
100
AcDbEntity
  8
FLEX_LEDS
100
AcDbPolyline
 90
36
 70
1
 10
54.614999999999995
 20
88.5
 10
54.61403926402016
 20
88.50975451610081
 10
54.611193976625565
 20
88.51913417161825
 10
54.606573480615126
 20
88.52777851165098
 10
54.60035533905933
 20
88.53535533905932
 10
54.59277851165098
 20
88.54157348061513
 10
54.58413417161825
 20
88.54619397662556
 10
54.5747545161008
 20
88.54903926402017
 10
54.565
 20
88.55
 10
50.315
 20
88.55
 10
50.30524548389919
 20
88.54903926402017
 10
50.29586582838174
 20
88.54619397662556
 10
50.28722148834902
 20
88.54157348061513
 10
50.27964466094067
 20
88.53535533905932
 10
50.27342651938487
 20
88.52777851165098
 10
50.26880602337443
 20
88.51913417161825
 10
50.26596073597984
 20
88.50975451610081
 10
50.265
 20
88.5
 10
50.265
 20
87.18
 10
50.26596073597984
 20
87.1702454838992
 10
50.26880602337443
 20
87.16086582838176
 10
50.27342651938487
 20
87.15222148834903
 10
50.27964466094067
 20
87.14464466094068
 10
50.28722148834902
 20
87.13842651938488
 10
50.29586582838174
 20
87.13380602337445
 10
50.30524548389919
 20
87.13096073597984
 10
50.315
 20
87.13000000000001
 10
54.565
 20
87.13000000000001
 10
54.5747545161008
 20
87.13096073597984
 10
54.58413417161825
 20
87.13380602337445
 10
54.59277851165098
 20
87.13842651938488
 10
54.60035533905933
 20
87.14464466094068
 10
54.606573480615126
 20
87.15222148834903
 10
54.611193976625565
 20
87.16086582838176
 10
54.61403926402016
 20
87.1702454838992
 10
54.614999999999995
 20
87.18
  0
LWPOLYLINE
  5
78
330
17
100
AcDbEntity
  8
FLEX_LEDS
100
AcDbPolyline
 90
36
 70
1
 10
55.045
 20
86.17000000000002
 10
55.044039264020164
 20
86.17975451610083
 10
55.04119397662557
 20
86.18913417161826
 10
55.03657348061513
 20
86.197778511651
 10
55.030355339059334
 20
86.20535533905934
 10
55.02277851165098
 20
86.21157348061514
 10
55.01413417161826
 20
86.21619397662558
 10
55.00475451610081
 20
86.21903926402018
 10
54.995000000000005
 20
86.22000000000001
 10
50.364999999999995
 20
86.22000000000001
 10
50.35524548389919
 20
86.21903926402018
 10
50.34586582838174
 20
86.21619397662558
 10
50.337221488349016
 20
86.21157348061514
 10
50.329644660940666
 20
86.20535533905934
 10
50.32342651938487
 20
86.197778511651
 10
50.31880602337443
 20
86.18913417161826
 10
50.315960735979836
 20
86.17975451610083
 10
50.315
 20
86.17000000000002
 10
50.315
 20
85.19
 10
50.315960735979836
 20
85.18024548389918
 10
50.31880602337443
 20
85.17086582838175
 10
50.32342651938487
 20
85.16222148834902
 10
50.329644660940666
 20
85.15464466094068
 10
50.337221488349016
 20
85.14842651938487
 10
50.34586582838174
 20
85.14380602337444
 10
50.35524548389919
 20
85.14096073597983
 10
50.364999999999995
 20
85.14
 10
54.995000000000005
 20
85.14
 10
55.00475451610081
 20
85.14096073597983
 10
55.01413417161826
 20
85.14380602337444
 10
55.02277851165098
 20
85.14842651938487
 10
55.030355339059334
 20
85.15464466094068
 10
55.03657348061513
 20
85.16222148834902
 10
55.04119397662557
 20
85.17086582838175
 10
55.044039264020164
 20
85.18024548389918
 10
55.045
 20
85.19
  0
LWPOLYLINE
  5
79
330
17
100
AcDbEntity
  8
FLEX_LEDS
100
AcDbPolyline
 90
36
 70
1
 10
55.605000000000004
 20
53.165
 10
55.604039264020166
 20
53.174754516100805
 10
55.601193976625574
 20
53.184134171618254
 10
55.596573480615135
 20
53.19277851165098
 10
55.590355339059336
 20
53.20035533905933
 10
55.582778511650986
 20
53.20657348061513
 10
55.57413417161826
 20
53.211193976625566
 10
55.56475451610081
 20
53.21403926402016
 10
55.55500000000001
 20
53.214999999999996
 10
50.724999999999994
 20
53.214999999999996
 10
50.71524548389919
 20
53.21403926402016
 10
50.70586582838174
 20
53.211193976625566
 10
50.697221488349015
 20
53.20657348061513
 10
50.689644660940665
 20
53.20035533905933
 10
50.68342651938487
 20
53.19277851165098
 10
50.67880602337443
 20
53.184134171618254
 10
50.675960735979835
 20
53.174754516100805
 10
50.675
 20
53.165
 10
50.675
 20
51.794999999999995
 10
50.675960735979835
 20
51.78524548389919
 10
50.67880602337443
 20
51.77586582838174
 10
50.68342651938487
 20
51.767221488349016
 10
50.689644660940665
 20
51.759644660940666
 10
50.697221488349015
 20
51.75342651938487
 10
50.70586582838174
 20
51.74880602337443
 10
50.71524548389919
 20
51.745960735979835
 10
50.724999999999994
 20
51.745
 10
55.55500000000001
 20
51.745
 10
55.56475451610081
 20
51.745960735979835
 10
55.57413417161826
 20
51.74880602337443
 10
55.582778511650986
 20
51.75342651938487
 10
55.590355339059336
 20
51.759644660940666
 10
55.596573480615135
 20
51.767221488349016
 10
55.601193976625574
 20
51.77586582838174
 10
55.604039264020166
 20
51.78524548389919
 10
55.605000000000004
 20
51.794999999999995
  0
LWPOLYLINE
  5
7A
330
17
100
AcDbEntity
  8
FLEX_LEDS
100
AcDbPolyline
 90
36
 70
1
 10
55.839999999999996
 20
42.89
 10
55.83903926402016
 20
42.899754516100806
 10
55.836193976625566
 20
42.909134171618255
 10
55.83157348061513
 20
42.91777851165098
 10
55.82535533905933
 20
42.92535533905933
 10
55.81777851165098
 20
42.93157348061513
 10
55.809134171618254
 20
42.93619397662557
 10
55.799754516100805
 20
42.93903926402016
 10
55.79
 20
42.94
 10
50.93
 20
42.94
 10
50.920245483899194
 20
42.93903926402016
 10
50.910865828381745
 20
42.93619397662557
 10
50.90222148834902
 20
42.93157348061513
 10
50.89464466094067
 20
42.92535533905933
 10
50.88842651938487
 20
42.91777851165098
 10
50.88380602337443
 20
42.909134171618255
 10
50.88096073597984
 20
42.899754516100806
 10
50.88
 20
42.89
 10
50.88
 20
42.03
 10
50.88096073597984
 20
42.020245483899195
 10
50.88380602337443
 20
42.010865828381746
 10
50.88842651938487
 20
42.00222148834902
 10
50.89464466094067
 20
41.99464466094067
 10
50.90222148834902
 20
41.98842651938487
 10
50.910865828381745
 20
41.983806023374434
 10
50.920245483899194
 20
41.98096073597984
 10
50.93
 20
41.980000000000004
 10
55.79
 20
41.980000000000004
 10
55.799754516100805
 20
41.98096073597984
 10
55.809134171618254
 20
41.983806023374434
 10
55.81777851165098
 20
41.98842651938487
 10
55.82535533905933
 20
41.99464466094067
 10
55.83157348061513
 20
42.00222148834902
 10
55.836193976625566
 20
42.010865828381746
 10
55.83903926402016
 20
42.020245483899195
 10
55.839999999999996
 20
42.03
  0
LWPOLYLINE
  5
7B
330
17
100
AcDbEntity
  8
FLEX_LEDS
100
AcDbPolyline
 90
36
 70
1
 10
55.345
 20
71.25500000000001
 10
55.34403926402016
 20
71.26475451610082
 10
55.34119397662557
 20
71.27413417161826
 10
55.33657348061513
 20
71.28277851165099
 10
55.33035533905933
 20
71.29035533905933
 10
55.32277851165098
 20
71.29657348061514
 10
55.31413417161826
 20
71.30119397662557
 10
55.30475451610081
 20
71.30403926402018
 10
55.295
 20
71.305
 10
50.644999999999996
 20
71.305
 10
50.63524548389919
 20
71.30403926402018
 10
50.62586582838174
 20
71.30119397662557
 10
50.61722148834902
 20
71.29657348061514
 10
50.60964466094067
 20
71.29035533905933
 10
50.60342651938487
 20
71.28277851165099
 10
50.59880602337443
 20
71.27413417161826
 10
50.59596073597984
 20
71.26475451610082
 10
50.595
 20
71.25500000000001
 10
50.595
 20
70.265
 10
50.59596073597984
 20
70.25524548389919
 10
50.59880602337443
 20
70.24586582838175
 10
50.60342651938487
 20
70.23722148834902
 10
50.60964466094067
 20
70.22964466094068
 10
50.61722148834902
 20
70.22342651938487
 10
50.62586582838174
 20
70.21880602337444
 10
50.63524548389919
 20
70.21596073597983
 10
50.644999999999996
 20
70.215
 10
55.295
 20
70.215
 10
55.30475451610081
 20
70.21596073597983
 10
55.31413417161826
 20
70.21880602337444
 10
55.32277851165098
 20
70.22342651938487
 10
55.33035533905933
 20
70.22964466094068
 10
55.33657348061513
 20
70.23722148834902
 10
55.34119397662557
 20
70.24586582838175
 10
55.34403926402016
 20
70.25524548389919
 10
55.345
 20
70.265
  0
LWPOLYLINE
  5
7C
330
17
100
AcDbEntity
  8
FLEX_LEDS
100
AcDbPolyline
 90
36
 70
1
 10
55.765
 20
45.525000000000006
 10
55.76403926402016
 20
45.53475451610081
 10
55.76119397662557
 20
45.54413417161826
 10
55.75657348061513
 20
45.552778511650985
 10
55.75035533905933
 20
45.560355339059335
 10
55.74277851165098
 20
45.56657348061513
 10
55.73413417161826
 20
45.57119397662557
 10
55.72475451610081
 20
45.574039264020165
 10
55.715
 20
45.575
 10
51.004999999999995
 20
45.575
 10
50.99524548389919
 20
45.574039264020165
 10
50.98586582838174
 20
45.57119397662557
 10
50.97722148834902
 20
45.56657348061513
 10
50.969644660940666
 20
45.560355339059335
 10
50.96342651938487
 20
45.552778511650985
 10
50.95880602337443
 20
45.54413417161826
 10
50.955960735979836
 20
45.53475451610081
 10
50.955
 20
45.525000000000006
 10
50.955
 20
44.235
 10
50.955960735979836
 20
44.225245483899194
 10
50.95880602337443
 20
44.215865828381745
 10
50.96342651938487
 20
44.20722148834902
 10
50.969644660940666
 20
44.19964466094067
 10
50.97722148834902
 20
44.19342651938487
 10
50.98586582838174
 20
44.18880602337443
 10
50.99524548389919
 20
44.18596073597984
 10
51.004999999999995
 20
44.185
 10
55.715
 20
44.185
 10
55.72475451610081
 20
44.18596073597984
 10
55.73413417161826
 20
44.18880602337443
 10
55.74277851165098
 20
44.19342651938487
 10
55.75035533905933
 20
44.19964466094067
 10
55.75657348061513
 20
44.20722148834902
 10
55.76119397662557
 20
44.215865828381745
 10
55.76403926402016
 20
44.225245483899194
 10
55.765
 20
44.235
  0
LWPOLYLINE
  5
7D
330
17
100
AcDbEntity
  8
FLEX_LEDS
100
AcDbPolyline
 90
36
 70
1
 10
56.195
 20
29.584999999999997
 10
56.19403926402016
 20
29.594754516100803
 10
56.19119397662557
 20
29.604134171618252
 10
56.18657348061513
 20
29.612778511650976
 10
56.18035533905933
 20
29.620355339059326
 10
56.17277851165098
 20
29.626573480615125
 10
56.16413417161826
 20
29.63119397662556
 10
56.15475451610081
 20
29.63403926402016
 10
56.145
 20
29.634999999999998
 10
51.475
 20
29.634999999999998
 10
51.465245483899196
 20
29.63403926402016
 10
51.45586582838175
 20
29.63119397662556
 10
51.44722148834902
 20
29.626573480615125
 10
51.43964466094067
 20
29.620355339059326
 10
51.433426519384874
 20
29.612778511650976
 10
51.428806023374435
 20
29.604134171618252
 10
51.42596073597984
 20
29.594754516100803
 10
51.425000000000004
 20
29.584999999999997
 10
51.425000000000004
 20
28.395
 10
51.42596073597984
 20
28.385245483899194
 10
51.428806023374435
 20
28.375865828381745
 10
51.433426519384874
 20
28.36722148834902
 10
51.43964466094067
 20
28.35964466094067
 10
51.44722148834902
 20
28.353426519384872
 10
51.45586582838175
 20
28.348806023374436
 10
51.465245483899196
 20
28.345960735979837
 10
51.475
 20
28.345
 10
56.145
 20
28.345
 10
56.15475451610081
 20
28.345960735979837
 10
56.16413417161826
 20
28.348806023374436
 10
56.17277851165098
 20
28.353426519384872
 10
56.18035533905933
 20
28.35964466094067
 10
56.18657348061513
 20
28.36722148834902
 10
56.19119397662557
 20
28.375865828381745
 10
56.19403926402016
 20
28.385245483899194
 10
56.195
 20
28.395
  0
LWPOLYLINE
  5
7E
330
17
100
AcDbEntity
  8
FLEX_LEDS
100
AcDbPolyline
 90
36
 70
1
 10
55.67
 20
60.120000000000005
 10
55.669039264020164
 20
60.12975451610081
 10
55.66619397662557
 20
60.13913417161826
 10
55.66157348061513
 20
60.14777851165098
 10
55.655355339059334
 20
60.155355339059334
 10
55.64777851165098
 20
60.16157348061513
 10
55.63913417161826
 20
60.16619397662557
 10
55.62975451610081
 20
60.169039264020164
 10
55.620000000000005
 20
60.17
 10
54.0
 20
60.17
 10
53.990245483899194
 20
60.169039264020164
 10
53.980865828381745
 20
60.16619397662557
 10
53.97222148834902
 20
60.16157348061513
 10
53.96464466094067
 20
60.155355339059334
 10
53.95842651938487
 20
60.14777851165098
 10
53.95380602337443
 20
60.13913417161826
 10
53.95096073597984
 20
60.12975451610081
 10
53.95
 20
60.120000000000005
 10
53.95
 20
57.379999999999995
 10
53.95096073597984
 20
57.37024548389919
 10
53.95380602337443
 20
57.36086582838174
 10
53.95842651938487
 20
57.35222148834902
 10
53.96464466094067
 20
57.344644660940666
 10
53.97222148834902
 20
57.33842651938487
 10
53.980865828381745
 20
57.33380602337443
 10
53.990245483899194
 20
57.330960735979836
 10
54.0
 20
57.33
 10
55.620000000000005
 20
57.33
 10
55.62975451610081
 20
57.330960735979836
 10
55.63913417161826
 20
57.33380602337443
 10
55.64777851165098
 20
57.33842651938487
 10
55.655355339059334
 20
57.344644660940666
 10
55.66157348061513
 20
57.35222148834902
 10
55.66619397662557
 20
57.36086582838174
 10
55.669039264020164
 20
57.37024548389919
 10
55.67
 20
57.379999999999995
  0
LWPOLYLINE
  5
7F
330
17
100
AcDbEntity
  8
FLEX_LEDS
100
AcDbPolyline
 90
36
 70
1
 10
55.815
 20
94.95500000000001
 10
55.81403926402016
 20
94.96475451610083
 10
55.81119397662557
 20
94.97413417161826
 10
55.80657348061513
 20
94.98277851165099
 10
55.80035533905933
 20
94.99035533905933
 10
55.79277851165098
 20
94.99657348061514
 10
55.784134171618255
 20
95.00119397662557
 10
55.774754516100806
 20
95.00403926402018
 10
55.765
 20
95.00500000000001
 10
54.19499999999999
 20
95.00500000000001
 10
54.18524548389919
 20
95.00403926402018
 10
54.17586582838174
 20
95.00119397662557
 10
54.167221488349014
 20
94.99657348061514
 10
54.159644660940664
 20
94.99035533905933
 10
54.153426519384865
 20
94.98277851165099
 10
54.148806023374426
 20
94.97413417161826
 10
54.145960735979834
 20
94.96475451610083
 10
54.144999999999996
 20
94.95500000000001
 10
54.144999999999996
 20
88.445
 10
54.145960735979834
 20
88.43524548389918
 10
54.148806023374426
 20
88.42586582838175
 10
54.153426519384865
 20
88.41722148834901
 10
54.159644660940664
 20
88.40964466094067
 10
54.167221488349014
 20
88.40342651938487
 10
54.17586582838174
 20
88.39880602337443
 10
54.18524548389919
 20
88.39596073597983
 10
54.19499999999999
 20
88.395
 10
55.765
 20
88.395
 10
55.774754516100806
 20
88.39596073597983
 10
55.784134171618255
 20
88.39880602337443
 10
55.79277851165098
 20
88.40342651938487
 10
55.80035533905933
 20
88.40964466094067
 10
55.80657348061513
 20
88.41722148834901
 10
55.81119397662557
 20
88.42586582838175
 10
55.81403926402016
 20
88.43524548389918
 10
55.815
 20
88.445
  0
LWPOLYLINE
  5
80
330
17
100
AcDbEntity
  8
FLEX_LEDS
100
AcDbPolyline
 90
36
 70
1
 10
59.115
 20
115.525
 10
59.114039264020164
 20
115.53475451610082
 10
59.11119397662557
 20
115.54413417161825
 10
59.10657348061513
 20
115.55277851165098
 10
59.100355339059334
 20
115.56035533905933
 10
59.092778511650984
 20
115.56657348061513
 10
59.08413417161826
 20
115.57119397662557
 10
59.07475451610081
 20
115.57403926402017
 10
59.065000000000005
 20
115.575
 10
55.615
 20
115.575
 10
55.605245483899196
 20
115.57403926402017
 10
55.59586582838175
 20
115.57119397662557
 10
55.58722148834902
 20
115.56657348061513
 10
55.57964466094067
 20
115.56035533905933
 10
55.573426519384874
 20
115.55277851165098
 10
55.568806023374435
 20
115.54413417161825
 10
55.56596073597984
 20
115.53475451610082
 10
55.565000000000005
 20
115.525
 10
55.565000000000005
 20
113.755
 10
55.56596073597984
 20
113.74524548389918
 10
55.568806023374435
 20
113.73586582838175
 10
55.573426519384874
 20
113.72722148834902
 10
55.57964466094067
 20
113.71964466094067
 10
55.58722148834902
 20
113.71342651938487
 10
55.59586582838175
 20
113.70880602337444
 10
55.605245483899196
 20
113.70596073597983
 10
55.615
 20
113.705
 10
59.065000000000005
 20
113.705
 10
59.07475451610081
 20
113.70596073597983
 10
59.08413417161826
 20
113.70880602337444
 10
59.092778511650984
 20
113.71342651938487
 10
59.100355339059334
 20
113.71964466094067
 10
59.10657348061513
 20
113.72722148834902
 10
59.11119397662557
 20
113.73586582838175
 10
59.114039264020164
 20
113.74524548389918
 10
59.115
 20
113.755
  0
LWPOLYLINE
  5
81
330
17
100
AcDbEntity
  8
FLEX_LEDS
100
AcDbPolyline
 90
36
 70
1
 10
59.445
 20
15.245
 10
59.44403926402016
 20
15.254754516100805
 10
59.44119397662557
 20
15.264134171618254
 10
59.43657348061513
 20
15.27277851165098
 10
59.43035533905933
 20
15.280355339059327
 10
59.42277851165098
 20
15.286573480615127
 10
59.41413417161826
 20
15.291193976625564
 10
59.40475451610081
 20
15.29403926402016
 10
59.395
 20
15.295
 10
58.34499999999999
 20
15.295
 10
58.335245483899186
 20
15.29403926402016
 10
58.32586582838174
 20
15.291193976625564
 10
58.31722148834901
 20
15.286573480615127
 10
58.30964466094066
 20
15.280355339059327
 10
58.303426519384864
 20
15.27277851165098
 10
58.298806023374425
 20
15.264134171618254
 10
58.29596073597983
 20
15.254754516100805
 10
58.294999999999995
 20
15.245
 10
58.294999999999995
 20
11.415000000000001
 10
58.29596073597983
 20
11.405245483899195
 10
58.298806023374425
 20
11.395865828381746
 10
58.303426519384864
 20
11.38722148834902
 10
58.30964466094066
 20
11.379644660940674
 10
58.31722148834901
 20
11.373426519384873
 10
58.32586582838174
 20
11.368806023374436
 10
58.335245483899186
 20
11.36596073597984
 10
58.34499999999999
 20
11.365
 10
59.395
 20
11.365
 10
59.40475451610081
 20
11.36596073597984
 10
59.41413417161826
 20
11.368806023374436
 10
59.42277851165098
 20
11.373426519384873
 10
59.43035533905933
 20
11.379644660940674
 10
59.43657348061513
 20
11.38722148834902
 10
59.44119397662557
 20
11.395865828381746
 10
59.44403926402016
 20
11.405245483899195
 10
59.445
 20
11.415000000000001
  0
LWPOLYLINE
  5
82
330
17
100
AcDbEntity
  8
FLEX_LEDS
100
AcDbPolyline
 90
36
 70
1
 10
62.03
 20
16.775
 10
62.02903926402016
 20
16.784754516100804
 10
62.02619397662557
 20
16.794134171618254
 10
62.02157348061513
 20
16.802778511650978
 10
62.01535533905933
 20
16.810355339059328
 10
62.00777851165098
 20
16.816573480615126
 10
61.99913417161826
 20
16.821193976625562
 10
61.98975451610081
 20
16.82403926402016
 10
61.980000000000004
 20
16.825
 10
58.92
 20
16.825
 10
58.910245483899196
 20
16.82403926402016
 10
58.90086582838175
 20
16.821193976625562
 10
58.89222148834902
 20
16.816573480615126
 10
58.88464466094067
 20
16.810355339059328
 10
58.878426519384874
 20
16.802778511650978
 10
58.873806023374435
 20
16.794134171618254
 10
58.87096073597984
 20
16.784754516100804
 10
58.870000000000005
 20
16.775
 10
58.870000000000005
 20
14.725000000000001
 10
58.87096073597984
 20
14.715245483899196
 10
58.873806023374435
 20
14.705865828381746
 10
58.878426519384874
 20
14.69722148834902
 10
58.88464466094067
 20
14.689644660940674
 10
58.89222148834902
 20
14.683426519384874
 10
58.90086582838175
 20
14.678806023374436
 10
58.910245483899196
 20
14.67596073597984
 10
58.92
 20
14.675
 10
61.980000000000004
 20
14.675
 10
61.98975451610081
 20
14.67596073597984
 10
61.99913417161826
 20
14.678806023374436
 10
62.00777851165098
 20
14.683426519384874
 10
62.01535533905933
 20
14.689644660940674
 10
62.02157348061513
 20
14.69722148834902
 10
62.02619397662557
 20
14.705865828381746
 10
62.02903926402016
 20
14.715245483899196
 10
62.03
 20
14.725000000000001
  0
LWPOLYLINE
  5
83
330
17
100
AcDbEntity
  8
FLEX_LEDS
100
AcDbPolyline
 90
36
 70
1
 10
64.1
 20
113.225
 10
64.09903926402016
 20
113.23475451610081
 10
64.09619397662556
 20
113.24413417161824
 10
64.09157348061512
 20
113.25277851165097
 10
64.08535533905932
 20
113.26035533905932
 10
64.07777851165098
 20
113.26657348061512
 10
64.06913417161824
 20
113.27119397662555
 10
64.05975451610081
 20
113.27403926402016
 10
64.05
 20
113.27499999999999
 10
59.10999999999999
 20
113.27499999999999
 10
59.10024548389919
 20
113.27403926402016
 10
59.09086582838174
 20
113.27119397662555
 10
59.08222148834901
 20
113.26657348061512
 10
59.07464466094066
 20
113.26035533905932
 10
59.068426519384865
 20
113.25277851165097
 10
59.063806023374426
 20
113.24413417161824
 10
59.06096073597983
 20
113.23475451610081
 10
59.059999999999995
 20
113.225
 10
59.059999999999995
 20
111.655
 10
59.06096073597983
 20
111.64524548389919
 10
59.063806023374426
 20
111.63586582838175
 10
59.068426519384865
 20
111.62722148834902
 10
59.07464466094066
 20
111.61964466094068
 10
59.08222148834901
 20
111.61342651938487
 10
59.09086582838174
 20
111.60880602337444
 10
59.10024548389919
 20
111.60596073597983
 10
59.10999999999999
 20
111.605
 10
64.05
 20
111.605
 10
64.05975451610081
 20
111.60596073597983
 10
64.06913417161824
 20
111.60880602337444
 10
64.07777851165098
 20
111.61342651938487
 10
64.08535533905932
 20
111.61964466094068
 10
64.09157348061512
 20
111.62722148834902
 10
64.09619397662556
 20
111.63586582838175
 10
64.09903926402016
 20
111.64524548389919
 10
64.1
 20
111.655
  0
LWPOLYLINE
  5
84
330
17
100
AcDbEntity
  8
FLEX_LEDS
100
AcDbPolyline
 90
36
 70
1
 10
65.47
 20
103.83000000000001
 10
65.46903926402017
 20
103.83975451610083
 10
65.46619397662556
 20
103.84913417161826
 10
65.46157348061513
 20
103.85777851165099
 10
65.45535533905932
 20
103.86535533905933
 10
65.44777851165098
 20
103.87157348061514
 10
65.43913417161825
 20
103.87619397662557
 10
65.42975451610081
 20
103.87903926402018
 10
65.42
 20
103.88000000000001
 10
60.39999999999999
 20
103.88000000000001
 10
60.390245483899186
 20
103.87903926402018
 10
60.38086582838174
 20
103.87619397662557
 10
60.37222148834901
 20
103.87157348061514
 10
60.36464466094066
 20
103.86535533905933
 10
60.358426519384864
 20
103.85777851165099
 10
60.353806023374425
 20
103.84913417161826
 10
60.35096073597983
 20
103.83975451610083
 10
60.349999999999994
 20
103.83000000000001
 10
60.349999999999994
 20
102.13
 10
60.35096073597983
 20
102.12024548389918
 10
60.353806023374425
 20
102.11086582838175
 10
60.358426519384864
 20
102.10222148834902
 10
60.36464466094066
 20
102.09464466094067
 10
60.37222148834901
 20
102.08842651938487
 10
60.38086582838174
 20
102.08380602337444
 10
60.390245483899186
 20
102.08096073597983
 10
60.39999999999999
 20
102.08
 10
65.42
 20
102.08
 10
65.42975451610081
 20
102.08096073597983
 10
65.43913417161825
 20
102.08380602337444
 10
65.44777851165098
 20
102.08842651938487
 10
65.45535533905932
 20
102.09464466094067
 10
65.46157348061513
 20
102.10222148834902
 10
65.46619397662556
 20
102.11086582838175
 10
65.46903926402017
 20
102.12024548389918
 10
65.47
 20
102.13
  0
LWPOLYLINE
  5
85
330
17
100
AcDbEntity
  8
FLEX_LEDS
100
AcDbPolyline
 90
36
 70
1
 10
68.33500000000001
 20
77.355
 10
68.33403926402018
 20
77.36475451610082
 10
68.33119397662557
 20
77.37413417161825
 10
68.32657348061514
 20
77.38277851165098
 10
68.32035533905933
 20
77.39035533905933
 10
68.31277851165099
 20
77.39657348061513
 10
68.30413417161826
 20
77.40119397662556
 10
68.29475451610082
 20
77.40403926402017
 10
68.28500000000001
 20
77.405
 10
67.55499999999999
 20
77.405
 10
67.54524548389918
 20
77.40403926402017
 10
67.53586582838174
 20
77.40119397662556
 10
67.52722148834901
 20
77.39657348061513
 10
67.51964466094067
 20
77.39035533905933
 10
67.51342651938486
 20
77.38277851165098
 10
67.50880602337443
 20
77.37413417161825
 10
67.50596073597983
 20
77.36475451610082
 10
67.505
 20
77.355
 10
67.505
 20
74.68499999999999
 10
67.50596073597983
 20
74.67524548389918
 10
67.50880602337443
 20
74.66586582838174
 10
67.51342651938486
 20
74.65722148834901
 10
67.51964466094067
 20
74.64964466094067
 10
67.52722148834901
 20
74.64342651938486
 10
67.53586582838174
 20
74.63880602337443
 10
67.54524548389918
 20
74.63596073597982
 10
67.55499999999999
 20
74.63499999999999
 10
68.28500000000001
 20
74.63499999999999
 10
68.29475451610082
 20
74.63596073597982
 10
68.30413417161826
 20
74.63880602337443
 10
68.31277851165099
 20
74.64342651938486
 10
68.32035533905933
 20
74.64964466094067
 10
68.32657348061514
 20
74.65722148834901
 10
68.33119397662557
 20
74.66586582838174
 10
68.33403926402018
 20
74.67524548389918
 10
68.33500000000001
 20
74.68499999999999
  0
LWPOLYLINE
  5
86
330
17
100
AcDbEntity
  8
FLEX_LEDS
100
AcDbPolyline
 90
36
 70
1
 10
73.435
 20
83.04
 10
73.43403926402017
 20
83.04975451610082
 10
73.43119397662556
 20
83.05913417161825
 10
73.42657348061513
 20
83.06777851165099
 10
73.42035533905933
 20
83.07535533905933
 10
73.41277851165098
 20
83.08157348061513
 10
73.40413417161825
 20
83.08619397662557
 10
73.39475451610082
 20
83.08903926402017
 10
73.385
 20
83.09
 10
69.27499999999999
 20
83.09
 10
69.26524548389918
 20
83.08903926402017
 10
69.25586582838174
 20
83.08619397662557
 10
69.24722148834901
 20
83.08157348061513
 10
69.23964466094067
 20
83.07535533905933
 10
69.23342651938486
 20
83.06777851165099
 10
69.22880602337443
 20
83.05913417161825
 10
69.22596073597983
 20
83.04975451610082
 10
69.225
 20
83.04
 10
69.225
 20
82.02
 10
69.22596073597983
 20
82.01024548389918
 10
69.22880602337443
 20
82.00086582838175
 10
69.23342651938486
 20
81.99222148834902
 10
69.23964466094067
 20
81.98464466094067
 10
69.24722148834901
 20
81.97842651938487
 10
69.25586582838174
 20
81.97380602337444
 10
69.26524548389918
 20
81.97096073597983
 10
69.27499999999999
 20
81.97
 10
73.385
 20
81.97
 10
73.39475451610082
 20
81.97096073597983
 10
73.40413417161825
 20
81.97380602337444
 10
73.41277851165098
 20
81.97842651938487
 10
73.42035533905933
 20
81.98464466094067
 10
73.42657348061513
 20
81.99222148834902
 10
73.43119397662556
 20
82.00086582838175
 10
73.43403926402017
 20
82.01024548389918
 10
73.435
 20
82.02
  0
LWPOLYLINE
  5
87
330
17
100
AcDbEntity
  8
FLEX_LEDS
100
AcDbPolyline
 90
36
 70
1
 10
74.01
 20
49.86
 10
74.00903926402017
 20
49.869754516100805
 10
74.00619397662557
 20
49.879134171618254
 10
74.00157348061514
 20
49.88777851165098
 10
73.99535533905933
 20
49.89535533905933
 10
73.98777851165099
 20
49.90157348061513
 10
73.97913417161826
 20
49.906193976625566
 10
73.96975451610082
 20
49.90903926402016
 10
73.96000000000001
 20
49.91
 10
69.53999999999999
 20
49.91
 10
69.53024548389918
 20
49.90903926402016
 10
69.52086582838174
 20
49.906193976625566
 10
69.51222148834901
 20
49.90157348061513
 10
69.50464466094067
 20
49.89535533905933
 10
69.49842651938486
 20
49.88777851165098
 10
69.49380602337443
 20
49.879134171618254
 10
69.49096073597983
 20
49.869754516100805
 10
69.49
 20
49.86
 10
69.49
 20
48.879999999999995
 10
69.49096073597983
 20
48.87024548389919
 10
69.49380602337443
 20
48.86086582838174
 10
69.49842651938486
 20
48.85222148834902
 10
69.50464466094067
 20
48.844644660940666
 10
69.51222148834901
 20
48.83842651938487
 10
69.52086582838174
 20
48.83380602337443
 10
69.53024548389918
 20
48.830960735979836
 10
69.53999999999999
 20
48.83
 10
73.96000000000001
 20
48.83
 10
73.96975451610082
 20
48.830960735979836
 10
73.97913417161826
 20
48.83380602337443
 10
73.98777851165099
 20
48.83842651938487
 10
73.99535533905933
 20
48.844644660940666
 10
74.00157348061514
 20
48.85222148834902
 10
74.00619397662557
 20
48.86086582838174
 10
74.00903926402017
 20
48.87024548389919
 10
74.01
 20
48.879999999999995
  0
LWPOLYLINE
  5
88
330
17
100
AcDbEntity
  8
FLEX_LEDS
100
AcDbPolyline
 90
36
 70
1
 10
74.83500000000001
 20
26.155
 10
74.83403926402018
 20
26.164754516100807
 10
74.83119397662557
 20
26.174134171618256
 10
74.82657348061514
 20
26.18277851165098
 10
74.82035533905933
 20
26.19035533905933
 10
74.81277851165099
 20
26.19657348061513
 10
74.80413417161826
 20
26.201193976625564
 10
74.79475451610082
 20
26.204039264020164
 10
74.78500000000001
 20
26.205000000000002
 10
69.615
 20
26.205000000000002
 10
69.60524548389918
 20
26.204039264020164
 10
69.59586582838175
 20
26.201193976625564
 10
69.58722148834902
 20
26.19657348061513
 10
69.57964466094067
 20
26.19035533905933
 10
69.57342651938487
 20
26.18277851165098
 10
69.56880602337444
 20
26.174134171618256
 10
69.56596073597983
 20
26.164754516100807
 10
69.565
 20
26.155
 10
69.565
 20
25.305
 10
69.56596073597983
 20
25.295245483899194
 10
69.56880602337444
 20
25.285865828381745
 10
69.57342651938487
 20
25.27722148834902
 10
69.57964466094067
 20
25.26964466094067
 10
69.58722148834902
 20
25.263426519384872
 10
69.59586582838175
 20
25.258806023374436
 10
69.60524548389918
 20
25.255960735979837
 10
69.615
 20
25.255
 10
74.78500000000001
 20
25.255
 10
74.79475451610082
 20
25.255960735979837
 10
74.80413417161826
 20
25.258806023374436
 10
74.81277851165099
 20
25.263426519384872
 10
74.82035533905933
 20
25.26964466094067
 10
74.82657348061514
 20
25.27722148834902
 10
74.83119397662557
 20
25.285865828381745
 10
74.83403926402018
 20
25.295245483899194
 10
74.83500000000001
 20
25.305
  0
LWPOLYLINE
  5
89
330
17
100
AcDbEntity
  8
FLEX_LEDS
100
AcDbPolyline
 90
36
 70
1
 10
73.085
 20
40.505
 10
73.08403926402016
 20
40.51475451610081
 10
73.08119397662556
 20
40.52413417161826
 10
73.07657348061512
 20
40.53277851165098
 10
73.07035533905932
 20
40.54035533905933
 10
73.06277851165098
 20
40.54657348061513
 10
73.05413417161824
 20
40.55119397662557
 10
73.04475451610081
 20
40.55403926402016
 10
73.035
 20
40.555
 10
72.065
 20
40.555
 10
72.05524548389918
 20
40.55403926402016
 10
72.04586582838175
 20
40.55119397662557
 10
72.03722148834902
 20
40.54657348061513
 10
72.02964466094068
 20
40.54035533905933
 10
72.02342651938487
 20
40.53277851165098
 10
72.01880602337444
 20
40.52413417161826
 10
72.01596073597983
 20
40.51475451610081
 10
72.015
 20
40.505
 10
72.015
 20
34.81499999999999
 10
72.01596073597983
 20
34.805245483899185
 10
72.01880602337444
 20
34.795865828381736
 10
72.02342651938487
 20
34.78722148834901
 10
72.02964466094068
 20
34.77964466094066
 10
72.03722148834902
 20
34.77342651938486
 10
72.04586582838175
 20
34.768806023374424
 10
72.05524548389918
 20
34.76596073597983
 10
72.065
 20
34.76499999999999
 10
73.035
 20
34.76499999999999
 10
73.04475451610081
 20
34.76596073597983
 10
73.05413417161824
 20
34.768806023374424
 10
73.06277851165098
 20
34.77342651938486
 10
73.07035533905932
 20
34.77964466094066
 10
73.07657348061512
 20
34.78722148834901
 10
73.08119397662556
 20
34.795865828381736
 10
73.08403926402016
 20
34.805245483899185
 10
73.085
 20
34.81499999999999
  0
LWPOLYLINE
  5
8A
330
17
100
AcDbEntity
  8
FLEX_LEDS
100
AcDbPolyline
 90
36
 70
1
 10
74.02
 20
99.82000000000001
 10
74.01903926402017
 20
99.82975451610082
 10
74.01619397662556
 20
99.83913417161826
 10
74.01157348061513
 20
99.84777851165099
 10
74.00535533905932
 20
99.85535533905933
 10
73.99777851165098
 20
99.86157348061514
 10
73.98913417161825
 20
99.86619397662557
 10
73.97975451610081
 20
99.86903926402017
 10
73.97
 20
99.87
 10
72.91
 20
99.87
 10
72.90024548389918
 20
99.86903926402017
 10
72.89086582838175
 20
99.86619397662557
 10
72.88222148834902
 20
99.86157348061514
 10
72.87464466094067
 20
99.85535533905933
 10
72.86842651938487
 20
99.84777851165099
 10
72.86380602337444
 20
99.83913417161826
 10
72.86096073597983
 20
99.82975451610082
 10
72.86
 20
99.82000000000001
 10
72.86
 20
95.26
 10
72.86096073597983
 20
95.25024548389919
 10
72.86380602337444
 20
95.24086582838176
 10
72.86842651938487
 20
95.23222148834903
 10
72.87464466094067
 20
95.22464466094068
 10
72.88222148834902
 20
95.21842651938488
 10
72.89086582838175
 20
95.21380602337445
 10
72.90024548389918
 20
95.21096073597984
 10
72.91
 20
95.21000000000001
 10
73.97
 20
95.21000000000001
 10
73.97975451610081
 20
95.21096073597984
 10
73.98913417161825
 20
95.21380602337445
 10
73.99777851165098
 20
95.21842651938488
 10
74.00535533905932
 20
95.22464466094068
 10
74.01157348061513
 20
95.23222148834903
 10
74.01619397662556
 20
95.24086582838176
 10
74.01903926402017
 20
95.25024548389919
 10
74.02
 20
95.26
  0
LWPOLYLINE
  5
8B
330
17
100
AcDbEntity
  8
FLEX_LEDS
100
AcDbPolyline
 90
36
 70
1
 10
75.27999999999999
 20
82.05499999999999
 10
75.27903926402016
 20
82.0647545161008
 10
75.27619397662555
 20
82.07413417161824
 10
75.27157348061512
 20
82.08277851165097
 10
75.26535533905931
 20
82.09035533905931
 10
75.25777851165097
 20
82.09657348061512
 10
75.24913417161824
 20
82.10119397662555
 10
75.2397545161008
 20
82.10403926402016
 10
75.22999999999999
 20
82.10499999999999
 10
74.19
 20
82.10499999999999
 10
74.18024548389918
 20
82.10403926402016
 10
74.17086582838175
 20
82.10119397662555
 10
74.16222148834902
 20
82.09657348061512
 10
74.15464466094068
 20
82.09035533905931
 10
74.14842651938487
 20
82.08277851165097
 10
74.14380602337444
 20
82.07413417161824
 10
74.14096073597983
 20
82.0647545161008
 10
74.14
 20
82.05499999999999
 10
74.14
 20
77.365
 10
74.14096073597983
 20
77.35524548389918
 10
74.14380602337444
 20
77.34586582838175
 10
74.14842651938487
 20
77.33722148834902
 10
74.15464466094068
 20
77.32964466094067
 10
74.16222148834902
 20
77.32342651938487
 10
74.17086582838175
 20
77.31880602337444
 10
74.18024548389918
 20
77.31596073597983
 10
74.19
 20
77.315
 10
75.22999999999999
 20
77.315
 10
75.2397545161008
 20
77.31596073597983
 10
75.24913417161824
 20
77.31880602337444
 10
75.25777851165097
 20
77.32342651938487
 10
75.26535533905931
 20
77.32964466094067
 10
75.27157348061512
 20
77.33722148834902
 10
75.27619397662555
 20
77.34586582838175
 10
75.27903926402016
 20
77.35524548389918
 10
75.27999999999999
 20
77.365
  0
LWPOLYLINE
  5
8C
330
17
100
AcDbEntity
  8
FLEX_LEDS
100
AcDbPolyline
 90
36
 70
1
 10
80.01
 20
28.229999999999997
 10
80.00903926402017
 20
28.239754516100803
 10
80.00619397662557
 20
28.249134171618252
 10
80.00157348061514
 20
28.257778511650976
 10
79.99535533905933
 20
28.265355339059326
 10
79.98777851165099
 20
28.271573480615125
 10
79.97913417161826
 20
28.27619397662556
 10
79.96975451610082
 20
28.27903926402016
 10
79.96000000000001
 20
28.279999999999998
 10
77.19999999999999
 20
28.279999999999998
 10
77.19024548389918
 20
28.27903926402016
 10
77.18086582838174
 20
28.27619397662556
 10
77.17222148834901
 20
28.271573480615125
 10
77.16464466094067
 20
28.265355339059326
 10
77.15842651938486
 20
28.257778511650976
 10
77.15380602337443
 20
28.249134171618252
 10
77.15096073597982
 20
28.239754516100803
 10
77.14999999999999
 20
28.229999999999997
 10
77.14999999999999
 20
26.93
 10
77.15096073597982
 20
26.920245483899194
 10
77.15380602337443
 20
26.910865828381745
 10
77.15842651938486
 20
26.90222148834902
 10
77.16464466094067
 20
26.89464466094067
 10
77.17222148834901
 20
26.888426519384872
 10
77.18086582838174
 20
26.883806023374436
 10
77.19024548389918
 20
26.880960735979837
 10
77.19999999999999
 20
26.88
 10
79.96000000000001
 20
26.88
 10
79.96975451610082
 20
26.880960735979837
 10
79.97913417161826
 20
26.883806023374436
 10
79.98777851165099
 20
26.888426519384872
 10
79.99535533905933
 20
26.89464466094067
 10
80.00157348061514
 20
26.90222148834902
 10
80.00619397662557
 20
26.910865828381745
 10
80.00903926402017
 20
26.920245483899194
 10
80.01
 20
26.93
  0
LWPOLYLINE
  5
8D
330
17
100
AcDbEntity
  8
FLEX_SILVER_FRAMES
100
AcDbPolyline
 90
36
 70
1
 10
75.84
 20
48.364999999999995
 10
75.83039264020162
 20
48.46254516100806
 10
75.80193976625564
 20
48.55634171618254
 10
75.75573480615128
 20
48.6427851165098
 10
75.69355339059328
 20
48.71855339059327
 10
75.61778511650981
 20
48.780734806151266
 10
75.53134171618255
 20
48.82693976625564
 10
75.43754516100807
 20
48.85539264020161
 10
75.34
 20
48.864999999999995
 10
31.92
 20
48.864999999999995
 10
31.822454838991938
 20
48.85539264020161
 10
31.728658283817456
 20
48.82693976625564
 10
31.6422148834902
 20
48.780734806151266
 10
31.56644660940673
 20
48.71855339059327
 10
31.504265193848727
 20
48.6427851165098
 10
31.45806023374436
 20
48.55634171618254
 10
31.429607359798386
 20
48.46254516100806
 10
31.42
 20
48.364999999999995
 10
31.42
 20
25.735
 10
31.429607359798386
 20
25.637454838991935
 10
31.45806023374436
 20
25.543658283817454
 10
31.504265193848727
 20
25.4572148834902
 10
31.56644660940673
 20
25.381446609406726
 10
31.6422148834902
 20
25.319265193848725
 10
31.728658283817456
 20
25.273060233744356
 10
31.822454838991938
 20
25.244607359798383
 10
31.92
 20
25.235
 10
75.34
 20
25.235
 10
75.43754516100807
 20
25.244607359798383
 10
75.53134171618255
 20
25.273060233744356
 10
75.61778511650981
 20
25.319265193848725
 10
75.69355339059328
 20
25.381446609406726
 10
75.75573480615128
 20
25.4572148834902
 10
75.80193976625564
 20
25.543658283817454
 10
75.83039264020162
 20
25.637454838991935
 10
75.84
 20
25.735
  0
LWPOLYLINE
  5
8E
330
17
100
AcDbEntity
  8
FLEX_SILVER_FRAMES
100
AcDbPolyline
 90
36
 70
1
 10
75.095
 20
80.465
 10
75.08539264020162
 20
80.56254516100807
 10
75.05693976625564
 20
80.65634171618255
 10
75.01073480615128
 20
80.74278511650981
 10
74.94855339059328
 20
80.81855339059328
 10
74.8727851165098
 20
80.88073480615128
 10
74.78634171618255
 20
80.92693976625564
 10
74.69254516100807
 20
80.95539264020162
 10
74.595
 20
80.965
 10
31.564999999999998
 20
80.965
 10
31.467454838991934
 20
80.95539264020162
 10
31.373658283817452
 20
80.92693976625564
 10
31.287214883490197
 20
80.88073480615128
 10
31.211446609406725
 20
80.81855339059328
 10
31.149265193848723
 20
80.74278511650981
 10
31.103060233744355
 20
80.65634171618255
 10
31.07460735979838
 20
80.56254516100807
 10
31.064999999999998
 20
80.465
 10
31.064999999999998
 20
49.215
 10
31.07460735979838
 20
49.11745483899194
 10
31.103060233744355
 20
49.02365828381746
 10
31.149265193848723
 20
48.9372148834902
 10
31.211446609406725
 20
48.86144660940673
 10
31.287214883490197
 20
48.79926519384873
 10
31.373658283817452
 20
48.75306023374436
 10
31.467454838991934
 20
48.72460735979839
 10
31.564999999999998
 20
48.715
 10
74.595
 20
48.715
 10
74.69254516100807
 20
48.72460735979839
 10
74.78634171618255
 20
48.75306023374436
 10
74.8727851165098
 20
48.79926519384873
 10
74.94855339059328
 20
48.86144660940673
 10
75.01073480615128
 20
48.9372148834902
 10
75.05693976625564
 20
49.02365828381746
 10
75.08539264020162
 20
49.11745483899194
 10
75.095
 20
49.215
  0
LWPOLYLINE
  5
8F
330
17
100
AcDbEntity
  8
FLEX_SILVER_FRAMES
100
AcDbPolyline
 90
36
 70
1
 10
74.64
 20
99.24499999999999
 10
74.63039264020162
 20
99.34254516100806
 10
74.60193976625564
 20
99.43634171618254
 10
74.55573480615128
 20
99.5227851165098
 10
74.49355339059328
 20
99.59855339059327
 10
74.4177851165098
 20
99.66073480615127
 10
74.33134171618255
 20
99.70693976625563
 10
74.23754516100807
 20
99.73539264020161
 10
74.14
 20
99.74499999999999
 10
31.58
 20
99.74499999999999
 10
31.482454838991934
 20
99.73539264020161
 10
31.388658283817453
 20
99.70693976625563
 10
31.302214883490198
 20
99.66073480615127
 10
31.226446609406725
 20
99.59855339059327
 10
31.164265193848724
 20
99.5227851165098
 10
31.118060233744355
 20
99.43634171618254
 10
31.089607359798382
 20
99.34254516100806
 10
31.08
 20
99.24499999999999
 10
31.08
 20
82.895
 10
31.089607359798382
 20
82.79745483899192
 10
31.118060233744355
 20
82.70365828381745
 10
31.164265193848724
 20
82.61721488349019
 10
31.226446609406725
 20
82.54144660940672
 10
31.302214883490198
 20
82.47926519384872
 10
31.388658283817453
 20
82.43306023374436
 10
31.482454838991934
 20
82.40460735979838
 10
31.58
 20
82.395
 10
74.14
 20
82.395
 10
74.23754516100807
 20
82.40460735979838
 10
74.33134171618255
 20
82.43306023374436
 10
74.4177851165098
 20
82.47926519384872
 10
74.49355339059328
 20
82.54144660940672
 10
74.55573480615128
 20
82.61721488349019
 10
74.60193976625564
 20
82.70365828381745
 10
74.63039264020162
 20
82.79745483899192
 10
74.64
 20
82.895
  0
CIRCLE
  5
90
330
17
100
AcDbEntity
  8
FLEX_BUTTON
100
AcDbCircle
 10
62.25
 20
107.7
 30
0.0
 40
5.9
  0
CIRCLE
  5
91
330
17
100
AcDbEntity
  8
FLEX_BUTTON
100
AcDbCircle
 10
62.25
 20
107.7
 30
0.0
 40
2.25
  0
LWPOLYLINE
  5
92
330
17
100
AcDbEntity
  8
FLEX_TAIL_APPROX
100
AcDbPolyline
 90
11
 70
1
 10
75.23
 20
46.06
 10
75.22
 20
28.18
 10
90.81
 20
28.42
 10
111.31
 20
28.73
 10
110.53
 20
-14.16
 10
114.9
 20
-14.02
 10
115.86
 20
33.21
 10
90.85
 20
32.88
 10
91.1
 20
63.85
 10
80.55
 20
63.84
 10
80.5
 20
46.1
  0
LWPOLYLINE
  5
93
330
17
100
AcDbEntity
  8
FLEX_TAIL_APPROX
100
AcDbPolyline
 90
36
 70
1
 10
93.9
 20
68.1
 10
93.89615705608065
 20
68.13901806440322
 10
93.88477590650226
 20
68.17653668647301
 10
93.86629392246051
 20
68.21111404660391
 10
93.84142135623732
 20
68.24142135623731
 10
93.81111404660392
 20
68.2662939224605
 10
93.77653668647302
 20
68.28477590650225
 10
93.73901806440323
 20
68.29615705608065
 10
93.7
 20
68.3
 10
76.90000000000002
 20
68.3
 10
76.8609819355968
 20
68.29615705608065
 10
76.823463313527
 20
68.28477590650225
 10
76.7888859533961
 20
68.2662939224605
 10
76.7585786437627
 20
68.24142135623731
 10
76.73370607753951
 20
68.21111404660391
 10
76.71522409349777
 20
68.17653668647301
 10
76.70384294391937
 20
68.13901806440322
 10
76.70000000000002
 20
68.1
 10
76.70000000000002
 20
32.099999999999994
 10
76.70384294391937
 20
32.06098193559677
 10
76.71522409349777
 20
32.023463313526975
 10
76.73370607753951
 20
31.988885953396075
 10
76.7585786437627
 20
31.958578643762685
 10
76.7888859533961
 20
31.933706077539487
 10
76.823463313527
 20
31.915224093497738
 10
76.8609819355968
 20
31.903842943919347
 10
76.90000000000002
 20
31.899999999999995
 10
93.7
 20
31.899999999999995
 10
93.73901806440323
 20
31.903842943919347
 10
93.77653668647302
 20
31.915224093497738
 10
93.81111404660392
 20
31.933706077539487
 10
93.84142135623732
 20
31.958578643762685
 10
93.86629392246051
 20
31.988885953396075
 10
93.88477590650226
 20
32.023463313526975
 10
93.89615705608065
 20
32.06098193559677
 10
93.9
 20
32.099999999999994
  0
LWPOLYLINE
  5
94
330
17
100
AcDbEntity
  8
REF_PLATE_OUTLINE
100
AcDbPolyline
 90
36
 70
1
 10
79.14
 20
147.12
 10
78.91903072463715
 20
149.36353870318547
 10
78.2646146238798
 20
151.52085947219854
 10
77.20190054147928
 20
153.50905767972543
 10
75.77172798364529
 20
155.2517279836453
 10
74.02905767972543
 20
156.68190054147928
 10
72.04085947219853
 20
157.7446146238798
 10
69.88353870318548
 20
158.39903072463716
 10
67.64
 20
158.62
 10
38.739999999999995
 20
158.62
 10
36.49646129681452
 20
158.39903072463716
 10
34.33914052780146
 20
157.7446146238798
 10
32.35094232027457
 20
156.68190054147928
 10
30.608272016354697
 20
155.2517279836453
 10
29.178099458520723
 20
153.50905767972543
 10
28.115385376120198
 20
151.52085947219854
 10
27.460969275362846
 20
149.36353870318547
 10
27.239999999999995
 20
147.12
 10
27.239999999999995
 20
7.019999999999998
 10
27.460969275362846
 20
4.77646129681452
 10
28.115385376120194
 20
2.6191405278014646
 10
29.178099458520727
 20
0.6309423202745696
 10
30.608272016354697
 20
-1.1117279836453005
 10
32.35094232027457
 20
-2.541900541479274
 10
34.33914052780146
 20
-3.6046146238798027
 10
36.496461296814516
 20
-4.259030724637153
 10
38.739999999999995
 20
-4.480000000000004
 10
67.64
 20
-4.480000000000004
 10
69.88353870318548
 20
-4.259030724637153
 10
72.04085947219853
 20
-3.604614623879801
 10
74.02905767972543
 20
-2.5419005414792775
 10
75.77172798364529
 20
-1.1117279836453022
 10
77.20190054147928
 20
0.6309423202745705
 10
78.2646146238798
 20
2.6191405278014663
 10
78.91903072463715
 20
4.7764612968145155
 10
79.14
 20
7.019999999999993
  0
LWPOLYLINE
  5
95
330
17
100
AcDbEntity
  8
REF_PLATE_OPENINGS
100
AcDbPolyline
 90
36
 70
1
 10
47.4
 20
75.4
 10
47.365413504725815
 20
75.75116257962904
 10
47.26298315852032
 20
76.08883017825717
 10
47.09664530214458
 20
76.40002641943529
 10
46.872792206135784
 20
76.6727922061358
 10
46.60002641943529
 20
76.89664530214459
 10
46.288830178257165
 20
77.06298315852032
 10
45.951162579629035
 20
77.16541350472582
 10
45.6
 20
77.2
 10
39.6
 20
77.2
 10
39.24883742037097
 20
77.16541350472582
 10
38.91116982174284
 20
77.06298315852032
 10
38.599973580564715
 20
76.89664530214459
 10
38.32720779386422
 20
76.6727922061358
 10
38.10335469785542
 20
76.40002641943529
 10
37.93701684147968
 20
76.08883017825717
 10
37.83458649527419
 20
75.75116257962904
 10
37.800000000000004
 20
75.4
 10
37.800000000000004
 20
75.0
 10
37.83458649527419
 20
74.64883742037097
 10
37.93701684147968
 20
74.31116982174284
 10
38.10335469785542
 20
73.99997358056471
 10
38.32720779386422
 20
73.72720779386421
 10
38.599973580564715
 20
73.50335469785541
 10
38.91116982174284
 20
73.33701684147968
 10
39.24883742037097
 20
73.23458649527419
 10
39.6
 20
73.2
 10
45.6
 20
73.2
 10
45.951162579629035
 20
73.23458649527419
 10
46.288830178257165
 20
73.33701684147968
 10
46.60002641943529
 20
73.50335469785541
 10
46.872792206135784
 20
73.72720779386421
 10
47.09664530214458
 20
73.99997358056471
 10
47.26298315852032
 20
74.31116982174284
 10
47.365413504725815
 20
74.64883742037097
 10
47.4
 20
75.0
  0
LWPOLYLINE
  5
96
330
17
100
AcDbEntity
  8
REF_PLATE_OPENINGS
100
AcDbPolyline
 90
36
 70
1
 10
68.7
 20
75.4
 10
68.66541350472582
 20
75.75116257962904
 10
68.56298315852032
 20
76.08883017825717
 10
68.39664530214459
 20
76.40002641943529
 10
68.1727922061358
 20
76.6727922061358
 10
67.90002641943529
 20
76.89664530214459
 10
67.58883017825717
 20
77.06298315852032
 10
67.25116257962904
 20
77.16541350472582
 10
66.9
 20
77.2
 10
60.9
 20
77.2
 10
60.548837420370965
 20
77.16541350472582
 10
60.211169821742835
 20
77.06298315852032
 10
59.89997358056471
 20
76.89664530214459
 10
59.627207793864216
 20
76.6727922061358
 10
59.40335469785542
 20
76.40002641943529
 10
59.23701684147968
 20
76.08883017825717
 10
59.134586495274185
 20
75.75116257962904
 10
59.1
 20
75.4
 10
59.1
 20
75.0
 10
59.134586495274185
 20
74.64883742037097
 10
59.23701684147968
 20
74.31116982174284
 10
59.40335469785542
 20
73.99997358056471
 10
59.627207793864216
 20
73.72720779386421
 10
59.89997358056471
 20
73.50335469785541
 10
60.211169821742835
 20
73.33701684147968
 10
60.548837420370965
 20
73.23458649527419
 10
60.9
 20
73.2
 10
66.9
 20
73.2
 10
67.25116257962904
 20
73.23458649527419
 10
67.58883017825717
 20
73.33701684147968
 10
67.90002641943529
 20
73.50335469785541
 10
68.1727922061358
 20
73.72720779386421
 10
68.39664530214459
 20
73.99997358056471
 10
68.56298315852032
 20
74.31116982174284
 10
68.66541350472582
 20
74.64883742037097
 10
68.7
 20
75.0
  0
LWPOLYLINE
  5
97
330
17
100
AcDbEntity
  8
REF_PLATE_OPENINGS
100
AcDbPolyline
 90
36
 70
1
 10
47.4
 20
65.65
 10
47.365413504725815
 20
66.00116257962904
 10
47.26298315852032
 20
66.33883017825717
 10
47.09664530214458
 20
66.65002641943529
 10
46.872792206135784
 20
66.9227922061358
 10
46.60002641943529
 20
67.14664530214459
 10
46.288830178257165
 20
67.31298315852032
 10
45.951162579629035
 20
67.41541350472582
 10
45.6
 20
67.45
 10
39.6
 20
67.45
 10
39.24883742037097
 20
67.41541350472582
 10
38.91116982174284
 20
67.31298315852032
 10
38.599973580564715
 20
67.14664530214459
 10
38.32720779386422
 20
66.9227922061358
 10
38.10335469785542
 20
66.65002641943529
 10
37.93701684147968
 20
66.33883017825717
 10
37.83458649527419
 20
66.00116257962904
 10
37.800000000000004
 20
65.65
 10
37.800000000000004
 20
65.25
 10
37.83458649527419
 20
64.89883742037097
 10
37.93701684147968
 20
64.56116982174284
 10
38.10335469785542
 20
64.24997358056471
 10
38.32720779386422
 20
63.97720779386422
 10
38.599973580564715
 20
63.75335469785542
 10
38.91116982174284
 20
63.58701684147968
 10
39.24883742037097
 20
63.484586495274186
 10
39.6
 20
63.45
 10
45.6
 20
63.45
 10
45.951162579629035
 20
63.484586495274186
 10
46.288830178257165
 20
63.58701684147968
 10
46.60002641943529
 20
63.75335469785542
 10
46.872792206135784
 20
63.97720779386422
 10
47.09664530214458
 20
64.24997358056471
 10
47.26298315852032
 20
64.56116982174284
 10
47.365413504725815
 20
64.89883742037097
 10
47.4
 20
65.25
  0
LWPOLYLINE
  5
98
330
17
100
AcDbEntity
  8
REF_PLATE_OPENINGS
100
AcDbPolyline
 90
36
 70
1
 10
68.7
 20
65.65
 10
68.66541350472582
 20
66.00116257962904
 10
68.56298315852032
 20
66.33883017825717
 10
68.39664530214459
 20
66.65002641943529
 10
68.1727922061358
 20
66.9227922061358
 10
67.90002641943529
 20
67.14664530214459
 10
67.58883017825717
 20
67.31298315852032
 10
67.25116257962904
 20
67.41541350472582
 10
66.9
 20
67.45
 10
60.9
 20
67.45
 10
60.548837420370965
 20
67.41541350472582
 10
60.211169821742835
 20
67.31298315852032
 10
59.89997358056471
 20
67.14664530214459
 10
59.627207793864216
 20
66.9227922061358
 10
59.40335469785542
 20
66.65002641943529
 10
59.23701684147968
 20
66.33883017825717
 10
59.134586495274185
 20
66.00116257962904
 10
59.1
 20
65.65
 10
59.1
 20
65.25
 10
59.134586495274185
 20
64.89883742037097
 10
59.23701684147968
 20
64.56116982174284
 10
59.40335469785542
 20
64.24997358056471
 10
59.627207793864216
 20
63.97720779386422
 10
59.89997358056471
 20
63.75335469785542
 10
60.211169821742835
 20
63.58701684147968
 10
60.548837420370965
 20
63.484586495274186
 10
60.9
 20
63.45
 10
66.9
 20
63.45
 10
67.25116257962904
 20
63.484586495274186
 10
67.58883017825717
 20
63.58701684147968
 10
67.90002641943529
 20
63.75335469785542
 10
68.1727922061358
 20
63.97720779386422
 10
68.39664530214459
 20
64.24997358056471
 10
68.56298315852032
 20
64.56116982174284
 10
68.66541350472582
 20
64.89883742037097
 10
68.7
 20
65.25
  0
LWPOLYLINE
  5
99
330
17
100
AcDbEntity
  8
REF_PLATE_OPENINGS
100
AcDbPolyline
 90
36
 70
1
 10
47.4
 20
55.900000000000006
 10
47.365413504725815
 20
56.25116257962904
 10
47.26298315852032
 20
56.58883017825717
 10
47.09664530214458
 20
56.90002641943529
 10
46.872792206135784
 20
57.17279220613579
 10
46.60002641943529
 20
57.396645302144584
 10
46.288830178257165
 20
57.562983158520325
 10
45.951162579629035
 20
57.66541350472582
 10
45.6
 20
57.7
 10
39.6
 20
57.7
 10
39.24883742037097
 20
57.66541350472582
 10
38.91116982174284
 20
57.562983158520325
 10
38.599973580564715
 20
57.396645302144584
 10
38.32720779386422
 20
57.17279220613579
 10
38.10335469785542
 20
56.90002641943529
 10
37.93701684147968
 20
56.58883017825717
 10
37.83458649527419
 20
56.25116257962904
 10
37.800000000000004
 20
55.900000000000006
 10
37.800000000000004
 20
55.5
 10
37.83458649527419
 20
55.14883742037097
 10
37.93701684147968
 20
54.81116982174284
 10
38.10335469785542
 20
54.49997358056471
 10
38.32720779386422
 20
54.22720779386422
 10
38.599973580564715
 20
54.00335469785542
 10
38.91116982174284
 20
53.83701684147968
 10
39.24883742037097
 20
53.734586495274186
 10
39.6
 20
53.7
 10
45.6
 20
53.7
 10
45.951162579629035
 20
53.734586495274186
 10
46.288830178257165
 20
53.83701684147968
 10
46.60002641943529
 20
54.00335469785542
 10
46.872792206135784
 20
54.22720779386422
 10
47.09664530214458
 20
54.49997358056471
 10
47.26298315852032
 20
54.81116982174284
 10
47.365413504725815
 20
55.14883742037097
 10
47.4
 20
55.5
  0
LWPOLYLINE
  5
9A
330
17
100
AcDbEntity
  8
REF_PLATE_OPENINGS
100
AcDbPolyline
 90
36
 70
1
 10
68.7
 20
55.900000000000006
 10
68.66541350472582
 20
56.25116257962904
 10
68.56298315852032
 20
56.58883017825717
 10
68.39664530214459
 20
56.90002641943529
 10
68.1727922061358
 20
57.17279220613579
 10
67.90002641943529
 20
57.396645302144584
 10
67.58883017825717
 20
57.562983158520325
 10
67.25116257962904
 20
57.66541350472582
 10
66.9
 20
57.7
 10
60.9
 20
57.7
 10
60.548837420370965
 20
57.66541350472582
 10
60.211169821742835
 20
57.562983158520325
 10
59.89997358056471
 20
57.396645302144584
 10
59.627207793864216
 20
57.17279220613579
 10
59.40335469785542
 20
56.90002641943529
 10
59.23701684147968
 20
56.58883017825717
 10
59.134586495274185
 20
56.25116257962904
 10
59.1
 20
55.900000000000006
 10
59.1
 20
55.5
 10
59.134586495274185
 20
55.14883742037097
 10
59.23701684147968
 20
54.81116982174284
 10
59.40335469785542
 20
54.49997358056471
 10
59.627207793864216
 20
54.22720779386422
 10
59.89997358056471
 20
54.00335469785542
 10
60.211169821742835
 20
53.83701684147968
 10
60.548837420370965
 20
53.734586495274186
 10
60.9
 20
53.7
 10
66.9
 20
53.7
 10
67.25116257962904
 20
53.734586495274186
 10
67.58883017825717
 20
53.83701684147968
 10
67.90002641943529
 20
54.00335469785542
 10
68.1727922061358
 20
54.22720779386422
 10
68.39664530214459
 20
54.49997358056471
 10
68.56298315852032
 20
54.81116982174284
 10
68.66541350472582
 20
55.14883742037097
 10
68.7
 20
55.5
  0
LWPOLYLINE
  5
9B
330
17
100
AcDbEntity
  8
REF_PLATE_OPENINGS
100
AcDbPolyline
 90
36
 70
1
 10
50.099999999999994
 20
45.25
 10
50.09039264020161
 20
45.347545161008064
 10
50.06193976625564
 20
45.44134171618254
 10
50.015734806151265
 20
45.527785116509804
 10
49.95355339059327
 20
45.60355339059328
 10
49.8777851165098
 20
45.66573480615127
 10
49.79134171618254
 20
45.71193976625565
 10
49.69754516100806
 20
45.74039264020161
 10
49.599999999999994
 20
45.75
 10
37.0
 20
45.75
 10
36.902454838991936
 20
45.74039264020161
 10
36.80865828381746
 20
45.71193976625565
 10
36.722214883490196
 20
45.66573480615127
 10
36.64644660940672
 20
45.60355339059328
 10
36.58426519384873
 20
45.527785116509804
 10
36.53806023374435
 20
45.44134171618254
 10
36.50960735979839
 20
45.347545161008064
 10
36.5
 20
45.25
 10
36.5
 20
40.25
 10
36.50960735979839
 20
40.152454838991936
 10
36.53806023374435
 20
40.05865828381746
 10
36.58426519384873
 20
39.972214883490196
 10
36.64644660940672
 20
39.89644660940672
 10
36.722214883490196
 20
39.83426519384873
 10
36.80865828381746
 20
39.78806023374435
 10
36.902454838991936
 20
39.75960735979839
 10
37.0
 20
39.75
 10
49.599999999999994
 20
39.75
 10
49.69754516100806
 20
39.75960735979839
 10
49.79134171618254
 20
39.78806023374435
 10
49.8777851165098
 20
39.83426519384873
 10
49.95355339059327
 20
39.89644660940672
 10
50.015734806151265
 20
39.972214883490196
 10
50.06193976625564
 20
40.05865828381746
 10
50.09039264020161
 20
40.152454838991936
 10
50.099999999999994
 20
40.25
  0
LWPOLYLINE
  5
9C
330
17
100
AcDbEntity
  8
REF_PLATE_OPENINGS
100
AcDbPolyline
 90
36
 70
1
 10
50.099999999999994
 20
35.1
 10
50.09039264020161
 20
35.197545161008065
 10
50.06193976625564
 20
35.291341716182544
 10
50.015734806151265
 20
35.377785116509806
 10
49.95355339059327
 20
35.45355339059328
 10
49.8777851165098
 20
35.51573480615127
 10
49.79134171618254
 20
35.56193976625565
 10
49.69754516100806
 20
35.590392640201614
 10
49.599999999999994
 20
35.6
 10
37.0
 20
35.6
 10
36.902454838991936
 20
35.590392640201614
 10
36.80865828381746
 20
35.56193976625565
 10
36.722214883490196
 20
35.51573480615127
 10
36.64644660940672
 20
35.45355339059328
 10
36.58426519384873
 20
35.377785116509806
 10
36.53806023374435
 20
35.291341716182544
 10
36.50960735979839
 20
35.197545161008065
 10
36.5
 20
35.1
 10
36.5
 20
30.1
 10
36.50960735979839
 20
30.002454838991937
 10
36.53806023374435
 20
29.908658283817456
 10
36.58426519384873
 20
29.8222148834902
 10
36.64644660940672
 20
29.74644660940673
 10
36.722214883490196
 20
29.684265193848727
 10
36.80865828381746
 20
29.63806023374436
 10
36.902454838991936
 20
29.609607359798385
 10
37.0
 20
29.6
 10
49.599999999999994
 20
29.6
 10
49.69754516100806
 20
29.609607359798385
 10
49.79134171618254
 20
29.63806023374436
 10
49.8777851165098
 20
29.684265193848727
 10
49.95355339059327
 20
29.74644660940673
 10
50.015734806151265
 20
29.8222148834902
 10
50.06193976625564
 20
29.908658283817456
 10
50.09039264020161
 20
30.002454838991937
 10
50.099999999999994
 20
30.1
  0
LWPOLYLINE
  5
9D
330
17
100
AcDbEntity
  8
REF_PLATE_OPENINGS
100
AcDbPolyline
 90
36
 70
1
 10
70.85
 20
45.25
 10
70.84039264020161
 20
45.347545161008064
 10
70.81193976625563
 20
45.44134171618254
 10
70.76573480615127
 20
45.527785116509804
 10
70.70355339059327
 20
45.60355339059328
 10
70.6277851165098
 20
45.66573480615127
 10
70.54134171618254
 20
45.71193976625565
 10
70.44754516100807
 20
45.74039264020161
 10
70.35
 20
45.75
 10
57.75
 20
45.75
 10
57.652454838991936
 20
45.74039264020161
 10
57.55865828381746
 20
45.71193976625565
 10
57.472214883490196
 20
45.66573480615127
 10
57.39644660940672
 20
45.60355339059328
 10
57.33426519384873
 20
45.527785116509804
 10
57.28806023374435
 20
45.44134171618254
 10
57.25960735979839
 20
45.347545161008064
 10
57.25
 20
45.25
 10
57.25
 20
40.25
 10
57.25960735979839
 20
40.152454838991936
 10
57.28806023374435
 20
40.05865828381746
 10
57.33426519384873
 20
39.972214883490196
 10
57.39644660940672
 20
39.89644660940672
 10
57.472214883490196
 20
39.83426519384873
 10
57.55865828381746
 20
39.78806023374435
 10
57.652454838991936
 20
39.75960735979839
 10
57.75
 20
39.75
 10
70.35
 20
39.75
 10
70.44754516100807
 20
39.75960735979839
 10
70.54134171618254
 20
39.78806023374435
 10
70.6277851165098
 20
39.83426519384873
 10
70.70355339059327
 20
39.89644660940672
 10
70.76573480615127
 20
39.972214883490196
 10
70.81193976625563
 20
40.05865828381746
 10
70.84039264020161
 20
40.152454838991936
 10
70.85
 20
40.25
  0
LWPOLYLINE
  5
9E
330
17
100
AcDbEntity
  8
REF_PLATE_OPENINGS
100
AcDbPolyline
 90
36
 70
1
 10
70.85
 20
35.1
 10
70.84039264020161
 20
35.197545161008065
 10
70.81193976625563
 20
35.291341716182544
 10
70.76573480615127
 20
35.377785116509806
 10
70.70355339059327
 20
35.45355339059328
 10
70.6277851165098
 20
35.51573480615127
 10
70.54134171618254
 20
35.56193976625565
 10
70.44754516100807
 20
35.590392640201614
 10
70.35
 20
35.6
 10
57.75
 20
35.6
 10
57.652454838991936
 20
35.590392640201614
 10
57.55865828381746
 20
35.56193976625565
 10
57.472214883490196
 20
35.51573480615127
 10
57.39644660940672
 20
35.45355339059328
 10
57.33426519384873
 20
35.377785116509806
 10
57.28806023374435
 20
35.291341716182544
 10
57.25960735979839
 20
35.197545161008065
 10
57.25
 20
35.1
 10
57.25
 20
30.1
 10
57.25960735979839
 20
30.002454838991937
 10
57.28806023374435
 20
29.908658283817456
 10
57.33426519384873
 20
29.8222148834902
 10
57.39644660940672
 20
29.74644660940673
 10
57.472214883490196
 20
29.684265193848727
 10
57.55865828381746
 20
29.63806023374436
 10
57.652454838991936
 20
29.609607359798385
 10
57.75
 20
29.6
 10
70.35
 20
29.6
 10
70.44754516100807
 20
29.609607359798385
 10
70.54134171618254
 20
29.63806023374436
 10
70.6277851165098
 20
29.684265193848727
 10
70.70355339059327
 20
29.74644660940673
 10
70.76573480615127
 20
29.8222148834902
 10
70.81193976625563
 20
29.908658283817456
 10
70.84039264020161
 20
30.002454838991937
 10
70.85
 20
30.1
  0
LWPOLYLINE
  5
9F
330
17
100
AcDbEntity
  8
REF_PLATE_OPENINGS
100
AcDbPolyline
 90
36
 70
1
 10
70.0
 20
97.14999999999999
 10
69.99039264020162
 20
97.24754516100806
 10
69.96193976625564
 20
97.34134171618254
 10
69.91573480615128
 20
97.4277851165098
 10
69.85355339059328
 20
97.50355339059327
 10
69.7777851165098
 20
97.56573480615127
 10
69.69134171618255
 20
97.61193976625563
 10
69.59754516100807
 20
97.64039264020161
 10
69.5
 20
97.64999999999999
 10
57.5
 20
97.64999999999999
 10
57.402454838991936
 20
97.64039264020161
 10
57.30865828381746
 20
97.61193976625563
 10
57.222214883490196
 20
97.56573480615127
 10
57.14644660940672
 20
97.50355339059327
 10
57.08426519384873
 20
97.4277851165098
 10
57.03806023374435
 20
97.34134171618254
 10
57.00960735979839
 20
97.24754516100806
 10
57.0
 20
97.14999999999999
 10
57.0
 20
87.45
 10
57.00960735979839
 20
87.35245483899193
 10
57.03806023374435
 20
87.25865828381745
 10
57.08426519384873
 20
87.1722148834902
 10
57.14644660940672
 20
87.09644660940673
 10
57.222214883490196
 20
87.03426519384873
 10
57.30865828381746
 20
86.98806023374436
 10
57.402454838991936
 20
86.95960735979838
 10
57.5
 20
86.95
 10
69.5
 20
86.95
 10
69.59754516100807
 20
86.95960735979838
 10
69.69134171618255
 20
86.98806023374436
 10
69.7777851165098
 20
87.03426519384873
 10
69.85355339059328
 20
87.09644660940673
 10
69.91573480615128
 20
87.1722148834902
 10
69.96193976625564
 20
87.25865828381745
 10
69.99039264020162
 20
87.35245483899193
 10
70.0
 20
87.45
  0
LWPOLYLINE
  5
A0
330
17
100
AcDbEntity
  8
REF_PLATE_OPENINGS
100
AcDbPolyline
 90
36
 70
1
 10
49.0
 20
96.85
 10
48.99039264020161
 20
96.94754516100807
 10
48.96193976625565
 20
97.04134171618254
 10
48.91573480615127
 20
97.1277851165098
 10
48.85355339059328
 20
97.20355339059327
 10
48.777785116509804
 20
97.26573480615127
 10
48.69134171618254
 20
97.31193976625563
 10
48.597545161008064
 20
97.34039264020161
 10
48.5
 20
97.35
 10
36.5
 20
97.35
 10
36.402454838991936
 20
97.34039264020161
 10
36.30865828381746
 20
97.31193976625563
 10
36.222214883490196
 20
97.26573480615127
 10
36.14644660940672
 20
97.20355339059327
 10
36.08426519384873
 20
97.1277851165098
 10
36.03806023374435
 20
97.04134171618254
 10
36.00960735979839
 20
96.94754516100807
 10
36.0
 20
96.85
 10
36.0
 20
87.15
 10
36.00960735979839
 20
87.05245483899193
 10
36.03806023374435
 20
86.95865828381746
 10
36.08426519384873
 20
86.8722148834902
 10
36.14644660940672
 20
86.79644660940673
 10
36.222214883490196
 20
86.73426519384873
 10
36.30865828381746
 20
86.68806023374437
 10
36.402454838991936
 20
86.65960735979839
 10
36.5
 20
86.65
 10
48.5
 20
86.65
 10
48.597545161008064
 20
86.65960735979839
 10
48.69134171618254
 20
86.68806023374437
 10
48.777785116509804
 20
86.73426519384873
 10
48.85355339059328
 20
86.79644660940673
 10
48.91573480615127
 20
86.8722148834902
 10
48.96193976625565
 20
86.95865828381746
 10
48.99039264020161
 20
87.05245483899193
 10
49.0
 20
87.15
  0
LWPOLYLINE
  5
A1
330
17
100
AcDbEntity
  8
REF_PLATE_OPENINGS
100
AcDbPolyline
 90
36
 70
1
 10
50.1
 20
109.60000000000001
 10
50.084628224322586
 20
109.75607225761291
 10
50.03910362600903
 20
109.90614674589209
 10
49.96517568984204
 20
110.04445618641569
 10
49.86568542494924
 20
110.16568542494925
 10
49.74445618641569
 20
110.26517568984204
 10
49.606146745892076
 20
110.33910362600903
 10
49.45607225761291
 20
110.3846282243226
 10
49.300000000000004
 20
110.4
 10
35.49999999999999
 20
110.4
 10
35.34392774238709
 20
110.3846282243226
 10
35.19385325410792
 20
110.33910362600903
 10
35.05554381358431
 20
110.26517568984204
 10
34.934314575050756
 20
110.16568542494925
 10
34.834824310157956
 20
110.04445618641569
 10
34.76089637399097
 20
109.90614674589209
 10
34.71537177567741
 20
109.75607225761291
 10
34.699999999999996
 20
109.60000000000001
 10
34.699999999999996
 20
105.2
 10
34.71537177567741
 20
105.0439277423871
 10
34.76089637399096
 20
104.89385325410792
 10
34.834824310157956
 20
104.75554381358432
 10
34.934314575050756
 20
104.63431457505077
 10
35.05554381358431
 20
104.53482431015797
 10
35.19385325410792
 20
104.46089637399098
 10
35.34392774238709
 20
104.41537177567741
 10
35.49999999999999
 20
104.4
 10
49.300000000000004
 20
104.4
 10
49.45607225761291
 20
104.41537177567741
 10
49.606146745892076
 20
104.46089637399098
 10
49.74445618641568
 20
104.53482431015797
 10
49.86568542494924
 20
104.63431457505077
 10
49.96517568984204
 20
104.75554381358432
 10
50.03910362600904
 20
104.89385325410794
 10
50.084628224322586
 20
105.0439277423871
 10
50.1
 20
105.2
  0
LWPOLYLINE
  5
A2
330
17
100
AcDbEntity
  8
REF_PLATE_OPENINGS
100
AcDbPolyline
 90
36
 70
1
 10
69.35499999999999
 20
139.27499999999998
 10
69.29735584120968
 20
139.86027096604838
 10
69.12663859753386
 20
140.42305029709524
 10
68.84940883690763
 20
140.94171069905877
 10
68.47632034355964
 20
141.3963203435596
 10
68.0217106990588
 20
141.76940883690762
 10
67.50305029709526
 20
142.04663859753384
 10
66.94027096604837
 20
142.21735584120967
 10
66.35499999999999
 20
142.27499999999998
 10
37.805
 20
142.27499999999998
 10
37.219729033951616
 20
142.21735584120967
 10
36.65694970290473
 20
142.04663859753384
 10
36.138289300941196
 20
141.76940883690762
 10
35.683679656440354
 20
141.3963203435596
 10
35.31059116309236
 20
140.94171069905877
 10
35.03336140246614
 20
140.42305029709524
 10
34.86264415879031
 20
139.86027096604838
 10
34.805
 20
139.27499999999998
 10
34.805
 20
120.62499999999999
 10
34.86264415879031
 20
120.0397290339516
 10
35.03336140246614
 20
119.47694970290472
 10
35.31059116309236
 20
118.95828930094117
 10
35.683679656440354
 20
118.50367965644034
 10
36.138289300941196
 20
118.13059116309235
 10
36.65694970290473
 20
117.85336140246612
 10
37.219729033951616
 20
117.6826441587903
 10
37.805
 20
117.62499999999999
 10
66.35499999999999
 20
117.62499999999999
 10
66.94027096604837
 20
117.6826441587903
 10
67.50305029709526
 20
117.85336140246612
 10
68.0217106990588
 20
118.13059116309235
 10
68.47632034355964
 20
118.50367965644034
 10
68.84940883690763
 20
118.95828930094117
 10
69.12663859753386
 20
119.47694970290472
 10
69.29735584120968
 20
120.0397290339516
 10
69.35499999999999
 20
120.62499999999999
  0
CIRCLE
  5
A3
330
17
100
AcDbEntity
  8
REF_PLATE_OPENINGS
100
AcDbCircle
 10
43.4
 20
19.1
 30
0.0
 40
2.4
  0
CIRCLE
  5
A4
330
17
100
AcDbEntity
  8
REF_PLATE_OPENINGS
100
AcDbCircle
 10
64.65
 20
19.4
 30
0.0
 40
2.4
  0
CIRCLE
  5
A5
330
17
100
AcDbEntity
  8
REF_PLATE_OPENINGS
100
AcDbCircle
 10
63.02
 20
108.03
 30
0.0
 40
6.2
  0
LWPOLYLINE
  5
A6
330
17
100
AcDbEntity
  8
REF_LAND_BOSSES
100
AcDbPolyline
 90
36
 70
1
 10
48.5
 20
76.2
 10
48.45964908884678
 20
76.60968967623387
 10
48.3401470182737
 20
77.0036352079667
 10
48.146086185835344
 20
77.36669748934116
 10
47.88492424049175
 20
77.68492424049175
 10
47.566697489341166
 20
77.94608618583534
 10
47.203635207966684
 20
78.14014701827371
 10
46.809689676233866
 20
78.25964908884679
 10
46.4
 20
78.3
 10
38.800000000000004
 20
78.3
 10
38.39031032376614
 20
78.25964908884679
 10
37.99636479203332
 20
78.14014701827371
 10
37.63330251065884
 20
77.94608618583534
 10
37.315075759508254
 20
77.68492424049175
 10
37.05391381416466
 20
77.36669748934116
 10
36.859852981726306
 20
77.0036352079667
 10
36.74035091115322
 20
76.60968967623387
 10
36.7
 20
76.2
 10
36.7
 20
54.7
 10
36.74035091115322
 20
54.290310323766136
 10
36.8598529817263
 20
53.89636479203332
 10
37.05391381416466
 20
53.533302510658835
 10
37.315075759508254
 20
53.21507575950825
 10
37.63330251065884
 20
52.95391381416466
 10
37.99636479203332
 20
52.7598529817263
 10
38.39031032376614
 20
52.64035091115322
 10
38.800000000000004
 20
52.6
 10
46.4
 20
52.6
 10
46.809689676233866
 20
52.64035091115322
 10
47.203635207966684
 20
52.759852981726304
 10
47.56669748934116
 20
52.95391381416466
 10
47.88492424049175
 20
53.21507575950825
 10
48.146086185835344
 20
53.533302510658835
 10
48.340147018273704
 20
53.89636479203332
 10
48.45964908884678
 20
54.290310323766136
 10
48.5
 20
54.7
  0
LWPOLYLINE
  5
A7
330
17
100
AcDbEntity
  8
A1_FLEX_CUTOUTS_PROPOSED
100
AcDbPolyline
 90
36
 70
1
 10
48.8
 20
76.2
 10
48.75388467296775
 20
76.6682167728387
 10
48.617310878027084
 20
77.11844023767623
 10
48.39552706952611
 20
77.53336855924705
 10
48.09705627484771
 20
77.89705627484771
 10
47.73336855924705
 20
78.19552706952611
 10
47.318440237676214
 20
78.4173108780271
 10
46.86821677283871
 20
78.55388467296775
 10
46.4
 20
78.60000000000001
 10
38.800000000000004
 20
78.60000000000001
 10
38.331783227161296
 20
78.55388467296775
 10
37.88155976232379
 20
78.4173108780271
 10
37.466631440752955
 20
78.19552706952611
 10
37.10294372515229
 20
77.89705627484771
 10
36.80447293047389
 20
77.53336855924705
 10
36.58268912197292
 20
77.11844023767623
 10
36.44611532703225
 20
76.6682167728387
 10
36.400000000000006
 20
76.2
 10
36.400000000000006
 20
54.7
 10
36.44611532703225
 20
54.231783227161294
 10
36.58268912197292
 20
53.78155976232379
 10
36.80447293047389
 20
53.366631440752954
 10
37.102943725152286
 20
53.00294372515229
 10
37.46663144075296
 20
52.7044729304739
 10
37.88155976232379
 20
52.48268912197292
 10
38.331783227161296
 20
52.34611532703225
 10
38.800000000000004
 20
52.300000000000004
 10
46.4
 20
52.300000000000004
 10
46.86821677283871
 20
52.34611532703225
 10
47.318440237676214
 20
52.48268912197292
 10
47.73336855924704
 20
52.70447293047389
 10
48.09705627484771
 20
53.002943725152285
 10
48.39552706952611
 20
53.366631440752954
 10
48.617310878027084
 20
53.78155976232379
 10
48.75388467296775
 20
54.231783227161294
 10
48.8
 20
54.7
  0
LWPOLYLINE
  5
A8
330
17
100
AcDbEntity
  8
REF_LAND_BOSSES
100
AcDbPolyline
 90
36
 70
1
 10
69.8
 20
76.2
 10
69.75964908884679
 20
76.60968967623387
 10
69.64014701827371
 20
77.0036352079667
 10
69.44608618583534
 20
77.36669748934116
 10
69.18492424049175
 20
77.68492424049175
 10
68.86669748934116
 20
77.94608618583534
 10
68.5036352079667
 20
78.14014701827371
 10
68.10968967623387
 20
78.25964908884679
 10
67.7
 20
78.3
 10
60.1
 20
78.3
 10
59.690310323766134
 20
78.25964908884679
 10
59.296364792033316
 20
78.14014701827371
 10
58.933302510658834
 20
77.94608618583534
 10
58.61507575950825
 20
77.68492424049175
 10
58.353913814164656
 20
77.36669748934116
 10
58.1598529817263
 20
77.0036352079667
 10
58.04035091115322
 20
76.60968967623387
 10
58.0
 20
76.2
 10
58.0
 20
54.7
 10
58.04035091115322
 20
54.290310323766136
 10
58.159852981726296
 20
53.89636479203332
 10
58.353913814164656
 20
53.533302510658835
 10
58.61507575950825
 20
53.21507575950825
 10
58.933302510658834
 20
52.95391381416466
 10
59.296364792033316
 20
52.7598529817263
 10
59.690310323766134
 20
52.64035091115322
 10
60.1
 20
52.6
 10
67.7
 20
52.6
 10
68.10968967623387
 20
52.64035091115322
 10
68.5036352079667
 20
52.759852981726304
 10
68.86669748934116
 20
52.95391381416466
 10
69.18492424049175
 20
53.21507575950825
 10
69.44608618583534
 20
53.533302510658835
 10
69.64014701827371
 20
53.89636479203332
 10
69.75964908884679
 20
54.290310323766136
 10
69.8
 20
54.7
  0
LWPOLYLINE
  5
A9
330
17
100
AcDbEntity
  8
A1_FLEX_CUTOUTS_PROPOSED
100
AcDbPolyline
 90
36
 70
1
 10
70.1
 20
76.2
 10
70.05388467296774
 20
76.6682167728387
 10
69.91731087802708
 20
77.11844023767623
 10
69.6955270695261
 20
77.53336855924705
 10
69.3970562748477
 20
77.89705627484771
 10
69.03336855924704
 20
78.19552706952611
 10
68.61844023767621
 20
78.4173108780271
 10
68.16821677283869
 20
78.55388467296775
 10
67.69999999999999
 20
78.60000000000001
 10
60.1
 20
78.60000000000001
 10
59.63178322716129
 20
78.55388467296775
 10
59.181559762323786
 20
78.4173108780271
 10
58.76663144075295
 20
78.19552706952611
 10
58.40294372515229
 20
77.89705627484771
 10
58.10447293047389
 20
77.53336855924705
 10
57.882689121972916
 20
77.11844023767623
 10
57.74611532703225
 20
76.6682167728387
 10
57.7
 20
76.2
 10
57.7
 20
54.7
 10
57.74611532703225
 20
54.231783227161294
 10
57.882689121972916
 20
53.78155976232379
 10
58.10447293047389
 20
53.366631440752954
 10
58.402943725152284
 20
53.00294372515229
 10
58.76663144075296
 20
52.7044729304739
 10
59.181559762323786
 20
52.48268912197292
 10
59.63178322716129
 20
52.34611532703225
 10
60.1
 20
52.300000000000004
 10
67.69999999999999
 20
52.300000000000004
 10
68.16821677283869
 20
52.34611532703225
 10
68.61844023767621
 20
52.48268912197292
 10
69.03336855924704
 20
52.70447293047389
 10
69.3970562748477
 20
53.002943725152285
 10
69.6955270695261
 20
53.366631440752954
 10
69.91731087802708
 20
53.78155976232379
 10
70.05388467296774
 20
54.231783227161294
 10
70.1
 20
54.7
  0
LWPOLYLINE
  5
AA
330
17
100
AcDbEntity
  8
REF_LAND_BOSSES
100
AcDbPolyline
 90
36
 70
1
 10
51.699999999999996
 20
45.74999999999999
 10
51.669256448645164
 20
46.062144515225796
 10
51.57820725201805
 20
46.362293491784136
 10
51.43035137968407
 20
46.638912372831356
 10
51.23137084989847
 20
46.88137084989847
 10
50.98891237283136
 20
47.08035137968407
 10
50.71229349178414
 20
47.22820725201805
 10
50.4121445152258
 20
47.31925644864516
 10
50.099999999999994
 20
47.349999999999994
 10
36.5
 20
47.349999999999994
 10
36.1878554847742
 20
47.31925644864516
 10
35.88770650821586
 20
47.22820725201805
 10
35.61108762716864
 20
47.08035137968407
 10
35.368629150101526
 20
46.88137084989847
 10
35.169648620315925
 20
46.638912372831356
 10
35.02179274798194
 20
46.362293491784136
 10
34.93074355135483
 20
46.062144515225796
 10
34.9
 20
45.74999999999999
 10
34.9
 20
29.6
 10
34.93074355135483
 20
29.287855484774195
 10
35.02179274798194
 20
28.987706508215858
 10
35.169648620315925
 20
28.711087627168638
 10
35.368629150101526
 20
28.468629150101524
 10
35.61108762716864
 20
28.26964862031593
 10
35.88770650821586
 20
28.121792747981942
 10
36.1878554847742
 20
28.03074355135483
 10
36.5
 20
28.0
 10
50.099999999999994
 20
28.0
 10
50.4121445152258
 20
28.03074355135483
 10
50.71229349178414
 20
28.121792747981942
 10
50.98891237283136
 20
28.269648620315927
 10
51.23137084989847
 20
28.468629150101524
 10
51.43035137968407
 20
28.711087627168638
 10
51.57820725201805
 20
28.987706508215858
 10
51.669256448645164
 20
29.287855484774195
 10
51.699999999999996
 20
29.6
  0
LWPOLYLINE
  5
AB
330
17
100
AcDbEntity
  8
A1_FLEX_CUTOUTS_PROPOSED
100
AcDbPolyline
 90
36
 70
1
 10
52.0
 20
45.75
 10
51.96349203276614
 20
46.120671611830645
 10
51.85537111177145
 20
46.47709852149367
 10
51.679792263374836
 20
46.805583442737245
 10
51.44350288425444
 20
47.09350288425444
 10
51.155583442737246
 20
47.329792263374834
 10
50.827098521493674
 20
47.505371111771446
 10
50.470671611830646
 20
47.61349203276614
 10
50.1
 20
47.65
 10
36.49999999999999
 20
47.65
 10
36.12932838816935
 20
47.61349203276614
 10
35.77290147850632
 20
47.505371111771446
 10
35.44441655726275
 20
47.329792263374834
 10
35.15649711574555
 20
47.09350288425444
 10
34.92020773662516
 20
46.805583442737245
 10
34.74462888822855
 20
46.47709852149367
 10
34.636507967233854
 20
46.120671611830645
 10
34.599999999999994
 20
45.75
 10
34.599999999999994
 20
29.599999999999994
 10
34.636507967233854
 20
29.22932838816935
 10
34.74462888822855
 20
28.872901478506325
 10
34.92020773662516
 20
28.54441655726275
 10
35.15649711574555
 20
28.256497115745553
 10
35.44441655726275
 20
28.02020773662516
 10
35.77290147850632
 20
27.84462888822855
 10
36.12932838816935
 20
27.736507967233855
 10
36.49999999999999
 20
27.699999999999996
 10
50.1
 20
27.699999999999996
 10
50.470671611830646
 20
27.736507967233855
 10
50.827098521493674
 20
27.84462888822855
 10
51.155583442737246
 20
28.020207736625157
 10
51.44350288425444
 20
28.256497115745553
 10
51.679792263374836
 20
28.54441655726275
 10
51.85537111177145
 20
28.872901478506325
 10
51.96349203276614
 20
29.22932838816935
 10
52.0
 20
29.599999999999994
  0
LWPOLYLINE
  5
AC
330
17
100
AcDbEntity
  8
REF_LAND_BOSSES
100
AcDbPolyline
 90
36
 70
1
 10
72.45
 20
45.74999999999999
 10
72.41925644864517
 20
46.062144515225796
 10
72.32820725201806
 20
46.362293491784136
 10
72.18035137968408
 20
46.638912372831356
 10
71.98137084989848
 20
46.88137084989847
 10
71.73891237283138
 20
47.08035137968407
 10
71.46229349178415
 20
47.22820725201805
 10
71.16214451522582
 20
47.31925644864516
 10
70.85000000000001
 20
47.349999999999994
 10
57.25
 20
47.349999999999994
 10
56.9378554847742
 20
47.31925644864516
 10
56.63770650821586
 20
47.22820725201805
 10
56.36108762716864
 20
47.08035137968407
 10
56.118629150101526
 20
46.88137084989847
 10
55.919648620315925
 20
46.638912372831356
 10
55.77179274798194
 20
46.362293491784136
 10
55.68074355135483
 20
46.062144515225796
 10
55.65
 20
45.74999999999999
 10
55.65
 20
29.6
 10
55.68074355135483
 20
29.287855484774195
 10
55.77179274798194
 20
28.987706508215858
 10
55.919648620315925
 20
28.711087627168638
 10
56.118629150101526
 20
28.468629150101524
 10
56.36108762716864
 20
28.26964862031593
 10
56.63770650821586
 20
28.121792747981942
 10
56.9378554847742
 20
28.03074355135483
 10
57.25
 20
28.0
 10
70.85000000000001
 20
28.0
 10
71.16214451522582
 20
28.03074355135483
 10
71.46229349178415
 20
28.121792747981942
 10
71.73891237283136
 20
28.269648620315927
 10
71.98137084989848
 20
28.468629150101524
 10
72.18035137968408
 20
28.711087627168638
 10
72.32820725201807
 20
28.987706508215858
 10
72.41925644864517
 20
29.287855484774195
 10
72.45
 20
29.6
  0
LWPOLYLINE
  5
AD
330
17
100
AcDbEntity
  8
A1_FLEX_CUTOUTS_PROPOSED
100
AcDbPolyline
 90
36
 70
1
 10
72.75
 20
45.75
 10
72.71349203276613
 20
46.120671611830645
 10
72.60537111177143
 20
46.47709852149367
 10
72.42979226337484
 20
46.805583442737245
 10
72.19350288425443
 20
47.09350288425444
 10
71.90558344273724
 20
47.329792263374834
 10
71.57709852149367
 20
47.505371111771446
 10
71.22067161183064
 20
47.61349203276614
 10
70.85
 20
47.65
 10
57.24999999999999
 20
47.65
 10
56.87932838816935
 20
47.61349203276614
 10
56.52290147850632
 20
47.505371111771446
 10
56.19441655726275
 20
47.329792263374834
 10
55.90649711574555
 20
47.09350288425444
 10
55.67020773662516
 20
46.805583442737245
 10
55.49462888822855
 20
46.47709852149367
 10
55.386507967233854
 20
46.120671611830645
 10
55.349999999999994
 20
45.75
 10
55.349999999999994
 20
29.599999999999994
 10
55.386507967233854
 20
29.22932838816935
 10
55.49462888822855
 20
28.872901478506325
 10
55.67020773662516
 20
28.54441655726275
 10
55.90649711574555
 20
28.256497115745553
 10
56.19441655726275
 20
28.02020773662516
 10
56.52290147850632
 20
27.84462888822855
 10
56.87932838816935
 20
27.736507967233855
 10
57.24999999999999
 20
27.699999999999996
 10
70.85
 20
27.699999999999996
 10
71.22067161183064
 20
27.736507967233855
 10
71.57709852149367
 20
27.84462888822855
 10
71.90558344273724
 20
28.020207736625157
 10
72.19350288425443
 20
28.256497115745553
 10
72.42979226337484
 20
28.54441655726275
 10
72.60537111177143
 20
28.872901478506325
 10
72.71349203276613
 20
29.22932838816935
 10
72.75
 20
29.599999999999994
  0
LWPOLYLINE
  5
AE
330
17
100
AcDbEntity
  8
REF_LAND_BOSSES
100
AcDbPolyline
 90
36
 70
1
 10
71.2
 20
97.25
 10
71.16925644864517
 20
97.56214451522581
 10
71.07820725201806
 20
97.86229349178414
 10
70.93035137968408
 20
98.13891237283136
 10
70.73137084989848
 20
98.38137084989847
 10
70.48891237283138
 20
98.58035137968407
 10
70.21229349178415
 20
98.72820725201805
 10
69.91214451522582
 20
98.81925644864516
 10
69.60000000000001
 20
98.85
 10
57.4
 20
98.85
 10
57.087855484774195
 20
98.81925644864516
 10
56.787706508215855
 20
98.72820725201805
 10
56.511087627168635
 20
98.58035137968407
 10
56.268629150101525
 20
98.38137084989847
 10
56.069648620315924
 20
98.13891237283136
 10
55.92179274798194
 20
97.86229349178414
 10
55.83074355135483
 20
97.56214451522581
 10
55.8
 20
97.25
 10
55.8
 20
87.35
 10
55.83074355135483
 20
87.03785548477418
 10
55.92179274798194
 20
86.73770650821585
 10
56.069648620315924
 20
86.46108762716862
 10
56.268629150101525
 20
86.21862915010152
 10
56.511087627168635
 20
86.01964862031592
 10
56.787706508215855
 20
85.87179274798194
 10
57.087855484774195
 20
85.78074355135483
 10
57.4
 20
85.75
 10
69.60000000000001
 20
85.75
 10
69.91214451522582
 20
85.78074355135483
 10
70.21229349178415
 20
85.87179274798194
 10
70.48891237283136
 20
86.01964862031592
 10
70.73137084989848
 20
86.21862915010152
 10
70.93035137968408
 20
86.46108762716864
 10
71.07820725201807
 20
86.73770650821585
 10
71.16925644864517
 20
87.03785548477418
 10
71.2
 20
87.35
  0
LWPOLYLINE
  5
AF
330
17
100
AcDbEntity
  8
A1_FLEX_CUTOUTS_PROPOSED
100
AcDbPolyline
 90
36
 70
1
 10
71.5
 20
97.24999999999999
 10
71.46349203276613
 20
97.62067161183063
 10
71.35537111177143
 20
97.97709852149366
 10
71.17979226337484
 20
98.30558344273723
 10
70.94350288425443
 20
98.59350288425442
 10
70.65558344273724
 20
98.82979226337483
 10
70.32709852149367
 20
99.00537111177142
 10
69.97067161183064
 20
99.11349203276612
 10
69.6
 20
99.14999999999999
 10
57.4
 20
99.14999999999999
 10
57.029328388169354
 20
99.11349203276612
 10
56.672901478506326
 20
99.00537111177142
 10
56.344416557262754
 20
98.82979226337483
 10
56.05649711574556
 20
98.59350288425442
 10
55.820207736625164
 20
98.30558344273723
 10
55.64462888822855
 20
97.97709852149366
 10
55.53650796723386
 20
97.62067161183063
 10
55.5
 20
97.24999999999999
 10
55.5
 20
87.35000000000001
 10
55.53650796723386
 20
86.97932838816936
 10
55.64462888822855
 20
86.62290147850634
 10
55.820207736625164
 20
86.29441655726276
 10
56.05649711574556
 20
86.00649711574557
 10
56.344416557262754
 20
85.77020773662517
 10
56.672901478506326
 20
85.59462888822857
 10
57.029328388169354
 20
85.48650796723388
 10
57.4
 20
85.45
 10
69.6
 20
85.45
 10
69.97067161183064
 20
85.48650796723388
 10
70.32709852149367
 20
85.59462888822857
 10
70.65558344273724
 20
85.77020773662517
 10
70.94350288425443
 20
86.00649711574557
 10
71.17979226337484
 20
86.29441655726276
 10
71.35537111177143
 20
86.62290147850634
 10
71.46349203276613
 20
86.97932838816936
 10
71.5
 20
87.35000000000001
  0
LWPOLYLINE
  5
B0
330
17
100
AcDbEntity
  8
REF_LAND_BOSSES
100
AcDbPolyline
 90
36
 70
1
 10
51.3
 20
110.00000000000001
 10
51.269256448645166
 20
110.31214451522582
 10
51.178207252018055
 20
110.61229349178416
 10
51.03035137968407
 20
110.88891237283138
 10
50.83137084989847
 20
111.13137084989849
 10
50.58891237283136
 20
111.33035137968409
 10
50.31229349178414
 20
111.47820725201807
 10
50.0121445152258
 20
111.56925644864518
 10
49.699999999999996
 20
111.60000000000001
 10
35.1
 20
111.60000000000001
 10
34.7878554847742
 20
111.56925644864518
 10
34.48770650821586
 20
111.47820725201807
 10
34.21108762716864
 20
111.33035137968409
 10
33.96862915010153
 20
111.13137084989849
 10
33.76964862031593
 20
110.88891237283138
 10
33.62179274798194
 20
110.61229349178416
 10
33.53074355135483
 20
110.31214451522582
 10
33.5
 20
110.00000000000001
 10
33.5
 20
104.8
 10
33.53074355135483
 20
104.48785548477419
 10
33.62179274798194
 20
104.18770650821585
 10
33.76964862031593
 20
103.91108762716863
 10
33.96862915010153
 20
103.66862915010152
 10
34.21108762716864
 20
103.46964862031592
 10
34.48770650821586
 20
103.32179274798193
 10
34.7878554847742
 20
103.23074355135483
 10
35.1
 20
103.2
 10
49.699999999999996
 20
103.2
 10
50.0121445152258
 20
103.23074355135483
 10
50.31229349178414
 20
103.32179274798195
 10
50.58891237283136
 20
103.46964862031592
 10
50.83137084989847
 20
103.66862915010152
 10
51.03035137968407
 20
103.91108762716863
 10
51.178207252018055
 20
104.18770650821585
 10
51.269256448645166
 20
104.48785548477419
 10
51.3
 20
104.8
  0
LWPOLYLINE
  5
B1
330
17
100
AcDbEntity
  8
A1_FLEX_CUTOUTS_PROPOSED
100
AcDbPolyline
 90
36
 70
1
 10
51.6
 20
110.0
 10
51.56349203276614
 20
110.37067161183064
 10
51.45537111177145
 20
110.72709852149367
 10
51.27979226337484
 20
111.05558344273724
 10
51.043502884254444
 20
111.34350288425443
 10
50.75558344273725
 20
111.57979226337484
 10
50.427098521493676
 20
111.75537111177144
 10
50.07067161183065
 20
111.86349203276613
 10
49.7
 20
111.9
 10
35.099999999999994
 20
111.9
 10
34.72932838816935
 20
111.86349203276613
 10
34.37290147850632
 20
111.75537111177144
 10
34.04441655726275
 20
111.57979226337484
 10
33.75649711574555
 20
111.34350288425443
 10
33.52020773662516
 20
111.05558344273724
 10
33.34462888822855
 20
110.72709852149367
 10
33.236507967233855
 20
110.37067161183064
 10
33.199999999999996
 20
110.0
 10
33.199999999999996
 20
104.80000000000001
 10
33.236507967233855
 20
104.42932838816937
 10
33.34462888822855
 20
104.07290147850634
 10
33.52020773662516
 20
103.74441655726277
 10
33.75649711574555
 20
103.45649711574558
 10
34.04441655726275
 20
103.22020773662517
 10
34.37290147850632
 20
103.04462888822857
 10
34.72932838816935
 20
102.93650796723388
 10
35.099999999999994
 20
102.9
 10
49.7
 20
102.9
 10
50.07067161183065
 20
102.93650796723388
 10
50.427098521493676
 20
103.04462888822857
 10
50.75558344273725
 20
103.22020773662517
 10
51.043502884254444
 20
103.45649711574558
 10
51.27979226337484
 20
103.74441655726277
 10
51.45537111177145
 20
104.07290147850634
 10
51.56349203276614
 20
104.42932838816937
 10
51.6
 20
104.80000000000001
  0
LWPOLYLINE
  5
B2
330
17
100
AcDbEntity
  8
REF_LAND_BOSSES
100
AcDbPolyline
 90
36
 70
1
 10
46.9
 20
19.1
 10
46.83274848141131
 20
19.78281612705645
 10
46.6335783637895
 20
20.439392013277814
 10
46.31014364305891
 20
21.04449581556861
 10
45.874873734152914
 20
21.574873734152916
 10
45.34449581556861
 20
22.01014364305891
 10
44.739392013277815
 20
22.333578363789506
 10
44.08281612705645
 20
22.532748481411307
 10
43.4
 20
22.6
 10
43.4
 20
22.6
 10
42.71718387294355
 20
22.532748481411307
 10
42.06060798672218
 20
22.333578363789506
 10
41.45550418443139
 20
22.01014364305891
 10
40.925126265847084
 20
21.574873734152916
 10
40.48985635694109
 20
21.04449581556861
 10
40.166421636210494
 20
20.439392013277818
 10
39.96725151858869
 20
19.78281612705645
 10
39.9
 20
19.1
 10
39.9
 20
19.1
 10
39.96725151858869
 20
18.417183872943554
 10
40.166421636210494
 20
17.76060798672219
 10
40.48985635694109
 20
17.155504184431393
 10
40.925126265847084
 20
16.625126265847086
 10
41.45550418443139
 20
16.189856356941092
 10
42.06060798672218
 20
15.866421636210497
 10
42.71718387294355
 20
15.667251518588696
 10
43.4
 20
15.600000000000001
 10
43.4
 20
15.600000000000001
 10
44.08281612705645
 20
15.667251518588696
 10
44.739392013277815
 20
15.866421636210498
 10
45.34449581556861
 20
16.189856356941092
 10
45.874873734152914
 20
16.625126265847086
 10
46.31014364305891
 20
17.155504184431393
 10
46.6335783637895
 20
17.76060798672219
 10
46.83274848141131
 20
18.41718387294355
 10
46.9
 20
19.1
  0
LWPOLYLINE
  5
B3
330
17
100
AcDbEntity
  8
A1_FLEX_CUTOUTS_PROPOSED
100
AcDbPolyline
 90
36
 70
1
 10
47.199999999999996
 20
19.1
 10
47.12698406553228
 20
19.84134322366129
 10
46.91074222354289
 20
20.554197042987344
 10
46.55958452674967
 20
21.21116688547449
 10
46.08700576850888
 20
21.78700576850888
 10
45.51116688547449
 20
22.259584526749673
 10
44.85419704298734
 20
22.610742223542893
 10
44.14134322366129
 20
22.826984065532276
 10
43.4
 20
22.900000000000002
 10
43.4
 20
22.900000000000002
 10
42.65865677633871
 20
22.826984065532276
 10
41.94580295701266
 20
22.610742223542893
 10
41.28883311452551
 20
22.259584526749673
 10
40.712994231491116
 20
21.787005768508884
 10
40.24041547325032
 20
21.21116688547449
 10
39.88925777645711
 20
20.554197042987344
 10
39.67301593446772
 20
19.841343223661287
 10
39.6
 20
19.1
 10
39.6
 20
19.1
 10
39.67301593446772
 20
18.358656776338712
 10
39.88925777645711
 20
17.64580295701266
 10
40.24041547325033
 20
16.988833114525512
 10
40.712994231491116
 20
16.412994231491123
 10
41.28883311452551
 20
15.94041547325033
 10
41.94580295701266
 20
15.589257776457112
 10
42.65865677633871
 20
15.373015934467727
 10
43.4
 20
15.3
 10
43.4
 20
15.3
 10
44.14134322366129
 20
15.373015934467727
 10
44.85419704298734
 20
15.589257776457112
 10
45.51116688547449
 20
15.94041547325033
 10
46.08700576850888
 20
16.41299423149112
 10
46.55958452674967
 20
16.988833114525512
 10
46.91074222354289
 20
17.645802957012663
 10
47.12698406553228
 20
18.358656776338712
 10
47.199999999999996
 20
19.1
  0
LWPOLYLINE
  5
B4
330
17
100
AcDbEntity
  8
REF_LAND_BOSSES
100
AcDbPolyline
 90
36
 70
1
 10
68.15
 20
19.4
 10
68.08274848141131
 20
20.082816127056446
 10
67.88357836378951
 20
20.73939201327781
 10
67.56014364305891
 20
21.344495815568607
 10
67.12487373415293
 20
21.874873734152914
 10
66.59449581556862
 20
22.310143643058908
 10
65.98939201327782
 20
22.633578363789503
 10
65.33281612705646
 20
22.832748481411304
 10
64.65
 20
22.9
 10
64.65
 20
22.9
 10
63.96718387294356
 20
22.832748481411304
 10
63.31060798672219
 20
22.633578363789503
 10
62.7055041844314
 20
22.310143643058908
 10
62.17512626584709
 20
21.874873734152914
 10
61.7398563569411
 20
21.344495815568607
 10
61.4164216362105
 20
20.739392013277815
 10
61.2172515185887
 20
20.082816127056446
 10
61.150000000000006
 20
19.4
 10
61.150000000000006
 20
19.4
 10
61.2172515185887
 20
18.71718387294355
 10
61.4164216362105
 20
18.060607986722186
 10
61.7398563569411
 20
17.45550418443139
 10
62.17512626584709
 20
16.925126265847084
 10
62.7055041844314
 20
16.48985635694109
 10
63.31060798672219
 20
16.166421636210494
 10
63.96718387294356
 20
15.967251518588693
 10
64.65
 20
15.899999999999999
 10
64.65
 20
15.899999999999999
 10
65.33281612705646
 20
15.967251518588693
 10
65.98939201327782
 20
16.166421636210494
 10
66.5944958155686
 20
16.48985635694109
 10
67.12487373415293
 20
16.925126265847084
 10
67.56014364305891
 20
17.45550418443139
 10
67.88357836378951
 20
18.060607986722186
 10
68.08274848141131
 20
18.717183872943547
 10
68.15
 20
19.4
  0
LWPOLYLINE
  5
B5
330
17
100
AcDbEntity
  8
A1_FLEX_CUTOUTS_PROPOSED
100
AcDbPolyline
 90
36
 70
1
 10
68.45
 20
19.4
 10
68.37698406553228
 20
20.141343223661288
 10
68.1607422235429
 20
20.85419704298734
 10
67.80958452674967
 20
21.511166885474488
 10
67.33700576850889
 20
22.087005768508877
 10
66.7611668854745
 20
22.55958452674967
 10
66.10419704298735
 20
22.91074222354289
 10
65.3913432236613
 20
23.126984065532273
 10
64.65
 20
23.2
 10
64.65
 20
23.2
 10
63.90865677633872
 20
23.126984065532273
 10
63.19580295701267
 20
22.91074222354289
 10
62.53883311452552
 20
22.55958452674967
 10
61.96299423149112
 20
22.08700576850888
 10
61.49041547325034
 20
21.511166885474488
 10
61.139257776457114
 20
20.85419704298734
 10
60.92301593446773
 20
20.141343223661284
 10
60.85000000000001
 20
19.4
 10
60.85000000000001
 20
19.4
 10
60.92301593446773
 20
18.65865677633871
 10
61.139257776457114
 20
17.945802957012656
 10
61.49041547325034
 20
17.28883311452551
 10
61.96299423149112
 20
16.71299423149112
 10
62.53883311452552
 20
16.240415473250327
 10
63.19580295701267
 20
15.889257776457109
 10
63.90865677633872
 20
15.673015934467724
 10
64.65
 20
15.599999999999998
 10
64.65
 20
15.599999999999998
 10
65.3913432236613
 20
15.673015934467724
 10
66.10419704298735
 20
15.889257776457109
 10
66.7611668854745
 20
16.240415473250327
 10
67.33700576850889
 20
16.712994231491116
 10
67.80958452674967
 20
17.28883311452551
 10
68.1607422235429
 20
17.94580295701266
 10
68.37698406553228
 20
18.65865677633871
 10
68.45
 20
19.4
  0
LWPOLYLINE
  5
B6
330
17
100
AcDbEntity
  8
REF_LAND_BOSSES
100
AcDbPolyline
 90
36
 70
1
 10
49.9
 20
96.7
 10
49.87117792060484
 20
96.9926354830242
 10
49.78581929876693
 20
97.27402514854764
 10
49.64720441845382
 20
97.5333553495294
 10
49.46066017177982
 20
97.76066017177982
 10
49.233355349529404
 20
97.94720441845382
 10
48.97402514854763
 20
98.08581929876694
 10
48.69263548302419
 20
98.17117792060485
 10
48.4
 20
98.2
 10
36.6
 20
98.2
 10
36.30736451697581
 20
98.17117792060485
 10
36.02597485145237
 20
98.08581929876694
 10
35.766644650470596
 20
97.94720441845382
 10
35.53933982822018
 20
97.76066017177982
 10
35.35279558154618
 20
97.5333553495294
 10
35.21418070123307
 20
97.27402514854764
 10
35.12882207939516
 20
96.9926354830242
 10
35.1
 20
96.7
 10
35.1
 20
87.3
 10
35.12882207939516
 20
87.0073645169758
 10
35.21418070123307
 20
86.72597485145236
 10
35.35279558154618
 20
86.4666446504706
 10
35.53933982822018
 20
86.23933982822018
 10
35.766644650470596
 20
86.05279558154618
 10
36.02597485145237
 20
85.91418070123306
 10
36.30736451697581
 20
85.82882207939515
 10
36.6
 20
85.8
 10
48.4
 20
85.8
 10
48.69263548302419
 20
85.82882207939515
 10
48.97402514854763
 20
85.91418070123306
 10
49.233355349529404
 20
86.05279558154618
 10
49.46066017177982
 20
86.23933982822018
 10
49.64720441845382
 20
86.4666446504706
 10
49.78581929876693
 20
86.72597485145236
 10
49.87117792060484
 20
87.0073645169758
 10
49.9
 20
87.3
  0
LWPOLYLINE
  5
B7
330
17
100
AcDbEntity
  8
A1_FLEX_CUTOUTS_PROPOSED
100
AcDbPolyline
 90
36
 70
1
 10
50.2
 20
96.7
 10
50.16541350472582
 20
97.05116257962904
 10
50.062983158520325
 20
97.38883017825717
 10
49.896645302144584
 20
97.70002641943529
 10
49.67279220613579
 20
97.9727922061358
 10
49.40002641943529
 20
98.19664530214459
 10
49.08883017825717
 20
98.36298315852032
 10
48.75116257962904
 20
98.46541350472582
 10
48.400000000000006
 20
98.5
 10
36.599999999999994
 20
98.5
 10
36.24883742037096
 20
98.46541350472582
 10
35.91116982174283
 20
98.36298315852032
 10
35.59997358056471
 20
98.19664530214459
 10
35.32720779386421
 20
97.9727922061358
 10
35.103354697855416
 20
97.70002641943529
 10
34.937016841479675
 20
97.38883017825717
 10
34.83458649527418
 20
97.05116257962904
 10
34.8
 20
96.7
 10
34.8
 20
87.3
 10
34.83458649527418
 20
86.94883742037096
 10
34.937016841479675
 20
86.61116982174283
 10
35.103354697855416
 20
86.29997358056471
 10
35.32720779386421
 20
86.0272077938642
 10
35.59997358056471
 20
85.80335469785541
 10
35.91116982174283
 20
85.63701684147968
 10
36.24883742037096
 20
85.53458649527418
 10
36.599999999999994
 20
85.5
 10
48.400000000000006
 20
85.5
 10
48.75116257962904
 20
85.53458649527418
 10
49.08883017825717
 20
85.63701684147968
 10
49.40002641943529
 20
85.80335469785541
 10
49.67279220613579
 20
86.0272077938642
 10
49.896645302144584
 20
86.29997358056471
 10
50.062983158520325
 20
86.61116982174283
 10
50.16541350472582
 20
86.94883742037096
 10
50.2
 20
87.3
  0
LWPOLYLINE
  5
B8
330
17
100
AcDbEntity
  8
REF_LIGHT_WINDOWS
100
AcDbPolyline
 90
36
 70
1
 10
45.04
 20
113.9
 10
45.028471168241936
 20
114.01705419320969
 10
44.99432771950677
 20
114.12961005941906
 10
44.938881767381524
 20
114.23334213981177
 10
44.864264068711925
 20
114.32426406871194
 10
44.77334213981176
 20
114.39888176738154
 10
44.66961005941905
 20
114.45432771950678
 10
44.55705419320967
 20
114.48847116824194
 10
44.44
 20
114.5
 10
38.64
 20
114.5
 10
38.522945806790325
 20
114.48847116824194
 10
38.41038994058095
 20
114.45432771950678
 10
38.30665786018824
 20
114.39888176738154
 10
38.21573593128807
 20
114.32426406871194
 10
38.141118232618474
 20
114.23334213981177
 10
38.08567228049323
 20
114.12961005941906
 10
38.05152883175806
 20
114.01705419320969
 10
38.04
 20
113.9
 10
38.04
 20
113.5
 10
38.05152883175806
 20
113.38294580679032
 10
38.08567228049323
 20
113.27038994058094
 10
38.141118232618474
 20
113.16665786018824
 10
38.21573593128807
 20
113.07573593128807
 10
38.30665786018824
 20
113.00111823261847
 10
38.41038994058095
 20
112.94567228049323
 10
38.522945806790325
 20
112.91152883175806
 10
38.64
 20
112.9
 10
44.44
 20
112.9
 10
44.55705419320967
 20
112.91152883175806
 10
44.66961005941905
 20
112.94567228049323
 10
44.77334213981176
 20
113.00111823261847
 10
44.864264068711925
 20
113.07573593128807
 10
44.938881767381524
 20
113.16665786018824
 10
44.99432771950677
 20
113.27038994058094
 10
45.028471168241936
 20
113.38294580679032
 10
45.04
 20
113.5
  0
LWPOLYLINE
  5
B9
330
17
100
AcDbEntity
  8
REF_LIGHT_WINDOWS
100
AcDbPolyline
 90
36
 70
1
 10
54.03
 20
93.4
 10
54.01078528040323
 20
93.59509032201613
 10
53.95387953251129
 20
93.78268343236509
 10
53.86146961230255
 20
93.95557023301961
 10
53.73710678118655
 20
94.10710678118656
 10
53.5855702330196
 20
94.23146961230255
 10
53.41268343236509
 20
94.3238795325113
 10
53.22509032201613
 20
94.38078528040323
 10
53.03
 20
94.4
 10
52.03
 20
94.4
 10
51.83490967798387
 20
94.38078528040323
 10
51.64731656763491
 20
94.3238795325113
 10
51.4744297669804
 20
94.23146961230255
 10
51.322893218813455
 20
94.10710678118656
 10
51.19853038769745
 20
93.95557023301961
 10
51.106120467488715
 20
93.78268343236509
 10
51.04921471959677
 20
93.59509032201613
 10
51.03
 20
93.4
 10
51.03
 20
90.4
 10
51.04921471959677
 20
90.20490967798388
 10
51.106120467488715
 20
90.01731656763492
 10
51.19853038769745
 20
89.8444297669804
 10
51.322893218813455
 20
89.69289321881345
 10
51.4744297669804
 20
89.56853038769746
 10
51.64731656763491
 20
89.47612046748871
 10
51.83490967798387
 20
89.41921471959678
 10
52.03
 20
89.4
 10
53.03
 20
89.4
 10
53.22509032201613
 20
89.41921471959678
 10
53.41268343236509
 20
89.47612046748871
 10
53.5855702330196
 20
89.56853038769746
 10
53.73710678118655
 20
89.69289321881345
 10
53.86146961230255
 20
89.8444297669804
 10
53.95387953251129
 20
90.01731656763492
 10
54.01078528040323
 20
90.20490967798388
 10
54.03
 20
90.4
  0
LWPOLYLINE
  5
BA
330
17
100
AcDbEntity
  8
REF_LIGHT_WINDOWS
100
AcDbPolyline
 90
36
 70
1
 10
54.42
 20
67.76
 10
54.400785280403234
 20
67.95509032201613
 10
54.34387953251129
 20
68.14268343236509
 10
54.25146961230255
 20
68.31557023301961
 10
54.12710678118655
 20
68.46710678118656
 10
53.9755702330196
 20
68.59146961230255
 10
53.80268343236509
 20
68.6838795325113
 10
53.61509032201613
 20
68.74078528040323
 10
53.42
 20
68.76
 10
52.42
 20
68.76
 10
52.224909677983874
 20
68.74078528040323
 10
52.03731656763491
 20
68.6838795325113
 10
51.8644297669804
 20
68.59146961230255
 10
51.712893218813456
 20
68.46710678118656
 10
51.58853038769745
 20
68.31557023301961
 10
51.496120467488716
 20
68.14268343236509
 10
51.43921471959677
 20
67.95509032201613
 10
51.42
 20
67.76
 10
51.42
 20
64.76
 10
51.43921471959677
 20
64.56490967798388
 10
51.496120467488716
 20
64.37731656763492
 10
51.58853038769745
 20
64.2044297669804
 10
51.712893218813456
 20
64.05289321881345
 10
51.8644297669804
 20
63.92853038769746
 10
52.03731656763491
 20
63.83612046748872
 10
52.224909677983874
 20
63.77921471959677
 10
52.42
 20
63.760000000000005
 10
53.42
 20
63.760000000000005
 10
53.61509032201613
 20
63.77921471959677
 10
53.80268343236509
 20
63.83612046748872
 10
53.9755702330196
 20
63.92853038769746
 10
54.12710678118655
 20
64.05289321881345
 10
54.25146961230255
 20
64.2044297669804
 10
54.34387953251129
 20
64.37731656763492
 10
54.400785280403234
 20
64.56490967798388
 10
54.42
 20
64.76
  0
LWPOLYLINE
  5
BB
330
17
100
AcDbEntity
  8
REF_LIGHT_WINDOWS
100
AcDbPolyline
 90
36
 70
1
 10
55.01
 20
38.54
 10
54.99078528040323
 20
38.73509032201613
 10
54.933879532511284
 20
38.92268343236509
 10
54.84146961230255
 20
39.0955702330196
 10
54.717106781186544
 20
39.247106781186545
 10
54.5655702330196
 20
39.37146961230255
 10
54.39268343236509
 20
39.463879532511285
 10
54.205090322016126
 20
39.52078528040323
 10
54.01
 20
39.54
 10
53.01
 20
39.54
 10
52.81490967798387
 20
39.52078528040323
 10
52.62731656763491
 20
39.463879532511285
 10
52.4544297669804
 20
39.37146961230255
 10
52.30289321881345
 20
39.247106781186545
 10
52.17853038769745
 20
39.0955702330196
 10
52.08612046748871
 20
38.92268343236509
 10
52.029214719596766
 20
38.73509032201613
 10
52.01
 20
38.54
 10
52.01
 20
34.54
 10
52.029214719596766
 20
34.34490967798387
 10
52.08612046748871
 20
34.15731656763491
 10
52.17853038769745
 20
33.9844297669804
 10
52.30289321881345
 20
33.83289321881345
 10
52.4544297669804
 20
33.70853038769745
 10
52.62731656763491
 20
33.61612046748871
 10
52.81490967798387
 20
33.55921471959677
 10
53.01
 20
33.54
 10
54.01
 20
33.54
 10
54.205090322016126
 20
33.55921471959677
 10
54.39268343236509
 20
33.61612046748871
 10
54.5655702330196
 20
33.70853038769745
 10
54.717106781186544
 20
33.83289321881345
 10
54.84146961230255
 20
33.9844297669804
 10
54.933879532511284
 20
34.15731656763491
 10
54.99078528040323
 20
34.34490967798387
 10
55.01
 20
34.54
  0
LWPOLYLINE
  5
BC
330
17
100
AcDbEntity
  8
REF_LIGHT_WINDOWS
100
AcDbPolyline
 90
36
 70
1
 10
45.4
 20
13.429999999999998
 10
45.38462822432258
 20
13.586072257612901
 10
45.33910362600903
 20
13.73614674589207
 10
45.26517568984204
 20
13.87445618641568
 10
45.16568542494924
 20
13.995685424949237
 10
45.04445618641569
 20
14.095175689842034
 10
44.90614674589207
 20
14.169103626009028
 10
44.75607225761291
 20
14.214628224322583
 10
44.6
 20
14.229999999999999
 10
42.199999999999996
 20
14.229999999999999
 10
42.04392774238709
 20
14.214628224322583
 10
41.893853254107924
 20
14.169103626009028
 10
41.75554381358431
 20
14.095175689842034
 10
41.63431457505076
 20
13.995685424949237
 10
41.53482431015796
 20
13.87445618641568
 10
41.46089637399097
 20
13.73614674589207
 10
41.415371775677414
 20
13.586072257612901
 10
41.4
 20
13.429999999999998
 10
41.4
 20
12.63
 10
41.415371775677414
 20
12.473927742387097
 10
41.46089637399096
 20
12.323853254107929
 10
41.53482431015796
 20
12.185543813584319
 10
41.63431457505076
 20
12.064314575050762
 10
41.75554381358431
 20
11.964824310157965
 10
41.893853254107924
 20
11.890896373990971
 10
42.04392774238709
 20
11.845371775677416
 10
42.199999999999996
 20
11.83
 10
44.6
 20
11.83
 10
44.75607225761291
 20
11.845371775677416
 10
44.90614674589207
 20
11.890896373990971
 10
45.04445618641568
 20
11.964824310157965
 10
45.16568542494924
 20
12.064314575050762
 10
45.26517568984204
 20
12.185543813584319
 10
45.339103626009035
 20
12.323853254107929
 10
45.38462822432258
 20
12.473927742387097
 10
45.4
 20
12.63
  0
LWPOLYLINE
  5
BD
330
17
100
AcDbEntity
  8
REF_LIGHT_WINDOWS
100
AcDbPolyline
 90
36
 70
1
 10
65.85
 20
13.849999999999998
 10
65.83462822432259
 20
14.006072257612901
 10
65.78910362600902
 20
14.15614674589207
 10
65.71517568984203
 20
14.29445618641568
 10
65.61568542494923
 20
14.415685424949237
 10
65.49445618641568
 20
14.515175689842033
 10
65.35614674589208
 20
14.589103626009027
 10
65.2060722576129
 20
14.634628224322583
 10
65.05
 20
14.649999999999999
 10
62.65
 20
14.649999999999999
 10
62.49392774238709
 20
14.634628224322583
 10
62.34385325410793
 20
14.589103626009027
 10
62.20554381358431
 20
14.515175689842033
 10
62.08431457505076
 20
14.415685424949237
 10
61.98482431015796
 20
14.29445618641568
 10
61.91089637399097
 20
14.15614674589207
 10
61.86537177567742
 20
14.0060722576129
 10
61.85
 20
13.849999999999998
 10
61.85
 20
13.05
 10
61.86537177567742
 20
12.893927742387097
 10
61.910896373990965
 20
12.743853254107929
 10
61.98482431015796
 20
12.605543813584319
 10
62.08431457505076
 20
12.484314575050762
 10
62.20554381358431
 20
12.384824310157965
 10
62.34385325410793
 20
12.310896373990971
 10
62.49392774238709
 20
12.265371775677416
 10
62.65
 20
12.25
 10
65.05
 20
12.25
 10
65.2060722576129
 20
12.265371775677416
 10
65.35614674589208
 20
12.310896373990971
 10
65.49445618641568
 20
12.384824310157963
 10
65.61568542494923
 20
12.484314575050762
 10
65.71517568984203
 20
12.605543813584319
 10
65.78910362600902
 20
12.743853254107929
 10
65.83462822432259
 20
12.893927742387097
 10
65.85
 20
13.05
  0
TEXT
  5
BE
330
17
100
AcDbEntity
  8
NOTES
100
AcDbText
 10
20.0
 20
-22.0
 30
0.0
 40
1.6
  1
821-2222 I/O-wall flex trace (plate-facing side, back view, mm) from Aidan photo 3ea4e6e5; homography rms 0.41 mm; VERIFY by caliper
 11
20.0
 21
-22.0
 31
0.0
100
AcDbText
  0
ENDSEC
  0
SECTION
  2
OBJECTS
  0
DICTIONARY
  5
A
330
0
100
AcDbDictionary
281
1
  3
ACAD_COLOR
350
B
  3
ACAD_GROUP
350
C
  3
ACAD_LAYOUT
350
D
  3
ACAD_MATERIAL
350
E
  3
ACAD_MLEADERSTYLE
350
F
  3
ACAD_MLINESTYLE
350
10
  3
ACAD_PLOTSETTINGS
350
11
  3
ACAD_PLOTSTYLENAME
350
12
  3
ACAD_SCALELIST
350
14
  3
ACAD_TABLESTYLE
350
15
  3
ACAD_VISUALSTYLE
350
16
  3
EZDXF_META
350
2D
  0
DICTIONARY
  5
B
330
A
100
AcDbDictionary
281
1
  0
DICTIONARY
  5
C
330
A
100
AcDbDictionary
281
1
  0
DICTIONARY
  5
D
330
A
100
AcDbDictionary
281
1
  3
Model
350
1A
  3
Layout1
350
1E
  0
DICTIONARY
  5
E
330
A
100
AcDbDictionary
281
1
  3
ByBlock
350
1F
  3
ByLayer
350
20
  3
Global
350
21
  0
DICTIONARY
  5
F
330
A
100
AcDbDictionary
281
1
  3
Standard
350
2C
  0
DICTIONARY
  5
10
330
A
100
AcDbDictionary
281
1
  3
Standard
350
22
  0
DICTIONARY
  5
11
330
A
100
AcDbDictionary
281
1
  0
ACDBDICTIONARYWDFLT
  5
12
330
A
100
AcDbDictionary
281
1
  3
Normal
350
13
100
AcDbDictionaryWithDefault
340
13
  0
ACDBPLACEHOLDER
  5
13
330
12
  0
DICTIONARY
  5
14
330
A
100
AcDbDictionary
281
1
  0
DICTIONARY
  5
15
330
A
100
AcDbDictionary
281
1
  0
DICTIONARY
  5
16
330
A
100
AcDbDictionary
281
1
  0
LAYOUT
  5
1A
330
D
100
AcDbPlotSettings
  1

  4
A3
  6

 40
7.5
 41
20.0
 42
7.5
 43
20.0
 44
420.0
 45
297.0
 46
0.0
 47
0.0
 48
0.0
 49
0.0
140
0.0
141
0.0
142
1.0
143
1.0
 70
1024
 72
1
 73
0
 74
5
  7

 75
16
 76
0
 77
2
 78
300
147
1.0
148
0.0
149
0.0
100
AcDbLayout
  1
Model
 70
1
 71
0
 10
0.0
 20
0.0
 11
420.0
 21
297.0
 12
0.0
 22
0.0
 32
0.0
 14
1e+20
 24
1e+20
 34
1e+20
 15
-1e+20
 25
-1e+20
 35
-1e+20
146
0.0
 13
0.0
 23
0.0
 33
0.0
 16
1.0
 26
0.0
 36
0.0
 17
0.0
 27
1.0
 37
0.0
 76
1
330
17
  0
LAYOUT
  5
1E
330
D
100
AcDbPlotSettings
  1

  4
A3
  6

 40
7.5
 41
20.0
 42
7.5
 43
20.0
 44
420.0
 45
297.0
 46
0.0
 47
0.0
 48
0.0
 49
0.0
140
0.0
141
0.0
142
1.0
143
1.0
 70
0
 72
1
 73
0
 74
5
  7

 75
16
 76
0
 77
2
 78
300
147
1.0
148
0.0
149
0.0
100
AcDbLayout
  1
Layout1
 70
1
 71
1
 10
0.0
 20
0.0
 11
420.0
 21
297.0
 12
0.0
 22
0.0
 32
0.0
 14
1e+20
 24
1e+20
 34
1e+20
 15
-1e+20
 25
-1e+20
 35
-1e+20
146
0.0
 13
0.0
 23
0.0
 33
0.0
 16
1.0
 26
0.0
 36
0.0
 17
0.0
 27
1.0
 37
0.0
 76
1
330
1B
  0
MATERIAL
  5
1F
102
{ACAD_REACTORS
330
E
102
}
330
E
100
AcDbMaterial
  1
ByBlock
  2

 70
0
 40
1.0
 71
1
 41
1.0
 91
-1023410177
 42
1.0
 72
1
  3

 73
1
 74
1
 75
1
 44
0.5
 73
0
 45
1.0
 46
1.0
 77
1
  4

 78
1
 79
1
170
1
 48
1.0
171
1
  6

172
1
173
1
174
1
140
1.0
141
1.0
175
1
  7

176
1
177
1
178
1
143
1.0
179
1
  8

270
1
271
1
272
1
145
1.0
146
1.0
273
1
  9

274
1
275
1
276
1
 42
1.0
 72
1
  3

 73
1
 74
1
 75
1
 94
63
  0
MATERIAL
  5
20
102
{ACAD_REACTORS
330
E
102
}
330
E
100
AcDbMaterial
  1
ByLayer
  2

 70
0
 40
1.0
 71
1
 41
1.0
 91
-1023410177
 42
1.0
 72
1
  3

 73
1
 74
1
 75
1
 44
0.5
 73
0
 45
1.0
 46
1.0
 77
1
  4

 78
1
 79
1
170
1
 48
1.0
171
1
  6

172
1
173
1
174
1
140
1.0
141
1.0
175
1
  7

176
1
177
1
178
1
143
1.0
179
1
  8

270
1
271
1
272
1
145
1.0
146
1.0
273
1
  9

274
1
275
1
276
1
 42
1.0
 72
1
  3

 73
1
 74
1
 75
1
 94
63
  0
MATERIAL
  5
21
102
{ACAD_REACTORS
330
E
102
}
330
E
100
AcDbMaterial
  1
Global
  2

 70
0
 40
1.0
 71
1
 41
1.0
 91
-1023410177
 42
1.0
 72
1
  3

 73
1
 74
1
 75
1
 44
0.5
 73
0
 45
1.0
 46
1.0
 77
1
  4

 78
1
 79
1
170
1
 48
1.0
171
1
  6

172
1
173
1
174
1
140
1.0
141
1.0
175
1
  7

176
1
177
1
178
1
143
1.0
179
1
  8

270
1
271
1
272
1
145
1.0
146
1.0
273
1
  9

274
1
275
1
276
1
 42
1.0
 72
1
  3

 73
1
 74
1
 75
1
 94
63
  0
MLINESTYLE
  5
22
102
{ACAD_REACTORS
330
10
102
}
330
10
100
AcDbMlineStyle
  2
Standard
 70
0
  3

 62
256
 51
90.0
 52
90.0
 71
2
 49
0.5
 62
256
  6
BYLAYER
 49
-0.5
 62
256
  6
BYLAYER
  0
MLEADERSTYLE
  5
2C
102
{ACAD_REACTORS
330
F
102
}
330
F
100
AcDbMLeaderStyle
179
2
170
2
171
1
172
0
 90
2
 40
0.0
 41
0.0
173
1
 91
-1056964608
 92
-2
290
1
 42
2.0
291
1
 43
8.0
  3
Standard
 44
4.0
300

342
29
174
1
175
1
176
0
178
1
 93
-1056964608
 45
4.0
292
0
297
0
 46
4.0
 94
-1056964608
 47
1.0
 49
1.0
140
1.0
294
1
141
0.0
177
0
142
1.0
295
0
296
0
143
3.75
271
0
272
9
273
9
  0
DICTIONARY
  5
2D
330
A
100
AcDbDictionary
280
1
281
1
  3
CREATED_BY_EZDXF
350
2E
  3
WRITTEN_BY_EZDXF
350
C1
  0
DICTIONARYVAR
  5
2E
330
2D
100
DictionaryVariables
280
0
  1
1.4.4 @ 2026-10-02T13:06:10.197912+00:00
  0
DICTIONARYVAR
  5
C1
330
2D
100
DictionaryVariables
280
0
  1
1.4.4 @ 2026-10-02T13:06:10.211561+00:00
  0
ENDSEC
  0
EOF
