  0
SECTION
  2
HEADER
  9
$ACADVER
  1
AC1024
  9
$ACADMAINTVER
 70
6
  9
$DWGCODEPAGE
  3
ANSI_1252
  9
$LASTSAVEDBY
  1
ezdxf
  9
$INSBASE
 10
0.0
 20
0.0
 30
0.0
  9
$EXTMIN
 10
1e+20
 20
1e+20
 30
1e+20
  9
$EXTMAX
 10
-1e+20
 20
-1e+20
 30
-1e+20
  9
$LIMMIN
 10
0.0
 20
0.0
  9
$LIMMAX
 10
420.0
 20
297.0
  9
$ORTHOMODE
 70
0
  9
$REGENMODE
 70
1
  9
$FILLMODE
 70
1
  9
$QTEXTMODE
 70
0
  9
$MIRRTEXT
 70
1
  9
$LTSCALE
 40
1.0
  9
$ATTMODE
 70
1
  9
$TEXTSIZE
 40
2.5
  9
$TRACEWID
 40
1.0
  9
$TEXTSTYLE
  7
Standard
  9
$CLAYER
  8
0
  9
$CELTYPE
  6
ByLayer
  9
$CECOLOR
 62
256
  9
$CELTSCALE
 40
1.0
  9
$DISPSILH
 70
0
  9
$DIMSCALE
 40
1.0
  9
$DIMASZ
 40
2.5
  9
$DIMEXO
 40
0.625
  9
$DIMDLI
 40
3.75
  9
$DIMRND
 40
0.0
  9
$DIMDLE
 40
0.0
  9
$DIMEXE
 40
1.25
  9
$DIMTP
 40
0.0
  9
$DIMTM
 40
0.0
  9
$DIMTXT
 40
2.5
  9
$DIMCEN
 40
2.5
  9
$DIMTSZ
 40
0.0
  9
$DIMTOL
 70
0
  9
$DIMLIM
 70
0
  9
$DIMTIH
 70
0
  9
$DIMTOH
 70
0
  9
$DIMSE1
 70
0
  9
$DIMSE2
 70
0
  9
$DIMTAD
 70
1
  9
$DIMZIN
 70
8
  9
$DIMBLK
  1

  9
$DIMASO
 70
1
  9
$DIMSHO
 70
1
  9
$DIMPOST
  1

  9
$DIMAPOST
  1

  9
$DIMALT
 70
0
  9
$DIMALTD
 70
3
  9
$DIMALTF
 40
0.03937007874
  9
$DIMLFAC
 40
1.0
  9
$DIMTOFL
 70
1
  9
$DIMTVP
 40
0.0
  9
$DIMTIX
 70
0
  9
$DIMSOXD
 70
0
  9
$DIMSAH
 70
0
  9
$DIMBLK1
  1

  9
$DIMBLK2
  1

  9
$DIMSTYLE
  2
ISO-25
  9
$DIMCLRD
 70
0
  9
$DIMCLRE
 70
0
  9
$DIMCLRT
 70
0
  9
$DIMTFAC
 40
1.0
  9
$DIMGAP
 40
0.625
  9
$DIMJUST
 70
0
  9
$DIMSD1
 70
0
  9
$DIMSD2
 70
0
  9
$DIMTOLJ
 70
0
  9
$DIMTZIN
 70
8
  9
$DIMALTZ
 70
0
  9
$DIMALTTZ
 70
0
  9
$DIMUPT
 70
0
  9
$DIMDEC
 70
2
  9
$DIMTDEC
 70
2
  9
$DIMALTU
 70
2
  9
$DIMALTTD
 70
3
  9
$DIMTXSTY
  7
Standard
  9
$DIMAUNIT
 70
0
  9
$DIMADEC
 70
0
  9
$DIMALTRND
 40
0.0
  9
$DIMAZIN
 70
0
  9
$DIMDSEP
 70
44
  9
$DIMATFIT
 70
3
  9
$DIMFRAC
 70
0
  9
$DIMLDRBLK
  1

  9
$DIMLUNIT
 70
2
  9
$DIMLWD
 70
-2
  9
$DIMLWE
 70
-2
  9
$DIMTMOVE
 70
0
  9
$DIMFXL
 40
1.0
  9
$DIMFXLON
 70
0
  9
$DIMJOGANG
 40
0.785398163397
  9
$DIMTFILL
 70
0
  9
$DIMTFILLCLR
 70
0
  9
$DIMARCSYM
 70
0
  9
$DIMLTYPE
  6

  9
$DIMLTEX1
  6

  9
$DIMLTEX2
  6

  9
$DIMTXTDIRECTION
 70
0
  9
$LUNITS
 70
2
  9
$LUPREC
 70
4
  9
$SKETCHINC
 40
1.0
  9
$FILLETRAD
 40
10.0
  9
$AUNITS
 70
0
  9
$AUPREC
 70
2
  9
$MENU
  1
.
  9
$ELEVATION
 40
0.0
  9
$PELEVATION
 40
0.0
  9
$THICKNESS
 40
0.0
  9
$LIMCHECK
 70
0
  9
$CHAMFERA
 40
0.0
  9
$CHAMFERB
 40
0.0
  9
$CHAMFERC
 40
0.0
  9
$CHAMFERD
 40
0.0
  9
$SKPOLY
 70
0
  9
$TDCREATE
 40
2461316.3792824075
  9
$TDUCREATE
 40
2458532.153996898
  9
$TDUPDATE
 40
2461316.3792824075
  9
$TDUUPDATE
 40
2458532.1544311
  9
$TDINDWG
 40
0.0
  9
$TDUSRTIMER
 40
0.0
  9
$USRTIMER
 70
1
  9
$ANGBASE
 50
0.0
  9
$ANGDIR
 70
0
  9
$PDMODE
 70
0
  9
$PDSIZE
 40
0.0
  9
$PLINEWID
 40
0.0
  9
$SPLFRAME
 70
0
  9
$SPLINETYPE
 70
6
  9
$SPLINESEGS
 70
8
  9
$HANDSEED
  5
44
  9
$SURFTAB1
 70
6
  9
$SURFTAB2
 70
6
  9
$SURFTYPE
 70
6
  9
$SURFU
 70
6
  9
$SURFV
 70
6
  9
$UCSBASE
  2

  9
$UCSNAME
  2

  9
$UCSORG
 10
0.0
 20
0.0
 30
0.0
  9
$UCSXDIR
 10
1.0
 20
0.0
 30
0.0
  9
$UCSYDIR
 10
0.0
 20
1.0
 30
0.0
  9
$UCSORTHOREF
  2

  9
$UCSORTHOVIEW
 70
0
  9
$UCSORGTOP
 10
0.0
 20
0.0
 30
0.0
  9
$UCSORGBOTTOM
 10
0.0
 20
0.0
 30
0.0
  9
$UCSORGLEFT
 10
0.0
 20
0.0
 30
0.0
  9
$UCSORGRIGHT
 10
0.0
 20
0.0
 30
0.0
  9
$UCSORGFRONT
 10
0.0
 20
0.0
 30
0.0
  9
$UCSORGBACK
 10
0.0
 20
0.0
 30
0.0
  9
$PUCSBASE
  2

  9
$PUCSNAME
  2

  9
$PUCSORG
 10
0.0
 20
0.0
 30
0.0
  9
$PUCSXDIR
 10
1.0
 20
0.0
 30
0.0
  9
$PUCSYDIR
 10
0.0
 20
1.0
 30
0.0
  9
$PUCSORTHOREF
  2

  9
$PUCSORTHOVIEW
 70
0
  9
$PUCSORGTOP
 10
0.0
 20
0.0
 30
0.0
  9
$PUCSORGBOTTOM
 10
0.0
 20
0.0
 30
0.0
  9
$PUCSORGLEFT
 10
0.0
 20
0.0
 30
0.0
  9
$PUCSORGRIGHT
 10
0.0
 20
0.0
 30
0.0
  9
$PUCSORGFRONT
 10
0.0
 20
0.0
 30
0.0
  9
$PUCSORGBACK
 10
0.0
 20
0.0
 30
0.0
  9
$USERI1
 70
0
  9
$USERI2
 70
0
  9
$USERI3
 70
0
  9
$USERI4
 70
0
  9
$USERI5
 70
0
  9
$USERR1
 40
0.0
  9
$USERR2
 40
0.0
  9
$USERR3
 40
0.0
  9
$USERR4
 40
0.0
  9
$USERR5
 40
0.0
  9
$WORLDVIEW
 70
1
  9
$SHADEDGE
 70
3
  9
$SHADEDIF
 70
70
  9
$TILEMODE
 70
1
  9
$MAXACTVP
 70
64
  9
$PINSBASE
 10
0.0
 20
0.0
 30
0.0
  9
$PLIMCHECK
 70
0
  9
$PEXTMIN
 10
1e+20
 20
1e+20
 30
1e+20
  9
$PEXTMAX
 10
-1e+20
 20
-1e+20
 30
-1e+20
  9
$PLIMMIN
 10
0.0
 20
0.0
  9
$PLIMMAX
 10
420.0
 20
297.0
  9
$UNITMODE
 70
0
  9
$VISRETAIN
 70
1
  9
$PLINEGEN
 70
0
  9
$PSLTSCALE
 70
1
  9
$TREEDEPTH
 70
3020
  9
$CMLSTYLE
  2
Standard
  9
$CMLJUST
 70
0
  9
$CMLSCALE
 40
20.0
  9
$PROXYGRAPHICS
 70
1
  9
$MEASUREMENT
 70
1
  9
$CELWEIGHT
370
-1
  9
$ENDCAPS
280
0
  9
$JOINSTYLE
280
0
  9
$LWDISPLAY
290
0
  9
$INSUNITS
 70
6
  9
$HYPERLINKBASE
  1

  9
$STYLESHEET
  1

  9
$XEDIT
290
1
  9
$CEPSNTYPE
380
0
  9
$PSTYLEMODE
290
1
  9
$FINGERPRINTGUID
  2
{9816B4F2-361B-4E81-ABCB-BD53BDC7C9BB}
  9
$VERSIONGUID
  2
{1009FD63-8482-46E0-A988-C4D6ED9DE107}
  9
$EXTNAMES
290
1
  9
$PSVPSCALE
 40
0.0
  9
$OLESTARTUP
290
0
  9
$SORTENTS
280
127
  9
$INDEXCTL
280
0
  9
$HIDETEXT
280
1
  9
$XCLIPFRAME
280
1
  9
$HALOGAP
280
0
  9
$OBSCOLOR
 70
257
  9
$OBSLTYPE
280
0
  9
$INTERSECTIONDISPLAY
280
0
  9
$INTERSECTIONCOLOR
 70
257
  9
$DIMASSOC
280
2
  9
$PROJECTNAME
  1

  9
$CAMERADISPLAY
290
0
  9
$LENSLENGTH
 40
50.0
  9
$CAMERAHEIGHT
 40
0.0
  9
$STEPSPERSEC
 40
24.0
  9
$STEPSIZE
 40
100.0
  9
$3DDWFPREC
 40
2.0
  9
$PSOLWIDTH
 40
0.005
  9
$PSOLHEIGHT
 40
0.08
  9
$LOFTANG1
 40
1.570796326795
  9
$LOFTANG2
 40
1.570796326795
  9
$LOFTMAG1
 40
0.0
  9
$LOFTMAG2
 40
0.0
  9
$LOFTPARAM
 70
7
  9
$LOFTNORMALS
280
1
  9
$LATITUDE
 40
37.795
  9
$LONGITUDE
 40
-122.394
  9
$NORTHDIRECTION
 40
0.0
  9
$TIMEZONE
 70
-8000
  9
$LIGHTGLYPHDISPLAY
280
1
  9
$TILEMODELIGHTSYNCH
280
1
  9
$CMATERIAL
347
20
  9
$SOLIDHIST
280
0
  9
$SHOWHIST
280
1
  9
$DWFFRAME
280
2
  9
$DGNFRAME
280
2
  9
$REALWORLDSCALE
290
1
  9
$INTERFERECOLOR
 62
256
  9
$CSHADOW
280
0
  9
$SHADOWPLANELOCATION
 40
0.0
  0
ENDSEC
  0
SECTION
  2
CLASSES
  0
CLASS
  1
ACDBDICTIONARYWDFLT
  2
AcDbDictionaryWithDefault
  3
ObjectDBX Classes
 90
0
 91
0
280
0
281
0
  0
CLASS
  1
SUN
  2
AcDbSun
  3
SCENEOE
 90
1153
 91
0
280
0
281
0
  0
CLASS
  1
VISUALSTYLE
  2
AcDbVisualStyle
  3
ObjectDBX Classes
 90
4095
 91
0
280
0
281
0
  0
CLASS
  1
MATERIAL
  2
AcDbMaterial
  3
ObjectDBX Classes
 90
1153
 91
0
280
0
281
0
  0
CLASS
  1
SCALE
  2
AcDbScale
  3
ObjectDBX Classes
 90
1153
 91
0
280
0
281
0
  0
CLASS
  1
TABLESTYLE
  2
AcDbTableStyle
  3
ObjectDBX Classes
 90
4095
 91
0
280
0
281
0
  0
CLASS
  1
MLEADERSTYLE
  2
AcDbMLeaderStyle
  3
ACDB_MLEADERSTYLE_CLASS
 90
4095
 91
0
280
0
281
0
  0
CLASS
  1
DICTIONARYVAR
  2
AcDbDictionaryVar
  3
ObjectDBX Classes
 90
0
 91
0
280
0
281
0
  0
CLASS
  1
CELLSTYLEMAP
  2
AcDbCellStyleMap
  3
ObjectDBX Classes
 90
1152
 91
0
280
0
281
0
  0
CLASS
  1
MENTALRAYRENDERSETTINGS
  2
AcDbMentalRayRenderSettings
  3
SCENEOE
 90
1024
 91
0
280
0
281
0
  0
CLASS
  1
ACDBDETAILVIEWSTYLE
  2
AcDbDetailViewStyle
  3
ObjectDBX Classes
 90
1025
 91
0
280
0
281
0
  0
CLASS
  1
ACDBSECTIONVIEWSTYLE
  2
AcDbSectionViewStyle
  3
ObjectDBX Classes
 90
1025
 91
0
280
0
281
0
  0
CLASS
  1
RASTERVARIABLES
  2
AcDbRasterVariables
  3
ISM
 90
0
 91
0
280
0
281
0
  0
CLASS
  1
LAYOUT
  2
AcDbLayout
  3
ObjectDBX Classes
 90
0
 91
0
280
0
281
0
  0
CLASS
  1
ACDBPLACEHOLDER
  2
AcDbPlaceHolder
  3
ObjectDBX Classes
 90
0
 91
0
280
0
281
0
  0
ENDSEC
  0
SECTION
  2
TABLES
  0
TABLE
  2
VPORT
  5
8
330
0
100
AcDbSymbolTable
 70
1
  0
VPORT
  5
23
330
8
100
AcDbSymbolTableRecord
100
AcDbViewportTableRecord
  2
*Active
 70
0
 10
0.0
 20
0.0
 11
1.0
 21
1.0
 12
0.0
 22
0.0
 13
0.0
 23
0.0
 14
0.5
 24
0.5
 15
0.5
 25
0.5
 16
0.0
 26
0.0
 36
1.0
 17
0.0
 27
0.0
 37
0.0
 40
1000.0
 41
1.34
 42
50.0
 43
0.0
 44
0.0
 50
0.0
 51
0.0
 71
0
 72
1000
 73
1
 74
3
 75
0
 76
0
 77
0
 78
0
281
0
 65
0
146
0.0
  0
ENDTAB
  0
TABLE
  2
LTYPE
  5
2
330
0
100
AcDbSymbolTable
 70
3
  0
LTYPE
  5
24
330
2
100
AcDbSymbolTableRecord
100
AcDbLinetypeTableRecord
  2
ByBlock
 70
0
  3

 72
65
 73
0
 40
0.0
  0
LTYPE
  5
25
330
2
100
AcDbSymbolTableRecord
100
AcDbLinetypeTableRecord
  2
ByLayer
 70
0
  3

 72
65
 73
0
 40
0.0
  0
LTYPE
  5
26
330
2
100
AcDbSymbolTableRecord
100
AcDbLinetypeTableRecord
  2
Continuous
 70
0
  3

 72
65
 73
0
 40
0.0
  0
ENDTAB
  0
TABLE
  2
LAYER
  5
1
330
0
100
AcDbSymbolTable
 70
5
  0
LAYER
  5
27
330
1
100
AcDbSymbolTableRecord
100
AcDbLayerTableRecord
  2
0
 70
0
 62
7
  6
Continuous
370
-3
390
13
347
21
  0
LAYER
  5
28
330
1
100
AcDbSymbolTableRecord
100
AcDbLayerTableRecord
  2
Defpoints
 70
0
 62
7
  6
Continuous
290
0
370
-3
390
13
347
21
  0
LAYER
  5
2F
330
1
100
AcDbSymbolTableRecord
100
AcDbLayerTableRecord
  2
CUT_OUTER
 70
0
 62
7
  6
Continuous
370
-3
390
13
347
21
  0
LAYER
  5
30
330
1
100
AcDbSymbolTableRecord
100
AcDbLayerTableRecord
  2
CUT_INNER
 70
0
 62
7
  6
Continuous
370
-3
390
13
347
21
  0
LAYER
  5
31
330
1
100
AcDbSymbolTableRecord
100
AcDbLayerTableRecord
  2
NOTES
 70
0
 62
7
  6
Continuous
370
-3
390
13
347
21
  0
ENDTAB
  0
TABLE
  2
STYLE
  5
5
330
0
100
AcDbSymbolTable
 70
1
  0
STYLE
  5
29
330
5
100
AcDbSymbolTableRecord
100
AcDbTextStyleTableRecord
  2
Standard
 70
0
 40
0.0
 41
1.0
 50
0.0
 71
0
 42
2.5
  3
txt
  4

  0
ENDTAB
  0
TABLE
  2
VIEW
  5
7
330
0
100
AcDbSymbolTable
 70
0
  0
ENDTAB
  0
TABLE
  2
UCS
  5
6
330
0
100
AcDbSymbolTable
 70
0
  0
ENDTAB
  0
TABLE
  2
APPID
  5
3
330
0
100
AcDbSymbolTable
 70
3
  0
APPID
  5
2A
330
3
100
AcDbSymbolTableRecord
100
AcDbRegAppTableRecord
  2
ACAD
 70
0
  0
APPID
  5
41
330
3
100
AcDbSymbolTableRecord
100
AcDbRegAppTableRecord
  2
HATCHBACKGROUNDCOLOR
 70
0
  0
APPID
  5
42
330
3
100
AcDbSymbolTableRecord
100
AcDbRegAppTableRecord
  2
EZDXF
 70
0
  0
ENDTAB
  0
TABLE
  2
DIMSTYLE
  5
4
330
0
100
AcDbSymbolTable
 70
1
100
AcDbDimStyleTable
  0
DIMSTYLE
105
2B
330
4
100
AcDbSymbolTableRecord
100
AcDbDimStyleTableRecord
  2
Standard
 70
0
 40
1.0
 41
2.5
 42
0.625
 43
3.75
 44
1.25
 45
0.0
 46
0.0
 47
0.0
 48
0.0
 49
2.5
140
2.5
141
2.5
142
0.0
143
0.03937007874
144
1.0
145
0.0
146
1.0
147
0.625
148
0.0
 69
0
 70
0
 71
0
 72
0
 73
0
 74
0
 75
0
 76
0
 77
1
 78
8
 79
3
170
0
171
3
172
1
173
0
174
0
175
0
176
0
177
0
178
0
179
2
271
2
272
2
273
2
274
3
275
0
276
0
277
2
278
44
279
0
280
0
281
0
282
0
283
0
284
8
285
0
286
0
288
0
289
3
290
0
371
-2
372
-2
  0
ENDTAB
  0
TABLE
  2
BLOCK_RECORD
  5
9
330
0
100
AcDbSymbolTable
 70
2
  0
BLOCK_RECORD
  5
17
330
9
100
AcDbSymbolTableRecord
100
AcDbBlockTableRecord
  2
*Model_Space
340
1A
 70
0
280
1
281
0
  0
BLOCK_RECORD
  5
1B
330
9
100
AcDbSymbolTableRecord
100
AcDbBlockTableRecord
  2
*Paper_Space
340
1E
 70
0
280
1
281
0
  0
ENDTAB
  0
ENDSEC
  0
SECTION
  2
BLOCKS
  0
BLOCK
  5
18
330
17
100
AcDbEntity
  8
0
100
AcDbBlockBegin
  2
*Model_Space
 70
0
 10
0.0
 20
0.0
 30
0.0
  3
*Model_Space
  1

  0
ENDBLK
  5
19
330
17
100
AcDbEntity
  8
0
100
AcDbBlockEnd
  0
BLOCK
  5
1C
330
1B
100
AcDbEntity
  8
0
100
AcDbBlockBegin
  2
*Paper_Space
 70
0
 10
0.0
 20
0.0
 30
0.0
  3
*Paper_Space
  1

  0
ENDBLK
  5
1D
330
1B
100
AcDbEntity
  8
0
100
AcDbBlockEnd
  0
ENDSEC
  0
SECTION
  2
ENTITIES
  0
LWPOLYLINE
  5
32
330
17
100
AcDbEntity
  8
CUT_OUTER
100
AcDbPolyline
 90
90
 70
1
 10
29.617
 20
116.28
 10
35.961
 20
116.503
 10
35.342
 20
116.001
 10
35.477
 20
111.669
 10
35.942
 20
111.149
 10
36.912
 20
111.019
 10
47.559
 20
111.237
 10
48.059
 20
111.851
 10
49.018
 20
111.834
 10
49.035
 20
115.291
 10
47.904
 20
115.369
 10
47.774
 20
116.736
 10
49.984
 20
116.182
 10
52.601
 20
113.922
 10
54.008
 20
113.897
 10
54.847
 20
114.335
 10
55.521
 20
114.323
 10
56.48
 20
113.853
 10
57.826
 20
113.829
 10
58.718
 20
114.491
 10
63.079
 20
115.201
 10
66.038
 20
114.921
 10
66.871
 20
115.639
 10
67.875
 20
115.507
 10
69.825
 20
113.725
 10
69.664
 20
111.087
 10
70.278
 20
108.555
 10
70.339
 20
105.48
 10
71.613
 20
103.232
 10
71.781
 20
101.284
 10
74.205
 20
101.196
 10
75.03
 20
100.908
 10
75.58
 20
100.069
 10
75.627
 20
90.634
 10
76.478
 20
71.473
 10
76.77
 20
47.806
 10
77.68
 20
47.445
 10
78.267
 20
46.87
 10
79.977
 20
46.831
 10
79.923
 20
28.33
 10
77.539
 20
28.139
 10
77.008
 20
27.717
 10
76.795
 20
27.249
 10
76.79
 20
23.433
 10
76.1
 20
22.135
 10
75.253
 20
21.709
 10
72.974
 20
21.669
 10
71.542
 20
20.717
 10
71.288
 20
12.055
 10
70.708
 20
11.074
 10
70.021
 20
10.651
 10
68.434
 20
10.617
 10
68.583
 20
14.452
 10
68.157
 20
14.955
 10
63.211
 20
15.215
 10
61.821
 20
15.804
 10
60.962
 20
16.661
 10
59.626
 20
16.635
 10
59.368
 20
15.292
 10
58.299
 20
15.22
 10
58.379
 20
11.781
 10
59.394
 20
11.7
 10
59.295
 20
10.52
 10
48.323
 20
9.972
 10
48.306
 20
11.309
 10
49.327
 20
11.434
 10
49.34
 20
14.783
 10
48.261
 20
14.916
 10
47.974
 20
16.305
 10
46.678
 20
16.28
 10
45.719
 20
15.33
 10
44.484
 20
14.737
 10
39.237
 20
14.321
 10
38.923
 20
13.642
 10
39.149
 20
9.926
 10
37.36
 20
9.939
 10
36.533
 20
10.644
 10
36.245
 20
11.568
 10
36.303
 20
20.242
 10
36.075
 20
20.759
 10
34.911
 20
21.679
 10
32.226
 20
21.894
 10
31.28
 20
22.558
 10
30.995
 20
23.077
 10
30.748
 20
27.011
 10
30.274
 20
70.948
 10
30.39
 20
92.612
 10
29.804
 20
101.726
 10
28.277
 20
114.588
 10
28.766
 20
115.838
  0
LWPOLYLINE
  5
33
330
17
100
AcDbEntity
  8
CUT_INNER
100
AcDbPolyline
 90
36
 70
1
 10
48.8
 20
76.2
 10
48.75388467296775
 20
76.6682167728387
 10
48.617310878027084
 20
77.11844023767623
 10
48.39552706952611
 20
77.53336855924705
 10
48.09705627484771
 20
77.89705627484771
 10
47.73336855924705
 20
78.19552706952611
 10
47.318440237676214
 20
78.4173108780271
 10
46.86821677283871
 20
78.55388467296775
 10
46.4
 20
78.60000000000001
 10
38.800000000000004
 20
78.60000000000001
 10
38.331783227161296
 20
78.55388467296775
 10
37.88155976232379
 20
78.4173108780271
 10
37.466631440752955
 20
78.19552706952611
 10
37.10294372515229
 20
77.89705627484771
 10
36.80447293047389
 20
77.53336855924705
 10
36.58268912197292
 20
77.11844023767623
 10
36.44611532703225
 20
76.6682167728387
 10
36.400000000000006
 20
76.2
 10
36.400000000000006
 20
54.7
 10
36.44611532703225
 20
54.231783227161294
 10
36.58268912197292
 20
53.78155976232379
 10
36.80447293047389
 20
53.366631440752954
 10
37.102943725152286
 20
53.00294372515229
 10
37.46663144075296
 20
52.7044729304739
 10
37.88155976232379
 20
52.48268912197292
 10
38.331783227161296
 20
52.34611532703225
 10
38.800000000000004
 20
52.300000000000004
 10
46.4
 20
52.300000000000004
 10
46.86821677283871
 20
52.34611532703225
 10
47.318440237676214
 20
52.48268912197292
 10
47.73336855924704
 20
52.70447293047389
 10
48.09705627484771
 20
53.002943725152285
 10
48.39552706952611
 20
53.366631440752954
 10
48.617310878027084
 20
53.78155976232379
 10
48.75388467296775
 20
54.231783227161294
 10
48.8
 20
54.7
  0
LWPOLYLINE
  5
34
330
17
100
AcDbEntity
  8
CUT_INNER
100
AcDbPolyline
 90
36
 70
1
 10
70.1
 20
76.2
 10
70.05388467296774
 20
76.6682167728387
 10
69.91731087802708
 20
77.11844023767623
 10
69.6955270695261
 20
77.53336855924705
 10
69.3970562748477
 20
77.89705627484771
 10
69.03336855924704
 20
78.19552706952611
 10
68.61844023767621
 20
78.4173108780271
 10
68.16821677283869
 20
78.55388467296775
 10
67.69999999999999
 20
78.60000000000001
 10
60.1
 20
78.60000000000001
 10
59.63178322716129
 20
78.55388467296775
 10
59.181559762323786
 20
78.4173108780271
 10
58.76663144075295
 20
78.19552706952611
 10
58.40294372515229
 20
77.89705627484771
 10
58.10447293047389
 20
77.53336855924705
 10
57.882689121972916
 20
77.11844023767623
 10
57.74611532703225
 20
76.6682167728387
 10
57.7
 20
76.2
 10
57.7
 20
54.7
 10
57.74611532703225
 20
54.231783227161294
 10
57.882689121972916
 20
53.78155976232379
 10
58.10447293047389
 20
53.366631440752954
 10
58.402943725152284
 20
53.00294372515229
 10
58.76663144075296
 20
52.7044729304739
 10
59.181559762323786
 20
52.48268912197292
 10
59.63178322716129
 20
52.34611532703225
 10
60.1
 20
52.300000000000004
 10
67.69999999999999
 20
52.300000000000004
 10
68.16821677283869
 20
52.34611532703225
 10
68.61844023767621
 20
52.48268912197292
 10
69.03336855924704
 20
52.70447293047389
 10
69.3970562748477
 20
53.002943725152285
 10
69.6955270695261
 20
53.366631440752954
 10
69.91731087802708
 20
53.78155976232379
 10
70.05388467296774
 20
54.231783227161294
 10
70.1
 20
54.7
  0
LWPOLYLINE
  5
35
330
17
100
AcDbEntity
  8
CUT_INNER
100
AcDbPolyline
 90
36
 70
1
 10
52.0
 20
45.75
 10
51.96349203276614
 20
46.120671611830645
 10
51.85537111177145
 20
46.47709852149367
 10
51.679792263374836
 20
46.805583442737245
 10
51.44350288425444
 20
47.09350288425444
 10
51.155583442737246
 20
47.329792263374834
 10
50.827098521493674
 20
47.505371111771446
 10
50.470671611830646
 20
47.61349203276614
 10
50.1
 20
47.65
 10
36.49999999999999
 20
47.65
 10
36.12932838816935
 20
47.61349203276614
 10
35.77290147850632
 20
47.505371111771446
 10
35.44441655726275
 20
47.329792263374834
 10
35.15649711574555
 20
47.09350288425444
 10
34.92020773662516
 20
46.805583442737245
 10
34.74462888822855
 20
46.47709852149367
 10
34.636507967233854
 20
46.120671611830645
 10
34.599999999999994
 20
45.75
 10
34.599999999999994
 20
29.599999999999994
 10
34.636507967233854
 20
29.22932838816935
 10
34.74462888822855
 20
28.872901478506325
 10
34.92020773662516
 20
28.54441655726275
 10
35.15649711574555
 20
28.256497115745553
 10
35.44441655726275
 20
28.02020773662516
 10
35.77290147850632
 20
27.84462888822855
 10
36.12932838816935
 20
27.736507967233855
 10
36.49999999999999
 20
27.699999999999996
 10
50.1
 20
27.699999999999996
 10
50.470671611830646
 20
27.736507967233855
 10
50.827098521493674
 20
27.84462888822855
 10
51.155583442737246
 20
28.020207736625157
 10
51.44350288425444
 20
28.256497115745553
 10
51.679792263374836
 20
28.54441655726275
 10
51.85537111177145
 20
28.872901478506325
 10
51.96349203276614
 20
29.22932838816935
 10
52.0
 20
29.599999999999994
  0
LWPOLYLINE
  5
36
330
17
100
AcDbEntity
  8
CUT_INNER
100
AcDbPolyline
 90
36
 70
1
 10
72.75
 20
45.75
 10
72.71349203276613
 20
46.120671611830645
 10
72.60537111177143
 20
46.47709852149367
 10
72.42979226337484
 20
46.805583442737245
 10
72.19350288425443
 20
47.09350288425444
 10
71.90558344273724
 20
47.329792263374834
 10
71.57709852149367
 20
47.505371111771446
 10
71.22067161183064
 20
47.61349203276614
 10
70.85
 20
47.65
 10
57.24999999999999
 20
47.65
 10
56.87932838816935
 20
47.61349203276614
 10
56.52290147850632
 20
47.505371111771446
 10
56.19441655726275
 20
47.329792263374834
 10
55.90649711574555
 20
47.09350288425444
 10
55.67020773662516
 20
46.805583442737245
 10
55.49462888822855
 20
46.47709852149367
 10
55.386507967233854
 20
46.120671611830645
 10
55.349999999999994
 20
45.75
 10
55.349999999999994
 20
29.599999999999994
 10
55.386507967233854
 20
29.22932838816935
 10
55.49462888822855
 20
28.872901478506325
 10
55.67020773662516
 20
28.54441655726275
 10
55.90649711574555
 20
28.256497115745553
 10
56.19441655726275
 20
28.02020773662516
 10
56.52290147850632
 20
27.84462888822855
 10
56.87932838816935
 20
27.736507967233855
 10
57.24999999999999
 20
27.699999999999996
 10
70.85
 20
27.699999999999996
 10
71.22067161183064
 20
27.736507967233855
 10
71.57709852149367
 20
27.84462888822855
 10
71.90558344273724
 20
28.020207736625157
 10
72.19350288425443
 20
28.256497115745553
 10
72.42979226337484
 20
28.54441655726275
 10
72.60537111177143
 20
28.872901478506325
 10
72.71349203276613
 20
29.22932838816935
 10
72.75
 20
29.599999999999994
  0
LWPOLYLINE
  5
37
330
17
100
AcDbEntity
  8
CUT_INNER
100
AcDbPolyline
 90
36
 70
1
 10
71.5
 20
97.24999999999999
 10
71.46349203276613
 20
97.62067161183063
 10
71.35537111177143
 20
97.97709852149366
 10
71.17979226337484
 20
98.30558344273723
 10
70.94350288425443
 20
98.59350288425442
 10
70.65558344273724
 20
98.82979226337483
 10
70.32709852149367
 20
99.00537111177142
 10
69.97067161183064
 20
99.11349203276612
 10
69.6
 20
99.14999999999999
 10
57.4
 20
99.14999999999999
 10
57.029328388169354
 20
99.11349203276612
 10
56.672901478506326
 20
99.00537111177142
 10
56.344416557262754
 20
98.82979226337483
 10
56.05649711574556
 20
98.59350288425442
 10
55.820207736625164
 20
98.30558344273723
 10
55.64462888822855
 20
97.97709852149366
 10
55.53650796723386
 20
97.62067161183063
 10
55.5
 20
97.24999999999999
 10
55.5
 20
87.35000000000001
 10
55.53650796723386
 20
86.97932838816936
 10
55.64462888822855
 20
86.62290147850634
 10
55.820207736625164
 20
86.29441655726276
 10
56.05649711574556
 20
86.00649711574557
 10
56.344416557262754
 20
85.77020773662517
 10
56.672901478506326
 20
85.59462888822857
 10
57.029328388169354
 20
85.48650796723388
 10
57.4
 20
85.45
 10
69.6
 20
85.45
 10
69.97067161183064
 20
85.48650796723388
 10
70.32709852149367
 20
85.59462888822857
 10
70.65558344273724
 20
85.77020773662517
 10
70.94350288425443
 20
86.00649711574557
 10
71.17979226337484
 20
86.29441655726276
 10
71.35537111177143
 20
86.62290147850634
 10
71.46349203276613
 20
86.97932838816936
 10
71.5
 20
87.35000000000001
  0
LWPOLYLINE
  5
38
330
17
100
AcDbEntity
  8
CUT_INNER
100
AcDbPolyline
 90
36
 70
1
 10
51.6
 20
110.0
 10
51.56349203276614
 20
110.37067161183064
 10
51.45537111177145
 20
110.72709852149367
 10
51.27979226337484
 20
111.05558344273724
 10
51.043502884254444
 20
111.34350288425443
 10
50.75558344273725
 20
111.57979226337484
 10
50.427098521493676
 20
111.75537111177144
 10
50.07067161183065
 20
111.86349203276613
 10
49.7
 20
111.9
 10
35.099999999999994
 20
111.9
 10
34.72932838816935
 20
111.86349203276613
 10
34.37290147850632
 20
111.75537111177144
 10
34.04441655726275
 20
111.57979226337484
 10
33.75649711574555
 20
111.34350288425443
 10
33.52020773662516
 20
111.05558344273724
 10
33.34462888822855
 20
110.72709852149367
 10
33.236507967233855
 20
110.37067161183064
 10
33.199999999999996
 20
110.0
 10
33.199999999999996
 20
104.80000000000001
 10
33.236507967233855
 20
104.42932838816937
 10
33.34462888822855
 20
104.07290147850634
 10
33.52020773662516
 20
103.74441655726277
 10
33.75649711574555
 20
103.45649711574558
 10
34.04441655726275
 20
103.22020773662517
 10
34.37290147850632
 20
103.04462888822857
 10
34.72932838816935
 20
102.93650796723388
 10
35.099999999999994
 20
102.9
 10
49.7
 20
102.9
 10
50.07067161183065
 20
102.93650796723388
 10
50.427098521493676
 20
103.04462888822857
 10
50.75558344273725
 20
103.22020773662517
 10
51.043502884254444
 20
103.45649711574558
 10
51.27979226337484
 20
103.74441655726277
 10
51.45537111177145
 20
104.07290147850634
 10
51.56349203276614
 20
104.42932838816937
 10
51.6
 20
104.80000000000001
  0
LWPOLYLINE
  5
39
330
17
100
AcDbEntity
  8
CUT_INNER
100
AcDbPolyline
 90
36
 70
1
 10
47.199999999999996
 20
19.1
 10
47.12698406553228
 20
19.84134322366129
 10
46.91074222354289
 20
20.554197042987344
 10
46.55958452674967
 20
21.21116688547449
 10
46.08700576850888
 20
21.78700576850888
 10
45.51116688547449
 20
22.259584526749673
 10
44.85419704298734
 20
22.610742223542893
 10
44.14134322366129
 20
22.826984065532276
 10
43.4
 20
22.900000000000002
 10
43.4
 20
22.900000000000002
 10
42.65865677633871
 20
22.826984065532276
 10
41.94580295701266
 20
22.610742223542893
 10
41.28883311452551
 20
22.259584526749673
 10
40.712994231491116
 20
21.787005768508884
 10
40.24041547325032
 20
21.21116688547449
 10
39.88925777645711
 20
20.554197042987344
 10
39.67301593446772
 20
19.841343223661287
 10
39.6
 20
19.1
 10
39.6
 20
19.1
 10
39.67301593446772
 20
18.358656776338712
 10
39.88925777645711
 20
17.64580295701266
 10
40.24041547325033
 20
16.988833114525512
 10
40.712994231491116
 20
16.412994231491123
 10
41.28883311452551
 20
15.94041547325033
 10
41.94580295701266
 20
15.589257776457112
 10
42.65865677633871
 20
15.373015934467727
 10
43.4
 20
15.3
 10
43.4
 20
15.3
 10
44.14134322366129
 20
15.373015934467727
 10
44.85419704298734
 20
15.589257776457112
 10
45.51116688547449
 20
15.94041547325033
 10
46.08700576850888
 20
16.41299423149112
 10
46.55958452674967
 20
16.988833114525512
 10
46.91074222354289
 20
17.645802957012663
 10
47.12698406553228
 20
18.358656776338712
 10
47.199999999999996
 20
19.1
  0
LWPOLYLINE
  5
3A
330
17
100
AcDbEntity
  8
CUT_INNER
100
AcDbPolyline
 90
36
 70
1
 10
68.45
 20
19.4
 10
68.37698406553228
 20
20.141343223661288
 10
68.1607422235429
 20
20.85419704298734
 10
67.80958452674967
 20
21.511166885474488
 10
67.33700576850889
 20
22.087005768508877
 10
66.7611668854745
 20
22.55958452674967
 10
66.10419704298735
 20
22.91074222354289
 10
65.3913432236613
 20
23.126984065532273
 10
64.65
 20
23.2
 10
64.65
 20
23.2
 10
63.90865677633872
 20
23.126984065532273
 10
63.19580295701267
 20
22.91074222354289
 10
62.53883311452552
 20
22.55958452674967
 10
61.96299423149112
 20
22.08700576850888
 10
61.49041547325034
 20
21.511166885474488
 10
61.139257776457114
 20
20.85419704298734
 10
60.92301593446773
 20
20.141343223661284
 10
60.85000000000001
 20
19.4
 10
60.85000000000001
 20
19.4
 10
60.92301593446773
 20
18.65865677633871
 10
61.139257776457114
 20
17.945802957012656
 10
61.49041547325034
 20
17.28883311452551
 10
61.96299423149112
 20
16.71299423149112
 10
62.53883311452552
 20
16.240415473250327
 10
63.19580295701267
 20
15.889257776457109
 10
63.90865677633872
 20
15.673015934467724
 10
64.65
 20
15.599999999999998
 10
64.65
 20
15.599999999999998
 10
65.3913432236613
 20
15.673015934467724
 10
66.10419704298735
 20
15.889257776457109
 10
66.7611668854745
 20
16.240415473250327
 10
67.33700576850889
 20
16.712994231491116
 10
67.80958452674967
 20
17.28883311452551
 10
68.1607422235429
 20
17.94580295701266
 10
68.37698406553228
 20
18.65865677633871
 10
68.45
 20
19.4
  0
LWPOLYLINE
  5
3B
330
17
100
AcDbEntity
  8
CUT_INNER
100
AcDbPolyline
 90
36
 70
1
 10
50.2
 20
96.7
 10
50.16541350472582
 20
97.05116257962904
 10
50.062983158520325
 20
97.38883017825717
 10
49.896645302144584
 20
97.70002641943529
 10
49.67279220613579
 20
97.9727922061358
 10
49.40002641943529
 20
98.19664530214459
 10
49.08883017825717
 20
98.36298315852032
 10
48.75116257962904
 20
98.46541350472582
 10
48.400000000000006
 20
98.5
 10
36.599999999999994
 20
98.5
 10
36.24883742037096
 20
98.46541350472582
 10
35.91116982174283
 20
98.36298315852032
 10
35.59997358056471
 20
98.19664530214459
 10
35.32720779386421
 20
97.9727922061358
 10
35.103354697855416
 20
97.70002641943529
 10
34.937016841479675
 20
97.38883017825717
 10
34.83458649527418
 20
97.05116257962904
 10
34.8
 20
96.7
 10
34.8
 20
87.3
 10
34.83458649527418
 20
86.94883742037096
 10
34.937016841479675
 20
86.61116982174283
 10
35.103354697855416
 20
86.29997358056471
 10
35.32720779386421
 20
86.0272077938642
 10
35.59997358056471
 20
85.80335469785541
 10
35.91116982174283
 20
85.63701684147968
 10
36.24883742037096
 20
85.53458649527418
 10
36.599999999999994
 20
85.5
 10
48.400000000000006
 20
85.5
 10
48.75116257962904
 20
85.53458649527418
 10
49.08883017825717
 20
85.63701684147968
 10
49.40002641943529
 20
85.80335469785541
 10
49.67279220613579
 20
86.0272077938642
 10
49.896645302144584
 20
86.29997358056471
 10
50.062983158520325
 20
86.61116982174283
 10
50.16541350472582
 20
86.94883742037096
 10
50.2
 20
87.3
  0
CIRCLE
  5
3C
330
17
100
AcDbEntity
  8
CUT_INNER
100
AcDbCircle
 10
52.57
 20
75.3
 30
0.0
 40
2.2
  0
CIRCLE
  5
3D
330
17
100
AcDbEntity
  8
CUT_INNER
100
AcDbCircle
 10
53.1
 20
57.82
 30
0.0
 40
2.75
  0
CIRCLE
  5
3E
330
17
100
AcDbEntity
  8
CUT_INNER
100
AcDbCircle
 10
53.91
 20
19.6
 30
0.0
 40
2.8
  0
CIRCLE
  5
3F
330
17
100
AcDbEntity
  8
CUT_INNER
100
AcDbCircle
 10
62.25
 20
107.7
 30
0.0
 40
6.4
  0
TEXT
  5
40
330
17
100
AcDbEntity
  8
NOTES
100
AcDbText
 10
20.0
 20
-22.0
 30
0.0
 40
1.6
  1
MP62 IO flex foam / insulator A0 (back view, mm): 1.0 PE/PORON foam with PSA (stock-like) OR 0.25 Formex GK-10 / fish paper; laser or die cut; VERIFY against the flex
 11
20.0
 21
-22.0
 31
0.0
100
AcDbText
  0
ENDSEC
  0
SECTION
  2
OBJECTS
  0
DICTIONARY
  5
A
330
0
100
AcDbDictionary
281
1
  3
ACAD_COLOR
350
B
  3
ACAD_GROUP
350
C
  3
ACAD_LAYOUT
350
D
  3
ACAD_MATERIAL
350
E
  3
ACAD_MLEADERSTYLE
350
F
  3
ACAD_MLINESTYLE
350
10
  3
ACAD_PLOTSETTINGS
350
11
  3
ACAD_PLOTSTYLENAME
350
12
  3
ACAD_SCALELIST
350
14
  3
ACAD_TABLESTYLE
350
15
  3
ACAD_VISUALSTYLE
350
16
  3
EZDXF_META
350
2D
  0
DICTIONARY
  5
B
330
A
100
AcDbDictionary
281
1
  0
DICTIONARY
  5
C
330
A
100
AcDbDictionary
281
1
  0
DICTIONARY
  5
D
330
A
100
AcDbDictionary
281
1
  3
Model
350
1A
  3
Layout1
350
1E
  0
DICTIONARY
  5
E
330
A
100
AcDbDictionary
281
1
  3
ByBlock
350
1F
  3
ByLayer
350
20
  3
Global
350
21
  0
DICTIONARY
  5
F
330
A
100
AcDbDictionary
281
1
  3
Standard
350
2C
  0
DICTIONARY
  5
10
330
A
100
AcDbDictionary
281
1
  3
Standard
350
22
  0
DICTIONARY
  5
11
330
A
100
AcDbDictionary
281
1
  0
ACDBDICTIONARYWDFLT
  5
12
330
A
100
AcDbDictionary
281
1
  3
Normal
350
13
100
AcDbDictionaryWithDefault
340
13
  0
ACDBPLACEHOLDER
  5
13
330
12
  0
DICTIONARY
  5
14
330
A
100
AcDbDictionary
281
1
  0
DICTIONARY
  5
15
330
A
100
AcDbDictionary
281
1
  0
DICTIONARY
  5
16
330
A
100
AcDbDictionary
281
1
  0
LAYOUT
  5
1A
330
D
100
AcDbPlotSettings
  1

  4
A3
  6

 40
7.5
 41
20.0
 42
7.5
 43
20.0
 44
420.0
 45
297.0
 46
0.0
 47
0.0
 48
0.0
 49
0.0
140
0.0
141
0.0
142
1.0
143
1.0
 70
1024
 72
1
 73
0
 74
5
  7

 75
16
 76
0
 77
2
 78
300
147
1.0
148
0.0
149
0.0
100
AcDbLayout
  1
Model
 70
1
 71
0
 10
0.0
 20
0.0
 11
420.0
 21
297.0
 12
0.0
 22
0.0
 32
0.0
 14
1e+20
 24
1e+20
 34
1e+20
 15
-1e+20
 25
-1e+20
 35
-1e+20
146
0.0
 13
0.0
 23
0.0
 33
0.0
 16
1.0
 26
0.0
 36
0.0
 17
0.0
 27
1.0
 37
0.0
 76
1
330
17
  0
LAYOUT
  5
1E
330
D
100
AcDbPlotSettings
  1

  4
A3
  6

 40
7.5
 41
20.0
 42
7.5
 43
20.0
 44
420.0
 45
297.0
 46
0.0
 47
0.0
 48
0.0
 49
0.0
140
0.0
141
0.0
142
1.0
143
1.0
 70
0
 72
1
 73
0
 74
5
  7

 75
16
 76
0
 77
2
 78
300
147
1.0
148
0.0
149
0.0
100
AcDbLayout
  1
Layout1
 70
1
 71
1
 10
0.0
 20
0.0
 11
420.0
 21
297.0
 12
0.0
 22
0.0
 32
0.0
 14
1e+20
 24
1e+20
 34
1e+20
 15
-1e+20
 25
-1e+20
 35
-1e+20
146
0.0
 13
0.0
 23
0.0
 33
0.0
 16
1.0
 26
0.0
 36
0.0
 17
0.0
 27
1.0
 37
0.0
 76
1
330
1B
  0
MATERIAL
  5
1F
102
{ACAD_REACTORS
330
E
102
}
330
E
100
AcDbMaterial
  1
ByBlock
  2

 70
0
 40
1.0
 71
1
 41
1.0
 91
-1023410177
 42
1.0
 72
1
  3

 73
1
 74
1
 75
1
 44
0.5
 73
0
 45
1.0
 46
1.0
 77
1
  4

 78
1
 79
1
170
1
 48
1.0
171
1
  6

172
1
173
1
174
1
140
1.0
141
1.0
175
1
  7

176
1
177
1
178
1
143
1.0
179
1
  8

270
1
271
1
272
1
145
1.0
146
1.0
273
1
  9

274
1
275
1
276
1
 42
1.0
 72
1
  3

 73
1
 74
1
 75
1
 94
63
  0
MATERIAL
  5
20
102
{ACAD_REACTORS
330
E
102
}
330
E
100
AcDbMaterial
  1
ByLayer
  2

 70
0
 40
1.0
 71
1
 41
1.0
 91
-1023410177
 42
1.0
 72
1
  3

 73
1
 74
1
 75
1
 44
0.5
 73
0
 45
1.0
 46
1.0
 77
1
  4

 78
1
 79
1
170
1
 48
1.0
171
1
  6

172
1
173
1
174
1
140
1.0
141
1.0
175
1
  7

176
1
177
1
178
1
143
1.0
179
1
  8

270
1
271
1
272
1
145
1.0
146
1.0
273
1
  9

274
1
275
1
276
1
 42
1.0
 72
1
  3

 73
1
 74
1
 75
1
 94
63
  0
MATERIAL
  5
21
102
{ACAD_REACTORS
330
E
102
}
330
E
100
AcDbMaterial
  1
Global
  2

 70
0
 40
1.0
 71
1
 41
1.0
 91
-1023410177
 42
1.0
 72
1
  3

 73
1
 74
1
 75
1
 44
0.5
 73
0
 45
1.0
 46
1.0
 77
1
  4

 78
1
 79
1
170
1
 48
1.0
171
1
  6

172
1
173
1
174
1
140
1.0
141
1.0
175
1
  7

176
1
177
1
178
1
143
1.0
179
1
  8

270
1
271
1
272
1
145
1.0
146
1.0
273
1
  9

274
1
275
1
276
1
 42
1.0
 72
1
  3

 73
1
 74
1
 75
1
 94
63
  0
MLINESTYLE
  5
22
102
{ACAD_REACTORS
330
10
102
}
330
10
100
AcDbMlineStyle
  2
Standard
 70
0
  3

 62
256
 51
90.0
 52
90.0
 71
2
 49
0.5
 62
256
  6
BYLAYER
 49
-0.5
 62
256
  6
BYLAYER
  0
MLEADERSTYLE
  5
2C
102
{ACAD_REACTORS
330
F
102
}
330
F
100
AcDbMLeaderStyle
179
2
170
2
171
1
172
0
 90
2
 40
0.0
 41
0.0
173
1
 91
-1056964608
 92
-2
290
1
 42
2.0
291
1
 43
8.0
  3
Standard
 44
4.0
300

342
29
174
1
175
1
176
0
178
1
 93
-1056964608
 45
4.0
292
0
297
0
 46
4.0
 94
-1056964608
 47
1.0
 49
1.0
140
1.0
294
1
141
0.0
177
0
142
1.0
295
0
296
0
143
3.75
271
0
272
9
273
9
  0
DICTIONARY
  5
2D
330
A
100
AcDbDictionary
280
1
281
1
  3
CREATED_BY_EZDXF
350
2E
  3
WRITTEN_BY_EZDXF
350
43
  0
DICTIONARYVAR
  5
2E
330
2D
100
DictionaryVariables
280
0
  1
1.4.4 @ 2026-10-02T13:06:10.233241+00:00
  0
DICTIONARYVAR
  5
43
330
2D
100
DictionaryVariables
280
0
  1
1.4.4 @ 2026-10-02T13:06:10.235684+00:00
  0
ENDSEC
  0
EOF
