  0
SECTION
  2
HEADER
  9
$ACADVER
  1
AC1024
  9
$ACADMAINTVER
 70
6
  9
$DWGCODEPAGE
  3
ANSI_1252
  9
$LASTSAVEDBY
  1
ezdxf
  9
$INSBASE
 10
0.0
 20
0.0
 30
0.0
  9
$EXTMIN
 10
1e+20
 20
1e+20
 30
1e+20
  9
$EXTMAX
 10
-1e+20
 20
-1e+20
 30
-1e+20
  9
$LIMMIN
 10
0.0
 20
0.0
  9
$LIMMAX
 10
420.0
 20
297.0
  9
$ORTHOMODE
 70
0
  9
$REGENMODE
 70
1
  9
$FILLMODE
 70
1
  9
$QTEXTMODE
 70
0
  9
$MIRRTEXT
 70
1
  9
$LTSCALE
 40
1.0
  9
$ATTMODE
 70
1
  9
$TEXTSIZE
 40
2.5
  9
$TRACEWID
 40
1.0
  9
$TEXTSTYLE
  7
Standard
  9
$CLAYER
  8
0
  9
$CELTYPE
  6
ByLayer
  9
$CECOLOR
 62
256
  9
$CELTSCALE
 40
1.0
  9
$DISPSILH
 70
0
  9
$DIMSCALE
 40
1.0
  9
$DIMASZ
 40
2.5
  9
$DIMEXO
 40
0.625
  9
$DIMDLI
 40
3.75
  9
$DIMRND
 40
0.0
  9
$DIMDLE
 40
0.0
  9
$DIMEXE
 40
1.25
  9
$DIMTP
 40
0.0
  9
$DIMTM
 40
0.0
  9
$DIMTXT
 40
2.5
  9
$DIMCEN
 40
2.5
  9
$DIMTSZ
 40
0.0
  9
$DIMTOL
 70
0
  9
$DIMLIM
 70
0
  9
$DIMTIH
 70
0
  9
$DIMTOH
 70
0
  9
$DIMSE1
 70
0
  9
$DIMSE2
 70
0
  9
$DIMTAD
 70
1
  9
$DIMZIN
 70
8
  9
$DIMBLK
  1

  9
$DIMASO
 70
1
  9
$DIMSHO
 70
1
  9
$DIMPOST
  1

  9
$DIMAPOST
  1

  9
$DIMALT
 70
0
  9
$DIMALTD
 70
3
  9
$DIMALTF
 40
0.03937007874
  9
$DIMLFAC
 40
1.0
  9
$DIMTOFL
 70
1
  9
$DIMTVP
 40
0.0
  9
$DIMTIX
 70
0
  9
$DIMSOXD
 70
0
  9
$DIMSAH
 70
0
  9
$DIMBLK1
  1

  9
$DIMBLK2
  1

  9
$DIMSTYLE
  2
ISO-25
  9
$DIMCLRD
 70
0
  9
$DIMCLRE
 70
0
  9
$DIMCLRT
 70
0
  9
$DIMTFAC
 40
1.0
  9
$DIMGAP
 40
0.625
  9
$DIMJUST
 70
0
  9
$DIMSD1
 70
0
  9
$DIMSD2
 70
0
  9
$DIMTOLJ
 70
0
  9
$DIMTZIN
 70
8
  9
$DIMALTZ
 70
0
  9
$DIMALTTZ
 70
0
  9
$DIMUPT
 70
0
  9
$DIMDEC
 70
2
  9
$DIMTDEC
 70
2
  9
$DIMALTU
 70
2
  9
$DIMALTTD
 70
3
  9
$DIMTXSTY
  7
Standard
  9
$DIMAUNIT
 70
0
  9
$DIMADEC
 70
0
  9
$DIMALTRND
 40
0.0
  9
$DIMAZIN
 70
0
  9
$DIMDSEP
 70
44
  9
$DIMATFIT
 70
3
  9
$DIMFRAC
 70
0
  9
$DIMLDRBLK
  1

  9
$DIMLUNIT
 70
2
  9
$DIMLWD
 70
-2
  9
$DIMLWE
 70
-2
  9
$DIMTMOVE
 70
0
  9
$DIMFXL
 40
1.0
  9
$DIMFXLON
 70
0
  9
$DIMJOGANG
 40
0.785398163397
  9
$DIMTFILL
 70
0
  9
$DIMTFILLCLR
 70
0
  9
$DIMARCSYM
 70
0
  9
$DIMLTYPE
  6

  9
$DIMLTEX1
  6

  9
$DIMLTEX2
  6

  9
$DIMTXTDIRECTION
 70
0
  9
$LUNITS
 70
2
  9
$LUPREC
 70
4
  9
$SKETCHINC
 40
1.0
  9
$FILLETRAD
 40
10.0
  9
$AUNITS
 70
0
  9
$AUPREC
 70
2
  9
$MENU
  1
.
  9
$ELEVATION
 40
0.0
  9
$PELEVATION
 40
0.0
  9
$THICKNESS
 40
0.0
  9
$LIMCHECK
 70
0
  9
$CHAMFERA
 40
0.0
  9
$CHAMFERB
 40
0.0
  9
$CHAMFERC
 40
0.0
  9
$CHAMFERD
 40
0.0
  9
$SKPOLY
 70
0
  9
$TDCREATE
 40
2461316.4703703704
  9
$TDUCREATE
 40
2458532.153996898
  9
$TDUPDATE
 40
2461316.4703703704
  9
$TDUUPDATE
 40
2458532.1544311
  9
$TDINDWG
 40
0.0
  9
$TDUSRTIMER
 40
0.0
  9
$USRTIMER
 70
1
  9
$ANGBASE
 50
0.0
  9
$ANGDIR
 70
0
  9
$PDMODE
 70
0
  9
$PDSIZE
 40
0.0
  9
$PLINEWID
 40
0.0
  9
$SPLFRAME
 70
0
  9
$SPLINETYPE
 70
6
  9
$SPLINESEGS
 70
8
  9
$HANDSEED
  5
4A
  9
$SURFTAB1
 70
6
  9
$SURFTAB2
 70
6
  9
$SURFTYPE
 70
6
  9
$SURFU
 70
6
  9
$SURFV
 70
6
  9
$UCSBASE
  2

  9
$UCSNAME
  2

  9
$UCSORG
 10
0.0
 20
0.0
 30
0.0
  9
$UCSXDIR
 10
1.0
 20
0.0
 30
0.0
  9
$UCSYDIR
 10
0.0
 20
1.0
 30
0.0
  9
$UCSORTHOREF
  2

  9
$UCSORTHOVIEW
 70
0
  9
$UCSORGTOP
 10
0.0
 20
0.0
 30
0.0
  9
$UCSORGBOTTOM
 10
0.0
 20
0.0
 30
0.0
  9
$UCSORGLEFT
 10
0.0
 20
0.0
 30
0.0
  9
$UCSORGRIGHT
 10
0.0
 20
0.0
 30
0.0
  9
$UCSORGFRONT
 10
0.0
 20
0.0
 30
0.0
  9
$UCSORGBACK
 10
0.0
 20
0.0
 30
0.0
  9
$PUCSBASE
  2

  9
$PUCSNAME
  2

  9
$PUCSORG
 10
0.0
 20
0.0
 30
0.0
  9
$PUCSXDIR
 10
1.0
 20
0.0
 30
0.0
  9
$PUCSYDIR
 10
0.0
 20
1.0
 30
0.0
  9
$PUCSORTHOREF
  2

  9
$PUCSORTHOVIEW
 70
0
  9
$PUCSORGTOP
 10
0.0
 20
0.0
 30
0.0
  9
$PUCSORGBOTTOM
 10
0.0
 20
0.0
 30
0.0
  9
$PUCSORGLEFT
 10
0.0
 20
0.0
 30
0.0
  9
$PUCSORGRIGHT
 10
0.0
 20
0.0
 30
0.0
  9
$PUCSORGFRONT
 10
0.0
 20
0.0
 30
0.0
  9
$PUCSORGBACK
 10
0.0
 20
0.0
 30
0.0
  9
$USERI1
 70
0
  9
$USERI2
 70
0
  9
$USERI3
 70
0
  9
$USERI4
 70
0
  9
$USERI5
 70
0
  9
$USERR1
 40
0.0
  9
$USERR2
 40
0.0
  9
$USERR3
 40
0.0
  9
$USERR4
 40
0.0
  9
$USERR5
 40
0.0
  9
$WORLDVIEW
 70
1
  9
$SHADEDGE
 70
3
  9
$SHADEDIF
 70
70
  9
$TILEMODE
 70
1
  9
$MAXACTVP
 70
64
  9
$PINSBASE
 10
0.0
 20
0.0
 30
0.0
  9
$PLIMCHECK
 70
0
  9
$PEXTMIN
 10
1e+20
 20
1e+20
 30
1e+20
  9
$PEXTMAX
 10
-1e+20
 20
-1e+20
 30
-1e+20
  9
$PLIMMIN
 10
0.0
 20
0.0
  9
$PLIMMAX
 10
420.0
 20
297.0
  9
$UNITMODE
 70
0
  9
$VISRETAIN
 70
1
  9
$PLINEGEN
 70
0
  9
$PSLTSCALE
 70
1
  9
$TREEDEPTH
 70
3020
  9
$CMLSTYLE
  2
Standard
  9
$CMLJUST
 70
0
  9
$CMLSCALE
 40
20.0
  9
$PROXYGRAPHICS
 70
1
  9
$MEASUREMENT
 70
1
  9
$CELWEIGHT
370
-1
  9
$ENDCAPS
280
0
  9
$JOINSTYLE
280
0
  9
$LWDISPLAY
290
0
  9
$INSUNITS
 70
6
  9
$HYPERLINKBASE
  1

  9
$STYLESHEET
  1

  9
$XEDIT
290
1
  9
$CEPSNTYPE
380
0
  9
$PSTYLEMODE
290
1
  9
$FINGERPRINTGUID
  2
{44D06F38-91CB-42BD-99E7-6E93EDD0B38E}
  9
$VERSIONGUID
  2
{2913C4FA-7B67-4A72-8244-BC09325C9648}
  9
$EXTNAMES
290
1
  9
$PSVPSCALE
 40
0.0
  9
$OLESTARTUP
290
0
  9
$SORTENTS
280
127
  9
$INDEXCTL
280
0
  9
$HIDETEXT
280
1
  9
$XCLIPFRAME
280
1
  9
$HALOGAP
280
0
  9
$OBSCOLOR
 70
257
  9
$OBSLTYPE
280
0
  9
$INTERSECTIONDISPLAY
280
0
  9
$INTERSECTIONCOLOR
 70
257
  9
$DIMASSOC
280
2
  9
$PROJECTNAME
  1

  9
$CAMERADISPLAY
290
0
  9
$LENSLENGTH
 40
50.0
  9
$CAMERAHEIGHT
 40
0.0
  9
$STEPSPERSEC
 40
24.0
  9
$STEPSIZE
 40
100.0
  9
$3DDWFPREC
 40
2.0
  9
$PSOLWIDTH
 40
0.005
  9
$PSOLHEIGHT
 40
0.08
  9
$LOFTANG1
 40
1.570796326795
  9
$LOFTANG2
 40
1.570796326795
  9
$LOFTMAG1
 40
0.0
  9
$LOFTMAG2
 40
0.0
  9
$LOFTPARAM
 70
7
  9
$LOFTNORMALS
280
1
  9
$LATITUDE
 40
37.795
  9
$LONGITUDE
 40
-122.394
  9
$NORTHDIRECTION
 40
0.0
  9
$TIMEZONE
 70
-8000
  9
$LIGHTGLYPHDISPLAY
280
1
  9
$TILEMODELIGHTSYNCH
280
1
  9
$CMATERIAL
347
20
  9
$SOLIDHIST
280
0
  9
$SHOWHIST
280
1
  9
$DWFFRAME
280
2
  9
$DGNFRAME
280
2
  9
$REALWORLDSCALE
290
1
  9
$INTERFERECOLOR
 62
256
  9
$CSHADOW
280
0
  9
$SHADOWPLANELOCATION
 40
0.0
  0
ENDSEC
  0
SECTION
  2
CLASSES
  0
CLASS
  1
ACDBDICTIONARYWDFLT
  2
AcDbDictionaryWithDefault
  3
ObjectDBX Classes
 90
0
 91
0
280
0
281
0
  0
CLASS
  1
SUN
  2
AcDbSun
  3
SCENEOE
 90
1153
 91
0
280
0
281
0
  0
CLASS
  1
VISUALSTYLE
  2
AcDbVisualStyle
  3
ObjectDBX Classes
 90
4095
 91
0
280
0
281
0
  0
CLASS
  1
MATERIAL
  2
AcDbMaterial
  3
ObjectDBX Classes
 90
1153
 91
0
280
0
281
0
  0
CLASS
  1
SCALE
  2
AcDbScale
  3
ObjectDBX Classes
 90
1153
 91
0
280
0
281
0
  0
CLASS
  1
TABLESTYLE
  2
AcDbTableStyle
  3
ObjectDBX Classes
 90
4095
 91
0
280
0
281
0
  0
CLASS
  1
MLEADERSTYLE
  2
AcDbMLeaderStyle
  3
ACDB_MLEADERSTYLE_CLASS
 90
4095
 91
0
280
0
281
0
  0
CLASS
  1
DICTIONARYVAR
  2
AcDbDictionaryVar
  3
ObjectDBX Classes
 90
0
 91
0
280
0
281
0
  0
CLASS
  1
CELLSTYLEMAP
  2
AcDbCellStyleMap
  3
ObjectDBX Classes
 90
1152
 91
0
280
0
281
0
  0
CLASS
  1
MENTALRAYRENDERSETTINGS
  2
AcDbMentalRayRenderSettings
  3
SCENEOE
 90
1024
 91
0
280
0
281
0
  0
CLASS
  1
ACDBDETAILVIEWSTYLE
  2
AcDbDetailViewStyle
  3
ObjectDBX Classes
 90
1025
 91
0
280
0
281
0
  0
CLASS
  1
ACDBSECTIONVIEWSTYLE
  2
AcDbSectionViewStyle
  3
ObjectDBX Classes
 90
1025
 91
0
280
0
281
0
  0
CLASS
  1
RASTERVARIABLES
  2
AcDbRasterVariables
  3
ISM
 90
0
 91
0
280
0
281
0
  0
CLASS
  1
ACDBPLACEHOLDER
  2
AcDbPlaceHolder
  3
ObjectDBX Classes
 90
0
 91
0
280
0
281
0
  0
CLASS
  1
LAYOUT
  2
AcDbLayout
  3
ObjectDBX Classes
 90
0
 91
0
280
0
281
0
  0
ENDSEC
  0
SECTION
  2
TABLES
  0
TABLE
  2
VPORT
  5
8
330
0
100
AcDbSymbolTable
 70
1
  0
VPORT
  5
23
330
8
100
AcDbSymbolTableRecord
100
AcDbViewportTableRecord
  2
*Active
 70
0
 10
0.0
 20
0.0
 11
1.0
 21
1.0
 12
0.0
 22
0.0
 13
0.0
 23
0.0
 14
0.5
 24
0.5
 15
0.5
 25
0.5
 16
0.0
 26
0.0
 36
1.0
 17
0.0
 27
0.0
 37
0.0
 40
1000.0
 41
1.34
 42
50.0
 43
0.0
 44
0.0
 50
0.0
 51
0.0
 71
0
 72
1000
 73
1
 74
3
 75
0
 76
0
 77
0
 78
0
281
0
 65
0
146
0.0
  0
ENDTAB
  0
TABLE
  2
LTYPE
  5
2
330
0
100
AcDbSymbolTable
 70
3
  0
LTYPE
  5
24
330
2
100
AcDbSymbolTableRecord
100
AcDbLinetypeTableRecord
  2
ByBlock
 70
0
  3

 72
65
 73
0
 40
0.0
  0
LTYPE
  5
25
330
2
100
AcDbSymbolTableRecord
100
AcDbLinetypeTableRecord
  2
ByLayer
 70
0
  3

 72
65
 73
0
 40
0.0
  0
LTYPE
  5
26
330
2
100
AcDbSymbolTableRecord
100
AcDbLinetypeTableRecord
  2
Continuous
 70
0
  3

 72
65
 73
0
 40
0.0
  0
ENDTAB
  0
TABLE
  2
LAYER
  5
1
330
0
100
AcDbSymbolTable
 70
5
  0
LAYER
  5
27
330
1
100
AcDbSymbolTableRecord
100
AcDbLayerTableRecord
  2
0
 70
0
 62
7
  6
Continuous
370
-3
390
13
347
21
  0
LAYER
  5
28
330
1
100
AcDbSymbolTableRecord
100
AcDbLayerTableRecord
  2
Defpoints
 70
0
 62
7
  6
Continuous
290
0
370
-3
390
13
347
21
  0
LAYER
  5
2F
330
1
100
AcDbSymbolTableRecord
100
AcDbLayerTableRecord
  2
CUT_OUTER
 70
0
 62
7
  6
Continuous
370
-3
390
13
347
21
  0
LAYER
  5
30
330
1
100
AcDbSymbolTableRecord
100
AcDbLayerTableRecord
  2
CUT_INNER
 70
0
 62
7
  6
Continuous
370
-3
390
13
347
21
  0
LAYER
  5
31
330
1
100
AcDbSymbolTableRecord
100
AcDbLayerTableRecord
  2
NOTES
 70
0
 62
7
  6
Continuous
370
-3
390
13
347
21
  0
ENDTAB
  0
TABLE
  2
STYLE
  5
5
330
0
100
AcDbSymbolTable
 70
1
  0
STYLE
  5
29
330
5
100
AcDbSymbolTableRecord
100
AcDbTextStyleTableRecord
  2
Standard
 70
0
 40
0.0
 41
1.0
 50
0.0
 71
0
 42
2.5
  3
txt
  4

  0
ENDTAB
  0
TABLE
  2
VIEW
  5
7
330
0
100
AcDbSymbolTable
 70
0
  0
ENDTAB
  0
TABLE
  2
UCS
  5
6
330
0
100
AcDbSymbolTable
 70
0
  0
ENDTAB
  0
TABLE
  2
APPID
  5
3
330
0
100
AcDbSymbolTable
 70
3
  0
APPID
  5
2A
330
3
100
AcDbSymbolTableRecord
100
AcDbRegAppTableRecord
  2
ACAD
 70
0
  0
APPID
  5
47
330
3
100
AcDbSymbolTableRecord
100
AcDbRegAppTableRecord
  2
HATCHBACKGROUNDCOLOR
 70
0
  0
APPID
  5
48
330
3
100
AcDbSymbolTableRecord
100
AcDbRegAppTableRecord
  2
EZDXF
 70
0
  0
ENDTAB
  0
TABLE
  2
DIMSTYLE
  5
4
330
0
100
AcDbSymbolTable
 70
1
100
AcDbDimStyleTable
  0
DIMSTYLE
105
2B
330
4
100
AcDbSymbolTableRecord
100
AcDbDimStyleTableRecord
  2
Standard
 70
0
 40
1.0
 41
2.5
 42
0.625
 43
3.75
 44
1.25
 45
0.0
 46
0.0
 47
0.0
 48
0.0
 49
2.5
140
2.5
141
2.5
142
0.0
143
0.03937007874
144
1.0
145
0.0
146
1.0
147
0.625
148
0.0
 69
0
 70
0
 71
0
 72
0
 73
0
 74
0
 75
0
 76
0
 77
1
 78
8
 79
3
170
0
171
3
172
1
173
0
174
0
175
0
176
0
177
0
178
0
179
2
271
2
272
2
273
2
274
3
275
0
276
0
277
2
278
44
279
0
280
0
281
0
282
0
283
0
284
8
285
0
286
0
288
0
289
3
290
0
371
-2
372
-2
  0
ENDTAB
  0
TABLE
  2
BLOCK_RECORD
  5
9
330
0
100
AcDbSymbolTable
 70
2
  0
BLOCK_RECORD
  5
17
330
9
100
AcDbSymbolTableRecord
100
AcDbBlockTableRecord
  2
*Model_Space
340
1A
 70
0
280
1
281
0
  0
BLOCK_RECORD
  5
1B
330
9
100
AcDbSymbolTableRecord
100
AcDbBlockTableRecord
  2
*Paper_Space
340
1E
 70
0
280
1
281
0
  0
ENDTAB
  0
ENDSEC
  0
SECTION
  2
BLOCKS
  0
BLOCK
  5
18
330
17
100
AcDbEntity
  8
0
100
AcDbBlockBegin
  2
*Model_Space
 70
0
 10
0.0
 20
0.0
 30
0.0
  3
*Model_Space
  1

  0
ENDBLK
  5
19
330
17
100
AcDbEntity
  8
0
100
AcDbBlockEnd
  0
BLOCK
  5
1C
330
1B
100
AcDbEntity
  8
0
100
AcDbBlockBegin
  2
*Paper_Space
 70
0
 10
0.0
 20
0.0
 30
0.0
  3
*Paper_Space
  1

  0
ENDBLK
  5
1D
330
1B
100
AcDbEntity
  8
0
100
AcDbBlockEnd
  0
ENDSEC
  0
SECTION
  2
ENTITIES
  0
LWPOLYLINE
  5
32
330
17
100
AcDbEntity
  8
CUT_OUTER
100
AcDbPolyline
 90
179
 70
1
 10
65.733
 20
115.626
 10
64.858
 20
115.801
 10
64.408
 20
115.826
 10
64.383
 20
115.851
 10
63.808
 20
115.851
 10
63.783
 20
115.876
 10
63.758
 20
115.851
 10
63.183
 20
115.851
 10
63.158
 20
115.826
 10
62.908
 20
115.826
 10
62.883
 20
115.801
 10
62.408
 20
115.751
 10
61.483
 20
115.526
 10
60.733
 20
115.251
 10
59.883
 20
114.826
 10
59.358
 20
114.476
 10
59.308
 20
114.476
 10
58.558
 20
115.101
 10
58.233
 20
115.326
 10
57.933
 20
115.476
 10
57.458
 20
115.601
 10
57.183
 20
115.601
 10
57.158
 20
115.626
 10
57.133
 20
115.601
 10
56.858
 20
115.601
 10
56.383
 20
115.476
 10
55.933
 20
115.226
 10
55.533
 20
114.851
 10
55.358
 20
114.601
 10
55.208
 20
114.301
 10
55.108
 20
113.976
 10
55.083
 20
113.551
 10
55.058
 20
113.526
 10
55.083
 20
113.501
 10
55.083
 20
113.226
 10
55.133
 20
112.976
 10
55.358
 20
112.451
 10
55.533
 20
112.201
 10
55.908
 20
111.826
 10
56.658
 20
111.226
 10
56.358
 20
110.401
 10
56.208
 20
109.851
 10
56.108
 20
109.201
 10
56.083
 20
109.176
 10
56.058
 20
108.726
 10
56.033
 20
108.701
 10
56.033
 20
108.126
 10
55.983
 20
108.101
 10
55.983
 20
102.926
 10
55.958
 20
102.901
 10
55.208
 20
102.901
 10
55.183
 20
102.926
 10
55.183
 20
111.201
 10
55.158
 20
111.226
 10
55.133
 20
111.851
 10
55.033
 20
112.351
 10
54.858
 20
112.876
 10
54.608
 20
113.401
 10
54.283
 20
113.901
 10
54.058
 20
114.176
 10
53.658
 20
114.576
 10
53.383
 20
114.801
 10
52.883
 20
115.126
 10
52.533
 20
115.301
 10
51.733
 20
115.576
 10
51.333
 20
115.651
 10
51.158
 20
115.651
 10
51.133
 20
115.676
 10
50.708
 20
115.676
 10
50.683
 20
115.701
 10
31.533
 20
115.701
 10
31.508
 20
115.676
 10
31.233
 20
115.651
 10
30.933
 20
115.501
 10
30.733
 20
115.301
 10
30.583
 20
115.001
 10
30.558
 20
114.726
 10
30.533
 20
114.701
 10
30.533
 20
23.401
 10
30.558
 20
23.376
 10
30.558
 20
23.126
 10
30.683
 20
22.726
 10
30.833
 20
22.476
 10
31.208
 20
22.101
 10
31.408
 20
21.976
 10
31.658
 20
21.876
 10
31.858
 20
21.826
 10
32.108
 20
21.826
 10
32.133
 20
21.801
 10
36.083
 20
21.801
 10
36.108
 20
21.776
 10
36.108
 20
11.251
 10
36.133
 20
11.226
 10
36.158
 20
10.901
 10
36.358
 20
10.501
 10
36.608
 20
10.251
 10
37.008
 20
10.051
 10
37.333
 20
10.026
 10
37.358
 20
10.001
 10
69.358
 20
10.001
 10
69.383
 20
10.026
 10
69.583
 20
10.026
 10
69.783
 20
10.076
 10
70.108
 20
10.251
 10
70.358
 20
10.501
 10
70.533
 20
10.826
 10
70.583
 20
11.026
 10
70.583
 20
11.226
 10
70.608
 20
11.251
 10
70.608
 20
21.776
 10
70.633
 20
21.801
 10
74.633
 20
21.801
 10
74.658
 20
21.826
 10
75.008
 20
21.851
 10
75.283
 20
21.951
 10
75.533
 20
22.101
 10
75.833
 20
22.401
 10
75.958
 20
22.601
 10
76.083
 20
22.926
 10
76.108
 20
23.276
 10
76.133
 20
23.301
 10
76.133
 20
28.201
 10
76.158
 20
28.226
 10
80.283
 20
28.226
 10
80.433
 20
28.276
 10
80.558
 20
28.426
 10
80.583
 20
28.526
 10
80.583
 20
46.826
 10
80.533
 20
46.976
 10
80.433
 20
47.076
 10
80.283
 20
47.126
 10
76.158
 20
47.126
 10
76.133
 20
47.151
 10
76.133
 20
99.951
 10
76.108
 20
99.976
 10
76.108
 20
100.176
 10
75.958
 20
100.551
 10
75.808
 20
100.751
 10
75.583
 20
100.926
 10
75.208
 20
101.076
 10
75.008
 20
101.076
 10
74.983
 20
101.101
 10
71.483
 20
101.101
 10
71.458
 20
101.126
 10
71.908
 20
101.401
 10
72.208
 20
101.701
 10
72.383
 20
101.951
 10
72.608
 20
102.476
 10
72.658
 20
102.726
 10
72.658
 20
103.001
 10
72.683
 20
103.026
 10
72.658
 20
103.051
 10
72.658
 20
103.326
 10
72.608
 20
103.576
 10
72.533
 20
103.801
 10
72.283
 20
104.251
 10
71.908
 20
104.651
 10
71.033
 20
105.301
 10
71.308
 20
106.151
 10
71.433
 20
106.726
 10
71.483
 20
107.201
 10
71.508
 20
107.226
 10
71.533
 20
108.076
 10
71.558
 20
108.101
 10
71.533
 20
108.126
 10
71.533
 20
108.701
 10
71.508
 20
108.726
 10
71.508
 20
108.976
 10
71.483
 20
109.001
 10
71.433
 20
109.476
 10
71.308
 20
110.051
 10
71.083
 20
110.776
 10
70.633
 20
111.776
 10
70.158
 20
112.551
 10
69.583
 20
113.276
 10
68.958
 20
113.901
 10
68.233
 20
114.476
 10
67.458
 20
114.951
 10
66.458
 20
115.401
  0
LWPOLYLINE
  5
33
330
17
100
AcDbEntity
  8
CUT_INNER
100
AcDbPolyline
 90
36
 70
1
 10
51.328
 20
107.084
 10
51.26651289729034
 20
107.70828903045161
 10
51.08441450403612
 20
108.30858698356829
 10
50.78870275936814
 20
108.86182474566273
 10
50.390741699796955
 20
109.34674169979695
 10
49.90582474566273
 20
109.74470275936815
 10
49.35258698356829
 20
110.04041450403612
 10
48.752289030451614
 20
110.22251289729034
 10
48.128
 20
110.284
 10
37.788
 20
110.284
 10
37.16371096954839
 20
110.22251289729034
 10
36.56341301643171
 20
110.04041450403612
 10
36.01017525433727
 20
109.74470275936815
 10
35.52525830020304
 20
109.34674169979695
 10
35.127297240631854
 20
108.86182474566273
 10
34.83158549596388
 20
108.30858698356829
 10
34.64948710270966
 20
107.70828903045161
 10
34.587999999999994
 20
107.084
 10
34.587999999999994
 20
107.054
 10
34.64948710270966
 20
106.4297109695484
 10
34.83158549596388
 20
105.82941301643172
 10
35.127297240631854
 20
105.27617525433728
 10
35.52525830020304
 20
104.79125830020305
 10
36.01017525433727
 20
104.39329724063185
 10
36.56341301643171
 20
104.09758549596388
 10
37.16371096954838
 20
103.91548710270966
 10
37.788
 20
103.854
 10
48.128
 20
103.854
 10
48.752289030451614
 20
103.91548710270966
 10
49.35258698356829
 20
104.09758549596388
 10
49.90582474566273
 20
104.39329724063185
 10
50.39074169979695
 20
104.79125830020305
 10
50.78870275936814
 20
105.27617525433728
 10
51.08441450403612
 20
105.82941301643172
 10
51.26651289729034
 20
106.4297109695484
 10
51.328
 20
107.054
  0
LWPOLYLINE
  5
34
330
17
100
AcDbEntity
  8
CUT_INNER
100
AcDbPolyline
 90
36
 70
1
 10
50.522
 20
95.49199999999999
 10
50.48549203276614
 20
95.86267161183063
 10
50.377371111771446
 20
96.21909852149366
 10
50.201792263374834
 20
96.54758344273723
 10
49.96550288425444
 20
96.83550288425442
 10
49.677583442737244
 20
97.07179226337483
 10
49.34909852149367
 20
97.24737111177143
 10
48.992671611830644
 20
97.35549203276612
 10
48.622
 20
97.392
 10
37.682
 20
97.392
 10
37.31132838816936
 20
97.35549203276612
 10
36.95490147850633
 20
97.24737111177143
 10
36.62641655726276
 20
97.07179226337483
 10
36.33849711574556
 20
96.83550288425442
 10
36.10220773662517
 20
96.54758344273723
 10
35.92662888822856
 20
96.21909852149366
 10
35.81850796723386
 20
95.86267161183063
 10
35.782000000000004
 20
95.49199999999999
 10
35.782000000000004
 20
87.322
 10
35.81850796723386
 20
86.95132838816936
 10
35.92662888822856
 20
86.59490147850633
 10
36.10220773662517
 20
86.26641655726276
 10
36.33849711574556
 20
85.97849711574557
 10
36.62641655726276
 20
85.74220773662516
 10
36.95490147850633
 20
85.56662888822856
 10
37.31132838816936
 20
85.45850796723387
 10
37.682
 20
85.422
 10
48.622
 20
85.422
 10
48.992671611830644
 20
85.45850796723387
 10
49.34909852149367
 20
85.56662888822856
 10
49.677583442737244
 20
85.74220773662516
 10
49.96550288425444
 20
85.97849711574557
 10
50.201792263374834
 20
86.26641655726276
 10
50.377371111771446
 20
86.59490147850633
 10
50.48549203276614
 20
86.95132838816936
 10
50.522
 20
87.322
  0
LWPOLYLINE
  5
35
330
17
100
AcDbEntity
  8
CUT_INNER
100
AcDbPolyline
 90
36
 70
1
 10
71.071
 20
95.61
 10
71.03929571266532
 20
95.93189903132661
 10
70.94540122864362
 20
96.24142766340239
 10
70.7929248602992
 20
96.52669088448235
 10
70.5877261889578
 20
96.77672618895781
 10
70.33769088448234
 20
96.9819248602992
 10
70.0524276634024
 20
97.13440122864363
 10
69.7428990313266
 20
97.22829571266533
 10
69.42099999999999
 20
97.26
 10
57.921
 20
97.26
 10
57.59910096867339
 20
97.22829571266533
 10
57.2895723365976
 20
97.13440122864363
 10
57.00430911551766
 20
96.9819248602992
 10
56.7542738110422
 20
96.77672618895781
 10
56.5490751397008
 20
96.52669088448235
 10
56.39659877135637
 20
96.2414276634024
 10
56.30270428733467
 20
95.93189903132661
 10
56.271
 20
95.61
 10
56.271
 20
87.58
 10
56.30270428733467
 20
87.25810096867339
 10
56.39659877135637
 20
86.9485723365976
 10
56.5490751397008
 20
86.66330911551765
 10
56.7542738110422
 20
86.41327381104219
 10
57.00430911551766
 20
86.2080751397008
 10
57.2895723365976
 20
86.05559877135637
 10
57.59910096867339
 20
85.96170428733467
 10
57.921
 20
85.92999999999999
 10
69.42099999999999
 20
85.92999999999999
 10
69.7428990313266
 20
85.96170428733467
 10
70.0524276634024
 20
86.05559877135637
 10
70.33769088448234
 20
86.2080751397008
 10
70.5877261889578
 20
86.41327381104219
 10
70.7929248602992
 20
86.66330911551765
 10
70.94540122864362
 20
86.9485723365976
 10
71.03929571266532
 20
87.25810096867339
 10
71.071
 20
87.58
  0
LWPOLYLINE
  5
36
330
17
100
AcDbEntity
  8
CUT_INNER
100
AcDbPolyline
 90
36
 70
1
 10
48.301
 20
76.557
 10
48.25200246502824
 20
77.05448032114113
 10
48.10689280790378
 20
77.53284275253098
 10
47.87124751137149
 20
77.97370409419999
 10
47.5541222920257
 20
78.3601222920257
 10
47.16770409419999
 20
78.67724751137149
 10
46.726842752530985
 20
78.91289280790379
 10
46.24848032114113
 20
79.05800246502824
 10
45.751000000000005
 20
79.107
 10
40.42099999999999
 20
79.107
 10
39.92351967885887
 20
79.05800246502824
 10
39.44515724746901
 20
78.91289280790379
 10
39.00429590580001
 20
78.67724751137149
 10
38.617877707974294
 20
78.3601222920257
 10
38.300752488628504
 20
77.97370409419999
 10
38.065107192096214
 20
77.53284275253098
 10
37.919997534971756
 20
77.05448032114113
 10
37.870999999999995
 20
76.557
 10
37.870999999999995
 20
74.95700000000001
 10
37.919997534971756
 20
74.45951967885888
 10
38.065107192096214
 20
73.98115724746903
 10
38.300752488628504
 20
73.54029590580002
 10
38.617877707974294
 20
73.15387770797432
 10
39.00429590580001
 20
72.83675248862852
 10
39.44515724746901
 20
72.60110719209622
 10
39.92351967885887
 20
72.45599753497177
 10
40.42099999999999
 20
72.40700000000001
 10
45.751000000000005
 20
72.40700000000001
 10
46.24848032114113
 20
72.45599753497177
 10
46.726842752530985
 20
72.60110719209622
 10
47.16770409419999
 20
72.83675248862852
 10
47.5541222920257
 20
73.15387770797432
 10
47.87124751137149
 20
73.54029590580002
 10
48.10689280790378
 20
73.98115724746903
 10
48.25200246502824
 20
74.45951967885888
 10
48.301
 20
74.95700000000001
  0
LWPOLYLINE
  5
37
330
17
100
AcDbEntity
  8
CUT_INNER
100
AcDbPolyline
 90
36
 70
1
 10
68.901
 20
76.557
 10
68.85200246502824
 20
77.05448032114113
 10
68.70689280790378
 20
77.53284275253098
 10
68.47124751137149
 20
77.97370409419999
 10
68.15412229202569
 20
78.3601222920257
 10
67.76770409419998
 20
78.67724751137149
 10
67.32684275253098
 20
78.91289280790379
 10
66.84848032114112
 20
79.05800246502824
 10
66.351
 20
79.107
 10
61.021
 20
79.107
 10
60.523519678858875
 20
79.05800246502824
 10
60.04515724746902
 20
78.91289280790379
 10
59.604295905800015
 20
78.67724751137149
 10
59.2178777079743
 20
78.3601222920257
 10
58.90075248862851
 20
77.97370409419999
 10
58.66510719209622
 20
77.53284275253098
 10
58.519997534971765
 20
77.05448032114113
 10
58.471000000000004
 20
76.557
 10
58.471000000000004
 20
74.95700000000001
 10
58.519997534971765
 20
74.45951967885888
 10
58.66510719209622
 20
73.98115724746903
 10
58.90075248862851
 20
73.54029590580002
 10
59.2178777079743
 20
73.15387770797432
 10
59.604295905800015
 20
72.83675248862852
 10
60.04515724746902
 20
72.60110719209622
 10
60.523519678858875
 20
72.45599753497177
 10
61.021
 20
72.40700000000001
 10
66.351
 20
72.40700000000001
 10
66.84848032114112
 20
72.45599753497177
 10
67.32684275253098
 20
72.60110719209622
 10
67.76770409419998
 20
72.83675248862852
 10
68.15412229202569
 20
73.15387770797432
 10
68.47124751137149
 20
73.54029590580002
 10
68.70689280790378
 20
73.98115724746903
 10
68.85200246502824
 20
74.45951967885888
 10
68.901
 20
74.95700000000001
  0
LWPOLYLINE
  5
38
330
17
100
AcDbEntity
  8
CUT_INNER
100
AcDbPolyline
 90
36
 70
1
 10
48.301
 20
66.64
 10
48.25200246502824
 20
67.13748032114113
 10
48.10689280790378
 20
67.61584275253098
 10
47.87124751137149
 20
68.05670409419999
 10
47.5541222920257
 20
68.44312229202569
 10
47.16770409419999
 20
68.76024751137149
 10
46.726842752530985
 20
68.99589280790379
 10
46.24848032114113
 20
69.14100246502824
 10
45.751000000000005
 20
69.19
 10
40.42099999999999
 20
69.19
 10
39.92351967885887
 20
69.14100246502824
 10
39.44515724746901
 20
68.99589280790379
 10
39.00429590580001
 20
68.76024751137149
 10
38.617877707974294
 20
68.44312229202569
 10
38.300752488628504
 20
68.05670409419999
 10
38.065107192096214
 20
67.61584275253098
 10
37.919997534971756
 20
67.13748032114113
 10
37.870999999999995
 20
66.64
 10
37.870999999999995
 20
65.04
 10
37.919997534971756
 20
64.54251967885888
 10
38.065107192096214
 20
64.06415724746903
 10
38.300752488628504
 20
63.62329590580002
 10
38.617877707974294
 20
63.23687770797431
 10
39.00429590580001
 20
62.91975248862852
 10
39.44515724746901
 20
62.68410719209623
 10
39.92351967885887
 20
62.53899753497177
 10
40.42099999999999
 20
62.49000000000001
 10
45.751000000000005
 20
62.49000000000001
 10
46.24848032114113
 20
62.53899753497177
 10
46.726842752530985
 20
62.68410719209623
 10
47.16770409419999
 20
62.91975248862852
 10
47.5541222920257
 20
63.23687770797431
 10
47.87124751137149
 20
63.62329590580002
 10
48.10689280790378
 20
64.06415724746903
 10
48.25200246502824
 20
64.54251967885888
 10
48.301
 20
65.04
  0
LWPOLYLINE
  5
39
330
17
100
AcDbEntity
  8
CUT_INNER
100
AcDbPolyline
 90
36
 70
1
 10
68.901
 20
66.64
 10
68.85200246502824
 20
67.13748032114113
 10
68.70689280790378
 20
67.61584275253098
 10
68.47124751137149
 20
68.05670409419999
 10
68.15412229202569
 20
68.44312229202569
 10
67.76770409419998
 20
68.76024751137149
 10
67.32684275253098
 20
68.99589280790379
 10
66.84848032114112
 20
69.14100246502824
 10
66.351
 20
69.19
 10
61.021
 20
69.19
 10
60.523519678858875
 20
69.14100246502824
 10
60.04515724746902
 20
68.99589280790379
 10
59.604295905800015
 20
68.76024751137149
 10
59.2178777079743
 20
68.44312229202569
 10
58.90075248862851
 20
68.05670409419999
 10
58.66510719209622
 20
67.61584275253098
 10
58.519997534971765
 20
67.13748032114113
 10
58.471000000000004
 20
66.64
 10
58.471000000000004
 20
65.04
 10
58.519997534971765
 20
64.54251967885888
 10
58.66510719209622
 20
64.06415724746903
 10
58.90075248862851
 20
63.62329590580002
 10
59.2178777079743
 20
63.23687770797431
 10
59.604295905800015
 20
62.91975248862852
 10
60.04515724746902
 20
62.68410719209623
 10
60.523519678858875
 20
62.53899753497177
 10
61.021
 20
62.49000000000001
 10
66.351
 20
62.49000000000001
 10
66.84848032114112
 20
62.53899753497177
 10
67.32684275253098
 20
62.68410719209623
 10
67.76770409419998
 20
62.91975248862852
 10
68.15412229202569
 20
63.23687770797431
 10
68.47124751137149
 20
63.62329590580002
 10
68.70689280790378
 20
64.06415724746903
 10
68.85200246502824
 20
64.54251967885888
 10
68.901
 20
65.04
  0
LWPOLYLINE
  5
3A
330
17
100
AcDbEntity
  8
CUT_INNER
100
AcDbPolyline
 90
36
 70
1
 10
48.301
 20
56.772000000000006
 10
48.25200246502824
 20
57.26948032114113
 10
48.10689280790378
 20
57.747842752530985
 10
47.87124751137149
 20
58.18870409419999
 10
47.5541222920257
 20
58.5751222920257
 10
47.16770409419999
 20
58.892247511371494
 10
46.726842752530985
 20
59.127892807903784
 10
46.24848032114113
 20
59.27300246502824
 10
45.751000000000005
 20
59.322
 10
40.42099999999999
 20
59.322
 10
39.92351967885887
 20
59.27300246502824
 10
39.44515724746901
 20
59.127892807903784
 10
39.00429590580001
 20
58.892247511371494
 10
38.617877707974294
 20
58.5751222920257
 10
38.300752488628504
 20
58.18870409419999
 10
38.065107192096214
 20
57.747842752530985
 10
37.919997534971756
 20
57.26948032114113
 10
37.870999999999995
 20
56.772000000000006
 10
37.870999999999995
 20
55.172
 10
37.919997534971756
 20
54.67451967885887
 10
38.065107192096214
 20
54.19615724746902
 10
38.300752488628504
 20
53.75529590580001
 10
38.617877707974294
 20
53.3688777079743
 10
39.00429590580001
 20
53.05175248862851
 10
39.44515724746901
 20
52.81610719209622
 10
39.92351967885887
 20
52.67099753497176
 10
40.42099999999999
 20
52.622
 10
45.751000000000005
 20
52.622
 10
46.24848032114113
 20
52.67099753497176
 10
46.726842752530985
 20
52.81610719209622
 10
47.16770409419999
 20
53.05175248862851
 10
47.5541222920257
 20
53.3688777079743
 10
47.87124751137149
 20
53.75529590580001
 10
48.10689280790378
 20
54.19615724746902
 10
48.25200246502824
 20
54.67451967885887
 10
48.301
 20
55.172
  0
LWPOLYLINE
  5
3B
330
17
100
AcDbEntity
  8
CUT_INNER
100
AcDbPolyline
 90
36
 70
1
 10
68.901
 20
56.772000000000006
 10
68.85200246502824
 20
57.26948032114113
 10
68.70689280790378
 20
57.747842752530985
 10
68.47124751137149
 20
58.18870409419999
 10
68.15412229202569
 20
58.5751222920257
 10
67.76770409419998
 20
58.892247511371494
 10
67.32684275253098
 20
59.127892807903784
 10
66.84848032114112
 20
59.27300246502824
 10
66.351
 20
59.322
 10
61.021
 20
59.322
 10
60.523519678858875
 20
59.27300246502824
 10
60.04515724746902
 20
59.127892807903784
 10
59.604295905800015
 20
58.892247511371494
 10
59.2178777079743
 20
58.5751222920257
 10
58.90075248862851
 20
58.18870409419999
 10
58.66510719209622
 20
57.747842752530985
 10
58.519997534971765
 20
57.26948032114113
 10
58.471000000000004
 20
56.772000000000006
 10
58.471000000000004
 20
55.172
 10
58.519997534971765
 20
54.67451967885887
 10
58.66510719209622
 20
54.19615724746902
 10
58.90075248862851
 20
53.75529590580001
 10
59.2178777079743
 20
53.3688777079743
 10
59.604295905800015
 20
53.05175248862851
 10
60.04515724746902
 20
52.81610719209622
 10
60.523519678858875
 20
52.67099753497176
 10
61.021
 20
52.622
 10
66.351
 20
52.622
 10
66.84848032114112
 20
52.67099753497176
 10
67.32684275253098
 20
52.81610719209622
 10
67.76770409419998
 20
53.05175248862851
 10
68.15412229202569
 20
53.3688777079743
 10
68.47124751137149
 20
53.75529590580001
 10
68.70689280790378
 20
54.19615724746902
 10
68.85200246502824
 20
54.67451967885887
 10
68.901
 20
55.172
  0
LWPOLYLINE
  5
3C
330
17
100
AcDbEntity
  8
CUT_INNER
100
AcDbPolyline
 90
36
 70
1
 10
50.749
 20
44.193
 10
50.71172344398227
 20
44.571475224711286
 10
50.6013262930719
 20
44.93540585878827
 10
50.422051047866944
 20
45.27080625205802
 10
50.1807871555019
 20
45.5647871555019
 10
49.88680625205804
 20
45.80605104786694
 10
49.55140585878828
 20
45.98532629307189
 10
49.18747522471129
 20
46.095723443982266
 10
48.809000000000005
 20
46.132999999999996
 10
37.428999999999995
 20
46.132999999999996
 10
37.05052477528871
 20
46.095723443982266
 10
36.68659414121172
 20
45.98532629307189
 10
36.35119374794196
 20
45.80605104786694
 10
36.057212844498096
 20
45.564787155501904
 10
35.815948952133056
 20
45.27080625205802
 10
35.6366737069281
 20
44.93540585878827
 10
35.52627655601773
 20
44.571475224711286
 10
35.489
 20
44.193
 10
35.489
 20
41.083
 10
35.52627655601773
 20
40.70452477528871
 10
35.6366737069281
 20
40.340594141211724
 10
35.815948952133056
 20
40.00519374794197
 10
36.05721284449809
 20
39.7112128444981
 10
36.35119374794197
 20
39.46994895213306
 10
36.68659414121172
 20
39.290673706928104
 10
37.05052477528871
 20
39.18027655601773
 10
37.428999999999995
 20
39.143
 10
48.809000000000005
 20
39.143
 10
49.18747522471129
 20
39.18027655601773
 10
49.55140585878828
 20
39.290673706928104
 10
49.88680625205803
 20
39.46994895213306
 10
50.1807871555019
 20
39.71121284449809
 10
50.422051047866944
 20
40.00519374794197
 10
50.6013262930719
 20
40.340594141211724
 10
50.71172344398227
 20
40.70452477528871
 10
50.749
 20
41.083
  0
LWPOLYLINE
  5
3D
330
17
100
AcDbEntity
  8
CUT_INNER
100
AcDbPolyline
 90
36
 70
1
 10
50.749
 20
34.089999999999996
 10
50.71172344398227
 20
34.468475224711284
 10
50.6013262930719
 20
34.83240585878827
 10
50.422051047866944
 20
35.16780625205802
 10
50.1807871555019
 20
35.461787155501895
 10
49.88680625205804
 20
35.703051047866936
 10
49.55140585878828
 20
35.88232629307189
 10
49.18747522471129
 20
35.992723443982264
 10
48.809000000000005
 20
36.029999999999994
 10
37.428999999999995
 20
36.029999999999994
 10
37.05052477528871
 20
35.992723443982264
 10
36.68659414121172
 20
35.88232629307189
 10
36.35119374794196
 20
35.703051047866936
 10
36.057212844498096
 20
35.461787155501895
 10
35.815948952133056
 20
35.16780625205802
 10
35.6366737069281
 20
34.83240585878827
 10
35.52627655601773
 20
34.468475224711284
 10
35.489
 20
34.089999999999996
 10
35.489
 20
30.979999999999997
 10
35.52627655601773
 20
30.60152477528871
 10
35.6366737069281
 20
30.237594141211723
 10
35.815948952133056
 20
29.90219374794197
 10
36.05721284449809
 20
29.608212844498095
 10
36.35119374794197
 20
29.366948952133058
 10
36.68659414121172
 20
29.187673706928102
 10
37.05052477528871
 20
29.07727655601773
 10
37.428999999999995
 20
29.039999999999996
 10
48.809000000000005
 20
29.039999999999996
 10
49.18747522471129
 20
29.07727655601773
 10
49.55140585878828
 20
29.187673706928102
 10
49.88680625205803
 20
29.366948952133058
 10
50.1807871555019
 20
29.608212844498095
 10
50.422051047866944
 20
29.90219374794197
 10
50.6013262930719
 20
30.237594141211723
 10
50.71172344398227
 20
30.601524775288706
 10
50.749
 20
30.979999999999997
  0
LWPOLYLINE
  5
3E
330
17
100
AcDbEntity
  8
CUT_INNER
100
AcDbPolyline
 90
36
 70
1
 10
71.391
 20
44.193
 10
71.35372344398228
 20
44.571475224711286
 10
71.2433262930719
 20
44.93540585878827
 10
71.06405104786694
 20
45.27080625205802
 10
70.82278715550191
 20
45.5647871555019
 10
70.52880625205803
 20
45.80605104786694
 10
70.19340585878828
 20
45.98532629307189
 10
69.8294752247113
 20
46.095723443982266
 10
69.45100000000001
 20
46.132999999999996
 10
58.071
 20
46.132999999999996
 10
57.69252477528871
 20
46.095723443982266
 10
57.328594141211724
 20
45.98532629307189
 10
56.99319374794197
 20
45.80605104786694
 10
56.6992128444981
 20
45.564787155501904
 10
56.45794895213306
 20
45.27080625205802
 10
56.2786737069281
 20
44.93540585878827
 10
56.16827655601773
 20
44.571475224711286
 10
56.131
 20
44.193
 10
56.131
 20
41.083
 10
56.16827655601773
 20
40.70452477528871
 10
56.2786737069281
 20
40.340594141211724
 10
56.45794895213306
 20
40.00519374794197
 10
56.69921284449809
 20
39.7112128444981
 10
56.99319374794197
 20
39.46994895213306
 10
57.328594141211724
 20
39.290673706928104
 10
57.69252477528871
 20
39.18027655601773
 10
58.071
 20
39.143
 10
69.45100000000001
 20
39.143
 10
69.8294752247113
 20
39.18027655601773
 10
70.19340585878828
 20
39.290673706928104
 10
70.52880625205803
 20
39.46994895213306
 10
70.82278715550191
 20
39.71121284449809
 10
71.06405104786694
 20
40.00519374794197
 10
71.2433262930719
 20
40.340594141211724
 10
71.35372344398228
 20
40.70452477528871
 10
71.391
 20
41.083
  0
LWPOLYLINE
  5
3F
330
17
100
AcDbEntity
  8
CUT_INNER
100
AcDbPolyline
 90
36
 70
1
 10
71.391
 20
34.089999999999996
 10
71.35372344398228
 20
34.468475224711284
 10
71.2433262930719
 20
34.83240585878827
 10
71.06405104786694
 20
35.16780625205802
 10
70.82278715550191
 20
35.461787155501895
 10
70.52880625205803
 20
35.703051047866936
 10
70.19340585878828
 20
35.88232629307189
 10
69.8294752247113
 20
35.992723443982264
 10
69.45100000000001
 20
36.029999999999994
 10
58.071
 20
36.029999999999994
 10
57.69252477528871
 20
35.992723443982264
 10
57.328594141211724
 20
35.88232629307189
 10
56.99319374794197
 20
35.703051047866936
 10
56.6992128444981
 20
35.461787155501895
 10
56.45794895213306
 20
35.16780625205802
 10
56.2786737069281
 20
34.83240585878827
 10
56.16827655601773
 20
34.468475224711284
 10
56.131
 20
34.089999999999996
 10
56.131
 20
30.979999999999997
 10
56.16827655601773
 20
30.60152477528871
 10
56.2786737069281
 20
30.237594141211723
 10
56.45794895213306
 20
29.90219374794197
 10
56.69921284449809
 20
29.608212844498095
 10
56.99319374794197
 20
29.366948952133058
 10
57.328594141211724
 20
29.187673706928102
 10
57.69252477528871
 20
29.07727655601773
 10
58.071
 20
29.039999999999996
 10
69.45100000000001
 20
29.039999999999996
 10
69.8294752247113
 20
29.07727655601773
 10
70.19340585878828
 20
29.187673706928102
 10
70.52880625205803
 20
29.366948952133058
 10
70.82278715550191
 20
29.608212844498095
 10
71.06405104786694
 20
29.90219374794197
 10
71.2433262930719
 20
30.237594141211723
 10
71.35372344398228
 20
30.601524775288706
 10
71.391
 20
30.979999999999997
  0
CIRCLE
  5
40
330
17
100
AcDbEntity
  8
CUT_INNER
100
AcDbCircle
 10
43.06
 20
19.027
 30
0.0
 40
4.325
  0
CIRCLE
  5
41
330
17
100
AcDbEntity
  8
CUT_INNER
100
AcDbCircle
 10
63.738
 20
19.027
 30
0.0
 40
4.325
  0
CIRCLE
  5
42
330
17
100
AcDbEntity
  8
CUT_INNER
100
AcDbCircle
 10
53.177
 20
75.528
 30
0.0
 40
2.15
  0
CIRCLE
  5
43
330
17
100
AcDbEntity
  8
CUT_INNER
100
AcDbCircle
 10
53.352
 20
58.161
 30
0.0
 40
3.04
  0
CIRCLE
  5
44
330
17
100
AcDbEntity
  8
CUT_INNER
100
AcDbCircle
 10
53.381
 20
19.272
 30
0.0
 40
3.335
  0
CIRCLE
  5
45
330
17
100
AcDbEntity
  8
CUT_INNER
100
AcDbCircle
 10
63.793
 20
108.111
 30
0.0
 40
8.285
  0
TEXT
  5
46
330
17
100
AcDbEntity
  8
NOTES
100
AcDbText
 10
20.0
 20
-12.0
 30
0.0
 40
1.6
  1
MP62 IO flex foam / insulator A0 (back view, mm, scan-based outline): 1.0 PE/PORON foam with PSA (stock-like) OR 0.25 Formex GK-10; laser/die cut; VERIFY against the flex
 11
20.0
 21
-12.0
 31
0.0
100
AcDbText
  0
ENDSEC
  0
SECTION
  2
OBJECTS
  0
DICTIONARY
  5
A
330
0
100
AcDbDictionary
281
1
  3
ACAD_COLOR
350
B
  3
ACAD_GROUP
350
C
  3
ACAD_LAYOUT
350
D
  3
ACAD_MATERIAL
350
E
  3
ACAD_MLEADERSTYLE
350
F
  3
ACAD_MLINESTYLE
350
10
  3
ACAD_PLOTSETTINGS
350
11
  3
ACAD_PLOTSTYLENAME
350
12
  3
ACAD_SCALELIST
350
14
  3
ACAD_TABLESTYLE
350
15
  3
ACAD_VISUALSTYLE
350
16
  3
EZDXF_META
350
2D
  0
DICTIONARY
  5
B
330
A
100
AcDbDictionary
281
1
  0
DICTIONARY
  5
C
330
A
100
AcDbDictionary
281
1
  0
DICTIONARY
  5
D
330
A
100
AcDbDictionary
281
1
  3
Model
350
1A
  3
Layout1
350
1E
  0
DICTIONARY
  5
E
330
A
100
AcDbDictionary
281
1
  3
ByBlock
350
1F
  3
ByLayer
350
20
  3
Global
350
21
  0
DICTIONARY
  5
F
330
A
100
AcDbDictionary
281
1
  3
Standard
350
2C
  0
DICTIONARY
  5
10
330
A
100
AcDbDictionary
281
1
  3
Standard
350
22
  0
DICTIONARY
  5
11
330
A
100
AcDbDictionary
281
1
  0
ACDBDICTIONARYWDFLT
  5
12
330
A
100
AcDbDictionary
281
1
  3
Normal
350
13
100
AcDbDictionaryWithDefault
340
13
  0
ACDBPLACEHOLDER
  5
13
330
12
  0
DICTIONARY
  5
14
330
A
100
AcDbDictionary
281
1
  0
DICTIONARY
  5
15
330
A
100
AcDbDictionary
281
1
  0
DICTIONARY
  5
16
330
A
100
AcDbDictionary
281
1
  0
LAYOUT
  5
1A
330
D
100
AcDbPlotSettings
  1

  4
A3
  6

 40
7.5
 41
20.0
 42
7.5
 43
20.0
 44
420.0
 45
297.0
 46
0.0
 47
0.0
 48
0.0
 49
0.0
140
0.0
141
0.0
142
1.0
143
1.0
 70
1024
 72
1
 73
0
 74
5
  7

 75
16
 76
0
 77
2
 78
300
147
1.0
148
0.0
149
0.0
100
AcDbLayout
  1
Model
 70
1
 71
0
 10
0.0
 20
0.0
 11
420.0
 21
297.0
 12
0.0
 22
0.0
 32
0.0
 14
1e+20
 24
1e+20
 34
1e+20
 15
-1e+20
 25
-1e+20
 35
-1e+20
146
0.0
 13
0.0
 23
0.0
 33
0.0
 16
1.0
 26
0.0
 36
0.0
 17
0.0
 27
1.0
 37
0.0
 76
1
330
17
  0
LAYOUT
  5
1E
330
D
100
AcDbPlotSettings
  1

  4
A3
  6

 40
7.5
 41
20.0
 42
7.5
 43
20.0
 44
420.0
 45
297.0
 46
0.0
 47
0.0
 48
0.0
 49
0.0
140
0.0
141
0.0
142
1.0
143
1.0
 70
0
 72
1
 73
0
 74
5
  7

 75
16
 76
0
 77
2
 78
300
147
1.0
148
0.0
149
0.0
100
AcDbLayout
  1
Layout1
 70
1
 71
1
 10
0.0
 20
0.0
 11
420.0
 21
297.0
 12
0.0
 22
0.0
 32
0.0
 14
1e+20
 24
1e+20
 34
1e+20
 15
-1e+20
 25
-1e+20
 35
-1e+20
146
0.0
 13
0.0
 23
0.0
 33
0.0
 16
1.0
 26
0.0
 36
0.0
 17
0.0
 27
1.0
 37
0.0
 76
1
330
1B
  0
MATERIAL
  5
1F
102
{ACAD_REACTORS
330
E
102
}
330
E
100
AcDbMaterial
  1
ByBlock
  2

 70
0
 40
1.0
 71
1
 41
1.0
 91
-1023410177
 42
1.0
 72
1
  3

 73
1
 74
1
 75
1
 44
0.5
 73
0
 45
1.0
 46
1.0
 77
1
  4

 78
1
 79
1
170
1
 48
1.0
171
1
  6

172
1
173
1
174
1
140
1.0
141
1.0
175
1
  7

176
1
177
1
178
1
143
1.0
179
1
  8

270
1
271
1
272
1
145
1.0
146
1.0
273
1
  9

274
1
275
1
276
1
 42
1.0
 72
1
  3

 73
1
 74
1
 75
1
 94
63
  0
MATERIAL
  5
20
102
{ACAD_REACTORS
330
E
102
}
330
E
100
AcDbMaterial
  1
ByLayer
  2

 70
0
 40
1.0
 71
1
 41
1.0
 91
-1023410177
 42
1.0
 72
1
  3

 73
1
 74
1
 75
1
 44
0.5
 73
0
 45
1.0
 46
1.0
 77
1
  4

 78
1
 79
1
170
1
 48
1.0
171
1
  6

172
1
173
1
174
1
140
1.0
141
1.0
175
1
  7

176
1
177
1
178
1
143
1.0
179
1
  8

270
1
271
1
272
1
145
1.0
146
1.0
273
1
  9

274
1
275
1
276
1
 42
1.0
 72
1
  3

 73
1
 74
1
 75
1
 94
63
  0
MATERIAL
  5
21
102
{ACAD_REACTORS
330
E
102
}
330
E
100
AcDbMaterial
  1
Global
  2

 70
0
 40
1.0
 71
1
 41
1.0
 91
-1023410177
 42
1.0
 72
1
  3

 73
1
 74
1
 75
1
 44
0.5
 73
0
 45
1.0
 46
1.0
 77
1
  4

 78
1
 79
1
170
1
 48
1.0
171
1
  6

172
1
173
1
174
1
140
1.0
141
1.0
175
1
  7

176
1
177
1
178
1
143
1.0
179
1
  8

270
1
271
1
272
1
145
1.0
146
1.0
273
1
  9

274
1
275
1
276
1
 42
1.0
 72
1
  3

 73
1
 74
1
 75
1
 94
63
  0
MLINESTYLE
  5
22
102
{ACAD_REACTORS
330
10
102
}
330
10
100
AcDbMlineStyle
  2
Standard
 70
0
  3

 62
256
 51
90.0
 52
90.0
 71
2
 49
0.5
 62
256
  6
BYLAYER
 49
-0.5
 62
256
  6
BYLAYER
  0
MLEADERSTYLE
  5
2C
102
{ACAD_REACTORS
330
F
102
}
330
F
100
AcDbMLeaderStyle
179
2
170
2
171
1
172
0
 90
2
 40
0.0
 41
0.0
173
1
 91
-1056964608
 92
-2
290
1
 42
2.0
291
1
 43
8.0
  3
Standard
 44
4.0
300

342
29
174
1
175
1
176
0
178
1
 93
-1056964608
 45
4.0
292
0
297
0
 46
4.0
 94
-1056964608
 47
1.0
 49
1.0
140
1.0
294
1
141
0.0
177
0
142
1.0
295
0
296
0
143
3.75
271
0
272
9
273
9
  0
DICTIONARY
  5
2D
330
A
100
AcDbDictionary
280
1
281
1
  3
CREATED_BY_EZDXF
350
2E
  3
WRITTEN_BY_EZDXF
350
49
  0
DICTIONARYVAR
  5
2E
330
2D
100
DictionaryVariables
280
0
  1
1.4.4 @ 2026-10-02T15:17:20.918879+00:00
  0
DICTIONARYVAR
  5
49
330
2D
100
DictionaryVariables
280
0
  1
1.4.4 @ 2026-10-02T15:17:20.922051+00:00
  0
ENDSEC
  0
EOF
