  0
SECTION
  2
HEADER
  9
$ACADVER
  1
AC1024
  9
$ACADMAINTVER
 70
6
  9
$DWGCODEPAGE
  3
ANSI_1252
  9
$LASTSAVEDBY
  1
ezdxf
  9
$INSBASE
 10
0.0
 20
0.0
 30
0.0
  9
$EXTMIN
 10
1e+20
 20
1e+20
 30
1e+20
  9
$EXTMAX
 10
-1e+20
 20
-1e+20
 30
-1e+20
  9
$LIMMIN
 10
0.0
 20
0.0
  9
$LIMMAX
 10
420.0
 20
297.0
  9
$ORTHOMODE
 70
0
  9
$REGENMODE
 70
1
  9
$FILLMODE
 70
1
  9
$QTEXTMODE
 70
0
  9
$MIRRTEXT
 70
1
  9
$LTSCALE
 40
1.0
  9
$ATTMODE
 70
1
  9
$TEXTSIZE
 40
2.5
  9
$TRACEWID
 40
1.0
  9
$TEXTSTYLE
  7
Standard
  9
$CLAYER
  8
0
  9
$CELTYPE
  6
ByLayer
  9
$CECOLOR
 62
256
  9
$CELTSCALE
 40
1.0
  9
$DISPSILH
 70
0
  9
$DIMSCALE
 40
1.0
  9
$DIMASZ
 40
2.5
  9
$DIMEXO
 40
0.625
  9
$DIMDLI
 40
3.75
  9
$DIMRND
 40
0.0
  9
$DIMDLE
 40
0.0
  9
$DIMEXE
 40
1.25
  9
$DIMTP
 40
0.0
  9
$DIMTM
 40
0.0
  9
$DIMTXT
 40
2.5
  9
$DIMCEN
 40
2.5
  9
$DIMTSZ
 40
0.0
  9
$DIMTOL
 70
0
  9
$DIMLIM
 70
0
  9
$DIMTIH
 70
0
  9
$DIMTOH
 70
0
  9
$DIMSE1
 70
0
  9
$DIMSE2
 70
0
  9
$DIMTAD
 70
1
  9
$DIMZIN
 70
8
  9
$DIMBLK
  1

  9
$DIMASO
 70
1
  9
$DIMSHO
 70
1
  9
$DIMPOST
  1

  9
$DIMAPOST
  1

  9
$DIMALT
 70
0
  9
$DIMALTD
 70
3
  9
$DIMALTF
 40
0.03937007874
  9
$DIMLFAC
 40
1.0
  9
$DIMTOFL
 70
1
  9
$DIMTVP
 40
0.0
  9
$DIMTIX
 70
0
  9
$DIMSOXD
 70
0
  9
$DIMSAH
 70
0
  9
$DIMBLK1
  1

  9
$DIMBLK2
  1

  9
$DIMSTYLE
  2
ISO-25
  9
$DIMCLRD
 70
0
  9
$DIMCLRE
 70
0
  9
$DIMCLRT
 70
0
  9
$DIMTFAC
 40
1.0
  9
$DIMGAP
 40
0.625
  9
$DIMJUST
 70
0
  9
$DIMSD1
 70
0
  9
$DIMSD2
 70
0
  9
$DIMTOLJ
 70
0
  9
$DIMTZIN
 70
8
  9
$DIMALTZ
 70
0
  9
$DIMALTTZ
 70
0
  9
$DIMUPT
 70
0
  9
$DIMDEC
 70
2
  9
$DIMTDEC
 70
2
  9
$DIMALTU
 70
2
  9
$DIMALTTD
 70
3
  9
$DIMTXSTY
  7
Standard
  9
$DIMAUNIT
 70
0
  9
$DIMADEC
 70
0
  9
$DIMALTRND
 40
0.0
  9
$DIMAZIN
 70
0
  9
$DIMDSEP
 70
44
  9
$DIMATFIT
 70
3
  9
$DIMFRAC
 70
0
  9
$DIMLDRBLK
  1

  9
$DIMLUNIT
 70
2
  9
$DIMLWD
 70
-2
  9
$DIMLWE
 70
-2
  9
$DIMTMOVE
 70
0
  9
$DIMFXL
 40
1.0
  9
$DIMFXLON
 70
0
  9
$DIMJOGANG
 40
0.785398163397
  9
$DIMTFILL
 70
0
  9
$DIMTFILLCLR
 70
0
  9
$DIMARCSYM
 70
0
  9
$DIMLTYPE
  6

  9
$DIMLTEX1
  6

  9
$DIMLTEX2
  6

  9
$DIMTXTDIRECTION
 70
0
  9
$LUNITS
 70
2
  9
$LUPREC
 70
4
  9
$SKETCHINC
 40
1.0
  9
$FILLETRAD
 40
10.0
  9
$AUNITS
 70
0
  9
$AUPREC
 70
2
  9
$MENU
  1
.
  9
$ELEVATION
 40
0.0
  9
$PELEVATION
 40
0.0
  9
$THICKNESS
 40
0.0
  9
$LIMCHECK
 70
0
  9
$CHAMFERA
 40
0.0
  9
$CHAMFERB
 40
0.0
  9
$CHAMFERC
 40
0.0
  9
$CHAMFERD
 40
0.0
  9
$SKPOLY
 70
0
  9
$TDCREATE
 40
2461316.5195254628
  9
$TDUCREATE
 40
2458532.153996898
  9
$TDUPDATE
 40
2461316.5195254628
  9
$TDUUPDATE
 40
2458532.1544311
  9
$TDINDWG
 40
0.0
  9
$TDUSRTIMER
 40
0.0
  9
$USRTIMER
 70
1
  9
$ANGBASE
 50
0.0
  9
$ANGDIR
 70
0
  9
$PDMODE
 70
0
  9
$PDSIZE
 40
0.0
  9
$PLINEWID
 40
0.0
  9
$SPLFRAME
 70
0
  9
$SPLINETYPE
 70
6
  9
$SPLINESEGS
 70
8
  9
$HANDSEED
  5
6B
  9
$SURFTAB1
 70
6
  9
$SURFTAB2
 70
6
  9
$SURFTYPE
 70
6
  9
$SURFU
 70
6
  9
$SURFV
 70
6
  9
$UCSBASE
  2

  9
$UCSNAME
  2

  9
$UCSORG
 10
0.0
 20
0.0
 30
0.0
  9
$UCSXDIR
 10
1.0
 20
0.0
 30
0.0
  9
$UCSYDIR
 10
0.0
 20
1.0
 30
0.0
  9
$UCSORTHOREF
  2

  9
$UCSORTHOVIEW
 70
0
  9
$UCSORGTOP
 10
0.0
 20
0.0
 30
0.0
  9
$UCSORGBOTTOM
 10
0.0
 20
0.0
 30
0.0
  9
$UCSORGLEFT
 10
0.0
 20
0.0
 30
0.0
  9
$UCSORGRIGHT
 10
0.0
 20
0.0
 30
0.0
  9
$UCSORGFRONT
 10
0.0
 20
0.0
 30
0.0
  9
$UCSORGBACK
 10
0.0
 20
0.0
 30
0.0
  9
$PUCSBASE
  2

  9
$PUCSNAME
  2

  9
$PUCSORG
 10
0.0
 20
0.0
 30
0.0
  9
$PUCSXDIR
 10
1.0
 20
0.0
 30
0.0
  9
$PUCSYDIR
 10
0.0
 20
1.0
 30
0.0
  9
$PUCSORTHOREF
  2

  9
$PUCSORTHOVIEW
 70
0
  9
$PUCSORGTOP
 10
0.0
 20
0.0
 30
0.0
  9
$PUCSORGBOTTOM
 10
0.0
 20
0.0
 30
0.0
  9
$PUCSORGLEFT
 10
0.0
 20
0.0
 30
0.0
  9
$PUCSORGRIGHT
 10
0.0
 20
0.0
 30
0.0
  9
$PUCSORGFRONT
 10
0.0
 20
0.0
 30
0.0
  9
$PUCSORGBACK
 10
0.0
 20
0.0
 30
0.0
  9
$USERI1
 70
0
  9
$USERI2
 70
0
  9
$USERI3
 70
0
  9
$USERI4
 70
0
  9
$USERI5
 70
0
  9
$USERR1
 40
0.0
  9
$USERR2
 40
0.0
  9
$USERR3
 40
0.0
  9
$USERR4
 40
0.0
  9
$USERR5
 40
0.0
  9
$WORLDVIEW
 70
1
  9
$SHADEDGE
 70
3
  9
$SHADEDIF
 70
70
  9
$TILEMODE
 70
1
  9
$MAXACTVP
 70
64
  9
$PINSBASE
 10
0.0
 20
0.0
 30
0.0
  9
$PLIMCHECK
 70
0
  9
$PEXTMIN
 10
1e+20
 20
1e+20
 30
1e+20
  9
$PEXTMAX
 10
-1e+20
 20
-1e+20
 30
-1e+20
  9
$PLIMMIN
 10
0.0
 20
0.0
  9
$PLIMMAX
 10
420.0
 20
297.0
  9
$UNITMODE
 70
0
  9
$VISRETAIN
 70
1
  9
$PLINEGEN
 70
0
  9
$PSLTSCALE
 70
1
  9
$TREEDEPTH
 70
3020
  9
$CMLSTYLE
  2
Standard
  9
$CMLJUST
 70
0
  9
$CMLSCALE
 40
20.0
  9
$PROXYGRAPHICS
 70
1
  9
$MEASUREMENT
 70
1
  9
$CELWEIGHT
370
-1
  9
$ENDCAPS
280
0
  9
$JOINSTYLE
280
0
  9
$LWDISPLAY
290
0
  9
$INSUNITS
 70
6
  9
$HYPERLINKBASE
  1

  9
$STYLESHEET
  1

  9
$XEDIT
290
1
  9
$CEPSNTYPE
380
0
  9
$PSTYLEMODE
290
1
  9
$FINGERPRINTGUID
  2
{44053AAD-9BF4-40D6-9F7D-38C065E4519C}
  9
$VERSIONGUID
  2
{838E0B12-0D99-4B87-809C-D2B17746658A}
  9
$EXTNAMES
290
1
  9
$PSVPSCALE
 40
0.0
  9
$OLESTARTUP
290
0
  9
$SORTENTS
280
127
  9
$INDEXCTL
280
0
  9
$HIDETEXT
280
1
  9
$XCLIPFRAME
280
1
  9
$HALOGAP
280
0
  9
$OBSCOLOR
 70
257
  9
$OBSLTYPE
280
0
  9
$INTERSECTIONDISPLAY
280
0
  9
$INTERSECTIONCOLOR
 70
257
  9
$DIMASSOC
280
2
  9
$PROJECTNAME
  1

  9
$CAMERADISPLAY
290
0
  9
$LENSLENGTH
 40
50.0
  9
$CAMERAHEIGHT
 40
0.0
  9
$STEPSPERSEC
 40
24.0
  9
$STEPSIZE
 40
100.0
  9
$3DDWFPREC
 40
2.0
  9
$PSOLWIDTH
 40
0.005
  9
$PSOLHEIGHT
 40
0.08
  9
$LOFTANG1
 40
1.570796326795
  9
$LOFTANG2
 40
1.570796326795
  9
$LOFTMAG1
 40
0.0
  9
$LOFTMAG2
 40
0.0
  9
$LOFTPARAM
 70
7
  9
$LOFTNORMALS
280
1
  9
$LATITUDE
 40
37.795
  9
$LONGITUDE
 40
-122.394
  9
$NORTHDIRECTION
 40
0.0
  9
$TIMEZONE
 70
-8000
  9
$LIGHTGLYPHDISPLAY
280
1
  9
$TILEMODELIGHTSYNCH
280
1
  9
$CMATERIAL
347
20
  9
$SOLIDHIST
280
0
  9
$SHOWHIST
280
1
  9
$DWFFRAME
280
2
  9
$DGNFRAME
280
2
  9
$REALWORLDSCALE
290
1
  9
$INTERFERECOLOR
 62
256
  9
$CSHADOW
280
0
  9
$SHADOWPLANELOCATION
 40
0.0
  0
ENDSEC
  0
SECTION
  2
CLASSES
  0
CLASS
  1
ACDBDICTIONARYWDFLT
  2
AcDbDictionaryWithDefault
  3
ObjectDBX Classes
 90
0
 91
0
280
0
281
0
  0
CLASS
  1
SUN
  2
AcDbSun
  3
SCENEOE
 90
1153
 91
0
280
0
281
0
  0
CLASS
  1
VISUALSTYLE
  2
AcDbVisualStyle
  3
ObjectDBX Classes
 90
4095
 91
0
280
0
281
0
  0
CLASS
  1
MATERIAL
  2
AcDbMaterial
  3
ObjectDBX Classes
 90
1153
 91
0
280
0
281
0
  0
CLASS
  1
SCALE
  2
AcDbScale
  3
ObjectDBX Classes
 90
1153
 91
0
280
0
281
0
  0
CLASS
  1
TABLESTYLE
  2
AcDbTableStyle
  3
ObjectDBX Classes
 90
4095
 91
0
280
0
281
0
  0
CLASS
  1
MLEADERSTYLE
  2
AcDbMLeaderStyle
  3
ACDB_MLEADERSTYLE_CLASS
 90
4095
 91
0
280
0
281
0
  0
CLASS
  1
DICTIONARYVAR
  2
AcDbDictionaryVar
  3
ObjectDBX Classes
 90
0
 91
0
280
0
281
0
  0
CLASS
  1
CELLSTYLEMAP
  2
AcDbCellStyleMap
  3
ObjectDBX Classes
 90
1152
 91
0
280
0
281
0
  0
CLASS
  1
MENTALRAYRENDERSETTINGS
  2
AcDbMentalRayRenderSettings
  3
SCENEOE
 90
1024
 91
0
280
0
281
0
  0
CLASS
  1
ACDBDETAILVIEWSTYLE
  2
AcDbDetailViewStyle
  3
ObjectDBX Classes
 90
1025
 91
0
280
0
281
0
  0
CLASS
  1
ACDBSECTIONVIEWSTYLE
  2
AcDbSectionViewStyle
  3
ObjectDBX Classes
 90
1025
 91
0
280
0
281
0
  0
CLASS
  1
RASTERVARIABLES
  2
AcDbRasterVariables
  3
ISM
 90
0
 91
0
280
0
281
0
  0
CLASS
  1
LAYOUT
  2
AcDbLayout
  3
ObjectDBX Classes
 90
0
 91
0
280
0
281
0
  0
CLASS
  1
ACDBPLACEHOLDER
  2
AcDbPlaceHolder
  3
ObjectDBX Classes
 90
0
 91
0
280
0
281
0
  0
ENDSEC
  0
SECTION
  2
TABLES
  0
TABLE
  2
VPORT
  5
8
330
0
100
AcDbSymbolTable
 70
1
  0
VPORT
  5
23
330
8
100
AcDbSymbolTableRecord
100
AcDbViewportTableRecord
  2
*Active
 70
0
 10
0.0
 20
0.0
 11
1.0
 21
1.0
 12
0.0
 22
0.0
 13
0.0
 23
0.0
 14
0.5
 24
0.5
 15
0.5
 25
0.5
 16
0.0
 26
0.0
 36
1.0
 17
0.0
 27
0.0
 37
0.0
 40
1000.0
 41
1.34
 42
50.0
 43
0.0
 44
0.0
 50
0.0
 51
0.0
 71
0
 72
1000
 73
1
 74
3
 75
0
 76
0
 77
0
 78
0
281
0
 65
0
146
0.0
  0
ENDTAB
  0
TABLE
  2
LTYPE
  5
2
330
0
100
AcDbSymbolTable
 70
3
  0
LTYPE
  5
24
330
2
100
AcDbSymbolTableRecord
100
AcDbLinetypeTableRecord
  2
ByBlock
 70
0
  3

 72
65
 73
0
 40
0.0
  0
LTYPE
  5
25
330
2
100
AcDbSymbolTableRecord
100
AcDbLinetypeTableRecord
  2
ByLayer
 70
0
  3

 72
65
 73
0
 40
0.0
  0
LTYPE
  5
26
330
2
100
AcDbSymbolTableRecord
100
AcDbLinetypeTableRecord
  2
Continuous
 70
0
  3

 72
65
 73
0
 40
0.0
  0
ENDTAB
  0
TABLE
  2
LAYER
  5
1
330
0
100
AcDbSymbolTable
 70
9
  0
LAYER
  5
27
330
1
100
AcDbSymbolTableRecord
100
AcDbLayerTableRecord
  2
0
 70
0
 62
7
  6
Continuous
370
-3
390
13
347
21
  0
LAYER
  5
28
330
1
100
AcDbSymbolTableRecord
100
AcDbLayerTableRecord
  2
Defpoints
 70
0
 62
7
  6
Continuous
290
0
370
-3
390
13
347
21
  0
LAYER
  5
2F
330
1
100
AcDbSymbolTableRecord
100
AcDbLayerTableRecord
  2
OUTLINE
 70
0
 62
7
  6
Continuous
370
-3
390
13
347
21
  0
LAYER
  5
30
330
1
100
AcDbSymbolTableRecord
100
AcDbLayerTableRecord
  2
OPENINGS
 70
0
 62
7
  6
Continuous
370
-3
390
13
347
21
  0
LAYER
  5
31
330
1
100
AcDbSymbolTableRecord
100
AcDbLayerTableRecord
  2
LIGHT_WINDOWS
 70
0
 62
7
  6
Continuous
370
-3
390
13
347
21
  0
LAYER
  5
32
330
1
100
AcDbSymbolTableRecord
100
AcDbLayerTableRecord
  2
SPOTFACES
 70
0
 62
7
  6
Continuous
370
-3
390
13
347
21
  0
LAYER
  5
33
330
1
100
AcDbSymbolTableRecord
100
AcDbLayerTableRecord
  2
CLIPS
 70
0
 62
7
  6
Continuous
370
-3
390
13
347
21
  0
LAYER
  5
34
330
1
100
AcDbSymbolTableRecord
100
AcDbLayerTableRecord
  2
PINS
 70
0
 62
7
  6
Continuous
370
-3
390
13
347
21
  0
LAYER
  5
35
330
1
100
AcDbSymbolTableRecord
100
AcDbLayerTableRecord
  2
NOTES
 70
0
 62
7
  6
Continuous
370
-3
390
13
347
21
  0
ENDTAB
  0
TABLE
  2
STYLE
  5
5
330
0
100
AcDbSymbolTable
 70
1
  0
STYLE
  5
29
330
5
100
AcDbSymbolTableRecord
100
AcDbTextStyleTableRecord
  2
Standard
 70
0
 40
0.0
 41
1.0
 50
0.0
 71
0
 42
2.5
  3
txt
  4

  0
ENDTAB
  0
TABLE
  2
VIEW
  5
7
330
0
100
AcDbSymbolTable
 70
0
  0
ENDTAB
  0
TABLE
  2
UCS
  5
6
330
0
100
AcDbSymbolTable
 70
0
  0
ENDTAB
  0
TABLE
  2
APPID
  5
3
330
0
100
AcDbSymbolTable
 70
3
  0
APPID
  5
2A
330
3
100
AcDbSymbolTableRecord
100
AcDbRegAppTableRecord
  2
ACAD
 70
0
  0
APPID
  5
68
330
3
100
AcDbSymbolTableRecord
100
AcDbRegAppTableRecord
  2
HATCHBACKGROUNDCOLOR
 70
0
  0
APPID
  5
69
330
3
100
AcDbSymbolTableRecord
100
AcDbRegAppTableRecord
  2
EZDXF
 70
0
  0
ENDTAB
  0
TABLE
  2
DIMSTYLE
  5
4
330
0
100
AcDbSymbolTable
 70
1
100
AcDbDimStyleTable
  0
DIMSTYLE
105
2B
330
4
100
AcDbSymbolTableRecord
100
AcDbDimStyleTableRecord
  2
Standard
 70
0
 40
1.0
 41
2.5
 42
0.625
 43
3.75
 44
1.25
 45
0.0
 46
0.0
 47
0.0
 48
0.0
 49
2.5
140
2.5
141
2.5
142
0.0
143
0.03937007874
144
1.0
145
0.0
146
1.0
147
0.625
148
0.0
 69
0
 70
0
 71
0
 72
0
 73
0
 74
0
 75
0
 76
0
 77
1
 78
8
 79
3
170
0
171
3
172
1
173
0
174
0
175
0
176
0
177
0
178
0
179
2
271
2
272
2
273
2
274
3
275
0
276
0
277
2
278
44
279
0
280
0
281
0
282
0
283
0
284
8
285
0
286
0
288
0
289
3
290
0
371
-2
372
-2
  0
ENDTAB
  0
TABLE
  2
BLOCK_RECORD
  5
9
330
0
100
AcDbSymbolTable
 70
2
  0
BLOCK_RECORD
  5
17
330
9
100
AcDbSymbolTableRecord
100
AcDbBlockTableRecord
  2
*Model_Space
340
1A
 70
0
280
1
281
0
  0
BLOCK_RECORD
  5
1B
330
9
100
AcDbSymbolTableRecord
100
AcDbBlockTableRecord
  2
*Paper_Space
340
1E
 70
0
280
1
281
0
  0
ENDTAB
  0
ENDSEC
  0
SECTION
  2
BLOCKS
  0
BLOCK
  5
18
330
17
100
AcDbEntity
  8
0
100
AcDbBlockBegin
  2
*Model_Space
 70
0
 10
0.0
 20
0.0
 30
0.0
  3
*Model_Space
  1

  0
ENDBLK
  5
19
330
17
100
AcDbEntity
  8
0
100
AcDbBlockEnd
  0
BLOCK
  5
1C
330
1B
100
AcDbEntity
  8
0
100
AcDbBlockBegin
  2
*Paper_Space
 70
0
 10
0.0
 20
0.0
 30
0.0
  3
*Paper_Space
  1

  0
ENDBLK
  5
1D
330
1B
100
AcDbEntity
  8
0
100
AcDbBlockEnd
  0
ENDSEC
  0
SECTION
  2
ENTITIES
  0
LWPOLYLINE
  5
36
330
17
100
AcDbEntity
  8
OUTLINE
100
AcDbPolyline
 90
36
 70
1
 10
79.14
 20
147.12
 10
78.91903072463715
 20
149.36353870318547
 10
78.2646146238798
 20
151.52085947219854
 10
77.20190054147928
 20
153.50905767972543
 10
75.77172798364529
 20
155.2517279836453
 10
74.02905767972543
 20
156.68190054147928
 10
72.04085947219853
 20
157.7446146238798
 10
69.88353870318548
 20
158.39903072463716
 10
67.64
 20
158.62
 10
38.739999999999995
 20
158.62
 10
36.49646129681452
 20
158.39903072463716
 10
34.33914052780146
 20
157.7446146238798
 10
32.35094232027457
 20
156.68190054147928
 10
30.608272016354697
 20
155.2517279836453
 10
29.178099458520723
 20
153.50905767972543
 10
28.115385376120198
 20
151.52085947219854
 10
27.460969275362846
 20
149.36353870318547
 10
27.239999999999995
 20
147.12
 10
27.239999999999995
 20
7.019999999999998
 10
27.460969275362846
 20
4.77646129681452
 10
28.115385376120194
 20
2.6191405278014646
 10
29.178099458520727
 20
0.6309423202745696
 10
30.608272016354697
 20
-1.1117279836453005
 10
32.35094232027457
 20
-2.541900541479274
 10
34.33914052780146
 20
-3.6046146238798027
 10
36.496461296814516
 20
-4.259030724637153
 10
38.739999999999995
 20
-4.480000000000004
 10
67.64
 20
-4.480000000000004
 10
69.88353870318548
 20
-4.259030724637153
 10
72.04085947219853
 20
-3.604614623879801
 10
74.02905767972543
 20
-2.5419005414792775
 10
75.77172798364529
 20
-1.1117279836453022
 10
77.20190054147928
 20
0.6309423202745705
 10
78.2646146238798
 20
2.6191405278014663
 10
78.91903072463715
 20
4.7764612968145155
 10
79.14
 20
7.019999999999993
  0
LWPOLYLINE
  5
37
330
17
100
AcDbEntity
  8
OPENINGS
100
AcDbPolyline
 90
36
 70
1
 10
47.885999999999996
 20
75.95700000000001
 10
47.85141350472581
 20
76.30816257962904
 10
47.74898315852032
 20
76.64583017825717
 10
47.58264530214458
 20
76.9570264194353
 10
47.35879220613578
 20
77.2297922061358
 10
47.086026419435285
 20
77.4536453021446
 10
46.77483017825716
 20
77.61998315852033
 10
46.43716257962903
 20
77.72241350472582
 10
46.086
 20
77.757
 10
40.086
 20
77.757
 10
39.734837420370965
 20
77.72241350472582
 10
39.397169821742835
 20
77.61998315852033
 10
39.08597358056471
 20
77.4536453021446
 10
38.813207793864215
 20
77.2297922061358
 10
38.58935469785542
 20
76.9570264194353
 10
38.42301684147968
 20
76.64583017825717
 10
38.320586495274185
 20
76.30816257962904
 10
38.286
 20
75.95700000000001
 10
38.286
 20
75.557
 10
38.320586495274185
 20
75.20583742037097
 10
38.42301684147968
 20
74.86816982174284
 10
38.58935469785542
 20
74.55697358056472
 10
38.813207793864215
 20
74.28420779386421
 10
39.08597358056471
 20
74.06035469785542
 10
39.397169821742835
 20
73.89401684147968
 10
39.734837420370965
 20
73.79158649527419
 10
40.086
 20
73.757
 10
46.086
 20
73.757
 10
46.43716257962903
 20
73.79158649527419
 10
46.77483017825716
 20
73.89401684147968
 10
47.086026419435285
 20
74.06035469785542
 10
47.35879220613578
 20
74.28420779386421
 10
47.58264530214458
 20
74.55697358056472
 10
47.74898315852032
 20
74.86816982174284
 10
47.85141350472581
 20
75.20583742037097
 10
47.885999999999996
 20
75.557
  0
TEXT
  5
38
330
17
100
AcDbEntity
  8
NOTES
100
AcDbText
 10
41.086
 20
78.357
 30
0.0
 40
1.2
  1
C1
 11
41.086
 21
78.357
 31
0.0
100
AcDbText
  0
LWPOLYLINE
  5
39
330
17
100
AcDbEntity
  8
OPENINGS
100
AcDbPolyline
 90
36
 70
1
 10
68.486
 20
75.95700000000001
 10
68.45141350472582
 20
76.30816257962904
 10
68.34898315852033
 20
76.64583017825717
 10
68.18264530214459
 20
76.9570264194353
 10
67.9587922061358
 20
77.2297922061358
 10
67.6860264194353
 20
77.4536453021446
 10
67.37483017825717
 20
77.61998315852033
 10
67.03716257962904
 20
77.72241350472582
 10
66.686
 20
77.757
 10
60.686
 20
77.757
 10
60.33483742037097
 20
77.72241350472582
 10
59.99716982174284
 20
77.61998315852033
 10
59.68597358056471
 20
77.4536453021446
 10
59.41320779386422
 20
77.2297922061358
 10
59.18935469785542
 20
76.9570264194353
 10
59.02301684147968
 20
76.64583017825717
 10
58.920586495274186
 20
76.30816257962904
 10
58.886
 20
75.95700000000001
 10
58.886
 20
75.557
 10
58.920586495274186
 20
75.20583742037097
 10
59.02301684147968
 20
74.86816982174284
 10
59.18935469785542
 20
74.55697358056472
 10
59.41320779386422
 20
74.28420779386421
 10
59.68597358056471
 20
74.06035469785542
 10
59.99716982174284
 20
73.89401684147968
 10
60.33483742037097
 20
73.79158649527419
 10
60.686
 20
73.757
 10
66.686
 20
73.757
 10
67.03716257962904
 20
73.79158649527419
 10
67.37483017825717
 20
73.89401684147968
 10
67.6860264194353
 20
74.06035469785542
 10
67.9587922061358
 20
74.28420779386421
 10
68.18264530214459
 20
74.55697358056472
 10
68.34898315852033
 20
74.86816982174284
 10
68.45141350472582
 20
75.20583742037097
 10
68.486
 20
75.557
  0
TEXT
  5
3A
330
17
100
AcDbEntity
  8
NOTES
100
AcDbText
 10
61.686
 20
78.357
 30
0.0
 40
1.2
  1
C4
 11
61.686
 21
78.357
 31
0.0
100
AcDbText
  0
LWPOLYLINE
  5
3B
330
17
100
AcDbEntity
  8
OPENINGS
100
AcDbPolyline
 90
36
 70
1
 10
47.885999999999996
 20
66.04
 10
47.85141350472581
 20
66.39116257962904
 10
47.74898315852032
 20
66.72883017825717
 10
47.58264530214458
 20
67.04002641943529
 10
47.35879220613578
 20
67.3127922061358
 10
47.086026419435285
 20
67.53664530214459
 10
46.77483017825716
 20
67.70298315852033
 10
46.43716257962903
 20
67.80541350472582
 10
46.086
 20
67.84
 10
40.086
 20
67.84
 10
39.734837420370965
 20
67.80541350472582
 10
39.397169821742835
 20
67.70298315852033
 10
39.08597358056471
 20
67.53664530214459
 10
38.813207793864215
 20
67.3127922061358
 10
38.58935469785542
 20
67.04002641943529
 10
38.42301684147968
 20
66.72883017825717
 10
38.320586495274185
 20
66.39116257962904
 10
38.286
 20
66.04
 10
38.286
 20
65.64
 10
38.320586495274185
 20
65.28883742037097
 10
38.42301684147968
 20
64.95116982174284
 10
38.58935469785542
 20
64.63997358056471
 10
38.813207793864215
 20
64.36720779386421
 10
39.08597358056471
 20
64.14335469785541
 10
39.397169821742835
 20
63.97701684147968
 10
39.734837420370965
 20
63.87458649527419
 10
40.086
 20
63.84
 10
46.086
 20
63.84
 10
46.43716257962903
 20
63.87458649527419
 10
46.77483017825716
 20
63.97701684147968
 10
47.086026419435285
 20
64.14335469785541
 10
47.35879220613578
 20
64.36720779386421
 10
47.58264530214458
 20
64.63997358056471
 10
47.74898315852032
 20
64.95116982174284
 10
47.85141350472581
 20
65.28883742037097
 10
47.885999999999996
 20
65.64
  0
TEXT
  5
3C
330
17
100
AcDbEntity
  8
NOTES
100
AcDbText
 10
41.086
 20
68.44
 30
0.0
 40
1.2
  1
C2
 11
41.086
 21
68.44
 31
0.0
100
AcDbText
  0
LWPOLYLINE
  5
3D
330
17
100
AcDbEntity
  8
OPENINGS
100
AcDbPolyline
 90
36
 70
1
 10
68.486
 20
66.04
 10
68.45141350472582
 20
66.39116257962904
 10
68.34898315852033
 20
66.72883017825717
 10
68.18264530214459
 20
67.04002641943529
 10
67.9587922061358
 20
67.3127922061358
 10
67.6860264194353
 20
67.53664530214459
 10
67.37483017825717
 20
67.70298315852033
 10
67.03716257962904
 20
67.80541350472582
 10
66.686
 20
67.84
 10
60.686
 20
67.84
 10
60.33483742037097
 20
67.80541350472582
 10
59.99716982174284
 20
67.70298315852033
 10
59.68597358056471
 20
67.53664530214459
 10
59.41320779386422
 20
67.3127922061358
 10
59.18935469785542
 20
67.04002641943529
 10
59.02301684147968
 20
66.72883017825717
 10
58.920586495274186
 20
66.39116257962904
 10
58.886
 20
66.04
 10
58.886
 20
65.64
 10
58.920586495274186
 20
65.28883742037097
 10
59.02301684147968
 20
64.95116982174284
 10
59.18935469785542
 20
64.63997358056471
 10
59.41320779386422
 20
64.36720779386421
 10
59.68597358056471
 20
64.14335469785541
 10
59.99716982174284
 20
63.97701684147968
 10
60.33483742037097
 20
63.87458649527419
 10
60.686
 20
63.84
 10
66.686
 20
63.84
 10
67.03716257962904
 20
63.87458649527419
 10
67.37483017825717
 20
63.97701684147968
 10
67.6860264194353
 20
64.14335469785541
 10
67.9587922061358
 20
64.36720779386421
 10
68.18264530214459
 20
64.63997358056471
 10
68.34898315852033
 20
64.95116982174284
 10
68.45141350472582
 20
65.28883742037097
 10
68.486
 20
65.64
  0
TEXT
  5
3E
330
17
100
AcDbEntity
  8
NOTES
100
AcDbText
 10
61.686
 20
68.44
 30
0.0
 40
1.2
  1
C5
 11
61.686
 21
68.44
 31
0.0
100
AcDbText
  0
LWPOLYLINE
  5
3F
330
17
100
AcDbEntity
  8
OPENINGS
100
AcDbPolyline
 90
36
 70
1
 10
47.885999999999996
 20
56.172000000000004
 10
47.85141350472581
 20
56.52316257962904
 10
47.74898315852032
 20
56.86083017825717
 10
47.58264530214458
 20
57.17202641943529
 10
47.35879220613578
 20
57.44479220613579
 10
47.086026419435285
 20
57.66864530214458
 10
46.77483017825716
 20
57.83498315852032
 10
46.43716257962903
 20
57.93741350472582
 10
46.086
 20
57.972
 10
40.086
 20
57.972
 10
39.734837420370965
 20
57.93741350472582
 10
39.397169821742835
 20
57.83498315852032
 10
39.08597358056471
 20
57.66864530214458
 10
38.813207793864215
 20
57.44479220613579
 10
38.58935469785542
 20
57.17202641943529
 10
38.42301684147968
 20
56.86083017825717
 10
38.320586495274185
 20
56.52316257962904
 10
38.286
 20
56.172000000000004
 10
38.286
 20
55.772
 10
38.320586495274185
 20
55.420837420370965
 10
38.42301684147968
 20
55.083169821742835
 10
38.58935469785542
 20
54.77197358056471
 10
38.813207793864215
 20
54.499207793864215
 10
39.08597358056471
 20
54.27535469785542
 10
39.397169821742835
 20
54.10901684147968
 10
39.734837420370965
 20
54.006586495274185
 10
40.086
 20
53.972
 10
46.086
 20
53.972
 10
46.43716257962903
 20
54.006586495274185
 10
46.77483017825716
 20
54.10901684147968
 10
47.086026419435285
 20
54.27535469785542
 10
47.35879220613578
 20
54.499207793864215
 10
47.58264530214458
 20
54.77197358056471
 10
47.74898315852032
 20
55.083169821742835
 10
47.85141350472581
 20
55.420837420370965
 10
47.885999999999996
 20
55.772
  0
TEXT
  5
40
330
17
100
AcDbEntity
  8
NOTES
100
AcDbText
 10
41.086
 20
58.572
 30
0.0
 40
1.2
  1
C3
 11
41.086
 21
58.572
 31
0.0
100
AcDbText
  0
LWPOLYLINE
  5
41
330
17
100
AcDbEntity
  8
OPENINGS
100
AcDbPolyline
 90
36
 70
1
 10
68.486
 20
56.172000000000004
 10
68.45141350472582
 20
56.52316257962904
 10
68.34898315852033
 20
56.86083017825717
 10
68.18264530214459
 20
57.17202641943529
 10
67.9587922061358
 20
57.44479220613579
 10
67.6860264194353
 20
57.66864530214458
 10
67.37483017825717
 20
57.83498315852032
 10
67.03716257962904
 20
57.93741350472582
 10
66.686
 20
57.972
 10
60.686
 20
57.972
 10
60.33483742037097
 20
57.93741350472582
 10
59.99716982174284
 20
57.83498315852032
 10
59.68597358056471
 20
57.66864530214458
 10
59.41320779386422
 20
57.44479220613579
 10
59.18935469785542
 20
57.17202641943529
 10
59.02301684147968
 20
56.86083017825717
 10
58.920586495274186
 20
56.52316257962904
 10
58.886
 20
56.172000000000004
 10
58.886
 20
55.772
 10
58.920586495274186
 20
55.420837420370965
 10
59.02301684147968
 20
55.083169821742835
 10
59.18935469785542
 20
54.77197358056471
 10
59.41320779386422
 20
54.499207793864215
 10
59.68597358056471
 20
54.27535469785542
 10
59.99716982174284
 20
54.10901684147968
 10
60.33483742037097
 20
54.006586495274185
 10
60.686
 20
53.972
 10
66.686
 20
53.972
 10
67.03716257962904
 20
54.006586495274185
 10
67.37483017825717
 20
54.10901684147968
 10
67.6860264194353
 20
54.27535469785542
 10
67.9587922061358
 20
54.499207793864215
 10
68.18264530214459
 20
54.77197358056471
 10
68.34898315852033
 20
55.083169821742835
 10
68.45141350472582
 20
55.420837420370965
 10
68.486
 20
55.772
  0
TEXT
  5
42
330
17
100
AcDbEntity
  8
NOTES
100
AcDbText
 10
61.686
 20
58.572
 30
0.0
 40
1.2
  1
C6
 11
61.686
 21
58.572
 31
0.0
100
AcDbText
  0
LWPOLYLINE
  5
43
330
17
100
AcDbEntity
  8
OPENINGS
100
AcDbPolyline
 90
36
 70
1
 10
50.119
 20
45.038
 10
50.107471168241936
 20
45.15505419320967
 10
50.07332771950677
 20
45.26761005941905
 10
50.017881767381525
 20
45.37134213981176
 10
49.943264068711926
 20
45.462264068711924
 10
49.85234213981176
 20
45.53688176738152
 10
49.74861005941905
 20
45.59232771950677
 10
49.636054193209674
 20
45.626471168241935
 10
49.519
 20
45.638
 10
36.719
 20
45.638
 10
36.601945806790326
 20
45.626471168241935
 10
36.48938994058095
 20
45.59232771950677
 10
36.38565786018824
 20
45.53688176738152
 10
36.29473593128807
 20
45.462264068711924
 10
36.220118232618475
 20
45.37134213981176
 10
36.16467228049323
 20
45.26761005941905
 10
36.13052883175806
 20
45.15505419320967
 10
36.119
 20
45.038
 10
36.119
 20
40.238
 10
36.13052883175806
 20
40.120945806790324
 10
36.16467228049323
 20
40.00838994058095
 10
36.220118232618475
 20
39.90465786018824
 10
36.29473593128807
 20
39.81373593128807
 10
36.38565786018824
 20
39.73911823261847
 10
36.48938994058095
 20
39.68367228049323
 10
36.601945806790326
 20
39.64952883175806
 10
36.719
 20
39.638
 10
49.519
 20
39.638
 10
49.636054193209674
 20
39.64952883175806
 10
49.74861005941905
 20
39.68367228049323
 10
49.85234213981176
 20
39.73911823261847
 10
49.943264068711926
 20
39.81373593128807
 10
50.017881767381525
 20
39.90465786018824
 10
50.07332771950677
 20
40.00838994058095
 10
50.107471168241936
 20
40.120945806790324
 10
50.119
 20
40.238
  0
TEXT
  5
44
330
17
100
AcDbEntity
  8
NOTES
100
AcDbText
 10
41.119
 20
46.238
 30
0.0
 40
1.2
  1
A1
 11
41.119
 21
46.238
 31
0.0
100
AcDbText
  0
LWPOLYLINE
  5
45
330
17
100
AcDbEntity
  8
OPENINGS
100
AcDbPolyline
 90
36
 70
1
 10
50.119
 20
34.934999999999995
 10
50.107471168241936
 20
35.05205419320967
 10
50.07332771950677
 20
35.16461005941905
 10
50.017881767381525
 20
35.26834213981176
 10
49.943264068711926
 20
35.35926406871192
 10
49.85234213981176
 20
35.43388176738152
 10
49.74861005941905
 20
35.48932771950677
 10
49.636054193209674
 20
35.52347116824193
 10
49.519
 20
35.535
 10
36.719
 20
35.535
 10
36.601945806790326
 20
35.52347116824193
 10
36.48938994058095
 20
35.48932771950677
 10
36.38565786018824
 20
35.43388176738152
 10
36.29473593128807
 20
35.35926406871192
 10
36.220118232618475
 20
35.26834213981176
 10
36.16467228049323
 20
35.16461005941905
 10
36.13052883175806
 20
35.05205419320967
 10
36.119
 20
34.934999999999995
 10
36.119
 20
30.134999999999998
 10
36.13052883175806
 20
30.017945806790323
 10
36.16467228049323
 20
29.905389940580942
 10
36.220118232618475
 20
29.801657860188236
 10
36.29473593128807
 20
29.71073593128807
 10
36.38565786018824
 20
29.636118232618472
 10
36.48938994058095
 20
29.580672280493225
 10
36.601945806790326
 20
29.54652883175806
 10
36.719
 20
29.534999999999997
 10
49.519
 20
29.534999999999997
 10
49.636054193209674
 20
29.54652883175806
 10
49.74861005941905
 20
29.580672280493225
 10
49.85234213981176
 20
29.636118232618472
 10
49.943264068711926
 20
29.71073593128807
 10
50.017881767381525
 20
29.801657860188236
 10
50.07332771950677
 20
29.905389940580946
 10
50.107471168241936
 20
30.01794580679032
 10
50.119
 20
30.134999999999998
  0
TEXT
  5
46
330
17
100
AcDbEntity
  8
NOTES
100
AcDbText
 10
41.119
 20
36.135
 30
0.0
 40
1.2
  1
A2
 11
41.119
 21
36.135
 31
0.0
100
AcDbText
  0
LWPOLYLINE
  5
47
330
17
100
AcDbEntity
  8
OPENINGS
100
AcDbPolyline
 90
36
 70
1
 10
70.761
 20
45.038
 10
70.74947116824194
 20
45.15505419320967
 10
70.71532771950677
 20
45.26761005941905
 10
70.65988176738153
 20
45.37134213981176
 10
70.58526406871194
 20
45.462264068711924
 10
70.49434213981176
 20
45.53688176738152
 10
70.39061005941906
 20
45.59232771950677
 10
70.27805419320968
 20
45.626471168241935
 10
70.161
 20
45.638
 10
57.361000000000004
 20
45.638
 10
57.24394580679033
 20
45.626471168241935
 10
57.13138994058095
 20
45.59232771950677
 10
57.02765786018824
 20
45.53688176738152
 10
56.93673593128808
 20
45.462264068711924
 10
56.86211823261848
 20
45.37134213981176
 10
56.80667228049323
 20
45.26761005941905
 10
56.772528831758066
 20
45.15505419320967
 10
56.761
 20
45.038
 10
56.761
 20
40.238
 10
56.772528831758066
 20
40.120945806790324
 10
56.80667228049323
 20
40.00838994058095
 10
56.86211823261848
 20
39.90465786018824
 10
56.93673593128808
 20
39.81373593128807
 10
57.02765786018824
 20
39.73911823261847
 10
57.13138994058095
 20
39.68367228049323
 10
57.24394580679033
 20
39.64952883175806
 10
57.361000000000004
 20
39.638
 10
70.161
 20
39.638
 10
70.27805419320968
 20
39.64952883175806
 10
70.39061005941906
 20
39.68367228049323
 10
70.49434213981176
 20
39.73911823261847
 10
70.58526406871194
 20
39.81373593128807
 10
70.65988176738153
 20
39.90465786018824
 10
70.71532771950677
 20
40.00838994058095
 10
70.74947116824194
 20
40.120945806790324
 10
70.761
 20
40.238
  0
TEXT
  5
48
330
17
100
AcDbEntity
  8
NOTES
100
AcDbText
 10
61.761
 20
46.238
 30
0.0
 40
1.2
  1
A3
 11
61.761
 21
46.238
 31
0.0
100
AcDbText
  0
LWPOLYLINE
  5
49
330
17
100
AcDbEntity
  8
OPENINGS
100
AcDbPolyline
 90
36
 70
1
 10
70.761
 20
34.934999999999995
 10
70.74947116824194
 20
35.05205419320967
 10
70.71532771950677
 20
35.16461005941905
 10
70.65988176738153
 20
35.26834213981176
 10
70.58526406871194
 20
35.35926406871192
 10
70.49434213981176
 20
35.43388176738152
 10
70.39061005941906
 20
35.48932771950677
 10
70.27805419320968
 20
35.52347116824193
 10
70.161
 20
35.535
 10
57.361000000000004
 20
35.535
 10
57.24394580679033
 20
35.52347116824193
 10
57.13138994058095
 20
35.48932771950677
 10
57.02765786018824
 20
35.43388176738152
 10
56.93673593128808
 20
35.35926406871192
 10
56.86211823261848
 20
35.26834213981176
 10
56.80667228049323
 20
35.16461005941905
 10
56.772528831758066
 20
35.05205419320967
 10
56.761
 20
34.934999999999995
 10
56.761
 20
30.134999999999998
 10
56.772528831758066
 20
30.017945806790323
 10
56.80667228049323
 20
29.905389940580942
 10
56.86211823261848
 20
29.801657860188236
 10
56.93673593128808
 20
29.71073593128807
 10
57.02765786018824
 20
29.636118232618472
 10
57.13138994058095
 20
29.580672280493225
 10
57.24394580679033
 20
29.54652883175806
 10
57.361000000000004
 20
29.534999999999997
 10
70.161
 20
29.534999999999997
 10
70.27805419320968
 20
29.54652883175806
 10
70.39061005941906
 20
29.580672280493225
 10
70.49434213981176
 20
29.636118232618472
 10
70.58526406871194
 20
29.71073593128807
 10
70.65988176738153
 20
29.801657860188236
 10
70.71532771950677
 20
29.905389940580946
 10
70.74947116824194
 20
30.01794580679032
 10
70.761
 20
30.134999999999998
  0
TEXT
  5
4A
330
17
100
AcDbEntity
  8
NOTES
100
AcDbText
 10
61.761
 20
36.135
 30
0.0
 40
1.2
  1
A4
 11
61.761
 21
36.135
 31
0.0
100
AcDbText
  0
LWPOLYLINE
  5
4B
330
17
100
AcDbEntity
  8
OPENINGS
100
AcDbPolyline
 90
36
 70
1
 10
70.17099999999999
 20
96.295
 10
70.16139264020161
 20
96.39254516100807
 10
70.13293976625563
 20
96.48634171618255
 10
70.08673480615127
 20
96.5727851165098
 10
70.02455339059327
 20
96.64855339059328
 10
69.9487851165098
 20
96.71073480615128
 10
69.86234171618254
 20
96.75693976625564
 10
69.76854516100806
 20
96.78539264020162
 10
69.67099999999999
 20
96.795
 10
57.671
 20
96.795
 10
57.573454838991935
 20
96.78539264020162
 10
57.47965828381746
 20
96.75693976625564
 10
57.393214883490195
 20
96.71073480615128
 10
57.31744660940672
 20
96.64855339059328
 10
57.25526519384873
 20
96.5727851165098
 10
57.20906023374435
 20
96.48634171618255
 10
57.18060735979839
 20
96.39254516100807
 10
57.171
 20
96.295
 10
57.171
 20
86.895
 10
57.18060735979839
 20
86.79745483899192
 10
57.20906023374435
 20
86.70365828381745
 10
57.25526519384873
 20
86.61721488349019
 10
57.31744660940672
 20
86.54144660940672
 10
57.393214883490195
 20
86.47926519384872
 10
57.47965828381746
 20
86.43306023374436
 10
57.573454838991935
 20
86.40460735979838
 10
57.671
 20
86.395
 10
69.67099999999999
 20
86.395
 10
69.76854516100806
 20
86.40460735979838
 10
69.86234171618254
 20
86.43306023374436
 10
69.9487851165098
 20
86.47926519384872
 10
70.02455339059327
 20
86.54144660940672
 10
70.08673480615127
 20
86.61721488349019
 10
70.13293976625563
 20
86.70365828381745
 10
70.16139264020161
 20
86.79745483899192
 10
70.17099999999999
 20
86.895
  0
TEXT
  5
4C
330
17
100
AcDbEntity
  8
NOTES
100
AcDbText
 10
61.671
 20
97.395
 30
0.0
 40
1.2
  1
ETH1
 11
61.671
 21
97.395
 31
0.0
100
AcDbText
  0
LWPOLYLINE
  5
4D
330
17
100
AcDbEntity
  8
OPENINGS
100
AcDbPolyline
 90
36
 70
1
 10
49.652
 20
96.25699999999999
 10
49.642392640201614
 20
96.35454516100806
 10
49.61393976625565
 20
96.44834171618254
 10
49.56773480615127
 20
96.5347851165098
 10
49.50555339059328
 20
96.61055339059327
 10
49.429785116509805
 20
96.67273480615127
 10
49.34334171618254
 20
96.71893976625563
 10
49.249545161008065
 20
96.74739264020161
 10
49.152
 20
96.75699999999999
 10
37.152
 20
96.75699999999999
 10
37.05445483899194
 20
96.74739264020161
 10
36.96065828381746
 20
96.71893976625563
 10
36.8742148834902
 20
96.67273480615127
 10
36.798446609406724
 20
96.61055339059327
 10
36.73626519384873
 20
96.5347851165098
 10
36.690060233744354
 20
96.44834171618254
 10
36.66160735979839
 20
96.35454516100806
 10
36.652
 20
96.25699999999999
 10
36.652
 20
86.557
 10
36.66160735979839
 20
86.45945483899193
 10
36.690060233744354
 20
86.36565828381745
 10
36.73626519384873
 20
86.2792148834902
 10
36.798446609406724
 20
86.20344660940673
 10
36.8742148834902
 20
86.14126519384872
 10
36.96065828381746
 20
86.09506023374436
 10
37.05445483899194
 20
86.06660735979838
 10
37.152
 20
86.057
 10
49.152
 20
86.057
 10
49.249545161008065
 20
86.06660735979838
 10
49.34334171618254
 20
86.09506023374436
 10
49.429785116509805
 20
86.14126519384872
 10
49.50555339059328
 20
86.20344660940673
 10
49.56773480615127
 20
86.2792148834902
 10
49.61393976625565
 20
86.36565828381745
 10
49.642392640201614
 20
86.45945483899193
 10
49.652
 20
86.557
  0
TEXT
  5
4E
330
17
100
AcDbEntity
  8
NOTES
100
AcDbText
 10
41.152
 20
97.35699999999999
 30
0.0
 40
1.2
  1
ETH2
 11
41.152
 21
97.35699999999999
 31
0.0
100
AcDbText
  0
LWPOLYLINE
  5
4F
330
17
100
AcDbEntity
  8
OPENINGS
100
AcDbPolyline
 90
36
 70
1
 10
50.757999999999996
 20
108.919
 10
50.73878528040323
 20
109.11409032201612
 10
50.68187953251128
 20
109.30168343236508
 10
50.589469612302544
 20
109.4745702330196
 10
50.46510678118654
 20
109.62610678118655
 10
50.3135702330196
 20
109.75046961230254
 10
50.14068343236509
 20
109.84287953251129
 10
49.95309032201612
 20
109.89978528040322
 10
49.757999999999996
 20
109.919
 10
36.158
 20
109.919
 10
35.96290967798387
 20
109.89978528040322
 10
35.77531656763491
 20
109.84287953251129
 10
35.6024297669804
 20
109.75046961230254
 10
35.450893218813455
 20
109.62610678118655
 10
35.32653038769745
 20
109.4745702330196
 10
35.234120467488715
 20
109.30168343236508
 10
35.17721471959677
 20
109.11409032201612
 10
35.158
 20
108.919
 10
35.158
 20
105.21900000000001
 10
35.17721471959677
 20
105.02390967798388
 10
35.234120467488715
 20
104.83631656763492
 10
35.32653038769745
 20
104.6634297669804
 10
35.450893218813455
 20
104.51189321881346
 10
35.6024297669804
 20
104.38753038769747
 10
35.77531656763491
 20
104.29512046748872
 10
35.96290967798387
 20
104.23821471959678
 10
36.158
 20
104.21900000000001
 10
49.757999999999996
 20
104.21900000000001
 10
49.95309032201612
 20
104.23821471959678
 10
50.14068343236509
 20
104.29512046748872
 10
50.3135702330196
 20
104.38753038769747
 10
50.46510678118654
 20
104.51189321881346
 10
50.589469612302544
 20
104.6634297669804
 10
50.68187953251128
 20
104.83631656763492
 10
50.73878528040323
 20
105.02390967798388
 10
50.757999999999996
 20
105.21900000000001
  0
TEXT
  5
50
330
17
100
AcDbEntity
  8
NOTES
100
AcDbText
 10
40.958
 20
110.51899999999999
 30
0.0
 40
1.2
  1
HDMI
 11
40.958
 21
110.51899999999999
 31
0.0
100
AcDbText
  0
LWPOLYLINE
  5
51
330
17
100
AcDbEntity
  8
OPENINGS
100
AcDbPolyline
 90
36
 70
1
 10
69.35499999999999
 20
139.27499999999998
 10
69.29735584120968
 20
139.86027096604838
 10
69.12663859753386
 20
140.42305029709524
 10
68.84940883690763
 20
140.94171069905877
 10
68.47632034355964
 20
141.3963203435596
 10
68.0217106990588
 20
141.76940883690762
 10
67.50305029709526
 20
142.04663859753384
 10
66.94027096604837
 20
142.21735584120967
 10
66.35499999999999
 20
142.27499999999998
 10
37.805
 20
142.27499999999998
 10
37.219729033951616
 20
142.21735584120967
 10
36.65694970290473
 20
142.04663859753384
 10
36.138289300941196
 20
141.76940883690762
 10
35.683679656440354
 20
141.3963203435596
 10
35.31059116309236
 20
140.94171069905877
 10
35.03336140246614
 20
140.42305029709524
 10
34.86264415879031
 20
139.86027096604838
 10
34.805
 20
139.27499999999998
 10
34.805
 20
120.62499999999999
 10
34.86264415879031
 20
120.0397290339516
 10
35.03336140246614
 20
119.47694970290472
 10
35.31059116309236
 20
118.95828930094117
 10
35.683679656440354
 20
118.50367965644034
 10
36.138289300941196
 20
118.13059116309235
 10
36.65694970290473
 20
117.85336140246612
 10
37.219729033951616
 20
117.6826441587903
 10
37.805
 20
117.62499999999999
 10
66.35499999999999
 20
117.62499999999999
 10
66.94027096604837
 20
117.6826441587903
 10
67.50305029709526
 20
117.85336140246612
 10
68.0217106990588
 20
118.13059116309235
 10
68.47632034355964
 20
118.50367965644034
 10
68.84940883690763
 20
118.95828930094117
 10
69.12663859753386
 20
119.47694970290472
 10
69.29735584120968
 20
120.0397290339516
 10
69.35499999999999
 20
120.62499999999999
  0
TEXT
  5
52
330
17
100
AcDbEntity
  8
NOTES
100
AcDbText
 10
50.08
 20
142.87499999999997
 30
0.0
 40
1.2
  1
AC
 11
50.08
 21
142.87499999999997
 31
0.0
100
AcDbText
  0
CIRCLE
  5
53
330
17
100
AcDbEntity
  8
OPENINGS
100
AcDbCircle
 10
43.4
 20
19.1
 30
0.0
 40
2.4
  0
CIRCLE
  5
54
330
17
100
AcDbEntity
  8
OPENINGS
100
AcDbCircle
 10
64.65
 20
19.4
 30
0.0
 40
2.4
  0
CIRCLE
  5
55
330
17
100
AcDbEntity
  8
OPENINGS
100
AcDbCircle
 10
63.793
 20
108.111
 30
0.0
 40
6.2
  0
LWPOLYLINE
  5
56
330
17
100
AcDbEntity
  8
LIGHT_WINDOWS
100
AcDbPolyline
 90
36
 70
1
 10
46.906
 20
113.294
 10
46.894471168241935
 20
113.41105419320968
 10
46.86032771950677
 20
113.52361005941906
 10
46.804881767381524
 20
113.62734213981176
 10
46.730264068711925
 20
113.71826406871193
 10
46.63934213981176
 20
113.79288176738153
 10
46.53561005941905
 20
113.84832771950677
 10
46.42305419320967
 20
113.88247116824193
 10
46.306
 20
113.89399999999999
 10
40.506
 20
113.89399999999999
 10
40.388945806790325
 20
113.88247116824193
 10
40.27638994058095
 20
113.84832771950677
 10
40.17265786018824
 20
113.79288176738153
 10
40.08173593128807
 20
113.71826406871193
 10
40.007118232618474
 20
113.62734213981176
 10
39.95167228049323
 20
113.52361005941906
 10
39.91752883175806
 20
113.41105419320968
 10
39.906
 20
113.294
 10
39.906
 20
112.89399999999999
 10
39.91752883175806
 20
112.77694580679031
 10
39.95167228049323
 20
112.66438994058093
 10
40.007118232618474
 20
112.56065786018823
 10
40.08173593128807
 20
112.46973593128806
 10
40.17265786018824
 20
112.39511823261846
 10
40.27638994058095
 20
112.33967228049322
 10
40.388945806790325
 20
112.30552883175805
 10
40.506
 20
112.294
 10
46.306
 20
112.294
 10
46.42305419320967
 20
112.30552883175805
 10
46.53561005941905
 20
112.33967228049322
 10
46.63934213981176
 20
112.39511823261846
 10
46.730264068711925
 20
112.46973593128806
 10
46.804881767381524
 20
112.56065786018823
 10
46.86032771950677
 20
112.66438994058093
 10
46.894471168241935
 20
112.77694580679031
 10
46.906
 20
112.89399999999999
  0
LWPOLYLINE
  5
57
330
17
100
AcDbEntity
  8
LIGHT_WINDOWS
100
AcDbPolyline
 90
36
 70
1
 10
54.91
 20
93.767
 10
54.89078528040323
 20
93.96209032201612
 10
54.83387953251128
 20
94.14968343236508
 10
54.741469612302545
 20
94.3225702330196
 10
54.61710678118654
 20
94.47410678118655
 10
54.4655702330196
 20
94.59846961230254
 10
54.29268343236509
 20
94.69087953251129
 10
54.105090322016125
 20
94.74778528040322
 10
53.91
 20
94.767
 10
52.91
 20
94.767
 10
52.71490967798387
 20
94.74778528040322
 10
52.527316567634905
 20
94.69087953251129
 10
52.354429766980395
 20
94.59846961230254
 10
52.20289321881345
 20
94.47410678118655
 10
52.07853038769745
 20
94.3225702330196
 10
51.98612046748871
 20
94.14968343236508
 10
51.929214719596764
 20
93.96209032201612
 10
51.91
 20
93.767
 10
51.91
 20
90.767
 10
51.929214719596764
 20
90.57190967798387
 10
51.98612046748871
 20
90.38431656763491
 10
52.07853038769745
 20
90.21142976698039
 10
52.20289321881345
 20
90.05989321881344
 10
52.354429766980395
 20
89.93553038769745
 10
52.527316567634905
 20
89.8431204674887
 10
52.71490967798387
 20
89.78621471959677
 10
52.91
 20
89.767
 10
53.91
 20
89.767
 10
54.105090322016125
 20
89.78621471959677
 10
54.29268343236509
 20
89.8431204674887
 10
54.4655702330196
 20
89.93553038769745
 10
54.61710678118654
 20
90.05989321881344
 10
54.741469612302545
 20
90.21142976698039
 10
54.83387953251128
 20
90.38431656763491
 10
54.89078528040323
 20
90.57190967798387
 10
54.91
 20
90.767
  0
LWPOLYLINE
  5
58
330
17
100
AcDbEntity
  8
LIGHT_WINDOWS
100
AcDbPolyline
 90
36
 70
1
 10
54.855
 20
67.441
 10
54.83578528040323
 20
67.63609032201613
 10
54.77887953251128
 20
67.82368343236509
 10
54.686469612302545
 20
67.99657023301961
 10
54.56210678118654
 20
68.14810678118656
 10
54.4105702330196
 20
68.27246961230254
 10
54.23768343236509
 20
68.3648795325113
 10
54.050090322016125
 20
68.42178528040323
 10
53.855
 20
68.441
 10
52.855
 20
68.441
 10
52.65990967798387
 20
68.42178528040323
 10
52.472316567634905
 20
68.3648795325113
 10
52.299429766980396
 20
68.27246961230254
 10
52.14789321881345
 20
68.14810678118656
 10
52.02353038769745
 20
67.99657023301961
 10
51.93112046748871
 20
67.82368343236509
 10
51.874214719596765
 20
67.63609032201613
 10
51.855
 20
67.441
 10
51.855
 20
64.441
 10
51.874214719596765
 20
64.24590967798387
 10
51.93112046748871
 20
64.05831656763492
 10
52.02353038769745
 20
63.8854297669804
 10
52.14789321881345
 20
63.733893218813456
 10
52.299429766980396
 20
63.609530387697454
 10
52.472316567634905
 20
63.517120467488716
 10
52.65990967798387
 20
63.46021471959677
 10
52.855
 20
63.441
 10
53.855
 20
63.441
 10
54.050090322016125
 20
63.46021471959677
 10
54.23768343236509
 20
63.517120467488716
 10
54.4105702330196
 20
63.609530387697454
 10
54.56210678118654
 20
63.733893218813456
 10
54.686469612302545
 20
63.8854297669804
 10
54.77887953251128
 20
64.05831656763492
 10
54.83578528040323
 20
64.24590967798387
 10
54.855
 20
64.441
  0
LWPOLYLINE
  5
59
330
17
100
AcDbEntity
  8
LIGHT_WINDOWS
100
AcDbPolyline
 90
36
 70
1
 10
54.961
 20
39.92
 10
54.94178528040323
 20
40.11509032201613
 10
54.884879532511285
 20
40.30268343236509
 10
54.79246961230255
 20
40.4755702330196
 10
54.668106781186545
 20
40.62710678118655
 10
54.5165702330196
 20
40.75146961230255
 10
54.34368343236509
 20
40.84387953251129
 10
54.15609032201613
 20
40.900785280403234
 10
53.961
 20
40.92
 10
52.961
 20
40.92
 10
52.76590967798387
 20
40.900785280403234
 10
52.57831656763491
 20
40.84387953251129
 10
52.4054297669804
 20
40.75146961230255
 10
52.25389321881345
 20
40.62710678118655
 10
52.12953038769745
 20
40.4755702330196
 10
52.03712046748871
 20
40.30268343236509
 10
51.980214719596766
 20
40.11509032201613
 10
51.961
 20
39.92
 10
51.961
 20
35.92
 10
51.980214719596766
 20
35.724909677983874
 10
52.03712046748871
 20
35.53731656763491
 10
52.12953038769745
 20
35.3644297669804
 10
52.25389321881345
 20
35.212893218813456
 10
52.4054297669804
 20
35.08853038769745
 10
52.57831656763491
 20
34.996120467488716
 10
52.76590967798387
 20
34.93921471959677
 10
52.961
 20
34.92
 10
53.961
 20
34.92
 10
54.15609032201613
 20
34.93921471959677
 10
54.34368343236509
 20
34.996120467488716
 10
54.5165702330196
 20
35.08853038769745
 10
54.668106781186545
 20
35.212893218813456
 10
54.79246961230255
 20
35.3644297669804
 10
54.884879532511285
 20
35.53731656763491
 10
54.94178528040323
 20
35.724909677983874
 10
54.961
 20
35.92
  0
LWPOLYLINE
  5
5A
330
17
100
AcDbEntity
  8
LIGHT_WINDOWS
100
AcDbPolyline
 90
36
 70
1
 10
45.388
 20
12.800999999999998
 10
45.37262822432258
 20
12.957072257612902
 10
45.32710362600903
 20
13.10714674589207
 10
45.25317568984204
 20
13.24545618641568
 10
45.15368542494924
 20
13.366685424949237
 10
45.032456186415686
 20
13.466175689842034
 10
44.89414674589207
 20
13.540103626009028
 10
44.744072257612906
 20
13.585628224322583
 10
44.588
 20
13.600999999999999
 10
42.187999999999995
 20
13.600999999999999
 10
42.03192774238709
 20
13.585628224322583
 10
41.881853254107924
 20
13.540103626009028
 10
41.74354381358431
 20
13.466175689842034
 10
41.62231457505076
 20
13.366685424949237
 10
41.52282431015796
 20
13.24545618641568
 10
41.44889637399097
 20
13.10714674589207
 10
41.403371775677414
 20
12.9570722576129
 10
41.388
 20
12.800999999999998
 10
41.388
 20
12.001000000000001
 10
41.403371775677414
 20
11.844927742387098
 10
41.44889637399096
 20
11.69485325410793
 10
41.52282431015796
 20
11.55654381358432
 10
41.62231457505076
 20
11.435314575050763
 10
41.74354381358431
 20
11.335824310157966
 10
41.881853254107924
 20
11.261896373990972
 10
42.03192774238709
 20
11.216371775677416
 10
42.187999999999995
 20
11.201
 10
44.588
 20
11.201
 10
44.744072257612906
 20
11.216371775677416
 10
44.89414674589207
 20
11.261896373990972
 10
45.03245618641568
 20
11.335824310157964
 10
45.15368542494924
 20
11.435314575050763
 10
45.25317568984204
 20
11.55654381358432
 10
45.327103626009034
 20
11.69485325410793
 10
45.37262822432258
 20
11.844927742387098
 10
45.388
 20
12.001000000000001
  0
LWPOLYLINE
  5
5B
330
17
100
AcDbEntity
  8
LIGHT_WINDOWS
100
AcDbPolyline
 90
36
 70
1
 10
65.613
 20
12.800999999999998
 10
65.59762822432259
 20
12.957072257612902
 10
65.55210362600903
 20
13.10714674589207
 10
65.47817568984203
 20
13.24545618641568
 10
65.37868542494924
 20
13.366685424949237
 10
65.25745618641568
 20
13.466175689842034
 10
65.11914674589208
 20
13.540103626009028
 10
64.96907225761291
 20
13.585628224322583
 10
64.813
 20
13.600999999999999
 10
62.413
 20
13.600999999999999
 10
62.25692774238709
 20
13.585628224322583
 10
62.106853254107925
 20
13.540103626009028
 10
61.96854381358431
 20
13.466175689842034
 10
61.84731457505076
 20
13.366685424949237
 10
61.74782431015796
 20
13.24545618641568
 10
61.67389637399097
 20
13.10714674589207
 10
61.628371775677415
 20
12.9570722576129
 10
61.613
 20
12.800999999999998
 10
61.613
 20
12.001000000000001
 10
61.628371775677415
 20
11.844927742387098
 10
61.67389637399097
 20
11.69485325410793
 10
61.74782431015796
 20
11.55654381358432
 10
61.84731457505076
 20
11.435314575050763
 10
61.96854381358432
 20
11.335824310157966
 10
62.106853254107925
 20
11.261896373990972
 10
62.25692774238709
 20
11.216371775677416
 10
62.413
 20
11.201
 10
64.813
 20
11.201
 10
64.96907225761291
 20
11.216371775677416
 10
65.11914674589208
 20
11.261896373990972
 10
65.25745618641568
 20
11.335824310157964
 10
65.37868542494924
 20
11.435314575050763
 10
65.47817568984203
 20
11.55654381358432
 10
65.55210362600903
 20
11.69485325410793
 10
65.59762822432259
 20
11.844927742387098
 10
65.613
 20
12.001000000000001
  0
CIRCLE
  5
5C
330
17
100
AcDbEntity
  8
CLIPS
100
AcDbCircle
 10
31.0
 20
140.0
 30
0.0
 40
1.0
  0
CIRCLE
  5
5D
330
17
100
AcDbEntity
  8
CLIPS
100
AcDbCircle
 10
28.2
 20
90.0
 30
0.0
 40
1.0
  0
CIRCLE
  5
5E
330
17
100
AcDbEntity
  8
CLIPS
100
AcDbCircle
 10
29.6
 20
30.3
 30
0.0
 40
1.0
  0
CIRCLE
  5
5F
330
17
100
AcDbEntity
  8
CLIPS
100
AcDbCircle
 10
75.38
 20
140.0
 30
0.0
 40
1.0
  0
CIRCLE
  5
60
330
17
100
AcDbEntity
  8
CLIPS
100
AcDbCircle
 10
78.17999999999999
 20
90.0
 30
0.0
 40
1.0
  0
CIRCLE
  5
61
330
17
100
AcDbEntity
  8
CLIPS
100
AcDbCircle
 10
44.1
 20
2.7
 30
0.0
 40
1.0
  0
CIRCLE
  5
62
330
17
100
AcDbEntity
  8
CLIPS
100
AcDbCircle
 10
62.279999999999994
 20
2.7
 30
0.0
 40
1.0
  0
CIRCLE
  5
63
330
17
100
AcDbEntity
  8
PINS
100
AcDbCircle
 10
52.93
 20
75.41
 30
0.0
 40
1.2
  0
CIRCLE
  5
64
330
17
100
AcDbEntity
  8
PINS
100
AcDbCircle
 10
54.49
 20
19.23
 30
0.0
 40
1.2
  0
CIRCLE
  5
65
330
17
100
AcDbEntity
  8
PINS
100
AcDbCircle
 10
57.163
 20
113.531
 30
0.0
 40
0.7
  0
CIRCLE
  5
66
330
17
100
AcDbEntity
  8
PINS
100
AcDbCircle
 10
70.583
 20
103.031
 30
0.0
 40
0.7
  0
TEXT
  5
67
330
17
100
AcDbEntity
  8
NOTES
100
AcDbText
 10
23.189999999999998
 20
-12.0
 30
0.0
 40
2.0
  1
MP62 IO plate v2 A0 - backview - mm - Y up = MEG/base end
 11
23.189999999999998
 21
-12.0
 31
0.0
100
AcDbText
  0
ENDSEC
  0
SECTION
  2
OBJECTS
  0
DICTIONARY
  5
A
330
0
100
AcDbDictionary
281
1
  3
ACAD_COLOR
350
B
  3
ACAD_GROUP
350
C
  3
ACAD_LAYOUT
350
D
  3
ACAD_MATERIAL
350
E
  3
ACAD_MLEADERSTYLE
350
F
  3
ACAD_MLINESTYLE
350
10
  3
ACAD_PLOTSETTINGS
350
11
  3
ACAD_PLOTSTYLENAME
350
12
  3
ACAD_SCALELIST
350
14
  3
ACAD_TABLESTYLE
350
15
  3
ACAD_VISUALSTYLE
350
16
  3
EZDXF_META
350
2D
  0
DICTIONARY
  5
B
330
A
100
AcDbDictionary
281
1
  0
DICTIONARY
  5
C
330
A
100
AcDbDictionary
281
1
  0
DICTIONARY
  5
D
330
A
100
AcDbDictionary
281
1
  3
Model
350
1A
  3
Layout1
350
1E
  0
DICTIONARY
  5
E
330
A
100
AcDbDictionary
281
1
  3
ByBlock
350
1F
  3
ByLayer
350
20
  3
Global
350
21
  0
DICTIONARY
  5
F
330
A
100
AcDbDictionary
281
1
  3
Standard
350
2C
  0
DICTIONARY
  5
10
330
A
100
AcDbDictionary
281
1
  3
Standard
350
22
  0
DICTIONARY
  5
11
330
A
100
AcDbDictionary
281
1
  0
ACDBDICTIONARYWDFLT
  5
12
330
A
100
AcDbDictionary
281
1
  3
Normal
350
13
100
AcDbDictionaryWithDefault
340
13
  0
ACDBPLACEHOLDER
  5
13
330
12
  0
DICTIONARY
  5
14
330
A
100
AcDbDictionary
281
1
  0
DICTIONARY
  5
15
330
A
100
AcDbDictionary
281
1
  0
DICTIONARY
  5
16
330
A
100
AcDbDictionary
281
1
  0
LAYOUT
  5
1A
330
D
100
AcDbPlotSettings
  1

  4
A3
  6

 40
7.5
 41
20.0
 42
7.5
 43
20.0
 44
420.0
 45
297.0
 46
0.0
 47
0.0
 48
0.0
 49
0.0
140
0.0
141
0.0
142
1.0
143
1.0
 70
1024
 72
1
 73
0
 74
5
  7

 75
16
 76
0
 77
2
 78
300
147
1.0
148
0.0
149
0.0
100
AcDbLayout
  1
Model
 70
1
 71
0
 10
0.0
 20
0.0
 11
420.0
 21
297.0
 12
0.0
 22
0.0
 32
0.0
 14
1e+20
 24
1e+20
 34
1e+20
 15
-1e+20
 25
-1e+20
 35
-1e+20
146
0.0
 13
0.0
 23
0.0
 33
0.0
 16
1.0
 26
0.0
 36
0.0
 17
0.0
 27
1.0
 37
0.0
 76
1
330
17
  0
LAYOUT
  5
1E
330
D
100
AcDbPlotSettings
  1

  4
A3
  6

 40
7.5
 41
20.0
 42
7.5
 43
20.0
 44
420.0
 45
297.0
 46
0.0
 47
0.0
 48
0.0
 49
0.0
140
0.0
141
0.0
142
1.0
143
1.0
 70
0
 72
1
 73
0
 74
5
  7

 75
16
 76
0
 77
2
 78
300
147
1.0
148
0.0
149
0.0
100
AcDbLayout
  1
Layout1
 70
1
 71
1
 10
0.0
 20
0.0
 11
420.0
 21
297.0
 12
0.0
 22
0.0
 32
0.0
 14
1e+20
 24
1e+20
 34
1e+20
 15
-1e+20
 25
-1e+20
 35
-1e+20
146
0.0
 13
0.0
 23
0.0
 33
0.0
 16
1.0
 26
0.0
 36
0.0
 17
0.0
 27
1.0
 37
0.0
 76
1
330
1B
  0
MATERIAL
  5
1F
102
{ACAD_REACTORS
330
E
102
}
330
E
100
AcDbMaterial
  1
ByBlock
  2

 70
0
 40
1.0
 71
1
 41
1.0
 91
-1023410177
 42
1.0
 72
1
  3

 73
1
 74
1
 75
1
 44
0.5
 73
0
 45
1.0
 46
1.0
 77
1
  4

 78
1
 79
1
170
1
 48
1.0
171
1
  6

172
1
173
1
174
1
140
1.0
141
1.0
175
1
  7

176
1
177
1
178
1
143
1.0
179
1
  8

270
1
271
1
272
1
145
1.0
146
1.0
273
1
  9

274
1
275
1
276
1
 42
1.0
 72
1
  3

 73
1
 74
1
 75
1
 94
63
  0
MATERIAL
  5
20
102
{ACAD_REACTORS
330
E
102
}
330
E
100
AcDbMaterial
  1
ByLayer
  2

 70
0
 40
1.0
 71
1
 41
1.0
 91
-1023410177
 42
1.0
 72
1
  3

 73
1
 74
1
 75
1
 44
0.5
 73
0
 45
1.0
 46
1.0
 77
1
  4

 78
1
 79
1
170
1
 48
1.0
171
1
  6

172
1
173
1
174
1
140
1.0
141
1.0
175
1
  7

176
1
177
1
178
1
143
1.0
179
1
  8

270
1
271
1
272
1
145
1.0
146
1.0
273
1
  9

274
1
275
1
276
1
 42
1.0
 72
1
  3

 73
1
 74
1
 75
1
 94
63
  0
MATERIAL
  5
21
102
{ACAD_REACTORS
330
E
102
}
330
E
100
AcDbMaterial
  1
Global
  2

 70
0
 40
1.0
 71
1
 41
1.0
 91
-1023410177
 42
1.0
 72
1
  3

 73
1
 74
1
 75
1
 44
0.5
 73
0
 45
1.0
 46
1.0
 77
1
  4

 78
1
 79
1
170
1
 48
1.0
171
1
  6

172
1
173
1
174
1
140
1.0
141
1.0
175
1
  7

176
1
177
1
178
1
143
1.0
179
1
  8

270
1
271
1
272
1
145
1.0
146
1.0
273
1
  9

274
1
275
1
276
1
 42
1.0
 72
1
  3

 73
1
 74
1
 75
1
 94
63
  0
MLINESTYLE
  5
22
102
{ACAD_REACTORS
330
10
102
}
330
10
100
AcDbMlineStyle
  2
Standard
 70
0
  3

 62
256
 51
90.0
 52
90.0
 71
2
 49
0.5
 62
256
  6
BYLAYER
 49
-0.5
 62
256
  6
BYLAYER
  0
MLEADERSTYLE
  5
2C
102
{ACAD_REACTORS
330
F
102
}
330
F
100
AcDbMLeaderStyle
179
2
170
2
171
1
172
0
 90
2
 40
0.0
 41
0.0
173
1
 91
-1056964608
 92
-2
290
1
 42
2.0
291
1
 43
8.0
  3
Standard
 44
4.0
300

342
29
174
1
175
1
176
0
178
1
 93
-1056964608
 45
4.0
292
0
297
0
 46
4.0
 94
-1056964608
 47
1.0
 49
1.0
140
1.0
294
1
141
0.0
177
0
142
1.0
295
0
296
0
143
3.75
271
0
272
9
273
9
  0
DICTIONARY
  5
2D
330
A
100
AcDbDictionary
280
1
281
1
  3
CREATED_BY_EZDXF
350
2E
  3
WRITTEN_BY_EZDXF
350
6A
  0
DICTIONARYVAR
  5
2E
330
2D
100
DictionaryVariables
280
0
  1
1.4.4 @ 2026-10-02T16:28:07.578207+00:00
  0
DICTIONARYVAR
  5
6A
330
2D
100
DictionaryVariables
280
0
  1
1.4.4 @ 2026-10-02T16:28:07.582797+00:00
  0
ENDSEC
  0
EOF
