  0
SECTION
  2
HEADER
  9
$ACADVER
  1
AC1024
  9
$ACADMAINTVER
 70
6
  9
$DWGCODEPAGE
  3
ANSI_1252
  9
$LASTSAVEDBY
  1
ezdxf
  9
$INSBASE
 10
0.0
 20
0.0
 30
0.0
  9
$EXTMIN
 10
1e+20
 20
1e+20
 30
1e+20
  9
$EXTMAX
 10
-1e+20
 20
-1e+20
 30
-1e+20
  9
$LIMMIN
 10
0.0
 20
0.0
  9
$LIMMAX
 10
420.0
 20
297.0
  9
$ORTHOMODE
 70
0
  9
$REGENMODE
 70
1
  9
$FILLMODE
 70
1
  9
$QTEXTMODE
 70
0
  9
$MIRRTEXT
 70
1
  9
$LTSCALE
 40
1.0
  9
$ATTMODE
 70
1
  9
$TEXTSIZE
 40
2.5
  9
$TRACEWID
 40
1.0
  9
$TEXTSTYLE
  7
Standard
  9
$CLAYER
  8
0
  9
$CELTYPE
  6
ByLayer
  9
$CECOLOR
 62
256
  9
$CELTSCALE
 40
1.0
  9
$DISPSILH
 70
0
  9
$DIMSCALE
 40
1.0
  9
$DIMASZ
 40
2.5
  9
$DIMEXO
 40
0.625
  9
$DIMDLI
 40
3.75
  9
$DIMRND
 40
0.0
  9
$DIMDLE
 40
0.0
  9
$DIMEXE
 40
1.25
  9
$DIMTP
 40
0.0
  9
$DIMTM
 40
0.0
  9
$DIMTXT
 40
2.5
  9
$DIMCEN
 40
2.5
  9
$DIMTSZ
 40
0.0
  9
$DIMTOL
 70
0
  9
$DIMLIM
 70
0
  9
$DIMTIH
 70
0
  9
$DIMTOH
 70
0
  9
$DIMSE1
 70
0
  9
$DIMSE2
 70
0
  9
$DIMTAD
 70
1
  9
$DIMZIN
 70
8
  9
$DIMBLK
  1

  9
$DIMASO
 70
1
  9
$DIMSHO
 70
1
  9
$DIMPOST
  1

  9
$DIMAPOST
  1

  9
$DIMALT
 70
0
  9
$DIMALTD
 70
3
  9
$DIMALTF
 40
0.03937007874
  9
$DIMLFAC
 40
1.0
  9
$DIMTOFL
 70
1
  9
$DIMTVP
 40
0.0
  9
$DIMTIX
 70
0
  9
$DIMSOXD
 70
0
  9
$DIMSAH
 70
0
  9
$DIMBLK1
  1

  9
$DIMBLK2
  1

  9
$DIMSTYLE
  2
ISO-25
  9
$DIMCLRD
 70
0
  9
$DIMCLRE
 70
0
  9
$DIMCLRT
 70
0
  9
$DIMTFAC
 40
1.0
  9
$DIMGAP
 40
0.625
  9
$DIMJUST
 70
0
  9
$DIMSD1
 70
0
  9
$DIMSD2
 70
0
  9
$DIMTOLJ
 70
0
  9
$DIMTZIN
 70
8
  9
$DIMALTZ
 70
0
  9
$DIMALTTZ
 70
0
  9
$DIMUPT
 70
0
  9
$DIMDEC
 70
2
  9
$DIMTDEC
 70
2
  9
$DIMALTU
 70
2
  9
$DIMALTTD
 70
3
  9
$DIMTXSTY
  7
Standard
  9
$DIMAUNIT
 70
0
  9
$DIMADEC
 70
0
  9
$DIMALTRND
 40
0.0
  9
$DIMAZIN
 70
0
  9
$DIMDSEP
 70
44
  9
$DIMATFIT
 70
3
  9
$DIMFRAC
 70
0
  9
$DIMLDRBLK
  1

  9
$DIMLUNIT
 70
2
  9
$DIMLWD
 70
-2
  9
$DIMLWE
 70
-2
  9
$DIMTMOVE
 70
0
  9
$DIMFXL
 40
1.0
  9
$DIMFXLON
 70
0
  9
$DIMJOGANG
 40
0.785398163397
  9
$DIMTFILL
 70
0
  9
$DIMTFILLCLR
 70
0
  9
$DIMARCSYM
 70
0
  9
$DIMLTYPE
  6

  9
$DIMLTEX1
  6

  9
$DIMLTEX2
  6

  9
$DIMTXTDIRECTION
 70
0
  9
$LUNITS
 70
2
  9
$LUPREC
 70
4
  9
$SKETCHINC
 40
1.0
  9
$FILLETRAD
 40
10.0
  9
$AUNITS
 70
0
  9
$AUPREC
 70
2
  9
$MENU
  1
.
  9
$ELEVATION
 40
0.0
  9
$PELEVATION
 40
0.0
  9
$THICKNESS
 40
0.0
  9
$LIMCHECK
 70
0
  9
$CHAMFERA
 40
0.0
  9
$CHAMFERB
 40
0.0
  9
$CHAMFERC
 40
0.0
  9
$CHAMFERD
 40
0.0
  9
$SKPOLY
 70
0
  9
$TDCREATE
 40
2461316.3792824075
  9
$TDUCREATE
 40
2458532.153996898
  9
$TDUPDATE
 40
2461316.3792824075
  9
$TDUUPDATE
 40
2458532.1544311
  9
$TDINDWG
 40
0.0
  9
$TDUSRTIMER
 40
0.0
  9
$USRTIMER
 70
1
  9
$ANGBASE
 50
0.0
  9
$ANGDIR
 70
0
  9
$PDMODE
 70
0
  9
$PDSIZE
 40
0.0
  9
$PLINEWID
 40
0.0
  9
$SPLFRAME
 70
0
  9
$SPLINETYPE
 70
6
  9
$SPLINESEGS
 70
8
  9
$HANDSEED
  5
66
  9
$SURFTAB1
 70
6
  9
$SURFTAB2
 70
6
  9
$SURFTYPE
 70
6
  9
$SURFU
 70
6
  9
$SURFV
 70
6
  9
$UCSBASE
  2

  9
$UCSNAME
  2

  9
$UCSORG
 10
0.0
 20
0.0
 30
0.0
  9
$UCSXDIR
 10
1.0
 20
0.0
 30
0.0
  9
$UCSYDIR
 10
0.0
 20
1.0
 30
0.0
  9
$UCSORTHOREF
  2

  9
$UCSORTHOVIEW
 70
0
  9
$UCSORGTOP
 10
0.0
 20
0.0
 30
0.0
  9
$UCSORGBOTTOM
 10
0.0
 20
0.0
 30
0.0
  9
$UCSORGLEFT
 10
0.0
 20
0.0
 30
0.0
  9
$UCSORGRIGHT
 10
0.0
 20
0.0
 30
0.0
  9
$UCSORGFRONT
 10
0.0
 20
0.0
 30
0.0
  9
$UCSORGBACK
 10
0.0
 20
0.0
 30
0.0
  9
$PUCSBASE
  2

  9
$PUCSNAME
  2

  9
$PUCSORG
 10
0.0
 20
0.0
 30
0.0
  9
$PUCSXDIR
 10
1.0
 20
0.0
 30
0.0
  9
$PUCSYDIR
 10
0.0
 20
1.0
 30
0.0
  9
$PUCSORTHOREF
  2

  9
$PUCSORTHOVIEW
 70
0
  9
$PUCSORGTOP
 10
0.0
 20
0.0
 30
0.0
  9
$PUCSORGBOTTOM
 10
0.0
 20
0.0
 30
0.0
  9
$PUCSORGLEFT
 10
0.0
 20
0.0
 30
0.0
  9
$PUCSORGRIGHT
 10
0.0
 20
0.0
 30
0.0
  9
$PUCSORGFRONT
 10
0.0
 20
0.0
 30
0.0
  9
$PUCSORGBACK
 10
0.0
 20
0.0
 30
0.0
  9
$USERI1
 70
0
  9
$USERI2
 70
0
  9
$USERI3
 70
0
  9
$USERI4
 70
0
  9
$USERI5
 70
0
  9
$USERR1
 40
0.0
  9
$USERR2
 40
0.0
  9
$USERR3
 40
0.0
  9
$USERR4
 40
0.0
  9
$USERR5
 40
0.0
  9
$WORLDVIEW
 70
1
  9
$SHADEDGE
 70
3
  9
$SHADEDIF
 70
70
  9
$TILEMODE
 70
1
  9
$MAXACTVP
 70
64
  9
$PINSBASE
 10
0.0
 20
0.0
 30
0.0
  9
$PLIMCHECK
 70
0
  9
$PEXTMIN
 10
1e+20
 20
1e+20
 30
1e+20
  9
$PEXTMAX
 10
-1e+20
 20
-1e+20
 30
-1e+20
  9
$PLIMMIN
 10
0.0
 20
0.0
  9
$PLIMMAX
 10
420.0
 20
297.0
  9
$UNITMODE
 70
0
  9
$VISRETAIN
 70
1
  9
$PLINEGEN
 70
0
  9
$PSLTSCALE
 70
1
  9
$TREEDEPTH
 70
3020
  9
$CMLSTYLE
  2
Standard
  9
$CMLJUST
 70
0
  9
$CMLSCALE
 40
20.0
  9
$PROXYGRAPHICS
 70
1
  9
$MEASUREMENT
 70
1
  9
$CELWEIGHT
370
-1
  9
$ENDCAPS
280
0
  9
$JOINSTYLE
280
0
  9
$LWDISPLAY
290
0
  9
$INSUNITS
 70
6
  9
$HYPERLINKBASE
  1

  9
$STYLESHEET
  1

  9
$XEDIT
290
1
  9
$CEPSNTYPE
380
0
  9
$PSTYLEMODE
290
1
  9
$FINGERPRINTGUID
  2
{B289BAD4-76E3-44FF-9990-30832DD70202}
  9
$VERSIONGUID
  2
{DB57AB4E-9512-41A6-A63A-4FB9F06ACEB2}
  9
$EXTNAMES
290
1
  9
$PSVPSCALE
 40
0.0
  9
$OLESTARTUP
290
0
  9
$SORTENTS
280
127
  9
$INDEXCTL
280
0
  9
$HIDETEXT
280
1
  9
$XCLIPFRAME
280
1
  9
$HALOGAP
280
0
  9
$OBSCOLOR
 70
257
  9
$OBSLTYPE
280
0
  9
$INTERSECTIONDISPLAY
280
0
  9
$INTERSECTIONCOLOR
 70
257
  9
$DIMASSOC
280
2
  9
$PROJECTNAME
  1

  9
$CAMERADISPLAY
290
0
  9
$LENSLENGTH
 40
50.0
  9
$CAMERAHEIGHT
 40
0.0
  9
$STEPSPERSEC
 40
24.0
  9
$STEPSIZE
 40
100.0
  9
$3DDWFPREC
 40
2.0
  9
$PSOLWIDTH
 40
0.005
  9
$PSOLHEIGHT
 40
0.08
  9
$LOFTANG1
 40
1.570796326795
  9
$LOFTANG2
 40
1.570796326795
  9
$LOFTMAG1
 40
0.0
  9
$LOFTMAG2
 40
0.0
  9
$LOFTPARAM
 70
7
  9
$LOFTNORMALS
280
1
  9
$LATITUDE
 40
37.795
  9
$LONGITUDE
 40
-122.394
  9
$NORTHDIRECTION
 40
0.0
  9
$TIMEZONE
 70
-8000
  9
$LIGHTGLYPHDISPLAY
280
1
  9
$TILEMODELIGHTSYNCH
280
1
  9
$CMATERIAL
347
20
  9
$SOLIDHIST
280
0
  9
$SHOWHIST
280
1
  9
$DWFFRAME
280
2
  9
$DGNFRAME
280
2
  9
$REALWORLDSCALE
290
1
  9
$INTERFERECOLOR
 62
256
  9
$CSHADOW
280
0
  9
$SHADOWPLANELOCATION
 40
0.0
  0
ENDSEC
  0
SECTION
  2
CLASSES
  0
CLASS
  1
ACDBDICTIONARYWDFLT
  2
AcDbDictionaryWithDefault
  3
ObjectDBX Classes
 90
0
 91
0
280
0
281
0
  0
CLASS
  1
SUN
  2
AcDbSun
  3
SCENEOE
 90
1153
 91
0
280
0
281
0
  0
CLASS
  1
VISUALSTYLE
  2
AcDbVisualStyle
  3
ObjectDBX Classes
 90
4095
 91
0
280
0
281
0
  0
CLASS
  1
MATERIAL
  2
AcDbMaterial
  3
ObjectDBX Classes
 90
1153
 91
0
280
0
281
0
  0
CLASS
  1
SCALE
  2
AcDbScale
  3
ObjectDBX Classes
 90
1153
 91
0
280
0
281
0
  0
CLASS
  1
TABLESTYLE
  2
AcDbTableStyle
  3
ObjectDBX Classes
 90
4095
 91
0
280
0
281
0
  0
CLASS
  1
MLEADERSTYLE
  2
AcDbMLeaderStyle
  3
ACDB_MLEADERSTYLE_CLASS
 90
4095
 91
0
280
0
281
0
  0
CLASS
  1
DICTIONARYVAR
  2
AcDbDictionaryVar
  3
ObjectDBX Classes
 90
0
 91
0
280
0
281
0
  0
CLASS
  1
CELLSTYLEMAP
  2
AcDbCellStyleMap
  3
ObjectDBX Classes
 90
1152
 91
0
280
0
281
0
  0
CLASS
  1
MENTALRAYRENDERSETTINGS
  2
AcDbMentalRayRenderSettings
  3
SCENEOE
 90
1024
 91
0
280
0
281
0
  0
CLASS
  1
ACDBDETAILVIEWSTYLE
  2
AcDbDetailViewStyle
  3
ObjectDBX Classes
 90
1025
 91
0
280
0
281
0
  0
CLASS
  1
ACDBSECTIONVIEWSTYLE
  2
AcDbSectionViewStyle
  3
ObjectDBX Classes
 90
1025
 91
0
280
0
281
0
  0
CLASS
  1
RASTERVARIABLES
  2
AcDbRasterVariables
  3
ISM
 90
0
 91
0
280
0
281
0
  0
CLASS
  1
LAYOUT
  2
AcDbLayout
  3
ObjectDBX Classes
 90
0
 91
0
280
0
281
0
  0
CLASS
  1
ACDBPLACEHOLDER
  2
AcDbPlaceHolder
  3
ObjectDBX Classes
 90
0
 91
0
280
0
281
0
  0
ENDSEC
  0
SECTION
  2
TABLES
  0
TABLE
  2
VPORT
  5
8
330
0
100
AcDbSymbolTable
 70
1
  0
VPORT
  5
23
330
8
100
AcDbSymbolTableRecord
100
AcDbViewportTableRecord
  2
*Active
 70
0
 10
0.0
 20
0.0
 11
1.0
 21
1.0
 12
0.0
 22
0.0
 13
0.0
 23
0.0
 14
0.5
 24
0.5
 15
0.5
 25
0.5
 16
0.0
 26
0.0
 36
1.0
 17
0.0
 27
0.0
 37
0.0
 40
1000.0
 41
1.34
 42
50.0
 43
0.0
 44
0.0
 50
0.0
 51
0.0
 71
0
 72
1000
 73
1
 74
3
 75
0
 76
0
 77
0
 78
0
281
0
 65
0
146
0.0
  0
ENDTAB
  0
TABLE
  2
LTYPE
  5
2
330
0
100
AcDbSymbolTable
 70
3
  0
LTYPE
  5
24
330
2
100
AcDbSymbolTableRecord
100
AcDbLinetypeTableRecord
  2
ByBlock
 70
0
  3

 72
65
 73
0
 40
0.0
  0
LTYPE
  5
25
330
2
100
AcDbSymbolTableRecord
100
AcDbLinetypeTableRecord
  2
ByLayer
 70
0
  3

 72
65
 73
0
 40
0.0
  0
LTYPE
  5
26
330
2
100
AcDbSymbolTableRecord
100
AcDbLinetypeTableRecord
  2
Continuous
 70
0
  3

 72
65
 73
0
 40
0.0
  0
ENDTAB
  0
TABLE
  2
LAYER
  5
1
330
0
100
AcDbSymbolTable
 70
8
  0
LAYER
  5
27
330
1
100
AcDbSymbolTableRecord
100
AcDbLayerTableRecord
  2
0
 70
0
 62
7
  6
Continuous
370
-3
390
13
347
21
  0
LAYER
  5
28
330
1
100
AcDbSymbolTableRecord
100
AcDbLayerTableRecord
  2
Defpoints
 70
0
 62
7
  6
Continuous
290
0
370
-3
390
13
347
21
  0
LAYER
  5
2F
330
1
100
AcDbSymbolTableRecord
100
AcDbLayerTableRecord
  2
OUTLINE
 70
0
 62
7
  6
Continuous
370
-3
390
13
347
21
  0
LAYER
  5
30
330
1
100
AcDbSymbolTableRecord
100
AcDbLayerTableRecord
  2
OPENINGS
 70
0
 62
7
  6
Continuous
370
-3
390
13
347
21
  0
LAYER
  5
31
330
1
100
AcDbSymbolTableRecord
100
AcDbLayerTableRecord
  2
LIGHTPIPES
 70
0
 62
7
  6
Continuous
370
-3
390
13
347
21
  0
LAYER
  5
32
330
1
100
AcDbSymbolTableRecord
100
AcDbLayerTableRecord
  2
LIGHT_WINDOWS
 70
0
 62
7
  6
Continuous
370
-3
390
13
347
21
  0
LAYER
  5
33
330
1
100
AcDbSymbolTableRecord
100
AcDbLayerTableRecord
  2
CLIPS
 70
0
 62
7
  6
Continuous
370
-3
390
13
347
21
  0
LAYER
  5
34
330
1
100
AcDbSymbolTableRecord
100
AcDbLayerTableRecord
  2
NOTES
 70
0
 62
7
  6
Continuous
370
-3
390
13
347
21
  0
ENDTAB
  0
TABLE
  2
STYLE
  5
5
330
0
100
AcDbSymbolTable
 70
1
  0
STYLE
  5
29
330
5
100
AcDbSymbolTableRecord
100
AcDbTextStyleTableRecord
  2
Standard
 70
0
 40
0.0
 41
1.0
 50
0.0
 71
0
 42
2.5
  3
txt
  4

  0
ENDTAB
  0
TABLE
  2
VIEW
  5
7
330
0
100
AcDbSymbolTable
 70
0
  0
ENDTAB
  0
TABLE
  2
UCS
  5
6
330
0
100
AcDbSymbolTable
 70
0
  0
ENDTAB
  0
TABLE
  2
APPID
  5
3
330
0
100
AcDbSymbolTable
 70
3
  0
APPID
  5
2A
330
3
100
AcDbSymbolTableRecord
100
AcDbRegAppTableRecord
  2
ACAD
 70
0
  0
APPID
  5
63
330
3
100
AcDbSymbolTableRecord
100
AcDbRegAppTableRecord
  2
HATCHBACKGROUNDCOLOR
 70
0
  0
APPID
  5
64
330
3
100
AcDbSymbolTableRecord
100
AcDbRegAppTableRecord
  2
EZDXF
 70
0
  0
ENDTAB
  0
TABLE
  2
DIMSTYLE
  5
4
330
0
100
AcDbSymbolTable
 70
1
100
AcDbDimStyleTable
  0
DIMSTYLE
105
2B
330
4
100
AcDbSymbolTableRecord
100
AcDbDimStyleTableRecord
  2
Standard
 70
0
 40
1.0
 41
2.5
 42
0.625
 43
3.75
 44
1.25
 45
0.0
 46
0.0
 47
0.0
 48
0.0
 49
2.5
140
2.5
141
2.5
142
0.0
143
0.03937007874
144
1.0
145
0.0
146
1.0
147
0.625
148
0.0
 69
0
 70
0
 71
0
 72
0
 73
0
 74
0
 75
0
 76
0
 77
1
 78
8
 79
3
170
0
171
3
172
1
173
0
174
0
175
0
176
0
177
0
178
0
179
2
271
2
272
2
273
2
274
3
275
0
276
0
277
2
278
44
279
0
280
0
281
0
282
0
283
0
284
8
285
0
286
0
288
0
289
3
290
0
371
-2
372
-2
  0
ENDTAB
  0
TABLE
  2
BLOCK_RECORD
  5
9
330
0
100
AcDbSymbolTable
 70
2
  0
BLOCK_RECORD
  5
17
330
9
100
AcDbSymbolTableRecord
100
AcDbBlockTableRecord
  2
*Model_Space
340
1A
 70
0
280
1
281
0
  0
BLOCK_RECORD
  5
1B
330
9
100
AcDbSymbolTableRecord
100
AcDbBlockTableRecord
  2
*Paper_Space
340
1E
 70
0
280
1
281
0
  0
ENDTAB
  0
ENDSEC
  0
SECTION
  2
BLOCKS
  0
BLOCK
  5
18
330
17
100
AcDbEntity
  8
0
100
AcDbBlockBegin
  2
*Model_Space
 70
0
 10
0.0
 20
0.0
 30
0.0
  3
*Model_Space
  1

  0
ENDBLK
  5
19
330
17
100
AcDbEntity
  8
0
100
AcDbBlockEnd
  0
BLOCK
  5
1C
330
1B
100
AcDbEntity
  8
0
100
AcDbBlockBegin
  2
*Paper_Space
 70
0
 10
0.0
 20
0.0
 30
0.0
  3
*Paper_Space
  1

  0
ENDBLK
  5
1D
330
1B
100
AcDbEntity
  8
0
100
AcDbBlockEnd
  0
ENDSEC
  0
SECTION
  2
ENTITIES
  0
LWPOLYLINE
  5
35
330
17
100
AcDbEntity
  8
OUTLINE
100
AcDbPolyline
 90
36
 70
1
 10
79.14
 20
147.12
 10
78.91903072463715
 20
149.36353870318547
 10
78.2646146238798
 20
151.52085947219854
 10
77.20190054147928
 20
153.50905767972543
 10
75.77172798364529
 20
155.2517279836453
 10
74.02905767972543
 20
156.68190054147928
 10
72.04085947219853
 20
157.7446146238798
 10
69.88353870318548
 20
158.39903072463716
 10
67.64
 20
158.62
 10
38.739999999999995
 20
158.62
 10
36.49646129681452
 20
158.39903072463716
 10
34.33914052780146
 20
157.7446146238798
 10
32.35094232027457
 20
156.68190054147928
 10
30.608272016354697
 20
155.2517279836453
 10
29.178099458520723
 20
153.50905767972543
 10
28.115385376120198
 20
151.52085947219854
 10
27.460969275362846
 20
149.36353870318547
 10
27.239999999999995
 20
147.12
 10
27.239999999999995
 20
7.019999999999998
 10
27.460969275362846
 20
4.77646129681452
 10
28.115385376120194
 20
2.6191405278014646
 10
29.178099458520727
 20
0.6309423202745696
 10
30.608272016354697
 20
-1.1117279836453005
 10
32.35094232027457
 20
-2.541900541479274
 10
34.33914052780146
 20
-3.6046146238798027
 10
36.496461296814516
 20
-4.259030724637153
 10
38.739999999999995
 20
-4.480000000000004
 10
67.64
 20
-4.480000000000004
 10
69.88353870318548
 20
-4.259030724637153
 10
72.04085947219853
 20
-3.604614623879801
 10
74.02905767972543
 20
-2.5419005414792775
 10
75.77172798364529
 20
-1.1117279836453022
 10
77.20190054147928
 20
0.6309423202745705
 10
78.2646146238798
 20
2.6191405278014663
 10
78.91903072463715
 20
4.7764612968145155
 10
79.14
 20
7.019999999999993
  0
LWPOLYLINE
  5
36
330
17
100
AcDbEntity
  8
OPENINGS
100
AcDbPolyline
 90
36
 70
1
 10
47.4
 20
75.4
 10
47.365413504725815
 20
75.75116257962904
 10
47.26298315852032
 20
76.08883017825717
 10
47.09664530214458
 20
76.40002641943529
 10
46.872792206135784
 20
76.6727922061358
 10
46.60002641943529
 20
76.89664530214459
 10
46.288830178257165
 20
77.06298315852032
 10
45.951162579629035
 20
77.16541350472582
 10
45.6
 20
77.2
 10
39.6
 20
77.2
 10
39.24883742037097
 20
77.16541350472582
 10
38.91116982174284
 20
77.06298315852032
 10
38.599973580564715
 20
76.89664530214459
 10
38.32720779386422
 20
76.6727922061358
 10
38.10335469785542
 20
76.40002641943529
 10
37.93701684147968
 20
76.08883017825717
 10
37.83458649527419
 20
75.75116257962904
 10
37.800000000000004
 20
75.4
 10
37.800000000000004
 20
75.0
 10
37.83458649527419
 20
74.64883742037097
 10
37.93701684147968
 20
74.31116982174284
 10
38.10335469785542
 20
73.99997358056471
 10
38.32720779386422
 20
73.72720779386421
 10
38.599973580564715
 20
73.50335469785541
 10
38.91116982174284
 20
73.33701684147968
 10
39.24883742037097
 20
73.23458649527419
 10
39.6
 20
73.2
 10
45.6
 20
73.2
 10
45.951162579629035
 20
73.23458649527419
 10
46.288830178257165
 20
73.33701684147968
 10
46.60002641943529
 20
73.50335469785541
 10
46.872792206135784
 20
73.72720779386421
 10
47.09664530214458
 20
73.99997358056471
 10
47.26298315852032
 20
74.31116982174284
 10
47.365413504725815
 20
74.64883742037097
 10
47.4
 20
75.0
  0
TEXT
  5
37
330
17
100
AcDbEntity
  8
NOTES
100
AcDbText
 10
40.6
 20
77.8
 30
0.0
 40
1.2
  1
C1
 11
40.6
 21
77.8
 31
0.0
100
AcDbText
  0
LWPOLYLINE
  5
38
330
17
100
AcDbEntity
  8
OPENINGS
100
AcDbPolyline
 90
36
 70
1
 10
68.7
 20
75.4
 10
68.66541350472582
 20
75.75116257962904
 10
68.56298315852032
 20
76.08883017825717
 10
68.39664530214459
 20
76.40002641943529
 10
68.1727922061358
 20
76.6727922061358
 10
67.90002641943529
 20
76.89664530214459
 10
67.58883017825717
 20
77.06298315852032
 10
67.25116257962904
 20
77.16541350472582
 10
66.9
 20
77.2
 10
60.9
 20
77.2
 10
60.548837420370965
 20
77.16541350472582
 10
60.211169821742835
 20
77.06298315852032
 10
59.89997358056471
 20
76.89664530214459
 10
59.627207793864216
 20
76.6727922061358
 10
59.40335469785542
 20
76.40002641943529
 10
59.23701684147968
 20
76.08883017825717
 10
59.134586495274185
 20
75.75116257962904
 10
59.1
 20
75.4
 10
59.1
 20
75.0
 10
59.134586495274185
 20
74.64883742037097
 10
59.23701684147968
 20
74.31116982174284
 10
59.40335469785542
 20
73.99997358056471
 10
59.627207793864216
 20
73.72720779386421
 10
59.89997358056471
 20
73.50335469785541
 10
60.211169821742835
 20
73.33701684147968
 10
60.548837420370965
 20
73.23458649527419
 10
60.9
 20
73.2
 10
66.9
 20
73.2
 10
67.25116257962904
 20
73.23458649527419
 10
67.58883017825717
 20
73.33701684147968
 10
67.90002641943529
 20
73.50335469785541
 10
68.1727922061358
 20
73.72720779386421
 10
68.39664530214459
 20
73.99997358056471
 10
68.56298315852032
 20
74.31116982174284
 10
68.66541350472582
 20
74.64883742037097
 10
68.7
 20
75.0
  0
TEXT
  5
39
330
17
100
AcDbEntity
  8
NOTES
100
AcDbText
 10
61.9
 20
77.8
 30
0.0
 40
1.2
  1
C4
 11
61.9
 21
77.8
 31
0.0
100
AcDbText
  0
LWPOLYLINE
  5
3A
330
17
100
AcDbEntity
  8
OPENINGS
100
AcDbPolyline
 90
36
 70
1
 10
47.4
 20
65.65
 10
47.365413504725815
 20
66.00116257962904
 10
47.26298315852032
 20
66.33883017825717
 10
47.09664530214458
 20
66.65002641943529
 10
46.872792206135784
 20
66.9227922061358
 10
46.60002641943529
 20
67.14664530214459
 10
46.288830178257165
 20
67.31298315852032
 10
45.951162579629035
 20
67.41541350472582
 10
45.6
 20
67.45
 10
39.6
 20
67.45
 10
39.24883742037097
 20
67.41541350472582
 10
38.91116982174284
 20
67.31298315852032
 10
38.599973580564715
 20
67.14664530214459
 10
38.32720779386422
 20
66.9227922061358
 10
38.10335469785542
 20
66.65002641943529
 10
37.93701684147968
 20
66.33883017825717
 10
37.83458649527419
 20
66.00116257962904
 10
37.800000000000004
 20
65.65
 10
37.800000000000004
 20
65.25
 10
37.83458649527419
 20
64.89883742037097
 10
37.93701684147968
 20
64.56116982174284
 10
38.10335469785542
 20
64.24997358056471
 10
38.32720779386422
 20
63.97720779386422
 10
38.599973580564715
 20
63.75335469785542
 10
38.91116982174284
 20
63.58701684147968
 10
39.24883742037097
 20
63.484586495274186
 10
39.6
 20
63.45
 10
45.6
 20
63.45
 10
45.951162579629035
 20
63.484586495274186
 10
46.288830178257165
 20
63.58701684147968
 10
46.60002641943529
 20
63.75335469785542
 10
46.872792206135784
 20
63.97720779386422
 10
47.09664530214458
 20
64.24997358056471
 10
47.26298315852032
 20
64.56116982174284
 10
47.365413504725815
 20
64.89883742037097
 10
47.4
 20
65.25
  0
TEXT
  5
3B
330
17
100
AcDbEntity
  8
NOTES
100
AcDbText
 10
40.6
 20
68.05
 30
0.0
 40
1.2
  1
C2
 11
40.6
 21
68.05
 31
0.0
100
AcDbText
  0
LWPOLYLINE
  5
3C
330
17
100
AcDbEntity
  8
OPENINGS
100
AcDbPolyline
 90
36
 70
1
 10
68.7
 20
65.65
 10
68.66541350472582
 20
66.00116257962904
 10
68.56298315852032
 20
66.33883017825717
 10
68.39664530214459
 20
66.65002641943529
 10
68.1727922061358
 20
66.9227922061358
 10
67.90002641943529
 20
67.14664530214459
 10
67.58883017825717
 20
67.31298315852032
 10
67.25116257962904
 20
67.41541350472582
 10
66.9
 20
67.45
 10
60.9
 20
67.45
 10
60.548837420370965
 20
67.41541350472582
 10
60.211169821742835
 20
67.31298315852032
 10
59.89997358056471
 20
67.14664530214459
 10
59.627207793864216
 20
66.9227922061358
 10
59.40335469785542
 20
66.65002641943529
 10
59.23701684147968
 20
66.33883017825717
 10
59.134586495274185
 20
66.00116257962904
 10
59.1
 20
65.65
 10
59.1
 20
65.25
 10
59.134586495274185
 20
64.89883742037097
 10
59.23701684147968
 20
64.56116982174284
 10
59.40335469785542
 20
64.24997358056471
 10
59.627207793864216
 20
63.97720779386422
 10
59.89997358056471
 20
63.75335469785542
 10
60.211169821742835
 20
63.58701684147968
 10
60.548837420370965
 20
63.484586495274186
 10
60.9
 20
63.45
 10
66.9
 20
63.45
 10
67.25116257962904
 20
63.484586495274186
 10
67.58883017825717
 20
63.58701684147968
 10
67.90002641943529
 20
63.75335469785542
 10
68.1727922061358
 20
63.97720779386422
 10
68.39664530214459
 20
64.24997358056471
 10
68.56298315852032
 20
64.56116982174284
 10
68.66541350472582
 20
64.89883742037097
 10
68.7
 20
65.25
  0
TEXT
  5
3D
330
17
100
AcDbEntity
  8
NOTES
100
AcDbText
 10
61.9
 20
68.05
 30
0.0
 40
1.2
  1
C5
 11
61.9
 21
68.05
 31
0.0
100
AcDbText
  0
LWPOLYLINE
  5
3E
330
17
100
AcDbEntity
  8
OPENINGS
100
AcDbPolyline
 90
36
 70
1
 10
47.4
 20
55.900000000000006
 10
47.365413504725815
 20
56.25116257962904
 10
47.26298315852032
 20
56.58883017825717
 10
47.09664530214458
 20
56.90002641943529
 10
46.872792206135784
 20
57.17279220613579
 10
46.60002641943529
 20
57.396645302144584
 10
46.288830178257165
 20
57.562983158520325
 10
45.951162579629035
 20
57.66541350472582
 10
45.6
 20
57.7
 10
39.6
 20
57.7
 10
39.24883742037097
 20
57.66541350472582
 10
38.91116982174284
 20
57.562983158520325
 10
38.599973580564715
 20
57.396645302144584
 10
38.32720779386422
 20
57.17279220613579
 10
38.10335469785542
 20
56.90002641943529
 10
37.93701684147968
 20
56.58883017825717
 10
37.83458649527419
 20
56.25116257962904
 10
37.800000000000004
 20
55.900000000000006
 10
37.800000000000004
 20
55.5
 10
37.83458649527419
 20
55.14883742037097
 10
37.93701684147968
 20
54.81116982174284
 10
38.10335469785542
 20
54.49997358056471
 10
38.32720779386422
 20
54.22720779386422
 10
38.599973580564715
 20
54.00335469785542
 10
38.91116982174284
 20
53.83701684147968
 10
39.24883742037097
 20
53.734586495274186
 10
39.6
 20
53.7
 10
45.6
 20
53.7
 10
45.951162579629035
 20
53.734586495274186
 10
46.288830178257165
 20
53.83701684147968
 10
46.60002641943529
 20
54.00335469785542
 10
46.872792206135784
 20
54.22720779386422
 10
47.09664530214458
 20
54.49997358056471
 10
47.26298315852032
 20
54.81116982174284
 10
47.365413504725815
 20
55.14883742037097
 10
47.4
 20
55.5
  0
TEXT
  5
3F
330
17
100
AcDbEntity
  8
NOTES
100
AcDbText
 10
40.6
 20
58.300000000000004
 30
0.0
 40
1.2
  1
C3
 11
40.6
 21
58.300000000000004
 31
0.0
100
AcDbText
  0
LWPOLYLINE
  5
40
330
17
100
AcDbEntity
  8
OPENINGS
100
AcDbPolyline
 90
36
 70
1
 10
68.7
 20
55.900000000000006
 10
68.66541350472582
 20
56.25116257962904
 10
68.56298315852032
 20
56.58883017825717
 10
68.39664530214459
 20
56.90002641943529
 10
68.1727922061358
 20
57.17279220613579
 10
67.90002641943529
 20
57.396645302144584
 10
67.58883017825717
 20
57.562983158520325
 10
67.25116257962904
 20
57.66541350472582
 10
66.9
 20
57.7
 10
60.9
 20
57.7
 10
60.548837420370965
 20
57.66541350472582
 10
60.211169821742835
 20
57.562983158520325
 10
59.89997358056471
 20
57.396645302144584
 10
59.627207793864216
 20
57.17279220613579
 10
59.40335469785542
 20
56.90002641943529
 10
59.23701684147968
 20
56.58883017825717
 10
59.134586495274185
 20
56.25116257962904
 10
59.1
 20
55.900000000000006
 10
59.1
 20
55.5
 10
59.134586495274185
 20
55.14883742037097
 10
59.23701684147968
 20
54.81116982174284
 10
59.40335469785542
 20
54.49997358056471
 10
59.627207793864216
 20
54.22720779386422
 10
59.89997358056471
 20
54.00335469785542
 10
60.211169821742835
 20
53.83701684147968
 10
60.548837420370965
 20
53.734586495274186
 10
60.9
 20
53.7
 10
66.9
 20
53.7
 10
67.25116257962904
 20
53.734586495274186
 10
67.58883017825717
 20
53.83701684147968
 10
67.90002641943529
 20
54.00335469785542
 10
68.1727922061358
 20
54.22720779386422
 10
68.39664530214459
 20
54.49997358056471
 10
68.56298315852032
 20
54.81116982174284
 10
68.66541350472582
 20
55.14883742037097
 10
68.7
 20
55.5
  0
TEXT
  5
41
330
17
100
AcDbEntity
  8
NOTES
100
AcDbText
 10
61.9
 20
58.300000000000004
 30
0.0
 40
1.2
  1
C6
 11
61.9
 21
58.300000000000004
 31
0.0
100
AcDbText
  0
LWPOLYLINE
  5
42
330
17
100
AcDbEntity
  8
OPENINGS
100
AcDbPolyline
 90
36
 70
1
 10
50.099999999999994
 20
45.25
 10
50.09039264020161
 20
45.347545161008064
 10
50.06193976625564
 20
45.44134171618254
 10
50.015734806151265
 20
45.527785116509804
 10
49.95355339059327
 20
45.60355339059328
 10
49.8777851165098
 20
45.66573480615127
 10
49.79134171618254
 20
45.71193976625565
 10
49.69754516100806
 20
45.74039264020161
 10
49.599999999999994
 20
45.75
 10
37.0
 20
45.75
 10
36.902454838991936
 20
45.74039264020161
 10
36.80865828381746
 20
45.71193976625565
 10
36.722214883490196
 20
45.66573480615127
 10
36.64644660940672
 20
45.60355339059328
 10
36.58426519384873
 20
45.527785116509804
 10
36.53806023374435
 20
45.44134171618254
 10
36.50960735979839
 20
45.347545161008064
 10
36.5
 20
45.25
 10
36.5
 20
40.25
 10
36.50960735979839
 20
40.152454838991936
 10
36.53806023374435
 20
40.05865828381746
 10
36.58426519384873
 20
39.972214883490196
 10
36.64644660940672
 20
39.89644660940672
 10
36.722214883490196
 20
39.83426519384873
 10
36.80865828381746
 20
39.78806023374435
 10
36.902454838991936
 20
39.75960735979839
 10
37.0
 20
39.75
 10
49.599999999999994
 20
39.75
 10
49.69754516100806
 20
39.75960735979839
 10
49.79134171618254
 20
39.78806023374435
 10
49.8777851165098
 20
39.83426519384873
 10
49.95355339059327
 20
39.89644660940672
 10
50.015734806151265
 20
39.972214883490196
 10
50.06193976625564
 20
40.05865828381746
 10
50.09039264020161
 20
40.152454838991936
 10
50.099999999999994
 20
40.25
  0
TEXT
  5
43
330
17
100
AcDbEntity
  8
NOTES
100
AcDbText
 10
41.3
 20
46.35
 30
0.0
 40
1.2
  1
A1
 11
41.3
 21
46.35
 31
0.0
100
AcDbText
  0
LWPOLYLINE
  5
44
330
17
100
AcDbEntity
  8
OPENINGS
100
AcDbPolyline
 90
36
 70
1
 10
50.099999999999994
 20
35.1
 10
50.09039264020161
 20
35.197545161008065
 10
50.06193976625564
 20
35.291341716182544
 10
50.015734806151265
 20
35.377785116509806
 10
49.95355339059327
 20
35.45355339059328
 10
49.8777851165098
 20
35.51573480615127
 10
49.79134171618254
 20
35.56193976625565
 10
49.69754516100806
 20
35.590392640201614
 10
49.599999999999994
 20
35.6
 10
37.0
 20
35.6
 10
36.902454838991936
 20
35.590392640201614
 10
36.80865828381746
 20
35.56193976625565
 10
36.722214883490196
 20
35.51573480615127
 10
36.64644660940672
 20
35.45355339059328
 10
36.58426519384873
 20
35.377785116509806
 10
36.53806023374435
 20
35.291341716182544
 10
36.50960735979839
 20
35.197545161008065
 10
36.5
 20
35.1
 10
36.5
 20
30.1
 10
36.50960735979839
 20
30.002454838991937
 10
36.53806023374435
 20
29.908658283817456
 10
36.58426519384873
 20
29.8222148834902
 10
36.64644660940672
 20
29.74644660940673
 10
36.722214883490196
 20
29.684265193848727
 10
36.80865828381746
 20
29.63806023374436
 10
36.902454838991936
 20
29.609607359798385
 10
37.0
 20
29.6
 10
49.599999999999994
 20
29.6
 10
49.69754516100806
 20
29.609607359798385
 10
49.79134171618254
 20
29.63806023374436
 10
49.8777851165098
 20
29.684265193848727
 10
49.95355339059327
 20
29.74644660940673
 10
50.015734806151265
 20
29.8222148834902
 10
50.06193976625564
 20
29.908658283817456
 10
50.09039264020161
 20
30.002454838991937
 10
50.099999999999994
 20
30.1
  0
TEXT
  5
45
330
17
100
AcDbEntity
  8
NOTES
100
AcDbText
 10
41.3
 20
36.2
 30
0.0
 40
1.2
  1
A2
 11
41.3
 21
36.2
 31
0.0
100
AcDbText
  0
LWPOLYLINE
  5
46
330
17
100
AcDbEntity
  8
OPENINGS
100
AcDbPolyline
 90
36
 70
1
 10
70.85
 20
45.25
 10
70.84039264020161
 20
45.347545161008064
 10
70.81193976625563
 20
45.44134171618254
 10
70.76573480615127
 20
45.527785116509804
 10
70.70355339059327
 20
45.60355339059328
 10
70.6277851165098
 20
45.66573480615127
 10
70.54134171618254
 20
45.71193976625565
 10
70.44754516100807
 20
45.74039264020161
 10
70.35
 20
45.75
 10
57.75
 20
45.75
 10
57.652454838991936
 20
45.74039264020161
 10
57.55865828381746
 20
45.71193976625565
 10
57.472214883490196
 20
45.66573480615127
 10
57.39644660940672
 20
45.60355339059328
 10
57.33426519384873
 20
45.527785116509804
 10
57.28806023374435
 20
45.44134171618254
 10
57.25960735979839
 20
45.347545161008064
 10
57.25
 20
45.25
 10
57.25
 20
40.25
 10
57.25960735979839
 20
40.152454838991936
 10
57.28806023374435
 20
40.05865828381746
 10
57.33426519384873
 20
39.972214883490196
 10
57.39644660940672
 20
39.89644660940672
 10
57.472214883490196
 20
39.83426519384873
 10
57.55865828381746
 20
39.78806023374435
 10
57.652454838991936
 20
39.75960735979839
 10
57.75
 20
39.75
 10
70.35
 20
39.75
 10
70.44754516100807
 20
39.75960735979839
 10
70.54134171618254
 20
39.78806023374435
 10
70.6277851165098
 20
39.83426519384873
 10
70.70355339059327
 20
39.89644660940672
 10
70.76573480615127
 20
39.972214883490196
 10
70.81193976625563
 20
40.05865828381746
 10
70.84039264020161
 20
40.152454838991936
 10
70.85
 20
40.25
  0
TEXT
  5
47
330
17
100
AcDbEntity
  8
NOTES
100
AcDbText
 10
62.05
 20
46.35
 30
0.0
 40
1.2
  1
A3
 11
62.05
 21
46.35
 31
0.0
100
AcDbText
  0
LWPOLYLINE
  5
48
330
17
100
AcDbEntity
  8
OPENINGS
100
AcDbPolyline
 90
36
 70
1
 10
70.85
 20
35.1
 10
70.84039264020161
 20
35.197545161008065
 10
70.81193976625563
 20
35.291341716182544
 10
70.76573480615127
 20
35.377785116509806
 10
70.70355339059327
 20
35.45355339059328
 10
70.6277851165098
 20
35.51573480615127
 10
70.54134171618254
 20
35.56193976625565
 10
70.44754516100807
 20
35.590392640201614
 10
70.35
 20
35.6
 10
57.75
 20
35.6
 10
57.652454838991936
 20
35.590392640201614
 10
57.55865828381746
 20
35.56193976625565
 10
57.472214883490196
 20
35.51573480615127
 10
57.39644660940672
 20
35.45355339059328
 10
57.33426519384873
 20
35.377785116509806
 10
57.28806023374435
 20
35.291341716182544
 10
57.25960735979839
 20
35.197545161008065
 10
57.25
 20
35.1
 10
57.25
 20
30.1
 10
57.25960735979839
 20
30.002454838991937
 10
57.28806023374435
 20
29.908658283817456
 10
57.33426519384873
 20
29.8222148834902
 10
57.39644660940672
 20
29.74644660940673
 10
57.472214883490196
 20
29.684265193848727
 10
57.55865828381746
 20
29.63806023374436
 10
57.652454838991936
 20
29.609607359798385
 10
57.75
 20
29.6
 10
70.35
 20
29.6
 10
70.44754516100807
 20
29.609607359798385
 10
70.54134171618254
 20
29.63806023374436
 10
70.6277851165098
 20
29.684265193848727
 10
70.70355339059327
 20
29.74644660940673
 10
70.76573480615127
 20
29.8222148834902
 10
70.81193976625563
 20
29.908658283817456
 10
70.84039264020161
 20
30.002454838991937
 10
70.85
 20
30.1
  0
TEXT
  5
49
330
17
100
AcDbEntity
  8
NOTES
100
AcDbText
 10
62.05
 20
36.2
 30
0.0
 40
1.2
  1
A4
 11
62.05
 21
36.2
 31
0.0
100
AcDbText
  0
LWPOLYLINE
  5
4A
330
17
100
AcDbEntity
  8
OPENINGS
100
AcDbPolyline
 90
36
 70
1
 10
70.0
 20
97.14999999999999
 10
69.99039264020162
 20
97.24754516100806
 10
69.96193976625564
 20
97.34134171618254
 10
69.91573480615128
 20
97.4277851165098
 10
69.85355339059328
 20
97.50355339059327
 10
69.7777851165098
 20
97.56573480615127
 10
69.69134171618255
 20
97.61193976625563
 10
69.59754516100807
 20
97.64039264020161
 10
69.5
 20
97.64999999999999
 10
57.5
 20
97.64999999999999
 10
57.402454838991936
 20
97.64039264020161
 10
57.30865828381746
 20
97.61193976625563
 10
57.222214883490196
 20
97.56573480615127
 10
57.14644660940672
 20
97.50355339059327
 10
57.08426519384873
 20
97.4277851165098
 10
57.03806023374435
 20
97.34134171618254
 10
57.00960735979839
 20
97.24754516100806
 10
57.0
 20
97.14999999999999
 10
57.0
 20
87.45
 10
57.00960735979839
 20
87.35245483899193
 10
57.03806023374435
 20
87.25865828381745
 10
57.08426519384873
 20
87.1722148834902
 10
57.14644660940672
 20
87.09644660940673
 10
57.222214883490196
 20
87.03426519384873
 10
57.30865828381746
 20
86.98806023374436
 10
57.402454838991936
 20
86.95960735979838
 10
57.5
 20
86.95
 10
69.5
 20
86.95
 10
69.59754516100807
 20
86.95960735979838
 10
69.69134171618255
 20
86.98806023374436
 10
69.7777851165098
 20
87.03426519384873
 10
69.85355339059328
 20
87.09644660940673
 10
69.91573480615128
 20
87.1722148834902
 10
69.96193976625564
 20
87.25865828381745
 10
69.99039264020162
 20
87.35245483899193
 10
70.0
 20
87.45
  0
TEXT
  5
4B
330
17
100
AcDbEntity
  8
NOTES
100
AcDbText
 10
61.5
 20
98.24999999999999
 30
0.0
 40
1.2
  1
ETH1
 11
61.5
 21
98.24999999999999
 31
0.0
100
AcDbText
  0
LWPOLYLINE
  5
4C
330
17
100
AcDbEntity
  8
OPENINGS
100
AcDbPolyline
 90
36
 70
1
 10
49.0
 20
96.85
 10
48.99039264020161
 20
96.94754516100807
 10
48.96193976625565
 20
97.04134171618254
 10
48.91573480615127
 20
97.1277851165098
 10
48.85355339059328
 20
97.20355339059327
 10
48.777785116509804
 20
97.26573480615127
 10
48.69134171618254
 20
97.31193976625563
 10
48.597545161008064
 20
97.34039264020161
 10
48.5
 20
97.35
 10
36.5
 20
97.35
 10
36.402454838991936
 20
97.34039264020161
 10
36.30865828381746
 20
97.31193976625563
 10
36.222214883490196
 20
97.26573480615127
 10
36.14644660940672
 20
97.20355339059327
 10
36.08426519384873
 20
97.1277851165098
 10
36.03806023374435
 20
97.04134171618254
 10
36.00960735979839
 20
96.94754516100807
 10
36.0
 20
96.85
 10
36.0
 20
87.15
 10
36.00960735979839
 20
87.05245483899193
 10
36.03806023374435
 20
86.95865828381746
 10
36.08426519384873
 20
86.8722148834902
 10
36.14644660940672
 20
86.79644660940673
 10
36.222214883490196
 20
86.73426519384873
 10
36.30865828381746
 20
86.68806023374437
 10
36.402454838991936
 20
86.65960735979839
 10
36.5
 20
86.65
 10
48.5
 20
86.65
 10
48.597545161008064
 20
86.65960735979839
 10
48.69134171618254
 20
86.68806023374437
 10
48.777785116509804
 20
86.73426519384873
 10
48.85355339059328
 20
86.79644660940673
 10
48.91573480615127
 20
86.8722148834902
 10
48.96193976625565
 20
86.95865828381746
 10
48.99039264020161
 20
87.05245483899193
 10
49.0
 20
87.15
  0
TEXT
  5
4D
330
17
100
AcDbEntity
  8
NOTES
100
AcDbText
 10
40.5
 20
97.94999999999999
 30
0.0
 40
1.2
  1
ETH2
 11
40.5
 21
97.94999999999999
 31
0.0
100
AcDbText
  0
LWPOLYLINE
  5
4E
330
17
100
AcDbEntity
  8
OPENINGS
100
AcDbPolyline
 90
36
 70
1
 10
50.1
 20
109.60000000000001
 10
50.084628224322586
 20
109.75607225761291
 10
50.03910362600903
 20
109.90614674589209
 10
49.96517568984204
 20
110.04445618641569
 10
49.86568542494924
 20
110.16568542494925
 10
49.74445618641569
 20
110.26517568984204
 10
49.606146745892076
 20
110.33910362600903
 10
49.45607225761291
 20
110.3846282243226
 10
49.300000000000004
 20
110.4
 10
35.49999999999999
 20
110.4
 10
35.34392774238709
 20
110.3846282243226
 10
35.19385325410792
 20
110.33910362600903
 10
35.05554381358431
 20
110.26517568984204
 10
34.934314575050756
 20
110.16568542494925
 10
34.834824310157956
 20
110.04445618641569
 10
34.76089637399097
 20
109.90614674589209
 10
34.71537177567741
 20
109.75607225761291
 10
34.699999999999996
 20
109.60000000000001
 10
34.699999999999996
 20
105.2
 10
34.71537177567741
 20
105.0439277423871
 10
34.76089637399096
 20
104.89385325410792
 10
34.834824310157956
 20
104.75554381358432
 10
34.934314575050756
 20
104.63431457505077
 10
35.05554381358431
 20
104.53482431015797
 10
35.19385325410792
 20
104.46089637399098
 10
35.34392774238709
 20
104.41537177567741
 10
35.49999999999999
 20
104.4
 10
49.300000000000004
 20
104.4
 10
49.45607225761291
 20
104.41537177567741
 10
49.606146745892076
 20
104.46089637399098
 10
49.74445618641568
 20
104.53482431015797
 10
49.86568542494924
 20
104.63431457505077
 10
49.96517568984204
 20
104.75554381358432
 10
50.03910362600904
 20
104.89385325410794
 10
50.084628224322586
 20
105.0439277423871
 10
50.1
 20
105.2
  0
TEXT
  5
4F
330
17
100
AcDbEntity
  8
NOTES
100
AcDbText
 10
40.4
 20
111.0
 30
0.0
 40
1.2
  1
HDMI
 11
40.4
 21
111.0
 31
0.0
100
AcDbText
  0
LWPOLYLINE
  5
50
330
17
100
AcDbEntity
  8
OPENINGS
100
AcDbPolyline
 90
36
 70
1
 10
69.35499999999999
 20
139.27499999999998
 10
69.29735584120968
 20
139.86027096604838
 10
69.12663859753386
 20
140.42305029709524
 10
68.84940883690763
 20
140.94171069905877
 10
68.47632034355964
 20
141.3963203435596
 10
68.0217106990588
 20
141.76940883690762
 10
67.50305029709526
 20
142.04663859753384
 10
66.94027096604837
 20
142.21735584120967
 10
66.35499999999999
 20
142.27499999999998
 10
37.805
 20
142.27499999999998
 10
37.219729033951616
 20
142.21735584120967
 10
36.65694970290473
 20
142.04663859753384
 10
36.138289300941196
 20
141.76940883690762
 10
35.683679656440354
 20
141.3963203435596
 10
35.31059116309236
 20
140.94171069905877
 10
35.03336140246614
 20
140.42305029709524
 10
34.86264415879031
 20
139.86027096604838
 10
34.805
 20
139.27499999999998
 10
34.805
 20
120.62499999999999
 10
34.86264415879031
 20
120.0397290339516
 10
35.03336140246614
 20
119.47694970290472
 10
35.31059116309236
 20
118.95828930094117
 10
35.683679656440354
 20
118.50367965644034
 10
36.138289300941196
 20
118.13059116309235
 10
36.65694970290473
 20
117.85336140246612
 10
37.219729033951616
 20
117.6826441587903
 10
37.805
 20
117.62499999999999
 10
66.35499999999999
 20
117.62499999999999
 10
66.94027096604837
 20
117.6826441587903
 10
67.50305029709526
 20
117.85336140246612
 10
68.0217106990588
 20
118.13059116309235
 10
68.47632034355964
 20
118.50367965644034
 10
68.84940883690763
 20
118.95828930094117
 10
69.12663859753386
 20
119.47694970290472
 10
69.29735584120968
 20
120.0397290339516
 10
69.35499999999999
 20
120.62499999999999
  0
TEXT
  5
51
330
17
100
AcDbEntity
  8
NOTES
100
AcDbText
 10
50.08
 20
142.87499999999997
 30
0.0
 40
1.2
  1
AC
 11
50.08
 21
142.87499999999997
 31
0.0
100
AcDbText
  0
CIRCLE
  5
52
330
17
100
AcDbEntity
  8
OPENINGS
100
AcDbCircle
 10
43.4
 20
19.1
 30
0.0
 40
2.4
  0
CIRCLE
  5
53
330
17
100
AcDbEntity
  8
OPENINGS
100
AcDbCircle
 10
64.65
 20
19.4
 30
0.0
 40
2.4
  0
CIRCLE
  5
54
330
17
100
AcDbEntity
  8
OPENINGS
100
AcDbCircle
 10
63.02
 20
108.03
 30
0.0
 40
6.2
  0
LWPOLYLINE
  5
55
330
17
100
AcDbEntity
  8
LIGHT_WINDOWS
100
AcDbPolyline
 90
36
 70
1
 10
45.04
 20
113.9
 10
45.028471168241936
 20
114.01705419320969
 10
44.99432771950677
 20
114.12961005941906
 10
44.938881767381524
 20
114.23334213981177
 10
44.864264068711925
 20
114.32426406871194
 10
44.77334213981176
 20
114.39888176738154
 10
44.66961005941905
 20
114.45432771950678
 10
44.55705419320967
 20
114.48847116824194
 10
44.44
 20
114.5
 10
38.64
 20
114.5
 10
38.522945806790325
 20
114.48847116824194
 10
38.41038994058095
 20
114.45432771950678
 10
38.30665786018824
 20
114.39888176738154
 10
38.21573593128807
 20
114.32426406871194
 10
38.141118232618474
 20
114.23334213981177
 10
38.08567228049323
 20
114.12961005941906
 10
38.05152883175806
 20
114.01705419320969
 10
38.04
 20
113.9
 10
38.04
 20
113.5
 10
38.05152883175806
 20
113.38294580679032
 10
38.08567228049323
 20
113.27038994058094
 10
38.141118232618474
 20
113.16665786018824
 10
38.21573593128807
 20
113.07573593128807
 10
38.30665786018824
 20
113.00111823261847
 10
38.41038994058095
 20
112.94567228049323
 10
38.522945806790325
 20
112.91152883175806
 10
38.64
 20
112.9
 10
44.44
 20
112.9
 10
44.55705419320967
 20
112.91152883175806
 10
44.66961005941905
 20
112.94567228049323
 10
44.77334213981176
 20
113.00111823261847
 10
44.864264068711925
 20
113.07573593128807
 10
44.938881767381524
 20
113.16665786018824
 10
44.99432771950677
 20
113.27038994058094
 10
45.028471168241936
 20
113.38294580679032
 10
45.04
 20
113.5
  0
LWPOLYLINE
  5
56
330
17
100
AcDbEntity
  8
LIGHT_WINDOWS
100
AcDbPolyline
 90
36
 70
1
 10
54.03
 20
93.4
 10
54.01078528040323
 20
93.59509032201613
 10
53.95387953251129
 20
93.78268343236509
 10
53.86146961230255
 20
93.95557023301961
 10
53.73710678118655
 20
94.10710678118656
 10
53.5855702330196
 20
94.23146961230255
 10
53.41268343236509
 20
94.3238795325113
 10
53.22509032201613
 20
94.38078528040323
 10
53.03
 20
94.4
 10
52.03
 20
94.4
 10
51.83490967798387
 20
94.38078528040323
 10
51.64731656763491
 20
94.3238795325113
 10
51.4744297669804
 20
94.23146961230255
 10
51.322893218813455
 20
94.10710678118656
 10
51.19853038769745
 20
93.95557023301961
 10
51.106120467488715
 20
93.78268343236509
 10
51.04921471959677
 20
93.59509032201613
 10
51.03
 20
93.4
 10
51.03
 20
90.4
 10
51.04921471959677
 20
90.20490967798388
 10
51.106120467488715
 20
90.01731656763492
 10
51.19853038769745
 20
89.8444297669804
 10
51.322893218813455
 20
89.69289321881345
 10
51.4744297669804
 20
89.56853038769746
 10
51.64731656763491
 20
89.47612046748871
 10
51.83490967798387
 20
89.41921471959678
 10
52.03
 20
89.4
 10
53.03
 20
89.4
 10
53.22509032201613
 20
89.41921471959678
 10
53.41268343236509
 20
89.47612046748871
 10
53.5855702330196
 20
89.56853038769746
 10
53.73710678118655
 20
89.69289321881345
 10
53.86146961230255
 20
89.8444297669804
 10
53.95387953251129
 20
90.01731656763492
 10
54.01078528040323
 20
90.20490967798388
 10
54.03
 20
90.4
  0
LWPOLYLINE
  5
57
330
17
100
AcDbEntity
  8
LIGHT_WINDOWS
100
AcDbPolyline
 90
36
 70
1
 10
54.42
 20
67.76
 10
54.400785280403234
 20
67.95509032201613
 10
54.34387953251129
 20
68.14268343236509
 10
54.25146961230255
 20
68.31557023301961
 10
54.12710678118655
 20
68.46710678118656
 10
53.9755702330196
 20
68.59146961230255
 10
53.80268343236509
 20
68.6838795325113
 10
53.61509032201613
 20
68.74078528040323
 10
53.42
 20
68.76
 10
52.42
 20
68.76
 10
52.224909677983874
 20
68.74078528040323
 10
52.03731656763491
 20
68.6838795325113
 10
51.8644297669804
 20
68.59146961230255
 10
51.712893218813456
 20
68.46710678118656
 10
51.58853038769745
 20
68.31557023301961
 10
51.496120467488716
 20
68.14268343236509
 10
51.43921471959677
 20
67.95509032201613
 10
51.42
 20
67.76
 10
51.42
 20
64.76
 10
51.43921471959677
 20
64.56490967798388
 10
51.496120467488716
 20
64.37731656763492
 10
51.58853038769745
 20
64.2044297669804
 10
51.712893218813456
 20
64.05289321881345
 10
51.8644297669804
 20
63.92853038769746
 10
52.03731656763491
 20
63.83612046748872
 10
52.224909677983874
 20
63.77921471959677
 10
52.42
 20
63.760000000000005
 10
53.42
 20
63.760000000000005
 10
53.61509032201613
 20
63.77921471959677
 10
53.80268343236509
 20
63.83612046748872
 10
53.9755702330196
 20
63.92853038769746
 10
54.12710678118655
 20
64.05289321881345
 10
54.25146961230255
 20
64.2044297669804
 10
54.34387953251129
 20
64.37731656763492
 10
54.400785280403234
 20
64.56490967798388
 10
54.42
 20
64.76
  0
LWPOLYLINE
  5
58
330
17
100
AcDbEntity
  8
LIGHT_WINDOWS
100
AcDbPolyline
 90
36
 70
1
 10
55.01
 20
38.54
 10
54.99078528040323
 20
38.73509032201613
 10
54.933879532511284
 20
38.92268343236509
 10
54.84146961230255
 20
39.0955702330196
 10
54.717106781186544
 20
39.247106781186545
 10
54.5655702330196
 20
39.37146961230255
 10
54.39268343236509
 20
39.463879532511285
 10
54.205090322016126
 20
39.52078528040323
 10
54.01
 20
39.54
 10
53.01
 20
39.54
 10
52.81490967798387
 20
39.52078528040323
 10
52.62731656763491
 20
39.463879532511285
 10
52.4544297669804
 20
39.37146961230255
 10
52.30289321881345
 20
39.247106781186545
 10
52.17853038769745
 20
39.0955702330196
 10
52.08612046748871
 20
38.92268343236509
 10
52.029214719596766
 20
38.73509032201613
 10
52.01
 20
38.54
 10
52.01
 20
34.54
 10
52.029214719596766
 20
34.34490967798387
 10
52.08612046748871
 20
34.15731656763491
 10
52.17853038769745
 20
33.9844297669804
 10
52.30289321881345
 20
33.83289321881345
 10
52.4544297669804
 20
33.70853038769745
 10
52.62731656763491
 20
33.61612046748871
 10
52.81490967798387
 20
33.55921471959677
 10
53.01
 20
33.54
 10
54.01
 20
33.54
 10
54.205090322016126
 20
33.55921471959677
 10
54.39268343236509
 20
33.61612046748871
 10
54.5655702330196
 20
33.70853038769745
 10
54.717106781186544
 20
33.83289321881345
 10
54.84146961230255
 20
33.9844297669804
 10
54.933879532511284
 20
34.15731656763491
 10
54.99078528040323
 20
34.34490967798387
 10
55.01
 20
34.54
  0
LWPOLYLINE
  5
59
330
17
100
AcDbEntity
  8
LIGHT_WINDOWS
100
AcDbPolyline
 90
36
 70
1
 10
45.4
 20
13.429999999999998
 10
45.38462822432258
 20
13.586072257612901
 10
45.33910362600903
 20
13.73614674589207
 10
45.26517568984204
 20
13.87445618641568
 10
45.16568542494924
 20
13.995685424949237
 10
45.04445618641569
 20
14.095175689842034
 10
44.90614674589207
 20
14.169103626009028
 10
44.75607225761291
 20
14.214628224322583
 10
44.6
 20
14.229999999999999
 10
42.199999999999996
 20
14.229999999999999
 10
42.04392774238709
 20
14.214628224322583
 10
41.893853254107924
 20
14.169103626009028
 10
41.75554381358431
 20
14.095175689842034
 10
41.63431457505076
 20
13.995685424949237
 10
41.53482431015796
 20
13.87445618641568
 10
41.46089637399097
 20
13.73614674589207
 10
41.415371775677414
 20
13.586072257612901
 10
41.4
 20
13.429999999999998
 10
41.4
 20
12.63
 10
41.415371775677414
 20
12.473927742387097
 10
41.46089637399096
 20
12.323853254107929
 10
41.53482431015796
 20
12.185543813584319
 10
41.63431457505076
 20
12.064314575050762
 10
41.75554381358431
 20
11.964824310157965
 10
41.893853254107924
 20
11.890896373990971
 10
42.04392774238709
 20
11.845371775677416
 10
42.199999999999996
 20
11.83
 10
44.6
 20
11.83
 10
44.75607225761291
 20
11.845371775677416
 10
44.90614674589207
 20
11.890896373990971
 10
45.04445618641568
 20
11.964824310157965
 10
45.16568542494924
 20
12.064314575050762
 10
45.26517568984204
 20
12.185543813584319
 10
45.339103626009035
 20
12.323853254107929
 10
45.38462822432258
 20
12.473927742387097
 10
45.4
 20
12.63
  0
LWPOLYLINE
  5
5A
330
17
100
AcDbEntity
  8
LIGHT_WINDOWS
100
AcDbPolyline
 90
36
 70
1
 10
65.85
 20
13.849999999999998
 10
65.83462822432259
 20
14.006072257612901
 10
65.78910362600902
 20
14.15614674589207
 10
65.71517568984203
 20
14.29445618641568
 10
65.61568542494923
 20
14.415685424949237
 10
65.49445618641568
 20
14.515175689842033
 10
65.35614674589208
 20
14.589103626009027
 10
65.2060722576129
 20
14.634628224322583
 10
65.05
 20
14.649999999999999
 10
62.65
 20
14.649999999999999
 10
62.49392774238709
 20
14.634628224322583
 10
62.34385325410793
 20
14.589103626009027
 10
62.20554381358431
 20
14.515175689842033
 10
62.08431457505076
 20
14.415685424949237
 10
61.98482431015796
 20
14.29445618641568
 10
61.91089637399097
 20
14.15614674589207
 10
61.86537177567742
 20
14.0060722576129
 10
61.85
 20
13.849999999999998
 10
61.85
 20
13.05
 10
61.86537177567742
 20
12.893927742387097
 10
61.910896373990965
 20
12.743853254107929
 10
61.98482431015796
 20
12.605543813584319
 10
62.08431457505076
 20
12.484314575050762
 10
62.20554381358431
 20
12.384824310157965
 10
62.34385325410793
 20
12.310896373990971
 10
62.49392774238709
 20
12.265371775677416
 10
62.65
 20
12.25
 10
65.05
 20
12.25
 10
65.2060722576129
 20
12.265371775677416
 10
65.35614674589208
 20
12.310896373990971
 10
65.49445618641568
 20
12.384824310157963
 10
65.61568542494923
 20
12.484314575050762
 10
65.71517568984203
 20
12.605543813584319
 10
65.78910362600902
 20
12.743853254107929
 10
65.83462822432259
 20
12.893927742387097
 10
65.85
 20
13.05
  0
CIRCLE
  5
5B
330
17
100
AcDbEntity
  8
CLIPS
100
AcDbCircle
 10
31.0
 20
140.0
 30
0.0
 40
1.0
  0
CIRCLE
  5
5C
330
17
100
AcDbEntity
  8
CLIPS
100
AcDbCircle
 10
28.2
 20
90.0
 30
0.0
 40
1.0
  0
CIRCLE
  5
5D
330
17
100
AcDbEntity
  8
CLIPS
100
AcDbCircle
 10
29.6
 20
30.3
 30
0.0
 40
1.0
  0
CIRCLE
  5
5E
330
17
100
AcDbEntity
  8
CLIPS
100
AcDbCircle
 10
75.38
 20
140.0
 30
0.0
 40
1.0
  0
CIRCLE
  5
5F
330
17
100
AcDbEntity
  8
CLIPS
100
AcDbCircle
 10
78.17999999999999
 20
90.0
 30
0.0
 40
1.0
  0
CIRCLE
  5
60
330
17
100
AcDbEntity
  8
CLIPS
100
AcDbCircle
 10
44.1
 20
2.7
 30
0.0
 40
1.0
  0
CIRCLE
  5
61
330
17
100
AcDbEntity
  8
CLIPS
100
AcDbCircle
 10
62.279999999999994
 20
2.7
 30
0.0
 40
1.0
  0
TEXT
  5
62
330
17
100
AcDbEntity
  8
NOTES
100
AcDbText
 10
23.189999999999998
 20
-12.0
 30
0.0
 40
2.0
  1
MP62 IO plate v2 A0 - backview - mm - Y up = MEG/base end
 11
23.189999999999998
 21
-12.0
 31
0.0
100
AcDbText
  0
ENDSEC
  0
SECTION
  2
OBJECTS
  0
DICTIONARY
  5
A
330
0
100
AcDbDictionary
281
1
  3
ACAD_COLOR
350
B
  3
ACAD_GROUP
350
C
  3
ACAD_LAYOUT
350
D
  3
ACAD_MATERIAL
350
E
  3
ACAD_MLEADERSTYLE
350
F
  3
ACAD_MLINESTYLE
350
10
  3
ACAD_PLOTSETTINGS
350
11
  3
ACAD_PLOTSTYLENAME
350
12
  3
ACAD_SCALELIST
350
14
  3
ACAD_TABLESTYLE
350
15
  3
ACAD_VISUALSTYLE
350
16
  3
EZDXF_META
350
2D
  0
DICTIONARY
  5
B
330
A
100
AcDbDictionary
281
1
  0
DICTIONARY
  5
C
330
A
100
AcDbDictionary
281
1
  0
DICTIONARY
  5
D
330
A
100
AcDbDictionary
281
1
  3
Model
350
1A
  3
Layout1
350
1E
  0
DICTIONARY
  5
E
330
A
100
AcDbDictionary
281
1
  3
ByBlock
350
1F
  3
ByLayer
350
20
  3
Global
350
21
  0
DICTIONARY
  5
F
330
A
100
AcDbDictionary
281
1
  3
Standard
350
2C
  0
DICTIONARY
  5
10
330
A
100
AcDbDictionary
281
1
  3
Standard
350
22
  0
DICTIONARY
  5
11
330
A
100
AcDbDictionary
281
1
  0
ACDBDICTIONARYWDFLT
  5
12
330
A
100
AcDbDictionary
281
1
  3
Normal
350
13
100
AcDbDictionaryWithDefault
340
13
  0
ACDBPLACEHOLDER
  5
13
330
12
  0
DICTIONARY
  5
14
330
A
100
AcDbDictionary
281
1
  0
DICTIONARY
  5
15
330
A
100
AcDbDictionary
281
1
  0
DICTIONARY
  5
16
330
A
100
AcDbDictionary
281
1
  0
LAYOUT
  5
1A
330
D
100
AcDbPlotSettings
  1

  4
A3
  6

 40
7.5
 41
20.0
 42
7.5
 43
20.0
 44
420.0
 45
297.0
 46
0.0
 47
0.0
 48
0.0
 49
0.0
140
0.0
141
0.0
142
1.0
143
1.0
 70
1024
 72
1
 73
0
 74
5
  7

 75
16
 76
0
 77
2
 78
300
147
1.0
148
0.0
149
0.0
100
AcDbLayout
  1
Model
 70
1
 71
0
 10
0.0
 20
0.0
 11
420.0
 21
297.0
 12
0.0
 22
0.0
 32
0.0
 14
1e+20
 24
1e+20
 34
1e+20
 15
-1e+20
 25
-1e+20
 35
-1e+20
146
0.0
 13
0.0
 23
0.0
 33
0.0
 16
1.0
 26
0.0
 36
0.0
 17
0.0
 27
1.0
 37
0.0
 76
1
330
17
  0
LAYOUT
  5
1E
330
D
100
AcDbPlotSettings
  1

  4
A3
  6

 40
7.5
 41
20.0
 42
7.5
 43
20.0
 44
420.0
 45
297.0
 46
0.0
 47
0.0
 48
0.0
 49
0.0
140
0.0
141
0.0
142
1.0
143
1.0
 70
0
 72
1
 73
0
 74
5
  7

 75
16
 76
0
 77
2
 78
300
147
1.0
148
0.0
149
0.0
100
AcDbLayout
  1
Layout1
 70
1
 71
1
 10
0.0
 20
0.0
 11
420.0
 21
297.0
 12
0.0
 22
0.0
 32
0.0
 14
1e+20
 24
1e+20
 34
1e+20
 15
-1e+20
 25
-1e+20
 35
-1e+20
146
0.0
 13
0.0
 23
0.0
 33
0.0
 16
1.0
 26
0.0
 36
0.0
 17
0.0
 27
1.0
 37
0.0
 76
1
330
1B
  0
MATERIAL
  5
1F
102
{ACAD_REACTORS
330
E
102
}
330
E
100
AcDbMaterial
  1
ByBlock
  2

 70
0
 40
1.0
 71
1
 41
1.0
 91
-1023410177
 42
1.0
 72
1
  3

 73
1
 74
1
 75
1
 44
0.5
 73
0
 45
1.0
 46
1.0
 77
1
  4

 78
1
 79
1
170
1
 48
1.0
171
1
  6

172
1
173
1
174
1
140
1.0
141
1.0
175
1
  7

176
1
177
1
178
1
143
1.0
179
1
  8

270
1
271
1
272
1
145
1.0
146
1.0
273
1
  9

274
1
275
1
276
1
 42
1.0
 72
1
  3

 73
1
 74
1
 75
1
 94
63
  0
MATERIAL
  5
20
102
{ACAD_REACTORS
330
E
102
}
330
E
100
AcDbMaterial
  1
ByLayer
  2

 70
0
 40
1.0
 71
1
 41
1.0
 91
-1023410177
 42
1.0
 72
1
  3

 73
1
 74
1
 75
1
 44
0.5
 73
0
 45
1.0
 46
1.0
 77
1
  4

 78
1
 79
1
170
1
 48
1.0
171
1
  6

172
1
173
1
174
1
140
1.0
141
1.0
175
1
  7

176
1
177
1
178
1
143
1.0
179
1
  8

270
1
271
1
272
1
145
1.0
146
1.0
273
1
  9

274
1
275
1
276
1
 42
1.0
 72
1
  3

 73
1
 74
1
 75
1
 94
63
  0
MATERIAL
  5
21
102
{ACAD_REACTORS
330
E
102
}
330
E
100
AcDbMaterial
  1
Global
  2

 70
0
 40
1.0
 71
1
 41
1.0
 91
-1023410177
 42
1.0
 72
1
  3

 73
1
 74
1
 75
1
 44
0.5
 73
0
 45
1.0
 46
1.0
 77
1
  4

 78
1
 79
1
170
1
 48
1.0
171
1
  6

172
1
173
1
174
1
140
1.0
141
1.0
175
1
  7

176
1
177
1
178
1
143
1.0
179
1
  8

270
1
271
1
272
1
145
1.0
146
1.0
273
1
  9

274
1
275
1
276
1
 42
1.0
 72
1
  3

 73
1
 74
1
 75
1
 94
63
  0
MLINESTYLE
  5
22
102
{ACAD_REACTORS
330
10
102
}
330
10
100
AcDbMlineStyle
  2
Standard
 70
0
  3

 62
256
 51
90.0
 52
90.0
 71
2
 49
0.5
 62
256
  6
BYLAYER
 49
-0.5
 62
256
  6
BYLAYER
  0
MLEADERSTYLE
  5
2C
102
{ACAD_REACTORS
330
F
102
}
330
F
100
AcDbMLeaderStyle
179
2
170
2
171
1
172
0
 90
2
 40
0.0
 41
0.0
173
1
 91
-1056964608
 92
-2
290
1
 42
2.0
291
1
 43
8.0
  3
Standard
 44
4.0
300

342
29
174
1
175
1
176
0
178
1
 93
-1056964608
 45
4.0
292
0
297
0
 46
4.0
 94
-1056964608
 47
1.0
 49
1.0
140
1.0
294
1
141
0.0
177
0
142
1.0
295
0
296
0
143
3.75
271
0
272
9
273
9
  0
DICTIONARY
  5
2D
330
A
100
AcDbDictionary
280
1
281
1
  3
CREATED_BY_EZDXF
350
2E
  3
WRITTEN_BY_EZDXF
350
65
  0
DICTIONARYVAR
  5
2E
330
2D
100
DictionaryVariables
280
0
  1
1.4.4 @ 2026-10-02T13:06:10.988176+00:00
  0
DICTIONARYVAR
  5
65
330
2D
100
DictionaryVariables
280
0
  1
1.4.4 @ 2026-10-02T13:06:10.992430+00:00
  0
ENDSEC
  0
EOF
