  0
SECTION
  2
HEADER
  9
$ACADVER
  1
AC1024
  9
$ACADMAINTVER
 70
6
  9
$DWGCODEPAGE
  3
ANSI_1252
  9
$LASTSAVEDBY
  1
ezdxf
  9
$INSBASE
 10
0.0
 20
0.0
 30
0.0
  9
$EXTMIN
 10
1e+20
 20
1e+20
 30
1e+20
  9
$EXTMAX
 10
-1e+20
 20
-1e+20
 30
-1e+20
  9
$LIMMIN
 10
0.0
 20
0.0
  9
$LIMMAX
 10
420.0
 20
297.0
  9
$ORTHOMODE
 70
0
  9
$REGENMODE
 70
1
  9
$FILLMODE
 70
1
  9
$QTEXTMODE
 70
0
  9
$MIRRTEXT
 70
1
  9
$LTSCALE
 40
1.0
  9
$ATTMODE
 70
1
  9
$TEXTSIZE
 40
2.5
  9
$TRACEWID
 40
1.0
  9
$TEXTSTYLE
  7
Standard
  9
$CLAYER
  8
0
  9
$CELTYPE
  6
ByLayer
  9
$CECOLOR
 62
256
  9
$CELTSCALE
 40
1.0
  9
$DISPSILH
 70
0
  9
$DIMSCALE
 40
1.0
  9
$DIMASZ
 40
2.5
  9
$DIMEXO
 40
0.625
  9
$DIMDLI
 40
3.75
  9
$DIMRND
 40
0.0
  9
$DIMDLE
 40
0.0
  9
$DIMEXE
 40
1.25
  9
$DIMTP
 40
0.0
  9
$DIMTM
 40
0.0
  9
$DIMTXT
 40
2.5
  9
$DIMCEN
 40
2.5
  9
$DIMTSZ
 40
0.0
  9
$DIMTOL
 70
0
  9
$DIMLIM
 70
0
  9
$DIMTIH
 70
0
  9
$DIMTOH
 70
0
  9
$DIMSE1
 70
0
  9
$DIMSE2
 70
0
  9
$DIMTAD
 70
1
  9
$DIMZIN
 70
8
  9
$DIMBLK
  1

  9
$DIMASO
 70
1
  9
$DIMSHO
 70
1
  9
$DIMPOST
  1

  9
$DIMAPOST
  1

  9
$DIMALT
 70
0
  9
$DIMALTD
 70
3
  9
$DIMALTF
 40
0.03937007874
  9
$DIMLFAC
 40
1.0
  9
$DIMTOFL
 70
1
  9
$DIMTVP
 40
0.0
  9
$DIMTIX
 70
0
  9
$DIMSOXD
 70
0
  9
$DIMSAH
 70
0
  9
$DIMBLK1
  1

  9
$DIMBLK2
  1

  9
$DIMSTYLE
  2
ISO-25
  9
$DIMCLRD
 70
0
  9
$DIMCLRE
 70
0
  9
$DIMCLRT
 70
0
  9
$DIMTFAC
 40
1.0
  9
$DIMGAP
 40
0.625
  9
$DIMJUST
 70
0
  9
$DIMSD1
 70
0
  9
$DIMSD2
 70
0
  9
$DIMTOLJ
 70
0
  9
$DIMTZIN
 70
8
  9
$DIMALTZ
 70
0
  9
$DIMALTTZ
 70
0
  9
$DIMUPT
 70
0
  9
$DIMDEC
 70
2
  9
$DIMTDEC
 70
2
  9
$DIMALTU
 70
2
  9
$DIMALTTD
 70
3
  9
$DIMTXSTY
  7
Standard
  9
$DIMAUNIT
 70
0
  9
$DIMADEC
 70
0
  9
$DIMALTRND
 40
0.0
  9
$DIMAZIN
 70
0
  9
$DIMDSEP
 70
44
  9
$DIMATFIT
 70
3
  9
$DIMFRAC
 70
0
  9
$DIMLDRBLK
  1

  9
$DIMLUNIT
 70
2
  9
$DIMLWD
 70
-2
  9
$DIMLWE
 70
-2
  9
$DIMTMOVE
 70
0
  9
$DIMFXL
 40
1.0
  9
$DIMFXLON
 70
0
  9
$DIMJOGANG
 40
0.785398163397
  9
$DIMTFILL
 70
0
  9
$DIMTFILLCLR
 70
0
  9
$DIMARCSYM
 70
0
  9
$DIMLTYPE
  6

  9
$DIMLTEX1
  6

  9
$DIMLTEX2
  6

  9
$DIMTXTDIRECTION
 70
0
  9
$LUNITS
 70
2
  9
$LUPREC
 70
4
  9
$SKETCHINC
 40
1.0
  9
$FILLETRAD
 40
10.0
  9
$AUNITS
 70
0
  9
$AUPREC
 70
2
  9
$MENU
  1
.
  9
$ELEVATION
 40
0.0
  9
$PELEVATION
 40
0.0
  9
$THICKNESS
 40
0.0
  9
$LIMCHECK
 70
0
  9
$CHAMFERA
 40
0.0
  9
$CHAMFERB
 40
0.0
  9
$CHAMFERC
 40
0.0
  9
$CHAMFERD
 40
0.0
  9
$SKPOLY
 70
0
  9
$TDCREATE
 40
2461318.665034722
  9
$TDUCREATE
 40
2458532.153996898
  9
$TDUPDATE
 40
2461318.665034722
  9
$TDUUPDATE
 40
2458532.1544311
  9
$TDINDWG
 40
0.0
  9
$TDUSRTIMER
 40
0.0
  9
$USRTIMER
 70
1
  9
$ANGBASE
 50
0.0
  9
$ANGDIR
 70
0
  9
$PDMODE
 70
0
  9
$PDSIZE
 40
0.0
  9
$PLINEWID
 40
0.0
  9
$SPLFRAME
 70
0
  9
$SPLINETYPE
 70
6
  9
$SPLINESEGS
 70
8
  9
$HANDSEED
  5
87
  9
$SURFTAB1
 70
6
  9
$SURFTAB2
 70
6
  9
$SURFTYPE
 70
6
  9
$SURFU
 70
6
  9
$SURFV
 70
6
  9
$UCSBASE
  2

  9
$UCSNAME
  2

  9
$UCSORG
 10
0.0
 20
0.0
 30
0.0
  9
$UCSXDIR
 10
1.0
 20
0.0
 30
0.0
  9
$UCSYDIR
 10
0.0
 20
1.0
 30
0.0
  9
$UCSORTHOREF
  2

  9
$UCSORTHOVIEW
 70
0
  9
$UCSORGTOP
 10
0.0
 20
0.0
 30
0.0
  9
$UCSORGBOTTOM
 10
0.0
 20
0.0
 30
0.0
  9
$UCSORGLEFT
 10
0.0
 20
0.0
 30
0.0
  9
$UCSORGRIGHT
 10
0.0
 20
0.0
 30
0.0
  9
$UCSORGFRONT
 10
0.0
 20
0.0
 30
0.0
  9
$UCSORGBACK
 10
0.0
 20
0.0
 30
0.0
  9
$PUCSBASE
  2

  9
$PUCSNAME
  2

  9
$PUCSORG
 10
0.0
 20
0.0
 30
0.0
  9
$PUCSXDIR
 10
1.0
 20
0.0
 30
0.0
  9
$PUCSYDIR
 10
0.0
 20
1.0
 30
0.0
  9
$PUCSORTHOREF
  2

  9
$PUCSORTHOVIEW
 70
0
  9
$PUCSORGTOP
 10
0.0
 20
0.0
 30
0.0
  9
$PUCSORGBOTTOM
 10
0.0
 20
0.0
 30
0.0
  9
$PUCSORGLEFT
 10
0.0
 20
0.0
 30
0.0
  9
$PUCSORGRIGHT
 10
0.0
 20
0.0
 30
0.0
  9
$PUCSORGFRONT
 10
0.0
 20
0.0
 30
0.0
  9
$PUCSORGBACK
 10
0.0
 20
0.0
 30
0.0
  9
$USERI1
 70
0
  9
$USERI2
 70
0
  9
$USERI3
 70
0
  9
$USERI4
 70
0
  9
$USERI5
 70
0
  9
$USERR1
 40
0.0
  9
$USERR2
 40
0.0
  9
$USERR3
 40
0.0
  9
$USERR4
 40
0.0
  9
$USERR5
 40
0.0
  9
$WORLDVIEW
 70
1
  9
$SHADEDGE
 70
3
  9
$SHADEDIF
 70
70
  9
$TILEMODE
 70
1
  9
$MAXACTVP
 70
64
  9
$PINSBASE
 10
0.0
 20
0.0
 30
0.0
  9
$PLIMCHECK
 70
0
  9
$PEXTMIN
 10
1e+20
 20
1e+20
 30
1e+20
  9
$PEXTMAX
 10
-1e+20
 20
-1e+20
 30
-1e+20
  9
$PLIMMIN
 10
0.0
 20
0.0
  9
$PLIMMAX
 10
420.0
 20
297.0
  9
$UNITMODE
 70
0
  9
$VISRETAIN
 70
1
  9
$PLINEGEN
 70
0
  9
$PSLTSCALE
 70
1
  9
$TREEDEPTH
 70
3020
  9
$CMLSTYLE
  2
Standard
  9
$CMLJUST
 70
0
  9
$CMLSCALE
 40
20.0
  9
$PROXYGRAPHICS
 70
1
  9
$MEASUREMENT
 70
1
  9
$CELWEIGHT
370
-1
  9
$ENDCAPS
280
0
  9
$JOINSTYLE
280
0
  9
$LWDISPLAY
290
0
  9
$INSUNITS
 70
6
  9
$HYPERLINKBASE
  1

  9
$STYLESHEET
  1

  9
$XEDIT
290
1
  9
$CEPSNTYPE
380
0
  9
$PSTYLEMODE
290
1
  9
$FINGERPRINTGUID
  2
{B41B9915-4CA6-4013-A767-DFB65ECA213D}
  9
$VERSIONGUID
  2
{F045F908-027E-4F7B-83FF-C39492088D99}
  9
$EXTNAMES
290
1
  9
$PSVPSCALE
 40
0.0
  9
$OLESTARTUP
290
0
  9
$SORTENTS
280
127
  9
$INDEXCTL
280
0
  9
$HIDETEXT
280
1
  9
$XCLIPFRAME
280
1
  9
$HALOGAP
280
0
  9
$OBSCOLOR
 70
257
  9
$OBSLTYPE
280
0
  9
$INTERSECTIONDISPLAY
280
0
  9
$INTERSECTIONCOLOR
 70
257
  9
$DIMASSOC
280
2
  9
$PROJECTNAME
  1

  9
$CAMERADISPLAY
290
0
  9
$LENSLENGTH
 40
50.0
  9
$CAMERAHEIGHT
 40
0.0
  9
$STEPSPERSEC
 40
24.0
  9
$STEPSIZE
 40
100.0
  9
$3DDWFPREC
 40
2.0
  9
$PSOLWIDTH
 40
0.005
  9
$PSOLHEIGHT
 40
0.08
  9
$LOFTANG1
 40
1.570796326795
  9
$LOFTANG2
 40
1.570796326795
  9
$LOFTMAG1
 40
0.0
  9
$LOFTMAG2
 40
0.0
  9
$LOFTPARAM
 70
7
  9
$LOFTNORMALS
280
1
  9
$LATITUDE
 40
37.795
  9
$LONGITUDE
 40
-122.394
  9
$NORTHDIRECTION
 40
0.0
  9
$TIMEZONE
 70
-8000
  9
$LIGHTGLYPHDISPLAY
280
1
  9
$TILEMODELIGHTSYNCH
280
1
  9
$CMATERIAL
347
20
  9
$SOLIDHIST
280
0
  9
$SHOWHIST
280
1
  9
$DWFFRAME
280
2
  9
$DGNFRAME
280
2
  9
$REALWORLDSCALE
290
1
  9
$INTERFERECOLOR
 62
256
  9
$CSHADOW
280
0
  9
$SHADOWPLANELOCATION
 40
0.0
  0
ENDSEC
  0
SECTION
  2
CLASSES
  0
CLASS
  1
ACDBDICTIONARYWDFLT
  2
AcDbDictionaryWithDefault
  3
ObjectDBX Classes
 90
0
 91
0
280
0
281
0
  0
CLASS
  1
SUN
  2
AcDbSun
  3
SCENEOE
 90
1153
 91
0
280
0
281
0
  0
CLASS
  1
VISUALSTYLE
  2
AcDbVisualStyle
  3
ObjectDBX Classes
 90
4095
 91
0
280
0
281
0
  0
CLASS
  1
MATERIAL
  2
AcDbMaterial
  3
ObjectDBX Classes
 90
1153
 91
0
280
0
281
0
  0
CLASS
  1
SCALE
  2
AcDbScale
  3
ObjectDBX Classes
 90
1153
 91
0
280
0
281
0
  0
CLASS
  1
TABLESTYLE
  2
AcDbTableStyle
  3
ObjectDBX Classes
 90
4095
 91
0
280
0
281
0
  0
CLASS
  1
MLEADERSTYLE
  2
AcDbMLeaderStyle
  3
ACDB_MLEADERSTYLE_CLASS
 90
4095
 91
0
280
0
281
0
  0
CLASS
  1
DICTIONARYVAR
  2
AcDbDictionaryVar
  3
ObjectDBX Classes
 90
0
 91
0
280
0
281
0
  0
CLASS
  1
CELLSTYLEMAP
  2
AcDbCellStyleMap
  3
ObjectDBX Classes
 90
1152
 91
0
280
0
281
0
  0
CLASS
  1
MENTALRAYRENDERSETTINGS
  2
AcDbMentalRayRenderSettings
  3
SCENEOE
 90
1024
 91
0
280
0
281
0
  0
CLASS
  1
ACDBDETAILVIEWSTYLE
  2
AcDbDetailViewStyle
  3
ObjectDBX Classes
 90
1025
 91
0
280
0
281
0
  0
CLASS
  1
ACDBSECTIONVIEWSTYLE
  2
AcDbSectionViewStyle
  3
ObjectDBX Classes
 90
1025
 91
0
280
0
281
0
  0
CLASS
  1
RASTERVARIABLES
  2
AcDbRasterVariables
  3
ISM
 90
0
 91
0
280
0
281
0
  0
CLASS
  1
ACDBPLACEHOLDER
  2
AcDbPlaceHolder
  3
ObjectDBX Classes
 90
0
 91
0
280
0
281
0
  0
CLASS
  1
LAYOUT
  2
AcDbLayout
  3
ObjectDBX Classes
 90
0
 91
0
280
0
281
0
  0
ENDSEC
  0
SECTION
  2
TABLES
  0
TABLE
  2
VPORT
  5
8
330
0
100
AcDbSymbolTable
 70
1
  0
VPORT
  5
23
330
8
100
AcDbSymbolTableRecord
100
AcDbViewportTableRecord
  2
*Active
 70
0
 10
0.0
 20
0.0
 11
1.0
 21
1.0
 12
0.0
 22
0.0
 13
0.0
 23
0.0
 14
0.5
 24
0.5
 15
0.5
 25
0.5
 16
0.0
 26
0.0
 36
1.0
 17
0.0
 27
0.0
 37
0.0
 40
1000.0
 41
1.34
 42
50.0
 43
0.0
 44
0.0
 50
0.0
 51
0.0
 71
0
 72
1000
 73
1
 74
3
 75
0
 76
0
 77
0
 78
0
281
0
 65
0
146
0.0
  0
ENDTAB
  0
TABLE
  2
LTYPE
  5
2
330
0
100
AcDbSymbolTable
 70
3
  0
LTYPE
  5
24
330
2
100
AcDbSymbolTableRecord
100
AcDbLinetypeTableRecord
  2
ByBlock
 70
0
  3

 72
65
 73
0
 40
0.0
  0
LTYPE
  5
25
330
2
100
AcDbSymbolTableRecord
100
AcDbLinetypeTableRecord
  2
ByLayer
 70
0
  3

 72
65
 73
0
 40
0.0
  0
LTYPE
  5
26
330
2
100
AcDbSymbolTableRecord
100
AcDbLinetypeTableRecord
  2
Continuous
 70
0
  3

 72
65
 73
0
 40
0.0
  0
ENDTAB
  0
TABLE
  2
LAYER
  5
1
330
0
100
AcDbSymbolTable
 70
13
  0
LAYER
  5
27
330
1
100
AcDbSymbolTableRecord
100
AcDbLayerTableRecord
  2
0
 70
0
 62
7
  6
Continuous
370
-3
390
13
347
21
  0
LAYER
  5
28
330
1
100
AcDbSymbolTableRecord
100
AcDbLayerTableRecord
  2
Defpoints
 70
0
 62
7
  6
Continuous
290
0
370
-3
390
13
347
21
  0
LAYER
  5
2F
330
1
100
AcDbSymbolTableRecord
100
AcDbLayerTableRecord
  2
OUTLINE
 70
0
 62
7
  6
Continuous
370
-3
390
13
347
21
  0
LAYER
  5
30
330
1
100
AcDbSymbolTableRecord
100
AcDbLayerTableRecord
  2
OPENINGS
 70
0
 62
7
  6
Continuous
370
-3
390
13
347
21
  0
LAYER
  5
31
330
1
100
AcDbSymbolTableRecord
100
AcDbLayerTableRecord
  2
LIGHT_WINDOWS
 70
0
 62
7
  6
Continuous
370
-3
390
13
347
21
  0
LAYER
  5
32
330
1
100
AcDbSymbolTableRecord
100
AcDbLayerTableRecord
  2
SPOTFACES
 70
0
 62
7
  6
Continuous
370
-3
390
13
347
21
  0
LAYER
  5
33
330
1
100
AcDbSymbolTableRecord
100
AcDbLayerTableRecord
  2
CLIPS
 70
0
 62
7
  6
Continuous
370
-3
390
13
347
21
  0
LAYER
  5
34
330
1
100
AcDbSymbolTableRecord
100
AcDbLayerTableRecord
  2
PINS
 70
0
 62
7
  6
Continuous
370
-3
390
13
347
21
  0
LAYER
  5
35
330
1
100
AcDbSymbolTableRecord
100
AcDbLayerTableRecord
  2
SCREWS
 70
0
 62
7
  6
Continuous
370
-3
390
13
347
21
  0
LAYER
  5
36
330
1
100
AcDbSymbolTableRecord
100
AcDbLayerTableRecord
  2
SCREW_BOSSES
 70
0
 62
7
  6
Continuous
370
-3
390
13
347
21
  0
LAYER
  5
37
330
1
100
AcDbSymbolTableRecord
100
AcDbLayerTableRecord
  2
GLUE_LANDS_OPTIONAL
 70
0
 62
7
  6
Continuous
370
-3
390
13
347
21
  0
LAYER
  5
38
330
1
100
AcDbSymbolTableRecord
100
AcDbLayerTableRecord
  2
BUTTON_INNER_FEATURES
 70
0
 62
7
  6
Continuous
370
-3
390
13
347
21
  0
LAYER
  5
39
330
1
100
AcDbSymbolTableRecord
100
AcDbLayerTableRecord
  2
NOTES
 70
0
 62
7
  6
Continuous
370
-3
390
13
347
21
  0
ENDTAB
  0
TABLE
  2
STYLE
  5
5
330
0
100
AcDbSymbolTable
 70
1
  0
STYLE
  5
29
330
5
100
AcDbSymbolTableRecord
100
AcDbTextStyleTableRecord
  2
Standard
 70
0
 40
0.0
 41
1.0
 50
0.0
 71
0
 42
2.5
  3
txt
  4

  0
ENDTAB
  0
TABLE
  2
VIEW
  5
7
330
0
100
AcDbSymbolTable
 70
0
  0
ENDTAB
  0
TABLE
  2
UCS
  5
6
330
0
100
AcDbSymbolTable
 70
0
  0
ENDTAB
  0
TABLE
  2
APPID
  5
3
330
0
100
AcDbSymbolTable
 70
3
  0
APPID
  5
2A
330
3
100
AcDbSymbolTableRecord
100
AcDbRegAppTableRecord
  2
ACAD
 70
0
  0
APPID
  5
84
330
3
100
AcDbSymbolTableRecord
100
AcDbRegAppTableRecord
  2
HATCHBACKGROUNDCOLOR
 70
0
  0
APPID
  5
85
330
3
100
AcDbSymbolTableRecord
100
AcDbRegAppTableRecord
  2
EZDXF
 70
0
  0
ENDTAB
  0
TABLE
  2
DIMSTYLE
  5
4
330
0
100
AcDbSymbolTable
 70
1
100
AcDbDimStyleTable
  0
DIMSTYLE
105
2B
330
4
100
AcDbSymbolTableRecord
100
AcDbDimStyleTableRecord
  2
Standard
 70
0
 40
1.0
 41
2.5
 42
0.625
 43
3.75
 44
1.25
 45
0.0
 46
0.0
 47
0.0
 48
0.0
 49
2.5
140
2.5
141
2.5
142
0.0
143
0.03937007874
144
1.0
145
0.0
146
1.0
147
0.625
148
0.0
 69
0
 70
0
 71
0
 72
0
 73
0
 74
0
 75
0
 76
0
 77
1
 78
8
 79
3
170
0
171
3
172
1
173
0
174
0
175
0
176
0
177
0
178
0
179
2
271
2
272
2
273
2
274
3
275
0
276
0
277
2
278
44
279
0
280
0
281
0
282
0
283
0
284
8
285
0
286
0
288
0
289
3
290
0
371
-2
372
-2
  0
ENDTAB
  0
TABLE
  2
BLOCK_RECORD
  5
9
330
0
100
AcDbSymbolTable
 70
2
  0
BLOCK_RECORD
  5
17
330
9
100
AcDbSymbolTableRecord
100
AcDbBlockTableRecord
  2
*Model_Space
340
1A
 70
0
280
1
281
0
  0
BLOCK_RECORD
  5
1B
330
9
100
AcDbSymbolTableRecord
100
AcDbBlockTableRecord
  2
*Paper_Space
340
1E
 70
0
280
1
281
0
  0
ENDTAB
  0
ENDSEC
  0
SECTION
  2
BLOCKS
  0
BLOCK
  5
18
330
17
100
AcDbEntity
  8
0
100
AcDbBlockBegin
  2
*Model_Space
 70
0
 10
0.0
 20
0.0
 30
0.0
  3
*Model_Space
  1

  0
ENDBLK
  5
19
330
17
100
AcDbEntity
  8
0
100
AcDbBlockEnd
  0
BLOCK
  5
1C
330
1B
100
AcDbEntity
  8
0
100
AcDbBlockBegin
  2
*Paper_Space
 70
0
 10
0.0
 20
0.0
 30
0.0
  3
*Paper_Space
  1

  0
ENDBLK
  5
1D
330
1B
100
AcDbEntity
  8
0
100
AcDbBlockEnd
  0
ENDSEC
  0
SECTION
  2
ENTITIES
  0
LWPOLYLINE
  5
3A
330
17
100
AcDbEntity
  8
GLUE_LANDS_OPTIONAL
100
AcDbPolyline
 90
372
 70
1
 10
27.24
 20
8.32
 10
27.24
 20
17.72
 10
27.24
 20
27.12
 10
28.661
 20
27.12
 10
30.083
 20
27.12
 10
30.083
 20
25.21
 10
30.083
 20
23.301
 10
30.083
 20
23.284
 10
30.084
 20
23.266
 10
30.085
 20
23.249
 10
30.087
 20
23.231
 10
30.089
 20
23.214
 10
30.092
 20
23.197
 10
30.095
 20
23.179
 10
30.099
 20
23.162
 10
30.104
 20
23.145
 10
30.108
 20
23.128
 10
30.114
 20
23.112
 10
30.119
 20
23.095
 10
30.127
 20
22.989
 10
30.135
 20
22.883
 10
30.136
 20
22.869
 10
30.137
 20
22.854
 10
30.139
 20
22.839
 10
30.142
 20
22.825
 10
30.144
 20
22.81
 10
30.147
 20
22.796
 10
30.151
 20
22.781
 10
30.155
 20
22.767
 10
30.159
 20
22.753
 10
30.163
 20
22.738
 10
30.168
 20
22.724
 10
30.173
 20
22.711
 10
30.206
 20
22.624
 10
30.24
 20
22.536
 10
30.24
 20
19.098
 10
30.24
 20
15.66
 10
29.807
 20
15.518
 10
29.417
 20
15.283
 10
29.091
 20
14.965
 10
28.845
 20
14.582
 10
28.692
 20
14.153
 10
28.64
 20
13.7
 10
28.692
 20
13.247
 10
28.845
 20
12.818
 10
29.091
 20
12.435
 10
29.417
 20
12.117
 10
29.807
 20
11.882
 10
30.24
 20
11.74
 10
30.24
 20
10.03
 10
30.24
 20
8.32
 10
30.32
 20
7.093
 10
30.56
 20
5.887
 10
30.956
 20
4.723
 10
31.499
 20
3.62
 10
32.182
 20
2.598
 10
32.993
 20
1.673
 10
33.918
 20
0.862
 10
34.94
 20
0.179
 10
36.043
 20
-0.364
 10
37.207
 20
-0.76
 10
38.413
 20
-1.0
 10
39.64
 20
-1.08
 10
53.19
 20
-1.08
 10
66.74
 20
-1.08
 10
67.967
 20
-1.0
 10
69.173
 20
-0.76
 10
70.337
 20
-0.364
 10
71.44
 20
0.179
 10
72.462
 20
0.862
 10
73.387
 20
1.673
 10
74.198
 20
2.598
 10
74.881
 20
3.62
 10
75.424
 20
4.723
 10
75.82
 20
5.887
 10
76.06
 20
7.093
 10
76.14
 20
8.32
 10
76.14
 20
10.03
 10
76.14
 20
11.74
 10
76.573
 20
11.882
 10
76.963
 20
12.117
 10
77.289
 20
12.435
 10
77.535
 20
12.818
 10
77.688
 20
13.247
 10
77.74
 20
13.7
 10
77.688
 20
14.153
 10
77.535
 20
14.582
 10
77.289
 20
14.965
 10
76.963
 20
15.283
 10
76.573
 20
15.518
 10
76.14
 20
15.66
 10
76.14
 20
18.722
 10
76.14
 20
21.784
 10
76.274
 20
21.918
 10
76.407
 20
22.052
 10
76.416
 20
22.06
 10
76.424
 20
22.069
 10
76.432
 20
22.078
 10
76.44
 20
22.088
 10
76.448
 20
22.097
 10
76.456
 20
22.107
 10
76.463
 20
22.116
 10
76.471
 20
22.126
 10
76.478
 20
22.136
 10
76.484
 20
22.147
 10
76.491
 20
22.157
 10
76.497
 20
22.167
 10
76.572
 20
22.292
 10
76.647
 20
22.417
 10
76.654
 20
22.428
 10
76.659
 20
22.438
 10
76.665
 20
22.448
 10
76.67
 20
22.459
 10
76.675
 20
22.47
 10
76.68
 20
22.48
 10
76.685
 20
22.491
 10
76.69
 20
22.502
 10
76.694
 20
22.513
 10
76.698
 20
22.525
 10
76.702
 20
22.536
 10
76.706
 20
22.547
 10
76.768
 20
22.747
 10
76.831
 20
22.947
 10
76.835
 20
22.962
 10
76.839
 20
22.976
 10
76.843
 20
22.991
 10
76.846
 20
23.006
 10
76.849
 20
23.021
 10
76.851
 20
23.035
 10
76.853
 20
23.05
 10
76.855
 20
23.066
 10
76.856
 20
23.081
 10
76.857
 20
23.096
 10
76.858
 20
23.111
 10
76.858
 20
23.126
 10
76.858
 20
23.178
 10
76.858
 20
23.23
 10
76.862
 20
23.244
 10
76.866
 20
23.258
 10
76.869
 20
23.272
 10
76.872
 20
23.286
 10
76.874
 20
23.3
 10
76.877
 20
23.314
 10
76.879
 20
23.329
 10
76.88
 20
23.343
 10
76.881
 20
23.358
 10
76.882
 20
23.372
 10
76.883
 20
23.387
 10
76.883
 20
23.401
 10
76.883
 20
69.051
 10
76.883
 20
114.701
 10
76.883
 20
114.719
 10
76.882
 20
114.738
 10
76.88
 20
114.756
 10
76.879
 20
114.774
 10
76.876
 20
114.792
 10
76.873
 20
114.81
 10
76.869
 20
114.828
 10
76.865
 20
114.846
 10
76.861
 20
114.864
 10
76.855
 20
114.881
 10
76.85
 20
114.899
 10
76.843
 20
114.916
 10
76.837
 20
114.986
 10
76.831
 20
115.055
 10
76.829
 20
115.074
 10
76.826
 20
115.092
 10
76.823
 20
115.111
 10
76.819
 20
115.129
 10
76.815
 20
115.147
 10
76.81
 20
115.165
 10
76.805
 20
115.183
 10
76.799
 20
115.201
 10
76.792
 20
115.218
 10
76.785
 20
115.235
 10
76.778
 20
115.253
 10
76.77
 20
115.269
 10
76.695
 20
115.419
 10
76.62
 20
115.569
 10
76.612
 20
115.584
 10
76.605
 20
115.598
 10
76.596
 20
115.612
 10
76.588
 20
115.625
 10
76.579
 20
115.639
 10
76.57
 20
115.652
 10
76.56
 20
115.665
 10
76.55
 20
115.677
 10
76.54
 20
115.69
 10
76.529
 20
115.702
 10
76.518
 20
115.714
 10
76.507
 20
115.725
 10
76.407
 20
115.825
 10
76.307
 20
115.925
 10
76.296
 20
115.936
 10
76.284
 20
115.947
 10
76.272
 20
115.958
 10
76.259
 20
115.968
 10
76.247
 20
115.978
 10
76.234
 20
115.988
 10
76.221
 20
115.997
 10
76.207
 20
116.006
 10
76.194
 20
116.014
 10
76.18
 20
116.023
 10
76.166
 20
116.03
 10
76.151
 20
116.038
 10
76.146
 20
116.04
 10
76.14
 20
116.043
 10
76.14
 20
130.932
 10
76.14
 20
145.82
 10
76.14
 20
145.917
 10
76.138
 20
146.013
 10
76.136
 20
146.11
 10
76.132
 20
146.207
 10
76.128
 20
146.303
 10
76.122
 20
146.4
 10
76.116
 20
146.496
 10
76.108
 20
146.593
 10
76.1
 20
146.689
 10
76.09
 20
146.785
 10
76.08
 20
146.881
 10
76.069
 20
146.977
 10
76.619
 20
147.154
 10
77.096
 20
147.48
 10
77.46
 20
147.929
 10
77.68
 20
148.464
 10
77.738
 20
149.039
 10
77.629
 20
149.607
 10
77.362
 20
150.12
 10
76.96
 20
150.535
 10
76.455
 20
150.818
 10
75.891
 20
150.944
 10
75.315
 20
150.904
 10
74.773
 20
150.701
 10
74.328
 20
151.368
 10
73.827
 20
151.995
 10
73.274
 20
152.577
 10
72.674
 20
153.11
 10
72.031
 20
153.59
 10
71.349
 20
154.013
 10
70.633
 20
154.376
 10
69.889
 20
154.677
 10
69.122
 20
154.913
 10
68.338
 20
155.083
 10
67.542
 20
155.186
 10
66.74
 20
155.22
 10
53.19
 20
155.22
 10
39.64
 20
155.22
 10
38.838
 20
155.186
 10
38.042
 20
155.083
 10
37.258
 20
154.913
 10
36.491
 20
154.677
 10
35.747
 20
154.376
 10
35.031
 20
154.013
 10
34.349
 20
153.59
 10
33.706
 20
153.11
 10
33.106
 20
152.577
 10
32.553
 20
151.995
 10
32.052
 20
151.368
 10
31.607
 20
150.701
 10
31.065
 20
150.904
 10
30.489
 20
150.944
 10
29.925
 20
150.818
 10
29.42
 20
150.535
 10
29.018
 20
150.12
 10
28.751
 20
149.607
 10
28.642
 20
149.039
 10
28.7
 20
148.464
 10
28.92
 20
147.929
 10
29.284
 20
147.48
 10
29.761
 20
147.154
 10
30.311
 20
146.977
 10
30.3
 20
146.881
 10
30.29
 20
146.785
 10
30.28
 20
146.689
 10
30.272
 20
146.593
 10
30.264
 20
146.496
 10
30.258
 20
146.4
 10
30.252
 20
146.303
 10
30.248
 20
146.207
 10
30.244
 20
146.11
 10
30.242
 20
146.013
 10
30.24
 20
145.917
 10
30.24
 20
145.82
 10
30.24
 20
123.221
 10
30.24
 20
100.622
 10
30.195
 20
100.51
 10
30.151
 20
100.399
 10
30.144
 20
100.381
 10
30.138
 20
100.363
 10
30.132
 20
100.345
 10
30.127
 20
100.327
 10
30.123
 20
100.308
 10
30.119
 20
100.289
 10
30.116
 20
100.271
 10
30.113
 20
100.252
 10
30.111
 20
100.233
 10
30.109
 20
100.214
 10
30.108
 20
100.195
 10
30.108
 20
100.176
 10
30.108
 20
100.149
 10
30.108
 20
100.122
 10
30.104
 20
100.108
 10
30.1
 20
100.094
 10
30.097
 20
100.08
 10
30.094
 20
100.066
 10
30.092
 20
100.052
 10
30.089
 20
100.038
 10
30.087
 20
100.023
 10
30.086
 20
100.009
 10
30.085
 20
99.994
 10
30.084
 20
99.98
 10
30.083
 20
99.965
 10
30.083
 20
99.951
 10
30.083
 20
74.09
 10
30.083
 20
48.23
 10
28.661
 20
48.23
 10
27.24
 20
48.23
 10
27.24
 20
97.025
 10
27.24
 20
145.82
 10
27.346
 20
147.439
 10
27.663
 20
149.029
 10
28.184
 20
150.565
 10
28.901
 20
152.02
 10
29.802
 20
153.369
 10
30.872
 20
154.588
 10
32.091
 20
155.658
 10
33.44
 20
156.559
 10
34.895
 20
157.276
 10
36.431
 20
157.797
 10
38.021
 20
158.114
 10
39.64
 20
158.22
 10
53.19
 20
158.22
 10
66.74
 20
158.22
 10
68.359
 20
158.114
 10
69.949
 20
157.797
 10
71.485
 20
157.276
 10
72.94
 20
156.559
 10
74.289
 20
155.658
 10
75.508
 20
154.588
 10
76.578
 20
153.369
 10
77.479
 20
152.02
 10
78.196
 20
150.565
 10
78.717
 20
149.029
 10
79.034
 20
147.439
 10
79.14
 20
145.82
 10
79.14
 20
77.07
 10
79.14
 20
8.32
 10
79.034
 20
6.701
 10
78.717
 20
5.111
 10
78.196
 20
3.575
 10
77.479
 20
2.12
 10
76.578
 20
0.771
 10
75.508
 20
-0.448
 10
74.289
 20
-1.518
 10
72.94
 20
-2.419
 10
71.485
 20
-3.136
 10
69.949
 20
-3.657
 10
68.359
 20
-3.974
 10
66.74
 20
-4.08
 10
53.19
 20
-4.08
 10
39.64
 20
-4.08
 10
38.021
 20
-3.974
 10
36.431
 20
-3.657
 10
34.895
 20
-3.136
 10
33.44
 20
-2.419
 10
32.091
 20
-1.518
 10
30.872
 20
-0.448
 10
29.802
 20
0.771
 10
28.901
 20
2.12
 10
28.184
 20
3.575
 10
27.663
 20
5.111
 10
27.346
 20
6.701
  0
LWPOLYLINE
  5
3B
330
17
100
AcDbEntity
  8
OUTLINE
100
AcDbPolyline
 90
36
 70
1
 10
79.53999999999999
 20
145.82
 10
79.29405158916134
 20
148.31715612180645
 10
78.56565801614447
 20
150.71834793427314
 10
77.38281103747258
 20
152.9312989826509
 10
75.7909667991878
 20
154.8709667991878
 10
73.8512989826509
 20
156.46281103747256
 10
71.63834793427314
 20
157.64565801614447
 10
69.23715612180644
 20
158.37405158916135
 10
66.74
 20
158.62
 10
39.64
 20
158.62
 10
37.14284387819356
 20
158.37405158916135
 10
34.74165206572685
 20
157.64565801614447
 10
32.52870101734909
 20
156.46281103747256
 10
30.589033200812192
 20
154.8709667991878
 10
28.997188962527417
 20
152.9312989826509
 10
27.814341983855527
 20
150.71834793427314
 10
27.08594841083865
 20
148.31715612180642
 10
26.84
 20
145.82
 10
26.84
 20
8.319999999999999
 10
27.08594841083865
 20
5.822843878193554
 10
27.814341983855527
 20
3.4216520657268488
 10
28.99718896252742
 20
1.208701017349087
 10
30.58903320081219
 20
-0.7309667991878115
 10
32.52870101734909
 20
-2.322811037472583
 10
34.74165206572685
 20
-3.5056580161444764
 10
37.14284387819355
 20
-4.234051589161352
 10
39.64
 20
-4.480000000000004
 10
66.74
 20
-4.480000000000004
 10
69.23715612180644
 20
-4.2340515891613535
 10
71.63834793427314
 20
-3.505658016144473
 10
73.8512989826509
 20
-2.3228110374725865
 10
75.7909667991878
 20
-0.7309667991878133
 10
77.38281103747258
 20
1.2087010173490889
 10
78.56565801614447
 20
3.4216520657268497
 10
79.29405158916134
 20
5.822843878193549
 10
79.53999999999999
 20
8.319999999999993
  0
LWPOLYLINE
  5
3C
330
17
100
AcDbEntity
  8
OPENINGS
100
AcDbPolyline
 90
36
 70
1
 10
47.93
 20
75.95700000000001
 10
47.895413504725816
 20
76.30816257962904
 10
47.79298315852032
 20
76.64583017825717
 10
47.62664530214458
 20
76.9570264194353
 10
47.402792206135786
 20
77.2297922061358
 10
47.13002641943529
 20
77.4536453021446
 10
46.818830178257166
 20
77.61998315852033
 10
46.481162579629036
 20
77.72241350472582
 10
46.13
 20
77.757
 10
40.13
 20
77.757
 10
39.77883742037097
 20
77.72241350472582
 10
39.44116982174284
 20
77.61998315852033
 10
39.129973580564716
 20
77.4536453021446
 10
38.85720779386422
 20
77.2297922061358
 10
38.633354697855424
 20
76.9570264194353
 10
38.46701684147968
 20
76.64583017825717
 10
38.36458649527419
 20
76.30816257962904
 10
38.330000000000005
 20
75.95700000000001
 10
38.330000000000005
 20
75.557
 10
38.36458649527419
 20
75.20583742037097
 10
38.46701684147968
 20
74.86816982174284
 10
38.633354697855424
 20
74.55697358056472
 10
38.85720779386422
 20
74.28420779386421
 10
39.129973580564716
 20
74.06035469785542
 10
39.44116982174284
 20
73.89401684147968
 10
39.77883742037097
 20
73.79158649527419
 10
40.13
 20
73.757
 10
46.13
 20
73.757
 10
46.481162579629036
 20
73.79158649527419
 10
46.818830178257166
 20
73.89401684147968
 10
47.13002641943529
 20
74.06035469785542
 10
47.402792206135786
 20
74.28420779386421
 10
47.62664530214458
 20
74.55697358056472
 10
47.79298315852032
 20
74.86816982174284
 10
47.895413504725816
 20
75.20583742037097
 10
47.93
 20
75.557
  0
TEXT
  5
3D
330
17
100
AcDbEntity
  8
NOTES
100
AcDbText
 10
41.13
 20
78.357
 30
0.0
 40
1.2
  1
C1
 11
41.13
 21
78.357
 31
0.0
100
AcDbText
  0
LWPOLYLINE
  5
3E
330
17
100
AcDbEntity
  8
OPENINGS
100
AcDbPolyline
 90
36
 70
1
 10
68.53
 20
75.95700000000001
 10
68.49541350472582
 20
76.30816257962904
 10
68.39298315852032
 20
76.64583017825717
 10
68.22664530214459
 20
76.9570264194353
 10
68.0027922061358
 20
77.2297922061358
 10
67.73002641943529
 20
77.4536453021446
 10
67.41883017825717
 20
77.61998315852033
 10
67.08116257962904
 20
77.72241350472582
 10
66.73
 20
77.757
 10
60.73
 20
77.757
 10
60.378837420370964
 20
77.72241350472582
 10
60.041169821742834
 20
77.61998315852033
 10
59.72997358056471
 20
77.4536453021446
 10
59.457207793864214
 20
77.2297922061358
 10
59.23335469785542
 20
76.9570264194353
 10
59.06701684147968
 20
76.64583017825717
 10
58.96458649527418
 20
76.30816257962904
 10
58.93
 20
75.95700000000001
 10
58.93
 20
75.557
 10
58.96458649527418
 20
75.20583742037097
 10
59.06701684147968
 20
74.86816982174284
 10
59.23335469785542
 20
74.55697358056472
 10
59.457207793864214
 20
74.28420779386421
 10
59.72997358056471
 20
74.06035469785542
 10
60.041169821742834
 20
73.89401684147968
 10
60.378837420370964
 20
73.79158649527419
 10
60.73
 20
73.757
 10
66.73
 20
73.757
 10
67.08116257962904
 20
73.79158649527419
 10
67.41883017825717
 20
73.89401684147968
 10
67.73002641943529
 20
74.06035469785542
 10
68.0027922061358
 20
74.28420779386421
 10
68.22664530214459
 20
74.55697358056472
 10
68.39298315852032
 20
74.86816982174284
 10
68.49541350472582
 20
75.20583742037097
 10
68.53
 20
75.557
  0
TEXT
  5
3F
330
17
100
AcDbEntity
  8
NOTES
100
AcDbText
 10
61.73
 20
78.357
 30
0.0
 40
1.2
  1
C4
 11
61.73
 21
78.357
 31
0.0
100
AcDbText
  0
LWPOLYLINE
  5
40
330
17
100
AcDbEntity
  8
OPENINGS
100
AcDbPolyline
 90
36
 70
1
 10
47.93
 20
66.04
 10
47.895413504725816
 20
66.39116257962904
 10
47.79298315852032
 20
66.72883017825717
 10
47.62664530214458
 20
67.04002641943529
 10
47.402792206135786
 20
67.3127922061358
 10
47.13002641943529
 20
67.53664530214459
 10
46.818830178257166
 20
67.70298315852033
 10
46.481162579629036
 20
67.80541350472582
 10
46.13
 20
67.84
 10
40.13
 20
67.84
 10
39.77883742037097
 20
67.80541350472582
 10
39.44116982174284
 20
67.70298315852033
 10
39.129973580564716
 20
67.53664530214459
 10
38.85720779386422
 20
67.3127922061358
 10
38.633354697855424
 20
67.04002641943529
 10
38.46701684147968
 20
66.72883017825717
 10
38.36458649527419
 20
66.39116257962904
 10
38.330000000000005
 20
66.04
 10
38.330000000000005
 20
65.64
 10
38.36458649527419
 20
65.28883742037097
 10
38.46701684147968
 20
64.95116982174284
 10
38.633354697855424
 20
64.63997358056471
 10
38.85720779386422
 20
64.36720779386421
 10
39.129973580564716
 20
64.14335469785541
 10
39.44116982174284
 20
63.97701684147968
 10
39.77883742037097
 20
63.87458649527419
 10
40.13
 20
63.84
 10
46.13
 20
63.84
 10
46.481162579629036
 20
63.87458649527419
 10
46.818830178257166
 20
63.97701684147968
 10
47.13002641943529
 20
64.14335469785541
 10
47.402792206135786
 20
64.36720779386421
 10
47.62664530214458
 20
64.63997358056471
 10
47.79298315852032
 20
64.95116982174284
 10
47.895413504725816
 20
65.28883742037097
 10
47.93
 20
65.64
  0
TEXT
  5
41
330
17
100
AcDbEntity
  8
NOTES
100
AcDbText
 10
41.13
 20
68.44
 30
0.0
 40
1.2
  1
C2
 11
41.13
 21
68.44
 31
0.0
100
AcDbText
  0
LWPOLYLINE
  5
42
330
17
100
AcDbEntity
  8
OPENINGS
100
AcDbPolyline
 90
36
 70
1
 10
68.53
 20
66.04
 10
68.49541350472582
 20
66.39116257962904
 10
68.39298315852032
 20
66.72883017825717
 10
68.22664530214459
 20
67.04002641943529
 10
68.0027922061358
 20
67.3127922061358
 10
67.73002641943529
 20
67.53664530214459
 10
67.41883017825717
 20
67.70298315852033
 10
67.08116257962904
 20
67.80541350472582
 10
66.73
 20
67.84
 10
60.73
 20
67.84
 10
60.378837420370964
 20
67.80541350472582
 10
60.041169821742834
 20
67.70298315852033
 10
59.72997358056471
 20
67.53664530214459
 10
59.457207793864214
 20
67.3127922061358
 10
59.23335469785542
 20
67.04002641943529
 10
59.06701684147968
 20
66.72883017825717
 10
58.96458649527418
 20
66.39116257962904
 10
58.93
 20
66.04
 10
58.93
 20
65.64
 10
58.96458649527418
 20
65.28883742037097
 10
59.06701684147968
 20
64.95116982174284
 10
59.23335469785542
 20
64.63997358056471
 10
59.457207793864214
 20
64.36720779386421
 10
59.72997358056471
 20
64.14335469785541
 10
60.041169821742834
 20
63.97701684147968
 10
60.378837420370964
 20
63.87458649527419
 10
60.73
 20
63.84
 10
66.73
 20
63.84
 10
67.08116257962904
 20
63.87458649527419
 10
67.41883017825717
 20
63.97701684147968
 10
67.73002641943529
 20
64.14335469785541
 10
68.0027922061358
 20
64.36720779386421
 10
68.22664530214459
 20
64.63997358056471
 10
68.39298315852032
 20
64.95116982174284
 10
68.49541350472582
 20
65.28883742037097
 10
68.53
 20
65.64
  0
TEXT
  5
43
330
17
100
AcDbEntity
  8
NOTES
100
AcDbText
 10
61.73
 20
68.44
 30
0.0
 40
1.2
  1
C5
 11
61.73
 21
68.44
 31
0.0
100
AcDbText
  0
LWPOLYLINE
  5
44
330
17
100
AcDbEntity
  8
OPENINGS
100
AcDbPolyline
 90
36
 70
1
 10
47.93
 20
56.172000000000004
 10
47.895413504725816
 20
56.52316257962904
 10
47.79298315852032
 20
56.86083017825717
 10
47.62664530214458
 20
57.17202641943529
 10
47.402792206135786
 20
57.44479220613579
 10
47.13002641943529
 20
57.66864530214458
 10
46.818830178257166
 20
57.83498315852032
 10
46.481162579629036
 20
57.93741350472582
 10
46.13
 20
57.972
 10
40.13
 20
57.972
 10
39.77883742037097
 20
57.93741350472582
 10
39.44116982174284
 20
57.83498315852032
 10
39.129973580564716
 20
57.66864530214458
 10
38.85720779386422
 20
57.44479220613579
 10
38.633354697855424
 20
57.17202641943529
 10
38.46701684147968
 20
56.86083017825717
 10
38.36458649527419
 20
56.52316257962904
 10
38.330000000000005
 20
56.172000000000004
 10
38.330000000000005
 20
55.772
 10
38.36458649527419
 20
55.420837420370965
 10
38.46701684147968
 20
55.083169821742835
 10
38.633354697855424
 20
54.77197358056471
 10
38.85720779386422
 20
54.499207793864215
 10
39.129973580564716
 20
54.27535469785542
 10
39.44116982174284
 20
54.10901684147968
 10
39.77883742037097
 20
54.006586495274185
 10
40.13
 20
53.972
 10
46.13
 20
53.972
 10
46.481162579629036
 20
54.006586495274185
 10
46.818830178257166
 20
54.10901684147968
 10
47.13002641943529
 20
54.27535469785542
 10
47.402792206135786
 20
54.499207793864215
 10
47.62664530214458
 20
54.77197358056471
 10
47.79298315852032
 20
55.083169821742835
 10
47.895413504725816
 20
55.420837420370965
 10
47.93
 20
55.772
  0
TEXT
  5
45
330
17
100
AcDbEntity
  8
NOTES
100
AcDbText
 10
41.13
 20
58.572
 30
0.0
 40
1.2
  1
C3
 11
41.13
 21
58.572
 31
0.0
100
AcDbText
  0
LWPOLYLINE
  5
46
330
17
100
AcDbEntity
  8
OPENINGS
100
AcDbPolyline
 90
36
 70
1
 10
68.53
 20
56.172000000000004
 10
68.49541350472582
 20
56.52316257962904
 10
68.39298315852032
 20
56.86083017825717
 10
68.22664530214459
 20
57.17202641943529
 10
68.0027922061358
 20
57.44479220613579
 10
67.73002641943529
 20
57.66864530214458
 10
67.41883017825717
 20
57.83498315852032
 10
67.08116257962904
 20
57.93741350472582
 10
66.73
 20
57.972
 10
60.73
 20
57.972
 10
60.378837420370964
 20
57.93741350472582
 10
60.041169821742834
 20
57.83498315852032
 10
59.72997358056471
 20
57.66864530214458
 10
59.457207793864214
 20
57.44479220613579
 10
59.23335469785542
 20
57.17202641943529
 10
59.06701684147968
 20
56.86083017825717
 10
58.96458649527418
 20
56.52316257962904
 10
58.93
 20
56.172000000000004
 10
58.93
 20
55.772
 10
58.96458649527418
 20
55.420837420370965
 10
59.06701684147968
 20
55.083169821742835
 10
59.23335469785542
 20
54.77197358056471
 10
59.457207793864214
 20
54.499207793864215
 10
59.72997358056471
 20
54.27535469785542
 10
60.041169821742834
 20
54.10901684147968
 10
60.378837420370964
 20
54.006586495274185
 10
60.73
 20
53.972
 10
66.73
 20
53.972
 10
67.08116257962904
 20
54.006586495274185
 10
67.41883017825717
 20
54.10901684147968
 10
67.73002641943529
 20
54.27535469785542
 10
68.0027922061358
 20
54.499207793864215
 10
68.22664530214459
 20
54.77197358056471
 10
68.39298315852032
 20
55.083169821742835
 10
68.49541350472582
 20
55.420837420370965
 10
68.53
 20
55.772
  0
TEXT
  5
47
330
17
100
AcDbEntity
  8
NOTES
100
AcDbText
 10
61.73
 20
58.572
 30
0.0
 40
1.2
  1
C6
 11
61.73
 21
58.572
 31
0.0
100
AcDbText
  0
LWPOLYLINE
  5
48
330
17
100
AcDbEntity
  8
OPENINGS
100
AcDbPolyline
 90
36
 70
1
 10
50.055
 20
45.038
 10
50.043471168241936
 20
45.15505419320967
 10
50.00932771950677
 20
45.26761005941905
 10
49.953881767381525
 20
45.37134213981176
 10
49.879264068711926
 20
45.462264068711924
 10
49.78834213981176
 20
45.53688176738152
 10
49.68461005941905
 20
45.59232771950677
 10
49.572054193209674
 20
45.626471168241935
 10
49.455
 20
45.638
 10
36.655
 20
45.638
 10
36.537945806790326
 20
45.626471168241935
 10
36.42538994058095
 20
45.59232771950677
 10
36.32165786018824
 20
45.53688176738152
 10
36.23073593128807
 20
45.462264068711924
 10
36.156118232618475
 20
45.37134213981176
 10
36.10067228049323
 20
45.26761005941905
 10
36.06652883175806
 20
45.15505419320967
 10
36.055
 20
45.038
 10
36.055
 20
40.238
 10
36.06652883175806
 20
40.120945806790324
 10
36.10067228049323
 20
40.00838994058095
 10
36.156118232618475
 20
39.90465786018824
 10
36.23073593128807
 20
39.81373593128807
 10
36.32165786018824
 20
39.73911823261847
 10
36.42538994058095
 20
39.68367228049323
 10
36.537945806790326
 20
39.64952883175806
 10
36.655
 20
39.638
 10
49.455
 20
39.638
 10
49.572054193209674
 20
39.64952883175806
 10
49.68461005941905
 20
39.68367228049323
 10
49.78834213981176
 20
39.73911823261847
 10
49.879264068711926
 20
39.81373593128807
 10
49.953881767381525
 20
39.90465786018824
 10
50.00932771950677
 20
40.00838994058095
 10
50.043471168241936
 20
40.120945806790324
 10
50.055
 20
40.238
  0
TEXT
  5
49
330
17
100
AcDbEntity
  8
NOTES
100
AcDbText
 10
41.055
 20
46.238
 30
0.0
 40
1.2
  1
A1
 11
41.055
 21
46.238
 31
0.0
100
AcDbText
  0
LWPOLYLINE
  5
4A
330
17
100
AcDbEntity
  8
OPENINGS
100
AcDbPolyline
 90
36
 70
1
 10
50.055
 20
34.934999999999995
 10
50.043471168241936
 20
35.05205419320967
 10
50.00932771950677
 20
35.16461005941905
 10
49.953881767381525
 20
35.26834213981176
 10
49.879264068711926
 20
35.35926406871192
 10
49.78834213981176
 20
35.43388176738152
 10
49.68461005941905
 20
35.48932771950677
 10
49.572054193209674
 20
35.52347116824193
 10
49.455
 20
35.535
 10
36.655
 20
35.535
 10
36.537945806790326
 20
35.52347116824193
 10
36.42538994058095
 20
35.48932771950677
 10
36.32165786018824
 20
35.43388176738152
 10
36.23073593128807
 20
35.35926406871192
 10
36.156118232618475
 20
35.26834213981176
 10
36.10067228049323
 20
35.16461005941905
 10
36.06652883175806
 20
35.05205419320967
 10
36.055
 20
34.934999999999995
 10
36.055
 20
30.134999999999998
 10
36.06652883175806
 20
30.017945806790323
 10
36.10067228049323
 20
29.905389940580942
 10
36.156118232618475
 20
29.801657860188236
 10
36.23073593128807
 20
29.71073593128807
 10
36.32165786018824
 20
29.636118232618472
 10
36.42538994058095
 20
29.580672280493225
 10
36.537945806790326
 20
29.54652883175806
 10
36.655
 20
29.534999999999997
 10
49.455
 20
29.534999999999997
 10
49.572054193209674
 20
29.54652883175806
 10
49.68461005941905
 20
29.580672280493225
 10
49.78834213981176
 20
29.636118232618472
 10
49.879264068711926
 20
29.71073593128807
 10
49.953881767381525
 20
29.801657860188236
 10
50.00932771950677
 20
29.905389940580946
 10
50.043471168241936
 20
30.01794580679032
 10
50.055
 20
30.134999999999998
  0
TEXT
  5
4B
330
17
100
AcDbEntity
  8
NOTES
100
AcDbText
 10
41.055
 20
36.135
 30
0.0
 40
1.2
  1
A2
 11
41.055
 21
36.135
 31
0.0
100
AcDbText
  0
LWPOLYLINE
  5
4C
330
17
100
AcDbEntity
  8
OPENINGS
100
AcDbPolyline
 90
36
 70
1
 10
70.697
 20
45.038
 10
70.68547116824195
 20
45.15505419320967
 10
70.65132771950678
 20
45.26761005941905
 10
70.59588176738154
 20
45.37134213981176
 10
70.52126406871194
 20
45.462264068711924
 10
70.43034213981177
 20
45.53688176738152
 10
70.32661005941907
 20
45.59232771950677
 10
70.21405419320969
 20
45.626471168241935
 10
70.09700000000001
 20
45.638
 10
57.297000000000004
 20
45.638
 10
57.17994580679033
 20
45.626471168241935
 10
57.06738994058095
 20
45.59232771950677
 10
56.96365786018824
 20
45.53688176738152
 10
56.87273593128808
 20
45.462264068711924
 10
56.79811823261848
 20
45.37134213981176
 10
56.74267228049323
 20
45.26761005941905
 10
56.708528831758066
 20
45.15505419320967
 10
56.697
 20
45.038
 10
56.697
 20
40.238
 10
56.708528831758066
 20
40.120945806790324
 10
56.74267228049323
 20
40.00838994058095
 10
56.79811823261848
 20
39.90465786018824
 10
56.87273593128808
 20
39.81373593128807
 10
56.96365786018824
 20
39.73911823261847
 10
57.06738994058095
 20
39.68367228049323
 10
57.17994580679033
 20
39.64952883175806
 10
57.297000000000004
 20
39.638
 10
70.09700000000001
 20
39.638
 10
70.21405419320969
 20
39.64952883175806
 10
70.32661005941907
 20
39.68367228049323
 10
70.43034213981177
 20
39.73911823261847
 10
70.52126406871194
 20
39.81373593128807
 10
70.59588176738154
 20
39.90465786018824
 10
70.65132771950678
 20
40.00838994058095
 10
70.68547116824195
 20
40.120945806790324
 10
70.697
 20
40.238
  0
TEXT
  5
4D
330
17
100
AcDbEntity
  8
NOTES
100
AcDbText
 10
61.697
 20
46.238
 30
0.0
 40
1.2
  1
A3
 11
61.697
 21
46.238
 31
0.0
100
AcDbText
  0
LWPOLYLINE
  5
4E
330
17
100
AcDbEntity
  8
OPENINGS
100
AcDbPolyline
 90
36
 70
1
 10
70.697
 20
34.934999999999995
 10
70.68547116824195
 20
35.05205419320967
 10
70.65132771950678
 20
35.16461005941905
 10
70.59588176738154
 20
35.26834213981176
 10
70.52126406871194
 20
35.35926406871192
 10
70.43034213981177
 20
35.43388176738152
 10
70.32661005941907
 20
35.48932771950677
 10
70.21405419320969
 20
35.52347116824193
 10
70.09700000000001
 20
35.535
 10
57.297000000000004
 20
35.535
 10
57.17994580679033
 20
35.52347116824193
 10
57.06738994058095
 20
35.48932771950677
 10
56.96365786018824
 20
35.43388176738152
 10
56.87273593128808
 20
35.35926406871192
 10
56.79811823261848
 20
35.26834213981176
 10
56.74267228049323
 20
35.16461005941905
 10
56.708528831758066
 20
35.05205419320967
 10
56.697
 20
34.934999999999995
 10
56.697
 20
30.134999999999998
 10
56.708528831758066
 20
30.017945806790323
 10
56.74267228049323
 20
29.905389940580942
 10
56.79811823261848
 20
29.801657860188236
 10
56.87273593128808
 20
29.71073593128807
 10
56.96365786018824
 20
29.636118232618472
 10
57.06738994058095
 20
29.580672280493225
 10
57.17994580679033
 20
29.54652883175806
 10
57.297000000000004
 20
29.534999999999997
 10
70.09700000000001
 20
29.534999999999997
 10
70.21405419320969
 20
29.54652883175806
 10
70.32661005941907
 20
29.580672280493225
 10
70.43034213981177
 20
29.636118232618472
 10
70.52126406871194
 20
29.71073593128807
 10
70.59588176738154
 20
29.801657860188236
 10
70.65132771950678
 20
29.905389940580946
 10
70.68547116824195
 20
30.01794580679032
 10
70.697
 20
30.134999999999998
  0
TEXT
  5
4F
330
17
100
AcDbEntity
  8
NOTES
100
AcDbText
 10
61.697
 20
36.135
 30
0.0
 40
1.2
  1
A4
 11
61.697
 21
36.135
 31
0.0
100
AcDbText
  0
LWPOLYLINE
  5
50
330
17
100
AcDbEntity
  8
OPENINGS
100
AcDbPolyline
 90
36
 70
1
 10
70.164
 20
96.107
 10
70.15439264020162
 20
96.20454516100807
 10
70.12593976625564
 20
96.29834171618255
 10
70.07973480615128
 20
96.3847851165098
 10
70.01755339059328
 20
96.46055339059328
 10
69.9417851165098
 20
96.52273480615128
 10
69.85534171618255
 20
96.56893976625564
 10
69.76154516100807
 20
96.59739264020162
 10
69.664
 20
96.607
 10
57.664
 20
96.607
 10
57.56645483899194
 20
96.59739264020162
 10
57.47265828381746
 20
96.56893976625564
 10
57.3862148834902
 20
96.52273480615128
 10
57.310446609406725
 20
96.46055339059328
 10
57.24826519384873
 20
96.3847851165098
 10
57.202060233744355
 20
96.29834171618255
 10
57.17360735979839
 20
96.20454516100807
 10
57.164
 20
96.107
 10
57.164
 20
86.707
 10
57.17360735979839
 20
86.60945483899192
 10
57.202060233744355
 20
86.51565828381744
 10
57.24826519384873
 20
86.42921488349019
 10
57.310446609406725
 20
86.35344660940672
 10
57.3862148834902
 20
86.29126519384872
 10
57.47265828381746
 20
86.24506023374435
 10
57.56645483899194
 20
86.21660735979837
 10
57.664
 20
86.207
 10
69.664
 20
86.207
 10
69.76154516100807
 20
86.21660735979837
 10
69.85534171618255
 20
86.24506023374435
 10
69.9417851165098
 20
86.29126519384872
 10
70.01755339059328
 20
86.35344660940672
 10
70.07973480615128
 20
86.42921488349019
 10
70.12593976625564
 20
86.51565828381744
 10
70.15439264020162
 20
86.60945483899192
 10
70.164
 20
86.707
  0
TEXT
  5
51
330
17
100
AcDbEntity
  8
NOTES
100
AcDbText
 10
61.664
 20
97.207
 30
0.0
 40
1.2
  1
ETH1
 11
61.664
 21
97.207
 31
0.0
100
AcDbText
  0
LWPOLYLINE
  5
52
330
17
100
AcDbEntity
  8
OPENINGS
100
AcDbPolyline
 90
36
 70
1
 10
49.645
 20
96.445
 10
49.635392640201616
 20
96.54254516100806
 10
49.60693976625565
 20
96.63634171618254
 10
49.560734806151274
 20
96.7227851165098
 10
49.49855339059328
 20
96.79855339059327
 10
49.42278511650981
 20
96.86073480615127
 10
49.336341716182545
 20
96.90693976625563
 10
49.24254516100807
 20
96.93539264020161
 10
49.145
 20
96.945
 10
37.145
 20
96.945
 10
37.04745483899194
 20
96.93539264020161
 10
36.95365828381746
 20
96.90693976625563
 10
36.8672148834902
 20
96.86073480615127
 10
36.79144660940673
 20
96.79855339059327
 10
36.72926519384873
 20
96.7227851165098
 10
36.68306023374436
 20
96.63634171618254
 10
36.65460735979839
 20
96.54254516100806
 10
36.645
 20
96.445
 10
36.645
 20
86.745
 10
36.65460735979839
 20
86.64745483899193
 10
36.68306023374436
 20
86.55365828381746
 10
36.72926519384873
 20
86.4672148834902
 10
36.79144660940673
 20
86.39144660940673
 10
36.8672148834902
 20
86.32926519384873
 10
36.95365828381746
 20
86.28306023374437
 10
37.04745483899194
 20
86.25460735979838
 10
37.145
 20
86.245
 10
49.145
 20
86.245
 10
49.24254516100807
 20
86.25460735979838
 10
49.336341716182545
 20
86.28306023374437
 10
49.42278511650981
 20
86.32926519384873
 10
49.49855339059328
 20
86.39144660940673
 10
49.560734806151274
 20
86.4672148834902
 10
49.60693976625565
 20
86.55365828381746
 10
49.635392640201616
 20
86.64745483899193
 10
49.645
 20
86.745
  0
TEXT
  5
53
330
17
100
AcDbEntity
  8
NOTES
100
AcDbText
 10
41.145
 20
97.54499999999999
 30
0.0
 40
1.2
  1
ETH2
 11
41.145
 21
97.54499999999999
 31
0.0
100
AcDbText
  0
LWPOLYLINE
  5
54
330
17
100
AcDbEntity
  8
OPENINGS
100
AcDbPolyline
 90
36
 70
1
 10
71.658
 20
108.919
 10
71.63878528040323
 20
109.11409032201612
 10
71.5818795325113
 20
109.30168343236508
 10
71.48946961230254
 20
109.4745702330196
 10
71.36510678118655
 20
109.62610678118655
 10
71.21357023301961
 20
109.75046961230254
 10
71.04068343236509
 20
109.84287953251129
 10
70.85309032201613
 20
109.89978528040322
 10
70.658
 20
109.919
 10
57.058
 20
109.919
 10
56.86290967798387
 20
109.89978528040322
 10
56.67531656763491
 20
109.84287953251129
 10
56.5024297669804
 20
109.75046961230254
 10
56.350893218813454
 20
109.62610678118655
 10
56.22653038769745
 20
109.4745702330196
 10
56.134120467488714
 20
109.30168343236508
 10
56.07721471959677
 20
109.11409032201612
 10
56.058
 20
108.919
 10
56.058
 20
105.21900000000001
 10
56.07721471959677
 20
105.02390967798388
 10
56.134120467488714
 20
104.83631656763492
 10
56.22653038769745
 20
104.6634297669804
 10
56.350893218813454
 20
104.51189321881346
 10
56.5024297669804
 20
104.38753038769747
 10
56.67531656763491
 20
104.29512046748872
 10
56.86290967798387
 20
104.23821471959678
 10
57.058
 20
104.21900000000001
 10
70.658
 20
104.21900000000001
 10
70.85309032201613
 20
104.23821471959678
 10
71.04068343236509
 20
104.29512046748872
 10
71.21357023301961
 20
104.38753038769747
 10
71.36510678118655
 20
104.51189321881346
 10
71.48946961230254
 20
104.6634297669804
 10
71.5818795325113
 20
104.83631656763492
 10
71.63878528040323
 20
105.02390967798388
 10
71.658
 20
105.21900000000001
  0
TEXT
  5
55
330
17
100
AcDbEntity
  8
NOTES
100
AcDbText
 10
61.858
 20
110.51899999999999
 30
0.0
 40
1.2
  1
HDMI
 11
61.858
 21
110.51899999999999
 31
0.0
100
AcDbText
  0
LWPOLYLINE
  5
56
330
17
100
AcDbEntity
  8
OPENINGS
100
AcDbPolyline
 90
36
 70
1
 10
70.57499999999999
 20
139.475
 10
70.51735584120968
 20
140.0602709660484
 10
70.34663859753385
 20
140.62305029709526
 10
70.06940883690763
 20
141.1417106990588
 10
69.69632034355963
 20
141.59632034355963
 10
69.2417106990588
 20
141.96940883690763
 10
68.72305029709526
 20
142.24663859753386
 10
68.16027096604837
 20
142.41735584120968
 10
67.57499999999999
 20
142.475
 10
39.025
 20
142.475
 10
38.439729033951615
 20
142.41735584120968
 10
37.87694970290473
 20
142.24663859753386
 10
37.358289300941195
 20
141.96940883690763
 10
36.90367965644035
 20
141.59632034355963
 10
36.53059116309236
 20
141.1417106990588
 10
36.25336140246614
 20
140.62305029709526
 10
36.08264415879031
 20
140.0602709660484
 10
36.025
 20
139.475
 10
36.025
 20
120.825
 10
36.08264415879031
 20
120.23972903395162
 10
36.25336140246614
 20
119.67694970290474
 10
36.53059116309236
 20
119.15828930094119
 10
36.90367965644035
 20
118.70367965644036
 10
37.358289300941195
 20
118.33059116309236
 10
37.87694970290473
 20
118.05336140246614
 10
38.439729033951615
 20
117.88264415879031
 10
39.025
 20
117.825
 10
67.57499999999999
 20
117.825
 10
68.16027096604837
 20
117.88264415879031
 10
68.72305029709526
 20
118.05336140246614
 10
69.2417106990588
 20
118.33059116309236
 10
69.69632034355963
 20
118.70367965644036
 10
70.06940883690763
 20
119.15828930094119
 10
70.34663859753385
 20
119.67694970290474
 10
70.51735584120968
 20
120.23972903395162
 10
70.57499999999999
 20
120.825
  0
TEXT
  5
57
330
17
100
AcDbEntity
  8
NOTES
100
AcDbText
 10
51.3
 20
143.075
 30
0.0
 40
1.2
  1
AC
 11
51.3
 21
143.075
 31
0.0
100
AcDbText
  0
CIRCLE
  5
58
330
17
100
AcDbEntity
  8
OPENINGS
100
AcDbCircle
 10
42.17
 20
19.42
 30
0.0
 40
2.65
  0
CIRCLE
  5
59
330
17
100
AcDbEntity
  8
OPENINGS
100
AcDbCircle
 10
63.41
 20
19.1
 30
0.0
 40
2.65
  0
CIRCLE
  5
5A
330
17
100
AcDbEntity
  8
OPENINGS
100
AcDbCircle
 10
43.023
 20
108.111
 30
0.0
 40
6.2
  0
LWPOLYLINE
  5
5B
330
17
100
AcDbEntity
  8
LIGHT_WINDOWS
100
AcDbPolyline
 90
36
 70
1
 10
66.91
 20
113.294
 10
66.89847116824194
 20
113.41105419320968
 10
66.86432771950678
 20
113.52361005941906
 10
66.80888176738154
 20
113.62734213981176
 10
66.73426406871194
 20
113.71826406871193
 10
66.64334213981176
 20
113.79288176738153
 10
66.53961005941906
 20
113.84832771950677
 10
66.42705419320968
 20
113.88247116824193
 10
66.31
 20
113.89399999999999
 10
60.51
 20
113.89399999999999
 10
60.39294580679032
 20
113.88247116824193
 10
60.280389940580946
 20
113.84832771950677
 10
60.176657860188236
 20
113.79288176738153
 10
60.08573593128807
 20
113.71826406871193
 10
60.01111823261847
 20
113.62734213981176
 10
59.955672280493225
 20
113.52361005941906
 10
59.92152883175806
 20
113.41105419320968
 10
59.91
 20
113.294
 10
59.91
 20
112.89399999999999
 10
59.92152883175806
 20
112.77694580679031
 10
59.955672280493225
 20
112.66438994058093
 10
60.01111823261847
 20
112.56065786018823
 10
60.08573593128807
 20
112.46973593128806
 10
60.176657860188236
 20
112.39511823261846
 10
60.280389940580946
 20
112.33967228049322
 10
60.39294580679032
 20
112.30552883175805
 10
60.51
 20
112.294
 10
66.31
 20
112.294
 10
66.42705419320968
 20
112.30552883175805
 10
66.53961005941906
 20
112.33967228049322
 10
66.64334213981176
 20
112.39511823261846
 10
66.73426406871194
 20
112.46973593128806
 10
66.80888176738154
 20
112.56065786018823
 10
66.86432771950678
 20
112.66438994058093
 10
66.89847116824194
 20
112.77694580679031
 10
66.91
 20
112.89399999999999
  0
LWPOLYLINE
  5
5C
330
17
100
AcDbEntity
  8
LIGHT_WINDOWS
100
AcDbPolyline
 90
36
 70
1
 10
54.906
 20
93.767
 10
54.88678528040323
 20
93.96209032201612
 10
54.829879532511285
 20
94.14968343236508
 10
54.73746961230255
 20
94.3225702330196
 10
54.613106781186545
 20
94.47410678118655
 10
54.4615702330196
 20
94.59846961230254
 10
54.28868343236509
 20
94.69087953251129
 10
54.10109032201613
 20
94.74778528040322
 10
53.906
 20
94.767
 10
52.906
 20
94.767
 10
52.71090967798387
 20
94.74778528040322
 10
52.52331656763491
 20
94.69087953251129
 10
52.3504297669804
 20
94.59846961230254
 10
52.19889321881345
 20
94.47410678118655
 10
52.07453038769745
 20
94.3225702330196
 10
51.98212046748871
 20
94.14968343236508
 10
51.92521471959677
 20
93.96209032201612
 10
51.906
 20
93.767
 10
51.906
 20
90.767
 10
51.92521471959677
 20
90.57190967798387
 10
51.98212046748871
 20
90.38431656763491
 10
52.07453038769745
 20
90.21142976698039
 10
52.19889321881345
 20
90.05989321881344
 10
52.3504297669804
 20
89.93553038769745
 10
52.52331656763491
 20
89.8431204674887
 10
52.71090967798387
 20
89.78621471959677
 10
52.906
 20
89.767
 10
53.906
 20
89.767
 10
54.10109032201613
 20
89.78621471959677
 10
54.28868343236509
 20
89.8431204674887
 10
54.4615702330196
 20
89.93553038769745
 10
54.613106781186545
 20
90.05989321881344
 10
54.73746961230255
 20
90.21142976698039
 10
54.829879532511285
 20
90.38431656763491
 10
54.88678528040323
 20
90.57190967798387
 10
54.906
 20
90.767
  0
LWPOLYLINE
  5
5D
330
17
100
AcDbEntity
  8
LIGHT_WINDOWS
100
AcDbPolyline
 90
36
 70
1
 10
54.961
 20
67.441
 10
54.94178528040323
 20
67.63609032201613
 10
54.884879532511285
 20
67.82368343236509
 10
54.79246961230255
 20
67.99657023301961
 10
54.668106781186545
 20
68.14810678118656
 10
54.5165702330196
 20
68.27246961230254
 10
54.34368343236509
 20
68.3648795325113
 10
54.15609032201613
 20
68.42178528040323
 10
53.961
 20
68.441
 10
52.961
 20
68.441
 10
52.76590967798387
 20
68.42178528040323
 10
52.57831656763491
 20
68.3648795325113
 10
52.4054297669804
 20
68.27246961230254
 10
52.25389321881345
 20
68.14810678118656
 10
52.12953038769745
 20
67.99657023301961
 10
52.03712046748871
 20
67.82368343236509
 10
51.980214719596766
 20
67.63609032201613
 10
51.961
 20
67.441
 10
51.961
 20
64.441
 10
51.980214719596766
 20
64.24590967798387
 10
52.03712046748871
 20
64.05831656763492
 10
52.12953038769745
 20
63.8854297669804
 10
52.25389321881345
 20
63.733893218813456
 10
52.4054297669804
 20
63.609530387697454
 10
52.57831656763491
 20
63.517120467488716
 10
52.76590967798387
 20
63.46021471959677
 10
52.961
 20
63.441
 10
53.961
 20
63.441
 10
54.15609032201613
 20
63.46021471959677
 10
54.34368343236509
 20
63.517120467488716
 10
54.5165702330196
 20
63.609530387697454
 10
54.668106781186545
 20
63.733893218813456
 10
54.79246961230255
 20
63.8854297669804
 10
54.884879532511285
 20
64.05831656763492
 10
54.94178528040323
 20
64.24590967798387
 10
54.961
 20
64.441
  0
LWPOLYLINE
  5
5E
330
17
100
AcDbEntity
  8
LIGHT_WINDOWS
100
AcDbPolyline
 90
36
 70
1
 10
54.855
 20
39.92
 10
54.83578528040323
 20
40.11509032201613
 10
54.77887953251128
 20
40.30268343236509
 10
54.686469612302545
 20
40.4755702330196
 10
54.56210678118654
 20
40.62710678118655
 10
54.4105702330196
 20
40.75146961230255
 10
54.23768343236509
 20
40.84387953251129
 10
54.050090322016125
 20
40.900785280403234
 10
53.855
 20
40.92
 10
52.855
 20
40.92
 10
52.65990967798387
 20
40.900785280403234
 10
52.472316567634905
 20
40.84387953251129
 10
52.299429766980396
 20
40.75146961230255
 10
52.14789321881345
 20
40.62710678118655
 10
52.02353038769745
 20
40.4755702330196
 10
51.93112046748871
 20
40.30268343236509
 10
51.874214719596765
 20
40.11509032201613
 10
51.855
 20
39.92
 10
51.855
 20
35.92
 10
51.874214719596765
 20
35.724909677983874
 10
51.93112046748871
 20
35.53731656763491
 10
52.02353038769745
 20
35.3644297669804
 10
52.14789321881345
 20
35.212893218813456
 10
52.299429766980396
 20
35.08853038769745
 10
52.472316567634905
 20
34.996120467488716
 10
52.65990967798387
 20
34.93921471959677
 10
52.855
 20
34.92
 10
53.855
 20
34.92
 10
54.050090322016125
 20
34.93921471959677
 10
54.23768343236509
 20
34.996120467488716
 10
54.4105702330196
 20
35.08853038769745
 10
54.56210678118654
 20
35.212893218813456
 10
54.686469612302545
 20
35.3644297669804
 10
54.77887953251128
 20
35.53731656763491
 10
54.83578528040323
 20
35.724909677983874
 10
54.855
 20
35.92
  0
LWPOLYLINE
  5
5F
330
17
100
AcDbEntity
  8
LIGHT_WINDOWS
100
AcDbPolyline
 90
36
 70
1
 10
45.203
 20
12.800999999999998
 10
45.18762822432259
 20
12.957072257612902
 10
45.14210362600903
 20
13.10714674589207
 10
45.06817568984204
 20
13.24545618641568
 10
44.96868542494924
 20
13.366685424949237
 10
44.84745618641569
 20
13.466175689842034
 10
44.70914674589208
 20
13.540103626009028
 10
44.55907225761291
 20
13.585628224322583
 10
44.403000000000006
 20
13.600999999999999
 10
42.003
 20
13.600999999999999
 10
41.846927742387095
 20
13.585628224322583
 10
41.69685325410793
 20
13.540103626009028
 10
41.558543813584315
 20
13.466175689842034
 10
41.43731457505076
 20
13.366685424949237
 10
41.33782431015796
 20
13.24545618641568
 10
41.263896373990974
 20
13.10714674589207
 10
41.21837177567742
 20
12.9570722576129
 10
41.203
 20
12.800999999999998
 10
41.203
 20
12.001000000000001
 10
41.21837177567742
 20
11.844927742387098
 10
41.263896373990974
 20
11.69485325410793
 10
41.33782431015796
 20
11.55654381358432
 10
41.43731457505076
 20
11.435314575050763
 10
41.55854381358432
 20
11.335824310157966
 10
41.69685325410793
 20
11.261896373990972
 10
41.846927742387095
 20
11.216371775677416
 10
42.003
 20
11.201
 10
44.403000000000006
 20
11.201
 10
44.55907225761291
 20
11.216371775677416
 10
44.70914674589208
 20
11.261896373990972
 10
44.847456186415684
 20
11.335824310157964
 10
44.96868542494924
 20
11.435314575050763
 10
45.06817568984204
 20
11.55654381358432
 10
45.14210362600903
 20
11.69485325410793
 10
45.18762822432259
 20
11.844927742387098
 10
45.203
 20
12.001000000000001
  0
LWPOLYLINE
  5
60
330
17
100
AcDbEntity
  8
LIGHT_WINDOWS
100
AcDbPolyline
 90
36
 70
1
 10
65.428
 20
12.800999999999998
 10
65.41262822432259
 20
12.957072257612902
 10
65.36710362600903
 20
13.10714674589207
 10
65.29317568984203
 20
13.24545618641568
 10
65.19368542494924
 20
13.366685424949237
 10
65.07245618641568
 20
13.466175689842034
 10
64.93414674589208
 20
13.540103626009028
 10
64.7840722576129
 20
13.585628224322583
 10
64.628
 20
13.600999999999999
 10
62.227999999999994
 20
13.600999999999999
 10
62.07192774238709
 20
13.585628224322583
 10
61.92185325410792
 20
13.540103626009028
 10
61.78354381358431
 20
13.466175689842034
 10
61.66231457505076
 20
13.366685424949237
 10
61.56282431015796
 20
13.24545618641568
 10
61.48889637399097
 20
13.10714674589207
 10
61.44337177567741
 20
12.9570722576129
 10
61.428
 20
12.800999999999998
 10
61.428
 20
12.001000000000001
 10
61.44337177567741
 20
11.844927742387098
 10
61.48889637399097
 20
11.69485325410793
 10
61.56282431015796
 20
11.55654381358432
 10
61.66231457505076
 20
11.435314575050763
 10
61.783543813584316
 20
11.335824310157966
 10
61.92185325410792
 20
11.261896373990972
 10
62.07192774238709
 20
11.216371775677416
 10
62.227999999999994
 20
11.201
 10
64.628
 20
11.201
 10
64.7840722576129
 20
11.216371775677416
 10
64.93414674589208
 20
11.261896373990972
 10
65.07245618641568
 20
11.335824310157964
 10
65.19368542494924
 20
11.435314575050763
 10
65.29317568984203
 20
11.55654381358432
 10
65.36710362600903
 20
11.69485325410793
 10
65.41262822432259
 20
11.844927742387098
 10
65.428
 20
12.001000000000001
  0
CIRCLE
  5
61
330
17
100
AcDbEntity
  8
PINS
100
AcDbCircle
 10
53.886
 20
75.41
 30
0.0
 40
1.2
  0
CIRCLE
  5
62
330
17
100
AcDbEntity
  8
PINS
100
AcDbCircle
 10
52.326
 20
19.23
 30
0.0
 40
1.2
  0
CIRCLE
  5
63
330
17
100
AcDbEntity
  8
PINS
100
AcDbCircle
 10
49.653
 20
113.531
 30
0.0
 40
0.7
  0
CIRCLE
  5
64
330
17
100
AcDbEntity
  8
PINS
100
AcDbCircle
 10
36.233
 20
103.031
 30
0.0
 40
0.7
  0
CIRCLE
  5
65
330
17
100
AcDbEntity
  8
SCREWS
100
AcDbCircle
 10
30.639999999999997
 20
148.95
 30
0.0
 40
1.625
  0
CIRCLE
  5
66
330
17
100
AcDbEntity
  8
SCREWS
100
AcDbCircle
 10
30.639999999999997
 20
148.95
 30
0.0
 40
0.9
  0
CIRCLE
  5
67
330
17
100
AcDbEntity
  8
SCREW_BOSSES
100
AcDbCircle
 10
30.639999999999997
 20
148.95
 30
0.0
 40
1.4
  0
TEXT
  5
68
330
17
100
AcDbEntity
  8
NOTES
100
AcDbText
 10
27.639999999999997
 20
151.14999999999998
 30
0.0
 40
0.8
  1
SCR_T- M1.6 csk 90 Ø3.25 / Ø1.80 thru
 11
27.639999999999997
 21
151.14999999999998
 31
0.0
100
AcDbText
  0
CIRCLE
  5
69
330
17
100
AcDbEntity
  8
SCREWS
100
AcDbCircle
 10
75.74
 20
148.95
 30
0.0
 40
1.625
  0
CIRCLE
  5
6A
330
17
100
AcDbEntity
  8
SCREWS
100
AcDbCircle
 10
75.74
 20
148.95
 30
0.0
 40
0.9
  0
CIRCLE
  5
6B
330
17
100
AcDbEntity
  8
SCREW_BOSSES
100
AcDbCircle
 10
75.74
 20
148.95
 30
0.0
 40
1.4
  0
TEXT
  5
6C
330
17
100
AcDbEntity
  8
NOTES
100
AcDbText
 10
72.74
 20
151.14999999999998
 30
0.0
 40
0.8
  1
SCR_T+ M1.6 csk 90 Ø3.25 / Ø1.80 thru
 11
72.74
 21
151.14999999999998
 31
0.0
100
AcDbText
  0
CIRCLE
  5
6D
330
17
100
AcDbEntity
  8
SCREWS
100
AcDbCircle
 10
30.639999999999997
 20
13.7
 30
0.0
 40
1.625
  0
CIRCLE
  5
6E
330
17
100
AcDbEntity
  8
SCREWS
100
AcDbCircle
 10
30.639999999999997
 20
13.7
 30
0.0
 40
0.9
  0
CIRCLE
  5
6F
330
17
100
AcDbEntity
  8
SCREW_BOSSES
100
AcDbCircle
 10
30.639999999999997
 20
13.7
 30
0.0
 40
1.4
  0
TEXT
  5
70
330
17
100
AcDbEntity
  8
NOTES
100
AcDbText
 10
27.639999999999997
 20
15.899999999999999
 30
0.0
 40
0.8
  1
SCR_B- M1.6 csk 90 Ø3.25 / Ø1.80 thru
 11
27.639999999999997
 21
15.899999999999999
 31
0.0
100
AcDbText
  0
CIRCLE
  5
71
330
17
100
AcDbEntity
  8
SCREWS
100
AcDbCircle
 10
75.74
 20
13.7
 30
0.0
 40
1.625
  0
CIRCLE
  5
72
330
17
100
AcDbEntity
  8
SCREWS
100
AcDbCircle
 10
75.74
 20
13.7
 30
0.0
 40
0.9
  0
CIRCLE
  5
73
330
17
100
AcDbEntity
  8
SCREW_BOSSES
100
AcDbCircle
 10
75.74
 20
13.7
 30
0.0
 40
1.4
  0
TEXT
  5
74
330
17
100
AcDbEntity
  8
NOTES
100
AcDbText
 10
72.74
 20
15.899999999999999
 30
0.0
 40
0.8
  1
SCR_B+ M1.6 csk 90 Ø3.25 / Ø1.80 thru
 11
72.74
 21
15.899999999999999
 31
0.0
100
AcDbText
  0
CIRCLE
  5
75
330
17
100
AcDbEntity
  8
SCREWS
100
AcDbCircle
 10
53.763664063488605
 20
75.46949133564218
 30
0.0
 40
1.625
  0
CIRCLE
  5
76
330
17
100
AcDbEntity
  8
SCREWS
100
AcDbCircle
 10
53.763664063488605
 20
75.46949133564218
 30
0.0
 40
0.9
  0
CIRCLE
  5
77
330
17
100
AcDbEntity
  8
SCREW_BOSSES
100
AcDbCircle
 10
53.763664063488605
 20
75.46949133564218
 30
0.0
 40
1.3
  0
TEXT
  5
78
330
17
100
AcDbEntity
  8
NOTES
100
AcDbText
 10
50.763664063488605
 20
77.66949133564218
 30
0.0
 40
0.8
  1
SCR_C1 M1.6 csk 90 Ø3.25 / Ø1.80 thru
 11
50.763664063488605
 21
77.66949133564218
 31
0.0
100
AcDbText
  0
CIRCLE
  5
79
330
17
100
AcDbEntity
  8
BUTTON_INNER_FEATURES
100
AcDbCircle
 10
43.023
 20
108.111
 30
0.0
 40
7.5
  0
CIRCLE
  5
7A
330
17
100
AcDbEntity
  8
BUTTON_INNER_FEATURES
100
AcDbCircle
 10
43.023
 20
108.111
 30
0.0
 40
6.2
  0
LWPOLYLINE
  5
7B
330
17
100
AcDbEntity
  8
BUTTON_INNER_FEATURES
100
AcDbPolyline
 90
4
 70
1
 10
38.49631279075966
 20
113.60637104386046
 10
36.35138835002652
 20
115.40617635098276
 10
34.680140564841516
 20
113.4144607988734
 10
36.82506500557466
 20
111.61465549175111
  0
CIRCLE
  5
7C
330
17
100
AcDbEntity
  8
BUTTON_INNER_FEATURES
100
AcDbCircle
 10
49.653
 20
113.531
 30
0.0
 40
1.5
  0
CIRCLE
  5
7D
330
17
100
AcDbEntity
  8
BUTTON_INNER_FEATURES
100
AcDbCircle
 10
49.653
 20
113.531
 30
0.0
 40
0.55
  0
CIRCLE
  5
7E
330
17
100
AcDbEntity
  8
BUTTON_INNER_FEATURES
100
AcDbCircle
 10
36.233
 20
103.031
 30
0.0
 40
1.5
  0
CIRCLE
  5
7F
330
17
100
AcDbEntity
  8
BUTTON_INNER_FEATURES
100
AcDbCircle
 10
36.233
 20
103.031
 30
0.0
 40
0.55
  0
LWPOLYLINE
  5
80
330
17
100
AcDbEntity
  8
BUTTON_INNER_FEATURES
100
AcDbPolyline
 90
36
 70
1
 10
51.48
 20
108.7
 10
51.47615705608064
 20
108.73901806440323
 10
51.464775906502254
 20
108.77653668647302
 10
51.446293922460505
 20
108.81111404660392
 10
51.4214213562373
 20
108.84142135623732
 10
51.39111404660392
 20
108.86629392246051
 10
51.356536686473014
 20
108.88477590650226
 10
51.31901806440322
 20
108.89615705608065
 10
51.279999999999994
 20
108.9
 10
51.18
 20
108.9
 10
51.14098193559678
 20
108.89615705608065
 10
51.10346331352698
 20
108.88477590650226
 10
51.06888595339608
 20
108.86629392246051
 10
51.03857864376269
 20
108.84142135623732
 10
51.01370607753949
 20
108.81111404660392
 10
50.99522409349774
 20
108.77653668647302
 10
50.983842943919356
 20
108.73901806440323
 10
50.98
 20
108.7
 10
50.98
 20
103.49999999999999
 10
50.983842943919356
 20
103.46098193559676
 10
50.99522409349774
 20
103.42346331352697
 10
51.01370607753949
 20
103.38888595339607
 10
51.03857864376269
 20
103.35857864376267
 10
51.06888595339608
 20
103.33370607753947
 10
51.10346331352698
 20
103.31522409349773
 10
51.14098193559678
 20
103.30384294391934
 10
51.18
 20
103.29999999999998
 10
51.279999999999994
 20
103.29999999999998
 10
51.31901806440322
 20
103.30384294391934
 10
51.356536686473014
 20
103.31522409349773
 10
51.39111404660392
 20
103.33370607753947
 10
51.4214213562373
 20
103.35857864376267
 10
51.446293922460505
 20
103.38888595339607
 10
51.464775906502254
 20
103.42346331352697
 10
51.47615705608064
 20
103.46098193559676
 10
51.48
 20
103.49999999999999
  0
TEXT
  5
81
330
17
100
AcDbEntity
  8
NOTES
100
AcDbText
 10
23.189999999999998
 20
-19.0
 30
0.0
 40
0.9
  1
BUTTON_INNER_FEATURES (inner face): RAISED collar OD 15.0 / ID 12.4 x 0.80 high + key tab, 2 ear bosss Ø3.0 x 1.00 (pilot/core Ø1.10 for M1.4 x 2.5 thread-forming), rib 0.5 x 5.6 x 1.0
 11
23.189999999999998
 21
-19.0
 31
0.0
100
AcDbText
  0
TEXT
  5
82
330
17
100
AcDbEntity
  8
NOTES
100
AcDbText
 10
23.189999999999998
 20
-16.0
 30
0.0
 40
1.2
  1
GLUE_LANDS_OPTIONAL = fallback only (default fixing: 4x M1.6 screws, layer SCREWS)
 11
23.189999999999998
 21
-16.0
 31
0.0
100
AcDbText
  0
TEXT
  5
83
330
17
100
AcDbEntity
  8
NOTES
100
AcDbText
 10
23.189999999999998
 20
-12.0
 30
0.0
 40
2.0
  1
MP62 IO plate v2 A0 - backview - mm - Y up = MEG/base end
 11
23.189999999999998
 21
-12.0
 31
0.0
100
AcDbText
  0
ENDSEC
  0
SECTION
  2
OBJECTS
  0
DICTIONARY
  5
A
330
0
100
AcDbDictionary
281
1
  3
ACAD_COLOR
350
B
  3
ACAD_GROUP
350
C
  3
ACAD_LAYOUT
350
D
  3
ACAD_MATERIAL
350
E
  3
ACAD_MLEADERSTYLE
350
F
  3
ACAD_MLINESTYLE
350
10
  3
ACAD_PLOTSETTINGS
350
11
  3
ACAD_PLOTSTYLENAME
350
12
  3
ACAD_SCALELIST
350
14
  3
ACAD_TABLESTYLE
350
15
  3
ACAD_VISUALSTYLE
350
16
  3
EZDXF_META
350
2D
  0
DICTIONARY
  5
B
330
A
100
AcDbDictionary
281
1
  0
DICTIONARY
  5
C
330
A
100
AcDbDictionary
281
1
  0
DICTIONARY
  5
D
330
A
100
AcDbDictionary
281
1
  3
Model
350
1A
  3
Layout1
350
1E
  0
DICTIONARY
  5
E
330
A
100
AcDbDictionary
281
1
  3
ByBlock
350
1F
  3
ByLayer
350
20
  3
Global
350
21
  0
DICTIONARY
  5
F
330
A
100
AcDbDictionary
281
1
  3
Standard
350
2C
  0
DICTIONARY
  5
10
330
A
100
AcDbDictionary
281
1
  3
Standard
350
22
  0
DICTIONARY
  5
11
330
A
100
AcDbDictionary
281
1
  0
ACDBDICTIONARYWDFLT
  5
12
330
A
100
AcDbDictionary
281
1
  3
Normal
350
13
100
AcDbDictionaryWithDefault
340
13
  0
ACDBPLACEHOLDER
  5
13
330
12
  0
DICTIONARY
  5
14
330
A
100
AcDbDictionary
281
1
  0
DICTIONARY
  5
15
330
A
100
AcDbDictionary
281
1
  0
DICTIONARY
  5
16
330
A
100
AcDbDictionary
281
1
  0
LAYOUT
  5
1A
330
D
100
AcDbPlotSettings
  1

  4
A3
  6

 40
7.5
 41
20.0
 42
7.5
 43
20.0
 44
420.0
 45
297.0
 46
0.0
 47
0.0
 48
0.0
 49
0.0
140
0.0
141
0.0
142
1.0
143
1.0
 70
1024
 72
1
 73
0
 74
5
  7

 75
16
 76
0
 77
2
 78
300
147
1.0
148
0.0
149
0.0
100
AcDbLayout
  1
Model
 70
1
 71
0
 10
0.0
 20
0.0
 11
420.0
 21
297.0
 12
0.0
 22
0.0
 32
0.0
 14
1e+20
 24
1e+20
 34
1e+20
 15
-1e+20
 25
-1e+20
 35
-1e+20
146
0.0
 13
0.0
 23
0.0
 33
0.0
 16
1.0
 26
0.0
 36
0.0
 17
0.0
 27
1.0
 37
0.0
 76
1
330
17
  0
LAYOUT
  5
1E
330
D
100
AcDbPlotSettings
  1

  4
A3
  6

 40
7.5
 41
20.0
 42
7.5
 43
20.0
 44
420.0
 45
297.0
 46
0.0
 47
0.0
 48
0.0
 49
0.0
140
0.0
141
0.0
142
1.0
143
1.0
 70
0
 72
1
 73
0
 74
5
  7

 75
16
 76
0
 77
2
 78
300
147
1.0
148
0.0
149
0.0
100
AcDbLayout
  1
Layout1
 70
1
 71
1
 10
0.0
 20
0.0
 11
420.0
 21
297.0
 12
0.0
 22
0.0
 32
0.0
 14
1e+20
 24
1e+20
 34
1e+20
 15
-1e+20
 25
-1e+20
 35
-1e+20
146
0.0
 13
0.0
 23
0.0
 33
0.0
 16
1.0
 26
0.0
 36
0.0
 17
0.0
 27
1.0
 37
0.0
 76
1
330
1B
  0
MATERIAL
  5
1F
102
{ACAD_REACTORS
330
E
102
}
330
E
100
AcDbMaterial
  1
ByBlock
  2

 70
0
 40
1.0
 71
1
 41
1.0
 91
-1023410177
 42
1.0
 72
1
  3

 73
1
 74
1
 75
1
 44
0.5
 73
0
 45
1.0
 46
1.0
 77
1
  4

 78
1
 79
1
170
1
 48
1.0
171
1
  6

172
1
173
1
174
1
140
1.0
141
1.0
175
1
  7

176
1
177
1
178
1
143
1.0
179
1
  8

270
1
271
1
272
1
145
1.0
146
1.0
273
1
  9

274
1
275
1
276
1
 42
1.0
 72
1
  3

 73
1
 74
1
 75
1
 94
63
  0
MATERIAL
  5
20
102
{ACAD_REACTORS
330
E
102
}
330
E
100
AcDbMaterial
  1
ByLayer
  2

 70
0
 40
1.0
 71
1
 41
1.0
 91
-1023410177
 42
1.0
 72
1
  3

 73
1
 74
1
 75
1
 44
0.5
 73
0
 45
1.0
 46
1.0
 77
1
  4

 78
1
 79
1
170
1
 48
1.0
171
1
  6

172
1
173
1
174
1
140
1.0
141
1.0
175
1
  7

176
1
177
1
178
1
143
1.0
179
1
  8

270
1
271
1
272
1
145
1.0
146
1.0
273
1
  9

274
1
275
1
276
1
 42
1.0
 72
1
  3

 73
1
 74
1
 75
1
 94
63
  0
MATERIAL
  5
21
102
{ACAD_REACTORS
330
E
102
}
330
E
100
AcDbMaterial
  1
Global
  2

 70
0
 40
1.0
 71
1
 41
1.0
 91
-1023410177
 42
1.0
 72
1
  3

 73
1
 74
1
 75
1
 44
0.5
 73
0
 45
1.0
 46
1.0
 77
1
  4

 78
1
 79
1
170
1
 48
1.0
171
1
  6

172
1
173
1
174
1
140
1.0
141
1.0
175
1
  7

176
1
177
1
178
1
143
1.0
179
1
  8

270
1
271
1
272
1
145
1.0
146
1.0
273
1
  9

274
1
275
1
276
1
 42
1.0
 72
1
  3

 73
1
 74
1
 75
1
 94
63
  0
MLINESTYLE
  5
22
102
{ACAD_REACTORS
330
10
102
}
330
10
100
AcDbMlineStyle
  2
Standard
 70
0
  3

 62
256
 51
90.0
 52
90.0
 71
2
 49
0.5
 62
256
  6
BYLAYER
 49
-0.5
 62
256
  6
BYLAYER
  0
MLEADERSTYLE
  5
2C
102
{ACAD_REACTORS
330
F
102
}
330
F
100
AcDbMLeaderStyle
179
2
170
2
171
1
172
0
 90
2
 40
0.0
 41
0.0
173
1
 91
-1056964608
 92
-2
290
1
 42
2.0
291
1
 43
8.0
  3
Standard
 44
4.0
300

342
29
174
1
175
1
176
0
178
1
 93
-1056964608
 45
4.0
292
0
297
0
 46
4.0
 94
-1056964608
 47
1.0
 49
1.0
140
1.0
294
1
141
0.0
177
0
142
1.0
295
0
296
0
143
3.75
271
0
272
9
273
9
  0
DICTIONARY
  5
2D
330
A
100
AcDbDictionary
280
1
281
1
  3
CREATED_BY_EZDXF
350
2E
  3
WRITTEN_BY_EZDXF
350
86
  0
DICTIONARYVAR
  5
2E
330
2D
100
DictionaryVariables
280
0
  1
1.4.4 @ 2026-10-04T19:57:39.839639+00:00
  0
DICTIONARYVAR
  5
86
330
2D
100
DictionaryVariables
280
0
  1
1.4.4 @ 2026-10-04T19:57:39.845837+00:00
  0
ENDSEC
  0
EOF
