  0
SECTION
  2
HEADER
  9
$ACADVER
  1
AC1024
  9
$ACADMAINTVER
 70
6
  9
$DWGCODEPAGE
  3
ANSI_1252
  9
$LASTSAVEDBY
  1
ezdxf
  9
$INSBASE
 10
0.0
 20
0.0
 30
0.0
  9
$EXTMIN
 10
1e+20
 20
1e+20
 30
1e+20
  9
$EXTMAX
 10
-1e+20
 20
-1e+20
 30
-1e+20
  9
$LIMMIN
 10
0.0
 20
0.0
  9
$LIMMAX
 10
420.0
 20
297.0
  9
$ORTHOMODE
 70
0
  9
$REGENMODE
 70
1
  9
$FILLMODE
 70
1
  9
$QTEXTMODE
 70
0
  9
$MIRRTEXT
 70
1
  9
$LTSCALE
 40
1.0
  9
$ATTMODE
 70
1
  9
$TEXTSIZE
 40
2.5
  9
$TRACEWID
 40
1.0
  9
$TEXTSTYLE
  7
Standard
  9
$CLAYER
  8
0
  9
$CELTYPE
  6
ByLayer
  9
$CECOLOR
 62
256
  9
$CELTSCALE
 40
1.0
  9
$DISPSILH
 70
0
  9
$DIMSCALE
 40
1.0
  9
$DIMASZ
 40
2.5
  9
$DIMEXO
 40
0.625
  9
$DIMDLI
 40
3.75
  9
$DIMRND
 40
0.0
  9
$DIMDLE
 40
0.0
  9
$DIMEXE
 40
1.25
  9
$DIMTP
 40
0.0
  9
$DIMTM
 40
0.0
  9
$DIMTXT
 40
2.5
  9
$DIMCEN
 40
2.5
  9
$DIMTSZ
 40
0.0
  9
$DIMTOL
 70
0
  9
$DIMLIM
 70
0
  9
$DIMTIH
 70
0
  9
$DIMTOH
 70
0
  9
$DIMSE1
 70
0
  9
$DIMSE2
 70
0
  9
$DIMTAD
 70
1
  9
$DIMZIN
 70
8
  9
$DIMBLK
  1

  9
$DIMASO
 70
1
  9
$DIMSHO
 70
1
  9
$DIMPOST
  1

  9
$DIMAPOST
  1

  9
$DIMALT
 70
0
  9
$DIMALTD
 70
3
  9
$DIMALTF
 40
0.03937007874
  9
$DIMLFAC
 40
1.0
  9
$DIMTOFL
 70
1
  9
$DIMTVP
 40
0.0
  9
$DIMTIX
 70
0
  9
$DIMSOXD
 70
0
  9
$DIMSAH
 70
0
  9
$DIMBLK1
  1

  9
$DIMBLK2
  1

  9
$DIMSTYLE
  2
ISO-25
  9
$DIMCLRD
 70
0
  9
$DIMCLRE
 70
0
  9
$DIMCLRT
 70
0
  9
$DIMTFAC
 40
1.0
  9
$DIMGAP
 40
0.625
  9
$DIMJUST
 70
0
  9
$DIMSD1
 70
0
  9
$DIMSD2
 70
0
  9
$DIMTOLJ
 70
0
  9
$DIMTZIN
 70
8
  9
$DIMALTZ
 70
0
  9
$DIMALTTZ
 70
0
  9
$DIMUPT
 70
0
  9
$DIMDEC
 70
2
  9
$DIMTDEC
 70
2
  9
$DIMALTU
 70
2
  9
$DIMALTTD
 70
3
  9
$DIMTXSTY
  7
Standard
  9
$DIMAUNIT
 70
0
  9
$DIMADEC
 70
0
  9
$DIMALTRND
 40
0.0
  9
$DIMAZIN
 70
0
  9
$DIMDSEP
 70
44
  9
$DIMATFIT
 70
3
  9
$DIMFRAC
 70
0
  9
$DIMLDRBLK
  1

  9
$DIMLUNIT
 70
2
  9
$DIMLWD
 70
-2
  9
$DIMLWE
 70
-2
  9
$DIMTMOVE
 70
0
  9
$DIMFXL
 40
1.0
  9
$DIMFXLON
 70
0
  9
$DIMJOGANG
 40
0.785398163397
  9
$DIMTFILL
 70
0
  9
$DIMTFILLCLR
 70
0
  9
$DIMARCSYM
 70
0
  9
$DIMLTYPE
  6

  9
$DIMLTEX1
  6

  9
$DIMLTEX2
  6

  9
$DIMTXTDIRECTION
 70
0
  9
$LUNITS
 70
2
  9
$LUPREC
 70
4
  9
$SKETCHINC
 40
1.0
  9
$FILLETRAD
 40
10.0
  9
$AUNITS
 70
0
  9
$AUPREC
 70
2
  9
$MENU
  1
.
  9
$ELEVATION
 40
0.0
  9
$PELEVATION
 40
0.0
  9
$THICKNESS
 40
0.0
  9
$LIMCHECK
 70
0
  9
$CHAMFERA
 40
0.0
  9
$CHAMFERB
 40
0.0
  9
$CHAMFERC
 40
0.0
  9
$CHAMFERD
 40
0.0
  9
$SKPOLY
 70
0
  9
$TDCREATE
 40
2461316.3792824075
  9
$TDUCREATE
 40
2458532.153996898
  9
$TDUPDATE
 40
2461316.3792939815
  9
$TDUUPDATE
 40
2458532.1544311
  9
$TDINDWG
 40
0.0
  9
$TDUSRTIMER
 40
0.0
  9
$USRTIMER
 70
1
  9
$ANGBASE
 50
0.0
  9
$ANGDIR
 70
0
  9
$PDMODE
 70
0
  9
$PDSIZE
 40
0.0
  9
$PLINEWID
 40
0.0
  9
$SPLFRAME
 70
0
  9
$SPLINETYPE
 70
6
  9
$SPLINESEGS
 70
8
  9
$HANDSEED
  5
66
  9
$SURFTAB1
 70
6
  9
$SURFTAB2
 70
6
  9
$SURFTYPE
 70
6
  9
$SURFU
 70
6
  9
$SURFV
 70
6
  9
$UCSBASE
  2

  9
$UCSNAME
  2

  9
$UCSORG
 10
0.0
 20
0.0
 30
0.0
  9
$UCSXDIR
 10
1.0
 20
0.0
 30
0.0
  9
$UCSYDIR
 10
0.0
 20
1.0
 30
0.0
  9
$UCSORTHOREF
  2

  9
$UCSORTHOVIEW
 70
0
  9
$UCSORGTOP
 10
0.0
 20
0.0
 30
0.0
  9
$UCSORGBOTTOM
 10
0.0
 20
0.0
 30
0.0
  9
$UCSORGLEFT
 10
0.0
 20
0.0
 30
0.0
  9
$UCSORGRIGHT
 10
0.0
 20
0.0
 30
0.0
  9
$UCSORGFRONT
 10
0.0
 20
0.0
 30
0.0
  9
$UCSORGBACK
 10
0.0
 20
0.0
 30
0.0
  9
$PUCSBASE
  2

  9
$PUCSNAME
  2

  9
$PUCSORG
 10
0.0
 20
0.0
 30
0.0
  9
$PUCSXDIR
 10
1.0
 20
0.0
 30
0.0
  9
$PUCSYDIR
 10
0.0
 20
1.0
 30
0.0
  9
$PUCSORTHOREF
  2

  9
$PUCSORTHOVIEW
 70
0
  9
$PUCSORGTOP
 10
0.0
 20
0.0
 30
0.0
  9
$PUCSORGBOTTOM
 10
0.0
 20
0.0
 30
0.0
  9
$PUCSORGLEFT
 10
0.0
 20
0.0
 30
0.0
  9
$PUCSORGRIGHT
 10
0.0
 20
0.0
 30
0.0
  9
$PUCSORGFRONT
 10
0.0
 20
0.0
 30
0.0
  9
$PUCSORGBACK
 10
0.0
 20
0.0
 30
0.0
  9
$USERI1
 70
0
  9
$USERI2
 70
0
  9
$USERI3
 70
0
  9
$USERI4
 70
0
  9
$USERI5
 70
0
  9
$USERR1
 40
0.0
  9
$USERR2
 40
0.0
  9
$USERR3
 40
0.0
  9
$USERR4
 40
0.0
  9
$USERR5
 40
0.0
  9
$WORLDVIEW
 70
1
  9
$SHADEDGE
 70
3
  9
$SHADEDIF
 70
70
  9
$TILEMODE
 70
1
  9
$MAXACTVP
 70
64
  9
$PINSBASE
 10
0.0
 20
0.0
 30
0.0
  9
$PLIMCHECK
 70
0
  9
$PEXTMIN
 10
1e+20
 20
1e+20
 30
1e+20
  9
$PEXTMAX
 10
-1e+20
 20
-1e+20
 30
-1e+20
  9
$PLIMMIN
 10
0.0
 20
0.0
  9
$PLIMMAX
 10
420.0
 20
297.0
  9
$UNITMODE
 70
0
  9
$VISRETAIN
 70
1
  9
$PLINEGEN
 70
0
  9
$PSLTSCALE
 70
1
  9
$TREEDEPTH
 70
3020
  9
$CMLSTYLE
  2
Standard
  9
$CMLJUST
 70
0
  9
$CMLSCALE
 40
20.0
  9
$PROXYGRAPHICS
 70
1
  9
$MEASUREMENT
 70
1
  9
$CELWEIGHT
370
-1
  9
$ENDCAPS
280
0
  9
$JOINSTYLE
280
0
  9
$LWDISPLAY
290
0
  9
$INSUNITS
 70
6
  9
$HYPERLINKBASE
  1

  9
$STYLESHEET
  1

  9
$XEDIT
290
1
  9
$CEPSNTYPE
380
0
  9
$PSTYLEMODE
290
1
  9
$FINGERPRINTGUID
  2
{97E24F32-C619-4285-8410-E07DC8970406}
  9
$VERSIONGUID
  2
{5964EAFB-D190-437A-9267-CC46E47F7837}
  9
$EXTNAMES
290
1
  9
$PSVPSCALE
 40
0.0
  9
$OLESTARTUP
290
0
  9
$SORTENTS
280
127
  9
$INDEXCTL
280
0
  9
$HIDETEXT
280
1
  9
$XCLIPFRAME
280
1
  9
$HALOGAP
280
0
  9
$OBSCOLOR
 70
257
  9
$OBSLTYPE
280
0
  9
$INTERSECTIONDISPLAY
280
0
  9
$INTERSECTIONCOLOR
 70
257
  9
$DIMASSOC
280
2
  9
$PROJECTNAME
  1

  9
$CAMERADISPLAY
290
0
  9
$LENSLENGTH
 40
50.0
  9
$CAMERAHEIGHT
 40
0.0
  9
$STEPSPERSEC
 40
24.0
  9
$STEPSIZE
 40
100.0
  9
$3DDWFPREC
 40
2.0
  9
$PSOLWIDTH
 40
0.005
  9
$PSOLHEIGHT
 40
0.08
  9
$LOFTANG1
 40
1.570796326795
  9
$LOFTANG2
 40
1.570796326795
  9
$LOFTMAG1
 40
0.0
  9
$LOFTMAG2
 40
0.0
  9
$LOFTPARAM
 70
7
  9
$LOFTNORMALS
280
1
  9
$LATITUDE
 40
37.795
  9
$LONGITUDE
 40
-122.394
  9
$NORTHDIRECTION
 40
0.0
  9
$TIMEZONE
 70
-8000
  9
$LIGHTGLYPHDISPLAY
280
1
  9
$TILEMODELIGHTSYNCH
280
1
  9
$CMATERIAL
347
20
  9
$SOLIDHIST
280
0
  9
$SHOWHIST
280
1
  9
$DWFFRAME
280
2
  9
$DGNFRAME
280
2
  9
$REALWORLDSCALE
290
1
  9
$INTERFERECOLOR
 62
256
  9
$CSHADOW
280
0
  9
$SHADOWPLANELOCATION
 40
0.0
  0
ENDSEC
  0
SECTION
  2
CLASSES
  0
CLASS
  1
ACDBDICTIONARYWDFLT
  2
AcDbDictionaryWithDefault
  3
ObjectDBX Classes
 90
0
 91
0
280
0
281
0
  0
CLASS
  1
SUN
  2
AcDbSun
  3
SCENEOE
 90
1153
 91
0
280
0
281
0
  0
CLASS
  1
VISUALSTYLE
  2
AcDbVisualStyle
  3
ObjectDBX Classes
 90
4095
 91
0
280
0
281
0
  0
CLASS
  1
MATERIAL
  2
AcDbMaterial
  3
ObjectDBX Classes
 90
1153
 91
0
280
0
281
0
  0
CLASS
  1
SCALE
  2
AcDbScale
  3
ObjectDBX Classes
 90
1153
 91
0
280
0
281
0
  0
CLASS
  1
TABLESTYLE
  2
AcDbTableStyle
  3
ObjectDBX Classes
 90
4095
 91
0
280
0
281
0
  0
CLASS
  1
MLEADERSTYLE
  2
AcDbMLeaderStyle
  3
ACDB_MLEADERSTYLE_CLASS
 90
4095
 91
0
280
0
281
0
  0
CLASS
  1
DICTIONARYVAR
  2
AcDbDictionaryVar
  3
ObjectDBX Classes
 90
0
 91
0
280
0
281
0
  0
CLASS
  1
CELLSTYLEMAP
  2
AcDbCellStyleMap
  3
ObjectDBX Classes
 90
1152
 91
0
280
0
281
0
  0
CLASS
  1
MENTALRAYRENDERSETTINGS
  2
AcDbMentalRayRenderSettings
  3
SCENEOE
 90
1024
 91
0
280
0
281
0
  0
CLASS
  1
ACDBDETAILVIEWSTYLE
  2
AcDbDetailViewStyle
  3
ObjectDBX Classes
 90
1025
 91
0
280
0
281
0
  0
CLASS
  1
ACDBSECTIONVIEWSTYLE
  2
AcDbSectionViewStyle
  3
ObjectDBX Classes
 90
1025
 91
0
280
0
281
0
  0
CLASS
  1
RASTERVARIABLES
  2
AcDbRasterVariables
  3
ISM
 90
0
 91
0
280
0
281
0
  0
CLASS
  1
LAYOUT
  2
AcDbLayout
  3
ObjectDBX Classes
 90
0
 91
0
280
0
281
0
  0
CLASS
  1
ACDBPLACEHOLDER
  2
AcDbPlaceHolder
  3
ObjectDBX Classes
 90
0
 91
0
280
0
281
0
  0
ENDSEC
  0
SECTION
  2
TABLES
  0
TABLE
  2
VPORT
  5
8
330
0
100
AcDbSymbolTable
 70
1
  0
VPORT
  5
23
330
8
100
AcDbSymbolTableRecord
100
AcDbViewportTableRecord
  2
*Active
 70
0
 10
0.0
 20
0.0
 11
1.0
 21
1.0
 12
0.0
 22
0.0
 13
0.0
 23
0.0
 14
0.5
 24
0.5
 15
0.5
 25
0.5
 16
0.0
 26
0.0
 36
1.0
 17
0.0
 27
0.0
 37
0.0
 40
1000.0
 41
1.34
 42
50.0
 43
0.0
 44
0.0
 50
0.0
 51
0.0
 71
0
 72
1000
 73
1
 74
3
 75
0
 76
0
 77
0
 78
0
281
0
 65
0
146
0.0
  0
ENDTAB
  0
TABLE
  2
LTYPE
  5
2
330
0
100
AcDbSymbolTable
 70
3
  0
LTYPE
  5
24
330
2
100
AcDbSymbolTableRecord
100
AcDbLinetypeTableRecord
  2
ByBlock
 70
0
  3

 72
65
 73
0
 40
0.0
  0
LTYPE
  5
25
330
2
100
AcDbSymbolTableRecord
100
AcDbLinetypeTableRecord
  2
ByLayer
 70
0
  3

 72
65
 73
0
 40
0.0
  0
LTYPE
  5
26
330
2
100
AcDbSymbolTableRecord
100
AcDbLinetypeTableRecord
  2
Continuous
 70
0
  3

 72
65
 73
0
 40
0.0
  0
ENDTAB
  0
TABLE
  2
LAYER
  5
1
330
0
100
AcDbSymbolTable
 70
8
  0
LAYER
  5
27
330
1
100
AcDbSymbolTableRecord
100
AcDbLayerTableRecord
  2
0
 70
0
 62
7
  6
Continuous
370
-3
390
13
347
21
  0
LAYER
  5
28
330
1
100
AcDbSymbolTableRecord
100
AcDbLayerTableRecord
  2
Defpoints
 70
0
 62
7
  6
Continuous
290
0
370
-3
390
13
347
21
  0
LAYER
  5
2F
330
1
100
AcDbSymbolTableRecord
100
AcDbLayerTableRecord
  2
OUTLINE
 70
0
 62
7
  6
Continuous
370
-3
390
13
347
21
  0
LAYER
  5
30
330
1
100
AcDbSymbolTableRecord
100
AcDbLayerTableRecord
  2
OPENINGS
 70
0
 62
7
  6
Continuous
370
-3
390
13
347
21
  0
LAYER
  5
31
330
1
100
AcDbSymbolTableRecord
100
AcDbLayerTableRecord
  2
LIGHTPIPES
 70
0
 62
7
  6
Continuous
370
-3
390
13
347
21
  0
LAYER
  5
32
330
1
100
AcDbSymbolTableRecord
100
AcDbLayerTableRecord
  2
LIGHT_WINDOWS
 70
0
 62
7
  6
Continuous
370
-3
390
13
347
21
  0
LAYER
  5
33
330
1
100
AcDbSymbolTableRecord
100
AcDbLayerTableRecord
  2
CLIPS
 70
0
 62
7
  6
Continuous
370
-3
390
13
347
21
  0
LAYER
  5
34
330
1
100
AcDbSymbolTableRecord
100
AcDbLayerTableRecord
  2
NOTES
 70
0
 62
7
  6
Continuous
370
-3
390
13
347
21
  0
ENDTAB
  0
TABLE
  2
STYLE
  5
5
330
0
100
AcDbSymbolTable
 70
1
  0
STYLE
  5
29
330
5
100
AcDbSymbolTableRecord
100
AcDbTextStyleTableRecord
  2
Standard
 70
0
 40
0.0
 41
1.0
 50
0.0
 71
0
 42
2.5
  3
txt
  4

  0
ENDTAB
  0
TABLE
  2
VIEW
  5
7
330
0
100
AcDbSymbolTable
 70
0
  0
ENDTAB
  0
TABLE
  2
UCS
  5
6
330
0
100
AcDbSymbolTable
 70
0
  0
ENDTAB
  0
TABLE
  2
APPID
  5
3
330
0
100
AcDbSymbolTable
 70
3
  0
APPID
  5
2A
330
3
100
AcDbSymbolTableRecord
100
AcDbRegAppTableRecord
  2
ACAD
 70
0
  0
APPID
  5
63
330
3
100
AcDbSymbolTableRecord
100
AcDbRegAppTableRecord
  2
HATCHBACKGROUNDCOLOR
 70
0
  0
APPID
  5
64
330
3
100
AcDbSymbolTableRecord
100
AcDbRegAppTableRecord
  2
EZDXF
 70
0
  0
ENDTAB
  0
TABLE
  2
DIMSTYLE
  5
4
330
0
100
AcDbSymbolTable
 70
1
100
AcDbDimStyleTable
  0
DIMSTYLE
105
2B
330
4
100
AcDbSymbolTableRecord
100
AcDbDimStyleTableRecord
  2
Standard
 70
0
 40
1.0
 41
2.5
 42
0.625
 43
3.75
 44
1.25
 45
0.0
 46
0.0
 47
0.0
 48
0.0
 49
2.5
140
2.5
141
2.5
142
0.0
143
0.03937007874
144
1.0
145
0.0
146
1.0
147
0.625
148
0.0
 69
0
 70
0
 71
0
 72
0
 73
0
 74
0
 75
0
 76
0
 77
1
 78
8
 79
3
170
0
171
3
172
1
173
0
174
0
175
0
176
0
177
0
178
0
179
2
271
2
272
2
273
2
274
3
275
0
276
0
277
2
278
44
279
0
280
0
281
0
282
0
283
0
284
8
285
0
286
0
288
0
289
3
290
0
371
-2
372
-2
  0
ENDTAB
  0
TABLE
  2
BLOCK_RECORD
  5
9
330
0
100
AcDbSymbolTable
 70
2
  0
BLOCK_RECORD
  5
17
330
9
100
AcDbSymbolTableRecord
100
AcDbBlockTableRecord
  2
*Model_Space
340
1A
 70
0
280
1
281
0
  0
BLOCK_RECORD
  5
1B
330
9
100
AcDbSymbolTableRecord
100
AcDbBlockTableRecord
  2
*Paper_Space
340
1E
 70
0
280
1
281
0
  0
ENDTAB
  0
ENDSEC
  0
SECTION
  2
BLOCKS
  0
BLOCK
  5
18
330
17
100
AcDbEntity
  8
0
100
AcDbBlockBegin
  2
*Model_Space
 70
0
 10
0.0
 20
0.0
 30
0.0
  3
*Model_Space
  1

  0
ENDBLK
  5
19
330
17
100
AcDbEntity
  8
0
100
AcDbBlockEnd
  0
BLOCK
  5
1C
330
1B
100
AcDbEntity
  8
0
100
AcDbBlockBegin
  2
*Paper_Space
 70
0
 10
0.0
 20
0.0
 30
0.0
  3
*Paper_Space
  1

  0
ENDBLK
  5
1D
330
1B
100
AcDbEntity
  8
0
100
AcDbBlockEnd
  0
ENDSEC
  0
SECTION
  2
ENTITIES
  0
LWPOLYLINE
  5
35
330
17
100
AcDbEntity
  8
OUTLINE
100
AcDbPolyline
 90
36
 70
1
 10
61.864964457406174
 20
147.12
 10
62.08593373276902
 20
149.36353870318547
 10
62.74034983352638
 20
151.52085947219854
 10
63.8030639159269
 20
153.50905767972543
 10
65.23323647376088
 20
155.2517279836453
 10
66.97590677768075
 20
156.68190054147928
 10
68.96410498520764
 20
157.7446146238798
 10
71.1214257542207
 20
158.39903072463716
 10
73.36496445740617
 20
158.62
 10
102.26496445740618
 20
158.62
 10
104.50850316059166
 20
158.39903072463716
 10
106.66582392960471
 20
157.7446146238798
 10
108.6540221371316
 20
156.68190054147928
 10
110.39669244105147
 20
155.2517279836453
 10
111.82686499888545
 20
153.50905767972543
 10
112.88957908128597
 20
151.52085947219854
 10
113.54399518204333
 20
149.36353870318547
 10
113.76496445740618
 20
147.12
 10
113.76496445740618
 20
7.019999999999998
 10
113.54399518204333
 20
4.77646129681452
 10
112.88957908128597
 20
2.6191405278014646
 10
111.82686499888544
 20
0.6309423202745696
 10
110.39669244105147
 20
-1.1117279836453005
 10
108.6540221371316
 20
-2.541900541479274
 10
106.66582392960471
 20
-3.6046146238798027
 10
104.50850316059166
 20
-4.259030724637153
 10
102.26496445740618
 20
-4.480000000000004
 10
73.36496445740617
 20
-4.480000000000004
 10
71.1214257542207
 20
-4.259030724637153
 10
68.96410498520764
 20
-3.604614623879801
 10
66.97590677768075
 20
-2.5419005414792775
 10
65.23323647376088
 20
-1.1117279836453022
 10
63.8030639159269
 20
0.6309423202745705
 10
62.74034983352638
 20
2.6191405278014663
 10
62.08593373276902
 20
4.7764612968145155
 10
61.864964457406174
 20
7.019999999999993
  0
LWPOLYLINE
  5
36
330
17
100
AcDbEntity
  8
OPENINGS
100
AcDbPolyline
 90
36
 70
1
 10
93.60496445740617
 20
75.4
 10
93.63955095268037
 20
75.75116257962904
 10
93.74198129888586
 20
76.08883017825717
 10
93.9083191552616
 20
76.40002641943529
 10
94.13217225127039
 20
76.6727922061358
 10
94.40493803797088
 20
76.89664530214459
 10
94.716134279149
 20
77.06298315852032
 10
95.05380187777715
 20
77.16541350472582
 10
95.40496445740618
 20
77.2
 10
101.40496445740618
 20
77.2
 10
101.75612703703521
 20
77.16541350472582
 10
102.09379463566333
 20
77.06298315852032
 10
102.40499087684145
 20
76.89664530214459
 10
102.67775666354196
 20
76.6727922061358
 10
102.90160975955075
 20
76.40002641943529
 10
103.0679476159265
 20
76.08883017825717
 10
103.170377962132
 20
75.75116257962904
 10
103.20496445740616
 20
75.4
 10
103.20496445740616
 20
75.0
 10
103.170377962132
 20
74.64883742037097
 10
103.0679476159265
 20
74.31116982174284
 10
102.90160975955075
 20
73.99997358056471
 10
102.67775666354196
 20
73.72720779386421
 10
102.40499087684145
 20
73.50335469785541
 10
102.09379463566333
 20
73.33701684147968
 10
101.75612703703521
 20
73.23458649527419
 10
101.40496445740618
 20
73.2
 10
95.40496445740618
 20
73.2
 10
95.05380187777715
 20
73.23458649527419
 10
94.716134279149
 20
73.33701684147968
 10
94.40493803797088
 20
73.50335469785541
 10
94.13217225127039
 20
73.72720779386421
 10
93.9083191552616
 20
73.99997358056471
 10
93.74198129888586
 20
74.31116982174284
 10
93.63955095268037
 20
74.64883742037097
 10
93.60496445740617
 20
75.0
  0
TEXT
  5
37
330
17
100
AcDbEntity
  8
NOTES
100
AcDbText
 10
96.40496445740618
 20
77.8
 30
0.0
 40
1.2
  1
C1
 11
96.40496445740618
 21
77.8
 31
0.0
100
AcDbText
  0
LWPOLYLINE
  5
38
330
17
100
AcDbEntity
  8
OPENINGS
100
AcDbPolyline
 90
36
 70
1
 10
72.30496445740617
 20
75.4
 10
72.33955095268036
 20
75.75116257962904
 10
72.44198129888585
 20
76.08883017825717
 10
72.60831915526158
 20
76.40002641943529
 10
72.83217225127038
 20
76.6727922061358
 10
73.10493803797088
 20
76.89664530214459
 10
73.416134279149
 20
77.06298315852032
 10
73.75380187777714
 20
77.16541350472582
 10
74.10496445740617
 20
77.2
 10
80.10496445740617
 20
77.2
 10
80.4561270370352
 20
77.16541350472582
 10
80.79379463566335
 20
77.06298315852032
 10
81.10499087684147
 20
76.89664530214459
 10
81.37775666354196
 20
76.6727922061358
 10
81.60160975955075
 20
76.40002641943529
 10
81.76794761592649
 20
76.08883017825717
 10
81.87037796213198
 20
75.75116257962904
 10
81.90496445740618
 20
75.4
 10
81.90496445740618
 20
75.0
 10
81.87037796213198
 20
74.64883742037097
 10
81.76794761592649
 20
74.31116982174284
 10
81.60160975955075
 20
73.99997358056471
 10
81.37775666354196
 20
73.72720779386421
 10
81.10499087684147
 20
73.50335469785541
 10
80.79379463566335
 20
73.33701684147968
 10
80.4561270370352
 20
73.23458649527419
 10
80.10496445740617
 20
73.2
 10
74.10496445740617
 20
73.2
 10
73.75380187777714
 20
73.23458649527419
 10
73.416134279149
 20
73.33701684147968
 10
73.10493803797088
 20
73.50335469785541
 10
72.83217225127038
 20
73.72720779386421
 10
72.60831915526158
 20
73.99997358056471
 10
72.44198129888585
 20
74.31116982174284
 10
72.33955095268036
 20
74.64883742037097
 10
72.30496445740617
 20
75.0
  0
TEXT
  5
39
330
17
100
AcDbEntity
  8
NOTES
100
AcDbText
 10
75.10496445740617
 20
77.8
 30
0.0
 40
1.2
  1
C4
 11
75.10496445740617
 21
77.8
 31
0.0
100
AcDbText
  0
LWPOLYLINE
  5
3A
330
17
100
AcDbEntity
  8
OPENINGS
100
AcDbPolyline
 90
36
 70
1
 10
93.60496445740617
 20
65.65
 10
93.63955095268037
 20
66.00116257962904
 10
93.74198129888586
 20
66.33883017825717
 10
93.9083191552616
 20
66.65002641943529
 10
94.13217225127039
 20
66.9227922061358
 10
94.40493803797088
 20
67.14664530214459
 10
94.716134279149
 20
67.31298315852032
 10
95.05380187777715
 20
67.41541350472582
 10
95.40496445740618
 20
67.45
 10
101.40496445740618
 20
67.45
 10
101.75612703703521
 20
67.41541350472582
 10
102.09379463566333
 20
67.31298315852032
 10
102.40499087684145
 20
67.14664530214459
 10
102.67775666354196
 20
66.9227922061358
 10
102.90160975955075
 20
66.65002641943529
 10
103.0679476159265
 20
66.33883017825717
 10
103.170377962132
 20
66.00116257962904
 10
103.20496445740616
 20
65.65
 10
103.20496445740616
 20
65.25
 10
103.170377962132
 20
64.89883742037097
 10
103.0679476159265
 20
64.56116982174284
 10
102.90160975955075
 20
64.24997358056471
 10
102.67775666354196
 20
63.97720779386422
 10
102.40499087684145
 20
63.75335469785542
 10
102.09379463566333
 20
63.58701684147968
 10
101.75612703703521
 20
63.484586495274186
 10
101.40496445740618
 20
63.45
 10
95.40496445740618
 20
63.45
 10
95.05380187777715
 20
63.484586495274186
 10
94.716134279149
 20
63.58701684147968
 10
94.40493803797088
 20
63.75335469785542
 10
94.13217225127039
 20
63.97720779386422
 10
93.9083191552616
 20
64.24997358056471
 10
93.74198129888586
 20
64.56116982174284
 10
93.63955095268037
 20
64.89883742037097
 10
93.60496445740617
 20
65.25
  0
TEXT
  5
3B
330
17
100
AcDbEntity
  8
NOTES
100
AcDbText
 10
96.40496445740618
 20
68.05
 30
0.0
 40
1.2
  1
C2
 11
96.40496445740618
 21
68.05
 31
0.0
100
AcDbText
  0
LWPOLYLINE
  5
3C
330
17
100
AcDbEntity
  8
OPENINGS
100
AcDbPolyline
 90
36
 70
1
 10
72.30496445740617
 20
65.65
 10
72.33955095268036
 20
66.00116257962904
 10
72.44198129888585
 20
66.33883017825717
 10
72.60831915526158
 20
66.65002641943529
 10
72.83217225127038
 20
66.9227922061358
 10
73.10493803797088
 20
67.14664530214459
 10
73.416134279149
 20
67.31298315852032
 10
73.75380187777714
 20
67.41541350472582
 10
74.10496445740617
 20
67.45
 10
80.10496445740617
 20
67.45
 10
80.4561270370352
 20
67.41541350472582
 10
80.79379463566335
 20
67.31298315852032
 10
81.10499087684147
 20
67.14664530214459
 10
81.37775666354196
 20
66.9227922061358
 10
81.60160975955075
 20
66.65002641943529
 10
81.76794761592649
 20
66.33883017825717
 10
81.87037796213198
 20
66.00116257962904
 10
81.90496445740618
 20
65.65
 10
81.90496445740618
 20
65.25
 10
81.87037796213198
 20
64.89883742037097
 10
81.76794761592649
 20
64.56116982174284
 10
81.60160975955075
 20
64.24997358056471
 10
81.37775666354196
 20
63.97720779386422
 10
81.10499087684147
 20
63.75335469785542
 10
80.79379463566335
 20
63.58701684147968
 10
80.4561270370352
 20
63.484586495274186
 10
80.10496445740617
 20
63.45
 10
74.10496445740617
 20
63.45
 10
73.75380187777714
 20
63.484586495274186
 10
73.416134279149
 20
63.58701684147968
 10
73.10493803797088
 20
63.75335469785542
 10
72.83217225127038
 20
63.97720779386422
 10
72.60831915526158
 20
64.24997358056471
 10
72.44198129888585
 20
64.56116982174284
 10
72.33955095268036
 20
64.89883742037097
 10
72.30496445740617
 20
65.25
  0
TEXT
  5
3D
330
17
100
AcDbEntity
  8
NOTES
100
AcDbText
 10
75.10496445740617
 20
68.05
 30
0.0
 40
1.2
  1
C5
 11
75.10496445740617
 21
68.05
 31
0.0
100
AcDbText
  0
LWPOLYLINE
  5
3E
330
17
100
AcDbEntity
  8
OPENINGS
100
AcDbPolyline
 90
36
 70
1
 10
93.60496445740617
 20
55.900000000000006
 10
93.63955095268037
 20
56.25116257962904
 10
93.74198129888586
 20
56.58883017825717
 10
93.9083191552616
 20
56.90002641943529
 10
94.13217225127039
 20
57.17279220613579
 10
94.40493803797088
 20
57.396645302144584
 10
94.716134279149
 20
57.562983158520325
 10
95.05380187777715
 20
57.66541350472582
 10
95.40496445740618
 20
57.7
 10
101.40496445740618
 20
57.7
 10
101.75612703703521
 20
57.66541350472582
 10
102.09379463566333
 20
57.562983158520325
 10
102.40499087684145
 20
57.396645302144584
 10
102.67775666354196
 20
57.17279220613579
 10
102.90160975955075
 20
56.90002641943529
 10
103.0679476159265
 20
56.58883017825717
 10
103.170377962132
 20
56.25116257962904
 10
103.20496445740616
 20
55.900000000000006
 10
103.20496445740616
 20
55.5
 10
103.170377962132
 20
55.14883742037097
 10
103.0679476159265
 20
54.81116982174284
 10
102.90160975955075
 20
54.49997358056471
 10
102.67775666354196
 20
54.22720779386422
 10
102.40499087684145
 20
54.00335469785542
 10
102.09379463566333
 20
53.83701684147968
 10
101.75612703703521
 20
53.734586495274186
 10
101.40496445740618
 20
53.7
 10
95.40496445740618
 20
53.7
 10
95.05380187777715
 20
53.734586495274186
 10
94.716134279149
 20
53.83701684147968
 10
94.40493803797088
 20
54.00335469785542
 10
94.13217225127039
 20
54.22720779386422
 10
93.9083191552616
 20
54.49997358056471
 10
93.74198129888586
 20
54.81116982174284
 10
93.63955095268037
 20
55.14883742037097
 10
93.60496445740617
 20
55.5
  0
TEXT
  5
3F
330
17
100
AcDbEntity
  8
NOTES
100
AcDbText
 10
96.40496445740618
 20
58.300000000000004
 30
0.0
 40
1.2
  1
C3
 11
96.40496445740618
 21
58.300000000000004
 31
0.0
100
AcDbText
  0
LWPOLYLINE
  5
40
330
17
100
AcDbEntity
  8
OPENINGS
100
AcDbPolyline
 90
36
 70
1
 10
72.30496445740617
 20
55.900000000000006
 10
72.33955095268036
 20
56.25116257962904
 10
72.44198129888585
 20
56.58883017825717
 10
72.60831915526158
 20
56.90002641943529
 10
72.83217225127038
 20
57.17279220613579
 10
73.10493803797088
 20
57.396645302144584
 10
73.416134279149
 20
57.562983158520325
 10
73.75380187777714
 20
57.66541350472582
 10
74.10496445740617
 20
57.7
 10
80.10496445740617
 20
57.7
 10
80.4561270370352
 20
57.66541350472582
 10
80.79379463566335
 20
57.562983158520325
 10
81.10499087684147
 20
57.396645302144584
 10
81.37775666354196
 20
57.17279220613579
 10
81.60160975955075
 20
56.90002641943529
 10
81.76794761592649
 20
56.58883017825717
 10
81.87037796213198
 20
56.25116257962904
 10
81.90496445740618
 20
55.900000000000006
 10
81.90496445740618
 20
55.5
 10
81.87037796213198
 20
55.14883742037097
 10
81.76794761592649
 20
54.81116982174284
 10
81.60160975955075
 20
54.49997358056471
 10
81.37775666354196
 20
54.22720779386422
 10
81.10499087684147
 20
54.00335469785542
 10
80.79379463566335
 20
53.83701684147968
 10
80.4561270370352
 20
53.734586495274186
 10
80.10496445740617
 20
53.7
 10
74.10496445740617
 20
53.7
 10
73.75380187777714
 20
53.734586495274186
 10
73.416134279149
 20
53.83701684147968
 10
73.10493803797088
 20
54.00335469785542
 10
72.83217225127038
 20
54.22720779386422
 10
72.60831915526158
 20
54.49997358056471
 10
72.44198129888585
 20
54.81116982174284
 10
72.33955095268036
 20
55.14883742037097
 10
72.30496445740617
 20
55.5
  0
TEXT
  5
41
330
17
100
AcDbEntity
  8
NOTES
100
AcDbText
 10
75.10496445740617
 20
58.300000000000004
 30
0.0
 40
1.2
  1
C6
 11
75.10496445740617
 21
58.300000000000004
 31
0.0
100
AcDbText
  0
LWPOLYLINE
  5
42
330
17
100
AcDbEntity
  8
OPENINGS
100
AcDbPolyline
 90
36
 70
1
 10
90.90496445740618
 20
45.25
 10
90.91457181720457
 20
45.347545161008064
 10
90.94302469115053
 20
45.44134171618254
 10
90.9892296512549
 20
45.527785116509804
 10
91.0514110668129
 20
45.60355339059328
 10
91.12717934089638
 20
45.66573480615127
 10
91.21362274122365
 20
45.71193976625565
 10
91.30741929639811
 20
45.74039264020161
 10
91.40496445740618
 20
45.75
 10
104.00496445740617
 20
45.75
 10
104.10250961841425
 20
45.74039264020161
 10
104.19630617358871
 20
45.71193976625565
 10
104.28274957391598
 20
45.66573480615127
 10
104.35851784799945
 20
45.60355339059328
 10
104.42069926355745
 20
45.527785116509804
 10
104.46690422366183
 20
45.44134171618254
 10
104.49535709760778
 20
45.347545161008064
 10
104.50496445740617
 20
45.25
 10
104.50496445740617
 20
40.25
 10
104.49535709760778
 20
40.152454838991936
 10
104.46690422366183
 20
40.05865828381746
 10
104.42069926355745
 20
39.972214883490196
 10
104.35851784799945
 20
39.89644660940672
 10
104.28274957391598
 20
39.83426519384873
 10
104.19630617358871
 20
39.78806023374435
 10
104.10250961841425
 20
39.75960735979839
 10
104.00496445740617
 20
39.75
 10
91.40496445740618
 20
39.75
 10
91.30741929639811
 20
39.75960735979839
 10
91.21362274122365
 20
39.78806023374435
 10
91.12717934089638
 20
39.83426519384873
 10
91.0514110668129
 20
39.89644660940672
 10
90.9892296512549
 20
39.972214883490196
 10
90.94302469115053
 20
40.05865828381746
 10
90.91457181720457
 20
40.152454838991936
 10
90.90496445740618
 20
40.25
  0
TEXT
  5
43
330
17
100
AcDbEntity
  8
NOTES
100
AcDbText
 10
95.70496445740618
 20
46.35
 30
0.0
 40
1.2
  1
A1
 11
95.70496445740618
 21
46.35
 31
0.0
100
AcDbText
  0
LWPOLYLINE
  5
44
330
17
100
AcDbEntity
  8
OPENINGS
100
AcDbPolyline
 90
36
 70
1
 10
90.90496445740618
 20
35.1
 10
90.91457181720457
 20
35.197545161008065
 10
90.94302469115053
 20
35.291341716182544
 10
90.9892296512549
 20
35.377785116509806
 10
91.0514110668129
 20
35.45355339059328
 10
91.12717934089638
 20
35.51573480615127
 10
91.21362274122365
 20
35.56193976625565
 10
91.30741929639811
 20
35.590392640201614
 10
91.40496445740618
 20
35.6
 10
104.00496445740617
 20
35.6
 10
104.10250961841425
 20
35.590392640201614
 10
104.19630617358871
 20
35.56193976625565
 10
104.28274957391598
 20
35.51573480615127
 10
104.35851784799945
 20
35.45355339059328
 10
104.42069926355745
 20
35.377785116509806
 10
104.46690422366183
 20
35.291341716182544
 10
104.49535709760778
 20
35.197545161008065
 10
104.50496445740617
 20
35.1
 10
104.50496445740617
 20
30.1
 10
104.49535709760778
 20
30.002454838991937
 10
104.46690422366183
 20
29.908658283817456
 10
104.42069926355745
 20
29.8222148834902
 10
104.35851784799945
 20
29.74644660940673
 10
104.28274957391598
 20
29.684265193848727
 10
104.19630617358871
 20
29.63806023374436
 10
104.10250961841425
 20
29.609607359798385
 10
104.00496445740617
 20
29.6
 10
91.40496445740618
 20
29.6
 10
91.30741929639811
 20
29.609607359798385
 10
91.21362274122365
 20
29.63806023374436
 10
91.12717934089638
 20
29.684265193848727
 10
91.0514110668129
 20
29.74644660940673
 10
90.9892296512549
 20
29.8222148834902
 10
90.94302469115053
 20
29.908658283817456
 10
90.91457181720457
 20
30.002454838991937
 10
90.90496445740618
 20
30.1
  0
TEXT
  5
45
330
17
100
AcDbEntity
  8
NOTES
100
AcDbText
 10
95.70496445740618
 20
36.2
 30
0.0
 40
1.2
  1
A2
 11
95.70496445740618
 21
36.2
 31
0.0
100
AcDbText
  0
LWPOLYLINE
  5
46
330
17
100
AcDbEntity
  8
OPENINGS
100
AcDbPolyline
 90
36
 70
1
 10
70.15496445740618
 20
45.25
 10
70.16457181720456
 20
45.347545161008064
 10
70.19302469115054
 20
45.44134171618254
 10
70.2392296512549
 20
45.527785116509804
 10
70.3014110668129
 20
45.60355339059328
 10
70.37717934089638
 20
45.66573480615127
 10
70.46362274122363
 20
45.71193976625565
 10
70.55741929639811
 20
45.74039264020161
 10
70.65496445740618
 20
45.75
 10
83.25496445740617
 20
45.75
 10
83.35250961841425
 20
45.74039264020161
 10
83.44630617358871
 20
45.71193976625565
 10
83.53274957391598
 20
45.66573480615127
 10
83.60851784799945
 20
45.60355339059328
 10
83.67069926355745
 20
45.527785116509804
 10
83.71690422366183
 20
45.44134171618254
 10
83.74535709760778
 20
45.347545161008064
 10
83.75496445740617
 20
45.25
 10
83.75496445740617
 20
40.25
 10
83.74535709760778
 20
40.152454838991936
 10
83.71690422366183
 20
40.05865828381746
 10
83.67069926355745
 20
39.972214883490196
 10
83.60851784799945
 20
39.89644660940672
 10
83.53274957391598
 20
39.83426519384873
 10
83.44630617358871
 20
39.78806023374435
 10
83.35250961841425
 20
39.75960735979839
 10
83.25496445740617
 20
39.75
 10
70.65496445740618
 20
39.75
 10
70.55741929639811
 20
39.75960735979839
 10
70.46362274122363
 20
39.78806023374435
 10
70.37717934089638
 20
39.83426519384873
 10
70.3014110668129
 20
39.89644660940672
 10
70.2392296512549
 20
39.972214883490196
 10
70.19302469115054
 20
40.05865828381746
 10
70.16457181720456
 20
40.152454838991936
 10
70.15496445740618
 20
40.25
  0
TEXT
  5
47
330
17
100
AcDbEntity
  8
NOTES
100
AcDbText
 10
74.95496445740618
 20
46.35
 30
0.0
 40
1.2
  1
A3
 11
74.95496445740618
 21
46.35
 31
0.0
100
AcDbText
  0
LWPOLYLINE
  5
48
330
17
100
AcDbEntity
  8
OPENINGS
100
AcDbPolyline
 90
36
 70
1
 10
70.15496445740618
 20
35.1
 10
70.16457181720456
 20
35.197545161008065
 10
70.19302469115054
 20
35.291341716182544
 10
70.2392296512549
 20
35.377785116509806
 10
70.3014110668129
 20
35.45355339059328
 10
70.37717934089638
 20
35.51573480615127
 10
70.46362274122363
 20
35.56193976625565
 10
70.55741929639811
 20
35.590392640201614
 10
70.65496445740618
 20
35.6
 10
83.25496445740617
 20
35.6
 10
83.35250961841425
 20
35.590392640201614
 10
83.44630617358871
 20
35.56193976625565
 10
83.53274957391598
 20
35.51573480615127
 10
83.60851784799945
 20
35.45355339059328
 10
83.67069926355745
 20
35.377785116509806
 10
83.71690422366183
 20
35.291341716182544
 10
83.74535709760778
 20
35.197545161008065
 10
83.75496445740617
 20
35.1
 10
83.75496445740617
 20
30.1
 10
83.74535709760778
 20
30.002454838991937
 10
83.71690422366183
 20
29.908658283817456
 10
83.67069926355745
 20
29.8222148834902
 10
83.60851784799945
 20
29.74644660940673
 10
83.53274957391598
 20
29.684265193848727
 10
83.44630617358871
 20
29.63806023374436
 10
83.35250961841425
 20
29.609607359798385
 10
83.25496445740617
 20
29.6
 10
70.65496445740618
 20
29.6
 10
70.55741929639811
 20
29.609607359798385
 10
70.46362274122363
 20
29.63806023374436
 10
70.37717934089638
 20
29.684265193848727
 10
70.3014110668129
 20
29.74644660940673
 10
70.2392296512549
 20
29.8222148834902
 10
70.19302469115054
 20
29.908658283817456
 10
70.16457181720456
 20
30.002454838991937
 10
70.15496445740618
 20
30.1
  0
TEXT
  5
49
330
17
100
AcDbEntity
  8
NOTES
100
AcDbText
 10
74.95496445740618
 20
36.2
 30
0.0
 40
1.2
  1
A4
 11
74.95496445740618
 21
36.2
 31
0.0
100
AcDbText
  0
LWPOLYLINE
  5
4A
330
17
100
AcDbEntity
  8
OPENINGS
100
AcDbPolyline
 90
36
 70
1
 10
71.00496445740617
 20
97.14999999999999
 10
71.01457181720455
 20
97.24754516100806
 10
71.04302469115053
 20
97.34134171618254
 10
71.0892296512549
 20
97.4277851165098
 10
71.1514110668129
 20
97.50355339059327
 10
71.22717934089637
 20
97.56573480615127
 10
71.31362274122363
 20
97.61193976625563
 10
71.4074192963981
 20
97.64039264020161
 10
71.50496445740617
 20
97.64999999999999
 10
83.50496445740617
 20
97.64999999999999
 10
83.60250961841425
 20
97.64039264020161
 10
83.69630617358871
 20
97.61193976625563
 10
83.78274957391598
 20
97.56573480615127
 10
83.85851784799945
 20
97.50355339059327
 10
83.92069926355745
 20
97.4277851165098
 10
83.96690422366183
 20
97.34134171618254
 10
83.99535709760778
 20
97.24754516100806
 10
84.00496445740617
 20
97.14999999999999
 10
84.00496445740617
 20
87.45
 10
83.99535709760778
 20
87.35245483899193
 10
83.96690422366183
 20
87.25865828381745
 10
83.92069926355745
 20
87.1722148834902
 10
83.85851784799945
 20
87.09644660940673
 10
83.78274957391598
 20
87.03426519384873
 10
83.69630617358871
 20
86.98806023374436
 10
83.60250961841425
 20
86.95960735979838
 10
83.50496445740617
 20
86.95
 10
71.50496445740617
 20
86.95
 10
71.4074192963981
 20
86.95960735979838
 10
71.31362274122363
 20
86.98806023374436
 10
71.22717934089637
 20
87.03426519384873
 10
71.1514110668129
 20
87.09644660940673
 10
71.0892296512549
 20
87.1722148834902
 10
71.04302469115053
 20
87.25865828381745
 10
71.01457181720455
 20
87.35245483899193
 10
71.00496445740617
 20
87.45
  0
TEXT
  5
4B
330
17
100
AcDbEntity
  8
NOTES
100
AcDbText
 10
75.50496445740617
 20
98.24999999999999
 30
0.0
 40
1.2
  1
ETH1
 11
75.50496445740617
 21
98.24999999999999
 31
0.0
100
AcDbText
  0
LWPOLYLINE
  5
4C
330
17
100
AcDbEntity
  8
OPENINGS
100
AcDbPolyline
 90
36
 70
1
 10
92.00496445740617
 20
96.85
 10
92.01457181720457
 20
96.94754516100807
 10
92.04302469115052
 20
97.04134171618254
 10
92.0892296512549
 20
97.1277851165098
 10
92.1514110668129
 20
97.20355339059327
 10
92.22717934089637
 20
97.26573480615127
 10
92.31362274122364
 20
97.31193976625563
 10
92.4074192963981
 20
97.34039264020161
 10
92.50496445740617
 20
97.35
 10
104.50496445740617
 20
97.35
 10
104.60250961841425
 20
97.34039264020161
 10
104.69630617358871
 20
97.31193976625563
 10
104.78274957391598
 20
97.26573480615127
 10
104.85851784799945
 20
97.20355339059327
 10
104.92069926355745
 20
97.1277851165098
 10
104.96690422366183
 20
97.04134171618254
 10
104.99535709760778
 20
96.94754516100807
 10
105.00496445740617
 20
96.85
 10
105.00496445740617
 20
87.15
 10
104.99535709760778
 20
87.05245483899193
 10
104.96690422366183
 20
86.95865828381746
 10
104.92069926355745
 20
86.8722148834902
 10
104.85851784799945
 20
86.79644660940673
 10
104.78274957391598
 20
86.73426519384873
 10
104.69630617358871
 20
86.68806023374437
 10
104.60250961841425
 20
86.65960735979839
 10
104.50496445740617
 20
86.65
 10
92.50496445740617
 20
86.65
 10
92.4074192963981
 20
86.65960735979839
 10
92.31362274122364
 20
86.68806023374437
 10
92.22717934089637
 20
86.73426519384873
 10
92.1514110668129
 20
86.79644660940673
 10
92.0892296512549
 20
86.8722148834902
 10
92.04302469115052
 20
86.95865828381746
 10
92.01457181720457
 20
87.05245483899193
 10
92.00496445740617
 20
87.15
  0
TEXT
  5
4D
330
17
100
AcDbEntity
  8
NOTES
100
AcDbText
 10
96.50496445740617
 20
97.94999999999999
 30
0.0
 40
1.2
  1
ETH2
 11
96.50496445740617
 21
97.94999999999999
 31
0.0
100
AcDbText
  0
LWPOLYLINE
  5
4E
330
17
100
AcDbEntity
  8
OPENINGS
100
AcDbPolyline
 90
36
 70
1
 10
90.90496445740618
 20
109.60000000000001
 10
90.92033623308359
 20
109.75607225761291
 10
90.96586083139715
 20
109.90614674589209
 10
91.03978876756413
 20
110.04445618641569
 10
91.13927903245693
 20
110.16568542494925
 10
91.26050827099048
 20
110.26517568984204
 10
91.3988177115141
 20
110.33910362600903
 10
91.54889219979327
 20
110.3846282243226
 10
91.70496445740616
 20
110.4
 10
105.50496445740617
 20
110.4
 10
105.6610367150191
 20
110.3846282243226
 10
105.81111120329825
 20
110.33910362600903
 10
105.94942064382187
 20
110.26517568984204
 10
106.07064988235541
 20
110.16568542494925
 10
106.17014014724822
 20
110.04445618641569
 10
106.24406808341521
 20
109.90614674589209
 10
106.28959268172876
 20
109.75607225761291
 10
106.30496445740619
 20
109.60000000000001
 10
106.30496445740619
 20
105.2
 10
106.28959268172876
 20
105.0439277423871
 10
106.24406808341521
 20
104.89385325410792
 10
106.17014014724822
 20
104.75554381358432
 10
106.07064988235541
 20
104.63431457505077
 10
105.94942064382187
 20
104.53482431015797
 10
105.81111120329825
 20
104.46089637399098
 10
105.6610367150191
 20
104.41537177567741
 10
105.50496445740617
 20
104.4
 10
91.70496445740616
 20
104.4
 10
91.54889219979327
 20
104.41537177567741
 10
91.3988177115141
 20
104.46089637399098
 10
91.2605082709905
 20
104.53482431015797
 10
91.13927903245693
 20
104.63431457505077
 10
91.03978876756413
 20
104.75554381358432
 10
90.96586083139714
 20
104.89385325410794
 10
90.92033623308359
 20
105.0439277423871
 10
90.90496445740618
 20
105.2
  0
TEXT
  5
4F
330
17
100
AcDbEntity
  8
NOTES
100
AcDbText
 10
96.60496445740617
 20
111.0
 30
0.0
 40
1.2
  1
HDMI
 11
96.60496445740617
 21
111.0
 31
0.0
100
AcDbText
  0
LWPOLYLINE
  5
50
330
17
100
AcDbEntity
  8
OPENINGS
100
AcDbPolyline
 90
36
 70
1
 10
71.64996445740618
 20
139.27499999999998
 10
71.7076086161965
 20
139.86027096604838
 10
71.87832585987232
 20
140.42305029709524
 10
72.15555562049855
 20
140.94171069905877
 10
72.52864411384654
 20
141.3963203435596
 10
72.98325375834737
 20
141.76940883690762
 10
73.50191416031092
 20
142.04663859753384
 10
74.0646934913578
 20
142.21735584120967
 10
74.64996445740618
 20
142.27499999999998
 10
103.19996445740617
 20
142.27499999999998
 10
103.78523542345457
 20
142.21735584120967
 10
104.34801475450143
 20
142.04663859753384
 10
104.86667515646498
 20
141.76940883690762
 10
105.32128480096583
 20
141.3963203435596
 10
105.6943732943138
 20
140.94171069905877
 10
105.97160305494003
 20
140.42305029709524
 10
106.14232029861586
 20
139.86027096604838
 10
106.19996445740617
 20
139.27499999999998
 10
106.19996445740617
 20
120.62499999999999
 10
106.14232029861586
 20
120.0397290339516
 10
105.97160305494003
 20
119.47694970290472
 10
105.6943732943138
 20
118.95828930094117
 10
105.32128480096583
 20
118.50367965644034
 10
104.86667515646498
 20
118.13059116309235
 10
104.34801475450143
 20
117.85336140246612
 10
103.78523542345457
 20
117.6826441587903
 10
103.19996445740617
 20
117.62499999999999
 10
74.64996445740618
 20
117.62499999999999
 10
74.0646934913578
 20
117.6826441587903
 10
73.50191416031092
 20
117.85336140246612
 10
72.98325375834737
 20
118.13059116309235
 10
72.52864411384654
 20
118.50367965644034
 10
72.15555562049855
 20
118.95828930094117
 10
71.87832585987232
 20
119.47694970290472
 10
71.7076086161965
 20
120.0397290339516
 10
71.64996445740618
 20
120.62499999999999
  0
TEXT
  5
51
330
17
100
AcDbEntity
  8
NOTES
100
AcDbText
 10
86.92496445740618
 20
142.87499999999997
 30
0.0
 40
1.2
  1
AC
 11
86.92496445740618
 21
142.87499999999997
 31
0.0
100
AcDbText
  0
CIRCLE
  5
52
330
17
100
AcDbEntity
  8
OPENINGS
100
AcDbCircle
 10
97.60496445740617
 20
19.1
 30
0.0
 40
2.4
  0
CIRCLE
  5
53
330
17
100
AcDbEntity
  8
OPENINGS
100
AcDbCircle
 10
76.35496445740617
 20
19.4
 30
0.0
 40
2.4
  0
CIRCLE
  5
54
330
17
100
AcDbEntity
  8
OPENINGS
100
AcDbCircle
 10
77.98496445740616
 20
108.03
 30
0.0
 40
6.2
  0
LWPOLYLINE
  5
55
330
17
100
AcDbEntity
  8
LIGHT_WINDOWS
100
AcDbPolyline
 90
36
 70
1
 10
95.96496445740618
 20
113.9
 10
95.97649328916424
 20
114.01705419320969
 10
96.0106367378994
 20
114.12961005941906
 10
96.06608269002464
 20
114.23334213981177
 10
96.14070038869426
 20
114.32426406871194
 10
96.23162231759441
 20
114.39888176738154
 10
96.33535439798712
 20
114.45432771950678
 10
96.44791026419651
 20
114.48847116824194
 10
96.56496445740618
 20
114.5
 10
102.36496445740617
 20
114.5
 10
102.48201865061586
 20
114.48847116824194
 10
102.59457451682522
 20
114.45432771950678
 10
102.69830659721794
 20
114.39888176738154
 10
102.78922852611811
 20
114.32426406871194
 10
102.8638462247877
 20
114.23334213981177
 10
102.91929217691295
 20
114.12961005941906
 10
102.95343562564811
 20
114.01705419320969
 10
102.96496445740618
 20
113.9
 10
102.96496445740618
 20
113.5
 10
102.95343562564811
 20
113.38294580679032
 10
102.91929217691295
 20
113.27038994058094
 10
102.8638462247877
 20
113.16665786018824
 10
102.78922852611811
 20
113.07573593128807
 10
102.69830659721794
 20
113.00111823261847
 10
102.59457451682522
 20
112.94567228049323
 10
102.48201865061586
 20
112.91152883175806
 10
102.36496445740617
 20
112.9
 10
96.56496445740618
 20
112.9
 10
96.44791026419651
 20
112.91152883175806
 10
96.33535439798712
 20
112.94567228049323
 10
96.23162231759441
 20
113.00111823261847
 10
96.14070038869426
 20
113.07573593128807
 10
96.06608269002464
 20
113.16665786018824
 10
96.0106367378994
 20
113.27038994058094
 10
95.97649328916424
 20
113.38294580679032
 10
95.96496445740618
 20
113.5
  0
LWPOLYLINE
  5
56
330
17
100
AcDbEntity
  8
LIGHT_WINDOWS
100
AcDbPolyline
 90
36
 70
1
 10
86.97496445740617
 20
93.4
 10
86.99417917700293
 20
93.59509032201613
 10
87.0510849248949
 20
93.78268343236509
 10
87.14349484510362
 20
93.95557023301961
 10
87.26785767621962
 20
94.10710678118656
 10
87.41939422438656
 20
94.23146961230255
 10
87.59228102504107
 20
94.3238795325113
 10
87.77987413539005
 20
94.38078528040323
 10
87.97496445740617
 20
94.4
 10
88.97496445740617
 20
94.4
 10
89.1700547794223
 20
94.38078528040323
 10
89.35764788977127
 20
94.3238795325113
 10
89.53053469042578
 20
94.23146961230255
 10
89.68207123859273
 20
94.10710678118656
 10
89.80643406970873
 20
93.95557023301961
 10
89.89884398991745
 20
93.78268343236509
 10
89.95574973780941
 20
93.59509032201613
 10
89.97496445740617
 20
93.4
 10
89.97496445740617
 20
90.4
 10
89.95574973780941
 20
90.20490967798388
 10
89.89884398991745
 20
90.01731656763492
 10
89.80643406970873
 20
89.8444297669804
 10
89.68207123859273
 20
89.69289321881345
 10
89.53053469042578
 20
89.56853038769746
 10
89.35764788977127
 20
89.47612046748871
 10
89.1700547794223
 20
89.41921471959678
 10
88.97496445740617
 20
89.4
 10
87.97496445740617
 20
89.4
 10
87.77987413539005
 20
89.41921471959678
 10
87.59228102504107
 20
89.47612046748871
 10
87.41939422438656
 20
89.56853038769746
 10
87.26785767621962
 20
89.69289321881345
 10
87.14349484510362
 20
89.8444297669804
 10
87.0510849248949
 20
90.01731656763492
 10
86.99417917700293
 20
90.20490967798388
 10
86.97496445740617
 20
90.4
  0
LWPOLYLINE
  5
57
330
17
100
AcDbEntity
  8
LIGHT_WINDOWS
100
AcDbPolyline
 90
36
 70
1
 10
86.58496445740617
 20
67.76
 10
86.60417917700295
 20
67.95509032201613
 10
86.66108492489488
 20
68.14268343236509
 10
86.75349484510363
 20
68.31557023301961
 10
86.87785767621963
 20
68.46710678118656
 10
87.02939422438658
 20
68.59146961230255
 10
87.20228102504109
 20
68.6838795325113
 10
87.38987413539004
 20
68.74078528040323
 10
87.58496445740617
 20
68.76
 10
88.58496445740617
 20
68.76
 10
88.7800547794223
 20
68.74078528040323
 10
88.96764788977126
 20
68.6838795325113
 10
89.14053469042577
 20
68.59146961230255
 10
89.29207123859271
 20
68.46710678118656
 10
89.41643406970871
 20
68.31557023301961
 10
89.50884398991747
 20
68.14268343236509
 10
89.5657497378094
 20
67.95509032201613
 10
89.58496445740617
 20
67.76
 10
89.58496445740617
 20
64.76
 10
89.5657497378094
 20
64.56490967798388
 10
89.50884398991747
 20
64.37731656763492
 10
89.41643406970871
 20
64.2044297669804
 10
89.29207123859271
 20
64.05289321881345
 10
89.14053469042577
 20
63.92853038769746
 10
88.96764788977126
 20
63.83612046748872
 10
88.7800547794223
 20
63.77921471959677
 10
88.58496445740617
 20
63.760000000000005
 10
87.58496445740617
 20
63.760000000000005
 10
87.38987413539004
 20
63.77921471959677
 10
87.20228102504109
 20
63.83612046748872
 10
87.02939422438658
 20
63.92853038769746
 10
86.87785767621963
 20
64.05289321881345
 10
86.75349484510363
 20
64.2044297669804
 10
86.66108492489488
 20
64.37731656763492
 10
86.60417917700295
 20
64.56490967798388
 10
86.58496445740617
 20
64.76
  0
LWPOLYLINE
  5
58
330
17
100
AcDbEntity
  8
LIGHT_WINDOWS
100
AcDbPolyline
 90
36
 70
1
 10
85.99496445740618
 20
38.54
 10
86.01417917700294
 20
38.73509032201613
 10
86.07108492489489
 20
38.92268343236509
 10
86.16349484510363
 20
39.0955702330196
 10
86.28785767621963
 20
39.247106781186545
 10
86.43939422438658
 20
39.37146961230255
 10
86.61228102504109
 20
39.463879532511285
 10
86.79987413539004
 20
39.52078528040323
 10
86.99496445740618
 20
39.54
 10
87.99496445740618
 20
39.54
 10
88.1900547794223
 20
39.52078528040323
 10
88.37764788977127
 20
39.463879532511285
 10
88.55053469042578
 20
39.37146961230255
 10
88.70207123859272
 20
39.247106781186545
 10
88.82643406970872
 20
39.0955702330196
 10
88.91884398991746
 20
38.92268343236509
 10
88.97574973780941
 20
38.73509032201613
 10
88.99496445740618
 20
38.54
 10
88.99496445740618
 20
34.54
 10
88.97574973780941
 20
34.34490967798387
 10
88.91884398991746
 20
34.15731656763491
 10
88.82643406970872
 20
33.9844297669804
 10
88.70207123859272
 20
33.83289321881345
 10
88.55053469042578
 20
33.70853038769745
 10
88.37764788977127
 20
33.61612046748871
 10
88.1900547794223
 20
33.55921471959677
 10
87.99496445740618
 20
33.54
 10
86.99496445740618
 20
33.54
 10
86.79987413539004
 20
33.55921471959677
 10
86.61228102504109
 20
33.61612046748871
 10
86.43939422438658
 20
33.70853038769745
 10
86.28785767621963
 20
33.83289321881345
 10
86.16349484510363
 20
33.9844297669804
 10
86.07108492489489
 20
34.15731656763491
 10
86.01417917700294
 20
34.34490967798387
 10
85.99496445740618
 20
34.54
  0
LWPOLYLINE
  5
59
330
17
100
AcDbEntity
  8
LIGHT_WINDOWS
100
AcDbPolyline
 90
36
 70
1
 10
95.60496445740617
 20
13.429999999999998
 10
95.62033623308359
 20
13.586072257612901
 10
95.66586083139714
 20
13.73614674589207
 10
95.73978876756414
 20
13.87445618641568
 10
95.83927903245694
 20
13.995685424949237
 10
95.96050827099049
 20
14.095175689842034
 10
96.0988177115141
 20
14.169103626009028
 10
96.24889219979326
 20
14.214628224322583
 10
96.40496445740618
 20
14.229999999999999
 10
98.80496445740619
 20
14.229999999999999
 10
98.96103671501908
 20
14.214628224322583
 10
99.11111120329825
 20
14.169103626009028
 10
99.24942064382186
 20
14.095175689842034
 10
99.37064988235542
 20
13.995685424949237
 10
99.47014014724822
 20
13.87445618641568
 10
99.5440680834152
 20
13.73614674589207
 10
99.58959268172876
 20
13.586072257612901
 10
99.60496445740617
 20
13.429999999999998
 10
99.60496445740617
 20
12.63
 10
99.58959268172876
 20
12.473927742387097
 10
99.54406808341521
 20
12.323853254107929
 10
99.47014014724822
 20
12.185543813584319
 10
99.37064988235542
 20
12.064314575050762
 10
99.24942064382186
 20
11.964824310157965
 10
99.11111120329825
 20
11.890896373990971
 10
98.96103671501908
 20
11.845371775677416
 10
98.80496445740619
 20
11.83
 10
96.40496445740618
 20
11.83
 10
96.24889219979326
 20
11.845371775677416
 10
96.0988177115141
 20
11.890896373990971
 10
95.96050827099049
 20
11.964824310157965
 10
95.83927903245694
 20
12.064314575050762
 10
95.73978876756414
 20
12.185543813584319
 10
95.66586083139714
 20
12.323853254107929
 10
95.62033623308359
 20
12.473927742387097
 10
95.60496445740617
 20
12.63
  0
LWPOLYLINE
  5
5A
330
17
100
AcDbEntity
  8
LIGHT_WINDOWS
100
AcDbPolyline
 90
36
 70
1
 10
75.15496445740618
 20
13.849999999999998
 10
75.17033623308359
 20
14.006072257612901
 10
75.21586083139715
 20
14.15614674589207
 10
75.28978876756415
 20
14.29445618641568
 10
75.38927903245694
 20
14.415685424949237
 10
75.5105082709905
 20
14.515175689842033
 10
75.6488177115141
 20
14.589103626009027
 10
75.79889219979327
 20
14.634628224322583
 10
75.95496445740618
 20
14.649999999999999
 10
78.35496445740617
 20
14.649999999999999
 10
78.51103671501909
 20
14.634628224322583
 10
78.66111120329825
 20
14.589103626009027
 10
78.79942064382186
 20
14.515175689842033
 10
78.9206498823554
 20
14.415685424949237
 10
79.02014014724821
 20
14.29445618641568
 10
79.09406808341521
 20
14.15614674589207
 10
79.13959268172876
 20
14.0060722576129
 10
79.15496445740618
 20
13.849999999999998
 10
79.15496445740618
 20
13.05
 10
79.13959268172876
 20
12.893927742387097
 10
79.09406808341521
 20
12.743853254107929
 10
79.02014014724821
 20
12.605543813584319
 10
78.9206498823554
 20
12.484314575050762
 10
78.79942064382186
 20
12.384824310157965
 10
78.66111120329825
 20
12.310896373990971
 10
78.51103671501909
 20
12.265371775677416
 10
78.35496445740617
 20
12.25
 10
75.95496445740618
 20
12.25
 10
75.79889219979327
 20
12.265371775677416
 10
75.6488177115141
 20
12.310896373990971
 10
75.5105082709905
 20
12.384824310157963
 10
75.38927903245694
 20
12.484314575050762
 10
75.28978876756415
 20
12.605543813584319
 10
75.21586083139715
 20
12.743853254107929
 10
75.17033623308359
 20
12.893927742387097
 10
75.15496445740618
 20
13.05
  0
CIRCLE
  5
5B
330
17
100
AcDbEntity
  8
CLIPS
100
AcDbCircle
 10
110.00496445740617
 20
140.0
 30
0.0
 40
1.0
  0
CIRCLE
  5
5C
330
17
100
AcDbEntity
  8
CLIPS
100
AcDbCircle
 10
112.80496445740617
 20
90.0
 30
0.0
 40
1.0
  0
CIRCLE
  5
5D
330
17
100
AcDbEntity
  8
CLIPS
100
AcDbCircle
 10
111.40496445740618
 20
30.3
 30
0.0
 40
1.0
  0
CIRCLE
  5
5E
330
17
100
AcDbEntity
  8
CLIPS
100
AcDbCircle
 10
65.62496445740618
 20
140.0
 30
0.0
 40
1.0
  0
CIRCLE
  5
5F
330
17
100
AcDbEntity
  8
CLIPS
100
AcDbCircle
 10
62.82496445740618
 20
90.0
 30
0.0
 40
1.0
  0
CIRCLE
  5
60
330
17
100
AcDbEntity
  8
CLIPS
100
AcDbCircle
 10
96.90496445740618
 20
2.7
 30
0.0
 40
1.0
  0
CIRCLE
  5
61
330
17
100
AcDbEntity
  8
CLIPS
100
AcDbCircle
 10
78.72496445740617
 20
2.7
 30
0.0
 40
1.0
  0
TEXT
  5
62
330
17
100
AcDbEntity
  8
NOTES
100
AcDbText
 10
57.81496445740618
 20
-12.0
 30
0.0
 40
2.0
  1
MP62 IO plate v2 A0 - frontview - mm - Y up = MEG/base end
 11
57.81496445740618
 21
-12.0
 31
0.0
100
AcDbText
  0
ENDSEC
  0
SECTION
  2
OBJECTS
  0
DICTIONARY
  5
A
330
0
100
AcDbDictionary
281
1
  3
ACAD_COLOR
350
B
  3
ACAD_GROUP
350
C
  3
ACAD_LAYOUT
350
D
  3
ACAD_MATERIAL
350
E
  3
ACAD_MLEADERSTYLE
350
F
  3
ACAD_MLINESTYLE
350
10
  3
ACAD_PLOTSETTINGS
350
11
  3
ACAD_PLOTSTYLENAME
350
12
  3
ACAD_SCALELIST
350
14
  3
ACAD_TABLESTYLE
350
15
  3
ACAD_VISUALSTYLE
350
16
  3
EZDXF_META
350
2D
  0
DICTIONARY
  5
B
330
A
100
AcDbDictionary
281
1
  0
DICTIONARY
  5
C
330
A
100
AcDbDictionary
281
1
  0
DICTIONARY
  5
D
330
A
100
AcDbDictionary
281
1
  3
Model
350
1A
  3
Layout1
350
1E
  0
DICTIONARY
  5
E
330
A
100
AcDbDictionary
281
1
  3
ByBlock
350
1F
  3
ByLayer
350
20
  3
Global
350
21
  0
DICTIONARY
  5
F
330
A
100
AcDbDictionary
281
1
  3
Standard
350
2C
  0
DICTIONARY
  5
10
330
A
100
AcDbDictionary
281
1
  3
Standard
350
22
  0
DICTIONARY
  5
11
330
A
100
AcDbDictionary
281
1
  0
ACDBDICTIONARYWDFLT
  5
12
330
A
100
AcDbDictionary
281
1
  3
Normal
350
13
100
AcDbDictionaryWithDefault
340
13
  0
ACDBPLACEHOLDER
  5
13
330
12
  0
DICTIONARY
  5
14
330
A
100
AcDbDictionary
281
1
  0
DICTIONARY
  5
15
330
A
100
AcDbDictionary
281
1
  0
DICTIONARY
  5
16
330
A
100
AcDbDictionary
281
1
  0
LAYOUT
  5
1A
330
D
100
AcDbPlotSettings
  1

  4
A3
  6

 40
7.5
 41
20.0
 42
7.5
 43
20.0
 44
420.0
 45
297.0
 46
0.0
 47
0.0
 48
0.0
 49
0.0
140
0.0
141
0.0
142
1.0
143
1.0
 70
1024
 72
1
 73
0
 74
5
  7

 75
16
 76
0
 77
2
 78
300
147
1.0
148
0.0
149
0.0
100
AcDbLayout
  1
Model
 70
1
 71
0
 10
0.0
 20
0.0
 11
420.0
 21
297.0
 12
0.0
 22
0.0
 32
0.0
 14
1e+20
 24
1e+20
 34
1e+20
 15
-1e+20
 25
-1e+20
 35
-1e+20
146
0.0
 13
0.0
 23
0.0
 33
0.0
 16
1.0
 26
0.0
 36
0.0
 17
0.0
 27
1.0
 37
0.0
 76
1
330
17
  0
LAYOUT
  5
1E
330
D
100
AcDbPlotSettings
  1

  4
A3
  6

 40
7.5
 41
20.0
 42
7.5
 43
20.0
 44
420.0
 45
297.0
 46
0.0
 47
0.0
 48
0.0
 49
0.0
140
0.0
141
0.0
142
1.0
143
1.0
 70
0
 72
1
 73
0
 74
5
  7

 75
16
 76
0
 77
2
 78
300
147
1.0
148
0.0
149
0.0
100
AcDbLayout
  1
Layout1
 70
1
 71
1
 10
0.0
 20
0.0
 11
420.0
 21
297.0
 12
0.0
 22
0.0
 32
0.0
 14
1e+20
 24
1e+20
 34
1e+20
 15
-1e+20
 25
-1e+20
 35
-1e+20
146
0.0
 13
0.0
 23
0.0
 33
0.0
 16
1.0
 26
0.0
 36
0.0
 17
0.0
 27
1.0
 37
0.0
 76
1
330
1B
  0
MATERIAL
  5
1F
102
{ACAD_REACTORS
330
E
102
}
330
E
100
AcDbMaterial
  1
ByBlock
  2

 70
0
 40
1.0
 71
1
 41
1.0
 91
-1023410177
 42
1.0
 72
1
  3

 73
1
 74
1
 75
1
 44
0.5
 73
0
 45
1.0
 46
1.0
 77
1
  4

 78
1
 79
1
170
1
 48
1.0
171
1
  6

172
1
173
1
174
1
140
1.0
141
1.0
175
1
  7

176
1
177
1
178
1
143
1.0
179
1
  8

270
1
271
1
272
1
145
1.0
146
1.0
273
1
  9

274
1
275
1
276
1
 42
1.0
 72
1
  3

 73
1
 74
1
 75
1
 94
63
  0
MATERIAL
  5
20
102
{ACAD_REACTORS
330
E
102
}
330
E
100
AcDbMaterial
  1
ByLayer
  2

 70
0
 40
1.0
 71
1
 41
1.0
 91
-1023410177
 42
1.0
 72
1
  3

 73
1
 74
1
 75
1
 44
0.5
 73
0
 45
1.0
 46
1.0
 77
1
  4

 78
1
 79
1
170
1
 48
1.0
171
1
  6

172
1
173
1
174
1
140
1.0
141
1.0
175
1
  7

176
1
177
1
178
1
143
1.0
179
1
  8

270
1
271
1
272
1
145
1.0
146
1.0
273
1
  9

274
1
275
1
276
1
 42
1.0
 72
1
  3

 73
1
 74
1
 75
1
 94
63
  0
MATERIAL
  5
21
102
{ACAD_REACTORS
330
E
102
}
330
E
100
AcDbMaterial
  1
Global
  2

 70
0
 40
1.0
 71
1
 41
1.0
 91
-1023410177
 42
1.0
 72
1
  3

 73
1
 74
1
 75
1
 44
0.5
 73
0
 45
1.0
 46
1.0
 77
1
  4

 78
1
 79
1
170
1
 48
1.0
171
1
  6

172
1
173
1
174
1
140
1.0
141
1.0
175
1
  7

176
1
177
1
178
1
143
1.0
179
1
  8

270
1
271
1
272
1
145
1.0
146
1.0
273
1
  9

274
1
275
1
276
1
 42
1.0
 72
1
  3

 73
1
 74
1
 75
1
 94
63
  0
MLINESTYLE
  5
22
102
{ACAD_REACTORS
330
10
102
}
330
10
100
AcDbMlineStyle
  2
Standard
 70
0
  3

 62
256
 51
90.0
 52
90.0
 71
2
 49
0.5
 62
256
  6
BYLAYER
 49
-0.5
 62
256
  6
BYLAYER
  0
MLEADERSTYLE
  5
2C
102
{ACAD_REACTORS
330
F
102
}
330
F
100
AcDbMLeaderStyle
179
2
170
2
171
1
172
0
 90
2
 40
0.0
 41
0.0
173
1
 91
-1056964608
 92
-2
290
1
 42
2.0
291
1
 43
8.0
  3
Standard
 44
4.0
300

342
29
174
1
175
1
176
0
178
1
 93
-1056964608
 45
4.0
292
0
297
0
 46
4.0
 94
-1056964608
 47
1.0
 49
1.0
140
1.0
294
1
141
0.0
177
0
142
1.0
295
0
296
0
143
3.75
271
0
272
9
273
9
  0
DICTIONARY
  5
2D
330
A
100
AcDbDictionary
280
1
281
1
  3
CREATED_BY_EZDXF
350
2E
  3
WRITTEN_BY_EZDXF
350
65
  0
DICTIONARYVAR
  5
2E
330
2D
100
DictionaryVariables
280
0
  1
1.4.4 @ 2026-10-02T13:06:10.999703+00:00
  0
DICTIONARYVAR
  5
65
330
2D
100
DictionaryVariables
280
0
  1
1.4.4 @ 2026-10-02T13:06:11.003731+00:00
  0
ENDSEC
  0
EOF
