  0
SECTION
  2
HEADER
  9
$ACADVER
  1
AC1024
  9
$ACADMAINTVER
 70
6
  9
$DWGCODEPAGE
  3
ANSI_1252
  9
$LASTSAVEDBY
  1
ezdxf
  9
$INSBASE
 10
0.0
 20
0.0
 30
0.0
  9
$EXTMIN
 10
1e+20
 20
1e+20
 30
1e+20
  9
$EXTMAX
 10
-1e+20
 20
-1e+20
 30
-1e+20
  9
$LIMMIN
 10
0.0
 20
0.0
  9
$LIMMAX
 10
420.0
 20
297.0
  9
$ORTHOMODE
 70
0
  9
$REGENMODE
 70
1
  9
$FILLMODE
 70
1
  9
$QTEXTMODE
 70
0
  9
$MIRRTEXT
 70
1
  9
$LTSCALE
 40
1.0
  9
$ATTMODE
 70
1
  9
$TEXTSIZE
 40
2.5
  9
$TRACEWID
 40
1.0
  9
$TEXTSTYLE
  7
Standard
  9
$CLAYER
  8
0
  9
$CELTYPE
  6
ByLayer
  9
$CECOLOR
 62
256
  9
$CELTSCALE
 40
1.0
  9
$DISPSILH
 70
0
  9
$DIMSCALE
 40
1.0
  9
$DIMASZ
 40
2.5
  9
$DIMEXO
 40
0.625
  9
$DIMDLI
 40
3.75
  9
$DIMRND
 40
0.0
  9
$DIMDLE
 40
0.0
  9
$DIMEXE
 40
1.25
  9
$DIMTP
 40
0.0
  9
$DIMTM
 40
0.0
  9
$DIMTXT
 40
2.5
  9
$DIMCEN
 40
2.5
  9
$DIMTSZ
 40
0.0
  9
$DIMTOL
 70
0
  9
$DIMLIM
 70
0
  9
$DIMTIH
 70
0
  9
$DIMTOH
 70
0
  9
$DIMSE1
 70
0
  9
$DIMSE2
 70
0
  9
$DIMTAD
 70
1
  9
$DIMZIN
 70
8
  9
$DIMBLK
  1

  9
$DIMASO
 70
1
  9
$DIMSHO
 70
1
  9
$DIMPOST
  1

  9
$DIMAPOST
  1

  9
$DIMALT
 70
0
  9
$DIMALTD
 70
3
  9
$DIMALTF
 40
0.03937007874
  9
$DIMLFAC
 40
1.0
  9
$DIMTOFL
 70
1
  9
$DIMTVP
 40
0.0
  9
$DIMTIX
 70
0
  9
$DIMSOXD
 70
0
  9
$DIMSAH
 70
0
  9
$DIMBLK1
  1

  9
$DIMBLK2
  1

  9
$DIMSTYLE
  2
ISO-25
  9
$DIMCLRD
 70
0
  9
$DIMCLRE
 70
0
  9
$DIMCLRT
 70
0
  9
$DIMTFAC
 40
1.0
  9
$DIMGAP
 40
0.625
  9
$DIMJUST
 70
0
  9
$DIMSD1
 70
0
  9
$DIMSD2
 70
0
  9
$DIMTOLJ
 70
0
  9
$DIMTZIN
 70
8
  9
$DIMALTZ
 70
0
  9
$DIMALTTZ
 70
0
  9
$DIMUPT
 70
0
  9
$DIMDEC
 70
2
  9
$DIMTDEC
 70
2
  9
$DIMALTU
 70
2
  9
$DIMALTTD
 70
3
  9
$DIMTXSTY
  7
Standard
  9
$DIMAUNIT
 70
0
  9
$DIMADEC
 70
0
  9
$DIMALTRND
 40
0.0
  9
$DIMAZIN
 70
0
  9
$DIMDSEP
 70
44
  9
$DIMATFIT
 70
3
  9
$DIMFRAC
 70
0
  9
$DIMLDRBLK
  1

  9
$DIMLUNIT
 70
2
  9
$DIMLWD
 70
-2
  9
$DIMLWE
 70
-2
  9
$DIMTMOVE
 70
0
  9
$DIMFXL
 40
1.0
  9
$DIMFXLON
 70
0
  9
$DIMJOGANG
 40
0.785398163397
  9
$DIMTFILL
 70
0
  9
$DIMTFILLCLR
 70
0
  9
$DIMARCSYM
 70
0
  9
$DIMLTYPE
  6

  9
$DIMLTEX1
  6

  9
$DIMLTEX2
  6

  9
$DIMTXTDIRECTION
 70
0
  9
$LUNITS
 70
2
  9
$LUPREC
 70
4
  9
$SKETCHINC
 40
1.0
  9
$FILLETRAD
 40
10.0
  9
$AUNITS
 70
0
  9
$AUPREC
 70
2
  9
$MENU
  1
.
  9
$ELEVATION
 40
0.0
  9
$PELEVATION
 40
0.0
  9
$THICKNESS
 40
0.0
  9
$LIMCHECK
 70
0
  9
$CHAMFERA
 40
0.0
  9
$CHAMFERB
 40
0.0
  9
$CHAMFERC
 40
0.0
  9
$CHAMFERD
 40
0.0
  9
$SKPOLY
 70
0
  9
$TDCREATE
 40
2461316.503599537
  9
$TDUCREATE
 40
2458532.153996898
  9
$TDUPDATE
 40
2461316.503599537
  9
$TDUUPDATE
 40
2458532.1544311
  9
$TDINDWG
 40
0.0
  9
$TDUSRTIMER
 40
0.0
  9
$USRTIMER
 70
1
  9
$ANGBASE
 50
0.0
  9
$ANGDIR
 70
0
  9
$PDMODE
 70
0
  9
$PDSIZE
 40
0.0
  9
$PLINEWID
 40
0.0
  9
$SPLFRAME
 70
0
  9
$SPLINETYPE
 70
6
  9
$SPLINESEGS
 70
8
  9
$HANDSEED
  5
6B
  9
$SURFTAB1
 70
6
  9
$SURFTAB2
 70
6
  9
$SURFTYPE
 70
6
  9
$SURFU
 70
6
  9
$SURFV
 70
6
  9
$UCSBASE
  2

  9
$UCSNAME
  2

  9
$UCSORG
 10
0.0
 20
0.0
 30
0.0
  9
$UCSXDIR
 10
1.0
 20
0.0
 30
0.0
  9
$UCSYDIR
 10
0.0
 20
1.0
 30
0.0
  9
$UCSORTHOREF
  2

  9
$UCSORTHOVIEW
 70
0
  9
$UCSORGTOP
 10
0.0
 20
0.0
 30
0.0
  9
$UCSORGBOTTOM
 10
0.0
 20
0.0
 30
0.0
  9
$UCSORGLEFT
 10
0.0
 20
0.0
 30
0.0
  9
$UCSORGRIGHT
 10
0.0
 20
0.0
 30
0.0
  9
$UCSORGFRONT
 10
0.0
 20
0.0
 30
0.0
  9
$UCSORGBACK
 10
0.0
 20
0.0
 30
0.0
  9
$PUCSBASE
  2

  9
$PUCSNAME
  2

  9
$PUCSORG
 10
0.0
 20
0.0
 30
0.0
  9
$PUCSXDIR
 10
1.0
 20
0.0
 30
0.0
  9
$PUCSYDIR
 10
0.0
 20
1.0
 30
0.0
  9
$PUCSORTHOREF
  2

  9
$PUCSORTHOVIEW
 70
0
  9
$PUCSORGTOP
 10
0.0
 20
0.0
 30
0.0
  9
$PUCSORGBOTTOM
 10
0.0
 20
0.0
 30
0.0
  9
$PUCSORGLEFT
 10
0.0
 20
0.0
 30
0.0
  9
$PUCSORGRIGHT
 10
0.0
 20
0.0
 30
0.0
  9
$PUCSORGFRONT
 10
0.0
 20
0.0
 30
0.0
  9
$PUCSORGBACK
 10
0.0
 20
0.0
 30
0.0
  9
$USERI1
 70
0
  9
$USERI2
 70
0
  9
$USERI3
 70
0
  9
$USERI4
 70
0
  9
$USERI5
 70
0
  9
$USERR1
 40
0.0
  9
$USERR2
 40
0.0
  9
$USERR3
 40
0.0
  9
$USERR4
 40
0.0
  9
$USERR5
 40
0.0
  9
$WORLDVIEW
 70
1
  9
$SHADEDGE
 70
3
  9
$SHADEDIF
 70
70
  9
$TILEMODE
 70
1
  9
$MAXACTVP
 70
64
  9
$PINSBASE
 10
0.0
 20
0.0
 30
0.0
  9
$PLIMCHECK
 70
0
  9
$PEXTMIN
 10
1e+20
 20
1e+20
 30
1e+20
  9
$PEXTMAX
 10
-1e+20
 20
-1e+20
 30
-1e+20
  9
$PLIMMIN
 10
0.0
 20
0.0
  9
$PLIMMAX
 10
420.0
 20
297.0
  9
$UNITMODE
 70
0
  9
$VISRETAIN
 70
1
  9
$PLINEGEN
 70
0
  9
$PSLTSCALE
 70
1
  9
$TREEDEPTH
 70
3020
  9
$CMLSTYLE
  2
Standard
  9
$CMLJUST
 70
0
  9
$CMLSCALE
 40
20.0
  9
$PROXYGRAPHICS
 70
1
  9
$MEASUREMENT
 70
1
  9
$CELWEIGHT
370
-1
  9
$ENDCAPS
280
0
  9
$JOINSTYLE
280
0
  9
$LWDISPLAY
290
0
  9
$INSUNITS
 70
6
  9
$HYPERLINKBASE
  1

  9
$STYLESHEET
  1

  9
$XEDIT
290
1
  9
$CEPSNTYPE
380
0
  9
$PSTYLEMODE
290
1
  9
$FINGERPRINTGUID
  2
{F31C06CF-05B3-462E-8364-6E72611021EA}
  9
$VERSIONGUID
  2
{74281591-657D-4848-AE44-8B86FBAB654B}
  9
$EXTNAMES
290
1
  9
$PSVPSCALE
 40
0.0
  9
$OLESTARTUP
290
0
  9
$SORTENTS
280
127
  9
$INDEXCTL
280
0
  9
$HIDETEXT
280
1
  9
$XCLIPFRAME
280
1
  9
$HALOGAP
280
0
  9
$OBSCOLOR
 70
257
  9
$OBSLTYPE
280
0
  9
$INTERSECTIONDISPLAY
280
0
  9
$INTERSECTIONCOLOR
 70
257
  9
$DIMASSOC
280
2
  9
$PROJECTNAME
  1

  9
$CAMERADISPLAY
290
0
  9
$LENSLENGTH
 40
50.0
  9
$CAMERAHEIGHT
 40
0.0
  9
$STEPSPERSEC
 40
24.0
  9
$STEPSIZE
 40
100.0
  9
$3DDWFPREC
 40
2.0
  9
$PSOLWIDTH
 40
0.005
  9
$PSOLHEIGHT
 40
0.08
  9
$LOFTANG1
 40
1.570796326795
  9
$LOFTANG2
 40
1.570796326795
  9
$LOFTMAG1
 40
0.0
  9
$LOFTMAG2
 40
0.0
  9
$LOFTPARAM
 70
7
  9
$LOFTNORMALS
280
1
  9
$LATITUDE
 40
37.795
  9
$LONGITUDE
 40
-122.394
  9
$NORTHDIRECTION
 40
0.0
  9
$TIMEZONE
 70
-8000
  9
$LIGHTGLYPHDISPLAY
280
1
  9
$TILEMODELIGHTSYNCH
280
1
  9
$CMATERIAL
347
20
  9
$SOLIDHIST
280
0
  9
$SHOWHIST
280
1
  9
$DWFFRAME
280
2
  9
$DGNFRAME
280
2
  9
$REALWORLDSCALE
290
1
  9
$INTERFERECOLOR
 62
256
  9
$CSHADOW
280
0
  9
$SHADOWPLANELOCATION
 40
0.0
  0
ENDSEC
  0
SECTION
  2
CLASSES
  0
CLASS
  1
ACDBDICTIONARYWDFLT
  2
AcDbDictionaryWithDefault
  3
ObjectDBX Classes
 90
0
 91
0
280
0
281
0
  0
CLASS
  1
SUN
  2
AcDbSun
  3
SCENEOE
 90
1153
 91
0
280
0
281
0
  0
CLASS
  1
VISUALSTYLE
  2
AcDbVisualStyle
  3
ObjectDBX Classes
 90
4095
 91
0
280
0
281
0
  0
CLASS
  1
MATERIAL
  2
AcDbMaterial
  3
ObjectDBX Classes
 90
1153
 91
0
280
0
281
0
  0
CLASS
  1
SCALE
  2
AcDbScale
  3
ObjectDBX Classes
 90
1153
 91
0
280
0
281
0
  0
CLASS
  1
TABLESTYLE
  2
AcDbTableStyle
  3
ObjectDBX Classes
 90
4095
 91
0
280
0
281
0
  0
CLASS
  1
MLEADERSTYLE
  2
AcDbMLeaderStyle
  3
ACDB_MLEADERSTYLE_CLASS
 90
4095
 91
0
280
0
281
0
  0
CLASS
  1
DICTIONARYVAR
  2
AcDbDictionaryVar
  3
ObjectDBX Classes
 90
0
 91
0
280
0
281
0
  0
CLASS
  1
CELLSTYLEMAP
  2
AcDbCellStyleMap
  3
ObjectDBX Classes
 90
1152
 91
0
280
0
281
0
  0
CLASS
  1
MENTALRAYRENDERSETTINGS
  2
AcDbMentalRayRenderSettings
  3
SCENEOE
 90
1024
 91
0
280
0
281
0
  0
CLASS
  1
ACDBDETAILVIEWSTYLE
  2
AcDbDetailViewStyle
  3
ObjectDBX Classes
 90
1025
 91
0
280
0
281
0
  0
CLASS
  1
ACDBSECTIONVIEWSTYLE
  2
AcDbSectionViewStyle
  3
ObjectDBX Classes
 90
1025
 91
0
280
0
281
0
  0
CLASS
  1
RASTERVARIABLES
  2
AcDbRasterVariables
  3
ISM
 90
0
 91
0
280
0
281
0
  0
CLASS
  1
LAYOUT
  2
AcDbLayout
  3
ObjectDBX Classes
 90
0
 91
0
280
0
281
0
  0
CLASS
  1
ACDBPLACEHOLDER
  2
AcDbPlaceHolder
  3
ObjectDBX Classes
 90
0
 91
0
280
0
281
0
  0
ENDSEC
  0
SECTION
  2
TABLES
  0
TABLE
  2
VPORT
  5
8
330
0
100
AcDbSymbolTable
 70
1
  0
VPORT
  5
23
330
8
100
AcDbSymbolTableRecord
100
AcDbViewportTableRecord
  2
*Active
 70
0
 10
0.0
 20
0.0
 11
1.0
 21
1.0
 12
0.0
 22
0.0
 13
0.0
 23
0.0
 14
0.5
 24
0.5
 15
0.5
 25
0.5
 16
0.0
 26
0.0
 36
1.0
 17
0.0
 27
0.0
 37
0.0
 40
1000.0
 41
1.34
 42
50.0
 43
0.0
 44
0.0
 50
0.0
 51
0.0
 71
0
 72
1000
 73
1
 74
3
 75
0
 76
0
 77
0
 78
0
281
0
 65
0
146
0.0
  0
ENDTAB
  0
TABLE
  2
LTYPE
  5
2
330
0
100
AcDbSymbolTable
 70
3
  0
LTYPE
  5
24
330
2
100
AcDbSymbolTableRecord
100
AcDbLinetypeTableRecord
  2
ByBlock
 70
0
  3

 72
65
 73
0
 40
0.0
  0
LTYPE
  5
25
330
2
100
AcDbSymbolTableRecord
100
AcDbLinetypeTableRecord
  2
ByLayer
 70
0
  3

 72
65
 73
0
 40
0.0
  0
LTYPE
  5
26
330
2
100
AcDbSymbolTableRecord
100
AcDbLinetypeTableRecord
  2
Continuous
 70
0
  3

 72
65
 73
0
 40
0.0
  0
ENDTAB
  0
TABLE
  2
LAYER
  5
1
330
0
100
AcDbSymbolTable
 70
9
  0
LAYER
  5
27
330
1
100
AcDbSymbolTableRecord
100
AcDbLayerTableRecord
  2
0
 70
0
 62
7
  6
Continuous
370
-3
390
13
347
21
  0
LAYER
  5
28
330
1
100
AcDbSymbolTableRecord
100
AcDbLayerTableRecord
  2
Defpoints
 70
0
 62
7
  6
Continuous
290
0
370
-3
390
13
347
21
  0
LAYER
  5
2F
330
1
100
AcDbSymbolTableRecord
100
AcDbLayerTableRecord
  2
OUTLINE
 70
0
 62
7
  6
Continuous
370
-3
390
13
347
21
  0
LAYER
  5
30
330
1
100
AcDbSymbolTableRecord
100
AcDbLayerTableRecord
  2
OPENINGS
 70
0
 62
7
  6
Continuous
370
-3
390
13
347
21
  0
LAYER
  5
31
330
1
100
AcDbSymbolTableRecord
100
AcDbLayerTableRecord
  2
LIGHT_WINDOWS
 70
0
 62
7
  6
Continuous
370
-3
390
13
347
21
  0
LAYER
  5
32
330
1
100
AcDbSymbolTableRecord
100
AcDbLayerTableRecord
  2
SPOTFACES
 70
0
 62
7
  6
Continuous
370
-3
390
13
347
21
  0
LAYER
  5
33
330
1
100
AcDbSymbolTableRecord
100
AcDbLayerTableRecord
  2
CLIPS
 70
0
 62
7
  6
Continuous
370
-3
390
13
347
21
  0
LAYER
  5
34
330
1
100
AcDbSymbolTableRecord
100
AcDbLayerTableRecord
  2
PINS
 70
0
 62
7
  6
Continuous
370
-3
390
13
347
21
  0
LAYER
  5
35
330
1
100
AcDbSymbolTableRecord
100
AcDbLayerTableRecord
  2
NOTES
 70
0
 62
7
  6
Continuous
370
-3
390
13
347
21
  0
ENDTAB
  0
TABLE
  2
STYLE
  5
5
330
0
100
AcDbSymbolTable
 70
1
  0
STYLE
  5
29
330
5
100
AcDbSymbolTableRecord
100
AcDbTextStyleTableRecord
  2
Standard
 70
0
 40
0.0
 41
1.0
 50
0.0
 71
0
 42
2.5
  3
txt
  4

  0
ENDTAB
  0
TABLE
  2
VIEW
  5
7
330
0
100
AcDbSymbolTable
 70
0
  0
ENDTAB
  0
TABLE
  2
UCS
  5
6
330
0
100
AcDbSymbolTable
 70
0
  0
ENDTAB
  0
TABLE
  2
APPID
  5
3
330
0
100
AcDbSymbolTable
 70
3
  0
APPID
  5
2A
330
3
100
AcDbSymbolTableRecord
100
AcDbRegAppTableRecord
  2
ACAD
 70
0
  0
APPID
  5
68
330
3
100
AcDbSymbolTableRecord
100
AcDbRegAppTableRecord
  2
HATCHBACKGROUNDCOLOR
 70
0
  0
APPID
  5
69
330
3
100
AcDbSymbolTableRecord
100
AcDbRegAppTableRecord
  2
EZDXF
 70
0
  0
ENDTAB
  0
TABLE
  2
DIMSTYLE
  5
4
330
0
100
AcDbSymbolTable
 70
1
100
AcDbDimStyleTable
  0
DIMSTYLE
105
2B
330
4
100
AcDbSymbolTableRecord
100
AcDbDimStyleTableRecord
  2
Standard
 70
0
 40
1.0
 41
2.5
 42
0.625
 43
3.75
 44
1.25
 45
0.0
 46
0.0
 47
0.0
 48
0.0
 49
2.5
140
2.5
141
2.5
142
0.0
143
0.03937007874
144
1.0
145
0.0
146
1.0
147
0.625
148
0.0
 69
0
 70
0
 71
0
 72
0
 73
0
 74
0
 75
0
 76
0
 77
1
 78
8
 79
3
170
0
171
3
172
1
173
0
174
0
175
0
176
0
177
0
178
0
179
2
271
2
272
2
273
2
274
3
275
0
276
0
277
2
278
44
279
0
280
0
281
0
282
0
283
0
284
8
285
0
286
0
288
0
289
3
290
0
371
-2
372
-2
  0
ENDTAB
  0
TABLE
  2
BLOCK_RECORD
  5
9
330
0
100
AcDbSymbolTable
 70
2
  0
BLOCK_RECORD
  5
17
330
9
100
AcDbSymbolTableRecord
100
AcDbBlockTableRecord
  2
*Model_Space
340
1A
 70
0
280
1
281
0
  0
BLOCK_RECORD
  5
1B
330
9
100
AcDbSymbolTableRecord
100
AcDbBlockTableRecord
  2
*Paper_Space
340
1E
 70
0
280
1
281
0
  0
ENDTAB
  0
ENDSEC
  0
SECTION
  2
BLOCKS
  0
BLOCK
  5
18
330
17
100
AcDbEntity
  8
0
100
AcDbBlockBegin
  2
*Model_Space
 70
0
 10
0.0
 20
0.0
 30
0.0
  3
*Model_Space
  1

  0
ENDBLK
  5
19
330
17
100
AcDbEntity
  8
0
100
AcDbBlockEnd
  0
BLOCK
  5
1C
330
1B
100
AcDbEntity
  8
0
100
AcDbBlockBegin
  2
*Paper_Space
 70
0
 10
0.0
 20
0.0
 30
0.0
  3
*Paper_Space
  1

  0
ENDBLK
  5
1D
330
1B
100
AcDbEntity
  8
0
100
AcDbBlockEnd
  0
ENDSEC
  0
SECTION
  2
ENTITIES
  0
LWPOLYLINE
  5
36
330
17
100
AcDbEntity
  8
OUTLINE
100
AcDbPolyline
 90
36
 70
1
 10
61.864964457406174
 20
147.12
 10
62.08593373276902
 20
149.36353870318547
 10
62.74034983352638
 20
151.52085947219854
 10
63.8030639159269
 20
153.50905767972543
 10
65.23323647376088
 20
155.2517279836453
 10
66.97590677768075
 20
156.68190054147928
 10
68.96410498520764
 20
157.7446146238798
 10
71.1214257542207
 20
158.39903072463716
 10
73.36496445740617
 20
158.62
 10
102.26496445740618
 20
158.62
 10
104.50850316059166
 20
158.39903072463716
 10
106.66582392960471
 20
157.7446146238798
 10
108.6540221371316
 20
156.68190054147928
 10
110.39669244105147
 20
155.2517279836453
 10
111.82686499888545
 20
153.50905767972543
 10
112.88957908128597
 20
151.52085947219854
 10
113.54399518204333
 20
149.36353870318547
 10
113.76496445740618
 20
147.12
 10
113.76496445740618
 20
7.019999999999998
 10
113.54399518204333
 20
4.77646129681452
 10
112.88957908128597
 20
2.6191405278014646
 10
111.82686499888544
 20
0.6309423202745696
 10
110.39669244105147
 20
-1.1117279836453005
 10
108.6540221371316
 20
-2.541900541479274
 10
106.66582392960471
 20
-3.6046146238798027
 10
104.50850316059166
 20
-4.259030724637153
 10
102.26496445740618
 20
-4.480000000000004
 10
73.36496445740617
 20
-4.480000000000004
 10
71.1214257542207
 20
-4.259030724637153
 10
68.96410498520764
 20
-3.604614623879801
 10
66.97590677768075
 20
-2.5419005414792775
 10
65.23323647376088
 20
-1.1117279836453022
 10
63.8030639159269
 20
0.6309423202745705
 10
62.74034983352638
 20
2.6191405278014663
 10
62.08593373276902
 20
4.7764612968145155
 10
61.864964457406174
 20
7.019999999999993
  0
LWPOLYLINE
  5
37
330
17
100
AcDbEntity
  8
OPENINGS
100
AcDbPolyline
 90
36
 70
1
 10
93.11896445740618
 20
75.95700000000001
 10
93.15355095268036
 20
76.30816257962904
 10
93.25598129888586
 20
76.64583017825717
 10
93.42231915526159
 20
76.9570264194353
 10
93.6461722512704
 20
77.2297922061358
 10
93.91893803797089
 20
77.4536453021446
 10
94.23013427914901
 20
77.61998315852033
 10
94.56780187777714
 20
77.72241350472582
 10
94.91896445740618
 20
77.757
 10
100.91896445740618
 20
77.757
 10
101.27012703703521
 20
77.72241350472582
 10
101.60779463566334
 20
77.61998315852033
 10
101.91899087684146
 20
77.4536453021446
 10
102.19175666354195
 20
77.2297922061358
 10
102.41560975955076
 20
76.9570264194353
 10
102.5819476159265
 20
76.64583017825717
 10
102.68437796213199
 20
76.30816257962904
 10
102.71896445740617
 20
75.95700000000001
 10
102.71896445740617
 20
75.557
 10
102.68437796213199
 20
75.20583742037097
 10
102.5819476159265
 20
74.86816982174284
 10
102.41560975955076
 20
74.55697358056472
 10
102.19175666354195
 20
74.28420779386421
 10
101.91899087684146
 20
74.06035469785542
 10
101.60779463566334
 20
73.89401684147968
 10
101.27012703703521
 20
73.79158649527419
 10
100.91896445740618
 20
73.757
 10
94.91896445740618
 20
73.757
 10
94.56780187777714
 20
73.79158649527419
 10
94.23013427914901
 20
73.89401684147968
 10
93.91893803797089
 20
74.06035469785542
 10
93.6461722512704
 20
74.28420779386421
 10
93.42231915526159
 20
74.55697358056472
 10
93.25598129888586
 20
74.86816982174284
 10
93.15355095268036
 20
75.20583742037097
 10
93.11896445740618
 20
75.557
  0
TEXT
  5
38
330
17
100
AcDbEntity
  8
NOTES
100
AcDbText
 10
95.91896445740618
 20
78.357
 30
0.0
 40
1.2
  1
C1
 11
95.91896445740618
 21
78.357
 31
0.0
100
AcDbText
  0
LWPOLYLINE
  5
39
330
17
100
AcDbEntity
  8
OPENINGS
100
AcDbPolyline
 90
36
 70
1
 10
72.51896445740617
 20
75.95700000000001
 10
72.55355095268035
 20
76.30816257962904
 10
72.65598129888585
 20
76.64583017825717
 10
72.82231915526158
 20
76.9570264194353
 10
73.04617225127038
 20
77.2297922061358
 10
73.31893803797088
 20
77.4536453021446
 10
73.630134279149
 20
77.61998315852033
 10
73.96780187777713
 20
77.72241350472582
 10
74.31896445740617
 20
77.757
 10
80.31896445740617
 20
77.757
 10
80.6701270370352
 20
77.72241350472582
 10
81.00779463566334
 20
77.61998315852033
 10
81.31899087684147
 20
77.4536453021446
 10
81.59175666354196
 20
77.2297922061358
 10
81.81560975955075
 20
76.9570264194353
 10
81.98194761592649
 20
76.64583017825717
 10
82.08437796213198
 20
76.30816257962904
 10
82.11896445740618
 20
75.95700000000001
 10
82.11896445740618
 20
75.557
 10
82.08437796213198
 20
75.20583742037097
 10
81.98194761592649
 20
74.86816982174284
 10
81.81560975955075
 20
74.55697358056472
 10
81.59175666354196
 20
74.28420779386421
 10
81.31899087684147
 20
74.06035469785542
 10
81.00779463566334
 20
73.89401684147968
 10
80.6701270370352
 20
73.79158649527419
 10
80.31896445740617
 20
73.757
 10
74.31896445740617
 20
73.757
 10
73.96780187777713
 20
73.79158649527419
 10
73.630134279149
 20
73.89401684147968
 10
73.31893803797088
 20
74.06035469785542
 10
73.04617225127038
 20
74.28420779386421
 10
72.82231915526158
 20
74.55697358056472
 10
72.65598129888585
 20
74.86816982174284
 10
72.55355095268035
 20
75.20583742037097
 10
72.51896445740617
 20
75.557
  0
TEXT
  5
3A
330
17
100
AcDbEntity
  8
NOTES
100
AcDbText
 10
75.31896445740617
 20
78.357
 30
0.0
 40
1.2
  1
C4
 11
75.31896445740617
 21
78.357
 31
0.0
100
AcDbText
  0
LWPOLYLINE
  5
3B
330
17
100
AcDbEntity
  8
OPENINGS
100
AcDbPolyline
 90
36
 70
1
 10
93.11896445740618
 20
66.04
 10
93.15355095268036
 20
66.39116257962904
 10
93.25598129888586
 20
66.72883017825717
 10
93.42231915526159
 20
67.04002641943529
 10
93.6461722512704
 20
67.3127922061358
 10
93.91893803797089
 20
67.53664530214459
 10
94.23013427914901
 20
67.70298315852033
 10
94.56780187777714
 20
67.80541350472582
 10
94.91896445740618
 20
67.84
 10
100.91896445740618
 20
67.84
 10
101.27012703703521
 20
67.80541350472582
 10
101.60779463566334
 20
67.70298315852033
 10
101.91899087684146
 20
67.53664530214459
 10
102.19175666354195
 20
67.3127922061358
 10
102.41560975955076
 20
67.04002641943529
 10
102.5819476159265
 20
66.72883017825717
 10
102.68437796213199
 20
66.39116257962904
 10
102.71896445740617
 20
66.04
 10
102.71896445740617
 20
65.64
 10
102.68437796213199
 20
65.28883742037097
 10
102.5819476159265
 20
64.95116982174284
 10
102.41560975955076
 20
64.63997358056471
 10
102.19175666354195
 20
64.36720779386421
 10
101.91899087684146
 20
64.14335469785541
 10
101.60779463566334
 20
63.97701684147968
 10
101.27012703703521
 20
63.87458649527419
 10
100.91896445740618
 20
63.84
 10
94.91896445740618
 20
63.84
 10
94.56780187777714
 20
63.87458649527419
 10
94.23013427914901
 20
63.97701684147968
 10
93.91893803797089
 20
64.14335469785541
 10
93.6461722512704
 20
64.36720779386421
 10
93.42231915526159
 20
64.63997358056471
 10
93.25598129888586
 20
64.95116982174284
 10
93.15355095268036
 20
65.28883742037097
 10
93.11896445740618
 20
65.64
  0
TEXT
  5
3C
330
17
100
AcDbEntity
  8
NOTES
100
AcDbText
 10
95.91896445740618
 20
68.44
 30
0.0
 40
1.2
  1
C2
 11
95.91896445740618
 21
68.44
 31
0.0
100
AcDbText
  0
LWPOLYLINE
  5
3D
330
17
100
AcDbEntity
  8
OPENINGS
100
AcDbPolyline
 90
36
 70
1
 10
72.51896445740617
 20
66.04
 10
72.55355095268035
 20
66.39116257962904
 10
72.65598129888585
 20
66.72883017825717
 10
72.82231915526158
 20
67.04002641943529
 10
73.04617225127038
 20
67.3127922061358
 10
73.31893803797088
 20
67.53664530214459
 10
73.630134279149
 20
67.70298315852033
 10
73.96780187777713
 20
67.80541350472582
 10
74.31896445740617
 20
67.84
 10
80.31896445740617
 20
67.84
 10
80.6701270370352
 20
67.80541350472582
 10
81.00779463566334
 20
67.70298315852033
 10
81.31899087684147
 20
67.53664530214459
 10
81.59175666354196
 20
67.3127922061358
 10
81.81560975955075
 20
67.04002641943529
 10
81.98194761592649
 20
66.72883017825717
 10
82.08437796213198
 20
66.39116257962904
 10
82.11896445740618
 20
66.04
 10
82.11896445740618
 20
65.64
 10
82.08437796213198
 20
65.28883742037097
 10
81.98194761592649
 20
64.95116982174284
 10
81.81560975955075
 20
64.63997358056471
 10
81.59175666354196
 20
64.36720779386421
 10
81.31899087684147
 20
64.14335469785541
 10
81.00779463566334
 20
63.97701684147968
 10
80.6701270370352
 20
63.87458649527419
 10
80.31896445740617
 20
63.84
 10
74.31896445740617
 20
63.84
 10
73.96780187777713
 20
63.87458649527419
 10
73.630134279149
 20
63.97701684147968
 10
73.31893803797088
 20
64.14335469785541
 10
73.04617225127038
 20
64.36720779386421
 10
72.82231915526158
 20
64.63997358056471
 10
72.65598129888585
 20
64.95116982174284
 10
72.55355095268035
 20
65.28883742037097
 10
72.51896445740617
 20
65.64
  0
TEXT
  5
3E
330
17
100
AcDbEntity
  8
NOTES
100
AcDbText
 10
75.31896445740617
 20
68.44
 30
0.0
 40
1.2
  1
C5
 11
75.31896445740617
 21
68.44
 31
0.0
100
AcDbText
  0
LWPOLYLINE
  5
3F
330
17
100
AcDbEntity
  8
OPENINGS
100
AcDbPolyline
 90
36
 70
1
 10
93.11896445740618
 20
56.172000000000004
 10
93.15355095268036
 20
56.52316257962904
 10
93.25598129888586
 20
56.86083017825717
 10
93.42231915526159
 20
57.17202641943529
 10
93.6461722512704
 20
57.44479220613579
 10
93.91893803797089
 20
57.66864530214458
 10
94.23013427914901
 20
57.83498315852032
 10
94.56780187777714
 20
57.93741350472582
 10
94.91896445740618
 20
57.972
 10
100.91896445740618
 20
57.972
 10
101.27012703703521
 20
57.93741350472582
 10
101.60779463566334
 20
57.83498315852032
 10
101.91899087684146
 20
57.66864530214458
 10
102.19175666354195
 20
57.44479220613579
 10
102.41560975955076
 20
57.17202641943529
 10
102.5819476159265
 20
56.86083017825717
 10
102.68437796213199
 20
56.52316257962904
 10
102.71896445740617
 20
56.172000000000004
 10
102.71896445740617
 20
55.772
 10
102.68437796213199
 20
55.420837420370965
 10
102.5819476159265
 20
55.083169821742835
 10
102.41560975955076
 20
54.77197358056471
 10
102.19175666354195
 20
54.499207793864215
 10
101.91899087684146
 20
54.27535469785542
 10
101.60779463566334
 20
54.10901684147968
 10
101.27012703703521
 20
54.006586495274185
 10
100.91896445740618
 20
53.972
 10
94.91896445740618
 20
53.972
 10
94.56780187777714
 20
54.006586495274185
 10
94.23013427914901
 20
54.10901684147968
 10
93.91893803797089
 20
54.27535469785542
 10
93.6461722512704
 20
54.499207793864215
 10
93.42231915526159
 20
54.77197358056471
 10
93.25598129888586
 20
55.083169821742835
 10
93.15355095268036
 20
55.420837420370965
 10
93.11896445740618
 20
55.772
  0
TEXT
  5
40
330
17
100
AcDbEntity
  8
NOTES
100
AcDbText
 10
95.91896445740618
 20
58.572
 30
0.0
 40
1.2
  1
C3
 11
95.91896445740618
 21
58.572
 31
0.0
100
AcDbText
  0
LWPOLYLINE
  5
41
330
17
100
AcDbEntity
  8
OPENINGS
100
AcDbPolyline
 90
36
 70
1
 10
72.51896445740617
 20
56.172000000000004
 10
72.55355095268035
 20
56.52316257962904
 10
72.65598129888585
 20
56.86083017825717
 10
72.82231915526158
 20
57.17202641943529
 10
73.04617225127038
 20
57.44479220613579
 10
73.31893803797088
 20
57.66864530214458
 10
73.630134279149
 20
57.83498315852032
 10
73.96780187777713
 20
57.93741350472582
 10
74.31896445740617
 20
57.972
 10
80.31896445740617
 20
57.972
 10
80.6701270370352
 20
57.93741350472582
 10
81.00779463566334
 20
57.83498315852032
 10
81.31899087684147
 20
57.66864530214458
 10
81.59175666354196
 20
57.44479220613579
 10
81.81560975955075
 20
57.17202641943529
 10
81.98194761592649
 20
56.86083017825717
 10
82.08437796213198
 20
56.52316257962904
 10
82.11896445740618
 20
56.172000000000004
 10
82.11896445740618
 20
55.772
 10
82.08437796213198
 20
55.420837420370965
 10
81.98194761592649
 20
55.083169821742835
 10
81.81560975955075
 20
54.77197358056471
 10
81.59175666354196
 20
54.499207793864215
 10
81.31899087684147
 20
54.27535469785542
 10
81.00779463566334
 20
54.10901684147968
 10
80.6701270370352
 20
54.006586495274185
 10
80.31896445740617
 20
53.972
 10
74.31896445740617
 20
53.972
 10
73.96780187777713
 20
54.006586495274185
 10
73.630134279149
 20
54.10901684147968
 10
73.31893803797088
 20
54.27535469785542
 10
73.04617225127038
 20
54.499207793864215
 10
72.82231915526158
 20
54.77197358056471
 10
72.65598129888585
 20
55.083169821742835
 10
72.55355095268035
 20
55.420837420370965
 10
72.51896445740617
 20
55.772
  0
TEXT
  5
42
330
17
100
AcDbEntity
  8
NOTES
100
AcDbText
 10
75.31896445740617
 20
58.572
 30
0.0
 40
1.2
  1
C6
 11
75.31896445740617
 21
58.572
 31
0.0
100
AcDbText
  0
LWPOLYLINE
  5
43
330
17
100
AcDbEntity
  8
OPENINGS
100
AcDbPolyline
 90
36
 70
1
 10
90.88596445740617
 20
45.038
 10
90.89749328916423
 20
45.15505419320967
 10
90.9316367378994
 20
45.26761005941905
 10
90.98708269002465
 20
45.37134213981176
 10
91.06170038869425
 20
45.462264068711924
 10
91.15262231759442
 20
45.53688176738152
 10
91.25635439798712
 20
45.59232771950677
 10
91.3689102641965
 20
45.626471168241935
 10
91.48596445740617
 20
45.638
 10
104.28596445740618
 20
45.638
 10
104.40301865061585
 20
45.626471168241935
 10
104.51557451682523
 20
45.59232771950677
 10
104.61930659721793
 20
45.53688176738152
 10
104.7102285261181
 20
45.462264068711924
 10
104.7848462247877
 20
45.37134213981176
 10
104.84029217691295
 20
45.26761005941905
 10
104.87443562564812
 20
45.15505419320967
 10
104.88596445740617
 20
45.038
 10
104.88596445740617
 20
40.238
 10
104.87443562564812
 20
40.120945806790324
 10
104.84029217691295
 20
40.00838994058095
 10
104.7848462247877
 20
39.90465786018824
 10
104.7102285261181
 20
39.81373593128807
 10
104.61930659721793
 20
39.73911823261847
 10
104.51557451682523
 20
39.68367228049323
 10
104.40301865061585
 20
39.64952883175806
 10
104.28596445740618
 20
39.638
 10
91.48596445740617
 20
39.638
 10
91.3689102641965
 20
39.64952883175806
 10
91.25635439798712
 20
39.68367228049323
 10
91.15262231759442
 20
39.73911823261847
 10
91.06170038869425
 20
39.81373593128807
 10
90.98708269002465
 20
39.90465786018824
 10
90.9316367378994
 20
40.00838994058095
 10
90.89749328916423
 20
40.120945806790324
 10
90.88596445740617
 20
40.238
  0
TEXT
  5
44
330
17
100
AcDbEntity
  8
NOTES
100
AcDbText
 10
95.88596445740617
 20
46.238
 30
0.0
 40
1.2
  1
A1
 11
95.88596445740617
 21
46.238
 31
0.0
100
AcDbText
  0
LWPOLYLINE
  5
45
330
17
100
AcDbEntity
  8
OPENINGS
100
AcDbPolyline
 90
36
 70
1
 10
90.88596445740617
 20
34.934999999999995
 10
90.89749328916423
 20
35.05205419320967
 10
90.9316367378994
 20
35.16461005941905
 10
90.98708269002465
 20
35.26834213981176
 10
91.06170038869425
 20
35.35926406871192
 10
91.15262231759442
 20
35.43388176738152
 10
91.25635439798712
 20
35.48932771950677
 10
91.3689102641965
 20
35.52347116824193
 10
91.48596445740617
 20
35.535
 10
104.28596445740618
 20
35.535
 10
104.40301865061585
 20
35.52347116824193
 10
104.51557451682523
 20
35.48932771950677
 10
104.61930659721793
 20
35.43388176738152
 10
104.7102285261181
 20
35.35926406871192
 10
104.7848462247877
 20
35.26834213981176
 10
104.84029217691295
 20
35.16461005941905
 10
104.87443562564812
 20
35.05205419320967
 10
104.88596445740617
 20
34.934999999999995
 10
104.88596445740617
 20
30.134999999999998
 10
104.87443562564812
 20
30.017945806790323
 10
104.84029217691295
 20
29.905389940580942
 10
104.7848462247877
 20
29.801657860188236
 10
104.7102285261181
 20
29.71073593128807
 10
104.61930659721793
 20
29.636118232618472
 10
104.51557451682523
 20
29.580672280493225
 10
104.40301865061585
 20
29.54652883175806
 10
104.28596445740618
 20
29.534999999999997
 10
91.48596445740617
 20
29.534999999999997
 10
91.3689102641965
 20
29.54652883175806
 10
91.25635439798712
 20
29.580672280493225
 10
91.15262231759442
 20
29.636118232618472
 10
91.06170038869425
 20
29.71073593128807
 10
90.98708269002465
 20
29.801657860188236
 10
90.9316367378994
 20
29.905389940580946
 10
90.89749328916423
 20
30.01794580679032
 10
90.88596445740617
 20
30.134999999999998
  0
TEXT
  5
46
330
17
100
AcDbEntity
  8
NOTES
100
AcDbText
 10
95.88596445740617
 20
36.135
 30
0.0
 40
1.2
  1
A2
 11
95.88596445740617
 21
36.135
 31
0.0
100
AcDbText
  0
LWPOLYLINE
  5
47
330
17
100
AcDbEntity
  8
OPENINGS
100
AcDbPolyline
 90
36
 70
1
 10
70.24396445740618
 20
45.038
 10
70.25549328916424
 20
45.15505419320967
 10
70.2896367378994
 20
45.26761005941905
 10
70.34508269002464
 20
45.37134213981176
 10
70.41970038869424
 20
45.462264068711924
 10
70.51062231759441
 20
45.53688176738152
 10
70.61435439798711
 20
45.59232771950677
 10
70.72691026419649
 20
45.626471168241935
 10
70.84396445740617
 20
45.638
 10
83.64396445740617
 20
45.638
 10
83.76101865061585
 20
45.626471168241935
 10
83.87357451682522
 20
45.59232771950677
 10
83.97730659721793
 20
45.53688176738152
 10
84.0682285261181
 20
45.462264068711924
 10
84.14284622478769
 20
45.37134213981176
 10
84.19829217691294
 20
45.26761005941905
 10
84.23243562564811
 20
45.15505419320967
 10
84.24396445740618
 20
45.038
 10
84.24396445740618
 20
40.238
 10
84.23243562564811
 20
40.120945806790324
 10
84.19829217691294
 20
40.00838994058095
 10
84.14284622478769
 20
39.90465786018824
 10
84.0682285261181
 20
39.81373593128807
 10
83.97730659721793
 20
39.73911823261847
 10
83.87357451682522
 20
39.68367228049323
 10
83.76101865061585
 20
39.64952883175806
 10
83.64396445740617
 20
39.638
 10
70.84396445740617
 20
39.638
 10
70.72691026419649
 20
39.64952883175806
 10
70.61435439798711
 20
39.68367228049323
 10
70.51062231759441
 20
39.73911823261847
 10
70.41970038869424
 20
39.81373593128807
 10
70.34508269002464
 20
39.90465786018824
 10
70.2896367378994
 20
40.00838994058095
 10
70.25549328916424
 20
40.120945806790324
 10
70.24396445740618
 20
40.238
  0
TEXT
  5
48
330
17
100
AcDbEntity
  8
NOTES
100
AcDbText
 10
75.24396445740618
 20
46.238
 30
0.0
 40
1.2
  1
A3
 11
75.24396445740618
 21
46.238
 31
0.0
100
AcDbText
  0
LWPOLYLINE
  5
49
330
17
100
AcDbEntity
  8
OPENINGS
100
AcDbPolyline
 90
36
 70
1
 10
70.24396445740618
 20
34.934999999999995
 10
70.25549328916424
 20
35.05205419320967
 10
70.2896367378994
 20
35.16461005941905
 10
70.34508269002464
 20
35.26834213981176
 10
70.41970038869424
 20
35.35926406871192
 10
70.51062231759441
 20
35.43388176738152
 10
70.61435439798711
 20
35.48932771950677
 10
70.72691026419649
 20
35.52347116824193
 10
70.84396445740617
 20
35.535
 10
83.64396445740617
 20
35.535
 10
83.76101865061585
 20
35.52347116824193
 10
83.87357451682522
 20
35.48932771950677
 10
83.97730659721793
 20
35.43388176738152
 10
84.0682285261181
 20
35.35926406871192
 10
84.14284622478769
 20
35.26834213981176
 10
84.19829217691294
 20
35.16461005941905
 10
84.23243562564811
 20
35.05205419320967
 10
84.24396445740618
 20
34.934999999999995
 10
84.24396445740618
 20
30.134999999999998
 10
84.23243562564811
 20
30.017945806790323
 10
84.19829217691294
 20
29.905389940580942
 10
84.14284622478769
 20
29.801657860188236
 10
84.0682285261181
 20
29.71073593128807
 10
83.97730659721793
 20
29.636118232618472
 10
83.87357451682522
 20
29.580672280493225
 10
83.76101865061585
 20
29.54652883175806
 10
83.64396445740617
 20
29.534999999999997
 10
70.84396445740617
 20
29.534999999999997
 10
70.72691026419649
 20
29.54652883175806
 10
70.61435439798711
 20
29.580672280493225
 10
70.51062231759441
 20
29.636118232618472
 10
70.41970038869424
 20
29.71073593128807
 10
70.34508269002464
 20
29.801657860188236
 10
70.2896367378994
 20
29.905389940580946
 10
70.25549328916424
 20
30.01794580679032
 10
70.24396445740618
 20
30.134999999999998
  0
TEXT
  5
4A
330
17
100
AcDbEntity
  8
NOTES
100
AcDbText
 10
75.24396445740618
 20
36.135
 30
0.0
 40
1.2
  1
A4
 11
75.24396445740618
 21
36.135
 31
0.0
100
AcDbText
  0
LWPOLYLINE
  5
4B
330
17
100
AcDbEntity
  8
OPENINGS
100
AcDbPolyline
 90
36
 70
1
 10
70.83396445740618
 20
96.295
 10
70.84357181720456
 20
96.39254516100807
 10
70.87202469115054
 20
96.48634171618255
 10
70.9182296512549
 20
96.5727851165098
 10
70.9804110668129
 20
96.64855339059328
 10
71.05617934089638
 20
96.71073480615128
 10
71.14262274122363
 20
96.75693976625564
 10
71.23641929639811
 20
96.78539264020162
 10
71.33396445740618
 20
96.795
 10
83.33396445740618
 20
96.795
 10
83.43150961841424
 20
96.78539264020162
 10
83.52530617358872
 20
96.75693976625564
 10
83.61174957391597
 20
96.71073480615128
 10
83.68751784799946
 20
96.64855339059328
 10
83.74969926355745
 20
96.5727851165098
 10
83.79590422366182
 20
96.48634171618255
 10
83.82435709760779
 20
96.39254516100807
 10
83.83396445740618
 20
96.295
 10
83.83396445740618
 20
86.895
 10
83.82435709760779
 20
86.79745483899192
 10
83.79590422366182
 20
86.70365828381745
 10
83.74969926355745
 20
86.61721488349019
 10
83.68751784799946
 20
86.54144660940672
 10
83.61174957391597
 20
86.47926519384872
 10
83.52530617358872
 20
86.43306023374436
 10
83.43150961841424
 20
86.40460735979838
 10
83.33396445740618
 20
86.395
 10
71.33396445740618
 20
86.395
 10
71.23641929639811
 20
86.40460735979838
 10
71.14262274122363
 20
86.43306023374436
 10
71.05617934089638
 20
86.47926519384872
 10
70.9804110668129
 20
86.54144660940672
 10
70.9182296512549
 20
86.61721488349019
 10
70.87202469115054
 20
86.70365828381745
 10
70.84357181720456
 20
86.79745483899192
 10
70.83396445740618
 20
86.895
  0
TEXT
  5
4C
330
17
100
AcDbEntity
  8
NOTES
100
AcDbText
 10
75.33396445740618
 20
97.395
 30
0.0
 40
1.2
  1
ETH1
 11
75.33396445740618
 21
97.395
 31
0.0
100
AcDbText
  0
LWPOLYLINE
  5
4D
330
17
100
AcDbEntity
  8
OPENINGS
100
AcDbPolyline
 90
36
 70
1
 10
91.35296445740617
 20
96.25699999999999
 10
91.36257181720455
 20
96.35454516100806
 10
91.39102469115053
 20
96.44834171618254
 10
91.43722965125491
 20
96.5347851165098
 10
91.4994110668129
 20
96.61055339059327
 10
91.57517934089637
 20
96.67273480615127
 10
91.66162274122362
 20
96.71893976625563
 10
91.75541929639812
 20
96.74739264020161
 10
91.85296445740617
 20
96.75699999999999
 10
103.85296445740617
 20
96.75699999999999
 10
103.95050961841423
 20
96.74739264020161
 10
104.04430617358872
 20
96.71893976625563
 10
104.13074957391598
 20
96.67273480615127
 10
104.20651784799945
 20
96.61055339059327
 10
104.26869926355744
 20
96.5347851165098
 10
104.31490422366181
 20
96.44834171618254
 10
104.3433570976078
 20
96.35454516100806
 10
104.35296445740617
 20
96.25699999999999
 10
104.35296445740617
 20
86.557
 10
104.3433570976078
 20
86.45945483899193
 10
104.31490422366181
 20
86.36565828381745
 10
104.26869926355744
 20
86.2792148834902
 10
104.20651784799945
 20
86.20344660940673
 10
104.13074957391598
 20
86.14126519384872
 10
104.04430617358872
 20
86.09506023374436
 10
103.95050961841423
 20
86.06660735979838
 10
103.85296445740617
 20
86.057
 10
91.85296445740617
 20
86.057
 10
91.75541929639812
 20
86.06660735979838
 10
91.66162274122362
 20
86.09506023374436
 10
91.57517934089637
 20
86.14126519384872
 10
91.4994110668129
 20
86.20344660940673
 10
91.43722965125491
 20
86.2792148834902
 10
91.39102469115053
 20
86.36565828381745
 10
91.36257181720455
 20
86.45945483899193
 10
91.35296445740617
 20
86.557
  0
TEXT
  5
4E
330
17
100
AcDbEntity
  8
NOTES
100
AcDbText
 10
95.85296445740617
 20
97.35699999999999
 30
0.0
 40
1.2
  1
ETH2
 11
95.85296445740617
 21
97.35699999999999
 31
0.0
100
AcDbText
  0
LWPOLYLINE
  5
4F
330
17
100
AcDbEntity
  8
OPENINGS
100
AcDbPolyline
 90
36
 70
1
 10
90.24696445740618
 20
108.919
 10
90.26617917700295
 20
109.11409032201612
 10
90.32308492489489
 20
109.30168343236508
 10
90.41549484510364
 20
109.4745702330196
 10
90.53985767621964
 20
109.62610678118655
 10
90.69139422438658
 20
109.75046961230254
 10
90.8642810250411
 20
109.84287953251129
 10
91.05187413539005
 20
109.89978528040322
 10
91.24696445740618
 20
109.919
 10
104.84696445740617
 20
109.919
 10
105.0420547794223
 20
109.89978528040322
 10
105.22964788977126
 20
109.84287953251129
 10
105.40253469042577
 20
109.75046961230254
 10
105.55407123859271
 20
109.62610678118655
 10
105.67843406970871
 20
109.4745702330196
 10
105.77084398991747
 20
109.30168343236508
 10
105.8277497378094
 20
109.11409032201612
 10
105.84696445740617
 20
108.919
 10
105.84696445740617
 20
105.21900000000001
 10
105.8277497378094
 20
105.02390967798388
 10
105.77084398991747
 20
104.83631656763492
 10
105.67843406970871
 20
104.6634297669804
 10
105.55407123859271
 20
104.51189321881346
 10
105.40253469042577
 20
104.38753038769747
 10
105.22964788977126
 20
104.29512046748872
 10
105.0420547794223
 20
104.23821471959678
 10
104.84696445740617
 20
104.21900000000001
 10
91.24696445740618
 20
104.21900000000001
 10
91.05187413539005
 20
104.23821471959678
 10
90.8642810250411
 20
104.29512046748872
 10
90.69139422438658
 20
104.38753038769747
 10
90.53985767621964
 20
104.51189321881346
 10
90.41549484510364
 20
104.6634297669804
 10
90.32308492489489
 20
104.83631656763492
 10
90.26617917700295
 20
105.02390967798388
 10
90.24696445740618
 20
105.21900000000001
  0
TEXT
  5
50
330
17
100
AcDbEntity
  8
NOTES
100
AcDbText
 10
96.04696445740618
 20
110.51899999999999
 30
0.0
 40
1.2
  1
HDMI
 11
96.04696445740618
 21
110.51899999999999
 31
0.0
100
AcDbText
  0
LWPOLYLINE
  5
51
330
17
100
AcDbEntity
  8
OPENINGS
100
AcDbPolyline
 90
36
 70
1
 10
71.64996445740618
 20
139.27499999999998
 10
71.7076086161965
 20
139.86027096604838
 10
71.87832585987232
 20
140.42305029709524
 10
72.15555562049855
 20
140.94171069905877
 10
72.52864411384654
 20
141.3963203435596
 10
72.98325375834737
 20
141.76940883690762
 10
73.50191416031092
 20
142.04663859753384
 10
74.0646934913578
 20
142.21735584120967
 10
74.64996445740618
 20
142.27499999999998
 10
103.19996445740617
 20
142.27499999999998
 10
103.78523542345457
 20
142.21735584120967
 10
104.34801475450143
 20
142.04663859753384
 10
104.86667515646498
 20
141.76940883690762
 10
105.32128480096583
 20
141.3963203435596
 10
105.6943732943138
 20
140.94171069905877
 10
105.97160305494003
 20
140.42305029709524
 10
106.14232029861586
 20
139.86027096604838
 10
106.19996445740617
 20
139.27499999999998
 10
106.19996445740617
 20
120.62499999999999
 10
106.14232029861586
 20
120.0397290339516
 10
105.97160305494003
 20
119.47694970290472
 10
105.6943732943138
 20
118.95828930094117
 10
105.32128480096583
 20
118.50367965644034
 10
104.86667515646498
 20
118.13059116309235
 10
104.34801475450143
 20
117.85336140246612
 10
103.78523542345457
 20
117.6826441587903
 10
103.19996445740617
 20
117.62499999999999
 10
74.64996445740618
 20
117.62499999999999
 10
74.0646934913578
 20
117.6826441587903
 10
73.50191416031092
 20
117.85336140246612
 10
72.98325375834737
 20
118.13059116309235
 10
72.52864411384654
 20
118.50367965644034
 10
72.15555562049855
 20
118.95828930094117
 10
71.87832585987232
 20
119.47694970290472
 10
71.7076086161965
 20
120.0397290339516
 10
71.64996445740618
 20
120.62499999999999
  0
TEXT
  5
52
330
17
100
AcDbEntity
  8
NOTES
100
AcDbText
 10
86.92496445740618
 20
142.87499999999997
 30
0.0
 40
1.2
  1
AC
 11
86.92496445740618
 21
142.87499999999997
 31
0.0
100
AcDbText
  0
CIRCLE
  5
53
330
17
100
AcDbEntity
  8
OPENINGS
100
AcDbCircle
 10
97.60496445740617
 20
19.1
 30
0.0
 40
2.4
  0
CIRCLE
  5
54
330
17
100
AcDbEntity
  8
OPENINGS
100
AcDbCircle
 10
76.35496445740617
 20
19.4
 30
0.0
 40
2.4
  0
CIRCLE
  5
55
330
17
100
AcDbEntity
  8
OPENINGS
100
AcDbCircle
 10
77.21196445740617
 20
108.111
 30
0.0
 40
6.2
  0
LWPOLYLINE
  5
56
330
17
100
AcDbEntity
  8
LIGHT_WINDOWS
100
AcDbPolyline
 90
36
 70
1
 10
94.09896445740617
 20
113.294
 10
94.11049328916424
 20
113.41105419320968
 10
94.1446367378994
 20
113.52361005941906
 10
94.20008269002466
 20
113.62734213981176
 10
94.27470038869424
 20
113.71826406871193
 10
94.36562231759441
 20
113.79288176738153
 10
94.46935439798713
 20
113.84832771950677
 10
94.5819102641965
 20
113.88247116824193
 10
94.69896445740618
 20
113.89399999999999
 10
100.49896445740617
 20
113.89399999999999
 10
100.61601865061584
 20
113.88247116824193
 10
100.72857451682523
 20
113.84832771950677
 10
100.83230659721794
 20
113.79288176738153
 10
100.9232285261181
 20
113.71826406871193
 10
100.99784622478771
 20
113.62734213981176
 10
101.05329217691295
 20
113.52361005941906
 10
101.08743562564811
 20
113.41105419320968
 10
101.09896445740617
 20
113.294
 10
101.09896445740617
 20
112.89399999999999
 10
101.08743562564811
 20
112.77694580679031
 10
101.05329217691295
 20
112.66438994058093
 10
100.99784622478771
 20
112.56065786018823
 10
100.9232285261181
 20
112.46973593128806
 10
100.83230659721794
 20
112.39511823261846
 10
100.72857451682523
 20
112.33967228049322
 10
100.61601865061584
 20
112.30552883175805
 10
100.49896445740617
 20
112.294
 10
94.69896445740618
 20
112.294
 10
94.5819102641965
 20
112.30552883175805
 10
94.46935439798713
 20
112.33967228049322
 10
94.36562231759441
 20
112.39511823261846
 10
94.27470038869424
 20
112.46973593128806
 10
94.20008269002466
 20
112.56065786018823
 10
94.1446367378994
 20
112.66438994058093
 10
94.11049328916424
 20
112.77694580679031
 10
94.09896445740617
 20
112.89399999999999
  0
LWPOLYLINE
  5
57
330
17
100
AcDbEntity
  8
LIGHT_WINDOWS
100
AcDbPolyline
 90
36
 70
1
 10
86.09496445740618
 20
93.767
 10
86.11417917700294
 20
93.96209032201612
 10
86.1710849248949
 20
94.14968343236508
 10
86.26349484510362
 20
94.3225702330196
 10
86.38785767621962
 20
94.47410678118655
 10
86.53939422438657
 20
94.59846961230254
 10
86.71228102504108
 20
94.69087953251129
 10
86.89987413539005
 20
94.74778528040322
 10
87.09496445740618
 20
94.767
 10
88.09496445740618
 20
94.767
 10
88.2900547794223
 20
94.74778528040322
 10
88.47764788977128
 20
94.69087953251129
 10
88.65053469042579
 20
94.59846961230254
 10
88.80207123859273
 20
94.47410678118655
 10
88.92643406970873
 20
94.3225702330196
 10
89.01884398991746
 20
94.14968343236508
 10
89.07574973780942
 20
93.96209032201612
 10
89.09496445740618
 20
93.767
 10
89.09496445740618
 20
90.767
 10
89.07574973780942
 20
90.57190967798387
 10
89.01884398991746
 20
90.38431656763491
 10
88.92643406970873
 20
90.21142976698039
 10
88.80207123859273
 20
90.05989321881344
 10
88.65053469042579
 20
89.93553038769745
 10
88.47764788977128
 20
89.8431204674887
 10
88.2900547794223
 20
89.78621471959677
 10
88.09496445740618
 20
89.767
 10
87.09496445740618
 20
89.767
 10
86.89987413539005
 20
89.78621471959677
 10
86.71228102504108
 20
89.8431204674887
 10
86.53939422438657
 20
89.93553038769745
 10
86.38785767621962
 20
90.05989321881344
 10
86.26349484510362
 20
90.21142976698039
 10
86.1710849248949
 20
90.38431656763491
 10
86.11417917700294
 20
90.57190967798387
 10
86.09496445740618
 20
90.767
  0
LWPOLYLINE
  5
58
330
17
100
AcDbEntity
  8
LIGHT_WINDOWS
100
AcDbPolyline
 90
36
 70
1
 10
86.14996445740618
 20
67.441
 10
86.16917917700295
 20
67.63609032201613
 10
86.22608492489489
 20
67.82368343236509
 10
86.31849484510363
 20
67.99657023301961
 10
86.44285767621963
 20
68.14810678118656
 10
86.59439422438658
 20
68.27246961230254
 10
86.76728102504109
 20
68.3648795325113
 10
86.95487413539004
 20
68.42178528040323
 10
87.14996445740618
 20
68.441
 10
88.14996445740618
 20
68.441
 10
88.3450547794223
 20
68.42178528040323
 10
88.53264788977127
 20
68.3648795325113
 10
88.70553469042578
 20
68.27246961230254
 10
88.85707123859272
 20
68.14810678118656
 10
88.98143406970873
 20
67.99657023301961
 10
89.07384398991746
 20
67.82368343236509
 10
89.13074973780941
 20
67.63609032201613
 10
89.14996445740618
 20
67.441
 10
89.14996445740618
 20
64.441
 10
89.13074973780941
 20
64.24590967798387
 10
89.07384398991746
 20
64.05831656763492
 10
88.98143406970873
 20
63.8854297669804
 10
88.85707123859272
 20
63.733893218813456
 10
88.70553469042578
 20
63.609530387697454
 10
88.53264788977127
 20
63.517120467488716
 10
88.3450547794223
 20
63.46021471959677
 10
88.14996445740618
 20
63.441
 10
87.14996445740618
 20
63.441
 10
86.95487413539004
 20
63.46021471959677
 10
86.76728102504109
 20
63.517120467488716
 10
86.59439422438658
 20
63.609530387697454
 10
86.44285767621963
 20
63.733893218813456
 10
86.31849484510363
 20
63.8854297669804
 10
86.22608492489489
 20
64.05831656763492
 10
86.16917917700295
 20
64.24590967798387
 10
86.14996445740618
 20
64.441
  0
LWPOLYLINE
  5
59
330
17
100
AcDbEntity
  8
LIGHT_WINDOWS
100
AcDbPolyline
 90
36
 70
1
 10
86.04396445740618
 20
39.92
 10
86.06317917700295
 20
40.11509032201613
 10
86.12008492489488
 20
40.30268343236509
 10
86.21249484510363
 20
40.4755702330196
 10
86.33685767621964
 20
40.62710678118655
 10
86.48839422438658
 20
40.75146961230255
 10
86.66128102504109
 20
40.84387953251129
 10
86.84887413539005
 20
40.900785280403234
 10
87.04396445740618
 20
40.92
 10
88.04396445740618
 20
40.92
 10
88.2390547794223
 20
40.900785280403234
 10
88.42664788977126
 20
40.84387953251129
 10
88.59953469042577
 20
40.75146961230255
 10
88.75107123859271
 20
40.62710678118655
 10
88.87543406970872
 20
40.4755702330196
 10
88.96784398991747
 20
40.30268343236509
 10
89.0247497378094
 20
40.11509032201613
 10
89.04396445740618
 20
39.92
 10
89.04396445740618
 20
35.92
 10
89.0247497378094
 20
35.724909677983874
 10
88.96784398991747
 20
35.53731656763491
 10
88.87543406970872
 20
35.3644297669804
 10
88.75107123859271
 20
35.212893218813456
 10
88.59953469042577
 20
35.08853038769745
 10
88.42664788977126
 20
34.996120467488716
 10
88.2390547794223
 20
34.93921471959677
 10
88.04396445740618
 20
34.92
 10
87.04396445740618
 20
34.92
 10
86.84887413539005
 20
34.93921471959677
 10
86.66128102504109
 20
34.996120467488716
 10
86.48839422438658
 20
35.08853038769745
 10
86.33685767621964
 20
35.212893218813456
 10
86.21249484510363
 20
35.3644297669804
 10
86.12008492489488
 20
35.53731656763491
 10
86.06317917700295
 20
35.724909677983874
 10
86.04396445740618
 20
35.92
  0
LWPOLYLINE
  5
5A
330
17
100
AcDbEntity
  8
LIGHT_WINDOWS
100
AcDbPolyline
 90
36
 70
1
 10
95.61696445740617
 20
12.800999999999998
 10
95.63233623308359
 20
12.957072257612902
 10
95.67786083139714
 20
13.10714674589207
 10
95.75178876756414
 20
13.24545618641568
 10
95.85127903245694
 20
13.366685424949237
 10
95.97250827099049
 20
13.466175689842034
 10
96.1108177115141
 20
13.540103626009028
 10
96.26089219979326
 20
13.585628224322583
 10
96.41696445740618
 20
13.600999999999999
 10
98.81696445740619
 20
13.600999999999999
 10
98.97303671501908
 20
13.585628224322583
 10
99.12311120329825
 20
13.540103626009028
 10
99.26142064382186
 20
13.466175689842034
 10
99.38264988235542
 20
13.366685424949237
 10
99.48214014724822
 20
13.24545618641568
 10
99.5560680834152
 20
13.10714674589207
 10
99.60159268172876
 20
12.9570722576129
 10
99.61696445740617
 20
12.800999999999998
 10
99.61696445740617
 20
12.001000000000001
 10
99.60159268172876
 20
11.844927742387098
 10
99.55606808341521
 20
11.69485325410793
 10
99.48214014724822
 20
11.55654381358432
 10
99.38264988235542
 20
11.435314575050763
 10
99.26142064382186
 20
11.335824310157966
 10
99.12311120329825
 20
11.261896373990972
 10
98.97303671501908
 20
11.216371775677416
 10
98.81696445740619
 20
11.201
 10
96.41696445740618
 20
11.201
 10
96.26089219979326
 20
11.216371775677416
 10
96.1108177115141
 20
11.261896373990972
 10
95.97250827099049
 20
11.335824310157964
 10
95.85127903245694
 20
11.435314575050763
 10
95.75178876756414
 20
11.55654381358432
 10
95.67786083139714
 20
11.69485325410793
 10
95.63233623308359
 20
11.844927742387098
 10
95.61696445740617
 20
12.001000000000001
  0
LWPOLYLINE
  5
5B
330
17
100
AcDbEntity
  8
LIGHT_WINDOWS
100
AcDbPolyline
 90
36
 70
1
 10
75.39196445740617
 20
12.800999999999998
 10
75.40733623308358
 20
12.957072257612902
 10
75.45286083139715
 20
13.10714674589207
 10
75.52678876756414
 20
13.24545618641568
 10
75.62627903245694
 20
13.366685424949237
 10
75.7475082709905
 20
13.466175689842034
 10
75.8858177115141
 20
13.540103626009028
 10
76.03589219979327
 20
13.585628224322583
 10
76.19196445740617
 20
13.600999999999999
 10
78.59196445740618
 20
13.600999999999999
 10
78.74803671501908
 20
13.585628224322583
 10
78.89811120329824
 20
13.540103626009028
 10
79.03642064382186
 20
13.466175689842034
 10
79.15764988235541
 20
13.366685424949237
 10
79.25714014724821
 20
13.24545618641568
 10
79.3310680834152
 20
13.10714674589207
 10
79.37659268172877
 20
12.9570722576129
 10
79.39196445740617
 20
12.800999999999998
 10
79.39196445740617
 20
12.001000000000001
 10
79.37659268172877
 20
11.844927742387098
 10
79.3310680834152
 20
11.69485325410793
 10
79.25714014724821
 20
11.55654381358432
 10
79.15764988235541
 20
11.435314575050763
 10
79.03642064382186
 20
11.335824310157966
 10
78.89811120329824
 20
11.261896373990972
 10
78.74803671501908
 20
11.216371775677416
 10
78.59196445740618
 20
11.201
 10
76.19196445740617
 20
11.201
 10
76.03589219979327
 20
11.216371775677416
 10
75.8858177115141
 20
11.261896373990972
 10
75.7475082709905
 20
11.335824310157964
 10
75.62627903245694
 20
11.435314575050763
 10
75.52678876756414
 20
11.55654381358432
 10
75.45286083139715
 20
11.69485325410793
 10
75.40733623308358
 20
11.844927742387098
 10
75.39196445740617
 20
12.001000000000001
  0
CIRCLE
  5
5C
330
17
100
AcDbEntity
  8
CLIPS
100
AcDbCircle
 10
110.00496445740617
 20
140.0
 30
0.0
 40
1.0
  0
CIRCLE
  5
5D
330
17
100
AcDbEntity
  8
CLIPS
100
AcDbCircle
 10
112.80496445740617
 20
90.0
 30
0.0
 40
1.0
  0
CIRCLE
  5
5E
330
17
100
AcDbEntity
  8
CLIPS
100
AcDbCircle
 10
111.40496445740618
 20
30.3
 30
0.0
 40
1.0
  0
CIRCLE
  5
5F
330
17
100
AcDbEntity
  8
CLIPS
100
AcDbCircle
 10
65.62496445740618
 20
140.0
 30
0.0
 40
1.0
  0
CIRCLE
  5
60
330
17
100
AcDbEntity
  8
CLIPS
100
AcDbCircle
 10
62.82496445740618
 20
90.0
 30
0.0
 40
1.0
  0
CIRCLE
  5
61
330
17
100
AcDbEntity
  8
CLIPS
100
AcDbCircle
 10
96.90496445740618
 20
2.7
 30
0.0
 40
1.0
  0
CIRCLE
  5
62
330
17
100
AcDbEntity
  8
CLIPS
100
AcDbCircle
 10
78.72496445740617
 20
2.7
 30
0.0
 40
1.0
  0
CIRCLE
  5
63
330
17
100
AcDbEntity
  8
PINS
100
AcDbCircle
 10
88.07496445740617
 20
75.41
 30
0.0
 40
1.2
  0
CIRCLE
  5
64
330
17
100
AcDbEntity
  8
PINS
100
AcDbCircle
 10
86.51496445740617
 20
19.23
 30
0.0
 40
1.2
  0
CIRCLE
  5
65
330
17
100
AcDbEntity
  8
PINS
100
AcDbCircle
 10
83.84196445740618
 20
113.531
 30
0.0
 40
0.7
  0
CIRCLE
  5
66
330
17
100
AcDbEntity
  8
PINS
100
AcDbCircle
 10
70.42196445740618
 20
103.031
 30
0.0
 40
0.7
  0
TEXT
  5
67
330
17
100
AcDbEntity
  8
NOTES
100
AcDbText
 10
57.81496445740618
 20
-12.0
 30
0.0
 40
2.0
  1
MP62 IO plate v2 A0 - frontview - mm - Y up = MEG/base end
 11
57.81496445740618
 21
-12.0
 31
0.0
100
AcDbText
  0
ENDSEC
  0
SECTION
  2
OBJECTS
  0
DICTIONARY
  5
A
330
0
100
AcDbDictionary
281
1
  3
ACAD_COLOR
350
B
  3
ACAD_GROUP
350
C
  3
ACAD_LAYOUT
350
D
  3
ACAD_MATERIAL
350
E
  3
ACAD_MLEADERSTYLE
350
F
  3
ACAD_MLINESTYLE
350
10
  3
ACAD_PLOTSETTINGS
350
11
  3
ACAD_PLOTSTYLENAME
350
12
  3
ACAD_SCALELIST
350
14
  3
ACAD_TABLESTYLE
350
15
  3
ACAD_VISUALSTYLE
350
16
  3
EZDXF_META
350
2D
  0
DICTIONARY
  5
B
330
A
100
AcDbDictionary
281
1
  0
DICTIONARY
  5
C
330
A
100
AcDbDictionary
281
1
  0
DICTIONARY
  5
D
330
A
100
AcDbDictionary
281
1
  3
Model
350
1A
  3
Layout1
350
1E
  0
DICTIONARY
  5
E
330
A
100
AcDbDictionary
281
1
  3
ByBlock
350
1F
  3
ByLayer
350
20
  3
Global
350
21
  0
DICTIONARY
  5
F
330
A
100
AcDbDictionary
281
1
  3
Standard
350
2C
  0
DICTIONARY
  5
10
330
A
100
AcDbDictionary
281
1
  3
Standard
350
22
  0
DICTIONARY
  5
11
330
A
100
AcDbDictionary
281
1
  0
ACDBDICTIONARYWDFLT
  5
12
330
A
100
AcDbDictionary
281
1
  3
Normal
350
13
100
AcDbDictionaryWithDefault
340
13
  0
ACDBPLACEHOLDER
  5
13
330
12
  0
DICTIONARY
  5
14
330
A
100
AcDbDictionary
281
1
  0
DICTIONARY
  5
15
330
A
100
AcDbDictionary
281
1
  0
DICTIONARY
  5
16
330
A
100
AcDbDictionary
281
1
  0
LAYOUT
  5
1A
330
D
100
AcDbPlotSettings
  1

  4
A3
  6

 40
7.5
 41
20.0
 42
7.5
 43
20.0
 44
420.0
 45
297.0
 46
0.0
 47
0.0
 48
0.0
 49
0.0
140
0.0
141
0.0
142
1.0
143
1.0
 70
1024
 72
1
 73
0
 74
5
  7

 75
16
 76
0
 77
2
 78
300
147
1.0
148
0.0
149
0.0
100
AcDbLayout
  1
Model
 70
1
 71
0
 10
0.0
 20
0.0
 11
420.0
 21
297.0
 12
0.0
 22
0.0
 32
0.0
 14
1e+20
 24
1e+20
 34
1e+20
 15
-1e+20
 25
-1e+20
 35
-1e+20
146
0.0
 13
0.0
 23
0.0
 33
0.0
 16
1.0
 26
0.0
 36
0.0
 17
0.0
 27
1.0
 37
0.0
 76
1
330
17
  0
LAYOUT
  5
1E
330
D
100
AcDbPlotSettings
  1

  4
A3
  6

 40
7.5
 41
20.0
 42
7.5
 43
20.0
 44
420.0
 45
297.0
 46
0.0
 47
0.0
 48
0.0
 49
0.0
140
0.0
141
0.0
142
1.0
143
1.0
 70
0
 72
1
 73
0
 74
5
  7

 75
16
 76
0
 77
2
 78
300
147
1.0
148
0.0
149
0.0
100
AcDbLayout
  1
Layout1
 70
1
 71
1
 10
0.0
 20
0.0
 11
420.0
 21
297.0
 12
0.0
 22
0.0
 32
0.0
 14
1e+20
 24
1e+20
 34
1e+20
 15
-1e+20
 25
-1e+20
 35
-1e+20
146
0.0
 13
0.0
 23
0.0
 33
0.0
 16
1.0
 26
0.0
 36
0.0
 17
0.0
 27
1.0
 37
0.0
 76
1
330
1B
  0
MATERIAL
  5
1F
102
{ACAD_REACTORS
330
E
102
}
330
E
100
AcDbMaterial
  1
ByBlock
  2

 70
0
 40
1.0
 71
1
 41
1.0
 91
-1023410177
 42
1.0
 72
1
  3

 73
1
 74
1
 75
1
 44
0.5
 73
0
 45
1.0
 46
1.0
 77
1
  4

 78
1
 79
1
170
1
 48
1.0
171
1
  6

172
1
173
1
174
1
140
1.0
141
1.0
175
1
  7

176
1
177
1
178
1
143
1.0
179
1
  8

270
1
271
1
272
1
145
1.0
146
1.0
273
1
  9

274
1
275
1
276
1
 42
1.0
 72
1
  3

 73
1
 74
1
 75
1
 94
63
  0
MATERIAL
  5
20
102
{ACAD_REACTORS
330
E
102
}
330
E
100
AcDbMaterial
  1
ByLayer
  2

 70
0
 40
1.0
 71
1
 41
1.0
 91
-1023410177
 42
1.0
 72
1
  3

 73
1
 74
1
 75
1
 44
0.5
 73
0
 45
1.0
 46
1.0
 77
1
  4

 78
1
 79
1
170
1
 48
1.0
171
1
  6

172
1
173
1
174
1
140
1.0
141
1.0
175
1
  7

176
1
177
1
178
1
143
1.0
179
1
  8

270
1
271
1
272
1
145
1.0
146
1.0
273
1
  9

274
1
275
1
276
1
 42
1.0
 72
1
  3

 73
1
 74
1
 75
1
 94
63
  0
MATERIAL
  5
21
102
{ACAD_REACTORS
330
E
102
}
330
E
100
AcDbMaterial
  1
Global
  2

 70
0
 40
1.0
 71
1
 41
1.0
 91
-1023410177
 42
1.0
 72
1
  3

 73
1
 74
1
 75
1
 44
0.5
 73
0
 45
1.0
 46
1.0
 77
1
  4

 78
1
 79
1
170
1
 48
1.0
171
1
  6

172
1
173
1
174
1
140
1.0
141
1.0
175
1
  7

176
1
177
1
178
1
143
1.0
179
1
  8

270
1
271
1
272
1
145
1.0
146
1.0
273
1
  9

274
1
275
1
276
1
 42
1.0
 72
1
  3

 73
1
 74
1
 75
1
 94
63
  0
MLINESTYLE
  5
22
102
{ACAD_REACTORS
330
10
102
}
330
10
100
AcDbMlineStyle
  2
Standard
 70
0
  3

 62
256
 51
90.0
 52
90.0
 71
2
 49
0.5
 62
256
  6
BYLAYER
 49
-0.5
 62
256
  6
BYLAYER
  0
MLEADERSTYLE
  5
2C
102
{ACAD_REACTORS
330
F
102
}
330
F
100
AcDbMLeaderStyle
179
2
170
2
171
1
172
0
 90
2
 40
0.0
 41
0.0
173
1
 91
-1056964608
 92
-2
290
1
 42
2.0
291
1
 43
8.0
  3
Standard
 44
4.0
300

342
29
174
1
175
1
176
0
178
1
 93
-1056964608
 45
4.0
292
0
297
0
 46
4.0
 94
-1056964608
 47
1.0
 49
1.0
140
1.0
294
1
141
0.0
177
0
142
1.0
295
0
296
0
143
3.75
271
0
272
9
273
9
  0
DICTIONARY
  5
2D
330
A
100
AcDbDictionary
280
1
281
1
  3
CREATED_BY_EZDXF
350
2E
  3
WRITTEN_BY_EZDXF
350
6A
  0
DICTIONARYVAR
  5
2E
330
2D
100
DictionaryVariables
280
0
  1
1.4.4 @ 2026-10-02T16:05:11.339271+00:00
  0
DICTIONARYVAR
  5
6A
330
2D
100
DictionaryVariables
280
0
  1
1.4.4 @ 2026-10-02T16:05:11.343839+00:00
  0
ENDSEC
  0
EOF
