  0
SECTION
  2
HEADER
  9
$ACADVER
  1
AC1024
  9
$ACADMAINTVER
 70
6
  9
$DWGCODEPAGE
  3
ANSI_1252
  9
$LASTSAVEDBY
  1
ezdxf
  9
$INSBASE
 10
0.0
 20
0.0
 30
0.0
  9
$EXTMIN
 10
1e+20
 20
1e+20
 30
1e+20
  9
$EXTMAX
 10
-1e+20
 20
-1e+20
 30
-1e+20
  9
$LIMMIN
 10
0.0
 20
0.0
  9
$LIMMAX
 10
420.0
 20
297.0
  9
$ORTHOMODE
 70
0
  9
$REGENMODE
 70
1
  9
$FILLMODE
 70
1
  9
$QTEXTMODE
 70
0
  9
$MIRRTEXT
 70
1
  9
$LTSCALE
 40
1.0
  9
$ATTMODE
 70
1
  9
$TEXTSIZE
 40
2.5
  9
$TRACEWID
 40
1.0
  9
$TEXTSTYLE
  7
Standard
  9
$CLAYER
  8
0
  9
$CELTYPE
  6
ByLayer
  9
$CECOLOR
 62
256
  9
$CELTSCALE
 40
1.0
  9
$DISPSILH
 70
0
  9
$DIMSCALE
 40
1.0
  9
$DIMASZ
 40
2.5
  9
$DIMEXO
 40
0.625
  9
$DIMDLI
 40
3.75
  9
$DIMRND
 40
0.0
  9
$DIMDLE
 40
0.0
  9
$DIMEXE
 40
1.25
  9
$DIMTP
 40
0.0
  9
$DIMTM
 40
0.0
  9
$DIMTXT
 40
2.5
  9
$DIMCEN
 40
2.5
  9
$DIMTSZ
 40
0.0
  9
$DIMTOL
 70
0
  9
$DIMLIM
 70
0
  9
$DIMTIH
 70
0
  9
$DIMTOH
 70
0
  9
$DIMSE1
 70
0
  9
$DIMSE2
 70
0
  9
$DIMTAD
 70
1
  9
$DIMZIN
 70
8
  9
$DIMBLK
  1

  9
$DIMASO
 70
1
  9
$DIMSHO
 70
1
  9
$DIMPOST
  1

  9
$DIMAPOST
  1

  9
$DIMALT
 70
0
  9
$DIMALTD
 70
3
  9
$DIMALTF
 40
0.03937007874
  9
$DIMLFAC
 40
1.0
  9
$DIMTOFL
 70
1
  9
$DIMTVP
 40
0.0
  9
$DIMTIX
 70
0
  9
$DIMSOXD
 70
0
  9
$DIMSAH
 70
0
  9
$DIMBLK1
  1

  9
$DIMBLK2
  1

  9
$DIMSTYLE
  2
ISO-25
  9
$DIMCLRD
 70
0
  9
$DIMCLRE
 70
0
  9
$DIMCLRT
 70
0
  9
$DIMTFAC
 40
1.0
  9
$DIMGAP
 40
0.625
  9
$DIMJUST
 70
0
  9
$DIMSD1
 70
0
  9
$DIMSD2
 70
0
  9
$DIMTOLJ
 70
0
  9
$DIMTZIN
 70
8
  9
$DIMALTZ
 70
0
  9
$DIMALTTZ
 70
0
  9
$DIMUPT
 70
0
  9
$DIMDEC
 70
2
  9
$DIMTDEC
 70
2
  9
$DIMALTU
 70
2
  9
$DIMALTTD
 70
3
  9
$DIMTXSTY
  7
Standard
  9
$DIMAUNIT
 70
0
  9
$DIMADEC
 70
0
  9
$DIMALTRND
 40
0.0
  9
$DIMAZIN
 70
0
  9
$DIMDSEP
 70
44
  9
$DIMATFIT
 70
3
  9
$DIMFRAC
 70
0
  9
$DIMLDRBLK
  1

  9
$DIMLUNIT
 70
2
  9
$DIMLWD
 70
-2
  9
$DIMLWE
 70
-2
  9
$DIMTMOVE
 70
0
  9
$DIMFXL
 40
1.0
  9
$DIMFXLON
 70
0
  9
$DIMJOGANG
 40
0.785398163397
  9
$DIMTFILL
 70
0
  9
$DIMTFILLCLR
 70
0
  9
$DIMARCSYM
 70
0
  9
$DIMLTYPE
  6

  9
$DIMLTEX1
  6

  9
$DIMLTEX2
  6

  9
$DIMTXTDIRECTION
 70
0
  9
$LUNITS
 70
2
  9
$LUPREC
 70
4
  9
$SKETCHINC
 40
1.0
  9
$FILLETRAD
 40
10.0
  9
$AUNITS
 70
0
  9
$AUPREC
 70
2
  9
$MENU
  1
.
  9
$ELEVATION
 40
0.0
  9
$PELEVATION
 40
0.0
  9
$THICKNESS
 40
0.0
  9
$LIMCHECK
 70
0
  9
$CHAMFERA
 40
0.0
  9
$CHAMFERB
 40
0.0
  9
$CHAMFERC
 40
0.0
  9
$CHAMFERD
 40
0.0
  9
$SKPOLY
 70
0
  9
$TDCREATE
 40
2461318.665034722
  9
$TDUCREATE
 40
2458532.153996898
  9
$TDUPDATE
 40
2461318.665034722
  9
$TDUUPDATE
 40
2458532.1544311
  9
$TDINDWG
 40
0.0
  9
$TDUSRTIMER
 40
0.0
  9
$USRTIMER
 70
1
  9
$ANGBASE
 50
0.0
  9
$ANGDIR
 70
0
  9
$PDMODE
 70
0
  9
$PDSIZE
 40
0.0
  9
$PLINEWID
 40
0.0
  9
$SPLFRAME
 70
0
  9
$SPLINETYPE
 70
6
  9
$SPLINESEGS
 70
8
  9
$HANDSEED
  5
87
  9
$SURFTAB1
 70
6
  9
$SURFTAB2
 70
6
  9
$SURFTYPE
 70
6
  9
$SURFU
 70
6
  9
$SURFV
 70
6
  9
$UCSBASE
  2

  9
$UCSNAME
  2

  9
$UCSORG
 10
0.0
 20
0.0
 30
0.0
  9
$UCSXDIR
 10
1.0
 20
0.0
 30
0.0
  9
$UCSYDIR
 10
0.0
 20
1.0
 30
0.0
  9
$UCSORTHOREF
  2

  9
$UCSORTHOVIEW
 70
0
  9
$UCSORGTOP
 10
0.0
 20
0.0
 30
0.0
  9
$UCSORGBOTTOM
 10
0.0
 20
0.0
 30
0.0
  9
$UCSORGLEFT
 10
0.0
 20
0.0
 30
0.0
  9
$UCSORGRIGHT
 10
0.0
 20
0.0
 30
0.0
  9
$UCSORGFRONT
 10
0.0
 20
0.0
 30
0.0
  9
$UCSORGBACK
 10
0.0
 20
0.0
 30
0.0
  9
$PUCSBASE
  2

  9
$PUCSNAME
  2

  9
$PUCSORG
 10
0.0
 20
0.0
 30
0.0
  9
$PUCSXDIR
 10
1.0
 20
0.0
 30
0.0
  9
$PUCSYDIR
 10
0.0
 20
1.0
 30
0.0
  9
$PUCSORTHOREF
  2

  9
$PUCSORTHOVIEW
 70
0
  9
$PUCSORGTOP
 10
0.0
 20
0.0
 30
0.0
  9
$PUCSORGBOTTOM
 10
0.0
 20
0.0
 30
0.0
  9
$PUCSORGLEFT
 10
0.0
 20
0.0
 30
0.0
  9
$PUCSORGRIGHT
 10
0.0
 20
0.0
 30
0.0
  9
$PUCSORGFRONT
 10
0.0
 20
0.0
 30
0.0
  9
$PUCSORGBACK
 10
0.0
 20
0.0
 30
0.0
  9
$USERI1
 70
0
  9
$USERI2
 70
0
  9
$USERI3
 70
0
  9
$USERI4
 70
0
  9
$USERI5
 70
0
  9
$USERR1
 40
0.0
  9
$USERR2
 40
0.0
  9
$USERR3
 40
0.0
  9
$USERR4
 40
0.0
  9
$USERR5
 40
0.0
  9
$WORLDVIEW
 70
1
  9
$SHADEDGE
 70
3
  9
$SHADEDIF
 70
70
  9
$TILEMODE
 70
1
  9
$MAXACTVP
 70
64
  9
$PINSBASE
 10
0.0
 20
0.0
 30
0.0
  9
$PLIMCHECK
 70
0
  9
$PEXTMIN
 10
1e+20
 20
1e+20
 30
1e+20
  9
$PEXTMAX
 10
-1e+20
 20
-1e+20
 30
-1e+20
  9
$PLIMMIN
 10
0.0
 20
0.0
  9
$PLIMMAX
 10
420.0
 20
297.0
  9
$UNITMODE
 70
0
  9
$VISRETAIN
 70
1
  9
$PLINEGEN
 70
0
  9
$PSLTSCALE
 70
1
  9
$TREEDEPTH
 70
3020
  9
$CMLSTYLE
  2
Standard
  9
$CMLJUST
 70
0
  9
$CMLSCALE
 40
20.0
  9
$PROXYGRAPHICS
 70
1
  9
$MEASUREMENT
 70
1
  9
$CELWEIGHT
370
-1
  9
$ENDCAPS
280
0
  9
$JOINSTYLE
280
0
  9
$LWDISPLAY
290
0
  9
$INSUNITS
 70
6
  9
$HYPERLINKBASE
  1

  9
$STYLESHEET
  1

  9
$XEDIT
290
1
  9
$CEPSNTYPE
380
0
  9
$PSTYLEMODE
290
1
  9
$FINGERPRINTGUID
  2
{724065EB-640E-49BD-97BE-494B0D4DFDBF}
  9
$VERSIONGUID
  2
{E3DBE491-4405-42CA-954C-142F06063054}
  9
$EXTNAMES
290
1
  9
$PSVPSCALE
 40
0.0
  9
$OLESTARTUP
290
0
  9
$SORTENTS
280
127
  9
$INDEXCTL
280
0
  9
$HIDETEXT
280
1
  9
$XCLIPFRAME
280
1
  9
$HALOGAP
280
0
  9
$OBSCOLOR
 70
257
  9
$OBSLTYPE
280
0
  9
$INTERSECTIONDISPLAY
280
0
  9
$INTERSECTIONCOLOR
 70
257
  9
$DIMASSOC
280
2
  9
$PROJECTNAME
  1

  9
$CAMERADISPLAY
290
0
  9
$LENSLENGTH
 40
50.0
  9
$CAMERAHEIGHT
 40
0.0
  9
$STEPSPERSEC
 40
24.0
  9
$STEPSIZE
 40
100.0
  9
$3DDWFPREC
 40
2.0
  9
$PSOLWIDTH
 40
0.005
  9
$PSOLHEIGHT
 40
0.08
  9
$LOFTANG1
 40
1.570796326795
  9
$LOFTANG2
 40
1.570796326795
  9
$LOFTMAG1
 40
0.0
  9
$LOFTMAG2
 40
0.0
  9
$LOFTPARAM
 70
7
  9
$LOFTNORMALS
280
1
  9
$LATITUDE
 40
37.795
  9
$LONGITUDE
 40
-122.394
  9
$NORTHDIRECTION
 40
0.0
  9
$TIMEZONE
 70
-8000
  9
$LIGHTGLYPHDISPLAY
280
1
  9
$TILEMODELIGHTSYNCH
280
1
  9
$CMATERIAL
347
20
  9
$SOLIDHIST
280
0
  9
$SHOWHIST
280
1
  9
$DWFFRAME
280
2
  9
$DGNFRAME
280
2
  9
$REALWORLDSCALE
290
1
  9
$INTERFERECOLOR
 62
256
  9
$CSHADOW
280
0
  9
$SHADOWPLANELOCATION
 40
0.0
  0
ENDSEC
  0
SECTION
  2
CLASSES
  0
CLASS
  1
ACDBDICTIONARYWDFLT
  2
AcDbDictionaryWithDefault
  3
ObjectDBX Classes
 90
0
 91
0
280
0
281
0
  0
CLASS
  1
SUN
  2
AcDbSun
  3
SCENEOE
 90
1153
 91
0
280
0
281
0
  0
CLASS
  1
VISUALSTYLE
  2
AcDbVisualStyle
  3
ObjectDBX Classes
 90
4095
 91
0
280
0
281
0
  0
CLASS
  1
MATERIAL
  2
AcDbMaterial
  3
ObjectDBX Classes
 90
1153
 91
0
280
0
281
0
  0
CLASS
  1
SCALE
  2
AcDbScale
  3
ObjectDBX Classes
 90
1153
 91
0
280
0
281
0
  0
CLASS
  1
TABLESTYLE
  2
AcDbTableStyle
  3
ObjectDBX Classes
 90
4095
 91
0
280
0
281
0
  0
CLASS
  1
MLEADERSTYLE
  2
AcDbMLeaderStyle
  3
ACDB_MLEADERSTYLE_CLASS
 90
4095
 91
0
280
0
281
0
  0
CLASS
  1
DICTIONARYVAR
  2
AcDbDictionaryVar
  3
ObjectDBX Classes
 90
0
 91
0
280
0
281
0
  0
CLASS
  1
CELLSTYLEMAP
  2
AcDbCellStyleMap
  3
ObjectDBX Classes
 90
1152
 91
0
280
0
281
0
  0
CLASS
  1
MENTALRAYRENDERSETTINGS
  2
AcDbMentalRayRenderSettings
  3
SCENEOE
 90
1024
 91
0
280
0
281
0
  0
CLASS
  1
ACDBDETAILVIEWSTYLE
  2
AcDbDetailViewStyle
  3
ObjectDBX Classes
 90
1025
 91
0
280
0
281
0
  0
CLASS
  1
ACDBSECTIONVIEWSTYLE
  2
AcDbSectionViewStyle
  3
ObjectDBX Classes
 90
1025
 91
0
280
0
281
0
  0
CLASS
  1
RASTERVARIABLES
  2
AcDbRasterVariables
  3
ISM
 90
0
 91
0
280
0
281
0
  0
CLASS
  1
ACDBPLACEHOLDER
  2
AcDbPlaceHolder
  3
ObjectDBX Classes
 90
0
 91
0
280
0
281
0
  0
CLASS
  1
LAYOUT
  2
AcDbLayout
  3
ObjectDBX Classes
 90
0
 91
0
280
0
281
0
  0
ENDSEC
  0
SECTION
  2
TABLES
  0
TABLE
  2
VPORT
  5
8
330
0
100
AcDbSymbolTable
 70
1
  0
VPORT
  5
23
330
8
100
AcDbSymbolTableRecord
100
AcDbViewportTableRecord
  2
*Active
 70
0
 10
0.0
 20
0.0
 11
1.0
 21
1.0
 12
0.0
 22
0.0
 13
0.0
 23
0.0
 14
0.5
 24
0.5
 15
0.5
 25
0.5
 16
0.0
 26
0.0
 36
1.0
 17
0.0
 27
0.0
 37
0.0
 40
1000.0
 41
1.34
 42
50.0
 43
0.0
 44
0.0
 50
0.0
 51
0.0
 71
0
 72
1000
 73
1
 74
3
 75
0
 76
0
 77
0
 78
0
281
0
 65
0
146
0.0
  0
ENDTAB
  0
TABLE
  2
LTYPE
  5
2
330
0
100
AcDbSymbolTable
 70
3
  0
LTYPE
  5
24
330
2
100
AcDbSymbolTableRecord
100
AcDbLinetypeTableRecord
  2
ByBlock
 70
0
  3

 72
65
 73
0
 40
0.0
  0
LTYPE
  5
25
330
2
100
AcDbSymbolTableRecord
100
AcDbLinetypeTableRecord
  2
ByLayer
 70
0
  3

 72
65
 73
0
 40
0.0
  0
LTYPE
  5
26
330
2
100
AcDbSymbolTableRecord
100
AcDbLinetypeTableRecord
  2
Continuous
 70
0
  3

 72
65
 73
0
 40
0.0
  0
ENDTAB
  0
TABLE
  2
LAYER
  5
1
330
0
100
AcDbSymbolTable
 70
13
  0
LAYER
  5
27
330
1
100
AcDbSymbolTableRecord
100
AcDbLayerTableRecord
  2
0
 70
0
 62
7
  6
Continuous
370
-3
390
13
347
21
  0
LAYER
  5
28
330
1
100
AcDbSymbolTableRecord
100
AcDbLayerTableRecord
  2
Defpoints
 70
0
 62
7
  6
Continuous
290
0
370
-3
390
13
347
21
  0
LAYER
  5
2F
330
1
100
AcDbSymbolTableRecord
100
AcDbLayerTableRecord
  2
OUTLINE
 70
0
 62
7
  6
Continuous
370
-3
390
13
347
21
  0
LAYER
  5
30
330
1
100
AcDbSymbolTableRecord
100
AcDbLayerTableRecord
  2
OPENINGS
 70
0
 62
7
  6
Continuous
370
-3
390
13
347
21
  0
LAYER
  5
31
330
1
100
AcDbSymbolTableRecord
100
AcDbLayerTableRecord
  2
LIGHT_WINDOWS
 70
0
 62
7
  6
Continuous
370
-3
390
13
347
21
  0
LAYER
  5
32
330
1
100
AcDbSymbolTableRecord
100
AcDbLayerTableRecord
  2
SPOTFACES
 70
0
 62
7
  6
Continuous
370
-3
390
13
347
21
  0
LAYER
  5
33
330
1
100
AcDbSymbolTableRecord
100
AcDbLayerTableRecord
  2
CLIPS
 70
0
 62
7
  6
Continuous
370
-3
390
13
347
21
  0
LAYER
  5
34
330
1
100
AcDbSymbolTableRecord
100
AcDbLayerTableRecord
  2
PINS
 70
0
 62
7
  6
Continuous
370
-3
390
13
347
21
  0
LAYER
  5
35
330
1
100
AcDbSymbolTableRecord
100
AcDbLayerTableRecord
  2
SCREWS
 70
0
 62
7
  6
Continuous
370
-3
390
13
347
21
  0
LAYER
  5
36
330
1
100
AcDbSymbolTableRecord
100
AcDbLayerTableRecord
  2
SCREW_BOSSES
 70
0
 62
7
  6
Continuous
370
-3
390
13
347
21
  0
LAYER
  5
37
330
1
100
AcDbSymbolTableRecord
100
AcDbLayerTableRecord
  2
GLUE_LANDS_OPTIONAL
 70
0
 62
7
  6
Continuous
370
-3
390
13
347
21
  0
LAYER
  5
38
330
1
100
AcDbSymbolTableRecord
100
AcDbLayerTableRecord
  2
BUTTON_INNER_FEATURES
 70
0
 62
7
  6
Continuous
370
-3
390
13
347
21
  0
LAYER
  5
39
330
1
100
AcDbSymbolTableRecord
100
AcDbLayerTableRecord
  2
NOTES
 70
0
 62
7
  6
Continuous
370
-3
390
13
347
21
  0
ENDTAB
  0
TABLE
  2
STYLE
  5
5
330
0
100
AcDbSymbolTable
 70
1
  0
STYLE
  5
29
330
5
100
AcDbSymbolTableRecord
100
AcDbTextStyleTableRecord
  2
Standard
 70
0
 40
0.0
 41
1.0
 50
0.0
 71
0
 42
2.5
  3
txt
  4

  0
ENDTAB
  0
TABLE
  2
VIEW
  5
7
330
0
100
AcDbSymbolTable
 70
0
  0
ENDTAB
  0
TABLE
  2
UCS
  5
6
330
0
100
AcDbSymbolTable
 70
0
  0
ENDTAB
  0
TABLE
  2
APPID
  5
3
330
0
100
AcDbSymbolTable
 70
3
  0
APPID
  5
2A
330
3
100
AcDbSymbolTableRecord
100
AcDbRegAppTableRecord
  2
ACAD
 70
0
  0
APPID
  5
84
330
3
100
AcDbSymbolTableRecord
100
AcDbRegAppTableRecord
  2
HATCHBACKGROUNDCOLOR
 70
0
  0
APPID
  5
85
330
3
100
AcDbSymbolTableRecord
100
AcDbRegAppTableRecord
  2
EZDXF
 70
0
  0
ENDTAB
  0
TABLE
  2
DIMSTYLE
  5
4
330
0
100
AcDbSymbolTable
 70
1
100
AcDbDimStyleTable
  0
DIMSTYLE
105
2B
330
4
100
AcDbSymbolTableRecord
100
AcDbDimStyleTableRecord
  2
Standard
 70
0
 40
1.0
 41
2.5
 42
0.625
 43
3.75
 44
1.25
 45
0.0
 46
0.0
 47
0.0
 48
0.0
 49
2.5
140
2.5
141
2.5
142
0.0
143
0.03937007874
144
1.0
145
0.0
146
1.0
147
0.625
148
0.0
 69
0
 70
0
 71
0
 72
0
 73
0
 74
0
 75
0
 76
0
 77
1
 78
8
 79
3
170
0
171
3
172
1
173
0
174
0
175
0
176
0
177
0
178
0
179
2
271
2
272
2
273
2
274
3
275
0
276
0
277
2
278
44
279
0
280
0
281
0
282
0
283
0
284
8
285
0
286
0
288
0
289
3
290
0
371
-2
372
-2
  0
ENDTAB
  0
TABLE
  2
BLOCK_RECORD
  5
9
330
0
100
AcDbSymbolTable
 70
2
  0
BLOCK_RECORD
  5
17
330
9
100
AcDbSymbolTableRecord
100
AcDbBlockTableRecord
  2
*Model_Space
340
1A
 70
0
280
1
281
0
  0
BLOCK_RECORD
  5
1B
330
9
100
AcDbSymbolTableRecord
100
AcDbBlockTableRecord
  2
*Paper_Space
340
1E
 70
0
280
1
281
0
  0
ENDTAB
  0
ENDSEC
  0
SECTION
  2
BLOCKS
  0
BLOCK
  5
18
330
17
100
AcDbEntity
  8
0
100
AcDbBlockBegin
  2
*Model_Space
 70
0
 10
0.0
 20
0.0
 30
0.0
  3
*Model_Space
  1

  0
ENDBLK
  5
19
330
17
100
AcDbEntity
  8
0
100
AcDbBlockEnd
  0
BLOCK
  5
1C
330
1B
100
AcDbEntity
  8
0
100
AcDbBlockBegin
  2
*Paper_Space
 70
0
 10
0.0
 20
0.0
 30
0.0
  3
*Paper_Space
  1

  0
ENDBLK
  5
1D
330
1B
100
AcDbEntity
  8
0
100
AcDbBlockEnd
  0
ENDSEC
  0
SECTION
  2
ENTITIES
  0
LWPOLYLINE
  5
3A
330
17
100
AcDbEntity
  8
GLUE_LANDS_OPTIONAL
100
AcDbPolyline
 90
372
 70
1
 10
113.76496445740618
 20
8.32
 10
113.76496445740618
 20
17.72
 10
113.76496445740618
 20
27.12
 10
112.34396445740617
 20
27.12
 10
110.92196445740618
 20
27.12
 10
110.92196445740618
 20
25.21
 10
110.92196445740618
 20
23.301
 10
110.92196445740618
 20
23.284
 10
110.92096445740617
 20
23.266
 10
110.91996445740617
 20
23.249
 10
110.91796445740617
 20
23.231
 10
110.91596445740618
 20
23.214
 10
110.91296445740618
 20
23.197
 10
110.90996445740618
 20
23.179
 10
110.90596445740617
 20
23.162
 10
110.90096445740618
 20
23.145
 10
110.89696445740617
 20
23.128
 10
110.89096445740617
 20
23.112
 10
110.88596445740617
 20
23.095
 10
110.87796445740618
 20
22.989
 10
110.86996445740617
 20
22.883
 10
110.86896445740618
 20
22.869
 10
110.86796445740617
 20
22.854
 10
110.86596445740618
 20
22.839
 10
110.86296445740618
 20
22.825
 10
110.86096445740617
 20
22.81
 10
110.85796445740618
 20
22.796
 10
110.85396445740618
 20
22.781
 10
110.84996445740617
 20
22.767
 10
110.84596445740618
 20
22.753
 10
110.84196445740618
 20
22.738
 10
110.83696445740617
 20
22.724
 10
110.83196445740617
 20
22.711
 10
110.79896445740617
 20
22.624
 10
110.76496445740618
 20
22.536
 10
110.76496445740618
 20
19.098
 10
110.76496445740618
 20
15.66
 10
111.19796445740617
 20
15.518
 10
111.58796445740617
 20
15.283
 10
111.91396445740617
 20
14.965
 10
112.15996445740618
 20
14.582
 10
112.31296445740617
 20
14.153
 10
112.36496445740617
 20
13.7
 10
112.31296445740617
 20
13.247
 10
112.15996445740618
 20
12.818
 10
111.91396445740617
 20
12.435
 10
111.58796445740617
 20
12.117
 10
111.19796445740617
 20
11.882
 10
110.76496445740618
 20
11.74
 10
110.76496445740618
 20
10.03
 10
110.76496445740618
 20
8.32
 10
110.68496445740618
 20
7.093
 10
110.44496445740617
 20
5.887
 10
110.04896445740617
 20
4.723
 10
109.50596445740618
 20
3.62
 10
108.82296445740617
 20
2.598
 10
108.01196445740618
 20
1.673
 10
107.08696445740617
 20
0.862
 10
106.06496445740618
 20
0.179
 10
104.96196445740617
 20
-0.364
 10
103.79796445740618
 20
-0.76
 10
102.59196445740618
 20
-1.0
 10
101.36496445740617
 20
-1.08
 10
87.81496445740618
 20
-1.08
 10
74.26496445740618
 20
-1.08
 10
73.03796445740618
 20
-1.0
 10
71.83196445740617
 20
-0.76
 10
70.66796445740617
 20
-0.364
 10
69.56496445740618
 20
0.179
 10
68.54296445740617
 20
0.862
 10
67.61796445740617
 20
1.673
 10
66.80696445740618
 20
2.598
 10
66.12396445740617
 20
3.62
 10
65.58096445740617
 20
4.723
 10
65.18496445740618
 20
5.887
 10
64.94496445740617
 20
7.093
 10
64.86496445740617
 20
8.32
 10
64.86496445740617
 20
10.03
 10
64.86496445740617
 20
11.74
 10
64.43196445740618
 20
11.882
 10
64.04196445740618
 20
12.117
 10
63.71596445740617
 20
12.435
 10
63.46996445740618
 20
12.818
 10
63.31696445740617
 20
13.247
 10
63.26496445740618
 20
13.7
 10
63.31696445740617
 20
14.153
 10
63.46996445740618
 20
14.582
 10
63.71596445740617
 20
14.965
 10
64.04196445740618
 20
15.283
 10
64.43196445740618
 20
15.518
 10
64.86496445740617
 20
15.66
 10
64.86496445740617
 20
18.722
 10
64.86496445740617
 20
21.784
 10
64.73096445740617
 20
21.918
 10
64.59796445740618
 20
22.052
 10
64.58896445740618
 20
22.06
 10
64.58096445740617
 20
22.069
 10
64.57296445740617
 20
22.078
 10
64.56496445740618
 20
22.088
 10
64.55696445740618
 20
22.097
 10
64.54896445740617
 20
22.107
 10
64.54196445740618
 20
22.116
 10
64.53396445740617
 20
22.126
 10
64.52696445740618
 20
22.136
 10
64.52096445740618
 20
22.147
 10
64.51396445740617
 20
22.157
 10
64.50796445740617
 20
22.167
 10
64.43296445740617
 20
22.292
 10
64.35796445740617
 20
22.417
 10
64.35096445740618
 20
22.428
 10
64.34596445740617
 20
22.438
 10
64.33996445740617
 20
22.448
 10
64.33496445740617
 20
22.459
 10
64.32996445740618
 20
22.47
 10
64.32496445740617
 20
22.48
 10
64.31996445740617
 20
22.491
 10
64.31496445740618
 20
22.502
 10
64.31096445740617
 20
22.513
 10
64.30696445740618
 20
22.525
 10
64.30296445740618
 20
22.536
 10
64.29896445740617
 20
22.547
 10
64.23696445740617
 20
22.747
 10
64.17396445740617
 20
22.947
 10
64.16996445740618
 20
22.962
 10
64.16596445740618
 20
22.976
 10
64.16196445740617
 20
22.991
 10
64.15896445740617
 20
23.006
 10
64.15596445740617
 20
23.021
 10
64.15396445740618
 20
23.035
 10
64.15196445740618
 20
23.05
 10
64.14996445740617
 20
23.066
 10
64.14896445740618
 20
23.081
 10
64.14796445740618
 20
23.096
 10
64.14696445740617
 20
23.111
 10
64.14696445740617
 20
23.126
 10
64.14696445740617
 20
23.178
 10
64.14696445740617
 20
23.23
 10
64.14296445740618
 20
23.244
 10
64.13896445740617
 20
23.258
 10
64.13596445740617
 20
23.272
 10
64.13296445740617
 20
23.286
 10
64.13096445740618
 20
23.3
 10
64.12796445740618
 20
23.314
 10
64.12596445740617
 20
23.329
 10
64.12496445740618
 20
23.343
 10
64.12396445740617
 20
23.358
 10
64.12296445740617
 20
23.372
 10
64.12196445740618
 20
23.387
 10
64.12196445740618
 20
23.401
 10
64.12196445740618
 20
69.051
 10
64.12196445740618
 20
114.701
 10
64.12196445740618
 20
114.719
 10
64.12296445740617
 20
114.738
 10
64.12496445740618
 20
114.756
 10
64.12596445740617
 20
114.774
 10
64.12896445740617
 20
114.792
 10
64.13196445740617
 20
114.81
 10
64.13596445740617
 20
114.828
 10
64.13996445740618
 20
114.846
 10
64.14396445740617
 20
114.864
 10
64.14996445740617
 20
114.881
 10
64.15496445740618
 20
114.899
 10
64.16196445740617
 20
114.916
 10
64.16796445740617
 20
114.986
 10
64.17396445740617
 20
115.055
 10
64.17596445740618
 20
115.074
 10
64.17896445740618
 20
115.092
 10
64.18196445740618
 20
115.111
 10
64.18596445740617
 20
115.129
 10
64.18996445740618
 20
115.147
 10
64.19496445740617
 20
115.165
 10
64.19996445740617
 20
115.183
 10
64.20596445740617
 20
115.201
 10
64.21296445740617
 20
115.218
 10
64.21996445740618
 20
115.235
 10
64.22696445740617
 20
115.253
 10
64.23496445740618
 20
115.269
 10
64.30996445740618
 20
115.419
 10
64.38496445740617
 20
115.569
 10
64.39296445740618
 20
115.584
 10
64.39996445740617
 20
115.598
 10
64.40896445740617
 20
115.612
 10
64.41696445740618
 20
115.625
 10
64.42596445740618
 20
115.639
 10
64.43496445740618
 20
115.652
 10
64.44496445740617
 20
115.665
 10
64.45496445740618
 20
115.677
 10
64.46496445740617
 20
115.69
 10
64.47596445740618
 20
115.702
 10
64.48696445740617
 20
115.714
 10
64.49796445740617
 20
115.725
 10
64.59796445740618
 20
115.825
 10
64.69796445740617
 20
115.925
 10
64.70896445740617
 20
115.936
 10
64.72096445740617
 20
115.947
 10
64.73296445740617
 20
115.958
 10
64.74596445740617
 20
115.968
 10
64.75796445740617
 20
115.978
 10
64.77096445740618
 20
115.988
 10
64.78396445740617
 20
115.997
 10
64.79796445740618
 20
116.006
 10
64.81096445740617
 20
116.014
 10
64.82496445740617
 20
116.023
 10
64.83896445740618
 20
116.03
 10
64.85396445740618
 20
116.038
 10
64.85896445740617
 20
116.04
 10
64.86496445740617
 20
116.043
 10
64.86496445740617
 20
130.932
 10
64.86496445740617
 20
145.82
 10
64.86496445740617
 20
145.917
 10
64.86696445740617
 20
146.013
 10
64.86896445740618
 20
146.11
 10
64.87296445740617
 20
146.207
 10
64.87696445740617
 20
146.303
 10
64.88296445740617
 20
146.4
 10
64.88896445740617
 20
146.496
 10
64.89696445740617
 20
146.593
 10
64.90496445740618
 20
146.689
 10
64.91496445740617
 20
146.785
 10
64.92496445740618
 20
146.881
 10
64.93596445740617
 20
146.977
 10
64.38596445740617
 20
147.154
 10
63.90896445740617
 20
147.48
 10
63.54496445740618
 20
147.929
 10
63.32496445740617
 20
148.464
 10
63.266964457406175
 20
149.039
 10
63.37596445740617
 20
149.607
 10
63.64296445740618
 20
150.12
 10
64.04496445740618
 20
150.535
 10
64.54996445740618
 20
150.818
 10
65.11396445740617
 20
150.944
 10
65.68996445740618
 20
150.904
 10
66.23196445740618
 20
150.701
 10
66.67696445740617
 20
151.368
 10
67.17796445740618
 20
151.995
 10
67.73096445740617
 20
152.577
 10
68.33096445740617
 20
153.11
 10
68.97396445740617
 20
153.59
 10
69.65596445740617
 20
154.013
 10
70.37196445740618
 20
154.376
 10
71.11596445740618
 20
154.677
 10
71.88296445740617
 20
154.913
 10
72.66696445740618
 20
155.083
 10
73.46296445740617
 20
155.186
 10
74.26496445740618
 20
155.22
 10
87.81496445740618
 20
155.22
 10
101.36496445740617
 20
155.22
 10
102.16696445740618
 20
155.186
 10
102.96296445740617
 20
155.083
 10
103.74696445740616
 20
154.913
 10
104.51396445740617
 20
154.677
 10
105.25796445740617
 20
154.376
 10
105.97396445740617
 20
154.013
 10
106.65596445740618
 20
153.59
 10
107.29896445740617
 20
153.11
 10
107.89896445740618
 20
152.577
 10
108.45196445740618
 20
151.995
 10
108.95296445740618
 20
151.368
 10
109.39796445740618
 20
150.701
 10
109.93996445740618
 20
150.904
 10
110.51596445740617
 20
150.944
 10
111.07996445740618
 20
150.818
 10
111.58496445740617
 20
150.535
 10
111.98696445740617
 20
150.12
 10
112.25396445740617
 20
149.607
 10
112.36296445740618
 20
149.039
 10
112.30496445740617
 20
148.464
 10
112.08496445740617
 20
147.929
 10
111.72096445740618
 20
147.48
 10
111.24396445740618
 20
147.154
 10
110.69396445740617
 20
146.977
 10
110.70496445740618
 20
146.881
 10
110.71496445740618
 20
146.785
 10
110.72496445740617
 20
146.689
 10
110.73296445740618
 20
146.593
 10
110.74096445740618
 20
146.496
 10
110.74696445740618
 20
146.4
 10
110.75296445740618
 20
146.303
 10
110.75696445740617
 20
146.207
 10
110.76096445740617
 20
146.11
 10
110.76296445740617
 20
146.013
 10
110.76496445740618
 20
145.917
 10
110.76496445740618
 20
145.82
 10
110.76496445740618
 20
123.221
 10
110.76496445740618
 20
100.622
 10
110.80996445740618
 20
100.51
 10
110.85396445740618
 20
100.399
 10
110.86096445740617
 20
100.381
 10
110.86696445740617
 20
100.363
 10
110.87296445740617
 20
100.345
 10
110.87796445740618
 20
100.327
 10
110.88196445740617
 20
100.308
 10
110.88596445740617
 20
100.289
 10
110.88896445740617
 20
100.271
 10
110.89196445740617
 20
100.252
 10
110.89396445740617
 20
100.233
 10
110.89596445740617
 20
100.214
 10
110.89696445740617
 20
100.195
 10
110.89696445740617
 20
100.176
 10
110.89696445740617
 20
100.149
 10
110.89696445740617
 20
100.122
 10
110.90096445740618
 20
100.108
 10
110.90496445740618
 20
100.094
 10
110.90796445740617
 20
100.08
 10
110.91096445740618
 20
100.066
 10
110.91296445740618
 20
100.052
 10
110.91596445740618
 20
100.038
 10
110.91796445740617
 20
100.023
 10
110.91896445740618
 20
100.009
 10
110.91996445740617
 20
99.994
 10
110.92096445740617
 20
99.98
 10
110.92196445740618
 20
99.965
 10
110.92196445740618
 20
99.951
 10
110.92196445740618
 20
74.09
 10
110.92196445740618
 20
48.23
 10
112.34396445740617
 20
48.23
 10
113.76496445740618
 20
48.23
 10
113.76496445740618
 20
97.025
 10
113.76496445740618
 20
145.82
 10
113.65896445740617
 20
147.439
 10
113.34196445740618
 20
149.029
 10
112.82096445740618
 20
150.565
 10
112.10396445740618
 20
152.02
 10
111.20296445740618
 20
153.369
 10
110.13296445740617
 20
154.588
 10
108.91396445740617
 20
155.658
 10
107.56496445740618
 20
156.559
 10
106.10996445740616
 20
157.276
 10
104.57396445740618
 20
157.797
 10
102.98396445740617
 20
158.114
 10
101.36496445740617
 20
158.22
 10
87.81496445740618
 20
158.22
 10
74.26496445740618
 20
158.22
 10
72.64596445740618
 20
158.114
 10
71.05596445740618
 20
157.797
 10
69.51996445740618
 20
157.276
 10
68.06496445740618
 20
156.559
 10
66.71596445740617
 20
155.658
 10
65.49696445740618
 20
154.588
 10
64.42696445740617
 20
153.369
 10
63.525964457406175
 20
152.02
 10
62.80896445740618
 20
150.565
 10
62.287964457406176
 20
149.029
 10
61.97096445740617
 20
147.439
 10
61.864964457406174
 20
145.82
 10
61.864964457406174
 20
77.07
 10
61.864964457406174
 20
8.32
 10
61.97096445740617
 20
6.701
 10
62.287964457406176
 20
5.111
 10
62.80896445740618
 20
3.575
 10
63.525964457406175
 20
2.12
 10
64.42696445740617
 20
0.771
 10
65.49696445740618
 20
-0.448
 10
66.71596445740617
 20
-1.518
 10
68.06496445740618
 20
-2.419
 10
69.51996445740618
 20
-3.136
 10
71.05596445740618
 20
-3.657
 10
72.64596445740618
 20
-3.974
 10
74.26496445740618
 20
-4.08
 10
87.81496445740618
 20
-4.08
 10
101.36496445740617
 20
-4.08
 10
102.98396445740617
 20
-3.974
 10
104.57396445740618
 20
-3.657
 10
106.10996445740616
 20
-3.136
 10
107.56496445740618
 20
-2.419
 10
108.91396445740617
 20
-1.518
 10
110.13296445740617
 20
-0.448
 10
111.20296445740618
 20
0.771
 10
112.10396445740618
 20
2.12
 10
112.82096445740618
 20
3.575
 10
113.34196445740618
 20
5.111
 10
113.65896445740617
 20
6.701
  0
LWPOLYLINE
  5
3B
330
17
100
AcDbEntity
  8
OUTLINE
100
AcDbPolyline
 90
36
 70
1
 10
61.46496445740618
 20
145.82
 10
61.71091286824483
 20
148.31715612180645
 10
62.43930644126171
 20
150.71834793427314
 10
63.622153419933596
 20
152.9312989826509
 10
65.21399765821837
 20
154.8709667991878
 10
67.15366547475527
 20
156.46281103747256
 10
69.36661652313303
 20
157.64565801614447
 10
71.76780833559974
 20
158.37405158916135
 10
74.26496445740618
 20
158.62
 10
101.36496445740617
 20
158.62
 10
103.86212057921261
 20
158.37405158916135
 10
106.26331239167932
 20
157.64565801614447
 10
108.47626344005708
 20
156.46281103747256
 10
110.41593125659398
 20
154.8709667991878
 10
112.00777549487876
 20
152.9312989826509
 10
113.19062247355065
 20
150.71834793427314
 10
113.91901604656752
 20
148.31715612180642
 10
114.16496445740617
 20
145.82
 10
114.16496445740617
 20
8.319999999999999
 10
113.91901604656752
 20
5.822843878193554
 10
113.19062247355065
 20
3.4216520657268488
 10
112.00777549487876
 20
1.208701017349087
 10
110.41593125659398
 20
-0.7309667991878115
 10
108.47626344005708
 20
-2.322811037472583
 10
106.26331239167932
 20
-3.5056580161444764
 10
103.86212057921261
 20
-4.234051589161352
 10
101.36496445740617
 20
-4.480000000000004
 10
74.26496445740618
 20
-4.480000000000004
 10
71.76780833559974
 20
-4.2340515891613535
 10
69.36661652313303
 20
-3.505658016144473
 10
67.15366547475527
 20
-2.3228110374725865
 10
65.21399765821837
 20
-0.7309667991878133
 10
63.622153419933596
 20
1.2087010173490889
 10
62.43930644126171
 20
3.4216520657268497
 10
61.71091286824483
 20
5.822843878193549
 10
61.46496445740618
 20
8.319999999999993
  0
LWPOLYLINE
  5
3C
330
17
100
AcDbEntity
  8
OPENINGS
100
AcDbPolyline
 90
36
 70
1
 10
93.07496445740617
 20
75.95700000000001
 10
93.10955095268037
 20
76.30816257962904
 10
93.21198129888586
 20
76.64583017825717
 10
93.3783191552616
 20
76.9570264194353
 10
93.60217225127039
 20
77.2297922061358
 10
93.87493803797088
 20
77.4536453021446
 10
94.186134279149
 20
77.61998315852033
 10
94.52380187777715
 20
77.72241350472582
 10
94.87496445740618
 20
77.757
 10
100.87496445740618
 20
77.757
 10
101.22612703703521
 20
77.72241350472582
 10
101.56379463566333
 20
77.61998315852033
 10
101.87499087684145
 20
77.4536453021446
 10
102.14775666354195
 20
77.2297922061358
 10
102.37160975955075
 20
76.9570264194353
 10
102.5379476159265
 20
76.64583017825717
 10
102.64037796213199
 20
76.30816257962904
 10
102.67496445740616
 20
75.95700000000001
 10
102.67496445740616
 20
75.557
 10
102.64037796213199
 20
75.20583742037097
 10
102.5379476159265
 20
74.86816982174284
 10
102.37160975955075
 20
74.55697358056472
 10
102.14775666354195
 20
74.28420779386421
 10
101.87499087684145
 20
74.06035469785542
 10
101.56379463566333
 20
73.89401684147968
 10
101.22612703703521
 20
73.79158649527419
 10
100.87496445740618
 20
73.757
 10
94.87496445740618
 20
73.757
 10
94.52380187777715
 20
73.79158649527419
 10
94.186134279149
 20
73.89401684147968
 10
93.87493803797088
 20
74.06035469785542
 10
93.60217225127039
 20
74.28420779386421
 10
93.3783191552616
 20
74.55697358056472
 10
93.21198129888586
 20
74.86816982174284
 10
93.10955095268037
 20
75.20583742037097
 10
93.07496445740617
 20
75.557
  0
TEXT
  5
3D
330
17
100
AcDbEntity
  8
NOTES
100
AcDbText
 10
95.87496445740618
 20
78.357
 30
0.0
 40
1.2
  1
C1
 11
95.87496445740618
 21
78.357
 31
0.0
100
AcDbText
  0
LWPOLYLINE
  5
3E
330
17
100
AcDbEntity
  8
OPENINGS
100
AcDbPolyline
 90
36
 70
1
 10
72.47496445740617
 20
75.95700000000001
 10
72.50955095268036
 20
76.30816257962904
 10
72.61198129888585
 20
76.64583017825717
 10
72.77831915526158
 20
76.9570264194353
 10
73.00217225127038
 20
77.2297922061358
 10
73.27493803797088
 20
77.4536453021446
 10
73.58613427914901
 20
77.61998315852033
 10
73.92380187777714
 20
77.72241350472582
 10
74.27496445740617
 20
77.757
 10
80.27496445740618
 20
77.757
 10
80.62612703703522
 20
77.72241350472582
 10
80.96379463566333
 20
77.61998315852033
 10
81.27499087684146
 20
77.4536453021446
 10
81.54775666354196
 20
77.2297922061358
 10
81.77160975955076
 20
76.9570264194353
 10
81.9379476159265
 20
76.64583017825717
 10
82.040377962132
 20
76.30816257962904
 10
82.07496445740617
 20
75.95700000000001
 10
82.07496445740617
 20
75.557
 10
82.040377962132
 20
75.20583742037097
 10
81.9379476159265
 20
74.86816982174284
 10
81.77160975955076
 20
74.55697358056472
 10
81.54775666354196
 20
74.28420779386421
 10
81.27499087684146
 20
74.06035469785542
 10
80.96379463566333
 20
73.89401684147968
 10
80.62612703703522
 20
73.79158649527419
 10
80.27496445740618
 20
73.757
 10
74.27496445740617
 20
73.757
 10
73.92380187777714
 20
73.79158649527419
 10
73.58613427914901
 20
73.89401684147968
 10
73.27493803797088
 20
74.06035469785542
 10
73.00217225127038
 20
74.28420779386421
 10
72.77831915526158
 20
74.55697358056472
 10
72.61198129888585
 20
74.86816982174284
 10
72.50955095268036
 20
75.20583742037097
 10
72.47496445740617
 20
75.557
  0
TEXT
  5
3F
330
17
100
AcDbEntity
  8
NOTES
100
AcDbText
 10
75.27496445740618
 20
78.357
 30
0.0
 40
1.2
  1
C4
 11
75.27496445740618
 21
78.357
 31
0.0
100
AcDbText
  0
LWPOLYLINE
  5
40
330
17
100
AcDbEntity
  8
OPENINGS
100
AcDbPolyline
 90
36
 70
1
 10
93.07496445740617
 20
66.04
 10
93.10955095268037
 20
66.39116257962904
 10
93.21198129888586
 20
66.72883017825717
 10
93.3783191552616
 20
67.04002641943529
 10
93.60217225127039
 20
67.3127922061358
 10
93.87493803797088
 20
67.53664530214459
 10
94.186134279149
 20
67.70298315852033
 10
94.52380187777715
 20
67.80541350472582
 10
94.87496445740618
 20
67.84
 10
100.87496445740618
 20
67.84
 10
101.22612703703521
 20
67.80541350472582
 10
101.56379463566333
 20
67.70298315852033
 10
101.87499087684145
 20
67.53664530214459
 10
102.14775666354195
 20
67.3127922061358
 10
102.37160975955075
 20
67.04002641943529
 10
102.5379476159265
 20
66.72883017825717
 10
102.64037796213199
 20
66.39116257962904
 10
102.67496445740616
 20
66.04
 10
102.67496445740616
 20
65.64
 10
102.64037796213199
 20
65.28883742037097
 10
102.5379476159265
 20
64.95116982174284
 10
102.37160975955075
 20
64.63997358056471
 10
102.14775666354195
 20
64.36720779386421
 10
101.87499087684145
 20
64.14335469785541
 10
101.56379463566333
 20
63.97701684147968
 10
101.22612703703521
 20
63.87458649527419
 10
100.87496445740618
 20
63.84
 10
94.87496445740618
 20
63.84
 10
94.52380187777715
 20
63.87458649527419
 10
94.186134279149
 20
63.97701684147968
 10
93.87493803797088
 20
64.14335469785541
 10
93.60217225127039
 20
64.36720779386421
 10
93.3783191552616
 20
64.63997358056471
 10
93.21198129888586
 20
64.95116982174284
 10
93.10955095268037
 20
65.28883742037097
 10
93.07496445740617
 20
65.64
  0
TEXT
  5
41
330
17
100
AcDbEntity
  8
NOTES
100
AcDbText
 10
95.87496445740618
 20
68.44
 30
0.0
 40
1.2
  1
C2
 11
95.87496445740618
 21
68.44
 31
0.0
100
AcDbText
  0
LWPOLYLINE
  5
42
330
17
100
AcDbEntity
  8
OPENINGS
100
AcDbPolyline
 90
36
 70
1
 10
72.47496445740617
 20
66.04
 10
72.50955095268036
 20
66.39116257962904
 10
72.61198129888585
 20
66.72883017825717
 10
72.77831915526158
 20
67.04002641943529
 10
73.00217225127038
 20
67.3127922061358
 10
73.27493803797088
 20
67.53664530214459
 10
73.58613427914901
 20
67.70298315852033
 10
73.92380187777714
 20
67.80541350472582
 10
74.27496445740617
 20
67.84
 10
80.27496445740618
 20
67.84
 10
80.62612703703522
 20
67.80541350472582
 10
80.96379463566333
 20
67.70298315852033
 10
81.27499087684146
 20
67.53664530214459
 10
81.54775666354196
 20
67.3127922061358
 10
81.77160975955076
 20
67.04002641943529
 10
81.9379476159265
 20
66.72883017825717
 10
82.040377962132
 20
66.39116257962904
 10
82.07496445740617
 20
66.04
 10
82.07496445740617
 20
65.64
 10
82.040377962132
 20
65.28883742037097
 10
81.9379476159265
 20
64.95116982174284
 10
81.77160975955076
 20
64.63997358056471
 10
81.54775666354196
 20
64.36720779386421
 10
81.27499087684146
 20
64.14335469785541
 10
80.96379463566333
 20
63.97701684147968
 10
80.62612703703522
 20
63.87458649527419
 10
80.27496445740618
 20
63.84
 10
74.27496445740617
 20
63.84
 10
73.92380187777714
 20
63.87458649527419
 10
73.58613427914901
 20
63.97701684147968
 10
73.27493803797088
 20
64.14335469785541
 10
73.00217225127038
 20
64.36720779386421
 10
72.77831915526158
 20
64.63997358056471
 10
72.61198129888585
 20
64.95116982174284
 10
72.50955095268036
 20
65.28883742037097
 10
72.47496445740617
 20
65.64
  0
TEXT
  5
43
330
17
100
AcDbEntity
  8
NOTES
100
AcDbText
 10
75.27496445740618
 20
68.44
 30
0.0
 40
1.2
  1
C5
 11
75.27496445740618
 21
68.44
 31
0.0
100
AcDbText
  0
LWPOLYLINE
  5
44
330
17
100
AcDbEntity
  8
OPENINGS
100
AcDbPolyline
 90
36
 70
1
 10
93.07496445740617
 20
56.172000000000004
 10
93.10955095268037
 20
56.52316257962904
 10
93.21198129888586
 20
56.86083017825717
 10
93.3783191552616
 20
57.17202641943529
 10
93.60217225127039
 20
57.44479220613579
 10
93.87493803797088
 20
57.66864530214458
 10
94.186134279149
 20
57.83498315852032
 10
94.52380187777715
 20
57.93741350472582
 10
94.87496445740618
 20
57.972
 10
100.87496445740618
 20
57.972
 10
101.22612703703521
 20
57.93741350472582
 10
101.56379463566333
 20
57.83498315852032
 10
101.87499087684145
 20
57.66864530214458
 10
102.14775666354195
 20
57.44479220613579
 10
102.37160975955075
 20
57.17202641943529
 10
102.5379476159265
 20
56.86083017825717
 10
102.64037796213199
 20
56.52316257962904
 10
102.67496445740616
 20
56.172000000000004
 10
102.67496445740616
 20
55.772
 10
102.64037796213199
 20
55.420837420370965
 10
102.5379476159265
 20
55.083169821742835
 10
102.37160975955075
 20
54.77197358056471
 10
102.14775666354195
 20
54.499207793864215
 10
101.87499087684145
 20
54.27535469785542
 10
101.56379463566333
 20
54.10901684147968
 10
101.22612703703521
 20
54.006586495274185
 10
100.87496445740618
 20
53.972
 10
94.87496445740618
 20
53.972
 10
94.52380187777715
 20
54.006586495274185
 10
94.186134279149
 20
54.10901684147968
 10
93.87493803797088
 20
54.27535469785542
 10
93.60217225127039
 20
54.499207793864215
 10
93.3783191552616
 20
54.77197358056471
 10
93.21198129888586
 20
55.083169821742835
 10
93.10955095268037
 20
55.420837420370965
 10
93.07496445740617
 20
55.772
  0
TEXT
  5
45
330
17
100
AcDbEntity
  8
NOTES
100
AcDbText
 10
95.87496445740618
 20
58.572
 30
0.0
 40
1.2
  1
C3
 11
95.87496445740618
 21
58.572
 31
0.0
100
AcDbText
  0
LWPOLYLINE
  5
46
330
17
100
AcDbEntity
  8
OPENINGS
100
AcDbPolyline
 90
36
 70
1
 10
72.47496445740617
 20
56.172000000000004
 10
72.50955095268036
 20
56.52316257962904
 10
72.61198129888585
 20
56.86083017825717
 10
72.77831915526158
 20
57.17202641943529
 10
73.00217225127038
 20
57.44479220613579
 10
73.27493803797088
 20
57.66864530214458
 10
73.58613427914901
 20
57.83498315852032
 10
73.92380187777714
 20
57.93741350472582
 10
74.27496445740617
 20
57.972
 10
80.27496445740618
 20
57.972
 10
80.62612703703522
 20
57.93741350472582
 10
80.96379463566333
 20
57.83498315852032
 10
81.27499087684146
 20
57.66864530214458
 10
81.54775666354196
 20
57.44479220613579
 10
81.77160975955076
 20
57.17202641943529
 10
81.9379476159265
 20
56.86083017825717
 10
82.040377962132
 20
56.52316257962904
 10
82.07496445740617
 20
56.172000000000004
 10
82.07496445740617
 20
55.772
 10
82.040377962132
 20
55.420837420370965
 10
81.9379476159265
 20
55.083169821742835
 10
81.77160975955076
 20
54.77197358056471
 10
81.54775666354196
 20
54.499207793864215
 10
81.27499087684146
 20
54.27535469785542
 10
80.96379463566333
 20
54.10901684147968
 10
80.62612703703522
 20
54.006586495274185
 10
80.27496445740618
 20
53.972
 10
74.27496445740617
 20
53.972
 10
73.92380187777714
 20
54.006586495274185
 10
73.58613427914901
 20
54.10901684147968
 10
73.27493803797088
 20
54.27535469785542
 10
73.00217225127038
 20
54.499207793864215
 10
72.77831915526158
 20
54.77197358056471
 10
72.61198129888585
 20
55.083169821742835
 10
72.50955095268036
 20
55.420837420370965
 10
72.47496445740617
 20
55.772
  0
TEXT
  5
47
330
17
100
AcDbEntity
  8
NOTES
100
AcDbText
 10
75.27496445740618
 20
58.572
 30
0.0
 40
1.2
  1
C6
 11
75.27496445740618
 21
58.572
 31
0.0
100
AcDbText
  0
LWPOLYLINE
  5
48
330
17
100
AcDbEntity
  8
OPENINGS
100
AcDbPolyline
 90
36
 70
1
 10
90.94996445740617
 20
45.038
 10
90.96149328916424
 20
45.15505419320967
 10
90.9956367378994
 20
45.26761005941905
 10
91.05108269002466
 20
45.37134213981176
 10
91.12570038869424
 20
45.462264068711924
 10
91.21662231759441
 20
45.53688176738152
 10
91.32035439798713
 20
45.59232771950677
 10
91.4329102641965
 20
45.626471168241935
 10
91.54996445740618
 20
45.638
 10
104.34996445740617
 20
45.638
 10
104.46701865061584
 20
45.626471168241935
 10
104.57957451682523
 20
45.59232771950677
 10
104.68330659721794
 20
45.53688176738152
 10
104.7742285261181
 20
45.462264068711924
 10
104.8488462247877
 20
45.37134213981176
 10
104.90429217691295
 20
45.26761005941905
 10
104.93843562564811
 20
45.15505419320967
 10
104.94996445740617
 20
45.038
 10
104.94996445740617
 20
40.238
 10
104.93843562564811
 20
40.120945806790324
 10
104.90429217691295
 20
40.00838994058095
 10
104.8488462247877
 20
39.90465786018824
 10
104.7742285261181
 20
39.81373593128807
 10
104.68330659721794
 20
39.73911823261847
 10
104.57957451682523
 20
39.68367228049323
 10
104.46701865061584
 20
39.64952883175806
 10
104.34996445740617
 20
39.638
 10
91.54996445740618
 20
39.638
 10
91.4329102641965
 20
39.64952883175806
 10
91.32035439798713
 20
39.68367228049323
 10
91.21662231759441
 20
39.73911823261847
 10
91.12570038869424
 20
39.81373593128807
 10
91.05108269002466
 20
39.90465786018824
 10
90.9956367378994
 20
40.00838994058095
 10
90.96149328916424
 20
40.120945806790324
 10
90.94996445740617
 20
40.238
  0
TEXT
  5
49
330
17
100
AcDbEntity
  8
NOTES
100
AcDbText
 10
95.94996445740617
 20
46.238
 30
0.0
 40
1.2
  1
A1
 11
95.94996445740617
 21
46.238
 31
0.0
100
AcDbText
  0
LWPOLYLINE
  5
4A
330
17
100
AcDbEntity
  8
OPENINGS
100
AcDbPolyline
 90
36
 70
1
 10
90.94996445740617
 20
34.934999999999995
 10
90.96149328916424
 20
35.05205419320967
 10
90.9956367378994
 20
35.16461005941905
 10
91.05108269002466
 20
35.26834213981176
 10
91.12570038869424
 20
35.35926406871192
 10
91.21662231759441
 20
35.43388176738152
 10
91.32035439798713
 20
35.48932771950677
 10
91.4329102641965
 20
35.52347116824193
 10
91.54996445740618
 20
35.535
 10
104.34996445740617
 20
35.535
 10
104.46701865061584
 20
35.52347116824193
 10
104.57957451682523
 20
35.48932771950677
 10
104.68330659721794
 20
35.43388176738152
 10
104.7742285261181
 20
35.35926406871192
 10
104.8488462247877
 20
35.26834213981176
 10
104.90429217691295
 20
35.16461005941905
 10
104.93843562564811
 20
35.05205419320967
 10
104.94996445740617
 20
34.934999999999995
 10
104.94996445740617
 20
30.134999999999998
 10
104.93843562564811
 20
30.017945806790323
 10
104.90429217691295
 20
29.905389940580942
 10
104.8488462247877
 20
29.801657860188236
 10
104.7742285261181
 20
29.71073593128807
 10
104.68330659721794
 20
29.636118232618472
 10
104.57957451682523
 20
29.580672280493225
 10
104.46701865061584
 20
29.54652883175806
 10
104.34996445740617
 20
29.534999999999997
 10
91.54996445740618
 20
29.534999999999997
 10
91.4329102641965
 20
29.54652883175806
 10
91.32035439798713
 20
29.580672280493225
 10
91.21662231759441
 20
29.636118232618472
 10
91.12570038869424
 20
29.71073593128807
 10
91.05108269002466
 20
29.801657860188236
 10
90.9956367378994
 20
29.905389940580946
 10
90.96149328916424
 20
30.01794580679032
 10
90.94996445740617
 20
30.134999999999998
  0
TEXT
  5
4B
330
17
100
AcDbEntity
  8
NOTES
100
AcDbText
 10
95.94996445740617
 20
36.135
 30
0.0
 40
1.2
  1
A2
 11
95.94996445740617
 21
36.135
 31
0.0
100
AcDbText
  0
LWPOLYLINE
  5
4C
330
17
100
AcDbEntity
  8
OPENINGS
100
AcDbPolyline
 90
36
 70
1
 10
70.30796445740617
 20
45.038
 10
70.31949328916423
 20
45.15505419320967
 10
70.3536367378994
 20
45.26761005941905
 10
70.40908269002463
 20
45.37134213981176
 10
70.48370038869423
 20
45.462264068711924
 10
70.5746223175944
 20
45.53688176738152
 10
70.6783543979871
 20
45.59232771950677
 10
70.79091026419648
 20
45.626471168241935
 10
70.90796445740617
 20
45.638
 10
83.70796445740618
 20
45.638
 10
83.82501865061585
 20
45.626471168241935
 10
83.93757451682522
 20
45.59232771950677
 10
84.04130659721793
 20
45.53688176738152
 10
84.1322285261181
 20
45.462264068711924
 10
84.2068462247877
 20
45.37134213981176
 10
84.26229217691295
 20
45.26761005941905
 10
84.29643562564812
 20
45.15505419320967
 10
84.30796445740617
 20
45.038
 10
84.30796445740617
 20
40.238
 10
84.29643562564812
 20
40.120945806790324
 10
84.26229217691295
 20
40.00838994058095
 10
84.2068462247877
 20
39.90465786018824
 10
84.1322285261181
 20
39.81373593128807
 10
84.04130659721793
 20
39.73911823261847
 10
83.93757451682522
 20
39.68367228049323
 10
83.82501865061585
 20
39.64952883175806
 10
83.70796445740618
 20
39.638
 10
70.90796445740617
 20
39.638
 10
70.79091026419648
 20
39.64952883175806
 10
70.6783543979871
 20
39.68367228049323
 10
70.5746223175944
 20
39.73911823261847
 10
70.48370038869423
 20
39.81373593128807
 10
70.40908269002463
 20
39.90465786018824
 10
70.3536367378994
 20
40.00838994058095
 10
70.31949328916423
 20
40.120945806790324
 10
70.30796445740617
 20
40.238
  0
TEXT
  5
4D
330
17
100
AcDbEntity
  8
NOTES
100
AcDbText
 10
75.30796445740617
 20
46.238
 30
0.0
 40
1.2
  1
A3
 11
75.30796445740617
 21
46.238
 31
0.0
100
AcDbText
  0
LWPOLYLINE
  5
4E
330
17
100
AcDbEntity
  8
OPENINGS
100
AcDbPolyline
 90
36
 70
1
 10
70.30796445740617
 20
34.934999999999995
 10
70.31949328916423
 20
35.05205419320967
 10
70.3536367378994
 20
35.16461005941905
 10
70.40908269002463
 20
35.26834213981176
 10
70.48370038869423
 20
35.35926406871192
 10
70.5746223175944
 20
35.43388176738152
 10
70.6783543979871
 20
35.48932771950677
 10
70.79091026419648
 20
35.52347116824193
 10
70.90796445740617
 20
35.535
 10
83.70796445740618
 20
35.535
 10
83.82501865061585
 20
35.52347116824193
 10
83.93757451682522
 20
35.48932771950677
 10
84.04130659721793
 20
35.43388176738152
 10
84.1322285261181
 20
35.35926406871192
 10
84.2068462247877
 20
35.26834213981176
 10
84.26229217691295
 20
35.16461005941905
 10
84.29643562564812
 20
35.05205419320967
 10
84.30796445740617
 20
34.934999999999995
 10
84.30796445740617
 20
30.134999999999998
 10
84.29643562564812
 20
30.017945806790323
 10
84.26229217691295
 20
29.905389940580942
 10
84.2068462247877
 20
29.801657860188236
 10
84.1322285261181
 20
29.71073593128807
 10
84.04130659721793
 20
29.636118232618472
 10
83.93757451682522
 20
29.580672280493225
 10
83.82501865061585
 20
29.54652883175806
 10
83.70796445740618
 20
29.534999999999997
 10
70.90796445740617
 20
29.534999999999997
 10
70.79091026419648
 20
29.54652883175806
 10
70.6783543979871
 20
29.580672280493225
 10
70.5746223175944
 20
29.636118232618472
 10
70.48370038869423
 20
29.71073593128807
 10
70.40908269002463
 20
29.801657860188236
 10
70.3536367378994
 20
29.905389940580946
 10
70.31949328916423
 20
30.01794580679032
 10
70.30796445740617
 20
30.134999999999998
  0
TEXT
  5
4F
330
17
100
AcDbEntity
  8
NOTES
100
AcDbText
 10
75.30796445740617
 20
36.135
 30
0.0
 40
1.2
  1
A4
 11
75.30796445740617
 21
36.135
 31
0.0
100
AcDbText
  0
LWPOLYLINE
  5
50
330
17
100
AcDbEntity
  8
OPENINGS
100
AcDbPolyline
 90
36
 70
1
 10
70.84096445740617
 20
96.107
 10
70.85057181720455
 20
96.20454516100807
 10
70.87902469115053
 20
96.29834171618255
 10
70.9252296512549
 20
96.3847851165098
 10
70.9874110668129
 20
96.46055339059328
 10
71.06317934089637
 20
96.52273480615128
 10
71.14962274122362
 20
96.56893976625564
 10
71.2434192963981
 20
96.59739264020162
 10
71.34096445740617
 20
96.607
 10
83.34096445740617
 20
96.607
 10
83.43850961841423
 20
96.59739264020162
 10
83.53230617358872
 20
96.56893976625564
 10
83.61874957391598
 20
96.52273480615128
 10
83.69451784799945
 20
96.46055339059328
 10
83.75669926355744
 20
96.3847851165098
 10
83.80290422366181
 20
96.29834171618255
 10
83.83135709760779
 20
96.20454516100807
 10
83.84096445740617
 20
96.107
 10
83.84096445740617
 20
86.707
 10
83.83135709760779
 20
86.60945483899192
 10
83.80290422366181
 20
86.51565828381744
 10
83.75669926355744
 20
86.42921488349019
 10
83.69451784799945
 20
86.35344660940672
 10
83.61874957391598
 20
86.29126519384872
 10
83.53230617358872
 20
86.24506023374435
 10
83.43850961841423
 20
86.21660735979837
 10
83.34096445740617
 20
86.207
 10
71.34096445740617
 20
86.207
 10
71.2434192963981
 20
86.21660735979837
 10
71.14962274122362
 20
86.24506023374435
 10
71.06317934089637
 20
86.29126519384872
 10
70.9874110668129
 20
86.35344660940672
 10
70.9252296512549
 20
86.42921488349019
 10
70.87902469115053
 20
86.51565828381744
 10
70.85057181720455
 20
86.60945483899192
 10
70.84096445740617
 20
86.707
  0
TEXT
  5
51
330
17
100
AcDbEntity
  8
NOTES
100
AcDbText
 10
75.34096445740617
 20
97.207
 30
0.0
 40
1.2
  1
ETH1
 11
75.34096445740617
 21
97.207
 31
0.0
100
AcDbText
  0
LWPOLYLINE
  5
52
330
17
100
AcDbEntity
  8
OPENINGS
100
AcDbPolyline
 90
36
 70
1
 10
91.35996445740616
 20
96.445
 10
91.36957181720456
 20
96.54254516100806
 10
91.39802469115052
 20
96.63634171618254
 10
91.4442296512549
 20
96.7227851165098
 10
91.50641106681289
 20
96.79855339059327
 10
91.58217934089637
 20
96.86073480615127
 10
91.66862274122363
 20
96.90693976625563
 10
91.76241929639811
 20
96.93539264020161
 10
91.85996445740616
 20
96.945
 10
103.85996445740616
 20
96.945
 10
103.95750961841424
 20
96.93539264020161
 10
104.05130617358871
 20
96.90693976625563
 10
104.13774957391598
 20
96.86073480615127
 10
104.21351784799944
 20
96.79855339059327
 10
104.27569926355744
 20
96.7227851165098
 10
104.32190422366182
 20
96.63634171618254
 10
104.35035709760778
 20
96.54254516100806
 10
104.35996445740616
 20
96.445
 10
104.35996445740616
 20
86.745
 10
104.35035709760778
 20
86.64745483899193
 10
104.32190422366182
 20
86.55365828381746
 10
104.27569926355744
 20
86.4672148834902
 10
104.21351784799944
 20
86.39144660940673
 10
104.13774957391598
 20
86.32926519384873
 10
104.05130617358871
 20
86.28306023374437
 10
103.95750961841424
 20
86.25460735979838
 10
103.85996445740616
 20
86.245
 10
91.85996445740616
 20
86.245
 10
91.76241929639811
 20
86.25460735979838
 10
91.66862274122363
 20
86.28306023374437
 10
91.58217934089637
 20
86.32926519384873
 10
91.50641106681289
 20
86.39144660940673
 10
91.4442296512549
 20
86.4672148834902
 10
91.39802469115052
 20
86.55365828381746
 10
91.36957181720456
 20
86.64745483899193
 10
91.35996445740616
 20
86.745
  0
TEXT
  5
53
330
17
100
AcDbEntity
  8
NOTES
100
AcDbText
 10
95.85996445740616
 20
97.54499999999999
 30
0.0
 40
1.2
  1
ETH2
 11
95.85996445740616
 21
97.54499999999999
 31
0.0
100
AcDbText
  0
LWPOLYLINE
  5
54
330
17
100
AcDbEntity
  8
OPENINGS
100
AcDbPolyline
 90
36
 70
1
 10
69.34696445740617
 20
108.919
 10
69.36617917700295
 20
109.11409032201612
 10
69.42308492489488
 20
109.30168343236508
 10
69.51549484510363
 20
109.4745702330196
 10
69.63985767621962
 20
109.62610678118655
 10
69.79139422438656
 20
109.75046961230254
 10
69.96428102504109
 20
109.84287953251129
 10
70.15187413539005
 20
109.89978528040322
 10
70.34696445740617
 20
109.919
 10
83.94696445740618
 20
109.919
 10
84.1420547794223
 20
109.89978528040322
 10
84.32964788977127
 20
109.84287953251129
 10
84.50253469042578
 20
109.75046961230254
 10
84.65407123859272
 20
109.62610678118655
 10
84.77843406970872
 20
109.4745702330196
 10
84.87084398991746
 20
109.30168343236508
 10
84.9277497378094
 20
109.11409032201612
 10
84.94696445740618
 20
108.919
 10
84.94696445740618
 20
105.21900000000001
 10
84.9277497378094
 20
105.02390967798388
 10
84.87084398991746
 20
104.83631656763492
 10
84.77843406970872
 20
104.6634297669804
 10
84.65407123859272
 20
104.51189321881346
 10
84.50253469042578
 20
104.38753038769747
 10
84.32964788977127
 20
104.29512046748872
 10
84.1420547794223
 20
104.23821471959678
 10
83.94696445740618
 20
104.21900000000001
 10
70.34696445740617
 20
104.21900000000001
 10
70.15187413539005
 20
104.23821471959678
 10
69.96428102504109
 20
104.29512046748872
 10
69.79139422438656
 20
104.38753038769747
 10
69.63985767621962
 20
104.51189321881346
 10
69.51549484510363
 20
104.6634297669804
 10
69.42308492489488
 20
104.83631656763492
 10
69.36617917700295
 20
105.02390967798388
 10
69.34696445740617
 20
105.21900000000001
  0
TEXT
  5
55
330
17
100
AcDbEntity
  8
NOTES
100
AcDbText
 10
75.14696445740617
 20
110.51899999999999
 30
0.0
 40
1.2
  1
HDMI
 11
75.14696445740617
 21
110.51899999999999
 31
0.0
100
AcDbText
  0
LWPOLYLINE
  5
56
330
17
100
AcDbEntity
  8
OPENINGS
100
AcDbPolyline
 90
36
 70
1
 10
70.42996445740619
 20
139.475
 10
70.4876086161965
 20
140.0602709660484
 10
70.65832585987232
 20
140.62305029709526
 10
70.93555562049855
 20
141.1417106990588
 10
71.30864411384654
 20
141.59632034355963
 10
71.76325375834737
 20
141.96940883690763
 10
72.28191416031092
 20
142.24663859753386
 10
72.8446934913578
 20
142.41735584120968
 10
73.42996445740619
 20
142.475
 10
101.97996445740617
 20
142.475
 10
102.56523542345457
 20
142.41735584120968
 10
103.12801475450144
 20
142.24663859753386
 10
103.64667515646498
 20
141.96940883690763
 10
104.10128480096583
 20
141.59632034355963
 10
104.4743732943138
 20
141.1417106990588
 10
104.75160305494003
 20
140.62305029709526
 10
104.92232029861586
 20
140.0602709660484
 10
104.97996445740617
 20
139.475
 10
104.97996445740617
 20
120.825
 10
104.92232029861586
 20
120.23972903395162
 10
104.75160305494003
 20
119.67694970290474
 10
104.4743732943138
 20
119.15828930094119
 10
104.10128480096583
 20
118.70367965644036
 10
103.64667515646498
 20
118.33059116309236
 10
103.12801475450144
 20
118.05336140246614
 10
102.56523542345457
 20
117.88264415879031
 10
101.97996445740617
 20
117.825
 10
73.42996445740619
 20
117.825
 10
72.8446934913578
 20
117.88264415879031
 10
72.28191416031092
 20
118.05336140246614
 10
71.76325375834737
 20
118.33059116309236
 10
71.30864411384654
 20
118.70367965644036
 10
70.93555562049855
 20
119.15828930094119
 10
70.65832585987232
 20
119.67694970290474
 10
70.4876086161965
 20
120.23972903395162
 10
70.42996445740619
 20
120.825
  0
TEXT
  5
57
330
17
100
AcDbEntity
  8
NOTES
100
AcDbText
 10
85.70496445740618
 20
143.075
 30
0.0
 40
1.2
  1
AC
 11
85.70496445740618
 21
143.075
 31
0.0
100
AcDbText
  0
CIRCLE
  5
58
330
17
100
AcDbEntity
  8
OPENINGS
100
AcDbCircle
 10
98.83496445740617
 20
19.42
 30
0.0
 40
2.65
  0
CIRCLE
  5
59
330
17
100
AcDbEntity
  8
OPENINGS
100
AcDbCircle
 10
77.59496445740618
 20
19.1
 30
0.0
 40
2.65
  0
CIRCLE
  5
5A
330
17
100
AcDbEntity
  8
OPENINGS
100
AcDbCircle
 10
97.98196445740618
 20
108.111
 30
0.0
 40
6.2
  0
LWPOLYLINE
  5
5B
330
17
100
AcDbEntity
  8
LIGHT_WINDOWS
100
AcDbPolyline
 90
36
 70
1
 10
74.09496445740618
 20
113.294
 10
74.10649328916423
 20
113.41105419320968
 10
74.1406367378994
 20
113.52361005941906
 10
74.19608269002464
 20
113.62734213981176
 10
74.27070038869424
 20
113.71826406871193
 10
74.36162231759441
 20
113.79288176738153
 10
74.46535439798711
 20
113.84832771950677
 10
74.57791026419649
 20
113.88247116824193
 10
74.69496445740617
 20
113.89399999999999
 10
80.49496445740618
 20
113.89399999999999
 10
80.61201865061585
 20
113.88247116824193
 10
80.72457451682523
 20
113.84832771950677
 10
80.82830659721793
 20
113.79288176738153
 10
80.9192285261181
 20
113.71826406871193
 10
80.9938462247877
 20
113.62734213981176
 10
81.04929217691296
 20
113.52361005941906
 10
81.08343562564812
 20
113.41105419320968
 10
81.09496445740618
 20
113.294
 10
81.09496445740618
 20
112.89399999999999
 10
81.08343562564812
 20
112.77694580679031
 10
81.04929217691296
 20
112.66438994058093
 10
80.9938462247877
 20
112.56065786018823
 10
80.9192285261181
 20
112.46973593128806
 10
80.82830659721793
 20
112.39511823261846
 10
80.72457451682523
 20
112.33967228049322
 10
80.61201865061585
 20
112.30552883175805
 10
80.49496445740618
 20
112.294
 10
74.69496445740617
 20
112.294
 10
74.57791026419649
 20
112.30552883175805
 10
74.46535439798711
 20
112.33967228049322
 10
74.36162231759441
 20
112.39511823261846
 10
74.27070038869424
 20
112.46973593128806
 10
74.19608269002464
 20
112.56065786018823
 10
74.1406367378994
 20
112.66438994058093
 10
74.10649328916423
 20
112.77694580679031
 10
74.09496445740618
 20
112.89399999999999
  0
LWPOLYLINE
  5
5C
330
17
100
AcDbEntity
  8
LIGHT_WINDOWS
100
AcDbPolyline
 90
36
 70
1
 10
86.09896445740617
 20
93.767
 10
86.11817917700294
 20
93.96209032201612
 10
86.17508492489489
 20
94.14968343236508
 10
86.26749484510363
 20
94.3225702330196
 10
86.39185767621963
 20
94.47410678118655
 10
86.54339422438657
 20
94.59846961230254
 10
86.71628102504108
 20
94.69087953251129
 10
86.90387413539005
 20
94.74778528040322
 10
87.09896445740617
 20
94.767
 10
88.09896445740617
 20
94.767
 10
88.29405477942231
 20
94.74778528040322
 10
88.48164788977127
 20
94.69087953251129
 10
88.65453469042578
 20
94.59846961230254
 10
88.80607123859272
 20
94.47410678118655
 10
88.93043406970872
 20
94.3225702330196
 10
89.02284398991746
 20
94.14968343236508
 10
89.07974973780941
 20
93.96209032201612
 10
89.09896445740617
 20
93.767
 10
89.09896445740617
 20
90.767
 10
89.07974973780941
 20
90.57190967798387
 10
89.02284398991746
 20
90.38431656763491
 10
88.93043406970872
 20
90.21142976698039
 10
88.80607123859272
 20
90.05989321881344
 10
88.65453469042578
 20
89.93553038769745
 10
88.48164788977127
 20
89.8431204674887
 10
88.29405477942231
 20
89.78621471959677
 10
88.09896445740617
 20
89.767
 10
87.09896445740617
 20
89.767
 10
86.90387413539005
 20
89.78621471959677
 10
86.71628102504108
 20
89.8431204674887
 10
86.54339422438657
 20
89.93553038769745
 10
86.39185767621963
 20
90.05989321881344
 10
86.26749484510363
 20
90.21142976698039
 10
86.17508492489489
 20
90.38431656763491
 10
86.11817917700294
 20
90.57190967798387
 10
86.09896445740617
 20
90.767
  0
LWPOLYLINE
  5
5D
330
17
100
AcDbEntity
  8
LIGHT_WINDOWS
100
AcDbPolyline
 90
36
 70
1
 10
86.04396445740618
 20
67.441
 10
86.06317917700295
 20
67.63609032201613
 10
86.12008492489488
 20
67.82368343236509
 10
86.21249484510363
 20
67.99657023301961
 10
86.33685767621964
 20
68.14810678118656
 10
86.48839422438658
 20
68.27246961230254
 10
86.66128102504109
 20
68.3648795325113
 10
86.84887413539005
 20
68.42178528040323
 10
87.04396445740618
 20
68.441
 10
88.04396445740618
 20
68.441
 10
88.2390547794223
 20
68.42178528040323
 10
88.42664788977126
 20
68.3648795325113
 10
88.59953469042577
 20
68.27246961230254
 10
88.75107123859271
 20
68.14810678118656
 10
88.87543406970872
 20
67.99657023301961
 10
88.96784398991747
 20
67.82368343236509
 10
89.0247497378094
 20
67.63609032201613
 10
89.04396445740618
 20
67.441
 10
89.04396445740618
 20
64.441
 10
89.0247497378094
 20
64.24590967798387
 10
88.96784398991747
 20
64.05831656763492
 10
88.87543406970872
 20
63.8854297669804
 10
88.75107123859271
 20
63.733893218813456
 10
88.59953469042577
 20
63.609530387697454
 10
88.42664788977126
 20
63.517120467488716
 10
88.2390547794223
 20
63.46021471959677
 10
88.04396445740618
 20
63.441
 10
87.04396445740618
 20
63.441
 10
86.84887413539005
 20
63.46021471959677
 10
86.66128102504109
 20
63.517120467488716
 10
86.48839422438658
 20
63.609530387697454
 10
86.33685767621964
 20
63.733893218813456
 10
86.21249484510363
 20
63.8854297669804
 10
86.12008492489488
 20
64.05831656763492
 10
86.06317917700295
 20
64.24590967798387
 10
86.04396445740618
 20
64.441
  0
LWPOLYLINE
  5
5E
330
17
100
AcDbEntity
  8
LIGHT_WINDOWS
100
AcDbPolyline
 90
36
 70
1
 10
86.14996445740618
 20
39.92
 10
86.16917917700295
 20
40.11509032201613
 10
86.22608492489489
 20
40.30268343236509
 10
86.31849484510363
 20
40.4755702330196
 10
86.44285767621963
 20
40.62710678118655
 10
86.59439422438658
 20
40.75146961230255
 10
86.76728102504109
 20
40.84387953251129
 10
86.95487413539004
 20
40.900785280403234
 10
87.14996445740618
 20
40.92
 10
88.14996445740618
 20
40.92
 10
88.3450547794223
 20
40.900785280403234
 10
88.53264788977127
 20
40.84387953251129
 10
88.70553469042578
 20
40.75146961230255
 10
88.85707123859272
 20
40.62710678118655
 10
88.98143406970873
 20
40.4755702330196
 10
89.07384398991746
 20
40.30268343236509
 10
89.13074973780941
 20
40.11509032201613
 10
89.14996445740618
 20
39.92
 10
89.14996445740618
 20
35.92
 10
89.13074973780941
 20
35.724909677983874
 10
89.07384398991746
 20
35.53731656763491
 10
88.98143406970873
 20
35.3644297669804
 10
88.85707123859272
 20
35.212893218813456
 10
88.70553469042578
 20
35.08853038769745
 10
88.53264788977127
 20
34.996120467488716
 10
88.3450547794223
 20
34.93921471959677
 10
88.14996445740618
 20
34.92
 10
87.14996445740618
 20
34.92
 10
86.95487413539004
 20
34.93921471959677
 10
86.76728102504109
 20
34.996120467488716
 10
86.59439422438658
 20
35.08853038769745
 10
86.44285767621963
 20
35.212893218813456
 10
86.31849484510363
 20
35.3644297669804
 10
86.22608492489489
 20
35.53731656763491
 10
86.16917917700295
 20
35.724909677983874
 10
86.14996445740618
 20
35.92
  0
LWPOLYLINE
  5
5F
330
17
100
AcDbEntity
  8
LIGHT_WINDOWS
100
AcDbPolyline
 90
36
 70
1
 10
95.80196445740617
 20
12.800999999999998
 10
95.81733623308358
 20
12.957072257612902
 10
95.86286083139714
 20
13.10714674589207
 10
95.93678876756414
 20
13.24545618641568
 10
96.03627903245693
 20
13.366685424949237
 10
96.15750827099049
 20
13.466175689842034
 10
96.2958177115141
 20
13.540103626009028
 10
96.44589219979326
 20
13.585628224322583
 10
96.60196445740617
 20
13.600999999999999
 10
99.00196445740617
 20
13.600999999999999
 10
99.15803671501908
 20
13.585628224322583
 10
99.30811120329824
 20
13.540103626009028
 10
99.44642064382185
 20
13.466175689842034
 10
99.56764988235541
 20
13.366685424949237
 10
99.6671401472482
 20
13.24545618641568
 10
99.7410680834152
 20
13.10714674589207
 10
99.78659268172876
 20
12.9570722576129
 10
99.80196445740617
 20
12.800999999999998
 10
99.80196445740617
 20
12.001000000000001
 10
99.78659268172876
 20
11.844927742387098
 10
99.7410680834152
 20
11.69485325410793
 10
99.6671401472482
 20
11.55654381358432
 10
99.56764988235541
 20
11.435314575050763
 10
99.44642064382185
 20
11.335824310157966
 10
99.30811120329824
 20
11.261896373990972
 10
99.15803671501908
 20
11.216371775677416
 10
99.00196445740617
 20
11.201
 10
96.60196445740617
 20
11.201
 10
96.44589219979326
 20
11.216371775677416
 10
96.2958177115141
 20
11.261896373990972
 10
96.15750827099049
 20
11.335824310157964
 10
96.03627903245693
 20
11.435314575050763
 10
95.93678876756414
 20
11.55654381358432
 10
95.86286083139714
 20
11.69485325410793
 10
95.81733623308358
 20
11.844927742387098
 10
95.80196445740617
 20
12.001000000000001
  0
LWPOLYLINE
  5
60
330
17
100
AcDbEntity
  8
LIGHT_WINDOWS
100
AcDbPolyline
 90
36
 70
1
 10
75.57696445740618
 20
12.800999999999998
 10
75.59233623308359
 20
12.957072257612902
 10
75.63786083139715
 20
13.10714674589207
 10
75.71178876756414
 20
13.24545618641568
 10
75.81127903245694
 20
13.366685424949237
 10
75.9325082709905
 20
13.466175689842034
 10
76.0708177115141
 20
13.540103626009028
 10
76.22089219979327
 20
13.585628224322583
 10
76.37696445740617
 20
13.600999999999999
 10
78.77696445740618
 20
13.600999999999999
 10
78.93303671501909
 20
13.585628224322583
 10
79.08311120329824
 20
13.540103626009028
 10
79.22142064382186
 20
13.466175689842034
 10
79.34264988235542
 20
13.366685424949237
 10
79.44214014724821
 20
13.24545618641568
 10
79.5160680834152
 20
13.10714674589207
 10
79.56159268172877
 20
12.9570722576129
 10
79.57696445740618
 20
12.800999999999998
 10
79.57696445740618
 20
12.001000000000001
 10
79.56159268172877
 20
11.844927742387098
 10
79.5160680834152
 20
11.69485325410793
 10
79.44214014724821
 20
11.55654381358432
 10
79.34264988235542
 20
11.435314575050763
 10
79.22142064382186
 20
11.335824310157966
 10
79.08311120329824
 20
11.261896373990972
 10
78.93303671501909
 20
11.216371775677416
 10
78.77696445740618
 20
11.201
 10
76.37696445740617
 20
11.201
 10
76.22089219979327
 20
11.216371775677416
 10
76.0708177115141
 20
11.261896373990972
 10
75.9325082709905
 20
11.335824310157964
 10
75.81127903245694
 20
11.435314575050763
 10
75.71178876756414
 20
11.55654381358432
 10
75.63786083139715
 20
11.69485325410793
 10
75.59233623308359
 20
11.844927742387098
 10
75.57696445740618
 20
12.001000000000001
  0
CIRCLE
  5
61
330
17
100
AcDbEntity
  8
PINS
100
AcDbCircle
 10
87.11896445740618
 20
75.41
 30
0.0
 40
1.2
  0
CIRCLE
  5
62
330
17
100
AcDbEntity
  8
PINS
100
AcDbCircle
 10
88.67896445740618
 20
19.23
 30
0.0
 40
1.2
  0
CIRCLE
  5
63
330
17
100
AcDbEntity
  8
PINS
100
AcDbCircle
 10
91.35196445740618
 20
113.531
 30
0.0
 40
0.7
  0
CIRCLE
  5
64
330
17
100
AcDbEntity
  8
PINS
100
AcDbCircle
 10
104.77196445740617
 20
103.031
 30
0.0
 40
0.7
  0
CIRCLE
  5
65
330
17
100
AcDbEntity
  8
SCREWS
100
AcDbCircle
 10
110.36496445740617
 20
148.95
 30
0.0
 40
1.625
  0
CIRCLE
  5
66
330
17
100
AcDbEntity
  8
SCREWS
100
AcDbCircle
 10
110.36496445740617
 20
148.95
 30
0.0
 40
0.9
  0
CIRCLE
  5
67
330
17
100
AcDbEntity
  8
SCREW_BOSSES
100
AcDbCircle
 10
110.36496445740617
 20
148.95
 30
0.0
 40
1.4
  0
TEXT
  5
68
330
17
100
AcDbEntity
  8
NOTES
100
AcDbText
 10
107.36496445740617
 20
151.14999999999998
 30
0.0
 40
0.8
  1
SCR_T- M1.6 csk 90 Ø3.25 / Ø1.80 thru
 11
107.36496445740617
 21
151.14999999999998
 31
0.0
100
AcDbText
  0
CIRCLE
  5
69
330
17
100
AcDbEntity
  8
SCREWS
100
AcDbCircle
 10
65.26496445740618
 20
148.95
 30
0.0
 40
1.625
  0
CIRCLE
  5
6A
330
17
100
AcDbEntity
  8
SCREWS
100
AcDbCircle
 10
65.26496445740618
 20
148.95
 30
0.0
 40
0.9
  0
CIRCLE
  5
6B
330
17
100
AcDbEntity
  8
SCREW_BOSSES
100
AcDbCircle
 10
65.26496445740618
 20
148.95
 30
0.0
 40
1.4
  0
TEXT
  5
6C
330
17
100
AcDbEntity
  8
NOTES
100
AcDbText
 10
62.26496445740618
 20
151.14999999999998
 30
0.0
 40
0.8
  1
SCR_T+ M1.6 csk 90 Ø3.25 / Ø1.80 thru
 11
62.26496445740618
 21
151.14999999999998
 31
0.0
100
AcDbText
  0
CIRCLE
  5
6D
330
17
100
AcDbEntity
  8
SCREWS
100
AcDbCircle
 10
110.36496445740617
 20
13.7
 30
0.0
 40
1.625
  0
CIRCLE
  5
6E
330
17
100
AcDbEntity
  8
SCREWS
100
AcDbCircle
 10
110.36496445740617
 20
13.7
 30
0.0
 40
0.9
  0
CIRCLE
  5
6F
330
17
100
AcDbEntity
  8
SCREW_BOSSES
100
AcDbCircle
 10
110.36496445740617
 20
13.7
 30
0.0
 40
1.4
  0
TEXT
  5
70
330
17
100
AcDbEntity
  8
NOTES
100
AcDbText
 10
107.36496445740617
 20
15.899999999999999
 30
0.0
 40
0.8
  1
SCR_B- M1.6 csk 90 Ø3.25 / Ø1.80 thru
 11
107.36496445740617
 21
15.899999999999999
 31
0.0
100
AcDbText
  0
CIRCLE
  5
71
330
17
100
AcDbEntity
  8
SCREWS
100
AcDbCircle
 10
65.26496445740618
 20
13.7
 30
0.0
 40
1.625
  0
CIRCLE
  5
72
330
17
100
AcDbEntity
  8
SCREWS
100
AcDbCircle
 10
65.26496445740618
 20
13.7
 30
0.0
 40
0.9
  0
CIRCLE
  5
73
330
17
100
AcDbEntity
  8
SCREW_BOSSES
100
AcDbCircle
 10
65.26496445740618
 20
13.7
 30
0.0
 40
1.4
  0
TEXT
  5
74
330
17
100
AcDbEntity
  8
NOTES
100
AcDbText
 10
62.26496445740618
 20
15.899999999999999
 30
0.0
 40
0.8
  1
SCR_B+ M1.6 csk 90 Ø3.25 / Ø1.80 thru
 11
62.26496445740618
 21
15.899999999999999
 31
0.0
100
AcDbText
  0
CIRCLE
  5
75
330
17
100
AcDbEntity
  8
SCREWS
100
AcDbCircle
 10
87.24130039391757
 20
75.46949133564218
 30
0.0
 40
1.625
  0
CIRCLE
  5
76
330
17
100
AcDbEntity
  8
SCREWS
100
AcDbCircle
 10
87.24130039391757
 20
75.46949133564218
 30
0.0
 40
0.9
  0
CIRCLE
  5
77
330
17
100
AcDbEntity
  8
SCREW_BOSSES
100
AcDbCircle
 10
87.24130039391757
 20
75.46949133564218
 30
0.0
 40
1.3
  0
TEXT
  5
78
330
17
100
AcDbEntity
  8
NOTES
100
AcDbText
 10
84.24130039391757
 20
77.66949133564218
 30
0.0
 40
0.8
  1
SCR_C1 M1.6 csk 90 Ø3.25 / Ø1.80 thru
 11
84.24130039391757
 21
77.66949133564218
 31
0.0
100
AcDbText
  0
CIRCLE
  5
79
330
17
100
AcDbEntity
  8
BUTTON_INNER_FEATURES
100
AcDbCircle
 10
97.98196445740618
 20
108.111
 30
0.0
 40
7.5
  0
CIRCLE
  5
7A
330
17
100
AcDbEntity
  8
BUTTON_INNER_FEATURES
100
AcDbCircle
 10
97.98196445740618
 20
108.111
 30
0.0
 40
6.2
  0
LWPOLYLINE
  5
7B
330
17
100
AcDbEntity
  8
BUTTON_INNER_FEATURES
100
AcDbPolyline
 90
4
 70
1
 10
102.50865166664651
 20
113.60637104386046
 10
104.65357610737965
 20
115.40617635098276
 10
106.32482389256467
 20
113.4144607988734
 10
104.17989945183152
 20
111.61465549175111
  0
CIRCLE
  5
7C
330
17
100
AcDbEntity
  8
BUTTON_INNER_FEATURES
100
AcDbCircle
 10
91.35196445740618
 20
113.531
 30
0.0
 40
1.5
  0
CIRCLE
  5
7D
330
17
100
AcDbEntity
  8
BUTTON_INNER_FEATURES
100
AcDbCircle
 10
91.35196445740618
 20
113.531
 30
0.0
 40
0.55
  0
CIRCLE
  5
7E
330
17
100
AcDbEntity
  8
BUTTON_INNER_FEATURES
100
AcDbCircle
 10
104.77196445740617
 20
103.031
 30
0.0
 40
1.5
  0
CIRCLE
  5
7F
330
17
100
AcDbEntity
  8
BUTTON_INNER_FEATURES
100
AcDbCircle
 10
104.77196445740617
 20
103.031
 30
0.0
 40
0.55
  0
LWPOLYLINE
  5
80
330
17
100
AcDbEntity
  8
BUTTON_INNER_FEATURES
100
AcDbPolyline
 90
36
 70
1
 10
89.52496445740618
 20
108.7
 10
89.52880740132554
 20
108.73901806440323
 10
89.54018855090392
 20
108.77653668647302
 10
89.55867053494566
 20
108.81111404660392
 10
89.58354310116887
 20
108.84142135623732
 10
89.61385041080226
 20
108.86629392246051
 10
89.64842777093315
 20
108.88477590650226
 10
89.68594639300295
 20
108.89615705608065
 10
89.72496445740617
 20
108.9
 10
89.82496445740617
 20
108.9
 10
89.86398252180939
 20
108.89615705608065
 10
89.90150114387919
 20
108.88477590650226
 10
89.9360785040101
 20
108.86629392246051
 10
89.96638581364348
 20
108.84142135623732
 10
89.99125837986668
 20
108.81111404660392
 10
90.00974036390843
 20
108.77653668647302
 10
90.02112151348682
 20
108.73901806440323
 10
90.02496445740618
 20
108.7
 10
90.02496445740618
 20
103.49999999999999
 10
90.02112151348682
 20
103.46098193559676
 10
90.00974036390843
 20
103.42346331352697
 10
89.99125837986668
 20
103.38888595339607
 10
89.96638581364348
 20
103.35857864376267
 10
89.9360785040101
 20
103.33370607753947
 10
89.90150114387919
 20
103.31522409349773
 10
89.86398252180939
 20
103.30384294391934
 10
89.82496445740617
 20
103.29999999999998
 10
89.72496445740617
 20
103.29999999999998
 10
89.68594639300295
 20
103.30384294391934
 10
89.64842777093315
 20
103.31522409349773
 10
89.61385041080226
 20
103.33370607753947
 10
89.58354310116887
 20
103.35857864376267
 10
89.55867053494566
 20
103.38888595339607
 10
89.54018855090392
 20
103.42346331352697
 10
89.52880740132554
 20
103.46098193559676
 10
89.52496445740618
 20
103.49999999999999
  0
TEXT
  5
81
330
17
100
AcDbEntity
  8
NOTES
100
AcDbText
 10
57.81496445740618
 20
-19.0
 30
0.0
 40
0.9
  1
BUTTON_INNER_FEATURES (inner face): RAISED collar OD 15.0 / ID 12.4 x 0.80 high + key tab, 2 ear bosss Ø3.0 x 1.00 (pilot/core Ø1.10 for M1.4 x 2.5 thread-forming), rib 0.5 x 5.6 x 1.0
 11
57.81496445740618
 21
-19.0
 31
0.0
100
AcDbText
  0
TEXT
  5
82
330
17
100
AcDbEntity
  8
NOTES
100
AcDbText
 10
57.81496445740618
 20
-16.0
 30
0.0
 40
1.2
  1
GLUE_LANDS_OPTIONAL = fallback only (default fixing: 4x M1.6 screws, layer SCREWS)
 11
57.81496445740618
 21
-16.0
 31
0.0
100
AcDbText
  0
TEXT
  5
83
330
17
100
AcDbEntity
  8
NOTES
100
AcDbText
 10
57.81496445740618
 20
-12.0
 30
0.0
 40
2.0
  1
MP62 IO plate v2 A0 - frontview - mm - Y up = MEG/base end
 11
57.81496445740618
 21
-12.0
 31
0.0
100
AcDbText
  0
ENDSEC
  0
SECTION
  2
OBJECTS
  0
DICTIONARY
  5
A
330
0
100
AcDbDictionary
281
1
  3
ACAD_COLOR
350
B
  3
ACAD_GROUP
350
C
  3
ACAD_LAYOUT
350
D
  3
ACAD_MATERIAL
350
E
  3
ACAD_MLEADERSTYLE
350
F
  3
ACAD_MLINESTYLE
350
10
  3
ACAD_PLOTSETTINGS
350
11
  3
ACAD_PLOTSTYLENAME
350
12
  3
ACAD_SCALELIST
350
14
  3
ACAD_TABLESTYLE
350
15
  3
ACAD_VISUALSTYLE
350
16
  3
EZDXF_META
350
2D
  0
DICTIONARY
  5
B
330
A
100
AcDbDictionary
281
1
  0
DICTIONARY
  5
C
330
A
100
AcDbDictionary
281
1
  0
DICTIONARY
  5
D
330
A
100
AcDbDictionary
281
1
  3
Model
350
1A
  3
Layout1
350
1E
  0
DICTIONARY
  5
E
330
A
100
AcDbDictionary
281
1
  3
ByBlock
350
1F
  3
ByLayer
350
20
  3
Global
350
21
  0
DICTIONARY
  5
F
330
A
100
AcDbDictionary
281
1
  3
Standard
350
2C
  0
DICTIONARY
  5
10
330
A
100
AcDbDictionary
281
1
  3
Standard
350
22
  0
DICTIONARY
  5
11
330
A
100
AcDbDictionary
281
1
  0
ACDBDICTIONARYWDFLT
  5
12
330
A
100
AcDbDictionary
281
1
  3
Normal
350
13
100
AcDbDictionaryWithDefault
340
13
  0
ACDBPLACEHOLDER
  5
13
330
12
  0
DICTIONARY
  5
14
330
A
100
AcDbDictionary
281
1
  0
DICTIONARY
  5
15
330
A
100
AcDbDictionary
281
1
  0
DICTIONARY
  5
16
330
A
100
AcDbDictionary
281
1
  0
LAYOUT
  5
1A
330
D
100
AcDbPlotSettings
  1

  4
A3
  6

 40
7.5
 41
20.0
 42
7.5
 43
20.0
 44
420.0
 45
297.0
 46
0.0
 47
0.0
 48
0.0
 49
0.0
140
0.0
141
0.0
142
1.0
143
1.0
 70
1024
 72
1
 73
0
 74
5
  7

 75
16
 76
0
 77
2
 78
300
147
1.0
148
0.0
149
0.0
100
AcDbLayout
  1
Model
 70
1
 71
0
 10
0.0
 20
0.0
 11
420.0
 21
297.0
 12
0.0
 22
0.0
 32
0.0
 14
1e+20
 24
1e+20
 34
1e+20
 15
-1e+20
 25
-1e+20
 35
-1e+20
146
0.0
 13
0.0
 23
0.0
 33
0.0
 16
1.0
 26
0.0
 36
0.0
 17
0.0
 27
1.0
 37
0.0
 76
1
330
17
  0
LAYOUT
  5
1E
330
D
100
AcDbPlotSettings
  1

  4
A3
  6

 40
7.5
 41
20.0
 42
7.5
 43
20.0
 44
420.0
 45
297.0
 46
0.0
 47
0.0
 48
0.0
 49
0.0
140
0.0
141
0.0
142
1.0
143
1.0
 70
0
 72
1
 73
0
 74
5
  7

 75
16
 76
0
 77
2
 78
300
147
1.0
148
0.0
149
0.0
100
AcDbLayout
  1
Layout1
 70
1
 71
1
 10
0.0
 20
0.0
 11
420.0
 21
297.0
 12
0.0
 22
0.0
 32
0.0
 14
1e+20
 24
1e+20
 34
1e+20
 15
-1e+20
 25
-1e+20
 35
-1e+20
146
0.0
 13
0.0
 23
0.0
 33
0.0
 16
1.0
 26
0.0
 36
0.0
 17
0.0
 27
1.0
 37
0.0
 76
1
330
1B
  0
MATERIAL
  5
1F
102
{ACAD_REACTORS
330
E
102
}
330
E
100
AcDbMaterial
  1
ByBlock
  2

 70
0
 40
1.0
 71
1
 41
1.0
 91
-1023410177
 42
1.0
 72
1
  3

 73
1
 74
1
 75
1
 44
0.5
 73
0
 45
1.0
 46
1.0
 77
1
  4

 78
1
 79
1
170
1
 48
1.0
171
1
  6

172
1
173
1
174
1
140
1.0
141
1.0
175
1
  7

176
1
177
1
178
1
143
1.0
179
1
  8

270
1
271
1
272
1
145
1.0
146
1.0
273
1
  9

274
1
275
1
276
1
 42
1.0
 72
1
  3

 73
1
 74
1
 75
1
 94
63
  0
MATERIAL
  5
20
102
{ACAD_REACTORS
330
E
102
}
330
E
100
AcDbMaterial
  1
ByLayer
  2

 70
0
 40
1.0
 71
1
 41
1.0
 91
-1023410177
 42
1.0
 72
1
  3

 73
1
 74
1
 75
1
 44
0.5
 73
0
 45
1.0
 46
1.0
 77
1
  4

 78
1
 79
1
170
1
 48
1.0
171
1
  6

172
1
173
1
174
1
140
1.0
141
1.0
175
1
  7

176
1
177
1
178
1
143
1.0
179
1
  8

270
1
271
1
272
1
145
1.0
146
1.0
273
1
  9

274
1
275
1
276
1
 42
1.0
 72
1
  3

 73
1
 74
1
 75
1
 94
63
  0
MATERIAL
  5
21
102
{ACAD_REACTORS
330
E
102
}
330
E
100
AcDbMaterial
  1
Global
  2

 70
0
 40
1.0
 71
1
 41
1.0
 91
-1023410177
 42
1.0
 72
1
  3

 73
1
 74
1
 75
1
 44
0.5
 73
0
 45
1.0
 46
1.0
 77
1
  4

 78
1
 79
1
170
1
 48
1.0
171
1
  6

172
1
173
1
174
1
140
1.0
141
1.0
175
1
  7

176
1
177
1
178
1
143
1.0
179
1
  8

270
1
271
1
272
1
145
1.0
146
1.0
273
1
  9

274
1
275
1
276
1
 42
1.0
 72
1
  3

 73
1
 74
1
 75
1
 94
63
  0
MLINESTYLE
  5
22
102
{ACAD_REACTORS
330
10
102
}
330
10
100
AcDbMlineStyle
  2
Standard
 70
0
  3

 62
256
 51
90.0
 52
90.0
 71
2
 49
0.5
 62
256
  6
BYLAYER
 49
-0.5
 62
256
  6
BYLAYER
  0
MLEADERSTYLE
  5
2C
102
{ACAD_REACTORS
330
F
102
}
330
F
100
AcDbMLeaderStyle
179
2
170
2
171
1
172
0
 90
2
 40
0.0
 41
0.0
173
1
 91
-1056964608
 92
-2
290
1
 42
2.0
291
1
 43
8.0
  3
Standard
 44
4.0
300

342
29
174
1
175
1
176
0
178
1
 93
-1056964608
 45
4.0
292
0
297
0
 46
4.0
 94
-1056964608
 47
1.0
 49
1.0
140
1.0
294
1
141
0.0
177
0
142
1.0
295
0
296
0
143
3.75
271
0
272
9
273
9
  0
DICTIONARY
  5
2D
330
A
100
AcDbDictionary
280
1
281
1
  3
CREATED_BY_EZDXF
350
2E
  3
WRITTEN_BY_EZDXF
350
86
  0
DICTIONARYVAR
  5
2E
330
2D
100
DictionaryVariables
280
0
  1
1.4.4 @ 2026-10-04T19:57:39.856579+00:00
  0
DICTIONARYVAR
  5
86
330
2D
100
DictionaryVariables
280
0
  1
1.4.4 @ 2026-10-04T19:57:39.862561+00:00
  0
ENDSEC
  0
EOF
