  0
SECTION
  2
HEADER
  9
$ACADVER
  1
AC1024
  9
$ACADMAINTVER
 70
6
  9
$DWGCODEPAGE
  3
ANSI_1252
  9
$LASTSAVEDBY
  1
ezdxf
  9
$INSBASE
 10
0.0
 20
0.0
 30
0.0
  9
$EXTMIN
 10
1e+20
 20
1e+20
 30
1e+20
  9
$EXTMAX
 10
-1e+20
 20
-1e+20
 30
-1e+20
  9
$LIMMIN
 10
0.0
 20
0.0
  9
$LIMMAX
 10
420.0
 20
297.0
  9
$ORTHOMODE
 70
0
  9
$REGENMODE
 70
1
  9
$FILLMODE
 70
1
  9
$QTEXTMODE
 70
0
  9
$MIRRTEXT
 70
1
  9
$LTSCALE
 40
1.0
  9
$ATTMODE
 70
1
  9
$TEXTSIZE
 40
2.5
  9
$TRACEWID
 40
1.0
  9
$TEXTSTYLE
  7
Standard
  9
$CLAYER
  8
0
  9
$CELTYPE
  6
ByLayer
  9
$CECOLOR
 62
256
  9
$CELTSCALE
 40
1.0
  9
$DISPSILH
 70
0
  9
$DIMSCALE
 40
1.0
  9
$DIMASZ
 40
2.5
  9
$DIMEXO
 40
0.625
  9
$DIMDLI
 40
3.75
  9
$DIMRND
 40
0.0
  9
$DIMDLE
 40
0.0
  9
$DIMEXE
 40
1.25
  9
$DIMTP
 40
0.0
  9
$DIMTM
 40
0.0
  9
$DIMTXT
 40
2.5
  9
$DIMCEN
 40
2.5
  9
$DIMTSZ
 40
0.0
  9
$DIMTOL
 70
0
  9
$DIMLIM
 70
0
  9
$DIMTIH
 70
0
  9
$DIMTOH
 70
0
  9
$DIMSE1
 70
0
  9
$DIMSE2
 70
0
  9
$DIMTAD
 70
1
  9
$DIMZIN
 70
8
  9
$DIMBLK
  1

  9
$DIMASO
 70
1
  9
$DIMSHO
 70
1
  9
$DIMPOST
  1

  9
$DIMAPOST
  1

  9
$DIMALT
 70
0
  9
$DIMALTD
 70
3
  9
$DIMALTF
 40
0.03937007874
  9
$DIMLFAC
 40
1.0
  9
$DIMTOFL
 70
1
  9
$DIMTVP
 40
0.0
  9
$DIMTIX
 70
0
  9
$DIMSOXD
 70
0
  9
$DIMSAH
 70
0
  9
$DIMBLK1
  1

  9
$DIMBLK2
  1

  9
$DIMSTYLE
  2
ISO-25
  9
$DIMCLRD
 70
0
  9
$DIMCLRE
 70
0
  9
$DIMCLRT
 70
0
  9
$DIMTFAC
 40
1.0
  9
$DIMGAP
 40
0.625
  9
$DIMJUST
 70
0
  9
$DIMSD1
 70
0
  9
$DIMSD2
 70
0
  9
$DIMTOLJ
 70
0
  9
$DIMTZIN
 70
8
  9
$DIMALTZ
 70
0
  9
$DIMALTTZ
 70
0
  9
$DIMUPT
 70
0
  9
$DIMDEC
 70
2
  9
$DIMTDEC
 70
2
  9
$DIMALTU
 70
2
  9
$DIMALTTD
 70
3
  9
$DIMTXSTY
  7
Standard
  9
$DIMAUNIT
 70
0
  9
$DIMADEC
 70
0
  9
$DIMALTRND
 40
0.0
  9
$DIMAZIN
 70
0
  9
$DIMDSEP
 70
44
  9
$DIMATFIT
 70
3
  9
$DIMFRAC
 70
0
  9
$DIMLDRBLK
  1

  9
$DIMLUNIT
 70
2
  9
$DIMLWD
 70
-2
  9
$DIMLWE
 70
-2
  9
$DIMTMOVE
 70
0
  9
$DIMFXL
 40
1.0
  9
$DIMFXLON
 70
0
  9
$DIMJOGANG
 40
0.785398163397
  9
$DIMTFILL
 70
0
  9
$DIMTFILLCLR
 70
0
  9
$DIMARCSYM
 70
0
  9
$DIMLTYPE
  6

  9
$DIMLTEX1
  6

  9
$DIMLTEX2
  6

  9
$DIMTXTDIRECTION
 70
0
  9
$LUNITS
 70
2
  9
$LUPREC
 70
4
  9
$SKETCHINC
 40
1.0
  9
$FILLETRAD
 40
10.0
  9
$AUNITS
 70
0
  9
$AUPREC
 70
2
  9
$MENU
  1
.
  9
$ELEVATION
 40
0.0
  9
$PELEVATION
 40
0.0
  9
$THICKNESS
 40
0.0
  9
$LIMCHECK
 70
0
  9
$CHAMFERA
 40
0.0
  9
$CHAMFERB
 40
0.0
  9
$CHAMFERC
 40
0.0
  9
$CHAMFERD
 40
0.0
  9
$SKPOLY
 70
0
  9
$TDCREATE
 40
2461315.750810185
  9
$TDUCREATE
 40
2458532.153996898
  9
$TDUPDATE
 40
2461315.750810185
  9
$TDUUPDATE
 40
2458532.1544311
  9
$TDINDWG
 40
0.0
  9
$TDUSRTIMER
 40
0.0
  9
$USRTIMER
 70
1
  9
$ANGBASE
 50
0.0
  9
$ANGDIR
 70
0
  9
$PDMODE
 70
0
  9
$PDSIZE
 40
0.0
  9
$PLINEWID
 40
0.0
  9
$SPLFRAME
 70
0
  9
$SPLINETYPE
 70
6
  9
$SPLINESEGS
 70
8
  9
$HANDSEED
  5
A9
  9
$SURFTAB1
 70
6
  9
$SURFTAB2
 70
6
  9
$SURFTYPE
 70
6
  9
$SURFU
 70
6
  9
$SURFV
 70
6
  9
$UCSBASE
  2

  9
$UCSNAME
  2

  9
$UCSORG
 10
0.0
 20
0.0
 30
0.0
  9
$UCSXDIR
 10
1.0
 20
0.0
 30
0.0
  9
$UCSYDIR
 10
0.0
 20
1.0
 30
0.0
  9
$UCSORTHOREF
  2

  9
$UCSORTHOVIEW
 70
0
  9
$UCSORGTOP
 10
0.0
 20
0.0
 30
0.0
  9
$UCSORGBOTTOM
 10
0.0
 20
0.0
 30
0.0
  9
$UCSORGLEFT
 10
0.0
 20
0.0
 30
0.0
  9
$UCSORGRIGHT
 10
0.0
 20
0.0
 30
0.0
  9
$UCSORGFRONT
 10
0.0
 20
0.0
 30
0.0
  9
$UCSORGBACK
 10
0.0
 20
0.0
 30
0.0
  9
$PUCSBASE
  2

  9
$PUCSNAME
  2

  9
$PUCSORG
 10
0.0
 20
0.0
 30
0.0
  9
$PUCSXDIR
 10
1.0
 20
0.0
 30
0.0
  9
$PUCSYDIR
 10
0.0
 20
1.0
 30
0.0
  9
$PUCSORTHOREF
  2

  9
$PUCSORTHOVIEW
 70
0
  9
$PUCSORGTOP
 10
0.0
 20
0.0
 30
0.0
  9
$PUCSORGBOTTOM
 10
0.0
 20
0.0
 30
0.0
  9
$PUCSORGLEFT
 10
0.0
 20
0.0
 30
0.0
  9
$PUCSORGRIGHT
 10
0.0
 20
0.0
 30
0.0
  9
$PUCSORGFRONT
 10
0.0
 20
0.0
 30
0.0
  9
$PUCSORGBACK
 10
0.0
 20
0.0
 30
0.0
  9
$USERI1
 70
0
  9
$USERI2
 70
0
  9
$USERI3
 70
0
  9
$USERI4
 70
0
  9
$USERI5
 70
0
  9
$USERR1
 40
0.0
  9
$USERR2
 40
0.0
  9
$USERR3
 40
0.0
  9
$USERR4
 40
0.0
  9
$USERR5
 40
0.0
  9
$WORLDVIEW
 70
1
  9
$SHADEDGE
 70
3
  9
$SHADEDIF
 70
70
  9
$TILEMODE
 70
1
  9
$MAXACTVP
 70
64
  9
$PINSBASE
 10
0.0
 20
0.0
 30
0.0
  9
$PLIMCHECK
 70
0
  9
$PEXTMIN
 10
1e+20
 20
1e+20
 30
1e+20
  9
$PEXTMAX
 10
-1e+20
 20
-1e+20
 30
-1e+20
  9
$PLIMMIN
 10
0.0
 20
0.0
  9
$PLIMMAX
 10
420.0
 20
297.0
  9
$UNITMODE
 70
0
  9
$VISRETAIN
 70
1
  9
$PLINEGEN
 70
0
  9
$PSLTSCALE
 70
1
  9
$TREEDEPTH
 70
3020
  9
$CMLSTYLE
  2
Standard
  9
$CMLJUST
 70
0
  9
$CMLSCALE
 40
20.0
  9
$PROXYGRAPHICS
 70
1
  9
$MEASUREMENT
 70
1
  9
$CELWEIGHT
370
-1
  9
$ENDCAPS
280
0
  9
$JOINSTYLE
280
0
  9
$LWDISPLAY
290
0
  9
$INSUNITS
 70
6
  9
$HYPERLINKBASE
  1

  9
$STYLESHEET
  1

  9
$XEDIT
290
1
  9
$CEPSNTYPE
380
0
  9
$PSTYLEMODE
290
1
  9
$FINGERPRINTGUID
  2
{4D2A3B0C-AC98-42B6-93B9-2AFBEC00E74A}
  9
$VERSIONGUID
  2
{1FB9F1F4-7F29-4E76-B0AA-423D2BBA0846}
  9
$EXTNAMES
290
1
  9
$PSVPSCALE
 40
0.0
  9
$OLESTARTUP
290
0
  9
$SORTENTS
280
127
  9
$INDEXCTL
280
0
  9
$HIDETEXT
280
1
  9
$XCLIPFRAME
280
1
  9
$HALOGAP
280
0
  9
$OBSCOLOR
 70
257
  9
$OBSLTYPE
280
0
  9
$INTERSECTIONDISPLAY
280
0
  9
$INTERSECTIONCOLOR
 70
257
  9
$DIMASSOC
280
2
  9
$PROJECTNAME
  1

  9
$CAMERADISPLAY
290
0
  9
$LENSLENGTH
 40
50.0
  9
$CAMERAHEIGHT
 40
0.0
  9
$STEPSPERSEC
 40
24.0
  9
$STEPSIZE
 40
100.0
  9
$3DDWFPREC
 40
2.0
  9
$PSOLWIDTH
 40
0.005
  9
$PSOLHEIGHT
 40
0.08
  9
$LOFTANG1
 40
1.570796326795
  9
$LOFTANG2
 40
1.570796326795
  9
$LOFTMAG1
 40
0.0
  9
$LOFTMAG2
 40
0.0
  9
$LOFTPARAM
 70
7
  9
$LOFTNORMALS
280
1
  9
$LATITUDE
 40
37.795
  9
$LONGITUDE
 40
-122.394
  9
$NORTHDIRECTION
 40
0.0
  9
$TIMEZONE
 70
-8000
  9
$LIGHTGLYPHDISPLAY
280
1
  9
$TILEMODELIGHTSYNCH
280
1
  9
$CMATERIAL
347
20
  9
$SOLIDHIST
280
0
  9
$SHOWHIST
280
1
  9
$DWFFRAME
280
2
  9
$DGNFRAME
280
2
  9
$REALWORLDSCALE
290
1
  9
$INTERFERECOLOR
 62
256
  9
$CSHADOW
280
0
  9
$SHADOWPLANELOCATION
 40
0.0
  0
ENDSEC
  0
SECTION
  2
CLASSES
  0
CLASS
  1
ACDBDICTIONARYWDFLT
  2
AcDbDictionaryWithDefault
  3
ObjectDBX Classes
 90
0
 91
0
280
0
281
0
  0
CLASS
  1
SUN
  2
AcDbSun
  3
SCENEOE
 90
1153
 91
0
280
0
281
0
  0
CLASS
  1
VISUALSTYLE
  2
AcDbVisualStyle
  3
ObjectDBX Classes
 90
4095
 91
0
280
0
281
0
  0
CLASS
  1
MATERIAL
  2
AcDbMaterial
  3
ObjectDBX Classes
 90
1153
 91
0
280
0
281
0
  0
CLASS
  1
SCALE
  2
AcDbScale
  3
ObjectDBX Classes
 90
1153
 91
0
280
0
281
0
  0
CLASS
  1
TABLESTYLE
  2
AcDbTableStyle
  3
ObjectDBX Classes
 90
4095
 91
0
280
0
281
0
  0
CLASS
  1
MLEADERSTYLE
  2
AcDbMLeaderStyle
  3
ACDB_MLEADERSTYLE_CLASS
 90
4095
 91
0
280
0
281
0
  0
CLASS
  1
DICTIONARYVAR
  2
AcDbDictionaryVar
  3
ObjectDBX Classes
 90
0
 91
0
280
0
281
0
  0
CLASS
  1
CELLSTYLEMAP
  2
AcDbCellStyleMap
  3
ObjectDBX Classes
 90
1152
 91
0
280
0
281
0
  0
CLASS
  1
MENTALRAYRENDERSETTINGS
  2
AcDbMentalRayRenderSettings
  3
SCENEOE
 90
1024
 91
0
280
0
281
0
  0
CLASS
  1
ACDBDETAILVIEWSTYLE
  2
AcDbDetailViewStyle
  3
ObjectDBX Classes
 90
1025
 91
0
280
0
281
0
  0
CLASS
  1
ACDBSECTIONVIEWSTYLE
  2
AcDbSectionViewStyle
  3
ObjectDBX Classes
 90
1025
 91
0
280
0
281
0
  0
CLASS
  1
RASTERVARIABLES
  2
AcDbRasterVariables
  3
ISM
 90
0
 91
0
280
0
281
0
  0
CLASS
  1
LAYOUT
  2
AcDbLayout
  3
ObjectDBX Classes
 90
0
 91
0
280
0
281
0
  0
CLASS
  1
ACDBPLACEHOLDER
  2
AcDbPlaceHolder
  3
ObjectDBX Classes
 90
0
 91
0
280
0
281
0
  0
ENDSEC
  0
SECTION
  2
TABLES
  0
TABLE
  2
VPORT
  5
8
330
0
100
AcDbSymbolTable
 70
1
  0
VPORT
  5
23
330
8
100
AcDbSymbolTableRecord
100
AcDbViewportTableRecord
  2
*Active
 70
0
 10
0.0
 20
0.0
 11
1.0
 21
1.0
 12
0.0
 22
0.0
 13
0.0
 23
0.0
 14
0.5
 24
0.5
 15
0.5
 25
0.5
 16
0.0
 26
0.0
 36
1.0
 17
0.0
 27
0.0
 37
0.0
 40
1000.0
 41
1.34
 42
50.0
 43
0.0
 44
0.0
 50
0.0
 51
0.0
 71
0
 72
1000
 73
1
 74
3
 75
0
 76
0
 77
0
 78
0
281
0
 65
0
146
0.0
  0
ENDTAB
  0
TABLE
  2
LTYPE
  5
2
330
0
100
AcDbSymbolTable
 70
3
  0
LTYPE
  5
24
330
2
100
AcDbSymbolTableRecord
100
AcDbLinetypeTableRecord
  2
ByBlock
 70
0
  3

 72
65
 73
0
 40
0.0
  0
LTYPE
  5
25
330
2
100
AcDbSymbolTableRecord
100
AcDbLinetypeTableRecord
  2
ByLayer
 70
0
  3

 72
65
 73
0
 40
0.0
  0
LTYPE
  5
26
330
2
100
AcDbSymbolTableRecord
100
AcDbLinetypeTableRecord
  2
Continuous
 70
0
  3

 72
65
 73
0
 40
0.0
  0
ENDTAB
  0
TABLE
  2
LAYER
  5
1
330
0
100
AcDbSymbolTable
 70
11
  0
LAYER
  5
27
330
1
100
AcDbSymbolTableRecord
100
AcDbLayerTableRecord
  2
0
 70
0
 62
7
  6
Continuous
370
-3
390
13
347
21
  0
LAYER
  5
28
330
1
100
AcDbSymbolTableRecord
100
AcDbLayerTableRecord
  2
Defpoints
 70
0
 62
7
  6
Continuous
290
0
370
-3
390
13
347
21
  0
LAYER
  5
2F
330
1
100
AcDbSymbolTableRecord
100
AcDbLayerTableRecord
  2
PLATE_OUTLINE_OUTER
 70
0
 62
7
  6
Continuous
370
-3
390
13
347
21
  0
LAYER
  5
30
330
1
100
AcDbSymbolTableRecord
100
AcDbLayerTableRecord
  2
PLATE_OUTLINE_INNER
 70
0
 62
8
  6
Continuous
370
-3
390
13
347
21
  0
LAYER
  5
31
330
1
100
AcDbSymbolTableRecord
100
AcDbLayerTableRecord
  2
OPENINGS_OUTER
 70
0
 62
1
  6
Continuous
370
-3
390
13
347
21
  0
LAYER
  5
32
330
1
100
AcDbSymbolTableRecord
100
AcDbLayerTableRecord
  2
OPENINGS_INNER
 70
0
 62
5
  6
Continuous
370
-3
390
13
347
21
  0
LAYER
  5
33
330
1
100
AcDbSymbolTableRecord
100
AcDbLayerTableRecord
  2
ICON_WINDOWS
 70
0
 62
3
  6
Continuous
370
-3
390
13
347
21
  0
LAYER
  5
34
330
1
100
AcDbSymbolTableRecord
100
AcDbLayerTableRecord
  2
POWER_BUTTON
 70
0
 62
2
  6
Continuous
370
-3
390
13
347
21
  0
LAYER
  5
35
330
1
100
AcDbSymbolTableRecord
100
AcDbLayerTableRecord
  2
IO_BOARD_REF
 70
0
 62
9
  6
Continuous
370
-3
390
13
347
21
  0
LAYER
  5
36
330
1
100
AcDbSymbolTableRecord
100
AcDbLayerTableRecord
  2
NEW_PORT_MAP
 70
0
 62
6
  6
Continuous
370
-3
390
13
347
21
  0
LAYER
  5
37
330
1
100
AcDbSymbolTableRecord
100
AcDbLayerTableRecord
  2
NOTES
 70
0
 62
7
  6
Continuous
370
-3
390
13
347
21
  0
ENDTAB
  0
TABLE
  2
STYLE
  5
5
330
0
100
AcDbSymbolTable
 70
1
  0
STYLE
  5
29
330
5
100
AcDbSymbolTableRecord
100
AcDbTextStyleTableRecord
  2
Standard
 70
0
 40
0.0
 41
1.0
 50
0.0
 71
0
 42
2.5
  3
txt
  4

  0
ENDTAB
  0
TABLE
  2
VIEW
  5
7
330
0
100
AcDbSymbolTable
 70
0
  0
ENDTAB
  0
TABLE
  2
UCS
  5
6
330
0
100
AcDbSymbolTable
 70
0
  0
ENDTAB
  0
TABLE
  2
APPID
  5
3
330
0
100
AcDbSymbolTable
 70
3
  0
APPID
  5
2A
330
3
100
AcDbSymbolTableRecord
100
AcDbRegAppTableRecord
  2
ACAD
 70
0
  0
APPID
  5
A6
330
3
100
AcDbSymbolTableRecord
100
AcDbRegAppTableRecord
  2
HATCHBACKGROUNDCOLOR
 70
0
  0
APPID
  5
A7
330
3
100
AcDbSymbolTableRecord
100
AcDbRegAppTableRecord
  2
EZDXF
 70
0
  0
ENDTAB
  0
TABLE
  2
DIMSTYLE
  5
4
330
0
100
AcDbSymbolTable
 70
1
100
AcDbDimStyleTable
  0
DIMSTYLE
105
2B
330
4
100
AcDbSymbolTableRecord
100
AcDbDimStyleTableRecord
  2
Standard
 70
0
 40
1.0
 41
2.5
 42
0.625
 43
3.75
 44
1.25
 45
0.0
 46
0.0
 47
0.0
 48
0.0
 49
2.5
140
2.5
141
2.5
142
0.0
143
0.03937007874
144
1.0
145
0.0
146
1.0
147
0.625
148
0.0
 69
0
 70
0
 71
0
 72
0
 73
0
 74
0
 75
0
 76
0
 77
1
 78
8
 79
3
170
0
171
3
172
1
173
0
174
0
175
0
176
0
177
0
178
0
179
2
271
2
272
2
273
2
274
3
275
0
276
0
277
2
278
44
279
0
280
0
281
0
282
0
283
0
284
8
285
0
286
0
288
0
289
3
290
0
371
-2
372
-2
  0
ENDTAB
  0
TABLE
  2
BLOCK_RECORD
  5
9
330
0
100
AcDbSymbolTable
 70
2
  0
BLOCK_RECORD
  5
17
330
9
100
AcDbSymbolTableRecord
100
AcDbBlockTableRecord
  2
*Model_Space
340
1A
 70
0
280
1
281
0
  0
BLOCK_RECORD
  5
1B
330
9
100
AcDbSymbolTableRecord
100
AcDbBlockTableRecord
  2
*Paper_Space
340
1E
 70
0
280
1
281
0
  0
ENDTAB
  0
ENDSEC
  0
SECTION
  2
BLOCKS
  0
BLOCK
  5
18
330
17
100
AcDbEntity
  8
0
100
AcDbBlockBegin
  2
*Model_Space
 70
0
 10
0.0
 20
0.0
 30
0.0
  3
*Model_Space
  1

  0
ENDBLK
  5
19
330
17
100
AcDbEntity
  8
0
100
AcDbBlockEnd
  0
BLOCK
  5
1C
330
1B
100
AcDbEntity
  8
0
100
AcDbBlockBegin
  2
*Paper_Space
 70
0
 10
0.0
 20
0.0
 30
0.0
  3
*Paper_Space
  1

  0
ENDBLK
  5
1D
330
1B
100
AcDbEntity
  8
0
100
AcDbBlockEnd
  0
ENDSEC
  0
SECTION
  2
ENTITIES
  0
LWPOLYLINE
  5
38
330
17
100
AcDbEntity
  8
PLATE_OUTLINE_OUTER
100
AcDbPolyline
 90
540
 70
1
 10
66.8967991715545
 20
158.59046773908045
 10
67.65454238074366
 20
158.33165755779535
 10
68.41384270201532
 20
158.32700567063762
 10
69.17158591120447
 20
158.06819548935255
 10
69.92932912039365
 20
157.80938530806745
 10
70.68707232958282
 20
157.55057512678238
 10
71.44481553877196
 20
157.2917649454973
 10
72.20255874796113
 20
157.03295476421223
 10
72.95874484506781
 20
156.51998628879983
 10
73.71337383009201
 20
155.7528595192601
 10
74.46955992719869
 20
155.2398910438477
 10
74.97108880513234
 20
154.47431490336055
 10
75.72571779015652
 20
153.7071881338208
 10
76.22724666809016
 20
152.94161199333368
 10
76.47567543893325
 20
152.1775864818991
 10
76.9772043168669
 20
151.41201034141199
 10
77.22563308771
 20
150.64798482997742
 10
77.47406185855309
 20
149.88395931854285
 10
77.72249062939619
 20
149.11993380710828
 10
77.71781929314874
 20
148.3574589247263
 10
77.96624806399183
 20
147.59343341329176
 10
77.96157672774437
 20
146.83095853090975
 10
77.95690539149692
 20
146.0684836485278
 10
77.95223405524946
 20
145.30600876614582
 10
77.94756271900201
 20
144.54353388376384
 10
77.94289138275455
 20
143.7810590013819
 10
77.9382200465071
 20
143.01858411899988
 10
77.93354871025964
 20
142.2561092366179
 10
77.92887737401219
 20
141.49363435423592
 10
78.17730614485528
 20
140.72960884280135
 10
78.17263480860782
 20
139.9671339604194
 10
78.16796347236037
 20
139.2046590780374
 10
78.16329213611291
 20
138.44218419565544
 10
78.15862079986546
 20
137.67970931327346
 10
78.153949463618
 20
136.91723443089148
 10
78.14927812737055
 20
136.1547595485095
 10
78.1446067911231
 20
135.39228466612752
 10
78.13993545487564
 20
134.62980978374557
 10
78.13526411862819
 20
133.86733490136356
 10
78.13059278238073
 20
133.1048600189816
 10
78.12592144613328
 20
132.3423851365996
 10
78.37435021697637
 20
131.57835962516506
 10
78.36967888072891
 20
130.81588474278308
 10
78.36500754448146
 20
130.05340986040108
 10
78.360336208234
 20
129.29093497801912
 10
78.35566487198655
 20
128.52846009563714
 10
78.3509935357391
 20
127.76598521325516
 10
78.34632219949164
 20
127.0035103308732
 10
78.34165086324418
 20
126.24103544849122
 10
78.33697952699673
 20
125.47856056610924
 10
78.58540829783983
 20
124.71453505467468
 10
78.58073696159238
 20
123.9520601722927
 10
78.57606562534492
 20
123.18958528991072
 10
78.57139428909747
 20
122.42711040752874
 10
78.56672295285001
 20
121.66463552514676
 10
78.56205161660256
 20
120.90216064276478
 10
78.5573802803551
 20
120.13968576038282
 10
78.55270894410765
 20
119.37721087800084
 10
78.5480376078602
 20
118.61473599561886
 10
78.54336627161274
 20
117.85226111323688
 10
78.53869493536529
 20
117.0897862308549
 10
78.53402359911783
 20
116.32731134847293
 10
78.52935226287038
 20
115.56483646609095
 10
78.52468092662292
 20
114.80236158370897
 10
78.52000959037547
 20
114.03988670132699
 10
78.51533825412801
 20
113.27741181894501
 10
78.7637670249711
 20
112.51338630751044
 10
78.75909568872365
 20
111.75091142512848
 10
78.75442435247619
 20
110.9884365427465
 10
78.74975301622874
 20
110.22596166036452
 10
78.74508167998128
 20
109.46348677798255
 10
78.74041034373383
 20
108.70101189560057
 10
78.73573900748637
 20
107.93853701321859
 10
78.73106767123892
 20
107.17606213083661
 10
78.72639633499146
 20
106.41358724845463
 10
78.72172499874401
 20
105.65111236607267
 10
78.71705366249655
 20
104.88863748369069
 10
78.7123823262491
 20
104.1261626013087
 10
78.70771099000164
 20
103.36368771892673
 10
78.95613976084474
 20
102.59966220749216
 10
78.95146842459728
 20
101.83718732511018
 10
78.94679708834983
 20
101.07471244272821
 10
78.94212575210237
 20
100.31223756034623
 10
78.93745441585492
 20
99.54976267796425
 10
78.93278307960746
 20
98.78728779558229
 10
78.92811174336
 20
98.0248129132003
 10
78.92344040711255
 20
97.26233803081831
 10
78.9187690708651
 20
96.49986314843633
 10
78.91409773461764
 20
95.73738826605438
 10
78.90942639837019
 20
94.9749133836724
 10
78.90475506212273
 20
94.21243850129042
 10
78.90008372587528
 20
93.44996361890843
 10
78.89541238962782
 20
92.68748873652645
 10
79.14384116047091
 20
91.92346322509191
 10
79.13916982422346
 20
91.16098834270993
 10
79.134498487976
 20
90.39851346032795
 10
79.12982715172855
 20
89.63603857794597
 10
79.1251558154811
 20
88.87356369556399
 10
79.12048447923364
 20
88.111088813182
 10
79.11581314298618
 20
87.34861393080004
 10
79.11114180673873
 20
86.58613904841806
 10
79.10647047049127
 20
85.82366416603608
 10
79.10179913424382
 20
85.0611892836541
 10
79.09712779799636
 20
84.29871440127212
 10
79.09245646174891
 20
83.53623951889013
 10
79.08778512550145
 20
82.77376463650818
 10
79.083113789254
 20
82.0112897541262
 10
79.07844245300655
 20
81.24881487174422
 10
79.07377111675909
 20
80.48633998936224
 10
79.06909978051164
 20
79.72386510698026
 10
79.06442844426418
 20
78.96139022459829
 10
79.05975710801673
 20
78.19891534221631
 10
79.30818587885983
 20
77.43488983078174
 10
79.30351454261238
 20
76.67241494839976
 10
79.29884320636492
 20
75.90994006601778
 10
79.29417187011747
 20
75.1474651836358
 10
79.28950053387001
 20
74.38499030125385
 10
79.28482919762256
 20
73.62251541887187
 10
79.2801578613751
 20
72.86004053648988
 10
79.27548652512765
 20
72.0975656541079
 10
79.27081518888019
 20
71.33509077172592
 10
79.26614385263274
 20
70.57261588934396
 10
79.26147251638528
 20
69.81014100696198
 10
79.50990128722837
 20
69.04611549552742
 10
79.50522995098092
 20
68.28364061314544
 10
79.50055861473346
 20
67.52116573076344
 10
79.49588727848601
 20
66.75869084838146
 10
79.49121594223855
 20
65.99621596599951
 10
79.4865446059911
 20
65.23374108361753
 10
79.48187326974364
 20
64.47126620123555
 10
79.47720193349619
 20
63.708791318853564
 10
79.47253059724873
 20
62.946316436471584
 10
79.46785926100128
 20
62.1838415540896
 10
79.46318792475383
 20
61.421366671707645
 10
79.45851658850637
 20
60.658891789325665
 10
79.45384525225892
 20
59.89641690694368
 10
79.44917391601146
 20
59.1339420245617
 10
79.444502579764
 20
58.37146714217972
 10
79.6929313506071
 20
57.60744163074518
 10
79.68826001435964
 20
56.8449667483632
 10
79.68358867811219
 20
56.08249186598121
 10
79.67891734186473
 20
55.32001698359923
 10
79.67424600561728
 20
54.55754210121725
 10
79.66957466936982
 20
53.795067218835264
 10
79.66490333312237
 20
53.03259233645331
 10
79.66023199687491
 20
52.27011745407133
 10
79.65556066062746
 20
51.507642571689345
 10
79.65088932438
 20
50.745167689307365
 10
79.64621798813255
 20
49.982692806925385
 10
80.1477468660662
 20
49.21711666643826
 10
80.39617563690929
 20
48.4530911550037
 10
79.88530408648073
 20
47.69371753072688
 10
79.88063275023327
 20
46.9312426483449
 10
80.38216162816693
 20
46.16566650785775
 10
80.63059039901002
 20
45.40164099642318
 10
81.3867764961167
 20
44.888672521010804
 10
82.14763392947086
 20
45.13817892798035
 10
82.91004847490746
 20
45.64184362907726
 10
83.6709059082616
 20
45.89135003604683
 10
84.43020622953325
 20
45.88669814888908
 10
85.18794943872241
 20
45.627887967604
 10
85.18327810247496
 20
44.86541308522205
 10
85.1786067662275
 20
44.102938202840065
 10
84.9208353228895
 20
43.342013949510665
 10
84.41307799662592
 20
43.090956913488505
 10
83.65377767535426
 20
43.09560880064626
 10
82.89759157824759
 20
43.60857727605866
 10
82.14140548114091
 20
44.12154575147107
 10
81.38210515986924
 20
44.126197638628824
 10
80.87123360944068
 20
43.366824014352005
 10
81.11966238028378
 20
42.60279850291744
 10
81.11499104403633
 20
41.84032362053546
 10
81.36341981487942
 20
41.07629810910089
 10
80.85566248861583
 20
40.82524107307873
 10
80.59789104527783
 20
40.06431681974936
 10
80.34011960193983
 20
39.303392566419966
 10
80.33544826569238
 20
38.54091768403798
 10
80.33077692944492
 20
37.778442801656
 10
80.32610559319747
 20
37.01596791927401
 10
80.57453436404056
 20
36.25194240783948
 10
81.07606324197421
 20
35.48636626735233
 10
81.3244920128173
 20
34.72234075591776
 10
80.81362046238874
 20
33.962967131640944
 10
81.56824944741294
 20
33.195840362101215
 10
81.56357811116548
 20
32.43336547971923
 10
81.81200688200857
 20
31.669339968284692
 10
81.80733554576112
 20
30.90686508590271
 10
81.29646399533257
 20
30.147491461625894
 10
80.53404944989595
 20
29.64382676052899
 10
80.0231778994674
 20
28.884453136252176
 10
80.01850656321994
 20
28.121978253870193
 10
80.01383522697249
 20
27.359503371488238
 10
80.00916389072503
 20
26.597028489106258
 10
80.00449255447758
 20
25.834553606724274
 10
79.99982121823012
 20
25.07207872434229
 10
79.99514988198267
 20
24.30960384196031
 10
79.99047854573521
 20
23.547128959578355
 10
79.98580720948776
 20
22.78465407719637
 10
80.23423598033085
 20
22.020628565761807
 10
80.2295646440834
 20
21.258153683379824
 10
80.22489330783594
 20
20.49567880099784
 10
80.22022197158849
 20
19.73320391861586
 10
80.21555063534103
 20
18.970729036233905
 10
80.21087929909358
 20
18.20825415385192
 10
80.20620796284612
 20
17.44577927146994
 10
79.94843651950812
 20
16.684855018140542
 10
79.94376518326067
 20
15.922380135758559
 10
80.19219395410376
 20
15.158354624323993
 10
80.1875226178563
 20
14.39587974194204
 10
80.18285128160885
 20
13.633404859560057
 10
80.17817994536139
 20
12.870929977178074
 10
80.17350860911394
 20
12.108455094796092
 10
80.16883727286648
 20
11.34598021241411
 10
80.16416593661903
 20
10.583505330032155
 10
80.15949460037157
 20
9.821030447650173
 10
80.15482326412412
 20
9.05855556526819
 10
80.15015192787666
 20
8.296080682886208
 10
80.14548059162921
 20
7.533605800504225
 10
80.14080925538175
 20
6.771130918122243
 10
79.88303781204375
 20
6.0102066647928725
 10
79.62526636870574
 20
5.249282411463474
 10
79.62059503245828
 20
4.486807529081491
 10
79.36282358912028
 20
3.7258832757520928
 10
79.10505214578228
 20
2.964959022422694
 10
78.59418059535372
 20
2.2055853981459075
 10
78.08330904492517
 20
1.4462117738690923
 10
77.57243749449661
 20
0.6868381495922772
 10
77.06156594406806
 20
-0.07253547468453796
 10
76.29759428654896
 20
-0.8303584699087694
 10
75.53517974111233
 20
-1.3340231710056734
 10
74.77276519567573
 20
-1.8376878721025773
 10
74.0103506502391
 20
-2.341352573199453
 10
73.24793610480248
 20
-2.8450172742963566
 10
72.48707867144834
 20
-3.094523681265933
 10
71.72622123809423
 20
-3.3440300882355096
 10
70.96536380474008
 20
-3.593536495205086
 10
70.20606348346843
 20
-3.588884608047335
 10
69.4452060501143
 20
-3.8383910150169114
 10
68.68590572884266
 20
-3.83373912785916
 10
67.92504829548852
 20
-4.083245534828737
 10
67.16574797421687
 20
-4.078593647670986
 10
66.40644765294522
 20
-4.073941760513234
 10
65.64714733167357
 20
-4.069289873355483
 10
64.88784701040193
 20
-4.064637986197733
 10
64.12854668913027
 20
-4.059986099039982
 10
63.36924636785862
 20
-4.05533421188223
 10
62.60994604658698
 20
-4.050682324724479
 10
61.850645725315324
 20
-4.046030437566729
 10
61.08978829196119
 20
-4.295536844536305
 10
60.33048797068954
 20
-4.2908849573785535
 10
59.57274476150038
 20
-4.032074776093475
 10
58.81188732814624
 20
-4.281581183063052
 10
58.052587006874596
 20
-4.2769292959053
 10
57.29328668560294
 20
-4.2722774087475495
 10
56.5339863643313
 20
-4.267625521589799
 10
55.774686043059646
 20
-4.262973634432047
 10
55.015385721788
 20
-4.258321747274296
 10
54.25608540051635
 20
-4.2536698601165455
 10
53.4967850792447
 20
-4.249017972958795
 10
52.73748475797305
 20
-4.244366085801043
 10
51.978184436701405
 20
-4.239714198643292
 10
51.21888411542975
 20
-4.2350623114855415
 10
50.4595837941581
 20
-4.23041042432779
 10
49.700283472886454
 20
-4.225758537170039
 10
48.9409831516148
 20
-4.221106650012288
 10
48.181682830343156
 20
-4.216454762854537
 10
47.42082539698902
 20
-4.465961169824113
 10
46.66152507571737
 20
-4.461309282666362
 10
45.90222475444572
 20
-4.4566573955086115
 10
45.14292443317407
 20
-4.45200550835086
 10
44.38362411190242
 20
-4.447353621193109
 10
43.624323790630775
 20
-4.442701734035358
 10
42.86502346935912
 20
-4.4380498468776075
 10
42.10572314808748
 20
-4.433397959719856
 10
41.346422826815825
 20
-4.428746072562105
 10
40.58712250554418
 20
-4.424094185404354
 10
39.82782218427253
 20
-4.419442298246603
 10
39.07007897508337
 20
-4.160632116961525
 10
38.3107786538117
 20
-4.155980229803773
 10
37.55147833254007
 20
-4.151328342646022
 10
36.79373512335089
 20
-3.8925181613609436
 10
36.03599191416174
 20
-3.633707980075865
 10
35.27980581705505
 20
-3.120739504663459
 10
34.5220626078659
 20
-2.861929323378381
 10
33.765876510759206
 20
-2.3489608479659747
 10
33.009690413652535
 20
-1.8359923725535687
 10
32.25350431654584
 20
-1.323023897141191
 10
31.7519754386122
 20
-0.5574477566540412
 10
30.997346453588023
 20
0.20967901288569227
 10
30.748917682744914
 20
0.9737045243202584
 10
30.24738880481127
 20
1.7392806648074084
 10
29.745859926877625
 20
2.5048568052945583
 10
29.497431156034544
 20
3.268882316729096
 10
29.249002385191435
 20
4.032907828163662
 10
29.000573614348355
 20
4.796933339598228
 10
29.00524495059581
 20
5.559408221980211
 10
28.7568161797527
 20
6.3234337334147765
 10
28.761487516000155
 20
7.085908615796731
 10
28.76615885224761
 20
7.8483834981787135
 10
28.770830188495065
 20
8.610858380560696
 10
28.77550152474252
 20
9.373333262942678
 10
28.52707275389944
 20
10.137358774377244
 10
28.78484419723743
 20
10.898283027706643
 10
28.789515533484884
 20
11.660757910088597
 10
28.541086762641804
 20
12.424783421523163
 10
28.54575809888926
 20
13.187258303905146
 10
28.550429435136714
 20
13.949733186287128
 10
28.55510077138417
 20
14.71220806866911
 10
28.559772107631623
 20
15.474682951051065
 10
28.311343336788514
 20
16.23870846248563
 10
28.31601467303597
 20
17.001183344867613
 10
28.320686009283424
 20
17.763658227249596
 10
28.32535734553088
 20
18.526133109631576
 10
28.330028681778334
 20
19.28860799201356
 10
28.33470001802579
 20
20.051082874395515
 10
28.339371354273243
 20
20.8135577567775
 10
28.3440426905207
 20
21.57603263915948
 10
28.348714026768153
 20
22.338507521541462
 10
28.353385363015608
 20
23.100982403923446
 10
28.358056699263063
 20
23.863457286305426
 10
28.362728035510518
 20
24.62593216868738
 10
28.367399371757973
 20
25.388407051069365
 10
28.118970600914892
 20
26.15243256250393
 10
28.123641937162347
 20
26.914907444885912
 10
28.128313273409802
 20
27.677382327267896
 10
28.132984609657257
 20
28.439857209649848
 10
28.13765594590471
 20
29.20233209203183
 10
28.142327282152166
 20
29.964806974413815
 10
28.14699861839962
 20
30.727281856795795
 10
28.151669954647076
 20
31.48975673917778
 10
28.15634129089453
 20
32.25223162155976
 10
28.161012627141986
 20
33.01470650394172
 10
28.16568396338944
 20
33.7771813863237
 10
28.170355299636896
 20
34.53965626870568
 10
28.17502663588435
 20
35.302131151087664
 10
28.179697972131805
 20
36.064606033469644
 10
28.18436930837926
 20
36.827080915851596
 10
27.93594053753615
 20
37.591106427286164
 10
27.940611873783606
 20
38.353581309668144
 10
27.94528321003106
 20
39.11605619205013
 10
27.949954546278516
 20
39.87853107443211
 10
27.95462588252597
 20
40.6410059568141
 10
27.959297218773425
 20
41.40348083919605
 10
27.96396855502088
 20
42.16595572157803
 10
27.968639891268335
 20
42.92843060396002
 10
27.97331122751579
 20
43.690905486342
 10
27.977982563763245
 20
44.45338036872398
 10
27.9826539000107
 20
45.215855251105964
 10
27.73422512916762
 20
45.979880762540496
 10
27.738896465415074
 20
46.74235564492248
 10
27.74356780166253
 20
47.50483052730446
 10
27.748239137909984
 20
48.26730540968644
 10
27.75291047415744
 20
49.02978029206843
 10
27.757581810404893
 20
49.79225517445038
 10
27.76225314665235
 20
50.55473005683236
 10
27.766924482899803
 20
51.31720493921435
 10
27.771595819147258
 20
52.07967982159633
 10
27.776267155394713
 20
52.84215470397831
 10
27.78093849164217
 20
53.604629586360296
 10
27.785609827889623
 20
54.36710446874225
 10
27.79028116413708
 20
55.12957935112423
 10
27.794952500384536
 20
55.892054233506215
 10
27.79962383663199
 20
56.654529115888195
 10
27.804295172879446
 20
57.417003998270175
 10
27.555866402036337
 20
58.181029509704715
 10
27.56053773828379
 20
58.9435043920867
 10
27.565209074531246
 20
59.70597927446868
 10
27.5698804107787
 20
60.46845415685066
 10
27.574551747026156
 20
61.23092903923265
 10
27.57922308327361
 20
61.99340392161463
 10
27.583894419521066
 20
62.75587880399658
 10
27.58856575576852
 20
63.51835368637857
 10
27.593237092015976
 20
64.28082856876054
 10
27.59790842826343
 20
65.04330345114253
 10
27.602579764510885
 20
65.80577833352451
 10
27.60725110075834
 20
66.5682532159065
 10
27.611922437005795
 20
67.33072809828845
 10
27.61659377325325
 20
68.09320298067043
 10
27.621265109500705
 20
68.85567786305242
 10
27.62593644574816
 20
69.6181527454344
 10
27.37750767490508
 20
70.38217825686897
 10
27.382179011152534
 20
71.14465313925092
 10
27.38685034739999
 20
71.9071280216329
 10
27.391521683647444
 20
72.66960290401488
 10
27.3961930198949
 20
73.43207778639686
 10
27.400864356142353
 20
74.19455266877884
 10
27.405535692389808
 20
74.95702755116083
 10
27.410207028637263
 20
75.71950243354279
 10
27.414878364884718
 20
76.48197731592477
 10
27.419549701132173
 20
77.24445219830675
 10
27.171120930289064
 20
78.00847770974131
 10
27.17579226653652
 20
78.7709525921233
 10
27.180463602783973
 20
79.53342747450525
 10
27.18513493903143
 20
80.29590235688724
 10
27.189806275278883
 20
81.05837723926922
 10
27.194477611526338
 20
81.8208521216512
 10
27.199148947773793
 20
82.58332700403318
 10
27.203820284021248
 20
83.34580188641516
 10
27.208491620268703
 20
84.10827676879711
 10
27.213162956516157
 20
84.8707516511791
 10
27.217834292763612
 20
85.63322653356109
 10
27.222505629011067
 20
86.39570141594307
 10
27.227176965258522
 20
87.15817629832505
 10
27.231848301505977
 20
87.92065118070703
 10
27.23651963775343
 20
88.68312606308898
 10
26.98809086691035
 20
89.44715157452355
 10
26.992762203157806
 20
90.20962645690553
 10
26.99743353940526
 20
90.97210133928752
 10
27.002104875652716
 20
91.7345762216695
 10
27.00677621190017
 20
92.49705110405145
 10
27.011447548147625
 20
93.25952598643343
 10
27.01611888439508
 20
94.02200086881541
 10
27.020790220642535
 20
94.78447575119739
 10
27.02546155688999
 20
95.54695063357939
 10
27.030132893137445
 20
96.30942551596137
 10
27.0348042293849
 20
97.07190039834332
 10
27.039475565632355
 20
97.8343752807253
 10
27.04414690187981
 20
98.59685016310728
 10
27.048818238127264
 20
99.35932504548927
 10
27.05348957437472
 20
100.12179992787124
 10
27.058160910622174
 20
100.88427481025322
 10
27.06283224686963
 20
101.6467496926352
 10
27.067503583117084
 20
102.40922457501716
 10
26.819074812273975
 20
103.17325008645173
 10
26.82374614852143
 20
103.93572496883371
 10
26.828417484768885
 20
104.69819985121568
 10
26.83308882101634
 20
105.46067473359767
 10
26.837760157263794
 20
106.22314961597965
 10
26.84243149351125
 20
106.98562449836162
 10
26.847102829758704
 20
107.7480993807436
 10
26.85177416600616
 20
108.51057426312556
 10
26.856445502253617
 20
109.27304914550754
 10
26.861116838501072
 20
110.03552402788954
 10
26.865788174748527
 20
110.7979989102715
 10
26.870459510995982
 20
111.56047379265348
 10
26.875130847243437
 20
112.32294867503546
 10
26.87980218349089
 20
113.08542355741743
 10
26.63137341264781
 20
113.849449068852
 10
26.636044748895266
 20
114.61192395123398
 10
26.64071608514272
 20
115.37439883361596
 10
26.645387421390176
 20
116.13687371599794
 10
26.65005875763763
 20
116.89934859837992
 10
26.654730093885085
 20
117.66182348076188
 10
26.65940143013254
 20
118.42429836314386
 10
26.664072766379995
 20
119.18677324552583
 10
26.66874410262745
 20
119.94924812790782
 10
26.673415438874905
 20
120.7117230102898
 10
26.67808677512236
 20
121.47419789267177
 10
26.93585821846035
 20
122.23512214600116
 10
26.68742944761727
 20
122.99914765743573
 10
26.692100783864724
 20
123.7616225398177
 10
26.69677212011218
 20
124.52409742219969
 10
26.701443456359634
 20
125.28657230458167
 10
26.70611479260709
 20
126.04904718696363
 10
26.710786128854544
 20
126.81152206934561
 10
26.715457465102
 20
127.5739969517276
 10
26.720128801349453
 20
128.33647183410957
 10
26.471700030506344
 20
129.10049734554414
 10
26.4763713667538
 20
129.8629722279261
 10
26.481042703001254
 20
130.6254471103081
 10
26.48571403924871
 20
131.38792199269005
 10
26.490385375496164
 20
132.15039687507203
 10
26.49505671174362
 20
132.912871757454
 10
26.499728047991074
 20
133.675346639836
 10
26.50439938423853
 20
134.43782152221797
 10
26.509070720485983
 20
135.20029640459992
 10
26.513742056733438
 20
135.96277128698193
 10
26.518413392980893
 20
136.7252461693639
 10
26.523084729228348
 20
137.4877210517459
 10
26.527756065475803
 20
138.25019593412787
 10
26.532427401723258
 20
139.01267081650983
 10
26.283998630880173
 20
139.77669632794442
 10
26.28866996712763
 20
140.53917121032637
 10
26.293341303375083
 20
141.30164609270835
 10
26.298012639622538
 20
142.06412097509033
 10
26.302683975869993
 20
142.82659585747228
 10
26.307355312117448
 20
143.5890707398543
 10
26.312026648364903
 20
144.35154562223624
 10
26.316697984612357
 20
145.11402050461822
 10
26.321369320859812
 20
145.8764953870002
 10
26.326040657107267
 20
146.63897026938218
 10
26.58381210044526
 20
147.3998945227116
 10
26.588483436692716
 20
148.16236940509356
 10
26.846254880030735
 20
148.92329365842298
 10
26.85092621627819
 20
149.68576854080493
 10
27.361797766706744
 20
150.44514216508173
 10
27.619569210044734
 20
151.20606641841115
 10
27.877340653382753
 20
151.96699067174052
 10
28.388212203811307
 20
152.72636429601735
 10
28.89908375423986
 20
153.48573792029416
 10
29.409955304668415
 20
154.24511154457096
 10
30.17236985010502
 20
154.74877624566787
 10
30.93634150762414
 20
155.5065992408921
 10
31.698756053060745
 20
156.010263941989
 10
32.461170598497375
 20
156.5139286430859
 10
33.222028031851494
 20
156.76343505005545
 10
33.98288546520564
 20
157.01294145702505
 10
34.743742898559766
 20
157.2624478639946
 10
35.50460033191391
 20
157.5119542709642
 10
36.26545776526803
 20
157.76146067793377
 10
37.0247580865397
 20
157.756808790776
 10
37.78405840781133
 20
157.75215690361824
 10
38.54491584116548
 20
158.00166331058784
 10
39.304216162437115
 20
157.99701142343008
 10
40.06351648370878
 20
157.99235953627232
 10
40.82281680498043
 20
157.98770764911458
 10
41.58367423833456
 20
158.23721405608416
 10
42.342974559606205
 20
158.2325621689264
 10
43.10227488087786
 20
158.22791028176866
 10
43.8615752021495
 20
158.2232583946109
 10
44.620875523421155
 20
158.21860650745316
 10
45.3801758446928
 20
158.2139546202954
 10
46.13947616596445
 20
158.20930273313766
 10
46.8987764872361
 20
158.2046508459799
 10
47.65807680850775
 20
158.19999895882214
 10
48.417377129779396
 20
158.1953470716644
 10
49.17667745105105
 20
158.19069518450664
 10
49.935977772322694
 20
158.1860432973489
 10
50.696835205676834
 20
158.43554970431848
 10
51.45613552694848
 20
158.4308978171607
 10
52.21543584822013
 20
158.42624593000298
 10
52.974736169491784
 20
158.42159404284521
 10
53.73403649076343
 20
158.41694215568748
 10
54.49333681203508
 20
158.41229026852972
 10
55.25263713330673
 20
158.40763838137195
 10
56.01193745457838
 20
158.40298649421422
 10
56.771237775850025
 20
158.39833460705646
 10
57.53053809712168
 20
158.39368271989872
 10
58.28983841839332
 20
158.38903083274096
 10
59.049138739664976
 20
158.38437894558322
 10
59.80843906093662
 20
158.37972705842546
 10
60.56773938220827
 20
158.3750751712677
 10
61.32703970347992
 20
158.37042328410996
 10
62.08634002475157
 20
158.3657713969522
 10
62.847197458105704
 20
158.61527780392177
 10
63.60649777937736
 20
158.61062591676404
 10
64.365798100649
 20
158.60597402960627
 10
65.12509842192065
 20
158.60132214244854
 10
65.8843987431923
 20
158.59667025529077
 10
66.64369906446395
 20
158.59201836813304
  0
LWPOLYLINE
  5
39
330
17
100
AcDbEntity
  8
OPENINGS_OUTER
100
AcDbPolyline
 90
4
 70
1
 10
34.805
 20
117.62499999999999
 10
69.35499999999999
 20
117.62499999999999
 10
69.35499999999999
 20
142.27499999999998
 10
34.805
 20
142.27499999999998
  0
TEXT
  5
3A
330
17
100
AcDbEntity
  8
OPENINGS_OUTER
100
AcDbText
 10
34.805
 20
142.87499999999997
 30
0.0
 40
1.2
  1
AC
 11
34.805
 21
142.87499999999997
 31
0.0
100
AcDbText
  0
LWPOLYLINE
  5
3B
330
17
100
AcDbEntity
  8
OPENINGS_OUTER
100
AcDbPolyline
 90
4
 70
1
 10
34.39
 20
104.255
 10
49.45
 20
104.255
 10
49.45
 20
109.845
 10
34.39
 20
109.845
  0
TEXT
  5
3C
330
17
100
AcDbEntity
  8
OPENINGS_OUTER
100
AcDbText
 10
34.39
 20
110.445
 30
0.0
 40
1.2
  1
HDMI
 11
34.39
 21
110.445
 31
0.0
100
AcDbText
  0
LWPOLYLINE
  5
3D
330
17
100
AcDbEntity
  8
OPENINGS_OUTER
100
AcDbPolyline
 90
4
 70
1
 10
35.745000000000005
 20
86.115
 10
48.655
 20
86.115
 10
48.655
 20
96.665
 10
35.745000000000005
 20
96.665
  0
TEXT
  5
3E
330
17
100
AcDbEntity
  8
OPENINGS_OUTER
100
AcDbText
 10
35.745000000000005
 20
97.265
 30
0.0
 40
1.2
  1
ETH_H1
 11
35.745000000000005
 21
97.265
 31
0.0
100
AcDbText
  0
LWPOLYLINE
  5
3F
330
17
100
AcDbEntity
  8
OPENINGS_OUTER
100
AcDbPolyline
 90
4
 70
1
 10
56.900000000000006
 20
86.405
 10
69.94
 20
86.405
 10
69.94
 20
97.07499999999999
 10
56.900000000000006
 20
97.07499999999999
  0
TEXT
  5
40
330
17
100
AcDbEntity
  8
OPENINGS_OUTER
100
AcDbText
 10
56.900000000000006
 20
97.67499999999998
 30
0.0
 40
1.2
  1
ETH_O1
 11
56.900000000000006
 21
97.67499999999998
 31
0.0
100
AcDbText
  0
LWPOLYLINE
  5
41
330
17
100
AcDbEntity
  8
OPENINGS_OUTER
100
AcDbPolyline
 90
4
 70
1
 10
38.285000000000004
 20
72.77
 10
46.635
 20
72.77
 10
46.635
 20
78.23
 10
38.285000000000004
 20
78.23
  0
TEXT
  5
42
330
17
100
AcDbEntity
  8
OPENINGS_OUTER
100
AcDbText
 10
38.285000000000004
 20
78.83
 30
0.0
 40
1.2
  1
TB_H1
 11
38.285000000000004
 21
78.83
 31
0.0
100
AcDbText
  0
LWPOLYLINE
  5
43
330
17
100
AcDbEntity
  8
OPENINGS_OUTER
100
AcDbPolyline
 90
4
 70
1
 10
38.44
 20
62.905
 10
46.92
 20
62.905
 10
46.92
 20
68.495
 10
38.44
 20
68.495
  0
TEXT
  5
44
330
17
100
AcDbEntity
  8
OPENINGS_OUTER
100
AcDbText
 10
38.44
 20
69.095
 30
0.0
 40
1.2
  1
TB_H2
 11
38.44
 21
69.095
 31
0.0
100
AcDbText
  0
LWPOLYLINE
  5
45
330
17
100
AcDbEntity
  8
OPENINGS_OUTER
100
AcDbPolyline
 90
4
 70
1
 10
38.565
 20
53.055
 10
47.175
 20
53.055
 10
47.175
 20
58.645
 10
38.565
 20
58.645
  0
TEXT
  5
46
330
17
100
AcDbEntity
  8
OPENINGS_OUTER
100
AcDbText
 10
38.565
 20
59.245000000000005
 30
0.0
 40
1.2
  1
TB_H3
 11
38.565
 21
59.245000000000005
 31
0.0
100
AcDbText
  0
LWPOLYLINE
  5
47
330
17
100
AcDbEntity
  8
OPENINGS_OUTER
100
AcDbPolyline
 90
4
 70
1
 10
59.4
 20
73.16
 10
67.88
 20
73.16
 10
67.88
 20
78.62
 10
59.4
 20
78.62
  0
TEXT
  5
48
330
17
100
AcDbEntity
  8
OPENINGS_OUTER
100
AcDbText
 10
59.4
 20
79.22
 30
0.0
 40
1.2
  1
TB_O1
 11
59.4
 21
79.22
 31
0.0
100
AcDbText
  0
LWPOLYLINE
  5
49
330
17
100
AcDbEntity
  8
OPENINGS_OUTER
100
AcDbPolyline
 90
4
 70
1
 10
59.62
 20
63.27
 10
68.1
 20
63.27
 10
68.1
 20
68.73
 10
59.62
 20
68.73
  0
TEXT
  5
4A
330
17
100
AcDbEntity
  8
OPENINGS_OUTER
100
AcDbText
 10
59.62
 20
69.33
 30
0.0
 40
1.2
  1
TB_O2
 11
59.62
 21
69.33
 31
0.0
100
AcDbText
  0
LWPOLYLINE
  5
4B
330
17
100
AcDbEntity
  8
OPENINGS_OUTER
100
AcDbPolyline
 90
4
 70
1
 10
59.79
 20
53.480000000000004
 10
68.27
 20
53.480000000000004
 10
68.27
 20
58.94
 10
59.79
 20
58.94
  0
TEXT
  5
4C
330
17
100
AcDbEntity
  8
OPENINGS_OUTER
100
AcDbText
 10
59.79
 20
59.54
 30
0.0
 40
1.2
  1
TB_O3
 11
59.79
 21
59.54
 31
0.0
100
AcDbText
  0
LWPOLYLINE
  5
4D
330
17
100
AcDbEntity
  8
OPENINGS_OUTER
100
AcDbPolyline
 90
4
 70
1
 10
36.3
 20
39.535000000000004
 10
49.84
 20
39.535000000000004
 10
49.84
 20
45.385
 10
36.3
 20
45.385
  0
TEXT
  5
4E
330
17
100
AcDbEntity
  8
OPENINGS_OUTER
100
AcDbText
 10
36.3
 20
45.985
 30
0.0
 40
1.2
  1
USB_H1
 11
36.3
 21
45.985
 31
0.0
100
AcDbText
  0
LWPOLYLINE
  5
4F
330
17
100
AcDbEntity
  8
OPENINGS_OUTER
100
AcDbPolyline
 90
4
 70
1
 10
36.57
 20
29.484999999999996
 10
49.99
 20
29.484999999999996
 10
49.99
 20
35.334999999999994
 10
36.57
 20
35.334999999999994
  0
TEXT
  5
50
330
17
100
AcDbEntity
  8
OPENINGS_OUTER
100
AcDbText
 10
36.57
 20
35.934999999999995
 30
0.0
 40
1.2
  1
USB_H2
 11
36.57
 21
35.934999999999995
 31
0.0
100
AcDbText
  0
LWPOLYLINE
  5
51
330
17
100
AcDbEntity
  8
OPENINGS_OUTER
100
AcDbPolyline
 90
4
 70
1
 10
57.515
 20
39.915000000000006
 10
70.80499999999999
 20
39.915000000000006
 10
70.80499999999999
 20
45.765
 10
57.515
 20
45.765
  0
TEXT
  5
52
330
17
100
AcDbEntity
  8
OPENINGS_OUTER
100
AcDbText
 10
57.515
 20
46.365
 30
0.0
 40
1.2
  1
USB_O1
 11
57.515
 21
46.365
 31
0.0
100
AcDbText
  0
LWPOLYLINE
  5
53
330
17
100
AcDbEntity
  8
OPENINGS_OUTER
100
AcDbPolyline
 90
4
 70
1
 10
57.735
 20
29.855
 10
71.02499999999999
 20
29.855
 10
71.02499999999999
 20
35.705
 10
57.735
 20
35.705
  0
TEXT
  5
54
330
17
100
AcDbEntity
  8
OPENINGS_OUTER
100
AcDbText
 10
57.735
 20
36.305
 30
0.0
 40
1.2
  1
USB_O2
 11
57.735
 21
36.305
 31
0.0
100
AcDbText
  0
CIRCLE
  5
55
330
17
100
AcDbEntity
  8
OPENINGS_OUTER
100
AcDbCircle
 10
64.65
 20
19.42
 30
0.0
 40
2.28
  0
TEXT
  5
56
330
17
100
AcDbEntity
  8
OPENINGS_OUTER
100
AcDbText
 10
62.370000000000005
 20
22.245000000000005
 30
0.0
 40
1.2
  1
AUDIO_O
 11
62.370000000000005
 21
22.245000000000005
 31
0.0
100
AcDbText
  0
CIRCLE
  5
57
330
17
100
AcDbEntity
  8
OPENINGS_OUTER
100
AcDbCircle
 10
43.41
 20
19.1
 30
0.0
 40
2.28
  0
TEXT
  5
58
330
17
100
AcDbEntity
  8
OPENINGS_OUTER
100
AcDbText
 10
41.129999999999995
 20
21.985000000000003
 30
0.0
 40
1.2
  1
AUDIO_H
 11
41.129999999999995
 21
21.985000000000003
 31
0.0
100
AcDbText
  0
CIRCLE
  5
59
330
17
100
AcDbEntity
  8
POWER_BUTTON
100
AcDbCircle
 10
63.02
 20
108.03
 30
0.0
 40
6.2
  0
TEXT
  5
5A
330
17
100
AcDbEntity
  8
OPENINGS_OUTER
100
AcDbText
 10
56.82
 20
114.83
 30
0.0
 40
1.2
  1
POWER_BUTTON
 11
56.82
 21
114.83
 31
0.0
100
AcDbText
  0
LWPOLYLINE
  5
5B
330
17
100
AcDbEntity
  8
ICON_WINDOWS
100
AcDbPolyline
 90
4
 70
1
 10
29.5
 20
138.23
 10
32.54
 20
138.23
 10
32.54
 20
141.79
 10
29.5
 20
141.79
  0
LWPOLYLINE
  5
5C
330
17
100
AcDbEntity
  8
OPENINGS_INNER
100
AcDbPolyline
 90
4
 70
1
 10
34.305
 20
116.93
 10
69.995
 20
116.93
 10
69.995
 20
143.11
 10
34.305
 20
143.11
  0
LWPOLYLINE
  5
5D
330
17
100
AcDbEntity
  8
ICON_WINDOWS
100
AcDbPolyline
 90
4
 70
1
 10
42.825
 20
115.005
 10
49.655
 20
115.005
 10
49.655
 20
116.275
 10
42.825
 20
116.275
  0
LWPOLYLINE
  5
5E
330
17
100
AcDbEntity
  8
ICON_WINDOWS
100
AcDbPolyline
 90
4
 70
1
 10
60.91
 20
105.89500000000001
 10
63.95
 20
105.89500000000001
 10
63.95
 20
108.185
 10
60.91
 20
108.185
  0
LWPOLYLINE
  5
5F
330
17
100
AcDbEntity
  8
OPENINGS_INNER
100
AcDbPolyline
 90
4
 70
1
 10
34.605000000000004
 20
104.0
 10
49.795
 20
104.0
 10
49.795
 20
110.1
 10
34.605000000000004
 20
110.1
  0
LWPOLYLINE
  5
60
330
17
100
AcDbEntity
  8
ICON_WINDOWS
100
AcDbPolyline
 90
4
 70
1
 10
49.47
 20
89.255
 10
55.290000000000006
 20
89.255
 10
55.290000000000006
 20
96.625
 10
49.47
 20
96.625
  0
LWPOLYLINE
  5
61
330
17
100
AcDbEntity
  8
OPENINGS_INNER
100
AcDbPolyline
 90
4
 70
1
 10
55.88
 20
86.35499999999999
 10
69.8
 20
86.35499999999999
 10
69.8
 20
97.285
 10
55.88
 20
97.285
  0
LWPOLYLINE
  5
62
330
17
100
AcDbEntity
  8
OPENINGS_INNER
100
AcDbPolyline
 90
4
 70
1
 10
35.755
 20
85.75
 10
49.425000000000004
 20
85.75
 10
49.425000000000004
 20
96.93
 10
35.755
 20
96.93
  0
LWPOLYLINE
  5
63
330
17
100
AcDbEntity
  8
ICON_WINDOWS
100
AcDbPolyline
 90
4
 70
1
 10
27.099999999999998
 20
89.06
 10
29.38
 20
89.06
 10
29.38
 20
90.84
 10
27.099999999999998
 20
90.84
  0
LWPOLYLINE
  5
64
330
17
100
AcDbEntity
  8
OPENINGS_INNER
100
AcDbPolyline
 90
4
 70
1
 10
58.585
 20
73.025
 10
67.695
 20
73.025
 10
67.695
 20
78.875
 10
58.585
 20
78.875
  0
LWPOLYLINE
  5
65
330
17
100
AcDbEntity
  8
OPENINGS_INNER
100
AcDbPolyline
 90
4
 70
1
 10
38.43
 20
72.515
 10
47.29
 20
72.515
 10
47.29
 20
78.365
 10
38.43
 20
78.365
  0
LWPOLYLINE
  5
66
330
17
100
AcDbEntity
  8
ICON_WINDOWS
100
AcDbPolyline
 90
4
 70
1
 10
41.59
 20
70.22500000000001
 10
46.91
 20
70.22500000000001
 10
46.91
 20
72.515
 10
41.59
 20
72.515
  0
LWPOLYLINE
  5
67
330
17
100
AcDbEntity
  8
OPENINGS_INNER
100
AcDbPolyline
 90
4
 70
1
 10
58.705
 20
63.144999999999996
 10
68.075
 20
63.144999999999996
 10
68.075
 20
68.99499999999999
 10
58.705
 20
68.99499999999999
  0
LWPOLYLINE
  5
68
330
17
100
AcDbEntity
  8
OPENINGS_INNER
100
AcDbPolyline
 90
4
 70
1
 10
38.68
 20
62.675
 10
47.54
 20
62.675
 10
47.54
 20
68.52499999999999
 10
38.68
 20
68.52499999999999
  0
LWPOLYLINE
  5
69
330
17
100
AcDbEntity
  8
ICON_WINDOWS
100
AcDbPolyline
 90
4
 70
1
 10
42.46
 20
60.665
 10
46.76
 20
60.665
 10
46.76
 20
62.695
 10
42.46
 20
62.695
  0
LWPOLYLINE
  5
6A
330
17
100
AcDbEntity
  8
OPENINGS_INNER
100
AcDbPolyline
 90
4
 70
1
 10
58.945
 20
53.475
 10
68.055
 20
53.475
 10
68.055
 20
59.065000000000005
 10
58.945
 20
59.065000000000005
  0
LWPOLYLINE
  5
6B
330
17
100
AcDbEntity
  8
OPENINGS_INNER
100
AcDbPolyline
 90
4
 70
1
 10
38.81
 20
52.845000000000006
 10
47.67
 20
52.845000000000006
 10
47.67
 20
58.695
 10
38.81
 20
58.695
  0
LWPOLYLINE
  5
6C
330
17
100
AcDbEntity
  8
OPENINGS_INNER
100
AcDbPolyline
 90
4
 70
1
 10
56.705
 20
39.655
 10
70.875
 20
39.655
 10
70.875
 20
46.004999999999995
 10
56.705
 20
46.004999999999995
  0
LWPOLYLINE
  5
6D
330
17
100
AcDbEntity
  8
OPENINGS_INNER
100
AcDbPolyline
 90
4
 70
1
 10
36.57
 20
39.065
 10
50.49
 20
39.065
 10
50.49
 20
45.675
 10
36.57
 20
45.675
  0
LWPOLYLINE
  5
6E
330
17
100
AcDbEntity
  8
ICON_WINDOWS
100
AcDbPolyline
 90
4
 70
1
 10
35.31
 20
36.275
 10
46.19
 20
36.275
 10
46.19
 20
39.324999999999996
 10
35.31
 20
39.324999999999996
  0
LWPOLYLINE
  5
6F
330
17
100
AcDbEntity
  8
OPENINGS_INNER
100
AcDbPolyline
 90
4
 70
1
 10
57.080000000000005
 20
29.779999999999998
 10
71.0
 20
29.779999999999998
 10
71.0
 20
35.879999999999995
 10
57.080000000000005
 20
35.879999999999995
  0
LWPOLYLINE
  5
70
330
17
100
AcDbEntity
  8
OPENINGS_INNER
100
AcDbPolyline
 90
4
 70
1
 10
36.975
 20
29.194999999999997
 10
50.645
 20
29.194999999999997
 10
50.645
 20
35.544999999999995
 10
36.975
 20
35.544999999999995
  0
LWPOLYLINE
  5
71
330
17
100
AcDbEntity
  8
ICON_WINDOWS
100
AcDbPolyline
 90
4
 70
1
 10
28.439999999999998
 20
28.395
 10
30.72
 20
28.395
 10
30.72
 20
32.205
 10
28.439999999999998
 20
32.205
  0
LWPOLYLINE
  5
72
330
17
100
AcDbEntity
  8
OPENINGS_INNER
100
AcDbPolyline
 90
4
 70
1
 10
61.83
 20
17.255
 10
67.14999999999999
 20
17.255
 10
67.14999999999999
 20
21.825
 10
61.83
 20
21.825
  0
LWPOLYLINE
  5
73
330
17
100
AcDbEntity
  8
OPENINGS_INNER
100
AcDbPolyline
 90
4
 70
1
 10
40.739999999999995
 20
16.745
 10
46.06
 20
16.745
 10
46.06
 20
21.315
 10
40.739999999999995
 20
21.315
  0
LWPOLYLINE
  5
74
330
17
100
AcDbEntity
  8
ICON_WINDOWS
100
AcDbPolyline
 90
4
 70
1
 10
42.61
 20
0.7849999999999999
 10
45.650000000000006
 20
0.7849999999999999
 10
45.650000000000006
 20
4.595
 10
42.61
 20
4.595
  0
LWPOLYLINE
  5
75
330
17
100
AcDbEntity
  8
IO_BOARD_REF
100
AcDbPolyline
 90
12
 70
1
 10
0.0
 20
7.937500000000002
 42
0.41421356237309503
 10
7.937500000000002
 20
0.0
 10
93.5774644574062
 20
0.0
 42
0.41421356237309503
 10
101.00496445740619
 20
7.427500000000001
 10
101.00496445740619
 20
149.56083679209004
 42
0.2288709468769289
 10
97.95051723864708
 20
155.88415890429343
 10
80.270967516734
 20
169.91427030442557
 42
0.16929335950121094
 10
69.63033345257904
 20
173.6233508240116
 10
30.43566483722392
 20
173.6233508240116
 42
0.16958639459035993
 10
20.68863205063183
 20
170.21953019418848
 10
2.9717485637907584
 20
156.1268614531768
 42
0.2285711881813267
 10
0.0
 20
149.96578268314852
  0
LWPOLYLINE
  5
76
330
17
100
AcDbEntity
  8
IO_BOARD_REF
100
AcDbPolyline
 90
12
 70
1
 10
34.458977768170975
 20
126.1826141334362
 42
0.41421356237309503
 10
41.07397776817098
 20
119.56761413343621
 10
60.010702720653704
 20
119.56761413343621
 42
0.41421356237309503
 10
66.4107027206537
 20
125.96761413343621
 10
66.4107027206537
 20
133.3017265547695
 42
0.198912367379658
 10
64.92426963517543
 20
136.8902934692912
 10
60.84454499614815
 20
140.9700181083185
 42
0.198912367379658
 10
57.026168377740795
 20
142.55164148991113
 10
43.65273927037098
 20
142.55164148991113
 42
0.19891236737965776
 10
40.02528148288399
 20
141.0490992773981
 10
35.93735629013188
 20
136.96117408464602
 42
0.19891236737965812
 10
34.458977768170975
 20
133.3920526066069
  0
CIRCLE
  5
77
330
17
100
AcDbEntity
  8
IO_BOARD_REF
100
AcDbCircle
 10
4.131091059144729
 20
146.7582585330182
 30
0.0
 40
1.88512606471777
  0
CIRCLE
  5
78
330
17
100
AcDbEntity
  8
IO_BOARD_REF
100
AcDbCircle
 10
96.61858252161566
 20
146.40000636770895
 30
0.0
 40
1.939409399032593
  0
CIRCLE
  5
79
330
17
100
AcDbEntity
  8
IO_BOARD_REF
100
AcDbCircle
 10
4.062131984403329
 20
77.96465919910494
 30
0.0
 40
2.1407800488173963
  0
CIRCLE
  5
7A
330
17
100
AcDbEntity
  8
IO_BOARD_REF
100
AcDbCircle
 10
96.66622845773266
 20
77.84589846111115
 30
0.0
 40
2.0599272437393665
  0
CIRCLE
  5
7B
330
17
100
AcDbEntity
  8
IO_BOARD_REF
100
AcDbCircle
 10
4.108335043626858
 20
18.79869719350808
 30
0.0
 40
1.912072707526386
  0
CIRCLE
  5
7C
330
17
100
AcDbEntity
  8
IO_BOARD_REF
100
AcDbCircle
 10
96.45974706697233
 20
18.593147160409362
 30
0.0
 40
1.8805810093879702
  0
LWPOLYLINE
  5
7D
330
17
100
AcDbEntity
  8
IO_BOARD_REF
100
AcDbPolyline
 90
4
 70
1
 10
51.28579908308096
 20
111.05010804503569
 10
34.33663168313467
 20
111.11641993243697
 10
34.31105277161805
 20
104.57850840263937
 10
51.26022017156434
 20
104.51219651523807
  0
TEXT
  5
7E
330
17
100
AcDbEntity
  8
IO_BOARD_REF
100
AcDbText
 10
42.798425927349506
 20
107.81430822383753
 30
0.0
 40
1.2
  1
HDMI
 72
1
 11
42.798425927349506
 21
107.81430822383753
 31
0.0
100
AcDbText
 73
2
  0
LWPOLYLINE
  5
7F
330
17
100
AcDbEntity
  8
IO_BOARD_REF
100
AcDbPolyline
 90
4
 70
1
 10
71.49620456341684
 20
99.76301700279525
 10
55.81822471846654
 20
99.82435549864144
 10
55.764077152528756
 20
85.98436096153742
 10
71.44205699747906
 20
85.92302246569122
  0
TEXT
  5
80
330
17
100
AcDbEntity
  8
IO_BOARD_REF
100
AcDbText
 10
63.6301408579728
 20
92.87368898216633
 30
0.0
 40
1.2
  1
ETH_1
 72
1
 11
63.6301408579728
 21
92.87368898216633
 31
0.0
100
AcDbText
 73
2
  0
LWPOLYLINE
  5
81
330
17
100
AcDbEntity
  8
IO_BOARD_REF
100
AcDbPolyline
 90
4
 70
1
 10
50.308748732515824
 20
99.5911830362106
 10
35.05449807256417
 20
99.65086373487176
 10
34.999686119314276
 20
85.64105331387691
 10
50.25393677926593
 20
85.58137261521574
  0
TEXT
  5
82
330
17
100
AcDbEntity
  8
IO_BOARD_REF
100
AcDbText
 10
42.65421742591505
 20
92.61611817504375
 30
0.0
 40
1.2
  1
ETH_2
 72
1
 11
42.65421742591505
 21
92.61611817504375
 31
0.0
100
AcDbText
 73
2
  0
LWPOLYLINE
  5
83
330
17
100
AcDbEntity
  8
IO_BOARD_REF
100
AcDbPolyline
 90
4
 70
1
 10
70.1442939499983
 20
79.13536050161247
 10
58.11038509603644
 20
79.18244194166738
 10
58.075504762150146
 20
70.26710803739792
 10
70.10941361611201
 20
70.22002659734301
  0
TEXT
  5
84
330
17
100
AcDbEntity
  8
IO_BOARD_REF
100
AcDbText
 10
64.10989935607422
 20
74.70123426950519
 30
0.0
 40
1.2
  1
TB_a1
 72
1
 11
64.10989935607422
 21
74.70123426950519
 31
0.0
100
AcDbText
 73
2
  0
LWPOLYLINE
  5
85
330
17
100
AcDbEntity
  8
IO_BOARD_REF
100
AcDbPolyline
 90
4
 70
1
 10
70.10675606686353
 20
69.54076306177961
 10
58.072847212901664
 20
69.58784450183455
 10
58.037302491703244
 20
60.50269471367423
 10
70.0712113456651
 20
60.45561327361932
  0
TEXT
  5
86
330
17
100
AcDbEntity
  8
IO_BOARD_REF
100
AcDbText
 10
64.07202927928338
 20
65.02172888772694
 30
0.0
 40
1.2
  1
TB_a2
 72
1
 11
64.07202927928338
 21
65.02172888772694
 31
0.0
100
AcDbText
 73
2
  0
LWPOLYLINE
  5
87
330
17
100
AcDbEntity
  8
IO_BOARD_REF
100
AcDbPolyline
 90
4
 70
1
 10
70.06955037738481
 20
60.03107356389222
 10
58.03564152342295
 20
60.07815500394713
 10
57.999100221256356
 20
50.738281389950544
 10
70.03300907521822
 20
50.691199949895605
  0
TEXT
  5
88
330
17
100
AcDbEntity
  8
IO_BOARD_REF
100
AcDbText
 10
64.03432529932059
 20
55.384677476921375
 30
0.0
 40
1.2
  1
TB_a3
 72
1
 11
64.03432529932059
 21
55.384677476921375
 31
0.0
100
AcDbText
 73
2
  0
LWPOLYLINE
  5
89
330
17
100
AcDbEntity
  8
IO_BOARD_REF
100
AcDbPolyline
 90
4
 70
1
 10
48.5341055150668
 20
79.2199081580491
 10
36.66968833510438
 20
79.26632647923
 10
36.63480800121809
 20
70.35099257496057
 10
48.499225181180506
 20
70.30457425377966
  0
TEXT
  5
8A
330
17
100
AcDbEntity
  8
IO_BOARD_REF
100
AcDbText
 10
42.584456758142444
 20
74.78545036650483
 30
0.0
 40
1.2
  1
TB_b1
 72
1
 11
42.584456758142444
 21
74.78545036650483
 31
0.0
100
AcDbText
 73
2
  0
LWPOLYLINE
  5
8B
330
17
100
AcDbEntity
  8
IO_BOARD_REF
100
AcDbPolyline
 90
4
 70
1
 10
48.496567631932024
 20
69.62531071821627
 10
36.63215045196961
 20
69.67172903939718
 10
36.59660573077119
 20
60.586579251236884
 10
48.461022910733604
 20
60.540160930055976
  0
TEXT
  5
8C
330
17
100
AcDbEntity
  8
IO_BOARD_REF
100
AcDbText
 10
42.546586681351606
 20
65.10594498472658
 30
0.0
 40
1.2
  1
TB_b2
 72
1
 11
42.546586681351606
 21
65.10594498472658
 31
0.0
100
AcDbText
 73
2
  0
LWPOLYLINE
  5
8D
330
17
100
AcDbEntity
  8
IO_BOARD_REF
100
AcDbPolyline
 90
4
 70
1
 10
48.45936194245331
 20
60.11562122032885
 10
36.59494476249088
 20
60.162039541509756
 10
36.558403460324286
 20
50.82216592751317
 10
48.422820640286716
 20
50.77574760633226
  0
TEXT
  5
8E
330
17
100
AcDbEntity
  8
IO_BOARD_REF
100
AcDbText
 10
42.5088827013888
 20
55.46889357392101
 30
0.0
 40
1.2
  1
TB_b3
 72
1
 11
42.5088827013888
 21
55.46889357392101
 31
0.0
100
AcDbText
 73
2
  0
LWPOLYLINE
  5
8F
330
17
100
AcDbEntity
  8
IO_BOARD_REF
100
AcDbPolyline
 90
4
 70
1
 10
72.98748659224671
 20
47.707817401510596
 10
54.76713163730446
 20
47.77910268046696
 10
54.72892936685757
 20
38.014689356743304
 10
72.94928432179982
 20
37.94340407778691
  0
TEXT
  5
90
330
17
100
AcDbEntity
  8
IO_BOARD_REF
100
AcDbText
 10
63.85820797955215
 20
42.86125337912694
 30
0.0
 40
1.2
  1
USB_a1
 72
1
 11
63.85820797955215
 21
42.86125337912694
 31
0.0
100
AcDbText
 73
2
  0
LWPOLYLINE
  5
91
330
17
100
AcDbEntity
  8
IO_BOARD_REF
100
AcDbPolyline
 90
4
 70
1
 10
72.94762335351952
 20
37.51886436805978
 10
54.727268398577266
 20
37.590149647016176
 10
54.688069547162186
 20
27.571012497456195
 10
72.90842450210444
 20
27.4997272184998
  0
TEXT
  5
92
330
17
100
AcDbEntity
  8
IO_BOARD_REF
100
AcDbText
 10
63.81784645034085
 20
32.54493843275799
 30
0.0
 40
1.2
  1
USB_a2
 72
1
 11
63.81784645034085
 21
32.54493843275799
 31
0.0
100
AcDbText
 73
2
  0
LWPOLYLINE
  5
93
330
17
100
AcDbEntity
  8
IO_BOARD_REF
100
AcDbPolyline
 90
4
 70
1
 10
53.07221489730982
 20
47.78573386920709
 10
34.004401572370284
 20
47.86033474253355
 10
33.96619930192338
 20
38.095921418809894
 10
53.03401262686293
 20
38.021320545483434
  0
TEXT
  5
94
330
17
100
AcDbEntity
  8
IO_BOARD_REF
100
AcDbText
 10
43.51920709961661
 20
42.94082764400849
 30
0.0
 40
1.2
  1
USB_b1
 72
1
 11
43.51920709961661
 21
42.94082764400849
 31
0.0
100
AcDbText
 73
2
  0
LWPOLYLINE
  5
95
330
17
100
AcDbEntity
  8
IO_BOARD_REF
100
AcDbPolyline
 90
4
 70
1
 10
53.03235165858263
 20
37.596780835756306
 10
33.96453833364308
 20
37.671381709082766
 10
33.925339482228
 20
27.652244559522785
 10
52.99315280716755
 20
27.577643686196325
  0
TEXT
  5
96
330
17
100
AcDbEntity
  8
IO_BOARD_REF
100
AcDbText
 10
43.47884557040531
 20
32.624512697639545
 30
0.0
 40
1.2
  1
USB_b2
 72
1
 11
43.47884557040531
 21
32.624512697639545
 31
0.0
100
AcDbText
 73
2
  0
LWPOLYLINE
  5
97
330
17
100
AcDbEntity
  8
IO_BOARD_REF
100
AcDbPolyline
 90
4
 70
1
 10
58.11536800087734
 20
80.45606107084873
 10
48.5390884199077
 20
80.49352728723045
 10
48.42115967200641
 20
50.35120789660516
 10
57.99743925297605
 20
50.313741680223416
  0
TEXT
  5
98
330
17
100
AcDbEntity
  8
IO_BOARD_REF
100
AcDbText
 10
53.268263836441875
 20
65.40363448372693
 30
0.0
 40
1.2
  1
TB_BRACKET
 72
1
 11
53.268263836441875
 21
65.40363448372693
 31
0.0
100
AcDbText
 73
2
  0
LWPOLYLINE
  5
99
330
17
100
AcDbEntity
  8
IO_BOARD_REF
100
AcDbPolyline
 90
4
 70
1
 10
91.35555836002233
 20
150.3761365548275
 10
69.57587825109135
 20
150.46134733013815
 10
69.50179906578998
 20
131.52687627630877
 10
91.28147917472096
 20
131.4416655009981
  0
TEXT
  5
9A
330
17
100
AcDbEntity
  8
IO_BOARD_REF
100
AcDbText
 10
80.42867871290615
 20
140.95150641556813
 30
0.0
 40
1.2
  1
SQUARE_PART_unidentified
 72
1
 11
80.42867871290615
 21
140.95150641556813
 31
0.0
100
AcDbText
 73
2
  0
CIRCLE
  5
9B
330
17
100
AcDbEntity
  8
IO_BOARD_REF
100
AcDbCircle
 10
22.337712527172442
 20
55.123265010201436
 30
0.0
 40
7.2103342054047435
  0
TEXT
  5
9C
330
17
100
AcDbEntity
  8
IO_BOARD_REF
100
AcDbText
 10
22.337712527172442
 20
55.123265010201436
 30
0.0
 40
1.2
  1
LATCH_KNOB
 72
1
 11
22.337712527172442
 21
55.123265010201436
 31
0.0
100
AcDbText
 73
2
  0
CIRCLE
  5
9D
330
17
100
AcDbEntity
  8
IO_BOARD_REF
100
AcDbCircle
 10
54.3816047227527
 20
57.54517380137568
 30
0.0
 40
1.2724119186008371
  0
TEXT
  5
9E
330
17
100
AcDbEntity
  8
IO_BOARD_REF
100
AcDbText
 10
54.3816047227527
 20
57.54517380137568
 30
0.0
 40
1.2
  1
TB_BRACKET_SCREW
 72
1
 11
54.3816047227527
 21
57.54517380137568
 31
0.0
100
AcDbText
 73
2
  0
CIRCLE
  5
9F
330
17
100
AcDbEntity
  8
IO_BOARD_REF
100
AcDbCircle
 10
20.19666380840536
 20
136.0501489078631
 30
0.0
 40
10.90032876934717
  0
TEXT
  5
A0
330
17
100
AcDbEntity
  8
IO_BOARD_REF
100
AcDbText
 10
20.19666380840536
 20
136.0501489078631
 30
0.0
 40
1.2
  1
COIN_CELL_BR2032
 72
1
 11
20.19666380840536
 21
136.0501489078631
 31
0.0
100
AcDbText
 73
2
  0
LWPOLYLINE
  5
A1
330
17
100
AcDbEntity
  8
IO_BOARD_REF
100
AcDbPolyline
 90
48
 70
1
 10
30.305445718723064
 20
77.16849488836993
 10
30.22731589051145
 20
78.38279028874973
 10
29.984882740379675
 20
79.57511417747818
 10
29.58266233921347
 20
80.72325581647169
 10
29.02814729205639
 20
81.80582749936318
 10
28.331667165054228
 20
82.80266296400467
 10
27.50619606518194
 20
83.6951930517751
 10
26.567110957178926
 20
84.46679161587102
 10
25.53190521978999
 20
85.10308523496386
 10
24.419862777218185
 20
85.5922209628437
 10
23.25169887610363
 20
85.92508712638048
 10
22.04917419967299
 20
86.0954830587545
 10
20.834689507384127
 20
86.10023460614707
 10
19.630868351161126
 20
85.93925325622058
 10
18.460135641427314
 20
85.61553778693573
 10
17.344299913453654
 20
85.13511840499211
 10
16.304147075610103
 20
84.50694441448695
 10
15.359053207220882
 20
83.74271750831255
 10
14.526623618867745
 20
82.85667378775804
 10
13.822364898764505
 20
81.86531857087832
 10
13.259396054358007
 20
80.78711892964773
 10
12.848204130041637
 20
79.64215968335034
 10
12.596448853360357
 20
78.45176925639853
 10
12.508819948779461
 20
77.23812237014127
 10
12.409161851961471
 20
51.765739786514274
 10
12.487291680173058
 20
50.55144438613445
 10
12.72972483030486
 20
49.359120497406025
 10
13.131945231471036
 20
48.210978858412545
 10
13.686460278628147
 20
47.128407175521005
 10
14.382940405630308
 20
46.131571710879484
 10
15.208411505502596
 20
45.2390416231091
 10
16.14749661350558
 20
44.46744305901319
 10
17.182702350894516
 20
43.83114943992035
 10
18.29474479346632
 20
43.34201371204048
 10
19.462908694580904
 20
43.00914754850368
 10
20.665433371011545
 20
42.83875161612971
 10
21.87991806330041
 20
42.83400006873711
 10
23.08373921952341
 20
42.9949814186636
 10
24.254471929257193
 20
43.31869688794845
 10
25.370307657230825
 20
43.79911626989207
 10
26.410460495074403
 20
44.42729026039723
 10
27.355554363463654
 20
45.19151716657166
 10
28.18798395181679
 20
46.07756088712614
 10
28.89224267192003
 20
47.068916104005865
 10
29.4552115163265
 20
48.147115745236476
 10
29.866403440642898
 20
49.292074991533894
 10
30.11815871732415
 20
50.482465418485646
 10
30.205787621905074
 20
51.69611230474291
  0
TEXT
  5
A2
330
17
100
AcDbEntity
  8
IO_BOARD_REF
100
AcDbText
 10
21.357303785342253
 20
64.46711733744212
 30
0.0
 40
1.2
  1
LATCH_SLOT
 72
1
 11
21.357303785342253
 21
64.46711733744212
 31
0.0
100
AcDbText
 73
2
  0
TEXT
  5
A3
330
17
100
AcDbEntity
  8
IO_BOARD_REF
100
AcDbText
 10
0.0
 20
-8.0
 30
0.0
 40
1.8
  1
BACK-VIEW board frame (same as io_board_outline.dxf); ports are on the far side. Port shells traced from blurred front scan, +/-1 mm. Audio jacks / power button not identifiable on this board.
 11
0.0
 21
-8.0
 31
0.0
100
AcDbText
  0
TEXT
  5
A4
330
17
100
AcDbEntity
  8
NOTES
100
AcDbText
 10
0.0
 20
-12.0
 30
0.0
 40
1.5
  1
Stock I/O plate (outer + inner scans) in the I/O BOARD back-view frame (bracket/io_board): overlays io_board_*.dxf.
 11
0.0
 21
-12.0
 31
0.0
100
AcDbText
  0
TEXT
  5
A5
330
17
100
AcDbEntity
  8
NOTES
100
AcDbText
 10
0.0
 20
-14.5
 30
0.0
 40
1.5
  1
Opening sizes = scan-axis bbox at 50 % threshold, +-0.3 (outer) / +-0.5 (inner). Registration to board ports rms 1.0 mm.
 11
0.0
 21
-14.5
 31
0.0
100
AcDbText
  0
ENDSEC
  0
SECTION
  2
OBJECTS
  0
DICTIONARY
  5
A
330
0
100
AcDbDictionary
281
1
  3
ACAD_COLOR
350
B
  3
ACAD_GROUP
350
C
  3
ACAD_LAYOUT
350
D
  3
ACAD_MATERIAL
350
E
  3
ACAD_MLEADERSTYLE
350
F
  3
ACAD_MLINESTYLE
350
10
  3
ACAD_PLOTSETTINGS
350
11
  3
ACAD_PLOTSTYLENAME
350
12
  3
ACAD_SCALELIST
350
14
  3
ACAD_TABLESTYLE
350
15
  3
ACAD_VISUALSTYLE
350
16
  3
EZDXF_META
350
2D
  0
DICTIONARY
  5
B
330
A
100
AcDbDictionary
281
1
  0
DICTIONARY
  5
C
330
A
100
AcDbDictionary
281
1
  0
DICTIONARY
  5
D
330
A
100
AcDbDictionary
281
1
  3
Model
350
1A
  3
Layout1
350
1E
  0
DICTIONARY
  5
E
330
A
100
AcDbDictionary
281
1
  3
ByBlock
350
1F
  3
ByLayer
350
20
  3
Global
350
21
  0
DICTIONARY
  5
F
330
A
100
AcDbDictionary
281
1
  3
Standard
350
2C
  0
DICTIONARY
  5
10
330
A
100
AcDbDictionary
281
1
  3
Standard
350
22
  0
DICTIONARY
  5
11
330
A
100
AcDbDictionary
281
1
  0
ACDBDICTIONARYWDFLT
  5
12
330
A
100
AcDbDictionary
281
1
  3
Normal
350
13
100
AcDbDictionaryWithDefault
340
13
  0
ACDBPLACEHOLDER
  5
13
330
12
  0
DICTIONARY
  5
14
330
A
100
AcDbDictionary
281
1
  0
DICTIONARY
  5
15
330
A
100
AcDbDictionary
281
1
  0
DICTIONARY
  5
16
330
A
100
AcDbDictionary
281
1
  0
LAYOUT
  5
1A
330
D
100
AcDbPlotSettings
  1

  4
A3
  6

 40
7.5
 41
20.0
 42
7.5
 43
20.0
 44
420.0
 45
297.0
 46
0.0
 47
0.0
 48
0.0
 49
0.0
140
0.0
141
0.0
142
1.0
143
1.0
 70
1024
 72
1
 73
0
 74
5
  7

 75
16
 76
0
 77
2
 78
300
147
1.0
148
0.0
149
0.0
100
AcDbLayout
  1
Model
 70
1
 71
0
 10
0.0
 20
0.0
 11
420.0
 21
297.0
 12
0.0
 22
0.0
 32
0.0
 14
1e+20
 24
1e+20
 34
1e+20
 15
-1e+20
 25
-1e+20
 35
-1e+20
146
0.0
 13
0.0
 23
0.0
 33
0.0
 16
1.0
 26
0.0
 36
0.0
 17
0.0
 27
1.0
 37
0.0
 76
1
330
17
  0
LAYOUT
  5
1E
330
D
100
AcDbPlotSettings
  1

  4
A3
  6

 40
7.5
 41
20.0
 42
7.5
 43
20.0
 44
420.0
 45
297.0
 46
0.0
 47
0.0
 48
0.0
 49
0.0
140
0.0
141
0.0
142
1.0
143
1.0
 70
0
 72
1
 73
0
 74
5
  7

 75
16
 76
0
 77
2
 78
300
147
1.0
148
0.0
149
0.0
100
AcDbLayout
  1
Layout1
 70
1
 71
1
 10
0.0
 20
0.0
 11
420.0
 21
297.0
 12
0.0
 22
0.0
 32
0.0
 14
1e+20
 24
1e+20
 34
1e+20
 15
-1e+20
 25
-1e+20
 35
-1e+20
146
0.0
 13
0.0
 23
0.0
 33
0.0
 16
1.0
 26
0.0
 36
0.0
 17
0.0
 27
1.0
 37
0.0
 76
1
330
1B
  0
MATERIAL
  5
1F
102
{ACAD_REACTORS
330
E
102
}
330
E
100
AcDbMaterial
  1
ByBlock
  2

 70
0
 40
1.0
 71
1
 41
1.0
 91
-1023410177
 42
1.0
 72
1
  3

 73
1
 74
1
 75
1
 44
0.5
 73
0
 45
1.0
 46
1.0
 77
1
  4

 78
1
 79
1
170
1
 48
1.0
171
1
  6

172
1
173
1
174
1
140
1.0
141
1.0
175
1
  7

176
1
177
1
178
1
143
1.0
179
1
  8

270
1
271
1
272
1
145
1.0
146
1.0
273
1
  9

274
1
275
1
276
1
 42
1.0
 72
1
  3

 73
1
 74
1
 75
1
 94
63
  0
MATERIAL
  5
20
102
{ACAD_REACTORS
330
E
102
}
330
E
100
AcDbMaterial
  1
ByLayer
  2

 70
0
 40
1.0
 71
1
 41
1.0
 91
-1023410177
 42
1.0
 72
1
  3

 73
1
 74
1
 75
1
 44
0.5
 73
0
 45
1.0
 46
1.0
 77
1
  4

 78
1
 79
1
170
1
 48
1.0
171
1
  6

172
1
173
1
174
1
140
1.0
141
1.0
175
1
  7

176
1
177
1
178
1
143
1.0
179
1
  8

270
1
271
1
272
1
145
1.0
146
1.0
273
1
  9

274
1
275
1
276
1
 42
1.0
 72
1
  3

 73
1
 74
1
 75
1
 94
63
  0
MATERIAL
  5
21
102
{ACAD_REACTORS
330
E
102
}
330
E
100
AcDbMaterial
  1
Global
  2

 70
0
 40
1.0
 71
1
 41
1.0
 91
-1023410177
 42
1.0
 72
1
  3

 73
1
 74
1
 75
1
 44
0.5
 73
0
 45
1.0
 46
1.0
 77
1
  4

 78
1
 79
1
170
1
 48
1.0
171
1
  6

172
1
173
1
174
1
140
1.0
141
1.0
175
1
  7

176
1
177
1
178
1
143
1.0
179
1
  8

270
1
271
1
272
1
145
1.0
146
1.0
273
1
  9

274
1
275
1
276
1
 42
1.0
 72
1
  3

 73
1
 74
1
 75
1
 94
63
  0
MLINESTYLE
  5
22
102
{ACAD_REACTORS
330
10
102
}
330
10
100
AcDbMlineStyle
  2
Standard
 70
0
  3

 62
256
 51
90.0
 52
90.0
 71
2
 49
0.5
 62
256
  6
BYLAYER
 49
-0.5
 62
256
  6
BYLAYER
  0
MLEADERSTYLE
  5
2C
102
{ACAD_REACTORS
330
F
102
}
330
F
100
AcDbMLeaderStyle
179
2
170
2
171
1
172
0
 90
2
 40
0.0
 41
0.0
173
1
 91
-1056964608
 92
-2
290
1
 42
2.0
291
1
 43
8.0
  3
Standard
 44
4.0
300

342
29
174
1
175
1
176
0
178
1
 93
-1056964608
 45
4.0
292
0
297
0
 46
4.0
 94
-1056964608
 47
1.0
 49
1.0
140
1.0
294
1
141
0.0
177
0
142
1.0
295
0
296
0
143
3.75
271
0
272
9
273
9
  0
DICTIONARY
  5
2D
330
A
100
AcDbDictionary
280
1
281
1
  3
CREATED_BY_EZDXF
350
2E
  3
WRITTEN_BY_EZDXF
350
A8
  0
DICTIONARYVAR
  5
2E
330
2D
100
DictionaryVariables
280
0
  1
1.4.4 @ 2026-10-01T22:01:10.305193+00:00
  0
DICTIONARYVAR
  5
A8
330
2D
100
DictionaryVariables
280
0
  1
1.4.4 @ 2026-10-01T22:01:10.323678+00:00
  0
ENDSEC
  0
EOF
