G04 #@! TF.GenerationSoftware,KiCad,Pcbnew,9.0.2+dfsg-1*
G04 #@! TF.CreationDate,2026-10-04T09:33:15-04:00*
G04 #@! TF.ProjectId,mod_usba,6d6f645f-7573-4626-912e-6b696361645f,A1*
G04 #@! TF.SameCoordinates,Original*
G04 #@! TF.FileFunction,Other,User*
%FSLAX46Y46*%
G04 Gerber Fmt 4.6, Leading zero omitted, Abs format (unit mm)*
G04 Created by KiCad (PCBNEW 9.0.2+dfsg-1) date 2026-10-04 09:33:15*
%MOMM*%
%LPD*%
G01*
G04 APERTURE LIST*
%ADD10C,0.100000*%
%ADD11C,0.084000*%
G04 APERTURE END LIST*
D10*
X91600000Y-104400000D02*
X109000000Y-104400000D01*
X109000000Y-104400000D02*
X109000000Y-95600000D01*
X91600000Y-95600000D02*
X91600000Y-104400000D01*
X117478000Y-96800000D02*
X117478000Y-103200000D01*
X132823000Y-96800000D02*
X117478000Y-96800000D01*
X117478000Y-103200000D02*
X132823000Y-103200000D01*
X109000000Y-95600000D02*
X91600000Y-95600000D01*
X132823000Y-103200000D02*
X132823000Y-96800000D01*
D11*
X90771427Y-105358917D02*
X90571427Y-105358917D01*
X90571427Y-105673203D02*
X90571427Y-105073203D01*
X90571427Y-105073203D02*
X90857141Y-105073203D01*
X91428570Y-105673203D02*
X91228570Y-105387489D01*
X91085713Y-105673203D02*
X91085713Y-105073203D01*
X91085713Y-105073203D02*
X91314284Y-105073203D01*
X91314284Y-105073203D02*
X91371427Y-105101774D01*
X91371427Y-105101774D02*
X91399998Y-105130346D01*
X91399998Y-105130346D02*
X91428570Y-105187489D01*
X91428570Y-105187489D02*
X91428570Y-105273203D01*
X91428570Y-105273203D02*
X91399998Y-105330346D01*
X91399998Y-105330346D02*
X91371427Y-105358917D01*
X91371427Y-105358917D02*
X91314284Y-105387489D01*
X91314284Y-105387489D02*
X91085713Y-105387489D01*
X91942856Y-105273203D02*
X91942856Y-105673203D01*
X91799998Y-105044632D02*
X91657141Y-105473203D01*
X91657141Y-105473203D02*
X92028570Y-105473203D01*
X93028570Y-105673203D02*
X92685713Y-105673203D01*
X92857142Y-105673203D02*
X92857142Y-105073203D01*
X92857142Y-105073203D02*
X92799999Y-105158917D01*
X92799999Y-105158917D02*
X92742856Y-105216060D01*
X92742856Y-105216060D02*
X92685713Y-105244632D01*
X93285714Y-105616060D02*
X93314285Y-105644632D01*
X93314285Y-105644632D02*
X93285714Y-105673203D01*
X93285714Y-105673203D02*
X93257142Y-105644632D01*
X93257142Y-105644632D02*
X93285714Y-105616060D01*
X93285714Y-105616060D02*
X93285714Y-105673203D01*
X93685713Y-105073203D02*
X93742856Y-105073203D01*
X93742856Y-105073203D02*
X93799999Y-105101774D01*
X93799999Y-105101774D02*
X93828571Y-105130346D01*
X93828571Y-105130346D02*
X93857142Y-105187489D01*
X93857142Y-105187489D02*
X93885713Y-105301774D01*
X93885713Y-105301774D02*
X93885713Y-105444632D01*
X93885713Y-105444632D02*
X93857142Y-105558917D01*
X93857142Y-105558917D02*
X93828571Y-105616060D01*
X93828571Y-105616060D02*
X93799999Y-105644632D01*
X93799999Y-105644632D02*
X93742856Y-105673203D01*
X93742856Y-105673203D02*
X93685713Y-105673203D01*
X93685713Y-105673203D02*
X93628571Y-105644632D01*
X93628571Y-105644632D02*
X93599999Y-105616060D01*
X93599999Y-105616060D02*
X93571428Y-105558917D01*
X93571428Y-105558917D02*
X93542856Y-105444632D01*
X93542856Y-105444632D02*
X93542856Y-105301774D01*
X93542856Y-105301774D02*
X93571428Y-105187489D01*
X93571428Y-105187489D02*
X93599999Y-105130346D01*
X93599999Y-105130346D02*
X93628571Y-105101774D01*
X93628571Y-105101774D02*
X93685713Y-105073203D01*
X94571428Y-105644632D02*
X94628571Y-105673203D01*
X94628571Y-105673203D02*
X94742857Y-105673203D01*
X94742857Y-105673203D02*
X94800000Y-105644632D01*
X94800000Y-105644632D02*
X94828571Y-105587489D01*
X94828571Y-105587489D02*
X94828571Y-105558917D01*
X94828571Y-105558917D02*
X94800000Y-105501774D01*
X94800000Y-105501774D02*
X94742857Y-105473203D01*
X94742857Y-105473203D02*
X94657143Y-105473203D01*
X94657143Y-105473203D02*
X94600000Y-105444632D01*
X94600000Y-105444632D02*
X94571428Y-105387489D01*
X94571428Y-105387489D02*
X94571428Y-105358917D01*
X94571428Y-105358917D02*
X94600000Y-105301774D01*
X94600000Y-105301774D02*
X94657143Y-105273203D01*
X94657143Y-105273203D02*
X94742857Y-105273203D01*
X94742857Y-105273203D02*
X94800000Y-105301774D01*
X94999999Y-105273203D02*
X95228571Y-105273203D01*
X95085714Y-105073203D02*
X95085714Y-105587489D01*
X95085714Y-105587489D02*
X95114285Y-105644632D01*
X95114285Y-105644632D02*
X95171428Y-105673203D01*
X95171428Y-105673203D02*
X95228571Y-105673203D01*
X95428571Y-105673203D02*
X95428571Y-105273203D01*
X95428571Y-105073203D02*
X95399999Y-105101774D01*
X95399999Y-105101774D02*
X95428571Y-105130346D01*
X95428571Y-105130346D02*
X95457142Y-105101774D01*
X95457142Y-105101774D02*
X95428571Y-105073203D01*
X95428571Y-105073203D02*
X95428571Y-105130346D01*
X95628570Y-105273203D02*
X95857142Y-105273203D01*
X95714285Y-105673203D02*
X95714285Y-105158917D01*
X95714285Y-105158917D02*
X95742856Y-105101774D01*
X95742856Y-105101774D02*
X95799999Y-105073203D01*
X95799999Y-105073203D02*
X95857142Y-105073203D01*
X95971427Y-105273203D02*
X96199999Y-105273203D01*
X96057142Y-105673203D02*
X96057142Y-105158917D01*
X96057142Y-105158917D02*
X96085713Y-105101774D01*
X96085713Y-105101774D02*
X96142856Y-105073203D01*
X96142856Y-105073203D02*
X96199999Y-105073203D01*
X96628570Y-105644632D02*
X96571427Y-105673203D01*
X96571427Y-105673203D02*
X96457142Y-105673203D01*
X96457142Y-105673203D02*
X96399999Y-105644632D01*
X96399999Y-105644632D02*
X96371427Y-105587489D01*
X96371427Y-105587489D02*
X96371427Y-105358917D01*
X96371427Y-105358917D02*
X96399999Y-105301774D01*
X96399999Y-105301774D02*
X96457142Y-105273203D01*
X96457142Y-105273203D02*
X96571427Y-105273203D01*
X96571427Y-105273203D02*
X96628570Y-105301774D01*
X96628570Y-105301774D02*
X96657142Y-105358917D01*
X96657142Y-105358917D02*
X96657142Y-105416060D01*
X96657142Y-105416060D02*
X96371427Y-105473203D01*
X96914285Y-105273203D02*
X96914285Y-105673203D01*
X96914285Y-105330346D02*
X96942856Y-105301774D01*
X96942856Y-105301774D02*
X96999999Y-105273203D01*
X96999999Y-105273203D02*
X97085713Y-105273203D01*
X97085713Y-105273203D02*
X97142856Y-105301774D01*
X97142856Y-105301774D02*
X97171428Y-105358917D01*
X97171428Y-105358917D02*
X97171428Y-105673203D01*
X97685713Y-105644632D02*
X97628570Y-105673203D01*
X97628570Y-105673203D02*
X97514285Y-105673203D01*
X97514285Y-105673203D02*
X97457142Y-105644632D01*
X97457142Y-105644632D02*
X97428570Y-105587489D01*
X97428570Y-105587489D02*
X97428570Y-105358917D01*
X97428570Y-105358917D02*
X97457142Y-105301774D01*
X97457142Y-105301774D02*
X97514285Y-105273203D01*
X97514285Y-105273203D02*
X97628570Y-105273203D01*
X97628570Y-105273203D02*
X97685713Y-105301774D01*
X97685713Y-105301774D02*
X97714285Y-105358917D01*
X97714285Y-105358917D02*
X97714285Y-105416060D01*
X97714285Y-105416060D02*
X97428570Y-105473203D01*
X97971428Y-105673203D02*
X97971428Y-105273203D01*
X97971428Y-105387489D02*
X97999999Y-105330346D01*
X97999999Y-105330346D02*
X98028571Y-105301774D01*
X98028571Y-105301774D02*
X98085713Y-105273203D01*
X98085713Y-105273203D02*
X98142856Y-105273203D01*
X98971428Y-105901774D02*
X98942857Y-105873203D01*
X98942857Y-105873203D02*
X98885714Y-105787489D01*
X98885714Y-105787489D02*
X98857143Y-105730346D01*
X98857143Y-105730346D02*
X98828571Y-105644632D01*
X98828571Y-105644632D02*
X98800000Y-105501774D01*
X98800000Y-105501774D02*
X98800000Y-105387489D01*
X98800000Y-105387489D02*
X98828571Y-105244632D01*
X98828571Y-105244632D02*
X98857143Y-105158917D01*
X98857143Y-105158917D02*
X98885714Y-105101774D01*
X98885714Y-105101774D02*
X98942857Y-105016060D01*
X98942857Y-105016060D02*
X98971428Y-104987489D01*
X99400000Y-105358917D02*
X99485714Y-105387489D01*
X99485714Y-105387489D02*
X99514285Y-105416060D01*
X99514285Y-105416060D02*
X99542857Y-105473203D01*
X99542857Y-105473203D02*
X99542857Y-105558917D01*
X99542857Y-105558917D02*
X99514285Y-105616060D01*
X99514285Y-105616060D02*
X99485714Y-105644632D01*
X99485714Y-105644632D02*
X99428571Y-105673203D01*
X99428571Y-105673203D02*
X99200000Y-105673203D01*
X99200000Y-105673203D02*
X99200000Y-105073203D01*
X99200000Y-105073203D02*
X99400000Y-105073203D01*
X99400000Y-105073203D02*
X99457143Y-105101774D01*
X99457143Y-105101774D02*
X99485714Y-105130346D01*
X99485714Y-105130346D02*
X99514285Y-105187489D01*
X99514285Y-105187489D02*
X99514285Y-105244632D01*
X99514285Y-105244632D02*
X99485714Y-105301774D01*
X99485714Y-105301774D02*
X99457143Y-105330346D01*
X99457143Y-105330346D02*
X99400000Y-105358917D01*
X99400000Y-105358917D02*
X99200000Y-105358917D01*
X99828571Y-105644632D02*
X99828571Y-105673203D01*
X99828571Y-105673203D02*
X99800000Y-105730346D01*
X99800000Y-105730346D02*
X99771428Y-105758917D01*
X100542857Y-105673203D02*
X100542857Y-105073203D01*
X100542857Y-105073203D02*
X100771428Y-105073203D01*
X100771428Y-105073203D02*
X100828571Y-105101774D01*
X100828571Y-105101774D02*
X100857142Y-105130346D01*
X100857142Y-105130346D02*
X100885714Y-105187489D01*
X100885714Y-105187489D02*
X100885714Y-105273203D01*
X100885714Y-105273203D02*
X100857142Y-105330346D01*
X100857142Y-105330346D02*
X100828571Y-105358917D01*
X100828571Y-105358917D02*
X100771428Y-105387489D01*
X100771428Y-105387489D02*
X100542857Y-105387489D01*
X101114285Y-105644632D02*
X101200000Y-105673203D01*
X101200000Y-105673203D02*
X101342857Y-105673203D01*
X101342857Y-105673203D02*
X101400000Y-105644632D01*
X101400000Y-105644632D02*
X101428571Y-105616060D01*
X101428571Y-105616060D02*
X101457142Y-105558917D01*
X101457142Y-105558917D02*
X101457142Y-105501774D01*
X101457142Y-105501774D02*
X101428571Y-105444632D01*
X101428571Y-105444632D02*
X101400000Y-105416060D01*
X101400000Y-105416060D02*
X101342857Y-105387489D01*
X101342857Y-105387489D02*
X101228571Y-105358917D01*
X101228571Y-105358917D02*
X101171428Y-105330346D01*
X101171428Y-105330346D02*
X101142857Y-105301774D01*
X101142857Y-105301774D02*
X101114285Y-105244632D01*
X101114285Y-105244632D02*
X101114285Y-105187489D01*
X101114285Y-105187489D02*
X101142857Y-105130346D01*
X101142857Y-105130346D02*
X101171428Y-105101774D01*
X101171428Y-105101774D02*
X101228571Y-105073203D01*
X101228571Y-105073203D02*
X101371428Y-105073203D01*
X101371428Y-105073203D02*
X101457142Y-105101774D01*
X101685714Y-105501774D02*
X101971429Y-105501774D01*
X101628571Y-105673203D02*
X101828571Y-105073203D01*
X101828571Y-105073203D02*
X102028571Y-105673203D01*
X102171429Y-105901774D02*
X102200000Y-105873203D01*
X102200000Y-105873203D02*
X102257143Y-105787489D01*
X102257143Y-105787489D02*
X102285715Y-105730346D01*
X102285715Y-105730346D02*
X102314286Y-105644632D01*
X102314286Y-105644632D02*
X102342857Y-105501774D01*
X102342857Y-105501774D02*
X102342857Y-105387489D01*
X102342857Y-105387489D02*
X102314286Y-105244632D01*
X102314286Y-105244632D02*
X102285715Y-105158917D01*
X102285715Y-105158917D02*
X102257143Y-105101774D01*
X102257143Y-105101774D02*
X102200000Y-105016060D01*
X102200000Y-105016060D02*
X102171429Y-104987489D01*
X103342858Y-105273203D02*
X103342858Y-105673203D01*
X103085715Y-105273203D02*
X103085715Y-105587489D01*
X103085715Y-105587489D02*
X103114286Y-105644632D01*
X103114286Y-105644632D02*
X103171429Y-105673203D01*
X103171429Y-105673203D02*
X103257143Y-105673203D01*
X103257143Y-105673203D02*
X103314286Y-105644632D01*
X103314286Y-105644632D02*
X103342858Y-105616060D01*
X103628572Y-105273203D02*
X103628572Y-105673203D01*
X103628572Y-105330346D02*
X103657143Y-105301774D01*
X103657143Y-105301774D02*
X103714286Y-105273203D01*
X103714286Y-105273203D02*
X103800000Y-105273203D01*
X103800000Y-105273203D02*
X103857143Y-105301774D01*
X103857143Y-105301774D02*
X103885715Y-105358917D01*
X103885715Y-105358917D02*
X103885715Y-105673203D01*
X104428572Y-105673203D02*
X104428572Y-105073203D01*
X104428572Y-105644632D02*
X104371429Y-105673203D01*
X104371429Y-105673203D02*
X104257143Y-105673203D01*
X104257143Y-105673203D02*
X104200000Y-105644632D01*
X104200000Y-105644632D02*
X104171429Y-105616060D01*
X104171429Y-105616060D02*
X104142857Y-105558917D01*
X104142857Y-105558917D02*
X104142857Y-105387489D01*
X104142857Y-105387489D02*
X104171429Y-105330346D01*
X104171429Y-105330346D02*
X104200000Y-105301774D01*
X104200000Y-105301774D02*
X104257143Y-105273203D01*
X104257143Y-105273203D02*
X104371429Y-105273203D01*
X104371429Y-105273203D02*
X104428572Y-105301774D01*
X104942857Y-105644632D02*
X104885714Y-105673203D01*
X104885714Y-105673203D02*
X104771429Y-105673203D01*
X104771429Y-105673203D02*
X104714286Y-105644632D01*
X104714286Y-105644632D02*
X104685714Y-105587489D01*
X104685714Y-105587489D02*
X104685714Y-105358917D01*
X104685714Y-105358917D02*
X104714286Y-105301774D01*
X104714286Y-105301774D02*
X104771429Y-105273203D01*
X104771429Y-105273203D02*
X104885714Y-105273203D01*
X104885714Y-105273203D02*
X104942857Y-105301774D01*
X104942857Y-105301774D02*
X104971429Y-105358917D01*
X104971429Y-105358917D02*
X104971429Y-105416060D01*
X104971429Y-105416060D02*
X104685714Y-105473203D01*
X105228572Y-105673203D02*
X105228572Y-105273203D01*
X105228572Y-105387489D02*
X105257143Y-105330346D01*
X105257143Y-105330346D02*
X105285715Y-105301774D01*
X105285715Y-105301774D02*
X105342857Y-105273203D01*
X105342857Y-105273203D02*
X105400000Y-105273203D01*
X105971429Y-105273203D02*
X106200001Y-105273203D01*
X106057144Y-105073203D02*
X106057144Y-105587489D01*
X106057144Y-105587489D02*
X106085715Y-105644632D01*
X106085715Y-105644632D02*
X106142858Y-105673203D01*
X106142858Y-105673203D02*
X106200001Y-105673203D01*
X106400001Y-105673203D02*
X106400001Y-105073203D01*
X106657144Y-105673203D02*
X106657144Y-105358917D01*
X106657144Y-105358917D02*
X106628572Y-105301774D01*
X106628572Y-105301774D02*
X106571429Y-105273203D01*
X106571429Y-105273203D02*
X106485715Y-105273203D01*
X106485715Y-105273203D02*
X106428572Y-105301774D01*
X106428572Y-105301774D02*
X106400001Y-105330346D01*
X107171429Y-105644632D02*
X107114286Y-105673203D01*
X107114286Y-105673203D02*
X107000001Y-105673203D01*
X107000001Y-105673203D02*
X106942858Y-105644632D01*
X106942858Y-105644632D02*
X106914286Y-105587489D01*
X106914286Y-105587489D02*
X106914286Y-105358917D01*
X106914286Y-105358917D02*
X106942858Y-105301774D01*
X106942858Y-105301774D02*
X107000001Y-105273203D01*
X107000001Y-105273203D02*
X107114286Y-105273203D01*
X107114286Y-105273203D02*
X107171429Y-105301774D01*
X107171429Y-105301774D02*
X107200001Y-105358917D01*
X107200001Y-105358917D02*
X107200001Y-105416060D01*
X107200001Y-105416060D02*
X106914286Y-105473203D01*
X107914287Y-105273203D02*
X107914287Y-105873203D01*
X107914287Y-105301774D02*
X107971430Y-105273203D01*
X107971430Y-105273203D02*
X108085715Y-105273203D01*
X108085715Y-105273203D02*
X108142858Y-105301774D01*
X108142858Y-105301774D02*
X108171430Y-105330346D01*
X108171430Y-105330346D02*
X108200001Y-105387489D01*
X108200001Y-105387489D02*
X108200001Y-105558917D01*
X108200001Y-105558917D02*
X108171430Y-105616060D01*
X108171430Y-105616060D02*
X108142858Y-105644632D01*
X108142858Y-105644632D02*
X108085715Y-105673203D01*
X108085715Y-105673203D02*
X107971430Y-105673203D01*
X107971430Y-105673203D02*
X107914287Y-105644632D01*
X108542858Y-105673203D02*
X108485715Y-105644632D01*
X108485715Y-105644632D02*
X108457144Y-105616060D01*
X108457144Y-105616060D02*
X108428572Y-105558917D01*
X108428572Y-105558917D02*
X108428572Y-105387489D01*
X108428572Y-105387489D02*
X108457144Y-105330346D01*
X108457144Y-105330346D02*
X108485715Y-105301774D01*
X108485715Y-105301774D02*
X108542858Y-105273203D01*
X108542858Y-105273203D02*
X108628572Y-105273203D01*
X108628572Y-105273203D02*
X108685715Y-105301774D01*
X108685715Y-105301774D02*
X108714287Y-105330346D01*
X108714287Y-105330346D02*
X108742858Y-105387489D01*
X108742858Y-105387489D02*
X108742858Y-105558917D01*
X108742858Y-105558917D02*
X108714287Y-105616060D01*
X108714287Y-105616060D02*
X108685715Y-105644632D01*
X108685715Y-105644632D02*
X108628572Y-105673203D01*
X108628572Y-105673203D02*
X108542858Y-105673203D01*
X109000001Y-105673203D02*
X109000001Y-105273203D01*
X109000001Y-105387489D02*
X109028572Y-105330346D01*
X109028572Y-105330346D02*
X109057144Y-105301774D01*
X109057144Y-105301774D02*
X109114286Y-105273203D01*
X109114286Y-105273203D02*
X109171429Y-105273203D01*
X109285715Y-105273203D02*
X109514287Y-105273203D01*
X109371430Y-105073203D02*
X109371430Y-105587489D01*
X109371430Y-105587489D02*
X109400001Y-105644632D01*
X109400001Y-105644632D02*
X109457144Y-105673203D01*
X109457144Y-105673203D02*
X109514287Y-105673203D01*
X113035856Y-104158917D02*
X112835856Y-104158917D01*
X112835856Y-104473203D02*
X112835856Y-103873203D01*
X112835856Y-103873203D02*
X113121570Y-103873203D01*
X113692999Y-104473203D02*
X113492999Y-104187489D01*
X113350142Y-104473203D02*
X113350142Y-103873203D01*
X113350142Y-103873203D02*
X113578713Y-103873203D01*
X113578713Y-103873203D02*
X113635856Y-103901774D01*
X113635856Y-103901774D02*
X113664427Y-103930346D01*
X113664427Y-103930346D02*
X113692999Y-103987489D01*
X113692999Y-103987489D02*
X113692999Y-104073203D01*
X113692999Y-104073203D02*
X113664427Y-104130346D01*
X113664427Y-104130346D02*
X113635856Y-104158917D01*
X113635856Y-104158917D02*
X113578713Y-104187489D01*
X113578713Y-104187489D02*
X113350142Y-104187489D01*
X114207285Y-104073203D02*
X114207285Y-104473203D01*
X114064427Y-103844632D02*
X113921570Y-104273203D01*
X113921570Y-104273203D02*
X114292999Y-104273203D01*
X115092999Y-103873203D02*
X115150142Y-103873203D01*
X115150142Y-103873203D02*
X115207285Y-103901774D01*
X115207285Y-103901774D02*
X115235857Y-103930346D01*
X115235857Y-103930346D02*
X115264428Y-103987489D01*
X115264428Y-103987489D02*
X115292999Y-104101774D01*
X115292999Y-104101774D02*
X115292999Y-104244632D01*
X115292999Y-104244632D02*
X115264428Y-104358917D01*
X115264428Y-104358917D02*
X115235857Y-104416060D01*
X115235857Y-104416060D02*
X115207285Y-104444632D01*
X115207285Y-104444632D02*
X115150142Y-104473203D01*
X115150142Y-104473203D02*
X115092999Y-104473203D01*
X115092999Y-104473203D02*
X115035857Y-104444632D01*
X115035857Y-104444632D02*
X115007285Y-104416060D01*
X115007285Y-104416060D02*
X114978714Y-104358917D01*
X114978714Y-104358917D02*
X114950142Y-104244632D01*
X114950142Y-104244632D02*
X114950142Y-104101774D01*
X114950142Y-104101774D02*
X114978714Y-103987489D01*
X114978714Y-103987489D02*
X115007285Y-103930346D01*
X115007285Y-103930346D02*
X115035857Y-103901774D01*
X115035857Y-103901774D02*
X115092999Y-103873203D01*
X115550143Y-104416060D02*
X115578714Y-104444632D01*
X115578714Y-104444632D02*
X115550143Y-104473203D01*
X115550143Y-104473203D02*
X115521571Y-104444632D01*
X115521571Y-104444632D02*
X115550143Y-104416060D01*
X115550143Y-104416060D02*
X115550143Y-104473203D01*
X116093000Y-103873203D02*
X115978714Y-103873203D01*
X115978714Y-103873203D02*
X115921571Y-103901774D01*
X115921571Y-103901774D02*
X115893000Y-103930346D01*
X115893000Y-103930346D02*
X115835857Y-104016060D01*
X115835857Y-104016060D02*
X115807285Y-104130346D01*
X115807285Y-104130346D02*
X115807285Y-104358917D01*
X115807285Y-104358917D02*
X115835857Y-104416060D01*
X115835857Y-104416060D02*
X115864428Y-104444632D01*
X115864428Y-104444632D02*
X115921571Y-104473203D01*
X115921571Y-104473203D02*
X116035857Y-104473203D01*
X116035857Y-104473203D02*
X116093000Y-104444632D01*
X116093000Y-104444632D02*
X116121571Y-104416060D01*
X116121571Y-104416060D02*
X116150142Y-104358917D01*
X116150142Y-104358917D02*
X116150142Y-104216060D01*
X116150142Y-104216060D02*
X116121571Y-104158917D01*
X116121571Y-104158917D02*
X116093000Y-104130346D01*
X116093000Y-104130346D02*
X116035857Y-104101774D01*
X116035857Y-104101774D02*
X115921571Y-104101774D01*
X115921571Y-104101774D02*
X115864428Y-104130346D01*
X115864428Y-104130346D02*
X115835857Y-104158917D01*
X115835857Y-104158917D02*
X115807285Y-104216060D01*
X116835857Y-104444632D02*
X116893000Y-104473203D01*
X116893000Y-104473203D02*
X117007286Y-104473203D01*
X117007286Y-104473203D02*
X117064429Y-104444632D01*
X117064429Y-104444632D02*
X117093000Y-104387489D01*
X117093000Y-104387489D02*
X117093000Y-104358917D01*
X117093000Y-104358917D02*
X117064429Y-104301774D01*
X117064429Y-104301774D02*
X117007286Y-104273203D01*
X117007286Y-104273203D02*
X116921572Y-104273203D01*
X116921572Y-104273203D02*
X116864429Y-104244632D01*
X116864429Y-104244632D02*
X116835857Y-104187489D01*
X116835857Y-104187489D02*
X116835857Y-104158917D01*
X116835857Y-104158917D02*
X116864429Y-104101774D01*
X116864429Y-104101774D02*
X116921572Y-104073203D01*
X116921572Y-104073203D02*
X117007286Y-104073203D01*
X117007286Y-104073203D02*
X117064429Y-104101774D01*
X117264428Y-104073203D02*
X117493000Y-104073203D01*
X117350143Y-103873203D02*
X117350143Y-104387489D01*
X117350143Y-104387489D02*
X117378714Y-104444632D01*
X117378714Y-104444632D02*
X117435857Y-104473203D01*
X117435857Y-104473203D02*
X117493000Y-104473203D01*
X117693000Y-104473203D02*
X117693000Y-104073203D01*
X117693000Y-103873203D02*
X117664428Y-103901774D01*
X117664428Y-103901774D02*
X117693000Y-103930346D01*
X117693000Y-103930346D02*
X117721571Y-103901774D01*
X117721571Y-103901774D02*
X117693000Y-103873203D01*
X117693000Y-103873203D02*
X117693000Y-103930346D01*
X117892999Y-104073203D02*
X118121571Y-104073203D01*
X117978714Y-104473203D02*
X117978714Y-103958917D01*
X117978714Y-103958917D02*
X118007285Y-103901774D01*
X118007285Y-103901774D02*
X118064428Y-103873203D01*
X118064428Y-103873203D02*
X118121571Y-103873203D01*
X118235856Y-104073203D02*
X118464428Y-104073203D01*
X118321571Y-104473203D02*
X118321571Y-103958917D01*
X118321571Y-103958917D02*
X118350142Y-103901774D01*
X118350142Y-103901774D02*
X118407285Y-103873203D01*
X118407285Y-103873203D02*
X118464428Y-103873203D01*
X118892999Y-104444632D02*
X118835856Y-104473203D01*
X118835856Y-104473203D02*
X118721571Y-104473203D01*
X118721571Y-104473203D02*
X118664428Y-104444632D01*
X118664428Y-104444632D02*
X118635856Y-104387489D01*
X118635856Y-104387489D02*
X118635856Y-104158917D01*
X118635856Y-104158917D02*
X118664428Y-104101774D01*
X118664428Y-104101774D02*
X118721571Y-104073203D01*
X118721571Y-104073203D02*
X118835856Y-104073203D01*
X118835856Y-104073203D02*
X118892999Y-104101774D01*
X118892999Y-104101774D02*
X118921571Y-104158917D01*
X118921571Y-104158917D02*
X118921571Y-104216060D01*
X118921571Y-104216060D02*
X118635856Y-104273203D01*
X119178714Y-104073203D02*
X119178714Y-104473203D01*
X119178714Y-104130346D02*
X119207285Y-104101774D01*
X119207285Y-104101774D02*
X119264428Y-104073203D01*
X119264428Y-104073203D02*
X119350142Y-104073203D01*
X119350142Y-104073203D02*
X119407285Y-104101774D01*
X119407285Y-104101774D02*
X119435857Y-104158917D01*
X119435857Y-104158917D02*
X119435857Y-104473203D01*
X119950142Y-104444632D02*
X119892999Y-104473203D01*
X119892999Y-104473203D02*
X119778714Y-104473203D01*
X119778714Y-104473203D02*
X119721571Y-104444632D01*
X119721571Y-104444632D02*
X119692999Y-104387489D01*
X119692999Y-104387489D02*
X119692999Y-104158917D01*
X119692999Y-104158917D02*
X119721571Y-104101774D01*
X119721571Y-104101774D02*
X119778714Y-104073203D01*
X119778714Y-104073203D02*
X119892999Y-104073203D01*
X119892999Y-104073203D02*
X119950142Y-104101774D01*
X119950142Y-104101774D02*
X119978714Y-104158917D01*
X119978714Y-104158917D02*
X119978714Y-104216060D01*
X119978714Y-104216060D02*
X119692999Y-104273203D01*
X120235857Y-104473203D02*
X120235857Y-104073203D01*
X120235857Y-104187489D02*
X120264428Y-104130346D01*
X120264428Y-104130346D02*
X120293000Y-104101774D01*
X120293000Y-104101774D02*
X120350142Y-104073203D01*
X120350142Y-104073203D02*
X120407285Y-104073203D01*
X121235857Y-104701774D02*
X121207286Y-104673203D01*
X121207286Y-104673203D02*
X121150143Y-104587489D01*
X121150143Y-104587489D02*
X121121572Y-104530346D01*
X121121572Y-104530346D02*
X121093000Y-104444632D01*
X121093000Y-104444632D02*
X121064429Y-104301774D01*
X121064429Y-104301774D02*
X121064429Y-104187489D01*
X121064429Y-104187489D02*
X121093000Y-104044632D01*
X121093000Y-104044632D02*
X121121572Y-103958917D01*
X121121572Y-103958917D02*
X121150143Y-103901774D01*
X121150143Y-103901774D02*
X121207286Y-103816060D01*
X121207286Y-103816060D02*
X121235857Y-103787489D01*
X121664429Y-104158917D02*
X121750143Y-104187489D01*
X121750143Y-104187489D02*
X121778714Y-104216060D01*
X121778714Y-104216060D02*
X121807286Y-104273203D01*
X121807286Y-104273203D02*
X121807286Y-104358917D01*
X121807286Y-104358917D02*
X121778714Y-104416060D01*
X121778714Y-104416060D02*
X121750143Y-104444632D01*
X121750143Y-104444632D02*
X121693000Y-104473203D01*
X121693000Y-104473203D02*
X121464429Y-104473203D01*
X121464429Y-104473203D02*
X121464429Y-103873203D01*
X121464429Y-103873203D02*
X121664429Y-103873203D01*
X121664429Y-103873203D02*
X121721572Y-103901774D01*
X121721572Y-103901774D02*
X121750143Y-103930346D01*
X121750143Y-103930346D02*
X121778714Y-103987489D01*
X121778714Y-103987489D02*
X121778714Y-104044632D01*
X121778714Y-104044632D02*
X121750143Y-104101774D01*
X121750143Y-104101774D02*
X121721572Y-104130346D01*
X121721572Y-104130346D02*
X121664429Y-104158917D01*
X121664429Y-104158917D02*
X121464429Y-104158917D01*
X122007286Y-104701774D02*
X122035857Y-104673203D01*
X122035857Y-104673203D02*
X122093000Y-104587489D01*
X122093000Y-104587489D02*
X122121572Y-104530346D01*
X122121572Y-104530346D02*
X122150143Y-104444632D01*
X122150143Y-104444632D02*
X122178714Y-104301774D01*
X122178714Y-104301774D02*
X122178714Y-104187489D01*
X122178714Y-104187489D02*
X122150143Y-104044632D01*
X122150143Y-104044632D02*
X122121572Y-103958917D01*
X122121572Y-103958917D02*
X122093000Y-103901774D01*
X122093000Y-103901774D02*
X122035857Y-103816060D01*
X122035857Y-103816060D02*
X122007286Y-103787489D01*
X123178715Y-104073203D02*
X123178715Y-104473203D01*
X122921572Y-104073203D02*
X122921572Y-104387489D01*
X122921572Y-104387489D02*
X122950143Y-104444632D01*
X122950143Y-104444632D02*
X123007286Y-104473203D01*
X123007286Y-104473203D02*
X123093000Y-104473203D01*
X123093000Y-104473203D02*
X123150143Y-104444632D01*
X123150143Y-104444632D02*
X123178715Y-104416060D01*
X123464429Y-104073203D02*
X123464429Y-104473203D01*
X123464429Y-104130346D02*
X123493000Y-104101774D01*
X123493000Y-104101774D02*
X123550143Y-104073203D01*
X123550143Y-104073203D02*
X123635857Y-104073203D01*
X123635857Y-104073203D02*
X123693000Y-104101774D01*
X123693000Y-104101774D02*
X123721572Y-104158917D01*
X123721572Y-104158917D02*
X123721572Y-104473203D01*
X124264429Y-104473203D02*
X124264429Y-103873203D01*
X124264429Y-104444632D02*
X124207286Y-104473203D01*
X124207286Y-104473203D02*
X124093000Y-104473203D01*
X124093000Y-104473203D02*
X124035857Y-104444632D01*
X124035857Y-104444632D02*
X124007286Y-104416060D01*
X124007286Y-104416060D02*
X123978714Y-104358917D01*
X123978714Y-104358917D02*
X123978714Y-104187489D01*
X123978714Y-104187489D02*
X124007286Y-104130346D01*
X124007286Y-104130346D02*
X124035857Y-104101774D01*
X124035857Y-104101774D02*
X124093000Y-104073203D01*
X124093000Y-104073203D02*
X124207286Y-104073203D01*
X124207286Y-104073203D02*
X124264429Y-104101774D01*
X124778714Y-104444632D02*
X124721571Y-104473203D01*
X124721571Y-104473203D02*
X124607286Y-104473203D01*
X124607286Y-104473203D02*
X124550143Y-104444632D01*
X124550143Y-104444632D02*
X124521571Y-104387489D01*
X124521571Y-104387489D02*
X124521571Y-104158917D01*
X124521571Y-104158917D02*
X124550143Y-104101774D01*
X124550143Y-104101774D02*
X124607286Y-104073203D01*
X124607286Y-104073203D02*
X124721571Y-104073203D01*
X124721571Y-104073203D02*
X124778714Y-104101774D01*
X124778714Y-104101774D02*
X124807286Y-104158917D01*
X124807286Y-104158917D02*
X124807286Y-104216060D01*
X124807286Y-104216060D02*
X124521571Y-104273203D01*
X125064429Y-104473203D02*
X125064429Y-104073203D01*
X125064429Y-104187489D02*
X125093000Y-104130346D01*
X125093000Y-104130346D02*
X125121572Y-104101774D01*
X125121572Y-104101774D02*
X125178714Y-104073203D01*
X125178714Y-104073203D02*
X125235857Y-104073203D01*
X125807286Y-104073203D02*
X126035858Y-104073203D01*
X125893001Y-103873203D02*
X125893001Y-104387489D01*
X125893001Y-104387489D02*
X125921572Y-104444632D01*
X125921572Y-104444632D02*
X125978715Y-104473203D01*
X125978715Y-104473203D02*
X126035858Y-104473203D01*
X126235858Y-104473203D02*
X126235858Y-103873203D01*
X126493001Y-104473203D02*
X126493001Y-104158917D01*
X126493001Y-104158917D02*
X126464429Y-104101774D01*
X126464429Y-104101774D02*
X126407286Y-104073203D01*
X126407286Y-104073203D02*
X126321572Y-104073203D01*
X126321572Y-104073203D02*
X126264429Y-104101774D01*
X126264429Y-104101774D02*
X126235858Y-104130346D01*
X127007286Y-104444632D02*
X126950143Y-104473203D01*
X126950143Y-104473203D02*
X126835858Y-104473203D01*
X126835858Y-104473203D02*
X126778715Y-104444632D01*
X126778715Y-104444632D02*
X126750143Y-104387489D01*
X126750143Y-104387489D02*
X126750143Y-104158917D01*
X126750143Y-104158917D02*
X126778715Y-104101774D01*
X126778715Y-104101774D02*
X126835858Y-104073203D01*
X126835858Y-104073203D02*
X126950143Y-104073203D01*
X126950143Y-104073203D02*
X127007286Y-104101774D01*
X127007286Y-104101774D02*
X127035858Y-104158917D01*
X127035858Y-104158917D02*
X127035858Y-104216060D01*
X127035858Y-104216060D02*
X126750143Y-104273203D01*
X127750144Y-104473203D02*
X127750144Y-103873203D01*
X128007287Y-104473203D02*
X128007287Y-104158917D01*
X128007287Y-104158917D02*
X127978715Y-104101774D01*
X127978715Y-104101774D02*
X127921572Y-104073203D01*
X127921572Y-104073203D02*
X127835858Y-104073203D01*
X127835858Y-104073203D02*
X127778715Y-104101774D01*
X127778715Y-104101774D02*
X127750144Y-104130346D01*
X128521572Y-104444632D02*
X128464429Y-104473203D01*
X128464429Y-104473203D02*
X128350144Y-104473203D01*
X128350144Y-104473203D02*
X128293001Y-104444632D01*
X128293001Y-104444632D02*
X128264429Y-104387489D01*
X128264429Y-104387489D02*
X128264429Y-104158917D01*
X128264429Y-104158917D02*
X128293001Y-104101774D01*
X128293001Y-104101774D02*
X128350144Y-104073203D01*
X128350144Y-104073203D02*
X128464429Y-104073203D01*
X128464429Y-104073203D02*
X128521572Y-104101774D01*
X128521572Y-104101774D02*
X128550144Y-104158917D01*
X128550144Y-104158917D02*
X128550144Y-104216060D01*
X128550144Y-104216060D02*
X128264429Y-104273203D01*
X129064430Y-104473203D02*
X129064430Y-104158917D01*
X129064430Y-104158917D02*
X129035858Y-104101774D01*
X129035858Y-104101774D02*
X128978715Y-104073203D01*
X128978715Y-104073203D02*
X128864430Y-104073203D01*
X128864430Y-104073203D02*
X128807287Y-104101774D01*
X129064430Y-104444632D02*
X129007287Y-104473203D01*
X129007287Y-104473203D02*
X128864430Y-104473203D01*
X128864430Y-104473203D02*
X128807287Y-104444632D01*
X128807287Y-104444632D02*
X128778715Y-104387489D01*
X128778715Y-104387489D02*
X128778715Y-104330346D01*
X128778715Y-104330346D02*
X128807287Y-104273203D01*
X128807287Y-104273203D02*
X128864430Y-104244632D01*
X128864430Y-104244632D02*
X129007287Y-104244632D01*
X129007287Y-104244632D02*
X129064430Y-104216060D01*
X129607287Y-104473203D02*
X129607287Y-103873203D01*
X129607287Y-104444632D02*
X129550144Y-104473203D01*
X129550144Y-104473203D02*
X129435858Y-104473203D01*
X129435858Y-104473203D02*
X129378715Y-104444632D01*
X129378715Y-104444632D02*
X129350144Y-104416060D01*
X129350144Y-104416060D02*
X129321572Y-104358917D01*
X129321572Y-104358917D02*
X129321572Y-104187489D01*
X129321572Y-104187489D02*
X129350144Y-104130346D01*
X129350144Y-104130346D02*
X129378715Y-104101774D01*
X129378715Y-104101774D02*
X129435858Y-104073203D01*
X129435858Y-104073203D02*
X129550144Y-104073203D01*
X129550144Y-104073203D02*
X129607287Y-104101774D01*
X130121572Y-104444632D02*
X130064429Y-104473203D01*
X130064429Y-104473203D02*
X129950144Y-104473203D01*
X129950144Y-104473203D02*
X129893001Y-104444632D01*
X129893001Y-104444632D02*
X129864429Y-104387489D01*
X129864429Y-104387489D02*
X129864429Y-104158917D01*
X129864429Y-104158917D02*
X129893001Y-104101774D01*
X129893001Y-104101774D02*
X129950144Y-104073203D01*
X129950144Y-104073203D02*
X130064429Y-104073203D01*
X130064429Y-104073203D02*
X130121572Y-104101774D01*
X130121572Y-104101774D02*
X130150144Y-104158917D01*
X130150144Y-104158917D02*
X130150144Y-104216060D01*
X130150144Y-104216060D02*
X129864429Y-104273203D01*
X130407287Y-104473203D02*
X130407287Y-104073203D01*
X130407287Y-104187489D02*
X130435858Y-104130346D01*
X130435858Y-104130346D02*
X130464430Y-104101774D01*
X130464430Y-104101774D02*
X130521572Y-104073203D01*
X130521572Y-104073203D02*
X130578715Y-104073203D01*
X131235859Y-104073203D02*
X131235859Y-104673203D01*
X131235859Y-104101774D02*
X131293002Y-104073203D01*
X131293002Y-104073203D02*
X131407287Y-104073203D01*
X131407287Y-104073203D02*
X131464430Y-104101774D01*
X131464430Y-104101774D02*
X131493002Y-104130346D01*
X131493002Y-104130346D02*
X131521573Y-104187489D01*
X131521573Y-104187489D02*
X131521573Y-104358917D01*
X131521573Y-104358917D02*
X131493002Y-104416060D01*
X131493002Y-104416060D02*
X131464430Y-104444632D01*
X131464430Y-104444632D02*
X131407287Y-104473203D01*
X131407287Y-104473203D02*
X131293002Y-104473203D01*
X131293002Y-104473203D02*
X131235859Y-104444632D01*
X132035859Y-104473203D02*
X132035859Y-104158917D01*
X132035859Y-104158917D02*
X132007287Y-104101774D01*
X132007287Y-104101774D02*
X131950144Y-104073203D01*
X131950144Y-104073203D02*
X131835859Y-104073203D01*
X131835859Y-104073203D02*
X131778716Y-104101774D01*
X132035859Y-104444632D02*
X131978716Y-104473203D01*
X131978716Y-104473203D02*
X131835859Y-104473203D01*
X131835859Y-104473203D02*
X131778716Y-104444632D01*
X131778716Y-104444632D02*
X131750144Y-104387489D01*
X131750144Y-104387489D02*
X131750144Y-104330346D01*
X131750144Y-104330346D02*
X131778716Y-104273203D01*
X131778716Y-104273203D02*
X131835859Y-104244632D01*
X131835859Y-104244632D02*
X131978716Y-104244632D01*
X131978716Y-104244632D02*
X132035859Y-104216060D01*
X132578716Y-104473203D02*
X132578716Y-103873203D01*
X132578716Y-104444632D02*
X132521573Y-104473203D01*
X132521573Y-104473203D02*
X132407287Y-104473203D01*
X132407287Y-104473203D02*
X132350144Y-104444632D01*
X132350144Y-104444632D02*
X132321573Y-104416060D01*
X132321573Y-104416060D02*
X132293001Y-104358917D01*
X132293001Y-104358917D02*
X132293001Y-104187489D01*
X132293001Y-104187489D02*
X132321573Y-104130346D01*
X132321573Y-104130346D02*
X132350144Y-104101774D01*
X132350144Y-104101774D02*
X132407287Y-104073203D01*
X132407287Y-104073203D02*
X132521573Y-104073203D01*
X132521573Y-104073203D02*
X132578716Y-104101774D01*
X133121573Y-104473203D02*
X133121573Y-103873203D01*
X133121573Y-104444632D02*
X133064430Y-104473203D01*
X133064430Y-104473203D02*
X132950144Y-104473203D01*
X132950144Y-104473203D02*
X132893001Y-104444632D01*
X132893001Y-104444632D02*
X132864430Y-104416060D01*
X132864430Y-104416060D02*
X132835858Y-104358917D01*
X132835858Y-104358917D02*
X132835858Y-104187489D01*
X132835858Y-104187489D02*
X132864430Y-104130346D01*
X132864430Y-104130346D02*
X132893001Y-104101774D01*
X132893001Y-104101774D02*
X132950144Y-104073203D01*
X132950144Y-104073203D02*
X133064430Y-104073203D01*
X133064430Y-104073203D02*
X133121573Y-104101774D01*
X133493001Y-104473203D02*
X133435858Y-104444632D01*
X133435858Y-104444632D02*
X133407287Y-104387489D01*
X133407287Y-104387489D02*
X133407287Y-103873203D01*
X133950144Y-104444632D02*
X133893001Y-104473203D01*
X133893001Y-104473203D02*
X133778716Y-104473203D01*
X133778716Y-104473203D02*
X133721573Y-104444632D01*
X133721573Y-104444632D02*
X133693001Y-104387489D01*
X133693001Y-104387489D02*
X133693001Y-104158917D01*
X133693001Y-104158917D02*
X133721573Y-104101774D01*
X133721573Y-104101774D02*
X133778716Y-104073203D01*
X133778716Y-104073203D02*
X133893001Y-104073203D01*
X133893001Y-104073203D02*
X133950144Y-104101774D01*
X133950144Y-104101774D02*
X133978716Y-104158917D01*
X133978716Y-104158917D02*
X133978716Y-104216060D01*
X133978716Y-104216060D02*
X133693001Y-104273203D01*
M02*
