%TF.GenerationSoftware,KiCad,Pcbnew,9.0.2+dfsg-1*%
%TF.CreationDate,2026-10-04T10:33:51-04:00*%
%TF.ProjectId,mod_usba,6d6f645f-7573-4626-912e-6b696361645f,A1*%
%TF.SameCoordinates,Original*%
%TF.FileFunction,Drillmap*%
%TF.FilePolarity,Positive*%
%FSLAX45Y45*%
G04 Gerber Fmt 4.5, Leading zero omitted, Abs format (unit mm)*
G04 Created by KiCad (PCBNEW 9.0.2+dfsg-1) date 2026-10-04 10:33:51*
%MOMM*%
%LPD*%
G01*
G04 APERTURE LIST*
%ADD10C,0.050000*%
%ADD11C,0.200000*%
%ADD12C,0.100000*%
%ADD13C,0.230000*%
G04 APERTURE END LIST*
D10*
X13325800Y-9675000D02*
G75*
G02*
X13365800Y-9715000I0J-40000D01*
G01*
X10900000Y-9635000D02*
X10900000Y-9600000D01*
X10860000Y-9560000D02*
X9200000Y-9560000D01*
X10900000Y-10365000D02*
G75*
G02*
X10940000Y-10325000I40000J0D01*
G01*
X13365800Y-10285000D02*
G75*
G02*
X13325800Y-10325000I-40000J0D01*
G01*
X10900000Y-10400000D02*
X10900000Y-10365000D01*
X10900000Y-10400000D02*
G75*
G02*
X10860000Y-10440000I-40000J0D01*
G01*
X13365800Y-10285000D02*
X13365800Y-9715000D01*
X13325800Y-9675000D02*
X10940000Y-9675000D01*
X10940000Y-10325000D02*
X13325800Y-10325000D01*
X10860000Y-9560000D02*
G75*
G02*
X10900000Y-9600000I0J-40000D01*
G01*
X10940000Y-9675000D02*
G75*
G02*
X10900000Y-9635000I0J40000D01*
G01*
X9160000Y-9600000D02*
G75*
G02*
X9200000Y-9560000I40000J0D01*
G01*
X9200000Y-10440000D02*
G75*
G02*
X9160000Y-10400000I0J40000D01*
G01*
X9160000Y-9600000D02*
X9160000Y-10400000D01*
X9200000Y-10440000D02*
X10860000Y-10440000D01*
D11*
D12*
X10473129Y-10013205D02*
X10503129Y-10043205D01*
X10503129Y-10013205D02*
X10473129Y-10043205D01*
X10750000Y-10320000D02*
X10780000Y-10350000D01*
X10780000Y-10320000D02*
X10750000Y-10350000D01*
X10810000Y-10320000D02*
X10840000Y-10350000D01*
X10840000Y-10320000D02*
X10810000Y-10350000D01*
X10840000Y-9950000D02*
X10870000Y-9980000D01*
X10870000Y-9950000D02*
X10840000Y-9980000D01*
X10840000Y-10020000D02*
X10870000Y-10050000D01*
X10870000Y-10020000D02*
X10840000Y-10050000D01*
X11832800Y-9950000D02*
X11862800Y-9980000D01*
X11862800Y-9950000D02*
X11832800Y-9980000D01*
X11832800Y-10020000D02*
X11862800Y-10050000D01*
X11862800Y-10020000D02*
X11832800Y-10050000D01*
X12187800Y-9985000D02*
X12217800Y-10015000D01*
X12217800Y-9985000D02*
X12187800Y-10015000D01*
X12287800Y-9985000D02*
X12317800Y-10015000D01*
X12317800Y-9985000D02*
X12287800Y-10015000D01*
X12407800Y-9985000D02*
X12437800Y-10015000D01*
X12437800Y-9985000D02*
X12407800Y-10015000D01*
X12527800Y-9985000D02*
X12557800Y-10015000D01*
X12557800Y-9985000D02*
X12527800Y-10015000D01*
X12647800Y-9985000D02*
X12677800Y-10015000D01*
X12677800Y-9985000D02*
X12647800Y-10015000D01*
X12717800Y-9985000D02*
X12747800Y-10015000D01*
X12747800Y-9985000D02*
X12717800Y-10015000D01*
X12867800Y-10225000D02*
X12897800Y-10255000D01*
X12897800Y-10225000D02*
X12867800Y-10255000D01*
X12887800Y-9745000D02*
X12917800Y-9775000D01*
X12917800Y-9745000D02*
X12887800Y-9775000D01*
X13103506Y-9786288D02*
X13133506Y-9816288D01*
X13133506Y-9786288D02*
X13103506Y-9816288D01*
X13231300Y-10230000D02*
X13261300Y-10260000D01*
X13261300Y-10230000D02*
X13231300Y-10260000D01*
X13275300Y-9840000D02*
X13305300Y-9870000D01*
X13305300Y-9840000D02*
X13275300Y-9870000D01*
X13275300Y-10130000D02*
X13305300Y-10160000D01*
X13305300Y-10130000D02*
X13275300Y-10160000D01*
X9637500Y-9920000D02*
G75*
G02*
X9562500Y-9920000I-37500J0D01*
G01*
X9562500Y-9920000D02*
G75*
G02*
X9637500Y-9920000I37500J0D01*
G01*
X9687500Y-10080000D02*
G75*
G02*
X9612500Y-10080000I-37500J0D01*
G01*
X9612500Y-10080000D02*
G75*
G02*
X9687500Y-10080000I37500J0D01*
G01*
X9837500Y-9920000D02*
G75*
G02*
X9762500Y-9920000I-37500J0D01*
G01*
X9762500Y-9920000D02*
G75*
G02*
X9837500Y-9920000I37500J0D01*
G01*
X9937500Y-10080000D02*
G75*
G02*
X9862500Y-10080000I-37500J0D01*
G01*
X9862500Y-10080000D02*
G75*
G02*
X9937500Y-10080000I37500J0D01*
G01*
X10037500Y-9920000D02*
G75*
G02*
X9962500Y-9920000I-37500J0D01*
G01*
X9962500Y-9920000D02*
G75*
G02*
X10037500Y-9920000I37500J0D01*
G01*
X10137500Y-10080000D02*
G75*
G02*
X10062500Y-10080000I-37500J0D01*
G01*
X10062500Y-10080000D02*
G75*
G02*
X10137500Y-10080000I37500J0D01*
G01*
X10237500Y-9920000D02*
G75*
G02*
X10162500Y-9920000I-37500J0D01*
G01*
X10162500Y-9920000D02*
G75*
G02*
X10237500Y-9920000I37500J0D01*
G01*
X10387500Y-10080000D02*
G75*
G02*
X10312500Y-10080000I-37500J0D01*
G01*
X10312500Y-10080000D02*
G75*
G02*
X10387500Y-10080000I37500J0D01*
G01*
X10437500Y-9920000D02*
G75*
G02*
X10362500Y-9920000I-37500J0D01*
G01*
X10362500Y-9920000D02*
G75*
G02*
X10437500Y-9920000I37500J0D01*
G01*
D13*
X9342500Y-9950000D02*
X9342500Y-10180000D01*
X9227500Y-10065000D02*
X9457500Y-10065000D01*
X10657500Y-9950000D02*
X10657500Y-10180000D01*
X10542500Y-10065000D02*
X10772500Y-10065000D01*
D11*
X9418277Y-10753984D02*
X9418277Y-10553984D01*
X9418277Y-10553984D02*
X9465896Y-10553984D01*
X9465896Y-10553984D02*
X9494467Y-10563508D01*
X9494467Y-10563508D02*
X9513515Y-10582555D01*
X9513515Y-10582555D02*
X9523039Y-10601603D01*
X9523039Y-10601603D02*
X9532563Y-10639698D01*
X9532563Y-10639698D02*
X9532563Y-10668270D01*
X9532563Y-10668270D02*
X9523039Y-10706365D01*
X9523039Y-10706365D02*
X9513515Y-10725412D01*
X9513515Y-10725412D02*
X9494467Y-10744460D01*
X9494467Y-10744460D02*
X9465896Y-10753984D01*
X9465896Y-10753984D02*
X9418277Y-10753984D01*
X9618277Y-10753984D02*
X9618277Y-10620650D01*
X9618277Y-10658746D02*
X9627801Y-10639698D01*
X9627801Y-10639698D02*
X9637324Y-10630174D01*
X9637324Y-10630174D02*
X9656372Y-10620650D01*
X9656372Y-10620650D02*
X9675420Y-10620650D01*
X9742086Y-10753984D02*
X9742086Y-10620650D01*
X9742086Y-10553984D02*
X9732563Y-10563508D01*
X9732563Y-10563508D02*
X9742086Y-10573031D01*
X9742086Y-10573031D02*
X9751610Y-10563508D01*
X9751610Y-10563508D02*
X9742086Y-10553984D01*
X9742086Y-10553984D02*
X9742086Y-10573031D01*
X9865896Y-10753984D02*
X9846848Y-10744460D01*
X9846848Y-10744460D02*
X9837324Y-10725412D01*
X9837324Y-10725412D02*
X9837324Y-10553984D01*
X9970658Y-10753984D02*
X9951610Y-10744460D01*
X9951610Y-10744460D02*
X9942086Y-10725412D01*
X9942086Y-10725412D02*
X9942086Y-10553984D01*
X10199229Y-10753984D02*
X10199229Y-10553984D01*
X10199229Y-10553984D02*
X10265896Y-10696841D01*
X10265896Y-10696841D02*
X10332563Y-10553984D01*
X10332563Y-10553984D02*
X10332563Y-10753984D01*
X10513515Y-10753984D02*
X10513515Y-10649222D01*
X10513515Y-10649222D02*
X10503991Y-10630174D01*
X10503991Y-10630174D02*
X10484944Y-10620650D01*
X10484944Y-10620650D02*
X10446848Y-10620650D01*
X10446848Y-10620650D02*
X10427801Y-10630174D01*
X10513515Y-10744460D02*
X10494467Y-10753984D01*
X10494467Y-10753984D02*
X10446848Y-10753984D01*
X10446848Y-10753984D02*
X10427801Y-10744460D01*
X10427801Y-10744460D02*
X10418277Y-10725412D01*
X10418277Y-10725412D02*
X10418277Y-10706365D01*
X10418277Y-10706365D02*
X10427801Y-10687317D01*
X10427801Y-10687317D02*
X10446848Y-10677793D01*
X10446848Y-10677793D02*
X10494467Y-10677793D01*
X10494467Y-10677793D02*
X10513515Y-10668270D01*
X10608753Y-10620650D02*
X10608753Y-10820650D01*
X10608753Y-10630174D02*
X10627801Y-10620650D01*
X10627801Y-10620650D02*
X10665896Y-10620650D01*
X10665896Y-10620650D02*
X10684944Y-10630174D01*
X10684944Y-10630174D02*
X10694467Y-10639698D01*
X10694467Y-10639698D02*
X10703991Y-10658746D01*
X10703991Y-10658746D02*
X10703991Y-10715889D01*
X10703991Y-10715889D02*
X10694467Y-10734936D01*
X10694467Y-10734936D02*
X10684944Y-10744460D01*
X10684944Y-10744460D02*
X10665896Y-10753984D01*
X10665896Y-10753984D02*
X10627801Y-10753984D01*
X10627801Y-10753984D02*
X10608753Y-10744460D01*
X10789705Y-10734936D02*
X10799229Y-10744460D01*
X10799229Y-10744460D02*
X10789705Y-10753984D01*
X10789705Y-10753984D02*
X10780182Y-10744460D01*
X10780182Y-10744460D02*
X10789705Y-10734936D01*
X10789705Y-10734936D02*
X10789705Y-10753984D01*
X10789705Y-10630174D02*
X10799229Y-10639698D01*
X10799229Y-10639698D02*
X10789705Y-10649222D01*
X10789705Y-10649222D02*
X10780182Y-10639698D01*
X10780182Y-10639698D02*
X10789705Y-10630174D01*
X10789705Y-10630174D02*
X10789705Y-10649222D01*
D12*
X9127500Y-11067500D02*
X9157500Y-11097500D01*
X9157500Y-11067500D02*
X9127500Y-11097500D01*
D11*
X9456372Y-10973984D02*
X9475420Y-10973984D01*
X9475420Y-10973984D02*
X9494467Y-10983508D01*
X9494467Y-10983508D02*
X9503991Y-10993031D01*
X9503991Y-10993031D02*
X9513515Y-11012079D01*
X9513515Y-11012079D02*
X9523039Y-11050174D01*
X9523039Y-11050174D02*
X9523039Y-11097793D01*
X9523039Y-11097793D02*
X9513515Y-11135889D01*
X9513515Y-11135889D02*
X9503991Y-11154936D01*
X9503991Y-11154936D02*
X9494467Y-11164460D01*
X9494467Y-11164460D02*
X9475420Y-11173984D01*
X9475420Y-11173984D02*
X9456372Y-11173984D01*
X9456372Y-11173984D02*
X9437324Y-11164460D01*
X9437324Y-11164460D02*
X9427801Y-11154936D01*
X9427801Y-11154936D02*
X9418277Y-11135889D01*
X9418277Y-11135889D02*
X9408753Y-11097793D01*
X9408753Y-11097793D02*
X9408753Y-11050174D01*
X9408753Y-11050174D02*
X9418277Y-11012079D01*
X9418277Y-11012079D02*
X9427801Y-10993031D01*
X9427801Y-10993031D02*
X9437324Y-10983508D01*
X9437324Y-10983508D02*
X9456372Y-10973984D01*
X9608753Y-11154936D02*
X9618277Y-11164460D01*
X9618277Y-11164460D02*
X9608753Y-11173984D01*
X9608753Y-11173984D02*
X9599229Y-11164460D01*
X9599229Y-11164460D02*
X9608753Y-11154936D01*
X9608753Y-11154936D02*
X9608753Y-11173984D01*
X9684944Y-10973984D02*
X9808753Y-10973984D01*
X9808753Y-10973984D02*
X9742086Y-11050174D01*
X9742086Y-11050174D02*
X9770658Y-11050174D01*
X9770658Y-11050174D02*
X9789705Y-11059698D01*
X9789705Y-11059698D02*
X9799229Y-11069222D01*
X9799229Y-11069222D02*
X9808753Y-11088270D01*
X9808753Y-11088270D02*
X9808753Y-11135889D01*
X9808753Y-11135889D02*
X9799229Y-11154936D01*
X9799229Y-11154936D02*
X9789705Y-11164460D01*
X9789705Y-11164460D02*
X9770658Y-11173984D01*
X9770658Y-11173984D02*
X9713515Y-11173984D01*
X9713515Y-11173984D02*
X9694467Y-11164460D01*
X9694467Y-11164460D02*
X9684944Y-11154936D01*
X9932563Y-10973984D02*
X9951610Y-10973984D01*
X9951610Y-10973984D02*
X9970658Y-10983508D01*
X9970658Y-10983508D02*
X9980182Y-10993031D01*
X9980182Y-10993031D02*
X9989705Y-11012079D01*
X9989705Y-11012079D02*
X9999229Y-11050174D01*
X9999229Y-11050174D02*
X9999229Y-11097793D01*
X9999229Y-11097793D02*
X9989705Y-11135889D01*
X9989705Y-11135889D02*
X9980182Y-11154936D01*
X9980182Y-11154936D02*
X9970658Y-11164460D01*
X9970658Y-11164460D02*
X9951610Y-11173984D01*
X9951610Y-11173984D02*
X9932563Y-11173984D01*
X9932563Y-11173984D02*
X9913515Y-11164460D01*
X9913515Y-11164460D02*
X9903991Y-11154936D01*
X9903991Y-11154936D02*
X9894467Y-11135889D01*
X9894467Y-11135889D02*
X9884944Y-11097793D01*
X9884944Y-11097793D02*
X9884944Y-11050174D01*
X9884944Y-11050174D02*
X9894467Y-11012079D01*
X9894467Y-11012079D02*
X9903991Y-10993031D01*
X9903991Y-10993031D02*
X9913515Y-10983508D01*
X9913515Y-10983508D02*
X9932563Y-10973984D01*
X10123039Y-10973984D02*
X10142086Y-10973984D01*
X10142086Y-10973984D02*
X10161134Y-10983508D01*
X10161134Y-10983508D02*
X10170658Y-10993031D01*
X10170658Y-10993031D02*
X10180182Y-11012079D01*
X10180182Y-11012079D02*
X10189705Y-11050174D01*
X10189705Y-11050174D02*
X10189705Y-11097793D01*
X10189705Y-11097793D02*
X10180182Y-11135889D01*
X10180182Y-11135889D02*
X10170658Y-11154936D01*
X10170658Y-11154936D02*
X10161134Y-11164460D01*
X10161134Y-11164460D02*
X10142086Y-11173984D01*
X10142086Y-11173984D02*
X10123039Y-11173984D01*
X10123039Y-11173984D02*
X10103991Y-11164460D01*
X10103991Y-11164460D02*
X10094467Y-11154936D01*
X10094467Y-11154936D02*
X10084944Y-11135889D01*
X10084944Y-11135889D02*
X10075420Y-11097793D01*
X10075420Y-11097793D02*
X10075420Y-11050174D01*
X10075420Y-11050174D02*
X10084944Y-11012079D01*
X10084944Y-11012079D02*
X10094467Y-10993031D01*
X10094467Y-10993031D02*
X10103991Y-10983508D01*
X10103991Y-10983508D02*
X10123039Y-10973984D01*
X10275420Y-11173984D02*
X10275420Y-11040650D01*
X10275420Y-11059698D02*
X10284944Y-11050174D01*
X10284944Y-11050174D02*
X10303991Y-11040650D01*
X10303991Y-11040650D02*
X10332563Y-11040650D01*
X10332563Y-11040650D02*
X10351610Y-11050174D01*
X10351610Y-11050174D02*
X10361134Y-11069222D01*
X10361134Y-11069222D02*
X10361134Y-11173984D01*
X10361134Y-11069222D02*
X10370658Y-11050174D01*
X10370658Y-11050174D02*
X10389705Y-11040650D01*
X10389705Y-11040650D02*
X10418277Y-11040650D01*
X10418277Y-11040650D02*
X10437325Y-11050174D01*
X10437325Y-11050174D02*
X10446848Y-11069222D01*
X10446848Y-11069222D02*
X10446848Y-11173984D01*
X10542086Y-11173984D02*
X10542086Y-11040650D01*
X10542086Y-11059698D02*
X10551610Y-11050174D01*
X10551610Y-11050174D02*
X10570658Y-11040650D01*
X10570658Y-11040650D02*
X10599229Y-11040650D01*
X10599229Y-11040650D02*
X10618277Y-11050174D01*
X10618277Y-11050174D02*
X10627801Y-11069222D01*
X10627801Y-11069222D02*
X10627801Y-11173984D01*
X10627801Y-11069222D02*
X10637325Y-11050174D01*
X10637325Y-11050174D02*
X10656372Y-11040650D01*
X10656372Y-11040650D02*
X10684944Y-11040650D01*
X10684944Y-11040650D02*
X10703991Y-11050174D01*
X10703991Y-11050174D02*
X10713515Y-11069222D01*
X10713515Y-11069222D02*
X10713515Y-11173984D01*
X11103991Y-10964460D02*
X10932563Y-11221603D01*
X11361134Y-10973984D02*
X11380182Y-10973984D01*
X11380182Y-10973984D02*
X11399229Y-10983508D01*
X11399229Y-10983508D02*
X11408753Y-10993031D01*
X11408753Y-10993031D02*
X11418277Y-11012079D01*
X11418277Y-11012079D02*
X11427801Y-11050174D01*
X11427801Y-11050174D02*
X11427801Y-11097793D01*
X11427801Y-11097793D02*
X11418277Y-11135889D01*
X11418277Y-11135889D02*
X11408753Y-11154936D01*
X11408753Y-11154936D02*
X11399229Y-11164460D01*
X11399229Y-11164460D02*
X11380182Y-11173984D01*
X11380182Y-11173984D02*
X11361134Y-11173984D01*
X11361134Y-11173984D02*
X11342086Y-11164460D01*
X11342086Y-11164460D02*
X11332563Y-11154936D01*
X11332563Y-11154936D02*
X11323039Y-11135889D01*
X11323039Y-11135889D02*
X11313515Y-11097793D01*
X11313515Y-11097793D02*
X11313515Y-11050174D01*
X11313515Y-11050174D02*
X11323039Y-11012079D01*
X11323039Y-11012079D02*
X11332563Y-10993031D01*
X11332563Y-10993031D02*
X11342086Y-10983508D01*
X11342086Y-10983508D02*
X11361134Y-10973984D01*
X11513515Y-11154936D02*
X11523039Y-11164460D01*
X11523039Y-11164460D02*
X11513515Y-11173984D01*
X11513515Y-11173984D02*
X11503991Y-11164460D01*
X11503991Y-11164460D02*
X11513515Y-11154936D01*
X11513515Y-11154936D02*
X11513515Y-11173984D01*
X11646848Y-10973984D02*
X11665896Y-10973984D01*
X11665896Y-10973984D02*
X11684944Y-10983508D01*
X11684944Y-10983508D02*
X11694467Y-10993031D01*
X11694467Y-10993031D02*
X11703991Y-11012079D01*
X11703991Y-11012079D02*
X11713515Y-11050174D01*
X11713515Y-11050174D02*
X11713515Y-11097793D01*
X11713515Y-11097793D02*
X11703991Y-11135889D01*
X11703991Y-11135889D02*
X11694467Y-11154936D01*
X11694467Y-11154936D02*
X11684944Y-11164460D01*
X11684944Y-11164460D02*
X11665896Y-11173984D01*
X11665896Y-11173984D02*
X11646848Y-11173984D01*
X11646848Y-11173984D02*
X11627801Y-11164460D01*
X11627801Y-11164460D02*
X11618277Y-11154936D01*
X11618277Y-11154936D02*
X11608753Y-11135889D01*
X11608753Y-11135889D02*
X11599229Y-11097793D01*
X11599229Y-11097793D02*
X11599229Y-11050174D01*
X11599229Y-11050174D02*
X11608753Y-11012079D01*
X11608753Y-11012079D02*
X11618277Y-10993031D01*
X11618277Y-10993031D02*
X11627801Y-10983508D01*
X11627801Y-10983508D02*
X11646848Y-10973984D01*
X11903991Y-11173984D02*
X11789706Y-11173984D01*
X11846848Y-11173984D02*
X11846848Y-10973984D01*
X11846848Y-10973984D02*
X11827801Y-11002555D01*
X11827801Y-11002555D02*
X11808753Y-11021603D01*
X11808753Y-11021603D02*
X11789706Y-11031127D01*
X12094467Y-11173984D02*
X11980182Y-11173984D01*
X12037325Y-11173984D02*
X12037325Y-10973984D01*
X12037325Y-10973984D02*
X12018277Y-11002555D01*
X12018277Y-11002555D02*
X11999229Y-11021603D01*
X11999229Y-11021603D02*
X11980182Y-11031127D01*
X12208753Y-11059698D02*
X12189706Y-11050174D01*
X12189706Y-11050174D02*
X12180182Y-11040650D01*
X12180182Y-11040650D02*
X12170658Y-11021603D01*
X12170658Y-11021603D02*
X12170658Y-11012079D01*
X12170658Y-11012079D02*
X12180182Y-10993031D01*
X12180182Y-10993031D02*
X12189706Y-10983508D01*
X12189706Y-10983508D02*
X12208753Y-10973984D01*
X12208753Y-10973984D02*
X12246848Y-10973984D01*
X12246848Y-10973984D02*
X12265896Y-10983508D01*
X12265896Y-10983508D02*
X12275420Y-10993031D01*
X12275420Y-10993031D02*
X12284944Y-11012079D01*
X12284944Y-11012079D02*
X12284944Y-11021603D01*
X12284944Y-11021603D02*
X12275420Y-11040650D01*
X12275420Y-11040650D02*
X12265896Y-11050174D01*
X12265896Y-11050174D02*
X12246848Y-11059698D01*
X12246848Y-11059698D02*
X12208753Y-11059698D01*
X12208753Y-11059698D02*
X12189706Y-11069222D01*
X12189706Y-11069222D02*
X12180182Y-11078746D01*
X12180182Y-11078746D02*
X12170658Y-11097793D01*
X12170658Y-11097793D02*
X12170658Y-11135889D01*
X12170658Y-11135889D02*
X12180182Y-11154936D01*
X12180182Y-11154936D02*
X12189706Y-11164460D01*
X12189706Y-11164460D02*
X12208753Y-11173984D01*
X12208753Y-11173984D02*
X12246848Y-11173984D01*
X12246848Y-11173984D02*
X12265896Y-11164460D01*
X12265896Y-11164460D02*
X12275420Y-11154936D01*
X12275420Y-11154936D02*
X12284944Y-11135889D01*
X12284944Y-11135889D02*
X12284944Y-11097793D01*
X12284944Y-11097793D02*
X12275420Y-11078746D01*
X12275420Y-11078746D02*
X12265896Y-11069222D01*
X12265896Y-11069222D02*
X12246848Y-11059698D01*
X12361134Y-10973984D02*
X12361134Y-11012079D01*
X12437325Y-10973984D02*
X12437325Y-11012079D01*
X12732563Y-11250174D02*
X12723039Y-11240650D01*
X12723039Y-11240650D02*
X12703991Y-11212079D01*
X12703991Y-11212079D02*
X12694468Y-11193031D01*
X12694468Y-11193031D02*
X12684944Y-11164460D01*
X12684944Y-11164460D02*
X12675420Y-11116841D01*
X12675420Y-11116841D02*
X12675420Y-11078746D01*
X12675420Y-11078746D02*
X12684944Y-11031127D01*
X12684944Y-11031127D02*
X12694468Y-11002555D01*
X12694468Y-11002555D02*
X12703991Y-10983508D01*
X12703991Y-10983508D02*
X12723039Y-10954936D01*
X12723039Y-10954936D02*
X12732563Y-10945412D01*
X12913515Y-11173984D02*
X12799229Y-11173984D01*
X12856372Y-11173984D02*
X12856372Y-10973984D01*
X12856372Y-10973984D02*
X12837325Y-11002555D01*
X12837325Y-11002555D02*
X12818277Y-11021603D01*
X12818277Y-11021603D02*
X12799229Y-11031127D01*
X13008753Y-11173984D02*
X13046848Y-11173984D01*
X13046848Y-11173984D02*
X13065896Y-11164460D01*
X13065896Y-11164460D02*
X13075420Y-11154936D01*
X13075420Y-11154936D02*
X13094468Y-11126365D01*
X13094468Y-11126365D02*
X13103991Y-11088270D01*
X13103991Y-11088270D02*
X13103991Y-11012079D01*
X13103991Y-11012079D02*
X13094468Y-10993031D01*
X13094468Y-10993031D02*
X13084944Y-10983508D01*
X13084944Y-10983508D02*
X13065896Y-10973984D01*
X13065896Y-10973984D02*
X13027801Y-10973984D01*
X13027801Y-10973984D02*
X13008753Y-10983508D01*
X13008753Y-10983508D02*
X12999229Y-10993031D01*
X12999229Y-10993031D02*
X12989706Y-11012079D01*
X12989706Y-11012079D02*
X12989706Y-11059698D01*
X12989706Y-11059698D02*
X12999229Y-11078746D01*
X12999229Y-11078746D02*
X13008753Y-11088270D01*
X13008753Y-11088270D02*
X13027801Y-11097793D01*
X13027801Y-11097793D02*
X13065896Y-11097793D01*
X13065896Y-11097793D02*
X13084944Y-11088270D01*
X13084944Y-11088270D02*
X13094468Y-11078746D01*
X13094468Y-11078746D02*
X13103991Y-11059698D01*
X13342087Y-11173984D02*
X13342087Y-10973984D01*
X13427801Y-11173984D02*
X13427801Y-11069222D01*
X13427801Y-11069222D02*
X13418277Y-11050174D01*
X13418277Y-11050174D02*
X13399230Y-11040650D01*
X13399230Y-11040650D02*
X13370658Y-11040650D01*
X13370658Y-11040650D02*
X13351610Y-11050174D01*
X13351610Y-11050174D02*
X13342087Y-11059698D01*
X13551610Y-11173984D02*
X13532563Y-11164460D01*
X13532563Y-11164460D02*
X13523039Y-11154936D01*
X13523039Y-11154936D02*
X13513515Y-11135889D01*
X13513515Y-11135889D02*
X13513515Y-11078746D01*
X13513515Y-11078746D02*
X13523039Y-11059698D01*
X13523039Y-11059698D02*
X13532563Y-11050174D01*
X13532563Y-11050174D02*
X13551610Y-11040650D01*
X13551610Y-11040650D02*
X13580182Y-11040650D01*
X13580182Y-11040650D02*
X13599230Y-11050174D01*
X13599230Y-11050174D02*
X13608753Y-11059698D01*
X13608753Y-11059698D02*
X13618277Y-11078746D01*
X13618277Y-11078746D02*
X13618277Y-11135889D01*
X13618277Y-11135889D02*
X13608753Y-11154936D01*
X13608753Y-11154936D02*
X13599230Y-11164460D01*
X13599230Y-11164460D02*
X13580182Y-11173984D01*
X13580182Y-11173984D02*
X13551610Y-11173984D01*
X13732563Y-11173984D02*
X13713515Y-11164460D01*
X13713515Y-11164460D02*
X13703991Y-11145412D01*
X13703991Y-11145412D02*
X13703991Y-10973984D01*
X13884944Y-11164460D02*
X13865896Y-11173984D01*
X13865896Y-11173984D02*
X13827801Y-11173984D01*
X13827801Y-11173984D02*
X13808753Y-11164460D01*
X13808753Y-11164460D02*
X13799230Y-11145412D01*
X13799230Y-11145412D02*
X13799230Y-11069222D01*
X13799230Y-11069222D02*
X13808753Y-11050174D01*
X13808753Y-11050174D02*
X13827801Y-11040650D01*
X13827801Y-11040650D02*
X13865896Y-11040650D01*
X13865896Y-11040650D02*
X13884944Y-11050174D01*
X13884944Y-11050174D02*
X13894468Y-11069222D01*
X13894468Y-11069222D02*
X13894468Y-11088270D01*
X13894468Y-11088270D02*
X13799230Y-11107317D01*
X13970658Y-11164460D02*
X13989706Y-11173984D01*
X13989706Y-11173984D02*
X14027801Y-11173984D01*
X14027801Y-11173984D02*
X14046849Y-11164460D01*
X14046849Y-11164460D02*
X14056372Y-11145412D01*
X14056372Y-11145412D02*
X14056372Y-11135889D01*
X14056372Y-11135889D02*
X14046849Y-11116841D01*
X14046849Y-11116841D02*
X14027801Y-11107317D01*
X14027801Y-11107317D02*
X13999230Y-11107317D01*
X13999230Y-11107317D02*
X13980182Y-11097793D01*
X13980182Y-11097793D02*
X13970658Y-11078746D01*
X13970658Y-11078746D02*
X13970658Y-11069222D01*
X13970658Y-11069222D02*
X13980182Y-11050174D01*
X13980182Y-11050174D02*
X13999230Y-11040650D01*
X13999230Y-11040650D02*
X14027801Y-11040650D01*
X14027801Y-11040650D02*
X14046849Y-11050174D01*
X14123039Y-11250174D02*
X14132563Y-11240650D01*
X14132563Y-11240650D02*
X14151611Y-11212079D01*
X14151611Y-11212079D02*
X14161134Y-11193031D01*
X14161134Y-11193031D02*
X14170658Y-11164460D01*
X14170658Y-11164460D02*
X14180182Y-11116841D01*
X14180182Y-11116841D02*
X14180182Y-11078746D01*
X14180182Y-11078746D02*
X14170658Y-11031127D01*
X14170658Y-11031127D02*
X14161134Y-11002555D01*
X14161134Y-11002555D02*
X14151611Y-10983508D01*
X14151611Y-10983508D02*
X14132563Y-10954936D01*
X14132563Y-10954936D02*
X14123039Y-10945412D01*
D12*
X9157500Y-11346500D02*
G75*
G02*
X9082500Y-11346500I-37500J0D01*
G01*
X9082500Y-11346500D02*
G75*
G02*
X9157500Y-11346500I37500J0D01*
G01*
D11*
X9456372Y-11237984D02*
X9475420Y-11237984D01*
X9475420Y-11237984D02*
X9494467Y-11247508D01*
X9494467Y-11247508D02*
X9503991Y-11257031D01*
X9503991Y-11257031D02*
X9513515Y-11276079D01*
X9513515Y-11276079D02*
X9523039Y-11314174D01*
X9523039Y-11314174D02*
X9523039Y-11361793D01*
X9523039Y-11361793D02*
X9513515Y-11399888D01*
X9513515Y-11399888D02*
X9503991Y-11418936D01*
X9503991Y-11418936D02*
X9494467Y-11428460D01*
X9494467Y-11428460D02*
X9475420Y-11437984D01*
X9475420Y-11437984D02*
X9456372Y-11437984D01*
X9456372Y-11437984D02*
X9437324Y-11428460D01*
X9437324Y-11428460D02*
X9427801Y-11418936D01*
X9427801Y-11418936D02*
X9418277Y-11399888D01*
X9418277Y-11399888D02*
X9408753Y-11361793D01*
X9408753Y-11361793D02*
X9408753Y-11314174D01*
X9408753Y-11314174D02*
X9418277Y-11276079D01*
X9418277Y-11276079D02*
X9427801Y-11257031D01*
X9427801Y-11257031D02*
X9437324Y-11247508D01*
X9437324Y-11247508D02*
X9456372Y-11237984D01*
X9608753Y-11418936D02*
X9618277Y-11428460D01*
X9618277Y-11428460D02*
X9608753Y-11437984D01*
X9608753Y-11437984D02*
X9599229Y-11428460D01*
X9599229Y-11428460D02*
X9608753Y-11418936D01*
X9608753Y-11418936D02*
X9608753Y-11437984D01*
X9684944Y-11237984D02*
X9818277Y-11237984D01*
X9818277Y-11237984D02*
X9732563Y-11437984D01*
X9989705Y-11237984D02*
X9894467Y-11237984D01*
X9894467Y-11237984D02*
X9884944Y-11333222D01*
X9884944Y-11333222D02*
X9894467Y-11323698D01*
X9894467Y-11323698D02*
X9913515Y-11314174D01*
X9913515Y-11314174D02*
X9961134Y-11314174D01*
X9961134Y-11314174D02*
X9980182Y-11323698D01*
X9980182Y-11323698D02*
X9989705Y-11333222D01*
X9989705Y-11333222D02*
X9999229Y-11352269D01*
X9999229Y-11352269D02*
X9999229Y-11399888D01*
X9999229Y-11399888D02*
X9989705Y-11418936D01*
X9989705Y-11418936D02*
X9980182Y-11428460D01*
X9980182Y-11428460D02*
X9961134Y-11437984D01*
X9961134Y-11437984D02*
X9913515Y-11437984D01*
X9913515Y-11437984D02*
X9894467Y-11428460D01*
X9894467Y-11428460D02*
X9884944Y-11418936D01*
X10123039Y-11237984D02*
X10142086Y-11237984D01*
X10142086Y-11237984D02*
X10161134Y-11247508D01*
X10161134Y-11247508D02*
X10170658Y-11257031D01*
X10170658Y-11257031D02*
X10180182Y-11276079D01*
X10180182Y-11276079D02*
X10189705Y-11314174D01*
X10189705Y-11314174D02*
X10189705Y-11361793D01*
X10189705Y-11361793D02*
X10180182Y-11399888D01*
X10180182Y-11399888D02*
X10170658Y-11418936D01*
X10170658Y-11418936D02*
X10161134Y-11428460D01*
X10161134Y-11428460D02*
X10142086Y-11437984D01*
X10142086Y-11437984D02*
X10123039Y-11437984D01*
X10123039Y-11437984D02*
X10103991Y-11428460D01*
X10103991Y-11428460D02*
X10094467Y-11418936D01*
X10094467Y-11418936D02*
X10084944Y-11399888D01*
X10084944Y-11399888D02*
X10075420Y-11361793D01*
X10075420Y-11361793D02*
X10075420Y-11314174D01*
X10075420Y-11314174D02*
X10084944Y-11276079D01*
X10084944Y-11276079D02*
X10094467Y-11257031D01*
X10094467Y-11257031D02*
X10103991Y-11247508D01*
X10103991Y-11247508D02*
X10123039Y-11237984D01*
X10275420Y-11437984D02*
X10275420Y-11304650D01*
X10275420Y-11323698D02*
X10284944Y-11314174D01*
X10284944Y-11314174D02*
X10303991Y-11304650D01*
X10303991Y-11304650D02*
X10332563Y-11304650D01*
X10332563Y-11304650D02*
X10351610Y-11314174D01*
X10351610Y-11314174D02*
X10361134Y-11333222D01*
X10361134Y-11333222D02*
X10361134Y-11437984D01*
X10361134Y-11333222D02*
X10370658Y-11314174D01*
X10370658Y-11314174D02*
X10389705Y-11304650D01*
X10389705Y-11304650D02*
X10418277Y-11304650D01*
X10418277Y-11304650D02*
X10437325Y-11314174D01*
X10437325Y-11314174D02*
X10446848Y-11333222D01*
X10446848Y-11333222D02*
X10446848Y-11437984D01*
X10542086Y-11437984D02*
X10542086Y-11304650D01*
X10542086Y-11323698D02*
X10551610Y-11314174D01*
X10551610Y-11314174D02*
X10570658Y-11304650D01*
X10570658Y-11304650D02*
X10599229Y-11304650D01*
X10599229Y-11304650D02*
X10618277Y-11314174D01*
X10618277Y-11314174D02*
X10627801Y-11333222D01*
X10627801Y-11333222D02*
X10627801Y-11437984D01*
X10627801Y-11333222D02*
X10637325Y-11314174D01*
X10637325Y-11314174D02*
X10656372Y-11304650D01*
X10656372Y-11304650D02*
X10684944Y-11304650D01*
X10684944Y-11304650D02*
X10703991Y-11314174D01*
X10703991Y-11314174D02*
X10713515Y-11333222D01*
X10713515Y-11333222D02*
X10713515Y-11437984D01*
X11103991Y-11228460D02*
X10932563Y-11485603D01*
X11361134Y-11237984D02*
X11380182Y-11237984D01*
X11380182Y-11237984D02*
X11399229Y-11247508D01*
X11399229Y-11247508D02*
X11408753Y-11257031D01*
X11408753Y-11257031D02*
X11418277Y-11276079D01*
X11418277Y-11276079D02*
X11427801Y-11314174D01*
X11427801Y-11314174D02*
X11427801Y-11361793D01*
X11427801Y-11361793D02*
X11418277Y-11399888D01*
X11418277Y-11399888D02*
X11408753Y-11418936D01*
X11408753Y-11418936D02*
X11399229Y-11428460D01*
X11399229Y-11428460D02*
X11380182Y-11437984D01*
X11380182Y-11437984D02*
X11361134Y-11437984D01*
X11361134Y-11437984D02*
X11342086Y-11428460D01*
X11342086Y-11428460D02*
X11332563Y-11418936D01*
X11332563Y-11418936D02*
X11323039Y-11399888D01*
X11323039Y-11399888D02*
X11313515Y-11361793D01*
X11313515Y-11361793D02*
X11313515Y-11314174D01*
X11313515Y-11314174D02*
X11323039Y-11276079D01*
X11323039Y-11276079D02*
X11332563Y-11257031D01*
X11332563Y-11257031D02*
X11342086Y-11247508D01*
X11342086Y-11247508D02*
X11361134Y-11237984D01*
X11513515Y-11418936D02*
X11523039Y-11428460D01*
X11523039Y-11428460D02*
X11513515Y-11437984D01*
X11513515Y-11437984D02*
X11503991Y-11428460D01*
X11503991Y-11428460D02*
X11513515Y-11418936D01*
X11513515Y-11418936D02*
X11513515Y-11437984D01*
X11646848Y-11237984D02*
X11665896Y-11237984D01*
X11665896Y-11237984D02*
X11684944Y-11247508D01*
X11684944Y-11247508D02*
X11694467Y-11257031D01*
X11694467Y-11257031D02*
X11703991Y-11276079D01*
X11703991Y-11276079D02*
X11713515Y-11314174D01*
X11713515Y-11314174D02*
X11713515Y-11361793D01*
X11713515Y-11361793D02*
X11703991Y-11399888D01*
X11703991Y-11399888D02*
X11694467Y-11418936D01*
X11694467Y-11418936D02*
X11684944Y-11428460D01*
X11684944Y-11428460D02*
X11665896Y-11437984D01*
X11665896Y-11437984D02*
X11646848Y-11437984D01*
X11646848Y-11437984D02*
X11627801Y-11428460D01*
X11627801Y-11428460D02*
X11618277Y-11418936D01*
X11618277Y-11418936D02*
X11608753Y-11399888D01*
X11608753Y-11399888D02*
X11599229Y-11361793D01*
X11599229Y-11361793D02*
X11599229Y-11314174D01*
X11599229Y-11314174D02*
X11608753Y-11276079D01*
X11608753Y-11276079D02*
X11618277Y-11257031D01*
X11618277Y-11257031D02*
X11627801Y-11247508D01*
X11627801Y-11247508D02*
X11646848Y-11237984D01*
X11789706Y-11257031D02*
X11799229Y-11247508D01*
X11799229Y-11247508D02*
X11818277Y-11237984D01*
X11818277Y-11237984D02*
X11865896Y-11237984D01*
X11865896Y-11237984D02*
X11884944Y-11247508D01*
X11884944Y-11247508D02*
X11894467Y-11257031D01*
X11894467Y-11257031D02*
X11903991Y-11276079D01*
X11903991Y-11276079D02*
X11903991Y-11295127D01*
X11903991Y-11295127D02*
X11894467Y-11323698D01*
X11894467Y-11323698D02*
X11780182Y-11437984D01*
X11780182Y-11437984D02*
X11903991Y-11437984D01*
X11999229Y-11437984D02*
X12037325Y-11437984D01*
X12037325Y-11437984D02*
X12056372Y-11428460D01*
X12056372Y-11428460D02*
X12065896Y-11418936D01*
X12065896Y-11418936D02*
X12084944Y-11390365D01*
X12084944Y-11390365D02*
X12094467Y-11352269D01*
X12094467Y-11352269D02*
X12094467Y-11276079D01*
X12094467Y-11276079D02*
X12084944Y-11257031D01*
X12084944Y-11257031D02*
X12075420Y-11247508D01*
X12075420Y-11247508D02*
X12056372Y-11237984D01*
X12056372Y-11237984D02*
X12018277Y-11237984D01*
X12018277Y-11237984D02*
X11999229Y-11247508D01*
X11999229Y-11247508D02*
X11989706Y-11257031D01*
X11989706Y-11257031D02*
X11980182Y-11276079D01*
X11980182Y-11276079D02*
X11980182Y-11323698D01*
X11980182Y-11323698D02*
X11989706Y-11342746D01*
X11989706Y-11342746D02*
X11999229Y-11352269D01*
X11999229Y-11352269D02*
X12018277Y-11361793D01*
X12018277Y-11361793D02*
X12056372Y-11361793D01*
X12056372Y-11361793D02*
X12075420Y-11352269D01*
X12075420Y-11352269D02*
X12084944Y-11342746D01*
X12084944Y-11342746D02*
X12094467Y-11323698D01*
X12275420Y-11237984D02*
X12180182Y-11237984D01*
X12180182Y-11237984D02*
X12170658Y-11333222D01*
X12170658Y-11333222D02*
X12180182Y-11323698D01*
X12180182Y-11323698D02*
X12199229Y-11314174D01*
X12199229Y-11314174D02*
X12246848Y-11314174D01*
X12246848Y-11314174D02*
X12265896Y-11323698D01*
X12265896Y-11323698D02*
X12275420Y-11333222D01*
X12275420Y-11333222D02*
X12284944Y-11352269D01*
X12284944Y-11352269D02*
X12284944Y-11399888D01*
X12284944Y-11399888D02*
X12275420Y-11418936D01*
X12275420Y-11418936D02*
X12265896Y-11428460D01*
X12265896Y-11428460D02*
X12246848Y-11437984D01*
X12246848Y-11437984D02*
X12199229Y-11437984D01*
X12199229Y-11437984D02*
X12180182Y-11428460D01*
X12180182Y-11428460D02*
X12170658Y-11418936D01*
X12361134Y-11237984D02*
X12361134Y-11276079D01*
X12437325Y-11237984D02*
X12437325Y-11276079D01*
X12732563Y-11514174D02*
X12723039Y-11504650D01*
X12723039Y-11504650D02*
X12703991Y-11476079D01*
X12703991Y-11476079D02*
X12694468Y-11457031D01*
X12694468Y-11457031D02*
X12684944Y-11428460D01*
X12684944Y-11428460D02*
X12675420Y-11380841D01*
X12675420Y-11380841D02*
X12675420Y-11342746D01*
X12675420Y-11342746D02*
X12684944Y-11295127D01*
X12684944Y-11295127D02*
X12694468Y-11266555D01*
X12694468Y-11266555D02*
X12703991Y-11247508D01*
X12703991Y-11247508D02*
X12723039Y-11218936D01*
X12723039Y-11218936D02*
X12732563Y-11209412D01*
X12818277Y-11437984D02*
X12856372Y-11437984D01*
X12856372Y-11437984D02*
X12875420Y-11428460D01*
X12875420Y-11428460D02*
X12884944Y-11418936D01*
X12884944Y-11418936D02*
X12903991Y-11390365D01*
X12903991Y-11390365D02*
X12913515Y-11352269D01*
X12913515Y-11352269D02*
X12913515Y-11276079D01*
X12913515Y-11276079D02*
X12903991Y-11257031D01*
X12903991Y-11257031D02*
X12894468Y-11247508D01*
X12894468Y-11247508D02*
X12875420Y-11237984D01*
X12875420Y-11237984D02*
X12837325Y-11237984D01*
X12837325Y-11237984D02*
X12818277Y-11247508D01*
X12818277Y-11247508D02*
X12808753Y-11257031D01*
X12808753Y-11257031D02*
X12799229Y-11276079D01*
X12799229Y-11276079D02*
X12799229Y-11323698D01*
X12799229Y-11323698D02*
X12808753Y-11342746D01*
X12808753Y-11342746D02*
X12818277Y-11352269D01*
X12818277Y-11352269D02*
X12837325Y-11361793D01*
X12837325Y-11361793D02*
X12875420Y-11361793D01*
X12875420Y-11361793D02*
X12894468Y-11352269D01*
X12894468Y-11352269D02*
X12903991Y-11342746D01*
X12903991Y-11342746D02*
X12913515Y-11323698D01*
X13151610Y-11437984D02*
X13151610Y-11237984D01*
X13237325Y-11437984D02*
X13237325Y-11333222D01*
X13237325Y-11333222D02*
X13227801Y-11314174D01*
X13227801Y-11314174D02*
X13208753Y-11304650D01*
X13208753Y-11304650D02*
X13180182Y-11304650D01*
X13180182Y-11304650D02*
X13161134Y-11314174D01*
X13161134Y-11314174D02*
X13151610Y-11323698D01*
X13361134Y-11437984D02*
X13342087Y-11428460D01*
X13342087Y-11428460D02*
X13332563Y-11418936D01*
X13332563Y-11418936D02*
X13323039Y-11399888D01*
X13323039Y-11399888D02*
X13323039Y-11342746D01*
X13323039Y-11342746D02*
X13332563Y-11323698D01*
X13332563Y-11323698D02*
X13342087Y-11314174D01*
X13342087Y-11314174D02*
X13361134Y-11304650D01*
X13361134Y-11304650D02*
X13389706Y-11304650D01*
X13389706Y-11304650D02*
X13408753Y-11314174D01*
X13408753Y-11314174D02*
X13418277Y-11323698D01*
X13418277Y-11323698D02*
X13427801Y-11342746D01*
X13427801Y-11342746D02*
X13427801Y-11399888D01*
X13427801Y-11399888D02*
X13418277Y-11418936D01*
X13418277Y-11418936D02*
X13408753Y-11428460D01*
X13408753Y-11428460D02*
X13389706Y-11437984D01*
X13389706Y-11437984D02*
X13361134Y-11437984D01*
X13542087Y-11437984D02*
X13523039Y-11428460D01*
X13523039Y-11428460D02*
X13513515Y-11409412D01*
X13513515Y-11409412D02*
X13513515Y-11237984D01*
X13694468Y-11428460D02*
X13675420Y-11437984D01*
X13675420Y-11437984D02*
X13637325Y-11437984D01*
X13637325Y-11437984D02*
X13618277Y-11428460D01*
X13618277Y-11428460D02*
X13608753Y-11409412D01*
X13608753Y-11409412D02*
X13608753Y-11333222D01*
X13608753Y-11333222D02*
X13618277Y-11314174D01*
X13618277Y-11314174D02*
X13637325Y-11304650D01*
X13637325Y-11304650D02*
X13675420Y-11304650D01*
X13675420Y-11304650D02*
X13694468Y-11314174D01*
X13694468Y-11314174D02*
X13703991Y-11333222D01*
X13703991Y-11333222D02*
X13703991Y-11352269D01*
X13703991Y-11352269D02*
X13608753Y-11371317D01*
X13780182Y-11428460D02*
X13799230Y-11437984D01*
X13799230Y-11437984D02*
X13837325Y-11437984D01*
X13837325Y-11437984D02*
X13856372Y-11428460D01*
X13856372Y-11428460D02*
X13865896Y-11409412D01*
X13865896Y-11409412D02*
X13865896Y-11399888D01*
X13865896Y-11399888D02*
X13856372Y-11380841D01*
X13856372Y-11380841D02*
X13837325Y-11371317D01*
X13837325Y-11371317D02*
X13808753Y-11371317D01*
X13808753Y-11371317D02*
X13789706Y-11361793D01*
X13789706Y-11361793D02*
X13780182Y-11342746D01*
X13780182Y-11342746D02*
X13780182Y-11333222D01*
X13780182Y-11333222D02*
X13789706Y-11314174D01*
X13789706Y-11314174D02*
X13808753Y-11304650D01*
X13808753Y-11304650D02*
X13837325Y-11304650D01*
X13837325Y-11304650D02*
X13856372Y-11314174D01*
X13932563Y-11514174D02*
X13942087Y-11504650D01*
X13942087Y-11504650D02*
X13961134Y-11476079D01*
X13961134Y-11476079D02*
X13970658Y-11457031D01*
X13970658Y-11457031D02*
X13980182Y-11428460D01*
X13980182Y-11428460D02*
X13989706Y-11380841D01*
X13989706Y-11380841D02*
X13989706Y-11342746D01*
X13989706Y-11342746D02*
X13980182Y-11295127D01*
X13980182Y-11295127D02*
X13970658Y-11266555D01*
X13970658Y-11266555D02*
X13961134Y-11247508D01*
X13961134Y-11247508D02*
X13942087Y-11218936D01*
X13942087Y-11218936D02*
X13932563Y-11209412D01*
X9057500Y-11510500D02*
X9057500Y-11710500D01*
X8957500Y-11610500D02*
X9157500Y-11610500D01*
X9408753Y-11521031D02*
X9418277Y-11511508D01*
X9418277Y-11511508D02*
X9437324Y-11501984D01*
X9437324Y-11501984D02*
X9484944Y-11501984D01*
X9484944Y-11501984D02*
X9503991Y-11511508D01*
X9503991Y-11511508D02*
X9513515Y-11521031D01*
X9513515Y-11521031D02*
X9523039Y-11540079D01*
X9523039Y-11540079D02*
X9523039Y-11559127D01*
X9523039Y-11559127D02*
X9513515Y-11587698D01*
X9513515Y-11587698D02*
X9399229Y-11701984D01*
X9399229Y-11701984D02*
X9523039Y-11701984D01*
X9608753Y-11682936D02*
X9618277Y-11692460D01*
X9618277Y-11692460D02*
X9608753Y-11701984D01*
X9608753Y-11701984D02*
X9599229Y-11692460D01*
X9599229Y-11692460D02*
X9608753Y-11682936D01*
X9608753Y-11682936D02*
X9608753Y-11701984D01*
X9684944Y-11501984D02*
X9808753Y-11501984D01*
X9808753Y-11501984D02*
X9742086Y-11578174D01*
X9742086Y-11578174D02*
X9770658Y-11578174D01*
X9770658Y-11578174D02*
X9789705Y-11587698D01*
X9789705Y-11587698D02*
X9799229Y-11597222D01*
X9799229Y-11597222D02*
X9808753Y-11616269D01*
X9808753Y-11616269D02*
X9808753Y-11663888D01*
X9808753Y-11663888D02*
X9799229Y-11682936D01*
X9799229Y-11682936D02*
X9789705Y-11692460D01*
X9789705Y-11692460D02*
X9770658Y-11701984D01*
X9770658Y-11701984D02*
X9713515Y-11701984D01*
X9713515Y-11701984D02*
X9694467Y-11692460D01*
X9694467Y-11692460D02*
X9684944Y-11682936D01*
X9932563Y-11501984D02*
X9951610Y-11501984D01*
X9951610Y-11501984D02*
X9970658Y-11511508D01*
X9970658Y-11511508D02*
X9980182Y-11521031D01*
X9980182Y-11521031D02*
X9989705Y-11540079D01*
X9989705Y-11540079D02*
X9999229Y-11578174D01*
X9999229Y-11578174D02*
X9999229Y-11625793D01*
X9999229Y-11625793D02*
X9989705Y-11663888D01*
X9989705Y-11663888D02*
X9980182Y-11682936D01*
X9980182Y-11682936D02*
X9970658Y-11692460D01*
X9970658Y-11692460D02*
X9951610Y-11701984D01*
X9951610Y-11701984D02*
X9932563Y-11701984D01*
X9932563Y-11701984D02*
X9913515Y-11692460D01*
X9913515Y-11692460D02*
X9903991Y-11682936D01*
X9903991Y-11682936D02*
X9894467Y-11663888D01*
X9894467Y-11663888D02*
X9884944Y-11625793D01*
X9884944Y-11625793D02*
X9884944Y-11578174D01*
X9884944Y-11578174D02*
X9894467Y-11540079D01*
X9894467Y-11540079D02*
X9903991Y-11521031D01*
X9903991Y-11521031D02*
X9913515Y-11511508D01*
X9913515Y-11511508D02*
X9932563Y-11501984D01*
X10123039Y-11501984D02*
X10142086Y-11501984D01*
X10142086Y-11501984D02*
X10161134Y-11511508D01*
X10161134Y-11511508D02*
X10170658Y-11521031D01*
X10170658Y-11521031D02*
X10180182Y-11540079D01*
X10180182Y-11540079D02*
X10189705Y-11578174D01*
X10189705Y-11578174D02*
X10189705Y-11625793D01*
X10189705Y-11625793D02*
X10180182Y-11663888D01*
X10180182Y-11663888D02*
X10170658Y-11682936D01*
X10170658Y-11682936D02*
X10161134Y-11692460D01*
X10161134Y-11692460D02*
X10142086Y-11701984D01*
X10142086Y-11701984D02*
X10123039Y-11701984D01*
X10123039Y-11701984D02*
X10103991Y-11692460D01*
X10103991Y-11692460D02*
X10094467Y-11682936D01*
X10094467Y-11682936D02*
X10084944Y-11663888D01*
X10084944Y-11663888D02*
X10075420Y-11625793D01*
X10075420Y-11625793D02*
X10075420Y-11578174D01*
X10075420Y-11578174D02*
X10084944Y-11540079D01*
X10084944Y-11540079D02*
X10094467Y-11521031D01*
X10094467Y-11521031D02*
X10103991Y-11511508D01*
X10103991Y-11511508D02*
X10123039Y-11501984D01*
X10275420Y-11701984D02*
X10275420Y-11568650D01*
X10275420Y-11587698D02*
X10284944Y-11578174D01*
X10284944Y-11578174D02*
X10303991Y-11568650D01*
X10303991Y-11568650D02*
X10332563Y-11568650D01*
X10332563Y-11568650D02*
X10351610Y-11578174D01*
X10351610Y-11578174D02*
X10361134Y-11597222D01*
X10361134Y-11597222D02*
X10361134Y-11701984D01*
X10361134Y-11597222D02*
X10370658Y-11578174D01*
X10370658Y-11578174D02*
X10389705Y-11568650D01*
X10389705Y-11568650D02*
X10418277Y-11568650D01*
X10418277Y-11568650D02*
X10437325Y-11578174D01*
X10437325Y-11578174D02*
X10446848Y-11597222D01*
X10446848Y-11597222D02*
X10446848Y-11701984D01*
X10542086Y-11701984D02*
X10542086Y-11568650D01*
X10542086Y-11587698D02*
X10551610Y-11578174D01*
X10551610Y-11578174D02*
X10570658Y-11568650D01*
X10570658Y-11568650D02*
X10599229Y-11568650D01*
X10599229Y-11568650D02*
X10618277Y-11578174D01*
X10618277Y-11578174D02*
X10627801Y-11597222D01*
X10627801Y-11597222D02*
X10627801Y-11701984D01*
X10627801Y-11597222D02*
X10637325Y-11578174D01*
X10637325Y-11578174D02*
X10656372Y-11568650D01*
X10656372Y-11568650D02*
X10684944Y-11568650D01*
X10684944Y-11568650D02*
X10703991Y-11578174D01*
X10703991Y-11578174D02*
X10713515Y-11597222D01*
X10713515Y-11597222D02*
X10713515Y-11701984D01*
X11103991Y-11492460D02*
X10932563Y-11749603D01*
X11361134Y-11501984D02*
X11380182Y-11501984D01*
X11380182Y-11501984D02*
X11399229Y-11511508D01*
X11399229Y-11511508D02*
X11408753Y-11521031D01*
X11408753Y-11521031D02*
X11418277Y-11540079D01*
X11418277Y-11540079D02*
X11427801Y-11578174D01*
X11427801Y-11578174D02*
X11427801Y-11625793D01*
X11427801Y-11625793D02*
X11418277Y-11663888D01*
X11418277Y-11663888D02*
X11408753Y-11682936D01*
X11408753Y-11682936D02*
X11399229Y-11692460D01*
X11399229Y-11692460D02*
X11380182Y-11701984D01*
X11380182Y-11701984D02*
X11361134Y-11701984D01*
X11361134Y-11701984D02*
X11342086Y-11692460D01*
X11342086Y-11692460D02*
X11332563Y-11682936D01*
X11332563Y-11682936D02*
X11323039Y-11663888D01*
X11323039Y-11663888D02*
X11313515Y-11625793D01*
X11313515Y-11625793D02*
X11313515Y-11578174D01*
X11313515Y-11578174D02*
X11323039Y-11540079D01*
X11323039Y-11540079D02*
X11332563Y-11521031D01*
X11332563Y-11521031D02*
X11342086Y-11511508D01*
X11342086Y-11511508D02*
X11361134Y-11501984D01*
X11513515Y-11682936D02*
X11523039Y-11692460D01*
X11523039Y-11692460D02*
X11513515Y-11701984D01*
X11513515Y-11701984D02*
X11503991Y-11692460D01*
X11503991Y-11692460D02*
X11513515Y-11682936D01*
X11513515Y-11682936D02*
X11513515Y-11701984D01*
X11646848Y-11501984D02*
X11665896Y-11501984D01*
X11665896Y-11501984D02*
X11684944Y-11511508D01*
X11684944Y-11511508D02*
X11694467Y-11521031D01*
X11694467Y-11521031D02*
X11703991Y-11540079D01*
X11703991Y-11540079D02*
X11713515Y-11578174D01*
X11713515Y-11578174D02*
X11713515Y-11625793D01*
X11713515Y-11625793D02*
X11703991Y-11663888D01*
X11703991Y-11663888D02*
X11694467Y-11682936D01*
X11694467Y-11682936D02*
X11684944Y-11692460D01*
X11684944Y-11692460D02*
X11665896Y-11701984D01*
X11665896Y-11701984D02*
X11646848Y-11701984D01*
X11646848Y-11701984D02*
X11627801Y-11692460D01*
X11627801Y-11692460D02*
X11618277Y-11682936D01*
X11618277Y-11682936D02*
X11608753Y-11663888D01*
X11608753Y-11663888D02*
X11599229Y-11625793D01*
X11599229Y-11625793D02*
X11599229Y-11578174D01*
X11599229Y-11578174D02*
X11608753Y-11540079D01*
X11608753Y-11540079D02*
X11618277Y-11521031D01*
X11618277Y-11521031D02*
X11627801Y-11511508D01*
X11627801Y-11511508D02*
X11646848Y-11501984D01*
X11808753Y-11701984D02*
X11846848Y-11701984D01*
X11846848Y-11701984D02*
X11865896Y-11692460D01*
X11865896Y-11692460D02*
X11875420Y-11682936D01*
X11875420Y-11682936D02*
X11894467Y-11654365D01*
X11894467Y-11654365D02*
X11903991Y-11616269D01*
X11903991Y-11616269D02*
X11903991Y-11540079D01*
X11903991Y-11540079D02*
X11894467Y-11521031D01*
X11894467Y-11521031D02*
X11884944Y-11511508D01*
X11884944Y-11511508D02*
X11865896Y-11501984D01*
X11865896Y-11501984D02*
X11827801Y-11501984D01*
X11827801Y-11501984D02*
X11808753Y-11511508D01*
X11808753Y-11511508D02*
X11799229Y-11521031D01*
X11799229Y-11521031D02*
X11789706Y-11540079D01*
X11789706Y-11540079D02*
X11789706Y-11587698D01*
X11789706Y-11587698D02*
X11799229Y-11606746D01*
X11799229Y-11606746D02*
X11808753Y-11616269D01*
X11808753Y-11616269D02*
X11827801Y-11625793D01*
X11827801Y-11625793D02*
X11865896Y-11625793D01*
X11865896Y-11625793D02*
X11884944Y-11616269D01*
X11884944Y-11616269D02*
X11894467Y-11606746D01*
X11894467Y-11606746D02*
X11903991Y-11587698D01*
X12027801Y-11501984D02*
X12046848Y-11501984D01*
X12046848Y-11501984D02*
X12065896Y-11511508D01*
X12065896Y-11511508D02*
X12075420Y-11521031D01*
X12075420Y-11521031D02*
X12084944Y-11540079D01*
X12084944Y-11540079D02*
X12094467Y-11578174D01*
X12094467Y-11578174D02*
X12094467Y-11625793D01*
X12094467Y-11625793D02*
X12084944Y-11663888D01*
X12084944Y-11663888D02*
X12075420Y-11682936D01*
X12075420Y-11682936D02*
X12065896Y-11692460D01*
X12065896Y-11692460D02*
X12046848Y-11701984D01*
X12046848Y-11701984D02*
X12027801Y-11701984D01*
X12027801Y-11701984D02*
X12008753Y-11692460D01*
X12008753Y-11692460D02*
X11999229Y-11682936D01*
X11999229Y-11682936D02*
X11989706Y-11663888D01*
X11989706Y-11663888D02*
X11980182Y-11625793D01*
X11980182Y-11625793D02*
X11980182Y-11578174D01*
X11980182Y-11578174D02*
X11989706Y-11540079D01*
X11989706Y-11540079D02*
X11999229Y-11521031D01*
X11999229Y-11521031D02*
X12008753Y-11511508D01*
X12008753Y-11511508D02*
X12027801Y-11501984D01*
X12265896Y-11501984D02*
X12227801Y-11501984D01*
X12227801Y-11501984D02*
X12208753Y-11511508D01*
X12208753Y-11511508D02*
X12199229Y-11521031D01*
X12199229Y-11521031D02*
X12180182Y-11549603D01*
X12180182Y-11549603D02*
X12170658Y-11587698D01*
X12170658Y-11587698D02*
X12170658Y-11663888D01*
X12170658Y-11663888D02*
X12180182Y-11682936D01*
X12180182Y-11682936D02*
X12189706Y-11692460D01*
X12189706Y-11692460D02*
X12208753Y-11701984D01*
X12208753Y-11701984D02*
X12246848Y-11701984D01*
X12246848Y-11701984D02*
X12265896Y-11692460D01*
X12265896Y-11692460D02*
X12275420Y-11682936D01*
X12275420Y-11682936D02*
X12284944Y-11663888D01*
X12284944Y-11663888D02*
X12284944Y-11616269D01*
X12284944Y-11616269D02*
X12275420Y-11597222D01*
X12275420Y-11597222D02*
X12265896Y-11587698D01*
X12265896Y-11587698D02*
X12246848Y-11578174D01*
X12246848Y-11578174D02*
X12208753Y-11578174D01*
X12208753Y-11578174D02*
X12189706Y-11587698D01*
X12189706Y-11587698D02*
X12180182Y-11597222D01*
X12180182Y-11597222D02*
X12170658Y-11616269D01*
X12361134Y-11501984D02*
X12361134Y-11540079D01*
X12437325Y-11501984D02*
X12437325Y-11540079D01*
X12732563Y-11778174D02*
X12723039Y-11768650D01*
X12723039Y-11768650D02*
X12703991Y-11740079D01*
X12703991Y-11740079D02*
X12694468Y-11721031D01*
X12694468Y-11721031D02*
X12684944Y-11692460D01*
X12684944Y-11692460D02*
X12675420Y-11644841D01*
X12675420Y-11644841D02*
X12675420Y-11606746D01*
X12675420Y-11606746D02*
X12684944Y-11559127D01*
X12684944Y-11559127D02*
X12694468Y-11530555D01*
X12694468Y-11530555D02*
X12703991Y-11511508D01*
X12703991Y-11511508D02*
X12723039Y-11482936D01*
X12723039Y-11482936D02*
X12732563Y-11473412D01*
X12799229Y-11521031D02*
X12808753Y-11511508D01*
X12808753Y-11511508D02*
X12827801Y-11501984D01*
X12827801Y-11501984D02*
X12875420Y-11501984D01*
X12875420Y-11501984D02*
X12894468Y-11511508D01*
X12894468Y-11511508D02*
X12903991Y-11521031D01*
X12903991Y-11521031D02*
X12913515Y-11540079D01*
X12913515Y-11540079D02*
X12913515Y-11559127D01*
X12913515Y-11559127D02*
X12903991Y-11587698D01*
X12903991Y-11587698D02*
X12789706Y-11701984D01*
X12789706Y-11701984D02*
X12913515Y-11701984D01*
X13151610Y-11701984D02*
X13151610Y-11501984D01*
X13237325Y-11701984D02*
X13237325Y-11597222D01*
X13237325Y-11597222D02*
X13227801Y-11578174D01*
X13227801Y-11578174D02*
X13208753Y-11568650D01*
X13208753Y-11568650D02*
X13180182Y-11568650D01*
X13180182Y-11568650D02*
X13161134Y-11578174D01*
X13161134Y-11578174D02*
X13151610Y-11587698D01*
X13361134Y-11701984D02*
X13342087Y-11692460D01*
X13342087Y-11692460D02*
X13332563Y-11682936D01*
X13332563Y-11682936D02*
X13323039Y-11663888D01*
X13323039Y-11663888D02*
X13323039Y-11606746D01*
X13323039Y-11606746D02*
X13332563Y-11587698D01*
X13332563Y-11587698D02*
X13342087Y-11578174D01*
X13342087Y-11578174D02*
X13361134Y-11568650D01*
X13361134Y-11568650D02*
X13389706Y-11568650D01*
X13389706Y-11568650D02*
X13408753Y-11578174D01*
X13408753Y-11578174D02*
X13418277Y-11587698D01*
X13418277Y-11587698D02*
X13427801Y-11606746D01*
X13427801Y-11606746D02*
X13427801Y-11663888D01*
X13427801Y-11663888D02*
X13418277Y-11682936D01*
X13418277Y-11682936D02*
X13408753Y-11692460D01*
X13408753Y-11692460D02*
X13389706Y-11701984D01*
X13389706Y-11701984D02*
X13361134Y-11701984D01*
X13542087Y-11701984D02*
X13523039Y-11692460D01*
X13523039Y-11692460D02*
X13513515Y-11673412D01*
X13513515Y-11673412D02*
X13513515Y-11501984D01*
X13694468Y-11692460D02*
X13675420Y-11701984D01*
X13675420Y-11701984D02*
X13637325Y-11701984D01*
X13637325Y-11701984D02*
X13618277Y-11692460D01*
X13618277Y-11692460D02*
X13608753Y-11673412D01*
X13608753Y-11673412D02*
X13608753Y-11597222D01*
X13608753Y-11597222D02*
X13618277Y-11578174D01*
X13618277Y-11578174D02*
X13637325Y-11568650D01*
X13637325Y-11568650D02*
X13675420Y-11568650D01*
X13675420Y-11568650D02*
X13694468Y-11578174D01*
X13694468Y-11578174D02*
X13703991Y-11597222D01*
X13703991Y-11597222D02*
X13703991Y-11616269D01*
X13703991Y-11616269D02*
X13608753Y-11635317D01*
X13780182Y-11692460D02*
X13799230Y-11701984D01*
X13799230Y-11701984D02*
X13837325Y-11701984D01*
X13837325Y-11701984D02*
X13856372Y-11692460D01*
X13856372Y-11692460D02*
X13865896Y-11673412D01*
X13865896Y-11673412D02*
X13865896Y-11663888D01*
X13865896Y-11663888D02*
X13856372Y-11644841D01*
X13856372Y-11644841D02*
X13837325Y-11635317D01*
X13837325Y-11635317D02*
X13808753Y-11635317D01*
X13808753Y-11635317D02*
X13789706Y-11625793D01*
X13789706Y-11625793D02*
X13780182Y-11606746D01*
X13780182Y-11606746D02*
X13780182Y-11597222D01*
X13780182Y-11597222D02*
X13789706Y-11578174D01*
X13789706Y-11578174D02*
X13808753Y-11568650D01*
X13808753Y-11568650D02*
X13837325Y-11568650D01*
X13837325Y-11568650D02*
X13856372Y-11578174D01*
X13932563Y-11778174D02*
X13942087Y-11768650D01*
X13942087Y-11768650D02*
X13961134Y-11740079D01*
X13961134Y-11740079D02*
X13970658Y-11721031D01*
X13970658Y-11721031D02*
X13980182Y-11692460D01*
X13980182Y-11692460D02*
X13989706Y-11644841D01*
X13989706Y-11644841D02*
X13989706Y-11606746D01*
X13989706Y-11606746D02*
X13980182Y-11559127D01*
X13980182Y-11559127D02*
X13970658Y-11530555D01*
X13970658Y-11530555D02*
X13961134Y-11511508D01*
X13961134Y-11511508D02*
X13942087Y-11482936D01*
X13942087Y-11482936D02*
X13932563Y-11473412D01*
M02*
