%TF.GenerationSoftware,KiCad,Pcbnew,9.0.2+dfsg-1*%
%TF.CreationDate,2026-10-04T09:33:17-04:00*%
%TF.ProjectId,mod_usba,6d6f645f-7573-4626-912e-6b696361645f,A1*%
%TF.SameCoordinates,Original*%
%TF.FileFunction,Drillmap*%
%TF.FilePolarity,Positive*%
%FSLAX45Y45*%
G04 Gerber Fmt 4.5, Leading zero omitted, Abs format (unit mm)*
G04 Created by KiCad (PCBNEW 9.0.2+dfsg-1) date 2026-10-04 09:33:17*
%MOMM*%
%LPD*%
G01*
G04 APERTURE LIST*
%ADD10C,0.050000*%
%ADD11C,0.200000*%
G04 APERTURE END LIST*
D10*
X9160000Y-9600000D02*
X9160000Y-10400000D01*
X10940000Y-9680000D02*
G75*
G02*
X10900000Y-9640000I0J40000D01*
G01*
X9200000Y-10440000D02*
X10860000Y-10440000D01*
X13242300Y-9680000D02*
X10940000Y-9680000D01*
X9200000Y-10440000D02*
G75*
G02*
X9160000Y-10400000I0J40000D01*
G01*
X10860000Y-9560000D02*
G75*
G02*
X10900000Y-9600000I0J-40000D01*
G01*
X13282300Y-10280000D02*
G75*
G02*
X13242300Y-10320000I-40000J0D01*
G01*
X10900000Y-9640000D02*
X10900000Y-9600000D01*
X10940000Y-10320000D02*
X13242300Y-10320000D01*
X13242300Y-9680000D02*
G75*
G02*
X13282300Y-9720000I0J-40000D01*
G01*
X10900000Y-10400000D02*
X10900000Y-10360000D01*
X10900000Y-10360000D02*
G75*
G02*
X10940000Y-10320000I40000J0D01*
G01*
X13282300Y-10280000D02*
X13282300Y-9720000D01*
X10860000Y-9560000D02*
X9200000Y-9560000D01*
X10900000Y-10400000D02*
G75*
G02*
X10860000Y-10440000I-40000J0D01*
G01*
X9160000Y-9600000D02*
G75*
G02*
X9200000Y-9560000I40000J0D01*
G01*
D11*
X9418277Y-10753984D02*
X9418277Y-10553984D01*
X9418277Y-10553984D02*
X9465896Y-10553984D01*
X9465896Y-10553984D02*
X9494467Y-10563508D01*
X9494467Y-10563508D02*
X9513515Y-10582555D01*
X9513515Y-10582555D02*
X9523039Y-10601603D01*
X9523039Y-10601603D02*
X9532563Y-10639698D01*
X9532563Y-10639698D02*
X9532563Y-10668270D01*
X9532563Y-10668270D02*
X9523039Y-10706365D01*
X9523039Y-10706365D02*
X9513515Y-10725412D01*
X9513515Y-10725412D02*
X9494467Y-10744460D01*
X9494467Y-10744460D02*
X9465896Y-10753984D01*
X9465896Y-10753984D02*
X9418277Y-10753984D01*
X9618277Y-10753984D02*
X9618277Y-10620650D01*
X9618277Y-10658746D02*
X9627801Y-10639698D01*
X9627801Y-10639698D02*
X9637324Y-10630174D01*
X9637324Y-10630174D02*
X9656372Y-10620650D01*
X9656372Y-10620650D02*
X9675420Y-10620650D01*
X9742086Y-10753984D02*
X9742086Y-10620650D01*
X9742086Y-10553984D02*
X9732563Y-10563508D01*
X9732563Y-10563508D02*
X9742086Y-10573031D01*
X9742086Y-10573031D02*
X9751610Y-10563508D01*
X9751610Y-10563508D02*
X9742086Y-10553984D01*
X9742086Y-10553984D02*
X9742086Y-10573031D01*
X9865896Y-10753984D02*
X9846848Y-10744460D01*
X9846848Y-10744460D02*
X9837324Y-10725412D01*
X9837324Y-10725412D02*
X9837324Y-10553984D01*
X9970658Y-10753984D02*
X9951610Y-10744460D01*
X9951610Y-10744460D02*
X9942086Y-10725412D01*
X9942086Y-10725412D02*
X9942086Y-10553984D01*
X10199229Y-10753984D02*
X10199229Y-10553984D01*
X10199229Y-10553984D02*
X10265896Y-10696841D01*
X10265896Y-10696841D02*
X10332563Y-10553984D01*
X10332563Y-10553984D02*
X10332563Y-10753984D01*
X10513515Y-10753984D02*
X10513515Y-10649222D01*
X10513515Y-10649222D02*
X10503991Y-10630174D01*
X10503991Y-10630174D02*
X10484944Y-10620650D01*
X10484944Y-10620650D02*
X10446848Y-10620650D01*
X10446848Y-10620650D02*
X10427801Y-10630174D01*
X10513515Y-10744460D02*
X10494467Y-10753984D01*
X10494467Y-10753984D02*
X10446848Y-10753984D01*
X10446848Y-10753984D02*
X10427801Y-10744460D01*
X10427801Y-10744460D02*
X10418277Y-10725412D01*
X10418277Y-10725412D02*
X10418277Y-10706365D01*
X10418277Y-10706365D02*
X10427801Y-10687317D01*
X10427801Y-10687317D02*
X10446848Y-10677793D01*
X10446848Y-10677793D02*
X10494467Y-10677793D01*
X10494467Y-10677793D02*
X10513515Y-10668270D01*
X10608753Y-10620650D02*
X10608753Y-10820650D01*
X10608753Y-10630174D02*
X10627801Y-10620650D01*
X10627801Y-10620650D02*
X10665896Y-10620650D01*
X10665896Y-10620650D02*
X10684944Y-10630174D01*
X10684944Y-10630174D02*
X10694467Y-10639698D01*
X10694467Y-10639698D02*
X10703991Y-10658746D01*
X10703991Y-10658746D02*
X10703991Y-10715889D01*
X10703991Y-10715889D02*
X10694467Y-10734936D01*
X10694467Y-10734936D02*
X10684944Y-10744460D01*
X10684944Y-10744460D02*
X10665896Y-10753984D01*
X10665896Y-10753984D02*
X10627801Y-10753984D01*
X10627801Y-10753984D02*
X10608753Y-10744460D01*
X10789705Y-10734936D02*
X10799229Y-10744460D01*
X10799229Y-10744460D02*
X10789705Y-10753984D01*
X10789705Y-10753984D02*
X10780182Y-10744460D01*
X10780182Y-10744460D02*
X10789705Y-10734936D01*
X10789705Y-10734936D02*
X10789705Y-10753984D01*
X10789705Y-10630174D02*
X10799229Y-10639698D01*
X10799229Y-10639698D02*
X10789705Y-10649222D01*
X10789705Y-10649222D02*
X10780182Y-10639698D01*
X10780182Y-10639698D02*
X10789705Y-10630174D01*
X10789705Y-10630174D02*
X10789705Y-10649222D01*
M02*
