G04 #@! TF.GenerationSoftware,KiCad,Pcbnew,9.0.2+dfsg-1*
G04 #@! TF.CreationDate,2026-10-04T09:33:15-04:00*
G04 #@! TF.ProjectId,mod_usba,6d6f645f-7573-4626-912e-6b696361645f,A1*
G04 #@! TF.SameCoordinates,Original*
G04 #@! TF.FileFunction,Paste,Top*
G04 #@! TF.FilePolarity,Positive*
%FSLAX46Y46*%
G04 Gerber Fmt 4.6, Leading zero omitted, Abs format (unit mm)*
G04 Created by KiCad (PCBNEW 9.0.2+dfsg-1) date 2026-10-04 09:33:15*
%MOMM*%
%LPD*%
G01*
G04 APERTURE LIST*
G04 Aperture macros list*
%AMRoundRect*
0 Rectangle with rounded corners*
0 $1 Rounding radius*
0 $2 $3 $4 $5 $6 $7 $8 $9 X,Y pos of 4 corners*
0 Add a 4 corners polygon primitive as box body*
4,1,4,$2,$3,$4,$5,$6,$7,$8,$9,$2,$3,0*
0 Add four circle primitives for the rounded corners*
1,1,$1+$1,$2,$3*
1,1,$1+$1,$4,$5*
1,1,$1+$1,$6,$7*
1,1,$1+$1,$8,$9*
0 Add four rect primitives between the rounded corners*
20,1,$1+$1,$2,$3,$4,$5,0*
20,1,$1+$1,$4,$5,$6,$7,0*
20,1,$1+$1,$6,$7,$8,$9,0*
20,1,$1+$1,$8,$9,$2,$3,0*%
G04 Aperture macros list end*
%ADD10RoundRect,0.122500X0.122500X0.322500X-0.122500X0.322500X-0.122500X-0.322500X0.122500X-0.322500X0*%
%ADD11RoundRect,0.062500X0.372500X0.062500X-0.372500X0.062500X-0.372500X-0.062500X0.372500X-0.062500X0*%
%ADD12RoundRect,0.079500X-0.079500X-0.100500X0.079500X-0.100500X0.079500X0.100500X-0.079500X0.100500X0*%
%ADD13RoundRect,0.057500X-0.057500X-0.292500X0.057500X-0.292500X0.057500X0.292500X-0.057500X0.292500X0*%
G04 APERTURE END LIST*
D10*
G04 #@! TO.C,U1*
X131128000Y-100550000D03*
X131128000Y-99450000D03*
D11*
X132068000Y-100750000D03*
X132068000Y-100250000D03*
X132068000Y-99750000D03*
X132068000Y-99250000D03*
X130188000Y-99250000D03*
X130188000Y-99750000D03*
X130188000Y-100250000D03*
X130188000Y-100750000D03*
G04 #@! TD*
D12*
G04 #@! TO.C,C1*
X130183000Y-102400000D03*
X130873000Y-102400000D03*
G04 #@! TD*
D13*
G04 #@! TO.C,J2*
X118593000Y-98700000D03*
X118593000Y-101300000D03*
X118993000Y-98700000D03*
X118993000Y-101300000D03*
X119393000Y-98700000D03*
X119393000Y-101300000D03*
X119793000Y-98700000D03*
X119793000Y-101300000D03*
X120193000Y-98700000D03*
X120193000Y-101300000D03*
X120593000Y-98700000D03*
X120593000Y-101300000D03*
X120993000Y-98700000D03*
X120993000Y-101300000D03*
X121393000Y-98700000D03*
X121393000Y-101300000D03*
X121793000Y-98700000D03*
X121793000Y-101300000D03*
X122193000Y-98700000D03*
X122193000Y-101300000D03*
X122593000Y-98700000D03*
X122593000Y-101300000D03*
X122993000Y-98700000D03*
X122993000Y-101300000D03*
X123393000Y-98700000D03*
X123393000Y-101300000D03*
X123793000Y-98700000D03*
X123793000Y-101300000D03*
X124193000Y-98700000D03*
X124193000Y-101300000D03*
X124593000Y-98700000D03*
X124593000Y-101300000D03*
X124993000Y-98700000D03*
X124993000Y-101300000D03*
X125393000Y-98700000D03*
X125393000Y-101300000D03*
X125793000Y-98700000D03*
X125793000Y-101300000D03*
X126193000Y-98700000D03*
X126193000Y-101300000D03*
X126593000Y-98700000D03*
X126593000Y-101300000D03*
X126993000Y-98700000D03*
X126993000Y-101300000D03*
X127393000Y-98700000D03*
X127393000Y-101300000D03*
X127793000Y-98700000D03*
X127793000Y-101300000D03*
X128193000Y-98700000D03*
X128193000Y-101300000D03*
G04 #@! TD*
M02*
