G04 #@! TF.GenerationSoftware,KiCad,Pcbnew,9.0.2+dfsg-1*
G04 #@! TF.CreationDate,2026-10-04T09:33:15-04:00*
G04 #@! TF.ProjectId,mod_usba,6d6f645f-7573-4626-912e-6b696361645f,A1*
G04 #@! TF.SameCoordinates,Original*
G04 #@! TF.FileFunction,Copper,L2,Bot*
G04 #@! TF.FilePolarity,Positive*
%FSLAX46Y46*%
G04 Gerber Fmt 4.6, Leading zero omitted, Abs format (unit mm)*
G04 Created by KiCad (PCBNEW 9.0.2+dfsg-1) date 2026-10-04 09:33:15*
%MOMM*%
%LPD*%
G01*
G04 APERTURE LIST*
G04 #@! TA.AperFunction,Conductor*
%ADD10C,0.000000*%
G04 #@! TD*
G04 #@! TA.AperFunction,ComponentPad*
%ADD11C,1.250000*%
G04 #@! TD*
G04 #@! TA.AperFunction,ComponentPad*
%ADD12C,2.800000*%
G04 #@! TD*
G04 #@! TA.AperFunction,ViaPad*
%ADD13C,0.550000*%
G04 #@! TD*
G04 #@! TA.AperFunction,Conductor*
%ADD14C,0.300000*%
G04 #@! TD*
G04 APERTURE END LIST*
D10*
G04 #@! TA.AperFunction,Conductor*
G04 #@! TO.N,VBUS*
G36*
X97412500Y-100649999D02*
G01*
X97412500Y-100950000D01*
X96687500Y-101331250D01*
X96687500Y-100268750D01*
X97412500Y-100649999D01*
G37*
G04 #@! TD.AperFunction*
G04 #@! TA.AperFunction,Conductor*
G36*
X108656949Y-99426377D02*
G01*
X108326377Y-99756949D01*
X108055025Y-99367157D01*
X108267157Y-99155025D01*
X108656949Y-99426377D01*
G37*
G04 #@! TD.AperFunction*
G04 #@! TD*
D11*
G04 #@! TO.P,J1,1*
G04 #@! TO.N,VBUS*
X96500000Y-100800000D03*
G04 #@! TO.P,J1,2*
G04 #@! TO.N,D_N*
X99000000Y-100800000D03*
G04 #@! TO.P,J1,3*
G04 #@! TO.N,D_P*
X101000000Y-100800000D03*
G04 #@! TO.P,J1,4*
G04 #@! TO.N,GND*
X103500000Y-100800000D03*
G04 #@! TO.P,J1,5*
G04 #@! TO.N,SSRX_N*
X104000000Y-99200000D03*
G04 #@! TO.P,J1,6*
G04 #@! TO.N,SSRX_P*
X102000000Y-99200000D03*
G04 #@! TO.P,J1,7*
G04 #@! TO.N,GND*
X100000000Y-99200000D03*
G04 #@! TO.P,J1,8*
G04 #@! TO.N,SSTX_N*
X98000000Y-99200000D03*
G04 #@! TO.P,J1,9*
G04 #@! TO.N,SSTX_P*
X96000000Y-99200000D03*
D12*
G04 #@! TO.P,J1,S*
G04 #@! TO.N,GND*
X93425000Y-100650000D03*
X106575000Y-100650000D03*
G04 #@! TD*
D13*
G04 #@! TO.N,VBUS*
X108550000Y-99650000D03*
X118178000Y-99650000D03*
X108550000Y-100350000D03*
X118178000Y-100350000D03*
G04 #@! TO.N,GND*
X123393000Y-100000000D03*
X121193000Y-100000000D03*
X128611375Y-98050375D03*
X122193000Y-100000000D03*
X124593000Y-100000000D03*
X132067999Y-101450000D03*
X126493000Y-100000000D03*
X132067999Y-98550000D03*
X128193000Y-97600000D03*
X125793000Y-100000000D03*
X104934167Y-100489186D03*
X127993000Y-102400000D03*
X131627999Y-102450000D03*
G04 #@! TD*
D14*
G04 #@! TO.N,VBUS*
X99000000Y-98912400D02*
X99651600Y-98260800D01*
X107160800Y-98260800D02*
X108550000Y-99650000D01*
X99651600Y-98260800D02*
X107160800Y-98260800D01*
X99000000Y-99500000D02*
X99000000Y-98912400D01*
X96500000Y-100800000D02*
X97700000Y-100800000D01*
X97700000Y-100800000D02*
X99000000Y-99500000D01*
G04 #@! TD*
G04 #@! TA.AperFunction,Conductor*
G04 #@! TO.N,GND*
G36*
X108604832Y-95901795D02*
G01*
X108623502Y-95906797D01*
X108639913Y-95911194D01*
X108656949Y-95921029D01*
X108678970Y-95943050D01*
X108688805Y-95960085D01*
X108698205Y-95995166D01*
X108699500Y-96005001D01*
X108699500Y-96468992D01*
X108726420Y-96604329D01*
X108779222Y-96731806D01*
X108779224Y-96731809D01*
X108779225Y-96731811D01*
X108855886Y-96846542D01*
X108953458Y-96944114D01*
X109000000Y-96975212D01*
X109000000Y-99394500D01*
X108841277Y-99394500D01*
X108814407Y-99383370D01*
X108780561Y-99349524D01*
X108737750Y-99324807D01*
X108694938Y-99300090D01*
X108644871Y-99286674D01*
X108632996Y-99281156D01*
X108618987Y-99271404D01*
X108516417Y-99200000D01*
X108327443Y-99068446D01*
X108327433Y-99068440D01*
X108319651Y-99063778D01*
X108312314Y-99058053D01*
X107302699Y-98048437D01*
X107302695Y-98048435D01*
X107210630Y-98010300D01*
X107210628Y-98010300D01*
X99705856Y-98010300D01*
X99705848Y-98010299D01*
X99701428Y-98010299D01*
X99601773Y-98010299D01*
X99601772Y-98010299D01*
X99547840Y-98032639D01*
X99509704Y-98048435D01*
X99509700Y-98048437D01*
X99439236Y-98118903D01*
X99439235Y-98118904D01*
X98852758Y-98705380D01*
X98787638Y-98770500D01*
X98787635Y-98770504D01*
X98749500Y-98862570D01*
X98749500Y-98922592D01*
X98738370Y-98949462D01*
X98711500Y-98960592D01*
X98684630Y-98949462D01*
X98676393Y-98937134D01*
X98642931Y-98856351D01*
X98642930Y-98856349D01*
X98642929Y-98856347D01*
X98563532Y-98737521D01*
X98462479Y-98636468D01*
X98343653Y-98557071D01*
X98343651Y-98557070D01*
X98343648Y-98557068D01*
X98211621Y-98502381D01*
X98071455Y-98474500D01*
X97928545Y-98474500D01*
X97788378Y-98502381D01*
X97656351Y-98557068D01*
X97537521Y-98636467D01*
X97436467Y-98737521D01*
X97357068Y-98856351D01*
X97302381Y-98988378D01*
X97274500Y-99128545D01*
X97274500Y-99271454D01*
X97302381Y-99411621D01*
X97357068Y-99543648D01*
X97357070Y-99543651D01*
X97357071Y-99543653D01*
X97384199Y-99584253D01*
X97423033Y-99642373D01*
X97436468Y-99662479D01*
X97537521Y-99763532D01*
X97656347Y-99842929D01*
X97656349Y-99842930D01*
X97656351Y-99842931D01*
X97706806Y-99863830D01*
X97788380Y-99897619D01*
X97928545Y-99925500D01*
X98071454Y-99925500D01*
X98071455Y-99925500D01*
X98134319Y-99912995D01*
X98162844Y-99918669D01*
X98179003Y-99942851D01*
X98173329Y-99971376D01*
X98168603Y-99977135D01*
X97607369Y-100538370D01*
X97580499Y-100549500D01*
X97457440Y-100549500D01*
X97439754Y-100545133D01*
X97082144Y-100357080D01*
X97068233Y-100344557D01*
X97063533Y-100337522D01*
X96962478Y-100236467D01*
X96844310Y-100157510D01*
X96843653Y-100157071D01*
X96843651Y-100157070D01*
X96843648Y-100157068D01*
X96711621Y-100102381D01*
X96571455Y-100074500D01*
X96428545Y-100074500D01*
X96288378Y-100102381D01*
X96156351Y-100157068D01*
X96037521Y-100236467D01*
X95936467Y-100337521D01*
X95857068Y-100456351D01*
X95802381Y-100588378D01*
X95774500Y-100728545D01*
X95774500Y-100871454D01*
X95802381Y-101011621D01*
X95857068Y-101143648D01*
X95857070Y-101143651D01*
X95857071Y-101143653D01*
X95897302Y-101203864D01*
X95929954Y-101252731D01*
X95936468Y-101262479D01*
X96037521Y-101363532D01*
X96156347Y-101442929D01*
X96156349Y-101442930D01*
X96156351Y-101442931D01*
X96244369Y-101479389D01*
X96288380Y-101497619D01*
X96428545Y-101525500D01*
X96571454Y-101525500D01*
X96571455Y-101525500D01*
X96711620Y-101497619D01*
X96843653Y-101442929D01*
X96962479Y-101363532D01*
X97063532Y-101262479D01*
X97068236Y-101255437D01*
X97082142Y-101242919D01*
X97439752Y-101054867D01*
X97457438Y-101050500D01*
X97749829Y-101050500D01*
X97749829Y-101050499D01*
X97841897Y-101012364D01*
X98222865Y-100631393D01*
X98249735Y-100620264D01*
X98276605Y-100631394D01*
X98287735Y-100658264D01*
X98287005Y-100665677D01*
X98274500Y-100728545D01*
X98274500Y-100871454D01*
X98302381Y-101011621D01*
X98357068Y-101143648D01*
X98357070Y-101143651D01*
X98357071Y-101143653D01*
X98397302Y-101203864D01*
X98429954Y-101252731D01*
X98436468Y-101262479D01*
X98537521Y-101363532D01*
X98656347Y-101442929D01*
X98656349Y-101442930D01*
X98656351Y-101442931D01*
X98744369Y-101479389D01*
X98788380Y-101497619D01*
X98928545Y-101525500D01*
X99071454Y-101525500D01*
X99071455Y-101525500D01*
X99211620Y-101497619D01*
X99343653Y-101442929D01*
X99462479Y-101363532D01*
X99563532Y-101262479D01*
X99642929Y-101143653D01*
X99697619Y-101011620D01*
X99725500Y-100871455D01*
X99725500Y-100728545D01*
X100274500Y-100728545D01*
X100274500Y-100871454D01*
X100302381Y-101011621D01*
X100357068Y-101143648D01*
X100357070Y-101143651D01*
X100357071Y-101143653D01*
X100397302Y-101203864D01*
X100429954Y-101252731D01*
X100436468Y-101262479D01*
X100537521Y-101363532D01*
X100656347Y-101442929D01*
X100656349Y-101442930D01*
X100656351Y-101442931D01*
X100744369Y-101479389D01*
X100788380Y-101497619D01*
X100928545Y-101525500D01*
X101071454Y-101525500D01*
X101071455Y-101525500D01*
X101211620Y-101497619D01*
X101343653Y-101442929D01*
X101462479Y-101363532D01*
X101563532Y-101262479D01*
X101642929Y-101143653D01*
X101697619Y-101011620D01*
X101725500Y-100871455D01*
X101725500Y-100728594D01*
X102775000Y-100728594D01*
X102775000Y-100871405D01*
X102802861Y-101011476D01*
X102857510Y-101143410D01*
X102857513Y-101143417D01*
X102934820Y-101259112D01*
X103186657Y-101007274D01*
X103199925Y-101030255D01*
X103269745Y-101100075D01*
X103292723Y-101113341D01*
X103040885Y-101365178D01*
X103156582Y-101442486D01*
X103156589Y-101442489D01*
X103288523Y-101497138D01*
X103428594Y-101524999D01*
X103428595Y-101525000D01*
X103571405Y-101525000D01*
X103571405Y-101524999D01*
X103711476Y-101497138D01*
X103843410Y-101442489D01*
X103843417Y-101442486D01*
X103959113Y-101365178D01*
X103707276Y-101113341D01*
X103730255Y-101100075D01*
X103800075Y-101030255D01*
X103813341Y-101007276D01*
X104065178Y-101259113D01*
X104142486Y-101143417D01*
X104142489Y-101143410D01*
X104197138Y-101011476D01*
X104224999Y-100871405D01*
X104225000Y-100871404D01*
X104225000Y-100728595D01*
X104224999Y-100728594D01*
X104197138Y-100588523D01*
X104179109Y-100544996D01*
X104142489Y-100456589D01*
X104142486Y-100456582D01*
X104065178Y-100340886D01*
X104065178Y-100340885D01*
X103813341Y-100592722D01*
X103800075Y-100569745D01*
X103730255Y-100499925D01*
X103707274Y-100486657D01*
X103959113Y-100234820D01*
X103843417Y-100157513D01*
X103843410Y-100157510D01*
X103711476Y-100102861D01*
X103571405Y-100075000D01*
X103428594Y-100075000D01*
X103288523Y-100102861D01*
X103156588Y-100157510D01*
X103040886Y-100234820D01*
X103292724Y-100486658D01*
X103269745Y-100499925D01*
X103199925Y-100569745D01*
X103186658Y-100592724D01*
X102934820Y-100340886D01*
X102857510Y-100456588D01*
X102802861Y-100588523D01*
X102775000Y-100728594D01*
X101725500Y-100728594D01*
X101725500Y-100728545D01*
X101697619Y-100588380D01*
X101645270Y-100461999D01*
X101642931Y-100456351D01*
X101642930Y-100456349D01*
X101642929Y-100456347D01*
X101563532Y-100337521D01*
X101462479Y-100236468D01*
X101456564Y-100232516D01*
X101344310Y-100157510D01*
X101343653Y-100157071D01*
X101343651Y-100157070D01*
X101343648Y-100157068D01*
X101211621Y-100102381D01*
X101071455Y-100074500D01*
X100928545Y-100074500D01*
X100788378Y-100102381D01*
X100656351Y-100157068D01*
X100537521Y-100236467D01*
X100436467Y-100337521D01*
X100357068Y-100456351D01*
X100302381Y-100588378D01*
X100274500Y-100728545D01*
X99725500Y-100728545D01*
X99697619Y-100588380D01*
X99645270Y-100461999D01*
X99642931Y-100456351D01*
X99642930Y-100456349D01*
X99642929Y-100456347D01*
X99563532Y-100337521D01*
X99462479Y-100236468D01*
X99456564Y-100232516D01*
X99344310Y-100157510D01*
X99343653Y-100157071D01*
X99343651Y-100157070D01*
X99343648Y-100157068D01*
X99211621Y-100102381D01*
X99071455Y-100074500D01*
X98928545Y-100074500D01*
X98865676Y-100087005D01*
X98837151Y-100081331D01*
X98820993Y-100057148D01*
X98826667Y-100028623D01*
X98831388Y-100022870D01*
X99136550Y-99717709D01*
X99136554Y-99717706D01*
X99141896Y-99712364D01*
X99141897Y-99712364D01*
X99212364Y-99641897D01*
X99249035Y-99553365D01*
X99250501Y-99549827D01*
X99250501Y-99476105D01*
X99261631Y-99449235D01*
X99288501Y-99438105D01*
X99315371Y-99449235D01*
X99323608Y-99461563D01*
X99357510Y-99543410D01*
X99357513Y-99543417D01*
X99434820Y-99659112D01*
X99686657Y-99407275D01*
X99699925Y-99430255D01*
X99769745Y-99500075D01*
X99792723Y-99513341D01*
X99540885Y-99765178D01*
X99656582Y-99842486D01*
X99656589Y-99842489D01*
X99788523Y-99897138D01*
X99928594Y-99924999D01*
X99928595Y-99925000D01*
X100071405Y-99925000D01*
X100071405Y-99924999D01*
X100211476Y-99897138D01*
X100343410Y-99842489D01*
X100343417Y-99842486D01*
X100459113Y-99765178D01*
X100207276Y-99513341D01*
X100230255Y-99500075D01*
X100300075Y-99430255D01*
X100313341Y-99407276D01*
X100565178Y-99659113D01*
X100642486Y-99543417D01*
X100642489Y-99543410D01*
X100697138Y-99411476D01*
X100724999Y-99271405D01*
X100725000Y-99271404D01*
X100725000Y-99128595D01*
X100724999Y-99128594D01*
X100697138Y-98988523D01*
X100642489Y-98856589D01*
X100642486Y-98856582D01*
X100565178Y-98740886D01*
X100565178Y-98740885D01*
X100313341Y-98992722D01*
X100300075Y-98969745D01*
X100230255Y-98899925D01*
X100207275Y-98886657D01*
X100459113Y-98634820D01*
X100378411Y-98580896D01*
X100362253Y-98556713D01*
X100367927Y-98528188D01*
X100392110Y-98512030D01*
X100399523Y-98511300D01*
X101599579Y-98511300D01*
X101626449Y-98522430D01*
X101637579Y-98549300D01*
X101626449Y-98576170D01*
X101620693Y-98580893D01*
X101596052Y-98597358D01*
X101537521Y-98636467D01*
X101436467Y-98737521D01*
X101357068Y-98856351D01*
X101302381Y-98988378D01*
X101274500Y-99128545D01*
X101274500Y-99271454D01*
X101302381Y-99411621D01*
X101357068Y-99543648D01*
X101357070Y-99543651D01*
X101357071Y-99543653D01*
X101384199Y-99584253D01*
X101423033Y-99642373D01*
X101436468Y-99662479D01*
X101537521Y-99763532D01*
X101656347Y-99842929D01*
X101656349Y-99842930D01*
X101656351Y-99842931D01*
X101706806Y-99863830D01*
X101788380Y-99897619D01*
X101928545Y-99925500D01*
X102071454Y-99925500D01*
X102071455Y-99925500D01*
X102211620Y-99897619D01*
X102343653Y-99842929D01*
X102462479Y-99763532D01*
X102563532Y-99662479D01*
X102642929Y-99543653D01*
X102697619Y-99411620D01*
X102725500Y-99271455D01*
X102725500Y-99128545D01*
X102697619Y-98988380D01*
X102660980Y-98899925D01*
X102642931Y-98856351D01*
X102642930Y-98856349D01*
X102642929Y-98856347D01*
X102563532Y-98737521D01*
X102462479Y-98636468D01*
X102379308Y-98580895D01*
X102363151Y-98556714D01*
X102368825Y-98528188D01*
X102393007Y-98512030D01*
X102400421Y-98511300D01*
X103599579Y-98511300D01*
X103626449Y-98522430D01*
X103637579Y-98549300D01*
X103626449Y-98576170D01*
X103620693Y-98580893D01*
X103596052Y-98597358D01*
X103537521Y-98636467D01*
X103436467Y-98737521D01*
X103357068Y-98856351D01*
X103302381Y-98988378D01*
X103274500Y-99128545D01*
X103274500Y-99271454D01*
X103302381Y-99411621D01*
X103357068Y-99543648D01*
X103357070Y-99543651D01*
X103357071Y-99543653D01*
X103384199Y-99584253D01*
X103423033Y-99642373D01*
X103436468Y-99662479D01*
X103537521Y-99763532D01*
X103656347Y-99842929D01*
X103656349Y-99842930D01*
X103656351Y-99842931D01*
X103706806Y-99863830D01*
X103788380Y-99897619D01*
X103928545Y-99925500D01*
X104071454Y-99925500D01*
X104071455Y-99925500D01*
X104211620Y-99897619D01*
X104343653Y-99842929D01*
X104462479Y-99763532D01*
X104563532Y-99662479D01*
X104642929Y-99543653D01*
X104645972Y-99536307D01*
X104658516Y-99506025D01*
X104682526Y-99448056D01*
X104697619Y-99411620D01*
X104725500Y-99271455D01*
X104725500Y-99128545D01*
X104697619Y-98988380D01*
X104660980Y-98899925D01*
X104642931Y-98856351D01*
X104642930Y-98856349D01*
X104642929Y-98856347D01*
X104563532Y-98737521D01*
X104462479Y-98636468D01*
X104379308Y-98580895D01*
X104363151Y-98556714D01*
X104368825Y-98528188D01*
X104393007Y-98512030D01*
X104400421Y-98511300D01*
X107041299Y-98511300D01*
X107068169Y-98522430D01*
X107959646Y-99413907D01*
X107966367Y-99425116D01*
X107967137Y-99424744D01*
X107968439Y-99427432D01*
X107998596Y-99470752D01*
X108056109Y-99553368D01*
X108087687Y-99598728D01*
X108094500Y-99620439D01*
X108094500Y-100232516D01*
X108083370Y-100259386D01*
X108056500Y-100270516D01*
X108029630Y-100259386D01*
X108020360Y-100244259D01*
X107965105Y-100074204D01*
X107965104Y-100074202D01*
X107857915Y-99863830D01*
X107719134Y-99672814D01*
X107688693Y-99642373D01*
X107441206Y-99889860D01*
X107335140Y-99783794D01*
X107582627Y-99536307D01*
X107552185Y-99505865D01*
X107361169Y-99367084D01*
X107150797Y-99259895D01*
X107150795Y-99259894D01*
X106926251Y-99186935D01*
X106926240Y-99186932D01*
X106693055Y-99150000D01*
X106456945Y-99150000D01*
X106223759Y-99186932D01*
X106223748Y-99186935D01*
X105999204Y-99259894D01*
X105999202Y-99259895D01*
X105788830Y-99367084D01*
X105597814Y-99505865D01*
X105567373Y-99536307D01*
X105814860Y-99783794D01*
X105708794Y-99889860D01*
X105461307Y-99642373D01*
X105430865Y-99672814D01*
X105292084Y-99863830D01*
X105184895Y-100074202D01*
X105184894Y-100074204D01*
X105111935Y-100298748D01*
X105111932Y-100298759D01*
X105075000Y-100531944D01*
X105075000Y-100768055D01*
X105111932Y-101001240D01*
X105111935Y-101001251D01*
X105184894Y-101225795D01*
X105184895Y-101225797D01*
X105292084Y-101436169D01*
X105430865Y-101627185D01*
X105461307Y-101657627D01*
X105708794Y-101410140D01*
X105814860Y-101516206D01*
X105567373Y-101763693D01*
X105597814Y-101794134D01*
X105788830Y-101932915D01*
X105999202Y-102040104D01*
X105999204Y-102040105D01*
X106223748Y-102113064D01*
X106223759Y-102113067D01*
X106456945Y-102150000D01*
X106693055Y-102150000D01*
X106926240Y-102113067D01*
X106926251Y-102113064D01*
X107150795Y-102040105D01*
X107150797Y-102040104D01*
X107361169Y-101932915D01*
X107552185Y-101794134D01*
X107582627Y-101763693D01*
X107335140Y-101516206D01*
X107441206Y-101410140D01*
X107688693Y-101657627D01*
X107719134Y-101627185D01*
X107857915Y-101436169D01*
X107965104Y-101225797D01*
X107965105Y-101225795D01*
X108038064Y-101001251D01*
X108038067Y-101001240D01*
X108075000Y-100768055D01*
X108075000Y-100586983D01*
X108086130Y-100560113D01*
X108113000Y-100548983D01*
X108137679Y-100558088D01*
X108170754Y-100586337D01*
X108170758Y-100586340D01*
X108197626Y-100597469D01*
X108238000Y-100605500D01*
X108258723Y-100605500D01*
X108285593Y-100616630D01*
X108319438Y-100650475D01*
X108405062Y-100699910D01*
X108405064Y-100699910D01*
X108405065Y-100699911D01*
X108433436Y-100707512D01*
X108500563Y-100725499D01*
X108500564Y-100725500D01*
X108500565Y-100725500D01*
X108599436Y-100725500D01*
X108599436Y-100725499D01*
X108694938Y-100699910D01*
X108780562Y-100650475D01*
X108814407Y-100616630D01*
X108841277Y-100605500D01*
X109000000Y-100605500D01*
X109000000Y-103024786D01*
X108953458Y-103055885D01*
X108855885Y-103153458D01*
X108779222Y-103268193D01*
X108726420Y-103395670D01*
X108699500Y-103531007D01*
X108699500Y-103994998D01*
X108698205Y-104004832D01*
X108698205Y-104004833D01*
X108688805Y-104039914D01*
X108678970Y-104056949D01*
X108656949Y-104078970D01*
X108639914Y-104088805D01*
X108604833Y-104098205D01*
X108594998Y-104099500D01*
X92005002Y-104099500D01*
X91995167Y-104098205D01*
X91960085Y-104088805D01*
X91943050Y-104078970D01*
X91921029Y-104056949D01*
X91911194Y-104039913D01*
X91901795Y-104004832D01*
X91900500Y-103994998D01*
X91900500Y-101052094D01*
X91911630Y-101025224D01*
X91938500Y-101014094D01*
X91965370Y-101025224D01*
X91974640Y-101040351D01*
X92034894Y-101225795D01*
X92034895Y-101225797D01*
X92142084Y-101436169D01*
X92280865Y-101627185D01*
X92311307Y-101657627D01*
X92558794Y-101410140D01*
X92664860Y-101516206D01*
X92417373Y-101763693D01*
X92447814Y-101794134D01*
X92638830Y-101932915D01*
X92849202Y-102040104D01*
X92849204Y-102040105D01*
X93073748Y-102113064D01*
X93073759Y-102113067D01*
X93306945Y-102150000D01*
X93543055Y-102150000D01*
X93776240Y-102113067D01*
X93776251Y-102113064D01*
X94000795Y-102040105D01*
X94000797Y-102040104D01*
X94211169Y-101932915D01*
X94402185Y-101794134D01*
X94432627Y-101763693D01*
X94185140Y-101516206D01*
X94291206Y-101410140D01*
X94538693Y-101657627D01*
X94569134Y-101627185D01*
X94707915Y-101436169D01*
X94815104Y-101225797D01*
X94815105Y-101225795D01*
X94888064Y-101001251D01*
X94888067Y-101001240D01*
X94925000Y-100768055D01*
X94925000Y-100531944D01*
X94888067Y-100298759D01*
X94888064Y-100298748D01*
X94815105Y-100074204D01*
X94815104Y-100074202D01*
X94707915Y-99863830D01*
X94569134Y-99672814D01*
X94538693Y-99642373D01*
X94291206Y-99889860D01*
X94185140Y-99783794D01*
X94432627Y-99536307D01*
X94402185Y-99505865D01*
X94211169Y-99367084D01*
X94000797Y-99259895D01*
X94000795Y-99259894D01*
X93776251Y-99186935D01*
X93776240Y-99186932D01*
X93632774Y-99164210D01*
X93632773Y-99164209D01*
X93543056Y-99150000D01*
X93306945Y-99150000D01*
X93073759Y-99186932D01*
X93073748Y-99186935D01*
X92849204Y-99259894D01*
X92849202Y-99259895D01*
X92638830Y-99367084D01*
X92447814Y-99505865D01*
X92417373Y-99536307D01*
X92664860Y-99783794D01*
X92558794Y-99889860D01*
X92311307Y-99642373D01*
X92280865Y-99672814D01*
X92142084Y-99863830D01*
X92034895Y-100074202D01*
X92034894Y-100074204D01*
X91974640Y-100259648D01*
X91955752Y-100281763D01*
X91926757Y-100284045D01*
X91904642Y-100265157D01*
X91900500Y-100247905D01*
X91900500Y-99128545D01*
X95274500Y-99128545D01*
X95274500Y-99271454D01*
X95302381Y-99411621D01*
X95357068Y-99543648D01*
X95357070Y-99543651D01*
X95357071Y-99543653D01*
X95384199Y-99584253D01*
X95423033Y-99642373D01*
X95436468Y-99662479D01*
X95537521Y-99763532D01*
X95656347Y-99842929D01*
X95656349Y-99842930D01*
X95656351Y-99842931D01*
X95706806Y-99863830D01*
X95788380Y-99897619D01*
X95928545Y-99925500D01*
X96071454Y-99925500D01*
X96071455Y-99925500D01*
X96211620Y-99897619D01*
X96343653Y-99842929D01*
X96462479Y-99763532D01*
X96563532Y-99662479D01*
X96642929Y-99543653D01*
X96697619Y-99411620D01*
X96725500Y-99271455D01*
X96725500Y-99128545D01*
X96697619Y-98988380D01*
X96660980Y-98899925D01*
X96642931Y-98856351D01*
X96642930Y-98856349D01*
X96642929Y-98856347D01*
X96563532Y-98737521D01*
X96462479Y-98636468D01*
X96343653Y-98557071D01*
X96343651Y-98557070D01*
X96343648Y-98557068D01*
X96211621Y-98502381D01*
X96071455Y-98474500D01*
X95928545Y-98474500D01*
X95788378Y-98502381D01*
X95656351Y-98557068D01*
X95537521Y-98636467D01*
X95436467Y-98737521D01*
X95357068Y-98856351D01*
X95302381Y-98988378D01*
X95274500Y-99128545D01*
X91900500Y-99128545D01*
X91900500Y-96005001D01*
X91901795Y-95995167D01*
X91911100Y-95960438D01*
X91911195Y-95960085D01*
X91921027Y-95943052D01*
X91943052Y-95921027D01*
X91960084Y-95911195D01*
X91982310Y-95905239D01*
X91995168Y-95901795D01*
X92005002Y-95900500D01*
X92047595Y-95900500D01*
X108552405Y-95900500D01*
X108594998Y-95900500D01*
X108604832Y-95901795D01*
G37*
G04 #@! TD.AperFunction*
G04 #@! TA.AperFunction,Conductor*
G36*
X132427832Y-97101795D02*
G01*
X132446502Y-97106797D01*
X132462913Y-97111194D01*
X132479949Y-97121029D01*
X132501970Y-97143050D01*
X132511805Y-97160085D01*
X132521205Y-97195166D01*
X132522500Y-97205001D01*
X132522500Y-102794998D01*
X132521205Y-102804833D01*
X132511805Y-102839914D01*
X132501970Y-102856949D01*
X132479949Y-102878970D01*
X132462914Y-102888805D01*
X132427833Y-102898205D01*
X132417998Y-102899500D01*
X117478000Y-102899500D01*
X117478000Y-100605500D01*
X117886723Y-100605500D01*
X117913593Y-100616630D01*
X117947438Y-100650475D01*
X118033062Y-100699910D01*
X118033064Y-100699910D01*
X118033065Y-100699911D01*
X118061436Y-100707512D01*
X118128563Y-100725499D01*
X118128564Y-100725500D01*
X118128565Y-100725500D01*
X118227436Y-100725500D01*
X118227436Y-100725499D01*
X118322938Y-100699910D01*
X118408562Y-100650475D01*
X118442407Y-100616630D01*
X118469277Y-100605500D01*
X120254999Y-100605500D01*
X120255000Y-100605500D01*
X120295373Y-100597469D01*
X120322243Y-100586339D01*
X120322247Y-100586337D01*
X120336990Y-100578826D01*
X120336994Y-100578823D01*
X120362038Y-100549500D01*
X120379339Y-100529243D01*
X120390469Y-100502373D01*
X120398500Y-100462000D01*
X120398500Y-99538000D01*
X120390469Y-99497627D01*
X120379339Y-99470757D01*
X120379337Y-99470752D01*
X120371826Y-99456009D01*
X120371823Y-99456005D01*
X120322245Y-99413662D01*
X120322241Y-99413659D01*
X120295373Y-99402530D01*
X120255000Y-99394500D01*
X118469277Y-99394500D01*
X118442407Y-99383370D01*
X118408561Y-99349524D01*
X118359124Y-99320982D01*
X118322938Y-99300090D01*
X118322937Y-99300089D01*
X118322934Y-99300088D01*
X118227436Y-99274500D01*
X118227435Y-99274500D01*
X118128565Y-99274500D01*
X118128564Y-99274500D01*
X118033065Y-99300088D01*
X117947438Y-99349524D01*
X117913593Y-99383370D01*
X117886723Y-99394500D01*
X117478000Y-99394500D01*
X117478000Y-97100500D01*
X132375405Y-97100500D01*
X132417998Y-97100500D01*
X132427832Y-97101795D01*
G37*
G04 #@! TD.AperFunction*
G04 #@! TD*
G04 #@! TA.AperFunction,Conductor*
G04 #@! TO.N,VBUS*
G36*
X120281870Y-99511130D02*
G01*
X120293000Y-99538000D01*
X120293000Y-100462000D01*
X120281870Y-100488870D01*
X120255000Y-100500000D01*
X108238000Y-100500000D01*
X108211130Y-100488870D01*
X108200000Y-100462000D01*
X108200000Y-99538000D01*
X108211130Y-99511130D01*
X108238000Y-99500000D01*
X120255000Y-99500000D01*
X120281870Y-99511130D01*
G37*
G04 #@! TD.AperFunction*
G04 #@! TD*
G04 #@! TA.AperFunction,Conductor*
G04 #@! TO.N,GND*
G36*
X117478000Y-102899500D02*
G01*
X109331007Y-102899500D01*
X109195670Y-102926420D01*
X109068193Y-102979222D01*
X109000000Y-103024787D01*
X109000000Y-102757706D01*
X109189897Y-102757706D01*
X109248234Y-102816043D01*
X109314249Y-102802913D01*
X109316101Y-102802592D01*
X109317169Y-102802434D01*
X109319004Y-102802208D01*
X109323795Y-102801736D01*
X109325657Y-102801599D01*
X109326736Y-102801546D01*
X109328600Y-102801500D01*
X109431773Y-102801500D01*
X109475567Y-102757706D01*
X109614160Y-102757706D01*
X109657954Y-102801500D01*
X109856036Y-102801500D01*
X109899830Y-102757706D01*
X110038423Y-102757706D01*
X110082217Y-102801500D01*
X110280299Y-102801500D01*
X110324093Y-102757706D01*
X110462685Y-102757706D01*
X110506479Y-102801500D01*
X110704561Y-102801500D01*
X110748355Y-102757706D01*
X110886948Y-102757706D01*
X110930742Y-102801500D01*
X111128824Y-102801500D01*
X111172618Y-102757706D01*
X111311211Y-102757706D01*
X111355005Y-102801500D01*
X111553087Y-102801500D01*
X111596881Y-102757706D01*
X111735473Y-102757706D01*
X111779267Y-102801500D01*
X111977349Y-102801500D01*
X112021143Y-102757706D01*
X112159736Y-102757706D01*
X112203530Y-102801500D01*
X112401612Y-102801500D01*
X112445406Y-102757706D01*
X112583999Y-102757706D01*
X112627793Y-102801500D01*
X112825875Y-102801500D01*
X112869669Y-102757706D01*
X113008261Y-102757706D01*
X113052055Y-102801500D01*
X113250137Y-102801500D01*
X113293931Y-102757706D01*
X113432524Y-102757706D01*
X113476318Y-102801500D01*
X113674400Y-102801500D01*
X113718194Y-102757706D01*
X113856787Y-102757706D01*
X113900581Y-102801500D01*
X114098663Y-102801500D01*
X114142457Y-102757706D01*
X114281049Y-102757706D01*
X114324843Y-102801500D01*
X114522925Y-102801500D01*
X114566719Y-102757706D01*
X114705312Y-102757706D01*
X114749106Y-102801500D01*
X114947188Y-102801500D01*
X114990982Y-102757706D01*
X115129575Y-102757706D01*
X115173369Y-102801500D01*
X115371451Y-102801500D01*
X115415245Y-102757706D01*
X115553837Y-102757706D01*
X115597631Y-102801500D01*
X115795713Y-102801500D01*
X115839507Y-102757706D01*
X115978100Y-102757706D01*
X116021894Y-102801500D01*
X116219976Y-102801500D01*
X116263770Y-102757706D01*
X116402363Y-102757706D01*
X116446157Y-102801500D01*
X116644239Y-102801500D01*
X116688033Y-102757706D01*
X116826625Y-102757706D01*
X116870419Y-102801500D01*
X117068501Y-102801500D01*
X117112295Y-102757706D01*
X117250888Y-102757706D01*
X117294682Y-102801500D01*
X117340000Y-102801500D01*
X117340000Y-102668594D01*
X117250888Y-102757706D01*
X117112295Y-102757706D01*
X116969460Y-102614871D01*
X116826625Y-102757706D01*
X116688033Y-102757706D01*
X116545198Y-102614871D01*
X116402363Y-102757706D01*
X116263770Y-102757706D01*
X116120935Y-102614871D01*
X115978100Y-102757706D01*
X115839507Y-102757706D01*
X115696672Y-102614871D01*
X115553837Y-102757706D01*
X115415245Y-102757706D01*
X115272410Y-102614871D01*
X115129575Y-102757706D01*
X114990982Y-102757706D01*
X114848147Y-102614871D01*
X114705312Y-102757706D01*
X114566719Y-102757706D01*
X114423884Y-102614871D01*
X114281049Y-102757706D01*
X114142457Y-102757706D01*
X113999622Y-102614871D01*
X113856787Y-102757706D01*
X113718194Y-102757706D01*
X113575359Y-102614871D01*
X113432524Y-102757706D01*
X113293931Y-102757706D01*
X113151096Y-102614871D01*
X113008261Y-102757706D01*
X112869669Y-102757706D01*
X112726834Y-102614871D01*
X112583999Y-102757706D01*
X112445406Y-102757706D01*
X112302571Y-102614871D01*
X112159736Y-102757706D01*
X112021143Y-102757706D01*
X111878308Y-102614871D01*
X111735473Y-102757706D01*
X111596881Y-102757706D01*
X111454046Y-102614871D01*
X111311211Y-102757706D01*
X111172618Y-102757706D01*
X111029783Y-102614871D01*
X110886948Y-102757706D01*
X110748355Y-102757706D01*
X110605520Y-102614871D01*
X110462685Y-102757706D01*
X110324093Y-102757706D01*
X110181258Y-102614871D01*
X110038423Y-102757706D01*
X109899830Y-102757706D01*
X109756995Y-102614871D01*
X109614160Y-102757706D01*
X109475567Y-102757706D01*
X109332732Y-102614871D01*
X109189897Y-102757706D01*
X109000000Y-102757706D01*
X109000000Y-102671011D01*
X109138000Y-102671011D01*
X109263436Y-102545575D01*
X109402029Y-102545575D01*
X109544864Y-102688410D01*
X109687699Y-102545575D01*
X109826291Y-102545575D01*
X109969126Y-102688410D01*
X110111961Y-102545575D01*
X110250554Y-102545575D01*
X110393389Y-102688410D01*
X110536224Y-102545575D01*
X110674817Y-102545575D01*
X110817652Y-102688410D01*
X110960487Y-102545575D01*
X111099079Y-102545575D01*
X111241914Y-102688410D01*
X111384749Y-102545575D01*
X111523342Y-102545575D01*
X111666177Y-102688410D01*
X111809012Y-102545575D01*
X111947605Y-102545575D01*
X112090440Y-102688410D01*
X112233275Y-102545575D01*
X112371867Y-102545575D01*
X112514702Y-102688410D01*
X112657537Y-102545575D01*
X112796130Y-102545575D01*
X112938965Y-102688410D01*
X113081800Y-102545575D01*
X113220393Y-102545575D01*
X113363228Y-102688410D01*
X113506063Y-102545575D01*
X113644655Y-102545575D01*
X113787490Y-102688410D01*
X113930325Y-102545575D01*
X114068918Y-102545575D01*
X114211753Y-102688410D01*
X114354588Y-102545575D01*
X114493181Y-102545575D01*
X114636016Y-102688410D01*
X114778851Y-102545575D01*
X114917443Y-102545575D01*
X115060278Y-102688410D01*
X115203113Y-102545575D01*
X115341706Y-102545575D01*
X115484541Y-102688410D01*
X115627376Y-102545575D01*
X115765969Y-102545575D01*
X115908804Y-102688410D01*
X116051639Y-102545575D01*
X116190231Y-102545575D01*
X116333066Y-102688410D01*
X116475901Y-102545575D01*
X116614494Y-102545575D01*
X116757329Y-102688410D01*
X116900164Y-102545575D01*
X117038757Y-102545575D01*
X117181592Y-102688410D01*
X117324427Y-102545575D01*
X117181592Y-102402740D01*
X117038757Y-102545575D01*
X116900164Y-102545575D01*
X116757329Y-102402740D01*
X116614494Y-102545575D01*
X116475901Y-102545575D01*
X116333066Y-102402740D01*
X116190231Y-102545575D01*
X116051639Y-102545575D01*
X115908804Y-102402740D01*
X115765969Y-102545575D01*
X115627376Y-102545575D01*
X115484541Y-102402740D01*
X115341706Y-102545575D01*
X115203113Y-102545575D01*
X115060278Y-102402740D01*
X114917443Y-102545575D01*
X114778851Y-102545575D01*
X114636016Y-102402740D01*
X114493181Y-102545575D01*
X114354588Y-102545575D01*
X114211753Y-102402740D01*
X114068918Y-102545575D01*
X113930325Y-102545575D01*
X113787490Y-102402740D01*
X113644655Y-102545575D01*
X113506063Y-102545575D01*
X113363228Y-102402740D01*
X113220393Y-102545575D01*
X113081800Y-102545575D01*
X112938965Y-102402740D01*
X112796130Y-102545575D01*
X112657537Y-102545575D01*
X112514702Y-102402740D01*
X112371867Y-102545575D01*
X112233275Y-102545575D01*
X112090440Y-102402740D01*
X111947605Y-102545575D01*
X111809012Y-102545575D01*
X111666177Y-102402740D01*
X111523342Y-102545575D01*
X111384749Y-102545575D01*
X111241914Y-102402740D01*
X111099079Y-102545575D01*
X110960487Y-102545575D01*
X110817652Y-102402740D01*
X110674817Y-102545575D01*
X110536224Y-102545575D01*
X110393389Y-102402740D01*
X110250554Y-102545575D01*
X110111961Y-102545575D01*
X109969126Y-102402740D01*
X109826291Y-102545575D01*
X109687699Y-102545575D01*
X109544864Y-102402740D01*
X109402029Y-102545575D01*
X109263436Y-102545575D01*
X109138000Y-102420139D01*
X109138000Y-102671011D01*
X109000000Y-102671011D01*
X109000000Y-102333444D01*
X109189897Y-102333444D01*
X109332732Y-102476279D01*
X109475567Y-102333444D01*
X109614160Y-102333444D01*
X109756995Y-102476279D01*
X109899830Y-102333444D01*
X110038423Y-102333444D01*
X110181258Y-102476279D01*
X110324093Y-102333444D01*
X110462685Y-102333444D01*
X110605520Y-102476279D01*
X110748355Y-102333444D01*
X110886948Y-102333444D01*
X111029783Y-102476279D01*
X111172618Y-102333444D01*
X111311211Y-102333444D01*
X111454046Y-102476279D01*
X111596881Y-102333444D01*
X111735473Y-102333444D01*
X111878308Y-102476279D01*
X112021143Y-102333444D01*
X112159736Y-102333444D01*
X112302571Y-102476279D01*
X112445406Y-102333444D01*
X112583999Y-102333444D01*
X112726834Y-102476279D01*
X112869669Y-102333444D01*
X113008261Y-102333444D01*
X113151096Y-102476279D01*
X113293931Y-102333444D01*
X113432524Y-102333444D01*
X113575359Y-102476279D01*
X113718194Y-102333444D01*
X113856787Y-102333444D01*
X113999622Y-102476279D01*
X114142457Y-102333444D01*
X114281049Y-102333444D01*
X114423884Y-102476279D01*
X114566719Y-102333444D01*
X114705312Y-102333444D01*
X114848147Y-102476279D01*
X114990982Y-102333444D01*
X115129575Y-102333444D01*
X115272410Y-102476279D01*
X115415245Y-102333444D01*
X115553837Y-102333444D01*
X115696672Y-102476279D01*
X115839507Y-102333444D01*
X115978100Y-102333444D01*
X116120935Y-102476279D01*
X116263770Y-102333444D01*
X116402363Y-102333444D01*
X116545198Y-102476279D01*
X116688033Y-102333444D01*
X116826625Y-102333444D01*
X116969460Y-102476279D01*
X117112295Y-102333444D01*
X117250888Y-102333444D01*
X117340000Y-102422556D01*
X117340000Y-102244332D01*
X117250888Y-102333444D01*
X117112295Y-102333444D01*
X116969460Y-102190609D01*
X116826625Y-102333444D01*
X116688033Y-102333444D01*
X116545198Y-102190609D01*
X116402363Y-102333444D01*
X116263770Y-102333444D01*
X116120935Y-102190609D01*
X115978100Y-102333444D01*
X115839507Y-102333444D01*
X115696672Y-102190609D01*
X115553837Y-102333444D01*
X115415245Y-102333444D01*
X115272410Y-102190609D01*
X115129575Y-102333444D01*
X114990982Y-102333444D01*
X114848147Y-102190609D01*
X114705312Y-102333444D01*
X114566719Y-102333444D01*
X114423884Y-102190609D01*
X114281049Y-102333444D01*
X114142457Y-102333444D01*
X113999622Y-102190609D01*
X113856787Y-102333444D01*
X113718194Y-102333444D01*
X113575359Y-102190609D01*
X113432524Y-102333444D01*
X113293931Y-102333444D01*
X113151096Y-102190609D01*
X113008261Y-102333444D01*
X112869669Y-102333444D01*
X112726834Y-102190609D01*
X112583999Y-102333444D01*
X112445406Y-102333444D01*
X112302571Y-102190609D01*
X112159736Y-102333444D01*
X112021143Y-102333444D01*
X111878308Y-102190609D01*
X111735473Y-102333444D01*
X111596881Y-102333444D01*
X111454046Y-102190609D01*
X111311211Y-102333444D01*
X111172618Y-102333444D01*
X111029783Y-102190609D01*
X110886948Y-102333444D01*
X110748355Y-102333444D01*
X110605520Y-102190609D01*
X110462685Y-102333444D01*
X110324093Y-102333444D01*
X110181258Y-102190609D01*
X110038423Y-102333444D01*
X109899830Y-102333444D01*
X109756995Y-102190609D01*
X109614160Y-102333444D01*
X109475567Y-102333444D01*
X109332732Y-102190609D01*
X109189897Y-102333444D01*
X109000000Y-102333444D01*
X109000000Y-102246748D01*
X109138000Y-102246748D01*
X109263436Y-102121312D01*
X109402029Y-102121312D01*
X109544864Y-102264147D01*
X109687699Y-102121312D01*
X109826291Y-102121312D01*
X109969126Y-102264147D01*
X110111961Y-102121312D01*
X110250554Y-102121312D01*
X110393389Y-102264147D01*
X110536224Y-102121312D01*
X110674817Y-102121312D01*
X110817652Y-102264147D01*
X110960487Y-102121312D01*
X111099079Y-102121312D01*
X111241914Y-102264147D01*
X111384749Y-102121312D01*
X111523342Y-102121312D01*
X111666177Y-102264147D01*
X111809012Y-102121312D01*
X111947605Y-102121312D01*
X112090440Y-102264147D01*
X112233275Y-102121312D01*
X112371867Y-102121312D01*
X112514702Y-102264147D01*
X112657537Y-102121312D01*
X112796130Y-102121312D01*
X112938965Y-102264147D01*
X113081800Y-102121312D01*
X113220393Y-102121312D01*
X113363228Y-102264147D01*
X113506063Y-102121312D01*
X113644655Y-102121312D01*
X113787490Y-102264147D01*
X113930325Y-102121312D01*
X114068918Y-102121312D01*
X114211753Y-102264147D01*
X114354588Y-102121312D01*
X114493181Y-102121312D01*
X114636016Y-102264147D01*
X114778851Y-102121312D01*
X114917443Y-102121312D01*
X115060278Y-102264147D01*
X115203113Y-102121312D01*
X115341706Y-102121312D01*
X115484541Y-102264147D01*
X115627376Y-102121312D01*
X115765969Y-102121312D01*
X115908804Y-102264147D01*
X116051639Y-102121312D01*
X116190231Y-102121312D01*
X116333066Y-102264147D01*
X116475901Y-102121312D01*
X116614494Y-102121312D01*
X116757329Y-102264147D01*
X116900164Y-102121312D01*
X117038757Y-102121312D01*
X117181592Y-102264147D01*
X117324427Y-102121312D01*
X117181592Y-101978477D01*
X117038757Y-102121312D01*
X116900164Y-102121312D01*
X116757329Y-101978477D01*
X116614494Y-102121312D01*
X116475901Y-102121312D01*
X116333066Y-101978477D01*
X116190231Y-102121312D01*
X116051639Y-102121312D01*
X115908804Y-101978477D01*
X115765969Y-102121312D01*
X115627376Y-102121312D01*
X115484541Y-101978477D01*
X115341706Y-102121312D01*
X115203113Y-102121312D01*
X115060278Y-101978477D01*
X114917443Y-102121312D01*
X114778851Y-102121312D01*
X114636016Y-101978477D01*
X114493181Y-102121312D01*
X114354588Y-102121312D01*
X114211753Y-101978477D01*
X114068918Y-102121312D01*
X113930325Y-102121312D01*
X113787490Y-101978477D01*
X113644655Y-102121312D01*
X113506063Y-102121312D01*
X113363228Y-101978477D01*
X113220393Y-102121312D01*
X113081800Y-102121312D01*
X112938965Y-101978477D01*
X112796130Y-102121312D01*
X112657537Y-102121312D01*
X112514702Y-101978477D01*
X112371867Y-102121312D01*
X112233275Y-102121312D01*
X112090440Y-101978477D01*
X111947605Y-102121312D01*
X111809012Y-102121312D01*
X111666177Y-101978477D01*
X111523342Y-102121312D01*
X111384749Y-102121312D01*
X111241914Y-101978477D01*
X111099079Y-102121312D01*
X110960487Y-102121312D01*
X110817652Y-101978477D01*
X110674817Y-102121312D01*
X110536224Y-102121312D01*
X110393389Y-101978477D01*
X110250554Y-102121312D01*
X110111961Y-102121312D01*
X109969126Y-101978477D01*
X109826291Y-102121312D01*
X109687699Y-102121312D01*
X109544864Y-101978477D01*
X109402029Y-102121312D01*
X109263436Y-102121312D01*
X109138000Y-101995876D01*
X109138000Y-102246748D01*
X109000000Y-102246748D01*
X109000000Y-101909181D01*
X109189897Y-101909181D01*
X109332732Y-102052016D01*
X109475567Y-101909181D01*
X109614160Y-101909181D01*
X109756995Y-102052016D01*
X109899830Y-101909181D01*
X110038423Y-101909181D01*
X110181258Y-102052016D01*
X110324093Y-101909181D01*
X110462685Y-101909181D01*
X110605520Y-102052016D01*
X110748355Y-101909181D01*
X110886948Y-101909181D01*
X111029783Y-102052016D01*
X111172618Y-101909181D01*
X111311211Y-101909181D01*
X111454046Y-102052016D01*
X111596881Y-101909181D01*
X111735473Y-101909181D01*
X111878308Y-102052016D01*
X112021143Y-101909181D01*
X112159736Y-101909181D01*
X112302571Y-102052016D01*
X112445406Y-101909181D01*
X112583999Y-101909181D01*
X112726834Y-102052016D01*
X112869669Y-101909181D01*
X113008261Y-101909181D01*
X113151096Y-102052016D01*
X113293931Y-101909181D01*
X113432524Y-101909181D01*
X113575359Y-102052016D01*
X113718194Y-101909181D01*
X113856787Y-101909181D01*
X113999622Y-102052016D01*
X114142457Y-101909181D01*
X114281049Y-101909181D01*
X114423884Y-102052016D01*
X114566719Y-101909181D01*
X114705312Y-101909181D01*
X114848147Y-102052016D01*
X114990982Y-101909181D01*
X115129575Y-101909181D01*
X115272410Y-102052016D01*
X115415245Y-101909181D01*
X115553837Y-101909181D01*
X115696672Y-102052016D01*
X115839507Y-101909181D01*
X115978100Y-101909181D01*
X116120935Y-102052016D01*
X116263770Y-101909181D01*
X116402363Y-101909181D01*
X116545198Y-102052016D01*
X116688033Y-101909181D01*
X116826625Y-101909181D01*
X116969460Y-102052016D01*
X117112295Y-101909181D01*
X117250888Y-101909181D01*
X117340000Y-101998293D01*
X117340000Y-101820069D01*
X117250888Y-101909181D01*
X117112295Y-101909181D01*
X116969460Y-101766346D01*
X116826625Y-101909181D01*
X116688033Y-101909181D01*
X116545198Y-101766346D01*
X116402363Y-101909181D01*
X116263770Y-101909181D01*
X116120935Y-101766346D01*
X115978100Y-101909181D01*
X115839507Y-101909181D01*
X115696672Y-101766346D01*
X115553837Y-101909181D01*
X115415245Y-101909181D01*
X115272410Y-101766346D01*
X115129575Y-101909181D01*
X114990982Y-101909181D01*
X114848147Y-101766346D01*
X114705312Y-101909181D01*
X114566719Y-101909181D01*
X114423884Y-101766346D01*
X114281049Y-101909181D01*
X114142457Y-101909181D01*
X113999622Y-101766346D01*
X113856787Y-101909181D01*
X113718194Y-101909181D01*
X113575359Y-101766346D01*
X113432524Y-101909181D01*
X113293931Y-101909181D01*
X113151096Y-101766346D01*
X113008261Y-101909181D01*
X112869669Y-101909181D01*
X112726834Y-101766346D01*
X112583999Y-101909181D01*
X112445406Y-101909181D01*
X112302571Y-101766346D01*
X112159736Y-101909181D01*
X112021143Y-101909181D01*
X111878308Y-101766346D01*
X111735473Y-101909181D01*
X111596881Y-101909181D01*
X111454046Y-101766346D01*
X111311211Y-101909181D01*
X111172618Y-101909181D01*
X111029783Y-101766346D01*
X110886948Y-101909181D01*
X110748355Y-101909181D01*
X110605520Y-101766346D01*
X110462685Y-101909181D01*
X110324093Y-101909181D01*
X110181258Y-101766346D01*
X110038423Y-101909181D01*
X109899830Y-101909181D01*
X109756995Y-101766346D01*
X109614160Y-101909181D01*
X109475567Y-101909181D01*
X109332732Y-101766346D01*
X109189897Y-101909181D01*
X109000000Y-101909181D01*
X109000000Y-101822486D01*
X109138000Y-101822486D01*
X109263436Y-101697050D01*
X109402029Y-101697050D01*
X109544864Y-101839885D01*
X109687699Y-101697050D01*
X109826291Y-101697050D01*
X109969126Y-101839885D01*
X110111961Y-101697050D01*
X110250554Y-101697050D01*
X110393389Y-101839885D01*
X110536224Y-101697050D01*
X110674817Y-101697050D01*
X110817652Y-101839885D01*
X110960487Y-101697050D01*
X111099079Y-101697050D01*
X111241914Y-101839885D01*
X111384749Y-101697050D01*
X111523342Y-101697050D01*
X111666177Y-101839885D01*
X111809012Y-101697050D01*
X111947605Y-101697050D01*
X112090440Y-101839885D01*
X112233275Y-101697050D01*
X112371867Y-101697050D01*
X112514702Y-101839885D01*
X112657537Y-101697050D01*
X112796130Y-101697050D01*
X112938965Y-101839885D01*
X113081800Y-101697050D01*
X113220393Y-101697050D01*
X113363228Y-101839885D01*
X113506063Y-101697050D01*
X113644655Y-101697050D01*
X113787490Y-101839885D01*
X113930325Y-101697050D01*
X114068918Y-101697050D01*
X114211753Y-101839885D01*
X114354588Y-101697050D01*
X114493181Y-101697050D01*
X114636016Y-101839885D01*
X114778851Y-101697050D01*
X114917443Y-101697050D01*
X115060278Y-101839885D01*
X115203113Y-101697050D01*
X115341706Y-101697050D01*
X115484541Y-101839885D01*
X115627376Y-101697050D01*
X115765969Y-101697050D01*
X115908804Y-101839885D01*
X116051639Y-101697050D01*
X116190231Y-101697050D01*
X116333066Y-101839885D01*
X116475901Y-101697050D01*
X116614494Y-101697050D01*
X116757329Y-101839885D01*
X116900164Y-101697050D01*
X117038757Y-101697050D01*
X117181592Y-101839885D01*
X117324427Y-101697050D01*
X117181592Y-101554215D01*
X117038757Y-101697050D01*
X116900164Y-101697050D01*
X116757329Y-101554215D01*
X116614494Y-101697050D01*
X116475901Y-101697050D01*
X116333066Y-101554215D01*
X116190231Y-101697050D01*
X116051639Y-101697050D01*
X115908804Y-101554215D01*
X115765969Y-101697050D01*
X115627376Y-101697050D01*
X115484541Y-101554215D01*
X115341706Y-101697050D01*
X115203113Y-101697050D01*
X115060278Y-101554215D01*
X114917443Y-101697050D01*
X114778851Y-101697050D01*
X114636016Y-101554215D01*
X114493181Y-101697050D01*
X114354588Y-101697050D01*
X114211753Y-101554215D01*
X114068918Y-101697050D01*
X113930325Y-101697050D01*
X113787490Y-101554215D01*
X113644655Y-101697050D01*
X113506063Y-101697050D01*
X113363228Y-101554215D01*
X113220393Y-101697050D01*
X113081800Y-101697050D01*
X112938965Y-101554215D01*
X112796130Y-101697050D01*
X112657537Y-101697050D01*
X112514702Y-101554215D01*
X112371867Y-101697050D01*
X112233275Y-101697050D01*
X112090440Y-101554215D01*
X111947605Y-101697050D01*
X111809012Y-101697050D01*
X111666177Y-101554215D01*
X111523342Y-101697050D01*
X111384749Y-101697050D01*
X111241914Y-101554215D01*
X111099079Y-101697050D01*
X110960487Y-101697050D01*
X110817652Y-101554215D01*
X110674817Y-101697050D01*
X110536224Y-101697050D01*
X110393389Y-101554215D01*
X110250554Y-101697050D01*
X110111961Y-101697050D01*
X109969126Y-101554215D01*
X109826291Y-101697050D01*
X109687699Y-101697050D01*
X109544864Y-101554215D01*
X109402029Y-101697050D01*
X109263436Y-101697050D01*
X109138000Y-101571614D01*
X109138000Y-101822486D01*
X109000000Y-101822486D01*
X109000000Y-101484918D01*
X109189897Y-101484918D01*
X109332732Y-101627753D01*
X109475567Y-101484918D01*
X109614160Y-101484918D01*
X109756995Y-101627753D01*
X109899830Y-101484918D01*
X110038423Y-101484918D01*
X110181258Y-101627753D01*
X110324093Y-101484918D01*
X110462685Y-101484918D01*
X110605520Y-101627753D01*
X110748355Y-101484918D01*
X110886948Y-101484918D01*
X111029783Y-101627753D01*
X111172618Y-101484918D01*
X111311211Y-101484918D01*
X111454046Y-101627753D01*
X111596881Y-101484918D01*
X111735473Y-101484918D01*
X111878308Y-101627753D01*
X112021143Y-101484918D01*
X112159736Y-101484918D01*
X112302571Y-101627753D01*
X112445406Y-101484918D01*
X112583999Y-101484918D01*
X112726834Y-101627753D01*
X112869669Y-101484918D01*
X113008261Y-101484918D01*
X113151096Y-101627753D01*
X113293931Y-101484918D01*
X113432524Y-101484918D01*
X113575359Y-101627753D01*
X113718194Y-101484918D01*
X113856787Y-101484918D01*
X113999622Y-101627753D01*
X114142457Y-101484918D01*
X114281049Y-101484918D01*
X114423884Y-101627753D01*
X114566719Y-101484918D01*
X114705312Y-101484918D01*
X114848147Y-101627753D01*
X114990982Y-101484918D01*
X115129575Y-101484918D01*
X115272410Y-101627753D01*
X115415245Y-101484918D01*
X115553837Y-101484918D01*
X115696672Y-101627753D01*
X115839507Y-101484918D01*
X115978100Y-101484918D01*
X116120935Y-101627753D01*
X116263770Y-101484918D01*
X116402363Y-101484918D01*
X116545198Y-101627753D01*
X116688033Y-101484918D01*
X116826625Y-101484918D01*
X116969460Y-101627753D01*
X117112295Y-101484918D01*
X117250888Y-101484918D01*
X117340000Y-101574030D01*
X117340000Y-101395806D01*
X117250888Y-101484918D01*
X117112295Y-101484918D01*
X116969460Y-101342083D01*
X116826625Y-101484918D01*
X116688033Y-101484918D01*
X116545198Y-101342083D01*
X116402363Y-101484918D01*
X116263770Y-101484918D01*
X116120935Y-101342083D01*
X115978100Y-101484918D01*
X115839507Y-101484918D01*
X115696672Y-101342083D01*
X115553837Y-101484918D01*
X115415245Y-101484918D01*
X115272410Y-101342083D01*
X115129575Y-101484918D01*
X114990982Y-101484918D01*
X114848147Y-101342083D01*
X114705312Y-101484918D01*
X114566719Y-101484918D01*
X114423884Y-101342083D01*
X114281049Y-101484918D01*
X114142457Y-101484918D01*
X113999622Y-101342083D01*
X113856787Y-101484918D01*
X113718194Y-101484918D01*
X113575359Y-101342083D01*
X113432524Y-101484918D01*
X113293931Y-101484918D01*
X113151096Y-101342083D01*
X113008261Y-101484918D01*
X112869669Y-101484918D01*
X112726834Y-101342083D01*
X112583999Y-101484918D01*
X112445406Y-101484918D01*
X112302571Y-101342083D01*
X112159736Y-101484918D01*
X112021143Y-101484918D01*
X111878308Y-101342083D01*
X111735473Y-101484918D01*
X111596881Y-101484918D01*
X111454046Y-101342083D01*
X111311211Y-101484918D01*
X111172618Y-101484918D01*
X111029783Y-101342083D01*
X110886948Y-101484918D01*
X110748355Y-101484918D01*
X110605520Y-101342083D01*
X110462685Y-101484918D01*
X110324093Y-101484918D01*
X110181258Y-101342083D01*
X110038423Y-101484918D01*
X109899830Y-101484918D01*
X109756995Y-101342083D01*
X109614160Y-101484918D01*
X109475567Y-101484918D01*
X109332732Y-101342083D01*
X109189897Y-101484918D01*
X109000000Y-101484918D01*
X109000000Y-101398223D01*
X109138000Y-101398223D01*
X109263436Y-101272787D01*
X109402029Y-101272787D01*
X109544864Y-101415622D01*
X109687699Y-101272787D01*
X109826291Y-101272787D01*
X109969126Y-101415622D01*
X110111961Y-101272787D01*
X110250554Y-101272787D01*
X110393389Y-101415622D01*
X110536224Y-101272787D01*
X110674817Y-101272787D01*
X110817652Y-101415622D01*
X110960487Y-101272787D01*
X111099079Y-101272787D01*
X111241914Y-101415622D01*
X111384749Y-101272787D01*
X111523342Y-101272787D01*
X111666177Y-101415622D01*
X111809012Y-101272787D01*
X111947605Y-101272787D01*
X112090440Y-101415622D01*
X112233275Y-101272787D01*
X112371867Y-101272787D01*
X112514702Y-101415622D01*
X112657537Y-101272787D01*
X112796130Y-101272787D01*
X112938965Y-101415622D01*
X113081800Y-101272787D01*
X113220393Y-101272787D01*
X113363228Y-101415622D01*
X113506063Y-101272787D01*
X113644655Y-101272787D01*
X113787490Y-101415622D01*
X113930325Y-101272787D01*
X114068918Y-101272787D01*
X114211753Y-101415622D01*
X114354588Y-101272787D01*
X114493181Y-101272787D01*
X114636016Y-101415622D01*
X114778851Y-101272787D01*
X114917443Y-101272787D01*
X115060278Y-101415622D01*
X115203113Y-101272787D01*
X115341706Y-101272787D01*
X115484541Y-101415622D01*
X115627376Y-101272787D01*
X115765969Y-101272787D01*
X115908804Y-101415622D01*
X116051639Y-101272787D01*
X116190231Y-101272787D01*
X116333066Y-101415622D01*
X116475901Y-101272787D01*
X116614494Y-101272787D01*
X116757329Y-101415622D01*
X116900164Y-101272787D01*
X117038757Y-101272787D01*
X117181592Y-101415622D01*
X117324427Y-101272787D01*
X117181592Y-101129952D01*
X117038757Y-101272787D01*
X116900164Y-101272787D01*
X116757329Y-101129952D01*
X116614494Y-101272787D01*
X116475901Y-101272787D01*
X116333066Y-101129952D01*
X116190231Y-101272787D01*
X116051639Y-101272787D01*
X115908804Y-101129952D01*
X115765969Y-101272787D01*
X115627376Y-101272787D01*
X115484541Y-101129952D01*
X115341706Y-101272787D01*
X115203113Y-101272787D01*
X115060278Y-101129952D01*
X114917443Y-101272787D01*
X114778851Y-101272787D01*
X114636016Y-101129952D01*
X114493181Y-101272787D01*
X114354588Y-101272787D01*
X114211753Y-101129952D01*
X114068918Y-101272787D01*
X113930325Y-101272787D01*
X113787490Y-101129952D01*
X113644655Y-101272787D01*
X113506063Y-101272787D01*
X113363228Y-101129952D01*
X113220393Y-101272787D01*
X113081800Y-101272787D01*
X112938965Y-101129952D01*
X112796130Y-101272787D01*
X112657537Y-101272787D01*
X112514702Y-101129952D01*
X112371867Y-101272787D01*
X112233275Y-101272787D01*
X112090440Y-101129952D01*
X111947605Y-101272787D01*
X111809012Y-101272787D01*
X111666177Y-101129952D01*
X111523342Y-101272787D01*
X111384749Y-101272787D01*
X111241914Y-101129952D01*
X111099079Y-101272787D01*
X110960487Y-101272787D01*
X110817652Y-101129952D01*
X110674817Y-101272787D01*
X110536224Y-101272787D01*
X110393389Y-101129952D01*
X110250554Y-101272787D01*
X110111961Y-101272787D01*
X109969126Y-101129952D01*
X109826291Y-101272787D01*
X109687699Y-101272787D01*
X109544864Y-101129952D01*
X109402029Y-101272787D01*
X109263436Y-101272787D01*
X109138000Y-101147351D01*
X109138000Y-101398223D01*
X109000000Y-101398223D01*
X109000000Y-101060656D01*
X109189897Y-101060656D01*
X109332732Y-101203491D01*
X109475567Y-101060656D01*
X109614160Y-101060656D01*
X109756995Y-101203491D01*
X109899830Y-101060656D01*
X110038423Y-101060656D01*
X110181258Y-101203491D01*
X110324093Y-101060656D01*
X110462685Y-101060656D01*
X110605520Y-101203491D01*
X110748355Y-101060656D01*
X110886948Y-101060656D01*
X111029783Y-101203491D01*
X111172618Y-101060656D01*
X111311211Y-101060656D01*
X111454046Y-101203491D01*
X111596881Y-101060656D01*
X111735473Y-101060656D01*
X111878308Y-101203491D01*
X112021143Y-101060656D01*
X112159736Y-101060656D01*
X112302571Y-101203491D01*
X112445406Y-101060656D01*
X112583999Y-101060656D01*
X112726834Y-101203491D01*
X112869669Y-101060656D01*
X113008261Y-101060656D01*
X113151096Y-101203491D01*
X113293931Y-101060656D01*
X113432524Y-101060656D01*
X113575359Y-101203491D01*
X113718194Y-101060656D01*
X113856787Y-101060656D01*
X113999622Y-101203491D01*
X114142457Y-101060656D01*
X114281049Y-101060656D01*
X114423884Y-101203491D01*
X114566719Y-101060656D01*
X114705312Y-101060656D01*
X114848147Y-101203491D01*
X114990982Y-101060656D01*
X115129575Y-101060656D01*
X115272410Y-101203491D01*
X115415245Y-101060656D01*
X115553837Y-101060656D01*
X115696672Y-101203491D01*
X115839507Y-101060656D01*
X115978100Y-101060656D01*
X116120935Y-101203491D01*
X116263770Y-101060656D01*
X116402363Y-101060656D01*
X116545198Y-101203491D01*
X116688033Y-101060656D01*
X116826625Y-101060656D01*
X116969460Y-101203491D01*
X117112295Y-101060656D01*
X117250888Y-101060656D01*
X117340000Y-101149768D01*
X117340000Y-100971544D01*
X117250888Y-101060656D01*
X117112295Y-101060656D01*
X116969460Y-100917821D01*
X116826625Y-101060656D01*
X116688033Y-101060656D01*
X116545198Y-100917821D01*
X116402363Y-101060656D01*
X116263770Y-101060656D01*
X116120935Y-100917821D01*
X115978100Y-101060656D01*
X115839507Y-101060656D01*
X115696672Y-100917821D01*
X115553837Y-101060656D01*
X115415245Y-101060656D01*
X115272410Y-100917821D01*
X115129575Y-101060656D01*
X114990982Y-101060656D01*
X114848147Y-100917821D01*
X114705312Y-101060656D01*
X114566719Y-101060656D01*
X114423884Y-100917821D01*
X114281049Y-101060656D01*
X114142457Y-101060656D01*
X113999622Y-100917821D01*
X113856787Y-101060656D01*
X113718194Y-101060656D01*
X113575359Y-100917821D01*
X113432524Y-101060656D01*
X113293931Y-101060656D01*
X113151096Y-100917821D01*
X113008261Y-101060656D01*
X112869669Y-101060656D01*
X112726834Y-100917821D01*
X112583999Y-101060656D01*
X112445406Y-101060656D01*
X112302571Y-100917821D01*
X112159736Y-101060656D01*
X112021143Y-101060656D01*
X111878308Y-100917821D01*
X111735473Y-101060656D01*
X111596881Y-101060656D01*
X111454046Y-100917821D01*
X111311211Y-101060656D01*
X111172618Y-101060656D01*
X111029783Y-100917821D01*
X110886948Y-101060656D01*
X110748355Y-101060656D01*
X110605520Y-100917821D01*
X110462685Y-101060656D01*
X110324093Y-101060656D01*
X110181258Y-100917821D01*
X110038423Y-101060656D01*
X109899830Y-101060656D01*
X109756995Y-100917821D01*
X109614160Y-101060656D01*
X109475567Y-101060656D01*
X109332732Y-100917821D01*
X109189897Y-101060656D01*
X109000000Y-101060656D01*
X109000000Y-100973960D01*
X109138000Y-100973960D01*
X109263436Y-100848524D01*
X109402029Y-100848524D01*
X109544864Y-100991359D01*
X109687699Y-100848524D01*
X109826291Y-100848524D01*
X109969126Y-100991359D01*
X110111961Y-100848524D01*
X110250554Y-100848524D01*
X110393389Y-100991359D01*
X110536224Y-100848524D01*
X110674817Y-100848524D01*
X110817652Y-100991359D01*
X110960487Y-100848524D01*
X111099079Y-100848524D01*
X111241914Y-100991359D01*
X111384749Y-100848524D01*
X111523342Y-100848524D01*
X111666177Y-100991359D01*
X111809012Y-100848524D01*
X111947605Y-100848524D01*
X112090440Y-100991359D01*
X112233275Y-100848524D01*
X112371867Y-100848524D01*
X112514702Y-100991359D01*
X112657537Y-100848524D01*
X112796130Y-100848524D01*
X112938965Y-100991359D01*
X113081800Y-100848524D01*
X113220393Y-100848524D01*
X113363228Y-100991359D01*
X113506063Y-100848524D01*
X113644655Y-100848524D01*
X113787490Y-100991359D01*
X113930325Y-100848524D01*
X114068918Y-100848524D01*
X114211753Y-100991359D01*
X114354588Y-100848524D01*
X114493181Y-100848524D01*
X114636016Y-100991359D01*
X114778851Y-100848524D01*
X114917443Y-100848524D01*
X115060278Y-100991359D01*
X115203113Y-100848524D01*
X115341706Y-100848524D01*
X115484541Y-100991359D01*
X115627376Y-100848524D01*
X115765969Y-100848524D01*
X115908804Y-100991359D01*
X116051639Y-100848524D01*
X116190231Y-100848524D01*
X116333066Y-100991359D01*
X116475901Y-100848524D01*
X116614494Y-100848524D01*
X116757329Y-100991359D01*
X116900164Y-100848524D01*
X117038757Y-100848524D01*
X117181592Y-100991359D01*
X117324427Y-100848524D01*
X117181592Y-100705689D01*
X117038757Y-100848524D01*
X116900164Y-100848524D01*
X116757329Y-100705689D01*
X116614494Y-100848524D01*
X116475901Y-100848524D01*
X116333066Y-100705689D01*
X116190231Y-100848524D01*
X116051639Y-100848524D01*
X115908804Y-100705689D01*
X115765969Y-100848524D01*
X115627376Y-100848524D01*
X115484541Y-100705689D01*
X115341706Y-100848524D01*
X115203113Y-100848524D01*
X115060278Y-100705689D01*
X114917443Y-100848524D01*
X114778851Y-100848524D01*
X114636016Y-100705689D01*
X114493181Y-100848524D01*
X114354588Y-100848524D01*
X114211753Y-100705689D01*
X114068918Y-100848524D01*
X113930325Y-100848524D01*
X113787490Y-100705689D01*
X113644655Y-100848524D01*
X113506063Y-100848524D01*
X113363228Y-100705689D01*
X113220393Y-100848524D01*
X113081800Y-100848524D01*
X112938965Y-100705689D01*
X112796130Y-100848524D01*
X112657537Y-100848524D01*
X112514702Y-100705689D01*
X112371867Y-100848524D01*
X112233275Y-100848524D01*
X112090440Y-100705689D01*
X111947605Y-100848524D01*
X111809012Y-100848524D01*
X111666177Y-100705689D01*
X111523342Y-100848524D01*
X111384749Y-100848524D01*
X111241914Y-100705689D01*
X111099079Y-100848524D01*
X110960487Y-100848524D01*
X110817652Y-100705689D01*
X110674817Y-100848524D01*
X110536224Y-100848524D01*
X110393389Y-100705689D01*
X110250554Y-100848524D01*
X110111961Y-100848524D01*
X109969126Y-100705689D01*
X109826291Y-100848524D01*
X109687699Y-100848524D01*
X109544864Y-100705689D01*
X109402029Y-100848524D01*
X109263436Y-100848524D01*
X109138000Y-100723088D01*
X109138000Y-100973960D01*
X109000000Y-100973960D01*
X109000000Y-100703500D01*
X109257004Y-100703500D01*
X109332732Y-100779228D01*
X109408460Y-100703500D01*
X109681267Y-100703500D01*
X109756995Y-100779228D01*
X109832723Y-100703500D01*
X110105530Y-100703500D01*
X110181258Y-100779228D01*
X110256986Y-100703500D01*
X110529792Y-100703500D01*
X110605520Y-100779228D01*
X110681248Y-100703500D01*
X110954055Y-100703500D01*
X111029783Y-100779228D01*
X111105511Y-100703500D01*
X111378318Y-100703500D01*
X111454046Y-100779228D01*
X111529774Y-100703500D01*
X111802580Y-100703500D01*
X111878308Y-100779228D01*
X111954036Y-100703500D01*
X112226843Y-100703500D01*
X112302571Y-100779228D01*
X112378299Y-100703500D01*
X112651106Y-100703500D01*
X112726834Y-100779228D01*
X112802562Y-100703500D01*
X113075368Y-100703500D01*
X113151096Y-100779228D01*
X113226824Y-100703500D01*
X113499631Y-100703500D01*
X113575359Y-100779228D01*
X113651087Y-100703500D01*
X113923894Y-100703500D01*
X113999622Y-100779228D01*
X114075350Y-100703500D01*
X114348156Y-100703500D01*
X114423884Y-100779228D01*
X114499612Y-100703500D01*
X114772419Y-100703500D01*
X114848147Y-100779228D01*
X114923875Y-100703500D01*
X115196682Y-100703500D01*
X115272410Y-100779228D01*
X115348138Y-100703500D01*
X115620944Y-100703500D01*
X115696672Y-100779228D01*
X115772400Y-100703500D01*
X116045207Y-100703500D01*
X116120935Y-100779228D01*
X116196663Y-100703500D01*
X116469470Y-100703500D01*
X116545198Y-100779228D01*
X116620926Y-100703500D01*
X116893732Y-100703500D01*
X116969460Y-100779228D01*
X117045188Y-100703500D01*
X117317995Y-100703500D01*
X117340000Y-100725505D01*
X117340000Y-100703500D01*
X117317995Y-100703500D01*
X117045188Y-100703500D01*
X116893732Y-100703500D01*
X116620926Y-100703500D01*
X116469470Y-100703500D01*
X116196663Y-100703500D01*
X116045207Y-100703500D01*
X115772400Y-100703500D01*
X115620944Y-100703500D01*
X115348138Y-100703500D01*
X115196682Y-100703500D01*
X114923875Y-100703500D01*
X114772419Y-100703500D01*
X114499612Y-100703500D01*
X114348156Y-100703500D01*
X114075350Y-100703500D01*
X113923894Y-100703500D01*
X113651087Y-100703500D01*
X113499631Y-100703500D01*
X113226824Y-100703500D01*
X113075368Y-100703500D01*
X112802562Y-100703500D01*
X112651106Y-100703500D01*
X112378299Y-100703500D01*
X112226843Y-100703500D01*
X111954036Y-100703500D01*
X111802580Y-100703500D01*
X111529774Y-100703500D01*
X111378318Y-100703500D01*
X111105511Y-100703500D01*
X110954055Y-100703500D01*
X110681248Y-100703500D01*
X110529792Y-100703500D01*
X110256986Y-100703500D01*
X110105530Y-100703500D01*
X109832723Y-100703500D01*
X109681267Y-100703500D01*
X109408460Y-100703500D01*
X109257004Y-100703500D01*
X109000000Y-100703500D01*
X109000000Y-100605500D01*
X117478000Y-100605500D01*
X117478000Y-102899500D01*
G37*
G04 #@! TD.AperFunction*
G04 #@! TA.AperFunction,Conductor*
G36*
X109068189Y-97020775D02*
G01*
X109068191Y-97020776D01*
X109068193Y-97020777D01*
X109115713Y-97040460D01*
X109195672Y-97073580D01*
X109331007Y-97100500D01*
X117478000Y-97100500D01*
X117478000Y-99394500D01*
X109000000Y-99394500D01*
X109000000Y-99296500D01*
X109257002Y-99296500D01*
X109408462Y-99296500D01*
X109681265Y-99296500D01*
X109832725Y-99296500D01*
X110105528Y-99296500D01*
X110256988Y-99296500D01*
X110529790Y-99296500D01*
X110681250Y-99296500D01*
X110954053Y-99296500D01*
X111105513Y-99296500D01*
X111378316Y-99296500D01*
X111529776Y-99296500D01*
X111802578Y-99296500D01*
X111954038Y-99296500D01*
X112226841Y-99296500D01*
X112378301Y-99296500D01*
X112651104Y-99296500D01*
X112802564Y-99296500D01*
X113075366Y-99296500D01*
X113226826Y-99296500D01*
X113499629Y-99296500D01*
X113651089Y-99296500D01*
X113923892Y-99296500D01*
X114075352Y-99296500D01*
X114348154Y-99296500D01*
X114499614Y-99296500D01*
X114772417Y-99296500D01*
X114923877Y-99296500D01*
X115196680Y-99296500D01*
X115348140Y-99296500D01*
X115620942Y-99296500D01*
X115772402Y-99296500D01*
X116045205Y-99296500D01*
X116196665Y-99296500D01*
X116469468Y-99296500D01*
X116620928Y-99296500D01*
X116893730Y-99296500D01*
X117045190Y-99296500D01*
X117317993Y-99296500D01*
X117340000Y-99296500D01*
X117340000Y-99274493D01*
X117317993Y-99296500D01*
X117045190Y-99296500D01*
X116969460Y-99220770D01*
X116893730Y-99296500D01*
X116620928Y-99296500D01*
X116545198Y-99220770D01*
X116469468Y-99296500D01*
X116196665Y-99296500D01*
X116120935Y-99220770D01*
X116045205Y-99296500D01*
X115772402Y-99296500D01*
X115696672Y-99220770D01*
X115620942Y-99296500D01*
X115348140Y-99296500D01*
X115272410Y-99220770D01*
X115196680Y-99296500D01*
X114923877Y-99296500D01*
X114848147Y-99220770D01*
X114772417Y-99296500D01*
X114499614Y-99296500D01*
X114423884Y-99220770D01*
X114348154Y-99296500D01*
X114075352Y-99296500D01*
X113999622Y-99220770D01*
X113923892Y-99296500D01*
X113651089Y-99296500D01*
X113575359Y-99220770D01*
X113499629Y-99296500D01*
X113226826Y-99296500D01*
X113151096Y-99220770D01*
X113075366Y-99296500D01*
X112802564Y-99296500D01*
X112726834Y-99220770D01*
X112651104Y-99296500D01*
X112378301Y-99296500D01*
X112302571Y-99220770D01*
X112226841Y-99296500D01*
X111954038Y-99296500D01*
X111878308Y-99220770D01*
X111802578Y-99296500D01*
X111529776Y-99296500D01*
X111454046Y-99220770D01*
X111378316Y-99296500D01*
X111105513Y-99296500D01*
X111029783Y-99220770D01*
X110954053Y-99296500D01*
X110681250Y-99296500D01*
X110605520Y-99220770D01*
X110529790Y-99296500D01*
X110256988Y-99296500D01*
X110181258Y-99220770D01*
X110105528Y-99296500D01*
X109832725Y-99296500D01*
X109756995Y-99220770D01*
X109681265Y-99296500D01*
X109408462Y-99296500D01*
X109332732Y-99220770D01*
X109257002Y-99296500D01*
X109000000Y-99296500D01*
X109000000Y-99276910D01*
X109138000Y-99276910D01*
X109263436Y-99151474D01*
X109402029Y-99151474D01*
X109544864Y-99294309D01*
X109687699Y-99151474D01*
X109826291Y-99151474D01*
X109969126Y-99294309D01*
X110111961Y-99151474D01*
X110250554Y-99151474D01*
X110393389Y-99294309D01*
X110536224Y-99151474D01*
X110674817Y-99151474D01*
X110817652Y-99294309D01*
X110960487Y-99151474D01*
X111099079Y-99151474D01*
X111241914Y-99294309D01*
X111384749Y-99151474D01*
X111523342Y-99151474D01*
X111666177Y-99294309D01*
X111809012Y-99151474D01*
X111947605Y-99151474D01*
X112090440Y-99294309D01*
X112233275Y-99151474D01*
X112371867Y-99151474D01*
X112514702Y-99294309D01*
X112657537Y-99151474D01*
X112796130Y-99151474D01*
X112938965Y-99294309D01*
X113081800Y-99151474D01*
X113220393Y-99151474D01*
X113363228Y-99294309D01*
X113506063Y-99151474D01*
X113644655Y-99151474D01*
X113787490Y-99294309D01*
X113930325Y-99151474D01*
X114068918Y-99151474D01*
X114211753Y-99294309D01*
X114354588Y-99151474D01*
X114493181Y-99151474D01*
X114636016Y-99294309D01*
X114778851Y-99151474D01*
X114917443Y-99151474D01*
X115060278Y-99294309D01*
X115203113Y-99151474D01*
X115341706Y-99151474D01*
X115484541Y-99294309D01*
X115627376Y-99151474D01*
X115765969Y-99151474D01*
X115908804Y-99294309D01*
X116051639Y-99151474D01*
X116190231Y-99151474D01*
X116333066Y-99294309D01*
X116475901Y-99151474D01*
X116614494Y-99151474D01*
X116757329Y-99294309D01*
X116900164Y-99151474D01*
X117038757Y-99151474D01*
X117181592Y-99294309D01*
X117324427Y-99151474D01*
X117181592Y-99008639D01*
X117038757Y-99151474D01*
X116900164Y-99151474D01*
X116757329Y-99008639D01*
X116614494Y-99151474D01*
X116475901Y-99151474D01*
X116333066Y-99008639D01*
X116190231Y-99151474D01*
X116051639Y-99151474D01*
X115908804Y-99008639D01*
X115765969Y-99151474D01*
X115627376Y-99151474D01*
X115484541Y-99008639D01*
X115341706Y-99151474D01*
X115203113Y-99151474D01*
X115060278Y-99008639D01*
X114917443Y-99151474D01*
X114778851Y-99151474D01*
X114636016Y-99008639D01*
X114493181Y-99151474D01*
X114354588Y-99151474D01*
X114211753Y-99008639D01*
X114068918Y-99151474D01*
X113930325Y-99151474D01*
X113787490Y-99008639D01*
X113644655Y-99151474D01*
X113506063Y-99151474D01*
X113363228Y-99008639D01*
X113220393Y-99151474D01*
X113081800Y-99151474D01*
X112938965Y-99008639D01*
X112796130Y-99151474D01*
X112657537Y-99151474D01*
X112514702Y-99008639D01*
X112371867Y-99151474D01*
X112233275Y-99151474D01*
X112090440Y-99008639D01*
X111947605Y-99151474D01*
X111809012Y-99151474D01*
X111666177Y-99008639D01*
X111523342Y-99151474D01*
X111384749Y-99151474D01*
X111241914Y-99008639D01*
X111099079Y-99151474D01*
X110960487Y-99151474D01*
X110817652Y-99008639D01*
X110674817Y-99151474D01*
X110536224Y-99151474D01*
X110393389Y-99008639D01*
X110250554Y-99151474D01*
X110111961Y-99151474D01*
X109969126Y-99008639D01*
X109826291Y-99151474D01*
X109687699Y-99151474D01*
X109544864Y-99008639D01*
X109402029Y-99151474D01*
X109263436Y-99151474D01*
X109138000Y-99026038D01*
X109138000Y-99276910D01*
X109000000Y-99276910D01*
X109000000Y-98939342D01*
X109189897Y-98939342D01*
X109332732Y-99082177D01*
X109475566Y-98939342D01*
X109614160Y-98939342D01*
X109756995Y-99082177D01*
X109899829Y-98939342D01*
X110038423Y-98939342D01*
X110181258Y-99082177D01*
X110324092Y-98939342D01*
X110462685Y-98939342D01*
X110605520Y-99082177D01*
X110748354Y-98939342D01*
X110886948Y-98939342D01*
X111029783Y-99082177D01*
X111172617Y-98939342D01*
X111311211Y-98939342D01*
X111454046Y-99082177D01*
X111596880Y-98939342D01*
X111735473Y-98939342D01*
X111878308Y-99082177D01*
X112021142Y-98939342D01*
X112159736Y-98939342D01*
X112302571Y-99082177D01*
X112445405Y-98939342D01*
X112583999Y-98939342D01*
X112726834Y-99082177D01*
X112869668Y-98939342D01*
X113008261Y-98939342D01*
X113151096Y-99082177D01*
X113293930Y-98939342D01*
X113432524Y-98939342D01*
X113575359Y-99082177D01*
X113718193Y-98939342D01*
X113856787Y-98939342D01*
X113999622Y-99082177D01*
X114142456Y-98939342D01*
X114281049Y-98939342D01*
X114423884Y-99082177D01*
X114566718Y-98939342D01*
X114705312Y-98939342D01*
X114848147Y-99082177D01*
X114990981Y-98939342D01*
X115129575Y-98939342D01*
X115272410Y-99082177D01*
X115415244Y-98939342D01*
X115553837Y-98939342D01*
X115696672Y-99082177D01*
X115839506Y-98939342D01*
X115978100Y-98939342D01*
X116120935Y-99082177D01*
X116263769Y-98939342D01*
X116402363Y-98939342D01*
X116545198Y-99082177D01*
X116688032Y-98939342D01*
X116826625Y-98939342D01*
X116969460Y-99082177D01*
X117112294Y-98939342D01*
X117250888Y-98939342D01*
X117340000Y-99028454D01*
X117340000Y-98850230D01*
X117250888Y-98939342D01*
X117112294Y-98939342D01*
X116969460Y-98796507D01*
X116826625Y-98939342D01*
X116688032Y-98939342D01*
X116545198Y-98796507D01*
X116402363Y-98939342D01*
X116263769Y-98939342D01*
X116120935Y-98796507D01*
X115978100Y-98939342D01*
X115839506Y-98939342D01*
X115696672Y-98796507D01*
X115553837Y-98939342D01*
X115415244Y-98939342D01*
X115272410Y-98796507D01*
X115129575Y-98939342D01*
X114990981Y-98939342D01*
X114848147Y-98796507D01*
X114705312Y-98939342D01*
X114566718Y-98939342D01*
X114423884Y-98796507D01*
X114281049Y-98939342D01*
X114142456Y-98939342D01*
X113999622Y-98796507D01*
X113856787Y-98939342D01*
X113718193Y-98939342D01*
X113575359Y-98796507D01*
X113432524Y-98939342D01*
X113293930Y-98939342D01*
X113151096Y-98796507D01*
X113008261Y-98939342D01*
X112869668Y-98939342D01*
X112726834Y-98796507D01*
X112583999Y-98939342D01*
X112445405Y-98939342D01*
X112302571Y-98796507D01*
X112159736Y-98939342D01*
X112021142Y-98939342D01*
X111878308Y-98796507D01*
X111735473Y-98939342D01*
X111596880Y-98939342D01*
X111454046Y-98796507D01*
X111311211Y-98939342D01*
X111172617Y-98939342D01*
X111029783Y-98796507D01*
X110886948Y-98939342D01*
X110748354Y-98939342D01*
X110605520Y-98796507D01*
X110462685Y-98939342D01*
X110324092Y-98939342D01*
X110181258Y-98796507D01*
X110038423Y-98939342D01*
X109899829Y-98939342D01*
X109756995Y-98796507D01*
X109614160Y-98939342D01*
X109475566Y-98939342D01*
X109332732Y-98796507D01*
X109189897Y-98939342D01*
X109000000Y-98939342D01*
X109000000Y-98852647D01*
X109138000Y-98852647D01*
X109263436Y-98727211D01*
X109402029Y-98727211D01*
X109544864Y-98870046D01*
X109687699Y-98727211D01*
X109826291Y-98727211D01*
X109969126Y-98870046D01*
X110111961Y-98727211D01*
X110250554Y-98727211D01*
X110393389Y-98870046D01*
X110536224Y-98727211D01*
X110674817Y-98727211D01*
X110817652Y-98870046D01*
X110960487Y-98727211D01*
X111099079Y-98727211D01*
X111241914Y-98870046D01*
X111384749Y-98727211D01*
X111523342Y-98727211D01*
X111666177Y-98870046D01*
X111809012Y-98727211D01*
X111947605Y-98727211D01*
X112090440Y-98870046D01*
X112233275Y-98727211D01*
X112371867Y-98727211D01*
X112514702Y-98870046D01*
X112657537Y-98727211D01*
X112796130Y-98727211D01*
X112938965Y-98870046D01*
X113081800Y-98727211D01*
X113220393Y-98727211D01*
X113363228Y-98870046D01*
X113506063Y-98727211D01*
X113644655Y-98727211D01*
X113787490Y-98870046D01*
X113930325Y-98727211D01*
X114068918Y-98727211D01*
X114211753Y-98870046D01*
X114354588Y-98727211D01*
X114493181Y-98727211D01*
X114636016Y-98870046D01*
X114778851Y-98727211D01*
X114917443Y-98727211D01*
X115060278Y-98870046D01*
X115203113Y-98727211D01*
X115341706Y-98727211D01*
X115484541Y-98870046D01*
X115627376Y-98727211D01*
X115765969Y-98727211D01*
X115908804Y-98870046D01*
X116051639Y-98727211D01*
X116190231Y-98727211D01*
X116333066Y-98870046D01*
X116475901Y-98727211D01*
X116614494Y-98727211D01*
X116757329Y-98870046D01*
X116900164Y-98727211D01*
X117038757Y-98727211D01*
X117181592Y-98870046D01*
X117324427Y-98727211D01*
X117181592Y-98584376D01*
X117038757Y-98727211D01*
X116900164Y-98727211D01*
X116757329Y-98584376D01*
X116614494Y-98727211D01*
X116475901Y-98727211D01*
X116333066Y-98584376D01*
X116190231Y-98727211D01*
X116051639Y-98727211D01*
X115908804Y-98584376D01*
X115765969Y-98727211D01*
X115627376Y-98727211D01*
X115484541Y-98584376D01*
X115341706Y-98727211D01*
X115203113Y-98727211D01*
X115060278Y-98584376D01*
X114917443Y-98727211D01*
X114778851Y-98727211D01*
X114636016Y-98584376D01*
X114493181Y-98727211D01*
X114354588Y-98727211D01*
X114211753Y-98584376D01*
X114068918Y-98727211D01*
X113930325Y-98727211D01*
X113787490Y-98584376D01*
X113644655Y-98727211D01*
X113506063Y-98727211D01*
X113363228Y-98584376D01*
X113220393Y-98727211D01*
X113081800Y-98727211D01*
X112938965Y-98584376D01*
X112796130Y-98727211D01*
X112657537Y-98727211D01*
X112514702Y-98584376D01*
X112371867Y-98727211D01*
X112233275Y-98727211D01*
X112090440Y-98584376D01*
X111947605Y-98727211D01*
X111809012Y-98727211D01*
X111666177Y-98584376D01*
X111523342Y-98727211D01*
X111384749Y-98727211D01*
X111241914Y-98584376D01*
X111099079Y-98727211D01*
X110960487Y-98727211D01*
X110817652Y-98584376D01*
X110674817Y-98727211D01*
X110536224Y-98727211D01*
X110393389Y-98584376D01*
X110250554Y-98727211D01*
X110111961Y-98727211D01*
X109969126Y-98584376D01*
X109826291Y-98727211D01*
X109687699Y-98727211D01*
X109544864Y-98584376D01*
X109402029Y-98727211D01*
X109263436Y-98727211D01*
X109138000Y-98601775D01*
X109138000Y-98852647D01*
X109000000Y-98852647D01*
X109000000Y-98515080D01*
X109189897Y-98515080D01*
X109332732Y-98657915D01*
X109475567Y-98515080D01*
X109614160Y-98515080D01*
X109756995Y-98657915D01*
X109899830Y-98515080D01*
X110038423Y-98515080D01*
X110181258Y-98657915D01*
X110324093Y-98515080D01*
X110462685Y-98515080D01*
X110605520Y-98657915D01*
X110748355Y-98515080D01*
X110886948Y-98515080D01*
X111029783Y-98657915D01*
X111172618Y-98515080D01*
X111311211Y-98515080D01*
X111454046Y-98657915D01*
X111596881Y-98515080D01*
X111735473Y-98515080D01*
X111878308Y-98657915D01*
X112021143Y-98515080D01*
X112159736Y-98515080D01*
X112302571Y-98657915D01*
X112445406Y-98515080D01*
X112583999Y-98515080D01*
X112726834Y-98657915D01*
X112869669Y-98515080D01*
X113008261Y-98515080D01*
X113151096Y-98657915D01*
X113293931Y-98515080D01*
X113432524Y-98515080D01*
X113575359Y-98657915D01*
X113718194Y-98515080D01*
X113856787Y-98515080D01*
X113999622Y-98657915D01*
X114142457Y-98515080D01*
X114281049Y-98515080D01*
X114423884Y-98657915D01*
X114566719Y-98515080D01*
X114705312Y-98515080D01*
X114848147Y-98657915D01*
X114990982Y-98515080D01*
X115129575Y-98515080D01*
X115272410Y-98657915D01*
X115415245Y-98515080D01*
X115553837Y-98515080D01*
X115696672Y-98657915D01*
X115839507Y-98515080D01*
X115978100Y-98515080D01*
X116120935Y-98657915D01*
X116263770Y-98515080D01*
X116402363Y-98515080D01*
X116545198Y-98657915D01*
X116688033Y-98515080D01*
X116826625Y-98515080D01*
X116969460Y-98657915D01*
X117112295Y-98515080D01*
X117250888Y-98515080D01*
X117340000Y-98604192D01*
X117340000Y-98425968D01*
X117250888Y-98515080D01*
X117112295Y-98515080D01*
X116969460Y-98372245D01*
X116826625Y-98515080D01*
X116688033Y-98515080D01*
X116545198Y-98372245D01*
X116402363Y-98515080D01*
X116263770Y-98515080D01*
X116120935Y-98372245D01*
X115978100Y-98515080D01*
X115839507Y-98515080D01*
X115696672Y-98372245D01*
X115553837Y-98515080D01*
X115415245Y-98515080D01*
X115272410Y-98372245D01*
X115129575Y-98515080D01*
X114990982Y-98515080D01*
X114848147Y-98372245D01*
X114705312Y-98515080D01*
X114566719Y-98515080D01*
X114423884Y-98372245D01*
X114281049Y-98515080D01*
X114142457Y-98515080D01*
X113999622Y-98372245D01*
X113856787Y-98515080D01*
X113718194Y-98515080D01*
X113575359Y-98372245D01*
X113432524Y-98515080D01*
X113293931Y-98515080D01*
X113151096Y-98372245D01*
X113008261Y-98515080D01*
X112869669Y-98515080D01*
X112726834Y-98372245D01*
X112583999Y-98515080D01*
X112445406Y-98515080D01*
X112302571Y-98372245D01*
X112159736Y-98515080D01*
X112021143Y-98515080D01*
X111878308Y-98372245D01*
X111735473Y-98515080D01*
X111596881Y-98515080D01*
X111454046Y-98372245D01*
X111311211Y-98515080D01*
X111172618Y-98515080D01*
X111029783Y-98372245D01*
X110886948Y-98515080D01*
X110748355Y-98515080D01*
X110605520Y-98372245D01*
X110462685Y-98515080D01*
X110324093Y-98515080D01*
X110181258Y-98372245D01*
X110038423Y-98515080D01*
X109899830Y-98515080D01*
X109756995Y-98372245D01*
X109614160Y-98515080D01*
X109475567Y-98515080D01*
X109332732Y-98372245D01*
X109189897Y-98515080D01*
X109000000Y-98515080D01*
X109000000Y-98428384D01*
X109138000Y-98428384D01*
X109263435Y-98302948D01*
X109402029Y-98302948D01*
X109544864Y-98445783D01*
X109687698Y-98302948D01*
X109826291Y-98302948D01*
X109969126Y-98445783D01*
X110111960Y-98302948D01*
X110250554Y-98302948D01*
X110393389Y-98445783D01*
X110536223Y-98302948D01*
X110674817Y-98302948D01*
X110817652Y-98445783D01*
X110960486Y-98302948D01*
X111099079Y-98302948D01*
X111241914Y-98445783D01*
X111384748Y-98302948D01*
X111523342Y-98302948D01*
X111666177Y-98445783D01*
X111809011Y-98302948D01*
X111947605Y-98302948D01*
X112090440Y-98445783D01*
X112233274Y-98302948D01*
X112371867Y-98302948D01*
X112514702Y-98445783D01*
X112657536Y-98302948D01*
X112796130Y-98302948D01*
X112938965Y-98445783D01*
X113081799Y-98302948D01*
X113220393Y-98302948D01*
X113363228Y-98445783D01*
X113506062Y-98302948D01*
X113644655Y-98302948D01*
X113787490Y-98445783D01*
X113930324Y-98302948D01*
X114068918Y-98302948D01*
X114211753Y-98445783D01*
X114354587Y-98302948D01*
X114493181Y-98302948D01*
X114636016Y-98445783D01*
X114778850Y-98302948D01*
X114917443Y-98302948D01*
X115060278Y-98445783D01*
X115203112Y-98302948D01*
X115341706Y-98302948D01*
X115484541Y-98445783D01*
X115627375Y-98302948D01*
X115765969Y-98302948D01*
X115908804Y-98445783D01*
X116051638Y-98302948D01*
X116190231Y-98302948D01*
X116333066Y-98445783D01*
X116475900Y-98302948D01*
X116614494Y-98302948D01*
X116757329Y-98445783D01*
X116900163Y-98302948D01*
X117038757Y-98302948D01*
X117181591Y-98445783D01*
X117324426Y-98302948D01*
X117181592Y-98160114D01*
X117038757Y-98302948D01*
X116900163Y-98302948D01*
X116757329Y-98160114D01*
X116614494Y-98302948D01*
X116475900Y-98302948D01*
X116333066Y-98160114D01*
X116190231Y-98302948D01*
X116051638Y-98302948D01*
X115908804Y-98160114D01*
X115765969Y-98302948D01*
X115627375Y-98302948D01*
X115484541Y-98160114D01*
X115341706Y-98302948D01*
X115203112Y-98302948D01*
X115060278Y-98160114D01*
X114917443Y-98302948D01*
X114778850Y-98302948D01*
X114636016Y-98160114D01*
X114493181Y-98302948D01*
X114354587Y-98302948D01*
X114211753Y-98160114D01*
X114068918Y-98302948D01*
X113930324Y-98302948D01*
X113787490Y-98160114D01*
X113644655Y-98302948D01*
X113506062Y-98302948D01*
X113363228Y-98160114D01*
X113220393Y-98302948D01*
X113081799Y-98302948D01*
X112938965Y-98160114D01*
X112796130Y-98302948D01*
X112657536Y-98302948D01*
X112514702Y-98160114D01*
X112371867Y-98302948D01*
X112233274Y-98302948D01*
X112090440Y-98160114D01*
X111947605Y-98302948D01*
X111809011Y-98302948D01*
X111666177Y-98160114D01*
X111523342Y-98302948D01*
X111384748Y-98302948D01*
X111241914Y-98160114D01*
X111099079Y-98302948D01*
X110960486Y-98302948D01*
X110817652Y-98160114D01*
X110674817Y-98302948D01*
X110536223Y-98302948D01*
X110393389Y-98160114D01*
X110250554Y-98302948D01*
X110111960Y-98302948D01*
X109969126Y-98160114D01*
X109826291Y-98302948D01*
X109687698Y-98302948D01*
X109544864Y-98160114D01*
X109402029Y-98302948D01*
X109263435Y-98302948D01*
X109138000Y-98177513D01*
X109138000Y-98428384D01*
X109000000Y-98428384D01*
X109000000Y-98090817D01*
X109189897Y-98090817D01*
X109332732Y-98233652D01*
X109475567Y-98090817D01*
X109614160Y-98090817D01*
X109756995Y-98233652D01*
X109899830Y-98090817D01*
X110038423Y-98090817D01*
X110181258Y-98233652D01*
X110324093Y-98090817D01*
X110462685Y-98090817D01*
X110605520Y-98233652D01*
X110748355Y-98090817D01*
X110886948Y-98090817D01*
X111029783Y-98233652D01*
X111172618Y-98090817D01*
X111311211Y-98090817D01*
X111454046Y-98233652D01*
X111596881Y-98090817D01*
X111735473Y-98090817D01*
X111878308Y-98233652D01*
X112021143Y-98090817D01*
X112159736Y-98090817D01*
X112302571Y-98233652D01*
X112445406Y-98090817D01*
X112583999Y-98090817D01*
X112726834Y-98233652D01*
X112869669Y-98090817D01*
X113008261Y-98090817D01*
X113151096Y-98233652D01*
X113293931Y-98090817D01*
X113432524Y-98090817D01*
X113575359Y-98233652D01*
X113718194Y-98090817D01*
X113856787Y-98090817D01*
X113999622Y-98233652D01*
X114142457Y-98090817D01*
X114281049Y-98090817D01*
X114423884Y-98233652D01*
X114566719Y-98090817D01*
X114705312Y-98090817D01*
X114848147Y-98233652D01*
X114990982Y-98090817D01*
X115129575Y-98090817D01*
X115272410Y-98233652D01*
X115415245Y-98090817D01*
X115553837Y-98090817D01*
X115696672Y-98233652D01*
X115839507Y-98090817D01*
X115978100Y-98090817D01*
X116120935Y-98233652D01*
X116263770Y-98090817D01*
X116402363Y-98090817D01*
X116545198Y-98233652D01*
X116688033Y-98090817D01*
X116826625Y-98090817D01*
X116969460Y-98233652D01*
X117112295Y-98090817D01*
X117250888Y-98090817D01*
X117340000Y-98179929D01*
X117340000Y-98001705D01*
X117250888Y-98090817D01*
X117112295Y-98090817D01*
X116969460Y-97947982D01*
X116826625Y-98090817D01*
X116688033Y-98090817D01*
X116545198Y-97947982D01*
X116402363Y-98090817D01*
X116263770Y-98090817D01*
X116120935Y-97947982D01*
X115978100Y-98090817D01*
X115839507Y-98090817D01*
X115696672Y-97947982D01*
X115553837Y-98090817D01*
X115415245Y-98090817D01*
X115272410Y-97947982D01*
X115129575Y-98090817D01*
X114990982Y-98090817D01*
X114848147Y-97947982D01*
X114705312Y-98090817D01*
X114566719Y-98090817D01*
X114423884Y-97947982D01*
X114281049Y-98090817D01*
X114142457Y-98090817D01*
X113999622Y-97947982D01*
X113856787Y-98090817D01*
X113718194Y-98090817D01*
X113575359Y-97947982D01*
X113432524Y-98090817D01*
X113293931Y-98090817D01*
X113151096Y-97947982D01*
X113008261Y-98090817D01*
X112869669Y-98090817D01*
X112726834Y-97947982D01*
X112583999Y-98090817D01*
X112445406Y-98090817D01*
X112302571Y-97947982D01*
X112159736Y-98090817D01*
X112021143Y-98090817D01*
X111878308Y-97947982D01*
X111735473Y-98090817D01*
X111596881Y-98090817D01*
X111454046Y-97947982D01*
X111311211Y-98090817D01*
X111172618Y-98090817D01*
X111029783Y-97947982D01*
X110886948Y-98090817D01*
X110748355Y-98090817D01*
X110605520Y-97947982D01*
X110462685Y-98090817D01*
X110324093Y-98090817D01*
X110181258Y-97947982D01*
X110038423Y-98090817D01*
X109899830Y-98090817D01*
X109756995Y-97947982D01*
X109614160Y-98090817D01*
X109475567Y-98090817D01*
X109332732Y-97947982D01*
X109189897Y-98090817D01*
X109000000Y-98090817D01*
X109000000Y-98004122D01*
X109138000Y-98004122D01*
X109263436Y-97878686D01*
X109402029Y-97878686D01*
X109544864Y-98021521D01*
X109687699Y-97878686D01*
X109826291Y-97878686D01*
X109969126Y-98021521D01*
X110111961Y-97878686D01*
X110250554Y-97878686D01*
X110393389Y-98021521D01*
X110536224Y-97878686D01*
X110674817Y-97878686D01*
X110817652Y-98021521D01*
X110960487Y-97878686D01*
X111099079Y-97878686D01*
X111241914Y-98021521D01*
X111384749Y-97878686D01*
X111523342Y-97878686D01*
X111666177Y-98021521D01*
X111809012Y-97878686D01*
X111947605Y-97878686D01*
X112090440Y-98021521D01*
X112233275Y-97878686D01*
X112371867Y-97878686D01*
X112514702Y-98021521D01*
X112657537Y-97878686D01*
X112796130Y-97878686D01*
X112938965Y-98021521D01*
X113081800Y-97878686D01*
X113220393Y-97878686D01*
X113363228Y-98021521D01*
X113506063Y-97878686D01*
X113644655Y-97878686D01*
X113787490Y-98021521D01*
X113930325Y-97878686D01*
X114068918Y-97878686D01*
X114211753Y-98021521D01*
X114354588Y-97878686D01*
X114493181Y-97878686D01*
X114636016Y-98021521D01*
X114778851Y-97878686D01*
X114917443Y-97878686D01*
X115060278Y-98021521D01*
X115203113Y-97878686D01*
X115341706Y-97878686D01*
X115484541Y-98021521D01*
X115627376Y-97878686D01*
X115765969Y-97878686D01*
X115908804Y-98021521D01*
X116051639Y-97878686D01*
X116190231Y-97878686D01*
X116333066Y-98021521D01*
X116475901Y-97878686D01*
X116614494Y-97878686D01*
X116757329Y-98021521D01*
X116900164Y-97878686D01*
X117038757Y-97878686D01*
X117181592Y-98021521D01*
X117324427Y-97878686D01*
X117181592Y-97735851D01*
X117038757Y-97878686D01*
X116900164Y-97878686D01*
X116757329Y-97735851D01*
X116614494Y-97878686D01*
X116475901Y-97878686D01*
X116333066Y-97735851D01*
X116190231Y-97878686D01*
X116051639Y-97878686D01*
X115908804Y-97735851D01*
X115765969Y-97878686D01*
X115627376Y-97878686D01*
X115484541Y-97735851D01*
X115341706Y-97878686D01*
X115203113Y-97878686D01*
X115060278Y-97735851D01*
X114917443Y-97878686D01*
X114778851Y-97878686D01*
X114636016Y-97735851D01*
X114493181Y-97878686D01*
X114354588Y-97878686D01*
X114211753Y-97735851D01*
X114068918Y-97878686D01*
X113930325Y-97878686D01*
X113787490Y-97735851D01*
X113644655Y-97878686D01*
X113506063Y-97878686D01*
X113363228Y-97735851D01*
X113220393Y-97878686D01*
X113081800Y-97878686D01*
X112938965Y-97735851D01*
X112796130Y-97878686D01*
X112657537Y-97878686D01*
X112514702Y-97735851D01*
X112371867Y-97878686D01*
X112233275Y-97878686D01*
X112090440Y-97735851D01*
X111947605Y-97878686D01*
X111809012Y-97878686D01*
X111666177Y-97735851D01*
X111523342Y-97878686D01*
X111384749Y-97878686D01*
X111241914Y-97735851D01*
X111099079Y-97878686D01*
X110960487Y-97878686D01*
X110817652Y-97735851D01*
X110674817Y-97878686D01*
X110536224Y-97878686D01*
X110393389Y-97735851D01*
X110250554Y-97878686D01*
X110111961Y-97878686D01*
X109969126Y-97735851D01*
X109826291Y-97878686D01*
X109687699Y-97878686D01*
X109544864Y-97735851D01*
X109402029Y-97878686D01*
X109263436Y-97878686D01*
X109138000Y-97753250D01*
X109138000Y-98004122D01*
X109000000Y-98004122D01*
X109000000Y-97666555D01*
X109189897Y-97666555D01*
X109332732Y-97809390D01*
X109475567Y-97666555D01*
X109614160Y-97666555D01*
X109756995Y-97809390D01*
X109899830Y-97666555D01*
X110038423Y-97666555D01*
X110181258Y-97809390D01*
X110324093Y-97666555D01*
X110462685Y-97666555D01*
X110605520Y-97809390D01*
X110748355Y-97666555D01*
X110886948Y-97666555D01*
X111029783Y-97809390D01*
X111172618Y-97666555D01*
X111311211Y-97666555D01*
X111454046Y-97809390D01*
X111596881Y-97666555D01*
X111735473Y-97666555D01*
X111878308Y-97809390D01*
X112021143Y-97666555D01*
X112159736Y-97666555D01*
X112302571Y-97809390D01*
X112445406Y-97666555D01*
X112583999Y-97666555D01*
X112726834Y-97809390D01*
X112869669Y-97666555D01*
X113008261Y-97666555D01*
X113151096Y-97809390D01*
X113293931Y-97666555D01*
X113432524Y-97666555D01*
X113575359Y-97809390D01*
X113718194Y-97666555D01*
X113856787Y-97666555D01*
X113999622Y-97809390D01*
X114142457Y-97666555D01*
X114281049Y-97666555D01*
X114423884Y-97809390D01*
X114566719Y-97666555D01*
X114705312Y-97666555D01*
X114848147Y-97809390D01*
X114990982Y-97666555D01*
X115129575Y-97666555D01*
X115272410Y-97809390D01*
X115415245Y-97666555D01*
X115553837Y-97666555D01*
X115696672Y-97809390D01*
X115839507Y-97666555D01*
X115978100Y-97666555D01*
X116120935Y-97809390D01*
X116263770Y-97666555D01*
X116402363Y-97666555D01*
X116545198Y-97809390D01*
X116688033Y-97666555D01*
X116826625Y-97666555D01*
X116969460Y-97809390D01*
X117112295Y-97666555D01*
X117250888Y-97666555D01*
X117340000Y-97755667D01*
X117340000Y-97577443D01*
X117250888Y-97666555D01*
X117112295Y-97666555D01*
X116969460Y-97523720D01*
X116826625Y-97666555D01*
X116688033Y-97666555D01*
X116545198Y-97523720D01*
X116402363Y-97666555D01*
X116263770Y-97666555D01*
X116120935Y-97523720D01*
X115978100Y-97666555D01*
X115839507Y-97666555D01*
X115696672Y-97523720D01*
X115553837Y-97666555D01*
X115415245Y-97666555D01*
X115272410Y-97523720D01*
X115129575Y-97666555D01*
X114990982Y-97666555D01*
X114848147Y-97523720D01*
X114705312Y-97666555D01*
X114566719Y-97666555D01*
X114423884Y-97523720D01*
X114281049Y-97666555D01*
X114142457Y-97666555D01*
X113999622Y-97523720D01*
X113856787Y-97666555D01*
X113718194Y-97666555D01*
X113575359Y-97523720D01*
X113432524Y-97666555D01*
X113293931Y-97666555D01*
X113151096Y-97523720D01*
X113008261Y-97666555D01*
X112869669Y-97666555D01*
X112726834Y-97523720D01*
X112583999Y-97666555D01*
X112445406Y-97666555D01*
X112302571Y-97523720D01*
X112159736Y-97666555D01*
X112021143Y-97666555D01*
X111878308Y-97523720D01*
X111735473Y-97666555D01*
X111596881Y-97666555D01*
X111454046Y-97523720D01*
X111311211Y-97666555D01*
X111172618Y-97666555D01*
X111029783Y-97523720D01*
X110886948Y-97666555D01*
X110748355Y-97666555D01*
X110605520Y-97523720D01*
X110462685Y-97666555D01*
X110324093Y-97666555D01*
X110181258Y-97523720D01*
X110038423Y-97666555D01*
X109899830Y-97666555D01*
X109756995Y-97523720D01*
X109614160Y-97666555D01*
X109475567Y-97666555D01*
X109332732Y-97523720D01*
X109189897Y-97666555D01*
X109000000Y-97666555D01*
X109000000Y-97579859D01*
X109138000Y-97579859D01*
X109263436Y-97454423D01*
X109402029Y-97454423D01*
X109544864Y-97597258D01*
X109687699Y-97454423D01*
X109826291Y-97454423D01*
X109969126Y-97597258D01*
X110111961Y-97454423D01*
X110250554Y-97454423D01*
X110393389Y-97597258D01*
X110536224Y-97454423D01*
X110674817Y-97454423D01*
X110817652Y-97597258D01*
X110960487Y-97454423D01*
X111099079Y-97454423D01*
X111241914Y-97597258D01*
X111384749Y-97454423D01*
X111523342Y-97454423D01*
X111666177Y-97597258D01*
X111809012Y-97454423D01*
X111947605Y-97454423D01*
X112090440Y-97597258D01*
X112233275Y-97454423D01*
X112371867Y-97454423D01*
X112514702Y-97597258D01*
X112657537Y-97454423D01*
X112796130Y-97454423D01*
X112938965Y-97597258D01*
X113081800Y-97454423D01*
X113220393Y-97454423D01*
X113363228Y-97597258D01*
X113506063Y-97454423D01*
X113644655Y-97454423D01*
X113787490Y-97597258D01*
X113930325Y-97454423D01*
X114068918Y-97454423D01*
X114211753Y-97597258D01*
X114354588Y-97454423D01*
X114493181Y-97454423D01*
X114636016Y-97597258D01*
X114778851Y-97454423D01*
X114917443Y-97454423D01*
X115060278Y-97597258D01*
X115203113Y-97454423D01*
X115341706Y-97454423D01*
X115484541Y-97597258D01*
X115627376Y-97454423D01*
X115765969Y-97454423D01*
X115908804Y-97597258D01*
X116051639Y-97454423D01*
X116190231Y-97454423D01*
X116333066Y-97597258D01*
X116475901Y-97454423D01*
X116614494Y-97454423D01*
X116757329Y-97597258D01*
X116900164Y-97454423D01*
X117038757Y-97454423D01*
X117181592Y-97597258D01*
X117324427Y-97454423D01*
X117181592Y-97311588D01*
X117038757Y-97454423D01*
X116900164Y-97454423D01*
X116757329Y-97311588D01*
X116614494Y-97454423D01*
X116475901Y-97454423D01*
X116333066Y-97311588D01*
X116190231Y-97454423D01*
X116051639Y-97454423D01*
X115908804Y-97311588D01*
X115765969Y-97454423D01*
X115627376Y-97454423D01*
X115484541Y-97311588D01*
X115341706Y-97454423D01*
X115203113Y-97454423D01*
X115060278Y-97311588D01*
X114917443Y-97454423D01*
X114778851Y-97454423D01*
X114636016Y-97311588D01*
X114493181Y-97454423D01*
X114354588Y-97454423D01*
X114211753Y-97311588D01*
X114068918Y-97454423D01*
X113930325Y-97454423D01*
X113787490Y-97311588D01*
X113644655Y-97454423D01*
X113506063Y-97454423D01*
X113363228Y-97311588D01*
X113220393Y-97454423D01*
X113081800Y-97454423D01*
X112938965Y-97311588D01*
X112796130Y-97454423D01*
X112657537Y-97454423D01*
X112514702Y-97311588D01*
X112371867Y-97454423D01*
X112233275Y-97454423D01*
X112090440Y-97311588D01*
X111947605Y-97454423D01*
X111809012Y-97454423D01*
X111666177Y-97311588D01*
X111523342Y-97454423D01*
X111384749Y-97454423D01*
X111241914Y-97311588D01*
X111099079Y-97454423D01*
X110960487Y-97454423D01*
X110817652Y-97311588D01*
X110674817Y-97454423D01*
X110536224Y-97454423D01*
X110393389Y-97311588D01*
X110250554Y-97454423D01*
X110111961Y-97454423D01*
X109969126Y-97311588D01*
X109826291Y-97454423D01*
X109687699Y-97454423D01*
X109544864Y-97311588D01*
X109402029Y-97454423D01*
X109263436Y-97454423D01*
X109138000Y-97328987D01*
X109138000Y-97579859D01*
X109000000Y-97579859D01*
X109000000Y-97242291D01*
X109189896Y-97242291D01*
X109332732Y-97385127D01*
X109475567Y-97242292D01*
X109614160Y-97242292D01*
X109756995Y-97385127D01*
X109899830Y-97242292D01*
X110038423Y-97242292D01*
X110181258Y-97385127D01*
X110324093Y-97242292D01*
X110462685Y-97242292D01*
X110605520Y-97385127D01*
X110748355Y-97242292D01*
X110886948Y-97242292D01*
X111029783Y-97385127D01*
X111172618Y-97242292D01*
X111311211Y-97242292D01*
X111454046Y-97385127D01*
X111596881Y-97242292D01*
X111735473Y-97242292D01*
X111878308Y-97385127D01*
X112021143Y-97242292D01*
X112159736Y-97242292D01*
X112302571Y-97385127D01*
X112445406Y-97242292D01*
X112583999Y-97242292D01*
X112726834Y-97385127D01*
X112869669Y-97242292D01*
X113008261Y-97242292D01*
X113151096Y-97385127D01*
X113293931Y-97242292D01*
X113432524Y-97242292D01*
X113575359Y-97385127D01*
X113718194Y-97242292D01*
X113856787Y-97242292D01*
X113999622Y-97385127D01*
X114142457Y-97242292D01*
X114281049Y-97242292D01*
X114423884Y-97385127D01*
X114566719Y-97242292D01*
X114705312Y-97242292D01*
X114848147Y-97385127D01*
X114990982Y-97242292D01*
X115129575Y-97242292D01*
X115272410Y-97385127D01*
X115415245Y-97242292D01*
X115553837Y-97242292D01*
X115696672Y-97385127D01*
X115839507Y-97242292D01*
X115978100Y-97242292D01*
X116120935Y-97385127D01*
X116263770Y-97242292D01*
X116402363Y-97242292D01*
X116545198Y-97385127D01*
X116688033Y-97242292D01*
X116826625Y-97242292D01*
X116969460Y-97385127D01*
X117112295Y-97242292D01*
X117250888Y-97242292D01*
X117340000Y-97331404D01*
X117340000Y-97198500D01*
X117294680Y-97198500D01*
X117250888Y-97242292D01*
X117112295Y-97242292D01*
X117068503Y-97198500D01*
X116870417Y-97198500D01*
X116826625Y-97242292D01*
X116688033Y-97242292D01*
X116644241Y-97198500D01*
X116446155Y-97198500D01*
X116402363Y-97242292D01*
X116263770Y-97242292D01*
X116219978Y-97198500D01*
X116021892Y-97198500D01*
X115978100Y-97242292D01*
X115839507Y-97242292D01*
X115795715Y-97198500D01*
X115597629Y-97198500D01*
X115553837Y-97242292D01*
X115415245Y-97242292D01*
X115371453Y-97198500D01*
X115173367Y-97198500D01*
X115129575Y-97242292D01*
X114990982Y-97242292D01*
X114947190Y-97198500D01*
X114749104Y-97198500D01*
X114705312Y-97242292D01*
X114566719Y-97242292D01*
X114522927Y-97198500D01*
X114324841Y-97198500D01*
X114281049Y-97242292D01*
X114142457Y-97242292D01*
X114098665Y-97198500D01*
X113900579Y-97198500D01*
X113856787Y-97242292D01*
X113718194Y-97242292D01*
X113674402Y-97198500D01*
X113476316Y-97198500D01*
X113432524Y-97242292D01*
X113293931Y-97242292D01*
X113250139Y-97198500D01*
X113052053Y-97198500D01*
X113008261Y-97242292D01*
X112869669Y-97242292D01*
X112825877Y-97198500D01*
X112627791Y-97198500D01*
X112583999Y-97242292D01*
X112445406Y-97242292D01*
X112401614Y-97198500D01*
X112203528Y-97198500D01*
X112159736Y-97242292D01*
X112021143Y-97242292D01*
X111977351Y-97198500D01*
X111779265Y-97198500D01*
X111735473Y-97242292D01*
X111596881Y-97242292D01*
X111553089Y-97198500D01*
X111355003Y-97198500D01*
X111311211Y-97242292D01*
X111172618Y-97242292D01*
X111128826Y-97198500D01*
X110930740Y-97198500D01*
X110886948Y-97242292D01*
X110748355Y-97242292D01*
X110704563Y-97198500D01*
X110506477Y-97198500D01*
X110462685Y-97242292D01*
X110324093Y-97242292D01*
X110280301Y-97198500D01*
X110082215Y-97198500D01*
X110038423Y-97242292D01*
X109899830Y-97242292D01*
X109856038Y-97198500D01*
X109657952Y-97198500D01*
X109614160Y-97242292D01*
X109475567Y-97242292D01*
X109431775Y-97198500D01*
X109328600Y-97198500D01*
X109326736Y-97198454D01*
X109325657Y-97198401D01*
X109323795Y-97198264D01*
X109319004Y-97197792D01*
X109317169Y-97197566D01*
X109316101Y-97197408D01*
X109314249Y-97197087D01*
X109248232Y-97183955D01*
X109189896Y-97242291D01*
X109000000Y-97242291D01*
X109000000Y-96975212D01*
X109068189Y-97020775D01*
G37*
G04 #@! TD.AperFunction*
G04 #@! TD*
M02*
