G04 #@! TF.GenerationSoftware,KiCad,Pcbnew,9.0.2+dfsg-1*
G04 #@! TF.CreationDate,2026-10-04T10:33:51-04:00*
G04 #@! TF.ProjectId,mod_usba,6d6f645f-7573-4626-912e-6b696361645f,A1*
G04 #@! TF.SameCoordinates,Original*
G04 #@! TF.FileFunction,Other,User*
%FSLAX46Y46*%
G04 Gerber Fmt 4.6, Leading zero omitted, Abs format (unit mm)*
G04 Created by KiCad (PCBNEW 9.0.2+dfsg-1) date 2026-10-04 10:33:51*
%MOMM*%
%LPD*%
G01*
G04 APERTURE LIST*
%ADD10C,0.100000*%
%ADD11C,0.084000*%
G04 APERTURE END LIST*
D10*
X117777999Y-96750000D02*
X117777999Y-103250000D01*
X109000000Y-104400000D02*
X109000000Y-95600000D01*
X91600000Y-95600000D02*
X91600000Y-104400000D01*
X91600000Y-104400000D02*
X109000000Y-104400000D01*
X109000000Y-95600000D02*
X91600000Y-95600000D01*
X117777999Y-103250000D02*
X133658000Y-103250000D01*
X133658000Y-103250000D02*
X133658000Y-96750000D01*
X133658000Y-96750000D02*
X117777999Y-96750000D01*
D11*
X90771427Y-105358917D02*
X90571427Y-105358917D01*
X90571427Y-105673203D02*
X90571427Y-105073203D01*
X90571427Y-105073203D02*
X90857141Y-105073203D01*
X91428570Y-105673203D02*
X91228570Y-105387489D01*
X91085713Y-105673203D02*
X91085713Y-105073203D01*
X91085713Y-105073203D02*
X91314284Y-105073203D01*
X91314284Y-105073203D02*
X91371427Y-105101774D01*
X91371427Y-105101774D02*
X91399998Y-105130346D01*
X91399998Y-105130346D02*
X91428570Y-105187489D01*
X91428570Y-105187489D02*
X91428570Y-105273203D01*
X91428570Y-105273203D02*
X91399998Y-105330346D01*
X91399998Y-105330346D02*
X91371427Y-105358917D01*
X91371427Y-105358917D02*
X91314284Y-105387489D01*
X91314284Y-105387489D02*
X91085713Y-105387489D01*
X91942856Y-105273203D02*
X91942856Y-105673203D01*
X91799998Y-105044632D02*
X91657141Y-105473203D01*
X91657141Y-105473203D02*
X92028570Y-105473203D01*
X93028570Y-105673203D02*
X92685713Y-105673203D01*
X92857142Y-105673203D02*
X92857142Y-105073203D01*
X92857142Y-105073203D02*
X92799999Y-105158917D01*
X92799999Y-105158917D02*
X92742856Y-105216060D01*
X92742856Y-105216060D02*
X92685713Y-105244632D01*
X93285714Y-105616060D02*
X93314285Y-105644632D01*
X93314285Y-105644632D02*
X93285714Y-105673203D01*
X93285714Y-105673203D02*
X93257142Y-105644632D01*
X93257142Y-105644632D02*
X93285714Y-105616060D01*
X93285714Y-105616060D02*
X93285714Y-105673203D01*
X93685713Y-105073203D02*
X93742856Y-105073203D01*
X93742856Y-105073203D02*
X93799999Y-105101774D01*
X93799999Y-105101774D02*
X93828571Y-105130346D01*
X93828571Y-105130346D02*
X93857142Y-105187489D01*
X93857142Y-105187489D02*
X93885713Y-105301774D01*
X93885713Y-105301774D02*
X93885713Y-105444632D01*
X93885713Y-105444632D02*
X93857142Y-105558917D01*
X93857142Y-105558917D02*
X93828571Y-105616060D01*
X93828571Y-105616060D02*
X93799999Y-105644632D01*
X93799999Y-105644632D02*
X93742856Y-105673203D01*
X93742856Y-105673203D02*
X93685713Y-105673203D01*
X93685713Y-105673203D02*
X93628571Y-105644632D01*
X93628571Y-105644632D02*
X93599999Y-105616060D01*
X93599999Y-105616060D02*
X93571428Y-105558917D01*
X93571428Y-105558917D02*
X93542856Y-105444632D01*
X93542856Y-105444632D02*
X93542856Y-105301774D01*
X93542856Y-105301774D02*
X93571428Y-105187489D01*
X93571428Y-105187489D02*
X93599999Y-105130346D01*
X93599999Y-105130346D02*
X93628571Y-105101774D01*
X93628571Y-105101774D02*
X93685713Y-105073203D01*
X94571428Y-105644632D02*
X94628571Y-105673203D01*
X94628571Y-105673203D02*
X94742857Y-105673203D01*
X94742857Y-105673203D02*
X94800000Y-105644632D01*
X94800000Y-105644632D02*
X94828571Y-105587489D01*
X94828571Y-105587489D02*
X94828571Y-105558917D01*
X94828571Y-105558917D02*
X94800000Y-105501774D01*
X94800000Y-105501774D02*
X94742857Y-105473203D01*
X94742857Y-105473203D02*
X94657143Y-105473203D01*
X94657143Y-105473203D02*
X94600000Y-105444632D01*
X94600000Y-105444632D02*
X94571428Y-105387489D01*
X94571428Y-105387489D02*
X94571428Y-105358917D01*
X94571428Y-105358917D02*
X94600000Y-105301774D01*
X94600000Y-105301774D02*
X94657143Y-105273203D01*
X94657143Y-105273203D02*
X94742857Y-105273203D01*
X94742857Y-105273203D02*
X94800000Y-105301774D01*
X94999999Y-105273203D02*
X95228571Y-105273203D01*
X95085714Y-105073203D02*
X95085714Y-105587489D01*
X95085714Y-105587489D02*
X95114285Y-105644632D01*
X95114285Y-105644632D02*
X95171428Y-105673203D01*
X95171428Y-105673203D02*
X95228571Y-105673203D01*
X95428571Y-105673203D02*
X95428571Y-105273203D01*
X95428571Y-105073203D02*
X95399999Y-105101774D01*
X95399999Y-105101774D02*
X95428571Y-105130346D01*
X95428571Y-105130346D02*
X95457142Y-105101774D01*
X95457142Y-105101774D02*
X95428571Y-105073203D01*
X95428571Y-105073203D02*
X95428571Y-105130346D01*
X95628570Y-105273203D02*
X95857142Y-105273203D01*
X95714285Y-105673203D02*
X95714285Y-105158917D01*
X95714285Y-105158917D02*
X95742856Y-105101774D01*
X95742856Y-105101774D02*
X95799999Y-105073203D01*
X95799999Y-105073203D02*
X95857142Y-105073203D01*
X95971427Y-105273203D02*
X96199999Y-105273203D01*
X96057142Y-105673203D02*
X96057142Y-105158917D01*
X96057142Y-105158917D02*
X96085713Y-105101774D01*
X96085713Y-105101774D02*
X96142856Y-105073203D01*
X96142856Y-105073203D02*
X96199999Y-105073203D01*
X96628570Y-105644632D02*
X96571427Y-105673203D01*
X96571427Y-105673203D02*
X96457142Y-105673203D01*
X96457142Y-105673203D02*
X96399999Y-105644632D01*
X96399999Y-105644632D02*
X96371427Y-105587489D01*
X96371427Y-105587489D02*
X96371427Y-105358917D01*
X96371427Y-105358917D02*
X96399999Y-105301774D01*
X96399999Y-105301774D02*
X96457142Y-105273203D01*
X96457142Y-105273203D02*
X96571427Y-105273203D01*
X96571427Y-105273203D02*
X96628570Y-105301774D01*
X96628570Y-105301774D02*
X96657142Y-105358917D01*
X96657142Y-105358917D02*
X96657142Y-105416060D01*
X96657142Y-105416060D02*
X96371427Y-105473203D01*
X96914285Y-105273203D02*
X96914285Y-105673203D01*
X96914285Y-105330346D02*
X96942856Y-105301774D01*
X96942856Y-105301774D02*
X96999999Y-105273203D01*
X96999999Y-105273203D02*
X97085713Y-105273203D01*
X97085713Y-105273203D02*
X97142856Y-105301774D01*
X97142856Y-105301774D02*
X97171428Y-105358917D01*
X97171428Y-105358917D02*
X97171428Y-105673203D01*
X97685713Y-105644632D02*
X97628570Y-105673203D01*
X97628570Y-105673203D02*
X97514285Y-105673203D01*
X97514285Y-105673203D02*
X97457142Y-105644632D01*
X97457142Y-105644632D02*
X97428570Y-105587489D01*
X97428570Y-105587489D02*
X97428570Y-105358917D01*
X97428570Y-105358917D02*
X97457142Y-105301774D01*
X97457142Y-105301774D02*
X97514285Y-105273203D01*
X97514285Y-105273203D02*
X97628570Y-105273203D01*
X97628570Y-105273203D02*
X97685713Y-105301774D01*
X97685713Y-105301774D02*
X97714285Y-105358917D01*
X97714285Y-105358917D02*
X97714285Y-105416060D01*
X97714285Y-105416060D02*
X97428570Y-105473203D01*
X97971428Y-105673203D02*
X97971428Y-105273203D01*
X97971428Y-105387489D02*
X97999999Y-105330346D01*
X97999999Y-105330346D02*
X98028571Y-105301774D01*
X98028571Y-105301774D02*
X98085713Y-105273203D01*
X98085713Y-105273203D02*
X98142856Y-105273203D01*
X98971428Y-105901774D02*
X98942857Y-105873203D01*
X98942857Y-105873203D02*
X98885714Y-105787489D01*
X98885714Y-105787489D02*
X98857143Y-105730346D01*
X98857143Y-105730346D02*
X98828571Y-105644632D01*
X98828571Y-105644632D02*
X98800000Y-105501774D01*
X98800000Y-105501774D02*
X98800000Y-105387489D01*
X98800000Y-105387489D02*
X98828571Y-105244632D01*
X98828571Y-105244632D02*
X98857143Y-105158917D01*
X98857143Y-105158917D02*
X98885714Y-105101774D01*
X98885714Y-105101774D02*
X98942857Y-105016060D01*
X98942857Y-105016060D02*
X98971428Y-104987489D01*
X99400000Y-105358917D02*
X99485714Y-105387489D01*
X99485714Y-105387489D02*
X99514285Y-105416060D01*
X99514285Y-105416060D02*
X99542857Y-105473203D01*
X99542857Y-105473203D02*
X99542857Y-105558917D01*
X99542857Y-105558917D02*
X99514285Y-105616060D01*
X99514285Y-105616060D02*
X99485714Y-105644632D01*
X99485714Y-105644632D02*
X99428571Y-105673203D01*
X99428571Y-105673203D02*
X99200000Y-105673203D01*
X99200000Y-105673203D02*
X99200000Y-105073203D01*
X99200000Y-105073203D02*
X99400000Y-105073203D01*
X99400000Y-105073203D02*
X99457143Y-105101774D01*
X99457143Y-105101774D02*
X99485714Y-105130346D01*
X99485714Y-105130346D02*
X99514285Y-105187489D01*
X99514285Y-105187489D02*
X99514285Y-105244632D01*
X99514285Y-105244632D02*
X99485714Y-105301774D01*
X99485714Y-105301774D02*
X99457143Y-105330346D01*
X99457143Y-105330346D02*
X99400000Y-105358917D01*
X99400000Y-105358917D02*
X99200000Y-105358917D01*
X99828571Y-105644632D02*
X99828571Y-105673203D01*
X99828571Y-105673203D02*
X99800000Y-105730346D01*
X99800000Y-105730346D02*
X99771428Y-105758917D01*
X100542857Y-105673203D02*
X100542857Y-105073203D01*
X100542857Y-105073203D02*
X100771428Y-105073203D01*
X100771428Y-105073203D02*
X100828571Y-105101774D01*
X100828571Y-105101774D02*
X100857142Y-105130346D01*
X100857142Y-105130346D02*
X100885714Y-105187489D01*
X100885714Y-105187489D02*
X100885714Y-105273203D01*
X100885714Y-105273203D02*
X100857142Y-105330346D01*
X100857142Y-105330346D02*
X100828571Y-105358917D01*
X100828571Y-105358917D02*
X100771428Y-105387489D01*
X100771428Y-105387489D02*
X100542857Y-105387489D01*
X101114285Y-105644632D02*
X101200000Y-105673203D01*
X101200000Y-105673203D02*
X101342857Y-105673203D01*
X101342857Y-105673203D02*
X101400000Y-105644632D01*
X101400000Y-105644632D02*
X101428571Y-105616060D01*
X101428571Y-105616060D02*
X101457142Y-105558917D01*
X101457142Y-105558917D02*
X101457142Y-105501774D01*
X101457142Y-105501774D02*
X101428571Y-105444632D01*
X101428571Y-105444632D02*
X101400000Y-105416060D01*
X101400000Y-105416060D02*
X101342857Y-105387489D01*
X101342857Y-105387489D02*
X101228571Y-105358917D01*
X101228571Y-105358917D02*
X101171428Y-105330346D01*
X101171428Y-105330346D02*
X101142857Y-105301774D01*
X101142857Y-105301774D02*
X101114285Y-105244632D01*
X101114285Y-105244632D02*
X101114285Y-105187489D01*
X101114285Y-105187489D02*
X101142857Y-105130346D01*
X101142857Y-105130346D02*
X101171428Y-105101774D01*
X101171428Y-105101774D02*
X101228571Y-105073203D01*
X101228571Y-105073203D02*
X101371428Y-105073203D01*
X101371428Y-105073203D02*
X101457142Y-105101774D01*
X101685714Y-105501774D02*
X101971429Y-105501774D01*
X101628571Y-105673203D02*
X101828571Y-105073203D01*
X101828571Y-105073203D02*
X102028571Y-105673203D01*
X102171429Y-105901774D02*
X102200000Y-105873203D01*
X102200000Y-105873203D02*
X102257143Y-105787489D01*
X102257143Y-105787489D02*
X102285715Y-105730346D01*
X102285715Y-105730346D02*
X102314286Y-105644632D01*
X102314286Y-105644632D02*
X102342857Y-105501774D01*
X102342857Y-105501774D02*
X102342857Y-105387489D01*
X102342857Y-105387489D02*
X102314286Y-105244632D01*
X102314286Y-105244632D02*
X102285715Y-105158917D01*
X102285715Y-105158917D02*
X102257143Y-105101774D01*
X102257143Y-105101774D02*
X102200000Y-105016060D01*
X102200000Y-105016060D02*
X102171429Y-104987489D01*
X103342858Y-105273203D02*
X103342858Y-105673203D01*
X103085715Y-105273203D02*
X103085715Y-105587489D01*
X103085715Y-105587489D02*
X103114286Y-105644632D01*
X103114286Y-105644632D02*
X103171429Y-105673203D01*
X103171429Y-105673203D02*
X103257143Y-105673203D01*
X103257143Y-105673203D02*
X103314286Y-105644632D01*
X103314286Y-105644632D02*
X103342858Y-105616060D01*
X103628572Y-105273203D02*
X103628572Y-105673203D01*
X103628572Y-105330346D02*
X103657143Y-105301774D01*
X103657143Y-105301774D02*
X103714286Y-105273203D01*
X103714286Y-105273203D02*
X103800000Y-105273203D01*
X103800000Y-105273203D02*
X103857143Y-105301774D01*
X103857143Y-105301774D02*
X103885715Y-105358917D01*
X103885715Y-105358917D02*
X103885715Y-105673203D01*
X104428572Y-105673203D02*
X104428572Y-105073203D01*
X104428572Y-105644632D02*
X104371429Y-105673203D01*
X104371429Y-105673203D02*
X104257143Y-105673203D01*
X104257143Y-105673203D02*
X104200000Y-105644632D01*
X104200000Y-105644632D02*
X104171429Y-105616060D01*
X104171429Y-105616060D02*
X104142857Y-105558917D01*
X104142857Y-105558917D02*
X104142857Y-105387489D01*
X104142857Y-105387489D02*
X104171429Y-105330346D01*
X104171429Y-105330346D02*
X104200000Y-105301774D01*
X104200000Y-105301774D02*
X104257143Y-105273203D01*
X104257143Y-105273203D02*
X104371429Y-105273203D01*
X104371429Y-105273203D02*
X104428572Y-105301774D01*
X104942857Y-105644632D02*
X104885714Y-105673203D01*
X104885714Y-105673203D02*
X104771429Y-105673203D01*
X104771429Y-105673203D02*
X104714286Y-105644632D01*
X104714286Y-105644632D02*
X104685714Y-105587489D01*
X104685714Y-105587489D02*
X104685714Y-105358917D01*
X104685714Y-105358917D02*
X104714286Y-105301774D01*
X104714286Y-105301774D02*
X104771429Y-105273203D01*
X104771429Y-105273203D02*
X104885714Y-105273203D01*
X104885714Y-105273203D02*
X104942857Y-105301774D01*
X104942857Y-105301774D02*
X104971429Y-105358917D01*
X104971429Y-105358917D02*
X104971429Y-105416060D01*
X104971429Y-105416060D02*
X104685714Y-105473203D01*
X105228572Y-105673203D02*
X105228572Y-105273203D01*
X105228572Y-105387489D02*
X105257143Y-105330346D01*
X105257143Y-105330346D02*
X105285715Y-105301774D01*
X105285715Y-105301774D02*
X105342857Y-105273203D01*
X105342857Y-105273203D02*
X105400000Y-105273203D01*
X105971429Y-105273203D02*
X106200001Y-105273203D01*
X106057144Y-105073203D02*
X106057144Y-105587489D01*
X106057144Y-105587489D02*
X106085715Y-105644632D01*
X106085715Y-105644632D02*
X106142858Y-105673203D01*
X106142858Y-105673203D02*
X106200001Y-105673203D01*
X106400001Y-105673203D02*
X106400001Y-105073203D01*
X106657144Y-105673203D02*
X106657144Y-105358917D01*
X106657144Y-105358917D02*
X106628572Y-105301774D01*
X106628572Y-105301774D02*
X106571429Y-105273203D01*
X106571429Y-105273203D02*
X106485715Y-105273203D01*
X106485715Y-105273203D02*
X106428572Y-105301774D01*
X106428572Y-105301774D02*
X106400001Y-105330346D01*
X107171429Y-105644632D02*
X107114286Y-105673203D01*
X107114286Y-105673203D02*
X107000001Y-105673203D01*
X107000001Y-105673203D02*
X106942858Y-105644632D01*
X106942858Y-105644632D02*
X106914286Y-105587489D01*
X106914286Y-105587489D02*
X106914286Y-105358917D01*
X106914286Y-105358917D02*
X106942858Y-105301774D01*
X106942858Y-105301774D02*
X107000001Y-105273203D01*
X107000001Y-105273203D02*
X107114286Y-105273203D01*
X107114286Y-105273203D02*
X107171429Y-105301774D01*
X107171429Y-105301774D02*
X107200001Y-105358917D01*
X107200001Y-105358917D02*
X107200001Y-105416060D01*
X107200001Y-105416060D02*
X106914286Y-105473203D01*
X107914287Y-105273203D02*
X107914287Y-105873203D01*
X107914287Y-105301774D02*
X107971430Y-105273203D01*
X107971430Y-105273203D02*
X108085715Y-105273203D01*
X108085715Y-105273203D02*
X108142858Y-105301774D01*
X108142858Y-105301774D02*
X108171430Y-105330346D01*
X108171430Y-105330346D02*
X108200001Y-105387489D01*
X108200001Y-105387489D02*
X108200001Y-105558917D01*
X108200001Y-105558917D02*
X108171430Y-105616060D01*
X108171430Y-105616060D02*
X108142858Y-105644632D01*
X108142858Y-105644632D02*
X108085715Y-105673203D01*
X108085715Y-105673203D02*
X107971430Y-105673203D01*
X107971430Y-105673203D02*
X107914287Y-105644632D01*
X108542858Y-105673203D02*
X108485715Y-105644632D01*
X108485715Y-105644632D02*
X108457144Y-105616060D01*
X108457144Y-105616060D02*
X108428572Y-105558917D01*
X108428572Y-105558917D02*
X108428572Y-105387489D01*
X108428572Y-105387489D02*
X108457144Y-105330346D01*
X108457144Y-105330346D02*
X108485715Y-105301774D01*
X108485715Y-105301774D02*
X108542858Y-105273203D01*
X108542858Y-105273203D02*
X108628572Y-105273203D01*
X108628572Y-105273203D02*
X108685715Y-105301774D01*
X108685715Y-105301774D02*
X108714287Y-105330346D01*
X108714287Y-105330346D02*
X108742858Y-105387489D01*
X108742858Y-105387489D02*
X108742858Y-105558917D01*
X108742858Y-105558917D02*
X108714287Y-105616060D01*
X108714287Y-105616060D02*
X108685715Y-105644632D01*
X108685715Y-105644632D02*
X108628572Y-105673203D01*
X108628572Y-105673203D02*
X108542858Y-105673203D01*
X109000001Y-105673203D02*
X109000001Y-105273203D01*
X109000001Y-105387489D02*
X109028572Y-105330346D01*
X109028572Y-105330346D02*
X109057144Y-105301774D01*
X109057144Y-105301774D02*
X109114286Y-105273203D01*
X109114286Y-105273203D02*
X109171429Y-105273203D01*
X109285715Y-105273203D02*
X109514287Y-105273203D01*
X109371430Y-105073203D02*
X109371430Y-105587489D01*
X109371430Y-105587489D02*
X109400001Y-105644632D01*
X109400001Y-105644632D02*
X109457144Y-105673203D01*
X109457144Y-105673203D02*
X109514287Y-105673203D01*
X113870856Y-104208917D02*
X113670856Y-104208917D01*
X113670856Y-104523203D02*
X113670856Y-103923203D01*
X113670856Y-103923203D02*
X113956570Y-103923203D01*
X114527999Y-104523203D02*
X114327999Y-104237489D01*
X114185142Y-104523203D02*
X114185142Y-103923203D01*
X114185142Y-103923203D02*
X114413713Y-103923203D01*
X114413713Y-103923203D02*
X114470856Y-103951774D01*
X114470856Y-103951774D02*
X114499427Y-103980346D01*
X114499427Y-103980346D02*
X114527999Y-104037489D01*
X114527999Y-104037489D02*
X114527999Y-104123203D01*
X114527999Y-104123203D02*
X114499427Y-104180346D01*
X114499427Y-104180346D02*
X114470856Y-104208917D01*
X114470856Y-104208917D02*
X114413713Y-104237489D01*
X114413713Y-104237489D02*
X114185142Y-104237489D01*
X115042285Y-104123203D02*
X115042285Y-104523203D01*
X114899427Y-103894632D02*
X114756570Y-104323203D01*
X114756570Y-104323203D02*
X115127999Y-104323203D01*
X115927999Y-103923203D02*
X115985142Y-103923203D01*
X115985142Y-103923203D02*
X116042285Y-103951774D01*
X116042285Y-103951774D02*
X116070857Y-103980346D01*
X116070857Y-103980346D02*
X116099428Y-104037489D01*
X116099428Y-104037489D02*
X116127999Y-104151774D01*
X116127999Y-104151774D02*
X116127999Y-104294632D01*
X116127999Y-104294632D02*
X116099428Y-104408917D01*
X116099428Y-104408917D02*
X116070857Y-104466060D01*
X116070857Y-104466060D02*
X116042285Y-104494632D01*
X116042285Y-104494632D02*
X115985142Y-104523203D01*
X115985142Y-104523203D02*
X115927999Y-104523203D01*
X115927999Y-104523203D02*
X115870857Y-104494632D01*
X115870857Y-104494632D02*
X115842285Y-104466060D01*
X115842285Y-104466060D02*
X115813714Y-104408917D01*
X115813714Y-104408917D02*
X115785142Y-104294632D01*
X115785142Y-104294632D02*
X115785142Y-104151774D01*
X115785142Y-104151774D02*
X115813714Y-104037489D01*
X115813714Y-104037489D02*
X115842285Y-103980346D01*
X115842285Y-103980346D02*
X115870857Y-103951774D01*
X115870857Y-103951774D02*
X115927999Y-103923203D01*
X116385143Y-104466060D02*
X116413714Y-104494632D01*
X116413714Y-104494632D02*
X116385143Y-104523203D01*
X116385143Y-104523203D02*
X116356571Y-104494632D01*
X116356571Y-104494632D02*
X116385143Y-104466060D01*
X116385143Y-104466060D02*
X116385143Y-104523203D01*
X116928000Y-103923203D02*
X116813714Y-103923203D01*
X116813714Y-103923203D02*
X116756571Y-103951774D01*
X116756571Y-103951774D02*
X116728000Y-103980346D01*
X116728000Y-103980346D02*
X116670857Y-104066060D01*
X116670857Y-104066060D02*
X116642285Y-104180346D01*
X116642285Y-104180346D02*
X116642285Y-104408917D01*
X116642285Y-104408917D02*
X116670857Y-104466060D01*
X116670857Y-104466060D02*
X116699428Y-104494632D01*
X116699428Y-104494632D02*
X116756571Y-104523203D01*
X116756571Y-104523203D02*
X116870857Y-104523203D01*
X116870857Y-104523203D02*
X116928000Y-104494632D01*
X116928000Y-104494632D02*
X116956571Y-104466060D01*
X116956571Y-104466060D02*
X116985142Y-104408917D01*
X116985142Y-104408917D02*
X116985142Y-104266060D01*
X116985142Y-104266060D02*
X116956571Y-104208917D01*
X116956571Y-104208917D02*
X116928000Y-104180346D01*
X116928000Y-104180346D02*
X116870857Y-104151774D01*
X116870857Y-104151774D02*
X116756571Y-104151774D01*
X116756571Y-104151774D02*
X116699428Y-104180346D01*
X116699428Y-104180346D02*
X116670857Y-104208917D01*
X116670857Y-104208917D02*
X116642285Y-104266060D01*
X117670857Y-104494632D02*
X117728000Y-104523203D01*
X117728000Y-104523203D02*
X117842286Y-104523203D01*
X117842286Y-104523203D02*
X117899429Y-104494632D01*
X117899429Y-104494632D02*
X117928000Y-104437489D01*
X117928000Y-104437489D02*
X117928000Y-104408917D01*
X117928000Y-104408917D02*
X117899429Y-104351774D01*
X117899429Y-104351774D02*
X117842286Y-104323203D01*
X117842286Y-104323203D02*
X117756572Y-104323203D01*
X117756572Y-104323203D02*
X117699429Y-104294632D01*
X117699429Y-104294632D02*
X117670857Y-104237489D01*
X117670857Y-104237489D02*
X117670857Y-104208917D01*
X117670857Y-104208917D02*
X117699429Y-104151774D01*
X117699429Y-104151774D02*
X117756572Y-104123203D01*
X117756572Y-104123203D02*
X117842286Y-104123203D01*
X117842286Y-104123203D02*
X117899429Y-104151774D01*
X118099428Y-104123203D02*
X118328000Y-104123203D01*
X118185143Y-103923203D02*
X118185143Y-104437489D01*
X118185143Y-104437489D02*
X118213714Y-104494632D01*
X118213714Y-104494632D02*
X118270857Y-104523203D01*
X118270857Y-104523203D02*
X118328000Y-104523203D01*
X118528000Y-104523203D02*
X118528000Y-104123203D01*
X118528000Y-103923203D02*
X118499428Y-103951774D01*
X118499428Y-103951774D02*
X118528000Y-103980346D01*
X118528000Y-103980346D02*
X118556571Y-103951774D01*
X118556571Y-103951774D02*
X118528000Y-103923203D01*
X118528000Y-103923203D02*
X118528000Y-103980346D01*
X118727999Y-104123203D02*
X118956571Y-104123203D01*
X118813714Y-104523203D02*
X118813714Y-104008917D01*
X118813714Y-104008917D02*
X118842285Y-103951774D01*
X118842285Y-103951774D02*
X118899428Y-103923203D01*
X118899428Y-103923203D02*
X118956571Y-103923203D01*
X119070856Y-104123203D02*
X119299428Y-104123203D01*
X119156571Y-104523203D02*
X119156571Y-104008917D01*
X119156571Y-104008917D02*
X119185142Y-103951774D01*
X119185142Y-103951774D02*
X119242285Y-103923203D01*
X119242285Y-103923203D02*
X119299428Y-103923203D01*
X119727999Y-104494632D02*
X119670856Y-104523203D01*
X119670856Y-104523203D02*
X119556571Y-104523203D01*
X119556571Y-104523203D02*
X119499428Y-104494632D01*
X119499428Y-104494632D02*
X119470856Y-104437489D01*
X119470856Y-104437489D02*
X119470856Y-104208917D01*
X119470856Y-104208917D02*
X119499428Y-104151774D01*
X119499428Y-104151774D02*
X119556571Y-104123203D01*
X119556571Y-104123203D02*
X119670856Y-104123203D01*
X119670856Y-104123203D02*
X119727999Y-104151774D01*
X119727999Y-104151774D02*
X119756571Y-104208917D01*
X119756571Y-104208917D02*
X119756571Y-104266060D01*
X119756571Y-104266060D02*
X119470856Y-104323203D01*
X120013714Y-104123203D02*
X120013714Y-104523203D01*
X120013714Y-104180346D02*
X120042285Y-104151774D01*
X120042285Y-104151774D02*
X120099428Y-104123203D01*
X120099428Y-104123203D02*
X120185142Y-104123203D01*
X120185142Y-104123203D02*
X120242285Y-104151774D01*
X120242285Y-104151774D02*
X120270857Y-104208917D01*
X120270857Y-104208917D02*
X120270857Y-104523203D01*
X120785142Y-104494632D02*
X120727999Y-104523203D01*
X120727999Y-104523203D02*
X120613714Y-104523203D01*
X120613714Y-104523203D02*
X120556571Y-104494632D01*
X120556571Y-104494632D02*
X120527999Y-104437489D01*
X120527999Y-104437489D02*
X120527999Y-104208917D01*
X120527999Y-104208917D02*
X120556571Y-104151774D01*
X120556571Y-104151774D02*
X120613714Y-104123203D01*
X120613714Y-104123203D02*
X120727999Y-104123203D01*
X120727999Y-104123203D02*
X120785142Y-104151774D01*
X120785142Y-104151774D02*
X120813714Y-104208917D01*
X120813714Y-104208917D02*
X120813714Y-104266060D01*
X120813714Y-104266060D02*
X120527999Y-104323203D01*
X121070857Y-104523203D02*
X121070857Y-104123203D01*
X121070857Y-104237489D02*
X121099428Y-104180346D01*
X121099428Y-104180346D02*
X121128000Y-104151774D01*
X121128000Y-104151774D02*
X121185142Y-104123203D01*
X121185142Y-104123203D02*
X121242285Y-104123203D01*
X122070857Y-104751774D02*
X122042286Y-104723203D01*
X122042286Y-104723203D02*
X121985143Y-104637489D01*
X121985143Y-104637489D02*
X121956572Y-104580346D01*
X121956572Y-104580346D02*
X121928000Y-104494632D01*
X121928000Y-104494632D02*
X121899429Y-104351774D01*
X121899429Y-104351774D02*
X121899429Y-104237489D01*
X121899429Y-104237489D02*
X121928000Y-104094632D01*
X121928000Y-104094632D02*
X121956572Y-104008917D01*
X121956572Y-104008917D02*
X121985143Y-103951774D01*
X121985143Y-103951774D02*
X122042286Y-103866060D01*
X122042286Y-103866060D02*
X122070857Y-103837489D01*
X122499429Y-104208917D02*
X122585143Y-104237489D01*
X122585143Y-104237489D02*
X122613714Y-104266060D01*
X122613714Y-104266060D02*
X122642286Y-104323203D01*
X122642286Y-104323203D02*
X122642286Y-104408917D01*
X122642286Y-104408917D02*
X122613714Y-104466060D01*
X122613714Y-104466060D02*
X122585143Y-104494632D01*
X122585143Y-104494632D02*
X122528000Y-104523203D01*
X122528000Y-104523203D02*
X122299429Y-104523203D01*
X122299429Y-104523203D02*
X122299429Y-103923203D01*
X122299429Y-103923203D02*
X122499429Y-103923203D01*
X122499429Y-103923203D02*
X122556572Y-103951774D01*
X122556572Y-103951774D02*
X122585143Y-103980346D01*
X122585143Y-103980346D02*
X122613714Y-104037489D01*
X122613714Y-104037489D02*
X122613714Y-104094632D01*
X122613714Y-104094632D02*
X122585143Y-104151774D01*
X122585143Y-104151774D02*
X122556572Y-104180346D01*
X122556572Y-104180346D02*
X122499429Y-104208917D01*
X122499429Y-104208917D02*
X122299429Y-104208917D01*
X122842286Y-104751774D02*
X122870857Y-104723203D01*
X122870857Y-104723203D02*
X122928000Y-104637489D01*
X122928000Y-104637489D02*
X122956572Y-104580346D01*
X122956572Y-104580346D02*
X122985143Y-104494632D01*
X122985143Y-104494632D02*
X123013714Y-104351774D01*
X123013714Y-104351774D02*
X123013714Y-104237489D01*
X123013714Y-104237489D02*
X122985143Y-104094632D01*
X122985143Y-104094632D02*
X122956572Y-104008917D01*
X122956572Y-104008917D02*
X122928000Y-103951774D01*
X122928000Y-103951774D02*
X122870857Y-103866060D01*
X122870857Y-103866060D02*
X122842286Y-103837489D01*
X124013715Y-104123203D02*
X124013715Y-104523203D01*
X123756572Y-104123203D02*
X123756572Y-104437489D01*
X123756572Y-104437489D02*
X123785143Y-104494632D01*
X123785143Y-104494632D02*
X123842286Y-104523203D01*
X123842286Y-104523203D02*
X123928000Y-104523203D01*
X123928000Y-104523203D02*
X123985143Y-104494632D01*
X123985143Y-104494632D02*
X124013715Y-104466060D01*
X124299429Y-104123203D02*
X124299429Y-104523203D01*
X124299429Y-104180346D02*
X124328000Y-104151774D01*
X124328000Y-104151774D02*
X124385143Y-104123203D01*
X124385143Y-104123203D02*
X124470857Y-104123203D01*
X124470857Y-104123203D02*
X124528000Y-104151774D01*
X124528000Y-104151774D02*
X124556572Y-104208917D01*
X124556572Y-104208917D02*
X124556572Y-104523203D01*
X125099429Y-104523203D02*
X125099429Y-103923203D01*
X125099429Y-104494632D02*
X125042286Y-104523203D01*
X125042286Y-104523203D02*
X124928000Y-104523203D01*
X124928000Y-104523203D02*
X124870857Y-104494632D01*
X124870857Y-104494632D02*
X124842286Y-104466060D01*
X124842286Y-104466060D02*
X124813714Y-104408917D01*
X124813714Y-104408917D02*
X124813714Y-104237489D01*
X124813714Y-104237489D02*
X124842286Y-104180346D01*
X124842286Y-104180346D02*
X124870857Y-104151774D01*
X124870857Y-104151774D02*
X124928000Y-104123203D01*
X124928000Y-104123203D02*
X125042286Y-104123203D01*
X125042286Y-104123203D02*
X125099429Y-104151774D01*
X125613714Y-104494632D02*
X125556571Y-104523203D01*
X125556571Y-104523203D02*
X125442286Y-104523203D01*
X125442286Y-104523203D02*
X125385143Y-104494632D01*
X125385143Y-104494632D02*
X125356571Y-104437489D01*
X125356571Y-104437489D02*
X125356571Y-104208917D01*
X125356571Y-104208917D02*
X125385143Y-104151774D01*
X125385143Y-104151774D02*
X125442286Y-104123203D01*
X125442286Y-104123203D02*
X125556571Y-104123203D01*
X125556571Y-104123203D02*
X125613714Y-104151774D01*
X125613714Y-104151774D02*
X125642286Y-104208917D01*
X125642286Y-104208917D02*
X125642286Y-104266060D01*
X125642286Y-104266060D02*
X125356571Y-104323203D01*
X125899429Y-104523203D02*
X125899429Y-104123203D01*
X125899429Y-104237489D02*
X125928000Y-104180346D01*
X125928000Y-104180346D02*
X125956572Y-104151774D01*
X125956572Y-104151774D02*
X126013714Y-104123203D01*
X126013714Y-104123203D02*
X126070857Y-104123203D01*
X126642286Y-104123203D02*
X126870858Y-104123203D01*
X126728001Y-103923203D02*
X126728001Y-104437489D01*
X126728001Y-104437489D02*
X126756572Y-104494632D01*
X126756572Y-104494632D02*
X126813715Y-104523203D01*
X126813715Y-104523203D02*
X126870858Y-104523203D01*
X127070858Y-104523203D02*
X127070858Y-103923203D01*
X127328001Y-104523203D02*
X127328001Y-104208917D01*
X127328001Y-104208917D02*
X127299429Y-104151774D01*
X127299429Y-104151774D02*
X127242286Y-104123203D01*
X127242286Y-104123203D02*
X127156572Y-104123203D01*
X127156572Y-104123203D02*
X127099429Y-104151774D01*
X127099429Y-104151774D02*
X127070858Y-104180346D01*
X127842286Y-104494632D02*
X127785143Y-104523203D01*
X127785143Y-104523203D02*
X127670858Y-104523203D01*
X127670858Y-104523203D02*
X127613715Y-104494632D01*
X127613715Y-104494632D02*
X127585143Y-104437489D01*
X127585143Y-104437489D02*
X127585143Y-104208917D01*
X127585143Y-104208917D02*
X127613715Y-104151774D01*
X127613715Y-104151774D02*
X127670858Y-104123203D01*
X127670858Y-104123203D02*
X127785143Y-104123203D01*
X127785143Y-104123203D02*
X127842286Y-104151774D01*
X127842286Y-104151774D02*
X127870858Y-104208917D01*
X127870858Y-104208917D02*
X127870858Y-104266060D01*
X127870858Y-104266060D02*
X127585143Y-104323203D01*
X128585144Y-104523203D02*
X128585144Y-103923203D01*
X128842287Y-104523203D02*
X128842287Y-104208917D01*
X128842287Y-104208917D02*
X128813715Y-104151774D01*
X128813715Y-104151774D02*
X128756572Y-104123203D01*
X128756572Y-104123203D02*
X128670858Y-104123203D01*
X128670858Y-104123203D02*
X128613715Y-104151774D01*
X128613715Y-104151774D02*
X128585144Y-104180346D01*
X129356572Y-104494632D02*
X129299429Y-104523203D01*
X129299429Y-104523203D02*
X129185144Y-104523203D01*
X129185144Y-104523203D02*
X129128001Y-104494632D01*
X129128001Y-104494632D02*
X129099429Y-104437489D01*
X129099429Y-104437489D02*
X129099429Y-104208917D01*
X129099429Y-104208917D02*
X129128001Y-104151774D01*
X129128001Y-104151774D02*
X129185144Y-104123203D01*
X129185144Y-104123203D02*
X129299429Y-104123203D01*
X129299429Y-104123203D02*
X129356572Y-104151774D01*
X129356572Y-104151774D02*
X129385144Y-104208917D01*
X129385144Y-104208917D02*
X129385144Y-104266060D01*
X129385144Y-104266060D02*
X129099429Y-104323203D01*
X129899430Y-104523203D02*
X129899430Y-104208917D01*
X129899430Y-104208917D02*
X129870858Y-104151774D01*
X129870858Y-104151774D02*
X129813715Y-104123203D01*
X129813715Y-104123203D02*
X129699430Y-104123203D01*
X129699430Y-104123203D02*
X129642287Y-104151774D01*
X129899430Y-104494632D02*
X129842287Y-104523203D01*
X129842287Y-104523203D02*
X129699430Y-104523203D01*
X129699430Y-104523203D02*
X129642287Y-104494632D01*
X129642287Y-104494632D02*
X129613715Y-104437489D01*
X129613715Y-104437489D02*
X129613715Y-104380346D01*
X129613715Y-104380346D02*
X129642287Y-104323203D01*
X129642287Y-104323203D02*
X129699430Y-104294632D01*
X129699430Y-104294632D02*
X129842287Y-104294632D01*
X129842287Y-104294632D02*
X129899430Y-104266060D01*
X130442287Y-104523203D02*
X130442287Y-103923203D01*
X130442287Y-104494632D02*
X130385144Y-104523203D01*
X130385144Y-104523203D02*
X130270858Y-104523203D01*
X130270858Y-104523203D02*
X130213715Y-104494632D01*
X130213715Y-104494632D02*
X130185144Y-104466060D01*
X130185144Y-104466060D02*
X130156572Y-104408917D01*
X130156572Y-104408917D02*
X130156572Y-104237489D01*
X130156572Y-104237489D02*
X130185144Y-104180346D01*
X130185144Y-104180346D02*
X130213715Y-104151774D01*
X130213715Y-104151774D02*
X130270858Y-104123203D01*
X130270858Y-104123203D02*
X130385144Y-104123203D01*
X130385144Y-104123203D02*
X130442287Y-104151774D01*
X130956572Y-104494632D02*
X130899429Y-104523203D01*
X130899429Y-104523203D02*
X130785144Y-104523203D01*
X130785144Y-104523203D02*
X130728001Y-104494632D01*
X130728001Y-104494632D02*
X130699429Y-104437489D01*
X130699429Y-104437489D02*
X130699429Y-104208917D01*
X130699429Y-104208917D02*
X130728001Y-104151774D01*
X130728001Y-104151774D02*
X130785144Y-104123203D01*
X130785144Y-104123203D02*
X130899429Y-104123203D01*
X130899429Y-104123203D02*
X130956572Y-104151774D01*
X130956572Y-104151774D02*
X130985144Y-104208917D01*
X130985144Y-104208917D02*
X130985144Y-104266060D01*
X130985144Y-104266060D02*
X130699429Y-104323203D01*
X131242287Y-104523203D02*
X131242287Y-104123203D01*
X131242287Y-104237489D02*
X131270858Y-104180346D01*
X131270858Y-104180346D02*
X131299430Y-104151774D01*
X131299430Y-104151774D02*
X131356572Y-104123203D01*
X131356572Y-104123203D02*
X131413715Y-104123203D01*
X132070859Y-104123203D02*
X132070859Y-104723203D01*
X132070859Y-104151774D02*
X132128002Y-104123203D01*
X132128002Y-104123203D02*
X132242287Y-104123203D01*
X132242287Y-104123203D02*
X132299430Y-104151774D01*
X132299430Y-104151774D02*
X132328002Y-104180346D01*
X132328002Y-104180346D02*
X132356573Y-104237489D01*
X132356573Y-104237489D02*
X132356573Y-104408917D01*
X132356573Y-104408917D02*
X132328002Y-104466060D01*
X132328002Y-104466060D02*
X132299430Y-104494632D01*
X132299430Y-104494632D02*
X132242287Y-104523203D01*
X132242287Y-104523203D02*
X132128002Y-104523203D01*
X132128002Y-104523203D02*
X132070859Y-104494632D01*
X132870859Y-104523203D02*
X132870859Y-104208917D01*
X132870859Y-104208917D02*
X132842287Y-104151774D01*
X132842287Y-104151774D02*
X132785144Y-104123203D01*
X132785144Y-104123203D02*
X132670859Y-104123203D01*
X132670859Y-104123203D02*
X132613716Y-104151774D01*
X132870859Y-104494632D02*
X132813716Y-104523203D01*
X132813716Y-104523203D02*
X132670859Y-104523203D01*
X132670859Y-104523203D02*
X132613716Y-104494632D01*
X132613716Y-104494632D02*
X132585144Y-104437489D01*
X132585144Y-104437489D02*
X132585144Y-104380346D01*
X132585144Y-104380346D02*
X132613716Y-104323203D01*
X132613716Y-104323203D02*
X132670859Y-104294632D01*
X132670859Y-104294632D02*
X132813716Y-104294632D01*
X132813716Y-104294632D02*
X132870859Y-104266060D01*
X133413716Y-104523203D02*
X133413716Y-103923203D01*
X133413716Y-104494632D02*
X133356573Y-104523203D01*
X133356573Y-104523203D02*
X133242287Y-104523203D01*
X133242287Y-104523203D02*
X133185144Y-104494632D01*
X133185144Y-104494632D02*
X133156573Y-104466060D01*
X133156573Y-104466060D02*
X133128001Y-104408917D01*
X133128001Y-104408917D02*
X133128001Y-104237489D01*
X133128001Y-104237489D02*
X133156573Y-104180346D01*
X133156573Y-104180346D02*
X133185144Y-104151774D01*
X133185144Y-104151774D02*
X133242287Y-104123203D01*
X133242287Y-104123203D02*
X133356573Y-104123203D01*
X133356573Y-104123203D02*
X133413716Y-104151774D01*
X133956573Y-104523203D02*
X133956573Y-103923203D01*
X133956573Y-104494632D02*
X133899430Y-104523203D01*
X133899430Y-104523203D02*
X133785144Y-104523203D01*
X133785144Y-104523203D02*
X133728001Y-104494632D01*
X133728001Y-104494632D02*
X133699430Y-104466060D01*
X133699430Y-104466060D02*
X133670858Y-104408917D01*
X133670858Y-104408917D02*
X133670858Y-104237489D01*
X133670858Y-104237489D02*
X133699430Y-104180346D01*
X133699430Y-104180346D02*
X133728001Y-104151774D01*
X133728001Y-104151774D02*
X133785144Y-104123203D01*
X133785144Y-104123203D02*
X133899430Y-104123203D01*
X133899430Y-104123203D02*
X133956573Y-104151774D01*
X134328001Y-104523203D02*
X134270858Y-104494632D01*
X134270858Y-104494632D02*
X134242287Y-104437489D01*
X134242287Y-104437489D02*
X134242287Y-103923203D01*
X134785144Y-104494632D02*
X134728001Y-104523203D01*
X134728001Y-104523203D02*
X134613716Y-104523203D01*
X134613716Y-104523203D02*
X134556573Y-104494632D01*
X134556573Y-104494632D02*
X134528001Y-104437489D01*
X134528001Y-104437489D02*
X134528001Y-104208917D01*
X134528001Y-104208917D02*
X134556573Y-104151774D01*
X134556573Y-104151774D02*
X134613716Y-104123203D01*
X134613716Y-104123203D02*
X134728001Y-104123203D01*
X134728001Y-104123203D02*
X134785144Y-104151774D01*
X134785144Y-104151774D02*
X134813716Y-104208917D01*
X134813716Y-104208917D02*
X134813716Y-104266060D01*
X134813716Y-104266060D02*
X134528001Y-104323203D01*
M02*
