G04 #@! TF.GenerationSoftware,KiCad,Pcbnew,9.0.2+dfsg-1*
G04 #@! TF.CreationDate,2026-10-04T09:33:15-04:00*
G04 #@! TF.ProjectId,mod_usba,6d6f645f-7573-4626-912e-6b696361645f,A1*
G04 #@! TF.SameCoordinates,Original*
G04 #@! TF.FileFunction,Copper,L1,Top*
G04 #@! TF.FilePolarity,Positive*
%FSLAX46Y46*%
G04 Gerber Fmt 4.6, Leading zero omitted, Abs format (unit mm)*
G04 Created by KiCad (PCBNEW 9.0.2+dfsg-1) date 2026-10-04 09:33:15*
%MOMM*%
%LPD*%
G01*
G04 APERTURE LIST*
G04 Aperture macros list*
%AMRoundRect*
0 Rectangle with rounded corners*
0 $1 Rounding radius*
0 $2 $3 $4 $5 $6 $7 $8 $9 X,Y pos of 4 corners*
0 Add a 4 corners polygon primitive as box body*
4,1,4,$2,$3,$4,$5,$6,$7,$8,$9,$2,$3,0*
0 Add four circle primitives for the rounded corners*
1,1,$1+$1,$2,$3*
1,1,$1+$1,$4,$5*
1,1,$1+$1,$6,$7*
1,1,$1+$1,$8,$9*
0 Add four rect primitives between the rounded corners*
20,1,$1+$1,$2,$3,$4,$5,0*
20,1,$1+$1,$4,$5,$6,$7,0*
20,1,$1+$1,$6,$7,$8,$9,0*
20,1,$1+$1,$8,$9,$2,$3,0*%
G04 Aperture macros list end*
G04 #@! TA.AperFunction,Conductor*
%ADD10C,0.000000*%
G04 #@! TD*
G04 #@! TA.AperFunction,ComponentPad*
%ADD11C,1.250000*%
G04 #@! TD*
G04 #@! TA.AperFunction,ComponentPad*
%ADD12C,2.800000*%
G04 #@! TD*
G04 #@! TA.AperFunction,SMDPad,CuDef*
%ADD13RoundRect,0.062500X0.372500X0.062500X-0.372500X0.062500X-0.372500X-0.062500X0.372500X-0.062500X0*%
G04 #@! TD*
G04 #@! TA.AperFunction,HeatsinkPad*
%ADD14R,0.610000X2.200000*%
G04 #@! TD*
G04 #@! TA.AperFunction,SMDPad,CuDef*
%ADD15RoundRect,0.100000X-0.130000X-0.100000X0.130000X-0.100000X0.130000X0.100000X-0.130000X0.100000X0*%
G04 #@! TD*
G04 #@! TA.AperFunction,SMDPad,CuDef*
%ADD16RoundRect,0.057500X-0.057500X-0.292500X0.057500X-0.292500X0.057500X0.292500X-0.057500X0.292500X0*%
G04 #@! TD*
G04 #@! TA.AperFunction,ViaPad*
%ADD17C,0.550000*%
G04 #@! TD*
G04 #@! TA.AperFunction,Conductor*
%ADD18C,0.200000*%
G04 #@! TD*
G04 #@! TA.AperFunction,Conductor*
%ADD19C,0.300000*%
G04 #@! TD*
G04 #@! TA.AperFunction,Conductor*
%ADD20C,1.000000*%
G04 #@! TD*
G04 #@! TA.AperFunction,Conductor*
%ADD21C,1.200000*%
G04 #@! TD*
G04 #@! TA.AperFunction,Conductor*
%ADD22C,0.078000*%
G04 #@! TD*
G04 #@! TA.AperFunction,Conductor*
%ADD23C,0.090000*%
G04 #@! TD*
G04 #@! TA.AperFunction,Conductor*
%ADD24C,0.100000*%
G04 #@! TD*
G04 #@! TA.AperFunction,Conductor*
%ADD25C,0.150000*%
G04 #@! TD*
G04 APERTURE END LIST*
D10*
G04 #@! TA.AperFunction,Conductor*
G04 #@! TO.N,SSRX_N*
G36*
X105225000Y-99155000D02*
G01*
X105225000Y-99245000D01*
X104187500Y-99731250D01*
X104187500Y-98668750D01*
X105225000Y-99155000D01*
G37*
G04 #@! TD.AperFunction*
G04 #@! TA.AperFunction,Conductor*
G04 #@! TO.N,SSRX_P*
G36*
X102632490Y-98631148D02*
G01*
X102508232Y-99443067D01*
X101756932Y-98691767D01*
X102568851Y-98567509D01*
X102632490Y-98631148D01*
G37*
G04 #@! TD.AperFunction*
G04 #@! TA.AperFunction,Conductor*
G04 #@! TO.N,GND*
G36*
X124668000Y-99165000D02*
G01*
X124518000Y-99165000D01*
X124495250Y-98805000D01*
X124690750Y-98805000D01*
X124668000Y-99165000D01*
G37*
G04 #@! TD.AperFunction*
G04 #@! TA.AperFunction,Conductor*
G36*
X132437750Y-99212500D02*
G01*
X131698250Y-99212500D01*
X131993000Y-98837500D01*
X132143000Y-98837500D01*
X132437750Y-99212500D01*
G37*
G04 #@! TD.AperFunction*
G04 #@! TA.AperFunction,Conductor*
G36*
X131937500Y-100356250D02*
G01*
X131508000Y-100325000D01*
X131508000Y-100175000D01*
X131937500Y-100143750D01*
X131937500Y-100356250D01*
G37*
G04 #@! TD.AperFunction*
G04 #@! TA.AperFunction,Conductor*
G04 #@! TO.N,ID_SDA*
G36*
X127443000Y-99150000D02*
G01*
X127343000Y-99150000D01*
X127295250Y-98805000D01*
X127490749Y-98805000D01*
X127443000Y-99150000D01*
G37*
G04 #@! TD.AperFunction*
G04 #@! TA.AperFunction,Conductor*
G04 #@! TO.N,GND*
G36*
X126668000Y-99165000D02*
G01*
X126518000Y-99165000D01*
X126495250Y-98805000D01*
X126690750Y-98805000D01*
X126668000Y-99165000D01*
G37*
G04 #@! TD.AperFunction*
G04 #@! TA.AperFunction,Conductor*
G36*
X125890750Y-101195000D02*
G01*
X125695250Y-101195000D01*
X125718000Y-100835000D01*
X125868000Y-100835000D01*
X125890750Y-101195000D01*
G37*
G04 #@! TD.AperFunction*
G04 #@! TA.AperFunction,Conductor*
G36*
X131750499Y-99925000D02*
G01*
X131750499Y-100075000D01*
X131219499Y-100935000D01*
X131219499Y-99065000D01*
X131750499Y-99925000D01*
G37*
G04 #@! TD.AperFunction*
G04 #@! TA.AperFunction,Conductor*
G04 #@! TO.N,SSTX_N*
G36*
X98777790Y-98485848D02*
G01*
X98508232Y-99443067D01*
X97756932Y-98691767D01*
X98714151Y-98422209D01*
X98777790Y-98485848D01*
G37*
G04 #@! TD.AperFunction*
G04 #@! TA.AperFunction,Conductor*
G04 #@! TO.N,GND*
G36*
X132143000Y-101162500D02*
G01*
X131993000Y-101162500D01*
X131698250Y-100787500D01*
X132437750Y-100787500D01*
X132143000Y-101162500D01*
G37*
G04 #@! TD.AperFunction*
G04 #@! TA.AperFunction,Conductor*
G04 #@! TO.N,3V3_MOD*
G36*
X127490749Y-101195000D02*
G01*
X127295250Y-101195000D01*
X127343000Y-100850000D01*
X127443000Y-100850000D01*
X127490749Y-101195000D01*
G37*
G04 #@! TD.AperFunction*
G04 #@! TA.AperFunction,Conductor*
G04 #@! TO.N,GND*
G36*
X131937500Y-99856250D02*
G01*
X131508000Y-99825000D01*
X131508000Y-99675000D01*
X131937500Y-99643750D01*
X131937500Y-99856250D01*
G37*
G04 #@! TD.AperFunction*
G04 #@! TA.AperFunction,Conductor*
G36*
X131750499Y-99925000D02*
G01*
X131750499Y-100075000D01*
X131219499Y-100935000D01*
X131219499Y-99065000D01*
X131750499Y-99925000D01*
G37*
G04 #@! TD.AperFunction*
G04 #@! TA.AperFunction,Conductor*
G36*
X126639560Y-99576842D02*
G01*
X126736877Y-99957095D01*
X126276220Y-99880319D01*
X126491601Y-99552182D01*
X126639560Y-99576842D01*
G37*
G04 #@! TD.AperFunction*
G04 #@! TA.AperFunction,Conductor*
G04 #@! TO.N,ID_SDA*
G36*
X130057500Y-99356250D02*
G01*
X129627999Y-99300000D01*
X129627999Y-99200000D01*
X130057500Y-99143750D01*
X130057500Y-99356250D01*
G37*
G04 #@! TD.AperFunction*
G04 #@! TA.AperFunction,Conductor*
G04 #@! TO.N,3V3_MOD*
G36*
X130057500Y-100856250D02*
G01*
X129627999Y-100800000D01*
X129627999Y-100700000D01*
X130057500Y-100643750D01*
X130057500Y-100856250D01*
G37*
G04 #@! TD.AperFunction*
G04 #@! TA.AperFunction,Conductor*
G04 #@! TO.N,ID_SCL*
G36*
X127042999Y-99165000D02*
G01*
X126943000Y-99165000D01*
X126895250Y-98805000D01*
X127090749Y-98805000D01*
X127042999Y-99165000D01*
G37*
G04 #@! TD.AperFunction*
G04 #@! TA.AperFunction,Conductor*
G04 #@! TO.N,GND*
G36*
X132301748Y-101367500D02*
G01*
X131834249Y-101367500D01*
X131992999Y-100962500D01*
X132142998Y-100962500D01*
X132301748Y-101367500D01*
G37*
G04 #@! TD.AperFunction*
G04 #@! TA.AperFunction,Conductor*
G04 #@! TO.N,VBUS*
G36*
X108783750Y-100267500D02*
G01*
X108316250Y-100267500D01*
X108399999Y-99862500D01*
X108700000Y-99862500D01*
X108783750Y-100267500D01*
G37*
G04 #@! TD.AperFunction*
G04 #@! TA.AperFunction,Conductor*
G04 #@! TO.N,SSRX_P*
G36*
X124290750Y-98595000D02*
G01*
X124095250Y-98595000D01*
X124154000Y-98235000D01*
X124232000Y-98235000D01*
X124290750Y-98595000D01*
G37*
G04 #@! TD.AperFunction*
G04 #@! TA.AperFunction,Conductor*
G04 #@! TO.N,GND*
G36*
X132142998Y-99037500D02*
G01*
X131992999Y-99037500D01*
X131834249Y-98632500D01*
X132301748Y-98632500D01*
X132142998Y-99037500D01*
G37*
G04 #@! TD.AperFunction*
G04 #@! TA.AperFunction,Conductor*
G36*
X128268000Y-98149999D02*
G01*
X128118000Y-98149999D01*
X127959250Y-97682499D01*
X128426750Y-97682499D01*
X128268000Y-98149999D01*
G37*
G04 #@! TD.AperFunction*
G04 #@! TA.AperFunction,Conductor*
G04 #@! TO.N,3V3_MOD*
G36*
X130244784Y-101309393D02*
G01*
X130144791Y-101310606D01*
X129818704Y-100791982D01*
X130558204Y-100783017D01*
X130244784Y-101309393D01*
G37*
G04 #@! TD.AperFunction*
G04 #@! TA.AperFunction,Conductor*
G04 #@! TO.N,GND*
G36*
X126026750Y-99917500D02*
G01*
X125559250Y-99917500D01*
X125718000Y-99562500D01*
X125868000Y-99562500D01*
X126026750Y-99917500D01*
G37*
G04 #@! TD.AperFunction*
G04 #@! TA.AperFunction,Conductor*
G04 #@! TO.N,SSTX_P*
G36*
X125490749Y-98595000D02*
G01*
X125295250Y-98595000D01*
X125354000Y-98235000D01*
X125432000Y-98235000D01*
X125490749Y-98595000D01*
G37*
G04 #@! TD.AperFunction*
G04 #@! TA.AperFunction,Conductor*
G04 #@! TO.N,GND*
G36*
X130747999Y-100200000D02*
G01*
X130747999Y-100300000D01*
X130318499Y-100356250D01*
X130318499Y-100143750D01*
X130747999Y-100200000D01*
G37*
G04 #@! TD.AperFunction*
G04 #@! TA.AperFunction,Conductor*
G36*
X128165010Y-102221845D02*
G01*
X127747270Y-102430716D01*
X127764485Y-102110676D01*
X127898649Y-102043594D01*
X128165010Y-102221845D01*
G37*
G04 #@! TD.AperFunction*
G04 #@! TA.AperFunction,Conductor*
G36*
X124690750Y-101195000D02*
G01*
X124495250Y-101195000D01*
X124518000Y-100835000D01*
X124668000Y-100835000D01*
X124690750Y-101195000D01*
G37*
G04 #@! TD.AperFunction*
G04 #@! TA.AperFunction,Conductor*
G04 #@! TO.N,D_N*
G36*
X99898025Y-101634386D02*
G01*
X99834386Y-101698025D01*
X98756932Y-101308232D01*
X99508232Y-100556932D01*
X99898025Y-101634386D01*
G37*
G04 #@! TD.AperFunction*
G04 #@! TA.AperFunction,Conductor*
G04 #@! TO.N,GND*
G36*
X128290750Y-98595000D02*
G01*
X128095250Y-98595000D01*
X128118000Y-98235000D01*
X128268000Y-98235000D01*
X128290750Y-98595000D01*
G37*
G04 #@! TD.AperFunction*
G04 #@! TA.AperFunction,Conductor*
G36*
X122426750Y-99917500D02*
G01*
X121959250Y-99917500D01*
X122118000Y-99562500D01*
X122268000Y-99562500D01*
X122426750Y-99917500D01*
G37*
G04 #@! TD.AperFunction*
G04 #@! TA.AperFunction,Conductor*
G04 #@! TO.N,SSTX_N*
G36*
X125090749Y-98595000D02*
G01*
X124895250Y-98595000D01*
X124954000Y-98235000D01*
X125032000Y-98235000D01*
X125090749Y-98595000D01*
G37*
G04 #@! TD.AperFunction*
G04 #@! TA.AperFunction,Conductor*
G04 #@! TO.N,GND*
G36*
X123468000Y-100437500D02*
G01*
X123318000Y-100437500D01*
X123159250Y-100082500D01*
X123626750Y-100082500D01*
X123468000Y-100437500D01*
G37*
G04 #@! TD.AperFunction*
G04 #@! TA.AperFunction,Conductor*
G36*
X121388476Y-99847962D02*
G01*
X120945395Y-99995656D01*
X120978409Y-99593399D01*
X121120711Y-99545964D01*
X121388476Y-99847962D01*
G37*
G04 #@! TD.AperFunction*
G04 #@! TA.AperFunction,Conductor*
G04 #@! TO.N,ID_SCL*
G36*
X130057500Y-99856250D02*
G01*
X129627999Y-99800000D01*
X129627999Y-99700000D01*
X130057500Y-99643750D01*
X130057500Y-99856250D01*
G37*
G04 #@! TD.AperFunction*
G04 #@! TA.AperFunction,Conductor*
G04 #@! TO.N,GND*
G36*
X121068000Y-99165000D02*
G01*
X120917999Y-99165000D01*
X120895250Y-98805000D01*
X121090749Y-98805000D01*
X121068000Y-99165000D01*
G37*
G04 #@! TD.AperFunction*
G04 #@! TA.AperFunction,Conductor*
G36*
X126690750Y-101195000D02*
G01*
X126495250Y-101195000D01*
X126518000Y-100835000D01*
X126668000Y-100835000D01*
X126690750Y-101195000D01*
G37*
G04 #@! TD.AperFunction*
G04 #@! TA.AperFunction,Conductor*
G36*
X131282797Y-102352717D02*
G01*
X131273202Y-102502410D01*
X130906102Y-102574423D01*
X130927897Y-102234423D01*
X131282797Y-102352717D01*
G37*
G04 #@! TD.AperFunction*
G04 #@! TA.AperFunction,Conductor*
G36*
X122268000Y-99165000D02*
G01*
X122118000Y-99165000D01*
X122095250Y-98805000D01*
X122290750Y-98805000D01*
X122268000Y-99165000D01*
G37*
G04 #@! TD.AperFunction*
G04 #@! TA.AperFunction,Conductor*
G36*
X124826750Y-99917500D02*
G01*
X124359250Y-99917500D01*
X124518000Y-99562500D01*
X124668000Y-99562500D01*
X124826750Y-99917500D01*
G37*
G04 #@! TD.AperFunction*
G04 #@! TA.AperFunction,Conductor*
G36*
X125868000Y-100437500D02*
G01*
X125718000Y-100437500D01*
X125559250Y-100082500D01*
X126026750Y-100082500D01*
X125868000Y-100437500D01*
G37*
G04 #@! TD.AperFunction*
G04 #@! TA.AperFunction,Conductor*
G36*
X127868000Y-101765000D02*
G01*
X127718000Y-101765000D01*
X127695250Y-101405000D01*
X127890750Y-101405000D01*
X127868000Y-101765000D01*
G37*
G04 #@! TD.AperFunction*
G04 #@! TA.AperFunction,Conductor*
G36*
X122268000Y-100437500D02*
G01*
X122118000Y-100437500D01*
X121959250Y-100082500D01*
X122426750Y-100082500D01*
X122268000Y-100437500D01*
G37*
G04 #@! TD.AperFunction*
G04 #@! TA.AperFunction,Conductor*
G36*
X128268000Y-101765000D02*
G01*
X128118000Y-101765000D01*
X128095250Y-101405000D01*
X128290750Y-101405000D01*
X128268000Y-101765000D01*
G37*
G04 #@! TD.AperFunction*
G04 #@! TA.AperFunction,Conductor*
G36*
X122290750Y-101195000D02*
G01*
X122095250Y-101195000D01*
X122118000Y-100835000D01*
X122268000Y-100835000D01*
X122290750Y-101195000D01*
G37*
G04 #@! TD.AperFunction*
G04 #@! TA.AperFunction,Conductor*
G04 #@! TO.N,D_N*
G36*
X121832000Y-101765000D02*
G01*
X121754000Y-101765000D01*
X121695250Y-101405000D01*
X121890750Y-101405000D01*
X121832000Y-101765000D01*
G37*
G04 #@! TD.AperFunction*
G04 #@! TA.AperFunction,Conductor*
G04 #@! TO.N,GND*
G36*
X128221514Y-102110676D02*
G01*
X128238729Y-102430716D01*
X127820989Y-102221845D01*
X128087350Y-102043594D01*
X128221514Y-102110676D01*
G37*
G04 #@! TD.AperFunction*
G04 #@! TA.AperFunction,Conductor*
G04 #@! TO.N,VBUS*
G36*
X108700000Y-100137500D02*
G01*
X108399999Y-100137500D01*
X108316250Y-99732500D01*
X108783750Y-99732500D01*
X108700000Y-100137500D01*
G37*
G04 #@! TD.AperFunction*
G04 #@! TA.AperFunction,Conductor*
G04 #@! TO.N,GND*
G36*
X126639560Y-100423157D02*
G01*
X126491601Y-100447817D01*
X126276220Y-100119680D01*
X126736877Y-100042904D01*
X126639560Y-100423157D01*
G37*
G04 #@! TD.AperFunction*
G04 #@! TA.AperFunction,Conductor*
G04 #@! TO.N,D_P*
G36*
X101898025Y-101634386D02*
G01*
X101834386Y-101698025D01*
X100756932Y-101308232D01*
X101508232Y-100556932D01*
X101898025Y-101634386D01*
G37*
G04 #@! TD.AperFunction*
G04 #@! TA.AperFunction,Conductor*
G04 #@! TO.N,GND*
G36*
X131530821Y-102677744D02*
G01*
X131096133Y-102491059D01*
X131105729Y-102341367D01*
X131560694Y-102211711D01*
X131530821Y-102677744D01*
G37*
G04 #@! TD.AperFunction*
G04 #@! TA.AperFunction,Conductor*
G04 #@! TO.N,3V3_MOD*
G36*
X130402772Y-102337630D02*
G01*
X130011772Y-102342369D01*
X130152791Y-101970606D01*
X130252783Y-101969393D01*
X130402772Y-102337630D01*
G37*
G04 #@! TD.AperFunction*
G04 #@! TA.AperFunction,Conductor*
G04 #@! TO.N,GND*
G36*
X121388476Y-100152037D02*
G01*
X121120711Y-100454035D01*
X120978409Y-100406600D01*
X120945395Y-100004343D01*
X121388476Y-100152037D01*
G37*
G04 #@! TD.AperFunction*
G04 #@! TA.AperFunction,Conductor*
G36*
X123490749Y-101195000D02*
G01*
X123295250Y-101195000D01*
X123318000Y-100835000D01*
X123468000Y-100835000D01*
X123490749Y-101195000D01*
G37*
G04 #@! TD.AperFunction*
G04 #@! TA.AperFunction,Conductor*
G36*
X123626750Y-99917500D02*
G01*
X123159250Y-99917500D01*
X123318000Y-99562500D01*
X123468000Y-99562500D01*
X123626750Y-99917500D01*
G37*
G04 #@! TD.AperFunction*
G04 #@! TA.AperFunction,Conductor*
G36*
X123468000Y-99165000D02*
G01*
X123318000Y-99165000D01*
X123295250Y-98805000D01*
X123490749Y-98805000D01*
X123468000Y-99165000D01*
G37*
G04 #@! TD.AperFunction*
G04 #@! TA.AperFunction,Conductor*
G36*
X121090749Y-101195000D02*
G01*
X120895250Y-101195000D01*
X120917999Y-100835000D01*
X121068000Y-100835000D01*
X121090749Y-101195000D01*
G37*
G04 #@! TD.AperFunction*
G04 #@! TA.AperFunction,Conductor*
G04 #@! TO.N,SSTX_P*
G36*
X96877790Y-98385848D02*
G01*
X96508232Y-99443067D01*
X95756932Y-98691767D01*
X96814151Y-98322209D01*
X96877790Y-98385848D01*
G37*
G04 #@! TD.AperFunction*
G04 #@! TA.AperFunction,Conductor*
G04 #@! TO.N,GND*
G36*
X130057500Y-100356250D02*
G01*
X129627999Y-100300000D01*
X129627999Y-100200000D01*
X130057500Y-100143750D01*
X130057500Y-100356250D01*
G37*
G04 #@! TD.AperFunction*
G04 #@! TA.AperFunction,Conductor*
G36*
X124668000Y-100437500D02*
G01*
X124518000Y-100437500D01*
X124359250Y-100082500D01*
X124826750Y-100082500D01*
X124668000Y-100437500D01*
G37*
G04 #@! TD.AperFunction*
G04 #@! TA.AperFunction,Conductor*
G36*
X125868000Y-99165000D02*
G01*
X125718000Y-99165000D01*
X125695250Y-98805000D01*
X125890750Y-98805000D01*
X125868000Y-99165000D01*
G37*
G04 #@! TD.AperFunction*
G04 #@! TA.AperFunction,Conductor*
G36*
X127090749Y-101195000D02*
G01*
X126895250Y-101195000D01*
X126943000Y-100835000D01*
X127042999Y-100835000D01*
X127090749Y-101195000D01*
G37*
G04 #@! TD.AperFunction*
G04 #@! TD*
D11*
G04 #@! TO.P,J1,1*
G04 #@! TO.N,VBUS*
X96500000Y-100800000D03*
G04 #@! TO.P,J1,2*
G04 #@! TO.N,D_N*
X99000000Y-100800000D03*
G04 #@! TO.P,J1,3*
G04 #@! TO.N,D_P*
X101000000Y-100800000D03*
G04 #@! TO.P,J1,4*
G04 #@! TO.N,GND*
X103500000Y-100800000D03*
G04 #@! TO.P,J1,5*
G04 #@! TO.N,SSRX_N*
X104000000Y-99200000D03*
G04 #@! TO.P,J1,6*
G04 #@! TO.N,SSRX_P*
X102000000Y-99200000D03*
G04 #@! TO.P,J1,7*
G04 #@! TO.N,GND*
X100000000Y-99200000D03*
G04 #@! TO.P,J1,8*
G04 #@! TO.N,SSTX_N*
X98000000Y-99200000D03*
G04 #@! TO.P,J1,9*
G04 #@! TO.N,SSTX_P*
X96000000Y-99200000D03*
D12*
G04 #@! TO.P,J1,S*
G04 #@! TO.N,GND*
X93425000Y-100650000D03*
X106575000Y-100650000D03*
G04 #@! TD*
D13*
G04 #@! TO.P,U1,1*
G04 #@! TO.N,GND*
X132068000Y-100750000D03*
G04 #@! TO.P,U1,2*
X132068000Y-100250000D03*
G04 #@! TO.P,U1,3*
X132068000Y-99750000D03*
G04 #@! TO.P,U1,4*
X132068000Y-99250000D03*
G04 #@! TO.P,U1,5*
G04 #@! TO.N,ID_SDA*
X130188000Y-99250000D03*
G04 #@! TO.P,U1,6*
G04 #@! TO.N,ID_SCL*
X130188000Y-99750000D03*
G04 #@! TO.P,U1,7*
G04 #@! TO.N,GND*
X130188000Y-100250000D03*
G04 #@! TO.P,U1,8*
G04 #@! TO.N,3V3_MOD*
X130188000Y-100750000D03*
D14*
G04 #@! TO.P,U1,9*
G04 #@! TO.N,GND*
X131128000Y-100000000D03*
G04 #@! TD*
D15*
G04 #@! TO.P,C1,1*
G04 #@! TO.N,3V3_MOD*
X130208000Y-102400000D03*
G04 #@! TO.P,C1,2*
G04 #@! TO.N,GND*
X130848000Y-102400000D03*
G04 #@! TD*
D16*
G04 #@! TO.P,J2,1*
G04 #@! TO.N,VBUS*
X118593000Y-98700000D03*
G04 #@! TO.P,J2,2*
X118593000Y-101300000D03*
G04 #@! TO.P,J2,3*
X118993000Y-98700000D03*
G04 #@! TO.P,J2,4*
X118993000Y-101300000D03*
G04 #@! TO.P,J2,5*
X119393000Y-98700000D03*
G04 #@! TO.P,J2,6*
X119393000Y-101300000D03*
G04 #@! TO.P,J2,7*
X119793000Y-98700000D03*
G04 #@! TO.P,J2,8*
X119793000Y-101300000D03*
G04 #@! TO.P,J2,9*
X120193000Y-98700000D03*
G04 #@! TO.P,J2,10*
X120193000Y-101300000D03*
G04 #@! TO.P,J2,11*
X120593000Y-98700000D03*
G04 #@! TO.P,J2,12*
X120593000Y-101300000D03*
G04 #@! TO.P,J2,13*
G04 #@! TO.N,GND*
X120993000Y-98700000D03*
G04 #@! TO.P,J2,14*
X120993000Y-101300000D03*
G04 #@! TO.P,J2,15*
G04 #@! TO.N,N/C*
X121393000Y-98700000D03*
G04 #@! TO.P,J2,16*
G04 #@! TO.N,D_P*
X121393000Y-101300000D03*
G04 #@! TO.P,J2,17*
G04 #@! TO.N,N/C*
X121793000Y-98700000D03*
G04 #@! TO.P,J2,18*
G04 #@! TO.N,D_N*
X121793000Y-101300000D03*
G04 #@! TO.P,J2,19*
G04 #@! TO.N,GND*
X122193000Y-98700000D03*
G04 #@! TO.P,J2,20*
X122193000Y-101300000D03*
G04 #@! TO.P,J2,21*
G04 #@! TO.N,N/C*
X122593000Y-98700000D03*
G04 #@! TO.P,J2,22*
X122593000Y-101300000D03*
G04 #@! TO.P,J2,23*
X122993000Y-98700000D03*
G04 #@! TO.P,J2,24*
X122993000Y-101300000D03*
G04 #@! TO.P,J2,25*
G04 #@! TO.N,GND*
X123393000Y-98700000D03*
G04 #@! TO.P,J2,26*
X123393000Y-101300000D03*
G04 #@! TO.P,J2,27*
G04 #@! TO.N,SSRX_N*
X123793000Y-98700000D03*
G04 #@! TO.P,J2,28*
G04 #@! TO.N,N/C*
X123793000Y-101300000D03*
G04 #@! TO.P,J2,29*
G04 #@! TO.N,SSRX_P*
X124193000Y-98700000D03*
G04 #@! TO.P,J2,30*
G04 #@! TO.N,N/C*
X124193000Y-101300000D03*
G04 #@! TO.P,J2,31*
G04 #@! TO.N,GND*
X124593000Y-98700000D03*
G04 #@! TO.P,J2,32*
X124593000Y-101300000D03*
G04 #@! TO.P,J2,33*
G04 #@! TO.N,SSTX_N*
X124993000Y-98700000D03*
G04 #@! TO.P,J2,34*
G04 #@! TO.N,N/C*
X124993000Y-101300000D03*
G04 #@! TO.P,J2,35*
G04 #@! TO.N,SSTX_P*
X125393000Y-98700000D03*
G04 #@! TO.P,J2,36*
G04 #@! TO.N,N/C*
X125393000Y-101300000D03*
G04 #@! TO.P,J2,37*
G04 #@! TO.N,GND*
X125793000Y-98700000D03*
G04 #@! TO.P,J2,38*
X125793000Y-101300000D03*
G04 #@! TO.P,J2,39*
G04 #@! TO.N,N/C*
X126193000Y-98700000D03*
G04 #@! TO.P,J2,40*
X126193000Y-101300000D03*
G04 #@! TO.P,J2,41*
G04 #@! TO.N,GND*
X126593000Y-98700000D03*
G04 #@! TO.P,J2,42*
X126593000Y-101300000D03*
G04 #@! TO.P,J2,43*
G04 #@! TO.N,ID_SCL*
X126993000Y-98700000D03*
G04 #@! TO.P,J2,44*
G04 #@! TO.N,GND*
X126993000Y-101300000D03*
G04 #@! TO.P,J2,45*
G04 #@! TO.N,ID_SDA*
X127393000Y-98700000D03*
G04 #@! TO.P,J2,46*
G04 #@! TO.N,3V3_MOD*
X127393000Y-101300000D03*
G04 #@! TO.P,J2,47*
G04 #@! TO.N,N/C*
X127793000Y-98700000D03*
G04 #@! TO.P,J2,48*
G04 #@! TO.N,GND*
X127793000Y-101300000D03*
G04 #@! TO.P,J2,49*
X128193000Y-98700000D03*
G04 #@! TO.P,J2,50*
X128193000Y-101300000D03*
G04 #@! TD*
D17*
G04 #@! TO.N,VBUS*
X108550000Y-99650000D03*
X118178000Y-99650000D03*
X108550000Y-100350000D03*
X118178000Y-100350000D03*
G04 #@! TO.N,GND*
X123393000Y-100000000D03*
X121193000Y-100000000D03*
X128611375Y-98050375D03*
X122193000Y-100000000D03*
X124593000Y-100000000D03*
X132067999Y-101450000D03*
X126493000Y-100000000D03*
X132067999Y-98550000D03*
X128193000Y-97600000D03*
X125793000Y-100000000D03*
X104934167Y-100489186D03*
X127993000Y-102400000D03*
X131627999Y-102450000D03*
G04 #@! TD*
D18*
G04 #@! TO.N,VBUS*
X118593000Y-101300000D02*
X118593000Y-100000000D01*
X118593000Y-98700000D02*
X118593000Y-100000000D01*
X119393000Y-98700000D02*
X119393000Y-100000000D01*
X119793000Y-98700000D02*
X119793000Y-100000000D01*
X120593000Y-98700000D02*
X120593000Y-100000000D01*
D19*
X108550000Y-99650000D02*
X108550000Y-100350000D01*
D18*
X118993000Y-101300000D02*
X118993000Y-100000000D01*
X118993000Y-98700000D02*
X118993000Y-100000000D01*
X120193000Y-101300000D02*
X120193000Y-100000000D01*
X120593000Y-101300000D02*
X120593000Y-100000000D01*
X120193000Y-98700000D02*
X120193000Y-100000000D01*
X119393000Y-101300000D02*
X119393000Y-100000000D01*
X119793000Y-101300000D02*
X119793000Y-100000000D01*
D20*
X117993000Y-100000000D02*
X120293000Y-100000000D01*
D21*
X108900000Y-100000000D02*
X118293000Y-100000000D01*
D22*
G04 #@! TO.N,D_N*
X117345691Y-101378000D02*
X117890691Y-101923000D01*
D23*
X99000000Y-100800000D02*
X100562900Y-102362900D01*
D22*
X117890691Y-101923000D02*
X118122999Y-101923000D01*
D24*
X109250000Y-101400000D02*
X117228000Y-101400000D01*
D22*
X117328000Y-101378000D02*
X117345691Y-101378000D01*
D23*
X107722800Y-102362900D02*
X108685700Y-101400000D01*
D24*
X109150000Y-101400000D02*
X109250000Y-101400000D01*
D22*
X121793000Y-101923000D02*
X121793000Y-101300000D01*
X118122999Y-101923000D02*
X121793000Y-101923000D01*
D23*
X100562900Y-102362900D02*
X107722800Y-102362900D01*
D22*
X117228000Y-101400000D02*
X117328000Y-101378000D01*
D24*
X108650000Y-101400000D02*
X109150000Y-101400000D01*
D22*
G04 #@! TO.N,D_P*
X118122999Y-101767000D02*
X121393000Y-101767000D01*
D23*
X108425800Y-101200000D02*
X107436600Y-102189200D01*
D24*
X109150000Y-101200000D02*
X109250000Y-101200000D01*
D22*
X117410308Y-101222000D02*
X117955308Y-101767000D01*
X117328000Y-101222000D02*
X117410308Y-101222000D01*
D23*
X102389200Y-102189200D02*
X101000000Y-100800000D01*
X108650000Y-101200000D02*
X108425800Y-101200000D01*
D22*
X121393000Y-101767000D02*
X121393000Y-101300000D01*
D24*
X109250000Y-101200000D02*
X117228000Y-101200000D01*
D22*
X117228000Y-101200000D02*
X117328000Y-101222000D01*
D23*
X107436600Y-102189200D02*
X102389200Y-102189200D01*
D22*
X117955308Y-101767000D02*
X118122999Y-101767000D01*
D24*
X108650000Y-101200000D02*
X109150000Y-101200000D01*
D25*
G04 #@! TO.N,GND*
X132067999Y-100750000D02*
X132067999Y-101450000D01*
X124593000Y-99400000D02*
X124593000Y-100000000D01*
X127793000Y-101300000D02*
X127793000Y-102000000D01*
X132067999Y-99750000D02*
X131127999Y-99750000D01*
X128193000Y-101300000D02*
X128193000Y-102000000D01*
X123393000Y-98700000D02*
X123393000Y-99400000D01*
X122193000Y-100600000D02*
X122193000Y-100000000D01*
X125793000Y-99400000D02*
X125793000Y-100000000D01*
D24*
X126993000Y-100250000D02*
X130187999Y-100250000D01*
D25*
X126593000Y-101300000D02*
X126593000Y-100600000D01*
X120993000Y-98700000D02*
X120993000Y-99400000D01*
X122193000Y-99400000D02*
X122193000Y-100000000D01*
X126593000Y-98700000D02*
X126593000Y-99400000D01*
X123393000Y-99400000D02*
X123393000Y-100000000D01*
X125793000Y-98700000D02*
X125793000Y-99400000D01*
X123393000Y-100600000D02*
X123393000Y-100000000D01*
X123393000Y-101300000D02*
X123393000Y-100600000D01*
X126593000Y-100600000D02*
X126493000Y-100000000D01*
X124593000Y-101300000D02*
X124593000Y-100600000D01*
X128193000Y-98700000D02*
X128193000Y-97600000D01*
X120993000Y-100600000D02*
X121193000Y-100000000D01*
X124593000Y-98700000D02*
X124593000Y-99400000D01*
X122193000Y-98700000D02*
X122193000Y-99400000D01*
X130848000Y-102400000D02*
X131627999Y-102450000D01*
X125793000Y-101300000D02*
X125793000Y-100600000D01*
X127793000Y-102000000D02*
X127993000Y-102400000D01*
X126593000Y-99400000D02*
X126493000Y-100000000D01*
X132067999Y-99250000D02*
X132067999Y-98550000D01*
X120993000Y-99400000D02*
X121193000Y-100000000D01*
X120993000Y-101300000D02*
X120993000Y-100600000D01*
D24*
X130187999Y-100250000D02*
X131127999Y-100250000D01*
D25*
X128193000Y-102000000D02*
X127993000Y-102400000D01*
D24*
X126993000Y-101300000D02*
X126993000Y-100250000D01*
D25*
X125793000Y-100600000D02*
X125793000Y-100000000D01*
X124593000Y-100600000D02*
X124593000Y-100000000D01*
X132067999Y-100250000D02*
X131127999Y-100250000D01*
X122193000Y-101300000D02*
X122193000Y-100600000D01*
D24*
G04 #@! TO.N,SSTX_P*
X109250000Y-97950000D02*
X117228000Y-97950000D01*
D22*
X117785000Y-97765000D02*
X125393000Y-97765000D01*
D24*
X109150000Y-97950000D02*
X109250000Y-97950000D01*
D22*
X117328000Y-97972000D02*
X117345691Y-97972000D01*
D24*
X108650000Y-97950000D02*
X109150000Y-97950000D01*
D22*
X117552691Y-97765000D02*
X117785000Y-97765000D01*
X117345691Y-97972000D02*
X117552691Y-97765000D01*
X117228000Y-97950000D02*
X117328000Y-97972000D01*
X125393000Y-97765000D02*
X125393000Y-98700000D01*
D23*
X108650000Y-97950000D02*
X97250000Y-97950000D01*
X97250000Y-97950000D02*
X96000000Y-99200000D01*
D22*
G04 #@! TO.N,SSTX_N*
X117328000Y-98128000D02*
X117410308Y-98128000D01*
X117410308Y-98128000D02*
X117617308Y-97921000D01*
X124993000Y-97921000D02*
X124993000Y-98700000D01*
D24*
X108650000Y-98150000D02*
X109150000Y-98150000D01*
D23*
X98000000Y-99200000D02*
X99050000Y-98150000D01*
D22*
X117617308Y-97921000D02*
X117785000Y-97921000D01*
D24*
X109150000Y-98150000D02*
X109250000Y-98150000D01*
D22*
X117228000Y-98150000D02*
X117328000Y-98128000D01*
D23*
X99050000Y-98150000D02*
X108650000Y-98150000D01*
D24*
X109250000Y-98150000D02*
X117228000Y-98150000D01*
D22*
X117785000Y-97921000D02*
X124993000Y-97921000D01*
G04 #@! TO.N,SSRX_P*
X124193000Y-98077000D02*
X124193000Y-98700000D01*
D23*
X102759400Y-98440600D02*
X108490600Y-98440600D01*
D24*
X108650000Y-98600000D02*
X109150000Y-98600000D01*
D22*
X117228000Y-98600000D02*
X117328000Y-98622000D01*
X117345691Y-98622000D02*
X117890691Y-98077000D01*
X118122999Y-98077000D02*
X124193000Y-98077000D01*
D23*
X102000000Y-99200000D02*
X102759400Y-98440600D01*
D24*
X109150000Y-98600000D02*
X109250000Y-98600000D01*
D22*
X117890691Y-98077000D02*
X118122999Y-98077000D01*
X117328000Y-98622000D02*
X117345691Y-98622000D01*
D23*
X108490600Y-98440600D02*
X108650000Y-98600000D01*
D24*
X109250000Y-98600000D02*
X117228000Y-98600000D01*
D22*
G04 #@! TO.N,SSRX_N*
X117955308Y-98233000D02*
X118122999Y-98233000D01*
D23*
X104400000Y-98800000D02*
X104000000Y-99200000D01*
D22*
X118122999Y-98233000D02*
X123793000Y-98233000D01*
X117328000Y-98778000D02*
X117410308Y-98778000D01*
D23*
X108650000Y-98800000D02*
X104400000Y-98800000D01*
D24*
X109250000Y-98800000D02*
X117228000Y-98800000D01*
X109150000Y-98800000D02*
X109250000Y-98800000D01*
D22*
X117410308Y-98778000D02*
X117955308Y-98233000D01*
D24*
X108650000Y-98800000D02*
X109150000Y-98800000D01*
D22*
X123793000Y-98233000D02*
X123793000Y-98700000D01*
X117228000Y-98800000D02*
X117328000Y-98778000D01*
D24*
G04 #@! TO.N,ID_SCL*
X126993000Y-99750000D02*
X130187999Y-99750000D01*
X126993000Y-98700000D02*
X126993000Y-99750000D01*
G04 #@! TO.N,ID_SDA*
X127393000Y-98700000D02*
X127393000Y-99250000D01*
X127393000Y-99250000D02*
X130187999Y-99250000D01*
G04 #@! TO.N,3V3_MOD*
X130187999Y-100750000D02*
X130208000Y-102400000D01*
X127393000Y-100750000D02*
X130187999Y-100750000D01*
X127393000Y-101300000D02*
X127393000Y-100750000D01*
G04 #@! TD*
G04 #@! TA.AperFunction,Conductor*
G04 #@! TO.N,GND*
G36*
X108604832Y-95901795D02*
G01*
X108623502Y-95906797D01*
X108639913Y-95911194D01*
X108656949Y-95921029D01*
X108678970Y-95943050D01*
X108688805Y-95960085D01*
X108698205Y-95995166D01*
X108699500Y-96005001D01*
X108699500Y-96468992D01*
X108726420Y-96604329D01*
X108747107Y-96654270D01*
X108750000Y-96668812D01*
X108750000Y-97761500D01*
X108738870Y-97788370D01*
X108712000Y-97799500D01*
X108620064Y-97799500D01*
X108614975Y-97801607D01*
X108600435Y-97804500D01*
X97221056Y-97804500D01*
X97167582Y-97826650D01*
X97167577Y-97826653D01*
X96773601Y-98220629D01*
X96759270Y-98229631D01*
X96196365Y-98426400D01*
X96079713Y-98467177D01*
X96064851Y-98472372D01*
X96052312Y-98474500D01*
X95928545Y-98474500D01*
X95788378Y-98502381D01*
X95656351Y-98557068D01*
X95537521Y-98636467D01*
X95436467Y-98737521D01*
X95357068Y-98856351D01*
X95302381Y-98988378D01*
X95274500Y-99128545D01*
X95274500Y-99271454D01*
X95302381Y-99411621D01*
X95357068Y-99543648D01*
X95357070Y-99543651D01*
X95357071Y-99543653D01*
X95436468Y-99662479D01*
X95537521Y-99763532D01*
X95656347Y-99842929D01*
X95656349Y-99842930D01*
X95656351Y-99842931D01*
X95656687Y-99843070D01*
X95788380Y-99897619D01*
X95928545Y-99925500D01*
X96071454Y-99925500D01*
X96071455Y-99925500D01*
X96211620Y-99897619D01*
X96343653Y-99842929D01*
X96462479Y-99763532D01*
X96563532Y-99662479D01*
X96642929Y-99543653D01*
X96697619Y-99411620D01*
X96725500Y-99271455D01*
X96725500Y-99147684D01*
X96727628Y-99135145D01*
X96738504Y-99104032D01*
X96970364Y-98440729D01*
X96979364Y-98426402D01*
X97299138Y-98106630D01*
X97326008Y-98095500D01*
X98806992Y-98095500D01*
X98833862Y-98106630D01*
X98844992Y-98133500D01*
X98833862Y-98160370D01*
X98675892Y-98318338D01*
X98659322Y-98328045D01*
X98119962Y-98479932D01*
X98102249Y-98480625D01*
X98071455Y-98474500D01*
X97928545Y-98474500D01*
X97788378Y-98502381D01*
X97656351Y-98557068D01*
X97537521Y-98636467D01*
X97436467Y-98737521D01*
X97357068Y-98856351D01*
X97302381Y-98988378D01*
X97274500Y-99128545D01*
X97274500Y-99271454D01*
X97302381Y-99411621D01*
X97357068Y-99543648D01*
X97357070Y-99543651D01*
X97357071Y-99543653D01*
X97436468Y-99662479D01*
X97537521Y-99763532D01*
X97656347Y-99842929D01*
X97656349Y-99842930D01*
X97656351Y-99842931D01*
X97656687Y-99843070D01*
X97788380Y-99897619D01*
X97928545Y-99925500D01*
X98071454Y-99925500D01*
X98071455Y-99925500D01*
X98211620Y-99897619D01*
X98343653Y-99842929D01*
X98462479Y-99763532D01*
X98563532Y-99662479D01*
X98642929Y-99543653D01*
X98697619Y-99411620D01*
X98725500Y-99271455D01*
X98725500Y-99128545D01*
X98719373Y-99097746D01*
X98720066Y-99080033D01*
X98725856Y-99059474D01*
X98871952Y-98540675D01*
X98881656Y-98524110D01*
X99099138Y-98306630D01*
X99126008Y-98295500D01*
X102606991Y-98295500D01*
X102633861Y-98306630D01*
X102644991Y-98333500D01*
X102633861Y-98360370D01*
X102535862Y-98458368D01*
X102514741Y-98469061D01*
X102245150Y-98510319D01*
X102224862Y-98507864D01*
X102211622Y-98502381D01*
X102211623Y-98502381D01*
X102071455Y-98474500D01*
X101928545Y-98474500D01*
X101788378Y-98502381D01*
X101656351Y-98557068D01*
X101537521Y-98636467D01*
X101436467Y-98737521D01*
X101357068Y-98856351D01*
X101302381Y-98988378D01*
X101274500Y-99128545D01*
X101274500Y-99271454D01*
X101302381Y-99411621D01*
X101357068Y-99543648D01*
X101357070Y-99543651D01*
X101357071Y-99543653D01*
X101436468Y-99662479D01*
X101537521Y-99763532D01*
X101656347Y-99842929D01*
X101656349Y-99842930D01*
X101656351Y-99842931D01*
X101656687Y-99843070D01*
X101788380Y-99897619D01*
X101928545Y-99925500D01*
X102071454Y-99925500D01*
X102071455Y-99925500D01*
X102211620Y-99897619D01*
X102343653Y-99842929D01*
X102462479Y-99763532D01*
X102563532Y-99662479D01*
X102642929Y-99543653D01*
X102697619Y-99411620D01*
X102725500Y-99271455D01*
X102725500Y-99128545D01*
X102697619Y-98988380D01*
X102697618Y-98988378D01*
X102692134Y-98975138D01*
X102689678Y-98954846D01*
X102690666Y-98948393D01*
X102730937Y-98685255D01*
X102741627Y-98664139D01*
X102808538Y-98597230D01*
X102835408Y-98586100D01*
X103496149Y-98586100D01*
X103523019Y-98597230D01*
X103534149Y-98624100D01*
X103523019Y-98650970D01*
X103436467Y-98737521D01*
X103357068Y-98856351D01*
X103302381Y-98988378D01*
X103274500Y-99128545D01*
X103274500Y-99271454D01*
X103302381Y-99411621D01*
X103357068Y-99543648D01*
X103357070Y-99543651D01*
X103357071Y-99543653D01*
X103436468Y-99662479D01*
X103537521Y-99763532D01*
X103656347Y-99842929D01*
X103656349Y-99842930D01*
X103656351Y-99842931D01*
X103656687Y-99843070D01*
X103788380Y-99897619D01*
X103928545Y-99925500D01*
X104071454Y-99925500D01*
X104071455Y-99925500D01*
X104211620Y-99897619D01*
X104343653Y-99842929D01*
X104462479Y-99763532D01*
X104541795Y-99684214D01*
X104552539Y-99676677D01*
X105269768Y-99340531D01*
X105269768Y-99340530D01*
X105269772Y-99340529D01*
X105310351Y-99307011D01*
X105330500Y-99245000D01*
X105330500Y-99155000D01*
X105317372Y-99104032D01*
X105317371Y-99104030D01*
X105269775Y-99059474D01*
X105269772Y-99059471D01*
X105181089Y-99017907D01*
X105161483Y-98996427D01*
X105162808Y-98967374D01*
X105184289Y-98947767D01*
X105197216Y-98945500D01*
X108600435Y-98945500D01*
X108614975Y-98948392D01*
X108620064Y-98950500D01*
X108620065Y-98950500D01*
X108712000Y-98950500D01*
X108738870Y-98961630D01*
X108750000Y-98988500D01*
X108750000Y-99266062D01*
X108738870Y-99292932D01*
X108712000Y-99304062D01*
X108697578Y-99300209D01*
X108697234Y-99301041D01*
X108694936Y-99300088D01*
X108599436Y-99274500D01*
X108599435Y-99274500D01*
X108500565Y-99274500D01*
X108500564Y-99274500D01*
X108405065Y-99300088D01*
X108319438Y-99349524D01*
X108249524Y-99419438D01*
X108200088Y-99505065D01*
X108174500Y-99600563D01*
X108174500Y-99699436D01*
X108200088Y-99794934D01*
X108200089Y-99794936D01*
X108200090Y-99794938D01*
X108212630Y-99816658D01*
X108216991Y-99843070D01*
X108199500Y-99931007D01*
X108199500Y-100068993D01*
X108206141Y-100102381D01*
X108216991Y-100156928D01*
X108212631Y-100183340D01*
X108200088Y-100205066D01*
X108174500Y-100300563D01*
X108174500Y-100399436D01*
X108200088Y-100494934D01*
X108200089Y-100494937D01*
X108200090Y-100494938D01*
X108249525Y-100580562D01*
X108319438Y-100650475D01*
X108405062Y-100699910D01*
X108405064Y-100699910D01*
X108405065Y-100699911D01*
X108433436Y-100707512D01*
X108500563Y-100725499D01*
X108500564Y-100725500D01*
X108500565Y-100725500D01*
X108599436Y-100725500D01*
X108599436Y-100725499D01*
X108669349Y-100706766D01*
X108694939Y-100699910D01*
X108697238Y-100698958D01*
X108697834Y-100700397D01*
X108721818Y-100697228D01*
X108744900Y-100714922D01*
X108750000Y-100733938D01*
X108750000Y-101011500D01*
X108738870Y-101038370D01*
X108712000Y-101049500D01*
X108620064Y-101049500D01*
X108614975Y-101051607D01*
X108600435Y-101054500D01*
X108396856Y-101054500D01*
X108343382Y-101076650D01*
X108343378Y-101076652D01*
X107387462Y-102032570D01*
X107360592Y-102043700D01*
X102465208Y-102043700D01*
X102438338Y-102032570D01*
X101999231Y-101593463D01*
X101990367Y-101579520D01*
X101727766Y-100853644D01*
X101725500Y-100840717D01*
X101725500Y-100728545D01*
X101719615Y-100698958D01*
X101697619Y-100588380D01*
X101642929Y-100456347D01*
X101563532Y-100337521D01*
X101462479Y-100236468D01*
X101343653Y-100157071D01*
X101343651Y-100157070D01*
X101343648Y-100157068D01*
X101211621Y-100102381D01*
X101071455Y-100074500D01*
X100928545Y-100074500D01*
X100788378Y-100102381D01*
X100656351Y-100157068D01*
X100537521Y-100236467D01*
X100436467Y-100337521D01*
X100357068Y-100456351D01*
X100302381Y-100588378D01*
X100274500Y-100728545D01*
X100274500Y-100871454D01*
X100302381Y-101011621D01*
X100357068Y-101143648D01*
X100357070Y-101143651D01*
X100357071Y-101143653D01*
X100436468Y-101262479D01*
X100537521Y-101363532D01*
X100656347Y-101442929D01*
X100656349Y-101442930D01*
X100656351Y-101442931D01*
X100744369Y-101479389D01*
X100788380Y-101497619D01*
X100928545Y-101525500D01*
X101040721Y-101525500D01*
X101053643Y-101527765D01*
X101779522Y-101790368D01*
X101793461Y-101799229D01*
X102146762Y-102152530D01*
X102157892Y-102179400D01*
X102146762Y-102206270D01*
X102119892Y-102217400D01*
X100638908Y-102217400D01*
X100612038Y-102206270D01*
X99999231Y-101593463D01*
X99990367Y-101579520D01*
X99727766Y-100853644D01*
X99725500Y-100840717D01*
X99725500Y-100728545D01*
X99719615Y-100698958D01*
X99697619Y-100588380D01*
X99642929Y-100456347D01*
X99563532Y-100337521D01*
X99462479Y-100236468D01*
X99343653Y-100157071D01*
X99343651Y-100157070D01*
X99343648Y-100157068D01*
X99211621Y-100102381D01*
X99071455Y-100074500D01*
X98928545Y-100074500D01*
X98788378Y-100102381D01*
X98656351Y-100157068D01*
X98537521Y-100236467D01*
X98436467Y-100337521D01*
X98357068Y-100456351D01*
X98302381Y-100588378D01*
X98274500Y-100728545D01*
X98274500Y-100871454D01*
X98302381Y-101011621D01*
X98357068Y-101143648D01*
X98357070Y-101143651D01*
X98357071Y-101143653D01*
X98436468Y-101262479D01*
X98537521Y-101363532D01*
X98656347Y-101442929D01*
X98656349Y-101442930D01*
X98656351Y-101442931D01*
X98744369Y-101479389D01*
X98788380Y-101497619D01*
X98928545Y-101525500D01*
X99040721Y-101525500D01*
X99053643Y-101527765D01*
X99779522Y-101790368D01*
X99793461Y-101799229D01*
X100439551Y-102445319D01*
X100480478Y-102486247D01*
X100480480Y-102486248D01*
X100480481Y-102486249D01*
X100533956Y-102508399D01*
X100533957Y-102508400D01*
X100533958Y-102508400D01*
X107751743Y-102508400D01*
X107751743Y-102508399D01*
X107805219Y-102486249D01*
X108685130Y-101606338D01*
X108712000Y-101595208D01*
X108738870Y-101606338D01*
X108750000Y-101633208D01*
X108750000Y-103331186D01*
X108747107Y-103345728D01*
X108726420Y-103395670D01*
X108699500Y-103531007D01*
X108699500Y-103994998D01*
X108698205Y-104004832D01*
X108698205Y-104004833D01*
X108688805Y-104039914D01*
X108678970Y-104056949D01*
X108656949Y-104078970D01*
X108639914Y-104088805D01*
X108604833Y-104098205D01*
X108594998Y-104099500D01*
X92005002Y-104099500D01*
X91995167Y-104098205D01*
X91960085Y-104088805D01*
X91943050Y-104078970D01*
X91921029Y-104056949D01*
X91911194Y-104039913D01*
X91901795Y-104004832D01*
X91900500Y-103994998D01*
X91900500Y-100728545D01*
X95774500Y-100728545D01*
X95774500Y-100871454D01*
X95802381Y-101011621D01*
X95857068Y-101143648D01*
X95857070Y-101143651D01*
X95857071Y-101143653D01*
X95936468Y-101262479D01*
X96037521Y-101363532D01*
X96156347Y-101442929D01*
X96156349Y-101442930D01*
X96156351Y-101442931D01*
X96244369Y-101479389D01*
X96288380Y-101497619D01*
X96428545Y-101525500D01*
X96571454Y-101525500D01*
X96571455Y-101525500D01*
X96711620Y-101497619D01*
X96843653Y-101442929D01*
X96962479Y-101363532D01*
X97063532Y-101262479D01*
X97142929Y-101143653D01*
X97197619Y-101011620D01*
X97225500Y-100871455D01*
X97225500Y-100728545D01*
X97197619Y-100588380D01*
X97142929Y-100456347D01*
X97063532Y-100337521D01*
X96962479Y-100236468D01*
X96843653Y-100157071D01*
X96843651Y-100157070D01*
X96843648Y-100157068D01*
X96711621Y-100102381D01*
X96571455Y-100074500D01*
X96428545Y-100074500D01*
X96288378Y-100102381D01*
X96156351Y-100157068D01*
X96037521Y-100236467D01*
X95936467Y-100337521D01*
X95857068Y-100456351D01*
X95802381Y-100588378D01*
X95774500Y-100728545D01*
X91900500Y-100728545D01*
X91900500Y-96005001D01*
X91901795Y-95995167D01*
X91911100Y-95960438D01*
X91911195Y-95960085D01*
X91921027Y-95943052D01*
X91943052Y-95921027D01*
X91960084Y-95911195D01*
X91982310Y-95905239D01*
X91995168Y-95901795D01*
X92005002Y-95900500D01*
X92047595Y-95900500D01*
X108552405Y-95900500D01*
X108594998Y-95900500D01*
X108604832Y-95901795D01*
G37*
G04 #@! TD.AperFunction*
G04 #@! TD*
G04 #@! TA.AperFunction,Conductor*
G04 #@! TO.N,GND*
G36*
X132427832Y-97101795D02*
G01*
X132446502Y-97106797D01*
X132462913Y-97111194D01*
X132479949Y-97121029D01*
X132501970Y-97143050D01*
X132511805Y-97160085D01*
X132521205Y-97195166D01*
X132522500Y-97205001D01*
X132522500Y-98991823D01*
X132511370Y-99018693D01*
X132484500Y-99029823D01*
X132477088Y-99029093D01*
X132456509Y-99025000D01*
X132143000Y-99025000D01*
X132143000Y-99477643D01*
X132152260Y-99499999D01*
X132143000Y-99522357D01*
X132143000Y-99977643D01*
X132152260Y-99999999D01*
X132143000Y-100022357D01*
X132143000Y-100477643D01*
X132152260Y-100499999D01*
X132143000Y-100522357D01*
X132143000Y-100974999D01*
X132456505Y-100974999D01*
X132456505Y-100974998D01*
X132477087Y-100970905D01*
X132505612Y-100976579D01*
X132521770Y-101000762D01*
X132522500Y-101008175D01*
X132522500Y-102794998D01*
X132521205Y-102804833D01*
X132511805Y-102839914D01*
X132501970Y-102856949D01*
X132479949Y-102878970D01*
X132462914Y-102888805D01*
X132427833Y-102898205D01*
X132417998Y-102899500D01*
X117516000Y-102899500D01*
X117489130Y-102888370D01*
X117478000Y-102861500D01*
X117478000Y-101799332D01*
X117489130Y-101772462D01*
X117516000Y-101761332D01*
X117542870Y-101772462D01*
X117811670Y-102041262D01*
X117832906Y-102050057D01*
X117832907Y-102050058D01*
X117832908Y-102050058D01*
X117862943Y-102062500D01*
X117862944Y-102062500D01*
X121820749Y-102062500D01*
X121853077Y-102049108D01*
X121872020Y-102041262D01*
X121911262Y-102002020D01*
X121932500Y-101950748D01*
X121932500Y-101798238D01*
X121933160Y-101791187D01*
X121934187Y-101785747D01*
X121936123Y-101781992D01*
X121943925Y-101734176D01*
X121944007Y-101733745D01*
X121951737Y-101721928D01*
X121959155Y-101709950D01*
X121959922Y-101709417D01*
X121959929Y-101709407D01*
X121959940Y-101709404D01*
X121960192Y-101709229D01*
X121964411Y-101706411D01*
X121964413Y-101706407D01*
X121966490Y-101704332D01*
X121993360Y-101693202D01*
X122020230Y-101704332D01*
X122021947Y-101706049D01*
X122074048Y-101740862D01*
X122074046Y-101740862D01*
X122117999Y-101749603D01*
X122118000Y-101749603D01*
X122118000Y-100850395D01*
X122268000Y-100850395D01*
X122268000Y-101749603D01*
X122311952Y-101740862D01*
X122364052Y-101706049D01*
X122365770Y-101704332D01*
X122392640Y-101693202D01*
X122419510Y-101704332D01*
X122419513Y-101704335D01*
X122421590Y-101706413D01*
X122462497Y-101733745D01*
X122473852Y-101741332D01*
X122519941Y-101750500D01*
X122666058Y-101750499D01*
X122712148Y-101741332D01*
X122759115Y-101709950D01*
X122764409Y-101706413D01*
X122766127Y-101704695D01*
X122792996Y-101693562D01*
X122819867Y-101704689D01*
X122819873Y-101704695D01*
X122821590Y-101706413D01*
X122862497Y-101733745D01*
X122873852Y-101741332D01*
X122919941Y-101750500D01*
X123066058Y-101750499D01*
X123112148Y-101741332D01*
X123164411Y-101706411D01*
X123164413Y-101706407D01*
X123166490Y-101704332D01*
X123193360Y-101693202D01*
X123220230Y-101704332D01*
X123221947Y-101706049D01*
X123274048Y-101740862D01*
X123274046Y-101740862D01*
X123317999Y-101749603D01*
X123318000Y-101749603D01*
X123318000Y-100850395D01*
X123468000Y-100850395D01*
X123468000Y-101749603D01*
X123511952Y-101740862D01*
X123564052Y-101706049D01*
X123565770Y-101704332D01*
X123592640Y-101693202D01*
X123619510Y-101704332D01*
X123619513Y-101704335D01*
X123621590Y-101706413D01*
X123662497Y-101733745D01*
X123673852Y-101741332D01*
X123719941Y-101750500D01*
X123866058Y-101750499D01*
X123912148Y-101741332D01*
X123959115Y-101709950D01*
X123964409Y-101706413D01*
X123966127Y-101704695D01*
X123992996Y-101693562D01*
X124019867Y-101704689D01*
X124019873Y-101704695D01*
X124021590Y-101706413D01*
X124062497Y-101733745D01*
X124073852Y-101741332D01*
X124119941Y-101750500D01*
X124266058Y-101750499D01*
X124312148Y-101741332D01*
X124364411Y-101706411D01*
X124364413Y-101706407D01*
X124366490Y-101704332D01*
X124393360Y-101693202D01*
X124420230Y-101704332D01*
X124421947Y-101706049D01*
X124474048Y-101740862D01*
X124474046Y-101740862D01*
X124517999Y-101749603D01*
X124518000Y-101749603D01*
X124518000Y-100850395D01*
X124668000Y-100850395D01*
X124668000Y-101749603D01*
X124711952Y-101740862D01*
X124764052Y-101706049D01*
X124765770Y-101704332D01*
X124792640Y-101693202D01*
X124819510Y-101704332D01*
X124819513Y-101704335D01*
X124821590Y-101706413D01*
X124862497Y-101733745D01*
X124873852Y-101741332D01*
X124919941Y-101750500D01*
X125066058Y-101750499D01*
X125112148Y-101741332D01*
X125159115Y-101709950D01*
X125164409Y-101706413D01*
X125166127Y-101704695D01*
X125192996Y-101693562D01*
X125219867Y-101704689D01*
X125219873Y-101704695D01*
X125221590Y-101706413D01*
X125262497Y-101733745D01*
X125273852Y-101741332D01*
X125319941Y-101750500D01*
X125466058Y-101750499D01*
X125512148Y-101741332D01*
X125564411Y-101706411D01*
X125564413Y-101706407D01*
X125566490Y-101704332D01*
X125593360Y-101693202D01*
X125620230Y-101704332D01*
X125621947Y-101706049D01*
X125674048Y-101740862D01*
X125674046Y-101740862D01*
X125717999Y-101749603D01*
X125718000Y-101749603D01*
X125718000Y-100850395D01*
X125868000Y-100850395D01*
X125868000Y-101749603D01*
X125911952Y-101740862D01*
X125964052Y-101706049D01*
X125965770Y-101704332D01*
X125992640Y-101693202D01*
X126019510Y-101704332D01*
X126019513Y-101704335D01*
X126021590Y-101706413D01*
X126062497Y-101733745D01*
X126073852Y-101741332D01*
X126119941Y-101750500D01*
X126266058Y-101750499D01*
X126312148Y-101741332D01*
X126364411Y-101706411D01*
X126364413Y-101706407D01*
X126366490Y-101704332D01*
X126393360Y-101693202D01*
X126420230Y-101704332D01*
X126421947Y-101706049D01*
X126474048Y-101740862D01*
X126474046Y-101740862D01*
X126517999Y-101749603D01*
X126518000Y-101749603D01*
X126668000Y-101749603D01*
X126711952Y-101740862D01*
X126764052Y-101706049D01*
X126766130Y-101703972D01*
X126793000Y-101692842D01*
X126819870Y-101703972D01*
X126821947Y-101706049D01*
X126874048Y-101740862D01*
X126874046Y-101740862D01*
X126917999Y-101749603D01*
X126918000Y-101749603D01*
X126918000Y-101375000D01*
X126668000Y-101375000D01*
X126668000Y-101749603D01*
X126518000Y-101749603D01*
X126518000Y-100850395D01*
X126668000Y-100850395D01*
X126668000Y-101225000D01*
X126918000Y-101225000D01*
X126918000Y-100850395D01*
X127068000Y-100850395D01*
X127068000Y-101749603D01*
X127111952Y-101740862D01*
X127164052Y-101706049D01*
X127165770Y-101704332D01*
X127192640Y-101693202D01*
X127219510Y-101704332D01*
X127219513Y-101704335D01*
X127221590Y-101706413D01*
X127262497Y-101733745D01*
X127273852Y-101741332D01*
X127319941Y-101750500D01*
X127466058Y-101750499D01*
X127512148Y-101741332D01*
X127564411Y-101706411D01*
X127564413Y-101706407D01*
X127566490Y-101704332D01*
X127593360Y-101693202D01*
X127620230Y-101704332D01*
X127621947Y-101706049D01*
X127674048Y-101740862D01*
X127674046Y-101740862D01*
X127717999Y-101749603D01*
X127718000Y-101749603D01*
X127868000Y-101749603D01*
X127911952Y-101740862D01*
X127964052Y-101706049D01*
X127966130Y-101703972D01*
X127993000Y-101692842D01*
X128019870Y-101703972D01*
X128021947Y-101706049D01*
X128074048Y-101740862D01*
X128074046Y-101740862D01*
X128117999Y-101749603D01*
X128118000Y-101749603D01*
X128268000Y-101749603D01*
X128311952Y-101740862D01*
X128364050Y-101706050D01*
X128398862Y-101653952D01*
X128407999Y-101608013D01*
X128408000Y-101608012D01*
X128408000Y-101375000D01*
X128268000Y-101375000D01*
X128268000Y-101749603D01*
X128118000Y-101749603D01*
X128118000Y-101375000D01*
X127868000Y-101375000D01*
X127868000Y-101749603D01*
X127718000Y-101749603D01*
X127718000Y-101338000D01*
X127729130Y-101311130D01*
X127756000Y-101300000D01*
X127793000Y-101300000D01*
X127793000Y-101263000D01*
X127804130Y-101236130D01*
X127831000Y-101225000D01*
X128408000Y-101225000D01*
X128408000Y-100991987D01*
X128407999Y-100991986D01*
X128398836Y-100945913D01*
X128404510Y-100917388D01*
X128428693Y-100901230D01*
X128436106Y-100900500D01*
X129597088Y-100900500D01*
X129603196Y-100900994D01*
X129608538Y-100901863D01*
X129614299Y-100904607D01*
X129670919Y-100912022D01*
X129671489Y-100912115D01*
X129683385Y-100919476D01*
X129695513Y-100926467D01*
X129696176Y-100927391D01*
X129696220Y-100927419D01*
X129696231Y-100927469D01*
X129696975Y-100928506D01*
X129697984Y-100930016D01*
X129751901Y-100966042D01*
X129794854Y-100974586D01*
X129819037Y-100990744D01*
X129819611Y-100991629D01*
X130039059Y-101340649D01*
X130044886Y-101360415D01*
X130051814Y-101931907D01*
X130049347Y-101945845D01*
X129986506Y-102111509D01*
X129972089Y-102129627D01*
X129933449Y-102155447D01*
X129933445Y-102155450D01*
X129889132Y-102221770D01*
X129877500Y-102280252D01*
X129877500Y-102519747D01*
X129889132Y-102578229D01*
X129889132Y-102578230D01*
X129889133Y-102578231D01*
X129933448Y-102644552D01*
X129999769Y-102688867D01*
X130058252Y-102700500D01*
X130058253Y-102700500D01*
X130357747Y-102700500D01*
X130357748Y-102700500D01*
X130416231Y-102688867D01*
X130482552Y-102644552D01*
X130496705Y-102623369D01*
X130520887Y-102607213D01*
X130549412Y-102612887D01*
X130559896Y-102623372D01*
X130573807Y-102644192D01*
X130573808Y-102644193D01*
X130639963Y-102688395D01*
X130639964Y-102688396D01*
X130698302Y-102699999D01*
X130698303Y-102700000D01*
X130773000Y-102700000D01*
X130923000Y-102700000D01*
X130997697Y-102700000D01*
X130997697Y-102699999D01*
X131056035Y-102688396D01*
X131056036Y-102688395D01*
X131122191Y-102644193D01*
X131122193Y-102644191D01*
X131166395Y-102578036D01*
X131166396Y-102578035D01*
X131177999Y-102519697D01*
X131178000Y-102519696D01*
X131178000Y-102475000D01*
X130923000Y-102475000D01*
X130923000Y-102700000D01*
X130773000Y-102700000D01*
X130773000Y-102325000D01*
X130923000Y-102325000D01*
X131178000Y-102325000D01*
X131178000Y-102280303D01*
X131177999Y-102280302D01*
X131166396Y-102221964D01*
X131166395Y-102221963D01*
X131122193Y-102155808D01*
X131122191Y-102155806D01*
X131056036Y-102111604D01*
X131056035Y-102111603D01*
X130997697Y-102100000D01*
X130923000Y-102100000D01*
X130923000Y-102325000D01*
X130773000Y-102325000D01*
X130773000Y-102100000D01*
X130698302Y-102100000D01*
X130639964Y-102111603D01*
X130639963Y-102111604D01*
X130573808Y-102155806D01*
X130559896Y-102176628D01*
X130535713Y-102192786D01*
X130507188Y-102187112D01*
X130496705Y-102176628D01*
X130482553Y-102155449D01*
X130482550Y-102155446D01*
X130437184Y-102125132D01*
X130423103Y-102107872D01*
X130419897Y-102100000D01*
X130355595Y-101942132D01*
X130352792Y-101928265D01*
X130345864Y-101356763D01*
X130351210Y-101336866D01*
X130556362Y-100992323D01*
X130579671Y-100974932D01*
X130581588Y-100974498D01*
X130624099Y-100966042D01*
X130678016Y-100930016D01*
X130714042Y-100876099D01*
X130723500Y-100828552D01*
X130723500Y-100828507D01*
X131533001Y-100828507D01*
X131542427Y-100875903D01*
X131578344Y-100929655D01*
X131632097Y-100965572D01*
X131632095Y-100965572D01*
X131679493Y-100974999D01*
X131993000Y-100974999D01*
X131993000Y-100825000D01*
X131533001Y-100825000D01*
X131533001Y-100828507D01*
X130723500Y-100828507D01*
X130723500Y-100671493D01*
X131533000Y-100671493D01*
X131533000Y-100675000D01*
X131993000Y-100675000D01*
X131993000Y-100522356D01*
X131983739Y-100499999D01*
X131993000Y-100477641D01*
X131993000Y-100325000D01*
X131533001Y-100325000D01*
X131533001Y-100328507D01*
X131542427Y-100375903D01*
X131578344Y-100429655D01*
X131635207Y-100467651D01*
X131634408Y-100468845D01*
X131651022Y-100485464D01*
X131651017Y-100514548D01*
X131634409Y-100531155D01*
X131635207Y-100532349D01*
X131578344Y-100570344D01*
X131542427Y-100624096D01*
X131533000Y-100671493D01*
X130723500Y-100671493D01*
X130723500Y-100671448D01*
X130714042Y-100623901D01*
X130713047Y-100622412D01*
X130678016Y-100569983D01*
X130620988Y-100531879D01*
X130621894Y-100530522D01*
X130605638Y-100514252D01*
X130605649Y-100485168D01*
X130621748Y-100469081D01*
X130620793Y-100467651D01*
X130677655Y-100429655D01*
X130713572Y-100375903D01*
X130722999Y-100328506D01*
X130723000Y-100328505D01*
X130723000Y-100325000D01*
X129653001Y-100325000D01*
X129653001Y-100328507D01*
X129662427Y-100375903D01*
X129698344Y-100429655D01*
X129755207Y-100467651D01*
X129754250Y-100469082D01*
X129770349Y-100485167D01*
X129770362Y-100514251D01*
X129754107Y-100530523D01*
X129755013Y-100531879D01*
X129697984Y-100569983D01*
X129697980Y-100569988D01*
X129696973Y-100571495D01*
X129696193Y-100572015D01*
X129695969Y-100572924D01*
X129686249Y-100578657D01*
X129672787Y-100587648D01*
X129671067Y-100587949D01*
X129670642Y-100588013D01*
X129614299Y-100595393D01*
X129598924Y-100598867D01*
X129597571Y-100599072D01*
X129596995Y-100598929D01*
X129591885Y-100599500D01*
X127363063Y-100599500D01*
X127307749Y-100622412D01*
X127265412Y-100664749D01*
X127242500Y-100720062D01*
X127242500Y-100818550D01*
X127241890Y-100825332D01*
X127240960Y-100830455D01*
X127238496Y-100835536D01*
X127233526Y-100871438D01*
X127233384Y-100872225D01*
X127231056Y-100875838D01*
X127222868Y-100892309D01*
X127219514Y-100895664D01*
X127217843Y-100896356D01*
X127217637Y-100896677D01*
X127216448Y-100896934D01*
X127192646Y-100906798D01*
X127165774Y-100895672D01*
X127164052Y-100893950D01*
X127111951Y-100859137D01*
X127111953Y-100859137D01*
X127068000Y-100850395D01*
X126918000Y-100850395D01*
X126874047Y-100859137D01*
X126821947Y-100893950D01*
X126819870Y-100896028D01*
X126793000Y-100907158D01*
X126766130Y-100896028D01*
X126764052Y-100893950D01*
X126711951Y-100859137D01*
X126711953Y-100859137D01*
X126668000Y-100850395D01*
X126518000Y-100850395D01*
X126517999Y-100850395D01*
X126474047Y-100859137D01*
X126421947Y-100893950D01*
X126420230Y-100895668D01*
X126393360Y-100906798D01*
X126366490Y-100895668D01*
X126364412Y-100893590D01*
X126364409Y-100893588D01*
X126337845Y-100875838D01*
X126312147Y-100858667D01*
X126281351Y-100852541D01*
X126266059Y-100849500D01*
X126266057Y-100849500D01*
X126119943Y-100849500D01*
X126119942Y-100849501D01*
X126073852Y-100858667D01*
X126073851Y-100858668D01*
X126021587Y-100893589D01*
X126019506Y-100895670D01*
X125992635Y-100906797D01*
X125965769Y-100895667D01*
X125964052Y-100893950D01*
X125911951Y-100859137D01*
X125911953Y-100859137D01*
X125868000Y-100850395D01*
X125718000Y-100850395D01*
X125674047Y-100859137D01*
X125621947Y-100893950D01*
X125620230Y-100895668D01*
X125593360Y-100906798D01*
X125566490Y-100895668D01*
X125564412Y-100893590D01*
X125564409Y-100893588D01*
X125537845Y-100875838D01*
X125512147Y-100858667D01*
X125481351Y-100852541D01*
X125466059Y-100849500D01*
X125466057Y-100849500D01*
X125319943Y-100849500D01*
X125319942Y-100849501D01*
X125273852Y-100858667D01*
X125273851Y-100858668D01*
X125221588Y-100893588D01*
X125219870Y-100895307D01*
X125193000Y-100906437D01*
X125166130Y-100895307D01*
X125164411Y-100893588D01*
X125112148Y-100858668D01*
X125112143Y-100858667D01*
X125066059Y-100849500D01*
X125066057Y-100849500D01*
X124919943Y-100849500D01*
X124919942Y-100849501D01*
X124873852Y-100858667D01*
X124873851Y-100858668D01*
X124821587Y-100893589D01*
X124819506Y-100895670D01*
X124792635Y-100906797D01*
X124765769Y-100895667D01*
X124764052Y-100893950D01*
X124711951Y-100859137D01*
X124711953Y-100859137D01*
X124668000Y-100850395D01*
X124518000Y-100850395D01*
X124517999Y-100850395D01*
X124474047Y-100859137D01*
X124421947Y-100893950D01*
X124420230Y-100895668D01*
X124393360Y-100906798D01*
X124366490Y-100895668D01*
X124364412Y-100893590D01*
X124364409Y-100893588D01*
X124337845Y-100875838D01*
X124312147Y-100858667D01*
X124281351Y-100852541D01*
X124266059Y-100849500D01*
X124266057Y-100849500D01*
X124119943Y-100849500D01*
X124119942Y-100849501D01*
X124073852Y-100858667D01*
X124073851Y-100858668D01*
X124021588Y-100893588D01*
X124019870Y-100895307D01*
X123993000Y-100906437D01*
X123966130Y-100895307D01*
X123964411Y-100893588D01*
X123912148Y-100858668D01*
X123912143Y-100858667D01*
X123866059Y-100849500D01*
X123866057Y-100849500D01*
X123719943Y-100849500D01*
X123719942Y-100849501D01*
X123673852Y-100858667D01*
X123673851Y-100858668D01*
X123621587Y-100893589D01*
X123619506Y-100895670D01*
X123592635Y-100906797D01*
X123565769Y-100895667D01*
X123564052Y-100893950D01*
X123511951Y-100859137D01*
X123511953Y-100859137D01*
X123468000Y-100850395D01*
X123318000Y-100850395D01*
X123317999Y-100850395D01*
X123274047Y-100859137D01*
X123221947Y-100893950D01*
X123220230Y-100895668D01*
X123193360Y-100906798D01*
X123166490Y-100895668D01*
X123164412Y-100893590D01*
X123164409Y-100893588D01*
X123137845Y-100875838D01*
X123112147Y-100858667D01*
X123081351Y-100852541D01*
X123066059Y-100849500D01*
X123066057Y-100849500D01*
X122919943Y-100849500D01*
X122919942Y-100849501D01*
X122873852Y-100858667D01*
X122873851Y-100858668D01*
X122821588Y-100893588D01*
X122819870Y-100895307D01*
X122793000Y-100906437D01*
X122766130Y-100895307D01*
X122764411Y-100893588D01*
X122712148Y-100858668D01*
X122712143Y-100858667D01*
X122666059Y-100849500D01*
X122666057Y-100849500D01*
X122519943Y-100849500D01*
X122519942Y-100849501D01*
X122473852Y-100858667D01*
X122473851Y-100858668D01*
X122421587Y-100893589D01*
X122419506Y-100895670D01*
X122392635Y-100906797D01*
X122365769Y-100895667D01*
X122364052Y-100893950D01*
X122311951Y-100859137D01*
X122311953Y-100859137D01*
X122268000Y-100850395D01*
X122118000Y-100850395D01*
X122117999Y-100850395D01*
X122074047Y-100859137D01*
X122021947Y-100893950D01*
X122020230Y-100895668D01*
X121993360Y-100906798D01*
X121966490Y-100895668D01*
X121964412Y-100893590D01*
X121964409Y-100893588D01*
X121937845Y-100875838D01*
X121912147Y-100858667D01*
X121881351Y-100852541D01*
X121866059Y-100849500D01*
X121866057Y-100849500D01*
X121719943Y-100849500D01*
X121719942Y-100849501D01*
X121673852Y-100858667D01*
X121673851Y-100858668D01*
X121621588Y-100893588D01*
X121619870Y-100895307D01*
X121593000Y-100906437D01*
X121566130Y-100895307D01*
X121564411Y-100893588D01*
X121512148Y-100858668D01*
X121512143Y-100858667D01*
X121466059Y-100849500D01*
X121466057Y-100849500D01*
X121319943Y-100849500D01*
X121319942Y-100849501D01*
X121273852Y-100858667D01*
X121273851Y-100858668D01*
X121221587Y-100893589D01*
X121219506Y-100895670D01*
X121192635Y-100906797D01*
X121165769Y-100895667D01*
X121164052Y-100893950D01*
X121111951Y-100859137D01*
X121111953Y-100859137D01*
X121068000Y-100850395D01*
X121068000Y-101262000D01*
X121056870Y-101288870D01*
X121030000Y-101300000D01*
X120956000Y-101300000D01*
X120929130Y-101288870D01*
X120918000Y-101262000D01*
X120918000Y-100850394D01*
X120912391Y-100845791D01*
X120898683Y-100820141D01*
X120898500Y-100816418D01*
X120898500Y-99183580D01*
X120909630Y-99156710D01*
X120912392Y-99154206D01*
X120918000Y-99149603D01*
X120918000Y-98738000D01*
X120929130Y-98711130D01*
X120956000Y-98700000D01*
X121030000Y-98700000D01*
X121056870Y-98711130D01*
X121068000Y-98738000D01*
X121068000Y-99149603D01*
X121111952Y-99140862D01*
X121164052Y-99106049D01*
X121165770Y-99104332D01*
X121192640Y-99093202D01*
X121219510Y-99104332D01*
X121219513Y-99104335D01*
X121221590Y-99106413D01*
X121263427Y-99134366D01*
X121273852Y-99141332D01*
X121319941Y-99150500D01*
X121466058Y-99150499D01*
X121512148Y-99141332D01*
X121543561Y-99120342D01*
X121564409Y-99106413D01*
X121566127Y-99104695D01*
X121592996Y-99093562D01*
X121619867Y-99104689D01*
X121619873Y-99104695D01*
X121621590Y-99106413D01*
X121663427Y-99134366D01*
X121673852Y-99141332D01*
X121719941Y-99150500D01*
X121866058Y-99150499D01*
X121912148Y-99141332D01*
X121964411Y-99106411D01*
X121964413Y-99106407D01*
X121966490Y-99104332D01*
X121993360Y-99093202D01*
X122020230Y-99104332D01*
X122021947Y-99106049D01*
X122074048Y-99140862D01*
X122074046Y-99140862D01*
X122117999Y-99149603D01*
X122118000Y-99149603D01*
X122118000Y-98738000D01*
X122129130Y-98711130D01*
X122156000Y-98700000D01*
X122230000Y-98700000D01*
X122256870Y-98711130D01*
X122268000Y-98738000D01*
X122268000Y-99149603D01*
X122311952Y-99140862D01*
X122364052Y-99106049D01*
X122365770Y-99104332D01*
X122392640Y-99093202D01*
X122419510Y-99104332D01*
X122419513Y-99104335D01*
X122421590Y-99106413D01*
X122463427Y-99134366D01*
X122473852Y-99141332D01*
X122519941Y-99150500D01*
X122666058Y-99150499D01*
X122712148Y-99141332D01*
X122743561Y-99120342D01*
X122764409Y-99106413D01*
X122766127Y-99104695D01*
X122792996Y-99093562D01*
X122819867Y-99104689D01*
X122819873Y-99104695D01*
X122821590Y-99106413D01*
X122863427Y-99134366D01*
X122873852Y-99141332D01*
X122919941Y-99150500D01*
X123066058Y-99150499D01*
X123112148Y-99141332D01*
X123164411Y-99106411D01*
X123164413Y-99106407D01*
X123166490Y-99104332D01*
X123193360Y-99093202D01*
X123220230Y-99104332D01*
X123221947Y-99106049D01*
X123274048Y-99140862D01*
X123274046Y-99140862D01*
X123317999Y-99149603D01*
X123318000Y-99149603D01*
X123318000Y-98738000D01*
X123329130Y-98711130D01*
X123356000Y-98700000D01*
X123430000Y-98700000D01*
X123456870Y-98711130D01*
X123468000Y-98738000D01*
X123468000Y-99149603D01*
X123511952Y-99140862D01*
X123564052Y-99106049D01*
X123565770Y-99104332D01*
X123592640Y-99093202D01*
X123619510Y-99104332D01*
X123619513Y-99104335D01*
X123621590Y-99106413D01*
X123663427Y-99134366D01*
X123673852Y-99141332D01*
X123719941Y-99150500D01*
X123866058Y-99150499D01*
X123912148Y-99141332D01*
X123943561Y-99120342D01*
X123964409Y-99106413D01*
X123966127Y-99104695D01*
X123992996Y-99093562D01*
X124019867Y-99104689D01*
X124019873Y-99104695D01*
X124021590Y-99106413D01*
X124063427Y-99134366D01*
X124073852Y-99141332D01*
X124119941Y-99150500D01*
X124266058Y-99150499D01*
X124312148Y-99141332D01*
X124364411Y-99106411D01*
X124364413Y-99106407D01*
X124366490Y-99104332D01*
X124393360Y-99093202D01*
X124420230Y-99104332D01*
X124421947Y-99106049D01*
X124474048Y-99140862D01*
X124474046Y-99140862D01*
X124517999Y-99149603D01*
X124518000Y-99149603D01*
X124518000Y-98250395D01*
X124517999Y-98250395D01*
X124474047Y-98259137D01*
X124421945Y-98293951D01*
X124420227Y-98295670D01*
X124408604Y-98300482D01*
X124397588Y-98306561D01*
X124395604Y-98305866D01*
X124393356Y-98306797D01*
X124369646Y-98298490D01*
X124365442Y-98295133D01*
X124364411Y-98293589D01*
X124358890Y-98289900D01*
X124357633Y-98288896D01*
X124351327Y-98277466D01*
X124344078Y-98266619D01*
X124343844Y-98265326D01*
X124336123Y-98218008D01*
X124333571Y-98207488D01*
X124332500Y-98198529D01*
X124332500Y-98098500D01*
X124343630Y-98071630D01*
X124370500Y-98060500D01*
X124815500Y-98060500D01*
X124842370Y-98071630D01*
X124853500Y-98098500D01*
X124853500Y-98201762D01*
X124852840Y-98208815D01*
X124851813Y-98214251D01*
X124849877Y-98218008D01*
X124842084Y-98265756D01*
X124841990Y-98266257D01*
X124834278Y-98278043D01*
X124826841Y-98290052D01*
X124826071Y-98290585D01*
X124826066Y-98290594D01*
X124826055Y-98290596D01*
X124825766Y-98290797D01*
X124821586Y-98293590D01*
X124819503Y-98295673D01*
X124792631Y-98306797D01*
X124765769Y-98295667D01*
X124764052Y-98293950D01*
X124711951Y-98259137D01*
X124711953Y-98259137D01*
X124668000Y-98250395D01*
X124668000Y-99149603D01*
X124711952Y-99140862D01*
X124764052Y-99106049D01*
X124765770Y-99104332D01*
X124792640Y-99093202D01*
X124819510Y-99104332D01*
X124819513Y-99104335D01*
X124821590Y-99106413D01*
X124863427Y-99134366D01*
X124873852Y-99141332D01*
X124919941Y-99150500D01*
X125066058Y-99150499D01*
X125112148Y-99141332D01*
X125143561Y-99120342D01*
X125164409Y-99106413D01*
X125166127Y-99104695D01*
X125192996Y-99093562D01*
X125219867Y-99104689D01*
X125219873Y-99104695D01*
X125221590Y-99106413D01*
X125263427Y-99134366D01*
X125273852Y-99141332D01*
X125319941Y-99150500D01*
X125466058Y-99150499D01*
X125512148Y-99141332D01*
X125564411Y-99106411D01*
X125564413Y-99106407D01*
X125566490Y-99104332D01*
X125593360Y-99093202D01*
X125620230Y-99104332D01*
X125621947Y-99106049D01*
X125674048Y-99140862D01*
X125674046Y-99140862D01*
X125717999Y-99149603D01*
X125718000Y-99149603D01*
X125718000Y-98250395D01*
X125868000Y-98250395D01*
X125868000Y-99149603D01*
X125911952Y-99140862D01*
X125964052Y-99106049D01*
X125965770Y-99104332D01*
X125992640Y-99093202D01*
X126019510Y-99104332D01*
X126019513Y-99104335D01*
X126021590Y-99106413D01*
X126063427Y-99134366D01*
X126073852Y-99141332D01*
X126119941Y-99150500D01*
X126266058Y-99150499D01*
X126312148Y-99141332D01*
X126364411Y-99106411D01*
X126364413Y-99106407D01*
X126366490Y-99104332D01*
X126393360Y-99093202D01*
X126420230Y-99104332D01*
X126421947Y-99106049D01*
X126474048Y-99140862D01*
X126474046Y-99140862D01*
X126517999Y-99149603D01*
X126518000Y-99149603D01*
X126518000Y-98250395D01*
X126668000Y-98250395D01*
X126668000Y-99149603D01*
X126711952Y-99140862D01*
X126764052Y-99106049D01*
X126765770Y-99104332D01*
X126792640Y-99093202D01*
X126819510Y-99104332D01*
X126820801Y-99105623D01*
X126831601Y-99127496D01*
X126838415Y-99178868D01*
X126841559Y-99192728D01*
X126842500Y-99201133D01*
X126842500Y-99779937D01*
X126865412Y-99835250D01*
X126907749Y-99877587D01*
X126963063Y-99900500D01*
X126963064Y-99900500D01*
X127022936Y-99900500D01*
X129597088Y-99900500D01*
X129603196Y-99900994D01*
X129608538Y-99901863D01*
X129614299Y-99904607D01*
X129670919Y-99912022D01*
X129671489Y-99912115D01*
X129683385Y-99919476D01*
X129695513Y-99926467D01*
X129696176Y-99927391D01*
X129696220Y-99927419D01*
X129696231Y-99927469D01*
X129696975Y-99928506D01*
X129697984Y-99930016D01*
X129751901Y-99966042D01*
X129755013Y-99968121D01*
X129754104Y-99969481D01*
X129770356Y-99985734D01*
X129770355Y-100014818D01*
X129754254Y-100030923D01*
X129755207Y-100032349D01*
X129698344Y-100070344D01*
X129662427Y-100124096D01*
X129653000Y-100171493D01*
X129653000Y-100175000D01*
X130722999Y-100175000D01*
X130722999Y-100171496D01*
X130722998Y-100171493D01*
X131533000Y-100171493D01*
X131533000Y-100175000D01*
X131993000Y-100175000D01*
X131993000Y-100022356D01*
X131983739Y-99999999D01*
X131993000Y-99977641D01*
X131993000Y-99825000D01*
X131533001Y-99825000D01*
X131533001Y-99828507D01*
X131542427Y-99875903D01*
X131578344Y-99929655D01*
X131635207Y-99967651D01*
X131634408Y-99968845D01*
X131651022Y-99985464D01*
X131651017Y-100014548D01*
X131634409Y-100031155D01*
X131635207Y-100032349D01*
X131578344Y-100070344D01*
X131542427Y-100124096D01*
X131533000Y-100171493D01*
X130722998Y-100171493D01*
X130722998Y-100171491D01*
X130713572Y-100124096D01*
X130677655Y-100070344D01*
X130620793Y-100032349D01*
X130621747Y-100030920D01*
X130605644Y-100014817D01*
X130605644Y-99985733D01*
X130621896Y-99969480D01*
X130620988Y-99968121D01*
X130678016Y-99930016D01*
X130685059Y-99919476D01*
X130714042Y-99876099D01*
X130723500Y-99828552D01*
X130723500Y-99671493D01*
X131533000Y-99671493D01*
X131533000Y-99675000D01*
X131993000Y-99675000D01*
X131993000Y-99522356D01*
X131983739Y-99499999D01*
X131993000Y-99477641D01*
X131993000Y-99325000D01*
X131533001Y-99325000D01*
X131533001Y-99328507D01*
X131542427Y-99375903D01*
X131578344Y-99429655D01*
X131635207Y-99467651D01*
X131634408Y-99468845D01*
X131651022Y-99485464D01*
X131651017Y-99514548D01*
X131634409Y-99531155D01*
X131635207Y-99532349D01*
X131578344Y-99570344D01*
X131542427Y-99624096D01*
X131533000Y-99671493D01*
X130723500Y-99671493D01*
X130723500Y-99671448D01*
X130714042Y-99623901D01*
X130697738Y-99599500D01*
X130678016Y-99569983D01*
X130620988Y-99531879D01*
X130622053Y-99530283D01*
X130606313Y-99514556D01*
X130606302Y-99485472D01*
X130622050Y-99469710D01*
X130620988Y-99468121D01*
X130678016Y-99430016D01*
X130685059Y-99419476D01*
X130714042Y-99376099D01*
X130723500Y-99328552D01*
X130723500Y-99171493D01*
X131533000Y-99171493D01*
X131533000Y-99175000D01*
X131993000Y-99175000D01*
X131993000Y-99025000D01*
X131679495Y-99025000D01*
X131679492Y-99025001D01*
X131632096Y-99034427D01*
X131578344Y-99070344D01*
X131542427Y-99124096D01*
X131533000Y-99171493D01*
X130723500Y-99171493D01*
X130723500Y-99171448D01*
X130714042Y-99123901D01*
X130714041Y-99123899D01*
X130678016Y-99069983D01*
X130624100Y-99033958D01*
X130624098Y-99033957D01*
X130576552Y-99024500D01*
X129799448Y-99024500D01*
X129751902Y-99033957D01*
X129697984Y-99069983D01*
X129697980Y-99069988D01*
X129696973Y-99071495D01*
X129696193Y-99072015D01*
X129695969Y-99072924D01*
X129686249Y-99078657D01*
X129672787Y-99087648D01*
X129671067Y-99087949D01*
X129670642Y-99088013D01*
X129614299Y-99095393D01*
X129598924Y-99098867D01*
X129597571Y-99099072D01*
X129596995Y-99098929D01*
X129591885Y-99099500D01*
X128436106Y-99099500D01*
X128409236Y-99088370D01*
X128398106Y-99061500D01*
X128398836Y-99054087D01*
X128407999Y-99008013D01*
X128408000Y-99008012D01*
X128408000Y-98775000D01*
X128231000Y-98775000D01*
X128204130Y-98763870D01*
X128193000Y-98737000D01*
X128193000Y-98700000D01*
X128156000Y-98700000D01*
X128129130Y-98688870D01*
X128118000Y-98662000D01*
X128118000Y-98625000D01*
X128268000Y-98625000D01*
X128408000Y-98625000D01*
X128408000Y-98391987D01*
X128407999Y-98391986D01*
X128398862Y-98346047D01*
X128364050Y-98293949D01*
X128311951Y-98259137D01*
X128311953Y-98259137D01*
X128268000Y-98250395D01*
X128268000Y-98625000D01*
X128118000Y-98625000D01*
X128118000Y-98250395D01*
X128117999Y-98250395D01*
X128074047Y-98259137D01*
X128021947Y-98293950D01*
X128020230Y-98295668D01*
X127993360Y-98306798D01*
X127966490Y-98295668D01*
X127964412Y-98293590D01*
X127964409Y-98293588D01*
X127923506Y-98266257D01*
X127912147Y-98258667D01*
X127881351Y-98252541D01*
X127866059Y-98249500D01*
X127866057Y-98249500D01*
X127719943Y-98249500D01*
X127719942Y-98249501D01*
X127673852Y-98258667D01*
X127673851Y-98258668D01*
X127621588Y-98293588D01*
X127619870Y-98295307D01*
X127593000Y-98306437D01*
X127566130Y-98295307D01*
X127564411Y-98293588D01*
X127512148Y-98258668D01*
X127512143Y-98258667D01*
X127466059Y-98249500D01*
X127466057Y-98249500D01*
X127319943Y-98249500D01*
X127319942Y-98249501D01*
X127273852Y-98258667D01*
X127273851Y-98258668D01*
X127221588Y-98293588D01*
X127219870Y-98295307D01*
X127193000Y-98306437D01*
X127166130Y-98295307D01*
X127164411Y-98293588D01*
X127112148Y-98258668D01*
X127112143Y-98258667D01*
X127066059Y-98249500D01*
X127066057Y-98249500D01*
X126919943Y-98249500D01*
X126919942Y-98249501D01*
X126873852Y-98258667D01*
X126873851Y-98258668D01*
X126821587Y-98293589D01*
X126819506Y-98295670D01*
X126792635Y-98306797D01*
X126765769Y-98295667D01*
X126764052Y-98293950D01*
X126711951Y-98259137D01*
X126711953Y-98259137D01*
X126668000Y-98250395D01*
X126518000Y-98250395D01*
X126474047Y-98259137D01*
X126421947Y-98293950D01*
X126420230Y-98295668D01*
X126393360Y-98306798D01*
X126366490Y-98295668D01*
X126364412Y-98293590D01*
X126364409Y-98293588D01*
X126323506Y-98266257D01*
X126312147Y-98258667D01*
X126281351Y-98252541D01*
X126266059Y-98249500D01*
X126266057Y-98249500D01*
X126119943Y-98249500D01*
X126119942Y-98249501D01*
X126073852Y-98258667D01*
X126073851Y-98258668D01*
X126021587Y-98293589D01*
X126019506Y-98295670D01*
X125992635Y-98306797D01*
X125965769Y-98295667D01*
X125964052Y-98293950D01*
X125911951Y-98259137D01*
X125911953Y-98259137D01*
X125868000Y-98250395D01*
X125718000Y-98250395D01*
X125717999Y-98250395D01*
X125674047Y-98259137D01*
X125621945Y-98293951D01*
X125620227Y-98295670D01*
X125608604Y-98300482D01*
X125597588Y-98306561D01*
X125595604Y-98305866D01*
X125593356Y-98306797D01*
X125569646Y-98298490D01*
X125565442Y-98295133D01*
X125564411Y-98293589D01*
X125558890Y-98289900D01*
X125557633Y-98288896D01*
X125551327Y-98277466D01*
X125544078Y-98266619D01*
X125543844Y-98265326D01*
X125536123Y-98218008D01*
X125533571Y-98207488D01*
X125532500Y-98198529D01*
X125532500Y-97737250D01*
X125511263Y-97685982D01*
X125511261Y-97685979D01*
X125472020Y-97646738D01*
X125472017Y-97646736D01*
X125420749Y-97625500D01*
X125420748Y-97625500D01*
X117812748Y-97625500D01*
X117524943Y-97625500D01*
X117524940Y-97625500D01*
X117523411Y-97625804D01*
X117521883Y-97625500D01*
X117521200Y-97625500D01*
X117521200Y-97625364D01*
X117494886Y-97620129D01*
X117478730Y-97595945D01*
X117478000Y-97588534D01*
X117478000Y-97138500D01*
X117489130Y-97111630D01*
X117516000Y-97100500D01*
X132375405Y-97100500D01*
X132417998Y-97100500D01*
X132427832Y-97101795D01*
G37*
G04 #@! TD.AperFunction*
G04 #@! TD*
G04 #@! TA.AperFunction,Conductor*
G04 #@! TO.N,VBUS*
G36*
X120753737Y-99003738D02*
G01*
X120763436Y-99004933D01*
X120766692Y-99009104D01*
X120771582Y-99011130D01*
X120778763Y-99024566D01*
X120781334Y-99027859D01*
X120781707Y-99029208D01*
X120786668Y-99054148D01*
X120789991Y-99059121D01*
X120791622Y-99065010D01*
X120793000Y-99075151D01*
X120793000Y-100924849D01*
X120787724Y-100942242D01*
X120788099Y-100942398D01*
X120786667Y-100945851D01*
X120781981Y-100969414D01*
X120765822Y-100993596D01*
X120744711Y-101000000D01*
X118031000Y-101000000D01*
X118004130Y-100988870D01*
X117993000Y-100962000D01*
X117993000Y-99038000D01*
X118004130Y-99011130D01*
X118031000Y-99000000D01*
X120744712Y-99000000D01*
X120753737Y-99003738D01*
G37*
G04 #@! TD.AperFunction*
G04 #@! TD*
M02*
