M48
; DRILL file {KiCad 9.0.2+dfsg-1} date 2026-10-04T10:33:51-0400
; FORMAT={-:-/ absolute / metric / decimal}
; #@! TF.CreationDate,2026-10-04T10:33:51-04:00
; #@! TF.GenerationSoftware,Kicad,Pcbnew,9.0.2+dfsg-1
; #@! TF.FileFunction,Plated,1,2,PTH
FMAT,2
METRIC
; #@! TA.AperFunction,Plated,PTH,ViaDrill
T1C0.300
; #@! TA.AperFunction,Plated,PTH,ComponentDrill
T2C0.750
; #@! TA.AperFunction,Plated,PTH,ComponentDrill
T3C2.300
%
G90
G05
T1
X104.881Y-100.282
X107.65Y-103.35
X108.25Y-103.35
X108.55Y-99.65
X108.55Y-100.35
X118.478Y-99.65
X118.478Y-100.35
X122.028Y-100.0
X123.028Y-100.0
X124.228Y-100.0
X125.428Y-100.0
X126.628Y-100.0
X127.328Y-100.0
X128.828Y-102.4
X129.028Y-97.6
X131.185Y-98.013
X132.463Y-102.45
X132.903Y-98.55
X132.903Y-101.45
T2
X96.0Y-99.2
X96.5Y-100.8
X98.0Y-99.2
X99.0Y-100.8
X100.0Y-99.2
X101.0Y-100.8
X102.0Y-99.2
X103.5Y-100.8
X104.0Y-99.2
T3
X93.425Y-100.65
X106.575Y-100.65
M30
