M48
; DRILL file {KiCad 9.0.2+dfsg-1} date 2026-10-04T09:33:16-0400
; FORMAT={-:-/ absolute / metric / decimal}
; #@! TF.CreationDate,2026-10-04T09:33:16-04:00
; #@! TF.GenerationSoftware,Kicad,Pcbnew,9.0.2+dfsg-1
; #@! TF.FileFunction,Plated,1,2,PTH
FMAT,2
METRIC
; #@! TA.AperFunction,Plated,PTH,ViaDrill
T1C0.300
; #@! TA.AperFunction,Plated,PTH,ComponentDrill
T2C0.750
; #@! TA.AperFunction,Plated,PTH,ComponentDrill
T3C2.300
%
G90
G05
T1
X104.934Y-100.489
X108.55Y-99.65
X108.55Y-100.35
X118.178Y-99.65
X118.178Y-100.35
X121.193Y-100.0
X122.193Y-100.0
X123.393Y-100.0
X124.593Y-100.0
X125.793Y-100.0
X126.493Y-100.0
X127.993Y-102.4
X128.193Y-97.6
X128.611Y-98.05
X131.628Y-102.45
X132.068Y-98.55
X132.068Y-101.45
T2
X96.0Y-99.2
X96.5Y-100.8
X98.0Y-99.2
X99.0Y-100.8
X100.0Y-99.2
X101.0Y-100.8
X102.0Y-99.2
X103.5Y-100.8
X104.0Y-99.2
T3
X93.425Y-100.65
X106.575Y-100.65
M30
