%TF.GenerationSoftware,KiCad,Pcbnew,9.0.2+dfsg-1*%
%TF.CreationDate,2026-10-04T09:33:21-04:00*%
%TF.ProjectId,tdr_coupon_c50,7464725f-636f-4757-906f-6e5f6335302e,rev?*%
%TF.SameCoordinates,Original*%
%TF.FileFunction,Drillmap*%
%TF.FilePolarity,Positive*%
%FSLAX45Y45*%
G04 Gerber Fmt 4.5, Leading zero omitted, Abs format (unit mm)*
G04 Created by KiCad (PCBNEW 9.0.2+dfsg-1) date 2026-10-04 09:33:21*
%MOMM*%
%LPD*%
G01*
G04 APERTURE LIST*
%ADD10C,0.050000*%
%ADD11C,0.200000*%
%ADD12C,0.100000*%
G04 APERTURE END LIST*
D10*
X10000000Y-13400000D02*
X15800000Y-13400000D01*
X15800000Y-13400000D02*
X15800000Y-10000000D01*
X10000000Y-10000000D02*
X10000000Y-13400000D01*
X15800000Y-10000000D02*
X10000000Y-10000000D01*
D11*
D12*
X10140000Y-10385000D02*
X10170000Y-10415000D01*
X10170000Y-10385000D02*
X10140000Y-10415000D01*
X10140000Y-10685000D02*
X10170000Y-10715000D01*
X10170000Y-10685000D02*
X10140000Y-10715000D01*
X10140000Y-10885000D02*
X10170000Y-10915000D01*
X10170000Y-10885000D02*
X10140000Y-10915000D01*
X10140000Y-11185000D02*
X10170000Y-11215000D01*
X10170000Y-11185000D02*
X10140000Y-11215000D01*
X10140000Y-11385000D02*
X10170000Y-11415000D01*
X10170000Y-11385000D02*
X10140000Y-11415000D01*
X10140000Y-11685000D02*
X10170000Y-11715000D01*
X10170000Y-11685000D02*
X10140000Y-11715000D01*
X10140000Y-11885000D02*
X10170000Y-11915000D01*
X10170000Y-11885000D02*
X10140000Y-11915000D01*
X10140000Y-12185000D02*
X10170000Y-12215000D01*
X10170000Y-12185000D02*
X10140000Y-12215000D01*
X10140000Y-12435000D02*
X10170000Y-12465000D01*
X10170000Y-12435000D02*
X10140000Y-12465000D01*
X10140000Y-12635000D02*
X10170000Y-12665000D01*
X10170000Y-12635000D02*
X10140000Y-12665000D01*
X10140000Y-12885000D02*
X10170000Y-12915000D01*
X10170000Y-12885000D02*
X10140000Y-12915000D01*
X10140000Y-13185000D02*
X10170000Y-13215000D01*
X10170000Y-13185000D02*
X10140000Y-13215000D01*
X15630000Y-10385000D02*
X15660000Y-10415000D01*
X15660000Y-10385000D02*
X15630000Y-10415000D01*
X15630000Y-10685000D02*
X15660000Y-10715000D01*
X15660000Y-10685000D02*
X15630000Y-10715000D01*
X15630000Y-10885000D02*
X15660000Y-10915000D01*
X15660000Y-10885000D02*
X15630000Y-10915000D01*
X15630000Y-11185000D02*
X15660000Y-11215000D01*
X15660000Y-11185000D02*
X15630000Y-11215000D01*
X15630000Y-11385000D02*
X15660000Y-11415000D01*
X15660000Y-11385000D02*
X15630000Y-11415000D01*
X15630000Y-11685000D02*
X15660000Y-11715000D01*
X15660000Y-11685000D02*
X15630000Y-11715000D01*
X15630000Y-11885000D02*
X15660000Y-11915000D01*
X15660000Y-11885000D02*
X15630000Y-11915000D01*
X15630000Y-12185000D02*
X15660000Y-12215000D01*
X15660000Y-12185000D02*
X15630000Y-12215000D01*
X15630000Y-12435000D02*
X15660000Y-12465000D01*
X15660000Y-12435000D02*
X15630000Y-12465000D01*
X15630000Y-12635000D02*
X15660000Y-12665000D01*
X15660000Y-12635000D02*
X15630000Y-12665000D01*
X15630000Y-12885000D02*
X15660000Y-12915000D01*
X15660000Y-12885000D02*
X15630000Y-12915000D01*
X15630000Y-13185000D02*
X15660000Y-13215000D01*
X15660000Y-13185000D02*
X15630000Y-13215000D01*
D11*
X10258277Y-13713984D02*
X10258277Y-13513984D01*
X10258277Y-13513984D02*
X10305896Y-13513984D01*
X10305896Y-13513984D02*
X10334467Y-13523508D01*
X10334467Y-13523508D02*
X10353515Y-13542555D01*
X10353515Y-13542555D02*
X10363039Y-13561603D01*
X10363039Y-13561603D02*
X10372563Y-13599698D01*
X10372563Y-13599698D02*
X10372563Y-13628269D01*
X10372563Y-13628269D02*
X10363039Y-13666365D01*
X10363039Y-13666365D02*
X10353515Y-13685412D01*
X10353515Y-13685412D02*
X10334467Y-13704460D01*
X10334467Y-13704460D02*
X10305896Y-13713984D01*
X10305896Y-13713984D02*
X10258277Y-13713984D01*
X10458277Y-13713984D02*
X10458277Y-13580650D01*
X10458277Y-13618746D02*
X10467801Y-13599698D01*
X10467801Y-13599698D02*
X10477324Y-13590174D01*
X10477324Y-13590174D02*
X10496372Y-13580650D01*
X10496372Y-13580650D02*
X10515420Y-13580650D01*
X10582086Y-13713984D02*
X10582086Y-13580650D01*
X10582086Y-13513984D02*
X10572563Y-13523508D01*
X10572563Y-13523508D02*
X10582086Y-13533031D01*
X10582086Y-13533031D02*
X10591610Y-13523508D01*
X10591610Y-13523508D02*
X10582086Y-13513984D01*
X10582086Y-13513984D02*
X10582086Y-13533031D01*
X10705896Y-13713984D02*
X10686848Y-13704460D01*
X10686848Y-13704460D02*
X10677324Y-13685412D01*
X10677324Y-13685412D02*
X10677324Y-13513984D01*
X10810658Y-13713984D02*
X10791610Y-13704460D01*
X10791610Y-13704460D02*
X10782086Y-13685412D01*
X10782086Y-13685412D02*
X10782086Y-13513984D01*
X11039229Y-13713984D02*
X11039229Y-13513984D01*
X11039229Y-13513984D02*
X11105896Y-13656841D01*
X11105896Y-13656841D02*
X11172563Y-13513984D01*
X11172563Y-13513984D02*
X11172563Y-13713984D01*
X11353515Y-13713984D02*
X11353515Y-13609222D01*
X11353515Y-13609222D02*
X11343991Y-13590174D01*
X11343991Y-13590174D02*
X11324943Y-13580650D01*
X11324943Y-13580650D02*
X11286848Y-13580650D01*
X11286848Y-13580650D02*
X11267801Y-13590174D01*
X11353515Y-13704460D02*
X11334467Y-13713984D01*
X11334467Y-13713984D02*
X11286848Y-13713984D01*
X11286848Y-13713984D02*
X11267801Y-13704460D01*
X11267801Y-13704460D02*
X11258277Y-13685412D01*
X11258277Y-13685412D02*
X11258277Y-13666365D01*
X11258277Y-13666365D02*
X11267801Y-13647317D01*
X11267801Y-13647317D02*
X11286848Y-13637793D01*
X11286848Y-13637793D02*
X11334467Y-13637793D01*
X11334467Y-13637793D02*
X11353515Y-13628269D01*
X11448753Y-13580650D02*
X11448753Y-13780650D01*
X11448753Y-13590174D02*
X11467801Y-13580650D01*
X11467801Y-13580650D02*
X11505896Y-13580650D01*
X11505896Y-13580650D02*
X11524943Y-13590174D01*
X11524943Y-13590174D02*
X11534467Y-13599698D01*
X11534467Y-13599698D02*
X11543991Y-13618746D01*
X11543991Y-13618746D02*
X11543991Y-13675888D01*
X11543991Y-13675888D02*
X11534467Y-13694936D01*
X11534467Y-13694936D02*
X11524943Y-13704460D01*
X11524943Y-13704460D02*
X11505896Y-13713984D01*
X11505896Y-13713984D02*
X11467801Y-13713984D01*
X11467801Y-13713984D02*
X11448753Y-13704460D01*
X11629705Y-13694936D02*
X11639229Y-13704460D01*
X11639229Y-13704460D02*
X11629705Y-13713984D01*
X11629705Y-13713984D02*
X11620182Y-13704460D01*
X11620182Y-13704460D02*
X11629705Y-13694936D01*
X11629705Y-13694936D02*
X11629705Y-13713984D01*
X11629705Y-13590174D02*
X11639229Y-13599698D01*
X11639229Y-13599698D02*
X11629705Y-13609222D01*
X11629705Y-13609222D02*
X11620182Y-13599698D01*
X11620182Y-13599698D02*
X11629705Y-13590174D01*
X11629705Y-13590174D02*
X11629705Y-13609222D01*
D12*
X9967500Y-14027500D02*
X9997500Y-14057500D01*
X9997500Y-14027500D02*
X9967500Y-14057500D01*
D11*
X10296372Y-13933984D02*
X10315420Y-13933984D01*
X10315420Y-13933984D02*
X10334467Y-13943508D01*
X10334467Y-13943508D02*
X10343991Y-13953031D01*
X10343991Y-13953031D02*
X10353515Y-13972079D01*
X10353515Y-13972079D02*
X10363039Y-14010174D01*
X10363039Y-14010174D02*
X10363039Y-14057793D01*
X10363039Y-14057793D02*
X10353515Y-14095888D01*
X10353515Y-14095888D02*
X10343991Y-14114936D01*
X10343991Y-14114936D02*
X10334467Y-14124460D01*
X10334467Y-14124460D02*
X10315420Y-14133984D01*
X10315420Y-14133984D02*
X10296372Y-14133984D01*
X10296372Y-14133984D02*
X10277324Y-14124460D01*
X10277324Y-14124460D02*
X10267801Y-14114936D01*
X10267801Y-14114936D02*
X10258277Y-14095888D01*
X10258277Y-14095888D02*
X10248753Y-14057793D01*
X10248753Y-14057793D02*
X10248753Y-14010174D01*
X10248753Y-14010174D02*
X10258277Y-13972079D01*
X10258277Y-13972079D02*
X10267801Y-13953031D01*
X10267801Y-13953031D02*
X10277324Y-13943508D01*
X10277324Y-13943508D02*
X10296372Y-13933984D01*
X10448753Y-14114936D02*
X10458277Y-14124460D01*
X10458277Y-14124460D02*
X10448753Y-14133984D01*
X10448753Y-14133984D02*
X10439229Y-14124460D01*
X10439229Y-14124460D02*
X10448753Y-14114936D01*
X10448753Y-14114936D02*
X10448753Y-14133984D01*
X10524944Y-13933984D02*
X10648753Y-13933984D01*
X10648753Y-13933984D02*
X10582086Y-14010174D01*
X10582086Y-14010174D02*
X10610658Y-14010174D01*
X10610658Y-14010174D02*
X10629705Y-14019698D01*
X10629705Y-14019698D02*
X10639229Y-14029222D01*
X10639229Y-14029222D02*
X10648753Y-14048269D01*
X10648753Y-14048269D02*
X10648753Y-14095888D01*
X10648753Y-14095888D02*
X10639229Y-14114936D01*
X10639229Y-14114936D02*
X10629705Y-14124460D01*
X10629705Y-14124460D02*
X10610658Y-14133984D01*
X10610658Y-14133984D02*
X10553515Y-14133984D01*
X10553515Y-14133984D02*
X10534467Y-14124460D01*
X10534467Y-14124460D02*
X10524944Y-14114936D01*
X10772563Y-13933984D02*
X10791610Y-13933984D01*
X10791610Y-13933984D02*
X10810658Y-13943508D01*
X10810658Y-13943508D02*
X10820182Y-13953031D01*
X10820182Y-13953031D02*
X10829705Y-13972079D01*
X10829705Y-13972079D02*
X10839229Y-14010174D01*
X10839229Y-14010174D02*
X10839229Y-14057793D01*
X10839229Y-14057793D02*
X10829705Y-14095888D01*
X10829705Y-14095888D02*
X10820182Y-14114936D01*
X10820182Y-14114936D02*
X10810658Y-14124460D01*
X10810658Y-14124460D02*
X10791610Y-14133984D01*
X10791610Y-14133984D02*
X10772563Y-14133984D01*
X10772563Y-14133984D02*
X10753515Y-14124460D01*
X10753515Y-14124460D02*
X10743991Y-14114936D01*
X10743991Y-14114936D02*
X10734467Y-14095888D01*
X10734467Y-14095888D02*
X10724944Y-14057793D01*
X10724944Y-14057793D02*
X10724944Y-14010174D01*
X10724944Y-14010174D02*
X10734467Y-13972079D01*
X10734467Y-13972079D02*
X10743991Y-13953031D01*
X10743991Y-13953031D02*
X10753515Y-13943508D01*
X10753515Y-13943508D02*
X10772563Y-13933984D01*
X10963039Y-13933984D02*
X10982086Y-13933984D01*
X10982086Y-13933984D02*
X11001134Y-13943508D01*
X11001134Y-13943508D02*
X11010658Y-13953031D01*
X11010658Y-13953031D02*
X11020182Y-13972079D01*
X11020182Y-13972079D02*
X11029705Y-14010174D01*
X11029705Y-14010174D02*
X11029705Y-14057793D01*
X11029705Y-14057793D02*
X11020182Y-14095888D01*
X11020182Y-14095888D02*
X11010658Y-14114936D01*
X11010658Y-14114936D02*
X11001134Y-14124460D01*
X11001134Y-14124460D02*
X10982086Y-14133984D01*
X10982086Y-14133984D02*
X10963039Y-14133984D01*
X10963039Y-14133984D02*
X10943991Y-14124460D01*
X10943991Y-14124460D02*
X10934467Y-14114936D01*
X10934467Y-14114936D02*
X10924944Y-14095888D01*
X10924944Y-14095888D02*
X10915420Y-14057793D01*
X10915420Y-14057793D02*
X10915420Y-14010174D01*
X10915420Y-14010174D02*
X10924944Y-13972079D01*
X10924944Y-13972079D02*
X10934467Y-13953031D01*
X10934467Y-13953031D02*
X10943991Y-13943508D01*
X10943991Y-13943508D02*
X10963039Y-13933984D01*
X11115420Y-14133984D02*
X11115420Y-14000650D01*
X11115420Y-14019698D02*
X11124944Y-14010174D01*
X11124944Y-14010174D02*
X11143991Y-14000650D01*
X11143991Y-14000650D02*
X11172563Y-14000650D01*
X11172563Y-14000650D02*
X11191610Y-14010174D01*
X11191610Y-14010174D02*
X11201134Y-14029222D01*
X11201134Y-14029222D02*
X11201134Y-14133984D01*
X11201134Y-14029222D02*
X11210658Y-14010174D01*
X11210658Y-14010174D02*
X11229705Y-14000650D01*
X11229705Y-14000650D02*
X11258277Y-14000650D01*
X11258277Y-14000650D02*
X11277324Y-14010174D01*
X11277324Y-14010174D02*
X11286848Y-14029222D01*
X11286848Y-14029222D02*
X11286848Y-14133984D01*
X11382086Y-14133984D02*
X11382086Y-14000650D01*
X11382086Y-14019698D02*
X11391610Y-14010174D01*
X11391610Y-14010174D02*
X11410658Y-14000650D01*
X11410658Y-14000650D02*
X11439229Y-14000650D01*
X11439229Y-14000650D02*
X11458277Y-14010174D01*
X11458277Y-14010174D02*
X11467801Y-14029222D01*
X11467801Y-14029222D02*
X11467801Y-14133984D01*
X11467801Y-14029222D02*
X11477324Y-14010174D01*
X11477324Y-14010174D02*
X11496372Y-14000650D01*
X11496372Y-14000650D02*
X11524943Y-14000650D01*
X11524943Y-14000650D02*
X11543991Y-14010174D01*
X11543991Y-14010174D02*
X11553515Y-14029222D01*
X11553515Y-14029222D02*
X11553515Y-14133984D01*
X11943991Y-13924460D02*
X11772563Y-14181603D01*
X12201134Y-13933984D02*
X12220182Y-13933984D01*
X12220182Y-13933984D02*
X12239229Y-13943508D01*
X12239229Y-13943508D02*
X12248753Y-13953031D01*
X12248753Y-13953031D02*
X12258277Y-13972079D01*
X12258277Y-13972079D02*
X12267801Y-14010174D01*
X12267801Y-14010174D02*
X12267801Y-14057793D01*
X12267801Y-14057793D02*
X12258277Y-14095888D01*
X12258277Y-14095888D02*
X12248753Y-14114936D01*
X12248753Y-14114936D02*
X12239229Y-14124460D01*
X12239229Y-14124460D02*
X12220182Y-14133984D01*
X12220182Y-14133984D02*
X12201134Y-14133984D01*
X12201134Y-14133984D02*
X12182086Y-14124460D01*
X12182086Y-14124460D02*
X12172563Y-14114936D01*
X12172563Y-14114936D02*
X12163039Y-14095888D01*
X12163039Y-14095888D02*
X12153515Y-14057793D01*
X12153515Y-14057793D02*
X12153515Y-14010174D01*
X12153515Y-14010174D02*
X12163039Y-13972079D01*
X12163039Y-13972079D02*
X12172563Y-13953031D01*
X12172563Y-13953031D02*
X12182086Y-13943508D01*
X12182086Y-13943508D02*
X12201134Y-13933984D01*
X12353515Y-14114936D02*
X12363039Y-14124460D01*
X12363039Y-14124460D02*
X12353515Y-14133984D01*
X12353515Y-14133984D02*
X12343991Y-14124460D01*
X12343991Y-14124460D02*
X12353515Y-14114936D01*
X12353515Y-14114936D02*
X12353515Y-14133984D01*
X12486848Y-13933984D02*
X12505896Y-13933984D01*
X12505896Y-13933984D02*
X12524944Y-13943508D01*
X12524944Y-13943508D02*
X12534467Y-13953031D01*
X12534467Y-13953031D02*
X12543991Y-13972079D01*
X12543991Y-13972079D02*
X12553515Y-14010174D01*
X12553515Y-14010174D02*
X12553515Y-14057793D01*
X12553515Y-14057793D02*
X12543991Y-14095888D01*
X12543991Y-14095888D02*
X12534467Y-14114936D01*
X12534467Y-14114936D02*
X12524944Y-14124460D01*
X12524944Y-14124460D02*
X12505896Y-14133984D01*
X12505896Y-14133984D02*
X12486848Y-14133984D01*
X12486848Y-14133984D02*
X12467801Y-14124460D01*
X12467801Y-14124460D02*
X12458277Y-14114936D01*
X12458277Y-14114936D02*
X12448753Y-14095888D01*
X12448753Y-14095888D02*
X12439229Y-14057793D01*
X12439229Y-14057793D02*
X12439229Y-14010174D01*
X12439229Y-14010174D02*
X12448753Y-13972079D01*
X12448753Y-13972079D02*
X12458277Y-13953031D01*
X12458277Y-13953031D02*
X12467801Y-13943508D01*
X12467801Y-13943508D02*
X12486848Y-13933984D01*
X12743991Y-14133984D02*
X12629706Y-14133984D01*
X12686848Y-14133984D02*
X12686848Y-13933984D01*
X12686848Y-13933984D02*
X12667801Y-13962555D01*
X12667801Y-13962555D02*
X12648753Y-13981603D01*
X12648753Y-13981603D02*
X12629706Y-13991127D01*
X12934467Y-14133984D02*
X12820182Y-14133984D01*
X12877325Y-14133984D02*
X12877325Y-13933984D01*
X12877325Y-13933984D02*
X12858277Y-13962555D01*
X12858277Y-13962555D02*
X12839229Y-13981603D01*
X12839229Y-13981603D02*
X12820182Y-13991127D01*
X13048753Y-14019698D02*
X13029706Y-14010174D01*
X13029706Y-14010174D02*
X13020182Y-14000650D01*
X13020182Y-14000650D02*
X13010658Y-13981603D01*
X13010658Y-13981603D02*
X13010658Y-13972079D01*
X13010658Y-13972079D02*
X13020182Y-13953031D01*
X13020182Y-13953031D02*
X13029706Y-13943508D01*
X13029706Y-13943508D02*
X13048753Y-13933984D01*
X13048753Y-13933984D02*
X13086848Y-13933984D01*
X13086848Y-13933984D02*
X13105896Y-13943508D01*
X13105896Y-13943508D02*
X13115420Y-13953031D01*
X13115420Y-13953031D02*
X13124944Y-13972079D01*
X13124944Y-13972079D02*
X13124944Y-13981603D01*
X13124944Y-13981603D02*
X13115420Y-14000650D01*
X13115420Y-14000650D02*
X13105896Y-14010174D01*
X13105896Y-14010174D02*
X13086848Y-14019698D01*
X13086848Y-14019698D02*
X13048753Y-14019698D01*
X13048753Y-14019698D02*
X13029706Y-14029222D01*
X13029706Y-14029222D02*
X13020182Y-14038746D01*
X13020182Y-14038746D02*
X13010658Y-14057793D01*
X13010658Y-14057793D02*
X13010658Y-14095888D01*
X13010658Y-14095888D02*
X13020182Y-14114936D01*
X13020182Y-14114936D02*
X13029706Y-14124460D01*
X13029706Y-14124460D02*
X13048753Y-14133984D01*
X13048753Y-14133984D02*
X13086848Y-14133984D01*
X13086848Y-14133984D02*
X13105896Y-14124460D01*
X13105896Y-14124460D02*
X13115420Y-14114936D01*
X13115420Y-14114936D02*
X13124944Y-14095888D01*
X13124944Y-14095888D02*
X13124944Y-14057793D01*
X13124944Y-14057793D02*
X13115420Y-14038746D01*
X13115420Y-14038746D02*
X13105896Y-14029222D01*
X13105896Y-14029222D02*
X13086848Y-14019698D01*
X13201134Y-13933984D02*
X13201134Y-13972079D01*
X13277325Y-13933984D02*
X13277325Y-13972079D01*
X13572563Y-14210174D02*
X13563039Y-14200650D01*
X13563039Y-14200650D02*
X13543991Y-14172079D01*
X13543991Y-14172079D02*
X13534468Y-14153031D01*
X13534468Y-14153031D02*
X13524944Y-14124460D01*
X13524944Y-14124460D02*
X13515420Y-14076841D01*
X13515420Y-14076841D02*
X13515420Y-14038746D01*
X13515420Y-14038746D02*
X13524944Y-13991127D01*
X13524944Y-13991127D02*
X13534468Y-13962555D01*
X13534468Y-13962555D02*
X13543991Y-13943508D01*
X13543991Y-13943508D02*
X13563039Y-13914936D01*
X13563039Y-13914936D02*
X13572563Y-13905412D01*
X13639229Y-13953031D02*
X13648753Y-13943508D01*
X13648753Y-13943508D02*
X13667801Y-13933984D01*
X13667801Y-13933984D02*
X13715420Y-13933984D01*
X13715420Y-13933984D02*
X13734468Y-13943508D01*
X13734468Y-13943508D02*
X13743991Y-13953031D01*
X13743991Y-13953031D02*
X13753515Y-13972079D01*
X13753515Y-13972079D02*
X13753515Y-13991127D01*
X13753515Y-13991127D02*
X13743991Y-14019698D01*
X13743991Y-14019698D02*
X13629706Y-14133984D01*
X13629706Y-14133984D02*
X13753515Y-14133984D01*
X13924944Y-14000650D02*
X13924944Y-14133984D01*
X13877325Y-13924460D02*
X13829706Y-14067317D01*
X13829706Y-14067317D02*
X13953515Y-14067317D01*
X14182087Y-14133984D02*
X14182087Y-13933984D01*
X14267801Y-14133984D02*
X14267801Y-14029222D01*
X14267801Y-14029222D02*
X14258277Y-14010174D01*
X14258277Y-14010174D02*
X14239230Y-14000650D01*
X14239230Y-14000650D02*
X14210658Y-14000650D01*
X14210658Y-14000650D02*
X14191610Y-14010174D01*
X14191610Y-14010174D02*
X14182087Y-14019698D01*
X14391610Y-14133984D02*
X14372563Y-14124460D01*
X14372563Y-14124460D02*
X14363039Y-14114936D01*
X14363039Y-14114936D02*
X14353515Y-14095888D01*
X14353515Y-14095888D02*
X14353515Y-14038746D01*
X14353515Y-14038746D02*
X14363039Y-14019698D01*
X14363039Y-14019698D02*
X14372563Y-14010174D01*
X14372563Y-14010174D02*
X14391610Y-14000650D01*
X14391610Y-14000650D02*
X14420182Y-14000650D01*
X14420182Y-14000650D02*
X14439230Y-14010174D01*
X14439230Y-14010174D02*
X14448753Y-14019698D01*
X14448753Y-14019698D02*
X14458277Y-14038746D01*
X14458277Y-14038746D02*
X14458277Y-14095888D01*
X14458277Y-14095888D02*
X14448753Y-14114936D01*
X14448753Y-14114936D02*
X14439230Y-14124460D01*
X14439230Y-14124460D02*
X14420182Y-14133984D01*
X14420182Y-14133984D02*
X14391610Y-14133984D01*
X14572563Y-14133984D02*
X14553515Y-14124460D01*
X14553515Y-14124460D02*
X14543991Y-14105412D01*
X14543991Y-14105412D02*
X14543991Y-13933984D01*
X14724944Y-14124460D02*
X14705896Y-14133984D01*
X14705896Y-14133984D02*
X14667801Y-14133984D01*
X14667801Y-14133984D02*
X14648753Y-14124460D01*
X14648753Y-14124460D02*
X14639230Y-14105412D01*
X14639230Y-14105412D02*
X14639230Y-14029222D01*
X14639230Y-14029222D02*
X14648753Y-14010174D01*
X14648753Y-14010174D02*
X14667801Y-14000650D01*
X14667801Y-14000650D02*
X14705896Y-14000650D01*
X14705896Y-14000650D02*
X14724944Y-14010174D01*
X14724944Y-14010174D02*
X14734468Y-14029222D01*
X14734468Y-14029222D02*
X14734468Y-14048269D01*
X14734468Y-14048269D02*
X14639230Y-14067317D01*
X14810658Y-14124460D02*
X14829706Y-14133984D01*
X14829706Y-14133984D02*
X14867801Y-14133984D01*
X14867801Y-14133984D02*
X14886849Y-14124460D01*
X14886849Y-14124460D02*
X14896372Y-14105412D01*
X14896372Y-14105412D02*
X14896372Y-14095888D01*
X14896372Y-14095888D02*
X14886849Y-14076841D01*
X14886849Y-14076841D02*
X14867801Y-14067317D01*
X14867801Y-14067317D02*
X14839230Y-14067317D01*
X14839230Y-14067317D02*
X14820182Y-14057793D01*
X14820182Y-14057793D02*
X14810658Y-14038746D01*
X14810658Y-14038746D02*
X14810658Y-14029222D01*
X14810658Y-14029222D02*
X14820182Y-14010174D01*
X14820182Y-14010174D02*
X14839230Y-14000650D01*
X14839230Y-14000650D02*
X14867801Y-14000650D01*
X14867801Y-14000650D02*
X14886849Y-14010174D01*
X14963039Y-14210174D02*
X14972563Y-14200650D01*
X14972563Y-14200650D02*
X14991611Y-14172079D01*
X14991611Y-14172079D02*
X15001134Y-14153031D01*
X15001134Y-14153031D02*
X15010658Y-14124460D01*
X15010658Y-14124460D02*
X15020182Y-14076841D01*
X15020182Y-14076841D02*
X15020182Y-14038746D01*
X15020182Y-14038746D02*
X15010658Y-13991127D01*
X15010658Y-13991127D02*
X15001134Y-13962555D01*
X15001134Y-13962555D02*
X14991611Y-13943508D01*
X14991611Y-13943508D02*
X14972563Y-13914936D01*
X14972563Y-13914936D02*
X14963039Y-13905412D01*
M02*
