M48
; DRILL file {KiCad 9.0.2+dfsg-1} date 2026-10-04T09:33:21-0400
; FORMAT={-:-/ absolute / metric / decimal}
; #@! TF.CreationDate,2026-10-04T09:33:21-04:00
; #@! TF.GenerationSoftware,Kicad,Pcbnew,9.0.2+dfsg-1
; #@! TF.FileFunction,Plated,1,2,PTH
FMAT,2
METRIC
; #@! TA.AperFunction,Plated,PTH,ViaDrill
T1C0.300
%
G90
G05
T1
X101.55Y-104.0
X101.55Y-107.0
X101.55Y-109.0
X101.55Y-112.0
X101.55Y-114.0
X101.55Y-117.0
X101.55Y-119.0
X101.55Y-122.0
X101.55Y-124.5
X101.55Y-126.5
X101.55Y-129.0
X101.55Y-132.0
X156.45Y-104.0
X156.45Y-107.0
X156.45Y-109.0
X156.45Y-112.0
X156.45Y-114.0
X156.45Y-117.0
X156.45Y-119.0
X156.45Y-122.0
X156.45Y-124.5
X156.45Y-126.5
X156.45Y-129.0
X156.45Y-132.0
M30
