%TF.GenerationSoftware,KiCad,Pcbnew,9.0.2+dfsg-1*%
%TF.CreationDate,2026-10-04T09:33:22-04:00*%
%TF.ProjectId,tdr_coupon_c50,7464725f-636f-4757-906f-6e5f6335302e,rev?*%
%TF.SameCoordinates,Original*%
%TF.FileFunction,Drillmap*%
%TF.FilePolarity,Positive*%
%FSLAX45Y45*%
G04 Gerber Fmt 4.5, Leading zero omitted, Abs format (unit mm)*
G04 Created by KiCad (PCBNEW 9.0.2+dfsg-1) date 2026-10-04 09:33:22*
%MOMM*%
%LPD*%
G01*
G04 APERTURE LIST*
%ADD10C,0.050000*%
%ADD11C,0.200000*%
G04 APERTURE END LIST*
D10*
X10000000Y-13400000D02*
X15800000Y-13400000D01*
X15800000Y-13400000D02*
X15800000Y-10000000D01*
X10000000Y-10000000D02*
X10000000Y-13400000D01*
X15800000Y-10000000D02*
X10000000Y-10000000D01*
D11*
X10258277Y-13713984D02*
X10258277Y-13513984D01*
X10258277Y-13513984D02*
X10305896Y-13513984D01*
X10305896Y-13513984D02*
X10334467Y-13523508D01*
X10334467Y-13523508D02*
X10353515Y-13542555D01*
X10353515Y-13542555D02*
X10363039Y-13561603D01*
X10363039Y-13561603D02*
X10372563Y-13599698D01*
X10372563Y-13599698D02*
X10372563Y-13628269D01*
X10372563Y-13628269D02*
X10363039Y-13666365D01*
X10363039Y-13666365D02*
X10353515Y-13685412D01*
X10353515Y-13685412D02*
X10334467Y-13704460D01*
X10334467Y-13704460D02*
X10305896Y-13713984D01*
X10305896Y-13713984D02*
X10258277Y-13713984D01*
X10458277Y-13713984D02*
X10458277Y-13580650D01*
X10458277Y-13618746D02*
X10467801Y-13599698D01*
X10467801Y-13599698D02*
X10477324Y-13590174D01*
X10477324Y-13590174D02*
X10496372Y-13580650D01*
X10496372Y-13580650D02*
X10515420Y-13580650D01*
X10582086Y-13713984D02*
X10582086Y-13580650D01*
X10582086Y-13513984D02*
X10572563Y-13523508D01*
X10572563Y-13523508D02*
X10582086Y-13533031D01*
X10582086Y-13533031D02*
X10591610Y-13523508D01*
X10591610Y-13523508D02*
X10582086Y-13513984D01*
X10582086Y-13513984D02*
X10582086Y-13533031D01*
X10705896Y-13713984D02*
X10686848Y-13704460D01*
X10686848Y-13704460D02*
X10677324Y-13685412D01*
X10677324Y-13685412D02*
X10677324Y-13513984D01*
X10810658Y-13713984D02*
X10791610Y-13704460D01*
X10791610Y-13704460D02*
X10782086Y-13685412D01*
X10782086Y-13685412D02*
X10782086Y-13513984D01*
X11039229Y-13713984D02*
X11039229Y-13513984D01*
X11039229Y-13513984D02*
X11105896Y-13656841D01*
X11105896Y-13656841D02*
X11172563Y-13513984D01*
X11172563Y-13513984D02*
X11172563Y-13713984D01*
X11353515Y-13713984D02*
X11353515Y-13609222D01*
X11353515Y-13609222D02*
X11343991Y-13590174D01*
X11343991Y-13590174D02*
X11324943Y-13580650D01*
X11324943Y-13580650D02*
X11286848Y-13580650D01*
X11286848Y-13580650D02*
X11267801Y-13590174D01*
X11353515Y-13704460D02*
X11334467Y-13713984D01*
X11334467Y-13713984D02*
X11286848Y-13713984D01*
X11286848Y-13713984D02*
X11267801Y-13704460D01*
X11267801Y-13704460D02*
X11258277Y-13685412D01*
X11258277Y-13685412D02*
X11258277Y-13666365D01*
X11258277Y-13666365D02*
X11267801Y-13647317D01*
X11267801Y-13647317D02*
X11286848Y-13637793D01*
X11286848Y-13637793D02*
X11334467Y-13637793D01*
X11334467Y-13637793D02*
X11353515Y-13628269D01*
X11448753Y-13580650D02*
X11448753Y-13780650D01*
X11448753Y-13590174D02*
X11467801Y-13580650D01*
X11467801Y-13580650D02*
X11505896Y-13580650D01*
X11505896Y-13580650D02*
X11524943Y-13590174D01*
X11524943Y-13590174D02*
X11534467Y-13599698D01*
X11534467Y-13599698D02*
X11543991Y-13618746D01*
X11543991Y-13618746D02*
X11543991Y-13675888D01*
X11543991Y-13675888D02*
X11534467Y-13694936D01*
X11534467Y-13694936D02*
X11524943Y-13704460D01*
X11524943Y-13704460D02*
X11505896Y-13713984D01*
X11505896Y-13713984D02*
X11467801Y-13713984D01*
X11467801Y-13713984D02*
X11448753Y-13704460D01*
X11629705Y-13694936D02*
X11639229Y-13704460D01*
X11639229Y-13704460D02*
X11629705Y-13713984D01*
X11629705Y-13713984D02*
X11620182Y-13704460D01*
X11620182Y-13704460D02*
X11629705Y-13694936D01*
X11629705Y-13694936D02*
X11629705Y-13713984D01*
X11629705Y-13590174D02*
X11639229Y-13599698D01*
X11639229Y-13599698D02*
X11629705Y-13609222D01*
X11629705Y-13609222D02*
X11620182Y-13599698D01*
X11620182Y-13599698D02*
X11629705Y-13590174D01*
X11629705Y-13590174D02*
X11629705Y-13609222D01*
M02*
