M48
; DRILL file {KiCad 9.0.2+dfsg-1} date 2026-10-04T10:33:53-0400
; FORMAT={-:-/ absolute / metric / decimal}
; #@! TF.CreationDate,2026-10-04T10:33:53-04:00
; #@! TF.GenerationSoftware,Kicad,Pcbnew,9.0.2+dfsg-1
; #@! TF.FileFunction,Plated,1,2,PTH
FMAT,2
METRIC
; #@! TA.AperFunction,Plated,PTH,ViaDrill
T1C0.200
; #@! TA.AperFunction,Plated,PTH,ViaDrill
T2C0.300
; #@! TA.AperFunction,Plated,PTH,ComponentDrill
T3C1.300
%
G90
G05
T1
X96.29Y-102.15
X97.79Y-102.15
X99.29Y-102.15
X100.79Y-102.15
X103.79Y-102.15
X104.29Y-101.95
T2
X93.257Y-96.813
X96.29Y-99.353
X100.815Y-101.592
X105.717Y-103.25
X119.914Y-99.65
X119.914Y-100.35
X123.464Y-100.0
X124.464Y-100.0
X125.664Y-100.0
X126.864Y-100.0
X128.064Y-100.0
X128.764Y-100.0
X130.264Y-102.4
X130.464Y-97.6
X132.621Y-98.013
X133.899Y-102.45
X134.339Y-98.55
X134.339Y-101.45
T3
X92.75Y-100.9
X100.0Y-97.6
X107.25Y-100.9
M30
