G04 #@! TF.GenerationSoftware,KiCad,Pcbnew,9.0.2+dfsg-1*
G04 #@! TF.CreationDate,2026-10-04T09:33:18-04:00*
G04 #@! TF.ProjectId,mod_hdmi,6d6f645f-6864-46d6-992e-6b696361645f,A1*
G04 #@! TF.SameCoordinates,Original*
G04 #@! TF.FileFunction,Soldermask,Top*
G04 #@! TF.FilePolarity,Negative*
%FSLAX46Y46*%
G04 Gerber Fmt 4.6, Leading zero omitted, Abs format (unit mm)*
G04 Created by KiCad (PCBNEW 9.0.2+dfsg-1) date 2026-10-04 09:33:18*
%MOMM*%
%LPD*%
G01*
G04 APERTURE LIST*
G04 Aperture macros list*
%AMRoundRect*
0 Rectangle with rounded corners*
0 $1 Rounding radius*
0 $2 $3 $4 $5 $6 $7 $8 $9 X,Y pos of 4 corners*
0 Add a 4 corners polygon primitive as box body*
4,1,4,$2,$3,$4,$5,$6,$7,$8,$9,$2,$3,0*
0 Add four circle primitives for the rounded corners*
1,1,$1+$1,$2,$3*
1,1,$1+$1,$4,$5*
1,1,$1+$1,$6,$7*
1,1,$1+$1,$8,$9*
0 Add four rect primitives between the rounded corners*
20,1,$1+$1,$2,$3,$4,$5,0*
20,1,$1+$1,$4,$5,$6,$7,0*
20,1,$1+$1,$6,$7,$8,$9,0*
20,1,$1+$1,$8,$9,$2,$3,0*%
G04 Aperture macros list end*
%ADD10R,0.300000X1.100000*%
%ADD11O,1.100000X1.900000*%
%ADD12RoundRect,0.062500X0.372500X0.062500X-0.372500X0.062500X-0.372500X-0.062500X0.372500X-0.062500X0*%
%ADD13R,0.610000X2.200000*%
%ADD14RoundRect,0.057500X-0.057500X-0.292500X0.057500X-0.292500X0.057500X0.292500X-0.057500X0.292500X0*%
%ADD15RoundRect,0.100000X-0.130000X-0.100000X0.130000X-0.100000X0.130000X0.100000X-0.130000X0.100000X0*%
G04 APERTURE END LIST*
D10*
G04 #@! TO.C,J1*
X104500000Y-102900000D03*
X104000000Y-97100000D03*
X103500000Y-102900000D03*
X103000000Y-97100000D03*
X102500000Y-102900000D03*
X102000000Y-97100000D03*
X101500000Y-102900000D03*
X101000000Y-97100000D03*
X100500000Y-102900000D03*
X100000000Y-97100000D03*
X99500000Y-102900000D03*
X99000000Y-97100000D03*
X98500000Y-102900000D03*
X98000000Y-97100000D03*
X97500000Y-102900000D03*
X97000000Y-97100000D03*
X96500000Y-102900000D03*
X96000000Y-97100000D03*
X95500000Y-102900000D03*
D11*
X107850000Y-101600000D03*
X107850000Y-98400000D03*
X92150000Y-101600000D03*
X92150000Y-98400000D03*
G04 #@! TD*
D12*
G04 #@! TO.C,U1*
X133804000Y-100750000D03*
X133804000Y-100250000D03*
X133804000Y-99750000D03*
X133804000Y-99250000D03*
X131924000Y-99250000D03*
X131924000Y-99750000D03*
X131924000Y-100250000D03*
X131924000Y-100750000D03*
D13*
X132864000Y-100000000D03*
G04 #@! TD*
D14*
G04 #@! TO.C,J2*
X120329000Y-98700000D03*
X120329000Y-101300000D03*
X120729000Y-98700000D03*
X120729000Y-101300000D03*
X121129000Y-98700000D03*
X121129000Y-101300000D03*
X121529000Y-98700000D03*
X121529000Y-101300000D03*
X121929000Y-98700000D03*
X121929000Y-101300000D03*
X122329000Y-98700000D03*
X122329000Y-101300000D03*
X122729000Y-98700000D03*
X122729000Y-101300000D03*
X123129000Y-98700000D03*
X123129000Y-101300000D03*
X123529000Y-98700000D03*
X123529000Y-101300000D03*
X123929000Y-98700000D03*
X123929000Y-101300000D03*
X124329000Y-98700000D03*
X124329000Y-101300000D03*
X124729000Y-98700000D03*
X124729000Y-101300000D03*
X125129000Y-98700000D03*
X125129000Y-101300000D03*
X125529000Y-98700000D03*
X125529000Y-101300000D03*
X125929000Y-98700000D03*
X125929000Y-101300000D03*
X126329000Y-98700000D03*
X126329000Y-101300000D03*
X126729000Y-98700000D03*
X126729000Y-101300000D03*
X127129000Y-98700000D03*
X127129000Y-101300000D03*
X127529000Y-98700000D03*
X127529000Y-101300000D03*
X127929000Y-98700000D03*
X127929000Y-101300000D03*
X128329000Y-98700000D03*
X128329000Y-101300000D03*
X128729000Y-98700000D03*
X128729000Y-101300000D03*
X129129000Y-98700000D03*
X129129000Y-101300000D03*
X129529000Y-98700000D03*
X129529000Y-101300000D03*
X129929000Y-98700000D03*
X129929000Y-101300000D03*
G04 #@! TD*
D15*
G04 #@! TO.C,C1*
X131944000Y-102400000D03*
X132584000Y-102400000D03*
G04 #@! TD*
M02*
