G04 #@! TF.GenerationSoftware,KiCad,Pcbnew,9.0.2+dfsg-1*
G04 #@! TF.CreationDate,2026-10-04T09:33:18-04:00*
G04 #@! TF.ProjectId,mod_hdmi,6d6f645f-6864-46d6-992e-6b696361645f,A1*
G04 #@! TF.SameCoordinates,Original*
G04 #@! TF.FileFunction,Other,User*
%FSLAX46Y46*%
G04 Gerber Fmt 4.6, Leading zero omitted, Abs format (unit mm)*
G04 Created by KiCad (PCBNEW 9.0.2+dfsg-1) date 2026-10-04 09:33:18*
%MOMM*%
%LPD*%
G01*
G04 APERTURE LIST*
%ADD10C,0.100000*%
%ADD11C,0.084000*%
G04 APERTURE END LIST*
D10*
X109600000Y-95300000D02*
X90400000Y-95300000D01*
X134559000Y-96800000D02*
X119214000Y-96800000D01*
X109600000Y-104700000D02*
X109600000Y-95300000D01*
X119214000Y-96800000D02*
X119214000Y-103200000D01*
X119214000Y-103200000D02*
X134559000Y-103200000D01*
X90400000Y-104700000D02*
X109600000Y-104700000D01*
X134559000Y-103200000D02*
X134559000Y-96800000D01*
X90400000Y-95300000D02*
X90400000Y-104700000D01*
D11*
X114771856Y-104158917D02*
X114571856Y-104158917D01*
X114571856Y-104473203D02*
X114571856Y-103873203D01*
X114571856Y-103873203D02*
X114857570Y-103873203D01*
X115428999Y-104473203D02*
X115228999Y-104187489D01*
X115086142Y-104473203D02*
X115086142Y-103873203D01*
X115086142Y-103873203D02*
X115314713Y-103873203D01*
X115314713Y-103873203D02*
X115371856Y-103901774D01*
X115371856Y-103901774D02*
X115400427Y-103930346D01*
X115400427Y-103930346D02*
X115428999Y-103987489D01*
X115428999Y-103987489D02*
X115428999Y-104073203D01*
X115428999Y-104073203D02*
X115400427Y-104130346D01*
X115400427Y-104130346D02*
X115371856Y-104158917D01*
X115371856Y-104158917D02*
X115314713Y-104187489D01*
X115314713Y-104187489D02*
X115086142Y-104187489D01*
X115943285Y-104073203D02*
X115943285Y-104473203D01*
X115800427Y-103844632D02*
X115657570Y-104273203D01*
X115657570Y-104273203D02*
X116028999Y-104273203D01*
X116828999Y-103873203D02*
X116886142Y-103873203D01*
X116886142Y-103873203D02*
X116943285Y-103901774D01*
X116943285Y-103901774D02*
X116971857Y-103930346D01*
X116971857Y-103930346D02*
X117000428Y-103987489D01*
X117000428Y-103987489D02*
X117028999Y-104101774D01*
X117028999Y-104101774D02*
X117028999Y-104244632D01*
X117028999Y-104244632D02*
X117000428Y-104358917D01*
X117000428Y-104358917D02*
X116971857Y-104416060D01*
X116971857Y-104416060D02*
X116943285Y-104444632D01*
X116943285Y-104444632D02*
X116886142Y-104473203D01*
X116886142Y-104473203D02*
X116828999Y-104473203D01*
X116828999Y-104473203D02*
X116771857Y-104444632D01*
X116771857Y-104444632D02*
X116743285Y-104416060D01*
X116743285Y-104416060D02*
X116714714Y-104358917D01*
X116714714Y-104358917D02*
X116686142Y-104244632D01*
X116686142Y-104244632D02*
X116686142Y-104101774D01*
X116686142Y-104101774D02*
X116714714Y-103987489D01*
X116714714Y-103987489D02*
X116743285Y-103930346D01*
X116743285Y-103930346D02*
X116771857Y-103901774D01*
X116771857Y-103901774D02*
X116828999Y-103873203D01*
X117286143Y-104416060D02*
X117314714Y-104444632D01*
X117314714Y-104444632D02*
X117286143Y-104473203D01*
X117286143Y-104473203D02*
X117257571Y-104444632D01*
X117257571Y-104444632D02*
X117286143Y-104416060D01*
X117286143Y-104416060D02*
X117286143Y-104473203D01*
X117829000Y-103873203D02*
X117714714Y-103873203D01*
X117714714Y-103873203D02*
X117657571Y-103901774D01*
X117657571Y-103901774D02*
X117629000Y-103930346D01*
X117629000Y-103930346D02*
X117571857Y-104016060D01*
X117571857Y-104016060D02*
X117543285Y-104130346D01*
X117543285Y-104130346D02*
X117543285Y-104358917D01*
X117543285Y-104358917D02*
X117571857Y-104416060D01*
X117571857Y-104416060D02*
X117600428Y-104444632D01*
X117600428Y-104444632D02*
X117657571Y-104473203D01*
X117657571Y-104473203D02*
X117771857Y-104473203D01*
X117771857Y-104473203D02*
X117829000Y-104444632D01*
X117829000Y-104444632D02*
X117857571Y-104416060D01*
X117857571Y-104416060D02*
X117886142Y-104358917D01*
X117886142Y-104358917D02*
X117886142Y-104216060D01*
X117886142Y-104216060D02*
X117857571Y-104158917D01*
X117857571Y-104158917D02*
X117829000Y-104130346D01*
X117829000Y-104130346D02*
X117771857Y-104101774D01*
X117771857Y-104101774D02*
X117657571Y-104101774D01*
X117657571Y-104101774D02*
X117600428Y-104130346D01*
X117600428Y-104130346D02*
X117571857Y-104158917D01*
X117571857Y-104158917D02*
X117543285Y-104216060D01*
X118571857Y-104444632D02*
X118629000Y-104473203D01*
X118629000Y-104473203D02*
X118743286Y-104473203D01*
X118743286Y-104473203D02*
X118800429Y-104444632D01*
X118800429Y-104444632D02*
X118829000Y-104387489D01*
X118829000Y-104387489D02*
X118829000Y-104358917D01*
X118829000Y-104358917D02*
X118800429Y-104301774D01*
X118800429Y-104301774D02*
X118743286Y-104273203D01*
X118743286Y-104273203D02*
X118657572Y-104273203D01*
X118657572Y-104273203D02*
X118600429Y-104244632D01*
X118600429Y-104244632D02*
X118571857Y-104187489D01*
X118571857Y-104187489D02*
X118571857Y-104158917D01*
X118571857Y-104158917D02*
X118600429Y-104101774D01*
X118600429Y-104101774D02*
X118657572Y-104073203D01*
X118657572Y-104073203D02*
X118743286Y-104073203D01*
X118743286Y-104073203D02*
X118800429Y-104101774D01*
X119000428Y-104073203D02*
X119229000Y-104073203D01*
X119086143Y-103873203D02*
X119086143Y-104387489D01*
X119086143Y-104387489D02*
X119114714Y-104444632D01*
X119114714Y-104444632D02*
X119171857Y-104473203D01*
X119171857Y-104473203D02*
X119229000Y-104473203D01*
X119429000Y-104473203D02*
X119429000Y-104073203D01*
X119429000Y-103873203D02*
X119400428Y-103901774D01*
X119400428Y-103901774D02*
X119429000Y-103930346D01*
X119429000Y-103930346D02*
X119457571Y-103901774D01*
X119457571Y-103901774D02*
X119429000Y-103873203D01*
X119429000Y-103873203D02*
X119429000Y-103930346D01*
X119628999Y-104073203D02*
X119857571Y-104073203D01*
X119714714Y-104473203D02*
X119714714Y-103958917D01*
X119714714Y-103958917D02*
X119743285Y-103901774D01*
X119743285Y-103901774D02*
X119800428Y-103873203D01*
X119800428Y-103873203D02*
X119857571Y-103873203D01*
X119971856Y-104073203D02*
X120200428Y-104073203D01*
X120057571Y-104473203D02*
X120057571Y-103958917D01*
X120057571Y-103958917D02*
X120086142Y-103901774D01*
X120086142Y-103901774D02*
X120143285Y-103873203D01*
X120143285Y-103873203D02*
X120200428Y-103873203D01*
X120628999Y-104444632D02*
X120571856Y-104473203D01*
X120571856Y-104473203D02*
X120457571Y-104473203D01*
X120457571Y-104473203D02*
X120400428Y-104444632D01*
X120400428Y-104444632D02*
X120371856Y-104387489D01*
X120371856Y-104387489D02*
X120371856Y-104158917D01*
X120371856Y-104158917D02*
X120400428Y-104101774D01*
X120400428Y-104101774D02*
X120457571Y-104073203D01*
X120457571Y-104073203D02*
X120571856Y-104073203D01*
X120571856Y-104073203D02*
X120628999Y-104101774D01*
X120628999Y-104101774D02*
X120657571Y-104158917D01*
X120657571Y-104158917D02*
X120657571Y-104216060D01*
X120657571Y-104216060D02*
X120371856Y-104273203D01*
X120914714Y-104073203D02*
X120914714Y-104473203D01*
X120914714Y-104130346D02*
X120943285Y-104101774D01*
X120943285Y-104101774D02*
X121000428Y-104073203D01*
X121000428Y-104073203D02*
X121086142Y-104073203D01*
X121086142Y-104073203D02*
X121143285Y-104101774D01*
X121143285Y-104101774D02*
X121171857Y-104158917D01*
X121171857Y-104158917D02*
X121171857Y-104473203D01*
X121686142Y-104444632D02*
X121628999Y-104473203D01*
X121628999Y-104473203D02*
X121514714Y-104473203D01*
X121514714Y-104473203D02*
X121457571Y-104444632D01*
X121457571Y-104444632D02*
X121428999Y-104387489D01*
X121428999Y-104387489D02*
X121428999Y-104158917D01*
X121428999Y-104158917D02*
X121457571Y-104101774D01*
X121457571Y-104101774D02*
X121514714Y-104073203D01*
X121514714Y-104073203D02*
X121628999Y-104073203D01*
X121628999Y-104073203D02*
X121686142Y-104101774D01*
X121686142Y-104101774D02*
X121714714Y-104158917D01*
X121714714Y-104158917D02*
X121714714Y-104216060D01*
X121714714Y-104216060D02*
X121428999Y-104273203D01*
X121971857Y-104473203D02*
X121971857Y-104073203D01*
X121971857Y-104187489D02*
X122000428Y-104130346D01*
X122000428Y-104130346D02*
X122029000Y-104101774D01*
X122029000Y-104101774D02*
X122086142Y-104073203D01*
X122086142Y-104073203D02*
X122143285Y-104073203D01*
X122971857Y-104701774D02*
X122943286Y-104673203D01*
X122943286Y-104673203D02*
X122886143Y-104587489D01*
X122886143Y-104587489D02*
X122857572Y-104530346D01*
X122857572Y-104530346D02*
X122829000Y-104444632D01*
X122829000Y-104444632D02*
X122800429Y-104301774D01*
X122800429Y-104301774D02*
X122800429Y-104187489D01*
X122800429Y-104187489D02*
X122829000Y-104044632D01*
X122829000Y-104044632D02*
X122857572Y-103958917D01*
X122857572Y-103958917D02*
X122886143Y-103901774D01*
X122886143Y-103901774D02*
X122943286Y-103816060D01*
X122943286Y-103816060D02*
X122971857Y-103787489D01*
X123400429Y-104158917D02*
X123486143Y-104187489D01*
X123486143Y-104187489D02*
X123514714Y-104216060D01*
X123514714Y-104216060D02*
X123543286Y-104273203D01*
X123543286Y-104273203D02*
X123543286Y-104358917D01*
X123543286Y-104358917D02*
X123514714Y-104416060D01*
X123514714Y-104416060D02*
X123486143Y-104444632D01*
X123486143Y-104444632D02*
X123429000Y-104473203D01*
X123429000Y-104473203D02*
X123200429Y-104473203D01*
X123200429Y-104473203D02*
X123200429Y-103873203D01*
X123200429Y-103873203D02*
X123400429Y-103873203D01*
X123400429Y-103873203D02*
X123457572Y-103901774D01*
X123457572Y-103901774D02*
X123486143Y-103930346D01*
X123486143Y-103930346D02*
X123514714Y-103987489D01*
X123514714Y-103987489D02*
X123514714Y-104044632D01*
X123514714Y-104044632D02*
X123486143Y-104101774D01*
X123486143Y-104101774D02*
X123457572Y-104130346D01*
X123457572Y-104130346D02*
X123400429Y-104158917D01*
X123400429Y-104158917D02*
X123200429Y-104158917D01*
X123743286Y-104701774D02*
X123771857Y-104673203D01*
X123771857Y-104673203D02*
X123829000Y-104587489D01*
X123829000Y-104587489D02*
X123857572Y-104530346D01*
X123857572Y-104530346D02*
X123886143Y-104444632D01*
X123886143Y-104444632D02*
X123914714Y-104301774D01*
X123914714Y-104301774D02*
X123914714Y-104187489D01*
X123914714Y-104187489D02*
X123886143Y-104044632D01*
X123886143Y-104044632D02*
X123857572Y-103958917D01*
X123857572Y-103958917D02*
X123829000Y-103901774D01*
X123829000Y-103901774D02*
X123771857Y-103816060D01*
X123771857Y-103816060D02*
X123743286Y-103787489D01*
X124914715Y-104073203D02*
X124914715Y-104473203D01*
X124657572Y-104073203D02*
X124657572Y-104387489D01*
X124657572Y-104387489D02*
X124686143Y-104444632D01*
X124686143Y-104444632D02*
X124743286Y-104473203D01*
X124743286Y-104473203D02*
X124829000Y-104473203D01*
X124829000Y-104473203D02*
X124886143Y-104444632D01*
X124886143Y-104444632D02*
X124914715Y-104416060D01*
X125200429Y-104073203D02*
X125200429Y-104473203D01*
X125200429Y-104130346D02*
X125229000Y-104101774D01*
X125229000Y-104101774D02*
X125286143Y-104073203D01*
X125286143Y-104073203D02*
X125371857Y-104073203D01*
X125371857Y-104073203D02*
X125429000Y-104101774D01*
X125429000Y-104101774D02*
X125457572Y-104158917D01*
X125457572Y-104158917D02*
X125457572Y-104473203D01*
X126000429Y-104473203D02*
X126000429Y-103873203D01*
X126000429Y-104444632D02*
X125943286Y-104473203D01*
X125943286Y-104473203D02*
X125829000Y-104473203D01*
X125829000Y-104473203D02*
X125771857Y-104444632D01*
X125771857Y-104444632D02*
X125743286Y-104416060D01*
X125743286Y-104416060D02*
X125714714Y-104358917D01*
X125714714Y-104358917D02*
X125714714Y-104187489D01*
X125714714Y-104187489D02*
X125743286Y-104130346D01*
X125743286Y-104130346D02*
X125771857Y-104101774D01*
X125771857Y-104101774D02*
X125829000Y-104073203D01*
X125829000Y-104073203D02*
X125943286Y-104073203D01*
X125943286Y-104073203D02*
X126000429Y-104101774D01*
X126514714Y-104444632D02*
X126457571Y-104473203D01*
X126457571Y-104473203D02*
X126343286Y-104473203D01*
X126343286Y-104473203D02*
X126286143Y-104444632D01*
X126286143Y-104444632D02*
X126257571Y-104387489D01*
X126257571Y-104387489D02*
X126257571Y-104158917D01*
X126257571Y-104158917D02*
X126286143Y-104101774D01*
X126286143Y-104101774D02*
X126343286Y-104073203D01*
X126343286Y-104073203D02*
X126457571Y-104073203D01*
X126457571Y-104073203D02*
X126514714Y-104101774D01*
X126514714Y-104101774D02*
X126543286Y-104158917D01*
X126543286Y-104158917D02*
X126543286Y-104216060D01*
X126543286Y-104216060D02*
X126257571Y-104273203D01*
X126800429Y-104473203D02*
X126800429Y-104073203D01*
X126800429Y-104187489D02*
X126829000Y-104130346D01*
X126829000Y-104130346D02*
X126857572Y-104101774D01*
X126857572Y-104101774D02*
X126914714Y-104073203D01*
X126914714Y-104073203D02*
X126971857Y-104073203D01*
X127543286Y-104073203D02*
X127771858Y-104073203D01*
X127629001Y-103873203D02*
X127629001Y-104387489D01*
X127629001Y-104387489D02*
X127657572Y-104444632D01*
X127657572Y-104444632D02*
X127714715Y-104473203D01*
X127714715Y-104473203D02*
X127771858Y-104473203D01*
X127971858Y-104473203D02*
X127971858Y-103873203D01*
X128229001Y-104473203D02*
X128229001Y-104158917D01*
X128229001Y-104158917D02*
X128200429Y-104101774D01*
X128200429Y-104101774D02*
X128143286Y-104073203D01*
X128143286Y-104073203D02*
X128057572Y-104073203D01*
X128057572Y-104073203D02*
X128000429Y-104101774D01*
X128000429Y-104101774D02*
X127971858Y-104130346D01*
X128743286Y-104444632D02*
X128686143Y-104473203D01*
X128686143Y-104473203D02*
X128571858Y-104473203D01*
X128571858Y-104473203D02*
X128514715Y-104444632D01*
X128514715Y-104444632D02*
X128486143Y-104387489D01*
X128486143Y-104387489D02*
X128486143Y-104158917D01*
X128486143Y-104158917D02*
X128514715Y-104101774D01*
X128514715Y-104101774D02*
X128571858Y-104073203D01*
X128571858Y-104073203D02*
X128686143Y-104073203D01*
X128686143Y-104073203D02*
X128743286Y-104101774D01*
X128743286Y-104101774D02*
X128771858Y-104158917D01*
X128771858Y-104158917D02*
X128771858Y-104216060D01*
X128771858Y-104216060D02*
X128486143Y-104273203D01*
X129486144Y-104473203D02*
X129486144Y-103873203D01*
X129743287Y-104473203D02*
X129743287Y-104158917D01*
X129743287Y-104158917D02*
X129714715Y-104101774D01*
X129714715Y-104101774D02*
X129657572Y-104073203D01*
X129657572Y-104073203D02*
X129571858Y-104073203D01*
X129571858Y-104073203D02*
X129514715Y-104101774D01*
X129514715Y-104101774D02*
X129486144Y-104130346D01*
X130257572Y-104444632D02*
X130200429Y-104473203D01*
X130200429Y-104473203D02*
X130086144Y-104473203D01*
X130086144Y-104473203D02*
X130029001Y-104444632D01*
X130029001Y-104444632D02*
X130000429Y-104387489D01*
X130000429Y-104387489D02*
X130000429Y-104158917D01*
X130000429Y-104158917D02*
X130029001Y-104101774D01*
X130029001Y-104101774D02*
X130086144Y-104073203D01*
X130086144Y-104073203D02*
X130200429Y-104073203D01*
X130200429Y-104073203D02*
X130257572Y-104101774D01*
X130257572Y-104101774D02*
X130286144Y-104158917D01*
X130286144Y-104158917D02*
X130286144Y-104216060D01*
X130286144Y-104216060D02*
X130000429Y-104273203D01*
X130800430Y-104473203D02*
X130800430Y-104158917D01*
X130800430Y-104158917D02*
X130771858Y-104101774D01*
X130771858Y-104101774D02*
X130714715Y-104073203D01*
X130714715Y-104073203D02*
X130600430Y-104073203D01*
X130600430Y-104073203D02*
X130543287Y-104101774D01*
X130800430Y-104444632D02*
X130743287Y-104473203D01*
X130743287Y-104473203D02*
X130600430Y-104473203D01*
X130600430Y-104473203D02*
X130543287Y-104444632D01*
X130543287Y-104444632D02*
X130514715Y-104387489D01*
X130514715Y-104387489D02*
X130514715Y-104330346D01*
X130514715Y-104330346D02*
X130543287Y-104273203D01*
X130543287Y-104273203D02*
X130600430Y-104244632D01*
X130600430Y-104244632D02*
X130743287Y-104244632D01*
X130743287Y-104244632D02*
X130800430Y-104216060D01*
X131343287Y-104473203D02*
X131343287Y-103873203D01*
X131343287Y-104444632D02*
X131286144Y-104473203D01*
X131286144Y-104473203D02*
X131171858Y-104473203D01*
X131171858Y-104473203D02*
X131114715Y-104444632D01*
X131114715Y-104444632D02*
X131086144Y-104416060D01*
X131086144Y-104416060D02*
X131057572Y-104358917D01*
X131057572Y-104358917D02*
X131057572Y-104187489D01*
X131057572Y-104187489D02*
X131086144Y-104130346D01*
X131086144Y-104130346D02*
X131114715Y-104101774D01*
X131114715Y-104101774D02*
X131171858Y-104073203D01*
X131171858Y-104073203D02*
X131286144Y-104073203D01*
X131286144Y-104073203D02*
X131343287Y-104101774D01*
X131857572Y-104444632D02*
X131800429Y-104473203D01*
X131800429Y-104473203D02*
X131686144Y-104473203D01*
X131686144Y-104473203D02*
X131629001Y-104444632D01*
X131629001Y-104444632D02*
X131600429Y-104387489D01*
X131600429Y-104387489D02*
X131600429Y-104158917D01*
X131600429Y-104158917D02*
X131629001Y-104101774D01*
X131629001Y-104101774D02*
X131686144Y-104073203D01*
X131686144Y-104073203D02*
X131800429Y-104073203D01*
X131800429Y-104073203D02*
X131857572Y-104101774D01*
X131857572Y-104101774D02*
X131886144Y-104158917D01*
X131886144Y-104158917D02*
X131886144Y-104216060D01*
X131886144Y-104216060D02*
X131600429Y-104273203D01*
X132143287Y-104473203D02*
X132143287Y-104073203D01*
X132143287Y-104187489D02*
X132171858Y-104130346D01*
X132171858Y-104130346D02*
X132200430Y-104101774D01*
X132200430Y-104101774D02*
X132257572Y-104073203D01*
X132257572Y-104073203D02*
X132314715Y-104073203D01*
X132971859Y-104073203D02*
X132971859Y-104673203D01*
X132971859Y-104101774D02*
X133029002Y-104073203D01*
X133029002Y-104073203D02*
X133143287Y-104073203D01*
X133143287Y-104073203D02*
X133200430Y-104101774D01*
X133200430Y-104101774D02*
X133229002Y-104130346D01*
X133229002Y-104130346D02*
X133257573Y-104187489D01*
X133257573Y-104187489D02*
X133257573Y-104358917D01*
X133257573Y-104358917D02*
X133229002Y-104416060D01*
X133229002Y-104416060D02*
X133200430Y-104444632D01*
X133200430Y-104444632D02*
X133143287Y-104473203D01*
X133143287Y-104473203D02*
X133029002Y-104473203D01*
X133029002Y-104473203D02*
X132971859Y-104444632D01*
X133771859Y-104473203D02*
X133771859Y-104158917D01*
X133771859Y-104158917D02*
X133743287Y-104101774D01*
X133743287Y-104101774D02*
X133686144Y-104073203D01*
X133686144Y-104073203D02*
X133571859Y-104073203D01*
X133571859Y-104073203D02*
X133514716Y-104101774D01*
X133771859Y-104444632D02*
X133714716Y-104473203D01*
X133714716Y-104473203D02*
X133571859Y-104473203D01*
X133571859Y-104473203D02*
X133514716Y-104444632D01*
X133514716Y-104444632D02*
X133486144Y-104387489D01*
X133486144Y-104387489D02*
X133486144Y-104330346D01*
X133486144Y-104330346D02*
X133514716Y-104273203D01*
X133514716Y-104273203D02*
X133571859Y-104244632D01*
X133571859Y-104244632D02*
X133714716Y-104244632D01*
X133714716Y-104244632D02*
X133771859Y-104216060D01*
X134314716Y-104473203D02*
X134314716Y-103873203D01*
X134314716Y-104444632D02*
X134257573Y-104473203D01*
X134257573Y-104473203D02*
X134143287Y-104473203D01*
X134143287Y-104473203D02*
X134086144Y-104444632D01*
X134086144Y-104444632D02*
X134057573Y-104416060D01*
X134057573Y-104416060D02*
X134029001Y-104358917D01*
X134029001Y-104358917D02*
X134029001Y-104187489D01*
X134029001Y-104187489D02*
X134057573Y-104130346D01*
X134057573Y-104130346D02*
X134086144Y-104101774D01*
X134086144Y-104101774D02*
X134143287Y-104073203D01*
X134143287Y-104073203D02*
X134257573Y-104073203D01*
X134257573Y-104073203D02*
X134314716Y-104101774D01*
X134857573Y-104473203D02*
X134857573Y-103873203D01*
X134857573Y-104444632D02*
X134800430Y-104473203D01*
X134800430Y-104473203D02*
X134686144Y-104473203D01*
X134686144Y-104473203D02*
X134629001Y-104444632D01*
X134629001Y-104444632D02*
X134600430Y-104416060D01*
X134600430Y-104416060D02*
X134571858Y-104358917D01*
X134571858Y-104358917D02*
X134571858Y-104187489D01*
X134571858Y-104187489D02*
X134600430Y-104130346D01*
X134600430Y-104130346D02*
X134629001Y-104101774D01*
X134629001Y-104101774D02*
X134686144Y-104073203D01*
X134686144Y-104073203D02*
X134800430Y-104073203D01*
X134800430Y-104073203D02*
X134857573Y-104101774D01*
X135229001Y-104473203D02*
X135171858Y-104444632D01*
X135171858Y-104444632D02*
X135143287Y-104387489D01*
X135143287Y-104387489D02*
X135143287Y-103873203D01*
X135686144Y-104444632D02*
X135629001Y-104473203D01*
X135629001Y-104473203D02*
X135514716Y-104473203D01*
X135514716Y-104473203D02*
X135457573Y-104444632D01*
X135457573Y-104444632D02*
X135429001Y-104387489D01*
X135429001Y-104387489D02*
X135429001Y-104158917D01*
X135429001Y-104158917D02*
X135457573Y-104101774D01*
X135457573Y-104101774D02*
X135514716Y-104073203D01*
X135514716Y-104073203D02*
X135629001Y-104073203D01*
X135629001Y-104073203D02*
X135686144Y-104101774D01*
X135686144Y-104101774D02*
X135714716Y-104158917D01*
X135714716Y-104158917D02*
X135714716Y-104216060D01*
X135714716Y-104216060D02*
X135429001Y-104273203D01*
X90771427Y-105658917D02*
X90571427Y-105658917D01*
X90571427Y-105973203D02*
X90571427Y-105373203D01*
X90571427Y-105373203D02*
X90857141Y-105373203D01*
X91428570Y-105973203D02*
X91228570Y-105687489D01*
X91085713Y-105973203D02*
X91085713Y-105373203D01*
X91085713Y-105373203D02*
X91314284Y-105373203D01*
X91314284Y-105373203D02*
X91371427Y-105401774D01*
X91371427Y-105401774D02*
X91399998Y-105430346D01*
X91399998Y-105430346D02*
X91428570Y-105487489D01*
X91428570Y-105487489D02*
X91428570Y-105573203D01*
X91428570Y-105573203D02*
X91399998Y-105630346D01*
X91399998Y-105630346D02*
X91371427Y-105658917D01*
X91371427Y-105658917D02*
X91314284Y-105687489D01*
X91314284Y-105687489D02*
X91085713Y-105687489D01*
X91942856Y-105573203D02*
X91942856Y-105973203D01*
X91799998Y-105344632D02*
X91657141Y-105773203D01*
X91657141Y-105773203D02*
X92028570Y-105773203D01*
X93028570Y-105973203D02*
X92685713Y-105973203D01*
X92857142Y-105973203D02*
X92857142Y-105373203D01*
X92857142Y-105373203D02*
X92799999Y-105458917D01*
X92799999Y-105458917D02*
X92742856Y-105516060D01*
X92742856Y-105516060D02*
X92685713Y-105544632D01*
X93285714Y-105916060D02*
X93314285Y-105944632D01*
X93314285Y-105944632D02*
X93285714Y-105973203D01*
X93285714Y-105973203D02*
X93257142Y-105944632D01*
X93257142Y-105944632D02*
X93285714Y-105916060D01*
X93285714Y-105916060D02*
X93285714Y-105973203D01*
X93685713Y-105373203D02*
X93742856Y-105373203D01*
X93742856Y-105373203D02*
X93799999Y-105401774D01*
X93799999Y-105401774D02*
X93828571Y-105430346D01*
X93828571Y-105430346D02*
X93857142Y-105487489D01*
X93857142Y-105487489D02*
X93885713Y-105601774D01*
X93885713Y-105601774D02*
X93885713Y-105744632D01*
X93885713Y-105744632D02*
X93857142Y-105858917D01*
X93857142Y-105858917D02*
X93828571Y-105916060D01*
X93828571Y-105916060D02*
X93799999Y-105944632D01*
X93799999Y-105944632D02*
X93742856Y-105973203D01*
X93742856Y-105973203D02*
X93685713Y-105973203D01*
X93685713Y-105973203D02*
X93628571Y-105944632D01*
X93628571Y-105944632D02*
X93599999Y-105916060D01*
X93599999Y-105916060D02*
X93571428Y-105858917D01*
X93571428Y-105858917D02*
X93542856Y-105744632D01*
X93542856Y-105744632D02*
X93542856Y-105601774D01*
X93542856Y-105601774D02*
X93571428Y-105487489D01*
X93571428Y-105487489D02*
X93599999Y-105430346D01*
X93599999Y-105430346D02*
X93628571Y-105401774D01*
X93628571Y-105401774D02*
X93685713Y-105373203D01*
X94571428Y-105944632D02*
X94628571Y-105973203D01*
X94628571Y-105973203D02*
X94742857Y-105973203D01*
X94742857Y-105973203D02*
X94800000Y-105944632D01*
X94800000Y-105944632D02*
X94828571Y-105887489D01*
X94828571Y-105887489D02*
X94828571Y-105858917D01*
X94828571Y-105858917D02*
X94800000Y-105801774D01*
X94800000Y-105801774D02*
X94742857Y-105773203D01*
X94742857Y-105773203D02*
X94657143Y-105773203D01*
X94657143Y-105773203D02*
X94600000Y-105744632D01*
X94600000Y-105744632D02*
X94571428Y-105687489D01*
X94571428Y-105687489D02*
X94571428Y-105658917D01*
X94571428Y-105658917D02*
X94600000Y-105601774D01*
X94600000Y-105601774D02*
X94657143Y-105573203D01*
X94657143Y-105573203D02*
X94742857Y-105573203D01*
X94742857Y-105573203D02*
X94800000Y-105601774D01*
X94999999Y-105573203D02*
X95228571Y-105573203D01*
X95085714Y-105373203D02*
X95085714Y-105887489D01*
X95085714Y-105887489D02*
X95114285Y-105944632D01*
X95114285Y-105944632D02*
X95171428Y-105973203D01*
X95171428Y-105973203D02*
X95228571Y-105973203D01*
X95428571Y-105973203D02*
X95428571Y-105573203D01*
X95428571Y-105373203D02*
X95399999Y-105401774D01*
X95399999Y-105401774D02*
X95428571Y-105430346D01*
X95428571Y-105430346D02*
X95457142Y-105401774D01*
X95457142Y-105401774D02*
X95428571Y-105373203D01*
X95428571Y-105373203D02*
X95428571Y-105430346D01*
X95628570Y-105573203D02*
X95857142Y-105573203D01*
X95714285Y-105973203D02*
X95714285Y-105458917D01*
X95714285Y-105458917D02*
X95742856Y-105401774D01*
X95742856Y-105401774D02*
X95799999Y-105373203D01*
X95799999Y-105373203D02*
X95857142Y-105373203D01*
X95971427Y-105573203D02*
X96199999Y-105573203D01*
X96057142Y-105973203D02*
X96057142Y-105458917D01*
X96057142Y-105458917D02*
X96085713Y-105401774D01*
X96085713Y-105401774D02*
X96142856Y-105373203D01*
X96142856Y-105373203D02*
X96199999Y-105373203D01*
X96628570Y-105944632D02*
X96571427Y-105973203D01*
X96571427Y-105973203D02*
X96457142Y-105973203D01*
X96457142Y-105973203D02*
X96399999Y-105944632D01*
X96399999Y-105944632D02*
X96371427Y-105887489D01*
X96371427Y-105887489D02*
X96371427Y-105658917D01*
X96371427Y-105658917D02*
X96399999Y-105601774D01*
X96399999Y-105601774D02*
X96457142Y-105573203D01*
X96457142Y-105573203D02*
X96571427Y-105573203D01*
X96571427Y-105573203D02*
X96628570Y-105601774D01*
X96628570Y-105601774D02*
X96657142Y-105658917D01*
X96657142Y-105658917D02*
X96657142Y-105716060D01*
X96657142Y-105716060D02*
X96371427Y-105773203D01*
X96914285Y-105573203D02*
X96914285Y-105973203D01*
X96914285Y-105630346D02*
X96942856Y-105601774D01*
X96942856Y-105601774D02*
X96999999Y-105573203D01*
X96999999Y-105573203D02*
X97085713Y-105573203D01*
X97085713Y-105573203D02*
X97142856Y-105601774D01*
X97142856Y-105601774D02*
X97171428Y-105658917D01*
X97171428Y-105658917D02*
X97171428Y-105973203D01*
X97685713Y-105944632D02*
X97628570Y-105973203D01*
X97628570Y-105973203D02*
X97514285Y-105973203D01*
X97514285Y-105973203D02*
X97457142Y-105944632D01*
X97457142Y-105944632D02*
X97428570Y-105887489D01*
X97428570Y-105887489D02*
X97428570Y-105658917D01*
X97428570Y-105658917D02*
X97457142Y-105601774D01*
X97457142Y-105601774D02*
X97514285Y-105573203D01*
X97514285Y-105573203D02*
X97628570Y-105573203D01*
X97628570Y-105573203D02*
X97685713Y-105601774D01*
X97685713Y-105601774D02*
X97714285Y-105658917D01*
X97714285Y-105658917D02*
X97714285Y-105716060D01*
X97714285Y-105716060D02*
X97428570Y-105773203D01*
X97971428Y-105973203D02*
X97971428Y-105573203D01*
X97971428Y-105687489D02*
X97999999Y-105630346D01*
X97999999Y-105630346D02*
X98028571Y-105601774D01*
X98028571Y-105601774D02*
X98085713Y-105573203D01*
X98085713Y-105573203D02*
X98142856Y-105573203D01*
X98971428Y-106201774D02*
X98942857Y-106173203D01*
X98942857Y-106173203D02*
X98885714Y-106087489D01*
X98885714Y-106087489D02*
X98857143Y-106030346D01*
X98857143Y-106030346D02*
X98828571Y-105944632D01*
X98828571Y-105944632D02*
X98800000Y-105801774D01*
X98800000Y-105801774D02*
X98800000Y-105687489D01*
X98800000Y-105687489D02*
X98828571Y-105544632D01*
X98828571Y-105544632D02*
X98857143Y-105458917D01*
X98857143Y-105458917D02*
X98885714Y-105401774D01*
X98885714Y-105401774D02*
X98942857Y-105316060D01*
X98942857Y-105316060D02*
X98971428Y-105287489D01*
X99400000Y-105658917D02*
X99485714Y-105687489D01*
X99485714Y-105687489D02*
X99514285Y-105716060D01*
X99514285Y-105716060D02*
X99542857Y-105773203D01*
X99542857Y-105773203D02*
X99542857Y-105858917D01*
X99542857Y-105858917D02*
X99514285Y-105916060D01*
X99514285Y-105916060D02*
X99485714Y-105944632D01*
X99485714Y-105944632D02*
X99428571Y-105973203D01*
X99428571Y-105973203D02*
X99200000Y-105973203D01*
X99200000Y-105973203D02*
X99200000Y-105373203D01*
X99200000Y-105373203D02*
X99400000Y-105373203D01*
X99400000Y-105373203D02*
X99457143Y-105401774D01*
X99457143Y-105401774D02*
X99485714Y-105430346D01*
X99485714Y-105430346D02*
X99514285Y-105487489D01*
X99514285Y-105487489D02*
X99514285Y-105544632D01*
X99514285Y-105544632D02*
X99485714Y-105601774D01*
X99485714Y-105601774D02*
X99457143Y-105630346D01*
X99457143Y-105630346D02*
X99400000Y-105658917D01*
X99400000Y-105658917D02*
X99200000Y-105658917D01*
X99828571Y-105944632D02*
X99828571Y-105973203D01*
X99828571Y-105973203D02*
X99800000Y-106030346D01*
X99800000Y-106030346D02*
X99771428Y-106058917D01*
X100542857Y-105973203D02*
X100542857Y-105373203D01*
X100542857Y-105373203D02*
X100771428Y-105373203D01*
X100771428Y-105373203D02*
X100828571Y-105401774D01*
X100828571Y-105401774D02*
X100857142Y-105430346D01*
X100857142Y-105430346D02*
X100885714Y-105487489D01*
X100885714Y-105487489D02*
X100885714Y-105573203D01*
X100885714Y-105573203D02*
X100857142Y-105630346D01*
X100857142Y-105630346D02*
X100828571Y-105658917D01*
X100828571Y-105658917D02*
X100771428Y-105687489D01*
X100771428Y-105687489D02*
X100542857Y-105687489D01*
X101114285Y-105944632D02*
X101200000Y-105973203D01*
X101200000Y-105973203D02*
X101342857Y-105973203D01*
X101342857Y-105973203D02*
X101400000Y-105944632D01*
X101400000Y-105944632D02*
X101428571Y-105916060D01*
X101428571Y-105916060D02*
X101457142Y-105858917D01*
X101457142Y-105858917D02*
X101457142Y-105801774D01*
X101457142Y-105801774D02*
X101428571Y-105744632D01*
X101428571Y-105744632D02*
X101400000Y-105716060D01*
X101400000Y-105716060D02*
X101342857Y-105687489D01*
X101342857Y-105687489D02*
X101228571Y-105658917D01*
X101228571Y-105658917D02*
X101171428Y-105630346D01*
X101171428Y-105630346D02*
X101142857Y-105601774D01*
X101142857Y-105601774D02*
X101114285Y-105544632D01*
X101114285Y-105544632D02*
X101114285Y-105487489D01*
X101114285Y-105487489D02*
X101142857Y-105430346D01*
X101142857Y-105430346D02*
X101171428Y-105401774D01*
X101171428Y-105401774D02*
X101228571Y-105373203D01*
X101228571Y-105373203D02*
X101371428Y-105373203D01*
X101371428Y-105373203D02*
X101457142Y-105401774D01*
X101685714Y-105801774D02*
X101971429Y-105801774D01*
X101628571Y-105973203D02*
X101828571Y-105373203D01*
X101828571Y-105373203D02*
X102028571Y-105973203D01*
X102171429Y-106201774D02*
X102200000Y-106173203D01*
X102200000Y-106173203D02*
X102257143Y-106087489D01*
X102257143Y-106087489D02*
X102285715Y-106030346D01*
X102285715Y-106030346D02*
X102314286Y-105944632D01*
X102314286Y-105944632D02*
X102342857Y-105801774D01*
X102342857Y-105801774D02*
X102342857Y-105687489D01*
X102342857Y-105687489D02*
X102314286Y-105544632D01*
X102314286Y-105544632D02*
X102285715Y-105458917D01*
X102285715Y-105458917D02*
X102257143Y-105401774D01*
X102257143Y-105401774D02*
X102200000Y-105316060D01*
X102200000Y-105316060D02*
X102171429Y-105287489D01*
X103342858Y-105573203D02*
X103342858Y-105973203D01*
X103085715Y-105573203D02*
X103085715Y-105887489D01*
X103085715Y-105887489D02*
X103114286Y-105944632D01*
X103114286Y-105944632D02*
X103171429Y-105973203D01*
X103171429Y-105973203D02*
X103257143Y-105973203D01*
X103257143Y-105973203D02*
X103314286Y-105944632D01*
X103314286Y-105944632D02*
X103342858Y-105916060D01*
X103628572Y-105573203D02*
X103628572Y-105973203D01*
X103628572Y-105630346D02*
X103657143Y-105601774D01*
X103657143Y-105601774D02*
X103714286Y-105573203D01*
X103714286Y-105573203D02*
X103800000Y-105573203D01*
X103800000Y-105573203D02*
X103857143Y-105601774D01*
X103857143Y-105601774D02*
X103885715Y-105658917D01*
X103885715Y-105658917D02*
X103885715Y-105973203D01*
X104428572Y-105973203D02*
X104428572Y-105373203D01*
X104428572Y-105944632D02*
X104371429Y-105973203D01*
X104371429Y-105973203D02*
X104257143Y-105973203D01*
X104257143Y-105973203D02*
X104200000Y-105944632D01*
X104200000Y-105944632D02*
X104171429Y-105916060D01*
X104171429Y-105916060D02*
X104142857Y-105858917D01*
X104142857Y-105858917D02*
X104142857Y-105687489D01*
X104142857Y-105687489D02*
X104171429Y-105630346D01*
X104171429Y-105630346D02*
X104200000Y-105601774D01*
X104200000Y-105601774D02*
X104257143Y-105573203D01*
X104257143Y-105573203D02*
X104371429Y-105573203D01*
X104371429Y-105573203D02*
X104428572Y-105601774D01*
X104942857Y-105944632D02*
X104885714Y-105973203D01*
X104885714Y-105973203D02*
X104771429Y-105973203D01*
X104771429Y-105973203D02*
X104714286Y-105944632D01*
X104714286Y-105944632D02*
X104685714Y-105887489D01*
X104685714Y-105887489D02*
X104685714Y-105658917D01*
X104685714Y-105658917D02*
X104714286Y-105601774D01*
X104714286Y-105601774D02*
X104771429Y-105573203D01*
X104771429Y-105573203D02*
X104885714Y-105573203D01*
X104885714Y-105573203D02*
X104942857Y-105601774D01*
X104942857Y-105601774D02*
X104971429Y-105658917D01*
X104971429Y-105658917D02*
X104971429Y-105716060D01*
X104971429Y-105716060D02*
X104685714Y-105773203D01*
X105228572Y-105973203D02*
X105228572Y-105573203D01*
X105228572Y-105687489D02*
X105257143Y-105630346D01*
X105257143Y-105630346D02*
X105285715Y-105601774D01*
X105285715Y-105601774D02*
X105342857Y-105573203D01*
X105342857Y-105573203D02*
X105400000Y-105573203D01*
X105971429Y-105573203D02*
X106200001Y-105573203D01*
X106057144Y-105373203D02*
X106057144Y-105887489D01*
X106057144Y-105887489D02*
X106085715Y-105944632D01*
X106085715Y-105944632D02*
X106142858Y-105973203D01*
X106142858Y-105973203D02*
X106200001Y-105973203D01*
X106400001Y-105973203D02*
X106400001Y-105373203D01*
X106657144Y-105973203D02*
X106657144Y-105658917D01*
X106657144Y-105658917D02*
X106628572Y-105601774D01*
X106628572Y-105601774D02*
X106571429Y-105573203D01*
X106571429Y-105573203D02*
X106485715Y-105573203D01*
X106485715Y-105573203D02*
X106428572Y-105601774D01*
X106428572Y-105601774D02*
X106400001Y-105630346D01*
X107171429Y-105944632D02*
X107114286Y-105973203D01*
X107114286Y-105973203D02*
X107000001Y-105973203D01*
X107000001Y-105973203D02*
X106942858Y-105944632D01*
X106942858Y-105944632D02*
X106914286Y-105887489D01*
X106914286Y-105887489D02*
X106914286Y-105658917D01*
X106914286Y-105658917D02*
X106942858Y-105601774D01*
X106942858Y-105601774D02*
X107000001Y-105573203D01*
X107000001Y-105573203D02*
X107114286Y-105573203D01*
X107114286Y-105573203D02*
X107171429Y-105601774D01*
X107171429Y-105601774D02*
X107200001Y-105658917D01*
X107200001Y-105658917D02*
X107200001Y-105716060D01*
X107200001Y-105716060D02*
X106914286Y-105773203D01*
X107914287Y-105573203D02*
X107914287Y-106173203D01*
X107914287Y-105601774D02*
X107971430Y-105573203D01*
X107971430Y-105573203D02*
X108085715Y-105573203D01*
X108085715Y-105573203D02*
X108142858Y-105601774D01*
X108142858Y-105601774D02*
X108171430Y-105630346D01*
X108171430Y-105630346D02*
X108200001Y-105687489D01*
X108200001Y-105687489D02*
X108200001Y-105858917D01*
X108200001Y-105858917D02*
X108171430Y-105916060D01*
X108171430Y-105916060D02*
X108142858Y-105944632D01*
X108142858Y-105944632D02*
X108085715Y-105973203D01*
X108085715Y-105973203D02*
X107971430Y-105973203D01*
X107971430Y-105973203D02*
X107914287Y-105944632D01*
X108542858Y-105973203D02*
X108485715Y-105944632D01*
X108485715Y-105944632D02*
X108457144Y-105916060D01*
X108457144Y-105916060D02*
X108428572Y-105858917D01*
X108428572Y-105858917D02*
X108428572Y-105687489D01*
X108428572Y-105687489D02*
X108457144Y-105630346D01*
X108457144Y-105630346D02*
X108485715Y-105601774D01*
X108485715Y-105601774D02*
X108542858Y-105573203D01*
X108542858Y-105573203D02*
X108628572Y-105573203D01*
X108628572Y-105573203D02*
X108685715Y-105601774D01*
X108685715Y-105601774D02*
X108714287Y-105630346D01*
X108714287Y-105630346D02*
X108742858Y-105687489D01*
X108742858Y-105687489D02*
X108742858Y-105858917D01*
X108742858Y-105858917D02*
X108714287Y-105916060D01*
X108714287Y-105916060D02*
X108685715Y-105944632D01*
X108685715Y-105944632D02*
X108628572Y-105973203D01*
X108628572Y-105973203D02*
X108542858Y-105973203D01*
X109000001Y-105973203D02*
X109000001Y-105573203D01*
X109000001Y-105687489D02*
X109028572Y-105630346D01*
X109028572Y-105630346D02*
X109057144Y-105601774D01*
X109057144Y-105601774D02*
X109114286Y-105573203D01*
X109114286Y-105573203D02*
X109171429Y-105573203D01*
X109285715Y-105573203D02*
X109514287Y-105573203D01*
X109371430Y-105373203D02*
X109371430Y-105887489D01*
X109371430Y-105887489D02*
X109400001Y-105944632D01*
X109400001Y-105944632D02*
X109457144Y-105973203D01*
X109457144Y-105973203D02*
X109514287Y-105973203D01*
M02*
