G04 #@! TF.GenerationSoftware,KiCad,Pcbnew,9.0.2+dfsg-1*
G04 #@! TF.CreationDate,2026-10-04T10:33:52-04:00*
G04 #@! TF.ProjectId,mod_hdmi,6d6f645f-6864-46d6-992e-6b696361645f,A1*
G04 #@! TF.SameCoordinates,Original*
G04 #@! TF.FileFunction,Soldermask,Top*
G04 #@! TF.FilePolarity,Negative*
%FSLAX46Y46*%
G04 Gerber Fmt 4.6, Leading zero omitted, Abs format (unit mm)*
G04 Created by KiCad (PCBNEW 9.0.2+dfsg-1) date 2026-10-04 10:33:52*
%MOMM*%
%LPD*%
G01*
G04 APERTURE LIST*
G04 Aperture macros list*
%AMRoundRect*
0 Rectangle with rounded corners*
0 $1 Rounding radius*
0 $2 $3 $4 $5 $6 $7 $8 $9 X,Y pos of 4 corners*
0 Add a 4 corners polygon primitive as box body*
4,1,4,$2,$3,$4,$5,$6,$7,$8,$9,$2,$3,0*
0 Add four circle primitives for the rounded corners*
1,1,$1+$1,$2,$3*
1,1,$1+$1,$4,$5*
1,1,$1+$1,$6,$7*
1,1,$1+$1,$8,$9*
0 Add four rect primitives between the rounded corners*
20,1,$1+$1,$2,$3,$4,$5,0*
20,1,$1+$1,$4,$5,$6,$7,0*
20,1,$1+$1,$6,$7,$8,$9,0*
20,1,$1+$1,$8,$9,$2,$3,0*%
G04 Aperture macros list end*
%ADD10RoundRect,0.100000X-0.130000X-0.100000X0.130000X-0.100000X0.130000X0.100000X-0.130000X0.100000X0*%
%ADD11R,0.230000X0.660000*%
%ADD12R,0.350000X0.660000*%
%ADD13R,0.300000X2.000000*%
%ADD14C,1.900000*%
%ADD15RoundRect,0.062500X0.372500X0.062500X-0.372500X0.062500X-0.372500X-0.062500X0.372500X-0.062500X0*%
%ADD16R,0.610000X2.200000*%
G04 APERTURE END LIST*
D10*
G04 #@! TO.C,C1*
X132479000Y-102400000D03*
X133119000Y-102400000D03*
G04 #@! TD*
D11*
G04 #@! TO.C,J2*
X120864000Y-98645000D03*
X120864000Y-101355000D03*
X121264000Y-98645000D03*
X121264000Y-101355000D03*
X121664000Y-98645000D03*
X121664000Y-101355000D03*
X122064000Y-98645000D03*
X122064000Y-101355000D03*
X122464000Y-98645000D03*
X122464000Y-101355000D03*
X122864000Y-98645000D03*
X122864000Y-101355000D03*
X123264000Y-98645000D03*
X123264000Y-101355000D03*
X123664000Y-98645000D03*
X123664000Y-101355000D03*
X124064000Y-98645000D03*
X124064000Y-101355000D03*
X124464000Y-98645000D03*
X124464000Y-101355000D03*
X124864000Y-98645000D03*
X124864000Y-101355000D03*
X125264000Y-98645000D03*
X125264000Y-101355000D03*
X125664000Y-98645000D03*
X125664000Y-101355000D03*
X126064000Y-98645000D03*
X126064000Y-101355000D03*
X126464000Y-98645000D03*
X126464000Y-101355000D03*
X126864000Y-98645000D03*
X126864000Y-101355000D03*
X127264000Y-98645000D03*
X127264000Y-101355000D03*
X127664000Y-98645000D03*
X127664000Y-101355000D03*
X128064000Y-98645000D03*
X128064000Y-101355000D03*
X128464000Y-98645000D03*
X128464000Y-101355000D03*
X128864000Y-98645000D03*
X128864000Y-101355000D03*
X129264000Y-98645000D03*
X129264000Y-101355000D03*
X129664000Y-98645000D03*
X129664000Y-101355000D03*
X130064000Y-98645000D03*
X130064000Y-101355000D03*
X130464000Y-98645000D03*
X130464000Y-101355000D03*
D12*
X120389000Y-98645000D03*
X120389000Y-101355000D03*
X130939000Y-98645000D03*
X130939000Y-101355000D03*
G04 #@! TD*
D13*
G04 #@! TO.C,J1*
X95790000Y-103500000D03*
X96290000Y-103500000D03*
X96790000Y-103500000D03*
X97290000Y-103500000D03*
X97790000Y-103500000D03*
X98290000Y-103500000D03*
X98790000Y-103500000D03*
X99290000Y-103500000D03*
X99790000Y-103500000D03*
X100290000Y-103500000D03*
X100790000Y-103500000D03*
X101290000Y-103500000D03*
X101790000Y-103500000D03*
X102290000Y-103500000D03*
X102790000Y-103500000D03*
X103290000Y-103500000D03*
X103790000Y-103500000D03*
X104290000Y-103500000D03*
X104790000Y-103500000D03*
X94790000Y-103500000D03*
X95290000Y-103500000D03*
D14*
X92750000Y-100900000D03*
X100000000Y-97600000D03*
X107250000Y-100900000D03*
G04 #@! TD*
D15*
G04 #@! TO.C,U1*
X134339000Y-100750000D03*
X134339000Y-100250000D03*
X134339000Y-99750000D03*
X134339000Y-99250000D03*
X132459000Y-99250000D03*
X132459000Y-99750000D03*
X132459000Y-100250000D03*
X132459000Y-100750000D03*
D16*
X133399000Y-100000000D03*
G04 #@! TD*
M02*
