%TF.GenerationSoftware,KiCad,Pcbnew,9.0.2+dfsg-1*%
%TF.CreationDate,2026-10-04T10:33:53-04:00*%
%TF.ProjectId,mod_hdmi,6d6f645f-6864-46d6-992e-6b696361645f,A1*%
%TF.SameCoordinates,Original*%
%TF.FileFunction,Drillmap*%
%TF.FilePolarity,Positive*%
%FSLAX45Y45*%
G04 Gerber Fmt 4.5, Leading zero omitted, Abs format (unit mm)*
G04 Created by KiCad (PCBNEW 9.0.2+dfsg-1) date 2026-10-04 10:33:53*
%MOMM*%
%LPD*%
G01*
G04 APERTURE LIST*
%ADD10C,0.050000*%
%ADD11C,0.200000*%
%ADD12C,0.100000*%
%ADD13C,0.130000*%
G04 APERTURE END LIST*
D10*
X11000000Y-9675000D02*
G75*
G02*
X10960000Y-9635000I0J40000D01*
G01*
X13469400Y-9675000D02*
G75*
G02*
X13509400Y-9715000I0J-40000D01*
G01*
X11000000Y-10325000D02*
X13469400Y-10325000D01*
X9040000Y-9555000D02*
X9040000Y-10445000D01*
X10960000Y-9635000D02*
X10960000Y-9555000D01*
X10960000Y-10365000D02*
G75*
G02*
X11000000Y-10325000I40000J0D01*
G01*
X9040000Y-9555000D02*
G75*
G02*
X9080000Y-9515000I40000J0D01*
G01*
X13509400Y-10285000D02*
G75*
G02*
X13469400Y-10325000I-40000J0D01*
G01*
X13469400Y-9675000D02*
X11000000Y-9675000D01*
X10920000Y-9515000D02*
G75*
G02*
X10960000Y-9555000I0J-40000D01*
G01*
X10960000Y-10445000D02*
G75*
G02*
X10920000Y-10485000I-40000J0D01*
G01*
X10920000Y-9515000D02*
X9080000Y-9515000D01*
X9080000Y-10485000D02*
G75*
G02*
X9040000Y-10445000I0J40000D01*
G01*
X10960000Y-10445000D02*
X10960000Y-10365000D01*
X13509400Y-10285000D02*
X13509400Y-9715000D01*
X9080000Y-10485000D02*
X10920000Y-10485000D01*
D11*
D12*
X9619000Y-10205000D02*
X9639000Y-10225000D01*
X9639000Y-10205000D02*
X9619000Y-10225000D01*
X9769000Y-10205000D02*
X9789000Y-10225000D01*
X9789000Y-10205000D02*
X9769000Y-10225000D01*
X9919000Y-10205000D02*
X9939000Y-10225000D01*
X9939000Y-10205000D02*
X9919000Y-10225000D01*
X10069000Y-10205000D02*
X10089000Y-10225000D01*
X10089000Y-10205000D02*
X10069000Y-10225000D01*
X10369000Y-10205000D02*
X10389000Y-10225000D01*
X10389000Y-10205000D02*
X10369000Y-10225000D01*
X10419000Y-10185000D02*
X10439000Y-10205000D01*
X10439000Y-10185000D02*
X10419000Y-10205000D01*
X9340669Y-9681288D02*
G75*
G02*
X9310669Y-9681288I-15000J0D01*
G01*
X9310669Y-9681288D02*
G75*
G02*
X9340669Y-9681288I15000J0D01*
G01*
X9644000Y-9935348D02*
G75*
G02*
X9614000Y-9935348I-15000J0D01*
G01*
X9614000Y-9935348D02*
G75*
G02*
X9644000Y-9935348I15000J0D01*
G01*
X10096524Y-10159238D02*
G75*
G02*
X10066524Y-10159238I-15000J0D01*
G01*
X10066524Y-10159238D02*
G75*
G02*
X10096524Y-10159238I15000J0D01*
G01*
X10586669Y-10324975D02*
G75*
G02*
X10556669Y-10324975I-15000J0D01*
G01*
X10556669Y-10324975D02*
G75*
G02*
X10586669Y-10324975I15000J0D01*
G01*
X12006400Y-9965000D02*
G75*
G02*
X11976400Y-9965000I-15000J0D01*
G01*
X11976400Y-9965000D02*
G75*
G02*
X12006400Y-9965000I15000J0D01*
G01*
X12006400Y-10035000D02*
G75*
G02*
X11976400Y-10035000I-15000J0D01*
G01*
X11976400Y-10035000D02*
G75*
G02*
X12006400Y-10035000I15000J0D01*
G01*
X12361400Y-10000000D02*
G75*
G02*
X12331400Y-10000000I-15000J0D01*
G01*
X12331400Y-10000000D02*
G75*
G02*
X12361400Y-10000000I15000J0D01*
G01*
X12461400Y-10000000D02*
G75*
G02*
X12431400Y-10000000I-15000J0D01*
G01*
X12431400Y-10000000D02*
G75*
G02*
X12461400Y-10000000I15000J0D01*
G01*
X12581400Y-10000000D02*
G75*
G02*
X12551400Y-10000000I-15000J0D01*
G01*
X12551400Y-10000000D02*
G75*
G02*
X12581400Y-10000000I15000J0D01*
G01*
X12701400Y-10000000D02*
G75*
G02*
X12671400Y-10000000I-15000J0D01*
G01*
X12671400Y-10000000D02*
G75*
G02*
X12701400Y-10000000I15000J0D01*
G01*
X12821400Y-10000000D02*
G75*
G02*
X12791400Y-10000000I-15000J0D01*
G01*
X12791400Y-10000000D02*
G75*
G02*
X12821400Y-10000000I15000J0D01*
G01*
X12891400Y-10000000D02*
G75*
G02*
X12861400Y-10000000I-15000J0D01*
G01*
X12861400Y-10000000D02*
G75*
G02*
X12891400Y-10000000I15000J0D01*
G01*
X13041400Y-10240000D02*
G75*
G02*
X13011400Y-10240000I-15000J0D01*
G01*
X13011400Y-10240000D02*
G75*
G02*
X13041400Y-10240000I15000J0D01*
G01*
X13061400Y-9760000D02*
G75*
G02*
X13031400Y-9760000I-15000J0D01*
G01*
X13031400Y-9760000D02*
G75*
G02*
X13061400Y-9760000I15000J0D01*
G01*
X13277106Y-9801288D02*
G75*
G02*
X13247106Y-9801288I-15000J0D01*
G01*
X13247106Y-9801288D02*
G75*
G02*
X13277106Y-9801288I15000J0D01*
G01*
X13404900Y-10245000D02*
G75*
G02*
X13374900Y-10245000I-15000J0D01*
G01*
X13374900Y-10245000D02*
G75*
G02*
X13404900Y-10245000I15000J0D01*
G01*
X13448900Y-9855000D02*
G75*
G02*
X13418900Y-9855000I-15000J0D01*
G01*
X13418900Y-9855000D02*
G75*
G02*
X13448900Y-9855000I15000J0D01*
G01*
X13448900Y-10145000D02*
G75*
G02*
X13418900Y-10145000I-15000J0D01*
G01*
X13418900Y-10145000D02*
G75*
G02*
X13448900Y-10145000I15000J0D01*
G01*
D13*
X9275000Y-10025000D02*
X9275000Y-10155000D01*
X9210000Y-10090000D02*
X9340000Y-10090000D01*
X10000000Y-9695000D02*
X10000000Y-9825000D01*
X9935000Y-9760000D02*
X10065000Y-9760000D01*
X10725000Y-10025000D02*
X10725000Y-10155000D01*
X10660000Y-10090000D02*
X10790000Y-10090000D01*
D11*
X9298277Y-10798984D02*
X9298277Y-10598984D01*
X9298277Y-10598984D02*
X9345896Y-10598984D01*
X9345896Y-10598984D02*
X9374467Y-10608508D01*
X9374467Y-10608508D02*
X9393515Y-10627555D01*
X9393515Y-10627555D02*
X9403039Y-10646603D01*
X9403039Y-10646603D02*
X9412563Y-10684698D01*
X9412563Y-10684698D02*
X9412563Y-10713270D01*
X9412563Y-10713270D02*
X9403039Y-10751365D01*
X9403039Y-10751365D02*
X9393515Y-10770412D01*
X9393515Y-10770412D02*
X9374467Y-10789460D01*
X9374467Y-10789460D02*
X9345896Y-10798984D01*
X9345896Y-10798984D02*
X9298277Y-10798984D01*
X9498277Y-10798984D02*
X9498277Y-10665650D01*
X9498277Y-10703746D02*
X9507801Y-10684698D01*
X9507801Y-10684698D02*
X9517324Y-10675174D01*
X9517324Y-10675174D02*
X9536372Y-10665650D01*
X9536372Y-10665650D02*
X9555420Y-10665650D01*
X9622086Y-10798984D02*
X9622086Y-10665650D01*
X9622086Y-10598984D02*
X9612563Y-10608508D01*
X9612563Y-10608508D02*
X9622086Y-10618031D01*
X9622086Y-10618031D02*
X9631610Y-10608508D01*
X9631610Y-10608508D02*
X9622086Y-10598984D01*
X9622086Y-10598984D02*
X9622086Y-10618031D01*
X9745896Y-10798984D02*
X9726848Y-10789460D01*
X9726848Y-10789460D02*
X9717324Y-10770412D01*
X9717324Y-10770412D02*
X9717324Y-10598984D01*
X9850658Y-10798984D02*
X9831610Y-10789460D01*
X9831610Y-10789460D02*
X9822086Y-10770412D01*
X9822086Y-10770412D02*
X9822086Y-10598984D01*
X10079229Y-10798984D02*
X10079229Y-10598984D01*
X10079229Y-10598984D02*
X10145896Y-10741841D01*
X10145896Y-10741841D02*
X10212563Y-10598984D01*
X10212563Y-10598984D02*
X10212563Y-10798984D01*
X10393515Y-10798984D02*
X10393515Y-10694222D01*
X10393515Y-10694222D02*
X10383991Y-10675174D01*
X10383991Y-10675174D02*
X10364944Y-10665650D01*
X10364944Y-10665650D02*
X10326848Y-10665650D01*
X10326848Y-10665650D02*
X10307801Y-10675174D01*
X10393515Y-10789460D02*
X10374467Y-10798984D01*
X10374467Y-10798984D02*
X10326848Y-10798984D01*
X10326848Y-10798984D02*
X10307801Y-10789460D01*
X10307801Y-10789460D02*
X10298277Y-10770412D01*
X10298277Y-10770412D02*
X10298277Y-10751365D01*
X10298277Y-10751365D02*
X10307801Y-10732317D01*
X10307801Y-10732317D02*
X10326848Y-10722793D01*
X10326848Y-10722793D02*
X10374467Y-10722793D01*
X10374467Y-10722793D02*
X10393515Y-10713270D01*
X10488753Y-10665650D02*
X10488753Y-10865650D01*
X10488753Y-10675174D02*
X10507801Y-10665650D01*
X10507801Y-10665650D02*
X10545896Y-10665650D01*
X10545896Y-10665650D02*
X10564944Y-10675174D01*
X10564944Y-10675174D02*
X10574467Y-10684698D01*
X10574467Y-10684698D02*
X10583991Y-10703746D01*
X10583991Y-10703746D02*
X10583991Y-10760889D01*
X10583991Y-10760889D02*
X10574467Y-10779936D01*
X10574467Y-10779936D02*
X10564944Y-10789460D01*
X10564944Y-10789460D02*
X10545896Y-10798984D01*
X10545896Y-10798984D02*
X10507801Y-10798984D01*
X10507801Y-10798984D02*
X10488753Y-10789460D01*
X10669705Y-10779936D02*
X10679229Y-10789460D01*
X10679229Y-10789460D02*
X10669705Y-10798984D01*
X10669705Y-10798984D02*
X10660182Y-10789460D01*
X10660182Y-10789460D02*
X10669705Y-10779936D01*
X10669705Y-10779936D02*
X10669705Y-10798984D01*
X10669705Y-10675174D02*
X10679229Y-10684698D01*
X10679229Y-10684698D02*
X10669705Y-10694222D01*
X10669705Y-10694222D02*
X10660182Y-10684698D01*
X10660182Y-10684698D02*
X10669705Y-10675174D01*
X10669705Y-10675174D02*
X10669705Y-10694222D01*
D12*
X9017500Y-11117500D02*
X9037500Y-11137500D01*
X9037500Y-11117500D02*
X9017500Y-11137500D01*
D11*
X9336372Y-11018984D02*
X9355420Y-11018984D01*
X9355420Y-11018984D02*
X9374467Y-11028508D01*
X9374467Y-11028508D02*
X9383991Y-11038031D01*
X9383991Y-11038031D02*
X9393515Y-11057079D01*
X9393515Y-11057079D02*
X9403039Y-11095174D01*
X9403039Y-11095174D02*
X9403039Y-11142793D01*
X9403039Y-11142793D02*
X9393515Y-11180889D01*
X9393515Y-11180889D02*
X9383991Y-11199936D01*
X9383991Y-11199936D02*
X9374467Y-11209460D01*
X9374467Y-11209460D02*
X9355420Y-11218984D01*
X9355420Y-11218984D02*
X9336372Y-11218984D01*
X9336372Y-11218984D02*
X9317324Y-11209460D01*
X9317324Y-11209460D02*
X9307801Y-11199936D01*
X9307801Y-11199936D02*
X9298277Y-11180889D01*
X9298277Y-11180889D02*
X9288753Y-11142793D01*
X9288753Y-11142793D02*
X9288753Y-11095174D01*
X9288753Y-11095174D02*
X9298277Y-11057079D01*
X9298277Y-11057079D02*
X9307801Y-11038031D01*
X9307801Y-11038031D02*
X9317324Y-11028508D01*
X9317324Y-11028508D02*
X9336372Y-11018984D01*
X9488753Y-11199936D02*
X9498277Y-11209460D01*
X9498277Y-11209460D02*
X9488753Y-11218984D01*
X9488753Y-11218984D02*
X9479229Y-11209460D01*
X9479229Y-11209460D02*
X9488753Y-11199936D01*
X9488753Y-11199936D02*
X9488753Y-11218984D01*
X9574467Y-11038031D02*
X9583991Y-11028508D01*
X9583991Y-11028508D02*
X9603039Y-11018984D01*
X9603039Y-11018984D02*
X9650658Y-11018984D01*
X9650658Y-11018984D02*
X9669705Y-11028508D01*
X9669705Y-11028508D02*
X9679229Y-11038031D01*
X9679229Y-11038031D02*
X9688753Y-11057079D01*
X9688753Y-11057079D02*
X9688753Y-11076127D01*
X9688753Y-11076127D02*
X9679229Y-11104698D01*
X9679229Y-11104698D02*
X9564944Y-11218984D01*
X9564944Y-11218984D02*
X9688753Y-11218984D01*
X9812563Y-11018984D02*
X9831610Y-11018984D01*
X9831610Y-11018984D02*
X9850658Y-11028508D01*
X9850658Y-11028508D02*
X9860182Y-11038031D01*
X9860182Y-11038031D02*
X9869705Y-11057079D01*
X9869705Y-11057079D02*
X9879229Y-11095174D01*
X9879229Y-11095174D02*
X9879229Y-11142793D01*
X9879229Y-11142793D02*
X9869705Y-11180889D01*
X9869705Y-11180889D02*
X9860182Y-11199936D01*
X9860182Y-11199936D02*
X9850658Y-11209460D01*
X9850658Y-11209460D02*
X9831610Y-11218984D01*
X9831610Y-11218984D02*
X9812563Y-11218984D01*
X9812563Y-11218984D02*
X9793515Y-11209460D01*
X9793515Y-11209460D02*
X9783991Y-11199936D01*
X9783991Y-11199936D02*
X9774467Y-11180889D01*
X9774467Y-11180889D02*
X9764944Y-11142793D01*
X9764944Y-11142793D02*
X9764944Y-11095174D01*
X9764944Y-11095174D02*
X9774467Y-11057079D01*
X9774467Y-11057079D02*
X9783991Y-11038031D01*
X9783991Y-11038031D02*
X9793515Y-11028508D01*
X9793515Y-11028508D02*
X9812563Y-11018984D01*
X10003039Y-11018984D02*
X10022086Y-11018984D01*
X10022086Y-11018984D02*
X10041134Y-11028508D01*
X10041134Y-11028508D02*
X10050658Y-11038031D01*
X10050658Y-11038031D02*
X10060182Y-11057079D01*
X10060182Y-11057079D02*
X10069705Y-11095174D01*
X10069705Y-11095174D02*
X10069705Y-11142793D01*
X10069705Y-11142793D02*
X10060182Y-11180889D01*
X10060182Y-11180889D02*
X10050658Y-11199936D01*
X10050658Y-11199936D02*
X10041134Y-11209460D01*
X10041134Y-11209460D02*
X10022086Y-11218984D01*
X10022086Y-11218984D02*
X10003039Y-11218984D01*
X10003039Y-11218984D02*
X9983991Y-11209460D01*
X9983991Y-11209460D02*
X9974467Y-11199936D01*
X9974467Y-11199936D02*
X9964944Y-11180889D01*
X9964944Y-11180889D02*
X9955420Y-11142793D01*
X9955420Y-11142793D02*
X9955420Y-11095174D01*
X9955420Y-11095174D02*
X9964944Y-11057079D01*
X9964944Y-11057079D02*
X9974467Y-11038031D01*
X9974467Y-11038031D02*
X9983991Y-11028508D01*
X9983991Y-11028508D02*
X10003039Y-11018984D01*
X10155420Y-11218984D02*
X10155420Y-11085650D01*
X10155420Y-11104698D02*
X10164944Y-11095174D01*
X10164944Y-11095174D02*
X10183991Y-11085650D01*
X10183991Y-11085650D02*
X10212563Y-11085650D01*
X10212563Y-11085650D02*
X10231610Y-11095174D01*
X10231610Y-11095174D02*
X10241134Y-11114222D01*
X10241134Y-11114222D02*
X10241134Y-11218984D01*
X10241134Y-11114222D02*
X10250658Y-11095174D01*
X10250658Y-11095174D02*
X10269705Y-11085650D01*
X10269705Y-11085650D02*
X10298277Y-11085650D01*
X10298277Y-11085650D02*
X10317325Y-11095174D01*
X10317325Y-11095174D02*
X10326848Y-11114222D01*
X10326848Y-11114222D02*
X10326848Y-11218984D01*
X10422086Y-11218984D02*
X10422086Y-11085650D01*
X10422086Y-11104698D02*
X10431610Y-11095174D01*
X10431610Y-11095174D02*
X10450658Y-11085650D01*
X10450658Y-11085650D02*
X10479229Y-11085650D01*
X10479229Y-11085650D02*
X10498277Y-11095174D01*
X10498277Y-11095174D02*
X10507801Y-11114222D01*
X10507801Y-11114222D02*
X10507801Y-11218984D01*
X10507801Y-11114222D02*
X10517325Y-11095174D01*
X10517325Y-11095174D02*
X10536372Y-11085650D01*
X10536372Y-11085650D02*
X10564944Y-11085650D01*
X10564944Y-11085650D02*
X10583991Y-11095174D01*
X10583991Y-11095174D02*
X10593515Y-11114222D01*
X10593515Y-11114222D02*
X10593515Y-11218984D01*
X10983991Y-11009460D02*
X10812563Y-11266603D01*
X11241134Y-11018984D02*
X11260182Y-11018984D01*
X11260182Y-11018984D02*
X11279229Y-11028508D01*
X11279229Y-11028508D02*
X11288753Y-11038031D01*
X11288753Y-11038031D02*
X11298277Y-11057079D01*
X11298277Y-11057079D02*
X11307801Y-11095174D01*
X11307801Y-11095174D02*
X11307801Y-11142793D01*
X11307801Y-11142793D02*
X11298277Y-11180889D01*
X11298277Y-11180889D02*
X11288753Y-11199936D01*
X11288753Y-11199936D02*
X11279229Y-11209460D01*
X11279229Y-11209460D02*
X11260182Y-11218984D01*
X11260182Y-11218984D02*
X11241134Y-11218984D01*
X11241134Y-11218984D02*
X11222086Y-11209460D01*
X11222086Y-11209460D02*
X11212563Y-11199936D01*
X11212563Y-11199936D02*
X11203039Y-11180889D01*
X11203039Y-11180889D02*
X11193515Y-11142793D01*
X11193515Y-11142793D02*
X11193515Y-11095174D01*
X11193515Y-11095174D02*
X11203039Y-11057079D01*
X11203039Y-11057079D02*
X11212563Y-11038031D01*
X11212563Y-11038031D02*
X11222086Y-11028508D01*
X11222086Y-11028508D02*
X11241134Y-11018984D01*
X11393515Y-11199936D02*
X11403039Y-11209460D01*
X11403039Y-11209460D02*
X11393515Y-11218984D01*
X11393515Y-11218984D02*
X11383991Y-11209460D01*
X11383991Y-11209460D02*
X11393515Y-11199936D01*
X11393515Y-11199936D02*
X11393515Y-11218984D01*
X11526848Y-11018984D02*
X11545896Y-11018984D01*
X11545896Y-11018984D02*
X11564944Y-11028508D01*
X11564944Y-11028508D02*
X11574467Y-11038031D01*
X11574467Y-11038031D02*
X11583991Y-11057079D01*
X11583991Y-11057079D02*
X11593515Y-11095174D01*
X11593515Y-11095174D02*
X11593515Y-11142793D01*
X11593515Y-11142793D02*
X11583991Y-11180889D01*
X11583991Y-11180889D02*
X11574467Y-11199936D01*
X11574467Y-11199936D02*
X11564944Y-11209460D01*
X11564944Y-11209460D02*
X11545896Y-11218984D01*
X11545896Y-11218984D02*
X11526848Y-11218984D01*
X11526848Y-11218984D02*
X11507801Y-11209460D01*
X11507801Y-11209460D02*
X11498277Y-11199936D01*
X11498277Y-11199936D02*
X11488753Y-11180889D01*
X11488753Y-11180889D02*
X11479229Y-11142793D01*
X11479229Y-11142793D02*
X11479229Y-11095174D01*
X11479229Y-11095174D02*
X11488753Y-11057079D01*
X11488753Y-11057079D02*
X11498277Y-11038031D01*
X11498277Y-11038031D02*
X11507801Y-11028508D01*
X11507801Y-11028508D02*
X11526848Y-11018984D01*
X11717325Y-11018984D02*
X11736372Y-11018984D01*
X11736372Y-11018984D02*
X11755420Y-11028508D01*
X11755420Y-11028508D02*
X11764944Y-11038031D01*
X11764944Y-11038031D02*
X11774467Y-11057079D01*
X11774467Y-11057079D02*
X11783991Y-11095174D01*
X11783991Y-11095174D02*
X11783991Y-11142793D01*
X11783991Y-11142793D02*
X11774467Y-11180889D01*
X11774467Y-11180889D02*
X11764944Y-11199936D01*
X11764944Y-11199936D02*
X11755420Y-11209460D01*
X11755420Y-11209460D02*
X11736372Y-11218984D01*
X11736372Y-11218984D02*
X11717325Y-11218984D01*
X11717325Y-11218984D02*
X11698277Y-11209460D01*
X11698277Y-11209460D02*
X11688753Y-11199936D01*
X11688753Y-11199936D02*
X11679229Y-11180889D01*
X11679229Y-11180889D02*
X11669706Y-11142793D01*
X11669706Y-11142793D02*
X11669706Y-11095174D01*
X11669706Y-11095174D02*
X11679229Y-11057079D01*
X11679229Y-11057079D02*
X11688753Y-11038031D01*
X11688753Y-11038031D02*
X11698277Y-11028508D01*
X11698277Y-11028508D02*
X11717325Y-11018984D01*
X11850658Y-11018984D02*
X11983991Y-11018984D01*
X11983991Y-11018984D02*
X11898277Y-11218984D01*
X12069706Y-11218984D02*
X12107801Y-11218984D01*
X12107801Y-11218984D02*
X12126848Y-11209460D01*
X12126848Y-11209460D02*
X12136372Y-11199936D01*
X12136372Y-11199936D02*
X12155420Y-11171365D01*
X12155420Y-11171365D02*
X12164944Y-11133270D01*
X12164944Y-11133270D02*
X12164944Y-11057079D01*
X12164944Y-11057079D02*
X12155420Y-11038031D01*
X12155420Y-11038031D02*
X12145896Y-11028508D01*
X12145896Y-11028508D02*
X12126848Y-11018984D01*
X12126848Y-11018984D02*
X12088753Y-11018984D01*
X12088753Y-11018984D02*
X12069706Y-11028508D01*
X12069706Y-11028508D02*
X12060182Y-11038031D01*
X12060182Y-11038031D02*
X12050658Y-11057079D01*
X12050658Y-11057079D02*
X12050658Y-11104698D01*
X12050658Y-11104698D02*
X12060182Y-11123746D01*
X12060182Y-11123746D02*
X12069706Y-11133270D01*
X12069706Y-11133270D02*
X12088753Y-11142793D01*
X12088753Y-11142793D02*
X12126848Y-11142793D01*
X12126848Y-11142793D02*
X12145896Y-11133270D01*
X12145896Y-11133270D02*
X12155420Y-11123746D01*
X12155420Y-11123746D02*
X12164944Y-11104698D01*
X12241134Y-11018984D02*
X12241134Y-11057079D01*
X12317325Y-11018984D02*
X12317325Y-11057079D01*
X12612563Y-11295174D02*
X12603039Y-11285650D01*
X12603039Y-11285650D02*
X12583991Y-11257079D01*
X12583991Y-11257079D02*
X12574468Y-11238031D01*
X12574468Y-11238031D02*
X12564944Y-11209460D01*
X12564944Y-11209460D02*
X12555420Y-11161841D01*
X12555420Y-11161841D02*
X12555420Y-11123746D01*
X12555420Y-11123746D02*
X12564944Y-11076127D01*
X12564944Y-11076127D02*
X12574468Y-11047555D01*
X12574468Y-11047555D02*
X12583991Y-11028508D01*
X12583991Y-11028508D02*
X12603039Y-10999936D01*
X12603039Y-10999936D02*
X12612563Y-10990412D01*
X12774468Y-11018984D02*
X12736372Y-11018984D01*
X12736372Y-11018984D02*
X12717325Y-11028508D01*
X12717325Y-11028508D02*
X12707801Y-11038031D01*
X12707801Y-11038031D02*
X12688753Y-11066603D01*
X12688753Y-11066603D02*
X12679229Y-11104698D01*
X12679229Y-11104698D02*
X12679229Y-11180889D01*
X12679229Y-11180889D02*
X12688753Y-11199936D01*
X12688753Y-11199936D02*
X12698277Y-11209460D01*
X12698277Y-11209460D02*
X12717325Y-11218984D01*
X12717325Y-11218984D02*
X12755420Y-11218984D01*
X12755420Y-11218984D02*
X12774468Y-11209460D01*
X12774468Y-11209460D02*
X12783991Y-11199936D01*
X12783991Y-11199936D02*
X12793515Y-11180889D01*
X12793515Y-11180889D02*
X12793515Y-11133270D01*
X12793515Y-11133270D02*
X12783991Y-11114222D01*
X12783991Y-11114222D02*
X12774468Y-11104698D01*
X12774468Y-11104698D02*
X12755420Y-11095174D01*
X12755420Y-11095174D02*
X12717325Y-11095174D01*
X12717325Y-11095174D02*
X12698277Y-11104698D01*
X12698277Y-11104698D02*
X12688753Y-11114222D01*
X12688753Y-11114222D02*
X12679229Y-11133270D01*
X13031610Y-11218984D02*
X13031610Y-11018984D01*
X13117325Y-11218984D02*
X13117325Y-11114222D01*
X13117325Y-11114222D02*
X13107801Y-11095174D01*
X13107801Y-11095174D02*
X13088753Y-11085650D01*
X13088753Y-11085650D02*
X13060182Y-11085650D01*
X13060182Y-11085650D02*
X13041134Y-11095174D01*
X13041134Y-11095174D02*
X13031610Y-11104698D01*
X13241134Y-11218984D02*
X13222087Y-11209460D01*
X13222087Y-11209460D02*
X13212563Y-11199936D01*
X13212563Y-11199936D02*
X13203039Y-11180889D01*
X13203039Y-11180889D02*
X13203039Y-11123746D01*
X13203039Y-11123746D02*
X13212563Y-11104698D01*
X13212563Y-11104698D02*
X13222087Y-11095174D01*
X13222087Y-11095174D02*
X13241134Y-11085650D01*
X13241134Y-11085650D02*
X13269706Y-11085650D01*
X13269706Y-11085650D02*
X13288753Y-11095174D01*
X13288753Y-11095174D02*
X13298277Y-11104698D01*
X13298277Y-11104698D02*
X13307801Y-11123746D01*
X13307801Y-11123746D02*
X13307801Y-11180889D01*
X13307801Y-11180889D02*
X13298277Y-11199936D01*
X13298277Y-11199936D02*
X13288753Y-11209460D01*
X13288753Y-11209460D02*
X13269706Y-11218984D01*
X13269706Y-11218984D02*
X13241134Y-11218984D01*
X13422087Y-11218984D02*
X13403039Y-11209460D01*
X13403039Y-11209460D02*
X13393515Y-11190412D01*
X13393515Y-11190412D02*
X13393515Y-11018984D01*
X13574468Y-11209460D02*
X13555420Y-11218984D01*
X13555420Y-11218984D02*
X13517325Y-11218984D01*
X13517325Y-11218984D02*
X13498277Y-11209460D01*
X13498277Y-11209460D02*
X13488753Y-11190412D01*
X13488753Y-11190412D02*
X13488753Y-11114222D01*
X13488753Y-11114222D02*
X13498277Y-11095174D01*
X13498277Y-11095174D02*
X13517325Y-11085650D01*
X13517325Y-11085650D02*
X13555420Y-11085650D01*
X13555420Y-11085650D02*
X13574468Y-11095174D01*
X13574468Y-11095174D02*
X13583991Y-11114222D01*
X13583991Y-11114222D02*
X13583991Y-11133270D01*
X13583991Y-11133270D02*
X13488753Y-11152317D01*
X13660182Y-11209460D02*
X13679230Y-11218984D01*
X13679230Y-11218984D02*
X13717325Y-11218984D01*
X13717325Y-11218984D02*
X13736372Y-11209460D01*
X13736372Y-11209460D02*
X13745896Y-11190412D01*
X13745896Y-11190412D02*
X13745896Y-11180889D01*
X13745896Y-11180889D02*
X13736372Y-11161841D01*
X13736372Y-11161841D02*
X13717325Y-11152317D01*
X13717325Y-11152317D02*
X13688753Y-11152317D01*
X13688753Y-11152317D02*
X13669706Y-11142793D01*
X13669706Y-11142793D02*
X13660182Y-11123746D01*
X13660182Y-11123746D02*
X13660182Y-11114222D01*
X13660182Y-11114222D02*
X13669706Y-11095174D01*
X13669706Y-11095174D02*
X13688753Y-11085650D01*
X13688753Y-11085650D02*
X13717325Y-11085650D01*
X13717325Y-11085650D02*
X13736372Y-11095174D01*
X13812563Y-11295174D02*
X13822087Y-11285650D01*
X13822087Y-11285650D02*
X13841134Y-11257079D01*
X13841134Y-11257079D02*
X13850658Y-11238031D01*
X13850658Y-11238031D02*
X13860182Y-11209460D01*
X13860182Y-11209460D02*
X13869706Y-11161841D01*
X13869706Y-11161841D02*
X13869706Y-11123746D01*
X13869706Y-11123746D02*
X13860182Y-11076127D01*
X13860182Y-11076127D02*
X13850658Y-11047555D01*
X13850658Y-11047555D02*
X13841134Y-11028508D01*
X13841134Y-11028508D02*
X13822087Y-10999936D01*
X13822087Y-10999936D02*
X13812563Y-10990412D01*
D12*
X9037500Y-11391500D02*
G75*
G02*
X9007500Y-11391500I-15000J0D01*
G01*
X9007500Y-11391500D02*
G75*
G02*
X9037500Y-11391500I15000J0D01*
G01*
D11*
X9336372Y-11282984D02*
X9355420Y-11282984D01*
X9355420Y-11282984D02*
X9374467Y-11292508D01*
X9374467Y-11292508D02*
X9383991Y-11302031D01*
X9383991Y-11302031D02*
X9393515Y-11321079D01*
X9393515Y-11321079D02*
X9403039Y-11359174D01*
X9403039Y-11359174D02*
X9403039Y-11406793D01*
X9403039Y-11406793D02*
X9393515Y-11444888D01*
X9393515Y-11444888D02*
X9383991Y-11463936D01*
X9383991Y-11463936D02*
X9374467Y-11473460D01*
X9374467Y-11473460D02*
X9355420Y-11482984D01*
X9355420Y-11482984D02*
X9336372Y-11482984D01*
X9336372Y-11482984D02*
X9317324Y-11473460D01*
X9317324Y-11473460D02*
X9307801Y-11463936D01*
X9307801Y-11463936D02*
X9298277Y-11444888D01*
X9298277Y-11444888D02*
X9288753Y-11406793D01*
X9288753Y-11406793D02*
X9288753Y-11359174D01*
X9288753Y-11359174D02*
X9298277Y-11321079D01*
X9298277Y-11321079D02*
X9307801Y-11302031D01*
X9307801Y-11302031D02*
X9317324Y-11292508D01*
X9317324Y-11292508D02*
X9336372Y-11282984D01*
X9488753Y-11463936D02*
X9498277Y-11473460D01*
X9498277Y-11473460D02*
X9488753Y-11482984D01*
X9488753Y-11482984D02*
X9479229Y-11473460D01*
X9479229Y-11473460D02*
X9488753Y-11463936D01*
X9488753Y-11463936D02*
X9488753Y-11482984D01*
X9564944Y-11282984D02*
X9688753Y-11282984D01*
X9688753Y-11282984D02*
X9622086Y-11359174D01*
X9622086Y-11359174D02*
X9650658Y-11359174D01*
X9650658Y-11359174D02*
X9669705Y-11368698D01*
X9669705Y-11368698D02*
X9679229Y-11378222D01*
X9679229Y-11378222D02*
X9688753Y-11397269D01*
X9688753Y-11397269D02*
X9688753Y-11444888D01*
X9688753Y-11444888D02*
X9679229Y-11463936D01*
X9679229Y-11463936D02*
X9669705Y-11473460D01*
X9669705Y-11473460D02*
X9650658Y-11482984D01*
X9650658Y-11482984D02*
X9593515Y-11482984D01*
X9593515Y-11482984D02*
X9574467Y-11473460D01*
X9574467Y-11473460D02*
X9564944Y-11463936D01*
X9812563Y-11282984D02*
X9831610Y-11282984D01*
X9831610Y-11282984D02*
X9850658Y-11292508D01*
X9850658Y-11292508D02*
X9860182Y-11302031D01*
X9860182Y-11302031D02*
X9869705Y-11321079D01*
X9869705Y-11321079D02*
X9879229Y-11359174D01*
X9879229Y-11359174D02*
X9879229Y-11406793D01*
X9879229Y-11406793D02*
X9869705Y-11444888D01*
X9869705Y-11444888D02*
X9860182Y-11463936D01*
X9860182Y-11463936D02*
X9850658Y-11473460D01*
X9850658Y-11473460D02*
X9831610Y-11482984D01*
X9831610Y-11482984D02*
X9812563Y-11482984D01*
X9812563Y-11482984D02*
X9793515Y-11473460D01*
X9793515Y-11473460D02*
X9783991Y-11463936D01*
X9783991Y-11463936D02*
X9774467Y-11444888D01*
X9774467Y-11444888D02*
X9764944Y-11406793D01*
X9764944Y-11406793D02*
X9764944Y-11359174D01*
X9764944Y-11359174D02*
X9774467Y-11321079D01*
X9774467Y-11321079D02*
X9783991Y-11302031D01*
X9783991Y-11302031D02*
X9793515Y-11292508D01*
X9793515Y-11292508D02*
X9812563Y-11282984D01*
X10003039Y-11282984D02*
X10022086Y-11282984D01*
X10022086Y-11282984D02*
X10041134Y-11292508D01*
X10041134Y-11292508D02*
X10050658Y-11302031D01*
X10050658Y-11302031D02*
X10060182Y-11321079D01*
X10060182Y-11321079D02*
X10069705Y-11359174D01*
X10069705Y-11359174D02*
X10069705Y-11406793D01*
X10069705Y-11406793D02*
X10060182Y-11444888D01*
X10060182Y-11444888D02*
X10050658Y-11463936D01*
X10050658Y-11463936D02*
X10041134Y-11473460D01*
X10041134Y-11473460D02*
X10022086Y-11482984D01*
X10022086Y-11482984D02*
X10003039Y-11482984D01*
X10003039Y-11482984D02*
X9983991Y-11473460D01*
X9983991Y-11473460D02*
X9974467Y-11463936D01*
X9974467Y-11463936D02*
X9964944Y-11444888D01*
X9964944Y-11444888D02*
X9955420Y-11406793D01*
X9955420Y-11406793D02*
X9955420Y-11359174D01*
X9955420Y-11359174D02*
X9964944Y-11321079D01*
X9964944Y-11321079D02*
X9974467Y-11302031D01*
X9974467Y-11302031D02*
X9983991Y-11292508D01*
X9983991Y-11292508D02*
X10003039Y-11282984D01*
X10155420Y-11482984D02*
X10155420Y-11349650D01*
X10155420Y-11368698D02*
X10164944Y-11359174D01*
X10164944Y-11359174D02*
X10183991Y-11349650D01*
X10183991Y-11349650D02*
X10212563Y-11349650D01*
X10212563Y-11349650D02*
X10231610Y-11359174D01*
X10231610Y-11359174D02*
X10241134Y-11378222D01*
X10241134Y-11378222D02*
X10241134Y-11482984D01*
X10241134Y-11378222D02*
X10250658Y-11359174D01*
X10250658Y-11359174D02*
X10269705Y-11349650D01*
X10269705Y-11349650D02*
X10298277Y-11349650D01*
X10298277Y-11349650D02*
X10317325Y-11359174D01*
X10317325Y-11359174D02*
X10326848Y-11378222D01*
X10326848Y-11378222D02*
X10326848Y-11482984D01*
X10422086Y-11482984D02*
X10422086Y-11349650D01*
X10422086Y-11368698D02*
X10431610Y-11359174D01*
X10431610Y-11359174D02*
X10450658Y-11349650D01*
X10450658Y-11349650D02*
X10479229Y-11349650D01*
X10479229Y-11349650D02*
X10498277Y-11359174D01*
X10498277Y-11359174D02*
X10507801Y-11378222D01*
X10507801Y-11378222D02*
X10507801Y-11482984D01*
X10507801Y-11378222D02*
X10517325Y-11359174D01*
X10517325Y-11359174D02*
X10536372Y-11349650D01*
X10536372Y-11349650D02*
X10564944Y-11349650D01*
X10564944Y-11349650D02*
X10583991Y-11359174D01*
X10583991Y-11359174D02*
X10593515Y-11378222D01*
X10593515Y-11378222D02*
X10593515Y-11482984D01*
X10983991Y-11273460D02*
X10812563Y-11530603D01*
X11241134Y-11282984D02*
X11260182Y-11282984D01*
X11260182Y-11282984D02*
X11279229Y-11292508D01*
X11279229Y-11292508D02*
X11288753Y-11302031D01*
X11288753Y-11302031D02*
X11298277Y-11321079D01*
X11298277Y-11321079D02*
X11307801Y-11359174D01*
X11307801Y-11359174D02*
X11307801Y-11406793D01*
X11307801Y-11406793D02*
X11298277Y-11444888D01*
X11298277Y-11444888D02*
X11288753Y-11463936D01*
X11288753Y-11463936D02*
X11279229Y-11473460D01*
X11279229Y-11473460D02*
X11260182Y-11482984D01*
X11260182Y-11482984D02*
X11241134Y-11482984D01*
X11241134Y-11482984D02*
X11222086Y-11473460D01*
X11222086Y-11473460D02*
X11212563Y-11463936D01*
X11212563Y-11463936D02*
X11203039Y-11444888D01*
X11203039Y-11444888D02*
X11193515Y-11406793D01*
X11193515Y-11406793D02*
X11193515Y-11359174D01*
X11193515Y-11359174D02*
X11203039Y-11321079D01*
X11203039Y-11321079D02*
X11212563Y-11302031D01*
X11212563Y-11302031D02*
X11222086Y-11292508D01*
X11222086Y-11292508D02*
X11241134Y-11282984D01*
X11393515Y-11463936D02*
X11403039Y-11473460D01*
X11403039Y-11473460D02*
X11393515Y-11482984D01*
X11393515Y-11482984D02*
X11383991Y-11473460D01*
X11383991Y-11473460D02*
X11393515Y-11463936D01*
X11393515Y-11463936D02*
X11393515Y-11482984D01*
X11526848Y-11282984D02*
X11545896Y-11282984D01*
X11545896Y-11282984D02*
X11564944Y-11292508D01*
X11564944Y-11292508D02*
X11574467Y-11302031D01*
X11574467Y-11302031D02*
X11583991Y-11321079D01*
X11583991Y-11321079D02*
X11593515Y-11359174D01*
X11593515Y-11359174D02*
X11593515Y-11406793D01*
X11593515Y-11406793D02*
X11583991Y-11444888D01*
X11583991Y-11444888D02*
X11574467Y-11463936D01*
X11574467Y-11463936D02*
X11564944Y-11473460D01*
X11564944Y-11473460D02*
X11545896Y-11482984D01*
X11545896Y-11482984D02*
X11526848Y-11482984D01*
X11526848Y-11482984D02*
X11507801Y-11473460D01*
X11507801Y-11473460D02*
X11498277Y-11463936D01*
X11498277Y-11463936D02*
X11488753Y-11444888D01*
X11488753Y-11444888D02*
X11479229Y-11406793D01*
X11479229Y-11406793D02*
X11479229Y-11359174D01*
X11479229Y-11359174D02*
X11488753Y-11321079D01*
X11488753Y-11321079D02*
X11498277Y-11302031D01*
X11498277Y-11302031D02*
X11507801Y-11292508D01*
X11507801Y-11292508D02*
X11526848Y-11282984D01*
X11783991Y-11482984D02*
X11669706Y-11482984D01*
X11726848Y-11482984D02*
X11726848Y-11282984D01*
X11726848Y-11282984D02*
X11707801Y-11311555D01*
X11707801Y-11311555D02*
X11688753Y-11330603D01*
X11688753Y-11330603D02*
X11669706Y-11340127D01*
X11974467Y-11482984D02*
X11860182Y-11482984D01*
X11917325Y-11482984D02*
X11917325Y-11282984D01*
X11917325Y-11282984D02*
X11898277Y-11311555D01*
X11898277Y-11311555D02*
X11879229Y-11330603D01*
X11879229Y-11330603D02*
X11860182Y-11340127D01*
X12088753Y-11368698D02*
X12069706Y-11359174D01*
X12069706Y-11359174D02*
X12060182Y-11349650D01*
X12060182Y-11349650D02*
X12050658Y-11330603D01*
X12050658Y-11330603D02*
X12050658Y-11321079D01*
X12050658Y-11321079D02*
X12060182Y-11302031D01*
X12060182Y-11302031D02*
X12069706Y-11292508D01*
X12069706Y-11292508D02*
X12088753Y-11282984D01*
X12088753Y-11282984D02*
X12126848Y-11282984D01*
X12126848Y-11282984D02*
X12145896Y-11292508D01*
X12145896Y-11292508D02*
X12155420Y-11302031D01*
X12155420Y-11302031D02*
X12164944Y-11321079D01*
X12164944Y-11321079D02*
X12164944Y-11330603D01*
X12164944Y-11330603D02*
X12155420Y-11349650D01*
X12155420Y-11349650D02*
X12145896Y-11359174D01*
X12145896Y-11359174D02*
X12126848Y-11368698D01*
X12126848Y-11368698D02*
X12088753Y-11368698D01*
X12088753Y-11368698D02*
X12069706Y-11378222D01*
X12069706Y-11378222D02*
X12060182Y-11387746D01*
X12060182Y-11387746D02*
X12050658Y-11406793D01*
X12050658Y-11406793D02*
X12050658Y-11444888D01*
X12050658Y-11444888D02*
X12060182Y-11463936D01*
X12060182Y-11463936D02*
X12069706Y-11473460D01*
X12069706Y-11473460D02*
X12088753Y-11482984D01*
X12088753Y-11482984D02*
X12126848Y-11482984D01*
X12126848Y-11482984D02*
X12145896Y-11473460D01*
X12145896Y-11473460D02*
X12155420Y-11463936D01*
X12155420Y-11463936D02*
X12164944Y-11444888D01*
X12164944Y-11444888D02*
X12164944Y-11406793D01*
X12164944Y-11406793D02*
X12155420Y-11387746D01*
X12155420Y-11387746D02*
X12145896Y-11378222D01*
X12145896Y-11378222D02*
X12126848Y-11368698D01*
X12241134Y-11282984D02*
X12241134Y-11321079D01*
X12317325Y-11282984D02*
X12317325Y-11321079D01*
X12612563Y-11559174D02*
X12603039Y-11549650D01*
X12603039Y-11549650D02*
X12583991Y-11521079D01*
X12583991Y-11521079D02*
X12574468Y-11502031D01*
X12574468Y-11502031D02*
X12564944Y-11473460D01*
X12564944Y-11473460D02*
X12555420Y-11425841D01*
X12555420Y-11425841D02*
X12555420Y-11387746D01*
X12555420Y-11387746D02*
X12564944Y-11340127D01*
X12564944Y-11340127D02*
X12574468Y-11311555D01*
X12574468Y-11311555D02*
X12583991Y-11292508D01*
X12583991Y-11292508D02*
X12603039Y-11263936D01*
X12603039Y-11263936D02*
X12612563Y-11254412D01*
X12793515Y-11482984D02*
X12679229Y-11482984D01*
X12736372Y-11482984D02*
X12736372Y-11282984D01*
X12736372Y-11282984D02*
X12717325Y-11311555D01*
X12717325Y-11311555D02*
X12698277Y-11330603D01*
X12698277Y-11330603D02*
X12679229Y-11340127D01*
X12907801Y-11368698D02*
X12888753Y-11359174D01*
X12888753Y-11359174D02*
X12879229Y-11349650D01*
X12879229Y-11349650D02*
X12869706Y-11330603D01*
X12869706Y-11330603D02*
X12869706Y-11321079D01*
X12869706Y-11321079D02*
X12879229Y-11302031D01*
X12879229Y-11302031D02*
X12888753Y-11292508D01*
X12888753Y-11292508D02*
X12907801Y-11282984D01*
X12907801Y-11282984D02*
X12945896Y-11282984D01*
X12945896Y-11282984D02*
X12964944Y-11292508D01*
X12964944Y-11292508D02*
X12974468Y-11302031D01*
X12974468Y-11302031D02*
X12983991Y-11321079D01*
X12983991Y-11321079D02*
X12983991Y-11330603D01*
X12983991Y-11330603D02*
X12974468Y-11349650D01*
X12974468Y-11349650D02*
X12964944Y-11359174D01*
X12964944Y-11359174D02*
X12945896Y-11368698D01*
X12945896Y-11368698D02*
X12907801Y-11368698D01*
X12907801Y-11368698D02*
X12888753Y-11378222D01*
X12888753Y-11378222D02*
X12879229Y-11387746D01*
X12879229Y-11387746D02*
X12869706Y-11406793D01*
X12869706Y-11406793D02*
X12869706Y-11444888D01*
X12869706Y-11444888D02*
X12879229Y-11463936D01*
X12879229Y-11463936D02*
X12888753Y-11473460D01*
X12888753Y-11473460D02*
X12907801Y-11482984D01*
X12907801Y-11482984D02*
X12945896Y-11482984D01*
X12945896Y-11482984D02*
X12964944Y-11473460D01*
X12964944Y-11473460D02*
X12974468Y-11463936D01*
X12974468Y-11463936D02*
X12983991Y-11444888D01*
X12983991Y-11444888D02*
X12983991Y-11406793D01*
X12983991Y-11406793D02*
X12974468Y-11387746D01*
X12974468Y-11387746D02*
X12964944Y-11378222D01*
X12964944Y-11378222D02*
X12945896Y-11368698D01*
X13222087Y-11482984D02*
X13222087Y-11282984D01*
X13307801Y-11482984D02*
X13307801Y-11378222D01*
X13307801Y-11378222D02*
X13298277Y-11359174D01*
X13298277Y-11359174D02*
X13279230Y-11349650D01*
X13279230Y-11349650D02*
X13250658Y-11349650D01*
X13250658Y-11349650D02*
X13231610Y-11359174D01*
X13231610Y-11359174D02*
X13222087Y-11368698D01*
X13431610Y-11482984D02*
X13412563Y-11473460D01*
X13412563Y-11473460D02*
X13403039Y-11463936D01*
X13403039Y-11463936D02*
X13393515Y-11444888D01*
X13393515Y-11444888D02*
X13393515Y-11387746D01*
X13393515Y-11387746D02*
X13403039Y-11368698D01*
X13403039Y-11368698D02*
X13412563Y-11359174D01*
X13412563Y-11359174D02*
X13431610Y-11349650D01*
X13431610Y-11349650D02*
X13460182Y-11349650D01*
X13460182Y-11349650D02*
X13479230Y-11359174D01*
X13479230Y-11359174D02*
X13488753Y-11368698D01*
X13488753Y-11368698D02*
X13498277Y-11387746D01*
X13498277Y-11387746D02*
X13498277Y-11444888D01*
X13498277Y-11444888D02*
X13488753Y-11463936D01*
X13488753Y-11463936D02*
X13479230Y-11473460D01*
X13479230Y-11473460D02*
X13460182Y-11482984D01*
X13460182Y-11482984D02*
X13431610Y-11482984D01*
X13612563Y-11482984D02*
X13593515Y-11473460D01*
X13593515Y-11473460D02*
X13583991Y-11454412D01*
X13583991Y-11454412D02*
X13583991Y-11282984D01*
X13764944Y-11473460D02*
X13745896Y-11482984D01*
X13745896Y-11482984D02*
X13707801Y-11482984D01*
X13707801Y-11482984D02*
X13688753Y-11473460D01*
X13688753Y-11473460D02*
X13679230Y-11454412D01*
X13679230Y-11454412D02*
X13679230Y-11378222D01*
X13679230Y-11378222D02*
X13688753Y-11359174D01*
X13688753Y-11359174D02*
X13707801Y-11349650D01*
X13707801Y-11349650D02*
X13745896Y-11349650D01*
X13745896Y-11349650D02*
X13764944Y-11359174D01*
X13764944Y-11359174D02*
X13774468Y-11378222D01*
X13774468Y-11378222D02*
X13774468Y-11397269D01*
X13774468Y-11397269D02*
X13679230Y-11416317D01*
X13850658Y-11473460D02*
X13869706Y-11482984D01*
X13869706Y-11482984D02*
X13907801Y-11482984D01*
X13907801Y-11482984D02*
X13926849Y-11473460D01*
X13926849Y-11473460D02*
X13936372Y-11454412D01*
X13936372Y-11454412D02*
X13936372Y-11444888D01*
X13936372Y-11444888D02*
X13926849Y-11425841D01*
X13926849Y-11425841D02*
X13907801Y-11416317D01*
X13907801Y-11416317D02*
X13879230Y-11416317D01*
X13879230Y-11416317D02*
X13860182Y-11406793D01*
X13860182Y-11406793D02*
X13850658Y-11387746D01*
X13850658Y-11387746D02*
X13850658Y-11378222D01*
X13850658Y-11378222D02*
X13860182Y-11359174D01*
X13860182Y-11359174D02*
X13879230Y-11349650D01*
X13879230Y-11349650D02*
X13907801Y-11349650D01*
X13907801Y-11349650D02*
X13926849Y-11359174D01*
X14003039Y-11559174D02*
X14012563Y-11549650D01*
X14012563Y-11549650D02*
X14031611Y-11521079D01*
X14031611Y-11521079D02*
X14041134Y-11502031D01*
X14041134Y-11502031D02*
X14050658Y-11473460D01*
X14050658Y-11473460D02*
X14060182Y-11425841D01*
X14060182Y-11425841D02*
X14060182Y-11387746D01*
X14060182Y-11387746D02*
X14050658Y-11340127D01*
X14050658Y-11340127D02*
X14041134Y-11311555D01*
X14041134Y-11311555D02*
X14031611Y-11292508D01*
X14031611Y-11292508D02*
X14012563Y-11263936D01*
X14012563Y-11263936D02*
X14003039Y-11254412D01*
D13*
X8972500Y-11590500D02*
X8972500Y-11720500D01*
X8907500Y-11655500D02*
X9037500Y-11655500D01*
D11*
X9403039Y-11746984D02*
X9288753Y-11746984D01*
X9345896Y-11746984D02*
X9345896Y-11546984D01*
X9345896Y-11546984D02*
X9326848Y-11575555D01*
X9326848Y-11575555D02*
X9307801Y-11594603D01*
X9307801Y-11594603D02*
X9288753Y-11604127D01*
X9488753Y-11727936D02*
X9498277Y-11737460D01*
X9498277Y-11737460D02*
X9488753Y-11746984D01*
X9488753Y-11746984D02*
X9479229Y-11737460D01*
X9479229Y-11737460D02*
X9488753Y-11727936D01*
X9488753Y-11727936D02*
X9488753Y-11746984D01*
X9564944Y-11546984D02*
X9688753Y-11546984D01*
X9688753Y-11546984D02*
X9622086Y-11623174D01*
X9622086Y-11623174D02*
X9650658Y-11623174D01*
X9650658Y-11623174D02*
X9669705Y-11632698D01*
X9669705Y-11632698D02*
X9679229Y-11642222D01*
X9679229Y-11642222D02*
X9688753Y-11661269D01*
X9688753Y-11661269D02*
X9688753Y-11708888D01*
X9688753Y-11708888D02*
X9679229Y-11727936D01*
X9679229Y-11727936D02*
X9669705Y-11737460D01*
X9669705Y-11737460D02*
X9650658Y-11746984D01*
X9650658Y-11746984D02*
X9593515Y-11746984D01*
X9593515Y-11746984D02*
X9574467Y-11737460D01*
X9574467Y-11737460D02*
X9564944Y-11727936D01*
X9812563Y-11546984D02*
X9831610Y-11546984D01*
X9831610Y-11546984D02*
X9850658Y-11556508D01*
X9850658Y-11556508D02*
X9860182Y-11566031D01*
X9860182Y-11566031D02*
X9869705Y-11585079D01*
X9869705Y-11585079D02*
X9879229Y-11623174D01*
X9879229Y-11623174D02*
X9879229Y-11670793D01*
X9879229Y-11670793D02*
X9869705Y-11708888D01*
X9869705Y-11708888D02*
X9860182Y-11727936D01*
X9860182Y-11727936D02*
X9850658Y-11737460D01*
X9850658Y-11737460D02*
X9831610Y-11746984D01*
X9831610Y-11746984D02*
X9812563Y-11746984D01*
X9812563Y-11746984D02*
X9793515Y-11737460D01*
X9793515Y-11737460D02*
X9783991Y-11727936D01*
X9783991Y-11727936D02*
X9774467Y-11708888D01*
X9774467Y-11708888D02*
X9764944Y-11670793D01*
X9764944Y-11670793D02*
X9764944Y-11623174D01*
X9764944Y-11623174D02*
X9774467Y-11585079D01*
X9774467Y-11585079D02*
X9783991Y-11566031D01*
X9783991Y-11566031D02*
X9793515Y-11556508D01*
X9793515Y-11556508D02*
X9812563Y-11546984D01*
X10003039Y-11546984D02*
X10022086Y-11546984D01*
X10022086Y-11546984D02*
X10041134Y-11556508D01*
X10041134Y-11556508D02*
X10050658Y-11566031D01*
X10050658Y-11566031D02*
X10060182Y-11585079D01*
X10060182Y-11585079D02*
X10069705Y-11623174D01*
X10069705Y-11623174D02*
X10069705Y-11670793D01*
X10069705Y-11670793D02*
X10060182Y-11708888D01*
X10060182Y-11708888D02*
X10050658Y-11727936D01*
X10050658Y-11727936D02*
X10041134Y-11737460D01*
X10041134Y-11737460D02*
X10022086Y-11746984D01*
X10022086Y-11746984D02*
X10003039Y-11746984D01*
X10003039Y-11746984D02*
X9983991Y-11737460D01*
X9983991Y-11737460D02*
X9974467Y-11727936D01*
X9974467Y-11727936D02*
X9964944Y-11708888D01*
X9964944Y-11708888D02*
X9955420Y-11670793D01*
X9955420Y-11670793D02*
X9955420Y-11623174D01*
X9955420Y-11623174D02*
X9964944Y-11585079D01*
X9964944Y-11585079D02*
X9974467Y-11566031D01*
X9974467Y-11566031D02*
X9983991Y-11556508D01*
X9983991Y-11556508D02*
X10003039Y-11546984D01*
X10155420Y-11746984D02*
X10155420Y-11613650D01*
X10155420Y-11632698D02*
X10164944Y-11623174D01*
X10164944Y-11623174D02*
X10183991Y-11613650D01*
X10183991Y-11613650D02*
X10212563Y-11613650D01*
X10212563Y-11613650D02*
X10231610Y-11623174D01*
X10231610Y-11623174D02*
X10241134Y-11642222D01*
X10241134Y-11642222D02*
X10241134Y-11746984D01*
X10241134Y-11642222D02*
X10250658Y-11623174D01*
X10250658Y-11623174D02*
X10269705Y-11613650D01*
X10269705Y-11613650D02*
X10298277Y-11613650D01*
X10298277Y-11613650D02*
X10317325Y-11623174D01*
X10317325Y-11623174D02*
X10326848Y-11642222D01*
X10326848Y-11642222D02*
X10326848Y-11746984D01*
X10422086Y-11746984D02*
X10422086Y-11613650D01*
X10422086Y-11632698D02*
X10431610Y-11623174D01*
X10431610Y-11623174D02*
X10450658Y-11613650D01*
X10450658Y-11613650D02*
X10479229Y-11613650D01*
X10479229Y-11613650D02*
X10498277Y-11623174D01*
X10498277Y-11623174D02*
X10507801Y-11642222D01*
X10507801Y-11642222D02*
X10507801Y-11746984D01*
X10507801Y-11642222D02*
X10517325Y-11623174D01*
X10517325Y-11623174D02*
X10536372Y-11613650D01*
X10536372Y-11613650D02*
X10564944Y-11613650D01*
X10564944Y-11613650D02*
X10583991Y-11623174D01*
X10583991Y-11623174D02*
X10593515Y-11642222D01*
X10593515Y-11642222D02*
X10593515Y-11746984D01*
X10983991Y-11537460D02*
X10812563Y-11794603D01*
X11241134Y-11546984D02*
X11260182Y-11546984D01*
X11260182Y-11546984D02*
X11279229Y-11556508D01*
X11279229Y-11556508D02*
X11288753Y-11566031D01*
X11288753Y-11566031D02*
X11298277Y-11585079D01*
X11298277Y-11585079D02*
X11307801Y-11623174D01*
X11307801Y-11623174D02*
X11307801Y-11670793D01*
X11307801Y-11670793D02*
X11298277Y-11708888D01*
X11298277Y-11708888D02*
X11288753Y-11727936D01*
X11288753Y-11727936D02*
X11279229Y-11737460D01*
X11279229Y-11737460D02*
X11260182Y-11746984D01*
X11260182Y-11746984D02*
X11241134Y-11746984D01*
X11241134Y-11746984D02*
X11222086Y-11737460D01*
X11222086Y-11737460D02*
X11212563Y-11727936D01*
X11212563Y-11727936D02*
X11203039Y-11708888D01*
X11203039Y-11708888D02*
X11193515Y-11670793D01*
X11193515Y-11670793D02*
X11193515Y-11623174D01*
X11193515Y-11623174D02*
X11203039Y-11585079D01*
X11203039Y-11585079D02*
X11212563Y-11566031D01*
X11212563Y-11566031D02*
X11222086Y-11556508D01*
X11222086Y-11556508D02*
X11241134Y-11546984D01*
X11393515Y-11727936D02*
X11403039Y-11737460D01*
X11403039Y-11737460D02*
X11393515Y-11746984D01*
X11393515Y-11746984D02*
X11383991Y-11737460D01*
X11383991Y-11737460D02*
X11393515Y-11727936D01*
X11393515Y-11727936D02*
X11393515Y-11746984D01*
X11526848Y-11546984D02*
X11545896Y-11546984D01*
X11545896Y-11546984D02*
X11564944Y-11556508D01*
X11564944Y-11556508D02*
X11574467Y-11566031D01*
X11574467Y-11566031D02*
X11583991Y-11585079D01*
X11583991Y-11585079D02*
X11593515Y-11623174D01*
X11593515Y-11623174D02*
X11593515Y-11670793D01*
X11593515Y-11670793D02*
X11583991Y-11708888D01*
X11583991Y-11708888D02*
X11574467Y-11727936D01*
X11574467Y-11727936D02*
X11564944Y-11737460D01*
X11564944Y-11737460D02*
X11545896Y-11746984D01*
X11545896Y-11746984D02*
X11526848Y-11746984D01*
X11526848Y-11746984D02*
X11507801Y-11737460D01*
X11507801Y-11737460D02*
X11498277Y-11727936D01*
X11498277Y-11727936D02*
X11488753Y-11708888D01*
X11488753Y-11708888D02*
X11479229Y-11670793D01*
X11479229Y-11670793D02*
X11479229Y-11623174D01*
X11479229Y-11623174D02*
X11488753Y-11585079D01*
X11488753Y-11585079D02*
X11498277Y-11566031D01*
X11498277Y-11566031D02*
X11507801Y-11556508D01*
X11507801Y-11556508D02*
X11526848Y-11546984D01*
X11774467Y-11546984D02*
X11679229Y-11546984D01*
X11679229Y-11546984D02*
X11669706Y-11642222D01*
X11669706Y-11642222D02*
X11679229Y-11632698D01*
X11679229Y-11632698D02*
X11698277Y-11623174D01*
X11698277Y-11623174D02*
X11745896Y-11623174D01*
X11745896Y-11623174D02*
X11764944Y-11632698D01*
X11764944Y-11632698D02*
X11774467Y-11642222D01*
X11774467Y-11642222D02*
X11783991Y-11661269D01*
X11783991Y-11661269D02*
X11783991Y-11708888D01*
X11783991Y-11708888D02*
X11774467Y-11727936D01*
X11774467Y-11727936D02*
X11764944Y-11737460D01*
X11764944Y-11737460D02*
X11745896Y-11746984D01*
X11745896Y-11746984D02*
X11698277Y-11746984D01*
X11698277Y-11746984D02*
X11679229Y-11737460D01*
X11679229Y-11737460D02*
X11669706Y-11727936D01*
X11974467Y-11746984D02*
X11860182Y-11746984D01*
X11917325Y-11746984D02*
X11917325Y-11546984D01*
X11917325Y-11546984D02*
X11898277Y-11575555D01*
X11898277Y-11575555D02*
X11879229Y-11594603D01*
X11879229Y-11594603D02*
X11860182Y-11604127D01*
X12050658Y-11566031D02*
X12060182Y-11556508D01*
X12060182Y-11556508D02*
X12079229Y-11546984D01*
X12079229Y-11546984D02*
X12126848Y-11546984D01*
X12126848Y-11546984D02*
X12145896Y-11556508D01*
X12145896Y-11556508D02*
X12155420Y-11566031D01*
X12155420Y-11566031D02*
X12164944Y-11585079D01*
X12164944Y-11585079D02*
X12164944Y-11604127D01*
X12164944Y-11604127D02*
X12155420Y-11632698D01*
X12155420Y-11632698D02*
X12041134Y-11746984D01*
X12041134Y-11746984D02*
X12164944Y-11746984D01*
X12241134Y-11546984D02*
X12241134Y-11585079D01*
X12317325Y-11546984D02*
X12317325Y-11585079D01*
X12612563Y-11823174D02*
X12603039Y-11813650D01*
X12603039Y-11813650D02*
X12583991Y-11785079D01*
X12583991Y-11785079D02*
X12574468Y-11766031D01*
X12574468Y-11766031D02*
X12564944Y-11737460D01*
X12564944Y-11737460D02*
X12555420Y-11689841D01*
X12555420Y-11689841D02*
X12555420Y-11651746D01*
X12555420Y-11651746D02*
X12564944Y-11604127D01*
X12564944Y-11604127D02*
X12574468Y-11575555D01*
X12574468Y-11575555D02*
X12583991Y-11556508D01*
X12583991Y-11556508D02*
X12603039Y-11527936D01*
X12603039Y-11527936D02*
X12612563Y-11518412D01*
X12669706Y-11546984D02*
X12793515Y-11546984D01*
X12793515Y-11546984D02*
X12726848Y-11623174D01*
X12726848Y-11623174D02*
X12755420Y-11623174D01*
X12755420Y-11623174D02*
X12774468Y-11632698D01*
X12774468Y-11632698D02*
X12783991Y-11642222D01*
X12783991Y-11642222D02*
X12793515Y-11661269D01*
X12793515Y-11661269D02*
X12793515Y-11708888D01*
X12793515Y-11708888D02*
X12783991Y-11727936D01*
X12783991Y-11727936D02*
X12774468Y-11737460D01*
X12774468Y-11737460D02*
X12755420Y-11746984D01*
X12755420Y-11746984D02*
X12698277Y-11746984D01*
X12698277Y-11746984D02*
X12679229Y-11737460D01*
X12679229Y-11737460D02*
X12669706Y-11727936D01*
X13031610Y-11746984D02*
X13031610Y-11546984D01*
X13117325Y-11746984D02*
X13117325Y-11642222D01*
X13117325Y-11642222D02*
X13107801Y-11623174D01*
X13107801Y-11623174D02*
X13088753Y-11613650D01*
X13088753Y-11613650D02*
X13060182Y-11613650D01*
X13060182Y-11613650D02*
X13041134Y-11623174D01*
X13041134Y-11623174D02*
X13031610Y-11632698D01*
X13241134Y-11746984D02*
X13222087Y-11737460D01*
X13222087Y-11737460D02*
X13212563Y-11727936D01*
X13212563Y-11727936D02*
X13203039Y-11708888D01*
X13203039Y-11708888D02*
X13203039Y-11651746D01*
X13203039Y-11651746D02*
X13212563Y-11632698D01*
X13212563Y-11632698D02*
X13222087Y-11623174D01*
X13222087Y-11623174D02*
X13241134Y-11613650D01*
X13241134Y-11613650D02*
X13269706Y-11613650D01*
X13269706Y-11613650D02*
X13288753Y-11623174D01*
X13288753Y-11623174D02*
X13298277Y-11632698D01*
X13298277Y-11632698D02*
X13307801Y-11651746D01*
X13307801Y-11651746D02*
X13307801Y-11708888D01*
X13307801Y-11708888D02*
X13298277Y-11727936D01*
X13298277Y-11727936D02*
X13288753Y-11737460D01*
X13288753Y-11737460D02*
X13269706Y-11746984D01*
X13269706Y-11746984D02*
X13241134Y-11746984D01*
X13422087Y-11746984D02*
X13403039Y-11737460D01*
X13403039Y-11737460D02*
X13393515Y-11718412D01*
X13393515Y-11718412D02*
X13393515Y-11546984D01*
X13574468Y-11737460D02*
X13555420Y-11746984D01*
X13555420Y-11746984D02*
X13517325Y-11746984D01*
X13517325Y-11746984D02*
X13498277Y-11737460D01*
X13498277Y-11737460D02*
X13488753Y-11718412D01*
X13488753Y-11718412D02*
X13488753Y-11642222D01*
X13488753Y-11642222D02*
X13498277Y-11623174D01*
X13498277Y-11623174D02*
X13517325Y-11613650D01*
X13517325Y-11613650D02*
X13555420Y-11613650D01*
X13555420Y-11613650D02*
X13574468Y-11623174D01*
X13574468Y-11623174D02*
X13583991Y-11642222D01*
X13583991Y-11642222D02*
X13583991Y-11661269D01*
X13583991Y-11661269D02*
X13488753Y-11680317D01*
X13660182Y-11737460D02*
X13679230Y-11746984D01*
X13679230Y-11746984D02*
X13717325Y-11746984D01*
X13717325Y-11746984D02*
X13736372Y-11737460D01*
X13736372Y-11737460D02*
X13745896Y-11718412D01*
X13745896Y-11718412D02*
X13745896Y-11708888D01*
X13745896Y-11708888D02*
X13736372Y-11689841D01*
X13736372Y-11689841D02*
X13717325Y-11680317D01*
X13717325Y-11680317D02*
X13688753Y-11680317D01*
X13688753Y-11680317D02*
X13669706Y-11670793D01*
X13669706Y-11670793D02*
X13660182Y-11651746D01*
X13660182Y-11651746D02*
X13660182Y-11642222D01*
X13660182Y-11642222D02*
X13669706Y-11623174D01*
X13669706Y-11623174D02*
X13688753Y-11613650D01*
X13688753Y-11613650D02*
X13717325Y-11613650D01*
X13717325Y-11613650D02*
X13736372Y-11623174D01*
X13812563Y-11823174D02*
X13822087Y-11813650D01*
X13822087Y-11813650D02*
X13841134Y-11785079D01*
X13841134Y-11785079D02*
X13850658Y-11766031D01*
X13850658Y-11766031D02*
X13860182Y-11737460D01*
X13860182Y-11737460D02*
X13869706Y-11689841D01*
X13869706Y-11689841D02*
X13869706Y-11651746D01*
X13869706Y-11651746D02*
X13860182Y-11604127D01*
X13860182Y-11604127D02*
X13850658Y-11575555D01*
X13850658Y-11575555D02*
X13841134Y-11556508D01*
X13841134Y-11556508D02*
X13822087Y-11527936D01*
X13822087Y-11527936D02*
X13812563Y-11518412D01*
M02*
