G04 #@! TF.GenerationSoftware,KiCad,Pcbnew,9.0.2+dfsg-1*
G04 #@! TF.CreationDate,2026-10-04T10:33:52-04:00*
G04 #@! TF.ProjectId,mod_hdmi,6d6f645f-6864-46d6-992e-6b696361645f,A1*
G04 #@! TF.SameCoordinates,Original*
G04 #@! TF.FileFunction,Other,User*
%FSLAX46Y46*%
G04 Gerber Fmt 4.6, Leading zero omitted, Abs format (unit mm)*
G04 Created by KiCad (PCBNEW 9.0.2+dfsg-1) date 2026-10-04 10:33:52*
%MOMM*%
%LPD*%
G01*
G04 APERTURE LIST*
%ADD10C,0.100000*%
%ADD11C,0.084000*%
G04 APERTURE END LIST*
D10*
X119214000Y-103250000D02*
X135094000Y-103250000D01*
X90400000Y-95150000D02*
X90400000Y-104850000D01*
X90400000Y-104850000D02*
X109600000Y-104850000D01*
X109600000Y-104850000D02*
X109600000Y-95150000D01*
X135094000Y-103250000D02*
X135094000Y-96750000D01*
X109600000Y-95150000D02*
X90400000Y-95150000D01*
X135094000Y-96750000D02*
X119214000Y-96750000D01*
X119214000Y-96750000D02*
X119214000Y-103250000D01*
D11*
X90771427Y-105808917D02*
X90571427Y-105808917D01*
X90571427Y-106123203D02*
X90571427Y-105523203D01*
X90571427Y-105523203D02*
X90857141Y-105523203D01*
X91428570Y-106123203D02*
X91228570Y-105837489D01*
X91085713Y-106123203D02*
X91085713Y-105523203D01*
X91085713Y-105523203D02*
X91314284Y-105523203D01*
X91314284Y-105523203D02*
X91371427Y-105551774D01*
X91371427Y-105551774D02*
X91399998Y-105580346D01*
X91399998Y-105580346D02*
X91428570Y-105637489D01*
X91428570Y-105637489D02*
X91428570Y-105723203D01*
X91428570Y-105723203D02*
X91399998Y-105780346D01*
X91399998Y-105780346D02*
X91371427Y-105808917D01*
X91371427Y-105808917D02*
X91314284Y-105837489D01*
X91314284Y-105837489D02*
X91085713Y-105837489D01*
X91942856Y-105723203D02*
X91942856Y-106123203D01*
X91799998Y-105494632D02*
X91657141Y-105923203D01*
X91657141Y-105923203D02*
X92028570Y-105923203D01*
X93028570Y-106123203D02*
X92685713Y-106123203D01*
X92857142Y-106123203D02*
X92857142Y-105523203D01*
X92857142Y-105523203D02*
X92799999Y-105608917D01*
X92799999Y-105608917D02*
X92742856Y-105666060D01*
X92742856Y-105666060D02*
X92685713Y-105694632D01*
X93285714Y-106066060D02*
X93314285Y-106094632D01*
X93314285Y-106094632D02*
X93285714Y-106123203D01*
X93285714Y-106123203D02*
X93257142Y-106094632D01*
X93257142Y-106094632D02*
X93285714Y-106066060D01*
X93285714Y-106066060D02*
X93285714Y-106123203D01*
X93685713Y-105523203D02*
X93742856Y-105523203D01*
X93742856Y-105523203D02*
X93799999Y-105551774D01*
X93799999Y-105551774D02*
X93828571Y-105580346D01*
X93828571Y-105580346D02*
X93857142Y-105637489D01*
X93857142Y-105637489D02*
X93885713Y-105751774D01*
X93885713Y-105751774D02*
X93885713Y-105894632D01*
X93885713Y-105894632D02*
X93857142Y-106008917D01*
X93857142Y-106008917D02*
X93828571Y-106066060D01*
X93828571Y-106066060D02*
X93799999Y-106094632D01*
X93799999Y-106094632D02*
X93742856Y-106123203D01*
X93742856Y-106123203D02*
X93685713Y-106123203D01*
X93685713Y-106123203D02*
X93628571Y-106094632D01*
X93628571Y-106094632D02*
X93599999Y-106066060D01*
X93599999Y-106066060D02*
X93571428Y-106008917D01*
X93571428Y-106008917D02*
X93542856Y-105894632D01*
X93542856Y-105894632D02*
X93542856Y-105751774D01*
X93542856Y-105751774D02*
X93571428Y-105637489D01*
X93571428Y-105637489D02*
X93599999Y-105580346D01*
X93599999Y-105580346D02*
X93628571Y-105551774D01*
X93628571Y-105551774D02*
X93685713Y-105523203D01*
X94571428Y-106094632D02*
X94628571Y-106123203D01*
X94628571Y-106123203D02*
X94742857Y-106123203D01*
X94742857Y-106123203D02*
X94800000Y-106094632D01*
X94800000Y-106094632D02*
X94828571Y-106037489D01*
X94828571Y-106037489D02*
X94828571Y-106008917D01*
X94828571Y-106008917D02*
X94800000Y-105951774D01*
X94800000Y-105951774D02*
X94742857Y-105923203D01*
X94742857Y-105923203D02*
X94657143Y-105923203D01*
X94657143Y-105923203D02*
X94600000Y-105894632D01*
X94600000Y-105894632D02*
X94571428Y-105837489D01*
X94571428Y-105837489D02*
X94571428Y-105808917D01*
X94571428Y-105808917D02*
X94600000Y-105751774D01*
X94600000Y-105751774D02*
X94657143Y-105723203D01*
X94657143Y-105723203D02*
X94742857Y-105723203D01*
X94742857Y-105723203D02*
X94800000Y-105751774D01*
X94999999Y-105723203D02*
X95228571Y-105723203D01*
X95085714Y-105523203D02*
X95085714Y-106037489D01*
X95085714Y-106037489D02*
X95114285Y-106094632D01*
X95114285Y-106094632D02*
X95171428Y-106123203D01*
X95171428Y-106123203D02*
X95228571Y-106123203D01*
X95428571Y-106123203D02*
X95428571Y-105723203D01*
X95428571Y-105523203D02*
X95399999Y-105551774D01*
X95399999Y-105551774D02*
X95428571Y-105580346D01*
X95428571Y-105580346D02*
X95457142Y-105551774D01*
X95457142Y-105551774D02*
X95428571Y-105523203D01*
X95428571Y-105523203D02*
X95428571Y-105580346D01*
X95628570Y-105723203D02*
X95857142Y-105723203D01*
X95714285Y-106123203D02*
X95714285Y-105608917D01*
X95714285Y-105608917D02*
X95742856Y-105551774D01*
X95742856Y-105551774D02*
X95799999Y-105523203D01*
X95799999Y-105523203D02*
X95857142Y-105523203D01*
X95971427Y-105723203D02*
X96199999Y-105723203D01*
X96057142Y-106123203D02*
X96057142Y-105608917D01*
X96057142Y-105608917D02*
X96085713Y-105551774D01*
X96085713Y-105551774D02*
X96142856Y-105523203D01*
X96142856Y-105523203D02*
X96199999Y-105523203D01*
X96628570Y-106094632D02*
X96571427Y-106123203D01*
X96571427Y-106123203D02*
X96457142Y-106123203D01*
X96457142Y-106123203D02*
X96399999Y-106094632D01*
X96399999Y-106094632D02*
X96371427Y-106037489D01*
X96371427Y-106037489D02*
X96371427Y-105808917D01*
X96371427Y-105808917D02*
X96399999Y-105751774D01*
X96399999Y-105751774D02*
X96457142Y-105723203D01*
X96457142Y-105723203D02*
X96571427Y-105723203D01*
X96571427Y-105723203D02*
X96628570Y-105751774D01*
X96628570Y-105751774D02*
X96657142Y-105808917D01*
X96657142Y-105808917D02*
X96657142Y-105866060D01*
X96657142Y-105866060D02*
X96371427Y-105923203D01*
X96914285Y-105723203D02*
X96914285Y-106123203D01*
X96914285Y-105780346D02*
X96942856Y-105751774D01*
X96942856Y-105751774D02*
X96999999Y-105723203D01*
X96999999Y-105723203D02*
X97085713Y-105723203D01*
X97085713Y-105723203D02*
X97142856Y-105751774D01*
X97142856Y-105751774D02*
X97171428Y-105808917D01*
X97171428Y-105808917D02*
X97171428Y-106123203D01*
X97685713Y-106094632D02*
X97628570Y-106123203D01*
X97628570Y-106123203D02*
X97514285Y-106123203D01*
X97514285Y-106123203D02*
X97457142Y-106094632D01*
X97457142Y-106094632D02*
X97428570Y-106037489D01*
X97428570Y-106037489D02*
X97428570Y-105808917D01*
X97428570Y-105808917D02*
X97457142Y-105751774D01*
X97457142Y-105751774D02*
X97514285Y-105723203D01*
X97514285Y-105723203D02*
X97628570Y-105723203D01*
X97628570Y-105723203D02*
X97685713Y-105751774D01*
X97685713Y-105751774D02*
X97714285Y-105808917D01*
X97714285Y-105808917D02*
X97714285Y-105866060D01*
X97714285Y-105866060D02*
X97428570Y-105923203D01*
X97971428Y-106123203D02*
X97971428Y-105723203D01*
X97971428Y-105837489D02*
X97999999Y-105780346D01*
X97999999Y-105780346D02*
X98028571Y-105751774D01*
X98028571Y-105751774D02*
X98085713Y-105723203D01*
X98085713Y-105723203D02*
X98142856Y-105723203D01*
X98971428Y-106351774D02*
X98942857Y-106323203D01*
X98942857Y-106323203D02*
X98885714Y-106237489D01*
X98885714Y-106237489D02*
X98857143Y-106180346D01*
X98857143Y-106180346D02*
X98828571Y-106094632D01*
X98828571Y-106094632D02*
X98800000Y-105951774D01*
X98800000Y-105951774D02*
X98800000Y-105837489D01*
X98800000Y-105837489D02*
X98828571Y-105694632D01*
X98828571Y-105694632D02*
X98857143Y-105608917D01*
X98857143Y-105608917D02*
X98885714Y-105551774D01*
X98885714Y-105551774D02*
X98942857Y-105466060D01*
X98942857Y-105466060D02*
X98971428Y-105437489D01*
X99400000Y-105808917D02*
X99485714Y-105837489D01*
X99485714Y-105837489D02*
X99514285Y-105866060D01*
X99514285Y-105866060D02*
X99542857Y-105923203D01*
X99542857Y-105923203D02*
X99542857Y-106008917D01*
X99542857Y-106008917D02*
X99514285Y-106066060D01*
X99514285Y-106066060D02*
X99485714Y-106094632D01*
X99485714Y-106094632D02*
X99428571Y-106123203D01*
X99428571Y-106123203D02*
X99200000Y-106123203D01*
X99200000Y-106123203D02*
X99200000Y-105523203D01*
X99200000Y-105523203D02*
X99400000Y-105523203D01*
X99400000Y-105523203D02*
X99457143Y-105551774D01*
X99457143Y-105551774D02*
X99485714Y-105580346D01*
X99485714Y-105580346D02*
X99514285Y-105637489D01*
X99514285Y-105637489D02*
X99514285Y-105694632D01*
X99514285Y-105694632D02*
X99485714Y-105751774D01*
X99485714Y-105751774D02*
X99457143Y-105780346D01*
X99457143Y-105780346D02*
X99400000Y-105808917D01*
X99400000Y-105808917D02*
X99200000Y-105808917D01*
X99828571Y-106094632D02*
X99828571Y-106123203D01*
X99828571Y-106123203D02*
X99800000Y-106180346D01*
X99800000Y-106180346D02*
X99771428Y-106208917D01*
X100542857Y-106123203D02*
X100542857Y-105523203D01*
X100542857Y-105523203D02*
X100771428Y-105523203D01*
X100771428Y-105523203D02*
X100828571Y-105551774D01*
X100828571Y-105551774D02*
X100857142Y-105580346D01*
X100857142Y-105580346D02*
X100885714Y-105637489D01*
X100885714Y-105637489D02*
X100885714Y-105723203D01*
X100885714Y-105723203D02*
X100857142Y-105780346D01*
X100857142Y-105780346D02*
X100828571Y-105808917D01*
X100828571Y-105808917D02*
X100771428Y-105837489D01*
X100771428Y-105837489D02*
X100542857Y-105837489D01*
X101114285Y-106094632D02*
X101200000Y-106123203D01*
X101200000Y-106123203D02*
X101342857Y-106123203D01*
X101342857Y-106123203D02*
X101400000Y-106094632D01*
X101400000Y-106094632D02*
X101428571Y-106066060D01*
X101428571Y-106066060D02*
X101457142Y-106008917D01*
X101457142Y-106008917D02*
X101457142Y-105951774D01*
X101457142Y-105951774D02*
X101428571Y-105894632D01*
X101428571Y-105894632D02*
X101400000Y-105866060D01*
X101400000Y-105866060D02*
X101342857Y-105837489D01*
X101342857Y-105837489D02*
X101228571Y-105808917D01*
X101228571Y-105808917D02*
X101171428Y-105780346D01*
X101171428Y-105780346D02*
X101142857Y-105751774D01*
X101142857Y-105751774D02*
X101114285Y-105694632D01*
X101114285Y-105694632D02*
X101114285Y-105637489D01*
X101114285Y-105637489D02*
X101142857Y-105580346D01*
X101142857Y-105580346D02*
X101171428Y-105551774D01*
X101171428Y-105551774D02*
X101228571Y-105523203D01*
X101228571Y-105523203D02*
X101371428Y-105523203D01*
X101371428Y-105523203D02*
X101457142Y-105551774D01*
X101685714Y-105951774D02*
X101971429Y-105951774D01*
X101628571Y-106123203D02*
X101828571Y-105523203D01*
X101828571Y-105523203D02*
X102028571Y-106123203D01*
X102171429Y-106351774D02*
X102200000Y-106323203D01*
X102200000Y-106323203D02*
X102257143Y-106237489D01*
X102257143Y-106237489D02*
X102285715Y-106180346D01*
X102285715Y-106180346D02*
X102314286Y-106094632D01*
X102314286Y-106094632D02*
X102342857Y-105951774D01*
X102342857Y-105951774D02*
X102342857Y-105837489D01*
X102342857Y-105837489D02*
X102314286Y-105694632D01*
X102314286Y-105694632D02*
X102285715Y-105608917D01*
X102285715Y-105608917D02*
X102257143Y-105551774D01*
X102257143Y-105551774D02*
X102200000Y-105466060D01*
X102200000Y-105466060D02*
X102171429Y-105437489D01*
X103342858Y-105723203D02*
X103342858Y-106123203D01*
X103085715Y-105723203D02*
X103085715Y-106037489D01*
X103085715Y-106037489D02*
X103114286Y-106094632D01*
X103114286Y-106094632D02*
X103171429Y-106123203D01*
X103171429Y-106123203D02*
X103257143Y-106123203D01*
X103257143Y-106123203D02*
X103314286Y-106094632D01*
X103314286Y-106094632D02*
X103342858Y-106066060D01*
X103628572Y-105723203D02*
X103628572Y-106123203D01*
X103628572Y-105780346D02*
X103657143Y-105751774D01*
X103657143Y-105751774D02*
X103714286Y-105723203D01*
X103714286Y-105723203D02*
X103800000Y-105723203D01*
X103800000Y-105723203D02*
X103857143Y-105751774D01*
X103857143Y-105751774D02*
X103885715Y-105808917D01*
X103885715Y-105808917D02*
X103885715Y-106123203D01*
X104428572Y-106123203D02*
X104428572Y-105523203D01*
X104428572Y-106094632D02*
X104371429Y-106123203D01*
X104371429Y-106123203D02*
X104257143Y-106123203D01*
X104257143Y-106123203D02*
X104200000Y-106094632D01*
X104200000Y-106094632D02*
X104171429Y-106066060D01*
X104171429Y-106066060D02*
X104142857Y-106008917D01*
X104142857Y-106008917D02*
X104142857Y-105837489D01*
X104142857Y-105837489D02*
X104171429Y-105780346D01*
X104171429Y-105780346D02*
X104200000Y-105751774D01*
X104200000Y-105751774D02*
X104257143Y-105723203D01*
X104257143Y-105723203D02*
X104371429Y-105723203D01*
X104371429Y-105723203D02*
X104428572Y-105751774D01*
X104942857Y-106094632D02*
X104885714Y-106123203D01*
X104885714Y-106123203D02*
X104771429Y-106123203D01*
X104771429Y-106123203D02*
X104714286Y-106094632D01*
X104714286Y-106094632D02*
X104685714Y-106037489D01*
X104685714Y-106037489D02*
X104685714Y-105808917D01*
X104685714Y-105808917D02*
X104714286Y-105751774D01*
X104714286Y-105751774D02*
X104771429Y-105723203D01*
X104771429Y-105723203D02*
X104885714Y-105723203D01*
X104885714Y-105723203D02*
X104942857Y-105751774D01*
X104942857Y-105751774D02*
X104971429Y-105808917D01*
X104971429Y-105808917D02*
X104971429Y-105866060D01*
X104971429Y-105866060D02*
X104685714Y-105923203D01*
X105228572Y-106123203D02*
X105228572Y-105723203D01*
X105228572Y-105837489D02*
X105257143Y-105780346D01*
X105257143Y-105780346D02*
X105285715Y-105751774D01*
X105285715Y-105751774D02*
X105342857Y-105723203D01*
X105342857Y-105723203D02*
X105400000Y-105723203D01*
X105971429Y-105723203D02*
X106200001Y-105723203D01*
X106057144Y-105523203D02*
X106057144Y-106037489D01*
X106057144Y-106037489D02*
X106085715Y-106094632D01*
X106085715Y-106094632D02*
X106142858Y-106123203D01*
X106142858Y-106123203D02*
X106200001Y-106123203D01*
X106400001Y-106123203D02*
X106400001Y-105523203D01*
X106657144Y-106123203D02*
X106657144Y-105808917D01*
X106657144Y-105808917D02*
X106628572Y-105751774D01*
X106628572Y-105751774D02*
X106571429Y-105723203D01*
X106571429Y-105723203D02*
X106485715Y-105723203D01*
X106485715Y-105723203D02*
X106428572Y-105751774D01*
X106428572Y-105751774D02*
X106400001Y-105780346D01*
X107171429Y-106094632D02*
X107114286Y-106123203D01*
X107114286Y-106123203D02*
X107000001Y-106123203D01*
X107000001Y-106123203D02*
X106942858Y-106094632D01*
X106942858Y-106094632D02*
X106914286Y-106037489D01*
X106914286Y-106037489D02*
X106914286Y-105808917D01*
X106914286Y-105808917D02*
X106942858Y-105751774D01*
X106942858Y-105751774D02*
X107000001Y-105723203D01*
X107000001Y-105723203D02*
X107114286Y-105723203D01*
X107114286Y-105723203D02*
X107171429Y-105751774D01*
X107171429Y-105751774D02*
X107200001Y-105808917D01*
X107200001Y-105808917D02*
X107200001Y-105866060D01*
X107200001Y-105866060D02*
X106914286Y-105923203D01*
X107914287Y-105723203D02*
X107914287Y-106323203D01*
X107914287Y-105751774D02*
X107971430Y-105723203D01*
X107971430Y-105723203D02*
X108085715Y-105723203D01*
X108085715Y-105723203D02*
X108142858Y-105751774D01*
X108142858Y-105751774D02*
X108171430Y-105780346D01*
X108171430Y-105780346D02*
X108200001Y-105837489D01*
X108200001Y-105837489D02*
X108200001Y-106008917D01*
X108200001Y-106008917D02*
X108171430Y-106066060D01*
X108171430Y-106066060D02*
X108142858Y-106094632D01*
X108142858Y-106094632D02*
X108085715Y-106123203D01*
X108085715Y-106123203D02*
X107971430Y-106123203D01*
X107971430Y-106123203D02*
X107914287Y-106094632D01*
X108542858Y-106123203D02*
X108485715Y-106094632D01*
X108485715Y-106094632D02*
X108457144Y-106066060D01*
X108457144Y-106066060D02*
X108428572Y-106008917D01*
X108428572Y-106008917D02*
X108428572Y-105837489D01*
X108428572Y-105837489D02*
X108457144Y-105780346D01*
X108457144Y-105780346D02*
X108485715Y-105751774D01*
X108485715Y-105751774D02*
X108542858Y-105723203D01*
X108542858Y-105723203D02*
X108628572Y-105723203D01*
X108628572Y-105723203D02*
X108685715Y-105751774D01*
X108685715Y-105751774D02*
X108714287Y-105780346D01*
X108714287Y-105780346D02*
X108742858Y-105837489D01*
X108742858Y-105837489D02*
X108742858Y-106008917D01*
X108742858Y-106008917D02*
X108714287Y-106066060D01*
X108714287Y-106066060D02*
X108685715Y-106094632D01*
X108685715Y-106094632D02*
X108628572Y-106123203D01*
X108628572Y-106123203D02*
X108542858Y-106123203D01*
X109000001Y-106123203D02*
X109000001Y-105723203D01*
X109000001Y-105837489D02*
X109028572Y-105780346D01*
X109028572Y-105780346D02*
X109057144Y-105751774D01*
X109057144Y-105751774D02*
X109114286Y-105723203D01*
X109114286Y-105723203D02*
X109171429Y-105723203D01*
X109285715Y-105723203D02*
X109514287Y-105723203D01*
X109371430Y-105523203D02*
X109371430Y-106037489D01*
X109371430Y-106037489D02*
X109400001Y-106094632D01*
X109400001Y-106094632D02*
X109457144Y-106123203D01*
X109457144Y-106123203D02*
X109514287Y-106123203D01*
X115306856Y-104208917D02*
X115106856Y-104208917D01*
X115106856Y-104523203D02*
X115106856Y-103923203D01*
X115106856Y-103923203D02*
X115392570Y-103923203D01*
X115963999Y-104523203D02*
X115763999Y-104237489D01*
X115621142Y-104523203D02*
X115621142Y-103923203D01*
X115621142Y-103923203D02*
X115849713Y-103923203D01*
X115849713Y-103923203D02*
X115906856Y-103951774D01*
X115906856Y-103951774D02*
X115935427Y-103980346D01*
X115935427Y-103980346D02*
X115963999Y-104037489D01*
X115963999Y-104037489D02*
X115963999Y-104123203D01*
X115963999Y-104123203D02*
X115935427Y-104180346D01*
X115935427Y-104180346D02*
X115906856Y-104208917D01*
X115906856Y-104208917D02*
X115849713Y-104237489D01*
X115849713Y-104237489D02*
X115621142Y-104237489D01*
X116478285Y-104123203D02*
X116478285Y-104523203D01*
X116335427Y-103894632D02*
X116192570Y-104323203D01*
X116192570Y-104323203D02*
X116563999Y-104323203D01*
X117363999Y-103923203D02*
X117421142Y-103923203D01*
X117421142Y-103923203D02*
X117478285Y-103951774D01*
X117478285Y-103951774D02*
X117506857Y-103980346D01*
X117506857Y-103980346D02*
X117535428Y-104037489D01*
X117535428Y-104037489D02*
X117563999Y-104151774D01*
X117563999Y-104151774D02*
X117563999Y-104294632D01*
X117563999Y-104294632D02*
X117535428Y-104408917D01*
X117535428Y-104408917D02*
X117506857Y-104466060D01*
X117506857Y-104466060D02*
X117478285Y-104494632D01*
X117478285Y-104494632D02*
X117421142Y-104523203D01*
X117421142Y-104523203D02*
X117363999Y-104523203D01*
X117363999Y-104523203D02*
X117306857Y-104494632D01*
X117306857Y-104494632D02*
X117278285Y-104466060D01*
X117278285Y-104466060D02*
X117249714Y-104408917D01*
X117249714Y-104408917D02*
X117221142Y-104294632D01*
X117221142Y-104294632D02*
X117221142Y-104151774D01*
X117221142Y-104151774D02*
X117249714Y-104037489D01*
X117249714Y-104037489D02*
X117278285Y-103980346D01*
X117278285Y-103980346D02*
X117306857Y-103951774D01*
X117306857Y-103951774D02*
X117363999Y-103923203D01*
X117821143Y-104466060D02*
X117849714Y-104494632D01*
X117849714Y-104494632D02*
X117821143Y-104523203D01*
X117821143Y-104523203D02*
X117792571Y-104494632D01*
X117792571Y-104494632D02*
X117821143Y-104466060D01*
X117821143Y-104466060D02*
X117821143Y-104523203D01*
X118364000Y-103923203D02*
X118249714Y-103923203D01*
X118249714Y-103923203D02*
X118192571Y-103951774D01*
X118192571Y-103951774D02*
X118164000Y-103980346D01*
X118164000Y-103980346D02*
X118106857Y-104066060D01*
X118106857Y-104066060D02*
X118078285Y-104180346D01*
X118078285Y-104180346D02*
X118078285Y-104408917D01*
X118078285Y-104408917D02*
X118106857Y-104466060D01*
X118106857Y-104466060D02*
X118135428Y-104494632D01*
X118135428Y-104494632D02*
X118192571Y-104523203D01*
X118192571Y-104523203D02*
X118306857Y-104523203D01*
X118306857Y-104523203D02*
X118364000Y-104494632D01*
X118364000Y-104494632D02*
X118392571Y-104466060D01*
X118392571Y-104466060D02*
X118421142Y-104408917D01*
X118421142Y-104408917D02*
X118421142Y-104266060D01*
X118421142Y-104266060D02*
X118392571Y-104208917D01*
X118392571Y-104208917D02*
X118364000Y-104180346D01*
X118364000Y-104180346D02*
X118306857Y-104151774D01*
X118306857Y-104151774D02*
X118192571Y-104151774D01*
X118192571Y-104151774D02*
X118135428Y-104180346D01*
X118135428Y-104180346D02*
X118106857Y-104208917D01*
X118106857Y-104208917D02*
X118078285Y-104266060D01*
X119106857Y-104494632D02*
X119164000Y-104523203D01*
X119164000Y-104523203D02*
X119278286Y-104523203D01*
X119278286Y-104523203D02*
X119335429Y-104494632D01*
X119335429Y-104494632D02*
X119364000Y-104437489D01*
X119364000Y-104437489D02*
X119364000Y-104408917D01*
X119364000Y-104408917D02*
X119335429Y-104351774D01*
X119335429Y-104351774D02*
X119278286Y-104323203D01*
X119278286Y-104323203D02*
X119192572Y-104323203D01*
X119192572Y-104323203D02*
X119135429Y-104294632D01*
X119135429Y-104294632D02*
X119106857Y-104237489D01*
X119106857Y-104237489D02*
X119106857Y-104208917D01*
X119106857Y-104208917D02*
X119135429Y-104151774D01*
X119135429Y-104151774D02*
X119192572Y-104123203D01*
X119192572Y-104123203D02*
X119278286Y-104123203D01*
X119278286Y-104123203D02*
X119335429Y-104151774D01*
X119535428Y-104123203D02*
X119764000Y-104123203D01*
X119621143Y-103923203D02*
X119621143Y-104437489D01*
X119621143Y-104437489D02*
X119649714Y-104494632D01*
X119649714Y-104494632D02*
X119706857Y-104523203D01*
X119706857Y-104523203D02*
X119764000Y-104523203D01*
X119964000Y-104523203D02*
X119964000Y-104123203D01*
X119964000Y-103923203D02*
X119935428Y-103951774D01*
X119935428Y-103951774D02*
X119964000Y-103980346D01*
X119964000Y-103980346D02*
X119992571Y-103951774D01*
X119992571Y-103951774D02*
X119964000Y-103923203D01*
X119964000Y-103923203D02*
X119964000Y-103980346D01*
X120163999Y-104123203D02*
X120392571Y-104123203D01*
X120249714Y-104523203D02*
X120249714Y-104008917D01*
X120249714Y-104008917D02*
X120278285Y-103951774D01*
X120278285Y-103951774D02*
X120335428Y-103923203D01*
X120335428Y-103923203D02*
X120392571Y-103923203D01*
X120506856Y-104123203D02*
X120735428Y-104123203D01*
X120592571Y-104523203D02*
X120592571Y-104008917D01*
X120592571Y-104008917D02*
X120621142Y-103951774D01*
X120621142Y-103951774D02*
X120678285Y-103923203D01*
X120678285Y-103923203D02*
X120735428Y-103923203D01*
X121163999Y-104494632D02*
X121106856Y-104523203D01*
X121106856Y-104523203D02*
X120992571Y-104523203D01*
X120992571Y-104523203D02*
X120935428Y-104494632D01*
X120935428Y-104494632D02*
X120906856Y-104437489D01*
X120906856Y-104437489D02*
X120906856Y-104208917D01*
X120906856Y-104208917D02*
X120935428Y-104151774D01*
X120935428Y-104151774D02*
X120992571Y-104123203D01*
X120992571Y-104123203D02*
X121106856Y-104123203D01*
X121106856Y-104123203D02*
X121163999Y-104151774D01*
X121163999Y-104151774D02*
X121192571Y-104208917D01*
X121192571Y-104208917D02*
X121192571Y-104266060D01*
X121192571Y-104266060D02*
X120906856Y-104323203D01*
X121449714Y-104123203D02*
X121449714Y-104523203D01*
X121449714Y-104180346D02*
X121478285Y-104151774D01*
X121478285Y-104151774D02*
X121535428Y-104123203D01*
X121535428Y-104123203D02*
X121621142Y-104123203D01*
X121621142Y-104123203D02*
X121678285Y-104151774D01*
X121678285Y-104151774D02*
X121706857Y-104208917D01*
X121706857Y-104208917D02*
X121706857Y-104523203D01*
X122221142Y-104494632D02*
X122163999Y-104523203D01*
X122163999Y-104523203D02*
X122049714Y-104523203D01*
X122049714Y-104523203D02*
X121992571Y-104494632D01*
X121992571Y-104494632D02*
X121963999Y-104437489D01*
X121963999Y-104437489D02*
X121963999Y-104208917D01*
X121963999Y-104208917D02*
X121992571Y-104151774D01*
X121992571Y-104151774D02*
X122049714Y-104123203D01*
X122049714Y-104123203D02*
X122163999Y-104123203D01*
X122163999Y-104123203D02*
X122221142Y-104151774D01*
X122221142Y-104151774D02*
X122249714Y-104208917D01*
X122249714Y-104208917D02*
X122249714Y-104266060D01*
X122249714Y-104266060D02*
X121963999Y-104323203D01*
X122506857Y-104523203D02*
X122506857Y-104123203D01*
X122506857Y-104237489D02*
X122535428Y-104180346D01*
X122535428Y-104180346D02*
X122564000Y-104151774D01*
X122564000Y-104151774D02*
X122621142Y-104123203D01*
X122621142Y-104123203D02*
X122678285Y-104123203D01*
X123506857Y-104751774D02*
X123478286Y-104723203D01*
X123478286Y-104723203D02*
X123421143Y-104637489D01*
X123421143Y-104637489D02*
X123392572Y-104580346D01*
X123392572Y-104580346D02*
X123364000Y-104494632D01*
X123364000Y-104494632D02*
X123335429Y-104351774D01*
X123335429Y-104351774D02*
X123335429Y-104237489D01*
X123335429Y-104237489D02*
X123364000Y-104094632D01*
X123364000Y-104094632D02*
X123392572Y-104008917D01*
X123392572Y-104008917D02*
X123421143Y-103951774D01*
X123421143Y-103951774D02*
X123478286Y-103866060D01*
X123478286Y-103866060D02*
X123506857Y-103837489D01*
X123935429Y-104208917D02*
X124021143Y-104237489D01*
X124021143Y-104237489D02*
X124049714Y-104266060D01*
X124049714Y-104266060D02*
X124078286Y-104323203D01*
X124078286Y-104323203D02*
X124078286Y-104408917D01*
X124078286Y-104408917D02*
X124049714Y-104466060D01*
X124049714Y-104466060D02*
X124021143Y-104494632D01*
X124021143Y-104494632D02*
X123964000Y-104523203D01*
X123964000Y-104523203D02*
X123735429Y-104523203D01*
X123735429Y-104523203D02*
X123735429Y-103923203D01*
X123735429Y-103923203D02*
X123935429Y-103923203D01*
X123935429Y-103923203D02*
X123992572Y-103951774D01*
X123992572Y-103951774D02*
X124021143Y-103980346D01*
X124021143Y-103980346D02*
X124049714Y-104037489D01*
X124049714Y-104037489D02*
X124049714Y-104094632D01*
X124049714Y-104094632D02*
X124021143Y-104151774D01*
X124021143Y-104151774D02*
X123992572Y-104180346D01*
X123992572Y-104180346D02*
X123935429Y-104208917D01*
X123935429Y-104208917D02*
X123735429Y-104208917D01*
X124278286Y-104751774D02*
X124306857Y-104723203D01*
X124306857Y-104723203D02*
X124364000Y-104637489D01*
X124364000Y-104637489D02*
X124392572Y-104580346D01*
X124392572Y-104580346D02*
X124421143Y-104494632D01*
X124421143Y-104494632D02*
X124449714Y-104351774D01*
X124449714Y-104351774D02*
X124449714Y-104237489D01*
X124449714Y-104237489D02*
X124421143Y-104094632D01*
X124421143Y-104094632D02*
X124392572Y-104008917D01*
X124392572Y-104008917D02*
X124364000Y-103951774D01*
X124364000Y-103951774D02*
X124306857Y-103866060D01*
X124306857Y-103866060D02*
X124278286Y-103837489D01*
X125449715Y-104123203D02*
X125449715Y-104523203D01*
X125192572Y-104123203D02*
X125192572Y-104437489D01*
X125192572Y-104437489D02*
X125221143Y-104494632D01*
X125221143Y-104494632D02*
X125278286Y-104523203D01*
X125278286Y-104523203D02*
X125364000Y-104523203D01*
X125364000Y-104523203D02*
X125421143Y-104494632D01*
X125421143Y-104494632D02*
X125449715Y-104466060D01*
X125735429Y-104123203D02*
X125735429Y-104523203D01*
X125735429Y-104180346D02*
X125764000Y-104151774D01*
X125764000Y-104151774D02*
X125821143Y-104123203D01*
X125821143Y-104123203D02*
X125906857Y-104123203D01*
X125906857Y-104123203D02*
X125964000Y-104151774D01*
X125964000Y-104151774D02*
X125992572Y-104208917D01*
X125992572Y-104208917D02*
X125992572Y-104523203D01*
X126535429Y-104523203D02*
X126535429Y-103923203D01*
X126535429Y-104494632D02*
X126478286Y-104523203D01*
X126478286Y-104523203D02*
X126364000Y-104523203D01*
X126364000Y-104523203D02*
X126306857Y-104494632D01*
X126306857Y-104494632D02*
X126278286Y-104466060D01*
X126278286Y-104466060D02*
X126249714Y-104408917D01*
X126249714Y-104408917D02*
X126249714Y-104237489D01*
X126249714Y-104237489D02*
X126278286Y-104180346D01*
X126278286Y-104180346D02*
X126306857Y-104151774D01*
X126306857Y-104151774D02*
X126364000Y-104123203D01*
X126364000Y-104123203D02*
X126478286Y-104123203D01*
X126478286Y-104123203D02*
X126535429Y-104151774D01*
X127049714Y-104494632D02*
X126992571Y-104523203D01*
X126992571Y-104523203D02*
X126878286Y-104523203D01*
X126878286Y-104523203D02*
X126821143Y-104494632D01*
X126821143Y-104494632D02*
X126792571Y-104437489D01*
X126792571Y-104437489D02*
X126792571Y-104208917D01*
X126792571Y-104208917D02*
X126821143Y-104151774D01*
X126821143Y-104151774D02*
X126878286Y-104123203D01*
X126878286Y-104123203D02*
X126992571Y-104123203D01*
X126992571Y-104123203D02*
X127049714Y-104151774D01*
X127049714Y-104151774D02*
X127078286Y-104208917D01*
X127078286Y-104208917D02*
X127078286Y-104266060D01*
X127078286Y-104266060D02*
X126792571Y-104323203D01*
X127335429Y-104523203D02*
X127335429Y-104123203D01*
X127335429Y-104237489D02*
X127364000Y-104180346D01*
X127364000Y-104180346D02*
X127392572Y-104151774D01*
X127392572Y-104151774D02*
X127449714Y-104123203D01*
X127449714Y-104123203D02*
X127506857Y-104123203D01*
X128078286Y-104123203D02*
X128306858Y-104123203D01*
X128164001Y-103923203D02*
X128164001Y-104437489D01*
X128164001Y-104437489D02*
X128192572Y-104494632D01*
X128192572Y-104494632D02*
X128249715Y-104523203D01*
X128249715Y-104523203D02*
X128306858Y-104523203D01*
X128506858Y-104523203D02*
X128506858Y-103923203D01*
X128764001Y-104523203D02*
X128764001Y-104208917D01*
X128764001Y-104208917D02*
X128735429Y-104151774D01*
X128735429Y-104151774D02*
X128678286Y-104123203D01*
X128678286Y-104123203D02*
X128592572Y-104123203D01*
X128592572Y-104123203D02*
X128535429Y-104151774D01*
X128535429Y-104151774D02*
X128506858Y-104180346D01*
X129278286Y-104494632D02*
X129221143Y-104523203D01*
X129221143Y-104523203D02*
X129106858Y-104523203D01*
X129106858Y-104523203D02*
X129049715Y-104494632D01*
X129049715Y-104494632D02*
X129021143Y-104437489D01*
X129021143Y-104437489D02*
X129021143Y-104208917D01*
X129021143Y-104208917D02*
X129049715Y-104151774D01*
X129049715Y-104151774D02*
X129106858Y-104123203D01*
X129106858Y-104123203D02*
X129221143Y-104123203D01*
X129221143Y-104123203D02*
X129278286Y-104151774D01*
X129278286Y-104151774D02*
X129306858Y-104208917D01*
X129306858Y-104208917D02*
X129306858Y-104266060D01*
X129306858Y-104266060D02*
X129021143Y-104323203D01*
X130021144Y-104523203D02*
X130021144Y-103923203D01*
X130278287Y-104523203D02*
X130278287Y-104208917D01*
X130278287Y-104208917D02*
X130249715Y-104151774D01*
X130249715Y-104151774D02*
X130192572Y-104123203D01*
X130192572Y-104123203D02*
X130106858Y-104123203D01*
X130106858Y-104123203D02*
X130049715Y-104151774D01*
X130049715Y-104151774D02*
X130021144Y-104180346D01*
X130792572Y-104494632D02*
X130735429Y-104523203D01*
X130735429Y-104523203D02*
X130621144Y-104523203D01*
X130621144Y-104523203D02*
X130564001Y-104494632D01*
X130564001Y-104494632D02*
X130535429Y-104437489D01*
X130535429Y-104437489D02*
X130535429Y-104208917D01*
X130535429Y-104208917D02*
X130564001Y-104151774D01*
X130564001Y-104151774D02*
X130621144Y-104123203D01*
X130621144Y-104123203D02*
X130735429Y-104123203D01*
X130735429Y-104123203D02*
X130792572Y-104151774D01*
X130792572Y-104151774D02*
X130821144Y-104208917D01*
X130821144Y-104208917D02*
X130821144Y-104266060D01*
X130821144Y-104266060D02*
X130535429Y-104323203D01*
X131335430Y-104523203D02*
X131335430Y-104208917D01*
X131335430Y-104208917D02*
X131306858Y-104151774D01*
X131306858Y-104151774D02*
X131249715Y-104123203D01*
X131249715Y-104123203D02*
X131135430Y-104123203D01*
X131135430Y-104123203D02*
X131078287Y-104151774D01*
X131335430Y-104494632D02*
X131278287Y-104523203D01*
X131278287Y-104523203D02*
X131135430Y-104523203D01*
X131135430Y-104523203D02*
X131078287Y-104494632D01*
X131078287Y-104494632D02*
X131049715Y-104437489D01*
X131049715Y-104437489D02*
X131049715Y-104380346D01*
X131049715Y-104380346D02*
X131078287Y-104323203D01*
X131078287Y-104323203D02*
X131135430Y-104294632D01*
X131135430Y-104294632D02*
X131278287Y-104294632D01*
X131278287Y-104294632D02*
X131335430Y-104266060D01*
X131878287Y-104523203D02*
X131878287Y-103923203D01*
X131878287Y-104494632D02*
X131821144Y-104523203D01*
X131821144Y-104523203D02*
X131706858Y-104523203D01*
X131706858Y-104523203D02*
X131649715Y-104494632D01*
X131649715Y-104494632D02*
X131621144Y-104466060D01*
X131621144Y-104466060D02*
X131592572Y-104408917D01*
X131592572Y-104408917D02*
X131592572Y-104237489D01*
X131592572Y-104237489D02*
X131621144Y-104180346D01*
X131621144Y-104180346D02*
X131649715Y-104151774D01*
X131649715Y-104151774D02*
X131706858Y-104123203D01*
X131706858Y-104123203D02*
X131821144Y-104123203D01*
X131821144Y-104123203D02*
X131878287Y-104151774D01*
X132392572Y-104494632D02*
X132335429Y-104523203D01*
X132335429Y-104523203D02*
X132221144Y-104523203D01*
X132221144Y-104523203D02*
X132164001Y-104494632D01*
X132164001Y-104494632D02*
X132135429Y-104437489D01*
X132135429Y-104437489D02*
X132135429Y-104208917D01*
X132135429Y-104208917D02*
X132164001Y-104151774D01*
X132164001Y-104151774D02*
X132221144Y-104123203D01*
X132221144Y-104123203D02*
X132335429Y-104123203D01*
X132335429Y-104123203D02*
X132392572Y-104151774D01*
X132392572Y-104151774D02*
X132421144Y-104208917D01*
X132421144Y-104208917D02*
X132421144Y-104266060D01*
X132421144Y-104266060D02*
X132135429Y-104323203D01*
X132678287Y-104523203D02*
X132678287Y-104123203D01*
X132678287Y-104237489D02*
X132706858Y-104180346D01*
X132706858Y-104180346D02*
X132735430Y-104151774D01*
X132735430Y-104151774D02*
X132792572Y-104123203D01*
X132792572Y-104123203D02*
X132849715Y-104123203D01*
X133506859Y-104123203D02*
X133506859Y-104723203D01*
X133506859Y-104151774D02*
X133564002Y-104123203D01*
X133564002Y-104123203D02*
X133678287Y-104123203D01*
X133678287Y-104123203D02*
X133735430Y-104151774D01*
X133735430Y-104151774D02*
X133764002Y-104180346D01*
X133764002Y-104180346D02*
X133792573Y-104237489D01*
X133792573Y-104237489D02*
X133792573Y-104408917D01*
X133792573Y-104408917D02*
X133764002Y-104466060D01*
X133764002Y-104466060D02*
X133735430Y-104494632D01*
X133735430Y-104494632D02*
X133678287Y-104523203D01*
X133678287Y-104523203D02*
X133564002Y-104523203D01*
X133564002Y-104523203D02*
X133506859Y-104494632D01*
X134306859Y-104523203D02*
X134306859Y-104208917D01*
X134306859Y-104208917D02*
X134278287Y-104151774D01*
X134278287Y-104151774D02*
X134221144Y-104123203D01*
X134221144Y-104123203D02*
X134106859Y-104123203D01*
X134106859Y-104123203D02*
X134049716Y-104151774D01*
X134306859Y-104494632D02*
X134249716Y-104523203D01*
X134249716Y-104523203D02*
X134106859Y-104523203D01*
X134106859Y-104523203D02*
X134049716Y-104494632D01*
X134049716Y-104494632D02*
X134021144Y-104437489D01*
X134021144Y-104437489D02*
X134021144Y-104380346D01*
X134021144Y-104380346D02*
X134049716Y-104323203D01*
X134049716Y-104323203D02*
X134106859Y-104294632D01*
X134106859Y-104294632D02*
X134249716Y-104294632D01*
X134249716Y-104294632D02*
X134306859Y-104266060D01*
X134849716Y-104523203D02*
X134849716Y-103923203D01*
X134849716Y-104494632D02*
X134792573Y-104523203D01*
X134792573Y-104523203D02*
X134678287Y-104523203D01*
X134678287Y-104523203D02*
X134621144Y-104494632D01*
X134621144Y-104494632D02*
X134592573Y-104466060D01*
X134592573Y-104466060D02*
X134564001Y-104408917D01*
X134564001Y-104408917D02*
X134564001Y-104237489D01*
X134564001Y-104237489D02*
X134592573Y-104180346D01*
X134592573Y-104180346D02*
X134621144Y-104151774D01*
X134621144Y-104151774D02*
X134678287Y-104123203D01*
X134678287Y-104123203D02*
X134792573Y-104123203D01*
X134792573Y-104123203D02*
X134849716Y-104151774D01*
X135392573Y-104523203D02*
X135392573Y-103923203D01*
X135392573Y-104494632D02*
X135335430Y-104523203D01*
X135335430Y-104523203D02*
X135221144Y-104523203D01*
X135221144Y-104523203D02*
X135164001Y-104494632D01*
X135164001Y-104494632D02*
X135135430Y-104466060D01*
X135135430Y-104466060D02*
X135106858Y-104408917D01*
X135106858Y-104408917D02*
X135106858Y-104237489D01*
X135106858Y-104237489D02*
X135135430Y-104180346D01*
X135135430Y-104180346D02*
X135164001Y-104151774D01*
X135164001Y-104151774D02*
X135221144Y-104123203D01*
X135221144Y-104123203D02*
X135335430Y-104123203D01*
X135335430Y-104123203D02*
X135392573Y-104151774D01*
X135764001Y-104523203D02*
X135706858Y-104494632D01*
X135706858Y-104494632D02*
X135678287Y-104437489D01*
X135678287Y-104437489D02*
X135678287Y-103923203D01*
X136221144Y-104494632D02*
X136164001Y-104523203D01*
X136164001Y-104523203D02*
X136049716Y-104523203D01*
X136049716Y-104523203D02*
X135992573Y-104494632D01*
X135992573Y-104494632D02*
X135964001Y-104437489D01*
X135964001Y-104437489D02*
X135964001Y-104208917D01*
X135964001Y-104208917D02*
X135992573Y-104151774D01*
X135992573Y-104151774D02*
X136049716Y-104123203D01*
X136049716Y-104123203D02*
X136164001Y-104123203D01*
X136164001Y-104123203D02*
X136221144Y-104151774D01*
X136221144Y-104151774D02*
X136249716Y-104208917D01*
X136249716Y-104208917D02*
X136249716Y-104266060D01*
X136249716Y-104266060D02*
X135964001Y-104323203D01*
M02*
