G04 #@! TF.GenerationSoftware,KiCad,Pcbnew,9.0.2+dfsg-1*
G04 #@! TF.CreationDate,2026-10-04T09:33:18-04:00*
G04 #@! TF.ProjectId,mod_hdmi,6d6f645f-6864-46d6-992e-6b696361645f,A1*
G04 #@! TF.SameCoordinates,Original*
G04 #@! TF.FileFunction,Copper,L2,Bot*
G04 #@! TF.FilePolarity,Positive*
%FSLAX46Y46*%
G04 Gerber Fmt 4.6, Leading zero omitted, Abs format (unit mm)*
G04 Created by KiCad (PCBNEW 9.0.2+dfsg-1) date 2026-10-04 09:33:18*
%MOMM*%
%LPD*%
G01*
G04 APERTURE LIST*
G04 #@! TA.AperFunction,ComponentPad*
%ADD10O,1.100000X1.900000*%
G04 #@! TD*
G04 #@! TA.AperFunction,ViaPad*
%ADD11C,0.550000*%
G04 #@! TD*
G04 APERTURE END LIST*
D10*
G04 #@! TO.P,J1,S*
G04 #@! TO.N,GND*
X107850000Y-101600000D03*
X107850000Y-98400000D03*
X92150000Y-101600000D03*
X92150000Y-98400000D03*
G04 #@! TD*
D11*
G04 #@! TO.N,GND*
X93919596Y-100252572D03*
X122929000Y-100000000D03*
X105109783Y-97100000D03*
X125129000Y-100000000D03*
X128228999Y-100000000D03*
X126329000Y-100000000D03*
X129729000Y-102400000D03*
X123929000Y-100000000D03*
X133364000Y-102450000D03*
X133804000Y-98550000D03*
X127529000Y-100000000D03*
X131202499Y-98050375D03*
X129929000Y-97600000D03*
X133804000Y-101450000D03*
G04 #@! TD*
G04 #@! TA.AperFunction,Conductor*
G04 #@! TO.N,GND*
G36*
X109931007Y-97100500D02*
G01*
X109931008Y-97100500D01*
X118964000Y-97100500D01*
X118964000Y-102899500D01*
X109931007Y-102899500D01*
X109850000Y-102915613D01*
X109850000Y-102801500D01*
X109988000Y-102801500D01*
X109995375Y-102801500D01*
X110187822Y-102801500D01*
X110348929Y-102801500D01*
X110541375Y-102801500D01*
X110702482Y-102801500D01*
X110894929Y-102801500D01*
X111056036Y-102801500D01*
X111248482Y-102801500D01*
X111409589Y-102801500D01*
X111602036Y-102801500D01*
X111763142Y-102801500D01*
X111955589Y-102801500D01*
X112116696Y-102801500D01*
X112309142Y-102801500D01*
X112470249Y-102801500D01*
X112662696Y-102801500D01*
X112823802Y-102801500D01*
X113016249Y-102801500D01*
X113177356Y-102801500D01*
X113369803Y-102801500D01*
X113530909Y-102801500D01*
X113723356Y-102801500D01*
X113884463Y-102801500D01*
X114076909Y-102801500D01*
X114238016Y-102801500D01*
X114430463Y-102801500D01*
X114591569Y-102801500D01*
X114784016Y-102801500D01*
X114945123Y-102801500D01*
X115137570Y-102801500D01*
X115298676Y-102801500D01*
X115491123Y-102801500D01*
X115652230Y-102801500D01*
X115844676Y-102801500D01*
X116005783Y-102801500D01*
X116198230Y-102801500D01*
X116359336Y-102801500D01*
X116551783Y-102801500D01*
X116712890Y-102801500D01*
X116905336Y-102801500D01*
X117066443Y-102801500D01*
X117258890Y-102801500D01*
X117419997Y-102801500D01*
X117612443Y-102801500D01*
X117773550Y-102801500D01*
X117965997Y-102801500D01*
X118127103Y-102801500D01*
X118319550Y-102801500D01*
X118480657Y-102801500D01*
X118673103Y-102801500D01*
X118826000Y-102801500D01*
X118826000Y-102793290D01*
X118753656Y-102720946D01*
X118673103Y-102801500D01*
X118480657Y-102801500D01*
X118400103Y-102720946D01*
X118319550Y-102801500D01*
X118127103Y-102801500D01*
X118046550Y-102720947D01*
X117965997Y-102801500D01*
X117773550Y-102801500D01*
X117692996Y-102720946D01*
X117612443Y-102801500D01*
X117419997Y-102801500D01*
X117339443Y-102720946D01*
X117258890Y-102801500D01*
X117066443Y-102801500D01*
X116985889Y-102720946D01*
X116905336Y-102801500D01*
X116712890Y-102801500D01*
X116632336Y-102720946D01*
X116551783Y-102801500D01*
X116359336Y-102801500D01*
X116278783Y-102720947D01*
X116198230Y-102801500D01*
X116005783Y-102801500D01*
X115925229Y-102720946D01*
X115844676Y-102801500D01*
X115652230Y-102801500D01*
X115571676Y-102720946D01*
X115491123Y-102801500D01*
X115298676Y-102801500D01*
X115218123Y-102720947D01*
X115137570Y-102801500D01*
X114945123Y-102801500D01*
X114864569Y-102720946D01*
X114784016Y-102801500D01*
X114591569Y-102801500D01*
X114511016Y-102720947D01*
X114430463Y-102801500D01*
X114238016Y-102801500D01*
X114157462Y-102720946D01*
X114076909Y-102801500D01*
X113884463Y-102801500D01*
X113803909Y-102720946D01*
X113723356Y-102801500D01*
X113530909Y-102801500D01*
X113450356Y-102720947D01*
X113369803Y-102801500D01*
X113177356Y-102801500D01*
X113096802Y-102720946D01*
X113016249Y-102801500D01*
X112823802Y-102801500D01*
X112743249Y-102720947D01*
X112662696Y-102801500D01*
X112470249Y-102801500D01*
X112389695Y-102720946D01*
X112309142Y-102801500D01*
X112116696Y-102801500D01*
X112036142Y-102720946D01*
X111955589Y-102801500D01*
X111763142Y-102801500D01*
X111682589Y-102720947D01*
X111602036Y-102801500D01*
X111409589Y-102801500D01*
X111329035Y-102720946D01*
X111248482Y-102801500D01*
X111056036Y-102801500D01*
X110975482Y-102720946D01*
X110894929Y-102801500D01*
X110702482Y-102801500D01*
X110621928Y-102720946D01*
X110541375Y-102801500D01*
X110348929Y-102801500D01*
X110268375Y-102720946D01*
X110187822Y-102801500D01*
X109995375Y-102801500D01*
X109988000Y-102794125D01*
X109988000Y-102801500D01*
X109850000Y-102801500D01*
X109850000Y-102647768D01*
X109988000Y-102647768D01*
X109988000Y-102655532D01*
X110091598Y-102759130D01*
X110199079Y-102651650D01*
X110337671Y-102651650D01*
X110445152Y-102759130D01*
X110552632Y-102651650D01*
X110691224Y-102651650D01*
X110798705Y-102759130D01*
X110906185Y-102651650D01*
X111044778Y-102651650D01*
X111152259Y-102759130D01*
X111259739Y-102651650D01*
X111398331Y-102651650D01*
X111505812Y-102759130D01*
X111613292Y-102651650D01*
X111751885Y-102651650D01*
X111859365Y-102759130D01*
X111966846Y-102651650D01*
X112105438Y-102651650D01*
X112212919Y-102759130D01*
X112320399Y-102651650D01*
X112458991Y-102651650D01*
X112566472Y-102759130D01*
X112673952Y-102651650D01*
X112812545Y-102651650D01*
X112920025Y-102759130D01*
X113027506Y-102651650D01*
X113166098Y-102651650D01*
X113273579Y-102759130D01*
X113381059Y-102651650D01*
X113519652Y-102651650D01*
X113627132Y-102759130D01*
X113734613Y-102651650D01*
X113873205Y-102651650D01*
X113980686Y-102759130D01*
X114088166Y-102651650D01*
X114226758Y-102651650D01*
X114334239Y-102759130D01*
X114441719Y-102651650D01*
X114580312Y-102651650D01*
X114687792Y-102759130D01*
X114795273Y-102651650D01*
X114933865Y-102651650D01*
X115041346Y-102759130D01*
X115148826Y-102651650D01*
X115287419Y-102651650D01*
X115394899Y-102759130D01*
X115502380Y-102651650D01*
X115640972Y-102651650D01*
X115748453Y-102759130D01*
X115855933Y-102651650D01*
X115994525Y-102651650D01*
X116102006Y-102759130D01*
X116209486Y-102651650D01*
X116348079Y-102651650D01*
X116455559Y-102759130D01*
X116563040Y-102651650D01*
X116701632Y-102651650D01*
X116809113Y-102759130D01*
X116916593Y-102651650D01*
X117055186Y-102651650D01*
X117162666Y-102759130D01*
X117270147Y-102651650D01*
X117408739Y-102651650D01*
X117516220Y-102759130D01*
X117623700Y-102651650D01*
X117762292Y-102651650D01*
X117869773Y-102759130D01*
X117977253Y-102651650D01*
X118115846Y-102651650D01*
X118223326Y-102759130D01*
X118330807Y-102651650D01*
X118469399Y-102651650D01*
X118576880Y-102759130D01*
X118684360Y-102651650D01*
X118822953Y-102651650D01*
X118826000Y-102654697D01*
X118826000Y-102648603D01*
X118822953Y-102651650D01*
X118684360Y-102651650D01*
X118576880Y-102544170D01*
X118469399Y-102651650D01*
X118330807Y-102651650D01*
X118223326Y-102544169D01*
X118115846Y-102651650D01*
X117977253Y-102651650D01*
X117869773Y-102544169D01*
X117762292Y-102651650D01*
X117623700Y-102651650D01*
X117516220Y-102544170D01*
X117408739Y-102651650D01*
X117270147Y-102651650D01*
X117162666Y-102544169D01*
X117055186Y-102651650D01*
X116916593Y-102651650D01*
X116809113Y-102544170D01*
X116701632Y-102651650D01*
X116563040Y-102651650D01*
X116455559Y-102544169D01*
X116348079Y-102651650D01*
X116209486Y-102651650D01*
X116102006Y-102544169D01*
X115994525Y-102651650D01*
X115855933Y-102651650D01*
X115748453Y-102544170D01*
X115640972Y-102651650D01*
X115502380Y-102651650D01*
X115394899Y-102544169D01*
X115287419Y-102651650D01*
X115148826Y-102651650D01*
X115041346Y-102544169D01*
X114933865Y-102651650D01*
X114795273Y-102651650D01*
X114687792Y-102544169D01*
X114580312Y-102651650D01*
X114441719Y-102651650D01*
X114334239Y-102544169D01*
X114226758Y-102651650D01*
X114088166Y-102651650D01*
X113980686Y-102544170D01*
X113873205Y-102651650D01*
X113734613Y-102651650D01*
X113627132Y-102544169D01*
X113519652Y-102651650D01*
X113381059Y-102651650D01*
X113273579Y-102544169D01*
X113166098Y-102651650D01*
X113027506Y-102651650D01*
X112920025Y-102544169D01*
X112812545Y-102651650D01*
X112673952Y-102651650D01*
X112566472Y-102544169D01*
X112458991Y-102651650D01*
X112320399Y-102651650D01*
X112212919Y-102544170D01*
X112105438Y-102651650D01*
X111966846Y-102651650D01*
X111859365Y-102544169D01*
X111751885Y-102651650D01*
X111613292Y-102651650D01*
X111505812Y-102544169D01*
X111398331Y-102651650D01*
X111259739Y-102651650D01*
X111152259Y-102544170D01*
X111044778Y-102651650D01*
X110906185Y-102651650D01*
X110798705Y-102544169D01*
X110691224Y-102651650D01*
X110552632Y-102651650D01*
X110445152Y-102544170D01*
X110337671Y-102651650D01*
X110199079Y-102651650D01*
X110091598Y-102544169D01*
X109988000Y-102647768D01*
X109850000Y-102647768D01*
X109850000Y-102509176D01*
X109988000Y-102509176D01*
X110022302Y-102474873D01*
X110160894Y-102474873D01*
X110268375Y-102582354D01*
X110375855Y-102474873D01*
X110514448Y-102474873D01*
X110621928Y-102582354D01*
X110729409Y-102474873D01*
X110868001Y-102474873D01*
X110975482Y-102582354D01*
X111082962Y-102474873D01*
X111221555Y-102474873D01*
X111329035Y-102582354D01*
X111436516Y-102474873D01*
X111575108Y-102474873D01*
X111682589Y-102582354D01*
X111790069Y-102474873D01*
X111928661Y-102474873D01*
X112036142Y-102582354D01*
X112143622Y-102474873D01*
X112282215Y-102474873D01*
X112389695Y-102582354D01*
X112497176Y-102474873D01*
X112635768Y-102474873D01*
X112743249Y-102582354D01*
X112850729Y-102474873D01*
X112989322Y-102474873D01*
X113096802Y-102582354D01*
X113204283Y-102474873D01*
X113342875Y-102474873D01*
X113450356Y-102582354D01*
X113557836Y-102474873D01*
X113696428Y-102474873D01*
X113803909Y-102582354D01*
X113911389Y-102474873D01*
X114049982Y-102474873D01*
X114157462Y-102582354D01*
X114264943Y-102474873D01*
X114403535Y-102474873D01*
X114511016Y-102582354D01*
X114618496Y-102474873D01*
X114757088Y-102474873D01*
X114864569Y-102582354D01*
X114972049Y-102474873D01*
X115110642Y-102474873D01*
X115218123Y-102582354D01*
X115325603Y-102474873D01*
X115464195Y-102474873D01*
X115571676Y-102582354D01*
X115679156Y-102474873D01*
X115817749Y-102474873D01*
X115925229Y-102582354D01*
X116032710Y-102474873D01*
X116171302Y-102474873D01*
X116278783Y-102582354D01*
X116386263Y-102474873D01*
X116524855Y-102474873D01*
X116632336Y-102582354D01*
X116739816Y-102474873D01*
X116878409Y-102474873D01*
X116985889Y-102582354D01*
X117093370Y-102474873D01*
X117231962Y-102474873D01*
X117339443Y-102582354D01*
X117446923Y-102474873D01*
X117585516Y-102474873D01*
X117692996Y-102582354D01*
X117800477Y-102474873D01*
X117939069Y-102474873D01*
X118046550Y-102582354D01*
X118154030Y-102474873D01*
X118292622Y-102474873D01*
X118400103Y-102582354D01*
X118507583Y-102474873D01*
X118646176Y-102474873D01*
X118753656Y-102582354D01*
X118826000Y-102510011D01*
X118826000Y-102439736D01*
X118753657Y-102367393D01*
X118646176Y-102474873D01*
X118507583Y-102474873D01*
X118400103Y-102367393D01*
X118292622Y-102474873D01*
X118154030Y-102474873D01*
X118046550Y-102367393D01*
X117939069Y-102474873D01*
X117800477Y-102474873D01*
X117692996Y-102367393D01*
X117585516Y-102474873D01*
X117446923Y-102474873D01*
X117339443Y-102367393D01*
X117231962Y-102474873D01*
X117093370Y-102474873D01*
X116985889Y-102367393D01*
X116878409Y-102474873D01*
X116739816Y-102474873D01*
X116632336Y-102367393D01*
X116524855Y-102474873D01*
X116386263Y-102474873D01*
X116278783Y-102367393D01*
X116171302Y-102474873D01*
X116032710Y-102474873D01*
X115925229Y-102367393D01*
X115817749Y-102474873D01*
X115679156Y-102474873D01*
X115571676Y-102367393D01*
X115464195Y-102474873D01*
X115325603Y-102474873D01*
X115218123Y-102367393D01*
X115110642Y-102474873D01*
X114972049Y-102474873D01*
X114864569Y-102367393D01*
X114757088Y-102474873D01*
X114618496Y-102474873D01*
X114511016Y-102367393D01*
X114403535Y-102474873D01*
X114264943Y-102474873D01*
X114157462Y-102367393D01*
X114049982Y-102474873D01*
X113911389Y-102474873D01*
X113803909Y-102367393D01*
X113696428Y-102474873D01*
X113557836Y-102474873D01*
X113450356Y-102367393D01*
X113342875Y-102474873D01*
X113204283Y-102474873D01*
X113096802Y-102367393D01*
X112989322Y-102474873D01*
X112850729Y-102474873D01*
X112743249Y-102367393D01*
X112635768Y-102474873D01*
X112497176Y-102474873D01*
X112389695Y-102367393D01*
X112282215Y-102474873D01*
X112143622Y-102474873D01*
X112036142Y-102367393D01*
X111928661Y-102474873D01*
X111790069Y-102474873D01*
X111682589Y-102367393D01*
X111575108Y-102474873D01*
X111436516Y-102474873D01*
X111329035Y-102367393D01*
X111221555Y-102474873D01*
X111082962Y-102474873D01*
X110975482Y-102367393D01*
X110868001Y-102474873D01*
X110729409Y-102474873D01*
X110621928Y-102367393D01*
X110514448Y-102474873D01*
X110375855Y-102474873D01*
X110268375Y-102367393D01*
X110160894Y-102474873D01*
X110022302Y-102474873D01*
X109988000Y-102440571D01*
X109988000Y-102509176D01*
X109850000Y-102509176D01*
X109850000Y-102294215D01*
X109988000Y-102294215D01*
X109988000Y-102301978D01*
X110091599Y-102405577D01*
X110199079Y-102298097D01*
X110337672Y-102298097D01*
X110445152Y-102405577D01*
X110552632Y-102298097D01*
X110691225Y-102298097D01*
X110798705Y-102405577D01*
X110906185Y-102298097D01*
X111044779Y-102298097D01*
X111152259Y-102405577D01*
X111259739Y-102298097D01*
X111398332Y-102298097D01*
X111505812Y-102405577D01*
X111613292Y-102298097D01*
X111751885Y-102298097D01*
X111859365Y-102405577D01*
X111966846Y-102298097D01*
X112105439Y-102298097D01*
X112212919Y-102405577D01*
X112320399Y-102298097D01*
X112458992Y-102298097D01*
X112566472Y-102405577D01*
X112673952Y-102298097D01*
X112812545Y-102298097D01*
X112920025Y-102405577D01*
X113027506Y-102298097D01*
X113166099Y-102298097D01*
X113273579Y-102405577D01*
X113381059Y-102298097D01*
X113519652Y-102298097D01*
X113627132Y-102405577D01*
X113734613Y-102298097D01*
X113873206Y-102298097D01*
X113980686Y-102405577D01*
X114088166Y-102298097D01*
X114226759Y-102298097D01*
X114334239Y-102405577D01*
X114441719Y-102298097D01*
X114580312Y-102298097D01*
X114687792Y-102405577D01*
X114795273Y-102298097D01*
X114933866Y-102298097D01*
X115041346Y-102405577D01*
X115148826Y-102298097D01*
X115287419Y-102298097D01*
X115394899Y-102405577D01*
X115502380Y-102298097D01*
X115640973Y-102298097D01*
X115748453Y-102405577D01*
X115855933Y-102298097D01*
X115994526Y-102298097D01*
X116102006Y-102405577D01*
X116209486Y-102298097D01*
X116348079Y-102298097D01*
X116455559Y-102405577D01*
X116563040Y-102298097D01*
X116701633Y-102298097D01*
X116809113Y-102405577D01*
X116916593Y-102298097D01*
X117055186Y-102298097D01*
X117162666Y-102405577D01*
X117270147Y-102298097D01*
X117408740Y-102298097D01*
X117516220Y-102405577D01*
X117623700Y-102298097D01*
X117762293Y-102298097D01*
X117869773Y-102405577D01*
X117977253Y-102298097D01*
X118115846Y-102298097D01*
X118223326Y-102405577D01*
X118330807Y-102298097D01*
X118469400Y-102298097D01*
X118576880Y-102405577D01*
X118684360Y-102298097D01*
X118822953Y-102298097D01*
X118826000Y-102301144D01*
X118826000Y-102295050D01*
X118822953Y-102298097D01*
X118684360Y-102298097D01*
X118576880Y-102190617D01*
X118469400Y-102298097D01*
X118330807Y-102298097D01*
X118223326Y-102190616D01*
X118115846Y-102298097D01*
X117977253Y-102298097D01*
X117869773Y-102190616D01*
X117762293Y-102298097D01*
X117623700Y-102298097D01*
X117516220Y-102190617D01*
X117408740Y-102298097D01*
X117270147Y-102298097D01*
X117162666Y-102190616D01*
X117055186Y-102298097D01*
X116916593Y-102298097D01*
X116809113Y-102190617D01*
X116701633Y-102298097D01*
X116563040Y-102298097D01*
X116455559Y-102190616D01*
X116348079Y-102298097D01*
X116209486Y-102298097D01*
X116102006Y-102190616D01*
X115994526Y-102298097D01*
X115855933Y-102298097D01*
X115748453Y-102190617D01*
X115640973Y-102298097D01*
X115502380Y-102298097D01*
X115394899Y-102190616D01*
X115287419Y-102298097D01*
X115148826Y-102298097D01*
X115041346Y-102190616D01*
X114933866Y-102298097D01*
X114795273Y-102298097D01*
X114687792Y-102190616D01*
X114580312Y-102298097D01*
X114441719Y-102298097D01*
X114334239Y-102190616D01*
X114226759Y-102298097D01*
X114088166Y-102298097D01*
X113980686Y-102190617D01*
X113873206Y-102298097D01*
X113734613Y-102298097D01*
X113627132Y-102190616D01*
X113519652Y-102298097D01*
X113381059Y-102298097D01*
X113273579Y-102190616D01*
X113166099Y-102298097D01*
X113027506Y-102298097D01*
X112920025Y-102190616D01*
X112812545Y-102298097D01*
X112673952Y-102298097D01*
X112566472Y-102190616D01*
X112458992Y-102298097D01*
X112320399Y-102298097D01*
X112212919Y-102190617D01*
X112105439Y-102298097D01*
X111966846Y-102298097D01*
X111859365Y-102190616D01*
X111751885Y-102298097D01*
X111613292Y-102298097D01*
X111505812Y-102190616D01*
X111398332Y-102298097D01*
X111259739Y-102298097D01*
X111152259Y-102190617D01*
X111044779Y-102298097D01*
X110906185Y-102298097D01*
X110798705Y-102190616D01*
X110691225Y-102298097D01*
X110552632Y-102298097D01*
X110445152Y-102190617D01*
X110337672Y-102298097D01*
X110199079Y-102298097D01*
X110091598Y-102190616D01*
X109988000Y-102294215D01*
X109850000Y-102294215D01*
X109850000Y-102155622D01*
X109988000Y-102155622D01*
X110022302Y-102121320D01*
X110160894Y-102121320D01*
X110268375Y-102228800D01*
X110375855Y-102121320D01*
X110514448Y-102121320D01*
X110621928Y-102228800D01*
X110729409Y-102121320D01*
X110868001Y-102121320D01*
X110975482Y-102228800D01*
X111082962Y-102121320D01*
X111221555Y-102121320D01*
X111329035Y-102228800D01*
X111436516Y-102121320D01*
X111575108Y-102121320D01*
X111682589Y-102228800D01*
X111790069Y-102121320D01*
X111928661Y-102121320D01*
X112036142Y-102228800D01*
X112143622Y-102121320D01*
X112282215Y-102121320D01*
X112389695Y-102228800D01*
X112497176Y-102121320D01*
X112635768Y-102121320D01*
X112743249Y-102228800D01*
X112850729Y-102121320D01*
X112989322Y-102121320D01*
X113096802Y-102228800D01*
X113204283Y-102121320D01*
X113342875Y-102121320D01*
X113450356Y-102228800D01*
X113557836Y-102121320D01*
X113696428Y-102121320D01*
X113803909Y-102228800D01*
X113911389Y-102121320D01*
X114049982Y-102121320D01*
X114157462Y-102228800D01*
X114264943Y-102121320D01*
X114403535Y-102121320D01*
X114511016Y-102228800D01*
X114618496Y-102121320D01*
X114757088Y-102121320D01*
X114864569Y-102228800D01*
X114972049Y-102121320D01*
X115110642Y-102121320D01*
X115218123Y-102228800D01*
X115325603Y-102121320D01*
X115464195Y-102121320D01*
X115571676Y-102228800D01*
X115679156Y-102121320D01*
X115817749Y-102121320D01*
X115925229Y-102228800D01*
X116032710Y-102121320D01*
X116171302Y-102121320D01*
X116278783Y-102228800D01*
X116386263Y-102121320D01*
X116524855Y-102121320D01*
X116632336Y-102228800D01*
X116739816Y-102121320D01*
X116878409Y-102121320D01*
X116985889Y-102228800D01*
X117093370Y-102121320D01*
X117231962Y-102121320D01*
X117339443Y-102228800D01*
X117446923Y-102121320D01*
X117585516Y-102121320D01*
X117692996Y-102228800D01*
X117800477Y-102121320D01*
X117939069Y-102121320D01*
X118046550Y-102228800D01*
X118154030Y-102121320D01*
X118292622Y-102121320D01*
X118400103Y-102228800D01*
X118507583Y-102121320D01*
X118646176Y-102121320D01*
X118753656Y-102228800D01*
X118826000Y-102156457D01*
X118826000Y-102086183D01*
X118753656Y-102013839D01*
X118646176Y-102121320D01*
X118507583Y-102121320D01*
X118400103Y-102013839D01*
X118292622Y-102121320D01*
X118154030Y-102121320D01*
X118046550Y-102013840D01*
X117939069Y-102121320D01*
X117800477Y-102121320D01*
X117692996Y-102013839D01*
X117585516Y-102121320D01*
X117446923Y-102121320D01*
X117339443Y-102013839D01*
X117231962Y-102121320D01*
X117093370Y-102121320D01*
X116985889Y-102013839D01*
X116878409Y-102121320D01*
X116739816Y-102121320D01*
X116632336Y-102013839D01*
X116524855Y-102121320D01*
X116386263Y-102121320D01*
X116278783Y-102013840D01*
X116171302Y-102121320D01*
X116032710Y-102121320D01*
X115925229Y-102013839D01*
X115817749Y-102121320D01*
X115679156Y-102121320D01*
X115571676Y-102013839D01*
X115464195Y-102121320D01*
X115325603Y-102121320D01*
X115218123Y-102013840D01*
X115110642Y-102121320D01*
X114972049Y-102121320D01*
X114864569Y-102013839D01*
X114757088Y-102121320D01*
X114618496Y-102121320D01*
X114511016Y-102013840D01*
X114403535Y-102121320D01*
X114264943Y-102121320D01*
X114157462Y-102013839D01*
X114049982Y-102121320D01*
X113911389Y-102121320D01*
X113803909Y-102013839D01*
X113696428Y-102121320D01*
X113557836Y-102121320D01*
X113450356Y-102013840D01*
X113342875Y-102121320D01*
X113204283Y-102121320D01*
X113096802Y-102013839D01*
X112989322Y-102121320D01*
X112850729Y-102121320D01*
X112743249Y-102013840D01*
X112635768Y-102121320D01*
X112497176Y-102121320D01*
X112389695Y-102013839D01*
X112282215Y-102121320D01*
X112143622Y-102121320D01*
X112036142Y-102013839D01*
X111928661Y-102121320D01*
X111790069Y-102121320D01*
X111682589Y-102013840D01*
X111575108Y-102121320D01*
X111436516Y-102121320D01*
X111329035Y-102013839D01*
X111221555Y-102121320D01*
X111082962Y-102121320D01*
X110975482Y-102013839D01*
X110868001Y-102121320D01*
X110729409Y-102121320D01*
X110621928Y-102013839D01*
X110514448Y-102121320D01*
X110375855Y-102121320D01*
X110268375Y-102013839D01*
X110160894Y-102121320D01*
X110022302Y-102121320D01*
X109988000Y-102087018D01*
X109988000Y-102155622D01*
X109850000Y-102155622D01*
X109850000Y-101940661D01*
X109988000Y-101940661D01*
X109988000Y-101948425D01*
X110091598Y-102052023D01*
X110199079Y-101944543D01*
X110337671Y-101944543D01*
X110445152Y-102052023D01*
X110552632Y-101944543D01*
X110691224Y-101944543D01*
X110798705Y-102052023D01*
X110906185Y-101944543D01*
X111044778Y-101944543D01*
X111152259Y-102052023D01*
X111259739Y-101944543D01*
X111398331Y-101944543D01*
X111505812Y-102052023D01*
X111613292Y-101944543D01*
X111751885Y-101944543D01*
X111859365Y-102052023D01*
X111966846Y-101944543D01*
X112105438Y-101944543D01*
X112212919Y-102052023D01*
X112320399Y-101944543D01*
X112458991Y-101944543D01*
X112566472Y-102052023D01*
X112673952Y-101944543D01*
X112812545Y-101944543D01*
X112920025Y-102052023D01*
X113027506Y-101944543D01*
X113166098Y-101944543D01*
X113273579Y-102052023D01*
X113381059Y-101944543D01*
X113519652Y-101944543D01*
X113627132Y-102052023D01*
X113734613Y-101944543D01*
X113873205Y-101944543D01*
X113980686Y-102052023D01*
X114088166Y-101944543D01*
X114226758Y-101944543D01*
X114334239Y-102052023D01*
X114441719Y-101944543D01*
X114580312Y-101944543D01*
X114687792Y-102052023D01*
X114795273Y-101944543D01*
X114933865Y-101944543D01*
X115041346Y-102052023D01*
X115148826Y-101944543D01*
X115287419Y-101944543D01*
X115394899Y-102052023D01*
X115502380Y-101944543D01*
X115640972Y-101944543D01*
X115748453Y-102052023D01*
X115855933Y-101944543D01*
X115994525Y-101944543D01*
X116102006Y-102052023D01*
X116209486Y-101944543D01*
X116348079Y-101944543D01*
X116455559Y-102052023D01*
X116563040Y-101944543D01*
X116701632Y-101944543D01*
X116809113Y-102052023D01*
X116916593Y-101944543D01*
X117055186Y-101944543D01*
X117162666Y-102052023D01*
X117270147Y-101944543D01*
X117408739Y-101944543D01*
X117516220Y-102052023D01*
X117623700Y-101944543D01*
X117762292Y-101944543D01*
X117869773Y-102052023D01*
X117977253Y-101944543D01*
X118115846Y-101944543D01*
X118223326Y-102052023D01*
X118330807Y-101944543D01*
X118469399Y-101944543D01*
X118576880Y-102052023D01*
X118684360Y-101944543D01*
X118822953Y-101944543D01*
X118826000Y-101947590D01*
X118826000Y-101941496D01*
X118822953Y-101944543D01*
X118684360Y-101944543D01*
X118576880Y-101837063D01*
X118469399Y-101944543D01*
X118330807Y-101944543D01*
X118223326Y-101837062D01*
X118115846Y-101944543D01*
X117977253Y-101944543D01*
X117869773Y-101837062D01*
X117762292Y-101944543D01*
X117623700Y-101944543D01*
X117516220Y-101837063D01*
X117408739Y-101944543D01*
X117270147Y-101944543D01*
X117162666Y-101837062D01*
X117055186Y-101944543D01*
X116916593Y-101944543D01*
X116809113Y-101837063D01*
X116701632Y-101944543D01*
X116563040Y-101944543D01*
X116455559Y-101837062D01*
X116348079Y-101944543D01*
X116209486Y-101944543D01*
X116102006Y-101837062D01*
X115994525Y-101944543D01*
X115855933Y-101944543D01*
X115748453Y-101837063D01*
X115640972Y-101944543D01*
X115502380Y-101944543D01*
X115394899Y-101837062D01*
X115287419Y-101944543D01*
X115148826Y-101944543D01*
X115041346Y-101837062D01*
X114933865Y-101944543D01*
X114795273Y-101944543D01*
X114687792Y-101837062D01*
X114580312Y-101944543D01*
X114441719Y-101944543D01*
X114334239Y-101837062D01*
X114226758Y-101944543D01*
X114088166Y-101944543D01*
X113980686Y-101837063D01*
X113873205Y-101944543D01*
X113734613Y-101944543D01*
X113627132Y-101837062D01*
X113519652Y-101944543D01*
X113381059Y-101944543D01*
X113273579Y-101837062D01*
X113166098Y-101944543D01*
X113027506Y-101944543D01*
X112920025Y-101837062D01*
X112812545Y-101944543D01*
X112673952Y-101944543D01*
X112566472Y-101837062D01*
X112458991Y-101944543D01*
X112320399Y-101944543D01*
X112212919Y-101837063D01*
X112105438Y-101944543D01*
X111966846Y-101944543D01*
X111859365Y-101837062D01*
X111751885Y-101944543D01*
X111613292Y-101944543D01*
X111505812Y-101837062D01*
X111398331Y-101944543D01*
X111259739Y-101944543D01*
X111152259Y-101837063D01*
X111044778Y-101944543D01*
X110906185Y-101944543D01*
X110798705Y-101837062D01*
X110691224Y-101944543D01*
X110552632Y-101944543D01*
X110445152Y-101837063D01*
X110337671Y-101944543D01*
X110199079Y-101944543D01*
X110091598Y-101837062D01*
X109988000Y-101940661D01*
X109850000Y-101940661D01*
X109850000Y-101802069D01*
X109988000Y-101802069D01*
X110022302Y-101767766D01*
X110160894Y-101767766D01*
X110268375Y-101875247D01*
X110375855Y-101767766D01*
X110514448Y-101767766D01*
X110621928Y-101875247D01*
X110729409Y-101767766D01*
X110868001Y-101767766D01*
X110975482Y-101875247D01*
X111082962Y-101767766D01*
X111221555Y-101767766D01*
X111329035Y-101875247D01*
X111436516Y-101767766D01*
X111575108Y-101767766D01*
X111682589Y-101875247D01*
X111790069Y-101767766D01*
X111928661Y-101767766D01*
X112036142Y-101875247D01*
X112143622Y-101767766D01*
X112282215Y-101767766D01*
X112389695Y-101875247D01*
X112497176Y-101767766D01*
X112635768Y-101767766D01*
X112743249Y-101875247D01*
X112850729Y-101767766D01*
X112989322Y-101767766D01*
X113096802Y-101875247D01*
X113204283Y-101767766D01*
X113342875Y-101767766D01*
X113450356Y-101875247D01*
X113557836Y-101767766D01*
X113696428Y-101767766D01*
X113803909Y-101875247D01*
X113911389Y-101767766D01*
X114049982Y-101767766D01*
X114157462Y-101875247D01*
X114264943Y-101767766D01*
X114403535Y-101767766D01*
X114511016Y-101875247D01*
X114618496Y-101767766D01*
X114757088Y-101767766D01*
X114864569Y-101875247D01*
X114972049Y-101767766D01*
X115110642Y-101767766D01*
X115218123Y-101875247D01*
X115325603Y-101767766D01*
X115464195Y-101767766D01*
X115571676Y-101875247D01*
X115679156Y-101767766D01*
X115817749Y-101767766D01*
X115925229Y-101875247D01*
X116032710Y-101767766D01*
X116171302Y-101767766D01*
X116278783Y-101875247D01*
X116386263Y-101767766D01*
X116524855Y-101767766D01*
X116632336Y-101875247D01*
X116739816Y-101767766D01*
X116878409Y-101767766D01*
X116985889Y-101875247D01*
X117093370Y-101767766D01*
X117231962Y-101767766D01*
X117339443Y-101875247D01*
X117446923Y-101767766D01*
X117585516Y-101767766D01*
X117692996Y-101875247D01*
X117800477Y-101767766D01*
X117939069Y-101767766D01*
X118046550Y-101875247D01*
X118154030Y-101767766D01*
X118292622Y-101767766D01*
X118400103Y-101875247D01*
X118507583Y-101767766D01*
X118646176Y-101767766D01*
X118753656Y-101875247D01*
X118826000Y-101802904D01*
X118826000Y-101732629D01*
X118753657Y-101660286D01*
X118646176Y-101767766D01*
X118507583Y-101767766D01*
X118400103Y-101660286D01*
X118292622Y-101767766D01*
X118154030Y-101767766D01*
X118046550Y-101660286D01*
X117939069Y-101767766D01*
X117800477Y-101767766D01*
X117692996Y-101660286D01*
X117585516Y-101767766D01*
X117446923Y-101767766D01*
X117339443Y-101660286D01*
X117231962Y-101767766D01*
X117093370Y-101767766D01*
X116985889Y-101660286D01*
X116878409Y-101767766D01*
X116739816Y-101767766D01*
X116632336Y-101660286D01*
X116524855Y-101767766D01*
X116386263Y-101767766D01*
X116278783Y-101660286D01*
X116171302Y-101767766D01*
X116032710Y-101767766D01*
X115925229Y-101660286D01*
X115817749Y-101767766D01*
X115679156Y-101767766D01*
X115571676Y-101660286D01*
X115464195Y-101767766D01*
X115325603Y-101767766D01*
X115218123Y-101660286D01*
X115110642Y-101767766D01*
X114972049Y-101767766D01*
X114864569Y-101660286D01*
X114757088Y-101767766D01*
X114618496Y-101767766D01*
X114511016Y-101660286D01*
X114403535Y-101767766D01*
X114264943Y-101767766D01*
X114157462Y-101660286D01*
X114049982Y-101767766D01*
X113911389Y-101767766D01*
X113803909Y-101660286D01*
X113696428Y-101767766D01*
X113557836Y-101767766D01*
X113450356Y-101660286D01*
X113342875Y-101767766D01*
X113204283Y-101767766D01*
X113096802Y-101660286D01*
X112989322Y-101767766D01*
X112850729Y-101767766D01*
X112743249Y-101660286D01*
X112635768Y-101767766D01*
X112497176Y-101767766D01*
X112389695Y-101660286D01*
X112282215Y-101767766D01*
X112143622Y-101767766D01*
X112036142Y-101660286D01*
X111928661Y-101767766D01*
X111790069Y-101767766D01*
X111682589Y-101660286D01*
X111575108Y-101767766D01*
X111436516Y-101767766D01*
X111329035Y-101660286D01*
X111221555Y-101767766D01*
X111082962Y-101767766D01*
X110975482Y-101660286D01*
X110868001Y-101767766D01*
X110729409Y-101767766D01*
X110621928Y-101660286D01*
X110514448Y-101767766D01*
X110375855Y-101767766D01*
X110268375Y-101660286D01*
X110160894Y-101767766D01*
X110022302Y-101767766D01*
X109988000Y-101733464D01*
X109988000Y-101802069D01*
X109850000Y-101802069D01*
X109850000Y-101587108D01*
X109988000Y-101587108D01*
X109988000Y-101594871D01*
X110091599Y-101698470D01*
X110199079Y-101590990D01*
X110337672Y-101590990D01*
X110445152Y-101698470D01*
X110552632Y-101590990D01*
X110691225Y-101590990D01*
X110798705Y-101698470D01*
X110906185Y-101590990D01*
X111044779Y-101590990D01*
X111152259Y-101698470D01*
X111259739Y-101590990D01*
X111398332Y-101590990D01*
X111505812Y-101698470D01*
X111613292Y-101590990D01*
X111751885Y-101590990D01*
X111859365Y-101698470D01*
X111966846Y-101590990D01*
X112105439Y-101590990D01*
X112212919Y-101698470D01*
X112320399Y-101590990D01*
X112458992Y-101590990D01*
X112566472Y-101698470D01*
X112673952Y-101590990D01*
X112812545Y-101590990D01*
X112920025Y-101698470D01*
X113027506Y-101590990D01*
X113166099Y-101590990D01*
X113273579Y-101698470D01*
X113381059Y-101590990D01*
X113519652Y-101590990D01*
X113627132Y-101698470D01*
X113734613Y-101590990D01*
X113873206Y-101590990D01*
X113980686Y-101698470D01*
X114088166Y-101590990D01*
X114226759Y-101590990D01*
X114334239Y-101698470D01*
X114441719Y-101590990D01*
X114580312Y-101590990D01*
X114687792Y-101698470D01*
X114795273Y-101590990D01*
X114933866Y-101590990D01*
X115041346Y-101698470D01*
X115148826Y-101590990D01*
X115287419Y-101590990D01*
X115394899Y-101698470D01*
X115502380Y-101590990D01*
X115640973Y-101590990D01*
X115748453Y-101698470D01*
X115855933Y-101590990D01*
X115994526Y-101590990D01*
X116102006Y-101698470D01*
X116209486Y-101590990D01*
X116348079Y-101590990D01*
X116455559Y-101698470D01*
X116563040Y-101590990D01*
X116701633Y-101590990D01*
X116809113Y-101698470D01*
X116916593Y-101590990D01*
X117055186Y-101590990D01*
X117162666Y-101698470D01*
X117270147Y-101590990D01*
X117408740Y-101590990D01*
X117516220Y-101698470D01*
X117623700Y-101590990D01*
X117762293Y-101590990D01*
X117869773Y-101698470D01*
X117977253Y-101590990D01*
X118115846Y-101590990D01*
X118223326Y-101698470D01*
X118330807Y-101590990D01*
X118469400Y-101590990D01*
X118576880Y-101698470D01*
X118684360Y-101590990D01*
X118822953Y-101590990D01*
X118826000Y-101594037D01*
X118826000Y-101587943D01*
X118822953Y-101590990D01*
X118684360Y-101590990D01*
X118576880Y-101483510D01*
X118469400Y-101590990D01*
X118330807Y-101590990D01*
X118223326Y-101483509D01*
X118115846Y-101590990D01*
X117977253Y-101590990D01*
X117869773Y-101483509D01*
X117762293Y-101590990D01*
X117623700Y-101590990D01*
X117516220Y-101483510D01*
X117408740Y-101590990D01*
X117270147Y-101590990D01*
X117162666Y-101483509D01*
X117055186Y-101590990D01*
X116916593Y-101590990D01*
X116809113Y-101483510D01*
X116701633Y-101590990D01*
X116563040Y-101590990D01*
X116455559Y-101483509D01*
X116348079Y-101590990D01*
X116209486Y-101590990D01*
X116102006Y-101483509D01*
X115994526Y-101590990D01*
X115855933Y-101590990D01*
X115748453Y-101483510D01*
X115640973Y-101590990D01*
X115502380Y-101590990D01*
X115394899Y-101483509D01*
X115287419Y-101590990D01*
X115148826Y-101590990D01*
X115041346Y-101483509D01*
X114933866Y-101590990D01*
X114795273Y-101590990D01*
X114687792Y-101483509D01*
X114580312Y-101590990D01*
X114441719Y-101590990D01*
X114334239Y-101483509D01*
X114226759Y-101590990D01*
X114088166Y-101590990D01*
X113980686Y-101483510D01*
X113873206Y-101590990D01*
X113734613Y-101590990D01*
X113627132Y-101483509D01*
X113519652Y-101590990D01*
X113381059Y-101590990D01*
X113273579Y-101483509D01*
X113166099Y-101590990D01*
X113027506Y-101590990D01*
X112920025Y-101483509D01*
X112812545Y-101590990D01*
X112673952Y-101590990D01*
X112566472Y-101483509D01*
X112458992Y-101590990D01*
X112320399Y-101590990D01*
X112212919Y-101483510D01*
X112105439Y-101590990D01*
X111966846Y-101590990D01*
X111859365Y-101483509D01*
X111751885Y-101590990D01*
X111613292Y-101590990D01*
X111505812Y-101483509D01*
X111398332Y-101590990D01*
X111259739Y-101590990D01*
X111152259Y-101483510D01*
X111044779Y-101590990D01*
X110906185Y-101590990D01*
X110798705Y-101483509D01*
X110691225Y-101590990D01*
X110552632Y-101590990D01*
X110445152Y-101483510D01*
X110337672Y-101590990D01*
X110199079Y-101590990D01*
X110091598Y-101483509D01*
X109988000Y-101587108D01*
X109850000Y-101587108D01*
X109850000Y-101448515D01*
X109988000Y-101448515D01*
X110022302Y-101414213D01*
X110160894Y-101414213D01*
X110268375Y-101521693D01*
X110375855Y-101414213D01*
X110514448Y-101414213D01*
X110621928Y-101521693D01*
X110729409Y-101414213D01*
X110868001Y-101414213D01*
X110975482Y-101521693D01*
X111082962Y-101414213D01*
X111221555Y-101414213D01*
X111329035Y-101521693D01*
X111436516Y-101414213D01*
X111575108Y-101414213D01*
X111682589Y-101521693D01*
X111790069Y-101414213D01*
X111928661Y-101414213D01*
X112036142Y-101521693D01*
X112143622Y-101414213D01*
X112282215Y-101414213D01*
X112389695Y-101521693D01*
X112497176Y-101414213D01*
X112635768Y-101414213D01*
X112743249Y-101521693D01*
X112850729Y-101414213D01*
X112989322Y-101414213D01*
X113096802Y-101521693D01*
X113204283Y-101414213D01*
X113342875Y-101414213D01*
X113450356Y-101521693D01*
X113557836Y-101414213D01*
X113696428Y-101414213D01*
X113803909Y-101521693D01*
X113911389Y-101414213D01*
X114049982Y-101414213D01*
X114157462Y-101521693D01*
X114264943Y-101414213D01*
X114403535Y-101414213D01*
X114511016Y-101521693D01*
X114618496Y-101414213D01*
X114757088Y-101414213D01*
X114864569Y-101521693D01*
X114972049Y-101414213D01*
X115110642Y-101414213D01*
X115218123Y-101521693D01*
X115325603Y-101414213D01*
X115464195Y-101414213D01*
X115571676Y-101521693D01*
X115679156Y-101414213D01*
X115817749Y-101414213D01*
X115925229Y-101521693D01*
X116032710Y-101414213D01*
X116171302Y-101414213D01*
X116278783Y-101521693D01*
X116386263Y-101414213D01*
X116524855Y-101414213D01*
X116632336Y-101521693D01*
X116739816Y-101414213D01*
X116878409Y-101414213D01*
X116985889Y-101521693D01*
X117093370Y-101414213D01*
X117231962Y-101414213D01*
X117339443Y-101521693D01*
X117446923Y-101414213D01*
X117585516Y-101414213D01*
X117692996Y-101521693D01*
X117800477Y-101414213D01*
X117939069Y-101414213D01*
X118046550Y-101521693D01*
X118154030Y-101414213D01*
X118292622Y-101414213D01*
X118400103Y-101521693D01*
X118507583Y-101414213D01*
X118646176Y-101414213D01*
X118753656Y-101521693D01*
X118826000Y-101449350D01*
X118826000Y-101379076D01*
X118753656Y-101306732D01*
X118646176Y-101414213D01*
X118507583Y-101414213D01*
X118400103Y-101306732D01*
X118292622Y-101414213D01*
X118154030Y-101414213D01*
X118046550Y-101306733D01*
X117939069Y-101414213D01*
X117800477Y-101414213D01*
X117692996Y-101306732D01*
X117585516Y-101414213D01*
X117446923Y-101414213D01*
X117339443Y-101306732D01*
X117231962Y-101414213D01*
X117093370Y-101414213D01*
X116985889Y-101306732D01*
X116878409Y-101414213D01*
X116739816Y-101414213D01*
X116632336Y-101306732D01*
X116524855Y-101414213D01*
X116386263Y-101414213D01*
X116278783Y-101306733D01*
X116171302Y-101414213D01*
X116032710Y-101414213D01*
X115925229Y-101306732D01*
X115817749Y-101414213D01*
X115679156Y-101414213D01*
X115571676Y-101306732D01*
X115464195Y-101414213D01*
X115325603Y-101414213D01*
X115218123Y-101306733D01*
X115110642Y-101414213D01*
X114972049Y-101414213D01*
X114864569Y-101306732D01*
X114757088Y-101414213D01*
X114618496Y-101414213D01*
X114511016Y-101306733D01*
X114403535Y-101414213D01*
X114264943Y-101414213D01*
X114157462Y-101306732D01*
X114049982Y-101414213D01*
X113911389Y-101414213D01*
X113803909Y-101306732D01*
X113696428Y-101414213D01*
X113557836Y-101414213D01*
X113450356Y-101306733D01*
X113342875Y-101414213D01*
X113204283Y-101414213D01*
X113096802Y-101306732D01*
X112989322Y-101414213D01*
X112850729Y-101414213D01*
X112743249Y-101306733D01*
X112635768Y-101414213D01*
X112497176Y-101414213D01*
X112389695Y-101306732D01*
X112282215Y-101414213D01*
X112143622Y-101414213D01*
X112036142Y-101306732D01*
X111928661Y-101414213D01*
X111790069Y-101414213D01*
X111682589Y-101306733D01*
X111575108Y-101414213D01*
X111436516Y-101414213D01*
X111329035Y-101306732D01*
X111221555Y-101414213D01*
X111082962Y-101414213D01*
X110975482Y-101306732D01*
X110868001Y-101414213D01*
X110729409Y-101414213D01*
X110621928Y-101306732D01*
X110514448Y-101414213D01*
X110375855Y-101414213D01*
X110268375Y-101306732D01*
X110160894Y-101414213D01*
X110022302Y-101414213D01*
X109988000Y-101379911D01*
X109988000Y-101448515D01*
X109850000Y-101448515D01*
X109850000Y-101233555D01*
X109988000Y-101233555D01*
X109988000Y-101241318D01*
X110091599Y-101344917D01*
X110199079Y-101237436D01*
X110337671Y-101237436D01*
X110445152Y-101344917D01*
X110552632Y-101237436D01*
X110691224Y-101237436D01*
X110798705Y-101344917D01*
X110906185Y-101237436D01*
X111044778Y-101237436D01*
X111152259Y-101344917D01*
X111259739Y-101237436D01*
X111398331Y-101237436D01*
X111505812Y-101344917D01*
X111613292Y-101237436D01*
X111751885Y-101237436D01*
X111859365Y-101344917D01*
X111966846Y-101237436D01*
X112105438Y-101237436D01*
X112212919Y-101344917D01*
X112320399Y-101237436D01*
X112458991Y-101237436D01*
X112566472Y-101344917D01*
X112673952Y-101237436D01*
X112812545Y-101237436D01*
X112920025Y-101344917D01*
X113027506Y-101237436D01*
X113166098Y-101237436D01*
X113273579Y-101344917D01*
X113381059Y-101237436D01*
X113519652Y-101237436D01*
X113627132Y-101344917D01*
X113734613Y-101237436D01*
X113873205Y-101237436D01*
X113980686Y-101344917D01*
X114088166Y-101237436D01*
X114226758Y-101237436D01*
X114334239Y-101344917D01*
X114441719Y-101237436D01*
X114580312Y-101237436D01*
X114687792Y-101344917D01*
X114795273Y-101237436D01*
X114933865Y-101237436D01*
X115041346Y-101344917D01*
X115148826Y-101237436D01*
X115287419Y-101237436D01*
X115394899Y-101344917D01*
X115502380Y-101237436D01*
X115640972Y-101237436D01*
X115748453Y-101344917D01*
X115855933Y-101237436D01*
X115994525Y-101237436D01*
X116102006Y-101344917D01*
X116209486Y-101237436D01*
X116348079Y-101237436D01*
X116455559Y-101344917D01*
X116563040Y-101237436D01*
X116701632Y-101237436D01*
X116809113Y-101344917D01*
X116916593Y-101237436D01*
X117055186Y-101237436D01*
X117162666Y-101344917D01*
X117270147Y-101237436D01*
X117408739Y-101237436D01*
X117516220Y-101344917D01*
X117623700Y-101237436D01*
X117762292Y-101237436D01*
X117869773Y-101344917D01*
X117977253Y-101237436D01*
X118115846Y-101237436D01*
X118223326Y-101344917D01*
X118330807Y-101237436D01*
X118469399Y-101237436D01*
X118576880Y-101344917D01*
X118684360Y-101237436D01*
X118822952Y-101237436D01*
X118826000Y-101240484D01*
X118826000Y-101234389D01*
X118822952Y-101237436D01*
X118684360Y-101237436D01*
X118576880Y-101129956D01*
X118469399Y-101237436D01*
X118330807Y-101237436D01*
X118223326Y-101129956D01*
X118115846Y-101237436D01*
X117977253Y-101237436D01*
X117869773Y-101129956D01*
X117762292Y-101237436D01*
X117623700Y-101237436D01*
X117516220Y-101129956D01*
X117408739Y-101237436D01*
X117270147Y-101237436D01*
X117162666Y-101129956D01*
X117055186Y-101237436D01*
X116916593Y-101237436D01*
X116809113Y-101129956D01*
X116701632Y-101237436D01*
X116563040Y-101237436D01*
X116455559Y-101129956D01*
X116348079Y-101237436D01*
X116209486Y-101237436D01*
X116102006Y-101129956D01*
X115994525Y-101237436D01*
X115855933Y-101237436D01*
X115748453Y-101129956D01*
X115640972Y-101237436D01*
X115502380Y-101237436D01*
X115394899Y-101129956D01*
X115287419Y-101237436D01*
X115148826Y-101237436D01*
X115041346Y-101129956D01*
X114933865Y-101237436D01*
X114795273Y-101237436D01*
X114687792Y-101129956D01*
X114580312Y-101237436D01*
X114441719Y-101237436D01*
X114334239Y-101129956D01*
X114226758Y-101237436D01*
X114088166Y-101237436D01*
X113980686Y-101129956D01*
X113873205Y-101237436D01*
X113734613Y-101237436D01*
X113627132Y-101129956D01*
X113519652Y-101237436D01*
X113381059Y-101237436D01*
X113273579Y-101129956D01*
X113166098Y-101237436D01*
X113027506Y-101237436D01*
X112920025Y-101129956D01*
X112812545Y-101237436D01*
X112673952Y-101237436D01*
X112566472Y-101129956D01*
X112458991Y-101237436D01*
X112320399Y-101237436D01*
X112212919Y-101129956D01*
X112105438Y-101237436D01*
X111966846Y-101237436D01*
X111859365Y-101129956D01*
X111751885Y-101237436D01*
X111613292Y-101237436D01*
X111505812Y-101129956D01*
X111398331Y-101237436D01*
X111259739Y-101237436D01*
X111152259Y-101129956D01*
X111044778Y-101237436D01*
X110906185Y-101237436D01*
X110798705Y-101129956D01*
X110691224Y-101237436D01*
X110552632Y-101237436D01*
X110445152Y-101129956D01*
X110337671Y-101237436D01*
X110199079Y-101237436D01*
X110091598Y-101129956D01*
X109988000Y-101233555D01*
X109850000Y-101233555D01*
X109850000Y-101094962D01*
X109988000Y-101094962D01*
X110022302Y-101060660D01*
X110160895Y-101060660D01*
X110268375Y-101168140D01*
X110375855Y-101060660D01*
X110514448Y-101060660D01*
X110621928Y-101168140D01*
X110729409Y-101060660D01*
X110868002Y-101060660D01*
X110975482Y-101168140D01*
X111082962Y-101060660D01*
X111221555Y-101060660D01*
X111329035Y-101168140D01*
X111436516Y-101060660D01*
X111575109Y-101060660D01*
X111682589Y-101168140D01*
X111790069Y-101060660D01*
X111928662Y-101060660D01*
X112036142Y-101168140D01*
X112143622Y-101060660D01*
X112282215Y-101060660D01*
X112389695Y-101168140D01*
X112497176Y-101060660D01*
X112635769Y-101060660D01*
X112743249Y-101168140D01*
X112850729Y-101060660D01*
X112989322Y-101060660D01*
X113096802Y-101168140D01*
X113204283Y-101060660D01*
X113342876Y-101060660D01*
X113450356Y-101168140D01*
X113557836Y-101060660D01*
X113696429Y-101060660D01*
X113803909Y-101168140D01*
X113911389Y-101060660D01*
X114049982Y-101060660D01*
X114157462Y-101168140D01*
X114264943Y-101060660D01*
X114403536Y-101060660D01*
X114511016Y-101168140D01*
X114618496Y-101060660D01*
X114757089Y-101060660D01*
X114864569Y-101168140D01*
X114972049Y-101060660D01*
X115110643Y-101060660D01*
X115218123Y-101168140D01*
X115325603Y-101060660D01*
X115464196Y-101060660D01*
X115571676Y-101168140D01*
X115679156Y-101060660D01*
X115817749Y-101060660D01*
X115925229Y-101168140D01*
X116032710Y-101060660D01*
X116171303Y-101060660D01*
X116278783Y-101168140D01*
X116386263Y-101060660D01*
X116524856Y-101060660D01*
X116632336Y-101168140D01*
X116739816Y-101060660D01*
X116878409Y-101060660D01*
X116985889Y-101168140D01*
X117093370Y-101060660D01*
X117231963Y-101060660D01*
X117339443Y-101168140D01*
X117446923Y-101060660D01*
X117585516Y-101060660D01*
X117692996Y-101168140D01*
X117800477Y-101060660D01*
X117939070Y-101060660D01*
X118046550Y-101168140D01*
X118154030Y-101060660D01*
X118292623Y-101060660D01*
X118400103Y-101168140D01*
X118507583Y-101060660D01*
X118646176Y-101060660D01*
X118753656Y-101168140D01*
X118826000Y-101095797D01*
X118826000Y-101025523D01*
X118753656Y-100953179D01*
X118646176Y-101060660D01*
X118507583Y-101060660D01*
X118400103Y-100953179D01*
X118292623Y-101060660D01*
X118154030Y-101060660D01*
X118046550Y-100953180D01*
X117939070Y-101060660D01*
X117800477Y-101060660D01*
X117692996Y-100953179D01*
X117585516Y-101060660D01*
X117446923Y-101060660D01*
X117339443Y-100953179D01*
X117231963Y-101060660D01*
X117093370Y-101060660D01*
X116985889Y-100953179D01*
X116878409Y-101060660D01*
X116739816Y-101060660D01*
X116632336Y-100953179D01*
X116524856Y-101060660D01*
X116386263Y-101060660D01*
X116278783Y-100953180D01*
X116171303Y-101060660D01*
X116032710Y-101060660D01*
X115925229Y-100953179D01*
X115817749Y-101060660D01*
X115679156Y-101060660D01*
X115571676Y-100953179D01*
X115464196Y-101060660D01*
X115325603Y-101060660D01*
X115218123Y-100953180D01*
X115110643Y-101060660D01*
X114972049Y-101060660D01*
X114864569Y-100953179D01*
X114757089Y-101060660D01*
X114618496Y-101060660D01*
X114511016Y-100953180D01*
X114403536Y-101060660D01*
X114264943Y-101060660D01*
X114157462Y-100953179D01*
X114049982Y-101060660D01*
X113911389Y-101060660D01*
X113803909Y-100953179D01*
X113696429Y-101060660D01*
X113557836Y-101060660D01*
X113450356Y-100953180D01*
X113342876Y-101060660D01*
X113204283Y-101060660D01*
X113096802Y-100953179D01*
X112989322Y-101060660D01*
X112850729Y-101060660D01*
X112743249Y-100953180D01*
X112635769Y-101060660D01*
X112497176Y-101060660D01*
X112389695Y-100953179D01*
X112282215Y-101060660D01*
X112143622Y-101060660D01*
X112036142Y-100953179D01*
X111928662Y-101060660D01*
X111790069Y-101060660D01*
X111682589Y-100953180D01*
X111575109Y-101060660D01*
X111436516Y-101060660D01*
X111329035Y-100953179D01*
X111221555Y-101060660D01*
X111082962Y-101060660D01*
X110975482Y-100953179D01*
X110868002Y-101060660D01*
X110729409Y-101060660D01*
X110621928Y-100953179D01*
X110514448Y-101060660D01*
X110375855Y-101060660D01*
X110268375Y-100953179D01*
X110160895Y-101060660D01*
X110022302Y-101060660D01*
X109988000Y-101026358D01*
X109988000Y-101094962D01*
X109850000Y-101094962D01*
X109850000Y-100880001D01*
X109988000Y-100880001D01*
X109988000Y-100887765D01*
X110091598Y-100991363D01*
X110199079Y-100883883D01*
X110337671Y-100883883D01*
X110445152Y-100991363D01*
X110552632Y-100883883D01*
X110691224Y-100883883D01*
X110798705Y-100991363D01*
X110906185Y-100883883D01*
X111044778Y-100883883D01*
X111152259Y-100991363D01*
X111259739Y-100883883D01*
X111398331Y-100883883D01*
X111505812Y-100991363D01*
X111613292Y-100883883D01*
X111751885Y-100883883D01*
X111859365Y-100991363D01*
X111966846Y-100883883D01*
X112105438Y-100883883D01*
X112212919Y-100991363D01*
X112320399Y-100883883D01*
X112458991Y-100883883D01*
X112566472Y-100991363D01*
X112673952Y-100883883D01*
X112812545Y-100883883D01*
X112920025Y-100991363D01*
X113027506Y-100883883D01*
X113166098Y-100883883D01*
X113273579Y-100991363D01*
X113381059Y-100883883D01*
X113519652Y-100883883D01*
X113627132Y-100991363D01*
X113734613Y-100883883D01*
X113873205Y-100883883D01*
X113980686Y-100991363D01*
X114088166Y-100883883D01*
X114226758Y-100883883D01*
X114334239Y-100991363D01*
X114441719Y-100883883D01*
X114580312Y-100883883D01*
X114687792Y-100991363D01*
X114795273Y-100883883D01*
X114933865Y-100883883D01*
X115041346Y-100991363D01*
X115148826Y-100883883D01*
X115287419Y-100883883D01*
X115394899Y-100991363D01*
X115502380Y-100883883D01*
X115640972Y-100883883D01*
X115748453Y-100991363D01*
X115855933Y-100883883D01*
X115994525Y-100883883D01*
X116102006Y-100991363D01*
X116209486Y-100883883D01*
X116348079Y-100883883D01*
X116455559Y-100991363D01*
X116563040Y-100883883D01*
X116701632Y-100883883D01*
X116809113Y-100991363D01*
X116916593Y-100883883D01*
X117055186Y-100883883D01*
X117162666Y-100991363D01*
X117270147Y-100883883D01*
X117408739Y-100883883D01*
X117516220Y-100991363D01*
X117623700Y-100883883D01*
X117762292Y-100883883D01*
X117869773Y-100991363D01*
X117977253Y-100883883D01*
X118115846Y-100883883D01*
X118223326Y-100991363D01*
X118330807Y-100883883D01*
X118469399Y-100883883D01*
X118576880Y-100991363D01*
X118684360Y-100883883D01*
X118822953Y-100883883D01*
X118826000Y-100886930D01*
X118826000Y-100880836D01*
X118822953Y-100883883D01*
X118684360Y-100883883D01*
X118576880Y-100776403D01*
X118469399Y-100883883D01*
X118330807Y-100883883D01*
X118223326Y-100776402D01*
X118115846Y-100883883D01*
X117977253Y-100883883D01*
X117869773Y-100776402D01*
X117762292Y-100883883D01*
X117623700Y-100883883D01*
X117516220Y-100776403D01*
X117408739Y-100883883D01*
X117270147Y-100883883D01*
X117162666Y-100776402D01*
X117055186Y-100883883D01*
X116916593Y-100883883D01*
X116809113Y-100776403D01*
X116701632Y-100883883D01*
X116563040Y-100883883D01*
X116455559Y-100776402D01*
X116348079Y-100883883D01*
X116209486Y-100883883D01*
X116102006Y-100776402D01*
X115994525Y-100883883D01*
X115855933Y-100883883D01*
X115748453Y-100776403D01*
X115640972Y-100883883D01*
X115502380Y-100883883D01*
X115394899Y-100776402D01*
X115287419Y-100883883D01*
X115148826Y-100883883D01*
X115041346Y-100776402D01*
X114933865Y-100883883D01*
X114795273Y-100883883D01*
X114687792Y-100776402D01*
X114580312Y-100883883D01*
X114441719Y-100883883D01*
X114334239Y-100776402D01*
X114226758Y-100883883D01*
X114088166Y-100883883D01*
X113980686Y-100776403D01*
X113873205Y-100883883D01*
X113734613Y-100883883D01*
X113627132Y-100776402D01*
X113519652Y-100883883D01*
X113381059Y-100883883D01*
X113273579Y-100776402D01*
X113166098Y-100883883D01*
X113027506Y-100883883D01*
X112920025Y-100776402D01*
X112812545Y-100883883D01*
X112673952Y-100883883D01*
X112566472Y-100776402D01*
X112458991Y-100883883D01*
X112320399Y-100883883D01*
X112212919Y-100776403D01*
X112105438Y-100883883D01*
X111966846Y-100883883D01*
X111859365Y-100776402D01*
X111751885Y-100883883D01*
X111613292Y-100883883D01*
X111505812Y-100776402D01*
X111398331Y-100883883D01*
X111259739Y-100883883D01*
X111152259Y-100776403D01*
X111044778Y-100883883D01*
X110906185Y-100883883D01*
X110798705Y-100776402D01*
X110691224Y-100883883D01*
X110552632Y-100883883D01*
X110445152Y-100776403D01*
X110337671Y-100883883D01*
X110199079Y-100883883D01*
X110091598Y-100776402D01*
X109988000Y-100880001D01*
X109850000Y-100880001D01*
X109850000Y-100741409D01*
X109988000Y-100741409D01*
X110022302Y-100707106D01*
X110160894Y-100707106D01*
X110268375Y-100814587D01*
X110375855Y-100707106D01*
X110514448Y-100707106D01*
X110621928Y-100814587D01*
X110729409Y-100707106D01*
X110868001Y-100707106D01*
X110975482Y-100814587D01*
X111082962Y-100707106D01*
X111221555Y-100707106D01*
X111329035Y-100814587D01*
X111436516Y-100707106D01*
X111575108Y-100707106D01*
X111682589Y-100814587D01*
X111790069Y-100707106D01*
X111928661Y-100707106D01*
X112036142Y-100814587D01*
X112143622Y-100707106D01*
X112282215Y-100707106D01*
X112389695Y-100814587D01*
X112497176Y-100707106D01*
X112635768Y-100707106D01*
X112743249Y-100814587D01*
X112850729Y-100707106D01*
X112989322Y-100707106D01*
X113096802Y-100814587D01*
X113204283Y-100707106D01*
X113342875Y-100707106D01*
X113450356Y-100814587D01*
X113557836Y-100707106D01*
X113696428Y-100707106D01*
X113803909Y-100814587D01*
X113911389Y-100707106D01*
X114049982Y-100707106D01*
X114157462Y-100814587D01*
X114264943Y-100707106D01*
X114403535Y-100707106D01*
X114511016Y-100814587D01*
X114618496Y-100707106D01*
X114757088Y-100707106D01*
X114864569Y-100814587D01*
X114972049Y-100707106D01*
X115110642Y-100707106D01*
X115218123Y-100814587D01*
X115325603Y-100707106D01*
X115464195Y-100707106D01*
X115571676Y-100814587D01*
X115679156Y-100707106D01*
X115817749Y-100707106D01*
X115925229Y-100814587D01*
X116032710Y-100707106D01*
X116171302Y-100707106D01*
X116278783Y-100814587D01*
X116386263Y-100707106D01*
X116524855Y-100707106D01*
X116632336Y-100814587D01*
X116739816Y-100707106D01*
X116878409Y-100707106D01*
X116985889Y-100814587D01*
X117093370Y-100707106D01*
X117231962Y-100707106D01*
X117339443Y-100814587D01*
X117446923Y-100707106D01*
X117585516Y-100707106D01*
X117692996Y-100814587D01*
X117800477Y-100707106D01*
X117939069Y-100707106D01*
X118046550Y-100814587D01*
X118154030Y-100707106D01*
X118292622Y-100707106D01*
X118400103Y-100814587D01*
X118507583Y-100707106D01*
X118646176Y-100707106D01*
X118753656Y-100814587D01*
X118826000Y-100742244D01*
X118826000Y-100671969D01*
X118753657Y-100599626D01*
X118646176Y-100707106D01*
X118507583Y-100707106D01*
X118400103Y-100599626D01*
X118292622Y-100707106D01*
X118154030Y-100707106D01*
X118046550Y-100599626D01*
X117939069Y-100707106D01*
X117800477Y-100707106D01*
X117692996Y-100599626D01*
X117585516Y-100707106D01*
X117446923Y-100707106D01*
X117339443Y-100599626D01*
X117231962Y-100707106D01*
X117093370Y-100707106D01*
X116985889Y-100599626D01*
X116878409Y-100707106D01*
X116739816Y-100707106D01*
X116632336Y-100599626D01*
X116524855Y-100707106D01*
X116386263Y-100707106D01*
X116278783Y-100599626D01*
X116171302Y-100707106D01*
X116032710Y-100707106D01*
X115925229Y-100599626D01*
X115817749Y-100707106D01*
X115679156Y-100707106D01*
X115571676Y-100599626D01*
X115464195Y-100707106D01*
X115325603Y-100707106D01*
X115218123Y-100599626D01*
X115110642Y-100707106D01*
X114972049Y-100707106D01*
X114864569Y-100599626D01*
X114757088Y-100707106D01*
X114618496Y-100707106D01*
X114511016Y-100599626D01*
X114403535Y-100707106D01*
X114264943Y-100707106D01*
X114157462Y-100599626D01*
X114049982Y-100707106D01*
X113911389Y-100707106D01*
X113803909Y-100599626D01*
X113696428Y-100707106D01*
X113557836Y-100707106D01*
X113450356Y-100599626D01*
X113342875Y-100707106D01*
X113204283Y-100707106D01*
X113096802Y-100599626D01*
X112989322Y-100707106D01*
X112850729Y-100707106D01*
X112743249Y-100599626D01*
X112635768Y-100707106D01*
X112497176Y-100707106D01*
X112389695Y-100599626D01*
X112282215Y-100707106D01*
X112143622Y-100707106D01*
X112036142Y-100599626D01*
X111928661Y-100707106D01*
X111790069Y-100707106D01*
X111682589Y-100599626D01*
X111575108Y-100707106D01*
X111436516Y-100707106D01*
X111329035Y-100599626D01*
X111221555Y-100707106D01*
X111082962Y-100707106D01*
X110975482Y-100599626D01*
X110868001Y-100707106D01*
X110729409Y-100707106D01*
X110621928Y-100599626D01*
X110514448Y-100707106D01*
X110375855Y-100707106D01*
X110268375Y-100599626D01*
X110160894Y-100707106D01*
X110022302Y-100707106D01*
X109988000Y-100672804D01*
X109988000Y-100741409D01*
X109850000Y-100741409D01*
X109850000Y-100526448D01*
X109988000Y-100526448D01*
X109988000Y-100534211D01*
X110091599Y-100637810D01*
X110199079Y-100530330D01*
X110337672Y-100530330D01*
X110445152Y-100637810D01*
X110552632Y-100530330D01*
X110691225Y-100530330D01*
X110798705Y-100637810D01*
X110906185Y-100530330D01*
X111044779Y-100530330D01*
X111152259Y-100637810D01*
X111259739Y-100530330D01*
X111398332Y-100530330D01*
X111505812Y-100637810D01*
X111613292Y-100530330D01*
X111751885Y-100530330D01*
X111859365Y-100637810D01*
X111966846Y-100530330D01*
X112105439Y-100530330D01*
X112212919Y-100637810D01*
X112320399Y-100530330D01*
X112458992Y-100530330D01*
X112566472Y-100637810D01*
X112673952Y-100530330D01*
X112812545Y-100530330D01*
X112920025Y-100637810D01*
X113027506Y-100530330D01*
X113166099Y-100530330D01*
X113273579Y-100637810D01*
X113381059Y-100530330D01*
X113519652Y-100530330D01*
X113627132Y-100637810D01*
X113734613Y-100530330D01*
X113873206Y-100530330D01*
X113980686Y-100637810D01*
X114088166Y-100530330D01*
X114226759Y-100530330D01*
X114334239Y-100637810D01*
X114441719Y-100530330D01*
X114580312Y-100530330D01*
X114687792Y-100637810D01*
X114795273Y-100530330D01*
X114933866Y-100530330D01*
X115041346Y-100637810D01*
X115148826Y-100530330D01*
X115287419Y-100530330D01*
X115394899Y-100637810D01*
X115502380Y-100530330D01*
X115640973Y-100530330D01*
X115748453Y-100637810D01*
X115855933Y-100530330D01*
X115994526Y-100530330D01*
X116102006Y-100637810D01*
X116209486Y-100530330D01*
X116348079Y-100530330D01*
X116455559Y-100637810D01*
X116563040Y-100530330D01*
X116701633Y-100530330D01*
X116809113Y-100637810D01*
X116916593Y-100530330D01*
X117055186Y-100530330D01*
X117162666Y-100637810D01*
X117270147Y-100530330D01*
X117408740Y-100530330D01*
X117516220Y-100637810D01*
X117623700Y-100530330D01*
X117762293Y-100530330D01*
X117869773Y-100637810D01*
X117977253Y-100530330D01*
X118115846Y-100530330D01*
X118223326Y-100637810D01*
X118330807Y-100530330D01*
X118469400Y-100530330D01*
X118576880Y-100637810D01*
X118684360Y-100530330D01*
X118822953Y-100530330D01*
X118826000Y-100533377D01*
X118826000Y-100527283D01*
X118822953Y-100530330D01*
X118684360Y-100530330D01*
X118576880Y-100422850D01*
X118469400Y-100530330D01*
X118330807Y-100530330D01*
X118223326Y-100422849D01*
X118115846Y-100530330D01*
X117977253Y-100530330D01*
X117869773Y-100422849D01*
X117762293Y-100530330D01*
X117623700Y-100530330D01*
X117516220Y-100422850D01*
X117408740Y-100530330D01*
X117270147Y-100530330D01*
X117162666Y-100422849D01*
X117055186Y-100530330D01*
X116916593Y-100530330D01*
X116809113Y-100422850D01*
X116701633Y-100530330D01*
X116563040Y-100530330D01*
X116455559Y-100422849D01*
X116348079Y-100530330D01*
X116209486Y-100530330D01*
X116102006Y-100422849D01*
X115994526Y-100530330D01*
X115855933Y-100530330D01*
X115748453Y-100422850D01*
X115640973Y-100530330D01*
X115502380Y-100530330D01*
X115394899Y-100422849D01*
X115287419Y-100530330D01*
X115148826Y-100530330D01*
X115041346Y-100422849D01*
X114933866Y-100530330D01*
X114795273Y-100530330D01*
X114687792Y-100422849D01*
X114580312Y-100530330D01*
X114441719Y-100530330D01*
X114334239Y-100422849D01*
X114226759Y-100530330D01*
X114088166Y-100530330D01*
X113980686Y-100422850D01*
X113873206Y-100530330D01*
X113734613Y-100530330D01*
X113627132Y-100422849D01*
X113519652Y-100530330D01*
X113381059Y-100530330D01*
X113273579Y-100422849D01*
X113166099Y-100530330D01*
X113027506Y-100530330D01*
X112920025Y-100422849D01*
X112812545Y-100530330D01*
X112673952Y-100530330D01*
X112566472Y-100422849D01*
X112458992Y-100530330D01*
X112320399Y-100530330D01*
X112212919Y-100422850D01*
X112105439Y-100530330D01*
X111966846Y-100530330D01*
X111859365Y-100422849D01*
X111751885Y-100530330D01*
X111613292Y-100530330D01*
X111505812Y-100422849D01*
X111398332Y-100530330D01*
X111259739Y-100530330D01*
X111152259Y-100422850D01*
X111044779Y-100530330D01*
X110906185Y-100530330D01*
X110798705Y-100422849D01*
X110691225Y-100530330D01*
X110552632Y-100530330D01*
X110445152Y-100422850D01*
X110337672Y-100530330D01*
X110199079Y-100530330D01*
X110091598Y-100422849D01*
X109988000Y-100526448D01*
X109850000Y-100526448D01*
X109850000Y-100387855D01*
X109988000Y-100387855D01*
X110022302Y-100353553D01*
X110160894Y-100353553D01*
X110268375Y-100461033D01*
X110375855Y-100353553D01*
X110514448Y-100353553D01*
X110621928Y-100461033D01*
X110729409Y-100353553D01*
X110868001Y-100353553D01*
X110975482Y-100461033D01*
X111082962Y-100353553D01*
X111221555Y-100353553D01*
X111329035Y-100461033D01*
X111436516Y-100353553D01*
X111575108Y-100353553D01*
X111682589Y-100461033D01*
X111790069Y-100353553D01*
X111928661Y-100353553D01*
X112036142Y-100461033D01*
X112143622Y-100353553D01*
X112282215Y-100353553D01*
X112389695Y-100461033D01*
X112497176Y-100353553D01*
X112635768Y-100353553D01*
X112743249Y-100461033D01*
X112850729Y-100353553D01*
X112989322Y-100353553D01*
X113096802Y-100461033D01*
X113204283Y-100353553D01*
X113342875Y-100353553D01*
X113450356Y-100461033D01*
X113557836Y-100353553D01*
X113696428Y-100353553D01*
X113803909Y-100461033D01*
X113911389Y-100353553D01*
X114049982Y-100353553D01*
X114157462Y-100461033D01*
X114264943Y-100353553D01*
X114403535Y-100353553D01*
X114511016Y-100461033D01*
X114618496Y-100353553D01*
X114757088Y-100353553D01*
X114864569Y-100461033D01*
X114972049Y-100353553D01*
X115110642Y-100353553D01*
X115218123Y-100461033D01*
X115325603Y-100353553D01*
X115464195Y-100353553D01*
X115571676Y-100461033D01*
X115679156Y-100353553D01*
X115817749Y-100353553D01*
X115925229Y-100461033D01*
X116032710Y-100353553D01*
X116171302Y-100353553D01*
X116278783Y-100461033D01*
X116386263Y-100353553D01*
X116524855Y-100353553D01*
X116632336Y-100461033D01*
X116739816Y-100353553D01*
X116878409Y-100353553D01*
X116985889Y-100461033D01*
X117093370Y-100353553D01*
X117231962Y-100353553D01*
X117339443Y-100461033D01*
X117446923Y-100353553D01*
X117585516Y-100353553D01*
X117692996Y-100461033D01*
X117800477Y-100353553D01*
X117939069Y-100353553D01*
X118046550Y-100461033D01*
X118154030Y-100353553D01*
X118292622Y-100353553D01*
X118400103Y-100461033D01*
X118507583Y-100353553D01*
X118646176Y-100353553D01*
X118753656Y-100461033D01*
X118826000Y-100388690D01*
X118826000Y-100318416D01*
X118753656Y-100246072D01*
X118646176Y-100353553D01*
X118507583Y-100353553D01*
X118400103Y-100246072D01*
X118292622Y-100353553D01*
X118154030Y-100353553D01*
X118046550Y-100246073D01*
X117939069Y-100353553D01*
X117800477Y-100353553D01*
X117692996Y-100246072D01*
X117585516Y-100353553D01*
X117446923Y-100353553D01*
X117339443Y-100246072D01*
X117231962Y-100353553D01*
X117093370Y-100353553D01*
X116985889Y-100246072D01*
X116878409Y-100353553D01*
X116739816Y-100353553D01*
X116632336Y-100246072D01*
X116524855Y-100353553D01*
X116386263Y-100353553D01*
X116278783Y-100246073D01*
X116171302Y-100353553D01*
X116032710Y-100353553D01*
X115925229Y-100246072D01*
X115817749Y-100353553D01*
X115679156Y-100353553D01*
X115571676Y-100246072D01*
X115464195Y-100353553D01*
X115325603Y-100353553D01*
X115218123Y-100246073D01*
X115110642Y-100353553D01*
X114972049Y-100353553D01*
X114864569Y-100246072D01*
X114757088Y-100353553D01*
X114618496Y-100353553D01*
X114511016Y-100246073D01*
X114403535Y-100353553D01*
X114264943Y-100353553D01*
X114157462Y-100246072D01*
X114049982Y-100353553D01*
X113911389Y-100353553D01*
X113803909Y-100246072D01*
X113696428Y-100353553D01*
X113557836Y-100353553D01*
X113450356Y-100246073D01*
X113342875Y-100353553D01*
X113204283Y-100353553D01*
X113096802Y-100246072D01*
X112989322Y-100353553D01*
X112850729Y-100353553D01*
X112743249Y-100246073D01*
X112635768Y-100353553D01*
X112497176Y-100353553D01*
X112389695Y-100246072D01*
X112282215Y-100353553D01*
X112143622Y-100353553D01*
X112036142Y-100246072D01*
X111928661Y-100353553D01*
X111790069Y-100353553D01*
X111682589Y-100246073D01*
X111575108Y-100353553D01*
X111436516Y-100353553D01*
X111329035Y-100246072D01*
X111221555Y-100353553D01*
X111082962Y-100353553D01*
X110975482Y-100246072D01*
X110868001Y-100353553D01*
X110729409Y-100353553D01*
X110621928Y-100246072D01*
X110514448Y-100353553D01*
X110375855Y-100353553D01*
X110268375Y-100246072D01*
X110160894Y-100353553D01*
X110022302Y-100353553D01*
X109988000Y-100319251D01*
X109988000Y-100387855D01*
X109850000Y-100387855D01*
X109850000Y-100172895D01*
X109988000Y-100172895D01*
X109988000Y-100180658D01*
X110091599Y-100284257D01*
X110199079Y-100176776D01*
X110337671Y-100176776D01*
X110445152Y-100284257D01*
X110552632Y-100176776D01*
X110691224Y-100176776D01*
X110798705Y-100284257D01*
X110906185Y-100176776D01*
X111044778Y-100176776D01*
X111152259Y-100284257D01*
X111259739Y-100176776D01*
X111398331Y-100176776D01*
X111505812Y-100284257D01*
X111613292Y-100176776D01*
X111751885Y-100176776D01*
X111859365Y-100284257D01*
X111966846Y-100176776D01*
X112105438Y-100176776D01*
X112212919Y-100284257D01*
X112320399Y-100176776D01*
X112458991Y-100176776D01*
X112566472Y-100284257D01*
X112673952Y-100176776D01*
X112812545Y-100176776D01*
X112920025Y-100284257D01*
X113027506Y-100176776D01*
X113166098Y-100176776D01*
X113273579Y-100284257D01*
X113381059Y-100176776D01*
X113519652Y-100176776D01*
X113627132Y-100284257D01*
X113734613Y-100176776D01*
X113873205Y-100176776D01*
X113980686Y-100284257D01*
X114088166Y-100176776D01*
X114226758Y-100176776D01*
X114334239Y-100284257D01*
X114441719Y-100176776D01*
X114580312Y-100176776D01*
X114687792Y-100284257D01*
X114795273Y-100176776D01*
X114933865Y-100176776D01*
X115041346Y-100284257D01*
X115148826Y-100176776D01*
X115287419Y-100176776D01*
X115394899Y-100284257D01*
X115502380Y-100176776D01*
X115640972Y-100176776D01*
X115748453Y-100284257D01*
X115855933Y-100176776D01*
X115994525Y-100176776D01*
X116102006Y-100284257D01*
X116209486Y-100176776D01*
X116348079Y-100176776D01*
X116455559Y-100284257D01*
X116563040Y-100176776D01*
X116701632Y-100176776D01*
X116809113Y-100284257D01*
X116916593Y-100176776D01*
X117055186Y-100176776D01*
X117162666Y-100284257D01*
X117270147Y-100176776D01*
X117408739Y-100176776D01*
X117516220Y-100284257D01*
X117623700Y-100176776D01*
X117762292Y-100176776D01*
X117869773Y-100284257D01*
X117977253Y-100176776D01*
X118115846Y-100176776D01*
X118223326Y-100284257D01*
X118330807Y-100176776D01*
X118469399Y-100176776D01*
X118576880Y-100284257D01*
X118684360Y-100176776D01*
X118822952Y-100176776D01*
X118826000Y-100179824D01*
X118826000Y-100173729D01*
X118822952Y-100176776D01*
X118684360Y-100176776D01*
X118576880Y-100069296D01*
X118469399Y-100176776D01*
X118330807Y-100176776D01*
X118223326Y-100069296D01*
X118115846Y-100176776D01*
X117977253Y-100176776D01*
X117869773Y-100069296D01*
X117762292Y-100176776D01*
X117623700Y-100176776D01*
X117516220Y-100069296D01*
X117408739Y-100176776D01*
X117270147Y-100176776D01*
X117162666Y-100069296D01*
X117055186Y-100176776D01*
X116916593Y-100176776D01*
X116809113Y-100069296D01*
X116701632Y-100176776D01*
X116563040Y-100176776D01*
X116455559Y-100069296D01*
X116348079Y-100176776D01*
X116209486Y-100176776D01*
X116102006Y-100069296D01*
X115994525Y-100176776D01*
X115855933Y-100176776D01*
X115748453Y-100069296D01*
X115640972Y-100176776D01*
X115502380Y-100176776D01*
X115394899Y-100069296D01*
X115287419Y-100176776D01*
X115148826Y-100176776D01*
X115041346Y-100069296D01*
X114933865Y-100176776D01*
X114795273Y-100176776D01*
X114687792Y-100069296D01*
X114580312Y-100176776D01*
X114441719Y-100176776D01*
X114334239Y-100069296D01*
X114226758Y-100176776D01*
X114088166Y-100176776D01*
X113980686Y-100069296D01*
X113873205Y-100176776D01*
X113734613Y-100176776D01*
X113627132Y-100069296D01*
X113519652Y-100176776D01*
X113381059Y-100176776D01*
X113273579Y-100069296D01*
X113166098Y-100176776D01*
X113027506Y-100176776D01*
X112920025Y-100069296D01*
X112812545Y-100176776D01*
X112673952Y-100176776D01*
X112566472Y-100069296D01*
X112458991Y-100176776D01*
X112320399Y-100176776D01*
X112212919Y-100069296D01*
X112105438Y-100176776D01*
X111966846Y-100176776D01*
X111859365Y-100069296D01*
X111751885Y-100176776D01*
X111613292Y-100176776D01*
X111505812Y-100069296D01*
X111398331Y-100176776D01*
X111259739Y-100176776D01*
X111152259Y-100069296D01*
X111044778Y-100176776D01*
X110906185Y-100176776D01*
X110798705Y-100069296D01*
X110691224Y-100176776D01*
X110552632Y-100176776D01*
X110445152Y-100069296D01*
X110337671Y-100176776D01*
X110199079Y-100176776D01*
X110091598Y-100069296D01*
X109988000Y-100172895D01*
X109850000Y-100172895D01*
X109850000Y-100034302D01*
X109988000Y-100034302D01*
X110022302Y-99999999D01*
X110160894Y-99999999D01*
X110268375Y-100107480D01*
X110375855Y-99999999D01*
X110514448Y-99999999D01*
X110621928Y-100107480D01*
X110729409Y-99999999D01*
X110868001Y-99999999D01*
X110975482Y-100107480D01*
X111082962Y-99999999D01*
X111221555Y-99999999D01*
X111329035Y-100107480D01*
X111436516Y-99999999D01*
X111575108Y-99999999D01*
X111682589Y-100107480D01*
X111790069Y-99999999D01*
X111928661Y-99999999D01*
X112036142Y-100107480D01*
X112143622Y-99999999D01*
X112282215Y-99999999D01*
X112389695Y-100107480D01*
X112497176Y-99999999D01*
X112635768Y-99999999D01*
X112743249Y-100107480D01*
X112850729Y-99999999D01*
X112989322Y-99999999D01*
X113096802Y-100107480D01*
X113204283Y-99999999D01*
X113342875Y-99999999D01*
X113450356Y-100107480D01*
X113557836Y-99999999D01*
X113696428Y-99999999D01*
X113803909Y-100107480D01*
X113911389Y-99999999D01*
X114049982Y-99999999D01*
X114157462Y-100107480D01*
X114264943Y-99999999D01*
X114403535Y-99999999D01*
X114511016Y-100107480D01*
X114618496Y-99999999D01*
X114757088Y-99999999D01*
X114864569Y-100107480D01*
X114972049Y-99999999D01*
X115110642Y-99999999D01*
X115218123Y-100107480D01*
X115325603Y-99999999D01*
X115464195Y-99999999D01*
X115571676Y-100107480D01*
X115679156Y-99999999D01*
X115817749Y-99999999D01*
X115925229Y-100107480D01*
X116032710Y-99999999D01*
X116171302Y-99999999D01*
X116278783Y-100107480D01*
X116386263Y-99999999D01*
X116524855Y-99999999D01*
X116632336Y-100107480D01*
X116739816Y-99999999D01*
X116878409Y-99999999D01*
X116985889Y-100107480D01*
X117093370Y-99999999D01*
X117231962Y-99999999D01*
X117339443Y-100107480D01*
X117446923Y-99999999D01*
X117585516Y-99999999D01*
X117692996Y-100107480D01*
X117800477Y-99999999D01*
X117939069Y-99999999D01*
X118046550Y-100107480D01*
X118154030Y-99999999D01*
X118292622Y-99999999D01*
X118400103Y-100107480D01*
X118507583Y-99999999D01*
X118646176Y-99999999D01*
X118753656Y-100107480D01*
X118826000Y-100035137D01*
X118826000Y-99964862D01*
X118753657Y-99892519D01*
X118646176Y-99999999D01*
X118507583Y-99999999D01*
X118400103Y-99892519D01*
X118292622Y-99999999D01*
X118154030Y-99999999D01*
X118046550Y-99892519D01*
X117939069Y-99999999D01*
X117800477Y-99999999D01*
X117692996Y-99892519D01*
X117585516Y-99999999D01*
X117446923Y-99999999D01*
X117339443Y-99892519D01*
X117231962Y-99999999D01*
X117093370Y-99999999D01*
X116985889Y-99892519D01*
X116878409Y-99999999D01*
X116739816Y-99999999D01*
X116632336Y-99892519D01*
X116524855Y-99999999D01*
X116386263Y-99999999D01*
X116278783Y-99892519D01*
X116171302Y-99999999D01*
X116032710Y-99999999D01*
X115925229Y-99892519D01*
X115817749Y-99999999D01*
X115679156Y-99999999D01*
X115571676Y-99892519D01*
X115464195Y-99999999D01*
X115325603Y-99999999D01*
X115218123Y-99892519D01*
X115110642Y-99999999D01*
X114972049Y-99999999D01*
X114864569Y-99892519D01*
X114757088Y-99999999D01*
X114618496Y-99999999D01*
X114511016Y-99892519D01*
X114403535Y-99999999D01*
X114264943Y-99999999D01*
X114157462Y-99892519D01*
X114049982Y-99999999D01*
X113911389Y-99999999D01*
X113803909Y-99892519D01*
X113696428Y-99999999D01*
X113557836Y-99999999D01*
X113450356Y-99892519D01*
X113342875Y-99999999D01*
X113204283Y-99999999D01*
X113096802Y-99892519D01*
X112989322Y-99999999D01*
X112850729Y-99999999D01*
X112743249Y-99892519D01*
X112635768Y-99999999D01*
X112497176Y-99999999D01*
X112389695Y-99892519D01*
X112282215Y-99999999D01*
X112143622Y-99999999D01*
X112036142Y-99892519D01*
X111928661Y-99999999D01*
X111790069Y-99999999D01*
X111682589Y-99892519D01*
X111575108Y-99999999D01*
X111436516Y-99999999D01*
X111329035Y-99892519D01*
X111221555Y-99999999D01*
X111082962Y-99999999D01*
X110975482Y-99892519D01*
X110868001Y-99999999D01*
X110729409Y-99999999D01*
X110621928Y-99892519D01*
X110514448Y-99999999D01*
X110375855Y-99999999D01*
X110268375Y-99892519D01*
X110160894Y-99999999D01*
X110022302Y-99999999D01*
X109988000Y-99965697D01*
X109988000Y-100034302D01*
X109850000Y-100034302D01*
X109850000Y-99819341D01*
X109988000Y-99819341D01*
X109988000Y-99827104D01*
X110091599Y-99930703D01*
X110199079Y-99823223D01*
X110337672Y-99823223D01*
X110445152Y-99930703D01*
X110552632Y-99823223D01*
X110691225Y-99823223D01*
X110798705Y-99930703D01*
X110906185Y-99823223D01*
X111044779Y-99823223D01*
X111152259Y-99930703D01*
X111259739Y-99823223D01*
X111398332Y-99823223D01*
X111505812Y-99930703D01*
X111613292Y-99823223D01*
X111751885Y-99823223D01*
X111859365Y-99930703D01*
X111966846Y-99823223D01*
X112105439Y-99823223D01*
X112212919Y-99930703D01*
X112320399Y-99823223D01*
X112458992Y-99823223D01*
X112566472Y-99930703D01*
X112673952Y-99823223D01*
X112812545Y-99823223D01*
X112920025Y-99930703D01*
X113027506Y-99823223D01*
X113166099Y-99823223D01*
X113273579Y-99930703D01*
X113381059Y-99823223D01*
X113519652Y-99823223D01*
X113627132Y-99930703D01*
X113734613Y-99823223D01*
X113873206Y-99823223D01*
X113980686Y-99930703D01*
X114088166Y-99823223D01*
X114226759Y-99823223D01*
X114334239Y-99930703D01*
X114441719Y-99823223D01*
X114580312Y-99823223D01*
X114687792Y-99930703D01*
X114795273Y-99823223D01*
X114933866Y-99823223D01*
X115041346Y-99930703D01*
X115148826Y-99823223D01*
X115287419Y-99823223D01*
X115394899Y-99930703D01*
X115502380Y-99823223D01*
X115640973Y-99823223D01*
X115748453Y-99930703D01*
X115855933Y-99823223D01*
X115994526Y-99823223D01*
X116102006Y-99930703D01*
X116209486Y-99823223D01*
X116348079Y-99823223D01*
X116455559Y-99930703D01*
X116563040Y-99823223D01*
X116701633Y-99823223D01*
X116809113Y-99930703D01*
X116916593Y-99823223D01*
X117055186Y-99823223D01*
X117162666Y-99930703D01*
X117270147Y-99823223D01*
X117408740Y-99823223D01*
X117516220Y-99930703D01*
X117623700Y-99823223D01*
X117762293Y-99823223D01*
X117869773Y-99930703D01*
X117977253Y-99823223D01*
X118115846Y-99823223D01*
X118223326Y-99930703D01*
X118330807Y-99823223D01*
X118469400Y-99823223D01*
X118576880Y-99930703D01*
X118684360Y-99823223D01*
X118822953Y-99823223D01*
X118826000Y-99826270D01*
X118826000Y-99820176D01*
X118822953Y-99823223D01*
X118684360Y-99823223D01*
X118576880Y-99715743D01*
X118469400Y-99823223D01*
X118330807Y-99823223D01*
X118223326Y-99715742D01*
X118115846Y-99823223D01*
X117977253Y-99823223D01*
X117869773Y-99715742D01*
X117762293Y-99823223D01*
X117623700Y-99823223D01*
X117516220Y-99715743D01*
X117408740Y-99823223D01*
X117270147Y-99823223D01*
X117162666Y-99715742D01*
X117055186Y-99823223D01*
X116916593Y-99823223D01*
X116809113Y-99715743D01*
X116701633Y-99823223D01*
X116563040Y-99823223D01*
X116455559Y-99715742D01*
X116348079Y-99823223D01*
X116209486Y-99823223D01*
X116102006Y-99715742D01*
X115994526Y-99823223D01*
X115855933Y-99823223D01*
X115748453Y-99715743D01*
X115640973Y-99823223D01*
X115502380Y-99823223D01*
X115394899Y-99715742D01*
X115287419Y-99823223D01*
X115148826Y-99823223D01*
X115041346Y-99715742D01*
X114933866Y-99823223D01*
X114795273Y-99823223D01*
X114687792Y-99715742D01*
X114580312Y-99823223D01*
X114441719Y-99823223D01*
X114334239Y-99715742D01*
X114226759Y-99823223D01*
X114088166Y-99823223D01*
X113980686Y-99715743D01*
X113873206Y-99823223D01*
X113734613Y-99823223D01*
X113627132Y-99715742D01*
X113519652Y-99823223D01*
X113381059Y-99823223D01*
X113273579Y-99715742D01*
X113166099Y-99823223D01*
X113027506Y-99823223D01*
X112920025Y-99715742D01*
X112812545Y-99823223D01*
X112673952Y-99823223D01*
X112566472Y-99715742D01*
X112458992Y-99823223D01*
X112320399Y-99823223D01*
X112212919Y-99715743D01*
X112105439Y-99823223D01*
X111966846Y-99823223D01*
X111859365Y-99715742D01*
X111751885Y-99823223D01*
X111613292Y-99823223D01*
X111505812Y-99715742D01*
X111398332Y-99823223D01*
X111259739Y-99823223D01*
X111152259Y-99715743D01*
X111044779Y-99823223D01*
X110906185Y-99823223D01*
X110798705Y-99715742D01*
X110691225Y-99823223D01*
X110552632Y-99823223D01*
X110445152Y-99715743D01*
X110337672Y-99823223D01*
X110199079Y-99823223D01*
X110091598Y-99715742D01*
X109988000Y-99819341D01*
X109850000Y-99819341D01*
X109850000Y-99680748D01*
X109988000Y-99680748D01*
X110022302Y-99646446D01*
X110160894Y-99646446D01*
X110268375Y-99753926D01*
X110375855Y-99646446D01*
X110514448Y-99646446D01*
X110621928Y-99753926D01*
X110729409Y-99646446D01*
X110868001Y-99646446D01*
X110975482Y-99753926D01*
X111082962Y-99646446D01*
X111221555Y-99646446D01*
X111329035Y-99753926D01*
X111436516Y-99646446D01*
X111575108Y-99646446D01*
X111682589Y-99753926D01*
X111790069Y-99646446D01*
X111928661Y-99646446D01*
X112036142Y-99753926D01*
X112143622Y-99646446D01*
X112282215Y-99646446D01*
X112389695Y-99753926D01*
X112497176Y-99646446D01*
X112635768Y-99646446D01*
X112743249Y-99753926D01*
X112850729Y-99646446D01*
X112989322Y-99646446D01*
X113096802Y-99753926D01*
X113204283Y-99646446D01*
X113342875Y-99646446D01*
X113450356Y-99753926D01*
X113557836Y-99646446D01*
X113696428Y-99646446D01*
X113803909Y-99753926D01*
X113911389Y-99646446D01*
X114049982Y-99646446D01*
X114157462Y-99753926D01*
X114264943Y-99646446D01*
X114403535Y-99646446D01*
X114511016Y-99753926D01*
X114618496Y-99646446D01*
X114757088Y-99646446D01*
X114864569Y-99753926D01*
X114972049Y-99646446D01*
X115110642Y-99646446D01*
X115218123Y-99753926D01*
X115325603Y-99646446D01*
X115464195Y-99646446D01*
X115571676Y-99753926D01*
X115679156Y-99646446D01*
X115817749Y-99646446D01*
X115925229Y-99753926D01*
X116032710Y-99646446D01*
X116171302Y-99646446D01*
X116278783Y-99753926D01*
X116386263Y-99646446D01*
X116524855Y-99646446D01*
X116632336Y-99753926D01*
X116739816Y-99646446D01*
X116878409Y-99646446D01*
X116985889Y-99753926D01*
X117093370Y-99646446D01*
X117231962Y-99646446D01*
X117339443Y-99753926D01*
X117446923Y-99646446D01*
X117585516Y-99646446D01*
X117692996Y-99753926D01*
X117800477Y-99646446D01*
X117939069Y-99646446D01*
X118046550Y-99753926D01*
X118154030Y-99646446D01*
X118292622Y-99646446D01*
X118400103Y-99753926D01*
X118507583Y-99646446D01*
X118646176Y-99646446D01*
X118753656Y-99753926D01*
X118826000Y-99681583D01*
X118826000Y-99611309D01*
X118753656Y-99538965D01*
X118646176Y-99646446D01*
X118507583Y-99646446D01*
X118400103Y-99538965D01*
X118292622Y-99646446D01*
X118154030Y-99646446D01*
X118046550Y-99538966D01*
X117939069Y-99646446D01*
X117800477Y-99646446D01*
X117692996Y-99538965D01*
X117585516Y-99646446D01*
X117446923Y-99646446D01*
X117339443Y-99538965D01*
X117231962Y-99646446D01*
X117093370Y-99646446D01*
X116985889Y-99538965D01*
X116878409Y-99646446D01*
X116739816Y-99646446D01*
X116632336Y-99538965D01*
X116524855Y-99646446D01*
X116386263Y-99646446D01*
X116278783Y-99538966D01*
X116171302Y-99646446D01*
X116032710Y-99646446D01*
X115925229Y-99538965D01*
X115817749Y-99646446D01*
X115679156Y-99646446D01*
X115571676Y-99538965D01*
X115464195Y-99646446D01*
X115325603Y-99646446D01*
X115218123Y-99538966D01*
X115110642Y-99646446D01*
X114972049Y-99646446D01*
X114864569Y-99538965D01*
X114757088Y-99646446D01*
X114618496Y-99646446D01*
X114511016Y-99538966D01*
X114403535Y-99646446D01*
X114264943Y-99646446D01*
X114157462Y-99538965D01*
X114049982Y-99646446D01*
X113911389Y-99646446D01*
X113803909Y-99538965D01*
X113696428Y-99646446D01*
X113557836Y-99646446D01*
X113450356Y-99538966D01*
X113342875Y-99646446D01*
X113204283Y-99646446D01*
X113096802Y-99538965D01*
X112989322Y-99646446D01*
X112850729Y-99646446D01*
X112743249Y-99538966D01*
X112635768Y-99646446D01*
X112497176Y-99646446D01*
X112389695Y-99538965D01*
X112282215Y-99646446D01*
X112143622Y-99646446D01*
X112036142Y-99538965D01*
X111928661Y-99646446D01*
X111790069Y-99646446D01*
X111682589Y-99538966D01*
X111575108Y-99646446D01*
X111436516Y-99646446D01*
X111329035Y-99538965D01*
X111221555Y-99646446D01*
X111082962Y-99646446D01*
X110975482Y-99538965D01*
X110868001Y-99646446D01*
X110729409Y-99646446D01*
X110621928Y-99538965D01*
X110514448Y-99646446D01*
X110375855Y-99646446D01*
X110268375Y-99538965D01*
X110160894Y-99646446D01*
X110022302Y-99646446D01*
X109988000Y-99612144D01*
X109988000Y-99680748D01*
X109850000Y-99680748D01*
X109850000Y-99465788D01*
X109988000Y-99465788D01*
X109988000Y-99473551D01*
X110091599Y-99577150D01*
X110199079Y-99469669D01*
X110337671Y-99469669D01*
X110445152Y-99577150D01*
X110552632Y-99469669D01*
X110691224Y-99469669D01*
X110798705Y-99577150D01*
X110906185Y-99469669D01*
X111044778Y-99469669D01*
X111152259Y-99577150D01*
X111259739Y-99469669D01*
X111398331Y-99469669D01*
X111505812Y-99577150D01*
X111613292Y-99469669D01*
X111751885Y-99469669D01*
X111859365Y-99577150D01*
X111966846Y-99469669D01*
X112105438Y-99469669D01*
X112212919Y-99577150D01*
X112320399Y-99469669D01*
X112458991Y-99469669D01*
X112566472Y-99577150D01*
X112673952Y-99469669D01*
X112812545Y-99469669D01*
X112920025Y-99577150D01*
X113027506Y-99469669D01*
X113166098Y-99469669D01*
X113273579Y-99577150D01*
X113381059Y-99469669D01*
X113519652Y-99469669D01*
X113627132Y-99577150D01*
X113734613Y-99469669D01*
X113873205Y-99469669D01*
X113980686Y-99577150D01*
X114088166Y-99469669D01*
X114226758Y-99469669D01*
X114334239Y-99577150D01*
X114441719Y-99469669D01*
X114580312Y-99469669D01*
X114687792Y-99577150D01*
X114795273Y-99469669D01*
X114933865Y-99469669D01*
X115041346Y-99577150D01*
X115148826Y-99469669D01*
X115287419Y-99469669D01*
X115394899Y-99577150D01*
X115502380Y-99469669D01*
X115640972Y-99469669D01*
X115748453Y-99577150D01*
X115855933Y-99469669D01*
X115994525Y-99469669D01*
X116102006Y-99577150D01*
X116209486Y-99469669D01*
X116348079Y-99469669D01*
X116455559Y-99577150D01*
X116563040Y-99469669D01*
X116701632Y-99469669D01*
X116809113Y-99577150D01*
X116916593Y-99469669D01*
X117055186Y-99469669D01*
X117162666Y-99577150D01*
X117270147Y-99469669D01*
X117408739Y-99469669D01*
X117516220Y-99577150D01*
X117623700Y-99469669D01*
X117762292Y-99469669D01*
X117869773Y-99577150D01*
X117977253Y-99469669D01*
X118115846Y-99469669D01*
X118223326Y-99577150D01*
X118330807Y-99469669D01*
X118469399Y-99469669D01*
X118576880Y-99577150D01*
X118684360Y-99469669D01*
X118822952Y-99469669D01*
X118826000Y-99472717D01*
X118826000Y-99466622D01*
X118822952Y-99469669D01*
X118684360Y-99469669D01*
X118576880Y-99362189D01*
X118469399Y-99469669D01*
X118330807Y-99469669D01*
X118223326Y-99362189D01*
X118115846Y-99469669D01*
X117977253Y-99469669D01*
X117869773Y-99362189D01*
X117762292Y-99469669D01*
X117623700Y-99469669D01*
X117516220Y-99362189D01*
X117408739Y-99469669D01*
X117270147Y-99469669D01*
X117162666Y-99362189D01*
X117055186Y-99469669D01*
X116916593Y-99469669D01*
X116809113Y-99362189D01*
X116701632Y-99469669D01*
X116563040Y-99469669D01*
X116455559Y-99362189D01*
X116348079Y-99469669D01*
X116209486Y-99469669D01*
X116102006Y-99362189D01*
X115994525Y-99469669D01*
X115855933Y-99469669D01*
X115748453Y-99362189D01*
X115640972Y-99469669D01*
X115502380Y-99469669D01*
X115394899Y-99362189D01*
X115287419Y-99469669D01*
X115148826Y-99469669D01*
X115041346Y-99362189D01*
X114933865Y-99469669D01*
X114795273Y-99469669D01*
X114687792Y-99362189D01*
X114580312Y-99469669D01*
X114441719Y-99469669D01*
X114334239Y-99362189D01*
X114226758Y-99469669D01*
X114088166Y-99469669D01*
X113980686Y-99362189D01*
X113873205Y-99469669D01*
X113734613Y-99469669D01*
X113627132Y-99362189D01*
X113519652Y-99469669D01*
X113381059Y-99469669D01*
X113273579Y-99362189D01*
X113166098Y-99469669D01*
X113027506Y-99469669D01*
X112920025Y-99362189D01*
X112812545Y-99469669D01*
X112673952Y-99469669D01*
X112566472Y-99362189D01*
X112458991Y-99469669D01*
X112320399Y-99469669D01*
X112212919Y-99362189D01*
X112105438Y-99469669D01*
X111966846Y-99469669D01*
X111859365Y-99362189D01*
X111751885Y-99469669D01*
X111613292Y-99469669D01*
X111505812Y-99362189D01*
X111398331Y-99469669D01*
X111259739Y-99469669D01*
X111152259Y-99362189D01*
X111044778Y-99469669D01*
X110906185Y-99469669D01*
X110798705Y-99362189D01*
X110691224Y-99469669D01*
X110552632Y-99469669D01*
X110445152Y-99362189D01*
X110337671Y-99469669D01*
X110199079Y-99469669D01*
X110091598Y-99362189D01*
X109988000Y-99465788D01*
X109850000Y-99465788D01*
X109850000Y-99327195D01*
X109988000Y-99327195D01*
X110022302Y-99292893D01*
X110160895Y-99292893D01*
X110268375Y-99400373D01*
X110375855Y-99292893D01*
X110514448Y-99292893D01*
X110621928Y-99400373D01*
X110729409Y-99292893D01*
X110868002Y-99292893D01*
X110975482Y-99400373D01*
X111082962Y-99292893D01*
X111221555Y-99292893D01*
X111329035Y-99400373D01*
X111436516Y-99292893D01*
X111575109Y-99292893D01*
X111682589Y-99400373D01*
X111790069Y-99292893D01*
X111928662Y-99292893D01*
X112036142Y-99400373D01*
X112143622Y-99292893D01*
X112282215Y-99292893D01*
X112389695Y-99400373D01*
X112497176Y-99292893D01*
X112635769Y-99292893D01*
X112743249Y-99400373D01*
X112850729Y-99292893D01*
X112989322Y-99292893D01*
X113096802Y-99400373D01*
X113204283Y-99292893D01*
X113342876Y-99292893D01*
X113450356Y-99400373D01*
X113557836Y-99292893D01*
X113696429Y-99292893D01*
X113803909Y-99400373D01*
X113911389Y-99292893D01*
X114049982Y-99292893D01*
X114157462Y-99400373D01*
X114264943Y-99292893D01*
X114403536Y-99292893D01*
X114511016Y-99400373D01*
X114618496Y-99292893D01*
X114757089Y-99292893D01*
X114864569Y-99400373D01*
X114972049Y-99292893D01*
X115110643Y-99292893D01*
X115218123Y-99400373D01*
X115325603Y-99292893D01*
X115464196Y-99292893D01*
X115571676Y-99400373D01*
X115679156Y-99292893D01*
X115817749Y-99292893D01*
X115925229Y-99400373D01*
X116032710Y-99292893D01*
X116171303Y-99292893D01*
X116278783Y-99400373D01*
X116386263Y-99292893D01*
X116524856Y-99292893D01*
X116632336Y-99400373D01*
X116739816Y-99292893D01*
X116878409Y-99292893D01*
X116985889Y-99400373D01*
X117093370Y-99292893D01*
X117231963Y-99292893D01*
X117339443Y-99400373D01*
X117446923Y-99292893D01*
X117585516Y-99292893D01*
X117692996Y-99400373D01*
X117800477Y-99292893D01*
X117939070Y-99292893D01*
X118046550Y-99400373D01*
X118154030Y-99292893D01*
X118292623Y-99292893D01*
X118400103Y-99400373D01*
X118507583Y-99292893D01*
X118646176Y-99292893D01*
X118753656Y-99400373D01*
X118826000Y-99328030D01*
X118826000Y-99257756D01*
X118753656Y-99185412D01*
X118646176Y-99292893D01*
X118507583Y-99292893D01*
X118400103Y-99185412D01*
X118292623Y-99292893D01*
X118154030Y-99292893D01*
X118046550Y-99185413D01*
X117939070Y-99292893D01*
X117800477Y-99292893D01*
X117692996Y-99185412D01*
X117585516Y-99292893D01*
X117446923Y-99292893D01*
X117339443Y-99185412D01*
X117231963Y-99292893D01*
X117093370Y-99292893D01*
X116985889Y-99185412D01*
X116878409Y-99292893D01*
X116739816Y-99292893D01*
X116632336Y-99185412D01*
X116524856Y-99292893D01*
X116386263Y-99292893D01*
X116278783Y-99185413D01*
X116171303Y-99292893D01*
X116032710Y-99292893D01*
X115925229Y-99185412D01*
X115817749Y-99292893D01*
X115679156Y-99292893D01*
X115571676Y-99185412D01*
X115464196Y-99292893D01*
X115325603Y-99292893D01*
X115218123Y-99185413D01*
X115110643Y-99292893D01*
X114972049Y-99292893D01*
X114864569Y-99185412D01*
X114757089Y-99292893D01*
X114618496Y-99292893D01*
X114511016Y-99185413D01*
X114403536Y-99292893D01*
X114264943Y-99292893D01*
X114157462Y-99185412D01*
X114049982Y-99292893D01*
X113911389Y-99292893D01*
X113803909Y-99185412D01*
X113696429Y-99292893D01*
X113557836Y-99292893D01*
X113450356Y-99185413D01*
X113342876Y-99292893D01*
X113204283Y-99292893D01*
X113096802Y-99185412D01*
X112989322Y-99292893D01*
X112850729Y-99292893D01*
X112743249Y-99185413D01*
X112635769Y-99292893D01*
X112497176Y-99292893D01*
X112389695Y-99185412D01*
X112282215Y-99292893D01*
X112143622Y-99292893D01*
X112036142Y-99185412D01*
X111928662Y-99292893D01*
X111790069Y-99292893D01*
X111682589Y-99185413D01*
X111575109Y-99292893D01*
X111436516Y-99292893D01*
X111329035Y-99185412D01*
X111221555Y-99292893D01*
X111082962Y-99292893D01*
X110975482Y-99185412D01*
X110868002Y-99292893D01*
X110729409Y-99292893D01*
X110621928Y-99185412D01*
X110514448Y-99292893D01*
X110375855Y-99292893D01*
X110268375Y-99185412D01*
X110160895Y-99292893D01*
X110022302Y-99292893D01*
X109988000Y-99258591D01*
X109988000Y-99327195D01*
X109850000Y-99327195D01*
X109850000Y-99112234D01*
X109988000Y-99112234D01*
X109988000Y-99119998D01*
X110091598Y-99223596D01*
X110199079Y-99116116D01*
X110337671Y-99116116D01*
X110445152Y-99223596D01*
X110552632Y-99116116D01*
X110691224Y-99116116D01*
X110798705Y-99223596D01*
X110906185Y-99116116D01*
X111044778Y-99116116D01*
X111152259Y-99223596D01*
X111259739Y-99116116D01*
X111398331Y-99116116D01*
X111505812Y-99223596D01*
X111613292Y-99116116D01*
X111751885Y-99116116D01*
X111859365Y-99223596D01*
X111966846Y-99116116D01*
X112105438Y-99116116D01*
X112212919Y-99223596D01*
X112320399Y-99116116D01*
X112458991Y-99116116D01*
X112566472Y-99223596D01*
X112673952Y-99116116D01*
X112812545Y-99116116D01*
X112920025Y-99223596D01*
X113027506Y-99116116D01*
X113166098Y-99116116D01*
X113273579Y-99223596D01*
X113381059Y-99116116D01*
X113519652Y-99116116D01*
X113627132Y-99223596D01*
X113734613Y-99116116D01*
X113873205Y-99116116D01*
X113980686Y-99223596D01*
X114088166Y-99116116D01*
X114226758Y-99116116D01*
X114334239Y-99223596D01*
X114441719Y-99116116D01*
X114580312Y-99116116D01*
X114687792Y-99223596D01*
X114795273Y-99116116D01*
X114933865Y-99116116D01*
X115041346Y-99223596D01*
X115148826Y-99116116D01*
X115287419Y-99116116D01*
X115394899Y-99223596D01*
X115502380Y-99116116D01*
X115640972Y-99116116D01*
X115748453Y-99223596D01*
X115855933Y-99116116D01*
X115994525Y-99116116D01*
X116102006Y-99223596D01*
X116209486Y-99116116D01*
X116348079Y-99116116D01*
X116455559Y-99223596D01*
X116563040Y-99116116D01*
X116701632Y-99116116D01*
X116809113Y-99223596D01*
X116916593Y-99116116D01*
X117055186Y-99116116D01*
X117162666Y-99223596D01*
X117270147Y-99116116D01*
X117408739Y-99116116D01*
X117516220Y-99223596D01*
X117623700Y-99116116D01*
X117762292Y-99116116D01*
X117869773Y-99223596D01*
X117977253Y-99116116D01*
X118115846Y-99116116D01*
X118223326Y-99223596D01*
X118330807Y-99116116D01*
X118469399Y-99116116D01*
X118576880Y-99223596D01*
X118684360Y-99116116D01*
X118822953Y-99116116D01*
X118826000Y-99119163D01*
X118826000Y-99113069D01*
X118822953Y-99116116D01*
X118684360Y-99116116D01*
X118576880Y-99008636D01*
X118469399Y-99116116D01*
X118330807Y-99116116D01*
X118223326Y-99008635D01*
X118115846Y-99116116D01*
X117977253Y-99116116D01*
X117869773Y-99008635D01*
X117762292Y-99116116D01*
X117623700Y-99116116D01*
X117516220Y-99008636D01*
X117408739Y-99116116D01*
X117270147Y-99116116D01*
X117162666Y-99008635D01*
X117055186Y-99116116D01*
X116916593Y-99116116D01*
X116809113Y-99008636D01*
X116701632Y-99116116D01*
X116563040Y-99116116D01*
X116455559Y-99008635D01*
X116348079Y-99116116D01*
X116209486Y-99116116D01*
X116102006Y-99008635D01*
X115994525Y-99116116D01*
X115855933Y-99116116D01*
X115748453Y-99008636D01*
X115640972Y-99116116D01*
X115502380Y-99116116D01*
X115394899Y-99008635D01*
X115287419Y-99116116D01*
X115148826Y-99116116D01*
X115041346Y-99008635D01*
X114933865Y-99116116D01*
X114795273Y-99116116D01*
X114687792Y-99008635D01*
X114580312Y-99116116D01*
X114441719Y-99116116D01*
X114334239Y-99008635D01*
X114226758Y-99116116D01*
X114088166Y-99116116D01*
X113980686Y-99008636D01*
X113873205Y-99116116D01*
X113734613Y-99116116D01*
X113627132Y-99008635D01*
X113519652Y-99116116D01*
X113381059Y-99116116D01*
X113273579Y-99008635D01*
X113166098Y-99116116D01*
X113027506Y-99116116D01*
X112920025Y-99008635D01*
X112812545Y-99116116D01*
X112673952Y-99116116D01*
X112566472Y-99008635D01*
X112458991Y-99116116D01*
X112320399Y-99116116D01*
X112212919Y-99008636D01*
X112105438Y-99116116D01*
X111966846Y-99116116D01*
X111859365Y-99008635D01*
X111751885Y-99116116D01*
X111613292Y-99116116D01*
X111505812Y-99008635D01*
X111398331Y-99116116D01*
X111259739Y-99116116D01*
X111152259Y-99008636D01*
X111044778Y-99116116D01*
X110906185Y-99116116D01*
X110798705Y-99008635D01*
X110691224Y-99116116D01*
X110552632Y-99116116D01*
X110445152Y-99008636D01*
X110337671Y-99116116D01*
X110199079Y-99116116D01*
X110091598Y-99008635D01*
X109988000Y-99112234D01*
X109850000Y-99112234D01*
X109850000Y-98973642D01*
X109988000Y-98973642D01*
X110022302Y-98939339D01*
X110160894Y-98939339D01*
X110268375Y-99046820D01*
X110375855Y-98939339D01*
X110514448Y-98939339D01*
X110621928Y-99046820D01*
X110729409Y-98939339D01*
X110868001Y-98939339D01*
X110975482Y-99046820D01*
X111082962Y-98939339D01*
X111221555Y-98939339D01*
X111329035Y-99046820D01*
X111436516Y-98939339D01*
X111575108Y-98939339D01*
X111682589Y-99046820D01*
X111790069Y-98939339D01*
X111928661Y-98939339D01*
X112036142Y-99046820D01*
X112143622Y-98939339D01*
X112282215Y-98939339D01*
X112389695Y-99046820D01*
X112497176Y-98939339D01*
X112635768Y-98939339D01*
X112743249Y-99046820D01*
X112850729Y-98939339D01*
X112989322Y-98939339D01*
X113096802Y-99046820D01*
X113204283Y-98939339D01*
X113342875Y-98939339D01*
X113450356Y-99046820D01*
X113557836Y-98939339D01*
X113696428Y-98939339D01*
X113803909Y-99046820D01*
X113911389Y-98939339D01*
X114049982Y-98939339D01*
X114157462Y-99046820D01*
X114264943Y-98939339D01*
X114403535Y-98939339D01*
X114511016Y-99046820D01*
X114618496Y-98939339D01*
X114757088Y-98939339D01*
X114864569Y-99046820D01*
X114972049Y-98939339D01*
X115110642Y-98939339D01*
X115218123Y-99046820D01*
X115325603Y-98939339D01*
X115464195Y-98939339D01*
X115571676Y-99046820D01*
X115679156Y-98939339D01*
X115817749Y-98939339D01*
X115925229Y-99046820D01*
X116032710Y-98939339D01*
X116171302Y-98939339D01*
X116278783Y-99046820D01*
X116386263Y-98939339D01*
X116524855Y-98939339D01*
X116632336Y-99046820D01*
X116739816Y-98939339D01*
X116878409Y-98939339D01*
X116985889Y-99046820D01*
X117093370Y-98939339D01*
X117231962Y-98939339D01*
X117339443Y-99046820D01*
X117446923Y-98939339D01*
X117585516Y-98939339D01*
X117692996Y-99046820D01*
X117800477Y-98939339D01*
X117939069Y-98939339D01*
X118046550Y-99046820D01*
X118154030Y-98939339D01*
X118292622Y-98939339D01*
X118400103Y-99046820D01*
X118507583Y-98939339D01*
X118646176Y-98939339D01*
X118753656Y-99046820D01*
X118826000Y-98974477D01*
X118826000Y-98904202D01*
X118753657Y-98831859D01*
X118646176Y-98939339D01*
X118507583Y-98939339D01*
X118400103Y-98831859D01*
X118292622Y-98939339D01*
X118154030Y-98939339D01*
X118046550Y-98831859D01*
X117939069Y-98939339D01*
X117800477Y-98939339D01*
X117692996Y-98831859D01*
X117585516Y-98939339D01*
X117446923Y-98939339D01*
X117339443Y-98831859D01*
X117231962Y-98939339D01*
X117093370Y-98939339D01*
X116985889Y-98831859D01*
X116878409Y-98939339D01*
X116739816Y-98939339D01*
X116632336Y-98831859D01*
X116524855Y-98939339D01*
X116386263Y-98939339D01*
X116278783Y-98831859D01*
X116171302Y-98939339D01*
X116032710Y-98939339D01*
X115925229Y-98831859D01*
X115817749Y-98939339D01*
X115679156Y-98939339D01*
X115571676Y-98831859D01*
X115464195Y-98939339D01*
X115325603Y-98939339D01*
X115218123Y-98831859D01*
X115110642Y-98939339D01*
X114972049Y-98939339D01*
X114864569Y-98831859D01*
X114757088Y-98939339D01*
X114618496Y-98939339D01*
X114511016Y-98831859D01*
X114403535Y-98939339D01*
X114264943Y-98939339D01*
X114157462Y-98831859D01*
X114049982Y-98939339D01*
X113911389Y-98939339D01*
X113803909Y-98831859D01*
X113696428Y-98939339D01*
X113557836Y-98939339D01*
X113450356Y-98831859D01*
X113342875Y-98939339D01*
X113204283Y-98939339D01*
X113096802Y-98831859D01*
X112989322Y-98939339D01*
X112850729Y-98939339D01*
X112743249Y-98831859D01*
X112635768Y-98939339D01*
X112497176Y-98939339D01*
X112389695Y-98831859D01*
X112282215Y-98939339D01*
X112143622Y-98939339D01*
X112036142Y-98831859D01*
X111928661Y-98939339D01*
X111790069Y-98939339D01*
X111682589Y-98831859D01*
X111575108Y-98939339D01*
X111436516Y-98939339D01*
X111329035Y-98831859D01*
X111221555Y-98939339D01*
X111082962Y-98939339D01*
X110975482Y-98831859D01*
X110868001Y-98939339D01*
X110729409Y-98939339D01*
X110621928Y-98831859D01*
X110514448Y-98939339D01*
X110375855Y-98939339D01*
X110268375Y-98831859D01*
X110160894Y-98939339D01*
X110022302Y-98939339D01*
X109988000Y-98905037D01*
X109988000Y-98973642D01*
X109850000Y-98973642D01*
X109850000Y-98758681D01*
X109988000Y-98758681D01*
X109988000Y-98766444D01*
X110091599Y-98870043D01*
X110199079Y-98762563D01*
X110337672Y-98762563D01*
X110445152Y-98870043D01*
X110552632Y-98762563D01*
X110691225Y-98762563D01*
X110798705Y-98870043D01*
X110906185Y-98762563D01*
X111044779Y-98762563D01*
X111152259Y-98870043D01*
X111259739Y-98762563D01*
X111398332Y-98762563D01*
X111505812Y-98870043D01*
X111613292Y-98762563D01*
X111751885Y-98762563D01*
X111859365Y-98870043D01*
X111966846Y-98762563D01*
X112105439Y-98762563D01*
X112212919Y-98870043D01*
X112320399Y-98762563D01*
X112458992Y-98762563D01*
X112566472Y-98870043D01*
X112673952Y-98762563D01*
X112812545Y-98762563D01*
X112920025Y-98870043D01*
X113027506Y-98762563D01*
X113166099Y-98762563D01*
X113273579Y-98870043D01*
X113381059Y-98762563D01*
X113519652Y-98762563D01*
X113627132Y-98870043D01*
X113734613Y-98762563D01*
X113873206Y-98762563D01*
X113980686Y-98870043D01*
X114088166Y-98762563D01*
X114226759Y-98762563D01*
X114334239Y-98870043D01*
X114441719Y-98762563D01*
X114580312Y-98762563D01*
X114687792Y-98870043D01*
X114795273Y-98762563D01*
X114933866Y-98762563D01*
X115041346Y-98870043D01*
X115148826Y-98762563D01*
X115287419Y-98762563D01*
X115394899Y-98870043D01*
X115502380Y-98762563D01*
X115640973Y-98762563D01*
X115748453Y-98870043D01*
X115855933Y-98762563D01*
X115994526Y-98762563D01*
X116102006Y-98870043D01*
X116209486Y-98762563D01*
X116348079Y-98762563D01*
X116455559Y-98870043D01*
X116563040Y-98762563D01*
X116701633Y-98762563D01*
X116809113Y-98870043D01*
X116916593Y-98762563D01*
X117055186Y-98762563D01*
X117162666Y-98870043D01*
X117270147Y-98762563D01*
X117408740Y-98762563D01*
X117516220Y-98870043D01*
X117623700Y-98762563D01*
X117762293Y-98762563D01*
X117869773Y-98870043D01*
X117977253Y-98762563D01*
X118115846Y-98762563D01*
X118223326Y-98870043D01*
X118330807Y-98762563D01*
X118469400Y-98762563D01*
X118576880Y-98870043D01*
X118684360Y-98762563D01*
X118822953Y-98762563D01*
X118826000Y-98765610D01*
X118826000Y-98759516D01*
X118822953Y-98762563D01*
X118684360Y-98762563D01*
X118576880Y-98655083D01*
X118469400Y-98762563D01*
X118330807Y-98762563D01*
X118223326Y-98655082D01*
X118115846Y-98762563D01*
X117977253Y-98762563D01*
X117869773Y-98655082D01*
X117762293Y-98762563D01*
X117623700Y-98762563D01*
X117516220Y-98655083D01*
X117408740Y-98762563D01*
X117270147Y-98762563D01*
X117162666Y-98655082D01*
X117055186Y-98762563D01*
X116916593Y-98762563D01*
X116809113Y-98655083D01*
X116701633Y-98762563D01*
X116563040Y-98762563D01*
X116455559Y-98655082D01*
X116348079Y-98762563D01*
X116209486Y-98762563D01*
X116102006Y-98655082D01*
X115994526Y-98762563D01*
X115855933Y-98762563D01*
X115748453Y-98655083D01*
X115640973Y-98762563D01*
X115502380Y-98762563D01*
X115394899Y-98655082D01*
X115287419Y-98762563D01*
X115148826Y-98762563D01*
X115041346Y-98655082D01*
X114933866Y-98762563D01*
X114795273Y-98762563D01*
X114687792Y-98655082D01*
X114580312Y-98762563D01*
X114441719Y-98762563D01*
X114334239Y-98655082D01*
X114226759Y-98762563D01*
X114088166Y-98762563D01*
X113980686Y-98655083D01*
X113873206Y-98762563D01*
X113734613Y-98762563D01*
X113627132Y-98655082D01*
X113519652Y-98762563D01*
X113381059Y-98762563D01*
X113273579Y-98655082D01*
X113166099Y-98762563D01*
X113027506Y-98762563D01*
X112920025Y-98655082D01*
X112812545Y-98762563D01*
X112673952Y-98762563D01*
X112566472Y-98655082D01*
X112458992Y-98762563D01*
X112320399Y-98762563D01*
X112212919Y-98655083D01*
X112105439Y-98762563D01*
X111966846Y-98762563D01*
X111859365Y-98655082D01*
X111751885Y-98762563D01*
X111613292Y-98762563D01*
X111505812Y-98655082D01*
X111398332Y-98762563D01*
X111259739Y-98762563D01*
X111152259Y-98655083D01*
X111044779Y-98762563D01*
X110906185Y-98762563D01*
X110798705Y-98655082D01*
X110691225Y-98762563D01*
X110552632Y-98762563D01*
X110445152Y-98655083D01*
X110337672Y-98762563D01*
X110199079Y-98762563D01*
X110091598Y-98655082D01*
X109988000Y-98758681D01*
X109850000Y-98758681D01*
X109850000Y-98620088D01*
X109988000Y-98620088D01*
X110022302Y-98585786D01*
X110160894Y-98585786D01*
X110268375Y-98693266D01*
X110375855Y-98585786D01*
X110514448Y-98585786D01*
X110621928Y-98693266D01*
X110729409Y-98585786D01*
X110868001Y-98585786D01*
X110975482Y-98693266D01*
X111082962Y-98585786D01*
X111221555Y-98585786D01*
X111329035Y-98693266D01*
X111436516Y-98585786D01*
X111575108Y-98585786D01*
X111682589Y-98693266D01*
X111790069Y-98585786D01*
X111928661Y-98585786D01*
X112036142Y-98693266D01*
X112143622Y-98585786D01*
X112282215Y-98585786D01*
X112389695Y-98693266D01*
X112497176Y-98585786D01*
X112635768Y-98585786D01*
X112743249Y-98693266D01*
X112850729Y-98585786D01*
X112989322Y-98585786D01*
X113096802Y-98693266D01*
X113204283Y-98585786D01*
X113342875Y-98585786D01*
X113450356Y-98693266D01*
X113557836Y-98585786D01*
X113696428Y-98585786D01*
X113803909Y-98693266D01*
X113911389Y-98585786D01*
X114049982Y-98585786D01*
X114157462Y-98693266D01*
X114264943Y-98585786D01*
X114403535Y-98585786D01*
X114511016Y-98693266D01*
X114618496Y-98585786D01*
X114757088Y-98585786D01*
X114864569Y-98693266D01*
X114972049Y-98585786D01*
X115110642Y-98585786D01*
X115218123Y-98693266D01*
X115325603Y-98585786D01*
X115464195Y-98585786D01*
X115571676Y-98693266D01*
X115679156Y-98585786D01*
X115817749Y-98585786D01*
X115925229Y-98693266D01*
X116032710Y-98585786D01*
X116171302Y-98585786D01*
X116278783Y-98693266D01*
X116386263Y-98585786D01*
X116524855Y-98585786D01*
X116632336Y-98693266D01*
X116739816Y-98585786D01*
X116878409Y-98585786D01*
X116985889Y-98693266D01*
X117093370Y-98585786D01*
X117231962Y-98585786D01*
X117339443Y-98693266D01*
X117446923Y-98585786D01*
X117585516Y-98585786D01*
X117692996Y-98693266D01*
X117800477Y-98585786D01*
X117939069Y-98585786D01*
X118046550Y-98693266D01*
X118154030Y-98585786D01*
X118292622Y-98585786D01*
X118400103Y-98693266D01*
X118507583Y-98585786D01*
X118646176Y-98585786D01*
X118753656Y-98693266D01*
X118826000Y-98620923D01*
X118826000Y-98550649D01*
X118753656Y-98478305D01*
X118646176Y-98585786D01*
X118507583Y-98585786D01*
X118400103Y-98478305D01*
X118292622Y-98585786D01*
X118154030Y-98585786D01*
X118046550Y-98478306D01*
X117939069Y-98585786D01*
X117800477Y-98585786D01*
X117692996Y-98478305D01*
X117585516Y-98585786D01*
X117446923Y-98585786D01*
X117339443Y-98478305D01*
X117231962Y-98585786D01*
X117093370Y-98585786D01*
X116985889Y-98478305D01*
X116878409Y-98585786D01*
X116739816Y-98585786D01*
X116632336Y-98478305D01*
X116524855Y-98585786D01*
X116386263Y-98585786D01*
X116278783Y-98478306D01*
X116171302Y-98585786D01*
X116032710Y-98585786D01*
X115925229Y-98478305D01*
X115817749Y-98585786D01*
X115679156Y-98585786D01*
X115571676Y-98478305D01*
X115464195Y-98585786D01*
X115325603Y-98585786D01*
X115218123Y-98478306D01*
X115110642Y-98585786D01*
X114972049Y-98585786D01*
X114864569Y-98478305D01*
X114757088Y-98585786D01*
X114618496Y-98585786D01*
X114511016Y-98478306D01*
X114403535Y-98585786D01*
X114264943Y-98585786D01*
X114157462Y-98478305D01*
X114049982Y-98585786D01*
X113911389Y-98585786D01*
X113803909Y-98478305D01*
X113696428Y-98585786D01*
X113557836Y-98585786D01*
X113450356Y-98478306D01*
X113342875Y-98585786D01*
X113204283Y-98585786D01*
X113096802Y-98478305D01*
X112989322Y-98585786D01*
X112850729Y-98585786D01*
X112743249Y-98478306D01*
X112635768Y-98585786D01*
X112497176Y-98585786D01*
X112389695Y-98478305D01*
X112282215Y-98585786D01*
X112143622Y-98585786D01*
X112036142Y-98478305D01*
X111928661Y-98585786D01*
X111790069Y-98585786D01*
X111682589Y-98478306D01*
X111575108Y-98585786D01*
X111436516Y-98585786D01*
X111329035Y-98478305D01*
X111221555Y-98585786D01*
X111082962Y-98585786D01*
X110975482Y-98478305D01*
X110868001Y-98585786D01*
X110729409Y-98585786D01*
X110621928Y-98478305D01*
X110514448Y-98585786D01*
X110375855Y-98585786D01*
X110268375Y-98478305D01*
X110160894Y-98585786D01*
X110022302Y-98585786D01*
X109988000Y-98551484D01*
X109988000Y-98620088D01*
X109850000Y-98620088D01*
X109850000Y-98405128D01*
X109988000Y-98405128D01*
X109988000Y-98412891D01*
X110091599Y-98516490D01*
X110199079Y-98409009D01*
X110337671Y-98409009D01*
X110445152Y-98516490D01*
X110552632Y-98409009D01*
X110691224Y-98409009D01*
X110798705Y-98516490D01*
X110906185Y-98409009D01*
X111044778Y-98409009D01*
X111152259Y-98516490D01*
X111259739Y-98409009D01*
X111398331Y-98409009D01*
X111505812Y-98516490D01*
X111613292Y-98409009D01*
X111751885Y-98409009D01*
X111859365Y-98516490D01*
X111966846Y-98409009D01*
X112105438Y-98409009D01*
X112212919Y-98516490D01*
X112320399Y-98409009D01*
X112458991Y-98409009D01*
X112566472Y-98516490D01*
X112673952Y-98409009D01*
X112812545Y-98409009D01*
X112920025Y-98516490D01*
X113027506Y-98409009D01*
X113166098Y-98409009D01*
X113273579Y-98516490D01*
X113381059Y-98409009D01*
X113519652Y-98409009D01*
X113627132Y-98516490D01*
X113734613Y-98409009D01*
X113873205Y-98409009D01*
X113980686Y-98516490D01*
X114088166Y-98409009D01*
X114226758Y-98409009D01*
X114334239Y-98516490D01*
X114441719Y-98409009D01*
X114580312Y-98409009D01*
X114687792Y-98516490D01*
X114795273Y-98409009D01*
X114933865Y-98409009D01*
X115041346Y-98516490D01*
X115148826Y-98409009D01*
X115287419Y-98409009D01*
X115394899Y-98516490D01*
X115502380Y-98409009D01*
X115640972Y-98409009D01*
X115748453Y-98516490D01*
X115855933Y-98409009D01*
X115994525Y-98409009D01*
X116102006Y-98516490D01*
X116209486Y-98409009D01*
X116348079Y-98409009D01*
X116455559Y-98516490D01*
X116563040Y-98409009D01*
X116701632Y-98409009D01*
X116809113Y-98516490D01*
X116916593Y-98409009D01*
X117055186Y-98409009D01*
X117162666Y-98516490D01*
X117270147Y-98409009D01*
X117408739Y-98409009D01*
X117516220Y-98516490D01*
X117623700Y-98409009D01*
X117762292Y-98409009D01*
X117869773Y-98516490D01*
X117977253Y-98409009D01*
X118115846Y-98409009D01*
X118223326Y-98516490D01*
X118330807Y-98409009D01*
X118469399Y-98409009D01*
X118576880Y-98516490D01*
X118684360Y-98409009D01*
X118822952Y-98409009D01*
X118826000Y-98412057D01*
X118826000Y-98405962D01*
X118822952Y-98409009D01*
X118684360Y-98409009D01*
X118576880Y-98301529D01*
X118469399Y-98409009D01*
X118330807Y-98409009D01*
X118223326Y-98301529D01*
X118115846Y-98409009D01*
X117977253Y-98409009D01*
X117869773Y-98301529D01*
X117762292Y-98409009D01*
X117623700Y-98409009D01*
X117516220Y-98301529D01*
X117408739Y-98409009D01*
X117270147Y-98409009D01*
X117162666Y-98301529D01*
X117055186Y-98409009D01*
X116916593Y-98409009D01*
X116809113Y-98301529D01*
X116701632Y-98409009D01*
X116563040Y-98409009D01*
X116455559Y-98301529D01*
X116348079Y-98409009D01*
X116209486Y-98409009D01*
X116102006Y-98301529D01*
X115994525Y-98409009D01*
X115855933Y-98409009D01*
X115748453Y-98301529D01*
X115640972Y-98409009D01*
X115502380Y-98409009D01*
X115394899Y-98301529D01*
X115287419Y-98409009D01*
X115148826Y-98409009D01*
X115041346Y-98301529D01*
X114933865Y-98409009D01*
X114795273Y-98409009D01*
X114687792Y-98301529D01*
X114580312Y-98409009D01*
X114441719Y-98409009D01*
X114334239Y-98301529D01*
X114226758Y-98409009D01*
X114088166Y-98409009D01*
X113980686Y-98301529D01*
X113873205Y-98409009D01*
X113734613Y-98409009D01*
X113627132Y-98301529D01*
X113519652Y-98409009D01*
X113381059Y-98409009D01*
X113273579Y-98301529D01*
X113166098Y-98409009D01*
X113027506Y-98409009D01*
X112920025Y-98301529D01*
X112812545Y-98409009D01*
X112673952Y-98409009D01*
X112566472Y-98301529D01*
X112458991Y-98409009D01*
X112320399Y-98409009D01*
X112212919Y-98301529D01*
X112105438Y-98409009D01*
X111966846Y-98409009D01*
X111859365Y-98301529D01*
X111751885Y-98409009D01*
X111613292Y-98409009D01*
X111505812Y-98301529D01*
X111398331Y-98409009D01*
X111259739Y-98409009D01*
X111152259Y-98301529D01*
X111044778Y-98409009D01*
X110906185Y-98409009D01*
X110798705Y-98301529D01*
X110691224Y-98409009D01*
X110552632Y-98409009D01*
X110445152Y-98301529D01*
X110337671Y-98409009D01*
X110199079Y-98409009D01*
X110091598Y-98301529D01*
X109988000Y-98405128D01*
X109850000Y-98405128D01*
X109850000Y-98266535D01*
X109988000Y-98266535D01*
X110022302Y-98232233D01*
X110160895Y-98232233D01*
X110268375Y-98339713D01*
X110375855Y-98232233D01*
X110514448Y-98232233D01*
X110621928Y-98339713D01*
X110729409Y-98232233D01*
X110868002Y-98232233D01*
X110975482Y-98339713D01*
X111082962Y-98232233D01*
X111221555Y-98232233D01*
X111329035Y-98339713D01*
X111436516Y-98232233D01*
X111575109Y-98232233D01*
X111682589Y-98339713D01*
X111790069Y-98232233D01*
X111928662Y-98232233D01*
X112036142Y-98339713D01*
X112143622Y-98232233D01*
X112282215Y-98232233D01*
X112389695Y-98339713D01*
X112497176Y-98232233D01*
X112635769Y-98232233D01*
X112743249Y-98339713D01*
X112850729Y-98232233D01*
X112989322Y-98232233D01*
X113096802Y-98339713D01*
X113204283Y-98232233D01*
X113342876Y-98232233D01*
X113450356Y-98339713D01*
X113557836Y-98232233D01*
X113696429Y-98232233D01*
X113803909Y-98339713D01*
X113911389Y-98232233D01*
X114049982Y-98232233D01*
X114157462Y-98339713D01*
X114264943Y-98232233D01*
X114403536Y-98232233D01*
X114511016Y-98339713D01*
X114618496Y-98232233D01*
X114757089Y-98232233D01*
X114864569Y-98339713D01*
X114972049Y-98232233D01*
X115110643Y-98232233D01*
X115218123Y-98339713D01*
X115325603Y-98232233D01*
X115464196Y-98232233D01*
X115571676Y-98339713D01*
X115679156Y-98232233D01*
X115817749Y-98232233D01*
X115925229Y-98339713D01*
X116032710Y-98232233D01*
X116171303Y-98232233D01*
X116278783Y-98339713D01*
X116386263Y-98232233D01*
X116524856Y-98232233D01*
X116632336Y-98339713D01*
X116739816Y-98232233D01*
X116878409Y-98232233D01*
X116985889Y-98339713D01*
X117093370Y-98232233D01*
X117231963Y-98232233D01*
X117339443Y-98339713D01*
X117446923Y-98232233D01*
X117585516Y-98232233D01*
X117692996Y-98339713D01*
X117800477Y-98232233D01*
X117939070Y-98232233D01*
X118046550Y-98339713D01*
X118154030Y-98232233D01*
X118292623Y-98232233D01*
X118400103Y-98339713D01*
X118507583Y-98232233D01*
X118646176Y-98232233D01*
X118753656Y-98339713D01*
X118826000Y-98267370D01*
X118826000Y-98197096D01*
X118753656Y-98124752D01*
X118646176Y-98232233D01*
X118507583Y-98232233D01*
X118400103Y-98124752D01*
X118292623Y-98232233D01*
X118154030Y-98232233D01*
X118046550Y-98124753D01*
X117939070Y-98232233D01*
X117800477Y-98232233D01*
X117692996Y-98124752D01*
X117585516Y-98232233D01*
X117446923Y-98232233D01*
X117339443Y-98124752D01*
X117231963Y-98232233D01*
X117093370Y-98232233D01*
X116985889Y-98124752D01*
X116878409Y-98232233D01*
X116739816Y-98232233D01*
X116632336Y-98124752D01*
X116524856Y-98232233D01*
X116386263Y-98232233D01*
X116278783Y-98124753D01*
X116171303Y-98232233D01*
X116032710Y-98232233D01*
X115925229Y-98124752D01*
X115817749Y-98232233D01*
X115679156Y-98232233D01*
X115571676Y-98124752D01*
X115464196Y-98232233D01*
X115325603Y-98232233D01*
X115218123Y-98124753D01*
X115110643Y-98232233D01*
X114972049Y-98232233D01*
X114864569Y-98124752D01*
X114757089Y-98232233D01*
X114618496Y-98232233D01*
X114511016Y-98124753D01*
X114403536Y-98232233D01*
X114264943Y-98232233D01*
X114157462Y-98124752D01*
X114049982Y-98232233D01*
X113911389Y-98232233D01*
X113803909Y-98124752D01*
X113696429Y-98232233D01*
X113557836Y-98232233D01*
X113450356Y-98124753D01*
X113342876Y-98232233D01*
X113204283Y-98232233D01*
X113096802Y-98124752D01*
X112989322Y-98232233D01*
X112850729Y-98232233D01*
X112743249Y-98124753D01*
X112635769Y-98232233D01*
X112497176Y-98232233D01*
X112389695Y-98124752D01*
X112282215Y-98232233D01*
X112143622Y-98232233D01*
X112036142Y-98124752D01*
X111928662Y-98232233D01*
X111790069Y-98232233D01*
X111682589Y-98124753D01*
X111575109Y-98232233D01*
X111436516Y-98232233D01*
X111329035Y-98124752D01*
X111221555Y-98232233D01*
X111082962Y-98232233D01*
X110975482Y-98124752D01*
X110868002Y-98232233D01*
X110729409Y-98232233D01*
X110621928Y-98124752D01*
X110514448Y-98232233D01*
X110375855Y-98232233D01*
X110268375Y-98124752D01*
X110160895Y-98232233D01*
X110022302Y-98232233D01*
X109988000Y-98197931D01*
X109988000Y-98266535D01*
X109850000Y-98266535D01*
X109850000Y-98051574D01*
X109988000Y-98051574D01*
X109988000Y-98059338D01*
X110091598Y-98162936D01*
X110199079Y-98055456D01*
X110337671Y-98055456D01*
X110445152Y-98162936D01*
X110552632Y-98055456D01*
X110691224Y-98055456D01*
X110798705Y-98162936D01*
X110906185Y-98055456D01*
X111044778Y-98055456D01*
X111152259Y-98162936D01*
X111259739Y-98055456D01*
X111398331Y-98055456D01*
X111505812Y-98162936D01*
X111613292Y-98055456D01*
X111751885Y-98055456D01*
X111859365Y-98162936D01*
X111966846Y-98055456D01*
X112105438Y-98055456D01*
X112212919Y-98162936D01*
X112320399Y-98055456D01*
X112458991Y-98055456D01*
X112566472Y-98162936D01*
X112673952Y-98055456D01*
X112812545Y-98055456D01*
X112920025Y-98162936D01*
X113027506Y-98055456D01*
X113166098Y-98055456D01*
X113273579Y-98162936D01*
X113381059Y-98055456D01*
X113519652Y-98055456D01*
X113627132Y-98162936D01*
X113734613Y-98055456D01*
X113873205Y-98055456D01*
X113980686Y-98162936D01*
X114088166Y-98055456D01*
X114226758Y-98055456D01*
X114334239Y-98162936D01*
X114441719Y-98055456D01*
X114580312Y-98055456D01*
X114687792Y-98162936D01*
X114795273Y-98055456D01*
X114933865Y-98055456D01*
X115041346Y-98162936D01*
X115148826Y-98055456D01*
X115287419Y-98055456D01*
X115394899Y-98162936D01*
X115502380Y-98055456D01*
X115640972Y-98055456D01*
X115748453Y-98162936D01*
X115855933Y-98055456D01*
X115994525Y-98055456D01*
X116102006Y-98162936D01*
X116209486Y-98055456D01*
X116348079Y-98055456D01*
X116455559Y-98162936D01*
X116563040Y-98055456D01*
X116701632Y-98055456D01*
X116809113Y-98162936D01*
X116916593Y-98055456D01*
X117055186Y-98055456D01*
X117162666Y-98162936D01*
X117270147Y-98055456D01*
X117408739Y-98055456D01*
X117516220Y-98162936D01*
X117623700Y-98055456D01*
X117762292Y-98055456D01*
X117869773Y-98162936D01*
X117977253Y-98055456D01*
X118115846Y-98055456D01*
X118223326Y-98162936D01*
X118330807Y-98055456D01*
X118469399Y-98055456D01*
X118576880Y-98162936D01*
X118684360Y-98055456D01*
X118822953Y-98055456D01*
X118826000Y-98058503D01*
X118826000Y-98052409D01*
X118822953Y-98055456D01*
X118684360Y-98055456D01*
X118576880Y-97947976D01*
X118469399Y-98055456D01*
X118330807Y-98055456D01*
X118223326Y-97947975D01*
X118115846Y-98055456D01*
X117977253Y-98055456D01*
X117869773Y-97947975D01*
X117762292Y-98055456D01*
X117623700Y-98055456D01*
X117516220Y-97947976D01*
X117408739Y-98055456D01*
X117270147Y-98055456D01*
X117162666Y-97947975D01*
X117055186Y-98055456D01*
X116916593Y-98055456D01*
X116809113Y-97947976D01*
X116701632Y-98055456D01*
X116563040Y-98055456D01*
X116455559Y-97947975D01*
X116348079Y-98055456D01*
X116209486Y-98055456D01*
X116102006Y-97947975D01*
X115994525Y-98055456D01*
X115855933Y-98055456D01*
X115748453Y-97947976D01*
X115640972Y-98055456D01*
X115502380Y-98055456D01*
X115394899Y-97947975D01*
X115287419Y-98055456D01*
X115148826Y-98055456D01*
X115041346Y-97947975D01*
X114933865Y-98055456D01*
X114795273Y-98055456D01*
X114687792Y-97947975D01*
X114580312Y-98055456D01*
X114441719Y-98055456D01*
X114334239Y-97947975D01*
X114226758Y-98055456D01*
X114088166Y-98055456D01*
X113980686Y-97947976D01*
X113873205Y-98055456D01*
X113734613Y-98055456D01*
X113627132Y-97947975D01*
X113519652Y-98055456D01*
X113381059Y-98055456D01*
X113273579Y-97947975D01*
X113166098Y-98055456D01*
X113027506Y-98055456D01*
X112920025Y-97947975D01*
X112812545Y-98055456D01*
X112673952Y-98055456D01*
X112566472Y-97947975D01*
X112458991Y-98055456D01*
X112320399Y-98055456D01*
X112212919Y-97947976D01*
X112105438Y-98055456D01*
X111966846Y-98055456D01*
X111859365Y-97947975D01*
X111751885Y-98055456D01*
X111613292Y-98055456D01*
X111505812Y-97947975D01*
X111398331Y-98055456D01*
X111259739Y-98055456D01*
X111152259Y-97947976D01*
X111044778Y-98055456D01*
X110906185Y-98055456D01*
X110798705Y-97947975D01*
X110691224Y-98055456D01*
X110552632Y-98055456D01*
X110445152Y-97947976D01*
X110337671Y-98055456D01*
X110199079Y-98055456D01*
X110091598Y-97947975D01*
X109988000Y-98051574D01*
X109850000Y-98051574D01*
X109850000Y-97912981D01*
X109988000Y-97912981D01*
X110022302Y-97878679D01*
X110160894Y-97878679D01*
X110268375Y-97986159D01*
X110375855Y-97878679D01*
X110514448Y-97878679D01*
X110621928Y-97986159D01*
X110729409Y-97878679D01*
X110868001Y-97878679D01*
X110975482Y-97986159D01*
X111082962Y-97878679D01*
X111221555Y-97878679D01*
X111329035Y-97986159D01*
X111436516Y-97878679D01*
X111575108Y-97878679D01*
X111682589Y-97986159D01*
X111790069Y-97878679D01*
X111928661Y-97878679D01*
X112036142Y-97986159D01*
X112143622Y-97878679D01*
X112282215Y-97878679D01*
X112389695Y-97986159D01*
X112497176Y-97878679D01*
X112635768Y-97878679D01*
X112743249Y-97986159D01*
X112850729Y-97878679D01*
X112989322Y-97878679D01*
X113096802Y-97986159D01*
X113204283Y-97878679D01*
X113342875Y-97878679D01*
X113450356Y-97986159D01*
X113557836Y-97878679D01*
X113696428Y-97878679D01*
X113803909Y-97986159D01*
X113911389Y-97878679D01*
X114049982Y-97878679D01*
X114157462Y-97986159D01*
X114264943Y-97878679D01*
X114403535Y-97878679D01*
X114511016Y-97986159D01*
X114618496Y-97878679D01*
X114757088Y-97878679D01*
X114864569Y-97986159D01*
X114972049Y-97878679D01*
X115110642Y-97878679D01*
X115218123Y-97986159D01*
X115325603Y-97878679D01*
X115464195Y-97878679D01*
X115571676Y-97986159D01*
X115679156Y-97878679D01*
X115817749Y-97878679D01*
X115925229Y-97986159D01*
X116032710Y-97878679D01*
X116171302Y-97878679D01*
X116278783Y-97986159D01*
X116386263Y-97878679D01*
X116524855Y-97878679D01*
X116632336Y-97986159D01*
X116739816Y-97878679D01*
X116878409Y-97878679D01*
X116985889Y-97986159D01*
X117093370Y-97878679D01*
X117231962Y-97878679D01*
X117339443Y-97986159D01*
X117446923Y-97878679D01*
X117585516Y-97878679D01*
X117692996Y-97986159D01*
X117800477Y-97878679D01*
X117939069Y-97878679D01*
X118046550Y-97986159D01*
X118154030Y-97878679D01*
X118292622Y-97878679D01*
X118400103Y-97986159D01*
X118507583Y-97878679D01*
X118646176Y-97878679D01*
X118753656Y-97986159D01*
X118826000Y-97913816D01*
X118826000Y-97843542D01*
X118753656Y-97771198D01*
X118646176Y-97878679D01*
X118507583Y-97878679D01*
X118400103Y-97771198D01*
X118292622Y-97878679D01*
X118154030Y-97878679D01*
X118046550Y-97771199D01*
X117939069Y-97878679D01*
X117800477Y-97878679D01*
X117692996Y-97771198D01*
X117585516Y-97878679D01*
X117446923Y-97878679D01*
X117339443Y-97771198D01*
X117231962Y-97878679D01*
X117093370Y-97878679D01*
X116985889Y-97771198D01*
X116878409Y-97878679D01*
X116739816Y-97878679D01*
X116632336Y-97771198D01*
X116524855Y-97878679D01*
X116386263Y-97878679D01*
X116278783Y-97771199D01*
X116171302Y-97878679D01*
X116032710Y-97878679D01*
X115925229Y-97771198D01*
X115817749Y-97878679D01*
X115679156Y-97878679D01*
X115571676Y-97771198D01*
X115464195Y-97878679D01*
X115325603Y-97878679D01*
X115218123Y-97771199D01*
X115110642Y-97878679D01*
X114972049Y-97878679D01*
X114864569Y-97771198D01*
X114757088Y-97878679D01*
X114618496Y-97878679D01*
X114511016Y-97771199D01*
X114403535Y-97878679D01*
X114264943Y-97878679D01*
X114157462Y-97771198D01*
X114049982Y-97878679D01*
X113911389Y-97878679D01*
X113803909Y-97771198D01*
X113696428Y-97878679D01*
X113557836Y-97878679D01*
X113450356Y-97771199D01*
X113342875Y-97878679D01*
X113204283Y-97878679D01*
X113096802Y-97771198D01*
X112989322Y-97878679D01*
X112850729Y-97878679D01*
X112743249Y-97771199D01*
X112635768Y-97878679D01*
X112497176Y-97878679D01*
X112389695Y-97771198D01*
X112282215Y-97878679D01*
X112143622Y-97878679D01*
X112036142Y-97771198D01*
X111928661Y-97878679D01*
X111790069Y-97878679D01*
X111682589Y-97771199D01*
X111575108Y-97878679D01*
X111436516Y-97878679D01*
X111329035Y-97771198D01*
X111221555Y-97878679D01*
X111082962Y-97878679D01*
X110975482Y-97771198D01*
X110868001Y-97878679D01*
X110729409Y-97878679D01*
X110621928Y-97771198D01*
X110514448Y-97878679D01*
X110375855Y-97878679D01*
X110268375Y-97771198D01*
X110160894Y-97878679D01*
X110022302Y-97878679D01*
X109988000Y-97844377D01*
X109988000Y-97912981D01*
X109850000Y-97912981D01*
X109850000Y-97698021D01*
X109988000Y-97698021D01*
X109988000Y-97705784D01*
X110091599Y-97809383D01*
X110199079Y-97701902D01*
X110337671Y-97701902D01*
X110445152Y-97809383D01*
X110552632Y-97701902D01*
X110691224Y-97701902D01*
X110798705Y-97809383D01*
X110906185Y-97701902D01*
X111044778Y-97701902D01*
X111152259Y-97809383D01*
X111259739Y-97701902D01*
X111398331Y-97701902D01*
X111505812Y-97809383D01*
X111613292Y-97701902D01*
X111751885Y-97701902D01*
X111859365Y-97809383D01*
X111966846Y-97701902D01*
X112105438Y-97701902D01*
X112212919Y-97809383D01*
X112320399Y-97701902D01*
X112458991Y-97701902D01*
X112566472Y-97809383D01*
X112673952Y-97701902D01*
X112812545Y-97701902D01*
X112920025Y-97809383D01*
X113027506Y-97701902D01*
X113166098Y-97701902D01*
X113273579Y-97809383D01*
X113381059Y-97701902D01*
X113519652Y-97701902D01*
X113627132Y-97809383D01*
X113734613Y-97701902D01*
X113873205Y-97701902D01*
X113980686Y-97809383D01*
X114088166Y-97701902D01*
X114226758Y-97701902D01*
X114334239Y-97809383D01*
X114441719Y-97701902D01*
X114580312Y-97701902D01*
X114687792Y-97809383D01*
X114795273Y-97701902D01*
X114933865Y-97701902D01*
X115041346Y-97809383D01*
X115148826Y-97701902D01*
X115287419Y-97701902D01*
X115394899Y-97809383D01*
X115502380Y-97701902D01*
X115640972Y-97701902D01*
X115748453Y-97809383D01*
X115855933Y-97701902D01*
X115994525Y-97701902D01*
X116102006Y-97809383D01*
X116209486Y-97701902D01*
X116348079Y-97701902D01*
X116455559Y-97809383D01*
X116563040Y-97701902D01*
X116701632Y-97701902D01*
X116809113Y-97809383D01*
X116916593Y-97701902D01*
X117055186Y-97701902D01*
X117162666Y-97809383D01*
X117270147Y-97701902D01*
X117408739Y-97701902D01*
X117516220Y-97809383D01*
X117623700Y-97701902D01*
X117762292Y-97701902D01*
X117869773Y-97809383D01*
X117977253Y-97701902D01*
X118115846Y-97701902D01*
X118223326Y-97809383D01*
X118330807Y-97701902D01*
X118469399Y-97701902D01*
X118576880Y-97809383D01*
X118684360Y-97701902D01*
X118822952Y-97701902D01*
X118826000Y-97704950D01*
X118826000Y-97698855D01*
X118822952Y-97701902D01*
X118684360Y-97701902D01*
X118576880Y-97594422D01*
X118469399Y-97701902D01*
X118330807Y-97701902D01*
X118223326Y-97594422D01*
X118115846Y-97701902D01*
X117977253Y-97701902D01*
X117869773Y-97594422D01*
X117762292Y-97701902D01*
X117623700Y-97701902D01*
X117516220Y-97594422D01*
X117408739Y-97701902D01*
X117270147Y-97701902D01*
X117162666Y-97594422D01*
X117055186Y-97701902D01*
X116916593Y-97701902D01*
X116809113Y-97594422D01*
X116701632Y-97701902D01*
X116563040Y-97701902D01*
X116455559Y-97594422D01*
X116348079Y-97701902D01*
X116209486Y-97701902D01*
X116102006Y-97594422D01*
X115994525Y-97701902D01*
X115855933Y-97701902D01*
X115748453Y-97594422D01*
X115640972Y-97701902D01*
X115502380Y-97701902D01*
X115394899Y-97594422D01*
X115287419Y-97701902D01*
X115148826Y-97701902D01*
X115041346Y-97594422D01*
X114933865Y-97701902D01*
X114795273Y-97701902D01*
X114687792Y-97594422D01*
X114580312Y-97701902D01*
X114441719Y-97701902D01*
X114334239Y-97594422D01*
X114226758Y-97701902D01*
X114088166Y-97701902D01*
X113980686Y-97594422D01*
X113873205Y-97701902D01*
X113734613Y-97701902D01*
X113627132Y-97594422D01*
X113519652Y-97701902D01*
X113381059Y-97701902D01*
X113273579Y-97594422D01*
X113166098Y-97701902D01*
X113027506Y-97701902D01*
X112920025Y-97594422D01*
X112812545Y-97701902D01*
X112673952Y-97701902D01*
X112566472Y-97594422D01*
X112458991Y-97701902D01*
X112320399Y-97701902D01*
X112212919Y-97594422D01*
X112105438Y-97701902D01*
X111966846Y-97701902D01*
X111859365Y-97594422D01*
X111751885Y-97701902D01*
X111613292Y-97701902D01*
X111505812Y-97594422D01*
X111398331Y-97701902D01*
X111259739Y-97701902D01*
X111152259Y-97594422D01*
X111044778Y-97701902D01*
X110906185Y-97701902D01*
X110798705Y-97594422D01*
X110691224Y-97701902D01*
X110552632Y-97701902D01*
X110445152Y-97594422D01*
X110337671Y-97701902D01*
X110199079Y-97701902D01*
X110091598Y-97594422D01*
X109988000Y-97698021D01*
X109850000Y-97698021D01*
X109850000Y-97559428D01*
X109988000Y-97559428D01*
X110022302Y-97525126D01*
X110160895Y-97525126D01*
X110268375Y-97632606D01*
X110375855Y-97525126D01*
X110514448Y-97525126D01*
X110621928Y-97632606D01*
X110729409Y-97525126D01*
X110868002Y-97525126D01*
X110975482Y-97632606D01*
X111082962Y-97525126D01*
X111221555Y-97525126D01*
X111329035Y-97632606D01*
X111436516Y-97525126D01*
X111575109Y-97525126D01*
X111682589Y-97632606D01*
X111790069Y-97525126D01*
X111928662Y-97525126D01*
X112036142Y-97632606D01*
X112143622Y-97525126D01*
X112282215Y-97525126D01*
X112389695Y-97632606D01*
X112497176Y-97525126D01*
X112635769Y-97525126D01*
X112743249Y-97632606D01*
X112850729Y-97525126D01*
X112989322Y-97525126D01*
X113096802Y-97632606D01*
X113204283Y-97525126D01*
X113342876Y-97525126D01*
X113450356Y-97632606D01*
X113557836Y-97525126D01*
X113696429Y-97525126D01*
X113803909Y-97632606D01*
X113911389Y-97525126D01*
X114049982Y-97525126D01*
X114157462Y-97632606D01*
X114264943Y-97525126D01*
X114403536Y-97525126D01*
X114511016Y-97632606D01*
X114618496Y-97525126D01*
X114757089Y-97525126D01*
X114864569Y-97632606D01*
X114972049Y-97525126D01*
X115110643Y-97525126D01*
X115218123Y-97632606D01*
X115325603Y-97525126D01*
X115464196Y-97525126D01*
X115571676Y-97632606D01*
X115679156Y-97525126D01*
X115817749Y-97525126D01*
X115925229Y-97632606D01*
X116032710Y-97525126D01*
X116171303Y-97525126D01*
X116278783Y-97632606D01*
X116386263Y-97525126D01*
X116524856Y-97525126D01*
X116632336Y-97632606D01*
X116739816Y-97525126D01*
X116878409Y-97525126D01*
X116985889Y-97632606D01*
X117093370Y-97525126D01*
X117231963Y-97525126D01*
X117339443Y-97632606D01*
X117446923Y-97525126D01*
X117585516Y-97525126D01*
X117692996Y-97632606D01*
X117800477Y-97525126D01*
X117939070Y-97525126D01*
X118046550Y-97632606D01*
X118154030Y-97525126D01*
X118292623Y-97525126D01*
X118400103Y-97632606D01*
X118507583Y-97525126D01*
X118646176Y-97525126D01*
X118753656Y-97632606D01*
X118826000Y-97560263D01*
X118826000Y-97489989D01*
X118753656Y-97417645D01*
X118646176Y-97525126D01*
X118507583Y-97525126D01*
X118400103Y-97417645D01*
X118292623Y-97525126D01*
X118154030Y-97525126D01*
X118046550Y-97417646D01*
X117939070Y-97525126D01*
X117800477Y-97525126D01*
X117692996Y-97417645D01*
X117585516Y-97525126D01*
X117446923Y-97525126D01*
X117339443Y-97417645D01*
X117231963Y-97525126D01*
X117093370Y-97525126D01*
X116985889Y-97417645D01*
X116878409Y-97525126D01*
X116739816Y-97525126D01*
X116632336Y-97417645D01*
X116524856Y-97525126D01*
X116386263Y-97525126D01*
X116278783Y-97417646D01*
X116171303Y-97525126D01*
X116032710Y-97525126D01*
X115925229Y-97417645D01*
X115817749Y-97525126D01*
X115679156Y-97525126D01*
X115571676Y-97417645D01*
X115464196Y-97525126D01*
X115325603Y-97525126D01*
X115218123Y-97417646D01*
X115110643Y-97525126D01*
X114972049Y-97525126D01*
X114864569Y-97417645D01*
X114757089Y-97525126D01*
X114618496Y-97525126D01*
X114511016Y-97417646D01*
X114403536Y-97525126D01*
X114264943Y-97525126D01*
X114157462Y-97417645D01*
X114049982Y-97525126D01*
X113911389Y-97525126D01*
X113803909Y-97417645D01*
X113696429Y-97525126D01*
X113557836Y-97525126D01*
X113450356Y-97417646D01*
X113342876Y-97525126D01*
X113204283Y-97525126D01*
X113096802Y-97417645D01*
X112989322Y-97525126D01*
X112850729Y-97525126D01*
X112743249Y-97417646D01*
X112635769Y-97525126D01*
X112497176Y-97525126D01*
X112389695Y-97417645D01*
X112282215Y-97525126D01*
X112143622Y-97525126D01*
X112036142Y-97417645D01*
X111928662Y-97525126D01*
X111790069Y-97525126D01*
X111682589Y-97417646D01*
X111575109Y-97525126D01*
X111436516Y-97525126D01*
X111329035Y-97417645D01*
X111221555Y-97525126D01*
X111082962Y-97525126D01*
X110975482Y-97417645D01*
X110868002Y-97525126D01*
X110729409Y-97525126D01*
X110621928Y-97417645D01*
X110514448Y-97525126D01*
X110375855Y-97525126D01*
X110268375Y-97417645D01*
X110160895Y-97525126D01*
X110022302Y-97525126D01*
X109988000Y-97490824D01*
X109988000Y-97559428D01*
X109850000Y-97559428D01*
X109850000Y-97344467D01*
X109988000Y-97344467D01*
X109988000Y-97352231D01*
X110091598Y-97455829D01*
X110199079Y-97348349D01*
X110337671Y-97348349D01*
X110445152Y-97455829D01*
X110552632Y-97348349D01*
X110691224Y-97348349D01*
X110798705Y-97455829D01*
X110906185Y-97348349D01*
X111044778Y-97348349D01*
X111152259Y-97455829D01*
X111259739Y-97348349D01*
X111398331Y-97348349D01*
X111505812Y-97455829D01*
X111613292Y-97348349D01*
X111751885Y-97348349D01*
X111859365Y-97455829D01*
X111966846Y-97348349D01*
X112105438Y-97348349D01*
X112212919Y-97455829D01*
X112320399Y-97348349D01*
X112458991Y-97348349D01*
X112566472Y-97455829D01*
X112673952Y-97348349D01*
X112812545Y-97348349D01*
X112920025Y-97455829D01*
X113027506Y-97348349D01*
X113166098Y-97348349D01*
X113273579Y-97455829D01*
X113381059Y-97348349D01*
X113519652Y-97348349D01*
X113627132Y-97455829D01*
X113734613Y-97348349D01*
X113873205Y-97348349D01*
X113980686Y-97455829D01*
X114088166Y-97348349D01*
X114226758Y-97348349D01*
X114334239Y-97455829D01*
X114441719Y-97348349D01*
X114580312Y-97348349D01*
X114687792Y-97455829D01*
X114795273Y-97348349D01*
X114933865Y-97348349D01*
X115041346Y-97455829D01*
X115148826Y-97348349D01*
X115287419Y-97348349D01*
X115394899Y-97455829D01*
X115502380Y-97348349D01*
X115640972Y-97348349D01*
X115748453Y-97455829D01*
X115855933Y-97348349D01*
X115994525Y-97348349D01*
X116102006Y-97455829D01*
X116209486Y-97348349D01*
X116348079Y-97348349D01*
X116455559Y-97455829D01*
X116563040Y-97348349D01*
X116701632Y-97348349D01*
X116809113Y-97455829D01*
X116916593Y-97348349D01*
X117055186Y-97348349D01*
X117162666Y-97455829D01*
X117270147Y-97348349D01*
X117408739Y-97348349D01*
X117516220Y-97455829D01*
X117623700Y-97348349D01*
X117762292Y-97348349D01*
X117869773Y-97455829D01*
X117977253Y-97348349D01*
X118115846Y-97348349D01*
X118223326Y-97455829D01*
X118330807Y-97348349D01*
X118469399Y-97348349D01*
X118576880Y-97455829D01*
X118684360Y-97348349D01*
X118822953Y-97348349D01*
X118826000Y-97351396D01*
X118826000Y-97345302D01*
X118822953Y-97348349D01*
X118684360Y-97348349D01*
X118576880Y-97240869D01*
X118469399Y-97348349D01*
X118330807Y-97348349D01*
X118223326Y-97240868D01*
X118115846Y-97348349D01*
X117977253Y-97348349D01*
X117869773Y-97240868D01*
X117762292Y-97348349D01*
X117623700Y-97348349D01*
X117516220Y-97240869D01*
X117408739Y-97348349D01*
X117270147Y-97348349D01*
X117162666Y-97240868D01*
X117055186Y-97348349D01*
X116916593Y-97348349D01*
X116809113Y-97240869D01*
X116701632Y-97348349D01*
X116563040Y-97348349D01*
X116455559Y-97240868D01*
X116348079Y-97348349D01*
X116209486Y-97348349D01*
X116102006Y-97240868D01*
X115994525Y-97348349D01*
X115855933Y-97348349D01*
X115748453Y-97240869D01*
X115640972Y-97348349D01*
X115502380Y-97348349D01*
X115394899Y-97240868D01*
X115287419Y-97348349D01*
X115148826Y-97348349D01*
X115041346Y-97240868D01*
X114933865Y-97348349D01*
X114795273Y-97348349D01*
X114687792Y-97240868D01*
X114580312Y-97348349D01*
X114441719Y-97348349D01*
X114334239Y-97240868D01*
X114226758Y-97348349D01*
X114088166Y-97348349D01*
X113980686Y-97240869D01*
X113873205Y-97348349D01*
X113734613Y-97348349D01*
X113627132Y-97240868D01*
X113519652Y-97348349D01*
X113381059Y-97348349D01*
X113273579Y-97240868D01*
X113166098Y-97348349D01*
X113027506Y-97348349D01*
X112920025Y-97240868D01*
X112812545Y-97348349D01*
X112673952Y-97348349D01*
X112566472Y-97240868D01*
X112458991Y-97348349D01*
X112320399Y-97348349D01*
X112212919Y-97240869D01*
X112105438Y-97348349D01*
X111966846Y-97348349D01*
X111859365Y-97240868D01*
X111751885Y-97348349D01*
X111613292Y-97348349D01*
X111505812Y-97240868D01*
X111398331Y-97348349D01*
X111259739Y-97348349D01*
X111152259Y-97240869D01*
X111044778Y-97348349D01*
X110906185Y-97348349D01*
X110798705Y-97240868D01*
X110691224Y-97348349D01*
X110552632Y-97348349D01*
X110445152Y-97240869D01*
X110337671Y-97348349D01*
X110199079Y-97348349D01*
X110091598Y-97240868D01*
X109988000Y-97344467D01*
X109850000Y-97344467D01*
X109850000Y-97205875D01*
X109988000Y-97205875D01*
X109995375Y-97198500D01*
X110187822Y-97198500D01*
X110268375Y-97279053D01*
X110348929Y-97198500D01*
X110541375Y-97198500D01*
X110621928Y-97279053D01*
X110702482Y-97198500D01*
X110894929Y-97198500D01*
X110975482Y-97279053D01*
X111056036Y-97198500D01*
X111248482Y-97198500D01*
X111329035Y-97279053D01*
X111409589Y-97198500D01*
X111602036Y-97198500D01*
X111682589Y-97279053D01*
X111763142Y-97198500D01*
X111955589Y-97198500D01*
X112036142Y-97279053D01*
X112116696Y-97198500D01*
X112309142Y-97198500D01*
X112389695Y-97279053D01*
X112470249Y-97198500D01*
X112662696Y-97198500D01*
X112743249Y-97279053D01*
X112823802Y-97198500D01*
X113016249Y-97198500D01*
X113096802Y-97279053D01*
X113177356Y-97198500D01*
X113369803Y-97198500D01*
X113450356Y-97279053D01*
X113530909Y-97198500D01*
X113723356Y-97198500D01*
X113803909Y-97279053D01*
X113884463Y-97198500D01*
X114076909Y-97198500D01*
X114157462Y-97279053D01*
X114238016Y-97198500D01*
X114430463Y-97198500D01*
X114511016Y-97279053D01*
X114591569Y-97198500D01*
X114784016Y-97198500D01*
X114864569Y-97279053D01*
X114945123Y-97198500D01*
X115137570Y-97198500D01*
X115218123Y-97279053D01*
X115298676Y-97198500D01*
X115491123Y-97198500D01*
X115571676Y-97279053D01*
X115652230Y-97198500D01*
X115844676Y-97198500D01*
X115925229Y-97279053D01*
X116005783Y-97198500D01*
X116198230Y-97198500D01*
X116278783Y-97279053D01*
X116359336Y-97198500D01*
X116551783Y-97198500D01*
X116632336Y-97279053D01*
X116712890Y-97198500D01*
X116905336Y-97198500D01*
X116985889Y-97279053D01*
X117066443Y-97198500D01*
X117258890Y-97198500D01*
X117339443Y-97279053D01*
X117419997Y-97198500D01*
X117612443Y-97198500D01*
X117692996Y-97279053D01*
X117773550Y-97198500D01*
X117965997Y-97198500D01*
X118046550Y-97279053D01*
X118127103Y-97198500D01*
X118319550Y-97198500D01*
X118400103Y-97279053D01*
X118480657Y-97198500D01*
X118673103Y-97198500D01*
X118753656Y-97279053D01*
X118826000Y-97206710D01*
X118826000Y-97198500D01*
X118673103Y-97198500D01*
X118480657Y-97198500D01*
X118319550Y-97198500D01*
X118127103Y-97198500D01*
X117965997Y-97198500D01*
X117773550Y-97198500D01*
X117612443Y-97198500D01*
X117419997Y-97198500D01*
X117258890Y-97198500D01*
X117066443Y-97198500D01*
X116905336Y-97198500D01*
X116712890Y-97198500D01*
X116551783Y-97198500D01*
X116359336Y-97198500D01*
X116198230Y-97198500D01*
X116005783Y-97198500D01*
X115844676Y-97198500D01*
X115652230Y-97198500D01*
X115491123Y-97198500D01*
X115298676Y-97198500D01*
X115137570Y-97198500D01*
X114945123Y-97198500D01*
X114784016Y-97198500D01*
X114591569Y-97198500D01*
X114430463Y-97198500D01*
X114238016Y-97198500D01*
X114076909Y-97198500D01*
X113884463Y-97198500D01*
X113723356Y-97198500D01*
X113530909Y-97198500D01*
X113369803Y-97198500D01*
X113177356Y-97198500D01*
X113016249Y-97198500D01*
X112823802Y-97198500D01*
X112662696Y-97198500D01*
X112470249Y-97198500D01*
X112309142Y-97198500D01*
X112116696Y-97198500D01*
X111955589Y-97198500D01*
X111763142Y-97198500D01*
X111602036Y-97198500D01*
X111409589Y-97198500D01*
X111248482Y-97198500D01*
X111056036Y-97198500D01*
X110894929Y-97198500D01*
X110702482Y-97198500D01*
X110541375Y-97198500D01*
X110348929Y-97198500D01*
X110187822Y-97198500D01*
X109995375Y-97198500D01*
X109988000Y-97198500D01*
X109988000Y-97205875D01*
X109850000Y-97205875D01*
X109850000Y-97084386D01*
X109931007Y-97100500D01*
G37*
G04 #@! TD.AperFunction*
G04 #@! TD*
G04 #@! TA.AperFunction,Conductor*
G04 #@! TO.N,GND*
G36*
X109204832Y-95601795D02*
G01*
X109223502Y-95606797D01*
X109239913Y-95611194D01*
X109256949Y-95621029D01*
X109278970Y-95643050D01*
X109288805Y-95660085D01*
X109298205Y-95695166D01*
X109299500Y-95705001D01*
X109299500Y-96468992D01*
X109326420Y-96604329D01*
X109379222Y-96731806D01*
X109379224Y-96731809D01*
X109379225Y-96731811D01*
X109455886Y-96846542D01*
X109553458Y-96944114D01*
X109668189Y-97020775D01*
X109668191Y-97020776D01*
X109668193Y-97020777D01*
X109753177Y-97055978D01*
X109795672Y-97073580D01*
X109850000Y-97084386D01*
X109850000Y-102915613D01*
X109795670Y-102926420D01*
X109668193Y-102979222D01*
X109553458Y-103055885D01*
X109455885Y-103153458D01*
X109379222Y-103268193D01*
X109326420Y-103395670D01*
X109299500Y-103531007D01*
X109299500Y-104294998D01*
X109298205Y-104304832D01*
X109298205Y-104304833D01*
X109288805Y-104339914D01*
X109278970Y-104356949D01*
X109256949Y-104378970D01*
X109239914Y-104388805D01*
X109204833Y-104398205D01*
X109194998Y-104399500D01*
X90805002Y-104399500D01*
X90795167Y-104398205D01*
X90760085Y-104388805D01*
X90743050Y-104378970D01*
X90721029Y-104356949D01*
X90711194Y-104339913D01*
X90701795Y-104304832D01*
X90700500Y-104294998D01*
X90700500Y-101135981D01*
X91500000Y-101135981D01*
X91500000Y-101525000D01*
X91800000Y-101525000D01*
X91800000Y-101675000D01*
X91500000Y-101675000D01*
X91500000Y-102064018D01*
X91524979Y-102189599D01*
X91573976Y-102307887D01*
X91645108Y-102414346D01*
X91645111Y-102414350D01*
X91735649Y-102504888D01*
X91735653Y-102504891D01*
X91842112Y-102576023D01*
X91960400Y-102625020D01*
X92074999Y-102647814D01*
X92075000Y-102647814D01*
X92075000Y-102342250D01*
X92103922Y-102350000D01*
X92196078Y-102350000D01*
X92225000Y-102342250D01*
X92225000Y-102647814D01*
X92339599Y-102625020D01*
X92457887Y-102576023D01*
X92564346Y-102504891D01*
X92564350Y-102504888D01*
X92654888Y-102414350D01*
X92654891Y-102414346D01*
X92726023Y-102307887D01*
X92775020Y-102189599D01*
X92799999Y-102064018D01*
X92800000Y-102064017D01*
X92800000Y-101675000D01*
X92500000Y-101675000D01*
X92500000Y-101525000D01*
X92800000Y-101525000D01*
X92800000Y-101135982D01*
X92799999Y-101135981D01*
X107200000Y-101135981D01*
X107200000Y-101525000D01*
X107500000Y-101525000D01*
X107500000Y-101675000D01*
X107200000Y-101675000D01*
X107200000Y-102064018D01*
X107224979Y-102189599D01*
X107273976Y-102307887D01*
X107345108Y-102414346D01*
X107345111Y-102414350D01*
X107435649Y-102504888D01*
X107435653Y-102504891D01*
X107542112Y-102576023D01*
X107660400Y-102625020D01*
X107774999Y-102647814D01*
X107775000Y-102647814D01*
X107775000Y-102342250D01*
X107803922Y-102350000D01*
X107896078Y-102350000D01*
X107925000Y-102342250D01*
X107925000Y-102647814D01*
X108039599Y-102625020D01*
X108157887Y-102576023D01*
X108264346Y-102504891D01*
X108264350Y-102504888D01*
X108354888Y-102414350D01*
X108354891Y-102414346D01*
X108426023Y-102307887D01*
X108475020Y-102189599D01*
X108499999Y-102064018D01*
X108500000Y-102064017D01*
X108500000Y-101675000D01*
X108200000Y-101675000D01*
X108200000Y-101525000D01*
X108500000Y-101525000D01*
X108500000Y-101135982D01*
X108499999Y-101135981D01*
X108475020Y-101010400D01*
X108426023Y-100892112D01*
X108354891Y-100785653D01*
X108354888Y-100785649D01*
X108264350Y-100695111D01*
X108264346Y-100695108D01*
X108157887Y-100623976D01*
X108039599Y-100574979D01*
X107925000Y-100552184D01*
X107925000Y-100857749D01*
X107896078Y-100850000D01*
X107803922Y-100850000D01*
X107775000Y-100857749D01*
X107775000Y-100552184D01*
X107774999Y-100552184D01*
X107660400Y-100574979D01*
X107542112Y-100623976D01*
X107435653Y-100695108D01*
X107435649Y-100695111D01*
X107345111Y-100785649D01*
X107345108Y-100785653D01*
X107273976Y-100892112D01*
X107224979Y-101010400D01*
X107200000Y-101135981D01*
X92799999Y-101135981D01*
X92775020Y-101010400D01*
X92726023Y-100892112D01*
X92654891Y-100785653D01*
X92654888Y-100785649D01*
X92564350Y-100695111D01*
X92564346Y-100695108D01*
X92457887Y-100623976D01*
X92339599Y-100574979D01*
X92225000Y-100552184D01*
X92225000Y-100857749D01*
X92196078Y-100850000D01*
X92103922Y-100850000D01*
X92075000Y-100857749D01*
X92075000Y-100552184D01*
X92074999Y-100552184D01*
X91960400Y-100574979D01*
X91842112Y-100623976D01*
X91735653Y-100695108D01*
X91735649Y-100695111D01*
X91645111Y-100785649D01*
X91645108Y-100785653D01*
X91573976Y-100892112D01*
X91524979Y-101010400D01*
X91500000Y-101135981D01*
X90700500Y-101135981D01*
X90700500Y-97935981D01*
X91500000Y-97935981D01*
X91500000Y-98325000D01*
X91800000Y-98325000D01*
X91800000Y-98475000D01*
X91500000Y-98475000D01*
X91500000Y-98864018D01*
X91524979Y-98989599D01*
X91573976Y-99107887D01*
X91645108Y-99214346D01*
X91645111Y-99214350D01*
X91735649Y-99304888D01*
X91735653Y-99304891D01*
X91842112Y-99376023D01*
X91960400Y-99425020D01*
X92074999Y-99447814D01*
X92075000Y-99447814D01*
X92075000Y-99142250D01*
X92103922Y-99150000D01*
X92196078Y-99150000D01*
X92225000Y-99142250D01*
X92225000Y-99447814D01*
X92339599Y-99425020D01*
X92457887Y-99376023D01*
X92564346Y-99304891D01*
X92564350Y-99304888D01*
X92654888Y-99214350D01*
X92654891Y-99214346D01*
X92726023Y-99107887D01*
X92775020Y-98989599D01*
X92799999Y-98864018D01*
X92800000Y-98864017D01*
X92800000Y-98475000D01*
X92500000Y-98475000D01*
X92500000Y-98325000D01*
X92800000Y-98325000D01*
X92800000Y-97935982D01*
X92799999Y-97935981D01*
X107200000Y-97935981D01*
X107200000Y-98325000D01*
X107500000Y-98325000D01*
X107500000Y-98475000D01*
X107200000Y-98475000D01*
X107200000Y-98864018D01*
X107224979Y-98989599D01*
X107273976Y-99107887D01*
X107345108Y-99214346D01*
X107345111Y-99214350D01*
X107435649Y-99304888D01*
X107435653Y-99304891D01*
X107542112Y-99376023D01*
X107660400Y-99425020D01*
X107774999Y-99447814D01*
X107775000Y-99447814D01*
X107775000Y-99142250D01*
X107803922Y-99150000D01*
X107896078Y-99150000D01*
X107925000Y-99142250D01*
X107925000Y-99447814D01*
X108039599Y-99425020D01*
X108157887Y-99376023D01*
X108264346Y-99304891D01*
X108264350Y-99304888D01*
X108354888Y-99214350D01*
X108354891Y-99214346D01*
X108426023Y-99107887D01*
X108475020Y-98989599D01*
X108499999Y-98864018D01*
X108500000Y-98864017D01*
X108500000Y-98475000D01*
X108200000Y-98475000D01*
X108200000Y-98325000D01*
X108500000Y-98325000D01*
X108500000Y-97935982D01*
X108499999Y-97935981D01*
X108475020Y-97810400D01*
X108426023Y-97692112D01*
X108354891Y-97585653D01*
X108354888Y-97585649D01*
X108264350Y-97495111D01*
X108264346Y-97495108D01*
X108157887Y-97423976D01*
X108039599Y-97374979D01*
X107925000Y-97352184D01*
X107925000Y-97657749D01*
X107896078Y-97650000D01*
X107803922Y-97650000D01*
X107775000Y-97657749D01*
X107775000Y-97352184D01*
X107774999Y-97352184D01*
X107660400Y-97374979D01*
X107542112Y-97423976D01*
X107435653Y-97495108D01*
X107435649Y-97495111D01*
X107345111Y-97585649D01*
X107345108Y-97585653D01*
X107273976Y-97692112D01*
X107224979Y-97810400D01*
X107200000Y-97935981D01*
X92799999Y-97935981D01*
X92775020Y-97810400D01*
X92726023Y-97692112D01*
X92654891Y-97585653D01*
X92654888Y-97585649D01*
X92564350Y-97495111D01*
X92564346Y-97495108D01*
X92457887Y-97423976D01*
X92339599Y-97374979D01*
X92225000Y-97352184D01*
X92225000Y-97657749D01*
X92196078Y-97650000D01*
X92103922Y-97650000D01*
X92075000Y-97657749D01*
X92075000Y-97352184D01*
X92074999Y-97352184D01*
X91960400Y-97374979D01*
X91842112Y-97423976D01*
X91735653Y-97495108D01*
X91735649Y-97495111D01*
X91645111Y-97585649D01*
X91645108Y-97585653D01*
X91573976Y-97692112D01*
X91524979Y-97810400D01*
X91500000Y-97935981D01*
X90700500Y-97935981D01*
X90700500Y-95705001D01*
X90701795Y-95695167D01*
X90711100Y-95660438D01*
X90711195Y-95660085D01*
X90721027Y-95643052D01*
X90743052Y-95621027D01*
X90760084Y-95611195D01*
X90782310Y-95605239D01*
X90795168Y-95601795D01*
X90805002Y-95600500D01*
X90847595Y-95600500D01*
X109152405Y-95600500D01*
X109194998Y-95600500D01*
X109204832Y-95601795D01*
G37*
G04 #@! TD.AperFunction*
G04 #@! TA.AperFunction,Conductor*
G36*
X134163832Y-97101795D02*
G01*
X134182502Y-97106797D01*
X134198913Y-97111194D01*
X134215950Y-97121030D01*
X134237970Y-97143051D01*
X134247804Y-97160084D01*
X134257205Y-97195166D01*
X134258500Y-97205002D01*
X134258500Y-102794997D01*
X134257205Y-102804833D01*
X134247804Y-102839915D01*
X134237970Y-102856948D01*
X134215950Y-102878969D01*
X134198914Y-102888805D01*
X134163833Y-102898205D01*
X134153998Y-102899500D01*
X118964000Y-102899500D01*
X118964000Y-97100500D01*
X134111405Y-97100500D01*
X134153998Y-97100500D01*
X134163832Y-97101795D01*
G37*
G04 #@! TD.AperFunction*
G04 #@! TD*
M02*
