G04 #@! TF.GenerationSoftware,KiCad,Pcbnew,9.0.2+dfsg-1*
G04 #@! TF.CreationDate,2026-10-04T09:33:18-04:00*
G04 #@! TF.ProjectId,mod_hdmi,6d6f645f-6864-46d6-992e-6b696361645f,A1*
G04 #@! TF.SameCoordinates,Original*
G04 #@! TF.FileFunction,Copper,L1,Top*
G04 #@! TF.FilePolarity,Positive*
%FSLAX46Y46*%
G04 Gerber Fmt 4.6, Leading zero omitted, Abs format (unit mm)*
G04 Created by KiCad (PCBNEW 9.0.2+dfsg-1) date 2026-10-04 09:33:18*
%MOMM*%
%LPD*%
G01*
G04 APERTURE LIST*
G04 Aperture macros list*
%AMRoundRect*
0 Rectangle with rounded corners*
0 $1 Rounding radius*
0 $2 $3 $4 $5 $6 $7 $8 $9 X,Y pos of 4 corners*
0 Add a 4 corners polygon primitive as box body*
4,1,4,$2,$3,$4,$5,$6,$7,$8,$9,$2,$3,0*
0 Add four circle primitives for the rounded corners*
1,1,$1+$1,$2,$3*
1,1,$1+$1,$4,$5*
1,1,$1+$1,$6,$7*
1,1,$1+$1,$8,$9*
0 Add four rect primitives between the rounded corners*
20,1,$1+$1,$2,$3,$4,$5,0*
20,1,$1+$1,$4,$5,$6,$7,0*
20,1,$1+$1,$6,$7,$8,$9,0*
20,1,$1+$1,$8,$9,$2,$3,0*%
G04 Aperture macros list end*
G04 #@! TA.AperFunction,Conductor*
%ADD10C,0.000000*%
G04 #@! TD*
G04 #@! TA.AperFunction,SMDPad,CuDef*
%ADD11R,0.300000X1.100000*%
G04 #@! TD*
G04 #@! TA.AperFunction,ComponentPad*
%ADD12O,1.100000X1.900000*%
G04 #@! TD*
G04 #@! TA.AperFunction,SMDPad,CuDef*
%ADD13RoundRect,0.062500X0.372500X0.062500X-0.372500X0.062500X-0.372500X-0.062500X0.372500X-0.062500X0*%
G04 #@! TD*
G04 #@! TA.AperFunction,HeatsinkPad*
%ADD14R,0.610000X2.200000*%
G04 #@! TD*
G04 #@! TA.AperFunction,SMDPad,CuDef*
%ADD15RoundRect,0.057500X-0.057500X-0.292500X0.057500X-0.292500X0.057500X0.292500X-0.057500X0.292500X0*%
G04 #@! TD*
G04 #@! TA.AperFunction,SMDPad,CuDef*
%ADD16RoundRect,0.100000X-0.130000X-0.100000X0.130000X-0.100000X0.130000X0.100000X-0.130000X0.100000X0*%
G04 #@! TD*
G04 #@! TA.AperFunction,ViaPad*
%ADD17C,0.550000*%
G04 #@! TD*
G04 #@! TA.AperFunction,Conductor*
%ADD18C,0.078000*%
G04 #@! TD*
G04 #@! TA.AperFunction,Conductor*
%ADD19C,0.080000*%
G04 #@! TD*
G04 #@! TA.AperFunction,Conductor*
%ADD20C,0.110000*%
G04 #@! TD*
G04 #@! TA.AperFunction,Conductor*
%ADD21C,0.090000*%
G04 #@! TD*
G04 #@! TA.AperFunction,Conductor*
%ADD22C,0.150000*%
G04 #@! TD*
G04 #@! TA.AperFunction,Conductor*
%ADD23C,0.100000*%
G04 #@! TD*
G04 #@! TA.AperFunction,Conductor*
%ADD24C,0.200000*%
G04 #@! TD*
G04 #@! TA.AperFunction,Conductor*
%ADD25C,0.600000*%
G04 #@! TD*
G04 #@! TA.AperFunction,Conductor*
%ADD26C,0.300000*%
G04 #@! TD*
G04 APERTURE END LIST*
D10*
G04 #@! TA.AperFunction,Conductor*
G04 #@! TO.N,GND*
G36*
X122804000Y-99165000D02*
G01*
X122654000Y-99165000D01*
X122631250Y-98805000D01*
X122826750Y-98805000D01*
X122804000Y-99165000D01*
G37*
G04 #@! TD.AperFunction*
G04 #@! TA.AperFunction,Conductor*
G36*
X128375560Y-99576842D02*
G01*
X128472876Y-99957096D01*
X128012219Y-99880319D01*
X128227601Y-99552182D01*
X128375560Y-99576842D01*
G37*
G04 #@! TD.AperFunction*
G04 #@! TA.AperFunction,Conductor*
G36*
X131793500Y-100356250D02*
G01*
X131364000Y-100300000D01*
X131364000Y-100200000D01*
X131793500Y-100143750D01*
X131793500Y-100356250D01*
G37*
G04 #@! TD.AperFunction*
G04 #@! TA.AperFunction,Conductor*
G36*
X127604000Y-100437500D02*
G01*
X127454000Y-100437500D01*
X127295250Y-100082500D01*
X127762750Y-100082500D01*
X127604000Y-100437500D01*
G37*
G04 #@! TD.AperFunction*
G04 #@! TA.AperFunction,Conductor*
G04 #@! TO.N,ID_SCL*
G36*
X131793500Y-99856250D02*
G01*
X131364000Y-99800000D01*
X131364000Y-99700000D01*
X131793500Y-99643750D01*
X131793500Y-99856250D01*
G37*
G04 #@! TD.AperFunction*
G04 #@! TA.AperFunction,Conductor*
G04 #@! TO.N,GND*
G36*
X125204000Y-99165000D02*
G01*
X125054000Y-99165000D01*
X125031250Y-98805000D01*
X125226750Y-98805000D01*
X125204000Y-99165000D01*
G37*
G04 #@! TD.AperFunction*
G04 #@! TA.AperFunction,Conductor*
G04 #@! TO.N,ID_SDA*
G36*
X131793500Y-99356250D02*
G01*
X131364000Y-99300000D01*
X131364000Y-99200000D01*
X131793500Y-99143750D01*
X131793500Y-99356250D01*
G37*
G04 #@! TD.AperFunction*
G04 #@! TA.AperFunction,Conductor*
G04 #@! TO.N,GND*
G36*
X128375560Y-100423157D02*
G01*
X128227601Y-100447817D01*
X128012219Y-100119680D01*
X128472876Y-100042903D01*
X128375560Y-100423157D01*
G37*
G04 #@! TD.AperFunction*
G04 #@! TA.AperFunction,Conductor*
G36*
X128826750Y-101195000D02*
G01*
X128631250Y-101195000D01*
X128679000Y-100835000D01*
X128779000Y-100835000D01*
X128826750Y-101195000D01*
G37*
G04 #@! TD.AperFunction*
G04 #@! TA.AperFunction,Conductor*
G36*
X123124476Y-99847962D02*
G01*
X122681395Y-99995656D01*
X122714409Y-99593399D01*
X122856711Y-99545964D01*
X123124476Y-99847962D01*
G37*
G04 #@! TD.AperFunction*
G04 #@! TA.AperFunction,Conductor*
G36*
X130003999Y-101765000D02*
G01*
X129854000Y-101765000D01*
X129831250Y-101405000D01*
X130026750Y-101405000D01*
X130003999Y-101765000D01*
G37*
G04 #@! TD.AperFunction*
G04 #@! TA.AperFunction,Conductor*
G36*
X126426750Y-101195000D02*
G01*
X126231249Y-101195000D01*
X126253999Y-100835000D01*
X126404000Y-100835000D01*
X126426750Y-101195000D01*
G37*
G04 #@! TD.AperFunction*
G04 #@! TA.AperFunction,Conductor*
G04 #@! TO.N,DDC_SCL*
G36*
X123568000Y-101765000D02*
G01*
X123490000Y-101765000D01*
X123431250Y-101405000D01*
X123626749Y-101405000D01*
X123568000Y-101765000D01*
G37*
G04 #@! TD.AperFunction*
G04 #@! TA.AperFunction,Conductor*
G04 #@! TO.N,3V3_MOD*
G36*
X131980783Y-101309394D02*
G01*
X131880791Y-101310605D01*
X131554704Y-100791981D01*
X132294204Y-100783018D01*
X131980783Y-101309394D01*
G37*
G04 #@! TD.AperFunction*
G04 #@! TA.AperFunction,Conductor*
G04 #@! TO.N,GND*
G36*
X129901010Y-102221845D02*
G01*
X129483270Y-102430716D01*
X129500485Y-102110676D01*
X129634649Y-102043594D01*
X129901010Y-102221845D01*
G37*
G04 #@! TD.AperFunction*
G04 #@! TA.AperFunction,Conductor*
G04 #@! TO.N,ID_SCL*
G36*
X128779000Y-99165000D02*
G01*
X128679000Y-99165000D01*
X128631250Y-98805000D01*
X128826750Y-98805000D01*
X128779000Y-99165000D01*
G37*
G04 #@! TD.AperFunction*
G04 #@! TA.AperFunction,Conductor*
G04 #@! TO.N,D2_N*
G36*
X126768000Y-101765000D02*
G01*
X126690000Y-101765000D01*
X126631250Y-101405000D01*
X126826750Y-101405000D01*
X126768000Y-101765000D01*
G37*
G04 #@! TD.AperFunction*
G04 #@! TA.AperFunction,Conductor*
G04 #@! TO.N,GND*
G36*
X130003999Y-98149999D02*
G01*
X129854000Y-98149999D01*
X129695249Y-97682499D01*
X130162750Y-97682499D01*
X130003999Y-98149999D01*
G37*
G04 #@! TD.AperFunction*
G04 #@! TA.AperFunction,Conductor*
G04 #@! TO.N,D1_P*
G36*
X127226750Y-98595000D02*
G01*
X127031250Y-98595000D01*
X127090000Y-98235000D01*
X127168000Y-98235000D01*
X127226750Y-98595000D01*
G37*
G04 #@! TD.AperFunction*
G04 #@! TA.AperFunction,Conductor*
G04 #@! TO.N,GND*
G36*
X124026750Y-101195000D02*
G01*
X123831250Y-101195000D01*
X123854000Y-100835000D01*
X124004000Y-100835000D01*
X124026750Y-101195000D01*
G37*
G04 #@! TD.AperFunction*
G04 #@! TA.AperFunction,Conductor*
G36*
X126562750Y-99917500D02*
G01*
X126095250Y-99917500D01*
X126253999Y-99562500D01*
X126404000Y-99562500D01*
X126562750Y-99917500D01*
G37*
G04 #@! TD.AperFunction*
G04 #@! TA.AperFunction,Conductor*
G36*
X127604000Y-99165000D02*
G01*
X127454000Y-99165000D01*
X127431250Y-98805000D01*
X127626749Y-98805000D01*
X127604000Y-99165000D01*
G37*
G04 #@! TD.AperFunction*
G04 #@! TA.AperFunction,Conductor*
G36*
X125204000Y-100437500D02*
G01*
X125054000Y-100437500D01*
X124895250Y-100082500D01*
X125362750Y-100082500D01*
X125204000Y-100437500D01*
G37*
G04 #@! TD.AperFunction*
G04 #@! TA.AperFunction,Conductor*
G36*
X124004000Y-99165000D02*
G01*
X123854000Y-99165000D01*
X123831250Y-98805000D01*
X124026750Y-98805000D01*
X124004000Y-99165000D01*
G37*
G04 #@! TD.AperFunction*
G04 #@! TA.AperFunction,Conductor*
G36*
X133486500Y-99925000D02*
G01*
X133486500Y-100075000D01*
X132955500Y-100935000D01*
X132955500Y-99065000D01*
X133486500Y-99925000D01*
G37*
G04 #@! TD.AperFunction*
G04 #@! TA.AperFunction,Conductor*
G36*
X129603999Y-101765000D02*
G01*
X129454000Y-101765000D01*
X129431250Y-101405000D01*
X129626749Y-101405000D01*
X129603999Y-101765000D01*
G37*
G04 #@! TD.AperFunction*
G04 #@! TA.AperFunction,Conductor*
G04 #@! TO.N,ID_SDA*
G36*
X129179000Y-99150000D02*
G01*
X129078999Y-99150000D01*
X129031250Y-98805000D01*
X129226749Y-98805000D01*
X129179000Y-99150000D01*
G37*
G04 #@! TD.AperFunction*
G04 #@! TA.AperFunction,Conductor*
G04 #@! TO.N,GND*
G36*
X133879000Y-101162500D02*
G01*
X133728999Y-101162500D01*
X133434249Y-100787500D01*
X134173750Y-100787500D01*
X133879000Y-101162500D01*
G37*
G04 #@! TD.AperFunction*
G04 #@! TA.AperFunction,Conductor*
G36*
X123124476Y-100152037D02*
G01*
X122856711Y-100454035D01*
X122714409Y-100406600D01*
X122681395Y-100004343D01*
X123124476Y-100152037D01*
G37*
G04 #@! TD.AperFunction*
G04 #@! TA.AperFunction,Conductor*
G04 #@! TO.N,D0_P*
G36*
X125968000Y-101765000D02*
G01*
X125890000Y-101765000D01*
X125831250Y-101405000D01*
X126026750Y-101405000D01*
X125968000Y-101765000D01*
G37*
G04 #@! TD.AperFunction*
G04 #@! TA.AperFunction,Conductor*
G04 #@! TO.N,GND*
G36*
X124004000Y-100437500D02*
G01*
X123854000Y-100437500D01*
X123695250Y-100082500D01*
X124162750Y-100082500D01*
X124004000Y-100437500D01*
G37*
G04 #@! TD.AperFunction*
G04 #@! TA.AperFunction,Conductor*
G36*
X133018797Y-102352717D02*
G01*
X133009202Y-102502410D01*
X132642102Y-102574423D01*
X132663897Y-102234423D01*
X133018797Y-102352717D01*
G37*
G04 #@! TD.AperFunction*
G04 #@! TA.AperFunction,Conductor*
G36*
X128426750Y-101195000D02*
G01*
X128231250Y-101195000D01*
X128254000Y-100835000D01*
X128404000Y-100835000D01*
X128426750Y-101195000D01*
G37*
G04 #@! TD.AperFunction*
G04 #@! TA.AperFunction,Conductor*
G36*
X126404000Y-100437500D02*
G01*
X126253999Y-100437500D01*
X126095250Y-100082500D01*
X126562750Y-100082500D01*
X126404000Y-100437500D01*
G37*
G04 #@! TD.AperFunction*
G04 #@! TA.AperFunction,Conductor*
G36*
X133673499Y-100356250D02*
G01*
X133244000Y-100325000D01*
X133244000Y-100175000D01*
X133673499Y-100143750D01*
X133673499Y-100356250D01*
G37*
G04 #@! TD.AperFunction*
G04 #@! TA.AperFunction,Conductor*
G36*
X130026750Y-98595000D02*
G01*
X129831250Y-98595000D01*
X129854000Y-98235000D01*
X130003999Y-98235000D01*
X130026750Y-98595000D01*
G37*
G04 #@! TD.AperFunction*
G04 #@! TA.AperFunction,Conductor*
G36*
X126404000Y-99165000D02*
G01*
X126253999Y-99165000D01*
X126231249Y-98805000D01*
X126426750Y-98805000D01*
X126404000Y-99165000D01*
G37*
G04 #@! TD.AperFunction*
G04 #@! TA.AperFunction,Conductor*
G04 #@! TO.N,D1_N*
G36*
X126826750Y-98595000D02*
G01*
X126631250Y-98595000D01*
X126690000Y-98235000D01*
X126768000Y-98235000D01*
X126826750Y-98595000D01*
G37*
G04 #@! TD.AperFunction*
G04 #@! TA.AperFunction,Conductor*
G04 #@! TO.N,3V3_MOD*
G36*
X132138772Y-102337630D02*
G01*
X131747772Y-102342369D01*
X131888791Y-101970605D01*
X131988784Y-101969394D01*
X132138772Y-102337630D01*
G37*
G04 #@! TD.AperFunction*
G04 #@! TA.AperFunction,Conductor*
G04 #@! TO.N,D2_P*
G36*
X127168000Y-101765000D02*
G01*
X127090000Y-101765000D01*
X127031250Y-101405000D01*
X127226750Y-101405000D01*
X127168000Y-101765000D01*
G37*
G04 #@! TD.AperFunction*
G04 #@! TA.AperFunction,Conductor*
G04 #@! TO.N,CK_P*
G36*
X126026750Y-98595000D02*
G01*
X125831250Y-98595000D01*
X125890000Y-98235000D01*
X125968000Y-98235000D01*
X126026750Y-98595000D01*
G37*
G04 #@! TD.AperFunction*
G04 #@! TA.AperFunction,Conductor*
G04 #@! TO.N,GND*
G36*
X127762750Y-99917500D02*
G01*
X127295250Y-99917500D01*
X127454000Y-99562500D01*
X127604000Y-99562500D01*
X127762750Y-99917500D01*
G37*
G04 #@! TD.AperFunction*
G04 #@! TA.AperFunction,Conductor*
G36*
X124162750Y-99917500D02*
G01*
X123695250Y-99917500D01*
X123854000Y-99562500D01*
X124004000Y-99562500D01*
X124162750Y-99917500D01*
G37*
G04 #@! TD.AperFunction*
G04 #@! TA.AperFunction,Conductor*
G36*
X128404000Y-99165000D02*
G01*
X128254000Y-99165000D01*
X128231250Y-98805000D01*
X128426750Y-98805000D01*
X128404000Y-99165000D01*
G37*
G04 #@! TD.AperFunction*
G04 #@! TA.AperFunction,Conductor*
G04 #@! TO.N,D0_N*
G36*
X125568000Y-101765000D02*
G01*
X125490000Y-101765000D01*
X125431250Y-101405000D01*
X125626749Y-101405000D01*
X125568000Y-101765000D01*
G37*
G04 #@! TD.AperFunction*
G04 #@! TA.AperFunction,Conductor*
G04 #@! TO.N,GND*
G36*
X133266822Y-102677744D02*
G01*
X132832133Y-102491059D01*
X132841729Y-102341367D01*
X133296695Y-102211711D01*
X133266822Y-102677744D01*
G37*
G04 #@! TD.AperFunction*
G04 #@! TA.AperFunction,Conductor*
G04 #@! TO.N,3V3_MOD*
G36*
X129226749Y-101195000D02*
G01*
X129031250Y-101195000D01*
X129078999Y-100850000D01*
X129179000Y-100850000D01*
X129226749Y-101195000D01*
G37*
G04 #@! TD.AperFunction*
G04 #@! TA.AperFunction,Conductor*
G36*
X131793500Y-100856250D02*
G01*
X131364000Y-100800000D01*
X131364000Y-100700000D01*
X131793500Y-100643750D01*
X131793500Y-100856250D01*
G37*
G04 #@! TD.AperFunction*
G04 #@! TA.AperFunction,Conductor*
G04 #@! TO.N,GND*
G36*
X125362750Y-99917500D02*
G01*
X124895250Y-99917500D01*
X125054000Y-99562500D01*
X125204000Y-99562500D01*
X125362750Y-99917500D01*
G37*
G04 #@! TD.AperFunction*
G04 #@! TA.AperFunction,Conductor*
G36*
X125226750Y-101195000D02*
G01*
X125031250Y-101195000D01*
X125054000Y-100835000D01*
X125204000Y-100835000D01*
X125226750Y-101195000D01*
G37*
G04 #@! TD.AperFunction*
G04 #@! TA.AperFunction,Conductor*
G36*
X122826750Y-101195000D02*
G01*
X122631250Y-101195000D01*
X122654000Y-100835000D01*
X122804000Y-100835000D01*
X122826750Y-101195000D01*
G37*
G04 #@! TD.AperFunction*
G04 #@! TA.AperFunction,Conductor*
G36*
X132484000Y-100200000D02*
G01*
X132484000Y-100300000D01*
X132054500Y-100356250D01*
X132054500Y-100143750D01*
X132484000Y-100200000D01*
G37*
G04 #@! TD.AperFunction*
G04 #@! TA.AperFunction,Conductor*
G36*
X134037750Y-101367500D02*
G01*
X133570249Y-101367500D01*
X133728999Y-100962500D01*
X133879000Y-100962500D01*
X134037750Y-101367500D01*
G37*
G04 #@! TD.AperFunction*
G04 #@! TA.AperFunction,Conductor*
G36*
X133486500Y-99925000D02*
G01*
X133486500Y-100075000D01*
X132955500Y-100935000D01*
X132955500Y-99065000D01*
X133486500Y-99925000D01*
G37*
G04 #@! TD.AperFunction*
G04 #@! TA.AperFunction,Conductor*
G36*
X133673499Y-99856250D02*
G01*
X133244000Y-99825000D01*
X133244000Y-99675000D01*
X133673499Y-99643750D01*
X133673499Y-99856250D01*
G37*
G04 #@! TD.AperFunction*
G04 #@! TA.AperFunction,Conductor*
G36*
X133879000Y-99037500D02*
G01*
X133728999Y-99037500D01*
X133570249Y-98632500D01*
X134037750Y-98632500D01*
X133879000Y-99037500D01*
G37*
G04 #@! TD.AperFunction*
G04 #@! TA.AperFunction,Conductor*
G36*
X134173750Y-99212500D02*
G01*
X133434249Y-99212500D01*
X133728999Y-98837500D01*
X133879000Y-98837500D01*
X134173750Y-99212500D01*
G37*
G04 #@! TD.AperFunction*
G04 #@! TA.AperFunction,Conductor*
G36*
X127626749Y-101195000D02*
G01*
X127431250Y-101195000D01*
X127454000Y-100835000D01*
X127604000Y-100835000D01*
X127626749Y-101195000D01*
G37*
G04 #@! TD.AperFunction*
G04 #@! TA.AperFunction,Conductor*
G04 #@! TO.N,CK_N*
G36*
X125626749Y-98595000D02*
G01*
X125431250Y-98595000D01*
X125490000Y-98235000D01*
X125568000Y-98235000D01*
X125626749Y-98595000D01*
G37*
G04 #@! TD.AperFunction*
G04 #@! TA.AperFunction,Conductor*
G04 #@! TO.N,GND*
G36*
X129957514Y-102110676D02*
G01*
X129974729Y-102430716D01*
X129556989Y-102221845D01*
X129823350Y-102043594D01*
X129957514Y-102110676D01*
G37*
G04 #@! TD.AperFunction*
G04 #@! TD*
D11*
G04 #@! TO.P,J1,1*
G04 #@! TO.N,D2_P*
X104500000Y-102900000D03*
G04 #@! TO.P,J1,2*
G04 #@! TO.N,GND*
X104000000Y-97100000D03*
G04 #@! TO.P,J1,3*
G04 #@! TO.N,D2_N*
X103500000Y-102900000D03*
G04 #@! TO.P,J1,4*
G04 #@! TO.N,D1_P*
X103000000Y-97100000D03*
G04 #@! TO.P,J1,5*
G04 #@! TO.N,GND*
X102500000Y-102900000D03*
G04 #@! TO.P,J1,6*
G04 #@! TO.N,D1_N*
X102000000Y-97100000D03*
G04 #@! TO.P,J1,7*
G04 #@! TO.N,D0_P*
X101500000Y-102900000D03*
G04 #@! TO.P,J1,8*
G04 #@! TO.N,GND*
X101000000Y-97100000D03*
G04 #@! TO.P,J1,9*
G04 #@! TO.N,D0_N*
X100500000Y-102900000D03*
G04 #@! TO.P,J1,10*
G04 #@! TO.N,CK_P*
X100000000Y-97100000D03*
G04 #@! TO.P,J1,11*
G04 #@! TO.N,GND*
X99500000Y-102900000D03*
G04 #@! TO.P,J1,12*
G04 #@! TO.N,CK_N*
X99000000Y-97100000D03*
G04 #@! TO.P,J1,13*
G04 #@! TO.N,N/C*
X98500000Y-102900000D03*
G04 #@! TO.P,J1,14*
X98000000Y-97100000D03*
G04 #@! TO.P,J1,15*
G04 #@! TO.N,DDC_SCL*
X97500000Y-102900000D03*
G04 #@! TO.P,J1,16*
G04 #@! TO.N,DDC_SDA*
X97000000Y-97100000D03*
G04 #@! TO.P,J1,17*
G04 #@! TO.N,GND*
X96500000Y-102900000D03*
G04 #@! TO.P,J1,18*
G04 #@! TO.N,VBUS*
X96000000Y-97100000D03*
G04 #@! TO.P,J1,19*
G04 #@! TO.N,HPD*
X95500000Y-102900000D03*
D12*
G04 #@! TO.P,J1,S*
G04 #@! TO.N,GND*
X107850000Y-101600000D03*
X107850000Y-98400000D03*
X92150000Y-101600000D03*
X92150000Y-98400000D03*
G04 #@! TD*
D13*
G04 #@! TO.P,U1,1*
G04 #@! TO.N,GND*
X133804000Y-100750000D03*
G04 #@! TO.P,U1,2*
X133804000Y-100250000D03*
G04 #@! TO.P,U1,3*
X133804000Y-99750000D03*
G04 #@! TO.P,U1,4*
X133804000Y-99250000D03*
G04 #@! TO.P,U1,5*
G04 #@! TO.N,ID_SDA*
X131924000Y-99250000D03*
G04 #@! TO.P,U1,6*
G04 #@! TO.N,ID_SCL*
X131924000Y-99750000D03*
G04 #@! TO.P,U1,7*
G04 #@! TO.N,GND*
X131924000Y-100250000D03*
G04 #@! TO.P,U1,8*
G04 #@! TO.N,3V3_MOD*
X131924000Y-100750000D03*
D14*
G04 #@! TO.P,U1,9*
G04 #@! TO.N,GND*
X132864000Y-100000000D03*
G04 #@! TD*
D15*
G04 #@! TO.P,J2,1*
G04 #@! TO.N,VBUS*
X120329000Y-98700000D03*
G04 #@! TO.P,J2,2*
X120329000Y-101300000D03*
G04 #@! TO.P,J2,3*
X120729000Y-98700000D03*
G04 #@! TO.P,J2,4*
X120729000Y-101300000D03*
G04 #@! TO.P,J2,5*
X121129000Y-98700000D03*
G04 #@! TO.P,J2,6*
X121129000Y-101300000D03*
G04 #@! TO.P,J2,7*
X121529000Y-98700000D03*
G04 #@! TO.P,J2,8*
X121529000Y-101300000D03*
G04 #@! TO.P,J2,9*
X121929000Y-98700000D03*
G04 #@! TO.P,J2,10*
X121929000Y-101300000D03*
G04 #@! TO.P,J2,11*
X122329000Y-98700000D03*
G04 #@! TO.P,J2,12*
X122329000Y-101300000D03*
G04 #@! TO.P,J2,13*
G04 #@! TO.N,GND*
X122729000Y-98700000D03*
G04 #@! TO.P,J2,14*
X122729000Y-101300000D03*
G04 #@! TO.P,J2,15*
G04 #@! TO.N,N/C*
X123129000Y-98700000D03*
G04 #@! TO.P,J2,16*
G04 #@! TO.N,HPD*
X123129000Y-101300000D03*
G04 #@! TO.P,J2,17*
G04 #@! TO.N,N/C*
X123529000Y-98700000D03*
G04 #@! TO.P,J2,18*
G04 #@! TO.N,DDC_SCL*
X123529000Y-101300000D03*
G04 #@! TO.P,J2,19*
G04 #@! TO.N,GND*
X123929000Y-98700000D03*
G04 #@! TO.P,J2,20*
X123929000Y-101300000D03*
G04 #@! TO.P,J2,21*
G04 #@! TO.N,N/C*
X124329000Y-98700000D03*
G04 #@! TO.P,J2,22*
X124329000Y-101300000D03*
G04 #@! TO.P,J2,23*
G04 #@! TO.N,DDC_SDA*
X124729000Y-98700000D03*
G04 #@! TO.P,J2,24*
G04 #@! TO.N,N/C*
X124729000Y-101300000D03*
G04 #@! TO.P,J2,25*
G04 #@! TO.N,GND*
X125129000Y-98700000D03*
G04 #@! TO.P,J2,26*
X125129000Y-101300000D03*
G04 #@! TO.P,J2,27*
G04 #@! TO.N,CK_N*
X125529000Y-98700000D03*
G04 #@! TO.P,J2,28*
G04 #@! TO.N,D0_N*
X125529000Y-101300000D03*
G04 #@! TO.P,J2,29*
G04 #@! TO.N,CK_P*
X125929000Y-98700000D03*
G04 #@! TO.P,J2,30*
G04 #@! TO.N,D0_P*
X125929000Y-101300000D03*
G04 #@! TO.P,J2,31*
G04 #@! TO.N,GND*
X126329000Y-98700000D03*
G04 #@! TO.P,J2,32*
X126329000Y-101300000D03*
G04 #@! TO.P,J2,33*
G04 #@! TO.N,D1_N*
X126729000Y-98700000D03*
G04 #@! TO.P,J2,34*
G04 #@! TO.N,D2_N*
X126729000Y-101300000D03*
G04 #@! TO.P,J2,35*
G04 #@! TO.N,D1_P*
X127129000Y-98700000D03*
G04 #@! TO.P,J2,36*
G04 #@! TO.N,D2_P*
X127129000Y-101300000D03*
G04 #@! TO.P,J2,37*
G04 #@! TO.N,GND*
X127529000Y-98700000D03*
G04 #@! TO.P,J2,38*
X127529000Y-101300000D03*
G04 #@! TO.P,J2,39*
G04 #@! TO.N,N/C*
X127929000Y-98700000D03*
G04 #@! TO.P,J2,40*
X127929000Y-101300000D03*
G04 #@! TO.P,J2,41*
G04 #@! TO.N,GND*
X128329000Y-98700000D03*
G04 #@! TO.P,J2,42*
X128329000Y-101300000D03*
G04 #@! TO.P,J2,43*
G04 #@! TO.N,ID_SCL*
X128729000Y-98700000D03*
G04 #@! TO.P,J2,44*
G04 #@! TO.N,GND*
X128729000Y-101300000D03*
G04 #@! TO.P,J2,45*
G04 #@! TO.N,ID_SDA*
X129129000Y-98700000D03*
G04 #@! TO.P,J2,46*
G04 #@! TO.N,3V3_MOD*
X129129000Y-101300000D03*
G04 #@! TO.P,J2,47*
G04 #@! TO.N,N/C*
X129529000Y-98700000D03*
G04 #@! TO.P,J2,48*
G04 #@! TO.N,GND*
X129529000Y-101300000D03*
G04 #@! TO.P,J2,49*
X129929000Y-98700000D03*
G04 #@! TO.P,J2,50*
X129929000Y-101300000D03*
G04 #@! TD*
D16*
G04 #@! TO.P,C1,1*
G04 #@! TO.N,3V3_MOD*
X131944000Y-102400000D03*
G04 #@! TO.P,C1,2*
G04 #@! TO.N,GND*
X132584000Y-102400000D03*
G04 #@! TD*
D17*
G04 #@! TO.N,GND*
X93919596Y-100252572D03*
X122929000Y-100000000D03*
X105109783Y-97100000D03*
X125129000Y-100000000D03*
X128228999Y-100000000D03*
X126329000Y-100000000D03*
X129729000Y-102400000D03*
X123929000Y-100000000D03*
X133364000Y-102450000D03*
X133804000Y-98550000D03*
X127529000Y-100000000D03*
X131202499Y-98050375D03*
X129929000Y-97600000D03*
X133804000Y-101450000D03*
G04 #@! TD*
D18*
G04 #@! TO.N,D2_P*
X119683000Y-102547000D02*
X127129000Y-102547000D01*
D19*
X109750000Y-102215000D02*
X109850000Y-102230000D01*
D18*
X119064000Y-102178000D02*
X119081691Y-102178000D01*
D20*
X109850000Y-102230000D02*
X118964000Y-102230000D01*
D18*
X127129000Y-102547000D02*
X127129000Y-101300000D01*
D21*
X104578700Y-102249000D02*
X104578700Y-102293200D01*
X104578700Y-102293200D02*
X105334400Y-103048900D01*
X105334400Y-103048900D02*
X108416100Y-103048900D01*
X104552500Y-102222800D02*
X104578700Y-102249000D01*
X104500000Y-102900000D02*
X104500000Y-102221300D01*
D18*
X119081691Y-102178000D02*
X119450691Y-102547000D01*
D21*
X108416100Y-103048900D02*
X109250000Y-102215000D01*
D18*
X119450691Y-102547000D02*
X119683000Y-102547000D01*
X118964000Y-102230000D02*
X119064000Y-102178000D01*
D21*
X104500000Y-102221300D02*
X104501500Y-102222800D01*
D19*
X109250000Y-102215000D02*
X109750000Y-102215000D01*
D21*
X104501500Y-102222800D02*
X104552500Y-102222800D01*
D22*
G04 #@! TO.N,GND*
X128329000Y-100600000D02*
X128228999Y-100000000D01*
D23*
X128728999Y-100250000D02*
X131924000Y-100250000D01*
D22*
X129929000Y-101300000D02*
X129929000Y-102000000D01*
X127529000Y-101300000D02*
X127529000Y-100600000D01*
X128329000Y-101300000D02*
X128329000Y-100600000D01*
X126329000Y-98700000D02*
X126329000Y-99400000D01*
X125129000Y-99400000D02*
X125129000Y-100000000D01*
X123929000Y-101300000D02*
X123929000Y-100600000D01*
X128329000Y-99400000D02*
X128228999Y-100000000D01*
X129929000Y-102000000D02*
X129729000Y-102400000D01*
X125129000Y-101300000D02*
X125129000Y-100600000D01*
X129929000Y-98700000D02*
X129929000Y-97600000D01*
X125129000Y-100600000D02*
X125129000Y-100000000D01*
X127529000Y-98700000D02*
X127529000Y-99400000D01*
X123929000Y-98700000D02*
X123929000Y-99400000D01*
X122729000Y-98700000D02*
X122729000Y-99400000D01*
X128329000Y-98700000D02*
X128329000Y-99400000D01*
X122729000Y-101300000D02*
X122729000Y-100600000D01*
D23*
X131924000Y-100250000D02*
X132864000Y-100250000D01*
X128728999Y-101300000D02*
X128728999Y-100250000D01*
D22*
X133804000Y-99750000D02*
X132864000Y-99750000D01*
X123929000Y-99400000D02*
X123929000Y-100000000D01*
X132584000Y-102400000D02*
X133364000Y-102450000D01*
X126329000Y-100600000D02*
X126329000Y-100000000D01*
X122729000Y-99400000D02*
X122929000Y-100000000D01*
X133804000Y-99250000D02*
X133804000Y-98550000D01*
X123929000Y-100600000D02*
X123929000Y-100000000D01*
X126329000Y-101300000D02*
X126329000Y-100600000D01*
X127529000Y-99400000D02*
X127529000Y-100000000D01*
X122729000Y-100600000D02*
X122929000Y-100000000D01*
X133804000Y-100250000D02*
X132864000Y-100250000D01*
X125129000Y-98700000D02*
X125129000Y-99400000D01*
X129529000Y-101300000D02*
X129529000Y-102000000D01*
X127529000Y-100600000D02*
X127529000Y-100000000D01*
X126329000Y-99400000D02*
X126329000Y-100000000D01*
X133804000Y-100750000D02*
X133804000Y-101450000D01*
X129529000Y-102000000D02*
X129729000Y-102400000D01*
D18*
G04 #@! TO.N,D2_N*
X126729000Y-102391000D02*
X126729000Y-101300000D01*
X119515308Y-102391000D02*
X119683000Y-102391000D01*
D19*
X109250000Y-101985000D02*
X109750000Y-101985000D01*
D21*
X103500000Y-102900000D02*
X103500000Y-102221300D01*
X103500000Y-102221300D02*
X103727200Y-101994100D01*
D18*
X118964000Y-101970000D02*
X119064000Y-102022000D01*
D20*
X109850000Y-101970000D02*
X118964000Y-101970000D01*
D19*
X109750000Y-101985000D02*
X109850000Y-101970000D01*
D18*
X119064000Y-102022000D02*
X119146308Y-102022000D01*
X119146308Y-102022000D02*
X119515308Y-102391000D01*
X119683000Y-102391000D02*
X126729000Y-102391000D01*
D21*
X106108100Y-102875200D02*
X108313600Y-102875200D01*
X103727200Y-101994100D02*
X105227000Y-101994100D01*
X109203800Y-101985000D02*
X109250000Y-101985000D01*
X108313600Y-102875200D02*
X109203800Y-101985000D01*
X105227000Y-101994100D02*
X106108100Y-102875200D01*
D18*
G04 #@! TO.N,D1_P*
X119827000Y-97609000D02*
X127129000Y-97609000D01*
D19*
X109250000Y-98085000D02*
X109750000Y-98085000D01*
D20*
X109850000Y-98070000D02*
X118964000Y-98070000D01*
D21*
X109250000Y-97703400D02*
X107967900Y-96421300D01*
D19*
X109750000Y-98085000D02*
X109850000Y-98070000D01*
D18*
X119594691Y-97609000D02*
X119827000Y-97609000D01*
X119081691Y-98122000D02*
X119594691Y-97609000D01*
X118964000Y-98070000D02*
X119064000Y-98122000D01*
X127129000Y-97609000D02*
X127129000Y-98700000D01*
X119064000Y-98122000D02*
X119081691Y-98122000D01*
D21*
X107967900Y-96421300D02*
X103000000Y-96421300D01*
X103000000Y-97100000D02*
X103000000Y-96421300D01*
X109250000Y-98085000D02*
X109250000Y-97703400D01*
G04 #@! TO.N,D1_N*
X102000000Y-97100000D02*
X102000000Y-97778700D01*
D18*
X119064000Y-98278000D02*
X119146308Y-98278000D01*
X119146308Y-98278000D02*
X119659308Y-97765000D01*
D21*
X108876100Y-97575100D02*
X108274900Y-96973900D01*
X106620400Y-97778700D02*
X102000000Y-97778700D01*
D18*
X119827000Y-97765000D02*
X126729000Y-97765000D01*
D19*
X109750000Y-98315000D02*
X109850000Y-98330000D01*
D21*
X107425200Y-96973900D02*
X106620400Y-97778700D01*
X109250000Y-98315000D02*
X109210300Y-98315000D01*
D18*
X126729000Y-97765000D02*
X126729000Y-98700000D01*
D21*
X108876100Y-97980800D02*
X108876100Y-97575100D01*
D18*
X119659308Y-97765000D02*
X119827000Y-97765000D01*
X118964000Y-98330000D02*
X119064000Y-98278000D01*
D21*
X108274900Y-96973900D02*
X107425200Y-96973900D01*
X109210300Y-98315000D02*
X108876100Y-97980800D01*
D19*
X109250000Y-98315000D02*
X109750000Y-98315000D01*
D20*
X109850000Y-98330000D02*
X118964000Y-98330000D01*
D19*
G04 #@! TO.N,D0_P*
X109250000Y-101535000D02*
X109750000Y-101535000D01*
X109750000Y-101535000D02*
X109850000Y-101550000D01*
D18*
X119064000Y-101498000D02*
X119081691Y-101498000D01*
D21*
X106181800Y-102693700D02*
X105308500Y-101820400D01*
X101500000Y-102900000D02*
X101500000Y-102221300D01*
X108225400Y-102693700D02*
X106181800Y-102693700D01*
D18*
X120051000Y-102235000D02*
X125929000Y-102235000D01*
X125929000Y-102235000D02*
X125929000Y-101300000D01*
D20*
X109850000Y-101550000D02*
X118964000Y-101550000D01*
D21*
X109250000Y-101535000D02*
X109250000Y-101669100D01*
X101900900Y-101820400D02*
X101500000Y-102221300D01*
D18*
X119818691Y-102235000D02*
X120051000Y-102235000D01*
D21*
X109250000Y-101669100D02*
X108225400Y-102693700D01*
D18*
X119081691Y-101498000D02*
X119818691Y-102235000D01*
X118964000Y-101550000D02*
X119064000Y-101498000D01*
D21*
X105308500Y-101820400D02*
X101900900Y-101820400D01*
D18*
G04 #@! TO.N,D0_N*
X118964000Y-101290000D02*
X119064000Y-101342000D01*
X119064000Y-101342000D02*
X119146308Y-101342000D01*
D21*
X100500000Y-102900000D02*
X100500000Y-102221300D01*
D18*
X119146308Y-101342000D02*
X119883308Y-102079000D01*
D21*
X108466300Y-100521300D02*
X102200000Y-100521300D01*
X109250000Y-101305000D02*
X108466300Y-100521300D01*
D19*
X109750000Y-101305000D02*
X109850000Y-101290000D01*
D21*
X102200000Y-100521300D02*
X100500000Y-102221300D01*
D20*
X109850000Y-101290000D02*
X118964000Y-101290000D01*
D18*
X120051000Y-102079000D02*
X125529000Y-102079000D01*
X125529000Y-102079000D02*
X125529000Y-101300000D01*
X119883308Y-102079000D02*
X120051000Y-102079000D01*
D19*
X109250000Y-101305000D02*
X109750000Y-101305000D01*
D18*
G04 #@! TO.N,CK_P*
X119962691Y-97921000D02*
X120195000Y-97921000D01*
D21*
X106664000Y-97980700D02*
X100202000Y-97980700D01*
X109250000Y-98765000D02*
X108702400Y-98217400D01*
D20*
X109850000Y-98750000D02*
X118964000Y-98750000D01*
D21*
X108203000Y-97147600D02*
X107497100Y-97147600D01*
X100000000Y-97100000D02*
X100000000Y-97778700D01*
D18*
X119064000Y-98802000D02*
X119081691Y-98802000D01*
D21*
X100202000Y-97980700D02*
X100000000Y-97778700D01*
D18*
X119081691Y-98802000D02*
X119962691Y-97921000D01*
X120195000Y-97921000D02*
X125929000Y-97921000D01*
D21*
X108702400Y-97647000D02*
X108203000Y-97147600D01*
D18*
X125929000Y-97921000D02*
X125929000Y-98700000D01*
D21*
X108702400Y-98217400D02*
X108702400Y-97647000D01*
D18*
X118964000Y-98750000D02*
X119064000Y-98802000D01*
D19*
X109250000Y-98765000D02*
X109750000Y-98765000D01*
D21*
X107497100Y-97147600D02*
X106664000Y-97980700D01*
D19*
X109750000Y-98765000D02*
X109850000Y-98750000D01*
D18*
G04 #@! TO.N,CK_N*
X125529000Y-98077000D02*
X125529000Y-98700000D01*
X120027308Y-98077000D02*
X120195000Y-98077000D01*
D21*
X108528700Y-98347100D02*
X109176600Y-98995000D01*
D18*
X120195000Y-98077000D02*
X125529000Y-98077000D01*
D21*
X108528700Y-97718900D02*
X108528700Y-98347100D01*
X109176600Y-98995000D02*
X109250000Y-98995000D01*
X107569000Y-97321300D02*
X108131100Y-97321300D01*
X99000000Y-97100000D02*
X99000000Y-97778700D01*
X106735900Y-98154400D02*
X107569000Y-97321300D01*
D18*
X119146308Y-98958000D02*
X120027308Y-98077000D01*
D20*
X109850000Y-99010000D02*
X118964000Y-99010000D01*
D21*
X99000000Y-97778700D02*
X99375700Y-98154400D01*
D18*
X119064000Y-98958000D02*
X119146308Y-98958000D01*
D21*
X108131100Y-97321300D02*
X108528700Y-97718900D01*
X99375700Y-98154400D02*
X106735900Y-98154400D01*
D19*
X109750000Y-98995000D02*
X109850000Y-99010000D01*
X109250000Y-98995000D02*
X109750000Y-98995000D01*
D18*
X118964000Y-99010000D02*
X119064000Y-98958000D01*
G04 #@! TO.N,DDC_SCL*
X119064000Y-101050000D02*
X119114000Y-101050000D01*
X118964000Y-101050000D02*
X119064000Y-101050000D01*
D23*
X109250000Y-101050000D02*
X109750000Y-101050000D01*
D21*
X99373700Y-100347600D02*
X97500000Y-102221300D01*
D23*
X109750000Y-101050000D02*
X109850000Y-101050000D01*
D21*
X109250000Y-101050000D02*
X108547600Y-100347600D01*
D18*
X123529000Y-101923000D02*
X123529000Y-101300000D01*
X120187000Y-101923000D02*
X123529000Y-101923000D01*
X119987000Y-101923000D02*
X120187000Y-101923000D01*
D23*
X109850000Y-101050000D02*
X118964000Y-101050000D01*
D18*
X119114000Y-101050000D02*
X119987000Y-101923000D01*
D21*
X108547600Y-100347600D02*
X99373700Y-100347600D01*
X97500000Y-102900000D02*
X97500000Y-102221300D01*
D23*
G04 #@! TO.N,DDC_SDA*
X109750000Y-99250000D02*
X109850000Y-99250000D01*
D18*
X124729000Y-98233000D02*
X124729000Y-98700000D01*
D21*
X109072300Y-99497900D02*
X98719200Y-99497900D01*
X97000000Y-97100000D02*
X97000000Y-97778700D01*
D18*
X119064000Y-99250000D02*
X119114000Y-99250000D01*
X119114000Y-99250000D02*
X120131000Y-98233000D01*
X120330999Y-98233000D02*
X124729000Y-98233000D01*
D21*
X109320200Y-99250000D02*
X109072300Y-99497900D01*
D18*
X118964000Y-99250000D02*
X119064000Y-99250000D01*
D23*
X109850000Y-99250000D02*
X118964000Y-99250000D01*
D18*
X120131000Y-98233000D02*
X120330999Y-98233000D01*
D21*
X98719200Y-99497900D02*
X97000000Y-97778700D01*
D23*
X109250000Y-99250000D02*
X109750000Y-99250000D01*
D24*
G04 #@! TO.N,VBUS*
X121129000Y-98700000D02*
X121129000Y-100000000D01*
X121129000Y-101300000D02*
X121129000Y-100000000D01*
D25*
X119729000Y-100000000D02*
X122029000Y-100000000D01*
D24*
X121529000Y-98700000D02*
X121529000Y-100000000D01*
X120329000Y-98700000D02*
X120329000Y-100000000D01*
D26*
X97975500Y-99877200D02*
X96000000Y-97901700D01*
D24*
X120729000Y-101300000D02*
X120729000Y-100000000D01*
D26*
X108927200Y-99877200D02*
X97975500Y-99877200D01*
X109050000Y-100000000D02*
X108927200Y-99877200D01*
D24*
X122329000Y-101300000D02*
X122329000Y-100000000D01*
X120329000Y-101300000D02*
X120329000Y-100000000D01*
D26*
X109050000Y-100000000D02*
X120029000Y-100000000D01*
D24*
X122329000Y-98700000D02*
X122329000Y-100000000D01*
D26*
X96000000Y-97100000D02*
X96000000Y-97901700D01*
D24*
X121929000Y-101300000D02*
X121929000Y-100000000D01*
X121529000Y-101300000D02*
X121529000Y-100000000D01*
X121929000Y-98700000D02*
X121929000Y-100000000D01*
X120729000Y-98700000D02*
X120729000Y-100000000D01*
D23*
G04 #@! TO.N,HPD*
X109250000Y-100750000D02*
X109750000Y-100750000D01*
D18*
X119064000Y-100750000D02*
X119114000Y-100750000D01*
X119114000Y-100750000D02*
X120131000Y-101767000D01*
D21*
X108673900Y-100173900D02*
X97547400Y-100173900D01*
D18*
X120131000Y-101767000D02*
X120330999Y-101767000D01*
D23*
X109750000Y-100750000D02*
X109850000Y-100750000D01*
D18*
X120330999Y-101767000D02*
X123129000Y-101767000D01*
D21*
X109250000Y-100750000D02*
X108673900Y-100173900D01*
D23*
X109850000Y-100750000D02*
X118964000Y-100750000D01*
D21*
X97547400Y-100173900D02*
X95500000Y-102221300D01*
X95500000Y-102900000D02*
X95500000Y-102221300D01*
D18*
X123129000Y-101767000D02*
X123129000Y-101300000D01*
X118964000Y-100750000D02*
X119064000Y-100750000D01*
D23*
G04 #@! TO.N,ID_SCL*
X128728999Y-98700000D02*
X128728999Y-99750000D01*
X128728999Y-99750000D02*
X131924000Y-99750000D01*
G04 #@! TO.N,ID_SDA*
X129128999Y-98700000D02*
X129128999Y-99250000D01*
X129128999Y-99250000D02*
X131924000Y-99250000D01*
G04 #@! TO.N,3V3_MOD*
X129128999Y-101300000D02*
X129128999Y-100750000D01*
X129128999Y-100750000D02*
X131924000Y-100750000D01*
X131924000Y-100750000D02*
X131943999Y-102400000D01*
G04 #@! TD*
G04 #@! TA.AperFunction,Conductor*
G04 #@! TO.N,GND*
G36*
X134163832Y-97101795D02*
G01*
X134182502Y-97106797D01*
X134198913Y-97111194D01*
X134215950Y-97121030D01*
X134237970Y-97143051D01*
X134247804Y-97160084D01*
X134257205Y-97195166D01*
X134258500Y-97205002D01*
X134258500Y-98991823D01*
X134247370Y-99018693D01*
X134220500Y-99029823D01*
X134213088Y-99029093D01*
X134192509Y-99025000D01*
X133879000Y-99025000D01*
X133879000Y-99477643D01*
X133888260Y-99499999D01*
X133879000Y-99522357D01*
X133879000Y-99977643D01*
X133888260Y-99999999D01*
X133879000Y-100022357D01*
X133879000Y-100477643D01*
X133888260Y-100499999D01*
X133879000Y-100522357D01*
X133879000Y-100974999D01*
X134192505Y-100974999D01*
X134192505Y-100974998D01*
X134213087Y-100970905D01*
X134241612Y-100976579D01*
X134257770Y-101000762D01*
X134258500Y-101008175D01*
X134258500Y-102794997D01*
X134257205Y-102804833D01*
X134247804Y-102839915D01*
X134237970Y-102856948D01*
X134215950Y-102878969D01*
X134198914Y-102888805D01*
X134163833Y-102898205D01*
X134153998Y-102899500D01*
X119252000Y-102899500D01*
X119225130Y-102888370D01*
X119214000Y-102861500D01*
X119214000Y-102599331D01*
X119225130Y-102572461D01*
X119252000Y-102561331D01*
X119278870Y-102572461D01*
X119371670Y-102665261D01*
X119371673Y-102665263D01*
X119422941Y-102686500D01*
X119422943Y-102686500D01*
X127156749Y-102686500D01*
X127189077Y-102673108D01*
X127208020Y-102665262D01*
X127247262Y-102626020D01*
X127258317Y-102599331D01*
X127268500Y-102574749D01*
X127268500Y-101798238D01*
X127269160Y-101791187D01*
X127270187Y-101785747D01*
X127272123Y-101781992D01*
X127279925Y-101734176D01*
X127280007Y-101733745D01*
X127287737Y-101721928D01*
X127295155Y-101709950D01*
X127295922Y-101709417D01*
X127295929Y-101709407D01*
X127295940Y-101709404D01*
X127296192Y-101709229D01*
X127300411Y-101706411D01*
X127300413Y-101706407D01*
X127302490Y-101704332D01*
X127329360Y-101693202D01*
X127356230Y-101704332D01*
X127357947Y-101706049D01*
X127410048Y-101740862D01*
X127410046Y-101740862D01*
X127453999Y-101749603D01*
X127454000Y-101749603D01*
X127454000Y-100850395D01*
X127604000Y-100850395D01*
X127604000Y-101749603D01*
X127647952Y-101740862D01*
X127700052Y-101706049D01*
X127701770Y-101704332D01*
X127728640Y-101693202D01*
X127755510Y-101704332D01*
X127755513Y-101704335D01*
X127757590Y-101706413D01*
X127797949Y-101733379D01*
X127809852Y-101741332D01*
X127855941Y-101750500D01*
X128002058Y-101750499D01*
X128048148Y-101741332D01*
X128100411Y-101706411D01*
X128100413Y-101706407D01*
X128102490Y-101704332D01*
X128129360Y-101693202D01*
X128156230Y-101704332D01*
X128157947Y-101706049D01*
X128210048Y-101740862D01*
X128210046Y-101740862D01*
X128253999Y-101749603D01*
X128254000Y-101749603D01*
X128404000Y-101749603D01*
X128447952Y-101740862D01*
X128500052Y-101706049D01*
X128502130Y-101703972D01*
X128529000Y-101692842D01*
X128555870Y-101703972D01*
X128557947Y-101706049D01*
X128610048Y-101740862D01*
X128610046Y-101740862D01*
X128653999Y-101749603D01*
X128654000Y-101749603D01*
X128654000Y-101375000D01*
X128404000Y-101375000D01*
X128404000Y-101749603D01*
X128254000Y-101749603D01*
X128254000Y-100850395D01*
X128404000Y-100850395D01*
X128404000Y-101225000D01*
X128654000Y-101225000D01*
X128654000Y-100850395D01*
X128804000Y-100850395D01*
X128804000Y-101749603D01*
X128847952Y-101740862D01*
X128900052Y-101706049D01*
X128901770Y-101704332D01*
X128928640Y-101693202D01*
X128955510Y-101704332D01*
X128955513Y-101704335D01*
X128957590Y-101706413D01*
X128997949Y-101733379D01*
X129009852Y-101741332D01*
X129055941Y-101750500D01*
X129202058Y-101750499D01*
X129248148Y-101741332D01*
X129300411Y-101706411D01*
X129300413Y-101706407D01*
X129302490Y-101704332D01*
X129329360Y-101693202D01*
X129356230Y-101704332D01*
X129357947Y-101706049D01*
X129410048Y-101740862D01*
X129410046Y-101740862D01*
X129453999Y-101749603D01*
X129454000Y-101749603D01*
X129604000Y-101749603D01*
X129647952Y-101740862D01*
X129700052Y-101706049D01*
X129702130Y-101703972D01*
X129729000Y-101692842D01*
X129755870Y-101703972D01*
X129757947Y-101706049D01*
X129810048Y-101740862D01*
X129810046Y-101740862D01*
X129853999Y-101749603D01*
X129854000Y-101749603D01*
X130004000Y-101749603D01*
X130047952Y-101740862D01*
X130100050Y-101706050D01*
X130134862Y-101653952D01*
X130143999Y-101608013D01*
X130144000Y-101608012D01*
X130144000Y-101375000D01*
X130004000Y-101375000D01*
X130004000Y-101749603D01*
X129854000Y-101749603D01*
X129854000Y-101375000D01*
X129604000Y-101375000D01*
X129604000Y-101749603D01*
X129454000Y-101749603D01*
X129454000Y-101338000D01*
X129465130Y-101311130D01*
X129492000Y-101300000D01*
X129529000Y-101300000D01*
X129529000Y-101263000D01*
X129540130Y-101236130D01*
X129567000Y-101225000D01*
X130144000Y-101225000D01*
X130144000Y-100991987D01*
X130143999Y-100991986D01*
X130134836Y-100945913D01*
X130140510Y-100917388D01*
X130164693Y-100901230D01*
X130172106Y-100900500D01*
X131333089Y-100900500D01*
X131339197Y-100900994D01*
X131344539Y-100901863D01*
X131350300Y-100904607D01*
X131406918Y-100912022D01*
X131407489Y-100912115D01*
X131419385Y-100919476D01*
X131431513Y-100926467D01*
X131432176Y-100927391D01*
X131432220Y-100927419D01*
X131432231Y-100927469D01*
X131432975Y-100928506D01*
X131433984Y-100930016D01*
X131487901Y-100966042D01*
X131530855Y-100974586D01*
X131555038Y-100990744D01*
X131555612Y-100991629D01*
X131775059Y-101340648D01*
X131780886Y-101360414D01*
X131787813Y-101931907D01*
X131785346Y-101945845D01*
X131722506Y-102111509D01*
X131708089Y-102129627D01*
X131669449Y-102155447D01*
X131669445Y-102155450D01*
X131625132Y-102221770D01*
X131613500Y-102280252D01*
X131613500Y-102519747D01*
X131625132Y-102578229D01*
X131625132Y-102578230D01*
X131625133Y-102578231D01*
X131669448Y-102644552D01*
X131735769Y-102688867D01*
X131794252Y-102700500D01*
X131794253Y-102700500D01*
X132093747Y-102700500D01*
X132093748Y-102700500D01*
X132152231Y-102688867D01*
X132218552Y-102644552D01*
X132232705Y-102623369D01*
X132256887Y-102607213D01*
X132285412Y-102612887D01*
X132295896Y-102623372D01*
X132309807Y-102644192D01*
X132309808Y-102644193D01*
X132375963Y-102688395D01*
X132375964Y-102688396D01*
X132434302Y-102699999D01*
X132434303Y-102700000D01*
X132509000Y-102700000D01*
X132659000Y-102700000D01*
X132733697Y-102700000D01*
X132733697Y-102699999D01*
X132792035Y-102688396D01*
X132792036Y-102688395D01*
X132858191Y-102644193D01*
X132858193Y-102644191D01*
X132902395Y-102578036D01*
X132902396Y-102578035D01*
X132913999Y-102519697D01*
X132914000Y-102519696D01*
X132914000Y-102475000D01*
X132659000Y-102475000D01*
X132659000Y-102700000D01*
X132509000Y-102700000D01*
X132509000Y-102325000D01*
X132659000Y-102325000D01*
X132914000Y-102325000D01*
X132914000Y-102280303D01*
X132913999Y-102280302D01*
X132902396Y-102221964D01*
X132902395Y-102221963D01*
X132858193Y-102155808D01*
X132858191Y-102155806D01*
X132792036Y-102111604D01*
X132792035Y-102111603D01*
X132733697Y-102100000D01*
X132659000Y-102100000D01*
X132659000Y-102325000D01*
X132509000Y-102325000D01*
X132509000Y-102100000D01*
X132434302Y-102100000D01*
X132375964Y-102111603D01*
X132375963Y-102111604D01*
X132309808Y-102155806D01*
X132295896Y-102176628D01*
X132271713Y-102192786D01*
X132243188Y-102187112D01*
X132232705Y-102176628D01*
X132218553Y-102155449D01*
X132218550Y-102155446D01*
X132173185Y-102125133D01*
X132159104Y-102107873D01*
X132155897Y-102100000D01*
X132091594Y-101942131D01*
X132088791Y-101928262D01*
X132081864Y-101356763D01*
X132087210Y-101336866D01*
X132292364Y-100992322D01*
X132315672Y-100974931D01*
X132317560Y-100974503D01*
X132360099Y-100966042D01*
X132414016Y-100930016D01*
X132450042Y-100876099D01*
X132459500Y-100828552D01*
X132459500Y-100828507D01*
X133269001Y-100828507D01*
X133278427Y-100875903D01*
X133314344Y-100929655D01*
X133368097Y-100965572D01*
X133368095Y-100965572D01*
X133415493Y-100974999D01*
X133729000Y-100974999D01*
X133729000Y-100825000D01*
X133269001Y-100825000D01*
X133269001Y-100828507D01*
X132459500Y-100828507D01*
X132459500Y-100671493D01*
X133269000Y-100671493D01*
X133269000Y-100675000D01*
X133729000Y-100675000D01*
X133729000Y-100522356D01*
X133719739Y-100499999D01*
X133729000Y-100477641D01*
X133729000Y-100325000D01*
X133269001Y-100325000D01*
X133269001Y-100328507D01*
X133278427Y-100375903D01*
X133314344Y-100429655D01*
X133371207Y-100467651D01*
X133370408Y-100468845D01*
X133387022Y-100485464D01*
X133387017Y-100514548D01*
X133370409Y-100531155D01*
X133371207Y-100532349D01*
X133314344Y-100570344D01*
X133278427Y-100624096D01*
X133269000Y-100671493D01*
X132459500Y-100671493D01*
X132459500Y-100671448D01*
X132450042Y-100623901D01*
X132433452Y-100599072D01*
X132414016Y-100569983D01*
X132356988Y-100531879D01*
X132357894Y-100530522D01*
X132341638Y-100514252D01*
X132341649Y-100485168D01*
X132357748Y-100469081D01*
X132356793Y-100467651D01*
X132413655Y-100429655D01*
X132449572Y-100375903D01*
X132458999Y-100328506D01*
X132459000Y-100328505D01*
X132459000Y-100325000D01*
X131389001Y-100325000D01*
X131389001Y-100328507D01*
X131398427Y-100375903D01*
X131434344Y-100429655D01*
X131491207Y-100467651D01*
X131490250Y-100469082D01*
X131506349Y-100485167D01*
X131506362Y-100514251D01*
X131490107Y-100530523D01*
X131491013Y-100531879D01*
X131433984Y-100569983D01*
X131433980Y-100569988D01*
X131432973Y-100571495D01*
X131432193Y-100572015D01*
X131431969Y-100572924D01*
X131422249Y-100578657D01*
X131408787Y-100587648D01*
X131407067Y-100587949D01*
X131406640Y-100588013D01*
X131350300Y-100595393D01*
X131334925Y-100598867D01*
X131333572Y-100599072D01*
X131332996Y-100598929D01*
X131327886Y-100599500D01*
X129099062Y-100599500D01*
X129043748Y-100622412D01*
X129001411Y-100664749D01*
X128978499Y-100720062D01*
X128978499Y-100818550D01*
X128977889Y-100825332D01*
X128976959Y-100830455D01*
X128974495Y-100835536D01*
X128969525Y-100871440D01*
X128969383Y-100872226D01*
X128967055Y-100875839D01*
X128958867Y-100892310D01*
X128955514Y-100895664D01*
X128953843Y-100896356D01*
X128953636Y-100896678D01*
X128952444Y-100896936D01*
X128928646Y-100906798D01*
X128901774Y-100895672D01*
X128900052Y-100893950D01*
X128847951Y-100859137D01*
X128847953Y-100859137D01*
X128804000Y-100850395D01*
X128654000Y-100850395D01*
X128610047Y-100859137D01*
X128557947Y-100893950D01*
X128555870Y-100896028D01*
X128529000Y-100907158D01*
X128502130Y-100896028D01*
X128500052Y-100893950D01*
X128447951Y-100859137D01*
X128447953Y-100859137D01*
X128404000Y-100850395D01*
X128254000Y-100850395D01*
X128210047Y-100859137D01*
X128157947Y-100893950D01*
X128156230Y-100895668D01*
X128129360Y-100906798D01*
X128102490Y-100895668D01*
X128100412Y-100893590D01*
X128100409Y-100893588D01*
X128048148Y-100858668D01*
X128048147Y-100858667D01*
X128017351Y-100852541D01*
X128002059Y-100849500D01*
X128002057Y-100849500D01*
X127855943Y-100849500D01*
X127855942Y-100849501D01*
X127809852Y-100858667D01*
X127809851Y-100858668D01*
X127757587Y-100893589D01*
X127755506Y-100895670D01*
X127728635Y-100906797D01*
X127701769Y-100895667D01*
X127700052Y-100893950D01*
X127647951Y-100859137D01*
X127647953Y-100859137D01*
X127604000Y-100850395D01*
X127454000Y-100850395D01*
X127410047Y-100859137D01*
X127357947Y-100893950D01*
X127356230Y-100895668D01*
X127329360Y-100906798D01*
X127302490Y-100895668D01*
X127300412Y-100893590D01*
X127300409Y-100893588D01*
X127248148Y-100858668D01*
X127248147Y-100858667D01*
X127217351Y-100852541D01*
X127202059Y-100849500D01*
X127202057Y-100849500D01*
X127055943Y-100849500D01*
X127055942Y-100849501D01*
X127009852Y-100858667D01*
X127009851Y-100858668D01*
X126957588Y-100893588D01*
X126955870Y-100895307D01*
X126929000Y-100906437D01*
X126902130Y-100895307D01*
X126900411Y-100893588D01*
X126848148Y-100858668D01*
X126848143Y-100858667D01*
X126802059Y-100849500D01*
X126802057Y-100849500D01*
X126655943Y-100849500D01*
X126655942Y-100849501D01*
X126609852Y-100858667D01*
X126609851Y-100858668D01*
X126557587Y-100893589D01*
X126555506Y-100895670D01*
X126528635Y-100906797D01*
X126501769Y-100895667D01*
X126500052Y-100893950D01*
X126447951Y-100859137D01*
X126447953Y-100859137D01*
X126404000Y-100850395D01*
X126404000Y-101749603D01*
X126447952Y-101740862D01*
X126500050Y-101706050D01*
X126501766Y-101704335D01*
X126513393Y-101699517D01*
X126524411Y-101693438D01*
X126526391Y-101694131D01*
X126528635Y-101693202D01*
X126552352Y-101701509D01*
X126556557Y-101704867D01*
X126557589Y-101706411D01*
X126563105Y-101710096D01*
X126564364Y-101711102D01*
X126570667Y-101722526D01*
X126577920Y-101733379D01*
X126578154Y-101734669D01*
X126585877Y-101781992D01*
X126586243Y-101783500D01*
X126588429Y-101792511D01*
X126589500Y-101801469D01*
X126589500Y-102213500D01*
X126578370Y-102240370D01*
X126551500Y-102251500D01*
X126106500Y-102251500D01*
X126079630Y-102240370D01*
X126068500Y-102213500D01*
X126068500Y-101798238D01*
X126069160Y-101791187D01*
X126070187Y-101785747D01*
X126072123Y-101781992D01*
X126079925Y-101734176D01*
X126080007Y-101733745D01*
X126087737Y-101721928D01*
X126095155Y-101709950D01*
X126095922Y-101709417D01*
X126095929Y-101709407D01*
X126095940Y-101709404D01*
X126096192Y-101709229D01*
X126100411Y-101706411D01*
X126100413Y-101706407D01*
X126102490Y-101704332D01*
X126129360Y-101693202D01*
X126156230Y-101704332D01*
X126157947Y-101706049D01*
X126210048Y-101740862D01*
X126210046Y-101740862D01*
X126253999Y-101749603D01*
X126254000Y-101749603D01*
X126254000Y-100850395D01*
X126210047Y-100859137D01*
X126157947Y-100893950D01*
X126156230Y-100895668D01*
X126129360Y-100906798D01*
X126102490Y-100895668D01*
X126100412Y-100893590D01*
X126100409Y-100893588D01*
X126048148Y-100858668D01*
X126048147Y-100858667D01*
X126017351Y-100852541D01*
X126002059Y-100849500D01*
X126002057Y-100849500D01*
X125855943Y-100849500D01*
X125855942Y-100849501D01*
X125809852Y-100858667D01*
X125809851Y-100858668D01*
X125757588Y-100893588D01*
X125755870Y-100895307D01*
X125729000Y-100906437D01*
X125702130Y-100895307D01*
X125700411Y-100893588D01*
X125648148Y-100858668D01*
X125648143Y-100858667D01*
X125602059Y-100849500D01*
X125602057Y-100849500D01*
X125455943Y-100849500D01*
X125455942Y-100849501D01*
X125409852Y-100858667D01*
X125409851Y-100858668D01*
X125357587Y-100893589D01*
X125355506Y-100895670D01*
X125328635Y-100906797D01*
X125301769Y-100895667D01*
X125300052Y-100893950D01*
X125247951Y-100859137D01*
X125247953Y-100859137D01*
X125204000Y-100850395D01*
X125204000Y-101749603D01*
X125247952Y-101740862D01*
X125300050Y-101706050D01*
X125301766Y-101704335D01*
X125313393Y-101699517D01*
X125324411Y-101693438D01*
X125326391Y-101694131D01*
X125328635Y-101693202D01*
X125352352Y-101701509D01*
X125356557Y-101704867D01*
X125357589Y-101706411D01*
X125363105Y-101710096D01*
X125364364Y-101711102D01*
X125370667Y-101722526D01*
X125377920Y-101733379D01*
X125378154Y-101734669D01*
X125385877Y-101781992D01*
X125386243Y-101783500D01*
X125388429Y-101792511D01*
X125389500Y-101801469D01*
X125389500Y-101901500D01*
X125378370Y-101928370D01*
X125351500Y-101939500D01*
X123706500Y-101939500D01*
X123679630Y-101928370D01*
X123668500Y-101901500D01*
X123668500Y-101798238D01*
X123669160Y-101791187D01*
X123670187Y-101785747D01*
X123672123Y-101781992D01*
X123679925Y-101734176D01*
X123680007Y-101733745D01*
X123687737Y-101721928D01*
X123695155Y-101709950D01*
X123695922Y-101709417D01*
X123695929Y-101709407D01*
X123695940Y-101709404D01*
X123696192Y-101709229D01*
X123700411Y-101706411D01*
X123700413Y-101706407D01*
X123702490Y-101704332D01*
X123729360Y-101693202D01*
X123756230Y-101704332D01*
X123757947Y-101706049D01*
X123810048Y-101740862D01*
X123810046Y-101740862D01*
X123853999Y-101749603D01*
X123854000Y-101749603D01*
X123854000Y-100850395D01*
X124004000Y-100850395D01*
X124004000Y-101749603D01*
X124047952Y-101740862D01*
X124100052Y-101706049D01*
X124101770Y-101704332D01*
X124128640Y-101693202D01*
X124155510Y-101704332D01*
X124155513Y-101704335D01*
X124157590Y-101706413D01*
X124197949Y-101733379D01*
X124209852Y-101741332D01*
X124255941Y-101750500D01*
X124402058Y-101750499D01*
X124448148Y-101741332D01*
X124482506Y-101718375D01*
X124500409Y-101706413D01*
X124502127Y-101704695D01*
X124528996Y-101693562D01*
X124555867Y-101704689D01*
X124555873Y-101704695D01*
X124557590Y-101706413D01*
X124597949Y-101733379D01*
X124609852Y-101741332D01*
X124655941Y-101750500D01*
X124802058Y-101750499D01*
X124848148Y-101741332D01*
X124900411Y-101706411D01*
X124900413Y-101706407D01*
X124902490Y-101704332D01*
X124929360Y-101693202D01*
X124956230Y-101704332D01*
X124957947Y-101706049D01*
X125010048Y-101740862D01*
X125010046Y-101740862D01*
X125053999Y-101749603D01*
X125054000Y-101749603D01*
X125054000Y-100850395D01*
X125053999Y-100850395D01*
X125010047Y-100859137D01*
X124957947Y-100893950D01*
X124956230Y-100895668D01*
X124929360Y-100906798D01*
X124902490Y-100895668D01*
X124900412Y-100893590D01*
X124900409Y-100893588D01*
X124848148Y-100858668D01*
X124848147Y-100858667D01*
X124817351Y-100852541D01*
X124802059Y-100849500D01*
X124802057Y-100849500D01*
X124655943Y-100849500D01*
X124655942Y-100849501D01*
X124609852Y-100858667D01*
X124609851Y-100858668D01*
X124557588Y-100893588D01*
X124555870Y-100895307D01*
X124529000Y-100906437D01*
X124502130Y-100895307D01*
X124500411Y-100893588D01*
X124448148Y-100858668D01*
X124448143Y-100858667D01*
X124402059Y-100849500D01*
X124402057Y-100849500D01*
X124255943Y-100849500D01*
X124255942Y-100849501D01*
X124209852Y-100858667D01*
X124209851Y-100858668D01*
X124157587Y-100893589D01*
X124155506Y-100895670D01*
X124128635Y-100906797D01*
X124101769Y-100895667D01*
X124100052Y-100893950D01*
X124047951Y-100859137D01*
X124047953Y-100859137D01*
X124004000Y-100850395D01*
X123854000Y-100850395D01*
X123810047Y-100859137D01*
X123757947Y-100893950D01*
X123756230Y-100895668D01*
X123729360Y-100906798D01*
X123702490Y-100895668D01*
X123700412Y-100893590D01*
X123700409Y-100893588D01*
X123648148Y-100858668D01*
X123648147Y-100858667D01*
X123617351Y-100852541D01*
X123602059Y-100849500D01*
X123602057Y-100849500D01*
X123455943Y-100849500D01*
X123455942Y-100849501D01*
X123409852Y-100858667D01*
X123409851Y-100858668D01*
X123357588Y-100893588D01*
X123355870Y-100895307D01*
X123329000Y-100906437D01*
X123302130Y-100895307D01*
X123300411Y-100893588D01*
X123248148Y-100858668D01*
X123248143Y-100858667D01*
X123202059Y-100849500D01*
X123202057Y-100849500D01*
X123055943Y-100849500D01*
X123055942Y-100849501D01*
X123009852Y-100858667D01*
X123009851Y-100858668D01*
X122957587Y-100893589D01*
X122955506Y-100895670D01*
X122928635Y-100906797D01*
X122901769Y-100895667D01*
X122900052Y-100893950D01*
X122847951Y-100859137D01*
X122847953Y-100859137D01*
X122804000Y-100850395D01*
X122804000Y-101262000D01*
X122792870Y-101288870D01*
X122766000Y-101300000D01*
X122692000Y-101300000D01*
X122665130Y-101288870D01*
X122654000Y-101262000D01*
X122654000Y-100850394D01*
X122648391Y-100845791D01*
X122634683Y-100820141D01*
X122634500Y-100816418D01*
X122634500Y-99183580D01*
X122645630Y-99156710D01*
X122648392Y-99154206D01*
X122654000Y-99149603D01*
X122654000Y-98738000D01*
X122665130Y-98711130D01*
X122692000Y-98700000D01*
X122766000Y-98700000D01*
X122792870Y-98711130D01*
X122804000Y-98738000D01*
X122804000Y-99149603D01*
X122847952Y-99140862D01*
X122900052Y-99106049D01*
X122901770Y-99104332D01*
X122928640Y-99093202D01*
X122955510Y-99104332D01*
X122955513Y-99104335D01*
X122957590Y-99106413D01*
X122991912Y-99129345D01*
X123009852Y-99141332D01*
X123055941Y-99150500D01*
X123202058Y-99150499D01*
X123248148Y-99141332D01*
X123290637Y-99112942D01*
X123300409Y-99106413D01*
X123302127Y-99104695D01*
X123328996Y-99093562D01*
X123355867Y-99104689D01*
X123355873Y-99104695D01*
X123357590Y-99106413D01*
X123391912Y-99129345D01*
X123409852Y-99141332D01*
X123455941Y-99150500D01*
X123602058Y-99150499D01*
X123648148Y-99141332D01*
X123700411Y-99106411D01*
X123700413Y-99106407D01*
X123702490Y-99104332D01*
X123729360Y-99093202D01*
X123756230Y-99104332D01*
X123757947Y-99106049D01*
X123810048Y-99140862D01*
X123810046Y-99140862D01*
X123853999Y-99149603D01*
X123854000Y-99149603D01*
X123854000Y-98738000D01*
X123865130Y-98711130D01*
X123892000Y-98700000D01*
X123966000Y-98700000D01*
X123992870Y-98711130D01*
X124004000Y-98738000D01*
X124004000Y-99149603D01*
X124047952Y-99140862D01*
X124100052Y-99106049D01*
X124101770Y-99104332D01*
X124128640Y-99093202D01*
X124155510Y-99104332D01*
X124155513Y-99104335D01*
X124157590Y-99106413D01*
X124191912Y-99129345D01*
X124209852Y-99141332D01*
X124255941Y-99150500D01*
X124402058Y-99150499D01*
X124448148Y-99141332D01*
X124490637Y-99112942D01*
X124500409Y-99106413D01*
X124502127Y-99104695D01*
X124528996Y-99093562D01*
X124555867Y-99104689D01*
X124555873Y-99104695D01*
X124557590Y-99106413D01*
X124591912Y-99129345D01*
X124609852Y-99141332D01*
X124655941Y-99150500D01*
X124802058Y-99150499D01*
X124848148Y-99141332D01*
X124900411Y-99106411D01*
X124900413Y-99106407D01*
X124902490Y-99104332D01*
X124929360Y-99093202D01*
X124956230Y-99104332D01*
X124957947Y-99106049D01*
X125010048Y-99140862D01*
X125010046Y-99140862D01*
X125053999Y-99149603D01*
X125054000Y-99149603D01*
X125054000Y-98738000D01*
X125065130Y-98711130D01*
X125092000Y-98700000D01*
X125166000Y-98700000D01*
X125192870Y-98711130D01*
X125204000Y-98738000D01*
X125204000Y-99149603D01*
X125247952Y-99140862D01*
X125300052Y-99106049D01*
X125301770Y-99104332D01*
X125328640Y-99093202D01*
X125355510Y-99104332D01*
X125355513Y-99104335D01*
X125357590Y-99106413D01*
X125391912Y-99129345D01*
X125409852Y-99141332D01*
X125455941Y-99150500D01*
X125602058Y-99150499D01*
X125648148Y-99141332D01*
X125690637Y-99112942D01*
X125700409Y-99106413D01*
X125702127Y-99104695D01*
X125728996Y-99093562D01*
X125755867Y-99104689D01*
X125755873Y-99104695D01*
X125757590Y-99106413D01*
X125791912Y-99129345D01*
X125809852Y-99141332D01*
X125855941Y-99150500D01*
X126002058Y-99150499D01*
X126048148Y-99141332D01*
X126100411Y-99106411D01*
X126100413Y-99106407D01*
X126102490Y-99104332D01*
X126129360Y-99093202D01*
X126156230Y-99104332D01*
X126157947Y-99106049D01*
X126210048Y-99140862D01*
X126210046Y-99140862D01*
X126253999Y-99149603D01*
X126254000Y-99149603D01*
X126254000Y-98250395D01*
X126253999Y-98250395D01*
X126210047Y-98259137D01*
X126157945Y-98293951D01*
X126156227Y-98295670D01*
X126144604Y-98300482D01*
X126133588Y-98306561D01*
X126131604Y-98305866D01*
X126129356Y-98306797D01*
X126105646Y-98298490D01*
X126101442Y-98295133D01*
X126100411Y-98293589D01*
X126094890Y-98289900D01*
X126093633Y-98288896D01*
X126087327Y-98277466D01*
X126080078Y-98266619D01*
X126079844Y-98265326D01*
X126072123Y-98218008D01*
X126069571Y-98207488D01*
X126068500Y-98198529D01*
X126068500Y-97942500D01*
X126079630Y-97915630D01*
X126106500Y-97904500D01*
X126551500Y-97904500D01*
X126578370Y-97915630D01*
X126589500Y-97942500D01*
X126589500Y-98201762D01*
X126588840Y-98208815D01*
X126587813Y-98214251D01*
X126585877Y-98218008D01*
X126578084Y-98265756D01*
X126577990Y-98266257D01*
X126570278Y-98278043D01*
X126562841Y-98290052D01*
X126562071Y-98290585D01*
X126562066Y-98290594D01*
X126562055Y-98290596D01*
X126561766Y-98290797D01*
X126557586Y-98293590D01*
X126555503Y-98295673D01*
X126528631Y-98306797D01*
X126501769Y-98295667D01*
X126500052Y-98293950D01*
X126447951Y-98259137D01*
X126447953Y-98259137D01*
X126404000Y-98250395D01*
X126404000Y-99149603D01*
X126447952Y-99140862D01*
X126500052Y-99106049D01*
X126501770Y-99104332D01*
X126528640Y-99093202D01*
X126555510Y-99104332D01*
X126555513Y-99104335D01*
X126557590Y-99106413D01*
X126591912Y-99129345D01*
X126609852Y-99141332D01*
X126655941Y-99150500D01*
X126802058Y-99150499D01*
X126848148Y-99141332D01*
X126890637Y-99112942D01*
X126900409Y-99106413D01*
X126902127Y-99104695D01*
X126928996Y-99093562D01*
X126955867Y-99104689D01*
X126955873Y-99104695D01*
X126957590Y-99106413D01*
X126991912Y-99129345D01*
X127009852Y-99141332D01*
X127055941Y-99150500D01*
X127202058Y-99150499D01*
X127248148Y-99141332D01*
X127300411Y-99106411D01*
X127300413Y-99106407D01*
X127302490Y-99104332D01*
X127329360Y-99093202D01*
X127356230Y-99104332D01*
X127357947Y-99106049D01*
X127410048Y-99140862D01*
X127410046Y-99140862D01*
X127453999Y-99149603D01*
X127454000Y-99149603D01*
X127454000Y-98250395D01*
X127604000Y-98250395D01*
X127604000Y-99149603D01*
X127647952Y-99140862D01*
X127700052Y-99106049D01*
X127701770Y-99104332D01*
X127728640Y-99093202D01*
X127755510Y-99104332D01*
X127755513Y-99104335D01*
X127757590Y-99106413D01*
X127791912Y-99129345D01*
X127809852Y-99141332D01*
X127855941Y-99150500D01*
X128002058Y-99150499D01*
X128048148Y-99141332D01*
X128100411Y-99106411D01*
X128100413Y-99106407D01*
X128102490Y-99104332D01*
X128129360Y-99093202D01*
X128156230Y-99104332D01*
X128157947Y-99106049D01*
X128210048Y-99140862D01*
X128210046Y-99140862D01*
X128253999Y-99149603D01*
X128254000Y-99149603D01*
X128254000Y-98250395D01*
X128404000Y-98250395D01*
X128404000Y-99149603D01*
X128447952Y-99140862D01*
X128500052Y-99106049D01*
X128501770Y-99104332D01*
X128528640Y-99093202D01*
X128555510Y-99104332D01*
X128556801Y-99105623D01*
X128567601Y-99127496D01*
X128574415Y-99178868D01*
X128577558Y-99192724D01*
X128578499Y-99201129D01*
X128578499Y-99779937D01*
X128601411Y-99835250D01*
X128643748Y-99877587D01*
X128699062Y-99900500D01*
X128699063Y-99900500D01*
X131333089Y-99900500D01*
X131339197Y-99900994D01*
X131344539Y-99901863D01*
X131350300Y-99904607D01*
X131406918Y-99912022D01*
X131407489Y-99912115D01*
X131419385Y-99919476D01*
X131431513Y-99926467D01*
X131432176Y-99927391D01*
X131432220Y-99927419D01*
X131432231Y-99927469D01*
X131432975Y-99928506D01*
X131433984Y-99930016D01*
X131487901Y-99966042D01*
X131491013Y-99968121D01*
X131490104Y-99969481D01*
X131506356Y-99985734D01*
X131506355Y-100014818D01*
X131490254Y-100030923D01*
X131491207Y-100032349D01*
X131434344Y-100070344D01*
X131398427Y-100124096D01*
X131389000Y-100171493D01*
X131389000Y-100175000D01*
X132458999Y-100175000D01*
X132458999Y-100171496D01*
X132458998Y-100171493D01*
X133269000Y-100171493D01*
X133269000Y-100175000D01*
X133729000Y-100175000D01*
X133729000Y-100022356D01*
X133719739Y-99999999D01*
X133729000Y-99977641D01*
X133729000Y-99825000D01*
X133269001Y-99825000D01*
X133269001Y-99828507D01*
X133278427Y-99875903D01*
X133314344Y-99929655D01*
X133371207Y-99967651D01*
X133370408Y-99968845D01*
X133387022Y-99985464D01*
X133387017Y-100014548D01*
X133370409Y-100031155D01*
X133371207Y-100032349D01*
X133314344Y-100070344D01*
X133278427Y-100124096D01*
X133269000Y-100171493D01*
X132458998Y-100171493D01*
X132458998Y-100171491D01*
X132449572Y-100124096D01*
X132413655Y-100070344D01*
X132356793Y-100032349D01*
X132357747Y-100030920D01*
X132341644Y-100014817D01*
X132341644Y-99985733D01*
X132357896Y-99969480D01*
X132356988Y-99968121D01*
X132414016Y-99930016D01*
X132421059Y-99919476D01*
X132450042Y-99876099D01*
X132459500Y-99828552D01*
X132459500Y-99671493D01*
X133269000Y-99671493D01*
X133269000Y-99675000D01*
X133729000Y-99675000D01*
X133729000Y-99522356D01*
X133719739Y-99499999D01*
X133729000Y-99477641D01*
X133729000Y-99325000D01*
X133269001Y-99325000D01*
X133269001Y-99328507D01*
X133278427Y-99375903D01*
X133314344Y-99429655D01*
X133371207Y-99467651D01*
X133370408Y-99468845D01*
X133387022Y-99485464D01*
X133387017Y-99514548D01*
X133370409Y-99531155D01*
X133371207Y-99532349D01*
X133314344Y-99570344D01*
X133278427Y-99624096D01*
X133269000Y-99671493D01*
X132459500Y-99671493D01*
X132459500Y-99671448D01*
X132450042Y-99623901D01*
X132443186Y-99613640D01*
X132414016Y-99569983D01*
X132356988Y-99531879D01*
X132358053Y-99530283D01*
X132342313Y-99514556D01*
X132342302Y-99485472D01*
X132358050Y-99469710D01*
X132356988Y-99468121D01*
X132414016Y-99430016D01*
X132421059Y-99419476D01*
X132450042Y-99376099D01*
X132459500Y-99328552D01*
X132459500Y-99171493D01*
X133269000Y-99171493D01*
X133269000Y-99175000D01*
X133729000Y-99175000D01*
X133729000Y-99025000D01*
X133415495Y-99025000D01*
X133415492Y-99025001D01*
X133368096Y-99034427D01*
X133314344Y-99070344D01*
X133278427Y-99124096D01*
X133269000Y-99171493D01*
X132459500Y-99171493D01*
X132459500Y-99171448D01*
X132450042Y-99123901D01*
X132450041Y-99123899D01*
X132414016Y-99069983D01*
X132360100Y-99033958D01*
X132360098Y-99033957D01*
X132312552Y-99024500D01*
X131535448Y-99024500D01*
X131487902Y-99033957D01*
X131433984Y-99069983D01*
X131433980Y-99069988D01*
X131432973Y-99071495D01*
X131432193Y-99072015D01*
X131431969Y-99072924D01*
X131422249Y-99078657D01*
X131408787Y-99087648D01*
X131407067Y-99087949D01*
X131406640Y-99088013D01*
X131350300Y-99095393D01*
X131334925Y-99098867D01*
X131333572Y-99099072D01*
X131332996Y-99098929D01*
X131327886Y-99099500D01*
X130172106Y-99099500D01*
X130145236Y-99088370D01*
X130134106Y-99061500D01*
X130134836Y-99054087D01*
X130143999Y-99008013D01*
X130144000Y-99008012D01*
X130144000Y-98775000D01*
X129967000Y-98775000D01*
X129940130Y-98763870D01*
X129929000Y-98737000D01*
X129929000Y-98700000D01*
X129892000Y-98700000D01*
X129865130Y-98688870D01*
X129854000Y-98662000D01*
X129854000Y-98625000D01*
X130004000Y-98625000D01*
X130144000Y-98625000D01*
X130144000Y-98391987D01*
X130143999Y-98391986D01*
X130134862Y-98346047D01*
X130100050Y-98293949D01*
X130047951Y-98259137D01*
X130047953Y-98259137D01*
X130004000Y-98250395D01*
X130004000Y-98625000D01*
X129854000Y-98625000D01*
X129854000Y-98250395D01*
X129853999Y-98250395D01*
X129810047Y-98259137D01*
X129757947Y-98293950D01*
X129756230Y-98295668D01*
X129729360Y-98306798D01*
X129702490Y-98295668D01*
X129700412Y-98293590D01*
X129700409Y-98293588D01*
X129659506Y-98266257D01*
X129648147Y-98258667D01*
X129617351Y-98252541D01*
X129602059Y-98249500D01*
X129602057Y-98249500D01*
X129455943Y-98249500D01*
X129455942Y-98249501D01*
X129409852Y-98258667D01*
X129409851Y-98258668D01*
X129357588Y-98293588D01*
X129355870Y-98295307D01*
X129329000Y-98306437D01*
X129302130Y-98295307D01*
X129300411Y-98293588D01*
X129248148Y-98258668D01*
X129248143Y-98258667D01*
X129202059Y-98249500D01*
X129202057Y-98249500D01*
X129055943Y-98249500D01*
X129055942Y-98249501D01*
X129009852Y-98258667D01*
X129009851Y-98258668D01*
X128957588Y-98293588D01*
X128955870Y-98295307D01*
X128929000Y-98306437D01*
X128902130Y-98295307D01*
X128900411Y-98293588D01*
X128848148Y-98258668D01*
X128848143Y-98258667D01*
X128802059Y-98249500D01*
X128802057Y-98249500D01*
X128655943Y-98249500D01*
X128655942Y-98249501D01*
X128609852Y-98258667D01*
X128609851Y-98258668D01*
X128557587Y-98293589D01*
X128555506Y-98295670D01*
X128528635Y-98306797D01*
X128501769Y-98295667D01*
X128500052Y-98293950D01*
X128447951Y-98259137D01*
X128447953Y-98259137D01*
X128404000Y-98250395D01*
X128254000Y-98250395D01*
X128210047Y-98259137D01*
X128157947Y-98293950D01*
X128156230Y-98295668D01*
X128129360Y-98306798D01*
X128102490Y-98295668D01*
X128100412Y-98293590D01*
X128100409Y-98293588D01*
X128059506Y-98266257D01*
X128048147Y-98258667D01*
X128017351Y-98252541D01*
X128002059Y-98249500D01*
X128002057Y-98249500D01*
X127855943Y-98249500D01*
X127855942Y-98249501D01*
X127809852Y-98258667D01*
X127809851Y-98258668D01*
X127757587Y-98293589D01*
X127755506Y-98295670D01*
X127728635Y-98306797D01*
X127701769Y-98295667D01*
X127700052Y-98293950D01*
X127647951Y-98259137D01*
X127647953Y-98259137D01*
X127604000Y-98250395D01*
X127454000Y-98250395D01*
X127453999Y-98250395D01*
X127410047Y-98259137D01*
X127357945Y-98293951D01*
X127356227Y-98295670D01*
X127344604Y-98300482D01*
X127333588Y-98306561D01*
X127331604Y-98305866D01*
X127329356Y-98306797D01*
X127305646Y-98298490D01*
X127301442Y-98295133D01*
X127300411Y-98293589D01*
X127294890Y-98289900D01*
X127293633Y-98288896D01*
X127287327Y-98277466D01*
X127280078Y-98266619D01*
X127279844Y-98265326D01*
X127272123Y-98218008D01*
X127269571Y-98207488D01*
X127268500Y-98198529D01*
X127268500Y-97581250D01*
X127247263Y-97529982D01*
X127247261Y-97529979D01*
X127208020Y-97490738D01*
X127208017Y-97490736D01*
X127156749Y-97469500D01*
X127156748Y-97469500D01*
X119854748Y-97469500D01*
X119622440Y-97469500D01*
X119566943Y-97469500D01*
X119566941Y-97469500D01*
X119515671Y-97490736D01*
X119278870Y-97727537D01*
X119252000Y-97738667D01*
X119225130Y-97727537D01*
X119214000Y-97700667D01*
X119214000Y-97138500D01*
X119225130Y-97111630D01*
X119252000Y-97100500D01*
X134111405Y-97100500D01*
X134153998Y-97100500D01*
X134163832Y-97101795D01*
G37*
G04 #@! TD.AperFunction*
G04 #@! TD*
G04 #@! TA.AperFunction,Conductor*
G04 #@! TO.N,VBUS*
G36*
X122489737Y-99003738D02*
G01*
X122499436Y-99004933D01*
X122502692Y-99009104D01*
X122507582Y-99011130D01*
X122514763Y-99024566D01*
X122517334Y-99027859D01*
X122517707Y-99029208D01*
X122522668Y-99054148D01*
X122525991Y-99059122D01*
X122527622Y-99065010D01*
X122529000Y-99075151D01*
X122529000Y-100924848D01*
X122523724Y-100942241D01*
X122524099Y-100942397D01*
X122522668Y-100945851D01*
X122517981Y-100969414D01*
X122501822Y-100993596D01*
X122480711Y-101000000D01*
X119767000Y-101000000D01*
X119740130Y-100988870D01*
X119729000Y-100962000D01*
X119729000Y-99038000D01*
X119740130Y-99011130D01*
X119767000Y-99000000D01*
X122480712Y-99000000D01*
X122489737Y-99003738D01*
G37*
G04 #@! TD.AperFunction*
G04 #@! TD*
G04 #@! TA.AperFunction,Conductor*
G04 #@! TO.N,GND*
G36*
X109204832Y-95601795D02*
G01*
X109223502Y-95606797D01*
X109239913Y-95611194D01*
X109256949Y-95621029D01*
X109278970Y-95643050D01*
X109288805Y-95660085D01*
X109298205Y-95695166D01*
X109299500Y-95705001D01*
X109299500Y-96468992D01*
X109326420Y-96604329D01*
X109347107Y-96654270D01*
X109350000Y-96668812D01*
X109350000Y-97505891D01*
X109338870Y-97532761D01*
X109312000Y-97543891D01*
X109285130Y-97532761D01*
X108050322Y-96297953D01*
X108050317Y-96297950D01*
X107996844Y-96275800D01*
X107996842Y-96275800D01*
X103028942Y-96275800D01*
X102971058Y-96275800D01*
X102971056Y-96275800D01*
X102917582Y-96297950D01*
X102917578Y-96297953D01*
X102876653Y-96338878D01*
X102876650Y-96338882D01*
X102854500Y-96392356D01*
X102854500Y-96415450D01*
X102843370Y-96442320D01*
X102823914Y-96452720D01*
X102810786Y-96455331D01*
X102810783Y-96455332D01*
X102777543Y-96477542D01*
X102777542Y-96477543D01*
X102755330Y-96510787D01*
X102751725Y-96528915D01*
X102749500Y-96540101D01*
X102749500Y-97073580D01*
X102749501Y-97595200D01*
X102738371Y-97622070D01*
X102711501Y-97633200D01*
X102288500Y-97633200D01*
X102261630Y-97622070D01*
X102250500Y-97595200D01*
X102250499Y-96540104D01*
X102250499Y-96540102D01*
X102244669Y-96510787D01*
X102244668Y-96510785D01*
X102244667Y-96510783D01*
X102222457Y-96477543D01*
X102222456Y-96477542D01*
X102189214Y-96455332D01*
X102189213Y-96455331D01*
X102189212Y-96455330D01*
X102159899Y-96449500D01*
X101840105Y-96449500D01*
X101840100Y-96449501D01*
X101810788Y-96455330D01*
X101810783Y-96455332D01*
X101777543Y-96477542D01*
X101777542Y-96477543D01*
X101755330Y-96510787D01*
X101749500Y-96540101D01*
X101749500Y-97659895D01*
X101749501Y-97659899D01*
X101755330Y-97689211D01*
X101755332Y-97689216D01*
X101777542Y-97722456D01*
X101777543Y-97722457D01*
X101810787Y-97744669D01*
X101823912Y-97747279D01*
X101833127Y-97753436D01*
X101843370Y-97757679D01*
X101844859Y-97761273D01*
X101848094Y-97763435D01*
X101854500Y-97784549D01*
X101854500Y-97797200D01*
X101843370Y-97824070D01*
X101816500Y-97835200D01*
X100278008Y-97835200D01*
X100251138Y-97824070D01*
X100211478Y-97784410D01*
X100200348Y-97757540D01*
X100211478Y-97730670D01*
X100217235Y-97725945D01*
X100222457Y-97722457D01*
X100244669Y-97689213D01*
X100250500Y-97659899D01*
X100250499Y-96540102D01*
X100244669Y-96510787D01*
X100244668Y-96510785D01*
X100244667Y-96510783D01*
X100222457Y-96477543D01*
X100222456Y-96477542D01*
X100189214Y-96455332D01*
X100189213Y-96455331D01*
X100189212Y-96455330D01*
X100159899Y-96449500D01*
X99840105Y-96449500D01*
X99840100Y-96449501D01*
X99810788Y-96455330D01*
X99810783Y-96455332D01*
X99777543Y-96477542D01*
X99777542Y-96477543D01*
X99755330Y-96510787D01*
X99749500Y-96540101D01*
X99749500Y-97659895D01*
X99749501Y-97659899D01*
X99755330Y-97689211D01*
X99755332Y-97689216D01*
X99777542Y-97722456D01*
X99777543Y-97722457D01*
X99810787Y-97744669D01*
X99823912Y-97747279D01*
X99848094Y-97763435D01*
X99854500Y-97784549D01*
X99854500Y-97807643D01*
X99876650Y-97861117D01*
X99876652Y-97861121D01*
X99959562Y-97944030D01*
X99970692Y-97970900D01*
X99959562Y-97997770D01*
X99932692Y-98008900D01*
X99451708Y-98008900D01*
X99424838Y-97997770D01*
X99211478Y-97784410D01*
X99200348Y-97757540D01*
X99211478Y-97730670D01*
X99217235Y-97725945D01*
X99222457Y-97722457D01*
X99244669Y-97689213D01*
X99250500Y-97659899D01*
X99250499Y-96540102D01*
X99244669Y-96510787D01*
X99244668Y-96510785D01*
X99244667Y-96510783D01*
X99222457Y-96477543D01*
X99222456Y-96477542D01*
X99189214Y-96455332D01*
X99189213Y-96455331D01*
X99189212Y-96455330D01*
X99159899Y-96449500D01*
X98840105Y-96449500D01*
X98840100Y-96449501D01*
X98810788Y-96455330D01*
X98810783Y-96455332D01*
X98777543Y-96477542D01*
X98777542Y-96477543D01*
X98755330Y-96510787D01*
X98749500Y-96540101D01*
X98749500Y-97659895D01*
X98749501Y-97659899D01*
X98755330Y-97689211D01*
X98755332Y-97689216D01*
X98777542Y-97722456D01*
X98777543Y-97722457D01*
X98810787Y-97744669D01*
X98823912Y-97747279D01*
X98848094Y-97763435D01*
X98854500Y-97784549D01*
X98854500Y-97807643D01*
X98876650Y-97861117D01*
X98876652Y-97861121D01*
X99252351Y-98236819D01*
X99293278Y-98277747D01*
X99293280Y-98277748D01*
X99293281Y-98277749D01*
X99315743Y-98287053D01*
X99346756Y-98299899D01*
X99346757Y-98299900D01*
X99346758Y-98299900D01*
X106764843Y-98299900D01*
X106764843Y-98299899D01*
X106818319Y-98277749D01*
X107618138Y-97477930D01*
X107645008Y-97466800D01*
X108055092Y-97466800D01*
X108081962Y-97477930D01*
X108372070Y-97768038D01*
X108383200Y-97794908D01*
X108383200Y-98376043D01*
X108405350Y-98429517D01*
X108405352Y-98429521D01*
X108768779Y-98792947D01*
X109053251Y-99077419D01*
X109094181Y-99118349D01*
X109105364Y-99122981D01*
X109110078Y-99127112D01*
X109113950Y-99134957D01*
X109120140Y-99141146D01*
X109120140Y-99147497D01*
X109122951Y-99153192D01*
X109120140Y-99161479D01*
X109120141Y-99170230D01*
X109120140Y-99170232D01*
X109099500Y-99220061D01*
X109099500Y-99249192D01*
X109088370Y-99276062D01*
X109023162Y-99341270D01*
X108996292Y-99352400D01*
X98795208Y-99352400D01*
X98768338Y-99341270D01*
X97211478Y-97784410D01*
X97200348Y-97757540D01*
X97211478Y-97730670D01*
X97217235Y-97725945D01*
X97222457Y-97722457D01*
X97244669Y-97689213D01*
X97250500Y-97659899D01*
X97250499Y-96540102D01*
X97250499Y-96540101D01*
X97749500Y-96540101D01*
X97749500Y-97659895D01*
X97749501Y-97659899D01*
X97755330Y-97689211D01*
X97755332Y-97689216D01*
X97777542Y-97722456D01*
X97777543Y-97722457D01*
X97810787Y-97744669D01*
X97840101Y-97750500D01*
X98159898Y-97750499D01*
X98189213Y-97744669D01*
X98222457Y-97722457D01*
X98244669Y-97689213D01*
X98250500Y-97659899D01*
X98250499Y-96540102D01*
X98244669Y-96510787D01*
X98244668Y-96510785D01*
X98244667Y-96510783D01*
X98222457Y-96477543D01*
X98222456Y-96477542D01*
X98189214Y-96455332D01*
X98189213Y-96455331D01*
X98189212Y-96455330D01*
X98159899Y-96449500D01*
X97840105Y-96449500D01*
X97840100Y-96449501D01*
X97810788Y-96455330D01*
X97810783Y-96455332D01*
X97777543Y-96477542D01*
X97777542Y-96477543D01*
X97755330Y-96510787D01*
X97749500Y-96540101D01*
X97250499Y-96540101D01*
X97244669Y-96510787D01*
X97244668Y-96510785D01*
X97244667Y-96510783D01*
X97222457Y-96477543D01*
X97222456Y-96477542D01*
X97189214Y-96455332D01*
X97189213Y-96455331D01*
X97189212Y-96455330D01*
X97159899Y-96449500D01*
X96840105Y-96449500D01*
X96840100Y-96449501D01*
X96810788Y-96455330D01*
X96810783Y-96455332D01*
X96777543Y-96477542D01*
X96777542Y-96477543D01*
X96755330Y-96510787D01*
X96749500Y-96540101D01*
X96749500Y-97659895D01*
X96749501Y-97659899D01*
X96755330Y-97689211D01*
X96755332Y-97689216D01*
X96777542Y-97722456D01*
X96777543Y-97722457D01*
X96810787Y-97744669D01*
X96823912Y-97747279D01*
X96848094Y-97763435D01*
X96854500Y-97784549D01*
X96854500Y-97807643D01*
X96876650Y-97861117D01*
X96876653Y-97861122D01*
X98577361Y-99561830D01*
X98588491Y-99588700D01*
X98577361Y-99615570D01*
X98550491Y-99626700D01*
X98095000Y-99626700D01*
X98068130Y-99615570D01*
X96261630Y-97809069D01*
X96250500Y-97782199D01*
X96250500Y-97045753D01*
X96250499Y-97045743D01*
X96250499Y-96540104D01*
X96250499Y-96540102D01*
X96244669Y-96510787D01*
X96244668Y-96510785D01*
X96244667Y-96510783D01*
X96222457Y-96477543D01*
X96222456Y-96477542D01*
X96189214Y-96455332D01*
X96189213Y-96455331D01*
X96189212Y-96455330D01*
X96159899Y-96449500D01*
X95840105Y-96449500D01*
X95840100Y-96449501D01*
X95810788Y-96455330D01*
X95810783Y-96455332D01*
X95777543Y-96477542D01*
X95777542Y-96477543D01*
X95755330Y-96510787D01*
X95749500Y-96540101D01*
X95749500Y-97951529D01*
X95787635Y-98043595D01*
X95787637Y-98043599D01*
X97707570Y-99963530D01*
X97718700Y-99990400D01*
X97707570Y-100017270D01*
X97680700Y-100028400D01*
X97518456Y-100028400D01*
X97464982Y-100050550D01*
X97464978Y-100050552D01*
X95417581Y-102097951D01*
X95376652Y-102138878D01*
X95376650Y-102138882D01*
X95354500Y-102192356D01*
X95354500Y-102215450D01*
X95343370Y-102242320D01*
X95323914Y-102252720D01*
X95310786Y-102255331D01*
X95310783Y-102255332D01*
X95277543Y-102277542D01*
X95277542Y-102277543D01*
X95255330Y-102310787D01*
X95249500Y-102340101D01*
X95249500Y-103459895D01*
X95249501Y-103459899D01*
X95255330Y-103489211D01*
X95255332Y-103489216D01*
X95277542Y-103522456D01*
X95277543Y-103522457D01*
X95310787Y-103544669D01*
X95340101Y-103550500D01*
X95659898Y-103550499D01*
X95689213Y-103544669D01*
X95722457Y-103522457D01*
X95744669Y-103489213D01*
X95750500Y-103459899D01*
X95750499Y-102340102D01*
X95744669Y-102310787D01*
X95744668Y-102310785D01*
X95744667Y-102310783D01*
X95722457Y-102277543D01*
X95722455Y-102277541D01*
X95717238Y-102274056D01*
X95701078Y-102249875D01*
X95706750Y-102221350D01*
X95711472Y-102215594D01*
X97596538Y-100330530D01*
X97623408Y-100319400D01*
X99104392Y-100319400D01*
X99131262Y-100330530D01*
X99142392Y-100357400D01*
X99131262Y-100384270D01*
X97417581Y-102097951D01*
X97376652Y-102138878D01*
X97376650Y-102138882D01*
X97354500Y-102192356D01*
X97354500Y-102215450D01*
X97343370Y-102242320D01*
X97323914Y-102252720D01*
X97310786Y-102255331D01*
X97310783Y-102255332D01*
X97277543Y-102277542D01*
X97277542Y-102277543D01*
X97255330Y-102310787D01*
X97249500Y-102340101D01*
X97249500Y-103459895D01*
X97249501Y-103459899D01*
X97255330Y-103489211D01*
X97255332Y-103489216D01*
X97277542Y-103522456D01*
X97277543Y-103522457D01*
X97310787Y-103544669D01*
X97340101Y-103550500D01*
X97659898Y-103550499D01*
X97689213Y-103544669D01*
X97722457Y-103522457D01*
X97744669Y-103489213D01*
X97750500Y-103459899D01*
X97750499Y-102340102D01*
X97750499Y-102340101D01*
X98249500Y-102340101D01*
X98249500Y-103459895D01*
X98249501Y-103459899D01*
X98255330Y-103489211D01*
X98255332Y-103489216D01*
X98277542Y-103522456D01*
X98277543Y-103522457D01*
X98310787Y-103544669D01*
X98340101Y-103550500D01*
X98659898Y-103550499D01*
X98689213Y-103544669D01*
X98722457Y-103522457D01*
X98744669Y-103489213D01*
X98750500Y-103459899D01*
X98750499Y-102340102D01*
X98744669Y-102310787D01*
X98744668Y-102310785D01*
X98744667Y-102310783D01*
X98722457Y-102277543D01*
X98722456Y-102277542D01*
X98689214Y-102255332D01*
X98689213Y-102255331D01*
X98689212Y-102255330D01*
X98659899Y-102249500D01*
X98340105Y-102249500D01*
X98340100Y-102249501D01*
X98310788Y-102255330D01*
X98310783Y-102255332D01*
X98277543Y-102277542D01*
X98277542Y-102277543D01*
X98255330Y-102310787D01*
X98249500Y-102340101D01*
X97750499Y-102340101D01*
X97744669Y-102310787D01*
X97744668Y-102310785D01*
X97744667Y-102310783D01*
X97722457Y-102277543D01*
X97722455Y-102277541D01*
X97717238Y-102274056D01*
X97701078Y-102249875D01*
X97706750Y-102221350D01*
X97711472Y-102215594D01*
X99422838Y-100504230D01*
X99449708Y-100493100D01*
X101930692Y-100493100D01*
X101957562Y-100504230D01*
X101968692Y-100531100D01*
X101957562Y-100557970D01*
X100417581Y-102097951D01*
X100376652Y-102138878D01*
X100376650Y-102138882D01*
X100354500Y-102192356D01*
X100354500Y-102215450D01*
X100343370Y-102242320D01*
X100323914Y-102252720D01*
X100310786Y-102255331D01*
X100310783Y-102255332D01*
X100277543Y-102277542D01*
X100277542Y-102277543D01*
X100255330Y-102310787D01*
X100249500Y-102340101D01*
X100249500Y-103459895D01*
X100249501Y-103459899D01*
X100255330Y-103489211D01*
X100255332Y-103489216D01*
X100277542Y-103522456D01*
X100277543Y-103522457D01*
X100310787Y-103544669D01*
X100340101Y-103550500D01*
X100659898Y-103550499D01*
X100689213Y-103544669D01*
X100722457Y-103522457D01*
X100744669Y-103489213D01*
X100750500Y-103459899D01*
X100750499Y-102340102D01*
X100744669Y-102310787D01*
X100744668Y-102310785D01*
X100744667Y-102310783D01*
X100722457Y-102277543D01*
X100722455Y-102277541D01*
X100717238Y-102274056D01*
X100701078Y-102249875D01*
X100706750Y-102221350D01*
X100711472Y-102215594D01*
X102249138Y-100677930D01*
X102276008Y-100666800D01*
X108390292Y-100666800D01*
X108417162Y-100677930D01*
X109132361Y-101393129D01*
X109143491Y-101419999D01*
X109132363Y-101446867D01*
X109126653Y-101452577D01*
X109126650Y-101452582D01*
X109104500Y-101506056D01*
X109104500Y-101593092D01*
X109093370Y-101619962D01*
X108176262Y-102537070D01*
X108149392Y-102548200D01*
X106257808Y-102548200D01*
X106230938Y-102537070D01*
X105390921Y-101697052D01*
X105390917Y-101697050D01*
X105337444Y-101674900D01*
X105337442Y-101674900D01*
X101929842Y-101674900D01*
X101871958Y-101674900D01*
X101871956Y-101674900D01*
X101818482Y-101697050D01*
X101818478Y-101697052D01*
X101417581Y-102097951D01*
X101376652Y-102138878D01*
X101376650Y-102138882D01*
X101354500Y-102192356D01*
X101354500Y-102215450D01*
X101343370Y-102242320D01*
X101323914Y-102252720D01*
X101310786Y-102255331D01*
X101310783Y-102255332D01*
X101277543Y-102277542D01*
X101277542Y-102277543D01*
X101255330Y-102310787D01*
X101249500Y-102340101D01*
X101249500Y-103459895D01*
X101249501Y-103459899D01*
X101255330Y-103489211D01*
X101255332Y-103489216D01*
X101277542Y-103522456D01*
X101277543Y-103522457D01*
X101310787Y-103544669D01*
X101340101Y-103550500D01*
X101659898Y-103550499D01*
X101689213Y-103544669D01*
X101722457Y-103522457D01*
X101744669Y-103489213D01*
X101750500Y-103459899D01*
X101750499Y-102340102D01*
X101744669Y-102310787D01*
X101744668Y-102310785D01*
X101744667Y-102310783D01*
X101722457Y-102277543D01*
X101722456Y-102277542D01*
X101717237Y-102274055D01*
X101701078Y-102249873D01*
X101706752Y-102221348D01*
X101711478Y-102215589D01*
X101827068Y-102100000D01*
X101950038Y-101977030D01*
X101976908Y-101965900D01*
X103457892Y-101965900D01*
X103484762Y-101977030D01*
X103495892Y-102003900D01*
X103484762Y-102030770D01*
X103417581Y-102097951D01*
X103376652Y-102138878D01*
X103376650Y-102138882D01*
X103354500Y-102192356D01*
X103354500Y-102215450D01*
X103343370Y-102242320D01*
X103323914Y-102252720D01*
X103310786Y-102255331D01*
X103310783Y-102255332D01*
X103277543Y-102277542D01*
X103277542Y-102277543D01*
X103255330Y-102310787D01*
X103249500Y-102340101D01*
X103249500Y-103459895D01*
X103249501Y-103459899D01*
X103255330Y-103489211D01*
X103255332Y-103489216D01*
X103277542Y-103522456D01*
X103277543Y-103522457D01*
X103310787Y-103544669D01*
X103340101Y-103550500D01*
X103659898Y-103550499D01*
X103689213Y-103544669D01*
X103722457Y-103522457D01*
X103744669Y-103489213D01*
X103750500Y-103459899D01*
X103750499Y-102340102D01*
X103744669Y-102310787D01*
X103744668Y-102310785D01*
X103744667Y-102310783D01*
X103722457Y-102277543D01*
X103722456Y-102277542D01*
X103717237Y-102274055D01*
X103701078Y-102249873D01*
X103706752Y-102221348D01*
X103711478Y-102215589D01*
X103734710Y-102192358D01*
X103776338Y-102150730D01*
X103803208Y-102139600D01*
X104319482Y-102139600D01*
X104346352Y-102150730D01*
X104357482Y-102177600D01*
X104357365Y-102180585D01*
X104356892Y-102186581D01*
X104354500Y-102192358D01*
X104354500Y-102216949D01*
X104354383Y-102218435D01*
X104348404Y-102230165D01*
X104343370Y-102242320D01*
X104341775Y-102243172D01*
X104341177Y-102244347D01*
X104337100Y-102245671D01*
X104323914Y-102252720D01*
X104310786Y-102255331D01*
X104310783Y-102255332D01*
X104277543Y-102277542D01*
X104277542Y-102277543D01*
X104255330Y-102310787D01*
X104249500Y-102340101D01*
X104249500Y-103459895D01*
X104249501Y-103459899D01*
X104255330Y-103489211D01*
X104255332Y-103489216D01*
X104277542Y-103522456D01*
X104277543Y-103522457D01*
X104310787Y-103544669D01*
X104340101Y-103550500D01*
X104659898Y-103550499D01*
X104689213Y-103544669D01*
X104722457Y-103522457D01*
X104744669Y-103489213D01*
X104750500Y-103459899D01*
X104750499Y-102762506D01*
X104761629Y-102735637D01*
X104788499Y-102724507D01*
X104815369Y-102735637D01*
X105211051Y-103131319D01*
X105251978Y-103172247D01*
X105251980Y-103172248D01*
X105251981Y-103172249D01*
X105305456Y-103194399D01*
X105305457Y-103194400D01*
X105305458Y-103194400D01*
X108445043Y-103194400D01*
X108445043Y-103194399D01*
X108498519Y-103172249D01*
X109285130Y-102385638D01*
X109312000Y-102374508D01*
X109338870Y-102385638D01*
X109350000Y-102412508D01*
X109350000Y-103331186D01*
X109347107Y-103345728D01*
X109326420Y-103395670D01*
X109299500Y-103531007D01*
X109299500Y-104294998D01*
X109298205Y-104304832D01*
X109298205Y-104304833D01*
X109288805Y-104339914D01*
X109278970Y-104356949D01*
X109256949Y-104378970D01*
X109239914Y-104388805D01*
X109204833Y-104398205D01*
X109194998Y-104399500D01*
X90805002Y-104399500D01*
X90795167Y-104398205D01*
X90760085Y-104388805D01*
X90743050Y-104378970D01*
X90721029Y-104356949D01*
X90711194Y-104339913D01*
X90701795Y-104304832D01*
X90700500Y-104294998D01*
X90700500Y-95705001D01*
X90701795Y-95695167D01*
X90711100Y-95660438D01*
X90711195Y-95660085D01*
X90721027Y-95643052D01*
X90743052Y-95621027D01*
X90760084Y-95611195D01*
X90782310Y-95605239D01*
X90795168Y-95601795D01*
X90805002Y-95600500D01*
X90847595Y-95600500D01*
X109152405Y-95600500D01*
X109194998Y-95600500D01*
X109204832Y-95601795D01*
G37*
G04 #@! TD.AperFunction*
G04 #@! TA.AperFunction,Conductor*
G36*
X107918762Y-96577930D02*
G01*
X108104362Y-96763530D01*
X108115492Y-96790400D01*
X108104362Y-96817270D01*
X108077492Y-96828400D01*
X107396256Y-96828400D01*
X107342782Y-96850550D01*
X107342778Y-96850552D01*
X106571262Y-97622070D01*
X106544392Y-97633200D01*
X103288500Y-97633200D01*
X103261630Y-97622070D01*
X103250500Y-97595200D01*
X103250499Y-96604800D01*
X103261629Y-96577930D01*
X103288499Y-96566800D01*
X107891892Y-96566800D01*
X107918762Y-96577930D01*
G37*
G04 #@! TD.AperFunction*
G04 #@! TD*
M02*
