G04 #@! TF.GenerationSoftware,KiCad,Pcbnew,9.0.2+dfsg-1*
G04 #@! TF.CreationDate,2026-10-04T10:33:52-04:00*
G04 #@! TF.ProjectId,mod_hdmi,6d6f645f-6864-46d6-992e-6b696361645f,A1*
G04 #@! TF.SameCoordinates,Original*
G04 #@! TF.FileFunction,Copper,L1,Top*
G04 #@! TF.FilePolarity,Positive*
%FSLAX46Y46*%
G04 Gerber Fmt 4.6, Leading zero omitted, Abs format (unit mm)*
G04 Created by KiCad (PCBNEW 9.0.2+dfsg-1) date 2026-10-04 10:33:52*
%MOMM*%
%LPD*%
G01*
G04 APERTURE LIST*
G04 Aperture macros list*
%AMRoundRect*
0 Rectangle with rounded corners*
0 $1 Rounding radius*
0 $2 $3 $4 $5 $6 $7 $8 $9 X,Y pos of 4 corners*
0 Add a 4 corners polygon primitive as box body*
4,1,4,$2,$3,$4,$5,$6,$7,$8,$9,$2,$3,0*
0 Add four circle primitives for the rounded corners*
1,1,$1+$1,$2,$3*
1,1,$1+$1,$4,$5*
1,1,$1+$1,$6,$7*
1,1,$1+$1,$8,$9*
0 Add four rect primitives between the rounded corners*
20,1,$1+$1,$2,$3,$4,$5,0*
20,1,$1+$1,$4,$5,$6,$7,0*
20,1,$1+$1,$6,$7,$8,$9,0*
20,1,$1+$1,$8,$9,$2,$3,0*%
G04 Aperture macros list end*
G04 #@! TA.AperFunction,Conductor*
%ADD10C,0.000000*%
G04 #@! TD*
G04 #@! TA.AperFunction,SMDPad,CuDef*
%ADD11RoundRect,0.100000X-0.130000X-0.100000X0.130000X-0.100000X0.130000X0.100000X-0.130000X0.100000X0*%
G04 #@! TD*
G04 #@! TA.AperFunction,SMDPad,CuDef*
%ADD12R,0.230000X0.660000*%
G04 #@! TD*
G04 #@! TA.AperFunction,SMDPad,CuDef*
%ADD13R,0.350000X0.660000*%
G04 #@! TD*
G04 #@! TA.AperFunction,SMDPad,CuDef*
%ADD14R,0.300000X2.000000*%
G04 #@! TD*
G04 #@! TA.AperFunction,ComponentPad*
%ADD15C,1.900000*%
G04 #@! TD*
G04 #@! TA.AperFunction,SMDPad,CuDef*
%ADD16RoundRect,0.062500X0.372500X0.062500X-0.372500X0.062500X-0.372500X-0.062500X0.372500X-0.062500X0*%
G04 #@! TD*
G04 #@! TA.AperFunction,HeatsinkPad*
%ADD17R,0.610000X2.200000*%
G04 #@! TD*
G04 #@! TA.AperFunction,ViaPad*
%ADD18C,0.550000*%
G04 #@! TD*
G04 #@! TA.AperFunction,ViaPad*
%ADD19C,0.400000*%
G04 #@! TD*
G04 #@! TA.AperFunction,Conductor*
%ADD20C,0.080000*%
G04 #@! TD*
G04 #@! TA.AperFunction,Conductor*
%ADD21C,0.078000*%
G04 #@! TD*
G04 #@! TA.AperFunction,Conductor*
%ADD22C,0.110000*%
G04 #@! TD*
G04 #@! TA.AperFunction,Conductor*
%ADD23C,0.150000*%
G04 #@! TD*
G04 #@! TA.AperFunction,Conductor*
%ADD24C,0.200000*%
G04 #@! TD*
G04 #@! TA.AperFunction,Conductor*
%ADD25C,0.100000*%
G04 #@! TD*
G04 #@! TA.AperFunction,Conductor*
%ADD26C,0.600000*%
G04 #@! TD*
G04 #@! TA.AperFunction,Conductor*
%ADD27C,0.250000*%
G04 #@! TD*
G04 APERTURE END LIST*
D10*
G04 #@! TA.AperFunction,Conductor*
G04 #@! TO.N,GND*
G36*
X126939000Y-100437500D02*
G01*
X126789000Y-100437500D01*
X126630250Y-100082500D01*
X127097750Y-100082500D01*
X126939000Y-100437500D01*
G37*
G04 #@! TD.AperFunction*
G04 #@! TA.AperFunction,Conductor*
G04 #@! TO.N,VBUS*
G36*
X104415000Y-102350000D02*
G01*
X104165000Y-102350000D01*
X104120000Y-102010000D01*
X104460000Y-102010000D01*
X104415000Y-102350000D01*
G37*
G04 #@! TD.AperFunction*
G04 #@! TA.AperFunction,Conductor*
G04 #@! TO.N,GND*
G36*
X128961750Y-101256000D02*
G01*
X128766250Y-101256000D01*
X128789000Y-100910000D01*
X128939000Y-100910000D01*
X128961750Y-101256000D01*
G37*
G04 #@! TD.AperFunction*
G04 #@! TA.AperFunction,Conductor*
G36*
X124539000Y-100437500D02*
G01*
X124389000Y-100437500D01*
X124230250Y-100082500D01*
X124697750Y-100082500D01*
X124539000Y-100437500D01*
G37*
G04 #@! TD.AperFunction*
G04 #@! TA.AperFunction,Conductor*
G04 #@! TO.N,ID_SCL*
G36*
X132328500Y-99856250D02*
G01*
X131899000Y-99800000D01*
X131899000Y-99700000D01*
X132328500Y-99643750D01*
X132328500Y-99856250D01*
G37*
G04 #@! TD.AperFunction*
G04 #@! TA.AperFunction,Conductor*
G04 #@! TO.N,GND*
G36*
X134414000Y-101162500D02*
G01*
X134264000Y-101162500D01*
X133969249Y-100787500D01*
X134708750Y-100787500D01*
X134414000Y-101162500D01*
G37*
G04 #@! TD.AperFunction*
G04 #@! TA.AperFunction,Conductor*
G36*
X100890000Y-102550000D02*
G01*
X100690000Y-102550000D01*
X100620000Y-102210000D01*
X100960000Y-102210000D01*
X100890000Y-102550000D01*
G37*
G04 #@! TD.AperFunction*
G04 #@! TA.AperFunction,Conductor*
G36*
X126939000Y-99089999D02*
G01*
X126789000Y-99089999D01*
X126766250Y-98744000D01*
X126961750Y-98744000D01*
X126939000Y-99089999D01*
G37*
G04 #@! TD.AperFunction*
G04 #@! TA.AperFunction,Conductor*
G36*
X134708750Y-99212500D02*
G01*
X133969249Y-99212500D01*
X134264000Y-98837500D01*
X134414000Y-98837500D01*
X134708750Y-99212500D01*
G37*
G04 #@! TD.AperFunction*
G04 #@! TA.AperFunction,Conductor*
G36*
X134414000Y-99037500D02*
G01*
X134264000Y-99037500D01*
X134105250Y-98632500D01*
X134572749Y-98632500D01*
X134414000Y-99037500D01*
G37*
G04 #@! TD.AperFunction*
G04 #@! TA.AperFunction,Conductor*
G36*
X97890000Y-102550000D02*
G01*
X97690000Y-102550000D01*
X97620000Y-102210000D01*
X97960000Y-102210000D01*
X97890000Y-102550000D01*
G37*
G04 #@! TD.AperFunction*
G04 #@! TA.AperFunction,Conductor*
G04 #@! TO.N,CK_P*
G36*
X100417500Y-103200000D02*
G01*
X100162500Y-103200000D01*
X100250000Y-102350000D01*
X100330000Y-102350000D01*
X100417500Y-103200000D01*
G37*
G04 #@! TD.AperFunction*
G04 #@! TA.AperFunction,Conductor*
G04 #@! TO.N,D2_P*
G36*
X127761750Y-98545999D02*
G01*
X127566250Y-98545999D01*
X127625000Y-98200000D01*
X127703000Y-98200000D01*
X127761750Y-98545999D01*
G37*
G04 #@! TD.AperFunction*
G04 #@! TA.AperFunction,Conductor*
G04 #@! TO.N,GND*
G36*
X130561749Y-98545999D02*
G01*
X130366250Y-98545999D01*
X130389000Y-98200000D01*
X130538999Y-98200000D01*
X130561749Y-98545999D01*
G37*
G04 #@! TD.AperFunction*
G04 #@! TA.AperFunction,Conductor*
G36*
X99390000Y-102550000D02*
G01*
X99190000Y-102550000D01*
X99120000Y-102210000D01*
X99460000Y-102210000D01*
X99390000Y-102550000D01*
G37*
G04 #@! TD.AperFunction*
G04 #@! TA.AperFunction,Conductor*
G36*
X125897750Y-99917500D02*
G01*
X125430250Y-99917500D01*
X125589000Y-99562500D01*
X125739000Y-99562500D01*
X125897750Y-99917500D01*
G37*
G04 #@! TD.AperFunction*
G04 #@! TA.AperFunction,Conductor*
G04 #@! TO.N,D0_N*
G36*
X99917500Y-103200000D02*
G01*
X99662500Y-103200000D01*
X99750000Y-102350000D01*
X99830000Y-102350000D01*
X99917500Y-103200000D01*
G37*
G04 #@! TD.AperFunction*
G04 #@! TA.AperFunction,Conductor*
G04 #@! TO.N,3V3_MOD*
G36*
X132673772Y-102337630D02*
G01*
X132282772Y-102342369D01*
X132423791Y-101970605D01*
X132523784Y-101969394D01*
X132673772Y-102337630D01*
G37*
G04 #@! TD.AperFunction*
G04 #@! TA.AperFunction,Conductor*
G04 #@! TO.N,GND*
G36*
X124697750Y-99917500D02*
G01*
X124230250Y-99917500D01*
X124389000Y-99562500D01*
X124539000Y-99562500D01*
X124697750Y-99917500D01*
G37*
G04 #@! TD.AperFunction*
G04 #@! TA.AperFunction,Conductor*
G04 #@! TO.N,D2_P*
G36*
X95917500Y-103200000D02*
G01*
X95662500Y-103200000D01*
X95750000Y-102350000D01*
X95830000Y-102350000D01*
X95917500Y-103200000D01*
G37*
G04 #@! TD.AperFunction*
G04 #@! TA.AperFunction,Conductor*
G04 #@! TO.N,GND*
G36*
X128138999Y-100437500D02*
G01*
X127988999Y-100437500D01*
X127830249Y-100082500D01*
X128297750Y-100082500D01*
X128138999Y-100437500D01*
G37*
G04 #@! TD.AperFunction*
G04 #@! TA.AperFunction,Conductor*
G36*
X134208500Y-100356250D02*
G01*
X133779000Y-100325000D01*
X133779000Y-100175000D01*
X134208500Y-100143750D01*
X134208500Y-100356250D01*
G37*
G04 #@! TD.AperFunction*
G04 #@! TA.AperFunction,Conductor*
G36*
X132328500Y-100356250D02*
G01*
X131899000Y-100300000D01*
X131899000Y-100200000D01*
X132328500Y-100143750D01*
X132328500Y-100356250D01*
G37*
G04 #@! TD.AperFunction*
G04 #@! TA.AperFunction,Conductor*
G04 #@! TO.N,D1_N*
G36*
X126161749Y-98545999D02*
G01*
X125966250Y-98545999D01*
X126024999Y-98200000D01*
X126103000Y-98200000D01*
X126161749Y-98545999D01*
G37*
G04 #@! TD.AperFunction*
G04 #@! TA.AperFunction,Conductor*
G04 #@! TO.N,GND*
G36*
X128297750Y-99917500D02*
G01*
X127830249Y-99917500D01*
X127988999Y-99562500D01*
X128138999Y-99562500D01*
X128297750Y-99917500D01*
G37*
G04 #@! TD.AperFunction*
G04 #@! TA.AperFunction,Conductor*
G36*
X134208500Y-99856250D02*
G01*
X133779000Y-99825000D01*
X133779000Y-99675000D01*
X134208500Y-99643750D01*
X134208500Y-99856250D01*
G37*
G04 #@! TD.AperFunction*
G04 #@! TA.AperFunction,Conductor*
G04 #@! TO.N,D1_P*
G36*
X97417500Y-103200000D02*
G01*
X97162500Y-103200000D01*
X97250000Y-102350000D01*
X97330000Y-102350000D01*
X97417500Y-103200000D01*
G37*
G04 #@! TD.AperFunction*
G04 #@! TA.AperFunction,Conductor*
G04 #@! TO.N,GND*
G36*
X134572749Y-101367500D02*
G01*
X134105250Y-101367500D01*
X134264000Y-100962500D01*
X134414000Y-100962500D01*
X134572749Y-101367500D01*
G37*
G04 #@! TD.AperFunction*
G04 #@! TA.AperFunction,Conductor*
G04 #@! TO.N,CK_P*
G36*
X124161749Y-98545999D02*
G01*
X123966250Y-98545999D01*
X124024999Y-98200000D01*
X124103000Y-98200000D01*
X124161749Y-98545999D01*
G37*
G04 #@! TD.AperFunction*
G04 #@! TA.AperFunction,Conductor*
G04 #@! TO.N,D2_N*
G36*
X127361750Y-98545999D02*
G01*
X127166249Y-98545999D01*
X127225000Y-98200000D01*
X127303000Y-98200000D01*
X127361750Y-98545999D01*
G37*
G04 #@! TD.AperFunction*
G04 #@! TA.AperFunction,Conductor*
G04 #@! TO.N,GND*
G36*
X127097750Y-99917500D02*
G01*
X126630250Y-99917500D01*
X126789000Y-99562500D01*
X126939000Y-99562500D01*
X127097750Y-99917500D01*
G37*
G04 #@! TD.AperFunction*
G04 #@! TA.AperFunction,Conductor*
G36*
X130538999Y-101800000D02*
G01*
X130389000Y-101800000D01*
X130366250Y-101454000D01*
X130561749Y-101454000D01*
X130538999Y-101800000D01*
G37*
G04 #@! TD.AperFunction*
G04 #@! TA.AperFunction,Conductor*
G36*
X130492514Y-102110676D02*
G01*
X130509729Y-102430716D01*
X130091989Y-102221845D01*
X130358350Y-102043594D01*
X130492514Y-102110676D01*
G37*
G04 #@! TD.AperFunction*
G04 #@! TA.AperFunction,Conductor*
G36*
X129361750Y-101256000D02*
G01*
X129166250Y-101256000D01*
X129214000Y-100910000D01*
X129314000Y-100910000D01*
X129361750Y-101256000D01*
G37*
G04 #@! TD.AperFunction*
G04 #@! TA.AperFunction,Conductor*
G04 #@! TO.N,D1_P*
G36*
X126561749Y-98545999D02*
G01*
X126366250Y-98545999D01*
X126425000Y-98200000D01*
X126503000Y-98200000D01*
X126561749Y-98545999D01*
G37*
G04 #@! TD.AperFunction*
G04 #@! TA.AperFunction,Conductor*
G04 #@! TO.N,GND*
G36*
X130436010Y-102221845D02*
G01*
X130018270Y-102430716D01*
X130035485Y-102110676D01*
X130169649Y-102043594D01*
X130436010Y-102221845D01*
G37*
G04 #@! TD.AperFunction*
G04 #@! TA.AperFunction,Conductor*
G36*
X128910560Y-100423157D02*
G01*
X128762601Y-100447817D01*
X128547220Y-100119680D01*
X129007877Y-100042904D01*
X128910560Y-100423157D01*
G37*
G04 #@! TD.AperFunction*
G04 #@! TA.AperFunction,Conductor*
G04 #@! TO.N,D0_P*
G36*
X98917500Y-103200000D02*
G01*
X98662500Y-103200000D01*
X98750000Y-102350000D01*
X98830000Y-102350000D01*
X98917500Y-103200000D01*
G37*
G04 #@! TD.AperFunction*
G04 #@! TA.AperFunction,Conductor*
G04 #@! TO.N,GND*
G36*
X134021500Y-99925000D02*
G01*
X134021500Y-100075000D01*
X133490500Y-100935000D01*
X133490500Y-99065000D01*
X134021500Y-99925000D01*
G37*
G04 #@! TD.AperFunction*
G04 #@! TA.AperFunction,Conductor*
G36*
X123361750Y-101256000D02*
G01*
X123166249Y-101256000D01*
X123189000Y-100910000D01*
X123339000Y-100910000D01*
X123361750Y-101256000D01*
G37*
G04 #@! TD.AperFunction*
G04 #@! TA.AperFunction,Conductor*
G04 #@! TO.N,3V3_MOD*
G36*
X129761749Y-101256000D02*
G01*
X129566250Y-101256000D01*
X129613999Y-100910000D01*
X129714000Y-100910000D01*
X129761749Y-101256000D01*
G37*
G04 #@! TD.AperFunction*
G04 #@! TA.AperFunction,Conductor*
G04 #@! TO.N,GND*
G36*
X96390000Y-102550000D02*
G01*
X96190000Y-102550000D01*
X96120000Y-102210000D01*
X96460000Y-102210000D01*
X96390000Y-102550000D01*
G37*
G04 #@! TD.AperFunction*
G04 #@! TA.AperFunction,Conductor*
G36*
X133019000Y-100200000D02*
G01*
X133019000Y-100300000D01*
X132589499Y-100356250D01*
X132589499Y-100143750D01*
X133019000Y-100200000D01*
G37*
G04 #@! TD.AperFunction*
G04 #@! TA.AperFunction,Conductor*
G04 #@! TO.N,D0_P*
G36*
X125361750Y-98545999D02*
G01*
X125166249Y-98545999D01*
X125225000Y-98200000D01*
X125303000Y-98200000D01*
X125361750Y-98545999D01*
G37*
G04 #@! TD.AperFunction*
G04 #@! TA.AperFunction,Conductor*
G04 #@! TO.N,GND*
G36*
X133553797Y-102352717D02*
G01*
X133544202Y-102502410D01*
X133177102Y-102574423D01*
X133198897Y-102234423D01*
X133553797Y-102352717D01*
G37*
G04 #@! TD.AperFunction*
G04 #@! TA.AperFunction,Conductor*
G04 #@! TO.N,ID_SCL*
G36*
X129314000Y-99089999D02*
G01*
X129214000Y-99089999D01*
X129166250Y-98744000D01*
X129361750Y-98744000D01*
X129314000Y-99089999D01*
G37*
G04 #@! TD.AperFunction*
G04 #@! TA.AperFunction,Conductor*
G04 #@! TO.N,ID_SDA*
G36*
X132328500Y-99356250D02*
G01*
X131899000Y-99300000D01*
X131899000Y-99200000D01*
X132328500Y-99143750D01*
X132328500Y-99356250D01*
G37*
G04 #@! TD.AperFunction*
G04 #@! TA.AperFunction,Conductor*
G04 #@! TO.N,D0_N*
G36*
X124961750Y-98545999D02*
G01*
X124766250Y-98545999D01*
X124825000Y-98200000D01*
X124903000Y-98200000D01*
X124961750Y-98545999D01*
G37*
G04 #@! TD.AperFunction*
G04 #@! TA.AperFunction,Conductor*
G04 #@! TO.N,GND*
G36*
X103890000Y-102550000D02*
G01*
X103690000Y-102550000D01*
X103620000Y-102210000D01*
X103960000Y-102210000D01*
X103890000Y-102550000D01*
G37*
G04 #@! TD.AperFunction*
G04 #@! TA.AperFunction,Conductor*
G04 #@! TO.N,ID_SDA*
G36*
X129714000Y-99089999D02*
G01*
X129613999Y-99089999D01*
X129566250Y-98744000D01*
X129761749Y-98744000D01*
X129714000Y-99089999D01*
G37*
G04 #@! TD.AperFunction*
G04 #@! TA.AperFunction,Conductor*
G04 #@! TO.N,GND*
G36*
X124539000Y-99089999D02*
G01*
X124389000Y-99089999D01*
X124366250Y-98744000D01*
X124561749Y-98744000D01*
X124539000Y-99089999D01*
G37*
G04 #@! TD.AperFunction*
G04 #@! TA.AperFunction,Conductor*
G04 #@! TO.N,3V3_MOD*
G36*
X132515783Y-101309394D02*
G01*
X132415791Y-101310605D01*
X132089704Y-100791981D01*
X132829204Y-100783018D01*
X132515783Y-101309394D01*
G37*
G04 #@! TD.AperFunction*
G04 #@! TA.AperFunction,Conductor*
G04 #@! TO.N,GND*
G36*
X123339000Y-99089999D02*
G01*
X123189000Y-99089999D01*
X123166249Y-98744000D01*
X123361750Y-98744000D01*
X123339000Y-99089999D01*
G37*
G04 #@! TD.AperFunction*
G04 #@! TA.AperFunction,Conductor*
G04 #@! TO.N,HPD*
G36*
X104917500Y-103200000D02*
G01*
X104662500Y-103200000D01*
X104740000Y-102350000D01*
X104840000Y-102350000D01*
X104917500Y-103200000D01*
G37*
G04 #@! TD.AperFunction*
G04 #@! TA.AperFunction,Conductor*
G04 #@! TO.N,GND*
G36*
X123659476Y-100152037D02*
G01*
X123391711Y-100454035D01*
X123249409Y-100406600D01*
X123216395Y-100004343D01*
X123659476Y-100152037D01*
G37*
G04 #@! TD.AperFunction*
G04 #@! TA.AperFunction,Conductor*
G04 #@! TO.N,DDC_SDA*
G36*
X103417500Y-103200000D02*
G01*
X103162500Y-103200000D01*
X103240000Y-102350000D01*
X103340000Y-102350000D01*
X103417500Y-103200000D01*
G37*
G04 #@! TD.AperFunction*
G04 #@! TA.AperFunction,Conductor*
G04 #@! TO.N,GND*
G36*
X124561749Y-101256000D02*
G01*
X124366250Y-101256000D01*
X124389000Y-100910000D01*
X124539000Y-100910000D01*
X124561749Y-101256000D01*
G37*
G04 #@! TD.AperFunction*
G04 #@! TA.AperFunction,Conductor*
G04 #@! TO.N,HPD*
G36*
X124903000Y-101800000D02*
G01*
X124825000Y-101800000D01*
X124766250Y-101454000D01*
X124961750Y-101454000D01*
X124903000Y-101800000D01*
G37*
G04 #@! TD.AperFunction*
G04 #@! TA.AperFunction,Conductor*
G04 #@! TO.N,D1_N*
G36*
X98417500Y-103200000D02*
G01*
X98162500Y-103200000D01*
X98250000Y-102350000D01*
X98330000Y-102350000D01*
X98417500Y-103200000D01*
G37*
G04 #@! TD.AperFunction*
G04 #@! TA.AperFunction,Conductor*
G04 #@! TO.N,GND*
G36*
X128161749Y-101256000D02*
G01*
X127966250Y-101256000D01*
X127988999Y-100910000D01*
X128138999Y-100910000D01*
X128161749Y-101256000D01*
G37*
G04 #@! TD.AperFunction*
G04 #@! TA.AperFunction,Conductor*
G04 #@! TO.N,DDC_SCL*
G36*
X102917500Y-103200000D02*
G01*
X102662500Y-103200000D01*
X102740000Y-102350000D01*
X102840000Y-102350000D01*
X102917500Y-103200000D01*
G37*
G04 #@! TD.AperFunction*
G04 #@! TA.AperFunction,Conductor*
G04 #@! TO.N,GND*
G36*
X128939000Y-99089999D02*
G01*
X128789000Y-99089999D01*
X128766250Y-98744000D01*
X128961750Y-98744000D01*
X128939000Y-99089999D01*
G37*
G04 #@! TD.AperFunction*
G04 #@! TA.AperFunction,Conductor*
G36*
X134021500Y-99925000D02*
G01*
X134021500Y-100075000D01*
X133490500Y-100935000D01*
X133490500Y-99065000D01*
X134021500Y-99925000D01*
G37*
G04 #@! TD.AperFunction*
G04 #@! TA.AperFunction,Conductor*
G36*
X125761750Y-101256000D02*
G01*
X125566250Y-101256000D01*
X125589000Y-100910000D01*
X125739000Y-100910000D01*
X125761750Y-101256000D01*
G37*
G04 #@! TD.AperFunction*
G04 #@! TA.AperFunction,Conductor*
G04 #@! TO.N,CK_N*
G36*
X101417500Y-103200000D02*
G01*
X101162500Y-103200000D01*
X101250000Y-102350000D01*
X101330000Y-102350000D01*
X101417500Y-103200000D01*
G37*
G04 #@! TD.AperFunction*
G04 #@! TA.AperFunction,Conductor*
G04 #@! TO.N,GND*
G36*
X126961750Y-101256000D02*
G01*
X126766250Y-101256000D01*
X126789000Y-100910000D01*
X126939000Y-100910000D01*
X126961750Y-101256000D01*
G37*
G04 #@! TD.AperFunction*
G04 #@! TA.AperFunction,Conductor*
G04 #@! TO.N,D2_N*
G36*
X96917500Y-103200000D02*
G01*
X96662500Y-103200000D01*
X96750000Y-102350000D01*
X96830000Y-102350000D01*
X96917500Y-103200000D01*
G37*
G04 #@! TD.AperFunction*
G04 #@! TA.AperFunction,Conductor*
G04 #@! TO.N,GND*
G36*
X128138999Y-99089999D02*
G01*
X127988999Y-99089999D01*
X127966250Y-98744000D01*
X128161749Y-98744000D01*
X128138999Y-99089999D01*
G37*
G04 #@! TD.AperFunction*
G04 #@! TA.AperFunction,Conductor*
G36*
X130138999Y-101800000D02*
G01*
X129989000Y-101800000D01*
X129966250Y-101454000D01*
X130161749Y-101454000D01*
X130138999Y-101800000D01*
G37*
G04 #@! TD.AperFunction*
G04 #@! TA.AperFunction,Conductor*
G36*
X128910560Y-99576842D02*
G01*
X129007877Y-99957095D01*
X128547220Y-99880319D01*
X128762601Y-99552182D01*
X128910560Y-99576842D01*
G37*
G04 #@! TD.AperFunction*
G04 #@! TA.AperFunction,Conductor*
G36*
X130538999Y-98149999D02*
G01*
X130389000Y-98149999D01*
X130230250Y-97682499D01*
X130697749Y-97682499D01*
X130538999Y-98149999D01*
G37*
G04 #@! TD.AperFunction*
G04 #@! TA.AperFunction,Conductor*
G36*
X133801822Y-102677744D02*
G01*
X133367133Y-102491059D01*
X133376729Y-102341367D01*
X133831695Y-102211711D01*
X133801822Y-102677744D01*
G37*
G04 #@! TD.AperFunction*
G04 #@! TA.AperFunction,Conductor*
G36*
X123659476Y-99847962D02*
G01*
X123216395Y-99995656D01*
X123249409Y-99593399D01*
X123391711Y-99545964D01*
X123659476Y-99847962D01*
G37*
G04 #@! TD.AperFunction*
G04 #@! TA.AperFunction,Conductor*
G04 #@! TO.N,3V3_MOD*
G36*
X132328500Y-100856250D02*
G01*
X131899000Y-100800000D01*
X131899000Y-100700000D01*
X132328500Y-100643750D01*
X132328500Y-100856250D01*
G37*
G04 #@! TD.AperFunction*
G04 #@! TA.AperFunction,Conductor*
G04 #@! TO.N,GND*
G36*
X125739000Y-99089999D02*
G01*
X125589000Y-99089999D01*
X125566250Y-98744000D01*
X125761750Y-98744000D01*
X125739000Y-99089999D01*
G37*
G04 #@! TD.AperFunction*
G04 #@! TA.AperFunction,Conductor*
G36*
X125739000Y-100437500D02*
G01*
X125589000Y-100437500D01*
X125430250Y-100082500D01*
X125897750Y-100082500D01*
X125739000Y-100437500D01*
G37*
G04 #@! TD.AperFunction*
G04 #@! TA.AperFunction,Conductor*
G04 #@! TO.N,DDC_SDA*
G36*
X124103000Y-101800000D02*
G01*
X124024999Y-101800000D01*
X123966250Y-101454000D01*
X124161749Y-101454000D01*
X124103000Y-101800000D01*
G37*
G04 #@! TD.AperFunction*
G04 #@! TD*
D11*
G04 #@! TO.P,C1,1*
G04 #@! TO.N,3V3_MOD*
X132479000Y-102400000D03*
G04 #@! TO.P,C1,2*
G04 #@! TO.N,GND*
X133119000Y-102400000D03*
G04 #@! TD*
D12*
G04 #@! TO.P,J2,1*
G04 #@! TO.N,VBUS*
X120864000Y-98645000D03*
G04 #@! TO.P,J2,2*
X120864000Y-101355000D03*
G04 #@! TO.P,J2,3*
X121264000Y-98645000D03*
G04 #@! TO.P,J2,4*
X121264000Y-101355000D03*
G04 #@! TO.P,J2,5*
X121664000Y-98645000D03*
G04 #@! TO.P,J2,6*
X121664000Y-101355000D03*
G04 #@! TO.P,J2,7*
X122064000Y-98645000D03*
G04 #@! TO.P,J2,8*
X122064000Y-101355000D03*
G04 #@! TO.P,J2,9*
X122464000Y-98645000D03*
G04 #@! TO.P,J2,10*
X122464000Y-101355000D03*
G04 #@! TO.P,J2,11*
X122864000Y-98645000D03*
G04 #@! TO.P,J2,12*
X122864000Y-101355000D03*
G04 #@! TO.P,J2,13*
G04 #@! TO.N,GND*
X123264000Y-98645000D03*
G04 #@! TO.P,J2,14*
X123264000Y-101355000D03*
G04 #@! TO.P,J2,15*
G04 #@! TO.N,CK_N*
X123664000Y-98645000D03*
G04 #@! TO.P,J2,16*
G04 #@! TO.N,DDC_SCL*
X123664000Y-101355000D03*
G04 #@! TO.P,J2,17*
G04 #@! TO.N,CK_P*
X124064000Y-98645000D03*
G04 #@! TO.P,J2,18*
G04 #@! TO.N,DDC_SDA*
X124064000Y-101355000D03*
G04 #@! TO.P,J2,19*
G04 #@! TO.N,GND*
X124464000Y-98645000D03*
G04 #@! TO.P,J2,20*
X124464000Y-101355000D03*
G04 #@! TO.P,J2,21*
G04 #@! TO.N,D0_N*
X124864000Y-98645000D03*
G04 #@! TO.P,J2,22*
G04 #@! TO.N,HPD*
X124864000Y-101355000D03*
G04 #@! TO.P,J2,23*
G04 #@! TO.N,D0_P*
X125264000Y-98645000D03*
G04 #@! TO.P,J2,24*
G04 #@! TO.N,N/C*
X125264000Y-101355000D03*
G04 #@! TO.P,J2,25*
G04 #@! TO.N,GND*
X125664000Y-98645000D03*
G04 #@! TO.P,J2,26*
X125664000Y-101355000D03*
G04 #@! TO.P,J2,27*
G04 #@! TO.N,D1_N*
X126064000Y-98645000D03*
G04 #@! TO.P,J2,28*
G04 #@! TO.N,N/C*
X126064000Y-101355000D03*
G04 #@! TO.P,J2,29*
G04 #@! TO.N,D1_P*
X126464000Y-98645000D03*
G04 #@! TO.P,J2,30*
G04 #@! TO.N,N/C*
X126464000Y-101355000D03*
G04 #@! TO.P,J2,31*
G04 #@! TO.N,GND*
X126864000Y-98645000D03*
G04 #@! TO.P,J2,32*
X126864000Y-101355000D03*
G04 #@! TO.P,J2,33*
G04 #@! TO.N,D2_N*
X127264000Y-98645000D03*
G04 #@! TO.P,J2,34*
G04 #@! TO.N,N/C*
X127264000Y-101355000D03*
G04 #@! TO.P,J2,35*
G04 #@! TO.N,D2_P*
X127664000Y-98645000D03*
G04 #@! TO.P,J2,36*
G04 #@! TO.N,N/C*
X127664000Y-101355000D03*
G04 #@! TO.P,J2,37*
G04 #@! TO.N,GND*
X128064000Y-98645000D03*
G04 #@! TO.P,J2,38*
X128064000Y-101355000D03*
G04 #@! TO.P,J2,39*
G04 #@! TO.N,N/C*
X128464000Y-98645000D03*
G04 #@! TO.P,J2,40*
X128464000Y-101355000D03*
G04 #@! TO.P,J2,41*
G04 #@! TO.N,GND*
X128864000Y-98645000D03*
G04 #@! TO.P,J2,42*
X128864000Y-101355000D03*
G04 #@! TO.P,J2,43*
G04 #@! TO.N,ID_SCL*
X129264000Y-98645000D03*
G04 #@! TO.P,J2,44*
G04 #@! TO.N,GND*
X129264000Y-101355000D03*
G04 #@! TO.P,J2,45*
G04 #@! TO.N,ID_SDA*
X129664000Y-98645000D03*
G04 #@! TO.P,J2,46*
G04 #@! TO.N,3V3_MOD*
X129664000Y-101355000D03*
G04 #@! TO.P,J2,47*
G04 #@! TO.N,N/C*
X130064000Y-98645000D03*
G04 #@! TO.P,J2,48*
G04 #@! TO.N,GND*
X130064000Y-101355000D03*
G04 #@! TO.P,J2,49*
X130464000Y-98645000D03*
G04 #@! TO.P,J2,50*
X130464000Y-101355000D03*
D13*
G04 #@! TO.P,J2,MP*
G04 #@! TO.N,N/C*
X120389000Y-98645000D03*
X120389000Y-101355000D03*
X130939000Y-98645000D03*
X130939000Y-101355000D03*
G04 #@! TD*
D14*
G04 #@! TO.P,J1,1*
G04 #@! TO.N,D2_P*
X95790000Y-103500000D03*
G04 #@! TO.P,J1,2*
G04 #@! TO.N,GND*
X96290000Y-103500000D03*
G04 #@! TO.P,J1,3*
G04 #@! TO.N,D2_N*
X96790000Y-103500000D03*
G04 #@! TO.P,J1,4*
G04 #@! TO.N,D1_P*
X97290000Y-103500000D03*
G04 #@! TO.P,J1,5*
G04 #@! TO.N,GND*
X97790000Y-103500000D03*
G04 #@! TO.P,J1,6*
G04 #@! TO.N,D1_N*
X98290000Y-103500000D03*
G04 #@! TO.P,J1,7*
G04 #@! TO.N,D0_P*
X98790000Y-103500000D03*
G04 #@! TO.P,J1,8*
G04 #@! TO.N,GND*
X99290000Y-103500000D03*
G04 #@! TO.P,J1,9*
G04 #@! TO.N,D0_N*
X99790000Y-103500000D03*
G04 #@! TO.P,J1,10*
G04 #@! TO.N,CK_P*
X100290000Y-103500000D03*
G04 #@! TO.P,J1,11*
G04 #@! TO.N,GND*
X100790000Y-103500000D03*
G04 #@! TO.P,J1,12*
G04 #@! TO.N,CK_N*
X101290000Y-103500000D03*
G04 #@! TO.P,J1,13*
G04 #@! TO.N,N/C*
X101790000Y-103500000D03*
G04 #@! TO.P,J1,14*
X102290000Y-103500000D03*
G04 #@! TO.P,J1,15*
G04 #@! TO.N,DDC_SCL*
X102790000Y-103500000D03*
G04 #@! TO.P,J1,16*
G04 #@! TO.N,DDC_SDA*
X103290000Y-103500000D03*
G04 #@! TO.P,J1,17*
G04 #@! TO.N,GND*
X103790000Y-103500000D03*
G04 #@! TO.P,J1,18*
G04 #@! TO.N,VBUS*
X104290000Y-103500000D03*
G04 #@! TO.P,J1,19*
G04 #@! TO.N,HPD*
X104790000Y-103500000D03*
G04 #@! TO.P,J1,MP*
G04 #@! TO.N,N/C*
X94790000Y-103500000D03*
X95290000Y-103500000D03*
D15*
G04 #@! TO.P,J1,S*
G04 #@! TO.N,GND*
X92750000Y-100900000D03*
X100000000Y-97600000D03*
X107250000Y-100900000D03*
G04 #@! TD*
D16*
G04 #@! TO.P,U1,1*
G04 #@! TO.N,GND*
X134339000Y-100750000D03*
G04 #@! TO.P,U1,2*
X134339000Y-100250000D03*
G04 #@! TO.P,U1,3*
X134339000Y-99750000D03*
G04 #@! TO.P,U1,4*
X134339000Y-99250000D03*
G04 #@! TO.P,U1,5*
G04 #@! TO.N,ID_SDA*
X132459000Y-99250000D03*
G04 #@! TO.P,U1,6*
G04 #@! TO.N,ID_SCL*
X132459000Y-99750000D03*
G04 #@! TO.P,U1,7*
G04 #@! TO.N,GND*
X132459000Y-100250000D03*
G04 #@! TO.P,U1,8*
G04 #@! TO.N,3V3_MOD*
X132459000Y-100750000D03*
D17*
G04 #@! TO.P,U1,9*
G04 #@! TO.N,GND*
X133399000Y-100000000D03*
G04 #@! TD*
D18*
G04 #@! TO.N,GND*
X128064000Y-100000000D03*
X105716687Y-103249750D03*
X125664000Y-100000000D03*
X132621062Y-98012875D03*
X134339000Y-101450000D03*
D19*
X99290000Y-102150000D03*
D18*
X134339000Y-98550000D03*
X130264000Y-102400000D03*
X124464000Y-100000000D03*
X128764000Y-100000000D03*
D19*
X103790000Y-102150000D03*
D18*
X96289999Y-99353480D03*
X100815238Y-101592378D03*
X133899000Y-102450000D03*
D19*
X100790000Y-102150000D03*
X97790000Y-102150000D03*
D18*
X123464000Y-100000000D03*
D19*
X96290000Y-102150000D03*
D18*
X93256687Y-96812875D03*
X130464000Y-97600000D03*
X126864000Y-100000000D03*
D19*
G04 #@! TO.N,VBUS*
X104290000Y-101950000D03*
D18*
X119914000Y-99650000D03*
X119914000Y-100350000D03*
G04 #@! TD*
D20*
G04 #@! TO.N,D2_P*
X108650000Y-97190000D02*
X109250000Y-97190000D01*
X109250000Y-97190000D02*
X109750000Y-97190000D01*
D21*
X118964000Y-97175000D02*
X119064000Y-97227000D01*
X119202691Y-97106000D02*
X119435000Y-97106000D01*
X119081691Y-97227000D02*
X119202691Y-97106000D01*
D20*
X103918902Y-98780000D02*
X105508902Y-97190000D01*
X95790000Y-103500000D02*
X95790000Y-99080000D01*
D21*
X119435000Y-97106000D02*
X127664000Y-97106000D01*
X119064000Y-97227000D02*
X119081691Y-97227000D01*
D20*
X95790000Y-99080000D02*
X96090000Y-98780000D01*
X105508902Y-97190000D02*
X108650000Y-97190000D01*
X96090000Y-98780000D02*
X103918902Y-98780000D01*
D21*
X127664000Y-97106000D02*
X127664000Y-98645000D01*
D22*
X109850000Y-97175000D02*
X118964000Y-97175000D01*
D20*
X109750000Y-97190000D02*
X109850000Y-97175000D01*
D23*
G04 #@! TO.N,GND*
X128064000Y-101355000D02*
X128064000Y-100600000D01*
X126864000Y-98645000D02*
X126864000Y-99400000D01*
X128064000Y-98645000D02*
X128064000Y-99400000D01*
X130064000Y-102000000D02*
X130264000Y-102400000D01*
X126864000Y-100600000D02*
X126864000Y-100000000D01*
X134339000Y-99750000D02*
X133399000Y-99750000D01*
X124464000Y-100600000D02*
X124464000Y-100000000D01*
X125664000Y-101355000D02*
X125664000Y-100600000D01*
X130464000Y-101355000D02*
X130464000Y-102000000D01*
D24*
X100790000Y-103500000D02*
X100790000Y-102150000D01*
D23*
X125664000Y-98645000D02*
X125664000Y-99400000D01*
D25*
X129264000Y-100250000D02*
X132459000Y-100250000D01*
X129264000Y-101355000D02*
X129264000Y-100250000D01*
D23*
X125664000Y-99400000D02*
X125664000Y-100000000D01*
X134339000Y-99250000D02*
X134339000Y-98550000D01*
X130464000Y-98645000D02*
X130464000Y-97600000D01*
X126864000Y-99400000D02*
X126864000Y-100000000D01*
X128064000Y-99400000D02*
X128064000Y-100000000D01*
D24*
X99290000Y-103500000D02*
X99290000Y-102150000D01*
D23*
X134339000Y-100750000D02*
X134339000Y-101450000D01*
X130464000Y-102000000D02*
X130264000Y-102400000D01*
X126864000Y-101355000D02*
X126864000Y-100600000D01*
X124464000Y-99400000D02*
X124464000Y-100000000D01*
X123264000Y-99400000D02*
X123464000Y-100000000D01*
X133119000Y-102400000D02*
X133899000Y-102450000D01*
X125664000Y-100600000D02*
X125664000Y-100000000D01*
X128064000Y-100600000D02*
X128064000Y-100000000D01*
X128864000Y-101355000D02*
X128864000Y-100600000D01*
D24*
X96290000Y-103500000D02*
X96290000Y-102150000D01*
D25*
X132459000Y-100250000D02*
X133399000Y-100250000D01*
D24*
X103790000Y-103500000D02*
X103790000Y-102150000D01*
D23*
X123264000Y-100600000D02*
X123464000Y-100000000D01*
X124464000Y-101355000D02*
X124464000Y-100600000D01*
X134339000Y-100250000D02*
X133399000Y-100250000D01*
X124464000Y-98645000D02*
X124464000Y-99400000D01*
X123264000Y-98645000D02*
X123264000Y-99400000D01*
X128864000Y-100600000D02*
X128764000Y-100000000D01*
D24*
X97790000Y-103500000D02*
X97790000Y-102150000D01*
D23*
X130064000Y-101355000D02*
X130064000Y-102000000D01*
X128864000Y-99400000D02*
X128764000Y-100000000D01*
X128864000Y-98645000D02*
X128864000Y-99400000D01*
X123264000Y-101355000D02*
X123264000Y-100600000D01*
D20*
G04 #@! TO.N,D2_N*
X96730000Y-99885000D02*
X96790000Y-99825000D01*
X96377139Y-101045000D02*
X96317139Y-100985000D01*
X96790000Y-101105000D02*
X96730000Y-101045000D01*
X96317139Y-100195000D02*
X96317139Y-99945000D01*
X96730000Y-101045000D02*
X96377139Y-101045000D01*
X108650000Y-97420000D02*
X109250000Y-97420000D01*
X104014171Y-99010000D02*
X105604171Y-97420000D01*
X96730000Y-100675000D02*
X96790000Y-100615000D01*
X96790000Y-99825000D02*
X96790000Y-99010000D01*
X96730000Y-100255000D02*
X96377139Y-100255000D01*
X96377139Y-99885000D02*
X96730000Y-99885000D01*
D21*
X119267308Y-97262000D02*
X119435000Y-97262000D01*
D20*
X96317139Y-99945000D02*
X96377139Y-99885000D01*
X109750000Y-97420000D02*
X109850000Y-97435000D01*
X96377139Y-100255000D02*
X96317139Y-100195000D01*
X96317139Y-100985000D02*
X96317139Y-100735000D01*
D21*
X119435000Y-97262000D02*
X127264000Y-97262000D01*
X119064000Y-97383000D02*
X119146308Y-97383000D01*
X118964000Y-97435000D02*
X119064000Y-97383000D01*
D20*
X96790000Y-100615000D02*
X96790000Y-100315000D01*
D21*
X127264000Y-97262000D02*
X127264000Y-98645000D01*
X119146308Y-97383000D02*
X119267308Y-97262000D01*
D20*
X96790000Y-99010000D02*
X104014171Y-99010000D01*
X96377139Y-100675000D02*
X96730000Y-100675000D01*
D22*
X109850000Y-97435000D02*
X118964000Y-97435000D01*
D20*
X96790000Y-100315000D02*
X96730000Y-100255000D01*
X109250000Y-97420000D02*
X109750000Y-97420000D01*
X105604171Y-97420000D02*
X108650000Y-97420000D01*
X96790000Y-103500000D02*
X96790000Y-101105000D01*
X96317139Y-100735000D02*
X96377139Y-100675000D01*
D21*
G04 #@! TO.N,D1_P*
X119064000Y-97787000D02*
X119081691Y-97787000D01*
D20*
X109750000Y-97750000D02*
X109850000Y-97735000D01*
D21*
X118964000Y-97735000D02*
X119064000Y-97787000D01*
D20*
X97290000Y-99640000D02*
X97590000Y-99340000D01*
X108650000Y-97750000D02*
X109250000Y-97750000D01*
D21*
X119450691Y-97418000D02*
X119683000Y-97418000D01*
X126464000Y-97418000D02*
X126464000Y-98645000D01*
D20*
X104150862Y-99340000D02*
X105740862Y-97750000D01*
D22*
X109850000Y-97735000D02*
X118964000Y-97735000D01*
D20*
X97590000Y-99340000D02*
X104150862Y-99340000D01*
X97290000Y-103500000D02*
X97290000Y-99640000D01*
D21*
X119683000Y-97418000D02*
X126464000Y-97418000D01*
D20*
X109250000Y-97750000D02*
X109750000Y-97750000D01*
D21*
X119081691Y-97787000D02*
X119450691Y-97418000D01*
D20*
X105740862Y-97750000D02*
X108650000Y-97750000D01*
G04 #@! TO.N,D1_N*
X98230000Y-100535000D02*
X97877139Y-100535000D01*
X97877139Y-100165000D02*
X98230000Y-100165000D01*
D21*
X126064000Y-97574000D02*
X126064000Y-98645000D01*
D20*
X105836131Y-97980000D02*
X108650000Y-97980000D01*
X98290000Y-99570000D02*
X104246131Y-99570000D01*
X97817139Y-100225000D02*
X97877139Y-100165000D01*
D21*
X118964000Y-97995000D02*
X119064000Y-97943000D01*
D20*
X108650000Y-97980000D02*
X109250000Y-97980000D01*
X109750000Y-97980000D02*
X109850000Y-97995000D01*
X98230000Y-100955000D02*
X98290000Y-100895000D01*
X97817139Y-101265000D02*
X97817139Y-101015000D01*
X98290000Y-100105000D02*
X98290000Y-99570000D01*
X97877139Y-100535000D02*
X97817139Y-100475000D01*
X98230000Y-101325000D02*
X97877139Y-101325000D01*
X97817139Y-100475000D02*
X97817139Y-100225000D01*
X98290000Y-100895000D02*
X98290000Y-100595000D01*
D21*
X119515308Y-97574000D02*
X119683000Y-97574000D01*
X119146308Y-97943000D02*
X119515308Y-97574000D01*
D20*
X104246131Y-99570000D02*
X105836131Y-97980000D01*
X97877139Y-101325000D02*
X97817139Y-101265000D01*
X98290000Y-100595000D02*
X98230000Y-100535000D01*
X97817139Y-101015000D02*
X97877139Y-100955000D01*
D21*
X119064000Y-97943000D02*
X119146308Y-97943000D01*
X119683000Y-97574000D02*
X126064000Y-97574000D01*
D20*
X98230000Y-100165000D02*
X98290000Y-100105000D01*
X109250000Y-97980000D02*
X109750000Y-97980000D01*
X98290000Y-101385000D02*
X98230000Y-101325000D01*
X98290000Y-103500000D02*
X98290000Y-101385000D01*
X97877139Y-100955000D02*
X98230000Y-100955000D01*
D22*
X109850000Y-97995000D02*
X118964000Y-97995000D01*
D21*
G04 #@! TO.N,D0_P*
X119931000Y-97730000D02*
X125264000Y-97730000D01*
D20*
X108650000Y-98310000D02*
X109250000Y-98310000D01*
X104382821Y-99900000D02*
X105972821Y-98310000D01*
D21*
X119081691Y-98347000D02*
X119698691Y-97730000D01*
D20*
X98790000Y-103500000D02*
X98790000Y-100200000D01*
D21*
X118964000Y-98295000D02*
X119064000Y-98347000D01*
X125264000Y-97730000D02*
X125264000Y-98645000D01*
D20*
X105972821Y-98310000D02*
X108650000Y-98310000D01*
X109750000Y-98310000D02*
X109850000Y-98295000D01*
D21*
X119064000Y-98347000D02*
X119081691Y-98347000D01*
D20*
X98790000Y-100200000D02*
X99090000Y-99900000D01*
X99090000Y-99900000D02*
X104382821Y-99900000D01*
X109250000Y-98310000D02*
X109750000Y-98310000D01*
D22*
X109850000Y-98295000D02*
X118964000Y-98295000D01*
D21*
X119698691Y-97730000D02*
X119931000Y-97730000D01*
D20*
G04 #@! TO.N,D0_N*
X99730000Y-101235000D02*
X99790000Y-101175000D01*
X109750000Y-98540000D02*
X109850000Y-98555000D01*
X99730000Y-100445000D02*
X99790000Y-100385000D01*
X99730000Y-100815000D02*
X99377139Y-100815000D01*
X108650000Y-98540000D02*
X109250000Y-98540000D01*
X99377139Y-101235000D02*
X99730000Y-101235000D01*
X99790000Y-101175000D02*
X99790000Y-100875000D01*
X104478090Y-100130000D02*
X106068090Y-98540000D01*
X99790000Y-100130000D02*
X104478090Y-100130000D01*
X109250000Y-98540000D02*
X109750000Y-98540000D01*
D21*
X119763308Y-97886000D02*
X119931000Y-97886000D01*
D20*
X99317139Y-100505000D02*
X99377139Y-100445000D01*
X99317139Y-101545000D02*
X99317139Y-101295000D01*
D21*
X119064000Y-98503000D02*
X119146308Y-98503000D01*
D20*
X99317139Y-101295000D02*
X99377139Y-101235000D01*
X99317139Y-100755000D02*
X99317139Y-100505000D01*
X99790000Y-101665000D02*
X99730000Y-101605000D01*
D21*
X118964000Y-98555000D02*
X119064000Y-98503000D01*
D20*
X99790000Y-100875000D02*
X99730000Y-100815000D01*
X99377139Y-100445000D02*
X99730000Y-100445000D01*
D22*
X109850000Y-98555000D02*
X118964000Y-98555000D01*
D21*
X119931000Y-97886000D02*
X124864000Y-97886000D01*
D20*
X99730000Y-101605000D02*
X99377139Y-101605000D01*
X99790000Y-100385000D02*
X99790000Y-100130000D01*
X99377139Y-101605000D02*
X99317139Y-101545000D01*
X99790000Y-103500000D02*
X99790000Y-101665000D01*
D21*
X119146308Y-98503000D02*
X119763308Y-97886000D01*
D20*
X106068090Y-98540000D02*
X108650000Y-98540000D01*
D21*
X124864000Y-97886000D02*
X124864000Y-98645000D01*
D20*
X99377139Y-100815000D02*
X99317139Y-100755000D01*
G04 #@! TO.N,CK_P*
X109750000Y-98870000D02*
X109850000Y-98855000D01*
X104614781Y-100460000D02*
X106204781Y-98870000D01*
X100290000Y-100760000D02*
X100590000Y-100460000D01*
X100290000Y-103500000D02*
X100290000Y-100760000D01*
D21*
X120179000Y-98042000D02*
X124064000Y-98042000D01*
X119081691Y-98907000D02*
X119946691Y-98042000D01*
D20*
X100590000Y-100460000D02*
X104614781Y-100460000D01*
D21*
X124064000Y-98042000D02*
X124064000Y-98645000D01*
X119946691Y-98042000D02*
X120179000Y-98042000D01*
X119064000Y-98907000D02*
X119081691Y-98907000D01*
X118964000Y-98855000D02*
X119064000Y-98907000D01*
D20*
X106204781Y-98870000D02*
X108650000Y-98870000D01*
X109250000Y-98870000D02*
X109750000Y-98870000D01*
X108650000Y-98870000D02*
X109250000Y-98870000D01*
D22*
X109850000Y-98855000D02*
X118964000Y-98855000D01*
D20*
G04 #@! TO.N,CK_N*
X102105426Y-101740000D02*
X102165426Y-101680000D01*
X108650000Y-99100000D02*
X109250000Y-99100000D01*
D21*
X120011308Y-98198000D02*
X120179000Y-98198000D01*
D20*
X109750000Y-99100000D02*
X109850000Y-99115000D01*
X101290000Y-100690000D02*
X104710050Y-100690000D01*
X101290000Y-101800000D02*
X101350000Y-101740000D01*
X104710050Y-100690000D02*
X106300050Y-99100000D01*
D22*
X109850000Y-99115000D02*
X118964000Y-99115000D01*
D21*
X120179000Y-98198000D02*
X123664000Y-98198000D01*
X119146308Y-99063000D02*
X120011308Y-98198000D01*
D20*
X102105426Y-101370000D02*
X101350000Y-101370000D01*
X101290000Y-103500000D02*
X101290000Y-101800000D01*
X101290000Y-101310000D02*
X101290000Y-100690000D01*
D21*
X118964000Y-99115000D02*
X119064000Y-99063000D01*
D20*
X109250000Y-99100000D02*
X109750000Y-99100000D01*
D21*
X119064000Y-99063000D02*
X119146308Y-99063000D01*
D20*
X106300050Y-99100000D02*
X108650000Y-99100000D01*
X102165426Y-101430000D02*
X102105426Y-101370000D01*
X102165426Y-101680000D02*
X102165426Y-101430000D01*
X101350000Y-101370000D02*
X101290000Y-101310000D01*
X101350000Y-101740000D02*
X102105426Y-101740000D01*
D21*
X123664000Y-98198000D02*
X123664000Y-98645000D01*
D25*
G04 #@! TO.N,DDC_SCL*
X102790000Y-103500000D02*
X102790000Y-101030000D01*
X106440883Y-99440000D02*
X107854751Y-99440000D01*
D21*
X120265999Y-101802000D02*
X123664000Y-101802000D01*
D25*
X108710000Y-100295248D02*
X108710000Y-100850000D01*
X102790000Y-101030000D02*
X104850883Y-101030000D01*
X104850883Y-101030000D02*
X106440883Y-99440000D01*
D21*
X119064000Y-100850000D02*
X119114000Y-100850000D01*
D25*
X109750000Y-100850000D02*
X109850000Y-100850000D01*
X108710000Y-100850000D02*
X109250000Y-100850000D01*
D21*
X123664000Y-101802000D02*
X123664000Y-101355000D01*
D25*
X109250000Y-100850000D02*
X109750000Y-100850000D01*
D21*
X120066000Y-101802000D02*
X120265999Y-101802000D01*
X119114000Y-100850000D02*
X120066000Y-101802000D01*
X118964000Y-100850000D02*
X119064000Y-100850000D01*
D25*
X109850000Y-100850000D02*
X118964000Y-100850000D01*
X107854751Y-99440000D02*
X108710000Y-100295248D01*
D21*
G04 #@! TO.N,DDC_SDA*
X119972000Y-101958000D02*
X120172000Y-101958000D01*
D25*
X106515441Y-99620000D02*
X107780193Y-99620000D01*
D21*
X118964000Y-101100000D02*
X119064000Y-101100000D01*
X119114000Y-101100000D02*
X119972000Y-101958000D01*
D25*
X109250000Y-101100000D02*
X109750000Y-101100000D01*
X103290000Y-101210000D02*
X104925441Y-101210000D01*
X109850000Y-101100000D02*
X118964000Y-101100000D01*
D21*
X120172000Y-101958000D02*
X124064000Y-101958000D01*
D25*
X104925441Y-101210000D02*
X106515441Y-99620000D01*
X108530000Y-101100000D02*
X109250000Y-101100000D01*
X109750000Y-101100000D02*
X109850000Y-101100000D01*
X108530000Y-100369806D02*
X108530000Y-101100000D01*
D21*
X124064000Y-101958000D02*
X124064000Y-101355000D01*
X119064000Y-101100000D02*
X119114000Y-101100000D01*
D25*
X103290000Y-103500000D02*
X103290000Y-101210000D01*
X107780193Y-99620000D02*
X108530000Y-100369806D01*
D24*
G04 #@! TO.N,VBUS*
X121264000Y-101355000D02*
X121264000Y-100000000D01*
X122064000Y-101355000D02*
X122064000Y-100000000D01*
X120864000Y-98645000D02*
X120864000Y-100000000D01*
D26*
X119614000Y-100000000D02*
X120564000Y-100000000D01*
D24*
X121264000Y-98645000D02*
X121264000Y-100000000D01*
X121664000Y-101355000D02*
X121664000Y-100000000D01*
X121664000Y-98645000D02*
X121664000Y-100000000D01*
D27*
X104290000Y-103500000D02*
X104290000Y-101950000D01*
D24*
X122064000Y-98645000D02*
X122064000Y-100000000D01*
X120864000Y-101355000D02*
X120864000Y-100000000D01*
X122464000Y-101355000D02*
X122464000Y-100000000D01*
X122864000Y-98645000D02*
X122864000Y-100000000D01*
X122464000Y-98645000D02*
X122464000Y-100000000D01*
X122864000Y-101355000D02*
X122864000Y-100000000D01*
D26*
X120264000Y-100000000D02*
X122564000Y-100000000D01*
D25*
G04 #@! TO.N,HPD*
X107705634Y-99800000D02*
X108350000Y-100444365D01*
D21*
X119878000Y-102114000D02*
X120078000Y-102114000D01*
X120078000Y-102114000D02*
X124864000Y-102114000D01*
D25*
X104790000Y-103500000D02*
X104790000Y-101390000D01*
X108350000Y-100444365D02*
X108350000Y-101350000D01*
X105000000Y-101390000D02*
X106590000Y-99800000D01*
X109850000Y-101350000D02*
X118964000Y-101350000D01*
X104790000Y-101390000D02*
X105000000Y-101390000D01*
D21*
X119114000Y-101350000D02*
X119878000Y-102114000D01*
D25*
X109250000Y-101350000D02*
X109750000Y-101350000D01*
X108350000Y-101350000D02*
X109250000Y-101350000D01*
X109750000Y-101350000D02*
X109850000Y-101350000D01*
D21*
X124864000Y-102114000D02*
X124864000Y-101355000D01*
X118964000Y-101350000D02*
X119064000Y-101350000D01*
X119064000Y-101350000D02*
X119114000Y-101350000D01*
D25*
X106590000Y-99800000D02*
X107705634Y-99800000D01*
G04 #@! TO.N,ID_SCL*
X129264000Y-99750000D02*
X132459000Y-99750000D01*
X129264000Y-98645000D02*
X129264000Y-99750000D01*
G04 #@! TO.N,ID_SDA*
X129663999Y-99250000D02*
X132459000Y-99250000D01*
X129663999Y-98645000D02*
X129663999Y-99250000D01*
G04 #@! TO.N,3V3_MOD*
X129663999Y-100750000D02*
X132459000Y-100750000D01*
X129663999Y-101355000D02*
X129663999Y-100750000D01*
X132459000Y-100750000D02*
X132478999Y-102400000D01*
G04 #@! TD*
G04 #@! TA.AperFunction,Conductor*
G04 #@! TO.N,VBUS*
G36*
X123051393Y-99011130D02*
G01*
X123056113Y-99016880D01*
X123057594Y-99019097D01*
X123064000Y-99040210D01*
X123064000Y-100959788D01*
X123057596Y-100980900D01*
X123056118Y-100983112D01*
X123031936Y-100999270D01*
X123024522Y-101000000D01*
X120688477Y-101000000D01*
X120661607Y-100988870D01*
X120656881Y-100983111D01*
X120636457Y-100952543D01*
X120636456Y-100952542D01*
X120619944Y-100941510D01*
X120603213Y-100930331D01*
X120603212Y-100930330D01*
X120573899Y-100924500D01*
X120302000Y-100924500D01*
X120275130Y-100913370D01*
X120264000Y-100886500D01*
X120264000Y-99113499D01*
X120275130Y-99086629D01*
X120301998Y-99075499D01*
X120573898Y-99075499D01*
X120603213Y-99069669D01*
X120636457Y-99047457D01*
X120656881Y-99016888D01*
X120681063Y-99000730D01*
X120688477Y-99000000D01*
X123024523Y-99000000D01*
X123051393Y-99011130D01*
G37*
G04 #@! TD.AperFunction*
G04 #@! TD*
G04 #@! TA.AperFunction,Conductor*
G04 #@! TO.N,GND*
G36*
X109204832Y-95451795D02*
G01*
X109223502Y-95456797D01*
X109239913Y-95461194D01*
X109256949Y-95471029D01*
X109278970Y-95493050D01*
X109288805Y-95510085D01*
X109298205Y-95545166D01*
X109299500Y-95555001D01*
X109299500Y-96418992D01*
X109326420Y-96554329D01*
X109347107Y-96604270D01*
X109350000Y-96618812D01*
X109350000Y-97011500D01*
X109338870Y-97038370D01*
X109312000Y-97049500D01*
X105541278Y-97049500D01*
X105541270Y-97049499D01*
X105536850Y-97049499D01*
X105480955Y-97049499D01*
X105455135Y-97060194D01*
X105434354Y-97068801D01*
X105429312Y-97070890D01*
X105389791Y-97110413D01*
X105389790Y-97110414D01*
X103871835Y-98628370D01*
X103844965Y-98639500D01*
X96122376Y-98639500D01*
X96122368Y-98639499D01*
X96117948Y-98639499D01*
X96062052Y-98639499D01*
X96031802Y-98652029D01*
X96010415Y-98660887D01*
X96010412Y-98660889D01*
X95710413Y-98960889D01*
X95670890Y-99000410D01*
X95670889Y-99000411D01*
X95662604Y-99020414D01*
X95649499Y-99052050D01*
X95649499Y-99112367D01*
X95649500Y-99112376D01*
X95649500Y-102321121D01*
X95648992Y-102327311D01*
X95648204Y-102332082D01*
X95645055Y-102339197D01*
X95641785Y-102370958D01*
X95641594Y-102372117D01*
X95634484Y-102383549D01*
X95628079Y-102395408D01*
X95626710Y-102396051D01*
X95626236Y-102396815D01*
X95623957Y-102397346D01*
X95611516Y-102403197D01*
X95600786Y-102405331D01*
X95600783Y-102405332D01*
X95567543Y-102427542D01*
X95566870Y-102428216D01*
X95565989Y-102428580D01*
X95564431Y-102429622D01*
X95564223Y-102429312D01*
X95540000Y-102439346D01*
X95515776Y-102429312D01*
X95515569Y-102429622D01*
X95514010Y-102428580D01*
X95513130Y-102428216D01*
X95512456Y-102427542D01*
X95479214Y-102405332D01*
X95479213Y-102405331D01*
X95479212Y-102405330D01*
X95449899Y-102399500D01*
X95130105Y-102399500D01*
X95130100Y-102399501D01*
X95100788Y-102405330D01*
X95100783Y-102405332D01*
X95067543Y-102427542D01*
X95066870Y-102428216D01*
X95065989Y-102428580D01*
X95064431Y-102429622D01*
X95064223Y-102429312D01*
X95040000Y-102439346D01*
X95015776Y-102429312D01*
X95015569Y-102429622D01*
X95014010Y-102428580D01*
X95013130Y-102428216D01*
X95012456Y-102427542D01*
X94979214Y-102405332D01*
X94979213Y-102405331D01*
X94979212Y-102405330D01*
X94949899Y-102399500D01*
X94630105Y-102399500D01*
X94630100Y-102399501D01*
X94600788Y-102405330D01*
X94600783Y-102405332D01*
X94567543Y-102427542D01*
X94567542Y-102427543D01*
X94545330Y-102460787D01*
X94539500Y-102490101D01*
X94539501Y-104511500D01*
X94528371Y-104538370D01*
X94501501Y-104549500D01*
X90805002Y-104549500D01*
X90795167Y-104548205D01*
X90760085Y-104538805D01*
X90743050Y-104528970D01*
X90721029Y-104506949D01*
X90711194Y-104489913D01*
X90701795Y-104454832D01*
X90700500Y-104444998D01*
X90700500Y-95555001D01*
X90701795Y-95545167D01*
X90711100Y-95510438D01*
X90711195Y-95510085D01*
X90721027Y-95493052D01*
X90743052Y-95471027D01*
X90760084Y-95461195D01*
X90782310Y-95455239D01*
X90795168Y-95451795D01*
X90805002Y-95450500D01*
X90847595Y-95450500D01*
X109152405Y-95450500D01*
X109194998Y-95450500D01*
X109204832Y-95451795D01*
G37*
G04 #@! TD.AperFunction*
G04 #@! TA.AperFunction,Conductor*
G36*
X96644995Y-98931630D02*
G01*
X96656125Y-98958500D01*
X96653232Y-98973042D01*
X96649500Y-98982051D01*
X96649500Y-99706500D01*
X96638370Y-99733370D01*
X96611500Y-99744500D01*
X96409515Y-99744500D01*
X96409507Y-99744499D01*
X96405087Y-99744499D01*
X96349191Y-99744499D01*
X96318941Y-99757029D01*
X96297554Y-99765887D01*
X96297551Y-99765889D01*
X96198028Y-99865412D01*
X96195280Y-99872049D01*
X96195278Y-99872053D01*
X96176638Y-99917050D01*
X96176638Y-99977367D01*
X96176639Y-99977376D01*
X96176639Y-100163982D01*
X96176638Y-100163996D01*
X96176638Y-100167052D01*
X96176638Y-100222948D01*
X96187475Y-100249108D01*
X96187475Y-100249110D01*
X96194186Y-100265312D01*
X96198028Y-100274587D01*
X96198030Y-100274589D01*
X96242896Y-100319455D01*
X96242898Y-100319456D01*
X96255859Y-100332417D01*
X96255862Y-100332421D01*
X96297552Y-100374111D01*
X96318941Y-100382970D01*
X96318942Y-100382971D01*
X96349191Y-100395501D01*
X96409511Y-100395501D01*
X96409515Y-100395500D01*
X96611500Y-100395500D01*
X96638370Y-100406630D01*
X96649500Y-100433500D01*
X96649500Y-100496500D01*
X96638370Y-100523370D01*
X96611500Y-100534500D01*
X96409515Y-100534500D01*
X96409507Y-100534499D01*
X96405087Y-100534499D01*
X96349191Y-100534499D01*
X96318941Y-100547029D01*
X96297554Y-100555887D01*
X96297551Y-100555889D01*
X96198028Y-100655412D01*
X96195280Y-100662049D01*
X96195278Y-100662053D01*
X96176638Y-100707050D01*
X96176638Y-100767367D01*
X96176639Y-100767376D01*
X96176639Y-100953982D01*
X96176638Y-100953996D01*
X96176638Y-101012948D01*
X96185601Y-101034586D01*
X96189066Y-101042950D01*
X96198028Y-101064587D01*
X96198029Y-101064588D01*
X96198029Y-101064589D01*
X96242896Y-101109455D01*
X96242898Y-101109456D01*
X96255859Y-101122417D01*
X96255862Y-101122421D01*
X96297552Y-101164111D01*
X96318941Y-101172970D01*
X96318942Y-101172971D01*
X96349191Y-101185501D01*
X96409507Y-101185501D01*
X96409515Y-101185500D01*
X96611500Y-101185500D01*
X96638370Y-101196630D01*
X96649500Y-101223500D01*
X96649500Y-102321121D01*
X96648992Y-102327311D01*
X96648204Y-102332082D01*
X96645055Y-102339197D01*
X96641785Y-102370958D01*
X96641594Y-102372117D01*
X96634484Y-102383549D01*
X96628079Y-102395408D01*
X96626710Y-102396051D01*
X96626236Y-102396815D01*
X96623957Y-102397346D01*
X96611516Y-102403197D01*
X96600786Y-102405331D01*
X96600783Y-102405332D01*
X96567543Y-102427542D01*
X96567542Y-102427543D01*
X96545330Y-102460787D01*
X96539500Y-102490101D01*
X96539501Y-104511500D01*
X96528371Y-104538370D01*
X96501501Y-104549500D01*
X96078500Y-104549500D01*
X96051630Y-104538370D01*
X96040500Y-104511500D01*
X96040499Y-102490104D01*
X96040499Y-102490102D01*
X96034669Y-102460787D01*
X96034668Y-102460785D01*
X96034667Y-102460783D01*
X96012457Y-102427543D01*
X96012456Y-102427542D01*
X95989694Y-102412334D01*
X95979213Y-102405331D01*
X95971999Y-102403896D01*
X95968481Y-102403196D01*
X95961375Y-102398447D01*
X95953100Y-102396329D01*
X95949995Y-102390842D01*
X95944300Y-102387037D01*
X95938279Y-102371305D01*
X95938175Y-102370578D01*
X95934945Y-102339197D01*
X95931062Y-102320834D01*
X95930883Y-102319579D01*
X95931010Y-102319081D01*
X95930500Y-102314200D01*
X95930500Y-99153937D01*
X95941630Y-99127067D01*
X96137067Y-98931630D01*
X96163937Y-98920500D01*
X96618125Y-98920500D01*
X96644995Y-98931630D01*
G37*
G04 #@! TD.AperFunction*
G04 #@! TA.AperFunction,Conductor*
G36*
X98125108Y-99483392D02*
G01*
X98132667Y-99483393D01*
X98138011Y-99488737D01*
X98144995Y-99491630D01*
X98147887Y-99498612D01*
X98153233Y-99503958D01*
X98153232Y-99511517D01*
X98156125Y-99518500D01*
X98153232Y-99533042D01*
X98149500Y-99542051D01*
X98149500Y-99986500D01*
X98138370Y-100013370D01*
X98111500Y-100024500D01*
X97909515Y-100024500D01*
X97909507Y-100024499D01*
X97905087Y-100024499D01*
X97849191Y-100024499D01*
X97818941Y-100037029D01*
X97797554Y-100045887D01*
X97797551Y-100045889D01*
X97737552Y-100105889D01*
X97698031Y-100145409D01*
X97698029Y-100145410D01*
X97692835Y-100157950D01*
X97692834Y-100157949D01*
X97676638Y-100197049D01*
X97676638Y-100257367D01*
X97676639Y-100257376D01*
X97676639Y-100443982D01*
X97676638Y-100443996D01*
X97676638Y-100502948D01*
X97685601Y-100524586D01*
X97689708Y-100534500D01*
X97698028Y-100554587D01*
X97698029Y-100554588D01*
X97698029Y-100554589D01*
X97742896Y-100599455D01*
X97742898Y-100599456D01*
X97755859Y-100612417D01*
X97755862Y-100612421D01*
X97758028Y-100614587D01*
X97797552Y-100654111D01*
X97797553Y-100654111D01*
X97797554Y-100654112D01*
X97816725Y-100662053D01*
X97816726Y-100662053D01*
X97849190Y-100675501D01*
X97849191Y-100675501D01*
X97909511Y-100675501D01*
X97909515Y-100675500D01*
X98111500Y-100675500D01*
X98138370Y-100686630D01*
X98149500Y-100713500D01*
X98149500Y-100776500D01*
X98138370Y-100803370D01*
X98111500Y-100814500D01*
X97909515Y-100814500D01*
X97909507Y-100814499D01*
X97905087Y-100814499D01*
X97849191Y-100814499D01*
X97818941Y-100827029D01*
X97797554Y-100835887D01*
X97797551Y-100835889D01*
X97737552Y-100895889D01*
X97698029Y-100935410D01*
X97698027Y-100935413D01*
X97690085Y-100954588D01*
X97676638Y-100987049D01*
X97676638Y-101047367D01*
X97676639Y-101047376D01*
X97676639Y-101233982D01*
X97676638Y-101233996D01*
X97676638Y-101292947D01*
X97681801Y-101305411D01*
X97681801Y-101305413D01*
X97698027Y-101344585D01*
X97698029Y-101344589D01*
X97742896Y-101389455D01*
X97742898Y-101389456D01*
X97755859Y-101402417D01*
X97755862Y-101402421D01*
X97797552Y-101444111D01*
X97818941Y-101452970D01*
X97818942Y-101452971D01*
X97849191Y-101465501D01*
X97909507Y-101465501D01*
X97909515Y-101465500D01*
X98111500Y-101465500D01*
X98138370Y-101476630D01*
X98149500Y-101503500D01*
X98149500Y-102321121D01*
X98148992Y-102327311D01*
X98148204Y-102332082D01*
X98145055Y-102339197D01*
X98141785Y-102370958D01*
X98141594Y-102372117D01*
X98134484Y-102383549D01*
X98128079Y-102395408D01*
X98126710Y-102396051D01*
X98126236Y-102396815D01*
X98123957Y-102397346D01*
X98111516Y-102403197D01*
X98100786Y-102405331D01*
X98100783Y-102405332D01*
X98067543Y-102427542D01*
X98067542Y-102427543D01*
X98045330Y-102460787D01*
X98039500Y-102490101D01*
X98039501Y-104511500D01*
X98028371Y-104538370D01*
X98001501Y-104549500D01*
X97578500Y-104549500D01*
X97551630Y-104538370D01*
X97540500Y-104511500D01*
X97540499Y-102490104D01*
X97540499Y-102490102D01*
X97534669Y-102460787D01*
X97534668Y-102460785D01*
X97534667Y-102460783D01*
X97512457Y-102427543D01*
X97512456Y-102427542D01*
X97489694Y-102412334D01*
X97479213Y-102405331D01*
X97471999Y-102403896D01*
X97468481Y-102403196D01*
X97461375Y-102398447D01*
X97453100Y-102396329D01*
X97449995Y-102390842D01*
X97444300Y-102387037D01*
X97438279Y-102371305D01*
X97438175Y-102370578D01*
X97434945Y-102339197D01*
X97431062Y-102320834D01*
X97430883Y-102319579D01*
X97431010Y-102319081D01*
X97430500Y-102314200D01*
X97430500Y-99713937D01*
X97441630Y-99687067D01*
X97637067Y-99491630D01*
X97663937Y-99480500D01*
X98118125Y-99480500D01*
X98125108Y-99483392D01*
G37*
G04 #@! TD.AperFunction*
G04 #@! TA.AperFunction,Conductor*
G36*
X99644995Y-100051630D02*
G01*
X99656125Y-100078500D01*
X99653232Y-100093042D01*
X99649500Y-100102051D01*
X99649500Y-100266500D01*
X99638370Y-100293370D01*
X99611500Y-100304500D01*
X99409515Y-100304500D01*
X99409507Y-100304499D01*
X99405087Y-100304499D01*
X99349191Y-100304499D01*
X99319550Y-100316777D01*
X99297554Y-100325888D01*
X99297552Y-100325889D01*
X99297550Y-100325891D01*
X99198028Y-100425412D01*
X99195280Y-100432049D01*
X99195278Y-100432053D01*
X99176638Y-100477050D01*
X99176638Y-100537367D01*
X99176639Y-100537376D01*
X99176639Y-100723982D01*
X99176638Y-100723996D01*
X99176638Y-100727052D01*
X99176638Y-100782948D01*
X99187475Y-100809108D01*
X99187475Y-100809110D01*
X99194732Y-100826630D01*
X99198028Y-100834587D01*
X99198030Y-100834589D01*
X99242896Y-100879455D01*
X99242898Y-100879456D01*
X99255859Y-100892417D01*
X99255862Y-100892421D01*
X99297552Y-100934111D01*
X99318941Y-100942970D01*
X99318942Y-100942971D01*
X99349191Y-100955501D01*
X99409511Y-100955501D01*
X99409515Y-100955500D01*
X99611500Y-100955500D01*
X99638370Y-100966630D01*
X99649500Y-100993500D01*
X99649500Y-101056500D01*
X99638370Y-101083370D01*
X99611500Y-101094500D01*
X99409515Y-101094500D01*
X99409507Y-101094499D01*
X99405087Y-101094499D01*
X99349191Y-101094499D01*
X99318941Y-101107029D01*
X99297554Y-101115887D01*
X99297551Y-101115889D01*
X99237552Y-101175889D01*
X99198029Y-101215410D01*
X99198028Y-101215411D01*
X99191814Y-101230414D01*
X99176638Y-101267049D01*
X99176638Y-101327367D01*
X99176639Y-101327376D01*
X99176639Y-101513982D01*
X99176638Y-101513996D01*
X99176638Y-101572947D01*
X99181801Y-101585411D01*
X99181801Y-101585413D01*
X99198027Y-101624585D01*
X99198029Y-101624589D01*
X99242896Y-101669455D01*
X99242898Y-101669456D01*
X99255859Y-101682417D01*
X99255862Y-101682421D01*
X99297552Y-101724111D01*
X99318941Y-101732970D01*
X99318942Y-101732971D01*
X99349191Y-101745501D01*
X99409507Y-101745501D01*
X99409515Y-101745500D01*
X99611500Y-101745500D01*
X99638370Y-101756630D01*
X99649500Y-101783500D01*
X99649500Y-102321121D01*
X99648992Y-102327311D01*
X99648204Y-102332082D01*
X99645055Y-102339197D01*
X99641785Y-102370958D01*
X99641594Y-102372117D01*
X99634484Y-102383549D01*
X99628079Y-102395408D01*
X99626710Y-102396051D01*
X99626236Y-102396815D01*
X99623957Y-102397346D01*
X99611516Y-102403197D01*
X99600786Y-102405331D01*
X99600783Y-102405332D01*
X99567543Y-102427542D01*
X99567542Y-102427543D01*
X99545330Y-102460787D01*
X99539500Y-102490101D01*
X99539501Y-104511500D01*
X99528371Y-104538370D01*
X99501501Y-104549500D01*
X99078500Y-104549500D01*
X99051630Y-104538370D01*
X99040500Y-104511500D01*
X99040499Y-102490104D01*
X99040499Y-102490102D01*
X99034669Y-102460787D01*
X99034668Y-102460785D01*
X99034667Y-102460783D01*
X99012457Y-102427543D01*
X99012456Y-102427542D01*
X98989694Y-102412334D01*
X98979213Y-102405331D01*
X98971999Y-102403896D01*
X98968481Y-102403196D01*
X98961375Y-102398447D01*
X98953100Y-102396329D01*
X98949995Y-102390842D01*
X98944300Y-102387037D01*
X98938279Y-102371305D01*
X98938175Y-102370578D01*
X98934945Y-102339197D01*
X98931062Y-102320834D01*
X98930883Y-102319579D01*
X98931010Y-102319081D01*
X98930500Y-102314200D01*
X98930500Y-100273937D01*
X98941630Y-100247067D01*
X99137067Y-100051630D01*
X99163937Y-100040500D01*
X99618125Y-100040500D01*
X99644995Y-100051630D01*
G37*
G04 #@! TD.AperFunction*
G04 #@! TA.AperFunction,Conductor*
G36*
X101125108Y-100603392D02*
G01*
X101132667Y-100603393D01*
X101138011Y-100608737D01*
X101144995Y-100611630D01*
X101147887Y-100618612D01*
X101153233Y-100623958D01*
X101153232Y-100631517D01*
X101156125Y-100638500D01*
X101153232Y-100653042D01*
X101149500Y-100662051D01*
X101149500Y-101278982D01*
X101149499Y-101278996D01*
X101149499Y-101282052D01*
X101149499Y-101337948D01*
X101157413Y-101357052D01*
X101158840Y-101360496D01*
X101158840Y-101360498D01*
X101165054Y-101375500D01*
X101170889Y-101389587D01*
X101170891Y-101389589D01*
X101215757Y-101434455D01*
X101215759Y-101434456D01*
X101228720Y-101447417D01*
X101228723Y-101447421D01*
X101270413Y-101489111D01*
X101291802Y-101497970D01*
X101291803Y-101497971D01*
X101322052Y-101510501D01*
X101382372Y-101510501D01*
X101382376Y-101510500D01*
X101986926Y-101510500D01*
X102013796Y-101521630D01*
X102024926Y-101548500D01*
X102024926Y-101561500D01*
X102013796Y-101588370D01*
X101986926Y-101599500D01*
X101382376Y-101599500D01*
X101382368Y-101599499D01*
X101377948Y-101599499D01*
X101322052Y-101599499D01*
X101291802Y-101612029D01*
X101270415Y-101620887D01*
X101270412Y-101620889D01*
X101170889Y-101720412D01*
X101170887Y-101720415D01*
X101165687Y-101732970D01*
X101162029Y-101741802D01*
X101160497Y-101745501D01*
X101149499Y-101772051D01*
X101149499Y-101832367D01*
X101149500Y-101832376D01*
X101149500Y-102321121D01*
X101148992Y-102327311D01*
X101148204Y-102332082D01*
X101145055Y-102339197D01*
X101141785Y-102370958D01*
X101141594Y-102372117D01*
X101134484Y-102383549D01*
X101128079Y-102395408D01*
X101126710Y-102396051D01*
X101126236Y-102396815D01*
X101123957Y-102397346D01*
X101111516Y-102403197D01*
X101100786Y-102405331D01*
X101100783Y-102405332D01*
X101067543Y-102427542D01*
X101067542Y-102427543D01*
X101045330Y-102460787D01*
X101039500Y-102490101D01*
X101039501Y-104511500D01*
X101028371Y-104538370D01*
X101001501Y-104549500D01*
X100578500Y-104549500D01*
X100551630Y-104538370D01*
X100540500Y-104511500D01*
X100540499Y-102490104D01*
X100540499Y-102490102D01*
X100534669Y-102460787D01*
X100534668Y-102460785D01*
X100534667Y-102460783D01*
X100512457Y-102427543D01*
X100512456Y-102427542D01*
X100489694Y-102412334D01*
X100479213Y-102405331D01*
X100471999Y-102403896D01*
X100468481Y-102403196D01*
X100461375Y-102398447D01*
X100453100Y-102396329D01*
X100449995Y-102390842D01*
X100444300Y-102387037D01*
X100438279Y-102371305D01*
X100438175Y-102370578D01*
X100434945Y-102339197D01*
X100431062Y-102320834D01*
X100430883Y-102319579D01*
X100431010Y-102319081D01*
X100430500Y-102314200D01*
X100430500Y-100833937D01*
X100441630Y-100807067D01*
X100637067Y-100611630D01*
X100663937Y-100600500D01*
X101118125Y-100600500D01*
X101125108Y-100603392D01*
G37*
G04 #@! TD.AperFunction*
G04 #@! TA.AperFunction,Conductor*
G36*
X104628370Y-101371630D02*
G01*
X104639500Y-101398500D01*
X104639500Y-101812534D01*
X104628370Y-101839404D01*
X104601500Y-101850534D01*
X104574630Y-101839404D01*
X104568591Y-101831534D01*
X104530460Y-101765489D01*
X104474510Y-101709539D01*
X104424884Y-101680888D01*
X104405989Y-101669979D01*
X104405988Y-101669978D01*
X104405985Y-101669977D01*
X104329563Y-101649500D01*
X104329562Y-101649500D01*
X104250438Y-101649500D01*
X104250437Y-101649500D01*
X104174014Y-101669977D01*
X104105489Y-101709539D01*
X104049539Y-101765489D01*
X104009977Y-101834014D01*
X103989500Y-101910436D01*
X103989500Y-101910438D01*
X103989500Y-101989562D01*
X104009979Y-102065989D01*
X104009980Y-102065990D01*
X104020493Y-102084199D01*
X104025255Y-102098213D01*
X104060410Y-102363836D01*
X104063560Y-102377730D01*
X104064500Y-102386131D01*
X104064500Y-102420570D01*
X104058097Y-102441680D01*
X104045330Y-102460788D01*
X104039500Y-102490101D01*
X104039501Y-104511500D01*
X104028371Y-104538370D01*
X104001501Y-104549500D01*
X103578500Y-104549500D01*
X103551630Y-104538370D01*
X103540500Y-104511500D01*
X103540499Y-102490104D01*
X103540499Y-102490102D01*
X103534669Y-102460787D01*
X103534668Y-102460785D01*
X103534667Y-102460783D01*
X103512457Y-102427543D01*
X103512456Y-102427542D01*
X103479210Y-102405329D01*
X103478309Y-102405150D01*
X103477544Y-102404639D01*
X103475751Y-102403896D01*
X103475898Y-102403539D01*
X103471088Y-102400324D01*
X103462689Y-102398103D01*
X103459713Y-102392723D01*
X103454127Y-102388990D01*
X103448066Y-102372962D01*
X103447956Y-102372152D01*
X103445064Y-102340421D01*
X103441014Y-102320701D01*
X103440841Y-102319417D01*
X103440967Y-102318937D01*
X103440500Y-102314336D01*
X103440500Y-101398500D01*
X103451630Y-101371630D01*
X103478500Y-101360500D01*
X104601500Y-101360500D01*
X104628370Y-101371630D01*
G37*
G04 #@! TD.AperFunction*
G04 #@! TA.AperFunction,Conductor*
G36*
X107654425Y-99961630D02*
G01*
X108188370Y-100495574D01*
X108199500Y-100522444D01*
X108199500Y-101379937D01*
X108222412Y-101435250D01*
X108264749Y-101477587D01*
X108320063Y-101500500D01*
X109312000Y-101500500D01*
X109338870Y-101511630D01*
X109350000Y-101538500D01*
X109350000Y-103381186D01*
X109347107Y-103395728D01*
X109326420Y-103445670D01*
X109299500Y-103581007D01*
X109299500Y-104444998D01*
X109298205Y-104454832D01*
X109298205Y-104454833D01*
X109288805Y-104489914D01*
X109278970Y-104506949D01*
X109256949Y-104528970D01*
X109239914Y-104538805D01*
X109204833Y-104548205D01*
X109194998Y-104549500D01*
X105078500Y-104549500D01*
X105051630Y-104538370D01*
X105040500Y-104511500D01*
X105040499Y-102490104D01*
X105040499Y-102490102D01*
X105034669Y-102460787D01*
X105034668Y-102460785D01*
X105034667Y-102460783D01*
X105012457Y-102427543D01*
X105012456Y-102427542D01*
X104979210Y-102405329D01*
X104978309Y-102405150D01*
X104977544Y-102404639D01*
X104975751Y-102403896D01*
X104975898Y-102403539D01*
X104971088Y-102400324D01*
X104962689Y-102398103D01*
X104959713Y-102392723D01*
X104954127Y-102388990D01*
X104948066Y-102372962D01*
X104947956Y-102372152D01*
X104945064Y-102340421D01*
X104941014Y-102320701D01*
X104940841Y-102319417D01*
X104940967Y-102318937D01*
X104940500Y-102314336D01*
X104940500Y-101578500D01*
X104951630Y-101551630D01*
X104978500Y-101540500D01*
X105029937Y-101540500D01*
X105052846Y-101531010D01*
X105052848Y-101531009D01*
X105053454Y-101530758D01*
X105085252Y-101517588D01*
X106641209Y-99961629D01*
X106668079Y-99950500D01*
X107627555Y-99950500D01*
X107654425Y-99961630D01*
G37*
G04 #@! TD.AperFunction*
G04 #@! TD*
G04 #@! TA.AperFunction,Conductor*
G04 #@! TO.N,GND*
G36*
X134698832Y-97051795D02*
G01*
X134717502Y-97056797D01*
X134733913Y-97061194D01*
X134750949Y-97071029D01*
X134772970Y-97093050D01*
X134782805Y-97110085D01*
X134792205Y-97145166D01*
X134793500Y-97155001D01*
X134793500Y-98991823D01*
X134782370Y-99018693D01*
X134755500Y-99029823D01*
X134748088Y-99029093D01*
X134727509Y-99025000D01*
X134414000Y-99025000D01*
X134414000Y-99477643D01*
X134423260Y-99499999D01*
X134414000Y-99522357D01*
X134414000Y-99977643D01*
X134423260Y-99999999D01*
X134414000Y-100022357D01*
X134414000Y-100477643D01*
X134423260Y-100499999D01*
X134414000Y-100522357D01*
X134414000Y-100974999D01*
X134727505Y-100974999D01*
X134727505Y-100974998D01*
X134748087Y-100970905D01*
X134776612Y-100976579D01*
X134792770Y-101000762D01*
X134793500Y-101008175D01*
X134793500Y-102844998D01*
X134792205Y-102854833D01*
X134782805Y-102889914D01*
X134772970Y-102906949D01*
X134750949Y-102928970D01*
X134733914Y-102938805D01*
X134698833Y-102948205D01*
X134688998Y-102949500D01*
X119252000Y-102949500D01*
X119225130Y-102938370D01*
X119214000Y-102911500D01*
X119214000Y-101739023D01*
X119225130Y-101712153D01*
X119252000Y-101701023D01*
X119278870Y-101712153D01*
X119798979Y-102232262D01*
X119808447Y-102236183D01*
X119813993Y-102238481D01*
X119813994Y-102238481D01*
X119813996Y-102238482D01*
X119850252Y-102253500D01*
X124891749Y-102253500D01*
X124928006Y-102238481D01*
X124943020Y-102232262D01*
X124982262Y-102193020D01*
X124997677Y-102155806D01*
X125003500Y-102141749D01*
X125003500Y-101833714D01*
X125004366Y-101825645D01*
X125005455Y-101820632D01*
X125007011Y-101817661D01*
X125010262Y-101798506D01*
X125010442Y-101797682D01*
X125018279Y-101786388D01*
X125025582Y-101774763D01*
X125026444Y-101774169D01*
X125042890Y-101763180D01*
X125071414Y-101757507D01*
X125085108Y-101763179D01*
X125109787Y-101779669D01*
X125139101Y-101785500D01*
X125388898Y-101785499D01*
X125418213Y-101779669D01*
X125443339Y-101762880D01*
X125471863Y-101757207D01*
X125485561Y-101762881D01*
X125509981Y-101779197D01*
X125509982Y-101779198D01*
X125539151Y-101784999D01*
X125589000Y-101784999D01*
X125589000Y-100925000D01*
X125739000Y-100925000D01*
X125739000Y-101784999D01*
X125788846Y-101784999D01*
X125788849Y-101784998D01*
X125818016Y-101779198D01*
X125818018Y-101779197D01*
X125842437Y-101762881D01*
X125870962Y-101757206D01*
X125884658Y-101762879D01*
X125909787Y-101779669D01*
X125939101Y-101785500D01*
X126188898Y-101785499D01*
X126218213Y-101779669D01*
X126242890Y-101763180D01*
X126271413Y-101757507D01*
X126285108Y-101763179D01*
X126309787Y-101779669D01*
X126339101Y-101785500D01*
X126588898Y-101785499D01*
X126618213Y-101779669D01*
X126643339Y-101762880D01*
X126671863Y-101757207D01*
X126685561Y-101762881D01*
X126709981Y-101779197D01*
X126709982Y-101779198D01*
X126739151Y-101784999D01*
X126789000Y-101784999D01*
X126789000Y-100925000D01*
X126939000Y-100925000D01*
X126939000Y-101784999D01*
X126988846Y-101784999D01*
X126988849Y-101784998D01*
X127018016Y-101779198D01*
X127018018Y-101779197D01*
X127042437Y-101762881D01*
X127070962Y-101757206D01*
X127084658Y-101762879D01*
X127109787Y-101779669D01*
X127139101Y-101785500D01*
X127388898Y-101785499D01*
X127418213Y-101779669D01*
X127442890Y-101763180D01*
X127471413Y-101757507D01*
X127485108Y-101763179D01*
X127509787Y-101779669D01*
X127539101Y-101785500D01*
X127788898Y-101785499D01*
X127818213Y-101779669D01*
X127843339Y-101762880D01*
X127871863Y-101757207D01*
X127885561Y-101762881D01*
X127909981Y-101779197D01*
X127909982Y-101779198D01*
X127939151Y-101784999D01*
X127989000Y-101784999D01*
X127989000Y-100925000D01*
X128139000Y-100925000D01*
X128139000Y-101784999D01*
X128188846Y-101784999D01*
X128188849Y-101784998D01*
X128218016Y-101779198D01*
X128218018Y-101779197D01*
X128242437Y-101762881D01*
X128270962Y-101757206D01*
X128284658Y-101762879D01*
X128309787Y-101779669D01*
X128339101Y-101785500D01*
X128588898Y-101785499D01*
X128618213Y-101779669D01*
X128643339Y-101762880D01*
X128671863Y-101757207D01*
X128685561Y-101762881D01*
X128709981Y-101779197D01*
X128709982Y-101779198D01*
X128739151Y-101784999D01*
X128789000Y-101784999D01*
X128939000Y-101784999D01*
X128988846Y-101784999D01*
X128988849Y-101784998D01*
X129018016Y-101779198D01*
X129018018Y-101779197D01*
X129042887Y-101762580D01*
X129071411Y-101756905D01*
X129085111Y-101762579D01*
X129109983Y-101779198D01*
X129109982Y-101779198D01*
X129139151Y-101784999D01*
X129189000Y-101784999D01*
X129189000Y-101430000D01*
X128939000Y-101430000D01*
X128939000Y-101784999D01*
X128789000Y-101784999D01*
X128789000Y-101280000D01*
X128939000Y-101280000D01*
X129189000Y-101280000D01*
X129189000Y-100925000D01*
X129339000Y-100925000D01*
X129339000Y-101784999D01*
X129388846Y-101784999D01*
X129388849Y-101784998D01*
X129418016Y-101779198D01*
X129418018Y-101779197D01*
X129442437Y-101762881D01*
X129470962Y-101757206D01*
X129484658Y-101762879D01*
X129509787Y-101779669D01*
X129539101Y-101785500D01*
X129788898Y-101785499D01*
X129818213Y-101779669D01*
X129843339Y-101762880D01*
X129871863Y-101757207D01*
X129885561Y-101762881D01*
X129909981Y-101779197D01*
X129909982Y-101779198D01*
X129939151Y-101784999D01*
X129989000Y-101784999D01*
X130139000Y-101784999D01*
X130188846Y-101784999D01*
X130188849Y-101784998D01*
X130218016Y-101779198D01*
X130218018Y-101779197D01*
X130242887Y-101762580D01*
X130271411Y-101756905D01*
X130285111Y-101762579D01*
X130309983Y-101779198D01*
X130309982Y-101779198D01*
X130339151Y-101784999D01*
X130389000Y-101784999D01*
X130389000Y-101430000D01*
X130139000Y-101430000D01*
X130139000Y-101784999D01*
X129989000Y-101784999D01*
X129989000Y-101393000D01*
X130000130Y-101366130D01*
X130027000Y-101355000D01*
X130064000Y-101355000D01*
X130064000Y-101318000D01*
X130075130Y-101291130D01*
X130102000Y-101280000D01*
X130426000Y-101280000D01*
X130452870Y-101291130D01*
X130464000Y-101318000D01*
X130464000Y-101355000D01*
X130501000Y-101355000D01*
X130527870Y-101366130D01*
X130539000Y-101393000D01*
X130539000Y-101784999D01*
X130588846Y-101784999D01*
X130588849Y-101784998D01*
X130618015Y-101779198D01*
X130649937Y-101757869D01*
X130678462Y-101752195D01*
X130692159Y-101757868D01*
X130724787Y-101779669D01*
X130754101Y-101785500D01*
X131123898Y-101785499D01*
X131153213Y-101779669D01*
X131186457Y-101757457D01*
X131208669Y-101724213D01*
X131214500Y-101694899D01*
X131214499Y-101015102D01*
X131208669Y-100985787D01*
X131208668Y-100985785D01*
X131208667Y-100985783D01*
X131191180Y-100959611D01*
X131185506Y-100931086D01*
X131201665Y-100906904D01*
X131222776Y-100900500D01*
X131868089Y-100900500D01*
X131874197Y-100900994D01*
X131879539Y-100901863D01*
X131885300Y-100904607D01*
X131941918Y-100912022D01*
X131942489Y-100912115D01*
X131954385Y-100919476D01*
X131966513Y-100926467D01*
X131967176Y-100927391D01*
X131967220Y-100927419D01*
X131967231Y-100927469D01*
X131967975Y-100928506D01*
X131968984Y-100930016D01*
X132022901Y-100966042D01*
X132065855Y-100974586D01*
X132090038Y-100990744D01*
X132090612Y-100991629D01*
X132310059Y-101340648D01*
X132315886Y-101360414D01*
X132322813Y-101931907D01*
X132320346Y-101945845D01*
X132257506Y-102111509D01*
X132243089Y-102129627D01*
X132204449Y-102155447D01*
X132204445Y-102155450D01*
X132160132Y-102221770D01*
X132148500Y-102280252D01*
X132148500Y-102519747D01*
X132160132Y-102578229D01*
X132160132Y-102578230D01*
X132160133Y-102578231D01*
X132204448Y-102644552D01*
X132270769Y-102688867D01*
X132329252Y-102700500D01*
X132329253Y-102700500D01*
X132628747Y-102700500D01*
X132628748Y-102700500D01*
X132687231Y-102688867D01*
X132753552Y-102644552D01*
X132767705Y-102623369D01*
X132791887Y-102607213D01*
X132820412Y-102612887D01*
X132830896Y-102623372D01*
X132844807Y-102644192D01*
X132844808Y-102644193D01*
X132910963Y-102688395D01*
X132910964Y-102688396D01*
X132969302Y-102699999D01*
X132969303Y-102700000D01*
X133044000Y-102700000D01*
X133194000Y-102700000D01*
X133268697Y-102700000D01*
X133268697Y-102699999D01*
X133327035Y-102688396D01*
X133327036Y-102688395D01*
X133393191Y-102644193D01*
X133393193Y-102644191D01*
X133437395Y-102578036D01*
X133437396Y-102578035D01*
X133448999Y-102519697D01*
X133449000Y-102519696D01*
X133449000Y-102475000D01*
X133194000Y-102475000D01*
X133194000Y-102700000D01*
X133044000Y-102700000D01*
X133044000Y-102325000D01*
X133194000Y-102325000D01*
X133449000Y-102325000D01*
X133449000Y-102280303D01*
X133448999Y-102280302D01*
X133437396Y-102221964D01*
X133437395Y-102221963D01*
X133393193Y-102155808D01*
X133393191Y-102155806D01*
X133327036Y-102111604D01*
X133327035Y-102111603D01*
X133268697Y-102100000D01*
X133194000Y-102100000D01*
X133194000Y-102325000D01*
X133044000Y-102325000D01*
X133044000Y-102100000D01*
X132969302Y-102100000D01*
X132910964Y-102111603D01*
X132910963Y-102111604D01*
X132844808Y-102155806D01*
X132830896Y-102176628D01*
X132806713Y-102192786D01*
X132778188Y-102187112D01*
X132767705Y-102176628D01*
X132753553Y-102155449D01*
X132753550Y-102155446D01*
X132708185Y-102125133D01*
X132694104Y-102107873D01*
X132690897Y-102100000D01*
X132626594Y-101942131D01*
X132623791Y-101928262D01*
X132616864Y-101356763D01*
X132622210Y-101336866D01*
X132827364Y-100992322D01*
X132850672Y-100974931D01*
X132852560Y-100974503D01*
X132895099Y-100966042D01*
X132949016Y-100930016D01*
X132985042Y-100876099D01*
X132994500Y-100828552D01*
X132994500Y-100828507D01*
X133804001Y-100828507D01*
X133813427Y-100875903D01*
X133849344Y-100929655D01*
X133903097Y-100965572D01*
X133903095Y-100965572D01*
X133950493Y-100974999D01*
X134264000Y-100974999D01*
X134264000Y-100825000D01*
X133804001Y-100825000D01*
X133804001Y-100828507D01*
X132994500Y-100828507D01*
X132994500Y-100671493D01*
X133804000Y-100671493D01*
X133804000Y-100675000D01*
X134264000Y-100675000D01*
X134264000Y-100522356D01*
X134254739Y-100499999D01*
X134264000Y-100477641D01*
X134264000Y-100325000D01*
X133804001Y-100325000D01*
X133804001Y-100328507D01*
X133813427Y-100375903D01*
X133849344Y-100429655D01*
X133906207Y-100467651D01*
X133905408Y-100468845D01*
X133922022Y-100485464D01*
X133922017Y-100514548D01*
X133905409Y-100531155D01*
X133906207Y-100532349D01*
X133849344Y-100570344D01*
X133813427Y-100624096D01*
X133804000Y-100671493D01*
X132994500Y-100671493D01*
X132994500Y-100671448D01*
X132985042Y-100623901D01*
X132968452Y-100599072D01*
X132949016Y-100569983D01*
X132891988Y-100531879D01*
X132892894Y-100530522D01*
X132876638Y-100514252D01*
X132876649Y-100485168D01*
X132892748Y-100469081D01*
X132891793Y-100467651D01*
X132948655Y-100429655D01*
X132984572Y-100375903D01*
X132993999Y-100328506D01*
X132994000Y-100328505D01*
X132994000Y-100325000D01*
X131924001Y-100325000D01*
X131924001Y-100328507D01*
X131933427Y-100375903D01*
X131969344Y-100429655D01*
X132026207Y-100467651D01*
X132025250Y-100469082D01*
X132041349Y-100485167D01*
X132041362Y-100514251D01*
X132025107Y-100530523D01*
X132026013Y-100531879D01*
X131968984Y-100569983D01*
X131968980Y-100569988D01*
X131967973Y-100571495D01*
X131967193Y-100572015D01*
X131966969Y-100572924D01*
X131957249Y-100578657D01*
X131943787Y-100587648D01*
X131942067Y-100587949D01*
X131941640Y-100588013D01*
X131885300Y-100595393D01*
X131869925Y-100598867D01*
X131868572Y-100599072D01*
X131867996Y-100598929D01*
X131862886Y-100599500D01*
X129634062Y-100599500D01*
X129578748Y-100622412D01*
X129536411Y-100664749D01*
X129513499Y-100720062D01*
X129513499Y-100878579D01*
X129512771Y-100885983D01*
X129511820Y-100890765D01*
X129509489Y-100895577D01*
X129506356Y-100918271D01*
X129506138Y-100919373D01*
X129498630Y-100930614D01*
X129491809Y-100942261D01*
X129489987Y-100943558D01*
X129489986Y-100943560D01*
X129489984Y-100943560D01*
X129489979Y-100943564D01*
X129484662Y-100947117D01*
X129456137Y-100952792D01*
X129442438Y-100947118D01*
X129418019Y-100930802D01*
X129418017Y-100930801D01*
X129388848Y-100925000D01*
X129339000Y-100925000D01*
X129189000Y-100925000D01*
X129139155Y-100925000D01*
X129139150Y-100925001D01*
X129109983Y-100930801D01*
X129109982Y-100930802D01*
X129085110Y-100947420D01*
X129056585Y-100953093D01*
X129042889Y-100947419D01*
X129018019Y-100930802D01*
X129018017Y-100930801D01*
X128988848Y-100925000D01*
X128939000Y-100925000D01*
X128939000Y-101280000D01*
X128789000Y-101280000D01*
X128789000Y-100925000D01*
X128739155Y-100925000D01*
X128739150Y-100925001D01*
X128709983Y-100930801D01*
X128709981Y-100930802D01*
X128685561Y-100947119D01*
X128657036Y-100952793D01*
X128643339Y-100947119D01*
X128643336Y-100947117D01*
X128618213Y-100930331D01*
X128618212Y-100930330D01*
X128588899Y-100924500D01*
X128339105Y-100924500D01*
X128339100Y-100924501D01*
X128309788Y-100930330D01*
X128309784Y-100930332D01*
X128284659Y-100947119D01*
X128256134Y-100952792D01*
X128242438Y-100947118D01*
X128218019Y-100930802D01*
X128218017Y-100930801D01*
X128188848Y-100925000D01*
X128139000Y-100925000D01*
X127989000Y-100925000D01*
X127939155Y-100925000D01*
X127939150Y-100925001D01*
X127909983Y-100930801D01*
X127909981Y-100930802D01*
X127885561Y-100947119D01*
X127857036Y-100952793D01*
X127843339Y-100947119D01*
X127843336Y-100947117D01*
X127818213Y-100930331D01*
X127818212Y-100930330D01*
X127788899Y-100924500D01*
X127539105Y-100924500D01*
X127539100Y-100924501D01*
X127509788Y-100930330D01*
X127509783Y-100930332D01*
X127485110Y-100946818D01*
X127456585Y-100952492D01*
X127442889Y-100946818D01*
X127418213Y-100930331D01*
X127418212Y-100930330D01*
X127388899Y-100924500D01*
X127139105Y-100924500D01*
X127139100Y-100924501D01*
X127109788Y-100930330D01*
X127109784Y-100930332D01*
X127084659Y-100947119D01*
X127056134Y-100952792D01*
X127042438Y-100947118D01*
X127018019Y-100930802D01*
X127018017Y-100930801D01*
X126988848Y-100925000D01*
X126939000Y-100925000D01*
X126789000Y-100925000D01*
X126739155Y-100925000D01*
X126739150Y-100925001D01*
X126709983Y-100930801D01*
X126709981Y-100930802D01*
X126685561Y-100947119D01*
X126657036Y-100952793D01*
X126643339Y-100947119D01*
X126643336Y-100947117D01*
X126618213Y-100930331D01*
X126618212Y-100930330D01*
X126588899Y-100924500D01*
X126339105Y-100924500D01*
X126339100Y-100924501D01*
X126309788Y-100930330D01*
X126309783Y-100930332D01*
X126285110Y-100946818D01*
X126256585Y-100952492D01*
X126242889Y-100946818D01*
X126218213Y-100930331D01*
X126218212Y-100930330D01*
X126188899Y-100924500D01*
X125939105Y-100924500D01*
X125939100Y-100924501D01*
X125909788Y-100930330D01*
X125909784Y-100930332D01*
X125884659Y-100947119D01*
X125856134Y-100952792D01*
X125842438Y-100947118D01*
X125818019Y-100930802D01*
X125818017Y-100930801D01*
X125788848Y-100925000D01*
X125739000Y-100925000D01*
X125589000Y-100925000D01*
X125539155Y-100925000D01*
X125539150Y-100925001D01*
X125509983Y-100930801D01*
X125509981Y-100930802D01*
X125485561Y-100947119D01*
X125457036Y-100952793D01*
X125443339Y-100947119D01*
X125443336Y-100947117D01*
X125418213Y-100930331D01*
X125418212Y-100930330D01*
X125388899Y-100924500D01*
X125139105Y-100924500D01*
X125139100Y-100924501D01*
X125109788Y-100930330D01*
X125109783Y-100930332D01*
X125085110Y-100946818D01*
X125056585Y-100952492D01*
X125042889Y-100946818D01*
X125018213Y-100930331D01*
X125018212Y-100930330D01*
X124988899Y-100924500D01*
X124739105Y-100924500D01*
X124739100Y-100924501D01*
X124709788Y-100930330D01*
X124709784Y-100930332D01*
X124684659Y-100947119D01*
X124656134Y-100952792D01*
X124642438Y-100947118D01*
X124618019Y-100930802D01*
X124618017Y-100930801D01*
X124588848Y-100925000D01*
X124539000Y-100925000D01*
X124539000Y-101784999D01*
X124588846Y-101784999D01*
X124588849Y-101784998D01*
X124618016Y-101779198D01*
X124618018Y-101779197D01*
X124642437Y-101762881D01*
X124649849Y-101761406D01*
X124656135Y-101757206D01*
X124663549Y-101758680D01*
X124670962Y-101757206D01*
X124684658Y-101762879D01*
X124684661Y-101762881D01*
X124701533Y-101774154D01*
X124717692Y-101798336D01*
X124717886Y-101799388D01*
X124720988Y-101817660D01*
X124723400Y-101827461D01*
X124724500Y-101836539D01*
X124724500Y-101936500D01*
X124713370Y-101963370D01*
X124686500Y-101974500D01*
X124241500Y-101974500D01*
X124214630Y-101963370D01*
X124203500Y-101936500D01*
X124203500Y-101833714D01*
X124204366Y-101825645D01*
X124205455Y-101820632D01*
X124207011Y-101817661D01*
X124210262Y-101798506D01*
X124210442Y-101797682D01*
X124218279Y-101786388D01*
X124225582Y-101774763D01*
X124226399Y-101774199D01*
X124243341Y-101762879D01*
X124271865Y-101757207D01*
X124285561Y-101762881D01*
X124309981Y-101779197D01*
X124309982Y-101779198D01*
X124339151Y-101784999D01*
X124389000Y-101784999D01*
X124389000Y-100925000D01*
X124339155Y-100925000D01*
X124339150Y-100925001D01*
X124309983Y-100930801D01*
X124309981Y-100930802D01*
X124285561Y-100947119D01*
X124257036Y-100952793D01*
X124243339Y-100947119D01*
X124243336Y-100947117D01*
X124218213Y-100930331D01*
X124218212Y-100930330D01*
X124188899Y-100924500D01*
X123939105Y-100924500D01*
X123939100Y-100924501D01*
X123909788Y-100930330D01*
X123909783Y-100930332D01*
X123885110Y-100946818D01*
X123856585Y-100952492D01*
X123842889Y-100946818D01*
X123818213Y-100930331D01*
X123818212Y-100930330D01*
X123788899Y-100924500D01*
X123539105Y-100924500D01*
X123539100Y-100924501D01*
X123509788Y-100930330D01*
X123509784Y-100930332D01*
X123484659Y-100947119D01*
X123456134Y-100952792D01*
X123442438Y-100947118D01*
X123418019Y-100930802D01*
X123418017Y-100930801D01*
X123388848Y-100925000D01*
X123339000Y-100925000D01*
X123339000Y-101317000D01*
X123327870Y-101343870D01*
X123301000Y-101355000D01*
X123227000Y-101355000D01*
X123200130Y-101343870D01*
X123189000Y-101317000D01*
X123189000Y-100925000D01*
X123180630Y-100916630D01*
X123169500Y-100889760D01*
X123169500Y-99110239D01*
X123180630Y-99083369D01*
X123189000Y-99074999D01*
X123189000Y-98683000D01*
X123200130Y-98656130D01*
X123227000Y-98645000D01*
X123301000Y-98645000D01*
X123327870Y-98656130D01*
X123339000Y-98683000D01*
X123339000Y-99074999D01*
X123388846Y-99074999D01*
X123388849Y-99074998D01*
X123418016Y-99069198D01*
X123418018Y-99069197D01*
X123442437Y-99052881D01*
X123470962Y-99047206D01*
X123484658Y-99052879D01*
X123509787Y-99069669D01*
X123539101Y-99075500D01*
X123788898Y-99075499D01*
X123818213Y-99069669D01*
X123842890Y-99053180D01*
X123871413Y-99047507D01*
X123885108Y-99053179D01*
X123909787Y-99069669D01*
X123939101Y-99075500D01*
X124188898Y-99075499D01*
X124218213Y-99069669D01*
X124243339Y-99052880D01*
X124271863Y-99047207D01*
X124285561Y-99052881D01*
X124309981Y-99069197D01*
X124309982Y-99069198D01*
X124339151Y-99074999D01*
X124389000Y-99074999D01*
X124389000Y-98215000D01*
X124339155Y-98215000D01*
X124339150Y-98215001D01*
X124309983Y-98220801D01*
X124309981Y-98220802D01*
X124285561Y-98237119D01*
X124278148Y-98238593D01*
X124271863Y-98242793D01*
X124264449Y-98241318D01*
X124257036Y-98242793D01*
X124243340Y-98237120D01*
X124226463Y-98225843D01*
X124210306Y-98201661D01*
X124210113Y-98200612D01*
X124207011Y-98182339D01*
X124204600Y-98172537D01*
X124203500Y-98163460D01*
X124203500Y-98063500D01*
X124214630Y-98036630D01*
X124241500Y-98025500D01*
X124686500Y-98025500D01*
X124713370Y-98036630D01*
X124724500Y-98063500D01*
X124724500Y-98166286D01*
X124723633Y-98174357D01*
X124722543Y-98179370D01*
X124720989Y-98182339D01*
X124717743Y-98201453D01*
X124717555Y-98202320D01*
X124709717Y-98213612D01*
X124702413Y-98225239D01*
X124701533Y-98225845D01*
X124684660Y-98237119D01*
X124656135Y-98242793D01*
X124642437Y-98237119D01*
X124618016Y-98220801D01*
X124618017Y-98220801D01*
X124588848Y-98215000D01*
X124539000Y-98215000D01*
X124539000Y-99074999D01*
X124588846Y-99074999D01*
X124588849Y-99074998D01*
X124618016Y-99069198D01*
X124618018Y-99069197D01*
X124642437Y-99052881D01*
X124670962Y-99047206D01*
X124684658Y-99052879D01*
X124709787Y-99069669D01*
X124739101Y-99075500D01*
X124988898Y-99075499D01*
X125018213Y-99069669D01*
X125042890Y-99053180D01*
X125071413Y-99047507D01*
X125085108Y-99053179D01*
X125109787Y-99069669D01*
X125139101Y-99075500D01*
X125388898Y-99075499D01*
X125418213Y-99069669D01*
X125443339Y-99052880D01*
X125471863Y-99047207D01*
X125485561Y-99052881D01*
X125509981Y-99069197D01*
X125509982Y-99069198D01*
X125539151Y-99074999D01*
X125589000Y-99074999D01*
X125589000Y-98215000D01*
X125539155Y-98215000D01*
X125539150Y-98215001D01*
X125509983Y-98220801D01*
X125509981Y-98220802D01*
X125485561Y-98237119D01*
X125478148Y-98238593D01*
X125471863Y-98242793D01*
X125464449Y-98241318D01*
X125457036Y-98242793D01*
X125443340Y-98237120D01*
X125426463Y-98225843D01*
X125410306Y-98201661D01*
X125410113Y-98200612D01*
X125407011Y-98182339D01*
X125404600Y-98172537D01*
X125403500Y-98163460D01*
X125403500Y-97751500D01*
X125414630Y-97724630D01*
X125441500Y-97713500D01*
X125886500Y-97713500D01*
X125913370Y-97724630D01*
X125924500Y-97751500D01*
X125924500Y-98166285D01*
X125923633Y-98174357D01*
X125922543Y-98179367D01*
X125920988Y-98182339D01*
X125917740Y-98201462D01*
X125917554Y-98202322D01*
X125909724Y-98213601D01*
X125902413Y-98225240D01*
X125901532Y-98225846D01*
X125884660Y-98237119D01*
X125856135Y-98242793D01*
X125842437Y-98237119D01*
X125818016Y-98220801D01*
X125818017Y-98220801D01*
X125788848Y-98215000D01*
X125739000Y-98215000D01*
X125739000Y-99074999D01*
X125788846Y-99074999D01*
X125788849Y-99074998D01*
X125818016Y-99069198D01*
X125818018Y-99069197D01*
X125842437Y-99052881D01*
X125870962Y-99047206D01*
X125884658Y-99052879D01*
X125909787Y-99069669D01*
X125939101Y-99075500D01*
X126188898Y-99075499D01*
X126218213Y-99069669D01*
X126242890Y-99053180D01*
X126271413Y-99047507D01*
X126285108Y-99053179D01*
X126309787Y-99069669D01*
X126339101Y-99075500D01*
X126588898Y-99075499D01*
X126618213Y-99069669D01*
X126643339Y-99052880D01*
X126671863Y-99047207D01*
X126685561Y-99052881D01*
X126709981Y-99069197D01*
X126709982Y-99069198D01*
X126739151Y-99074999D01*
X126789000Y-99074999D01*
X126789000Y-98215000D01*
X126739155Y-98215000D01*
X126739150Y-98215001D01*
X126709983Y-98220801D01*
X126709981Y-98220802D01*
X126685561Y-98237119D01*
X126678148Y-98238593D01*
X126671863Y-98242793D01*
X126664449Y-98241318D01*
X126657036Y-98242793D01*
X126643340Y-98237120D01*
X126626463Y-98225843D01*
X126610306Y-98201661D01*
X126610113Y-98200612D01*
X126607011Y-98182339D01*
X126604600Y-98172537D01*
X126603500Y-98163460D01*
X126603500Y-97439500D01*
X126614630Y-97412630D01*
X126641500Y-97401500D01*
X127086500Y-97401500D01*
X127113370Y-97412630D01*
X127124500Y-97439500D01*
X127124500Y-98166286D01*
X127123633Y-98174358D01*
X127122543Y-98179369D01*
X127120989Y-98182339D01*
X127117742Y-98201452D01*
X127117554Y-98202322D01*
X127109715Y-98213615D01*
X127102411Y-98225241D01*
X127101532Y-98225846D01*
X127084660Y-98237119D01*
X127056135Y-98242793D01*
X127042437Y-98237119D01*
X127018016Y-98220801D01*
X127018017Y-98220801D01*
X126988848Y-98215000D01*
X126939000Y-98215000D01*
X126939000Y-99074999D01*
X126988846Y-99074999D01*
X126988849Y-99074998D01*
X127018016Y-99069198D01*
X127018018Y-99069197D01*
X127042437Y-99052881D01*
X127070962Y-99047206D01*
X127084658Y-99052879D01*
X127109787Y-99069669D01*
X127139101Y-99075500D01*
X127388898Y-99075499D01*
X127418213Y-99069669D01*
X127442890Y-99053180D01*
X127471413Y-99047507D01*
X127485108Y-99053179D01*
X127509787Y-99069669D01*
X127539101Y-99075500D01*
X127788898Y-99075499D01*
X127818213Y-99069669D01*
X127843339Y-99052880D01*
X127871863Y-99047207D01*
X127885561Y-99052881D01*
X127909981Y-99069197D01*
X127909982Y-99069198D01*
X127939151Y-99074999D01*
X127989000Y-99074999D01*
X127989000Y-98215000D01*
X128139000Y-98215000D01*
X128139000Y-99074999D01*
X128188846Y-99074999D01*
X128188849Y-99074998D01*
X128218016Y-99069198D01*
X128218018Y-99069197D01*
X128242437Y-99052881D01*
X128270962Y-99047206D01*
X128284658Y-99052879D01*
X128309787Y-99069669D01*
X128339101Y-99075500D01*
X128588898Y-99075499D01*
X128618213Y-99069669D01*
X128643339Y-99052880D01*
X128671863Y-99047207D01*
X128685561Y-99052881D01*
X128709981Y-99069197D01*
X128709982Y-99069198D01*
X128739151Y-99074999D01*
X128789000Y-99074999D01*
X128789000Y-98215000D01*
X128939000Y-98215000D01*
X128939000Y-99074999D01*
X128988846Y-99074999D01*
X128988849Y-99074998D01*
X129018016Y-99069198D01*
X129018018Y-99069197D01*
X129042437Y-99052881D01*
X129049849Y-99051406D01*
X129056135Y-99047206D01*
X129063549Y-99048680D01*
X129070962Y-99047206D01*
X129084658Y-99052879D01*
X129089979Y-99056434D01*
X129106138Y-99080616D01*
X129106511Y-99082834D01*
X129109490Y-99104419D01*
X129110148Y-99107284D01*
X129112536Y-99117687D01*
X129112537Y-99117689D01*
X129113500Y-99126192D01*
X129113500Y-99779937D01*
X129136412Y-99835250D01*
X129178749Y-99877587D01*
X129234063Y-99900500D01*
X129234064Y-99900500D01*
X129293936Y-99900500D01*
X131868089Y-99900500D01*
X131874197Y-99900994D01*
X131879539Y-99901863D01*
X131885300Y-99904607D01*
X131941918Y-99912022D01*
X131942489Y-99912115D01*
X131954385Y-99919476D01*
X131966513Y-99926467D01*
X131967176Y-99927391D01*
X131967220Y-99927419D01*
X131967231Y-99927469D01*
X131967975Y-99928506D01*
X131968984Y-99930016D01*
X132022901Y-99966042D01*
X132026013Y-99968121D01*
X132025104Y-99969481D01*
X132041356Y-99985734D01*
X132041355Y-100014818D01*
X132025254Y-100030923D01*
X132026207Y-100032349D01*
X131969344Y-100070344D01*
X131933427Y-100124096D01*
X131924000Y-100171493D01*
X131924000Y-100175000D01*
X132993999Y-100175000D01*
X132993999Y-100171496D01*
X132993998Y-100171493D01*
X133804000Y-100171493D01*
X133804000Y-100175000D01*
X134264000Y-100175000D01*
X134264000Y-100022356D01*
X134254739Y-99999999D01*
X134264000Y-99977641D01*
X134264000Y-99825000D01*
X133804001Y-99825000D01*
X133804001Y-99828507D01*
X133813427Y-99875903D01*
X133849344Y-99929655D01*
X133906207Y-99967651D01*
X133905408Y-99968845D01*
X133922022Y-99985464D01*
X133922017Y-100014548D01*
X133905409Y-100031155D01*
X133906207Y-100032349D01*
X133849344Y-100070344D01*
X133813427Y-100124096D01*
X133804000Y-100171493D01*
X132993998Y-100171493D01*
X132993998Y-100171491D01*
X132984572Y-100124096D01*
X132948655Y-100070344D01*
X132891793Y-100032349D01*
X132892747Y-100030920D01*
X132876644Y-100014817D01*
X132876644Y-99985733D01*
X132892896Y-99969480D01*
X132891988Y-99968121D01*
X132949016Y-99930016D01*
X132956059Y-99919476D01*
X132985042Y-99876099D01*
X132994500Y-99828552D01*
X132994500Y-99671493D01*
X133804000Y-99671493D01*
X133804000Y-99675000D01*
X134264000Y-99675000D01*
X134264000Y-99522356D01*
X134254739Y-99499999D01*
X134264000Y-99477641D01*
X134264000Y-99325000D01*
X133804001Y-99325000D01*
X133804001Y-99328507D01*
X133813427Y-99375903D01*
X133849344Y-99429655D01*
X133906207Y-99467651D01*
X133905408Y-99468845D01*
X133922022Y-99485464D01*
X133922017Y-99514548D01*
X133905409Y-99531155D01*
X133906207Y-99532349D01*
X133849344Y-99570344D01*
X133813427Y-99624096D01*
X133804000Y-99671493D01*
X132994500Y-99671493D01*
X132994500Y-99671448D01*
X132985042Y-99623901D01*
X132976869Y-99611669D01*
X132949016Y-99569983D01*
X132891988Y-99531879D01*
X132893053Y-99530283D01*
X132877313Y-99514556D01*
X132877302Y-99485472D01*
X132893050Y-99469710D01*
X132891988Y-99468121D01*
X132949016Y-99430016D01*
X132956084Y-99419438D01*
X132985042Y-99376099D01*
X132994500Y-99328552D01*
X132994500Y-99171493D01*
X133804000Y-99171493D01*
X133804000Y-99175000D01*
X134264000Y-99175000D01*
X134264000Y-99025000D01*
X133950495Y-99025000D01*
X133950492Y-99025001D01*
X133903096Y-99034427D01*
X133849344Y-99070344D01*
X133813427Y-99124096D01*
X133804000Y-99171493D01*
X132994500Y-99171493D01*
X132994500Y-99171448D01*
X132985042Y-99123901D01*
X132983382Y-99121416D01*
X132949016Y-99069983D01*
X132895100Y-99033958D01*
X132895098Y-99033957D01*
X132847552Y-99024500D01*
X132070448Y-99024500D01*
X132022902Y-99033957D01*
X131968984Y-99069983D01*
X131968980Y-99069988D01*
X131967973Y-99071495D01*
X131967193Y-99072015D01*
X131966969Y-99072924D01*
X131957249Y-99078657D01*
X131943787Y-99087648D01*
X131942067Y-99087949D01*
X131941640Y-99088013D01*
X131885300Y-99095393D01*
X131869925Y-99098867D01*
X131868572Y-99099072D01*
X131867996Y-99098929D01*
X131862886Y-99099500D01*
X131222776Y-99099500D01*
X131195906Y-99088370D01*
X131184776Y-99061500D01*
X131191179Y-99040390D01*
X131198239Y-99029823D01*
X131208669Y-99014213D01*
X131214500Y-98984899D01*
X131214499Y-98305102D01*
X131208669Y-98275787D01*
X131208668Y-98275785D01*
X131208667Y-98275783D01*
X131186457Y-98242543D01*
X131186456Y-98242542D01*
X131161467Y-98225846D01*
X131153213Y-98220331D01*
X131153212Y-98220330D01*
X131123899Y-98214500D01*
X130754105Y-98214500D01*
X130754100Y-98214501D01*
X130724788Y-98220330D01*
X130724784Y-98220332D01*
X130692159Y-98242130D01*
X130663634Y-98247803D01*
X130649938Y-98242129D01*
X130618019Y-98220802D01*
X130618017Y-98220801D01*
X130588848Y-98215000D01*
X130539000Y-98215000D01*
X130539000Y-98607000D01*
X130527870Y-98633870D01*
X130501000Y-98645000D01*
X130427000Y-98645000D01*
X130400130Y-98633870D01*
X130389000Y-98607000D01*
X130389000Y-98215000D01*
X130339155Y-98215000D01*
X130339150Y-98215001D01*
X130309983Y-98220801D01*
X130309981Y-98220802D01*
X130285561Y-98237119D01*
X130257036Y-98242793D01*
X130243339Y-98237119D01*
X130243338Y-98237118D01*
X130218213Y-98220331D01*
X130218212Y-98220330D01*
X130188899Y-98214500D01*
X129939105Y-98214500D01*
X129939100Y-98214501D01*
X129909788Y-98220330D01*
X129909783Y-98220332D01*
X129885110Y-98236818D01*
X129856585Y-98242492D01*
X129842889Y-98236818D01*
X129818213Y-98220331D01*
X129818212Y-98220330D01*
X129788899Y-98214500D01*
X129539105Y-98214500D01*
X129539100Y-98214501D01*
X129509788Y-98220330D01*
X129509783Y-98220332D01*
X129485110Y-98236818D01*
X129456585Y-98242492D01*
X129442889Y-98236818D01*
X129418213Y-98220331D01*
X129418212Y-98220330D01*
X129388899Y-98214500D01*
X129139105Y-98214500D01*
X129139100Y-98214501D01*
X129109788Y-98220330D01*
X129109784Y-98220332D01*
X129084659Y-98237119D01*
X129056134Y-98242792D01*
X129042438Y-98237118D01*
X129018019Y-98220802D01*
X129018017Y-98220801D01*
X128988848Y-98215000D01*
X128939000Y-98215000D01*
X128789000Y-98215000D01*
X128739155Y-98215000D01*
X128739150Y-98215001D01*
X128709983Y-98220801D01*
X128709981Y-98220802D01*
X128685561Y-98237119D01*
X128657036Y-98242793D01*
X128643339Y-98237119D01*
X128643338Y-98237118D01*
X128618213Y-98220331D01*
X128618212Y-98220330D01*
X128588899Y-98214500D01*
X128339105Y-98214500D01*
X128339100Y-98214501D01*
X128309788Y-98220330D01*
X128309784Y-98220332D01*
X128284659Y-98237119D01*
X128256134Y-98242792D01*
X128242438Y-98237118D01*
X128218019Y-98220802D01*
X128218017Y-98220801D01*
X128188848Y-98215000D01*
X128139000Y-98215000D01*
X127989000Y-98215000D01*
X127939155Y-98215000D01*
X127939150Y-98215001D01*
X127909983Y-98220801D01*
X127909981Y-98220802D01*
X127885561Y-98237119D01*
X127878148Y-98238593D01*
X127871863Y-98242793D01*
X127864449Y-98241318D01*
X127857036Y-98242793D01*
X127843340Y-98237120D01*
X127826463Y-98225843D01*
X127810306Y-98201661D01*
X127810113Y-98200612D01*
X127807011Y-98182339D01*
X127804600Y-98172537D01*
X127803500Y-98163460D01*
X127803500Y-97088500D01*
X127814630Y-97061630D01*
X127841500Y-97050500D01*
X134646405Y-97050500D01*
X134688998Y-97050500D01*
X134698832Y-97051795D01*
G37*
G04 #@! TD.AperFunction*
G04 #@! TD*
M02*
