M48
; DRILL file {KiCad 9.0.2+dfsg-1} date 2026-10-04T09:33:18-0400
; FORMAT={-:-/ absolute / metric / decimal}
; #@! TF.CreationDate,2026-10-04T09:33:18-04:00
; #@! TF.GenerationSoftware,Kicad,Pcbnew,9.0.2+dfsg-1
; #@! TF.FileFunction,Plated,1,2,PTH
FMAT,2
METRIC
; #@! TA.AperFunction,Plated,PTH,ViaDrill
T1C0.300
; #@! TA.AperFunction,Plated,PTH,ComponentDrill
T2C0.700
%
G90
G05
T1
X93.92Y-100.253
X105.11Y-97.1
X122.929Y-100.0
X123.929Y-100.0
X125.129Y-100.0
X126.329Y-100.0
X127.529Y-100.0
X128.229Y-100.0
X129.729Y-102.4
X129.929Y-97.6
X131.202Y-98.05
X133.364Y-102.45
X133.804Y-98.55
X133.804Y-101.45
T2
G00X92.15Y-98.8
M15
G01X92.15Y-98.0
M16
G05
G00X92.15Y-102.0
M15
G01X92.15Y-101.2
M16
G05
G00X107.85Y-98.8
M15
G01X107.85Y-98.0
M16
G05
G00X107.85Y-102.0
M15
G01X107.85Y-101.2
M16
G05
M30
