%TF.GenerationSoftware,KiCad,Pcbnew,9.0.2+dfsg-1*%
%TF.CreationDate,2026-10-04T10:33:53-04:00*%
%TF.ProjectId,mod_hdmi,6d6f645f-6864-46d6-992e-6b696361645f,A1*%
%TF.SameCoordinates,Original*%
%TF.FileFunction,Drillmap*%
%TF.FilePolarity,Positive*%
%FSLAX45Y45*%
G04 Gerber Fmt 4.5, Leading zero omitted, Abs format (unit mm)*
G04 Created by KiCad (PCBNEW 9.0.2+dfsg-1) date 2026-10-04 10:33:53*
%MOMM*%
%LPD*%
G01*
G04 APERTURE LIST*
%ADD10C,0.050000*%
%ADD11C,0.200000*%
G04 APERTURE END LIST*
D10*
X11000000Y-9675000D02*
G75*
G02*
X10960000Y-9635000I0J40000D01*
G01*
X13469400Y-9675000D02*
G75*
G02*
X13509400Y-9715000I0J-40000D01*
G01*
X11000000Y-10325000D02*
X13469400Y-10325000D01*
X9040000Y-9555000D02*
X9040000Y-10445000D01*
X10960000Y-9635000D02*
X10960000Y-9555000D01*
X10960000Y-10365000D02*
G75*
G02*
X11000000Y-10325000I40000J0D01*
G01*
X9040000Y-9555000D02*
G75*
G02*
X9080000Y-9515000I40000J0D01*
G01*
X13509400Y-10285000D02*
G75*
G02*
X13469400Y-10325000I-40000J0D01*
G01*
X13469400Y-9675000D02*
X11000000Y-9675000D01*
X10920000Y-9515000D02*
G75*
G02*
X10960000Y-9555000I0J-40000D01*
G01*
X10960000Y-10445000D02*
G75*
G02*
X10920000Y-10485000I-40000J0D01*
G01*
X10920000Y-9515000D02*
X9080000Y-9515000D01*
X9080000Y-10485000D02*
G75*
G02*
X9040000Y-10445000I0J40000D01*
G01*
X10960000Y-10445000D02*
X10960000Y-10365000D01*
X13509400Y-10285000D02*
X13509400Y-9715000D01*
X9080000Y-10485000D02*
X10920000Y-10485000D01*
D11*
X9298277Y-10798984D02*
X9298277Y-10598984D01*
X9298277Y-10598984D02*
X9345896Y-10598984D01*
X9345896Y-10598984D02*
X9374467Y-10608508D01*
X9374467Y-10608508D02*
X9393515Y-10627555D01*
X9393515Y-10627555D02*
X9403039Y-10646603D01*
X9403039Y-10646603D02*
X9412563Y-10684698D01*
X9412563Y-10684698D02*
X9412563Y-10713270D01*
X9412563Y-10713270D02*
X9403039Y-10751365D01*
X9403039Y-10751365D02*
X9393515Y-10770412D01*
X9393515Y-10770412D02*
X9374467Y-10789460D01*
X9374467Y-10789460D02*
X9345896Y-10798984D01*
X9345896Y-10798984D02*
X9298277Y-10798984D01*
X9498277Y-10798984D02*
X9498277Y-10665650D01*
X9498277Y-10703746D02*
X9507801Y-10684698D01*
X9507801Y-10684698D02*
X9517324Y-10675174D01*
X9517324Y-10675174D02*
X9536372Y-10665650D01*
X9536372Y-10665650D02*
X9555420Y-10665650D01*
X9622086Y-10798984D02*
X9622086Y-10665650D01*
X9622086Y-10598984D02*
X9612563Y-10608508D01*
X9612563Y-10608508D02*
X9622086Y-10618031D01*
X9622086Y-10618031D02*
X9631610Y-10608508D01*
X9631610Y-10608508D02*
X9622086Y-10598984D01*
X9622086Y-10598984D02*
X9622086Y-10618031D01*
X9745896Y-10798984D02*
X9726848Y-10789460D01*
X9726848Y-10789460D02*
X9717324Y-10770412D01*
X9717324Y-10770412D02*
X9717324Y-10598984D01*
X9850658Y-10798984D02*
X9831610Y-10789460D01*
X9831610Y-10789460D02*
X9822086Y-10770412D01*
X9822086Y-10770412D02*
X9822086Y-10598984D01*
X10079229Y-10798984D02*
X10079229Y-10598984D01*
X10079229Y-10598984D02*
X10145896Y-10741841D01*
X10145896Y-10741841D02*
X10212563Y-10598984D01*
X10212563Y-10598984D02*
X10212563Y-10798984D01*
X10393515Y-10798984D02*
X10393515Y-10694222D01*
X10393515Y-10694222D02*
X10383991Y-10675174D01*
X10383991Y-10675174D02*
X10364944Y-10665650D01*
X10364944Y-10665650D02*
X10326848Y-10665650D01*
X10326848Y-10665650D02*
X10307801Y-10675174D01*
X10393515Y-10789460D02*
X10374467Y-10798984D01*
X10374467Y-10798984D02*
X10326848Y-10798984D01*
X10326848Y-10798984D02*
X10307801Y-10789460D01*
X10307801Y-10789460D02*
X10298277Y-10770412D01*
X10298277Y-10770412D02*
X10298277Y-10751365D01*
X10298277Y-10751365D02*
X10307801Y-10732317D01*
X10307801Y-10732317D02*
X10326848Y-10722793D01*
X10326848Y-10722793D02*
X10374467Y-10722793D01*
X10374467Y-10722793D02*
X10393515Y-10713270D01*
X10488753Y-10665650D02*
X10488753Y-10865650D01*
X10488753Y-10675174D02*
X10507801Y-10665650D01*
X10507801Y-10665650D02*
X10545896Y-10665650D01*
X10545896Y-10665650D02*
X10564944Y-10675174D01*
X10564944Y-10675174D02*
X10574467Y-10684698D01*
X10574467Y-10684698D02*
X10583991Y-10703746D01*
X10583991Y-10703746D02*
X10583991Y-10760889D01*
X10583991Y-10760889D02*
X10574467Y-10779936D01*
X10574467Y-10779936D02*
X10564944Y-10789460D01*
X10564944Y-10789460D02*
X10545896Y-10798984D01*
X10545896Y-10798984D02*
X10507801Y-10798984D01*
X10507801Y-10798984D02*
X10488753Y-10789460D01*
X10669705Y-10779936D02*
X10679229Y-10789460D01*
X10679229Y-10789460D02*
X10669705Y-10798984D01*
X10669705Y-10798984D02*
X10660182Y-10789460D01*
X10660182Y-10789460D02*
X10669705Y-10779936D01*
X10669705Y-10779936D02*
X10669705Y-10798984D01*
X10669705Y-10675174D02*
X10679229Y-10684698D01*
X10679229Y-10684698D02*
X10669705Y-10694222D01*
X10669705Y-10694222D02*
X10660182Y-10684698D01*
X10660182Y-10684698D02*
X10669705Y-10675174D01*
X10669705Y-10675174D02*
X10669705Y-10694222D01*
M02*
