%TF.GenerationSoftware,KiCad,Pcbnew,9.0.2+dfsg-1*%
%TF.CreationDate,2026-10-04T09:33:18-04:00*%
%TF.ProjectId,mod_hdmi,6d6f645f-6864-46d6-992e-6b696361645f,A1*%
%TF.SameCoordinates,Original*%
%TF.FileFunction,Drillmap*%
%TF.FilePolarity,Positive*%
%FSLAX45Y45*%
G04 Gerber Fmt 4.5, Leading zero omitted, Abs format (unit mm)*
G04 Created by KiCad (PCBNEW 9.0.2+dfsg-1) date 2026-10-04 09:33:18*
%MOMM*%
%LPD*%
G01*
G04 APERTURE LIST*
%ADD10C,0.050000*%
%ADD11C,0.200000*%
%ADD12C,0.100000*%
G04 APERTURE END LIST*
D10*
X9040000Y-9570000D02*
X9040000Y-10430000D01*
X13415900Y-9680000D02*
X11000000Y-9680000D01*
X10920000Y-9530000D02*
G75*
G02*
X10960000Y-9570000I0J-40000D01*
G01*
X11000000Y-10320000D02*
X13415900Y-10320000D01*
X13415900Y-9680000D02*
G75*
G02*
X13455900Y-9720000I0J-40000D01*
G01*
X9080000Y-10470000D02*
G75*
G02*
X9040000Y-10430000I0J40000D01*
G01*
X9080000Y-10470000D02*
X10920000Y-10470000D01*
X9040000Y-9570000D02*
G75*
G02*
X9080000Y-9530000I40000J0D01*
G01*
X13455900Y-10280000D02*
X13455900Y-9720000D01*
X10960000Y-10360000D02*
G75*
G02*
X11000000Y-10320000I40000J0D01*
G01*
X10960000Y-10430000D02*
G75*
G02*
X10920000Y-10470000I-40000J0D01*
G01*
X10960000Y-10430000D02*
X10960000Y-10360000D01*
X11000000Y-9680000D02*
G75*
G02*
X10960000Y-9640000I0J40000D01*
G01*
X10960000Y-9640000D02*
X10960000Y-9570000D01*
X13455900Y-10280000D02*
G75*
G02*
X13415900Y-10320000I-40000J0D01*
G01*
X10920000Y-9530000D02*
X9080000Y-9530000D01*
D11*
D12*
X9376960Y-10010257D02*
X9406960Y-10040257D01*
X9406960Y-10010257D02*
X9376960Y-10040257D01*
X10495978Y-9695000D02*
X10525978Y-9725000D01*
X10525978Y-9695000D02*
X10495978Y-9725000D01*
X12277900Y-9985000D02*
X12307900Y-10015000D01*
X12307900Y-9985000D02*
X12277900Y-10015000D01*
X12377900Y-9985000D02*
X12407900Y-10015000D01*
X12407900Y-9985000D02*
X12377900Y-10015000D01*
X12497900Y-9985000D02*
X12527900Y-10015000D01*
X12527900Y-9985000D02*
X12497900Y-10015000D01*
X12617900Y-9985000D02*
X12647900Y-10015000D01*
X12647900Y-9985000D02*
X12617900Y-10015000D01*
X12737900Y-9985000D02*
X12767900Y-10015000D01*
X12767900Y-9985000D02*
X12737900Y-10015000D01*
X12807900Y-9985000D02*
X12837900Y-10015000D01*
X12837900Y-9985000D02*
X12807900Y-10015000D01*
X12957900Y-10225000D02*
X12987900Y-10255000D01*
X12987900Y-10225000D02*
X12957900Y-10255000D01*
X12977900Y-9745000D02*
X13007900Y-9775000D01*
X13007900Y-9745000D02*
X12977900Y-9775000D01*
X13105250Y-9790038D02*
X13135250Y-9820038D01*
X13135250Y-9790038D02*
X13105250Y-9820038D01*
X13321400Y-10230000D02*
X13351400Y-10260000D01*
X13351400Y-10230000D02*
X13321400Y-10260000D01*
X13365400Y-9840000D02*
X13395400Y-9870000D01*
X13395400Y-9840000D02*
X13365400Y-9870000D01*
X13365400Y-10130000D02*
X13395400Y-10160000D01*
X13395400Y-10130000D02*
X13365400Y-10160000D01*
X9250000Y-9840000D02*
G75*
G02*
X9180000Y-9840000I-35000J0D01*
G01*
X9180000Y-9840000D02*
G75*
G02*
X9250000Y-9840000I35000J0D01*
G01*
X9250000Y-9880000D02*
X9250000Y-9800000D01*
X9180000Y-9800000D02*
G75*
G02*
X9250000Y-9800000I35000J0D01*
G01*
X9180000Y-9800000D02*
X9180000Y-9880000D01*
X9180000Y-9880000D02*
G75*
G03*
X9250000Y-9880000I35000J0D01*
G01*
X9250000Y-10160000D02*
G75*
G02*
X9180000Y-10160000I-35000J0D01*
G01*
X9180000Y-10160000D02*
G75*
G02*
X9250000Y-10160000I35000J0D01*
G01*
X9250000Y-10200000D02*
X9250000Y-10120000D01*
X9180000Y-10120000D02*
G75*
G02*
X9250000Y-10120000I35000J0D01*
G01*
X9180000Y-10120000D02*
X9180000Y-10200000D01*
X9180000Y-10200000D02*
G75*
G03*
X9250000Y-10200000I35000J0D01*
G01*
X10820000Y-9840000D02*
G75*
G02*
X10750000Y-9840000I-35000J0D01*
G01*
X10750000Y-9840000D02*
G75*
G02*
X10820000Y-9840000I35000J0D01*
G01*
X10820000Y-9880000D02*
X10820000Y-9800000D01*
X10750000Y-9800000D02*
G75*
G02*
X10820000Y-9800000I35000J0D01*
G01*
X10750000Y-9800000D02*
X10750000Y-9880000D01*
X10750000Y-9880000D02*
G75*
G03*
X10820000Y-9880000I35000J0D01*
G01*
X10820000Y-10160000D02*
G75*
G02*
X10750000Y-10160000I-35000J0D01*
G01*
X10750000Y-10160000D02*
G75*
G02*
X10820000Y-10160000I35000J0D01*
G01*
X10820000Y-10200000D02*
X10820000Y-10120000D01*
X10750000Y-10120000D02*
G75*
G02*
X10820000Y-10120000I35000J0D01*
G01*
X10750000Y-10120000D02*
X10750000Y-10200000D01*
X10750000Y-10200000D02*
G75*
G03*
X10820000Y-10200000I35000J0D01*
G01*
D11*
X9298277Y-10783984D02*
X9298277Y-10583984D01*
X9298277Y-10583984D02*
X9345896Y-10583984D01*
X9345896Y-10583984D02*
X9374467Y-10593508D01*
X9374467Y-10593508D02*
X9393515Y-10612555D01*
X9393515Y-10612555D02*
X9403039Y-10631603D01*
X9403039Y-10631603D02*
X9412563Y-10669698D01*
X9412563Y-10669698D02*
X9412563Y-10698270D01*
X9412563Y-10698270D02*
X9403039Y-10736365D01*
X9403039Y-10736365D02*
X9393515Y-10755412D01*
X9393515Y-10755412D02*
X9374467Y-10774460D01*
X9374467Y-10774460D02*
X9345896Y-10783984D01*
X9345896Y-10783984D02*
X9298277Y-10783984D01*
X9498277Y-10783984D02*
X9498277Y-10650650D01*
X9498277Y-10688746D02*
X9507801Y-10669698D01*
X9507801Y-10669698D02*
X9517324Y-10660174D01*
X9517324Y-10660174D02*
X9536372Y-10650650D01*
X9536372Y-10650650D02*
X9555420Y-10650650D01*
X9622086Y-10783984D02*
X9622086Y-10650650D01*
X9622086Y-10583984D02*
X9612563Y-10593508D01*
X9612563Y-10593508D02*
X9622086Y-10603031D01*
X9622086Y-10603031D02*
X9631610Y-10593508D01*
X9631610Y-10593508D02*
X9622086Y-10583984D01*
X9622086Y-10583984D02*
X9622086Y-10603031D01*
X9745896Y-10783984D02*
X9726848Y-10774460D01*
X9726848Y-10774460D02*
X9717324Y-10755412D01*
X9717324Y-10755412D02*
X9717324Y-10583984D01*
X9850658Y-10783984D02*
X9831610Y-10774460D01*
X9831610Y-10774460D02*
X9822086Y-10755412D01*
X9822086Y-10755412D02*
X9822086Y-10583984D01*
X10079229Y-10783984D02*
X10079229Y-10583984D01*
X10079229Y-10583984D02*
X10145896Y-10726841D01*
X10145896Y-10726841D02*
X10212563Y-10583984D01*
X10212563Y-10583984D02*
X10212563Y-10783984D01*
X10393515Y-10783984D02*
X10393515Y-10679222D01*
X10393515Y-10679222D02*
X10383991Y-10660174D01*
X10383991Y-10660174D02*
X10364944Y-10650650D01*
X10364944Y-10650650D02*
X10326848Y-10650650D01*
X10326848Y-10650650D02*
X10307801Y-10660174D01*
X10393515Y-10774460D02*
X10374467Y-10783984D01*
X10374467Y-10783984D02*
X10326848Y-10783984D01*
X10326848Y-10783984D02*
X10307801Y-10774460D01*
X10307801Y-10774460D02*
X10298277Y-10755412D01*
X10298277Y-10755412D02*
X10298277Y-10736365D01*
X10298277Y-10736365D02*
X10307801Y-10717317D01*
X10307801Y-10717317D02*
X10326848Y-10707793D01*
X10326848Y-10707793D02*
X10374467Y-10707793D01*
X10374467Y-10707793D02*
X10393515Y-10698270D01*
X10488753Y-10650650D02*
X10488753Y-10850650D01*
X10488753Y-10660174D02*
X10507801Y-10650650D01*
X10507801Y-10650650D02*
X10545896Y-10650650D01*
X10545896Y-10650650D02*
X10564944Y-10660174D01*
X10564944Y-10660174D02*
X10574467Y-10669698D01*
X10574467Y-10669698D02*
X10583991Y-10688746D01*
X10583991Y-10688746D02*
X10583991Y-10745889D01*
X10583991Y-10745889D02*
X10574467Y-10764936D01*
X10574467Y-10764936D02*
X10564944Y-10774460D01*
X10564944Y-10774460D02*
X10545896Y-10783984D01*
X10545896Y-10783984D02*
X10507801Y-10783984D01*
X10507801Y-10783984D02*
X10488753Y-10774460D01*
X10669705Y-10764936D02*
X10679229Y-10774460D01*
X10679229Y-10774460D02*
X10669705Y-10783984D01*
X10669705Y-10783984D02*
X10660182Y-10774460D01*
X10660182Y-10774460D02*
X10669705Y-10764936D01*
X10669705Y-10764936D02*
X10669705Y-10783984D01*
X10669705Y-10660174D02*
X10679229Y-10669698D01*
X10679229Y-10669698D02*
X10669705Y-10679222D01*
X10669705Y-10679222D02*
X10660182Y-10669698D01*
X10660182Y-10669698D02*
X10669705Y-10660174D01*
X10669705Y-10660174D02*
X10669705Y-10679222D01*
D12*
X9007500Y-11097500D02*
X9037500Y-11127500D01*
X9037500Y-11097500D02*
X9007500Y-11127500D01*
D11*
X9336372Y-11003984D02*
X9355420Y-11003984D01*
X9355420Y-11003984D02*
X9374467Y-11013508D01*
X9374467Y-11013508D02*
X9383991Y-11023031D01*
X9383991Y-11023031D02*
X9393515Y-11042079D01*
X9393515Y-11042079D02*
X9403039Y-11080174D01*
X9403039Y-11080174D02*
X9403039Y-11127793D01*
X9403039Y-11127793D02*
X9393515Y-11165889D01*
X9393515Y-11165889D02*
X9383991Y-11184936D01*
X9383991Y-11184936D02*
X9374467Y-11194460D01*
X9374467Y-11194460D02*
X9355420Y-11203984D01*
X9355420Y-11203984D02*
X9336372Y-11203984D01*
X9336372Y-11203984D02*
X9317324Y-11194460D01*
X9317324Y-11194460D02*
X9307801Y-11184936D01*
X9307801Y-11184936D02*
X9298277Y-11165889D01*
X9298277Y-11165889D02*
X9288753Y-11127793D01*
X9288753Y-11127793D02*
X9288753Y-11080174D01*
X9288753Y-11080174D02*
X9298277Y-11042079D01*
X9298277Y-11042079D02*
X9307801Y-11023031D01*
X9307801Y-11023031D02*
X9317324Y-11013508D01*
X9317324Y-11013508D02*
X9336372Y-11003984D01*
X9488753Y-11184936D02*
X9498277Y-11194460D01*
X9498277Y-11194460D02*
X9488753Y-11203984D01*
X9488753Y-11203984D02*
X9479229Y-11194460D01*
X9479229Y-11194460D02*
X9488753Y-11184936D01*
X9488753Y-11184936D02*
X9488753Y-11203984D01*
X9564944Y-11003984D02*
X9688753Y-11003984D01*
X9688753Y-11003984D02*
X9622086Y-11080174D01*
X9622086Y-11080174D02*
X9650658Y-11080174D01*
X9650658Y-11080174D02*
X9669705Y-11089698D01*
X9669705Y-11089698D02*
X9679229Y-11099222D01*
X9679229Y-11099222D02*
X9688753Y-11118270D01*
X9688753Y-11118270D02*
X9688753Y-11165889D01*
X9688753Y-11165889D02*
X9679229Y-11184936D01*
X9679229Y-11184936D02*
X9669705Y-11194460D01*
X9669705Y-11194460D02*
X9650658Y-11203984D01*
X9650658Y-11203984D02*
X9593515Y-11203984D01*
X9593515Y-11203984D02*
X9574467Y-11194460D01*
X9574467Y-11194460D02*
X9564944Y-11184936D01*
X9812563Y-11003984D02*
X9831610Y-11003984D01*
X9831610Y-11003984D02*
X9850658Y-11013508D01*
X9850658Y-11013508D02*
X9860182Y-11023031D01*
X9860182Y-11023031D02*
X9869705Y-11042079D01*
X9869705Y-11042079D02*
X9879229Y-11080174D01*
X9879229Y-11080174D02*
X9879229Y-11127793D01*
X9879229Y-11127793D02*
X9869705Y-11165889D01*
X9869705Y-11165889D02*
X9860182Y-11184936D01*
X9860182Y-11184936D02*
X9850658Y-11194460D01*
X9850658Y-11194460D02*
X9831610Y-11203984D01*
X9831610Y-11203984D02*
X9812563Y-11203984D01*
X9812563Y-11203984D02*
X9793515Y-11194460D01*
X9793515Y-11194460D02*
X9783991Y-11184936D01*
X9783991Y-11184936D02*
X9774467Y-11165889D01*
X9774467Y-11165889D02*
X9764944Y-11127793D01*
X9764944Y-11127793D02*
X9764944Y-11080174D01*
X9764944Y-11080174D02*
X9774467Y-11042079D01*
X9774467Y-11042079D02*
X9783991Y-11023031D01*
X9783991Y-11023031D02*
X9793515Y-11013508D01*
X9793515Y-11013508D02*
X9812563Y-11003984D01*
X10003039Y-11003984D02*
X10022086Y-11003984D01*
X10022086Y-11003984D02*
X10041134Y-11013508D01*
X10041134Y-11013508D02*
X10050658Y-11023031D01*
X10050658Y-11023031D02*
X10060182Y-11042079D01*
X10060182Y-11042079D02*
X10069705Y-11080174D01*
X10069705Y-11080174D02*
X10069705Y-11127793D01*
X10069705Y-11127793D02*
X10060182Y-11165889D01*
X10060182Y-11165889D02*
X10050658Y-11184936D01*
X10050658Y-11184936D02*
X10041134Y-11194460D01*
X10041134Y-11194460D02*
X10022086Y-11203984D01*
X10022086Y-11203984D02*
X10003039Y-11203984D01*
X10003039Y-11203984D02*
X9983991Y-11194460D01*
X9983991Y-11194460D02*
X9974467Y-11184936D01*
X9974467Y-11184936D02*
X9964944Y-11165889D01*
X9964944Y-11165889D02*
X9955420Y-11127793D01*
X9955420Y-11127793D02*
X9955420Y-11080174D01*
X9955420Y-11080174D02*
X9964944Y-11042079D01*
X9964944Y-11042079D02*
X9974467Y-11023031D01*
X9974467Y-11023031D02*
X9983991Y-11013508D01*
X9983991Y-11013508D02*
X10003039Y-11003984D01*
X10155420Y-11203984D02*
X10155420Y-11070650D01*
X10155420Y-11089698D02*
X10164944Y-11080174D01*
X10164944Y-11080174D02*
X10183991Y-11070650D01*
X10183991Y-11070650D02*
X10212563Y-11070650D01*
X10212563Y-11070650D02*
X10231610Y-11080174D01*
X10231610Y-11080174D02*
X10241134Y-11099222D01*
X10241134Y-11099222D02*
X10241134Y-11203984D01*
X10241134Y-11099222D02*
X10250658Y-11080174D01*
X10250658Y-11080174D02*
X10269705Y-11070650D01*
X10269705Y-11070650D02*
X10298277Y-11070650D01*
X10298277Y-11070650D02*
X10317325Y-11080174D01*
X10317325Y-11080174D02*
X10326848Y-11099222D01*
X10326848Y-11099222D02*
X10326848Y-11203984D01*
X10422086Y-11203984D02*
X10422086Y-11070650D01*
X10422086Y-11089698D02*
X10431610Y-11080174D01*
X10431610Y-11080174D02*
X10450658Y-11070650D01*
X10450658Y-11070650D02*
X10479229Y-11070650D01*
X10479229Y-11070650D02*
X10498277Y-11080174D01*
X10498277Y-11080174D02*
X10507801Y-11099222D01*
X10507801Y-11099222D02*
X10507801Y-11203984D01*
X10507801Y-11099222D02*
X10517325Y-11080174D01*
X10517325Y-11080174D02*
X10536372Y-11070650D01*
X10536372Y-11070650D02*
X10564944Y-11070650D01*
X10564944Y-11070650D02*
X10583991Y-11080174D01*
X10583991Y-11080174D02*
X10593515Y-11099222D01*
X10593515Y-11099222D02*
X10593515Y-11203984D01*
X10983991Y-10994460D02*
X10812563Y-11251603D01*
X11241134Y-11003984D02*
X11260182Y-11003984D01*
X11260182Y-11003984D02*
X11279229Y-11013508D01*
X11279229Y-11013508D02*
X11288753Y-11023031D01*
X11288753Y-11023031D02*
X11298277Y-11042079D01*
X11298277Y-11042079D02*
X11307801Y-11080174D01*
X11307801Y-11080174D02*
X11307801Y-11127793D01*
X11307801Y-11127793D02*
X11298277Y-11165889D01*
X11298277Y-11165889D02*
X11288753Y-11184936D01*
X11288753Y-11184936D02*
X11279229Y-11194460D01*
X11279229Y-11194460D02*
X11260182Y-11203984D01*
X11260182Y-11203984D02*
X11241134Y-11203984D01*
X11241134Y-11203984D02*
X11222086Y-11194460D01*
X11222086Y-11194460D02*
X11212563Y-11184936D01*
X11212563Y-11184936D02*
X11203039Y-11165889D01*
X11203039Y-11165889D02*
X11193515Y-11127793D01*
X11193515Y-11127793D02*
X11193515Y-11080174D01*
X11193515Y-11080174D02*
X11203039Y-11042079D01*
X11203039Y-11042079D02*
X11212563Y-11023031D01*
X11212563Y-11023031D02*
X11222086Y-11013508D01*
X11222086Y-11013508D02*
X11241134Y-11003984D01*
X11393515Y-11184936D02*
X11403039Y-11194460D01*
X11403039Y-11194460D02*
X11393515Y-11203984D01*
X11393515Y-11203984D02*
X11383991Y-11194460D01*
X11383991Y-11194460D02*
X11393515Y-11184936D01*
X11393515Y-11184936D02*
X11393515Y-11203984D01*
X11526848Y-11003984D02*
X11545896Y-11003984D01*
X11545896Y-11003984D02*
X11564944Y-11013508D01*
X11564944Y-11013508D02*
X11574467Y-11023031D01*
X11574467Y-11023031D02*
X11583991Y-11042079D01*
X11583991Y-11042079D02*
X11593515Y-11080174D01*
X11593515Y-11080174D02*
X11593515Y-11127793D01*
X11593515Y-11127793D02*
X11583991Y-11165889D01*
X11583991Y-11165889D02*
X11574467Y-11184936D01*
X11574467Y-11184936D02*
X11564944Y-11194460D01*
X11564944Y-11194460D02*
X11545896Y-11203984D01*
X11545896Y-11203984D02*
X11526848Y-11203984D01*
X11526848Y-11203984D02*
X11507801Y-11194460D01*
X11507801Y-11194460D02*
X11498277Y-11184936D01*
X11498277Y-11184936D02*
X11488753Y-11165889D01*
X11488753Y-11165889D02*
X11479229Y-11127793D01*
X11479229Y-11127793D02*
X11479229Y-11080174D01*
X11479229Y-11080174D02*
X11488753Y-11042079D01*
X11488753Y-11042079D02*
X11498277Y-11023031D01*
X11498277Y-11023031D02*
X11507801Y-11013508D01*
X11507801Y-11013508D02*
X11526848Y-11003984D01*
X11783991Y-11203984D02*
X11669706Y-11203984D01*
X11726848Y-11203984D02*
X11726848Y-11003984D01*
X11726848Y-11003984D02*
X11707801Y-11032555D01*
X11707801Y-11032555D02*
X11688753Y-11051603D01*
X11688753Y-11051603D02*
X11669706Y-11061127D01*
X11974467Y-11203984D02*
X11860182Y-11203984D01*
X11917325Y-11203984D02*
X11917325Y-11003984D01*
X11917325Y-11003984D02*
X11898277Y-11032555D01*
X11898277Y-11032555D02*
X11879229Y-11051603D01*
X11879229Y-11051603D02*
X11860182Y-11061127D01*
X12088753Y-11089698D02*
X12069706Y-11080174D01*
X12069706Y-11080174D02*
X12060182Y-11070650D01*
X12060182Y-11070650D02*
X12050658Y-11051603D01*
X12050658Y-11051603D02*
X12050658Y-11042079D01*
X12050658Y-11042079D02*
X12060182Y-11023031D01*
X12060182Y-11023031D02*
X12069706Y-11013508D01*
X12069706Y-11013508D02*
X12088753Y-11003984D01*
X12088753Y-11003984D02*
X12126848Y-11003984D01*
X12126848Y-11003984D02*
X12145896Y-11013508D01*
X12145896Y-11013508D02*
X12155420Y-11023031D01*
X12155420Y-11023031D02*
X12164944Y-11042079D01*
X12164944Y-11042079D02*
X12164944Y-11051603D01*
X12164944Y-11051603D02*
X12155420Y-11070650D01*
X12155420Y-11070650D02*
X12145896Y-11080174D01*
X12145896Y-11080174D02*
X12126848Y-11089698D01*
X12126848Y-11089698D02*
X12088753Y-11089698D01*
X12088753Y-11089698D02*
X12069706Y-11099222D01*
X12069706Y-11099222D02*
X12060182Y-11108746D01*
X12060182Y-11108746D02*
X12050658Y-11127793D01*
X12050658Y-11127793D02*
X12050658Y-11165889D01*
X12050658Y-11165889D02*
X12060182Y-11184936D01*
X12060182Y-11184936D02*
X12069706Y-11194460D01*
X12069706Y-11194460D02*
X12088753Y-11203984D01*
X12088753Y-11203984D02*
X12126848Y-11203984D01*
X12126848Y-11203984D02*
X12145896Y-11194460D01*
X12145896Y-11194460D02*
X12155420Y-11184936D01*
X12155420Y-11184936D02*
X12164944Y-11165889D01*
X12164944Y-11165889D02*
X12164944Y-11127793D01*
X12164944Y-11127793D02*
X12155420Y-11108746D01*
X12155420Y-11108746D02*
X12145896Y-11099222D01*
X12145896Y-11099222D02*
X12126848Y-11089698D01*
X12241134Y-11003984D02*
X12241134Y-11042079D01*
X12317325Y-11003984D02*
X12317325Y-11042079D01*
X12612563Y-11280174D02*
X12603039Y-11270650D01*
X12603039Y-11270650D02*
X12583991Y-11242079D01*
X12583991Y-11242079D02*
X12574468Y-11223031D01*
X12574468Y-11223031D02*
X12564944Y-11194460D01*
X12564944Y-11194460D02*
X12555420Y-11146841D01*
X12555420Y-11146841D02*
X12555420Y-11108746D01*
X12555420Y-11108746D02*
X12564944Y-11061127D01*
X12564944Y-11061127D02*
X12574468Y-11032555D01*
X12574468Y-11032555D02*
X12583991Y-11013508D01*
X12583991Y-11013508D02*
X12603039Y-10984936D01*
X12603039Y-10984936D02*
X12612563Y-10975412D01*
X12793515Y-11203984D02*
X12679229Y-11203984D01*
X12736372Y-11203984D02*
X12736372Y-11003984D01*
X12736372Y-11003984D02*
X12717325Y-11032555D01*
X12717325Y-11032555D02*
X12698277Y-11051603D01*
X12698277Y-11051603D02*
X12679229Y-11061127D01*
X12964944Y-11070650D02*
X12964944Y-11203984D01*
X12917325Y-10994460D02*
X12869706Y-11137317D01*
X12869706Y-11137317D02*
X12993515Y-11137317D01*
X13222087Y-11203984D02*
X13222087Y-11003984D01*
X13307801Y-11203984D02*
X13307801Y-11099222D01*
X13307801Y-11099222D02*
X13298277Y-11080174D01*
X13298277Y-11080174D02*
X13279230Y-11070650D01*
X13279230Y-11070650D02*
X13250658Y-11070650D01*
X13250658Y-11070650D02*
X13231610Y-11080174D01*
X13231610Y-11080174D02*
X13222087Y-11089698D01*
X13431610Y-11203984D02*
X13412563Y-11194460D01*
X13412563Y-11194460D02*
X13403039Y-11184936D01*
X13403039Y-11184936D02*
X13393515Y-11165889D01*
X13393515Y-11165889D02*
X13393515Y-11108746D01*
X13393515Y-11108746D02*
X13403039Y-11089698D01*
X13403039Y-11089698D02*
X13412563Y-11080174D01*
X13412563Y-11080174D02*
X13431610Y-11070650D01*
X13431610Y-11070650D02*
X13460182Y-11070650D01*
X13460182Y-11070650D02*
X13479230Y-11080174D01*
X13479230Y-11080174D02*
X13488753Y-11089698D01*
X13488753Y-11089698D02*
X13498277Y-11108746D01*
X13498277Y-11108746D02*
X13498277Y-11165889D01*
X13498277Y-11165889D02*
X13488753Y-11184936D01*
X13488753Y-11184936D02*
X13479230Y-11194460D01*
X13479230Y-11194460D02*
X13460182Y-11203984D01*
X13460182Y-11203984D02*
X13431610Y-11203984D01*
X13612563Y-11203984D02*
X13593515Y-11194460D01*
X13593515Y-11194460D02*
X13583991Y-11175412D01*
X13583991Y-11175412D02*
X13583991Y-11003984D01*
X13764944Y-11194460D02*
X13745896Y-11203984D01*
X13745896Y-11203984D02*
X13707801Y-11203984D01*
X13707801Y-11203984D02*
X13688753Y-11194460D01*
X13688753Y-11194460D02*
X13679230Y-11175412D01*
X13679230Y-11175412D02*
X13679230Y-11099222D01*
X13679230Y-11099222D02*
X13688753Y-11080174D01*
X13688753Y-11080174D02*
X13707801Y-11070650D01*
X13707801Y-11070650D02*
X13745896Y-11070650D01*
X13745896Y-11070650D02*
X13764944Y-11080174D01*
X13764944Y-11080174D02*
X13774468Y-11099222D01*
X13774468Y-11099222D02*
X13774468Y-11118270D01*
X13774468Y-11118270D02*
X13679230Y-11137317D01*
X13850658Y-11194460D02*
X13869706Y-11203984D01*
X13869706Y-11203984D02*
X13907801Y-11203984D01*
X13907801Y-11203984D02*
X13926849Y-11194460D01*
X13926849Y-11194460D02*
X13936372Y-11175412D01*
X13936372Y-11175412D02*
X13936372Y-11165889D01*
X13936372Y-11165889D02*
X13926849Y-11146841D01*
X13926849Y-11146841D02*
X13907801Y-11137317D01*
X13907801Y-11137317D02*
X13879230Y-11137317D01*
X13879230Y-11137317D02*
X13860182Y-11127793D01*
X13860182Y-11127793D02*
X13850658Y-11108746D01*
X13850658Y-11108746D02*
X13850658Y-11099222D01*
X13850658Y-11099222D02*
X13860182Y-11080174D01*
X13860182Y-11080174D02*
X13879230Y-11070650D01*
X13879230Y-11070650D02*
X13907801Y-11070650D01*
X13907801Y-11070650D02*
X13926849Y-11080174D01*
X14003039Y-11280174D02*
X14012563Y-11270650D01*
X14012563Y-11270650D02*
X14031611Y-11242079D01*
X14031611Y-11242079D02*
X14041134Y-11223031D01*
X14041134Y-11223031D02*
X14050658Y-11194460D01*
X14050658Y-11194460D02*
X14060182Y-11146841D01*
X14060182Y-11146841D02*
X14060182Y-11108746D01*
X14060182Y-11108746D02*
X14050658Y-11061127D01*
X14050658Y-11061127D02*
X14041134Y-11032555D01*
X14041134Y-11032555D02*
X14031611Y-11013508D01*
X14031611Y-11013508D02*
X14012563Y-10984936D01*
X14012563Y-10984936D02*
X14003039Y-10975412D01*
D12*
X9037500Y-11376500D02*
G75*
G02*
X8967500Y-11376500I-35000J0D01*
G01*
X8967500Y-11376500D02*
G75*
G02*
X9037500Y-11376500I35000J0D01*
G01*
D11*
X9336372Y-11267984D02*
X9355420Y-11267984D01*
X9355420Y-11267984D02*
X9374467Y-11277508D01*
X9374467Y-11277508D02*
X9383991Y-11287031D01*
X9383991Y-11287031D02*
X9393515Y-11306079D01*
X9393515Y-11306079D02*
X9403039Y-11344174D01*
X9403039Y-11344174D02*
X9403039Y-11391793D01*
X9403039Y-11391793D02*
X9393515Y-11429888D01*
X9393515Y-11429888D02*
X9383991Y-11448936D01*
X9383991Y-11448936D02*
X9374467Y-11458460D01*
X9374467Y-11458460D02*
X9355420Y-11467984D01*
X9355420Y-11467984D02*
X9336372Y-11467984D01*
X9336372Y-11467984D02*
X9317324Y-11458460D01*
X9317324Y-11458460D02*
X9307801Y-11448936D01*
X9307801Y-11448936D02*
X9298277Y-11429888D01*
X9298277Y-11429888D02*
X9288753Y-11391793D01*
X9288753Y-11391793D02*
X9288753Y-11344174D01*
X9288753Y-11344174D02*
X9298277Y-11306079D01*
X9298277Y-11306079D02*
X9307801Y-11287031D01*
X9307801Y-11287031D02*
X9317324Y-11277508D01*
X9317324Y-11277508D02*
X9336372Y-11267984D01*
X9488753Y-11448936D02*
X9498277Y-11458460D01*
X9498277Y-11458460D02*
X9488753Y-11467984D01*
X9488753Y-11467984D02*
X9479229Y-11458460D01*
X9479229Y-11458460D02*
X9488753Y-11448936D01*
X9488753Y-11448936D02*
X9488753Y-11467984D01*
X9564944Y-11267984D02*
X9698277Y-11267984D01*
X9698277Y-11267984D02*
X9612563Y-11467984D01*
X9812563Y-11267984D02*
X9831610Y-11267984D01*
X9831610Y-11267984D02*
X9850658Y-11277508D01*
X9850658Y-11277508D02*
X9860182Y-11287031D01*
X9860182Y-11287031D02*
X9869705Y-11306079D01*
X9869705Y-11306079D02*
X9879229Y-11344174D01*
X9879229Y-11344174D02*
X9879229Y-11391793D01*
X9879229Y-11391793D02*
X9869705Y-11429888D01*
X9869705Y-11429888D02*
X9860182Y-11448936D01*
X9860182Y-11448936D02*
X9850658Y-11458460D01*
X9850658Y-11458460D02*
X9831610Y-11467984D01*
X9831610Y-11467984D02*
X9812563Y-11467984D01*
X9812563Y-11467984D02*
X9793515Y-11458460D01*
X9793515Y-11458460D02*
X9783991Y-11448936D01*
X9783991Y-11448936D02*
X9774467Y-11429888D01*
X9774467Y-11429888D02*
X9764944Y-11391793D01*
X9764944Y-11391793D02*
X9764944Y-11344174D01*
X9764944Y-11344174D02*
X9774467Y-11306079D01*
X9774467Y-11306079D02*
X9783991Y-11287031D01*
X9783991Y-11287031D02*
X9793515Y-11277508D01*
X9793515Y-11277508D02*
X9812563Y-11267984D01*
X10003039Y-11267984D02*
X10022086Y-11267984D01*
X10022086Y-11267984D02*
X10041134Y-11277508D01*
X10041134Y-11277508D02*
X10050658Y-11287031D01*
X10050658Y-11287031D02*
X10060182Y-11306079D01*
X10060182Y-11306079D02*
X10069705Y-11344174D01*
X10069705Y-11344174D02*
X10069705Y-11391793D01*
X10069705Y-11391793D02*
X10060182Y-11429888D01*
X10060182Y-11429888D02*
X10050658Y-11448936D01*
X10050658Y-11448936D02*
X10041134Y-11458460D01*
X10041134Y-11458460D02*
X10022086Y-11467984D01*
X10022086Y-11467984D02*
X10003039Y-11467984D01*
X10003039Y-11467984D02*
X9983991Y-11458460D01*
X9983991Y-11458460D02*
X9974467Y-11448936D01*
X9974467Y-11448936D02*
X9964944Y-11429888D01*
X9964944Y-11429888D02*
X9955420Y-11391793D01*
X9955420Y-11391793D02*
X9955420Y-11344174D01*
X9955420Y-11344174D02*
X9964944Y-11306079D01*
X9964944Y-11306079D02*
X9974467Y-11287031D01*
X9974467Y-11287031D02*
X9983991Y-11277508D01*
X9983991Y-11277508D02*
X10003039Y-11267984D01*
X10155420Y-11467984D02*
X10155420Y-11334650D01*
X10155420Y-11353698D02*
X10164944Y-11344174D01*
X10164944Y-11344174D02*
X10183991Y-11334650D01*
X10183991Y-11334650D02*
X10212563Y-11334650D01*
X10212563Y-11334650D02*
X10231610Y-11344174D01*
X10231610Y-11344174D02*
X10241134Y-11363222D01*
X10241134Y-11363222D02*
X10241134Y-11467984D01*
X10241134Y-11363222D02*
X10250658Y-11344174D01*
X10250658Y-11344174D02*
X10269705Y-11334650D01*
X10269705Y-11334650D02*
X10298277Y-11334650D01*
X10298277Y-11334650D02*
X10317325Y-11344174D01*
X10317325Y-11344174D02*
X10326848Y-11363222D01*
X10326848Y-11363222D02*
X10326848Y-11467984D01*
X10422086Y-11467984D02*
X10422086Y-11334650D01*
X10422086Y-11353698D02*
X10431610Y-11344174D01*
X10431610Y-11344174D02*
X10450658Y-11334650D01*
X10450658Y-11334650D02*
X10479229Y-11334650D01*
X10479229Y-11334650D02*
X10498277Y-11344174D01*
X10498277Y-11344174D02*
X10507801Y-11363222D01*
X10507801Y-11363222D02*
X10507801Y-11467984D01*
X10507801Y-11363222D02*
X10517325Y-11344174D01*
X10517325Y-11344174D02*
X10536372Y-11334650D01*
X10536372Y-11334650D02*
X10564944Y-11334650D01*
X10564944Y-11334650D02*
X10583991Y-11344174D01*
X10583991Y-11344174D02*
X10593515Y-11363222D01*
X10593515Y-11363222D02*
X10593515Y-11467984D01*
X10983991Y-11258460D02*
X10812563Y-11515603D01*
X11241134Y-11267984D02*
X11260182Y-11267984D01*
X11260182Y-11267984D02*
X11279229Y-11277508D01*
X11279229Y-11277508D02*
X11288753Y-11287031D01*
X11288753Y-11287031D02*
X11298277Y-11306079D01*
X11298277Y-11306079D02*
X11307801Y-11344174D01*
X11307801Y-11344174D02*
X11307801Y-11391793D01*
X11307801Y-11391793D02*
X11298277Y-11429888D01*
X11298277Y-11429888D02*
X11288753Y-11448936D01*
X11288753Y-11448936D02*
X11279229Y-11458460D01*
X11279229Y-11458460D02*
X11260182Y-11467984D01*
X11260182Y-11467984D02*
X11241134Y-11467984D01*
X11241134Y-11467984D02*
X11222086Y-11458460D01*
X11222086Y-11458460D02*
X11212563Y-11448936D01*
X11212563Y-11448936D02*
X11203039Y-11429888D01*
X11203039Y-11429888D02*
X11193515Y-11391793D01*
X11193515Y-11391793D02*
X11193515Y-11344174D01*
X11193515Y-11344174D02*
X11203039Y-11306079D01*
X11203039Y-11306079D02*
X11212563Y-11287031D01*
X11212563Y-11287031D02*
X11222086Y-11277508D01*
X11222086Y-11277508D02*
X11241134Y-11267984D01*
X11393515Y-11448936D02*
X11403039Y-11458460D01*
X11403039Y-11458460D02*
X11393515Y-11467984D01*
X11393515Y-11467984D02*
X11383991Y-11458460D01*
X11383991Y-11458460D02*
X11393515Y-11448936D01*
X11393515Y-11448936D02*
X11393515Y-11467984D01*
X11526848Y-11267984D02*
X11545896Y-11267984D01*
X11545896Y-11267984D02*
X11564944Y-11277508D01*
X11564944Y-11277508D02*
X11574467Y-11287031D01*
X11574467Y-11287031D02*
X11583991Y-11306079D01*
X11583991Y-11306079D02*
X11593515Y-11344174D01*
X11593515Y-11344174D02*
X11593515Y-11391793D01*
X11593515Y-11391793D02*
X11583991Y-11429888D01*
X11583991Y-11429888D02*
X11574467Y-11448936D01*
X11574467Y-11448936D02*
X11564944Y-11458460D01*
X11564944Y-11458460D02*
X11545896Y-11467984D01*
X11545896Y-11467984D02*
X11526848Y-11467984D01*
X11526848Y-11467984D02*
X11507801Y-11458460D01*
X11507801Y-11458460D02*
X11498277Y-11448936D01*
X11498277Y-11448936D02*
X11488753Y-11429888D01*
X11488753Y-11429888D02*
X11479229Y-11391793D01*
X11479229Y-11391793D02*
X11479229Y-11344174D01*
X11479229Y-11344174D02*
X11488753Y-11306079D01*
X11488753Y-11306079D02*
X11498277Y-11287031D01*
X11498277Y-11287031D02*
X11507801Y-11277508D01*
X11507801Y-11277508D02*
X11526848Y-11267984D01*
X11669706Y-11287031D02*
X11679229Y-11277508D01*
X11679229Y-11277508D02*
X11698277Y-11267984D01*
X11698277Y-11267984D02*
X11745896Y-11267984D01*
X11745896Y-11267984D02*
X11764944Y-11277508D01*
X11764944Y-11277508D02*
X11774467Y-11287031D01*
X11774467Y-11287031D02*
X11783991Y-11306079D01*
X11783991Y-11306079D02*
X11783991Y-11325127D01*
X11783991Y-11325127D02*
X11774467Y-11353698D01*
X11774467Y-11353698D02*
X11660182Y-11467984D01*
X11660182Y-11467984D02*
X11783991Y-11467984D01*
X11850658Y-11267984D02*
X11983991Y-11267984D01*
X11983991Y-11267984D02*
X11898277Y-11467984D01*
X12145896Y-11267984D02*
X12107801Y-11267984D01*
X12107801Y-11267984D02*
X12088753Y-11277508D01*
X12088753Y-11277508D02*
X12079229Y-11287031D01*
X12079229Y-11287031D02*
X12060182Y-11315603D01*
X12060182Y-11315603D02*
X12050658Y-11353698D01*
X12050658Y-11353698D02*
X12050658Y-11429888D01*
X12050658Y-11429888D02*
X12060182Y-11448936D01*
X12060182Y-11448936D02*
X12069706Y-11458460D01*
X12069706Y-11458460D02*
X12088753Y-11467984D01*
X12088753Y-11467984D02*
X12126848Y-11467984D01*
X12126848Y-11467984D02*
X12145896Y-11458460D01*
X12145896Y-11458460D02*
X12155420Y-11448936D01*
X12155420Y-11448936D02*
X12164944Y-11429888D01*
X12164944Y-11429888D02*
X12164944Y-11382269D01*
X12164944Y-11382269D02*
X12155420Y-11363222D01*
X12155420Y-11363222D02*
X12145896Y-11353698D01*
X12145896Y-11353698D02*
X12126848Y-11344174D01*
X12126848Y-11344174D02*
X12088753Y-11344174D01*
X12088753Y-11344174D02*
X12069706Y-11353698D01*
X12069706Y-11353698D02*
X12060182Y-11363222D01*
X12060182Y-11363222D02*
X12050658Y-11382269D01*
X12241134Y-11267984D02*
X12241134Y-11306079D01*
X12317325Y-11267984D02*
X12317325Y-11306079D01*
X12612563Y-11544174D02*
X12603039Y-11534650D01*
X12603039Y-11534650D02*
X12583991Y-11506079D01*
X12583991Y-11506079D02*
X12574468Y-11487031D01*
X12574468Y-11487031D02*
X12564944Y-11458460D01*
X12564944Y-11458460D02*
X12555420Y-11410841D01*
X12555420Y-11410841D02*
X12555420Y-11372746D01*
X12555420Y-11372746D02*
X12564944Y-11325127D01*
X12564944Y-11325127D02*
X12574468Y-11296555D01*
X12574468Y-11296555D02*
X12583991Y-11277508D01*
X12583991Y-11277508D02*
X12603039Y-11248936D01*
X12603039Y-11248936D02*
X12612563Y-11239412D01*
X12726848Y-11267984D02*
X12745896Y-11267984D01*
X12745896Y-11267984D02*
X12764944Y-11277508D01*
X12764944Y-11277508D02*
X12774468Y-11287031D01*
X12774468Y-11287031D02*
X12783991Y-11306079D01*
X12783991Y-11306079D02*
X12793515Y-11344174D01*
X12793515Y-11344174D02*
X12793515Y-11391793D01*
X12793515Y-11391793D02*
X12783991Y-11429888D01*
X12783991Y-11429888D02*
X12774468Y-11448936D01*
X12774468Y-11448936D02*
X12764944Y-11458460D01*
X12764944Y-11458460D02*
X12745896Y-11467984D01*
X12745896Y-11467984D02*
X12726848Y-11467984D01*
X12726848Y-11467984D02*
X12707801Y-11458460D01*
X12707801Y-11458460D02*
X12698277Y-11448936D01*
X12698277Y-11448936D02*
X12688753Y-11429888D01*
X12688753Y-11429888D02*
X12679229Y-11391793D01*
X12679229Y-11391793D02*
X12679229Y-11344174D01*
X12679229Y-11344174D02*
X12688753Y-11306079D01*
X12688753Y-11306079D02*
X12698277Y-11287031D01*
X12698277Y-11287031D02*
X12707801Y-11277508D01*
X12707801Y-11277508D02*
X12726848Y-11267984D01*
X13031610Y-11467984D02*
X13031610Y-11267984D01*
X13117325Y-11467984D02*
X13117325Y-11363222D01*
X13117325Y-11363222D02*
X13107801Y-11344174D01*
X13107801Y-11344174D02*
X13088753Y-11334650D01*
X13088753Y-11334650D02*
X13060182Y-11334650D01*
X13060182Y-11334650D02*
X13041134Y-11344174D01*
X13041134Y-11344174D02*
X13031610Y-11353698D01*
X13241134Y-11467984D02*
X13222087Y-11458460D01*
X13222087Y-11458460D02*
X13212563Y-11448936D01*
X13212563Y-11448936D02*
X13203039Y-11429888D01*
X13203039Y-11429888D02*
X13203039Y-11372746D01*
X13203039Y-11372746D02*
X13212563Y-11353698D01*
X13212563Y-11353698D02*
X13222087Y-11344174D01*
X13222087Y-11344174D02*
X13241134Y-11334650D01*
X13241134Y-11334650D02*
X13269706Y-11334650D01*
X13269706Y-11334650D02*
X13288753Y-11344174D01*
X13288753Y-11344174D02*
X13298277Y-11353698D01*
X13298277Y-11353698D02*
X13307801Y-11372746D01*
X13307801Y-11372746D02*
X13307801Y-11429888D01*
X13307801Y-11429888D02*
X13298277Y-11448936D01*
X13298277Y-11448936D02*
X13288753Y-11458460D01*
X13288753Y-11458460D02*
X13269706Y-11467984D01*
X13269706Y-11467984D02*
X13241134Y-11467984D01*
X13422087Y-11467984D02*
X13403039Y-11458460D01*
X13403039Y-11458460D02*
X13393515Y-11439412D01*
X13393515Y-11439412D02*
X13393515Y-11267984D01*
X13574468Y-11458460D02*
X13555420Y-11467984D01*
X13555420Y-11467984D02*
X13517325Y-11467984D01*
X13517325Y-11467984D02*
X13498277Y-11458460D01*
X13498277Y-11458460D02*
X13488753Y-11439412D01*
X13488753Y-11439412D02*
X13488753Y-11363222D01*
X13488753Y-11363222D02*
X13498277Y-11344174D01*
X13498277Y-11344174D02*
X13517325Y-11334650D01*
X13517325Y-11334650D02*
X13555420Y-11334650D01*
X13555420Y-11334650D02*
X13574468Y-11344174D01*
X13574468Y-11344174D02*
X13583991Y-11363222D01*
X13583991Y-11363222D02*
X13583991Y-11382269D01*
X13583991Y-11382269D02*
X13488753Y-11401317D01*
X13660182Y-11458460D02*
X13679230Y-11467984D01*
X13679230Y-11467984D02*
X13717325Y-11467984D01*
X13717325Y-11467984D02*
X13736372Y-11458460D01*
X13736372Y-11458460D02*
X13745896Y-11439412D01*
X13745896Y-11439412D02*
X13745896Y-11429888D01*
X13745896Y-11429888D02*
X13736372Y-11410841D01*
X13736372Y-11410841D02*
X13717325Y-11401317D01*
X13717325Y-11401317D02*
X13688753Y-11401317D01*
X13688753Y-11401317D02*
X13669706Y-11391793D01*
X13669706Y-11391793D02*
X13660182Y-11372746D01*
X13660182Y-11372746D02*
X13660182Y-11363222D01*
X13660182Y-11363222D02*
X13669706Y-11344174D01*
X13669706Y-11344174D02*
X13688753Y-11334650D01*
X13688753Y-11334650D02*
X13717325Y-11334650D01*
X13717325Y-11334650D02*
X13736372Y-11344174D01*
X13983992Y-11391793D02*
X14136373Y-11391793D01*
X14060182Y-11467984D02*
X14060182Y-11315603D01*
X14469706Y-11334650D02*
X14469706Y-11467984D01*
X14422087Y-11258460D02*
X14374468Y-11401317D01*
X14374468Y-11401317D02*
X14498277Y-11401317D01*
X14717325Y-11458460D02*
X14736373Y-11467984D01*
X14736373Y-11467984D02*
X14774468Y-11467984D01*
X14774468Y-11467984D02*
X14793515Y-11458460D01*
X14793515Y-11458460D02*
X14803039Y-11439412D01*
X14803039Y-11439412D02*
X14803039Y-11429888D01*
X14803039Y-11429888D02*
X14793515Y-11410841D01*
X14793515Y-11410841D02*
X14774468Y-11401317D01*
X14774468Y-11401317D02*
X14745896Y-11401317D01*
X14745896Y-11401317D02*
X14726849Y-11391793D01*
X14726849Y-11391793D02*
X14717325Y-11372746D01*
X14717325Y-11372746D02*
X14717325Y-11363222D01*
X14717325Y-11363222D02*
X14726849Y-11344174D01*
X14726849Y-11344174D02*
X14745896Y-11334650D01*
X14745896Y-11334650D02*
X14774468Y-11334650D01*
X14774468Y-11334650D02*
X14793515Y-11344174D01*
X14917325Y-11467984D02*
X14898277Y-11458460D01*
X14898277Y-11458460D02*
X14888754Y-11439412D01*
X14888754Y-11439412D02*
X14888754Y-11267984D01*
X15022087Y-11467984D02*
X15003039Y-11458460D01*
X15003039Y-11458460D02*
X14993515Y-11448936D01*
X14993515Y-11448936D02*
X14983992Y-11429888D01*
X14983992Y-11429888D02*
X14983992Y-11372746D01*
X14983992Y-11372746D02*
X14993515Y-11353698D01*
X14993515Y-11353698D02*
X15003039Y-11344174D01*
X15003039Y-11344174D02*
X15022087Y-11334650D01*
X15022087Y-11334650D02*
X15050658Y-11334650D01*
X15050658Y-11334650D02*
X15069706Y-11344174D01*
X15069706Y-11344174D02*
X15079230Y-11353698D01*
X15079230Y-11353698D02*
X15088754Y-11372746D01*
X15088754Y-11372746D02*
X15088754Y-11429888D01*
X15088754Y-11429888D02*
X15079230Y-11448936D01*
X15079230Y-11448936D02*
X15069706Y-11458460D01*
X15069706Y-11458460D02*
X15050658Y-11467984D01*
X15050658Y-11467984D02*
X15022087Y-11467984D01*
X15145896Y-11334650D02*
X15222087Y-11334650D01*
X15174468Y-11267984D02*
X15174468Y-11439412D01*
X15174468Y-11439412D02*
X15183992Y-11458460D01*
X15183992Y-11458460D02*
X15203039Y-11467984D01*
X15203039Y-11467984D02*
X15222087Y-11467984D01*
X15279230Y-11458460D02*
X15298277Y-11467984D01*
X15298277Y-11467984D02*
X15336373Y-11467984D01*
X15336373Y-11467984D02*
X15355420Y-11458460D01*
X15355420Y-11458460D02*
X15364944Y-11439412D01*
X15364944Y-11439412D02*
X15364944Y-11429888D01*
X15364944Y-11429888D02*
X15355420Y-11410841D01*
X15355420Y-11410841D02*
X15336373Y-11401317D01*
X15336373Y-11401317D02*
X15307801Y-11401317D01*
X15307801Y-11401317D02*
X15288754Y-11391793D01*
X15288754Y-11391793D02*
X15279230Y-11372746D01*
X15279230Y-11372746D02*
X15279230Y-11363222D01*
X15279230Y-11363222D02*
X15288754Y-11344174D01*
X15288754Y-11344174D02*
X15307801Y-11334650D01*
X15307801Y-11334650D02*
X15336373Y-11334650D01*
X15336373Y-11334650D02*
X15355420Y-11344174D01*
X15431611Y-11544174D02*
X15441135Y-11534650D01*
X15441135Y-11534650D02*
X15460182Y-11506079D01*
X15460182Y-11506079D02*
X15469706Y-11487031D01*
X15469706Y-11487031D02*
X15479230Y-11458460D01*
X15479230Y-11458460D02*
X15488754Y-11410841D01*
X15488754Y-11410841D02*
X15488754Y-11372746D01*
X15488754Y-11372746D02*
X15479230Y-11325127D01*
X15479230Y-11325127D02*
X15469706Y-11296555D01*
X15469706Y-11296555D02*
X15460182Y-11277508D01*
X15460182Y-11277508D02*
X15441135Y-11248936D01*
X15441135Y-11248936D02*
X15431611Y-11239412D01*
M02*
