  0
SECTION
  2
HEADER
  9
$ACADVER
  1
AC1024
  9
$ACADMAINTVER
 70
6
  9
$DWGCODEPAGE
  3
ANSI_1252
  9
$LASTSAVEDBY
  1
ezdxf
  9
$INSBASE
 10
0.0
 20
0.0
 30
0.0
  9
$EXTMIN
 10
1e+20
 20
1e+20
 30
1e+20
  9
$EXTMAX
 10
-1e+20
 20
-1e+20
 30
-1e+20
  9
$LIMMIN
 10
0.0
 20
0.0
  9
$LIMMAX
 10
420.0
 20
297.0
  9
$ORTHOMODE
 70
0
  9
$REGENMODE
 70
1
  9
$FILLMODE
 70
1
  9
$QTEXTMODE
 70
0
  9
$MIRRTEXT
 70
1
  9
$LTSCALE
 40
1.0
  9
$ATTMODE
 70
1
  9
$TEXTSIZE
 40
2.5
  9
$TRACEWID
 40
1.0
  9
$TEXTSTYLE
  7
Standard
  9
$CLAYER
  8
0
  9
$CELTYPE
  6
ByLayer
  9
$CECOLOR
 62
256
  9
$CELTSCALE
 40
1.0
  9
$DISPSILH
 70
0
  9
$DIMSCALE
 40
1.0
  9
$DIMASZ
 40
2.5
  9
$DIMEXO
 40
0.625
  9
$DIMDLI
 40
3.75
  9
$DIMRND
 40
0.0
  9
$DIMDLE
 40
0.0
  9
$DIMEXE
 40
1.25
  9
$DIMTP
 40
0.0
  9
$DIMTM
 40
0.0
  9
$DIMTXT
 40
2.5
  9
$DIMCEN
 40
2.5
  9
$DIMTSZ
 40
0.0
  9
$DIMTOL
 70
0
  9
$DIMLIM
 70
0
  9
$DIMTIH
 70
0
  9
$DIMTOH
 70
0
  9
$DIMSE1
 70
0
  9
$DIMSE2
 70
0
  9
$DIMTAD
 70
1
  9
$DIMZIN
 70
8
  9
$DIMBLK
  1

  9
$DIMASO
 70
1
  9
$DIMSHO
 70
1
  9
$DIMPOST
  1

  9
$DIMAPOST
  1

  9
$DIMALT
 70
0
  9
$DIMALTD
 70
3
  9
$DIMALTF
 40
0.03937007874
  9
$DIMLFAC
 40
1.0
  9
$DIMTOFL
 70
1
  9
$DIMTVP
 40
0.0
  9
$DIMTIX
 70
0
  9
$DIMSOXD
 70
0
  9
$DIMSAH
 70
0
  9
$DIMBLK1
  1

  9
$DIMBLK2
  1

  9
$DIMSTYLE
  2
ISO-25
  9
$DIMCLRD
 70
0
  9
$DIMCLRE
 70
0
  9
$DIMCLRT
 70
0
  9
$DIMTFAC
 40
1.0
  9
$DIMGAP
 40
0.625
  9
$DIMJUST
 70
0
  9
$DIMSD1
 70
0
  9
$DIMSD2
 70
0
  9
$DIMTOLJ
 70
0
  9
$DIMTZIN
 70
8
  9
$DIMALTZ
 70
0
  9
$DIMALTTZ
 70
0
  9
$DIMUPT
 70
0
  9
$DIMDEC
 70
2
  9
$DIMTDEC
 70
2
  9
$DIMALTU
 70
2
  9
$DIMALTTD
 70
3
  9
$DIMTXSTY
  7
Standard
  9
$DIMAUNIT
 70
0
  9
$DIMADEC
 70
0
  9
$DIMALTRND
 40
0.0
  9
$DIMAZIN
 70
0
  9
$DIMDSEP
 70
44
  9
$DIMATFIT
 70
3
  9
$DIMFRAC
 70
0
  9
$DIMLDRBLK
  1

  9
$DIMLUNIT
 70
2
  9
$DIMLWD
 70
-2
  9
$DIMLWE
 70
-2
  9
$DIMTMOVE
 70
0
  9
$DIMFXL
 40
1.0
  9
$DIMFXLON
 70
0
  9
$DIMJOGANG
 40
0.785398163397
  9
$DIMTFILL
 70
0
  9
$DIMTFILLCLR
 70
0
  9
$DIMARCSYM
 70
0
  9
$DIMLTYPE
  6

  9
$DIMLTEX1
  6

  9
$DIMLTEX2
  6

  9
$DIMTXTDIRECTION
 70
0
  9
$LUNITS
 70
2
  9
$LUPREC
 70
4
  9
$SKETCHINC
 40
1.0
  9
$FILLETRAD
 40
10.0
  9
$AUNITS
 70
0
  9
$AUPREC
 70
2
  9
$MENU
  1
.
  9
$ELEVATION
 40
0.0
  9
$PELEVATION
 40
0.0
  9
$THICKNESS
 40
0.0
  9
$LIMCHECK
 70
0
  9
$CHAMFERA
 40
0.0
  9
$CHAMFERB
 40
0.0
  9
$CHAMFERC
 40
0.0
  9
$CHAMFERD
 40
0.0
  9
$SKPOLY
 70
0
  9
$TDCREATE
 40
2461315.762013889
  9
$TDUCREATE
 40
2458532.153996898
  9
$TDUPDATE
 40
2461315.762013889
  9
$TDUUPDATE
 40
2458532.1544311
  9
$TDINDWG
 40
0.0
  9
$TDUSRTIMER
 40
0.0
  9
$USRTIMER
 70
1
  9
$ANGBASE
 50
0.0
  9
$ANGDIR
 70
0
  9
$PDMODE
 70
0
  9
$PDSIZE
 40
0.0
  9
$PLINEWID
 40
0.0
  9
$SPLFRAME
 70
0
  9
$SPLINETYPE
 70
6
  9
$SPLINESEGS
 70
8
  9
$HANDSEED
  5
5F
  9
$SURFTAB1
 70
6
  9
$SURFTAB2
 70
6
  9
$SURFTYPE
 70
6
  9
$SURFU
 70
6
  9
$SURFV
 70
6
  9
$UCSBASE
  2

  9
$UCSNAME
  2

  9
$UCSORG
 10
0.0
 20
0.0
 30
0.0
  9
$UCSXDIR
 10
1.0
 20
0.0
 30
0.0
  9
$UCSYDIR
 10
0.0
 20
1.0
 30
0.0
  9
$UCSORTHOREF
  2

  9
$UCSORTHOVIEW
 70
0
  9
$UCSORGTOP
 10
0.0
 20
0.0
 30
0.0
  9
$UCSORGBOTTOM
 10
0.0
 20
0.0
 30
0.0
  9
$UCSORGLEFT
 10
0.0
 20
0.0
 30
0.0
  9
$UCSORGRIGHT
 10
0.0
 20
0.0
 30
0.0
  9
$UCSORGFRONT
 10
0.0
 20
0.0
 30
0.0
  9
$UCSORGBACK
 10
0.0
 20
0.0
 30
0.0
  9
$PUCSBASE
  2

  9
$PUCSNAME
  2

  9
$PUCSORG
 10
0.0
 20
0.0
 30
0.0
  9
$PUCSXDIR
 10
1.0
 20
0.0
 30
0.0
  9
$PUCSYDIR
 10
0.0
 20
1.0
 30
0.0
  9
$PUCSORTHOREF
  2

  9
$PUCSORTHOVIEW
 70
0
  9
$PUCSORGTOP
 10
0.0
 20
0.0
 30
0.0
  9
$PUCSORGBOTTOM
 10
0.0
 20
0.0
 30
0.0
  9
$PUCSORGLEFT
 10
0.0
 20
0.0
 30
0.0
  9
$PUCSORGRIGHT
 10
0.0
 20
0.0
 30
0.0
  9
$PUCSORGFRONT
 10
0.0
 20
0.0
 30
0.0
  9
$PUCSORGBACK
 10
0.0
 20
0.0
 30
0.0
  9
$USERI1
 70
0
  9
$USERI2
 70
0
  9
$USERI3
 70
0
  9
$USERI4
 70
0
  9
$USERI5
 70
0
  9
$USERR1
 40
0.0
  9
$USERR2
 40
0.0
  9
$USERR3
 40
0.0
  9
$USERR4
 40
0.0
  9
$USERR5
 40
0.0
  9
$WORLDVIEW
 70
1
  9
$SHADEDGE
 70
3
  9
$SHADEDIF
 70
70
  9
$TILEMODE
 70
1
  9
$MAXACTVP
 70
64
  9
$PINSBASE
 10
0.0
 20
0.0
 30
0.0
  9
$PLIMCHECK
 70
0
  9
$PEXTMIN
 10
1e+20
 20
1e+20
 30
1e+20
  9
$PEXTMAX
 10
-1e+20
 20
-1e+20
 30
-1e+20
  9
$PLIMMIN
 10
0.0
 20
0.0
  9
$PLIMMAX
 10
420.0
 20
297.0
  9
$UNITMODE
 70
0
  9
$VISRETAIN
 70
1
  9
$PLINEGEN
 70
0
  9
$PSLTSCALE
 70
1
  9
$TREEDEPTH
 70
3020
  9
$CMLSTYLE
  2
Standard
  9
$CMLJUST
 70
0
  9
$CMLSCALE
 40
20.0
  9
$PROXYGRAPHICS
 70
1
  9
$MEASUREMENT
 70
1
  9
$CELWEIGHT
370
-1
  9
$ENDCAPS
280
0
  9
$JOINSTYLE
280
0
  9
$LWDISPLAY
290
0
  9
$INSUNITS
 70
4
  9
$HYPERLINKBASE
  1

  9
$STYLESHEET
  1

  9
$XEDIT
290
1
  9
$CEPSNTYPE
380
0
  9
$PSTYLEMODE
290
1
  9
$FINGERPRINTGUID
  2
{7A92B5FB-6415-4509-A9F0-1C77FD310592}
  9
$VERSIONGUID
  2
{3A436030-716C-4109-A8FF-62039C1C33C7}
  9
$EXTNAMES
290
1
  9
$PSVPSCALE
 40
0.0
  9
$OLESTARTUP
290
0
  9
$SORTENTS
280
127
  9
$INDEXCTL
280
0
  9
$HIDETEXT
280
1
  9
$XCLIPFRAME
280
1
  9
$HALOGAP
280
0
  9
$OBSCOLOR
 70
257
  9
$OBSLTYPE
280
0
  9
$INTERSECTIONDISPLAY
280
0
  9
$INTERSECTIONCOLOR
 70
257
  9
$DIMASSOC
280
2
  9
$PROJECTNAME
  1

  9
$CAMERADISPLAY
290
0
  9
$LENSLENGTH
 40
50.0
  9
$CAMERAHEIGHT
 40
0.0
  9
$STEPSPERSEC
 40
24.0
  9
$STEPSIZE
 40
100.0
  9
$3DDWFPREC
 40
2.0
  9
$PSOLWIDTH
 40
0.005
  9
$PSOLHEIGHT
 40
0.08
  9
$LOFTANG1
 40
1.570796326795
  9
$LOFTANG2
 40
1.570796326795
  9
$LOFTMAG1
 40
0.0
  9
$LOFTMAG2
 40
0.0
  9
$LOFTPARAM
 70
7
  9
$LOFTNORMALS
280
1
  9
$LATITUDE
 40
37.795
  9
$LONGITUDE
 40
-122.394
  9
$NORTHDIRECTION
 40
0.0
  9
$TIMEZONE
 70
-8000
  9
$LIGHTGLYPHDISPLAY
280
1
  9
$TILEMODELIGHTSYNCH
280
1
  9
$CMATERIAL
347
20
  9
$SOLIDHIST
280
0
  9
$SHOWHIST
280
1
  9
$DWFFRAME
280
2
  9
$DGNFRAME
280
2
  9
$REALWORLDSCALE
290
1
  9
$INTERFERECOLOR
 62
256
  9
$CSHADOW
280
0
  9
$SHADOWPLANELOCATION
 40
0.0
  0
ENDSEC
  0
SECTION
  2
CLASSES
  0
CLASS
  1
ACDBDICTIONARYWDFLT
  2
AcDbDictionaryWithDefault
  3
ObjectDBX Classes
 90
0
 91
0
280
0
281
0
  0
CLASS
  1
SUN
  2
AcDbSun
  3
SCENEOE
 90
1153
 91
0
280
0
281
0
  0
CLASS
  1
VISUALSTYLE
  2
AcDbVisualStyle
  3
ObjectDBX Classes
 90
4095
 91
0
280
0
281
0
  0
CLASS
  1
MATERIAL
  2
AcDbMaterial
  3
ObjectDBX Classes
 90
1153
 91
0
280
0
281
0
  0
CLASS
  1
SCALE
  2
AcDbScale
  3
ObjectDBX Classes
 90
1153
 91
0
280
0
281
0
  0
CLASS
  1
TABLESTYLE
  2
AcDbTableStyle
  3
ObjectDBX Classes
 90
4095
 91
0
280
0
281
0
  0
CLASS
  1
MLEADERSTYLE
  2
AcDbMLeaderStyle
  3
ACDB_MLEADERSTYLE_CLASS
 90
4095
 91
0
280
0
281
0
  0
CLASS
  1
DICTIONARYVAR
  2
AcDbDictionaryVar
  3
ObjectDBX Classes
 90
0
 91
0
280
0
281
0
  0
CLASS
  1
CELLSTYLEMAP
  2
AcDbCellStyleMap
  3
ObjectDBX Classes
 90
1152
 91
0
280
0
281
0
  0
CLASS
  1
MENTALRAYRENDERSETTINGS
  2
AcDbMentalRayRenderSettings
  3
SCENEOE
 90
1024
 91
0
280
0
281
0
  0
CLASS
  1
ACDBDETAILVIEWSTYLE
  2
AcDbDetailViewStyle
  3
ObjectDBX Classes
 90
1025
 91
0
280
0
281
0
  0
CLASS
  1
ACDBSECTIONVIEWSTYLE
  2
AcDbSectionViewStyle
  3
ObjectDBX Classes
 90
1025
 91
0
280
0
281
0
  0
CLASS
  1
RASTERVARIABLES
  2
AcDbRasterVariables
  3
ISM
 90
0
 91
0
280
0
281
0
  0
CLASS
  1
ACDBPLACEHOLDER
  2
AcDbPlaceHolder
  3
ObjectDBX Classes
 90
0
 91
0
280
0
281
0
  0
CLASS
  1
LAYOUT
  2
AcDbLayout
  3
ObjectDBX Classes
 90
0
 91
0
280
0
281
0
  0
ENDSEC
  0
SECTION
  2
TABLES
  0
TABLE
  2
VPORT
  5
8
330
0
100
AcDbSymbolTable
 70
1
  0
VPORT
  5
23
330
8
100
AcDbSymbolTableRecord
100
AcDbViewportTableRecord
  2
*Active
 70
0
 10
0.0
 20
0.0
 11
1.0
 21
1.0
 12
0.0
 22
0.0
 13
0.0
 23
0.0
 14
0.5
 24
0.5
 15
0.5
 25
0.5
 16
0.0
 26
0.0
 36
1.0
 17
0.0
 27
0.0
 37
0.0
 40
1000.0
 41
1.34
 42
50.0
 43
0.0
 44
0.0
 50
0.0
 51
0.0
 71
0
 72
1000
 73
1
 74
3
 75
0
 76
0
 77
0
 78
0
281
0
 65
0
146
0.0
  0
ENDTAB
  0
TABLE
  2
LTYPE
  5
2
330
0
100
AcDbSymbolTable
 70
3
  0
LTYPE
  5
24
330
2
100
AcDbSymbolTableRecord
100
AcDbLinetypeTableRecord
  2
ByBlock
 70
0
  3

 72
65
 73
0
 40
0.0
  0
LTYPE
  5
25
330
2
100
AcDbSymbolTableRecord
100
AcDbLinetypeTableRecord
  2
ByLayer
 70
0
  3

 72
65
 73
0
 40
0.0
  0
LTYPE
  5
26
330
2
100
AcDbSymbolTableRecord
100
AcDbLinetypeTableRecord
  2
Continuous
 70
0
  3

 72
65
 73
0
 40
0.0
  0
ENDTAB
  0
TABLE
  2
LAYER
  5
1
330
0
100
AcDbSymbolTable
 70
9
  0
LAYER
  5
27
330
1
100
AcDbSymbolTableRecord
100
AcDbLayerTableRecord
  2
0
 70
0
 62
7
  6
Continuous
370
-3
390
13
347
21
  0
LAYER
  5
28
330
1
100
AcDbSymbolTableRecord
100
AcDbLayerTableRecord
  2
Defpoints
 70
0
 62
7
  6
Continuous
290
0
370
-3
390
13
347
21
  0
LAYER
  5
2F
330
1
100
AcDbSymbolTableRecord
100
AcDbLayerTableRecord
  2
OUTLINE
 70
0
 62
7
  6
Continuous
370
-3
390
13
347
21
  0
LAYER
  5
30
330
1
100
AcDbSymbolTableRecord
100
AcDbLayerTableRecord
  2
OPENINGS
 70
0
 62
1
  6
Continuous
370
-3
390
13
347
21
  0
LAYER
  5
31
330
1
100
AcDbSymbolTableRecord
100
AcDbLayerTableRecord
  2
HOLES
 70
0
 62
3
  6
Continuous
370
-3
390
13
347
21
  0
LAYER
  5
32
330
1
100
AcDbSymbolTableRecord
100
AcDbLayerTableRecord
  2
RAILS
 70
0
 62
8
  6
Continuous
370
-3
390
13
347
21
  0
LAYER
  5
33
330
1
100
AcDbSymbolTableRecord
100
AcDbLayerTableRecord
  2
PLATE_REF
 70
0
 62
2
  6
Continuous
370
-3
390
13
347
21
  0
LAYER
  5
34
330
1
100
AcDbSymbolTableRecord
100
AcDbLayerTableRecord
  2
PLATE_OPENINGS_REF
 70
0
 62
2
  6
Continuous
370
-3
390
13
347
21
  0
LAYER
  5
35
330
1
100
AcDbSymbolTableRecord
100
AcDbLayerTableRecord
  2
NOTES
 70
0
 62
7
  6
Continuous
370
-3
390
13
347
21
  0
ENDTAB
  0
TABLE
  2
STYLE
  5
5
330
0
100
AcDbSymbolTable
 70
1
  0
STYLE
  5
29
330
5
100
AcDbSymbolTableRecord
100
AcDbTextStyleTableRecord
  2
Standard
 70
0
 40
0.0
 41
1.0
 50
0.0
 71
0
 42
2.5
  3
txt
  4

  0
ENDTAB
  0
TABLE
  2
VIEW
  5
7
330
0
100
AcDbSymbolTable
 70
0
  0
ENDTAB
  0
TABLE
  2
UCS
  5
6
330
0
100
AcDbSymbolTable
 70
0
  0
ENDTAB
  0
TABLE
  2
APPID
  5
3
330
0
100
AcDbSymbolTable
 70
3
  0
APPID
  5
2A
330
3
100
AcDbSymbolTableRecord
100
AcDbRegAppTableRecord
  2
ACAD
 70
0
  0
APPID
  5
5C
330
3
100
AcDbSymbolTableRecord
100
AcDbRegAppTableRecord
  2
HATCHBACKGROUNDCOLOR
 70
0
  0
APPID
  5
5D
330
3
100
AcDbSymbolTableRecord
100
AcDbRegAppTableRecord
  2
EZDXF
 70
0
  0
ENDTAB
  0
TABLE
  2
DIMSTYLE
  5
4
330
0
100
AcDbSymbolTable
 70
1
100
AcDbDimStyleTable
  0
DIMSTYLE
105
2B
330
4
100
AcDbSymbolTableRecord
100
AcDbDimStyleTableRecord
  2
Standard
 70
0
 40
1.0
 41
2.5
 42
0.625
 43
3.75
 44
1.25
 45
0.0
 46
0.0
 47
0.0
 48
0.0
 49
2.5
140
2.5
141
2.5
142
0.0
143
0.03937007874
144
1.0
145
0.0
146
1.0
147
0.625
148
0.0
 69
0
 70
0
 71
0
 72
0
 73
0
 74
0
 75
0
 76
0
 77
1
 78
8
 79
3
170
0
171
3
172
1
173
0
174
0
175
0
176
0
177
0
178
0
179
2
271
2
272
2
273
2
274
3
275
0
276
0
277
2
278
44
279
0
280
0
281
0
282
0
283
0
284
8
285
0
286
0
288
0
289
3
290
0
371
-2
372
-2
  0
ENDTAB
  0
TABLE
  2
BLOCK_RECORD
  5
9
330
0
100
AcDbSymbolTable
 70
2
  0
BLOCK_RECORD
  5
17
330
9
100
AcDbSymbolTableRecord
100
AcDbBlockTableRecord
  2
*Model_Space
340
1A
 70
0
280
1
281
0
  0
BLOCK_RECORD
  5
1B
330
9
100
AcDbSymbolTableRecord
100
AcDbBlockTableRecord
  2
*Paper_Space
340
1E
 70
0
280
1
281
0
  0
ENDTAB
  0
ENDSEC
  0
SECTION
  2
BLOCKS
  0
BLOCK
  5
18
330
17
100
AcDbEntity
  8
0
100
AcDbBlockBegin
  2
*Model_Space
 70
0
 10
0.0
 20
0.0
 30
0.0
  3
*Model_Space
  1

  0
ENDBLK
  5
19
330
17
100
AcDbEntity
  8
0
100
AcDbBlockEnd
  0
BLOCK
  5
1C
330
1B
100
AcDbEntity
  8
0
100
AcDbBlockBegin
  2
*Paper_Space
 70
0
 10
0.0
 20
0.0
 30
0.0
  3
*Paper_Space
  1

  0
ENDBLK
  5
1D
330
1B
100
AcDbEntity
  8
0
100
AcDbBlockEnd
  0
ENDSEC
  0
SECTION
  2
ENTITIES
  0
LWPOLYLINE
  5
36
330
17
100
AcDbEntity
  8
OUTLINE
100
AcDbPolyline
 90
68
 70
1
 10
77.19410865009064
 20
147.0770493549199
 10
77.11127022446846
 20
148.23549649936967
 10
76.9152830121858
 20
149.38024581859418
 10
76.6080344772344
 20
150.50027275086572
 10
76.19248359096501
 20
151.58479082455747
 10
75.67263233557566
 20
152.62335553776194
 10
75.0534871628353
 20
153.6059649445537
 10
74.34101077921662
 20
154.52315597919645
 10
73.54206472177307
 20
155.3660955906389
 10
72.66434327778619
 20
156.12666580962525
 10
71.7162993845729
 20
156.79754192917667
 10
70.70706322307838
 20
157.3722630455237
 10
69.64635428924241
 20
157.84529428014136
 10
68.54438778994032
 20
158.21208008365514
 10
67.41177626495654
 20
158.46908810827165
 10
66.25942738242513
 20
158.61384322621902
 10
65.09843889202281
 20
158.64495136658013
 10
37.11607696972202
 20
158.02086180670284
 10
35.957629825272264
 20
157.93802338108068
 10
34.81288050604773
 20
157.742036168798
 10
33.6928535737762
 20
157.4347876338466
 10
32.60833550008443
 20
157.01923674757722
 10
31.569770786879975
 20
156.49938549218786
 10
30.587161380088205
 20
155.8802403194475
 10
29.669970345445467
 20
155.16776393582882
 10
28.827030734002996
 20
154.3688178783853
 10
28.066460515016644
 20
153.4910964343984
 10
27.39558439546523
 20
152.54305254118512
 10
26.82086327911822
 20
151.53381637969062
 10
26.347832044500556
 20
150.47310744585462
 10
25.981046240986778
 20
149.37114094655252
 10
25.72403821637025
 20
148.23852942156876
 10
25.579283098422906
 20
147.08618053903734
 10
25.548174958061765
 20
145.925192048635
 10
28.677567128945178
 20
5.612342816398666
 10
28.76040555456736
 20
4.453895671948899
 10
28.95639276685004
 20
3.309146352724383
 10
29.263641301801428
 20
2.1891194204528404
 10
29.679192188070804
 20
1.1046013467610862
 10
30.199043443460173
 20
0.06603663355660672
 10
30.818188616200533
 20
-0.9165727732351598
 10
31.53066499981921
 20
-1.8337638078778866
 10
32.32961105726275
 20
-2.6767034193203614
 10
33.20733250124963
 20
-3.4372736383067064
 10
34.15537639446292
 20
-4.108149757858115
 10
35.16461255595745
 20
-4.682870874205136
 10
36.22532148979342
 20
-5.155902108822801
 10
37.32728798909552
 20
-5.522687912336579
 10
38.45989951407928
 20
-5.77969593695309
 10
39.61224839661071
 20
-5.924451054900459
 10
40.77323688701301
 20
-5.955559195261586
 10
68.7555988093138
 20
-5.331469635384295
 10
69.91404595376355
 20
-5.248631209762124
 10
71.05879527298809
 20
-5.052643997479436
 10
72.17882220525962
 20
-4.745395462528052
 10
73.26334027895139
 20
-4.329844576258665
 10
74.30190499215585
 20
-3.80999332086931
 10
75.28451439894762
 20
-3.19084814812895
 10
76.20170543359036
 20
-2.478371764510271
 10
77.04464504503282
 20
-1.6794257070667271
 10
77.80521526401918
 20
-0.8017042630798414
 10
78.4760913835706
 20
0.14633963013343987
 10
79.0508124999176
 20
1.1555757916279532
 10
79.52384373453528
 20
2.216284725463936
 10
79.89062953804905
 20
3.318251224766044
 10
80.14763756266557
 20
4.450862749749803
 10
80.29239268061292
 20
5.603211632281244
 10
80.32350082097406
 20
6.7642001226835475
  0
LWPOLYLINE
  5
37
330
17
100
AcDbEntity
  8
OPENINGS
100
AcDbPolyline
 90
22
 70
1
 10
35.40483856201172
 20
142.9653778076172
 10
37.682315826416016
 20
143.4755096435547
 10
66.788330078125
 20
144.0078125
 10
69.32079315185547
 20
142.2310791015625
 10
69.82804107666016
 20
140.96090698242188
 10
70.34139251708984
 20
132.32127380371094
 10
70.09396362304688
 20
125.4598388671875
 10
70.8599853515625
 20
117.32865142822266
 10
70.8858413696289
 20
86.07199096679688
 10
69.11456298828125
 20
85.56228637695312
 10
55.44719314575195
 20
85.55097961425781
 10
54.68705749511719
 20
86.56683349609375
 10
54.16025924682617
 20
111.4700927734375
 10
53.653011322021484
 20
112.74027252197266
 10
51.62632369995117
 20
115.02567291259766
 10
49.6004753112793
 20
116.29459381103516
 10
37.95811462402344
 20
116.03084564208984
 10
35.42648696899414
 20
116.79110717773438
 10
34.15993881225586
 20
118.06065368652344
 10
33.14354705810547
 20
122.8880844116211
 10
32.87657928466797
 20
139.6597442626953
 10
34.14018249511719
 20
141.94786071777344
  0
LWPOLYLINE
  5
38
330
17
100
AcDbEntity
  8
OPENINGS
100
AcDbPolyline
 90
8
 70
1
 10
50.87080764770508
 20
110.45089721679688
 10
50.87627410888672
 20
103.84379577636719
 10
50.11760330200195
 20
103.080810546875
 10
34.678958892822266
 20
102.55980682373047
 10
33.159732818603516
 20
103.32090759277344
 10
32.90074920654297
 20
110.43603515625
 10
33.912513732910156
 20
111.19922637939453
 10
49.6042594909668
 20
111.72044372558594
  0
LWPOLYLINE
  5
39
330
17
100
AcDbEntity
  8
OPENINGS
100
AcDbPolyline
 90
8
 70
1
 10
49.86933898925781
 20
97.2358627319336
 10
50.13168716430664
 20
86.05482482910156
 10
49.62590789794922
 20
85.5461654663086
 10
35.95895767211914
 20
85.02662658691406
 10
34.94593048095703
 20
85.78814697265625
 10
34.6835823059082
 20
96.96918487548828
 10
35.189361572265625
 20
97.47783660888672
 10
49.10940933227539
 20
97.99758911132812
  0
LWPOLYLINE
  5
3A
330
17
100
AcDbEntity
  8
OPENINGS
100
AcDbPolyline
 90
8
 70
1
 10
68.6119384765625
 20
81.2418441772461
 10
69.11856079101562
 20
80.73402404785156
 10
69.90139770507812
 20
52.27330017089844
 10
69.39582824707031
 20
51.51052474975586
 10
58.76586151123047
 20
51.24761199951172
 10
58.00593185424805
 20
52.009342193603516
 10
57.476402282714844
 20
80.21615600585938
 10
58.23507308959961
 20
80.97914123535156
  0
LWPOLYLINE
  5
3B
330
17
100
AcDbEntity
  8
OPENINGS
100
AcDbPolyline
 90
8
 70
1
 10
47.605106353759766
 20
80.71623229980469
 10
48.367557525634766
 20
76.90506744384766
 10
48.894561767578125
 20
51.74768829345703
 10
47.12370681762695
 20
50.72974395751953
 10
37.50592803955078
 20
50.7217903137207
 10
36.74557876586914
 20
51.99176025390625
 10
36.21647262573242
 20
79.6903305053711
 10
37.73422622680664
 20
80.70806884765625
  0
LWPOLYLINE
  5
3C
330
17
100
AcDbEntity
  8
OPENINGS
100
AcDbPolyline
 90
12
 70
1
 10
77.75125885009766
 20
47.70564270019531
 10
78.25914001464844
 20
45.6731071472168
 10
78.0100326538086
 20
40.844635009765625
 10
78.52085876464844
 20
35.254432678222656
 10
78.02012634277344
 20
28.646913528442383
 10
64.35338592529297
 20
27.87325096130371
 10
57.01350021362305
 20
27.8671817779541
 10
56.253570556640625
 20
28.628910064697266
 10
55.73833465576172
 20
39.55561828613281
 10
55.985130310058594
 20
47.17940139770508
 10
57.250205993652344
 20
47.68868637084961
 10
76.73844146728516
 20
48.213043212890625
  0
LWPOLYLINE
  5
3D
330
17
100
AcDbEntity
  8
OPENINGS
100
AcDbPolyline
 90
10
 70
1
 10
50.669830322265625
 20
47.42912673950195
 10
51.42975997924805
 20
46.667396545410156
 10
51.944786071777344
 20
35.994808197021484
 10
51.698204040527344
 20
28.116905212402344
 10
50.68622589111328
 20
27.60782814025879
 10
43.59965133666992
 20
27.347848892211914
 10
35.24715805053711
 20
27.595060348510742
 10
34.74053955078125
 20
28.10287857055664
 10
34.47209930419922
 20
46.65336990356445
 10
35.73717498779297
 20
47.162654876708984
  0
CIRCLE
  5
3E
330
17
100
AcDbEntity
  8
OPENINGS
100
AcDbCircle
 10
64.47737297725249
 20
19.341804619924915
 30
0.0
 40
3.1994442208227247
  0
CIRCLE
  5
3F
330
17
100
AcDbEntity
  8
OPENINGS
100
AcDbCircle
 10
43.7419522099711
 20
18.875350241717342
 30
0.0
 40
3.1817986180165803
  0
LWPOLYLINE
  5
40
330
17
100
AcDbEntity
  8
OPENINGS
100
AcDbPolyline
 90
12
 70
1
 10
77.53115844726562
 20
7.808720111846924
 10
77.53368377685547
 20
4.759289741516113
 10
76.77564239501953
 20
3.2339468002319336
 10
74.24674987792969
 20
0.6906614303588867
 10
70.70525360107422
 20
-1.5993419885635376
 10
39.068450927734375
 20
-2.3878660202026367
 10
35.27048873901367
 20
-0.6121715307235718
 10
33.49753189086914
 20
0.9110783338546753
 10
32.23203659057617
 20
0.9100316762924194
 10
30.71091651916504
 20
3.9582061767578125
 10
31.97347068786621
 20
7.516921520233154
 10
76.77123260498047
 20
8.570449829101562
  0
CIRCLE
  5
41
330
17
100
AcDbEntity
  8
HOLES
100
AcDbCircle
 10
52.92767187302279
 20
75.41098267128433
 30
0.0
 40
1.5868727287499649
  0
CIRCLE
  5
42
330
17
100
AcDbEntity
  8
HOLES
100
AcDbCircle
 10
53.37911689842893
 20
58.38446077645793
 30
0.0
 40
2.4176453703864507
  0
CIRCLE
  5
43
330
17
100
AcDbEntity
  8
HOLES
100
AcDbCircle
 10
73.38709249316169
 20
149.62681505282015
 30
0.0
 40
1.5804088618474803
  0
CIRCLE
  5
44
330
17
100
AcDbEntity
  8
HOLES
100
AcDbCircle
 10
29.19756803487809
 20
148.43470844447017
 30
0.0
 40
1.6929867483839505
  0
CIRCLE
  5
45
330
17
100
AcDbEntity
  8
HOLES
100
AcDbCircle
 10
76.54548823569685
 20
14.224896895659526
 30
0.0
 40
1.6501193664985205
  0
CIRCLE
  5
46
330
17
100
AcDbEntity
  8
HOLES
100
AcDbCircle
 10
32.36033121853421
 20
13.079067451241627
 30
0.0
 40
1.7524077712241464
  0
CIRCLE
  5
47
330
17
100
AcDbEntity
  8
HOLES
100
AcDbCircle
 10
54.48965270820845
 20
19.225035097234695
 30
0.0
 40
1.5
  0
LINE
  5
48
330
17
100
AcDbEntity
  8
RAILS
100
AcDbLine
 10
84.00838359228672
 20
159.26922335964804
 30
0.0
 11
84.145627567265
 21
-6.670613298708048
 31
0.0
  0
LINE
  5
49
330
17
100
AcDbEntity
  8
RAILS
100
AcDbLine
 10
22.152341188547425
 20
159.21806404006048
 30
0.0
 11
22.2895851635257
 21
-6.721772618295603
 31
0.0
  0
LWPOLYLINE
  5
4A
330
17
100
AcDbEntity
  8
PLATE_OPENINGS_REF
100
AcDbPolyline
 90
4
 70
1
 10
34.805
 20
117.62499999999999
 10
69.35499999999999
 20
117.62499999999999
 10
69.35499999999999
 20
142.27499999999998
 10
34.805
 20
142.27499999999998
  0
LWPOLYLINE
  5
4B
330
17
100
AcDbEntity
  8
PLATE_OPENINGS_REF
100
AcDbPolyline
 90
4
 70
1
 10
34.39
 20
104.255
 10
49.45
 20
104.255
 10
49.45
 20
109.845
 10
34.39
 20
109.845
  0
LWPOLYLINE
  5
4C
330
17
100
AcDbEntity
  8
PLATE_OPENINGS_REF
100
AcDbPolyline
 90
4
 70
1
 10
35.745000000000005
 20
86.115
 10
48.655
 20
86.115
 10
48.655
 20
96.665
 10
35.745000000000005
 20
96.665
  0
LWPOLYLINE
  5
4D
330
17
100
AcDbEntity
  8
PLATE_OPENINGS_REF
100
AcDbPolyline
 90
4
 70
1
 10
56.900000000000006
 20
86.405
 10
69.94
 20
86.405
 10
69.94
 20
97.07499999999999
 10
56.900000000000006
 20
97.07499999999999
  0
LWPOLYLINE
  5
4E
330
17
100
AcDbEntity
  8
PLATE_OPENINGS_REF
100
AcDbPolyline
 90
4
 70
1
 10
38.285000000000004
 20
72.77
 10
46.635
 20
72.77
 10
46.635
 20
78.23
 10
38.285000000000004
 20
78.23
  0
LWPOLYLINE
  5
4F
330
17
100
AcDbEntity
  8
PLATE_OPENINGS_REF
100
AcDbPolyline
 90
4
 70
1
 10
38.44
 20
62.905
 10
46.92
 20
62.905
 10
46.92
 20
68.495
 10
38.44
 20
68.495
  0
LWPOLYLINE
  5
50
330
17
100
AcDbEntity
  8
PLATE_OPENINGS_REF
100
AcDbPolyline
 90
4
 70
1
 10
38.565
 20
53.055
 10
47.175
 20
53.055
 10
47.175
 20
58.645
 10
38.565
 20
58.645
  0
LWPOLYLINE
  5
51
330
17
100
AcDbEntity
  8
PLATE_OPENINGS_REF
100
AcDbPolyline
 90
4
 70
1
 10
59.4
 20
73.16
 10
67.88
 20
73.16
 10
67.88
 20
78.62
 10
59.4
 20
78.62
  0
LWPOLYLINE
  5
52
330
17
100
AcDbEntity
  8
PLATE_OPENINGS_REF
100
AcDbPolyline
 90
4
 70
1
 10
59.62
 20
63.27
 10
68.1
 20
63.27
 10
68.1
 20
68.73
 10
59.62
 20
68.73
  0
LWPOLYLINE
  5
53
330
17
100
AcDbEntity
  8
PLATE_OPENINGS_REF
100
AcDbPolyline
 90
4
 70
1
 10
59.79
 20
53.480000000000004
 10
68.27
 20
53.480000000000004
 10
68.27
 20
58.94
 10
59.79
 20
58.94
  0
LWPOLYLINE
  5
54
330
17
100
AcDbEntity
  8
PLATE_OPENINGS_REF
100
AcDbPolyline
 90
4
 70
1
 10
36.3
 20
39.535000000000004
 10
49.84
 20
39.535000000000004
 10
49.84
 20
45.385
 10
36.3
 20
45.385
  0
LWPOLYLINE
  5
55
330
17
100
AcDbEntity
  8
PLATE_OPENINGS_REF
100
AcDbPolyline
 90
4
 70
1
 10
36.57
 20
29.484999999999996
 10
49.99
 20
29.484999999999996
 10
49.99
 20
35.334999999999994
 10
36.57
 20
35.334999999999994
  0
LWPOLYLINE
  5
56
330
17
100
AcDbEntity
  8
PLATE_OPENINGS_REF
100
AcDbPolyline
 90
4
 70
1
 10
57.515
 20
39.915000000000006
 10
70.80499999999999
 20
39.915000000000006
 10
70.80499999999999
 20
45.765
 10
57.515
 20
45.765
  0
LWPOLYLINE
  5
57
330
17
100
AcDbEntity
  8
PLATE_OPENINGS_REF
100
AcDbPolyline
 90
4
 70
1
 10
57.735
 20
29.855
 10
71.02499999999999
 20
29.855
 10
71.02499999999999
 20
35.705
 10
57.735
 20
35.705
  0
CIRCLE
  5
58
330
17
100
AcDbEntity
  8
PLATE_OPENINGS_REF
100
AcDbCircle
 10
64.65
 20
19.42
 30
0.0
 40
2.28
  0
CIRCLE
  5
59
330
17
100
AcDbEntity
  8
PLATE_OPENINGS_REF
100
AcDbCircle
 10
43.41
 20
19.1
 30
0.0
 40
2.28
  0
CIRCLE
  5
5A
330
17
100
AcDbEntity
  8
PLATE_OPENINGS_REF
100
AcDbCircle
 10
63.02
 20
108.03
 30
0.0
 40
6.2
  0
TEXT
  5
5B
330
17
100
AcDbEntity
  8
NOTES
100
AcDbText
 10
25.7884643963161
 20
-14.4457770429552
 30
0.0
 40
2.0
  1
Scan 8 I/O plate carrier frame, I/O board back-view frame (mm). Openings +-0.5, outline +-0.5, holes +-0.5. PLATE_OPENINGS_REF = io_plate.json
 11
25.7884643963161
 21
-14.4457770429552
 31
0.0
100
AcDbText
  0
ENDSEC
  0
SECTION
  2
OBJECTS
  0
DICTIONARY
  5
A
330
0
100
AcDbDictionary
281
1
  3
ACAD_COLOR
350
B
  3
ACAD_GROUP
350
C
  3
ACAD_LAYOUT
350
D
  3
ACAD_MATERIAL
350
E
  3
ACAD_MLEADERSTYLE
350
F
  3
ACAD_MLINESTYLE
350
10
  3
ACAD_PLOTSETTINGS
350
11
  3
ACAD_PLOTSTYLENAME
350
12
  3
ACAD_SCALELIST
350
14
  3
ACAD_TABLESTYLE
350
15
  3
ACAD_VISUALSTYLE
350
16
  3
EZDXF_META
350
2D
  0
DICTIONARY
  5
B
330
A
100
AcDbDictionary
281
1
  0
DICTIONARY
  5
C
330
A
100
AcDbDictionary
281
1
  0
DICTIONARY
  5
D
330
A
100
AcDbDictionary
281
1
  3
Model
350
1A
  3
Layout1
350
1E
  0
DICTIONARY
  5
E
330
A
100
AcDbDictionary
281
1
  3
ByBlock
350
1F
  3
ByLayer
350
20
  3
Global
350
21
  0
DICTIONARY
  5
F
330
A
100
AcDbDictionary
281
1
  3
Standard
350
2C
  0
DICTIONARY
  5
10
330
A
100
AcDbDictionary
281
1
  3
Standard
350
22
  0
DICTIONARY
  5
11
330
A
100
AcDbDictionary
281
1
  0
ACDBDICTIONARYWDFLT
  5
12
330
A
100
AcDbDictionary
281
1
  3
Normal
350
13
100
AcDbDictionaryWithDefault
340
13
  0
ACDBPLACEHOLDER
  5
13
330
12
  0
DICTIONARY
  5
14
330
A
100
AcDbDictionary
281
1
  0
DICTIONARY
  5
15
330
A
100
AcDbDictionary
281
1
  0
DICTIONARY
  5
16
330
A
100
AcDbDictionary
281
1
  0
LAYOUT
  5
1A
330
D
100
AcDbPlotSettings
  1

  4
A3
  6

 40
7.5
 41
20.0
 42
7.5
 43
20.0
 44
420.0
 45
297.0
 46
0.0
 47
0.0
 48
0.0
 49
0.0
140
0.0
141
0.0
142
1.0
143
1.0
 70
1024
 72
1
 73
0
 74
5
  7

 75
16
 76
0
 77
2
 78
300
147
1.0
148
0.0
149
0.0
100
AcDbLayout
  1
Model
 70
1
 71
0
 10
0.0
 20
0.0
 11
420.0
 21
297.0
 12
0.0
 22
0.0
 32
0.0
 14
1e+20
 24
1e+20
 34
1e+20
 15
-1e+20
 25
-1e+20
 35
-1e+20
146
0.0
 13
0.0
 23
0.0
 33
0.0
 16
1.0
 26
0.0
 36
0.0
 17
0.0
 27
1.0
 37
0.0
 76
1
330
17
  0
LAYOUT
  5
1E
330
D
100
AcDbPlotSettings
  1

  4
A3
  6

 40
7.5
 41
20.0
 42
7.5
 43
20.0
 44
420.0
 45
297.0
 46
0.0
 47
0.0
 48
0.0
 49
0.0
140
0.0
141
0.0
142
1.0
143
1.0
 70
0
 72
1
 73
0
 74
5
  7

 75
16
 76
0
 77
2
 78
300
147
1.0
148
0.0
149
0.0
100
AcDbLayout
  1
Layout1
 70
1
 71
1
 10
0.0
 20
0.0
 11
420.0
 21
297.0
 12
0.0
 22
0.0
 32
0.0
 14
1e+20
 24
1e+20
 34
1e+20
 15
-1e+20
 25
-1e+20
 35
-1e+20
146
0.0
 13
0.0
 23
0.0
 33
0.0
 16
1.0
 26
0.0
 36
0.0
 17
0.0
 27
1.0
 37
0.0
 76
1
330
1B
  0
MATERIAL
  5
1F
102
{ACAD_REACTORS
330
E
102
}
330
E
100
AcDbMaterial
  1
ByBlock
  2

 70
0
 40
1.0
 71
1
 41
1.0
 91
-1023410177
 42
1.0
 72
1
  3

 73
1
 74
1
 75
1
 44
0.5
 73
0
 45
1.0
 46
1.0
 77
1
  4

 78
1
 79
1
170
1
 48
1.0
171
1
  6

172
1
173
1
174
1
140
1.0
141
1.0
175
1
  7

176
1
177
1
178
1
143
1.0
179
1
  8

270
1
271
1
272
1
145
1.0
146
1.0
273
1
  9

274
1
275
1
276
1
 42
1.0
 72
1
  3

 73
1
 74
1
 75
1
 94
63
  0
MATERIAL
  5
20
102
{ACAD_REACTORS
330
E
102
}
330
E
100
AcDbMaterial
  1
ByLayer
  2

 70
0
 40
1.0
 71
1
 41
1.0
 91
-1023410177
 42
1.0
 72
1
  3

 73
1
 74
1
 75
1
 44
0.5
 73
0
 45
1.0
 46
1.0
 77
1
  4

 78
1
 79
1
170
1
 48
1.0
171
1
  6

172
1
173
1
174
1
140
1.0
141
1.0
175
1
  7

176
1
177
1
178
1
143
1.0
179
1
  8

270
1
271
1
272
1
145
1.0
146
1.0
273
1
  9

274
1
275
1
276
1
 42
1.0
 72
1
  3

 73
1
 74
1
 75
1
 94
63
  0
MATERIAL
  5
21
102
{ACAD_REACTORS
330
E
102
}
330
E
100
AcDbMaterial
  1
Global
  2

 70
0
 40
1.0
 71
1
 41
1.0
 91
-1023410177
 42
1.0
 72
1
  3

 73
1
 74
1
 75
1
 44
0.5
 73
0
 45
1.0
 46
1.0
 77
1
  4

 78
1
 79
1
170
1
 48
1.0
171
1
  6

172
1
173
1
174
1
140
1.0
141
1.0
175
1
  7

176
1
177
1
178
1
143
1.0
179
1
  8

270
1
271
1
272
1
145
1.0
146
1.0
273
1
  9

274
1
275
1
276
1
 42
1.0
 72
1
  3

 73
1
 74
1
 75
1
 94
63
  0
MLINESTYLE
  5
22
102
{ACAD_REACTORS
330
10
102
}
330
10
100
AcDbMlineStyle
  2
Standard
 70
0
  3

 62
256
 51
90.0
 52
90.0
 71
2
 49
0.5
 62
256
  6
BYLAYER
 49
-0.5
 62
256
  6
BYLAYER
  0
MLEADERSTYLE
  5
2C
102
{ACAD_REACTORS
330
F
102
}
330
F
100
AcDbMLeaderStyle
179
2
170
2
171
1
172
0
 90
2
 40
0.0
 41
0.0
173
1
 91
-1056964608
 92
-2
290
1
 42
2.0
291
1
 43
8.0
  3
Standard
 44
4.0
300

342
29
174
1
175
1
176
0
178
1
 93
-1056964608
 45
4.0
292
0
297
0
 46
4.0
 94
-1056964608
 47
1.0
 49
1.0
140
1.0
294
1
141
0.0
177
0
142
1.0
295
0
296
0
143
3.75
271
0
272
9
273
9
  0
DICTIONARY
  5
2D
330
A
100
AcDbDictionary
280
1
281
1
  3
CREATED_BY_EZDXF
350
2E
  3
WRITTEN_BY_EZDXF
350
5E
  0
DICTIONARYVAR
  5
2E
330
2D
100
DictionaryVariables
280
0
  1
1.4.4 @ 2026-10-01T22:17:18.473392+00:00
  0
DICTIONARYVAR
  5
5E
330
2D
100
DictionaryVariables
280
0
  1
1.4.4 @ 2026-10-01T22:17:18.476523+00:00
  0
ENDSEC
  0
EOF
