M48
; DRILL file {KiCad 9.0.2+dfsg-1} date 2026-10-09T03:43:29-0400
; FORMAT={-:-/ absolute / metric / decimal}
; #@! TF.CreationDate,2026-10-09T03:43:29-04:00
; #@! TF.GenerationSoftware,Kicad,Pcbnew,9.0.2+dfsg-1
; #@! TF.FileFunction,Plated,1,6,PTH
FMAT,2
METRIC
; #@! TA.AperFunction,Plated,PTH,ViaDrill
T1C0.250
; #@! TA.AperFunction,Plated,PTH,ComponentDrill
T2C0.600
; #@! TA.AperFunction,Plated,PTH,ComponentDrill
T3C1.020
; #@! TA.AperFunction,Plated,PTH,ComponentDrill
T4C1.100
; #@! TA.AperFunction,Plated,PTH,ComponentDrill
T5C4.000
%
G90
G05
T1
X93.0Y-94.0
X93.0Y-97.0
X93.0Y-100.0
X93.0Y-103.0
X93.0Y-106.0
X93.609Y-107.487
X94.783Y-114.323
X95.921Y-108.746
X96.0Y-82.0
X96.0Y-91.0
X96.0Y-94.0
X96.0Y-97.0
X96.0Y-100.0
X96.0Y-103.0
X96.0Y-106.0
X96.0Y-112.0
X96.0Y-115.0
X96.2Y-107.25
X97.6Y-111.05
X97.65Y-113.0
X98.672Y-104.067
X98.95Y-115.65
X99.0Y-76.0
X99.0Y-79.0
X99.0Y-82.0
X99.0Y-91.0
X99.0Y-94.0
X99.0Y-97.0
X99.0Y-103.0
X99.0Y-109.0
X99.0Y-115.0
X99.105Y-118.305
X99.12Y-107.08
X99.15Y-109.7
X99.65Y-115.75
X100.1Y-125.3
X100.15Y-113.65
X100.25Y-105.95
X100.95Y-115.1
X101.05Y-126.9
X101.075Y-125.817
X101.5Y-112.4
X101.743Y-122.943
X101.85Y-108.35
X101.909Y-125.188
X102.0Y-70.0
X102.0Y-73.0
X102.0Y-76.0
X102.0Y-79.0
X102.0Y-82.0
X102.0Y-85.0
X102.0Y-88.0
X102.0Y-91.0
X102.0Y-94.0
X102.0Y-97.0
X102.0Y-103.0
X102.0Y-130.3
X102.2Y-112.45
X102.217Y-114.323
X102.4Y-107.4
X102.613Y-129.61
X102.65Y-113.7
X102.8Y-121.4
X102.823Y-108.63
X103.148Y-125.11
X103.394Y-111.947
X103.8Y-127.55
X103.9Y-129.55
X103.928Y-113.337
X104.1Y-126.4
X104.35Y-106.65
X104.5Y-125.25
X104.6Y-125.9
X104.655Y-108.255
X104.7Y-124.6
X104.75Y-122.85
X104.75Y-130.15
X104.75Y-131.1
X104.8Y-123.536
X104.808Y-127.621
X105.0Y-67.0
X105.0Y-70.0
X105.0Y-73.0
X105.0Y-76.0
X105.0Y-79.0
X105.0Y-82.0
X105.0Y-85.0
X105.0Y-88.0
X105.0Y-91.0
X105.0Y-94.0
X105.0Y-97.0
X105.0Y-100.0
X105.0Y-134.7
X105.0Y-135.55
X105.25Y-119.5
X105.25Y-120.2
X105.35Y-121.35
X105.45Y-122.55
X105.75Y-117.65
X106.15Y-107.75
X106.15Y-108.5
X106.22Y-113.535
X106.291Y-125.833
X106.308Y-124.322
X106.35Y-129.9
X106.356Y-128.186
X106.429Y-123.713
X106.435Y-127.012
X106.671Y-122.893
X106.679Y-128.668
X106.7Y-120.3
X106.986Y-133.448
X107.0Y-128.063
X107.1Y-136.1
X107.15Y-126.15
X107.3Y-134.1
X107.376Y-124.427
X107.4Y-112.45
X107.62Y-119.433
X107.65Y-132.6
X107.786Y-130.696
X107.939Y-128.278
X108.0Y-61.0
X108.0Y-64.0
X108.0Y-67.0
X108.0Y-70.0
X108.0Y-73.0
X108.0Y-76.0
X108.0Y-79.0
X108.0Y-82.0
X108.0Y-85.0
X108.0Y-88.0
X108.0Y-91.0
X108.0Y-94.0
X108.0Y-97.0
X108.0Y-103.0
X108.05Y-106.75
X108.188Y-108.675
X108.453Y-130.522
X108.573Y-132.711
X108.6Y-109.45
X108.6Y-116.05
X108.8Y-129.2
X108.824Y-123.621
X108.835Y-120.732
X108.9Y-111.2
X108.95Y-99.9
X109.138Y-82.224
X109.18Y-130.396
X109.5Y-127.5
X109.65Y-115.0
X109.65Y-116.5
X109.696Y-132.25
X109.73Y-130.722
X109.8Y-135.35
X109.8Y-137.15
X109.95Y-96.2
X109.95Y-101.7
X110.05Y-100.8
X110.061Y-123.664
X110.45Y-136.2
X110.47Y-115.175
X110.502Y-135.276
X110.542Y-113.933
X110.597Y-129.941
X110.657Y-118.408
X110.75Y-139.95
X110.9Y-132.4
X110.9Y-138.25
X110.917Y-116.767
X110.95Y-105.05
X110.95Y-137.6
X110.955Y-109.9
X110.974Y-122.28
X111.0Y-58.0
X111.0Y-61.0
X111.0Y-64.0
X111.0Y-67.0
X111.0Y-70.0
X111.0Y-73.0
X111.0Y-76.0
X111.0Y-79.0
X111.0Y-82.0
X111.0Y-85.0
X111.0Y-88.0
X111.0Y-91.0
X111.0Y-94.0
X111.0Y-100.0
X111.117Y-105.967
X111.483Y-117.333
X111.5Y-119.05
X111.5Y-127.5
X111.5Y-132.7
X111.555Y-109.9
X111.6Y-107.95
X111.683Y-106.533
X111.7Y-120.75
X111.754Y-123.55
X111.85Y-113.85
X111.903Y-107.354
X112.0Y-118.55
X112.15Y-122.35
X112.155Y-109.9
X112.2Y-123.0
X112.228Y-138.148
X112.355Y-93.46
X112.427Y-135.689
X112.6Y-116.1
X112.624Y-120.772
X112.634Y-128.683
X112.638Y-124.95
X112.65Y-134.8
X112.755Y-109.9
X112.85Y-104.25
X112.874Y-122.284
X112.9Y-98.95
X112.9Y-120.15
X112.934Y-106.755
X112.938Y-123.76
X112.95Y-129.55
X113.0Y-102.85
X113.0Y-117.25
X113.061Y-114.969
X113.2Y-135.6
X113.355Y-109.9
X113.4Y-140.0
X113.455Y-122.284
X113.52Y-106.734
X113.65Y-109.15
X113.7Y-138.95
X113.717Y-116.583
X113.796Y-68.892
X113.832Y-135.277
X113.887Y-128.147
X113.935Y-134.058
X113.95Y-129.55
X113.955Y-109.9
X113.962Y-123.274
X114.0Y-58.0
X114.0Y-61.0
X114.0Y-64.0
X114.0Y-67.0
X114.0Y-140.75
X114.15Y-102.4
X114.15Y-120.65
X114.188Y-126.818
X114.2Y-138.15
X114.25Y-97.6
X114.283Y-116.017
X114.346Y-127.587
X114.449Y-59.834
X114.5Y-93.6
X114.52Y-134.111
X114.555Y-109.9
X114.6Y-144.0
X114.7Y-97.05
X114.85Y-131.1
X114.85Y-136.15
X114.863Y-114.969
X114.887Y-83.083
X114.934Y-105.995
X115.104Y-115.797
X115.216Y-105.216
X115.3Y-121.2
X115.3Y-143.05
X115.3Y-144.0
X115.444Y-122.273
X115.45Y-130.738
X115.55Y-120.55
X115.75Y-134.05
X115.75Y-138.2
X115.75Y-141.95
X115.817Y-105.817
X115.997Y-131.623
X116.0Y-121.05
X116.06Y-119.469
X116.065Y-115.364
X116.1Y-129.4
X116.241Y-127.14
X116.355Y-109.9
X116.383Y-106.383
X116.383Y-136.151
X116.45Y-138.2
X116.516Y-118.849
X116.55Y-140.4
X116.6Y-120.7
X116.65Y-131.5
X116.665Y-114.969
X116.7Y-125.651
X116.75Y-112.35
X116.75Y-133.0
X116.813Y-123.102
X116.837Y-139.46
X116.85Y-108.0
X116.922Y-126.89
X116.953Y-100.753
X116.955Y-109.9
X117.0Y-55.0
X117.0Y-58.0
X117.0Y-61.0
X117.0Y-64.0
X117.0Y-70.0
X117.0Y-73.0
X117.0Y-76.0
X117.0Y-79.0
X117.0Y-82.0
X117.0Y-85.0
X117.0Y-94.0
X117.072Y-128.058
X117.1Y-116.05
X117.225Y-115.4
X117.25Y-140.45
X117.471Y-134.13
X117.55Y-126.75
X117.555Y-109.9
X117.588Y-124.747
X117.6Y-117.55
X117.65Y-108.0
X117.7Y-92.3
X117.7Y-93.1
X117.7Y-93.95
X117.731Y-102.379
X117.75Y-131.85
X117.8Y-129.35
X117.825Y-115.4
X118.125Y-91.564
X118.15Y-123.0
X118.155Y-109.9
X118.226Y-99.48
X118.332Y-102.98
X118.35Y-143.1
X118.45Y-121.4
X118.45Y-122.35
X118.468Y-114.969
X118.494Y-119.597
X118.55Y-127.1
X118.55Y-134.0
X118.588Y-108.298
X118.6Y-131.75
X118.679Y-117.356
X118.75Y-111.45
X118.855Y-109.9
X119.0Y-130.8
X119.128Y-123.227
X119.15Y-133.25
X119.234Y-102.185
X119.264Y-134.044
X119.3Y-110.45
X119.35Y-136.25
X119.499Y-98.207
X119.55Y-132.3
X119.635Y-123.65
X119.635Y-126.65
X119.635Y-129.65
X119.658Y-101.761
X119.7Y-141.5
X119.955Y-109.9
X120.0Y-52.0
X120.0Y-55.0
X120.0Y-58.0
X120.0Y-61.0
X120.0Y-91.0
X120.0Y-122.7
X120.15Y-105.5
X120.27Y-114.969
X120.333Y-128.259
X120.507Y-100.912
X120.519Y-109.983
X120.55Y-119.35
X120.585Y-120.036
X120.672Y-121.355
X120.7Y-138.2
X120.772Y-96.935
X120.8Y-97.75
X120.931Y-100.488
X120.95Y-105.5
X121.0Y-128.3
X121.115Y-136.284
X121.129Y-110.158
X121.196Y-96.51
X121.35Y-121.4
X121.394Y-61.729
X121.4Y-122.65
X121.4Y-130.85
X121.55Y-107.75
X121.55Y-141.95
X121.55Y-143.7
X121.6Y-134.05
X121.609Y-116.662
X121.62Y-96.086
X121.62Y-104.147
X121.635Y-124.15
X121.635Y-127.15
X121.65Y-129.5
X121.693Y-132.812
X121.755Y-109.9
X121.8Y-105.5
X122.0Y-98.85
X122.045Y-95.662
X122.05Y-133.5
X122.073Y-114.969
X122.1Y-139.6
X122.145Y-120.75
X122.145Y-130.163
X122.257Y-103.511
X122.257Y-104.784
X122.35Y-116.75
X122.35Y-128.3
X122.355Y-109.9
X122.4Y-121.35
X122.45Y-119.9
X122.6Y-107.75
X122.6Y-129.35
X122.65Y-127.1
X122.65Y-150.4
X122.7Y-133.25
X122.8Y-94.95
X122.893Y-102.874
X122.893Y-104.147
X122.95Y-115.0
X122.95Y-118.7
X123.0Y-52.0
X123.0Y-55.0
X123.0Y-58.0
X123.0Y-64.0
X123.0Y-67.0
X123.0Y-70.0
X123.0Y-73.0
X123.0Y-76.0
X123.0Y-79.0
X123.0Y-82.0
X123.0Y-88.0
X123.12Y-115.781
X123.163Y-139.46
X123.257Y-138.501
X123.3Y-132.1
X123.3Y-132.9
X123.317Y-94.389
X123.4Y-119.95
X123.4Y-129.35
X123.5Y-116.95
X123.529Y-102.238
X123.529Y-103.511
X123.55Y-127.0
X123.555Y-109.9
X123.7Y-121.35
X123.7Y-122.4
X123.75Y-130.0
X123.75Y-133.55
X123.806Y-124.214
X123.85Y-93.9
X123.876Y-114.969
X123.965Y-138.761
X123.979Y-120.72
X124.0Y-140.25
X124.034Y-135.347
X124.05Y-141.5
X124.05Y-142.201
X124.155Y-109.9
X124.166Y-102.874
X124.2Y-150.25
X124.2Y-151.2
X124.255Y-119.973
X124.325Y-97.094
X124.59Y-93.116
X124.696Y-100.859
X124.749Y-96.669
X125.0Y-139.8
X125.25Y-117.3
X125.355Y-109.9
X125.45Y-102.5
X125.489Y-115.825
X125.55Y-116.7
X125.598Y-95.821
X125.65Y-118.25
X125.68Y-114.968
X125.863Y-91.843
X125.955Y-109.9
X125.969Y-99.586
X126.0Y-49.0
X126.0Y-52.0
X126.0Y-55.0
X126.0Y-64.0
X126.0Y-67.0
X126.0Y-70.0
X126.0Y-73.0
X126.0Y-76.0
X126.0Y-79.0
X126.0Y-85.0
X126.0Y-88.0
X126.0Y-103.0
X126.0Y-135.55
X126.022Y-95.397
X126.225Y-115.4
X126.555Y-109.9
X126.711Y-99.056
X126.8Y-145.0
X126.825Y-115.4
X126.871Y-94.548
X126.908Y-136.073
X127.136Y-90.571
X127.155Y-109.9
X127.216Y-117.188
X127.295Y-94.124
X127.348Y-98.42
X127.348Y-99.692
X127.4Y-140.25
X127.427Y-88.899
X127.485Y-114.968
X127.5Y-138.75
X127.55Y-123.5
X127.55Y-124.15
X127.561Y-115.825
X127.7Y-110.5
X127.7Y-111.3
X127.75Y-139.65
X127.866Y-89.87
X127.95Y-137.7
X127.984Y-97.783
X127.984Y-99.056
X128.0Y-118.5
X128.0Y-133.55
X128.0Y-135.35
X128.0Y-141.5
X128.05Y-130.45
X128.143Y-93.275
X128.2Y-122.5
X128.2Y-123.55
X128.3Y-115.9
X128.4Y-145.45
X128.409Y-89.298
X128.45Y-110.001
X128.568Y-92.851
X128.621Y-97.147
X128.621Y-98.42
X128.65Y-133.55
X128.95Y-96.05
X129.0Y-52.0
X129.0Y-55.0
X129.0Y-61.0
X129.0Y-64.0
X129.0Y-67.0
X129.0Y-70.0
X129.0Y-73.0
X129.0Y-76.0
X129.0Y-82.0
X129.0Y-85.0
X129.0Y-103.0
X129.1Y-109.95
X129.169Y-92.25
X129.257Y-97.783
X129.45Y-122.35
X129.681Y-88.025
X129.7Y-140.85
X129.8Y-133.25
X130.1Y-119.55
X130.25Y-85.05
X130.498Y-114.097
X130.642Y-120.569
X130.689Y-90.73
X130.695Y-119.934
X130.954Y-86.752
X131.1Y-130.45
X131.113Y-90.305
X131.17Y-109.9
X131.19Y-115.4
X131.3Y-123.6
X131.3Y-128.95
X131.4Y-122.55
X131.5Y-127.1
X131.6Y-134.05
X131.75Y-83.4
X131.75Y-84.25
X131.75Y-85.05
X131.962Y-89.457
X132.0Y-55.0
X132.0Y-61.0
X132.0Y-64.0
X132.0Y-67.0
X132.0Y-70.0
X132.0Y-73.0
X132.0Y-79.0
X132.0Y-82.0
X132.0Y-94.0
X132.0Y-97.0
X132.0Y-103.0
X132.04Y-115.4
X132.1Y-139.55
X132.1Y-140.5
X132.186Y-118.408
X132.2Y-127.1
X132.227Y-85.48
X132.386Y-89.033
X132.4Y-122.6
X132.4Y-124.0
X132.6Y-141.25
X132.635Y-128.95
X132.64Y-115.4
X132.97Y-109.9
X133.029Y-123.651
X133.05Y-117.3
X133.234Y-88.184
X133.24Y-114.97
X133.3Y-112.35
X133.35Y-141.25
X133.5Y-84.207
X133.556Y-134.748
X133.57Y-108.9
X133.57Y-109.9
X133.6Y-122.85
X133.659Y-87.76
X133.745Y-117.365
X133.745Y-146.625
X133.75Y-130.4
X134.05Y-121.35
X134.1Y-112.35
X134.1Y-127.1
X134.17Y-109.9
X134.61Y-108.59
X134.624Y-128.874
X134.65Y-115.5
X134.745Y-110.896
X134.75Y-116.95
X134.75Y-121.4
X134.77Y-109.9
X134.808Y-133.943
X134.866Y-133.379
X134.95Y-123.8
X135.0Y-46.0
X135.0Y-52.0
X135.0Y-55.0
X135.0Y-61.0
X135.0Y-64.0
X135.0Y-67.0
X135.0Y-70.0
X135.0Y-76.0
X135.0Y-79.0
X135.0Y-82.0
X135.0Y-91.0
X135.0Y-94.0
X135.0Y-97.0
X135.0Y-103.0
X135.13Y-114.966
X135.25Y-129.0
X135.4Y-116.5
X135.4Y-139.5
X135.5Y-134.9
X135.595Y-127.803
X135.686Y-113.075
X135.72Y-140.635
X135.75Y-118.1
X135.8Y-135.5
X135.892Y-126.891
X135.895Y-138.155
X135.9Y-129.0
X135.97Y-109.9
X136.0Y-95.1
X136.0Y-98.05
X136.05Y-115.85
X136.147Y-133.583
X136.15Y-131.45
X136.466Y-79.949
X136.498Y-140.754
X136.55Y-138.1
X136.55Y-139.45
X136.57Y-109.9
X136.6Y-143.35
X136.668Y-136.937
X136.668Y-153.324
X136.8Y-84.0
X136.8Y-89.4
X136.835Y-112.126
X136.942Y-114.965
X137.1Y-134.9
X137.135Y-131.95
X137.2Y-122.35
X137.34Y-117.0
X137.499Y-124.671
X137.6Y-80.15
X137.63Y-64.067
X137.75Y-121.45
X137.77Y-109.9
X137.85Y-122.35
X137.892Y-120.692
X137.965Y-131.615
X138.0Y-46.0
X138.0Y-49.0
X138.0Y-52.0
X138.0Y-55.0
X138.0Y-61.0
X138.052Y-141.773
X138.1Y-112.6
X138.118Y-77.78
X138.14Y-117.0
X138.37Y-109.9
X138.498Y-139.401
X138.55Y-91.1
X138.55Y-97.65
X138.564Y-121.182
X138.64Y-115.4
X138.7Y-112.6
X138.8Y-116.7
X139.096Y-131.6
X139.145Y-120.905
X139.191Y-118.017
X139.24Y-115.4
X139.65Y-118.6
X139.75Y-122.5
X139.84Y-115.4
X140.0Y-131.1
X140.0Y-131.85
X140.095Y-138.803
X140.17Y-109.9
X140.2Y-86.0
X140.25Y-109.2
X140.44Y-115.4
X140.478Y-123.013
X140.6Y-112.2
X141.0Y-46.0
X141.0Y-49.0
X141.0Y-52.0
X141.0Y-55.0
X141.0Y-64.0
X141.0Y-97.0
X141.0Y-138.55
X141.04Y-115.4
X141.05Y-86.0
X141.05Y-142.4
X141.05Y-143.65
X141.063Y-139.868
X141.112Y-120.8
X141.186Y-124.09
X141.246Y-125.35
X141.64Y-115.4
X141.72Y-128.075
X141.886Y-142.412
X141.887Y-134.127
X141.95Y-86.0
X141.95Y-138.55
X141.95Y-139.25
X141.97Y-109.9
X142.15Y-120.65
X142.24Y-115.4
X142.722Y-119.982
X142.78Y-133.145
X142.8Y-86.0
X142.84Y-115.4
X142.9Y-136.5
X143.05Y-134.55
X143.145Y-120.998
X143.145Y-123.997
X143.332Y-60.005
X143.44Y-115.4
X143.645Y-134.93
X143.75Y-127.05
X143.77Y-109.9
X143.799Y-127.834
X143.8Y-124.9
X143.85Y-60.75
X143.915Y-145.324
X144.0Y-43.0
X144.0Y-46.0
X144.0Y-49.0
X144.0Y-52.0
X144.0Y-55.0
X144.0Y-100.0
X144.04Y-115.4
X144.5Y-125.0
X144.5Y-127.05
X144.64Y-115.4
X144.719Y-139.868
X144.75Y-131.35
X144.815Y-63.439
X145.135Y-121.45
X145.145Y-127.43
X145.24Y-115.4
X145.556Y-117.802
X145.57Y-109.9
X145.65Y-59.85
X145.65Y-143.35
X145.805Y-139.676
X145.836Y-104.885
X145.84Y-115.4
X145.85Y-128.95
X146.168Y-135.172
X146.3Y-143.4
X146.35Y-137.7
X146.35Y-140.1
X146.44Y-115.4
X146.75Y-57.8
X147.0Y-43.0
X147.0Y-46.0
X147.0Y-49.0
X147.0Y-52.0
X147.0Y-55.0
X147.0Y-61.55
X147.0Y-73.0
X147.0Y-79.0
X147.0Y-82.0
X147.0Y-85.0
X147.0Y-88.0
X147.0Y-91.0
X147.0Y-94.0
X147.0Y-103.0
X147.04Y-115.4
X147.132Y-131.841
X147.135Y-126.95
X147.135Y-129.183
X147.171Y-118.455
X147.3Y-125.3
X147.37Y-109.9
X147.45Y-113.0
X147.592Y-117.801
X147.6Y-112.3
X147.64Y-115.4
X147.691Y-69.782
X147.7Y-136.7
X147.9Y-128.25
X148.05Y-132.8
X148.132Y-122.922
X148.328Y-69.145
X148.4Y-117.7
X148.5Y-131.85
X148.678Y-59.744
X148.8Y-119.75
X148.882Y-56.19
X148.95Y-116.15
X148.964Y-71.055
X149.07Y-150.428
X149.1Y-56.75
X149.1Y-135.3
X149.135Y-122.45
X149.135Y-125.45
X149.135Y-128.45
X149.167Y-124.785
X149.4Y-114.0
X149.55Y-116.9
X149.55Y-117.7
X149.6Y-70.418
X149.6Y-71.691
X149.73Y-131.329
X149.794Y-144.381
X149.796Y-127.05
X149.85Y-136.1
X149.947Y-137.682
X150.0Y-43.0
X150.0Y-46.0
X150.0Y-49.0
X150.0Y-52.0
X150.0Y-103.0
X150.0Y-106.0
X150.0Y-109.0
X150.237Y-71.055
X150.261Y-140.655
X150.269Y-139.51
X150.29Y-66.759
X150.4Y-54.905
X150.601Y-112.012
X150.714Y-67.183
X150.767Y-138.262
X150.849Y-113.601
X150.984Y-109.325
X151.002Y-118.776
X151.135Y-122.45
X151.135Y-124.692
X151.135Y-125.45
X151.135Y-128.45
X151.135Y-130.744
X151.168Y-142.466
X151.38Y-109.9
X151.45Y-113.0
X151.484Y-146.59
X151.563Y-68.032
X151.616Y-72.221
X151.65Y-115.4
X151.722Y-64.478
X151.98Y-109.9
X151.987Y-68.456
X152.05Y-112.4
X152.07Y-119.703
X152.25Y-144.95
X152.384Y-144.041
X152.4Y-137.7
X152.417Y-58.721
X152.45Y-128.65
X152.469Y-127.065
X152.58Y-108.4
X152.58Y-109.9
X152.6Y-130.6
X152.615Y-131.314
X152.7Y-134.5
X152.782Y-74.873
X152.888Y-73.494
X152.91Y-112.6
X152.995Y-65.751
X153.0Y-43.0
X153.0Y-46.0
X153.0Y-49.0
X153.0Y-61.0
X153.0Y-106.0
X153.0Y-109.0
X153.0Y-144.95
X153.12Y-124.785
X153.135Y-122.45
X153.135Y-125.45
X153.135Y-128.45
X153.18Y-109.9
X153.419Y-74.237
X153.419Y-75.509
X153.45Y-115.4
X153.6Y-112.55
X153.8Y-144.95
X154.05Y-115.4
X154.055Y-74.873
X154.055Y-76.146
X154.1Y-128.6
X154.267Y-67.024
X154.35Y-136.9
X154.444Y-57.783
X154.444Y-117.84
X154.65Y-115.4
X154.692Y-75.509
X154.692Y-76.782
X154.752Y-131.198
X154.98Y-109.9
X155.035Y-128.221
X155.067Y-46.63
X155.135Y-120.95
X155.135Y-125.45
X155.2Y-145.05
X155.25Y-115.4
X155.328Y-76.146
X155.328Y-77.419
X155.381Y-71.85
X155.54Y-68.297
X155.645Y-142.579
X155.745Y-141.792
X155.745Y-144.208
X155.8Y-129.8
X155.805Y-72.274
X155.85Y-115.4
X155.92Y-145.756
X155.964Y-68.721
X155.964Y-76.782
X155.964Y-78.055
X156.0Y-43.0
X156.0Y-46.0
X156.0Y-49.0
X156.0Y-55.0
X156.0Y-58.0
X156.0Y-61.0
X156.0Y-64.0
X156.067Y-136.385
X156.104Y-120.858
X156.389Y-69.145
X156.45Y-115.4
X156.601Y-77.419
X156.601Y-78.691
X156.654Y-73.123
X156.78Y-109.9
X156.813Y-69.57
X157.05Y-115.4
X157.078Y-73.547
X157.135Y-128.95
X157.237Y-78.055
X157.237Y-79.328
X157.425Y-123.715
X157.475Y-141.604
X157.65Y-115.4
X157.655Y-124.355
X157.655Y-126.488
X157.72Y-119.635
X157.874Y-78.691
X157.927Y-74.396
X158.086Y-70.842
X158.25Y-115.4
X158.351Y-74.82
X158.45Y-139.159
X158.58Y-109.9
X158.8Y-129.75
X158.85Y-115.4
X159.0Y-46.0
X159.0Y-49.0
X159.0Y-52.0
X159.0Y-55.0
X159.0Y-58.0
X159.0Y-61.0
X159.0Y-64.0
X159.0Y-67.0
X159.0Y-70.0
X159.0Y-82.0
X159.199Y-75.668
X159.244Y-141.589
X159.359Y-72.115
X159.45Y-115.4
X159.624Y-76.093
X159.65Y-137.9
X160.05Y-115.4
X160.205Y-144.942
X160.38Y-109.9
X160.395Y-122.655
X160.419Y-82.51
X160.438Y-142.943
X160.631Y-73.388
X160.65Y-115.4
X160.701Y-145.536
X161.056Y-81.873
X161.056Y-83.146
X161.25Y-115.4
X161.405Y-129.65
X161.45Y-138.4
X161.545Y-145.142
X161.645Y-131.968
X161.692Y-82.51
X161.692Y-83.782
X161.85Y-115.4
X161.904Y-74.661
X162.0Y-46.0
X162.0Y-49.0
X162.0Y-52.0
X162.0Y-55.0
X162.0Y-58.0
X162.0Y-61.0
X162.0Y-64.0
X162.0Y-67.0
X162.0Y-70.0
X162.0Y-73.0
X162.155Y-119.855
X162.18Y-109.9
X162.328Y-83.146
X162.328Y-84.419
X162.45Y-115.4
X162.861Y-145.674
X162.965Y-83.782
X163.018Y-79.487
X163.05Y-115.4
X163.177Y-75.934
X163.221Y-131.216
X163.371Y-131.828
X163.395Y-125.655
X163.442Y-79.911
X163.65Y-115.4
X163.98Y-109.9
X164.05Y-125.65
X164.125Y-143.594
X164.238Y-86.328
X164.25Y-115.4
X164.291Y-80.76
X164.45Y-77.206
X164.615Y-133.308
X164.715Y-81.184
X164.85Y-115.4
X164.874Y-85.692
X164.874Y-86.964
X164.917Y-142.633
X165.0Y-46.0
X165.0Y-49.0
X165.0Y-52.0
X165.0Y-55.0
X165.0Y-58.0
X165.0Y-61.0
X165.0Y-64.0
X165.0Y-67.0
X165.0Y-70.0
X165.0Y-73.0
X165.0Y-76.0
X165.28Y-135.645
X165.45Y-115.4
X165.51Y-86.328
X165.51Y-87.601
X165.553Y-117.508
X165.564Y-145.453
X165.722Y-78.479
X165.739Y-141.758
X165.78Y-109.9
X166.05Y-115.4
X166.147Y-86.964
X166.147Y-88.237
X166.595Y-140.803
X166.65Y-115.4
X166.783Y-87.601
X166.783Y-88.874
X166.836Y-83.305
X166.995Y-79.752
X167.107Y-120.723
X167.25Y-115.4
X167.26Y-83.729
X167.42Y-88.237
X167.42Y-89.51
X167.58Y-109.9
X167.773Y-120.803
X167.85Y-115.4
X168.0Y-55.0
X168.0Y-58.0
X168.0Y-61.0
X168.0Y-64.0
X168.0Y-67.0
X168.0Y-70.0
X168.0Y-73.0
X168.0Y-76.0
X168.0Y-79.0
X168.0Y-109.0
X168.056Y-88.874
X168.056Y-90.146
X168.109Y-84.578
X168.145Y-138.93
X168.205Y-145.792
X168.268Y-81.025
X168.533Y-85.002
X168.692Y-89.51
X168.692Y-90.783
X169.145Y-134.43
X169.329Y-90.146
X169.329Y-91.419
X169.382Y-85.851
X169.541Y-82.298
X169.636Y-131.774
X169.806Y-86.275
X169.965Y-90.783
X169.965Y-92.056
X169.997Y-117.484
X169.997Y-144.437
X170.602Y-91.419
X170.602Y-92.692
X170.655Y-87.124
X170.779Y-146.659
X170.814Y-83.57
X171.0Y-52.0
X171.0Y-55.0
X171.0Y-58.0
X171.0Y-61.0
X171.0Y-64.0
X171.0Y-67.0
X171.0Y-70.0
X171.0Y-73.0
X171.0Y-76.0
X171.0Y-79.0
X171.0Y-82.0
X171.0Y-109.0
X171.0Y-115.0
X171.079Y-87.548
X171.238Y-92.056
X171.238Y-93.328
X171.645Y-140.43
X171.874Y-92.692
X171.874Y-93.965
X171.927Y-88.396
X172.0Y-130.0
X172.086Y-84.843
X172.352Y-88.821
X172.49Y-109.9
X172.511Y-93.328
X172.511Y-94.601
X172.76Y-115.4
X173.147Y-93.965
X173.147Y-95.238
X173.2Y-89.669
X173.359Y-86.116
X173.36Y-115.4
X173.624Y-90.093
X173.73Y-150.428
X173.784Y-94.601
X173.784Y-95.874
X173.952Y-119.973
X173.96Y-115.4
X174.0Y-49.0
X174.0Y-52.0
X174.0Y-55.0
X174.0Y-58.0
X174.0Y-61.0
X174.0Y-64.0
X174.0Y-67.0
X174.0Y-70.0
X174.0Y-73.0
X174.0Y-76.0
X174.0Y-79.0
X174.0Y-82.0
X174.0Y-85.0
X174.135Y-149.328
X174.29Y-109.9
X174.42Y-95.238
X174.441Y-140.24
X174.473Y-90.942
X174.56Y-115.4
X174.632Y-87.389
X174.897Y-91.366
X175.16Y-115.4
X175.257Y-130.263
X175.27Y-127.551
X175.326Y-129.557
X175.746Y-92.215
X175.76Y-115.4
X175.905Y-88.662
X176.0Y-129.0
X176.09Y-109.9
X176.122Y-127.88
X176.17Y-92.639
X176.36Y-115.4
X176.522Y-133.188
X176.663Y-124.441
X176.96Y-115.4
X177.0Y-52.0
X177.0Y-55.0
X177.0Y-58.0
X177.0Y-61.0
X177.0Y-64.0
X177.0Y-67.0
X177.0Y-70.0
X177.0Y-73.0
X177.0Y-76.0
X177.0Y-79.0
X177.0Y-82.0
X177.0Y-85.0
X177.0Y-88.0
X177.0Y-94.0
X177.136Y-132.682
X177.178Y-89.934
X177.391Y-130.931
X177.484Y-120.85
X177.56Y-115.4
X177.89Y-109.9
X178.16Y-115.4
X178.308Y-126.991
X178.309Y-118.069
X178.45Y-91.207
X178.635Y-136.45
X178.76Y-115.4
X178.769Y-89.263
X178.8Y-122.9
X178.884Y-142.863
X179.091Y-128.783
X179.36Y-115.4
X179.69Y-109.9
X179.96Y-115.4
X180.0Y-52.0
X180.0Y-55.0
X180.0Y-58.0
X180.0Y-61.0
X180.0Y-64.0
X180.0Y-67.0
X180.0Y-70.0
X180.0Y-73.0
X180.0Y-76.0
X180.0Y-79.0
X180.0Y-82.0
X180.0Y-85.0
X180.0Y-88.0
X180.0Y-94.0
X180.0Y-97.0
X180.311Y-126.97
X180.336Y-132.488
X180.42Y-121.214
X180.56Y-115.4
X180.645Y-136.43
X180.815Y-119.74
X180.901Y-132.749
X181.089Y-124.904
X181.16Y-115.4
X181.49Y-109.9
X181.743Y-137.937
X181.76Y-115.4
X182.36Y-115.4
X182.5Y-141.5
X182.63Y-94.067
X182.96Y-115.4
X183.0Y-55.0
X183.0Y-58.0
X183.0Y-61.0
X183.0Y-64.0
X183.0Y-67.0
X183.0Y-70.0
X183.0Y-73.0
X183.0Y-76.0
X183.0Y-79.0
X183.0Y-82.0
X183.0Y-85.0
X183.0Y-88.0
X183.0Y-91.0
X183.0Y-97.0
X183.0Y-100.0
X183.073Y-126.885
X183.29Y-109.9
X183.56Y-115.4
X184.16Y-115.4
X184.76Y-115.4
X184.851Y-132.076
X185.09Y-109.9
X185.205Y-117.242
X185.36Y-115.4
X185.621Y-126.728
X185.96Y-115.4
X186.0Y-58.0
X186.0Y-61.0
X186.0Y-64.0
X186.0Y-67.0
X186.0Y-70.0
X186.0Y-73.0
X186.0Y-76.0
X186.0Y-79.0
X186.0Y-82.0
X186.0Y-85.0
X186.0Y-88.0
X186.0Y-91.0
X186.0Y-100.0
X186.0Y-103.0
X186.56Y-115.4
X186.571Y-117.443
X186.7Y-121.15
X186.72Y-121.835
X186.89Y-109.9
X187.16Y-115.4
X187.283Y-122.323
X187.76Y-115.4
X187.938Y-120.161
X188.36Y-115.4
X188.398Y-119.585
X188.595Y-140.803
X188.69Y-109.9
X188.952Y-117.354
X189.0Y-58.0
X189.0Y-61.0
X189.0Y-64.0
X189.0Y-67.0
X189.0Y-70.0
X189.0Y-73.0
X189.0Y-76.0
X189.0Y-79.0
X189.0Y-82.0
X189.0Y-85.0
X189.0Y-88.0
X189.2Y-97.95
X189.815Y-93.439
X189.863Y-136.256
X190.135Y-136.95
X190.214Y-118.415
X190.436Y-120.643
X190.686Y-117.586
X190.886Y-115.425
X190.998Y-139.145
X191.28Y-130.145
X191.377Y-106.573
X191.453Y-128.846
X191.517Y-134.005
X191.725Y-108.16
X192.0Y-61.0
X192.0Y-64.0
X192.0Y-67.0
X192.0Y-70.0
X192.0Y-73.0
X192.0Y-76.0
X192.0Y-79.0
X192.0Y-82.0
X192.0Y-85.0
X192.159Y-117.271
X192.428Y-108.651
X192.655Y-132.855
X192.851Y-121.872
X193.05Y-99.85
X193.115Y-123.678
X193.155Y-128.355
X193.166Y-130.409
X193.678Y-89.744
X194.275Y-89.4
X194.287Y-100.3
X194.337Y-108.46
X194.466Y-113.13
X194.717Y-122.323
X195.0Y-67.0
X195.0Y-70.0
X195.0Y-73.0
X195.0Y-76.0
X195.0Y-79.0
X195.0Y-82.0
X195.142Y-97.086
X195.395Y-126.655
X195.9Y-124.0
X195.967Y-125.108
X196.2Y-88.0
X196.5Y-84.05
X196.693Y-88.922
X196.796Y-107.4
X197.467Y-120.606
X198.0Y-70.0
X198.0Y-73.0
X198.0Y-76.0
X198.0Y-79.0
X198.0Y-97.0
X198.0Y-103.0
X198.0Y-106.0
X198.154Y-122.655
X198.2Y-83.8
X198.882Y-124.858
X199.256Y-105.035
X200.067Y-76.63
X200.3Y-82.45
X200.663Y-108.46
X200.757Y-107.501
X201.0Y-76.0
X201.0Y-79.0
X201.0Y-91.0
X201.0Y-94.0
X201.0Y-97.0
X201.0Y-103.0
X201.0Y-112.0
X201.0Y-115.0
X201.155Y-118.055
X203.044Y-106.951
X204.0Y-82.0
X204.0Y-91.0
X204.0Y-94.0
X204.0Y-97.0
X204.0Y-100.0
X204.0Y-103.0
X204.0Y-106.0
X204.0Y-109.0
X204.0Y-112.0
X204.0Y-115.0
X207.0Y-94.0
X207.0Y-97.0
X207.0Y-100.0
X207.0Y-103.0
X207.0Y-106.0
T3
X132.5Y-146.08
X132.5Y-149.08
X135.5Y-146.08
X135.5Y-149.08
X138.5Y-146.08
X138.5Y-149.08
X141.5Y-146.08
X141.5Y-149.08
T4
X107.8Y-110.7
X107.8Y-114.5
X192.2Y-110.7
X192.2Y-114.5
T5
X101.0Y-100.0
X199.0Y-100.0
T2
X116.918Y-103.475G85X117.554Y-104.112
G05
X118.721Y-105.279G85X119.358Y-105.915
G05
X146.404Y-73.989G85X147.041Y-74.625
G05
X147.196Y-66.246G85X146.56Y-66.883
G05
X148.208Y-75.792G85X148.844Y-76.429
G05
X148.999Y-64.443G85X148.363Y-65.08
G05
X176.683Y-95.733G85X176.046Y-96.369
G05
X178.486Y-93.929G85X177.849Y-94.566
G05
M30
