%TF.GenerationSoftware,KiCad,Pcbnew,9.0.2+dfsg-1*%
%TF.CreationDate,2026-10-09T03:43:30-04:00*%
%TF.ProjectId,backplane,6261636b-706c-4616-9e65-2e6b69636164,A1*%
%TF.SameCoordinates,Original*%
%TF.FileFunction,Drillmap*%
%TF.FilePolarity,Positive*%
%FSLAX45Y45*%
G04 Gerber Fmt 4.5, Leading zero omitted, Abs format (unit mm)*
G04 Created by KiCad (PCBNEW 9.0.2+dfsg-1) date 2026-10-09 03:43:30*
%MOMM*%
%LPD*%
G01*
G04 APERTURE LIST*
%ADD10C,0.100000*%
%ADD11C,0.200000*%
%ADD12C,0.102000*%
%ADD13C,0.110000*%
G04 APERTURE END LIST*
D10*
X21100000Y-10000000D02*
G75*
G02*
X8900000Y-10000000I-6100000J0D01*
G01*
X8900000Y-10000000D02*
G75*
G02*
X21100000Y-10000000I6100000J0D01*
G01*
D11*
D10*
X12830000Y-11960000D02*
X12930000Y-12060000D01*
X12930000Y-11960000D02*
X12830000Y-12060000D01*
X12830000Y-13940000D02*
X12930000Y-14040000D01*
X12930000Y-13940000D02*
X12830000Y-14040000D01*
D12*
X13001000Y-15002000D02*
G75*
G02*
X12899000Y-15002000I-51000J0D01*
G01*
X12899000Y-15002000D02*
G75*
G02*
X13001000Y-15002000I51000J0D01*
G01*
X14501000Y-15002000D02*
G75*
G02*
X14399000Y-15002000I-51000J0D01*
G01*
X14399000Y-15002000D02*
G75*
G02*
X14501000Y-15002000I51000J0D01*
G01*
D13*
X10853000Y-11205000D02*
X10853000Y-11315000D01*
X10798000Y-11260000D02*
X10908000Y-11260000D01*
X11635412Y-10161548D02*
X11635412Y-10271548D01*
X11580412Y-10216548D02*
X11690412Y-10216548D01*
X14509448Y-7287512D02*
X14509448Y-7397512D01*
X14454448Y-7342512D02*
X14564448Y-7342512D01*
X15030932Y-6332922D02*
X15030932Y-6442922D01*
X14975932Y-6387922D02*
X15085932Y-6387922D01*
X17904968Y-9206958D02*
X17904968Y-9316958D01*
X17849968Y-9261958D02*
X17959968Y-9261958D01*
X19147000Y-11205000D02*
X19147000Y-11315000D01*
X19092000Y-11260000D02*
X19202000Y-11260000D01*
D11*
X9155777Y-16416484D02*
X9155777Y-16216484D01*
X9155777Y-16216484D02*
X9203396Y-16216484D01*
X9203396Y-16216484D02*
X9231967Y-16226008D01*
X9231967Y-16226008D02*
X9251015Y-16245055D01*
X9251015Y-16245055D02*
X9260539Y-16264103D01*
X9260539Y-16264103D02*
X9270063Y-16302198D01*
X9270063Y-16302198D02*
X9270063Y-16330769D01*
X9270063Y-16330769D02*
X9260539Y-16368865D01*
X9260539Y-16368865D02*
X9251015Y-16387912D01*
X9251015Y-16387912D02*
X9231967Y-16406960D01*
X9231967Y-16406960D02*
X9203396Y-16416484D01*
X9203396Y-16416484D02*
X9155777Y-16416484D01*
X9355777Y-16416484D02*
X9355777Y-16283150D01*
X9355777Y-16321246D02*
X9365301Y-16302198D01*
X9365301Y-16302198D02*
X9374824Y-16292674D01*
X9374824Y-16292674D02*
X9393872Y-16283150D01*
X9393872Y-16283150D02*
X9412920Y-16283150D01*
X9479586Y-16416484D02*
X9479586Y-16283150D01*
X9479586Y-16216484D02*
X9470063Y-16226008D01*
X9470063Y-16226008D02*
X9479586Y-16235531D01*
X9479586Y-16235531D02*
X9489110Y-16226008D01*
X9489110Y-16226008D02*
X9479586Y-16216484D01*
X9479586Y-16216484D02*
X9479586Y-16235531D01*
X9603396Y-16416484D02*
X9584348Y-16406960D01*
X9584348Y-16406960D02*
X9574824Y-16387912D01*
X9574824Y-16387912D02*
X9574824Y-16216484D01*
X9708158Y-16416484D02*
X9689110Y-16406960D01*
X9689110Y-16406960D02*
X9679586Y-16387912D01*
X9679586Y-16387912D02*
X9679586Y-16216484D01*
X9936729Y-16416484D02*
X9936729Y-16216484D01*
X9936729Y-16216484D02*
X10003396Y-16359341D01*
X10003396Y-16359341D02*
X10070063Y-16216484D01*
X10070063Y-16216484D02*
X10070063Y-16416484D01*
X10251015Y-16416484D02*
X10251015Y-16311722D01*
X10251015Y-16311722D02*
X10241491Y-16292674D01*
X10241491Y-16292674D02*
X10222444Y-16283150D01*
X10222444Y-16283150D02*
X10184348Y-16283150D01*
X10184348Y-16283150D02*
X10165301Y-16292674D01*
X10251015Y-16406960D02*
X10231967Y-16416484D01*
X10231967Y-16416484D02*
X10184348Y-16416484D01*
X10184348Y-16416484D02*
X10165301Y-16406960D01*
X10165301Y-16406960D02*
X10155777Y-16387912D01*
X10155777Y-16387912D02*
X10155777Y-16368865D01*
X10155777Y-16368865D02*
X10165301Y-16349817D01*
X10165301Y-16349817D02*
X10184348Y-16340293D01*
X10184348Y-16340293D02*
X10231967Y-16340293D01*
X10231967Y-16340293D02*
X10251015Y-16330769D01*
X10346253Y-16283150D02*
X10346253Y-16483150D01*
X10346253Y-16292674D02*
X10365301Y-16283150D01*
X10365301Y-16283150D02*
X10403396Y-16283150D01*
X10403396Y-16283150D02*
X10422444Y-16292674D01*
X10422444Y-16292674D02*
X10431967Y-16302198D01*
X10431967Y-16302198D02*
X10441491Y-16321246D01*
X10441491Y-16321246D02*
X10441491Y-16378388D01*
X10441491Y-16378388D02*
X10431967Y-16397436D01*
X10431967Y-16397436D02*
X10422444Y-16406960D01*
X10422444Y-16406960D02*
X10403396Y-16416484D01*
X10403396Y-16416484D02*
X10365301Y-16416484D01*
X10365301Y-16416484D02*
X10346253Y-16406960D01*
X10527205Y-16397436D02*
X10536729Y-16406960D01*
X10536729Y-16406960D02*
X10527205Y-16416484D01*
X10527205Y-16416484D02*
X10517682Y-16406960D01*
X10517682Y-16406960D02*
X10527205Y-16397436D01*
X10527205Y-16397436D02*
X10527205Y-16416484D01*
X10527205Y-16292674D02*
X10536729Y-16302198D01*
X10536729Y-16302198D02*
X10527205Y-16311722D01*
X10527205Y-16311722D02*
X10517682Y-16302198D01*
X10517682Y-16302198D02*
X10527205Y-16292674D01*
X10527205Y-16292674D02*
X10527205Y-16311722D01*
D10*
X8795000Y-16695000D02*
X8895000Y-16795000D01*
X8895000Y-16695000D02*
X8795000Y-16795000D01*
D11*
X9260539Y-16836484D02*
X9146253Y-16836484D01*
X9203396Y-16836484D02*
X9203396Y-16636484D01*
X9203396Y-16636484D02*
X9184348Y-16665055D01*
X9184348Y-16665055D02*
X9165301Y-16684103D01*
X9165301Y-16684103D02*
X9146253Y-16693627D01*
X9346253Y-16817436D02*
X9355777Y-16826960D01*
X9355777Y-16826960D02*
X9346253Y-16836484D01*
X9346253Y-16836484D02*
X9336729Y-16826960D01*
X9336729Y-16826960D02*
X9346253Y-16817436D01*
X9346253Y-16817436D02*
X9346253Y-16836484D01*
X9479586Y-16636484D02*
X9498634Y-16636484D01*
X9498634Y-16636484D02*
X9517682Y-16646008D01*
X9517682Y-16646008D02*
X9527205Y-16655531D01*
X9527205Y-16655531D02*
X9536729Y-16674579D01*
X9536729Y-16674579D02*
X9546253Y-16712674D01*
X9546253Y-16712674D02*
X9546253Y-16760293D01*
X9546253Y-16760293D02*
X9536729Y-16798389D01*
X9536729Y-16798389D02*
X9527205Y-16817436D01*
X9527205Y-16817436D02*
X9517682Y-16826960D01*
X9517682Y-16826960D02*
X9498634Y-16836484D01*
X9498634Y-16836484D02*
X9479586Y-16836484D01*
X9479586Y-16836484D02*
X9460539Y-16826960D01*
X9460539Y-16826960D02*
X9451015Y-16817436D01*
X9451015Y-16817436D02*
X9441491Y-16798389D01*
X9441491Y-16798389D02*
X9431967Y-16760293D01*
X9431967Y-16760293D02*
X9431967Y-16712674D01*
X9431967Y-16712674D02*
X9441491Y-16674579D01*
X9441491Y-16674579D02*
X9451015Y-16655531D01*
X9451015Y-16655531D02*
X9460539Y-16646008D01*
X9460539Y-16646008D02*
X9479586Y-16636484D01*
X9670063Y-16636484D02*
X9689110Y-16636484D01*
X9689110Y-16636484D02*
X9708158Y-16646008D01*
X9708158Y-16646008D02*
X9717682Y-16655531D01*
X9717682Y-16655531D02*
X9727205Y-16674579D01*
X9727205Y-16674579D02*
X9736729Y-16712674D01*
X9736729Y-16712674D02*
X9736729Y-16760293D01*
X9736729Y-16760293D02*
X9727205Y-16798389D01*
X9727205Y-16798389D02*
X9717682Y-16817436D01*
X9717682Y-16817436D02*
X9708158Y-16826960D01*
X9708158Y-16826960D02*
X9689110Y-16836484D01*
X9689110Y-16836484D02*
X9670063Y-16836484D01*
X9670063Y-16836484D02*
X9651015Y-16826960D01*
X9651015Y-16826960D02*
X9641491Y-16817436D01*
X9641491Y-16817436D02*
X9631967Y-16798389D01*
X9631967Y-16798389D02*
X9622444Y-16760293D01*
X9622444Y-16760293D02*
X9622444Y-16712674D01*
X9622444Y-16712674D02*
X9631967Y-16674579D01*
X9631967Y-16674579D02*
X9641491Y-16655531D01*
X9641491Y-16655531D02*
X9651015Y-16646008D01*
X9651015Y-16646008D02*
X9670063Y-16636484D01*
X9860539Y-16636484D02*
X9879586Y-16636484D01*
X9879586Y-16636484D02*
X9898634Y-16646008D01*
X9898634Y-16646008D02*
X9908158Y-16655531D01*
X9908158Y-16655531D02*
X9917682Y-16674579D01*
X9917682Y-16674579D02*
X9927205Y-16712674D01*
X9927205Y-16712674D02*
X9927205Y-16760293D01*
X9927205Y-16760293D02*
X9917682Y-16798389D01*
X9917682Y-16798389D02*
X9908158Y-16817436D01*
X9908158Y-16817436D02*
X9898634Y-16826960D01*
X9898634Y-16826960D02*
X9879586Y-16836484D01*
X9879586Y-16836484D02*
X9860539Y-16836484D01*
X9860539Y-16836484D02*
X9841491Y-16826960D01*
X9841491Y-16826960D02*
X9831967Y-16817436D01*
X9831967Y-16817436D02*
X9822444Y-16798389D01*
X9822444Y-16798389D02*
X9812920Y-16760293D01*
X9812920Y-16760293D02*
X9812920Y-16712674D01*
X9812920Y-16712674D02*
X9822444Y-16674579D01*
X9822444Y-16674579D02*
X9831967Y-16655531D01*
X9831967Y-16655531D02*
X9841491Y-16646008D01*
X9841491Y-16646008D02*
X9860539Y-16636484D01*
X10012920Y-16836484D02*
X10012920Y-16703150D01*
X10012920Y-16722198D02*
X10022444Y-16712674D01*
X10022444Y-16712674D02*
X10041491Y-16703150D01*
X10041491Y-16703150D02*
X10070063Y-16703150D01*
X10070063Y-16703150D02*
X10089110Y-16712674D01*
X10089110Y-16712674D02*
X10098634Y-16731722D01*
X10098634Y-16731722D02*
X10098634Y-16836484D01*
X10098634Y-16731722D02*
X10108158Y-16712674D01*
X10108158Y-16712674D02*
X10127205Y-16703150D01*
X10127205Y-16703150D02*
X10155777Y-16703150D01*
X10155777Y-16703150D02*
X10174825Y-16712674D01*
X10174825Y-16712674D02*
X10184348Y-16731722D01*
X10184348Y-16731722D02*
X10184348Y-16836484D01*
X10279586Y-16836484D02*
X10279586Y-16703150D01*
X10279586Y-16722198D02*
X10289110Y-16712674D01*
X10289110Y-16712674D02*
X10308158Y-16703150D01*
X10308158Y-16703150D02*
X10336729Y-16703150D01*
X10336729Y-16703150D02*
X10355777Y-16712674D01*
X10355777Y-16712674D02*
X10365301Y-16731722D01*
X10365301Y-16731722D02*
X10365301Y-16836484D01*
X10365301Y-16731722D02*
X10374825Y-16712674D01*
X10374825Y-16712674D02*
X10393872Y-16703150D01*
X10393872Y-16703150D02*
X10422444Y-16703150D01*
X10422444Y-16703150D02*
X10441491Y-16712674D01*
X10441491Y-16712674D02*
X10451015Y-16731722D01*
X10451015Y-16731722D02*
X10451015Y-16836484D01*
X10841491Y-16626960D02*
X10670063Y-16884103D01*
X11098634Y-16636484D02*
X11117682Y-16636484D01*
X11117682Y-16636484D02*
X11136729Y-16646008D01*
X11136729Y-16646008D02*
X11146253Y-16655531D01*
X11146253Y-16655531D02*
X11155777Y-16674579D01*
X11155777Y-16674579D02*
X11165301Y-16712674D01*
X11165301Y-16712674D02*
X11165301Y-16760293D01*
X11165301Y-16760293D02*
X11155777Y-16798389D01*
X11155777Y-16798389D02*
X11146253Y-16817436D01*
X11146253Y-16817436D02*
X11136729Y-16826960D01*
X11136729Y-16826960D02*
X11117682Y-16836484D01*
X11117682Y-16836484D02*
X11098634Y-16836484D01*
X11098634Y-16836484D02*
X11079587Y-16826960D01*
X11079587Y-16826960D02*
X11070063Y-16817436D01*
X11070063Y-16817436D02*
X11060539Y-16798389D01*
X11060539Y-16798389D02*
X11051015Y-16760293D01*
X11051015Y-16760293D02*
X11051015Y-16712674D01*
X11051015Y-16712674D02*
X11060539Y-16674579D01*
X11060539Y-16674579D02*
X11070063Y-16655531D01*
X11070063Y-16655531D02*
X11079587Y-16646008D01*
X11079587Y-16646008D02*
X11098634Y-16636484D01*
X11251015Y-16817436D02*
X11260539Y-16826960D01*
X11260539Y-16826960D02*
X11251015Y-16836484D01*
X11251015Y-16836484D02*
X11241491Y-16826960D01*
X11241491Y-16826960D02*
X11251015Y-16817436D01*
X11251015Y-16817436D02*
X11251015Y-16836484D01*
X11384348Y-16636484D02*
X11403396Y-16636484D01*
X11403396Y-16636484D02*
X11422444Y-16646008D01*
X11422444Y-16646008D02*
X11431967Y-16655531D01*
X11431967Y-16655531D02*
X11441491Y-16674579D01*
X11441491Y-16674579D02*
X11451015Y-16712674D01*
X11451015Y-16712674D02*
X11451015Y-16760293D01*
X11451015Y-16760293D02*
X11441491Y-16798389D01*
X11441491Y-16798389D02*
X11431967Y-16817436D01*
X11431967Y-16817436D02*
X11422444Y-16826960D01*
X11422444Y-16826960D02*
X11403396Y-16836484D01*
X11403396Y-16836484D02*
X11384348Y-16836484D01*
X11384348Y-16836484D02*
X11365301Y-16826960D01*
X11365301Y-16826960D02*
X11355777Y-16817436D01*
X11355777Y-16817436D02*
X11346253Y-16798389D01*
X11346253Y-16798389D02*
X11336729Y-16760293D01*
X11336729Y-16760293D02*
X11336729Y-16712674D01*
X11336729Y-16712674D02*
X11346253Y-16674579D01*
X11346253Y-16674579D02*
X11355777Y-16655531D01*
X11355777Y-16655531D02*
X11365301Y-16646008D01*
X11365301Y-16646008D02*
X11384348Y-16636484D01*
X11517682Y-16636484D02*
X11641491Y-16636484D01*
X11641491Y-16636484D02*
X11574825Y-16712674D01*
X11574825Y-16712674D02*
X11603396Y-16712674D01*
X11603396Y-16712674D02*
X11622444Y-16722198D01*
X11622444Y-16722198D02*
X11631967Y-16731722D01*
X11631967Y-16731722D02*
X11641491Y-16750769D01*
X11641491Y-16750769D02*
X11641491Y-16798389D01*
X11641491Y-16798389D02*
X11631967Y-16817436D01*
X11631967Y-16817436D02*
X11622444Y-16826960D01*
X11622444Y-16826960D02*
X11603396Y-16836484D01*
X11603396Y-16836484D02*
X11546253Y-16836484D01*
X11546253Y-16836484D02*
X11527206Y-16826960D01*
X11527206Y-16826960D02*
X11517682Y-16817436D01*
X11736729Y-16836484D02*
X11774825Y-16836484D01*
X11774825Y-16836484D02*
X11793872Y-16826960D01*
X11793872Y-16826960D02*
X11803396Y-16817436D01*
X11803396Y-16817436D02*
X11822444Y-16788865D01*
X11822444Y-16788865D02*
X11831967Y-16750769D01*
X11831967Y-16750769D02*
X11831967Y-16674579D01*
X11831967Y-16674579D02*
X11822444Y-16655531D01*
X11822444Y-16655531D02*
X11812920Y-16646008D01*
X11812920Y-16646008D02*
X11793872Y-16636484D01*
X11793872Y-16636484D02*
X11755777Y-16636484D01*
X11755777Y-16636484D02*
X11736729Y-16646008D01*
X11736729Y-16646008D02*
X11727206Y-16655531D01*
X11727206Y-16655531D02*
X11717682Y-16674579D01*
X11717682Y-16674579D02*
X11717682Y-16722198D01*
X11717682Y-16722198D02*
X11727206Y-16741246D01*
X11727206Y-16741246D02*
X11736729Y-16750769D01*
X11736729Y-16750769D02*
X11755777Y-16760293D01*
X11755777Y-16760293D02*
X11793872Y-16760293D01*
X11793872Y-16760293D02*
X11812920Y-16750769D01*
X11812920Y-16750769D02*
X11822444Y-16741246D01*
X11822444Y-16741246D02*
X11831967Y-16722198D01*
X12003396Y-16703150D02*
X12003396Y-16836484D01*
X11955777Y-16626960D02*
X11908158Y-16769817D01*
X11908158Y-16769817D02*
X12031967Y-16769817D01*
X12098634Y-16636484D02*
X12098634Y-16674579D01*
X12174825Y-16636484D02*
X12174825Y-16674579D01*
X12470063Y-16912674D02*
X12460539Y-16903150D01*
X12460539Y-16903150D02*
X12441491Y-16874579D01*
X12441491Y-16874579D02*
X12431968Y-16855531D01*
X12431968Y-16855531D02*
X12422444Y-16826960D01*
X12422444Y-16826960D02*
X12412920Y-16779341D01*
X12412920Y-16779341D02*
X12412920Y-16741246D01*
X12412920Y-16741246D02*
X12422444Y-16693627D01*
X12422444Y-16693627D02*
X12431968Y-16665055D01*
X12431968Y-16665055D02*
X12441491Y-16646008D01*
X12441491Y-16646008D02*
X12460539Y-16617436D01*
X12460539Y-16617436D02*
X12470063Y-16607912D01*
X12536729Y-16655531D02*
X12546253Y-16646008D01*
X12546253Y-16646008D02*
X12565301Y-16636484D01*
X12565301Y-16636484D02*
X12612920Y-16636484D01*
X12612920Y-16636484D02*
X12631968Y-16646008D01*
X12631968Y-16646008D02*
X12641491Y-16655531D01*
X12641491Y-16655531D02*
X12651015Y-16674579D01*
X12651015Y-16674579D02*
X12651015Y-16693627D01*
X12651015Y-16693627D02*
X12641491Y-16722198D01*
X12641491Y-16722198D02*
X12527206Y-16836484D01*
X12527206Y-16836484D02*
X12651015Y-16836484D01*
X12889110Y-16836484D02*
X12889110Y-16636484D01*
X12974825Y-16836484D02*
X12974825Y-16731722D01*
X12974825Y-16731722D02*
X12965301Y-16712674D01*
X12965301Y-16712674D02*
X12946253Y-16703150D01*
X12946253Y-16703150D02*
X12917682Y-16703150D01*
X12917682Y-16703150D02*
X12898634Y-16712674D01*
X12898634Y-16712674D02*
X12889110Y-16722198D01*
X13098634Y-16836484D02*
X13079587Y-16826960D01*
X13079587Y-16826960D02*
X13070063Y-16817436D01*
X13070063Y-16817436D02*
X13060539Y-16798389D01*
X13060539Y-16798389D02*
X13060539Y-16741246D01*
X13060539Y-16741246D02*
X13070063Y-16722198D01*
X13070063Y-16722198D02*
X13079587Y-16712674D01*
X13079587Y-16712674D02*
X13098634Y-16703150D01*
X13098634Y-16703150D02*
X13127206Y-16703150D01*
X13127206Y-16703150D02*
X13146253Y-16712674D01*
X13146253Y-16712674D02*
X13155777Y-16722198D01*
X13155777Y-16722198D02*
X13165301Y-16741246D01*
X13165301Y-16741246D02*
X13165301Y-16798389D01*
X13165301Y-16798389D02*
X13155777Y-16817436D01*
X13155777Y-16817436D02*
X13146253Y-16826960D01*
X13146253Y-16826960D02*
X13127206Y-16836484D01*
X13127206Y-16836484D02*
X13098634Y-16836484D01*
X13279587Y-16836484D02*
X13260539Y-16826960D01*
X13260539Y-16826960D02*
X13251015Y-16807912D01*
X13251015Y-16807912D02*
X13251015Y-16636484D01*
X13431968Y-16826960D02*
X13412920Y-16836484D01*
X13412920Y-16836484D02*
X13374825Y-16836484D01*
X13374825Y-16836484D02*
X13355777Y-16826960D01*
X13355777Y-16826960D02*
X13346253Y-16807912D01*
X13346253Y-16807912D02*
X13346253Y-16731722D01*
X13346253Y-16731722D02*
X13355777Y-16712674D01*
X13355777Y-16712674D02*
X13374825Y-16703150D01*
X13374825Y-16703150D02*
X13412920Y-16703150D01*
X13412920Y-16703150D02*
X13431968Y-16712674D01*
X13431968Y-16712674D02*
X13441491Y-16731722D01*
X13441491Y-16731722D02*
X13441491Y-16750769D01*
X13441491Y-16750769D02*
X13346253Y-16769817D01*
X13517682Y-16826960D02*
X13536730Y-16836484D01*
X13536730Y-16836484D02*
X13574825Y-16836484D01*
X13574825Y-16836484D02*
X13593872Y-16826960D01*
X13593872Y-16826960D02*
X13603396Y-16807912D01*
X13603396Y-16807912D02*
X13603396Y-16798389D01*
X13603396Y-16798389D02*
X13593872Y-16779341D01*
X13593872Y-16779341D02*
X13574825Y-16769817D01*
X13574825Y-16769817D02*
X13546253Y-16769817D01*
X13546253Y-16769817D02*
X13527206Y-16760293D01*
X13527206Y-16760293D02*
X13517682Y-16741246D01*
X13517682Y-16741246D02*
X13517682Y-16731722D01*
X13517682Y-16731722D02*
X13527206Y-16712674D01*
X13527206Y-16712674D02*
X13546253Y-16703150D01*
X13546253Y-16703150D02*
X13574825Y-16703150D01*
X13574825Y-16703150D02*
X13593872Y-16712674D01*
X13670063Y-16912674D02*
X13679587Y-16903150D01*
X13679587Y-16903150D02*
X13698634Y-16874579D01*
X13698634Y-16874579D02*
X13708158Y-16855531D01*
X13708158Y-16855531D02*
X13717682Y-16826960D01*
X13717682Y-16826960D02*
X13727206Y-16779341D01*
X13727206Y-16779341D02*
X13727206Y-16741246D01*
X13727206Y-16741246D02*
X13717682Y-16693627D01*
X13717682Y-16693627D02*
X13708158Y-16665055D01*
X13708158Y-16665055D02*
X13698634Y-16646008D01*
X13698634Y-16646008D02*
X13679587Y-16617436D01*
X13679587Y-16617436D02*
X13670063Y-16607912D01*
X14031968Y-16912674D02*
X14022444Y-16903150D01*
X14022444Y-16903150D02*
X14003396Y-16874579D01*
X14003396Y-16874579D02*
X13993872Y-16855531D01*
X13993872Y-16855531D02*
X13984349Y-16826960D01*
X13984349Y-16826960D02*
X13974825Y-16779341D01*
X13974825Y-16779341D02*
X13974825Y-16741246D01*
X13974825Y-16741246D02*
X13984349Y-16693627D01*
X13984349Y-16693627D02*
X13993872Y-16665055D01*
X13993872Y-16665055D02*
X14003396Y-16646008D01*
X14003396Y-16646008D02*
X14022444Y-16617436D01*
X14022444Y-16617436D02*
X14031968Y-16607912D01*
X14108158Y-16703150D02*
X14108158Y-16836484D01*
X14108158Y-16722198D02*
X14117682Y-16712674D01*
X14117682Y-16712674D02*
X14136730Y-16703150D01*
X14136730Y-16703150D02*
X14165301Y-16703150D01*
X14165301Y-16703150D02*
X14184349Y-16712674D01*
X14184349Y-16712674D02*
X14193872Y-16731722D01*
X14193872Y-16731722D02*
X14193872Y-16836484D01*
X14317682Y-16836484D02*
X14298634Y-16826960D01*
X14298634Y-16826960D02*
X14289111Y-16817436D01*
X14289111Y-16817436D02*
X14279587Y-16798389D01*
X14279587Y-16798389D02*
X14279587Y-16741246D01*
X14279587Y-16741246D02*
X14289111Y-16722198D01*
X14289111Y-16722198D02*
X14298634Y-16712674D01*
X14298634Y-16712674D02*
X14317682Y-16703150D01*
X14317682Y-16703150D02*
X14346253Y-16703150D01*
X14346253Y-16703150D02*
X14365301Y-16712674D01*
X14365301Y-16712674D02*
X14374825Y-16722198D01*
X14374825Y-16722198D02*
X14384349Y-16741246D01*
X14384349Y-16741246D02*
X14384349Y-16798389D01*
X14384349Y-16798389D02*
X14374825Y-16817436D01*
X14374825Y-16817436D02*
X14365301Y-16826960D01*
X14365301Y-16826960D02*
X14346253Y-16836484D01*
X14346253Y-16836484D02*
X14317682Y-16836484D01*
X14441492Y-16703150D02*
X14517682Y-16703150D01*
X14470063Y-16636484D02*
X14470063Y-16807912D01*
X14470063Y-16807912D02*
X14479587Y-16826960D01*
X14479587Y-16826960D02*
X14498634Y-16836484D01*
X14498634Y-16836484D02*
X14517682Y-16836484D01*
X14736730Y-16703150D02*
X14736730Y-16903150D01*
X14736730Y-16712674D02*
X14755777Y-16703150D01*
X14755777Y-16703150D02*
X14793873Y-16703150D01*
X14793873Y-16703150D02*
X14812920Y-16712674D01*
X14812920Y-16712674D02*
X14822444Y-16722198D01*
X14822444Y-16722198D02*
X14831968Y-16741246D01*
X14831968Y-16741246D02*
X14831968Y-16798389D01*
X14831968Y-16798389D02*
X14822444Y-16817436D01*
X14822444Y-16817436D02*
X14812920Y-16826960D01*
X14812920Y-16826960D02*
X14793873Y-16836484D01*
X14793873Y-16836484D02*
X14755777Y-16836484D01*
X14755777Y-16836484D02*
X14736730Y-16826960D01*
X14946253Y-16836484D02*
X14927206Y-16826960D01*
X14927206Y-16826960D02*
X14917682Y-16807912D01*
X14917682Y-16807912D02*
X14917682Y-16636484D01*
X15108158Y-16836484D02*
X15108158Y-16731722D01*
X15108158Y-16731722D02*
X15098634Y-16712674D01*
X15098634Y-16712674D02*
X15079587Y-16703150D01*
X15079587Y-16703150D02*
X15041492Y-16703150D01*
X15041492Y-16703150D02*
X15022444Y-16712674D01*
X15108158Y-16826960D02*
X15089111Y-16836484D01*
X15089111Y-16836484D02*
X15041492Y-16836484D01*
X15041492Y-16836484D02*
X15022444Y-16826960D01*
X15022444Y-16826960D02*
X15012920Y-16807912D01*
X15012920Y-16807912D02*
X15012920Y-16788865D01*
X15012920Y-16788865D02*
X15022444Y-16769817D01*
X15022444Y-16769817D02*
X15041492Y-16760293D01*
X15041492Y-16760293D02*
X15089111Y-16760293D01*
X15089111Y-16760293D02*
X15108158Y-16750769D01*
X15174825Y-16703150D02*
X15251015Y-16703150D01*
X15203396Y-16636484D02*
X15203396Y-16807912D01*
X15203396Y-16807912D02*
X15212920Y-16826960D01*
X15212920Y-16826960D02*
X15231968Y-16836484D01*
X15231968Y-16836484D02*
X15251015Y-16836484D01*
X15393873Y-16826960D02*
X15374825Y-16836484D01*
X15374825Y-16836484D02*
X15336730Y-16836484D01*
X15336730Y-16836484D02*
X15317682Y-16826960D01*
X15317682Y-16826960D02*
X15308158Y-16807912D01*
X15308158Y-16807912D02*
X15308158Y-16731722D01*
X15308158Y-16731722D02*
X15317682Y-16712674D01*
X15317682Y-16712674D02*
X15336730Y-16703150D01*
X15336730Y-16703150D02*
X15374825Y-16703150D01*
X15374825Y-16703150D02*
X15393873Y-16712674D01*
X15393873Y-16712674D02*
X15403396Y-16731722D01*
X15403396Y-16731722D02*
X15403396Y-16750769D01*
X15403396Y-16750769D02*
X15308158Y-16769817D01*
X15574825Y-16836484D02*
X15574825Y-16636484D01*
X15574825Y-16826960D02*
X15555777Y-16836484D01*
X15555777Y-16836484D02*
X15517682Y-16836484D01*
X15517682Y-16836484D02*
X15498634Y-16826960D01*
X15498634Y-16826960D02*
X15489111Y-16817436D01*
X15489111Y-16817436D02*
X15479587Y-16798389D01*
X15479587Y-16798389D02*
X15479587Y-16741246D01*
X15479587Y-16741246D02*
X15489111Y-16722198D01*
X15489111Y-16722198D02*
X15498634Y-16712674D01*
X15498634Y-16712674D02*
X15517682Y-16703150D01*
X15517682Y-16703150D02*
X15555777Y-16703150D01*
X15555777Y-16703150D02*
X15574825Y-16712674D01*
X15651015Y-16912674D02*
X15660539Y-16903150D01*
X15660539Y-16903150D02*
X15679587Y-16874579D01*
X15679587Y-16874579D02*
X15689111Y-16855531D01*
X15689111Y-16855531D02*
X15698634Y-16826960D01*
X15698634Y-16826960D02*
X15708158Y-16779341D01*
X15708158Y-16779341D02*
X15708158Y-16741246D01*
X15708158Y-16741246D02*
X15698634Y-16693627D01*
X15698634Y-16693627D02*
X15689111Y-16665055D01*
X15689111Y-16665055D02*
X15679587Y-16646008D01*
X15679587Y-16646008D02*
X15660539Y-16617436D01*
X15660539Y-16617436D02*
X15651015Y-16607912D01*
D12*
X8895000Y-17009000D02*
G75*
G02*
X8793000Y-17009000I-51000J0D01*
G01*
X8793000Y-17009000D02*
G75*
G02*
X8895000Y-17009000I51000J0D01*
G01*
D11*
X9260539Y-17100484D02*
X9146253Y-17100484D01*
X9203396Y-17100484D02*
X9203396Y-16900484D01*
X9203396Y-16900484D02*
X9184348Y-16929055D01*
X9184348Y-16929055D02*
X9165301Y-16948103D01*
X9165301Y-16948103D02*
X9146253Y-16957627D01*
X9346253Y-17081436D02*
X9355777Y-17090960D01*
X9355777Y-17090960D02*
X9346253Y-17100484D01*
X9346253Y-17100484D02*
X9336729Y-17090960D01*
X9336729Y-17090960D02*
X9346253Y-17081436D01*
X9346253Y-17081436D02*
X9346253Y-17100484D01*
X9479586Y-16900484D02*
X9498634Y-16900484D01*
X9498634Y-16900484D02*
X9517682Y-16910008D01*
X9517682Y-16910008D02*
X9527205Y-16919531D01*
X9527205Y-16919531D02*
X9536729Y-16938579D01*
X9536729Y-16938579D02*
X9546253Y-16976674D01*
X9546253Y-16976674D02*
X9546253Y-17024293D01*
X9546253Y-17024293D02*
X9536729Y-17062389D01*
X9536729Y-17062389D02*
X9527205Y-17081436D01*
X9527205Y-17081436D02*
X9517682Y-17090960D01*
X9517682Y-17090960D02*
X9498634Y-17100484D01*
X9498634Y-17100484D02*
X9479586Y-17100484D01*
X9479586Y-17100484D02*
X9460539Y-17090960D01*
X9460539Y-17090960D02*
X9451015Y-17081436D01*
X9451015Y-17081436D02*
X9441491Y-17062389D01*
X9441491Y-17062389D02*
X9431967Y-17024293D01*
X9431967Y-17024293D02*
X9431967Y-16976674D01*
X9431967Y-16976674D02*
X9441491Y-16938579D01*
X9441491Y-16938579D02*
X9451015Y-16919531D01*
X9451015Y-16919531D02*
X9460539Y-16910008D01*
X9460539Y-16910008D02*
X9479586Y-16900484D01*
X9622444Y-16919531D02*
X9631967Y-16910008D01*
X9631967Y-16910008D02*
X9651015Y-16900484D01*
X9651015Y-16900484D02*
X9698634Y-16900484D01*
X9698634Y-16900484D02*
X9717682Y-16910008D01*
X9717682Y-16910008D02*
X9727205Y-16919531D01*
X9727205Y-16919531D02*
X9736729Y-16938579D01*
X9736729Y-16938579D02*
X9736729Y-16957627D01*
X9736729Y-16957627D02*
X9727205Y-16986198D01*
X9727205Y-16986198D02*
X9612920Y-17100484D01*
X9612920Y-17100484D02*
X9736729Y-17100484D01*
X9860539Y-16900484D02*
X9879586Y-16900484D01*
X9879586Y-16900484D02*
X9898634Y-16910008D01*
X9898634Y-16910008D02*
X9908158Y-16919531D01*
X9908158Y-16919531D02*
X9917682Y-16938579D01*
X9917682Y-16938579D02*
X9927205Y-16976674D01*
X9927205Y-16976674D02*
X9927205Y-17024293D01*
X9927205Y-17024293D02*
X9917682Y-17062389D01*
X9917682Y-17062389D02*
X9908158Y-17081436D01*
X9908158Y-17081436D02*
X9898634Y-17090960D01*
X9898634Y-17090960D02*
X9879586Y-17100484D01*
X9879586Y-17100484D02*
X9860539Y-17100484D01*
X9860539Y-17100484D02*
X9841491Y-17090960D01*
X9841491Y-17090960D02*
X9831967Y-17081436D01*
X9831967Y-17081436D02*
X9822444Y-17062389D01*
X9822444Y-17062389D02*
X9812920Y-17024293D01*
X9812920Y-17024293D02*
X9812920Y-16976674D01*
X9812920Y-16976674D02*
X9822444Y-16938579D01*
X9822444Y-16938579D02*
X9831967Y-16919531D01*
X9831967Y-16919531D02*
X9841491Y-16910008D01*
X9841491Y-16910008D02*
X9860539Y-16900484D01*
X10012920Y-17100484D02*
X10012920Y-16967150D01*
X10012920Y-16986198D02*
X10022444Y-16976674D01*
X10022444Y-16976674D02*
X10041491Y-16967150D01*
X10041491Y-16967150D02*
X10070063Y-16967150D01*
X10070063Y-16967150D02*
X10089110Y-16976674D01*
X10089110Y-16976674D02*
X10098634Y-16995722D01*
X10098634Y-16995722D02*
X10098634Y-17100484D01*
X10098634Y-16995722D02*
X10108158Y-16976674D01*
X10108158Y-16976674D02*
X10127205Y-16967150D01*
X10127205Y-16967150D02*
X10155777Y-16967150D01*
X10155777Y-16967150D02*
X10174825Y-16976674D01*
X10174825Y-16976674D02*
X10184348Y-16995722D01*
X10184348Y-16995722D02*
X10184348Y-17100484D01*
X10279586Y-17100484D02*
X10279586Y-16967150D01*
X10279586Y-16986198D02*
X10289110Y-16976674D01*
X10289110Y-16976674D02*
X10308158Y-16967150D01*
X10308158Y-16967150D02*
X10336729Y-16967150D01*
X10336729Y-16967150D02*
X10355777Y-16976674D01*
X10355777Y-16976674D02*
X10365301Y-16995722D01*
X10365301Y-16995722D02*
X10365301Y-17100484D01*
X10365301Y-16995722D02*
X10374825Y-16976674D01*
X10374825Y-16976674D02*
X10393872Y-16967150D01*
X10393872Y-16967150D02*
X10422444Y-16967150D01*
X10422444Y-16967150D02*
X10441491Y-16976674D01*
X10441491Y-16976674D02*
X10451015Y-16995722D01*
X10451015Y-16995722D02*
X10451015Y-17100484D01*
X10841491Y-16890960D02*
X10670063Y-17148103D01*
X11098634Y-16900484D02*
X11117682Y-16900484D01*
X11117682Y-16900484D02*
X11136729Y-16910008D01*
X11136729Y-16910008D02*
X11146253Y-16919531D01*
X11146253Y-16919531D02*
X11155777Y-16938579D01*
X11155777Y-16938579D02*
X11165301Y-16976674D01*
X11165301Y-16976674D02*
X11165301Y-17024293D01*
X11165301Y-17024293D02*
X11155777Y-17062389D01*
X11155777Y-17062389D02*
X11146253Y-17081436D01*
X11146253Y-17081436D02*
X11136729Y-17090960D01*
X11136729Y-17090960D02*
X11117682Y-17100484D01*
X11117682Y-17100484D02*
X11098634Y-17100484D01*
X11098634Y-17100484D02*
X11079587Y-17090960D01*
X11079587Y-17090960D02*
X11070063Y-17081436D01*
X11070063Y-17081436D02*
X11060539Y-17062389D01*
X11060539Y-17062389D02*
X11051015Y-17024293D01*
X11051015Y-17024293D02*
X11051015Y-16976674D01*
X11051015Y-16976674D02*
X11060539Y-16938579D01*
X11060539Y-16938579D02*
X11070063Y-16919531D01*
X11070063Y-16919531D02*
X11079587Y-16910008D01*
X11079587Y-16910008D02*
X11098634Y-16900484D01*
X11251015Y-17081436D02*
X11260539Y-17090960D01*
X11260539Y-17090960D02*
X11251015Y-17100484D01*
X11251015Y-17100484D02*
X11241491Y-17090960D01*
X11241491Y-17090960D02*
X11251015Y-17081436D01*
X11251015Y-17081436D02*
X11251015Y-17100484D01*
X11384348Y-16900484D02*
X11403396Y-16900484D01*
X11403396Y-16900484D02*
X11422444Y-16910008D01*
X11422444Y-16910008D02*
X11431967Y-16919531D01*
X11431967Y-16919531D02*
X11441491Y-16938579D01*
X11441491Y-16938579D02*
X11451015Y-16976674D01*
X11451015Y-16976674D02*
X11451015Y-17024293D01*
X11451015Y-17024293D02*
X11441491Y-17062389D01*
X11441491Y-17062389D02*
X11431967Y-17081436D01*
X11431967Y-17081436D02*
X11422444Y-17090960D01*
X11422444Y-17090960D02*
X11403396Y-17100484D01*
X11403396Y-17100484D02*
X11384348Y-17100484D01*
X11384348Y-17100484D02*
X11365301Y-17090960D01*
X11365301Y-17090960D02*
X11355777Y-17081436D01*
X11355777Y-17081436D02*
X11346253Y-17062389D01*
X11346253Y-17062389D02*
X11336729Y-17024293D01*
X11336729Y-17024293D02*
X11336729Y-16976674D01*
X11336729Y-16976674D02*
X11346253Y-16938579D01*
X11346253Y-16938579D02*
X11355777Y-16919531D01*
X11355777Y-16919531D02*
X11365301Y-16910008D01*
X11365301Y-16910008D02*
X11384348Y-16900484D01*
X11622444Y-16967150D02*
X11622444Y-17100484D01*
X11574825Y-16890960D02*
X11527206Y-17033817D01*
X11527206Y-17033817D02*
X11651015Y-17033817D01*
X11765301Y-16900484D02*
X11784348Y-16900484D01*
X11784348Y-16900484D02*
X11803396Y-16910008D01*
X11803396Y-16910008D02*
X11812920Y-16919531D01*
X11812920Y-16919531D02*
X11822444Y-16938579D01*
X11822444Y-16938579D02*
X11831967Y-16976674D01*
X11831967Y-16976674D02*
X11831967Y-17024293D01*
X11831967Y-17024293D02*
X11822444Y-17062389D01*
X11822444Y-17062389D02*
X11812920Y-17081436D01*
X11812920Y-17081436D02*
X11803396Y-17090960D01*
X11803396Y-17090960D02*
X11784348Y-17100484D01*
X11784348Y-17100484D02*
X11765301Y-17100484D01*
X11765301Y-17100484D02*
X11746253Y-17090960D01*
X11746253Y-17090960D02*
X11736729Y-17081436D01*
X11736729Y-17081436D02*
X11727206Y-17062389D01*
X11727206Y-17062389D02*
X11717682Y-17024293D01*
X11717682Y-17024293D02*
X11717682Y-16976674D01*
X11717682Y-16976674D02*
X11727206Y-16938579D01*
X11727206Y-16938579D02*
X11736729Y-16919531D01*
X11736729Y-16919531D02*
X11746253Y-16910008D01*
X11746253Y-16910008D02*
X11765301Y-16900484D01*
X11908158Y-16919531D02*
X11917682Y-16910008D01*
X11917682Y-16910008D02*
X11936729Y-16900484D01*
X11936729Y-16900484D02*
X11984348Y-16900484D01*
X11984348Y-16900484D02*
X12003396Y-16910008D01*
X12003396Y-16910008D02*
X12012920Y-16919531D01*
X12012920Y-16919531D02*
X12022444Y-16938579D01*
X12022444Y-16938579D02*
X12022444Y-16957627D01*
X12022444Y-16957627D02*
X12012920Y-16986198D01*
X12012920Y-16986198D02*
X11898634Y-17100484D01*
X11898634Y-17100484D02*
X12022444Y-17100484D01*
X12098634Y-16900484D02*
X12098634Y-16938579D01*
X12174825Y-16900484D02*
X12174825Y-16938579D01*
X12470063Y-17176674D02*
X12460539Y-17167150D01*
X12460539Y-17167150D02*
X12441491Y-17138579D01*
X12441491Y-17138579D02*
X12431968Y-17119531D01*
X12431968Y-17119531D02*
X12422444Y-17090960D01*
X12422444Y-17090960D02*
X12412920Y-17043341D01*
X12412920Y-17043341D02*
X12412920Y-17005246D01*
X12412920Y-17005246D02*
X12422444Y-16957627D01*
X12422444Y-16957627D02*
X12431968Y-16929055D01*
X12431968Y-16929055D02*
X12441491Y-16910008D01*
X12441491Y-16910008D02*
X12460539Y-16881436D01*
X12460539Y-16881436D02*
X12470063Y-16871912D01*
X12536729Y-16919531D02*
X12546253Y-16910008D01*
X12546253Y-16910008D02*
X12565301Y-16900484D01*
X12565301Y-16900484D02*
X12612920Y-16900484D01*
X12612920Y-16900484D02*
X12631968Y-16910008D01*
X12631968Y-16910008D02*
X12641491Y-16919531D01*
X12641491Y-16919531D02*
X12651015Y-16938579D01*
X12651015Y-16938579D02*
X12651015Y-16957627D01*
X12651015Y-16957627D02*
X12641491Y-16986198D01*
X12641491Y-16986198D02*
X12527206Y-17100484D01*
X12527206Y-17100484D02*
X12651015Y-17100484D01*
X12889110Y-17100484D02*
X12889110Y-16900484D01*
X12974825Y-17100484D02*
X12974825Y-16995722D01*
X12974825Y-16995722D02*
X12965301Y-16976674D01*
X12965301Y-16976674D02*
X12946253Y-16967150D01*
X12946253Y-16967150D02*
X12917682Y-16967150D01*
X12917682Y-16967150D02*
X12898634Y-16976674D01*
X12898634Y-16976674D02*
X12889110Y-16986198D01*
X13098634Y-17100484D02*
X13079587Y-17090960D01*
X13079587Y-17090960D02*
X13070063Y-17081436D01*
X13070063Y-17081436D02*
X13060539Y-17062389D01*
X13060539Y-17062389D02*
X13060539Y-17005246D01*
X13060539Y-17005246D02*
X13070063Y-16986198D01*
X13070063Y-16986198D02*
X13079587Y-16976674D01*
X13079587Y-16976674D02*
X13098634Y-16967150D01*
X13098634Y-16967150D02*
X13127206Y-16967150D01*
X13127206Y-16967150D02*
X13146253Y-16976674D01*
X13146253Y-16976674D02*
X13155777Y-16986198D01*
X13155777Y-16986198D02*
X13165301Y-17005246D01*
X13165301Y-17005246D02*
X13165301Y-17062389D01*
X13165301Y-17062389D02*
X13155777Y-17081436D01*
X13155777Y-17081436D02*
X13146253Y-17090960D01*
X13146253Y-17090960D02*
X13127206Y-17100484D01*
X13127206Y-17100484D02*
X13098634Y-17100484D01*
X13279587Y-17100484D02*
X13260539Y-17090960D01*
X13260539Y-17090960D02*
X13251015Y-17071912D01*
X13251015Y-17071912D02*
X13251015Y-16900484D01*
X13431968Y-17090960D02*
X13412920Y-17100484D01*
X13412920Y-17100484D02*
X13374825Y-17100484D01*
X13374825Y-17100484D02*
X13355777Y-17090960D01*
X13355777Y-17090960D02*
X13346253Y-17071912D01*
X13346253Y-17071912D02*
X13346253Y-16995722D01*
X13346253Y-16995722D02*
X13355777Y-16976674D01*
X13355777Y-16976674D02*
X13374825Y-16967150D01*
X13374825Y-16967150D02*
X13412920Y-16967150D01*
X13412920Y-16967150D02*
X13431968Y-16976674D01*
X13431968Y-16976674D02*
X13441491Y-16995722D01*
X13441491Y-16995722D02*
X13441491Y-17014770D01*
X13441491Y-17014770D02*
X13346253Y-17033817D01*
X13517682Y-17090960D02*
X13536730Y-17100484D01*
X13536730Y-17100484D02*
X13574825Y-17100484D01*
X13574825Y-17100484D02*
X13593872Y-17090960D01*
X13593872Y-17090960D02*
X13603396Y-17071912D01*
X13603396Y-17071912D02*
X13603396Y-17062389D01*
X13603396Y-17062389D02*
X13593872Y-17043341D01*
X13593872Y-17043341D02*
X13574825Y-17033817D01*
X13574825Y-17033817D02*
X13546253Y-17033817D01*
X13546253Y-17033817D02*
X13527206Y-17024293D01*
X13527206Y-17024293D02*
X13517682Y-17005246D01*
X13517682Y-17005246D02*
X13517682Y-16995722D01*
X13517682Y-16995722D02*
X13527206Y-16976674D01*
X13527206Y-16976674D02*
X13546253Y-16967150D01*
X13546253Y-16967150D02*
X13574825Y-16967150D01*
X13574825Y-16967150D02*
X13593872Y-16976674D01*
X13670063Y-17176674D02*
X13679587Y-17167150D01*
X13679587Y-17167150D02*
X13698634Y-17138579D01*
X13698634Y-17138579D02*
X13708158Y-17119531D01*
X13708158Y-17119531D02*
X13717682Y-17090960D01*
X13717682Y-17090960D02*
X13727206Y-17043341D01*
X13727206Y-17043341D02*
X13727206Y-17005246D01*
X13727206Y-17005246D02*
X13717682Y-16957627D01*
X13717682Y-16957627D02*
X13708158Y-16929055D01*
X13708158Y-16929055D02*
X13698634Y-16910008D01*
X13698634Y-16910008D02*
X13679587Y-16881436D01*
X13679587Y-16881436D02*
X13670063Y-16871912D01*
X14031968Y-17176674D02*
X14022444Y-17167150D01*
X14022444Y-17167150D02*
X14003396Y-17138579D01*
X14003396Y-17138579D02*
X13993872Y-17119531D01*
X13993872Y-17119531D02*
X13984349Y-17090960D01*
X13984349Y-17090960D02*
X13974825Y-17043341D01*
X13974825Y-17043341D02*
X13974825Y-17005246D01*
X13974825Y-17005246D02*
X13984349Y-16957627D01*
X13984349Y-16957627D02*
X13993872Y-16929055D01*
X13993872Y-16929055D02*
X14003396Y-16910008D01*
X14003396Y-16910008D02*
X14022444Y-16881436D01*
X14022444Y-16881436D02*
X14031968Y-16871912D01*
X14108158Y-16967150D02*
X14108158Y-17100484D01*
X14108158Y-16986198D02*
X14117682Y-16976674D01*
X14117682Y-16976674D02*
X14136730Y-16967150D01*
X14136730Y-16967150D02*
X14165301Y-16967150D01*
X14165301Y-16967150D02*
X14184349Y-16976674D01*
X14184349Y-16976674D02*
X14193872Y-16995722D01*
X14193872Y-16995722D02*
X14193872Y-17100484D01*
X14317682Y-17100484D02*
X14298634Y-17090960D01*
X14298634Y-17090960D02*
X14289111Y-17081436D01*
X14289111Y-17081436D02*
X14279587Y-17062389D01*
X14279587Y-17062389D02*
X14279587Y-17005246D01*
X14279587Y-17005246D02*
X14289111Y-16986198D01*
X14289111Y-16986198D02*
X14298634Y-16976674D01*
X14298634Y-16976674D02*
X14317682Y-16967150D01*
X14317682Y-16967150D02*
X14346253Y-16967150D01*
X14346253Y-16967150D02*
X14365301Y-16976674D01*
X14365301Y-16976674D02*
X14374825Y-16986198D01*
X14374825Y-16986198D02*
X14384349Y-17005246D01*
X14384349Y-17005246D02*
X14384349Y-17062389D01*
X14384349Y-17062389D02*
X14374825Y-17081436D01*
X14374825Y-17081436D02*
X14365301Y-17090960D01*
X14365301Y-17090960D02*
X14346253Y-17100484D01*
X14346253Y-17100484D02*
X14317682Y-17100484D01*
X14441492Y-16967150D02*
X14517682Y-16967150D01*
X14470063Y-16900484D02*
X14470063Y-17071912D01*
X14470063Y-17071912D02*
X14479587Y-17090960D01*
X14479587Y-17090960D02*
X14498634Y-17100484D01*
X14498634Y-17100484D02*
X14517682Y-17100484D01*
X14736730Y-16967150D02*
X14736730Y-17167150D01*
X14736730Y-16976674D02*
X14755777Y-16967150D01*
X14755777Y-16967150D02*
X14793873Y-16967150D01*
X14793873Y-16967150D02*
X14812920Y-16976674D01*
X14812920Y-16976674D02*
X14822444Y-16986198D01*
X14822444Y-16986198D02*
X14831968Y-17005246D01*
X14831968Y-17005246D02*
X14831968Y-17062389D01*
X14831968Y-17062389D02*
X14822444Y-17081436D01*
X14822444Y-17081436D02*
X14812920Y-17090960D01*
X14812920Y-17090960D02*
X14793873Y-17100484D01*
X14793873Y-17100484D02*
X14755777Y-17100484D01*
X14755777Y-17100484D02*
X14736730Y-17090960D01*
X14946253Y-17100484D02*
X14927206Y-17090960D01*
X14927206Y-17090960D02*
X14917682Y-17071912D01*
X14917682Y-17071912D02*
X14917682Y-16900484D01*
X15108158Y-17100484D02*
X15108158Y-16995722D01*
X15108158Y-16995722D02*
X15098634Y-16976674D01*
X15098634Y-16976674D02*
X15079587Y-16967150D01*
X15079587Y-16967150D02*
X15041492Y-16967150D01*
X15041492Y-16967150D02*
X15022444Y-16976674D01*
X15108158Y-17090960D02*
X15089111Y-17100484D01*
X15089111Y-17100484D02*
X15041492Y-17100484D01*
X15041492Y-17100484D02*
X15022444Y-17090960D01*
X15022444Y-17090960D02*
X15012920Y-17071912D01*
X15012920Y-17071912D02*
X15012920Y-17052865D01*
X15012920Y-17052865D02*
X15022444Y-17033817D01*
X15022444Y-17033817D02*
X15041492Y-17024293D01*
X15041492Y-17024293D02*
X15089111Y-17024293D01*
X15089111Y-17024293D02*
X15108158Y-17014770D01*
X15174825Y-16967150D02*
X15251015Y-16967150D01*
X15203396Y-16900484D02*
X15203396Y-17071912D01*
X15203396Y-17071912D02*
X15212920Y-17090960D01*
X15212920Y-17090960D02*
X15231968Y-17100484D01*
X15231968Y-17100484D02*
X15251015Y-17100484D01*
X15393873Y-17090960D02*
X15374825Y-17100484D01*
X15374825Y-17100484D02*
X15336730Y-17100484D01*
X15336730Y-17100484D02*
X15317682Y-17090960D01*
X15317682Y-17090960D02*
X15308158Y-17071912D01*
X15308158Y-17071912D02*
X15308158Y-16995722D01*
X15308158Y-16995722D02*
X15317682Y-16976674D01*
X15317682Y-16976674D02*
X15336730Y-16967150D01*
X15336730Y-16967150D02*
X15374825Y-16967150D01*
X15374825Y-16967150D02*
X15393873Y-16976674D01*
X15393873Y-16976674D02*
X15403396Y-16995722D01*
X15403396Y-16995722D02*
X15403396Y-17014770D01*
X15403396Y-17014770D02*
X15308158Y-17033817D01*
X15574825Y-17100484D02*
X15574825Y-16900484D01*
X15574825Y-17090960D02*
X15555777Y-17100484D01*
X15555777Y-17100484D02*
X15517682Y-17100484D01*
X15517682Y-17100484D02*
X15498634Y-17090960D01*
X15498634Y-17090960D02*
X15489111Y-17081436D01*
X15489111Y-17081436D02*
X15479587Y-17062389D01*
X15479587Y-17062389D02*
X15479587Y-17005246D01*
X15479587Y-17005246D02*
X15489111Y-16986198D01*
X15489111Y-16986198D02*
X15498634Y-16976674D01*
X15498634Y-16976674D02*
X15517682Y-16967150D01*
X15517682Y-16967150D02*
X15555777Y-16967150D01*
X15555777Y-16967150D02*
X15574825Y-16976674D01*
X15651015Y-17176674D02*
X15660539Y-17167150D01*
X15660539Y-17167150D02*
X15679587Y-17138579D01*
X15679587Y-17138579D02*
X15689111Y-17119531D01*
X15689111Y-17119531D02*
X15698634Y-17090960D01*
X15698634Y-17090960D02*
X15708158Y-17043341D01*
X15708158Y-17043341D02*
X15708158Y-17005246D01*
X15708158Y-17005246D02*
X15698634Y-16957627D01*
X15698634Y-16957627D02*
X15689111Y-16929055D01*
X15689111Y-16929055D02*
X15679587Y-16910008D01*
X15679587Y-16910008D02*
X15660539Y-16881436D01*
X15660539Y-16881436D02*
X15651015Y-16871912D01*
D13*
X8840000Y-17218000D02*
X8840000Y-17328000D01*
X8785000Y-17273000D02*
X8895000Y-17273000D01*
D11*
X9260539Y-17364484D02*
X9146253Y-17364484D01*
X9203396Y-17364484D02*
X9203396Y-17164484D01*
X9203396Y-17164484D02*
X9184348Y-17193055D01*
X9184348Y-17193055D02*
X9165301Y-17212103D01*
X9165301Y-17212103D02*
X9146253Y-17221627D01*
X9346253Y-17345436D02*
X9355777Y-17354960D01*
X9355777Y-17354960D02*
X9346253Y-17364484D01*
X9346253Y-17364484D02*
X9336729Y-17354960D01*
X9336729Y-17354960D02*
X9346253Y-17345436D01*
X9346253Y-17345436D02*
X9346253Y-17364484D01*
X9546253Y-17364484D02*
X9431967Y-17364484D01*
X9489110Y-17364484D02*
X9489110Y-17164484D01*
X9489110Y-17164484D02*
X9470063Y-17193055D01*
X9470063Y-17193055D02*
X9451015Y-17212103D01*
X9451015Y-17212103D02*
X9431967Y-17221627D01*
X9670063Y-17164484D02*
X9689110Y-17164484D01*
X9689110Y-17164484D02*
X9708158Y-17174008D01*
X9708158Y-17174008D02*
X9717682Y-17183531D01*
X9717682Y-17183531D02*
X9727205Y-17202579D01*
X9727205Y-17202579D02*
X9736729Y-17240674D01*
X9736729Y-17240674D02*
X9736729Y-17288293D01*
X9736729Y-17288293D02*
X9727205Y-17326389D01*
X9727205Y-17326389D02*
X9717682Y-17345436D01*
X9717682Y-17345436D02*
X9708158Y-17354960D01*
X9708158Y-17354960D02*
X9689110Y-17364484D01*
X9689110Y-17364484D02*
X9670063Y-17364484D01*
X9670063Y-17364484D02*
X9651015Y-17354960D01*
X9651015Y-17354960D02*
X9641491Y-17345436D01*
X9641491Y-17345436D02*
X9631967Y-17326389D01*
X9631967Y-17326389D02*
X9622444Y-17288293D01*
X9622444Y-17288293D02*
X9622444Y-17240674D01*
X9622444Y-17240674D02*
X9631967Y-17202579D01*
X9631967Y-17202579D02*
X9641491Y-17183531D01*
X9641491Y-17183531D02*
X9651015Y-17174008D01*
X9651015Y-17174008D02*
X9670063Y-17164484D01*
X9860539Y-17164484D02*
X9879586Y-17164484D01*
X9879586Y-17164484D02*
X9898634Y-17174008D01*
X9898634Y-17174008D02*
X9908158Y-17183531D01*
X9908158Y-17183531D02*
X9917682Y-17202579D01*
X9917682Y-17202579D02*
X9927205Y-17240674D01*
X9927205Y-17240674D02*
X9927205Y-17288293D01*
X9927205Y-17288293D02*
X9917682Y-17326389D01*
X9917682Y-17326389D02*
X9908158Y-17345436D01*
X9908158Y-17345436D02*
X9898634Y-17354960D01*
X9898634Y-17354960D02*
X9879586Y-17364484D01*
X9879586Y-17364484D02*
X9860539Y-17364484D01*
X9860539Y-17364484D02*
X9841491Y-17354960D01*
X9841491Y-17354960D02*
X9831967Y-17345436D01*
X9831967Y-17345436D02*
X9822444Y-17326389D01*
X9822444Y-17326389D02*
X9812920Y-17288293D01*
X9812920Y-17288293D02*
X9812920Y-17240674D01*
X9812920Y-17240674D02*
X9822444Y-17202579D01*
X9822444Y-17202579D02*
X9831967Y-17183531D01*
X9831967Y-17183531D02*
X9841491Y-17174008D01*
X9841491Y-17174008D02*
X9860539Y-17164484D01*
X10012920Y-17364484D02*
X10012920Y-17231150D01*
X10012920Y-17250198D02*
X10022444Y-17240674D01*
X10022444Y-17240674D02*
X10041491Y-17231150D01*
X10041491Y-17231150D02*
X10070063Y-17231150D01*
X10070063Y-17231150D02*
X10089110Y-17240674D01*
X10089110Y-17240674D02*
X10098634Y-17259722D01*
X10098634Y-17259722D02*
X10098634Y-17364484D01*
X10098634Y-17259722D02*
X10108158Y-17240674D01*
X10108158Y-17240674D02*
X10127205Y-17231150D01*
X10127205Y-17231150D02*
X10155777Y-17231150D01*
X10155777Y-17231150D02*
X10174825Y-17240674D01*
X10174825Y-17240674D02*
X10184348Y-17259722D01*
X10184348Y-17259722D02*
X10184348Y-17364484D01*
X10279586Y-17364484D02*
X10279586Y-17231150D01*
X10279586Y-17250198D02*
X10289110Y-17240674D01*
X10289110Y-17240674D02*
X10308158Y-17231150D01*
X10308158Y-17231150D02*
X10336729Y-17231150D01*
X10336729Y-17231150D02*
X10355777Y-17240674D01*
X10355777Y-17240674D02*
X10365301Y-17259722D01*
X10365301Y-17259722D02*
X10365301Y-17364484D01*
X10365301Y-17259722D02*
X10374825Y-17240674D01*
X10374825Y-17240674D02*
X10393872Y-17231150D01*
X10393872Y-17231150D02*
X10422444Y-17231150D01*
X10422444Y-17231150D02*
X10441491Y-17240674D01*
X10441491Y-17240674D02*
X10451015Y-17259722D01*
X10451015Y-17259722D02*
X10451015Y-17364484D01*
X10841491Y-17154960D02*
X10670063Y-17412103D01*
X11098634Y-17164484D02*
X11117682Y-17164484D01*
X11117682Y-17164484D02*
X11136729Y-17174008D01*
X11136729Y-17174008D02*
X11146253Y-17183531D01*
X11146253Y-17183531D02*
X11155777Y-17202579D01*
X11155777Y-17202579D02*
X11165301Y-17240674D01*
X11165301Y-17240674D02*
X11165301Y-17288293D01*
X11165301Y-17288293D02*
X11155777Y-17326389D01*
X11155777Y-17326389D02*
X11146253Y-17345436D01*
X11146253Y-17345436D02*
X11136729Y-17354960D01*
X11136729Y-17354960D02*
X11117682Y-17364484D01*
X11117682Y-17364484D02*
X11098634Y-17364484D01*
X11098634Y-17364484D02*
X11079587Y-17354960D01*
X11079587Y-17354960D02*
X11070063Y-17345436D01*
X11070063Y-17345436D02*
X11060539Y-17326389D01*
X11060539Y-17326389D02*
X11051015Y-17288293D01*
X11051015Y-17288293D02*
X11051015Y-17240674D01*
X11051015Y-17240674D02*
X11060539Y-17202579D01*
X11060539Y-17202579D02*
X11070063Y-17183531D01*
X11070063Y-17183531D02*
X11079587Y-17174008D01*
X11079587Y-17174008D02*
X11098634Y-17164484D01*
X11251015Y-17345436D02*
X11260539Y-17354960D01*
X11260539Y-17354960D02*
X11251015Y-17364484D01*
X11251015Y-17364484D02*
X11241491Y-17354960D01*
X11241491Y-17354960D02*
X11251015Y-17345436D01*
X11251015Y-17345436D02*
X11251015Y-17364484D01*
X11384348Y-17164484D02*
X11403396Y-17164484D01*
X11403396Y-17164484D02*
X11422444Y-17174008D01*
X11422444Y-17174008D02*
X11431967Y-17183531D01*
X11431967Y-17183531D02*
X11441491Y-17202579D01*
X11441491Y-17202579D02*
X11451015Y-17240674D01*
X11451015Y-17240674D02*
X11451015Y-17288293D01*
X11451015Y-17288293D02*
X11441491Y-17326389D01*
X11441491Y-17326389D02*
X11431967Y-17345436D01*
X11431967Y-17345436D02*
X11422444Y-17354960D01*
X11422444Y-17354960D02*
X11403396Y-17364484D01*
X11403396Y-17364484D02*
X11384348Y-17364484D01*
X11384348Y-17364484D02*
X11365301Y-17354960D01*
X11365301Y-17354960D02*
X11355777Y-17345436D01*
X11355777Y-17345436D02*
X11346253Y-17326389D01*
X11346253Y-17326389D02*
X11336729Y-17288293D01*
X11336729Y-17288293D02*
X11336729Y-17240674D01*
X11336729Y-17240674D02*
X11346253Y-17202579D01*
X11346253Y-17202579D02*
X11355777Y-17183531D01*
X11355777Y-17183531D02*
X11365301Y-17174008D01*
X11365301Y-17174008D02*
X11384348Y-17164484D01*
X11622444Y-17231150D02*
X11622444Y-17364484D01*
X11574825Y-17154960D02*
X11527206Y-17297817D01*
X11527206Y-17297817D02*
X11651015Y-17297817D01*
X11708158Y-17164484D02*
X11831967Y-17164484D01*
X11831967Y-17164484D02*
X11765301Y-17240674D01*
X11765301Y-17240674D02*
X11793872Y-17240674D01*
X11793872Y-17240674D02*
X11812920Y-17250198D01*
X11812920Y-17250198D02*
X11822444Y-17259722D01*
X11822444Y-17259722D02*
X11831967Y-17278770D01*
X11831967Y-17278770D02*
X11831967Y-17326389D01*
X11831967Y-17326389D02*
X11822444Y-17345436D01*
X11822444Y-17345436D02*
X11812920Y-17354960D01*
X11812920Y-17354960D02*
X11793872Y-17364484D01*
X11793872Y-17364484D02*
X11736729Y-17364484D01*
X11736729Y-17364484D02*
X11717682Y-17354960D01*
X11717682Y-17354960D02*
X11708158Y-17345436D01*
X11898634Y-17164484D02*
X12022444Y-17164484D01*
X12022444Y-17164484D02*
X11955777Y-17240674D01*
X11955777Y-17240674D02*
X11984348Y-17240674D01*
X11984348Y-17240674D02*
X12003396Y-17250198D01*
X12003396Y-17250198D02*
X12012920Y-17259722D01*
X12012920Y-17259722D02*
X12022444Y-17278770D01*
X12022444Y-17278770D02*
X12022444Y-17326389D01*
X12022444Y-17326389D02*
X12012920Y-17345436D01*
X12012920Y-17345436D02*
X12003396Y-17354960D01*
X12003396Y-17354960D02*
X11984348Y-17364484D01*
X11984348Y-17364484D02*
X11927206Y-17364484D01*
X11927206Y-17364484D02*
X11908158Y-17354960D01*
X11908158Y-17354960D02*
X11898634Y-17345436D01*
X12098634Y-17164484D02*
X12098634Y-17202579D01*
X12174825Y-17164484D02*
X12174825Y-17202579D01*
X12470063Y-17440674D02*
X12460539Y-17431150D01*
X12460539Y-17431150D02*
X12441491Y-17402579D01*
X12441491Y-17402579D02*
X12431968Y-17383531D01*
X12431968Y-17383531D02*
X12422444Y-17354960D01*
X12422444Y-17354960D02*
X12412920Y-17307341D01*
X12412920Y-17307341D02*
X12412920Y-17269246D01*
X12412920Y-17269246D02*
X12422444Y-17221627D01*
X12422444Y-17221627D02*
X12431968Y-17193055D01*
X12431968Y-17193055D02*
X12441491Y-17174008D01*
X12441491Y-17174008D02*
X12460539Y-17145436D01*
X12460539Y-17145436D02*
X12470063Y-17135912D01*
X12631968Y-17164484D02*
X12593872Y-17164484D01*
X12593872Y-17164484D02*
X12574825Y-17174008D01*
X12574825Y-17174008D02*
X12565301Y-17183531D01*
X12565301Y-17183531D02*
X12546253Y-17212103D01*
X12546253Y-17212103D02*
X12536729Y-17250198D01*
X12536729Y-17250198D02*
X12536729Y-17326389D01*
X12536729Y-17326389D02*
X12546253Y-17345436D01*
X12546253Y-17345436D02*
X12555777Y-17354960D01*
X12555777Y-17354960D02*
X12574825Y-17364484D01*
X12574825Y-17364484D02*
X12612920Y-17364484D01*
X12612920Y-17364484D02*
X12631968Y-17354960D01*
X12631968Y-17354960D02*
X12641491Y-17345436D01*
X12641491Y-17345436D02*
X12651015Y-17326389D01*
X12651015Y-17326389D02*
X12651015Y-17278770D01*
X12651015Y-17278770D02*
X12641491Y-17259722D01*
X12641491Y-17259722D02*
X12631968Y-17250198D01*
X12631968Y-17250198D02*
X12612920Y-17240674D01*
X12612920Y-17240674D02*
X12574825Y-17240674D01*
X12574825Y-17240674D02*
X12555777Y-17250198D01*
X12555777Y-17250198D02*
X12546253Y-17259722D01*
X12546253Y-17259722D02*
X12536729Y-17278770D01*
X12889110Y-17364484D02*
X12889110Y-17164484D01*
X12974825Y-17364484D02*
X12974825Y-17259722D01*
X12974825Y-17259722D02*
X12965301Y-17240674D01*
X12965301Y-17240674D02*
X12946253Y-17231150D01*
X12946253Y-17231150D02*
X12917682Y-17231150D01*
X12917682Y-17231150D02*
X12898634Y-17240674D01*
X12898634Y-17240674D02*
X12889110Y-17250198D01*
X13098634Y-17364484D02*
X13079587Y-17354960D01*
X13079587Y-17354960D02*
X13070063Y-17345436D01*
X13070063Y-17345436D02*
X13060539Y-17326389D01*
X13060539Y-17326389D02*
X13060539Y-17269246D01*
X13060539Y-17269246D02*
X13070063Y-17250198D01*
X13070063Y-17250198D02*
X13079587Y-17240674D01*
X13079587Y-17240674D02*
X13098634Y-17231150D01*
X13098634Y-17231150D02*
X13127206Y-17231150D01*
X13127206Y-17231150D02*
X13146253Y-17240674D01*
X13146253Y-17240674D02*
X13155777Y-17250198D01*
X13155777Y-17250198D02*
X13165301Y-17269246D01*
X13165301Y-17269246D02*
X13165301Y-17326389D01*
X13165301Y-17326389D02*
X13155777Y-17345436D01*
X13155777Y-17345436D02*
X13146253Y-17354960D01*
X13146253Y-17354960D02*
X13127206Y-17364484D01*
X13127206Y-17364484D02*
X13098634Y-17364484D01*
X13279587Y-17364484D02*
X13260539Y-17354960D01*
X13260539Y-17354960D02*
X13251015Y-17335912D01*
X13251015Y-17335912D02*
X13251015Y-17164484D01*
X13431968Y-17354960D02*
X13412920Y-17364484D01*
X13412920Y-17364484D02*
X13374825Y-17364484D01*
X13374825Y-17364484D02*
X13355777Y-17354960D01*
X13355777Y-17354960D02*
X13346253Y-17335912D01*
X13346253Y-17335912D02*
X13346253Y-17259722D01*
X13346253Y-17259722D02*
X13355777Y-17240674D01*
X13355777Y-17240674D02*
X13374825Y-17231150D01*
X13374825Y-17231150D02*
X13412920Y-17231150D01*
X13412920Y-17231150D02*
X13431968Y-17240674D01*
X13431968Y-17240674D02*
X13441491Y-17259722D01*
X13441491Y-17259722D02*
X13441491Y-17278770D01*
X13441491Y-17278770D02*
X13346253Y-17297817D01*
X13517682Y-17354960D02*
X13536730Y-17364484D01*
X13536730Y-17364484D02*
X13574825Y-17364484D01*
X13574825Y-17364484D02*
X13593872Y-17354960D01*
X13593872Y-17354960D02*
X13603396Y-17335912D01*
X13603396Y-17335912D02*
X13603396Y-17326389D01*
X13603396Y-17326389D02*
X13593872Y-17307341D01*
X13593872Y-17307341D02*
X13574825Y-17297817D01*
X13574825Y-17297817D02*
X13546253Y-17297817D01*
X13546253Y-17297817D02*
X13527206Y-17288293D01*
X13527206Y-17288293D02*
X13517682Y-17269246D01*
X13517682Y-17269246D02*
X13517682Y-17259722D01*
X13517682Y-17259722D02*
X13527206Y-17240674D01*
X13527206Y-17240674D02*
X13546253Y-17231150D01*
X13546253Y-17231150D02*
X13574825Y-17231150D01*
X13574825Y-17231150D02*
X13593872Y-17240674D01*
X13670063Y-17440674D02*
X13679587Y-17431150D01*
X13679587Y-17431150D02*
X13698634Y-17402579D01*
X13698634Y-17402579D02*
X13708158Y-17383531D01*
X13708158Y-17383531D02*
X13717682Y-17354960D01*
X13717682Y-17354960D02*
X13727206Y-17307341D01*
X13727206Y-17307341D02*
X13727206Y-17269246D01*
X13727206Y-17269246D02*
X13717682Y-17221627D01*
X13717682Y-17221627D02*
X13708158Y-17193055D01*
X13708158Y-17193055D02*
X13698634Y-17174008D01*
X13698634Y-17174008D02*
X13679587Y-17145436D01*
X13679587Y-17145436D02*
X13670063Y-17135912D01*
X14031968Y-17440674D02*
X14022444Y-17431150D01*
X14022444Y-17431150D02*
X14003396Y-17402579D01*
X14003396Y-17402579D02*
X13993872Y-17383531D01*
X13993872Y-17383531D02*
X13984349Y-17354960D01*
X13984349Y-17354960D02*
X13974825Y-17307341D01*
X13974825Y-17307341D02*
X13974825Y-17269246D01*
X13974825Y-17269246D02*
X13984349Y-17221627D01*
X13984349Y-17221627D02*
X13993872Y-17193055D01*
X13993872Y-17193055D02*
X14003396Y-17174008D01*
X14003396Y-17174008D02*
X14022444Y-17145436D01*
X14022444Y-17145436D02*
X14031968Y-17135912D01*
X14108158Y-17231150D02*
X14108158Y-17364484D01*
X14108158Y-17250198D02*
X14117682Y-17240674D01*
X14117682Y-17240674D02*
X14136730Y-17231150D01*
X14136730Y-17231150D02*
X14165301Y-17231150D01*
X14165301Y-17231150D02*
X14184349Y-17240674D01*
X14184349Y-17240674D02*
X14193872Y-17259722D01*
X14193872Y-17259722D02*
X14193872Y-17364484D01*
X14317682Y-17364484D02*
X14298634Y-17354960D01*
X14298634Y-17354960D02*
X14289111Y-17345436D01*
X14289111Y-17345436D02*
X14279587Y-17326389D01*
X14279587Y-17326389D02*
X14279587Y-17269246D01*
X14279587Y-17269246D02*
X14289111Y-17250198D01*
X14289111Y-17250198D02*
X14298634Y-17240674D01*
X14298634Y-17240674D02*
X14317682Y-17231150D01*
X14317682Y-17231150D02*
X14346253Y-17231150D01*
X14346253Y-17231150D02*
X14365301Y-17240674D01*
X14365301Y-17240674D02*
X14374825Y-17250198D01*
X14374825Y-17250198D02*
X14384349Y-17269246D01*
X14384349Y-17269246D02*
X14384349Y-17326389D01*
X14384349Y-17326389D02*
X14374825Y-17345436D01*
X14374825Y-17345436D02*
X14365301Y-17354960D01*
X14365301Y-17354960D02*
X14346253Y-17364484D01*
X14346253Y-17364484D02*
X14317682Y-17364484D01*
X14441492Y-17231150D02*
X14517682Y-17231150D01*
X14470063Y-17164484D02*
X14470063Y-17335912D01*
X14470063Y-17335912D02*
X14479587Y-17354960D01*
X14479587Y-17354960D02*
X14498634Y-17364484D01*
X14498634Y-17364484D02*
X14517682Y-17364484D01*
X14736730Y-17231150D02*
X14736730Y-17431150D01*
X14736730Y-17240674D02*
X14755777Y-17231150D01*
X14755777Y-17231150D02*
X14793873Y-17231150D01*
X14793873Y-17231150D02*
X14812920Y-17240674D01*
X14812920Y-17240674D02*
X14822444Y-17250198D01*
X14822444Y-17250198D02*
X14831968Y-17269246D01*
X14831968Y-17269246D02*
X14831968Y-17326389D01*
X14831968Y-17326389D02*
X14822444Y-17345436D01*
X14822444Y-17345436D02*
X14812920Y-17354960D01*
X14812920Y-17354960D02*
X14793873Y-17364484D01*
X14793873Y-17364484D02*
X14755777Y-17364484D01*
X14755777Y-17364484D02*
X14736730Y-17354960D01*
X14946253Y-17364484D02*
X14927206Y-17354960D01*
X14927206Y-17354960D02*
X14917682Y-17335912D01*
X14917682Y-17335912D02*
X14917682Y-17164484D01*
X15108158Y-17364484D02*
X15108158Y-17259722D01*
X15108158Y-17259722D02*
X15098634Y-17240674D01*
X15098634Y-17240674D02*
X15079587Y-17231150D01*
X15079587Y-17231150D02*
X15041492Y-17231150D01*
X15041492Y-17231150D02*
X15022444Y-17240674D01*
X15108158Y-17354960D02*
X15089111Y-17364484D01*
X15089111Y-17364484D02*
X15041492Y-17364484D01*
X15041492Y-17364484D02*
X15022444Y-17354960D01*
X15022444Y-17354960D02*
X15012920Y-17335912D01*
X15012920Y-17335912D02*
X15012920Y-17316865D01*
X15012920Y-17316865D02*
X15022444Y-17297817D01*
X15022444Y-17297817D02*
X15041492Y-17288293D01*
X15041492Y-17288293D02*
X15089111Y-17288293D01*
X15089111Y-17288293D02*
X15108158Y-17278770D01*
X15174825Y-17231150D02*
X15251015Y-17231150D01*
X15203396Y-17164484D02*
X15203396Y-17335912D01*
X15203396Y-17335912D02*
X15212920Y-17354960D01*
X15212920Y-17354960D02*
X15231968Y-17364484D01*
X15231968Y-17364484D02*
X15251015Y-17364484D01*
X15393873Y-17354960D02*
X15374825Y-17364484D01*
X15374825Y-17364484D02*
X15336730Y-17364484D01*
X15336730Y-17364484D02*
X15317682Y-17354960D01*
X15317682Y-17354960D02*
X15308158Y-17335912D01*
X15308158Y-17335912D02*
X15308158Y-17259722D01*
X15308158Y-17259722D02*
X15317682Y-17240674D01*
X15317682Y-17240674D02*
X15336730Y-17231150D01*
X15336730Y-17231150D02*
X15374825Y-17231150D01*
X15374825Y-17231150D02*
X15393873Y-17240674D01*
X15393873Y-17240674D02*
X15403396Y-17259722D01*
X15403396Y-17259722D02*
X15403396Y-17278770D01*
X15403396Y-17278770D02*
X15308158Y-17297817D01*
X15574825Y-17364484D02*
X15574825Y-17164484D01*
X15574825Y-17354960D02*
X15555777Y-17364484D01*
X15555777Y-17364484D02*
X15517682Y-17364484D01*
X15517682Y-17364484D02*
X15498634Y-17354960D01*
X15498634Y-17354960D02*
X15489111Y-17345436D01*
X15489111Y-17345436D02*
X15479587Y-17326389D01*
X15479587Y-17326389D02*
X15479587Y-17269246D01*
X15479587Y-17269246D02*
X15489111Y-17250198D01*
X15489111Y-17250198D02*
X15498634Y-17240674D01*
X15498634Y-17240674D02*
X15517682Y-17231150D01*
X15517682Y-17231150D02*
X15555777Y-17231150D01*
X15555777Y-17231150D02*
X15574825Y-17240674D01*
X15651015Y-17440674D02*
X15660539Y-17431150D01*
X15660539Y-17431150D02*
X15679587Y-17402579D01*
X15679587Y-17402579D02*
X15689111Y-17383531D01*
X15689111Y-17383531D02*
X15698634Y-17354960D01*
X15698634Y-17354960D02*
X15708158Y-17307341D01*
X15708158Y-17307341D02*
X15708158Y-17269246D01*
X15708158Y-17269246D02*
X15698634Y-17221627D01*
X15698634Y-17221627D02*
X15689111Y-17193055D01*
X15689111Y-17193055D02*
X15679587Y-17174008D01*
X15679587Y-17174008D02*
X15660539Y-17145436D01*
X15660539Y-17145436D02*
X15651015Y-17135912D01*
M02*
