%TF.GenerationSoftware,KiCad,Pcbnew,9.0.2+dfsg-1*%
%TF.CreationDate,2026-10-04T09:33:25-04:00*%
%TF.ProjectId,tdr_coupon_a25,7464725f-636f-4757-906f-6e5f6132352e,rev?*%
%TF.SameCoordinates,Original*%
%TF.FileFunction,Drillmap*%
%TF.FilePolarity,Positive*%
%FSLAX45Y45*%
G04 Gerber Fmt 4.5, Leading zero omitted, Abs format (unit mm)*
G04 Created by KiCad (PCBNEW 9.0.2+dfsg-1) date 2026-10-04 09:33:25*
%MOMM*%
%LPD*%
G01*
G04 APERTURE LIST*
%ADD10C,0.050000*%
%ADD11C,0.200000*%
G04 APERTURE END LIST*
D10*
X10000000Y-11900000D02*
X15800000Y-11900000D01*
X15800000Y-10000000D02*
X10000000Y-10000000D01*
X10000000Y-10000000D02*
X10000000Y-11900000D01*
X15800000Y-11900000D02*
X15800000Y-10000000D01*
D11*
X10258277Y-12213984D02*
X10258277Y-12013984D01*
X10258277Y-12013984D02*
X10305896Y-12013984D01*
X10305896Y-12013984D02*
X10334467Y-12023508D01*
X10334467Y-12023508D02*
X10353515Y-12042555D01*
X10353515Y-12042555D02*
X10363039Y-12061603D01*
X10363039Y-12061603D02*
X10372563Y-12099698D01*
X10372563Y-12099698D02*
X10372563Y-12128269D01*
X10372563Y-12128269D02*
X10363039Y-12166365D01*
X10363039Y-12166365D02*
X10353515Y-12185412D01*
X10353515Y-12185412D02*
X10334467Y-12204460D01*
X10334467Y-12204460D02*
X10305896Y-12213984D01*
X10305896Y-12213984D02*
X10258277Y-12213984D01*
X10458277Y-12213984D02*
X10458277Y-12080650D01*
X10458277Y-12118746D02*
X10467801Y-12099698D01*
X10467801Y-12099698D02*
X10477324Y-12090174D01*
X10477324Y-12090174D02*
X10496372Y-12080650D01*
X10496372Y-12080650D02*
X10515420Y-12080650D01*
X10582086Y-12213984D02*
X10582086Y-12080650D01*
X10582086Y-12013984D02*
X10572563Y-12023508D01*
X10572563Y-12023508D02*
X10582086Y-12033031D01*
X10582086Y-12033031D02*
X10591610Y-12023508D01*
X10591610Y-12023508D02*
X10582086Y-12013984D01*
X10582086Y-12013984D02*
X10582086Y-12033031D01*
X10705896Y-12213984D02*
X10686848Y-12204460D01*
X10686848Y-12204460D02*
X10677324Y-12185412D01*
X10677324Y-12185412D02*
X10677324Y-12013984D01*
X10810658Y-12213984D02*
X10791610Y-12204460D01*
X10791610Y-12204460D02*
X10782086Y-12185412D01*
X10782086Y-12185412D02*
X10782086Y-12013984D01*
X11039229Y-12213984D02*
X11039229Y-12013984D01*
X11039229Y-12013984D02*
X11105896Y-12156841D01*
X11105896Y-12156841D02*
X11172563Y-12013984D01*
X11172563Y-12013984D02*
X11172563Y-12213984D01*
X11353515Y-12213984D02*
X11353515Y-12109222D01*
X11353515Y-12109222D02*
X11343991Y-12090174D01*
X11343991Y-12090174D02*
X11324943Y-12080650D01*
X11324943Y-12080650D02*
X11286848Y-12080650D01*
X11286848Y-12080650D02*
X11267801Y-12090174D01*
X11353515Y-12204460D02*
X11334467Y-12213984D01*
X11334467Y-12213984D02*
X11286848Y-12213984D01*
X11286848Y-12213984D02*
X11267801Y-12204460D01*
X11267801Y-12204460D02*
X11258277Y-12185412D01*
X11258277Y-12185412D02*
X11258277Y-12166365D01*
X11258277Y-12166365D02*
X11267801Y-12147317D01*
X11267801Y-12147317D02*
X11286848Y-12137793D01*
X11286848Y-12137793D02*
X11334467Y-12137793D01*
X11334467Y-12137793D02*
X11353515Y-12128269D01*
X11448753Y-12080650D02*
X11448753Y-12280650D01*
X11448753Y-12090174D02*
X11467801Y-12080650D01*
X11467801Y-12080650D02*
X11505896Y-12080650D01*
X11505896Y-12080650D02*
X11524943Y-12090174D01*
X11524943Y-12090174D02*
X11534467Y-12099698D01*
X11534467Y-12099698D02*
X11543991Y-12118746D01*
X11543991Y-12118746D02*
X11543991Y-12175888D01*
X11543991Y-12175888D02*
X11534467Y-12194936D01*
X11534467Y-12194936D02*
X11524943Y-12204460D01*
X11524943Y-12204460D02*
X11505896Y-12213984D01*
X11505896Y-12213984D02*
X11467801Y-12213984D01*
X11467801Y-12213984D02*
X11448753Y-12204460D01*
X11629705Y-12194936D02*
X11639229Y-12204460D01*
X11639229Y-12204460D02*
X11629705Y-12213984D01*
X11629705Y-12213984D02*
X11620182Y-12204460D01*
X11620182Y-12204460D02*
X11629705Y-12194936D01*
X11629705Y-12194936D02*
X11629705Y-12213984D01*
X11629705Y-12090174D02*
X11639229Y-12099698D01*
X11639229Y-12099698D02*
X11629705Y-12109222D01*
X11629705Y-12109222D02*
X11620182Y-12099698D01*
X11620182Y-12099698D02*
X11629705Y-12090174D01*
X11629705Y-12090174D02*
X11629705Y-12109222D01*
M02*
