G04 #@! TF.GenerationSoftware,KiCad,Pcbnew,9.0.2+dfsg-1*
G04 #@! TF.CreationDate,2026-10-04T21:57:18-04:00*
G04 #@! TF.ProjectId,backplane,6261636b-706c-4616-9e65-2e6b69636164,A1*
G04 #@! TF.SameCoordinates,Original*
G04 #@! TF.FileFunction,Paste,Top*
G04 #@! TF.FilePolarity,Positive*
%FSLAX46Y46*%
G04 Gerber Fmt 4.6, Leading zero omitted, Abs format (unit mm)*
G04 Created by KiCad (PCBNEW 9.0.2+dfsg-1) date 2026-10-04 21:57:18*
%MOMM*%
%LPD*%
G01*
G04 APERTURE LIST*
G04 Aperture macros list*
%AMRoundRect*
0 Rectangle with rounded corners*
0 $1 Rounding radius*
0 $2 $3 $4 $5 $6 $7 $8 $9 X,Y pos of 4 corners*
0 Add a 4 corners polygon primitive as box body*
4,1,4,$2,$3,$4,$5,$6,$7,$8,$9,$2,$3,0*
0 Add four circle primitives for the rounded corners*
1,1,$1+$1,$2,$3*
1,1,$1+$1,$4,$5*
1,1,$1+$1,$6,$7*
1,1,$1+$1,$8,$9*
0 Add four rect primitives between the rounded corners*
20,1,$1+$1,$2,$3,$4,$5,0*
20,1,$1+$1,$4,$5,$6,$7,0*
20,1,$1+$1,$6,$7,$8,$9,0*
20,1,$1+$1,$8,$9,$2,$3,0*%
%AMRotRect*
0 Rectangle, with rotation*
0 The origin of the aperture is its center*
0 $1 length*
0 $2 width*
0 $3 Rotation angle, in degrees counterclockwise*
0 Add horizontal line*
21,1,$1,$2,0,0,$3*%
G04 Aperture macros list end*
%ADD10C,5.000000*%
%ADD11RoundRect,0.135000X0.185000X-0.135000X0.185000X0.135000X-0.185000X0.135000X-0.185000X-0.135000X0*%
%ADD12RoundRect,0.140000X-0.140000X-0.170000X0.140000X-0.170000X0.140000X0.170000X-0.140000X0.170000X0*%
%ADD13RoundRect,0.135000X-0.135000X-0.185000X0.135000X-0.185000X0.135000X0.185000X-0.135000X0.185000X0*%
%ADD14RoundRect,0.140000X0.170000X-0.140000X0.170000X0.140000X-0.170000X0.140000X-0.170000X-0.140000X0*%
%ADD15RoundRect,0.250000X-0.375000X-0.625000X0.375000X-0.625000X0.375000X0.625000X-0.375000X0.625000X0*%
%ADD16RoundRect,0.250000X-0.300000X-1.600000X0.300000X-1.600000X0.300000X1.600000X-0.300000X1.600000X0*%
%ADD17R,0.350000X1.200000*%
%ADD18RoundRect,0.218750X-0.218750X-0.256250X0.218750X-0.256250X0.218750X0.256250X-0.218750X0.256250X0*%
%ADD19RoundRect,0.250000X-0.250000X-0.475000X0.250000X-0.475000X0.250000X0.475000X-0.250000X0.475000X0*%
%ADD20RoundRect,0.150000X0.150000X-0.587500X0.150000X0.587500X-0.150000X0.587500X-0.150000X-0.587500X0*%
%ADD21RoundRect,0.250000X-1.000000X-0.650000X1.000000X-0.650000X1.000000X0.650000X-1.000000X0.650000X0*%
%ADD22RoundRect,0.250000X0.650000X-1.000000X0.650000X1.000000X-0.650000X1.000000X-0.650000X-1.000000X0*%
%ADD23RoundRect,0.150000X-0.587500X-0.150000X0.587500X-0.150000X0.587500X0.150000X-0.587500X0.150000X0*%
%ADD24RoundRect,0.250000X-0.450000X-0.350000X0.450000X-0.350000X0.450000X0.350000X-0.450000X0.350000X0*%
%ADD25RoundRect,0.150000X0.388909X-0.601041X0.601041X-0.388909X-0.388909X0.601041X-0.601041X0.388909X0*%
%ADD26RoundRect,0.250000X0.636396X-0.989949X0.989949X-0.636396X-0.636396X0.989949X-0.989949X0.636396X0*%
%ADD27RotRect,0.350000X1.400000X45.000000*%
%ADD28RoundRect,0.250000X0.475000X-0.250000X0.475000X0.250000X-0.475000X0.250000X-0.475000X-0.250000X0*%
%ADD29R,1.000000X0.750000*%
%ADD30RoundRect,0.075000X-0.650000X-0.075000X0.650000X-0.075000X0.650000X0.075000X-0.650000X0.075000X0*%
%ADD31RoundRect,0.218750X0.256250X-0.218750X0.256250X0.218750X-0.256250X0.218750X-0.256250X-0.218750X0*%
%ADD32RoundRect,0.150000X0.150000X0.700000X-0.150000X0.700000X-0.150000X-0.700000X0.150000X-0.700000X0*%
%ADD33RoundRect,0.250000X0.250000X1.150000X-0.250000X1.150000X-0.250000X-1.150000X0.250000X-1.150000X0*%
%ADD34RoundRect,0.150000X-0.512500X-0.150000X0.512500X-0.150000X0.512500X0.150000X-0.512500X0.150000X0*%
%ADD35RoundRect,0.125000X-0.687500X-0.125000X0.687500X-0.125000X0.687500X0.125000X-0.687500X0.125000X0*%
%ADD36RoundRect,0.087500X-0.537500X-0.087500X0.537500X-0.087500X0.537500X0.087500X-0.537500X0.087500X0*%
%ADD37RoundRect,0.218750X-0.218750X-0.381250X0.218750X-0.381250X0.218750X0.381250X-0.218750X0.381250X0*%
%ADD38RotRect,0.350000X1.400000X315.000000*%
%ADD39RoundRect,0.162500X0.162500X-0.650000X0.162500X0.650000X-0.162500X0.650000X-0.162500X-0.650000X0*%
%ADD40R,1.100000X0.300000*%
%ADD41R,2.600000X1.600000*%
%ADD42RoundRect,0.250000X-0.312500X-0.625000X0.312500X-0.625000X0.312500X0.625000X-0.312500X0.625000X0*%
%ADD43RoundRect,0.227500X-0.227500X-0.227500X0.227500X-0.227500X0.227500X0.227500X-0.227500X0.227500X0*%
%ADD44RoundRect,0.050000X-0.350000X-0.050000X0.350000X-0.050000X0.350000X0.050000X-0.350000X0.050000X0*%
%ADD45RoundRect,0.050000X-0.050000X-0.350000X0.050000X-0.350000X0.050000X0.350000X-0.050000X0.350000X0*%
%ADD46RoundRect,0.150000X0.625000X-0.150000X0.625000X0.150000X-0.625000X0.150000X-0.625000X-0.150000X0*%
%ADD47RoundRect,0.250000X0.650000X-0.350000X0.650000X0.350000X-0.650000X0.350000X-0.650000X-0.350000X0*%
G04 APERTURE END LIST*
D10*
G04 #@! TO.C,H3*
X172000000Y-130000000D03*
G04 #@! TD*
D11*
G04 #@! TO.C,R43*
X141145000Y-122615000D03*
X141145000Y-121595000D03*
G04 #@! TD*
D12*
G04 #@! TO.C,C5*
X183605000Y-131135000D03*
X184565000Y-131135000D03*
G04 #@! TD*
D13*
G04 #@! TO.C,R18*
X147095000Y-119645000D03*
X148115000Y-119645000D03*
G04 #@! TD*
D11*
G04 #@! TO.C,R37*
X120145000Y-121815000D03*
X120145000Y-120795000D03*
G04 #@! TD*
D14*
G04 #@! TO.C,C36*
X132635000Y-130565000D03*
X132635000Y-129605000D03*
G04 #@! TD*
D15*
G04 #@! TO.C,F1*
X173600000Y-138500000D03*
X176400000Y-138500000D03*
G04 #@! TD*
D14*
G04 #@! TO.C,C18*
X137135000Y-133565000D03*
X137135000Y-132605000D03*
G04 #@! TD*
D13*
G04 #@! TO.C,R27*
X181095000Y-118845000D03*
X182115000Y-118845000D03*
G04 #@! TD*
D14*
G04 #@! TO.C,C39*
X157135000Y-130565000D03*
X157135000Y-129605000D03*
G04 #@! TD*
D11*
G04 #@! TO.C,R59*
X155145000Y-130115000D03*
X155145000Y-129095000D03*
G04 #@! TD*
D13*
G04 #@! TO.C,R22*
X173595000Y-123845000D03*
X174615000Y-123845000D03*
G04 #@! TD*
D16*
G04 #@! TO.C,L1*
X187000000Y-134000000D03*
X190000000Y-134000000D03*
G04 #@! TD*
D11*
G04 #@! TO.C,R6*
X171645000Y-142115000D03*
X171645000Y-141095000D03*
G04 #@! TD*
D17*
G04 #@! TO.C,J1*
X188960000Y-114025000D03*
X188360000Y-114025000D03*
X187760000Y-114025000D03*
X187160000Y-114025000D03*
X186560000Y-114025000D03*
X185960000Y-114025000D03*
X185360000Y-114025000D03*
X184760000Y-114025000D03*
X184160000Y-114025000D03*
X183560000Y-114025000D03*
X182960000Y-114025000D03*
X182360000Y-114025000D03*
X181760000Y-114025000D03*
X181160000Y-114025000D03*
X180560000Y-114025000D03*
X179960000Y-114025000D03*
X179360000Y-114025000D03*
X178760000Y-114025000D03*
X178160000Y-114025000D03*
X177560000Y-114025000D03*
X176960000Y-114025000D03*
X176360000Y-114025000D03*
X175760000Y-114025000D03*
X175160000Y-114025000D03*
X174560000Y-114025000D03*
X173960000Y-114025000D03*
X173360000Y-114025000D03*
X172760000Y-114025000D03*
X167850000Y-114025000D03*
X167250000Y-114025000D03*
X166650000Y-114025000D03*
X166050000Y-114025000D03*
X165450000Y-114025000D03*
X164850000Y-114025000D03*
X164250000Y-114025000D03*
X163650000Y-114025000D03*
X163050000Y-114025000D03*
X162450000Y-114025000D03*
X161850000Y-114025000D03*
X161250000Y-114025000D03*
X160650000Y-114025000D03*
X160050000Y-114025000D03*
X159450000Y-114025000D03*
X158850000Y-114025000D03*
X158250000Y-114025000D03*
X157650000Y-114025000D03*
X157050000Y-114025000D03*
X156450000Y-114025000D03*
X155850000Y-114025000D03*
X155250000Y-114025000D03*
X154650000Y-114025000D03*
X154050000Y-114025000D03*
X153450000Y-114025000D03*
X152850000Y-114025000D03*
X152250000Y-114025000D03*
X151650000Y-114025000D03*
X147640000Y-114025000D03*
X147040000Y-114025000D03*
X146440000Y-114025000D03*
X145840000Y-114025000D03*
X145240000Y-114025000D03*
X144640000Y-114025000D03*
X144040000Y-114025000D03*
X143440000Y-114025000D03*
X142840000Y-114025000D03*
X142240000Y-114025000D03*
X141640000Y-114025000D03*
X141040000Y-114025000D03*
X140440000Y-114025000D03*
X139840000Y-114025000D03*
X139240000Y-114025000D03*
X138640000Y-114025000D03*
X138040000Y-114025000D03*
X137440000Y-114025000D03*
X136840000Y-114025000D03*
X136240000Y-114025000D03*
X135640000Y-114025000D03*
X135040000Y-114025000D03*
X134440000Y-114025000D03*
X133840000Y-114025000D03*
X133240000Y-114025000D03*
X132640000Y-114025000D03*
X132040000Y-114025000D03*
X131440000Y-114025000D03*
X127425000Y-114025000D03*
X126825000Y-114025000D03*
X126225000Y-114025000D03*
X125625000Y-114025000D03*
X125025000Y-114025000D03*
X124425000Y-114025000D03*
X123825000Y-114025000D03*
X123225000Y-114025000D03*
X122625000Y-114025000D03*
X122025000Y-114025000D03*
X121425000Y-114025000D03*
X120825000Y-114025000D03*
X120225000Y-114025000D03*
X119625000Y-114025000D03*
X119025000Y-114025000D03*
X118425000Y-114025000D03*
X117825000Y-114025000D03*
X117225000Y-114025000D03*
X116625000Y-114025000D03*
X116025000Y-114025000D03*
X115425000Y-114025000D03*
X114825000Y-114025000D03*
X114225000Y-114025000D03*
X113625000Y-114025000D03*
X113025000Y-114025000D03*
X112425000Y-114025000D03*
X111825000Y-114025000D03*
X111225000Y-114025000D03*
X188690000Y-111175000D03*
X188090000Y-111175000D03*
X187490000Y-111175000D03*
X186890000Y-111175000D03*
X186290000Y-111175000D03*
X185690000Y-111175000D03*
X185090000Y-111175000D03*
X184490000Y-111175000D03*
X183890000Y-111175000D03*
X183290000Y-111175000D03*
X182690000Y-111175000D03*
X182090000Y-111175000D03*
X181490000Y-111175000D03*
X180890000Y-111175000D03*
X180290000Y-111175000D03*
X179690000Y-111175000D03*
X179090000Y-111175000D03*
X178490000Y-111175000D03*
X177890000Y-111175000D03*
X177290000Y-111175000D03*
X176690000Y-111175000D03*
X176090000Y-111175000D03*
X175490000Y-111175000D03*
X174890000Y-111175000D03*
X174290000Y-111175000D03*
X173690000Y-111175000D03*
X173090000Y-111175000D03*
X172490000Y-111175000D03*
X167580000Y-111175000D03*
X166980000Y-111175000D03*
X166380000Y-111175000D03*
X165780000Y-111175000D03*
X165180000Y-111175000D03*
X164580000Y-111175000D03*
X163980000Y-111175000D03*
X163380000Y-111175000D03*
X162780000Y-111175000D03*
X162180000Y-111175000D03*
X161580000Y-111175000D03*
X160980000Y-111175000D03*
X160380000Y-111175000D03*
X159780000Y-111175000D03*
X159180000Y-111175000D03*
X158580000Y-111175000D03*
X157980000Y-111175000D03*
X157380000Y-111175000D03*
X156780000Y-111175000D03*
X156180000Y-111175000D03*
X155580000Y-111175000D03*
X154980000Y-111175000D03*
X154380000Y-111175000D03*
X153780000Y-111175000D03*
X153180000Y-111175000D03*
X152580000Y-111175000D03*
X151980000Y-111175000D03*
X151380000Y-111175000D03*
X147370000Y-111175000D03*
X146770000Y-111175000D03*
X146170000Y-111175000D03*
X145570000Y-111175000D03*
X144970000Y-111175000D03*
X144370000Y-111175000D03*
X143770000Y-111175000D03*
X143170000Y-111175000D03*
X142570000Y-111175000D03*
X141970000Y-111175000D03*
X141370000Y-111175000D03*
X140770000Y-111175000D03*
X140170000Y-111175000D03*
X139570000Y-111175000D03*
X138970000Y-111175000D03*
X138370000Y-111175000D03*
X137770000Y-111175000D03*
X137170000Y-111175000D03*
X136570000Y-111175000D03*
X135970000Y-111175000D03*
X135370000Y-111175000D03*
X134770000Y-111175000D03*
X134170000Y-111175000D03*
X133570000Y-111175000D03*
X132970000Y-111175000D03*
X132370000Y-111175000D03*
X131770000Y-111175000D03*
X131170000Y-111175000D03*
X127155000Y-111175000D03*
X126555000Y-111175000D03*
X125955000Y-111175000D03*
X125355000Y-111175000D03*
X124755000Y-111175000D03*
X124155000Y-111175000D03*
X123555000Y-111175000D03*
X122955000Y-111175000D03*
X122355000Y-111175000D03*
X121755000Y-111175000D03*
X121155000Y-111175000D03*
X120555000Y-111175000D03*
X119955000Y-111175000D03*
X119355000Y-111175000D03*
X118755000Y-111175000D03*
X118155000Y-111175000D03*
X117555000Y-111175000D03*
X116955000Y-111175000D03*
X116355000Y-111175000D03*
X115755000Y-111175000D03*
X115155000Y-111175000D03*
X114555000Y-111175000D03*
X113955000Y-111175000D03*
X113355000Y-111175000D03*
X112755000Y-111175000D03*
X112155000Y-111175000D03*
X111555000Y-111175000D03*
X110955000Y-111175000D03*
G04 #@! TD*
D14*
G04 #@! TO.C,C29*
X155135000Y-127065000D03*
X155135000Y-126105000D03*
G04 #@! TD*
D16*
G04 #@! TO.C,L2*
X187000000Y-126500000D03*
X190000000Y-126500000D03*
G04 #@! TD*
D14*
G04 #@! TO.C,C32*
X119635000Y-125265000D03*
X119635000Y-124305000D03*
G04 #@! TD*
D18*
G04 #@! TO.C,D7*
X137367500Y-119905000D03*
X138942500Y-119905000D03*
G04 #@! TD*
D19*
G04 #@! TO.C,C7*
X157425000Y-122655000D03*
X159325000Y-122655000D03*
G04 #@! TD*
D11*
G04 #@! TO.C,R57*
X169145000Y-136115000D03*
X169145000Y-135095000D03*
G04 #@! TD*
G04 #@! TO.C,R14*
X151145000Y-144115000D03*
X151145000Y-143095000D03*
G04 #@! TD*
G04 #@! TO.C,R55*
X145145000Y-129115000D03*
X145145000Y-128095000D03*
G04 #@! TD*
D20*
G04 #@! TO.C,Q11*
X132925000Y-127042500D03*
X134825000Y-127042500D03*
X133875000Y-125167500D03*
G04 #@! TD*
D21*
G04 #@! TO.C,D3*
X178500000Y-141500000D03*
X182500000Y-141500000D03*
G04 #@! TD*
D11*
G04 #@! TO.C,R7*
X176145000Y-127115000D03*
X176145000Y-126095000D03*
G04 #@! TD*
D20*
G04 #@! TO.C,Q7*
X154925000Y-139542500D03*
X156825000Y-139542500D03*
X155875000Y-137667500D03*
G04 #@! TD*
D22*
G04 #@! TO.C,D1*
X147700000Y-143000000D03*
X147700000Y-139000000D03*
G04 #@! TD*
D11*
G04 #@! TO.C,R11*
X143645000Y-136615000D03*
X143645000Y-135595000D03*
G04 #@! TD*
D20*
G04 #@! TO.C,Q8*
X159425000Y-139542500D03*
X161325000Y-139542500D03*
X160375000Y-137667500D03*
G04 #@! TD*
D13*
G04 #@! TO.C,R54*
X143095000Y-131145000D03*
X144115000Y-131145000D03*
G04 #@! TD*
D20*
G04 #@! TO.C,D4*
X173925000Y-121242500D03*
X175825000Y-121242500D03*
X174875000Y-119367500D03*
G04 #@! TD*
D14*
G04 #@! TO.C,C34*
X121635000Y-125765000D03*
X121635000Y-124805000D03*
G04 #@! TD*
D13*
G04 #@! TO.C,R49*
X163595000Y-132645000D03*
X164615000Y-132645000D03*
G04 #@! TD*
G04 #@! TO.C,R4*
X189595000Y-130145000D03*
X190615000Y-130145000D03*
G04 #@! TD*
D11*
G04 #@! TO.C,R2*
X180645000Y-138115000D03*
X180645000Y-137095000D03*
G04 #@! TD*
G04 #@! TO.C,R17*
X161645000Y-133615000D03*
X161645000Y-132595000D03*
G04 #@! TD*
D23*
G04 #@! TO.C,D5*
X155167500Y-132925000D03*
X155167500Y-134825000D03*
X157042500Y-133875000D03*
G04 #@! TD*
D14*
G04 #@! TO.C,C24*
X151135000Y-124065000D03*
X151135000Y-123105000D03*
G04 #@! TD*
D19*
G04 #@! TO.C,C17*
X132925000Y-138155000D03*
X134825000Y-138155000D03*
G04 #@! TD*
D13*
G04 #@! TO.C,R3*
X186595000Y-130145000D03*
X187615000Y-130145000D03*
G04 #@! TD*
D12*
G04 #@! TO.C,C38*
X156105000Y-119635000D03*
X157065000Y-119635000D03*
G04 #@! TD*
D24*
G04 #@! TO.C,Y1*
X109400000Y-135050000D03*
X111600000Y-135050000D03*
X111600000Y-133350000D03*
X109400000Y-133350000D03*
G04 #@! TD*
D20*
G04 #@! TO.C,Q2*
X132925000Y-122042500D03*
X134825000Y-122042500D03*
X133875000Y-120167500D03*
G04 #@! TD*
D11*
G04 #@! TO.C,R34*
X137145000Y-123115000D03*
X137145000Y-122095000D03*
G04 #@! TD*
D12*
G04 #@! TO.C,C14*
X185105000Y-121835000D03*
X186065000Y-121835000D03*
G04 #@! TD*
D11*
G04 #@! TO.C,R52*
X122145000Y-131815000D03*
X122145000Y-130795000D03*
G04 #@! TD*
D25*
G04 #@! TO.C,J3*
X187691674Y-94066043D03*
X188575557Y-93182159D03*
X189459441Y-92298276D03*
X190343324Y-91414392D03*
X191227208Y-90530509D03*
X192111091Y-89646625D03*
X192994975Y-88762742D03*
X193878858Y-87878858D03*
X194762742Y-86994975D03*
X195646625Y-86111091D03*
X196530509Y-85227208D03*
X197414392Y-84343324D03*
X198298276Y-83459441D03*
X199182159Y-82575557D03*
X200066043Y-81691674D03*
D26*
X184014719Y-93005382D03*
X199005382Y-78014719D03*
G04 #@! TD*
D11*
G04 #@! TO.C,R51*
X143145000Y-128615000D03*
X143145000Y-127595000D03*
G04 #@! TD*
D13*
G04 #@! TO.C,R24*
X198095000Y-123845000D03*
X199115000Y-123845000D03*
G04 #@! TD*
D11*
G04 #@! TO.C,R47*
X94145000Y-108015000D03*
X94145000Y-106995000D03*
G04 #@! TD*
D14*
G04 #@! TO.C,C19*
X149135000Y-127065000D03*
X149135000Y-126105000D03*
G04 #@! TD*
D27*
G04 #@! TO.C,J10*
X117766568Y-101566205D03*
X118190832Y-101141940D03*
X118615096Y-100717676D03*
X119039360Y-100293412D03*
X119463625Y-99869148D03*
X119887889Y-99444884D03*
X120312153Y-99020620D03*
X120736417Y-98596356D03*
X121160681Y-98172092D03*
X121584945Y-97747828D03*
X122009209Y-97323564D03*
X122433473Y-96899300D03*
X122857737Y-96475036D03*
X123282001Y-96050772D03*
X123706265Y-95626508D03*
X124130529Y-95202244D03*
X124554793Y-94777979D03*
X124979057Y-94353715D03*
X125403321Y-93929451D03*
X125827586Y-93505187D03*
X126251850Y-93080923D03*
X126676114Y-92656659D03*
X127100378Y-92232395D03*
X127524642Y-91808131D03*
X127948906Y-91383867D03*
X128373170Y-90959603D03*
X128797434Y-90535339D03*
X129221698Y-90111075D03*
X129645962Y-89686811D03*
X130070226Y-89262547D03*
X130494490Y-88838283D03*
X130918754Y-88414018D03*
X131343018Y-87989754D03*
X131767283Y-87565490D03*
X132191547Y-87141226D03*
X132615811Y-86716962D03*
X133040075Y-86292698D03*
X134312867Y-85019906D03*
X134737131Y-84595642D03*
X135161395Y-84171378D03*
X135585659Y-83747114D03*
X136009923Y-83322850D03*
X136434187Y-82898586D03*
X136858451Y-82474321D03*
X137282715Y-82050057D03*
X137706979Y-81625793D03*
X138131244Y-81201529D03*
X138555508Y-80777265D03*
X138979772Y-80353001D03*
X139404036Y-79928737D03*
X139828300Y-79504473D03*
X140252564Y-79080209D03*
X140676828Y-78655945D03*
X141101092Y-78231681D03*
X141525356Y-77807417D03*
X141949620Y-77383153D03*
X142373884Y-76958889D03*
X142798148Y-76534625D03*
X143222412Y-76110360D03*
X143646676Y-75686096D03*
X144070940Y-75261832D03*
X144495205Y-74837568D03*
X119852533Y-103652170D03*
X120276797Y-103227905D03*
X120701061Y-102803641D03*
X121125325Y-102379377D03*
X121549590Y-101955113D03*
X121973854Y-101530849D03*
X122398118Y-101106585D03*
X122822382Y-100682321D03*
X123246646Y-100258057D03*
X123670910Y-99833793D03*
X124095174Y-99409529D03*
X124519438Y-98985265D03*
X124943702Y-98561001D03*
X125367966Y-98136737D03*
X125792230Y-97712473D03*
X126216494Y-97288209D03*
X126640758Y-96863944D03*
X127065022Y-96439680D03*
X127489286Y-96015416D03*
X127913551Y-95591152D03*
X128337815Y-95166888D03*
X128762079Y-94742624D03*
X129186343Y-94318360D03*
X129610607Y-93894096D03*
X130034871Y-93469832D03*
X130459135Y-93045568D03*
X130883399Y-92621304D03*
X131307663Y-92197040D03*
X131731927Y-91772776D03*
X132156191Y-91348512D03*
X132580455Y-90924248D03*
X133004719Y-90499983D03*
X133428983Y-90075719D03*
X133853248Y-89651455D03*
X134277512Y-89227191D03*
X134701776Y-88802927D03*
X135126040Y-88378663D03*
X136398832Y-87105871D03*
X136823096Y-86681607D03*
X137247360Y-86257343D03*
X137671624Y-85833079D03*
X138095888Y-85408815D03*
X138520152Y-84984551D03*
X138944416Y-84560286D03*
X139368680Y-84136022D03*
X139792944Y-83711758D03*
X140217209Y-83287494D03*
X140641473Y-82863230D03*
X141065737Y-82438966D03*
X141490001Y-82014702D03*
X141914265Y-81590438D03*
X142338529Y-81166174D03*
X142762793Y-80741910D03*
X143187057Y-80317646D03*
X143611321Y-79893382D03*
X144035585Y-79469118D03*
X144459849Y-79044854D03*
X144884113Y-78620590D03*
X145308377Y-78196325D03*
X145732641Y-77772061D03*
X146156905Y-77347797D03*
X146581170Y-76923533D03*
G04 #@! TD*
D14*
G04 #@! TO.C,C9*
X179635000Y-127065000D03*
X179635000Y-126105000D03*
G04 #@! TD*
D11*
G04 #@! TO.C,R16*
X137145000Y-141615000D03*
X137145000Y-140595000D03*
G04 #@! TD*
G04 #@! TO.C,R62*
X147145000Y-122615000D03*
X147145000Y-121595000D03*
G04 #@! TD*
D14*
G04 #@! TO.C,C37*
X145135000Y-123065000D03*
X145135000Y-122105000D03*
G04 #@! TD*
D11*
G04 #@! TO.C,R33*
X134645000Y-130615000D03*
X134645000Y-129595000D03*
G04 #@! TD*
D12*
G04 #@! TO.C,C16*
X104605000Y-113535000D03*
X105565000Y-113535000D03*
G04 #@! TD*
D14*
G04 #@! TO.C,C30*
X119635000Y-128265000D03*
X119635000Y-127305000D03*
G04 #@! TD*
G04 #@! TO.C,C28*
X153135000Y-130065000D03*
X153135000Y-129105000D03*
G04 #@! TD*
D11*
G04 #@! TO.C,R45*
X151145000Y-120615000D03*
X151145000Y-119595000D03*
G04 #@! TD*
G04 #@! TO.C,R56*
X168145000Y-140615000D03*
X168145000Y-139595000D03*
G04 #@! TD*
D28*
G04 #@! TO.C,C10*
X192655000Y-135825000D03*
X192655000Y-133925000D03*
G04 #@! TD*
D14*
G04 #@! TO.C,C25*
X151135000Y-130065000D03*
X151135000Y-129105000D03*
G04 #@! TD*
D28*
G04 #@! TO.C,C13*
X201155000Y-121025000D03*
X201155000Y-119125000D03*
G04 #@! TD*
D14*
G04 #@! TO.C,C33*
X121635000Y-128765000D03*
X121635000Y-127805000D03*
G04 #@! TD*
D11*
G04 #@! TO.C,R46*
X143145000Y-125615000D03*
X143145000Y-124595000D03*
G04 #@! TD*
D29*
G04 #@! TO.C,SW2*
X188000000Y-118125000D03*
X194000000Y-118125000D03*
X188000000Y-121875000D03*
X194000000Y-121875000D03*
G04 #@! TD*
D30*
G04 #@! TO.C,U5*
X176300000Y-130000000D03*
X176300000Y-130500000D03*
X176300000Y-131000000D03*
X176300000Y-131500000D03*
X176300000Y-132000000D03*
X180700000Y-132000000D03*
X180700000Y-131500000D03*
X180700000Y-131000000D03*
X180700000Y-130500000D03*
X180700000Y-130000000D03*
G04 #@! TD*
D13*
G04 #@! TO.C,R50*
X144095000Y-119645000D03*
X145115000Y-119645000D03*
G04 #@! TD*
G04 #@! TO.C,R35*
X141095000Y-119645000D03*
X142115000Y-119645000D03*
G04 #@! TD*
D28*
G04 #@! TO.C,C11*
X193155000Y-131325000D03*
X193155000Y-129425000D03*
G04 #@! TD*
D13*
G04 #@! TO.C,R20*
X153095000Y-119645000D03*
X154115000Y-119645000D03*
G04 #@! TD*
D22*
G04 #@! TO.C,D2*
X151600000Y-140000000D03*
X151600000Y-136000000D03*
G04 #@! TD*
D20*
G04 #@! TO.C,Q10*
X185925000Y-140042500D03*
X187825000Y-140042500D03*
X186875000Y-138167500D03*
G04 #@! TD*
D11*
G04 #@! TO.C,R60*
X145145000Y-126115000D03*
X145145000Y-125095000D03*
G04 #@! TD*
D13*
G04 #@! TO.C,R39*
X114595000Y-135345000D03*
X115615000Y-135345000D03*
G04 #@! TD*
D31*
G04 #@! TO.C,D9*
X166905000Y-135442500D03*
X166905000Y-133867500D03*
G04 #@! TD*
D14*
G04 #@! TO.C,C35*
X155135000Y-122565000D03*
X155135000Y-121605000D03*
G04 #@! TD*
D32*
G04 #@! TO.C,J6*
X170150000Y-146850000D03*
X168900000Y-146850000D03*
X167650000Y-146850000D03*
X166400000Y-146850000D03*
X165150000Y-146850000D03*
X163900000Y-146850000D03*
X162650000Y-146850000D03*
X161400000Y-146850000D03*
X160150000Y-146850000D03*
X158900000Y-146850000D03*
X157650000Y-146850000D03*
X156400000Y-146850000D03*
X155150000Y-146850000D03*
X153900000Y-146850000D03*
X152650000Y-146850000D03*
D33*
X172000000Y-150200000D03*
X150800000Y-150200000D03*
G04 #@! TD*
D20*
G04 #@! TO.C,Q9*
X163925000Y-140042500D03*
X165825000Y-140042500D03*
X164875000Y-138167500D03*
G04 #@! TD*
D34*
G04 #@! TO.C,U6*
X181862500Y-133050000D03*
X181862500Y-134000000D03*
X181862500Y-134950000D03*
X184137500Y-134950000D03*
X184137500Y-134000000D03*
X184137500Y-133050000D03*
G04 #@! TD*
D35*
G04 #@! TO.C,U4*
X117887500Y-137025000D03*
X117887500Y-137675000D03*
X117887500Y-138325000D03*
X117887500Y-138975000D03*
X122112500Y-138975000D03*
X122112500Y-138325000D03*
X122112500Y-137675000D03*
X122112500Y-137025000D03*
G04 #@! TD*
D18*
G04 #@! TO.C,D6*
X178367500Y-123105000D03*
X179942500Y-123105000D03*
G04 #@! TD*
D11*
G04 #@! TO.C,R58*
X159145000Y-130615000D03*
X159145000Y-129595000D03*
G04 #@! TD*
G04 #@! TO.C,R25*
X202145000Y-109115000D03*
X202145000Y-108095000D03*
G04 #@! TD*
D36*
G04 #@! TO.C,U8*
X156600000Y-142250000D03*
X156600000Y-142750000D03*
X156600000Y-143250000D03*
X156600000Y-143750000D03*
X159400000Y-143750000D03*
X159400000Y-143250000D03*
X159400000Y-142750000D03*
X159400000Y-142250000D03*
G04 #@! TD*
D13*
G04 #@! TO.C,R13*
X153095000Y-144145000D03*
X154115000Y-144145000D03*
G04 #@! TD*
D11*
G04 #@! TO.C,R40*
X107145000Y-136315000D03*
X107145000Y-135295000D03*
G04 #@! TD*
D20*
G04 #@! TO.C,Q1*
X196425000Y-121242500D03*
X198325000Y-121242500D03*
X197375000Y-119367500D03*
G04 #@! TD*
D14*
G04 #@! TO.C,C21*
X149135000Y-124065000D03*
X149135000Y-123105000D03*
G04 #@! TD*
D11*
G04 #@! TO.C,R30*
X184145000Y-119815000D03*
X184145000Y-118795000D03*
G04 #@! TD*
D37*
G04 #@! TO.C,L3*
X120337500Y-134500000D03*
X122462500Y-134500000D03*
G04 #@! TD*
D13*
G04 #@! TO.C,R19*
X192095000Y-124345000D03*
X193115000Y-124345000D03*
G04 #@! TD*
D11*
G04 #@! TO.C,R32*
X96145000Y-108015000D03*
X96145000Y-106995000D03*
G04 #@! TD*
D13*
G04 #@! TO.C,R26*
X178095000Y-118845000D03*
X179115000Y-118845000D03*
G04 #@! TD*
G04 #@! TO.C,R29*
X181095000Y-120845000D03*
X182115000Y-120845000D03*
G04 #@! TD*
D14*
G04 #@! TO.C,C26*
X153135000Y-127065000D03*
X153135000Y-126105000D03*
G04 #@! TD*
D38*
G04 #@! TO.C,J9*
X150908595Y-65291668D03*
X151332860Y-65715932D03*
X151757124Y-66140196D03*
X152181388Y-66564460D03*
X152605652Y-66988725D03*
X153029916Y-67412989D03*
X153454180Y-67837253D03*
X153878444Y-68261517D03*
X154302708Y-68685781D03*
X154726972Y-69110045D03*
X155151236Y-69534309D03*
X155575500Y-69958573D03*
X155999764Y-70382837D03*
X156424028Y-70807101D03*
X156848292Y-71231365D03*
X157272556Y-71655629D03*
X157696821Y-72079893D03*
X158121085Y-72504157D03*
X158545349Y-72928421D03*
X158969613Y-73352686D03*
X159393877Y-73776950D03*
X159818141Y-74201214D03*
X160242405Y-74625478D03*
X160666669Y-75049742D03*
X161090933Y-75474006D03*
X161515197Y-75898270D03*
X161939461Y-76322534D03*
X162363725Y-76746798D03*
X162787989Y-77171062D03*
X163212253Y-77595326D03*
X163636517Y-78019590D03*
X164060782Y-78443854D03*
X164485046Y-78868118D03*
X164909310Y-79292383D03*
X165333574Y-79716647D03*
X165757838Y-80140911D03*
X166182102Y-80565175D03*
X167454894Y-81837967D03*
X167879158Y-82262231D03*
X168303422Y-82686495D03*
X168727686Y-83110759D03*
X169151950Y-83535023D03*
X169576214Y-83959287D03*
X170000479Y-84383551D03*
X170424743Y-84807815D03*
X170849007Y-85232079D03*
X171273271Y-85656344D03*
X171697535Y-86080608D03*
X172121799Y-86504872D03*
X172546063Y-86929136D03*
X172970327Y-87353400D03*
X173394591Y-87777664D03*
X173818855Y-88201928D03*
X174243119Y-88626192D03*
X174667383Y-89050456D03*
X175091647Y-89474720D03*
X175515911Y-89898984D03*
X175940175Y-90323248D03*
X176364440Y-90747512D03*
X176788704Y-91171776D03*
X177212968Y-91596040D03*
X177637232Y-92020305D03*
X148822630Y-67377633D03*
X149246895Y-67801897D03*
X149671159Y-68226161D03*
X150095423Y-68650425D03*
X150519687Y-69074690D03*
X150943951Y-69498954D03*
X151368215Y-69923218D03*
X151792479Y-70347482D03*
X152216743Y-70771746D03*
X152641007Y-71196010D03*
X153065271Y-71620274D03*
X153489535Y-72044538D03*
X153913799Y-72468802D03*
X154338063Y-72893066D03*
X154762327Y-73317330D03*
X155186591Y-73741594D03*
X155610856Y-74165858D03*
X156035120Y-74590122D03*
X156459384Y-75014386D03*
X156883648Y-75438651D03*
X157307912Y-75862915D03*
X157732176Y-76287179D03*
X158156440Y-76711443D03*
X158580704Y-77135707D03*
X159004968Y-77559971D03*
X159429232Y-77984235D03*
X159853496Y-78408499D03*
X160277760Y-78832763D03*
X160702024Y-79257027D03*
X161126288Y-79681291D03*
X161550552Y-80105555D03*
X161974817Y-80529819D03*
X162399081Y-80954083D03*
X162823345Y-81378348D03*
X163247609Y-81802612D03*
X163671873Y-82226876D03*
X164096137Y-82651140D03*
X165368929Y-83923932D03*
X165793193Y-84348196D03*
X166217457Y-84772460D03*
X166641721Y-85196724D03*
X167065985Y-85620988D03*
X167490249Y-86045252D03*
X167914514Y-86469516D03*
X168338778Y-86893780D03*
X168763042Y-87318044D03*
X169187306Y-87742309D03*
X169611570Y-88166573D03*
X170035834Y-88590837D03*
X170460098Y-89015101D03*
X170884362Y-89439365D03*
X171308626Y-89863629D03*
X171732890Y-90287893D03*
X172157154Y-90712157D03*
X172581418Y-91136421D03*
X173005682Y-91560685D03*
X173429946Y-91984949D03*
X173854210Y-92409213D03*
X174278475Y-92833477D03*
X174702739Y-93257741D03*
X175127003Y-93682005D03*
X175551267Y-94106270D03*
G04 #@! TD*
D25*
G04 #@! TO.C,J4*
X142691674Y-64066043D03*
X143575557Y-63182159D03*
X144459441Y-62298276D03*
X145343324Y-61414392D03*
X146227208Y-60530509D03*
X147111091Y-59646625D03*
X147994975Y-58762742D03*
X148878858Y-57878858D03*
X149762742Y-56994975D03*
X150646625Y-56111091D03*
X151530509Y-55227208D03*
X152414392Y-54343324D03*
X153298276Y-53459441D03*
X154182159Y-52575557D03*
X155066043Y-51691674D03*
D26*
X139014719Y-63005382D03*
X154005382Y-48014719D03*
G04 #@! TD*
D14*
G04 #@! TO.C,C27*
X153135000Y-124065000D03*
X153135000Y-123105000D03*
G04 #@! TD*
D13*
G04 #@! TO.C,R36*
X121095000Y-118845000D03*
X122115000Y-118845000D03*
G04 #@! TD*
D14*
G04 #@! TO.C,C8*
X190135000Y-138565000D03*
X190135000Y-137605000D03*
G04 #@! TD*
D39*
G04 #@! TO.C,U2*
X98795000Y-124087500D03*
X100065000Y-124087500D03*
X101335000Y-124087500D03*
X102605000Y-124087500D03*
X102605000Y-116912500D03*
X101335000Y-116912500D03*
X100065000Y-116912500D03*
X98795000Y-116912500D03*
G04 #@! TD*
D13*
G04 #@! TO.C,R23*
X195095000Y-124345000D03*
X196115000Y-124345000D03*
G04 #@! TD*
D11*
G04 #@! TO.C,R5*
X179645000Y-135115000D03*
X179645000Y-134095000D03*
G04 #@! TD*
D23*
G04 #@! TO.C,Q6*
X146167500Y-133925000D03*
X146167500Y-135825000D03*
X148042500Y-134875000D03*
G04 #@! TD*
D11*
G04 #@! TO.C,R42*
X139145000Y-123115000D03*
X139145000Y-122095000D03*
G04 #@! TD*
D13*
G04 #@! TO.C,R1*
X182595000Y-137145000D03*
X183615000Y-137145000D03*
G04 #@! TD*
D19*
G04 #@! TO.C,C2*
X192425000Y-126655000D03*
X194325000Y-126655000D03*
G04 #@! TD*
D20*
G04 #@! TO.C,Q3*
X132925000Y-135042500D03*
X134825000Y-135042500D03*
X133875000Y-133167500D03*
G04 #@! TD*
D13*
G04 #@! TO.C,R8*
X146095000Y-131145000D03*
X147115000Y-131145000D03*
G04 #@! TD*
G04 #@! TO.C,R28*
X178095000Y-120845000D03*
X179115000Y-120845000D03*
G04 #@! TD*
D14*
G04 #@! TO.C,C1*
X147135000Y-128565000D03*
X147135000Y-127605000D03*
G04 #@! TD*
D11*
G04 #@! TO.C,R44*
X143145000Y-122615000D03*
X143145000Y-121595000D03*
G04 #@! TD*
G04 #@! TO.C,R9*
X141645000Y-136115000D03*
X141645000Y-135095000D03*
G04 #@! TD*
D40*
G04 #@! TO.C,J7*
X124700000Y-120750000D03*
X126100000Y-121000000D03*
X124700000Y-121250000D03*
X126100000Y-121500000D03*
X124700000Y-121750000D03*
X126100000Y-122000000D03*
X124700000Y-122250000D03*
X126100000Y-122500000D03*
X124700000Y-122750000D03*
X126100000Y-123000000D03*
X124700000Y-123250000D03*
X126100000Y-123500000D03*
X124700000Y-123750000D03*
X126100000Y-124000000D03*
X124700000Y-124250000D03*
X126100000Y-124500000D03*
X124700000Y-124750000D03*
X126100000Y-125000000D03*
X124700000Y-125250000D03*
X126100000Y-125500000D03*
X124700000Y-125750000D03*
X126100000Y-126000000D03*
X124700000Y-126250000D03*
X126100000Y-126500000D03*
X124700000Y-126750000D03*
X126100000Y-127000000D03*
X124700000Y-127250000D03*
X126100000Y-127500000D03*
X124700000Y-127750000D03*
X126100000Y-128000000D03*
X124700000Y-128250000D03*
X126100000Y-128500000D03*
X124700000Y-128750000D03*
X126100000Y-129000000D03*
X124700000Y-129250000D03*
X126100000Y-129500000D03*
X124700000Y-129750000D03*
X126100000Y-130000000D03*
X124700000Y-130250000D03*
X126100000Y-130500000D03*
X124700000Y-130750000D03*
X126100000Y-131000000D03*
X124700000Y-131250000D03*
X126100000Y-131500000D03*
X124700000Y-131750000D03*
X126100000Y-132000000D03*
X124700000Y-132250000D03*
X126100000Y-132500000D03*
X124700000Y-132750000D03*
X126100000Y-133000000D03*
X124700000Y-133250000D03*
X126100000Y-133500000D03*
X124700000Y-133750000D03*
X126100000Y-134000000D03*
X124700000Y-134250000D03*
X126100000Y-134500000D03*
X124700000Y-134750000D03*
X126100000Y-135000000D03*
X124700000Y-137250000D03*
X126100000Y-137500000D03*
X124700000Y-137750000D03*
X126100000Y-138000000D03*
X124700000Y-138250000D03*
X126100000Y-138500000D03*
X124700000Y-138750000D03*
X126100000Y-139000000D03*
X124700000Y-139250000D03*
D41*
X128000000Y-141500000D03*
X128000000Y-118500000D03*
G04 #@! TD*
D12*
G04 #@! TO.C,C20*
X134105000Y-140635000D03*
X135065000Y-140635000D03*
G04 #@! TD*
D28*
G04 #@! TO.C,C4*
X162155000Y-122825000D03*
X162155000Y-120925000D03*
G04 #@! TD*
D13*
G04 #@! TO.C,R38*
X100595000Y-126345000D03*
X101615000Y-126345000D03*
G04 #@! TD*
D14*
G04 #@! TO.C,C31*
X119635000Y-131265000D03*
X119635000Y-130305000D03*
G04 #@! TD*
D18*
G04 #@! TO.C,D8*
X161867500Y-142905000D03*
X163442500Y-142905000D03*
G04 #@! TD*
D28*
G04 #@! TO.C,C6*
X157655000Y-127325000D03*
X157655000Y-125425000D03*
G04 #@! TD*
D29*
G04 #@! TO.C,SW1*
X95500000Y-110125000D03*
X101500000Y-110125000D03*
X95500000Y-113875000D03*
X101500000Y-113875000D03*
G04 #@! TD*
D34*
G04 #@! TO.C,U7*
X181862500Y-125550000D03*
X181862500Y-126500000D03*
X181862500Y-127450000D03*
X184137500Y-127450000D03*
X184137500Y-126500000D03*
X184137500Y-125550000D03*
G04 #@! TD*
D35*
G04 #@! TO.C,U3*
X195387500Y-106025000D03*
X195387500Y-106675000D03*
X195387500Y-107325000D03*
X195387500Y-107975000D03*
X199612500Y-107975000D03*
X199612500Y-107325000D03*
X199612500Y-106675000D03*
X199612500Y-106025000D03*
G04 #@! TD*
D31*
G04 #@! TO.C,D10*
X161405000Y-130442500D03*
X161405000Y-128867500D03*
G04 #@! TD*
D11*
G04 #@! TO.C,R61*
X98145000Y-108015000D03*
X98145000Y-106995000D03*
G04 #@! TD*
D14*
G04 #@! TO.C,C22*
X149135000Y-130065000D03*
X149135000Y-129105000D03*
G04 #@! TD*
G04 #@! TO.C,C23*
X151135000Y-127065000D03*
X151135000Y-126105000D03*
G04 #@! TD*
D13*
G04 #@! TO.C,R12*
X163595000Y-135645000D03*
X164615000Y-135645000D03*
G04 #@! TD*
G04 #@! TO.C,R21*
X151595000Y-132645000D03*
X152615000Y-132645000D03*
G04 #@! TD*
D28*
G04 #@! TO.C,C15*
X104655000Y-111225000D03*
X104655000Y-109325000D03*
G04 #@! TD*
D42*
G04 #@! TO.C,R100*
X173537500Y-136000000D03*
X176462500Y-136000000D03*
G04 #@! TD*
D43*
G04 #@! TO.C,U1*
X109370000Y-125370000D03*
X109370000Y-126500000D03*
X109370000Y-127630000D03*
X110500000Y-125370000D03*
X110500000Y-126500000D03*
X110500000Y-127630000D03*
X111630000Y-125370000D03*
X111630000Y-126500000D03*
X111630000Y-127630000D03*
D44*
X105550000Y-122700000D03*
X105550000Y-123100000D03*
X105550000Y-123500000D03*
X105550000Y-123900000D03*
X105550000Y-124300000D03*
X105550000Y-124700000D03*
X105550000Y-125100000D03*
X105550000Y-125500000D03*
X105550000Y-125900000D03*
X105550000Y-126300000D03*
X105550000Y-126700000D03*
X105550000Y-127100000D03*
X105550000Y-127500000D03*
X105550000Y-127900000D03*
X105550000Y-128300000D03*
X105550000Y-128700000D03*
X105550000Y-129100000D03*
X105550000Y-129500000D03*
X105550000Y-129900000D03*
X105550000Y-130300000D03*
D45*
X106700000Y-131450000D03*
X107100000Y-131450000D03*
X107500000Y-131450000D03*
X107900000Y-131450000D03*
X108300000Y-131450000D03*
X108700000Y-131450000D03*
X109100000Y-131450000D03*
X109500000Y-131450000D03*
X109900000Y-131450000D03*
X110300000Y-131450000D03*
X110700000Y-131450000D03*
X111100000Y-131450000D03*
X111500000Y-131450000D03*
X111900000Y-131450000D03*
X112300000Y-131450000D03*
X112700000Y-131450000D03*
X113100000Y-131450000D03*
X113500000Y-131450000D03*
X113900000Y-131450000D03*
X114300000Y-131450000D03*
D44*
X115450000Y-130300000D03*
X115450000Y-129900000D03*
X115450000Y-129500000D03*
X115450000Y-129100000D03*
X115450000Y-128700000D03*
X115450000Y-128300000D03*
X115450000Y-127900000D03*
X115450000Y-127500000D03*
X115450000Y-127100000D03*
X115450000Y-126700000D03*
X115450000Y-126300000D03*
X115450000Y-125900000D03*
X115450000Y-125500000D03*
X115450000Y-125100000D03*
X115450000Y-124700000D03*
X115450000Y-124300000D03*
X115450000Y-123900000D03*
X115450000Y-123500000D03*
X115450000Y-123100000D03*
X115450000Y-122700000D03*
D45*
X114300000Y-121550000D03*
X113900000Y-121550000D03*
X113500000Y-121550000D03*
X113100000Y-121550000D03*
X112700000Y-121550000D03*
X112300000Y-121550000D03*
X111900000Y-121550000D03*
X111500000Y-121550000D03*
X111100000Y-121550000D03*
X110700000Y-121550000D03*
X110300000Y-121550000D03*
X109900000Y-121550000D03*
X109500000Y-121550000D03*
X109100000Y-121550000D03*
X108700000Y-121550000D03*
X108300000Y-121550000D03*
X107900000Y-121550000D03*
X107500000Y-121550000D03*
X107100000Y-121550000D03*
X106700000Y-121550000D03*
G04 #@! TD*
D19*
G04 #@! TO.C,C3*
X160425000Y-125655000D03*
X162325000Y-125655000D03*
G04 #@! TD*
D11*
G04 #@! TO.C,R15*
X139145000Y-133615000D03*
X139145000Y-132595000D03*
G04 #@! TD*
D46*
G04 #@! TO.C,J8*
X140600000Y-129075000D03*
X140600000Y-128075000D03*
X140600000Y-127075000D03*
D47*
X138075000Y-130375000D03*
X138075000Y-125775000D03*
G04 #@! TD*
D11*
G04 #@! TO.C,R63*
X147145000Y-125615000D03*
X147145000Y-124595000D03*
G04 #@! TD*
G04 #@! TO.C,R48*
X139145000Y-141615000D03*
X139145000Y-140595000D03*
G04 #@! TD*
D20*
G04 #@! TO.C,Q4*
X137425000Y-138042500D03*
X139325000Y-138042500D03*
X138375000Y-136167500D03*
G04 #@! TD*
D13*
G04 #@! TO.C,R10*
X141095000Y-133145000D03*
X142115000Y-133145000D03*
G04 #@! TD*
D20*
G04 #@! TO.C,Q5*
X142425000Y-141042500D03*
X144325000Y-141042500D03*
X143375000Y-139167500D03*
G04 #@! TD*
D11*
G04 #@! TO.C,R53*
X122145000Y-122815000D03*
X122145000Y-121795000D03*
G04 #@! TD*
D13*
G04 #@! TO.C,R31*
X182095000Y-122845000D03*
X183115000Y-122845000D03*
G04 #@! TD*
D11*
G04 #@! TO.C,R41*
X100145000Y-108015000D03*
X100145000Y-106995000D03*
G04 #@! TD*
D14*
G04 #@! TO.C,C12*
X178635000Y-138065000D03*
X178635000Y-137105000D03*
G04 #@! TD*
M02*
