G04 #@! TF.GenerationSoftware,KiCad,Pcbnew,9.0.2+dfsg-1*
G04 #@! TF.CreationDate,2026-10-04T09:34:05-04:00*
G04 #@! TF.ProjectId,panel_c50,70616e65-6c5f-4633-9530-2e6b69636164,rev?*
G04 #@! TF.SameCoordinates,Original*
G04 #@! TF.FileFunction,Paste,Top*
G04 #@! TF.FilePolarity,Positive*
%FSLAX46Y46*%
G04 Gerber Fmt 4.6, Leading zero omitted, Abs format (unit mm)*
G04 Created by KiCad (PCBNEW 9.0.2+dfsg-1) date 2026-10-04 09:34:05*
%MOMM*%
%LPD*%
G01*
G04 APERTURE LIST*
G04 Aperture macros list*
%AMRoundRect*
0 Rectangle with rounded corners*
0 $1 Rounding radius*
0 $2 $3 $4 $5 $6 $7 $8 $9 X,Y pos of 4 corners*
0 Add a 4 corners polygon primitive as box body*
4,1,4,$2,$3,$4,$5,$6,$7,$8,$9,$2,$3,0*
0 Add four circle primitives for the rounded corners*
1,1,$1+$1,$2,$3*
1,1,$1+$1,$4,$5*
1,1,$1+$1,$6,$7*
1,1,$1+$1,$8,$9*
0 Add four rect primitives between the rounded corners*
20,1,$1+$1,$2,$3,$4,$5,0*
20,1,$1+$1,$4,$5,$6,$7,0*
20,1,$1+$1,$6,$7,$8,$9,0*
20,1,$1+$1,$8,$9,$2,$3,0*%
G04 Aperture macros list end*
%ADD10RoundRect,0.057500X-0.057500X-0.292500X0.057500X-0.292500X0.057500X0.292500X-0.057500X0.292500X0*%
%ADD11R,0.300000X1.100000*%
%ADD12R,0.270000X1.300000*%
%ADD13O,1.800000X1.300000*%
%ADD14RoundRect,0.122500X0.122500X0.322500X-0.122500X0.322500X-0.122500X-0.322500X0.122500X-0.322500X0*%
%ADD15RoundRect,0.062500X0.372500X0.062500X-0.372500X0.062500X-0.372500X-0.062500X0.372500X-0.062500X0*%
%ADD16RoundRect,0.079500X-0.079500X-0.100500X0.079500X-0.100500X0.079500X0.100500X-0.079500X0.100500X0*%
G04 APERTURE END LIST*
D10*
G04 #@! TO.C,J2_C5*
X32876999Y-34700001D03*
X32876999Y-37300001D03*
X33276999Y-34700001D03*
X33276999Y-37300001D03*
X33676999Y-34700001D03*
X33676999Y-37300001D03*
X34076999Y-34700001D03*
X34076999Y-37300001D03*
X34476999Y-34700001D03*
X34476999Y-37300001D03*
X34876999Y-34700001D03*
X34876999Y-37300001D03*
X35276999Y-34700001D03*
X35276999Y-37300001D03*
X35676999Y-34700001D03*
X35676999Y-37300001D03*
X36076999Y-34700001D03*
X36076999Y-37300001D03*
X36476999Y-34700001D03*
X36476999Y-37300001D03*
X36876999Y-34700001D03*
X36876999Y-37300001D03*
X37276999Y-34700001D03*
X37276999Y-37300001D03*
X37676999Y-34700001D03*
X37676999Y-37300001D03*
X38076999Y-34700001D03*
X38076999Y-37300001D03*
X38476999Y-34700001D03*
X38476999Y-37300001D03*
X38876999Y-34700001D03*
X38876999Y-37300001D03*
X39276999Y-34700001D03*
X39276999Y-37300001D03*
X39676999Y-34700001D03*
X39676999Y-37300001D03*
X40076999Y-34700001D03*
X40076999Y-37300001D03*
X40476999Y-34700001D03*
X40476999Y-37300001D03*
X40876999Y-34700001D03*
X40876999Y-37300001D03*
X41276999Y-34700001D03*
X41276999Y-37300001D03*
X41676999Y-34700001D03*
X41676999Y-37300001D03*
X42076999Y-34700001D03*
X42076999Y-37300001D03*
X42476999Y-34700001D03*
X42476999Y-37300001D03*
G04 #@! TD*
D11*
G04 #@! TO.C,J1_H*
X22100000Y-51000001D03*
X21600000Y-45200001D03*
X21100000Y-51000001D03*
X20600000Y-45200001D03*
X20100000Y-51000001D03*
X19600000Y-45200001D03*
X19100000Y-51000001D03*
X18600000Y-45200001D03*
X18100000Y-51000001D03*
X17600000Y-45200001D03*
X17100000Y-51000001D03*
X16600000Y-45200001D03*
X16100000Y-51000001D03*
X15600000Y-45200001D03*
X15100000Y-51000001D03*
X14600000Y-45200001D03*
X14100000Y-51000001D03*
X13600000Y-45200001D03*
X13100000Y-51000001D03*
G04 #@! TD*
D12*
G04 #@! TO.C,J1_C3*
X11250000Y-22550001D03*
X11750000Y-22550001D03*
X12250000Y-22550001D03*
X12750000Y-22550001D03*
X13250000Y-22550001D03*
X13750000Y-22550001D03*
X14250000Y-22550001D03*
X14750000Y-22550001D03*
X15250000Y-22550001D03*
X15750000Y-22550001D03*
X16250000Y-22550001D03*
X16750000Y-22550001D03*
X16750000Y-25850001D03*
X16250000Y-25850001D03*
X15750000Y-25850001D03*
X15250000Y-25850001D03*
X14750000Y-25850001D03*
X14250000Y-25850001D03*
X13750000Y-25850001D03*
X13250000Y-25850001D03*
X12750000Y-25850001D03*
X12250000Y-25850001D03*
X11750000Y-25850001D03*
X11250000Y-25850001D03*
D13*
X9900000Y-22730001D03*
X9900000Y-25670001D03*
X18100000Y-22730001D03*
X18100000Y-25670001D03*
G04 #@! TD*
D10*
G04 #@! TO.C,J2_C4*
X74983999Y-22900001D03*
X74983999Y-25500001D03*
X75383999Y-22900001D03*
X75383999Y-25500001D03*
X75783999Y-22900001D03*
X75783999Y-25500001D03*
X76183999Y-22900001D03*
X76183999Y-25500001D03*
X76583999Y-22900001D03*
X76583999Y-25500001D03*
X76983999Y-22900001D03*
X76983999Y-25500001D03*
X77383999Y-22900001D03*
X77383999Y-25500001D03*
X77783999Y-22900001D03*
X77783999Y-25500001D03*
X78183999Y-22900001D03*
X78183999Y-25500001D03*
X78583999Y-22900001D03*
X78583999Y-25500001D03*
X78983999Y-22900001D03*
X78983999Y-25500001D03*
X79383999Y-22900001D03*
X79383999Y-25500001D03*
X79783999Y-22900001D03*
X79783999Y-25500001D03*
X80183999Y-22900001D03*
X80183999Y-25500001D03*
X80583999Y-22900001D03*
X80583999Y-25500001D03*
X80983999Y-22900001D03*
X80983999Y-25500001D03*
X81383999Y-22900001D03*
X81383999Y-25500001D03*
X81783999Y-22900001D03*
X81783999Y-25500001D03*
X82183999Y-22900001D03*
X82183999Y-25500001D03*
X82583999Y-22900001D03*
X82583999Y-25500001D03*
X82983999Y-22900001D03*
X82983999Y-25500001D03*
X83383999Y-22900001D03*
X83383999Y-25500001D03*
X83783999Y-22900001D03*
X83783999Y-25500001D03*
X84183999Y-22900001D03*
X84183999Y-25500001D03*
X84583999Y-22900001D03*
X84583999Y-25500001D03*
G04 #@! TD*
D14*
G04 #@! TO.C,U1_C2*
X87519000Y-12950000D03*
X87519000Y-11850000D03*
D15*
X88459000Y-13150000D03*
X88459000Y-12650000D03*
X88459000Y-12150000D03*
X88459000Y-11650000D03*
X86579000Y-11650000D03*
X86579000Y-12150000D03*
X86579000Y-12650000D03*
X86579000Y-13150000D03*
G04 #@! TD*
D10*
G04 #@! TO.C,J2_C6*
X74983999Y-34700001D03*
X74983999Y-37300001D03*
X75383999Y-34700001D03*
X75383999Y-37300001D03*
X75783999Y-34700001D03*
X75783999Y-37300001D03*
X76183999Y-34700001D03*
X76183999Y-37300001D03*
X76583999Y-34700001D03*
X76583999Y-37300001D03*
X76983999Y-34700001D03*
X76983999Y-37300001D03*
X77383999Y-34700001D03*
X77383999Y-37300001D03*
X77783999Y-34700001D03*
X77783999Y-37300001D03*
X78183999Y-34700001D03*
X78183999Y-37300001D03*
X78583999Y-34700001D03*
X78583999Y-37300001D03*
X78983999Y-34700001D03*
X78983999Y-37300001D03*
X79383999Y-34700001D03*
X79383999Y-37300001D03*
X79783999Y-34700001D03*
X79783999Y-37300001D03*
X80183999Y-34700001D03*
X80183999Y-37300001D03*
X80583999Y-34700001D03*
X80583999Y-37300001D03*
X80983999Y-34700001D03*
X80983999Y-37300001D03*
X81383999Y-34700001D03*
X81383999Y-37300001D03*
X81783999Y-34700001D03*
X81783999Y-37300001D03*
X82183999Y-34700001D03*
X82183999Y-37300001D03*
X82583999Y-34700001D03*
X82583999Y-37300001D03*
X82983999Y-34700001D03*
X82983999Y-37300001D03*
X83383999Y-34700001D03*
X83383999Y-37300001D03*
X83783999Y-34700001D03*
X83783999Y-37300001D03*
X84183999Y-34700001D03*
X84183999Y-37300001D03*
X84583999Y-34700001D03*
X84583999Y-37300001D03*
G04 #@! TD*
D14*
G04 #@! TO.C,U1_C6*
X87519000Y-36550001D03*
X87519000Y-35450001D03*
D15*
X88459000Y-36750001D03*
X88459000Y-36250001D03*
X88459000Y-35750001D03*
X88459000Y-35250001D03*
X86579000Y-35250001D03*
X86579000Y-35750001D03*
X86579000Y-36250001D03*
X86579000Y-36750001D03*
G04 #@! TD*
D16*
G04 #@! TO.C,C1_C2*
X86574000Y-14800000D03*
X87264000Y-14800000D03*
G04 #@! TD*
G04 #@! TO.C,C1_C3*
X44467000Y-26600001D03*
X45157000Y-26600001D03*
G04 #@! TD*
D10*
G04 #@! TO.C,J2_H*
X37929000Y-46800001D03*
X37929000Y-49400001D03*
X38329000Y-46800001D03*
X38329000Y-49400001D03*
X38729000Y-46800001D03*
X38729000Y-49400001D03*
X39129000Y-46800001D03*
X39129000Y-49400001D03*
X39529000Y-46800001D03*
X39529000Y-49400001D03*
X39929000Y-46800001D03*
X39929000Y-49400001D03*
X40329000Y-46800001D03*
X40329000Y-49400001D03*
X40729000Y-46800001D03*
X40729000Y-49400001D03*
X41129000Y-46800001D03*
X41129000Y-49400001D03*
X41529000Y-46800001D03*
X41529000Y-49400001D03*
X41929000Y-46800001D03*
X41929000Y-49400001D03*
X42329000Y-46800001D03*
X42329000Y-49400001D03*
X42729000Y-46800001D03*
X42729000Y-49400001D03*
X43129000Y-46800001D03*
X43129000Y-49400001D03*
X43529000Y-46800001D03*
X43529000Y-49400001D03*
X43929000Y-46800001D03*
X43929000Y-49400001D03*
X44329000Y-46800001D03*
X44329000Y-49400001D03*
X44729000Y-46800001D03*
X44729000Y-49400001D03*
X45129000Y-46800001D03*
X45129000Y-49400001D03*
X45529000Y-46800001D03*
X45529000Y-49400001D03*
X45929000Y-46800001D03*
X45929000Y-49400001D03*
X46329000Y-46800001D03*
X46329000Y-49400001D03*
X46729000Y-46800001D03*
X46729000Y-49400001D03*
X47129000Y-46800001D03*
X47129000Y-49400001D03*
X47529000Y-46800001D03*
X47529000Y-49400001D03*
G04 #@! TD*
D16*
G04 #@! TO.C,C1_H*
X49519000Y-50500001D03*
X50209000Y-50500001D03*
G04 #@! TD*
D14*
G04 #@! TO.C,U1_C4*
X87519000Y-24750001D03*
X87519000Y-23650001D03*
D15*
X88459000Y-24950001D03*
X88459000Y-24450001D03*
X88459000Y-23950001D03*
X88459000Y-23450001D03*
X86579000Y-23450001D03*
X86579000Y-23950001D03*
X86579000Y-24450001D03*
X86579000Y-24950001D03*
G04 #@! TD*
D16*
G04 #@! TO.C,C1_C6*
X86574000Y-38400001D03*
X87264000Y-38400001D03*
G04 #@! TD*
D14*
G04 #@! TO.C,U1_C1*
X45412000Y-12950000D03*
X45412000Y-11850000D03*
D15*
X46352000Y-13150000D03*
X46352000Y-12650000D03*
X46352000Y-12150000D03*
X46352000Y-11650000D03*
X44472000Y-11650000D03*
X44472000Y-12150000D03*
X44472000Y-12650000D03*
X44472000Y-13150000D03*
G04 #@! TD*
D12*
G04 #@! TO.C,J1_C2*
X53357000Y-10750000D03*
X53857000Y-10750000D03*
X54357000Y-10750000D03*
X54857000Y-10750000D03*
X55357000Y-10750000D03*
X55857000Y-10750000D03*
X56357000Y-10750000D03*
X56857000Y-10750000D03*
X57357000Y-10750000D03*
X57857000Y-10750000D03*
X58357000Y-10750000D03*
X58857000Y-10750000D03*
X58857000Y-14050000D03*
X58357000Y-14050000D03*
X57857000Y-14050000D03*
X57357000Y-14050000D03*
X56857000Y-14050000D03*
X56357000Y-14050000D03*
X55857000Y-14050000D03*
X55357000Y-14050000D03*
X54857000Y-14050000D03*
X54357000Y-14050000D03*
X53857000Y-14050000D03*
X53357000Y-14050000D03*
D13*
X52007000Y-10930000D03*
X52007000Y-13870000D03*
X60207000Y-10930000D03*
X60207000Y-13870000D03*
G04 #@! TD*
D14*
G04 #@! TO.C,U1_C3*
X45412000Y-24750001D03*
X45412000Y-23650001D03*
D15*
X46352000Y-24950001D03*
X46352000Y-24450001D03*
X46352000Y-23950001D03*
X46352000Y-23450001D03*
X44472000Y-23450001D03*
X44472000Y-23950001D03*
X44472000Y-24450001D03*
X44472000Y-24950001D03*
G04 #@! TD*
D12*
G04 #@! TO.C,J1_C1*
X11250000Y-10750000D03*
X11750000Y-10750000D03*
X12250000Y-10750000D03*
X12750000Y-10750000D03*
X13250000Y-10750000D03*
X13750000Y-10750000D03*
X14250000Y-10750000D03*
X14750000Y-10750000D03*
X15250000Y-10750000D03*
X15750000Y-10750000D03*
X16250000Y-10750000D03*
X16750000Y-10750000D03*
X16750000Y-14050000D03*
X16250000Y-14050000D03*
X15750000Y-14050000D03*
X15250000Y-14050000D03*
X14750000Y-14050000D03*
X14250000Y-14050000D03*
X13750000Y-14050000D03*
X13250000Y-14050000D03*
X12750000Y-14050000D03*
X12250000Y-14050000D03*
X11750000Y-14050000D03*
X11250000Y-14050000D03*
D13*
X9900000Y-10930000D03*
X9900000Y-13870000D03*
X18100000Y-10930000D03*
X18100000Y-13870000D03*
G04 #@! TD*
D12*
G04 #@! TO.C,J1_C4*
X53357000Y-22550001D03*
X53857000Y-22550001D03*
X54357000Y-22550001D03*
X54857000Y-22550001D03*
X55357000Y-22550001D03*
X55857000Y-22550001D03*
X56357000Y-22550001D03*
X56857000Y-22550001D03*
X57357000Y-22550001D03*
X57857000Y-22550001D03*
X58357000Y-22550001D03*
X58857000Y-22550001D03*
X58857000Y-25850001D03*
X58357000Y-25850001D03*
X57857000Y-25850001D03*
X57357000Y-25850001D03*
X56857000Y-25850001D03*
X56357000Y-25850001D03*
X55857000Y-25850001D03*
X55357000Y-25850001D03*
X54857000Y-25850001D03*
X54357000Y-25850001D03*
X53857000Y-25850001D03*
X53357000Y-25850001D03*
D13*
X52007000Y-22730001D03*
X52007000Y-25670001D03*
X60207000Y-22730001D03*
X60207000Y-25670001D03*
G04 #@! TD*
D10*
G04 #@! TO.C,J2_C3*
X32876999Y-22900001D03*
X32876999Y-25500001D03*
X33276999Y-22900001D03*
X33276999Y-25500001D03*
X33676999Y-22900001D03*
X33676999Y-25500001D03*
X34076999Y-22900001D03*
X34076999Y-25500001D03*
X34476999Y-22900001D03*
X34476999Y-25500001D03*
X34876999Y-22900001D03*
X34876999Y-25500001D03*
X35276999Y-22900001D03*
X35276999Y-25500001D03*
X35676999Y-22900001D03*
X35676999Y-25500001D03*
X36076999Y-22900001D03*
X36076999Y-25500001D03*
X36476999Y-22900001D03*
X36476999Y-25500001D03*
X36876999Y-22900001D03*
X36876999Y-25500001D03*
X37276999Y-22900001D03*
X37276999Y-25500001D03*
X37676999Y-22900001D03*
X37676999Y-25500001D03*
X38076999Y-22900001D03*
X38076999Y-25500001D03*
X38476999Y-22900001D03*
X38476999Y-25500001D03*
X38876999Y-22900001D03*
X38876999Y-25500001D03*
X39276999Y-22900001D03*
X39276999Y-25500001D03*
X39676999Y-22900001D03*
X39676999Y-25500001D03*
X40076999Y-22900001D03*
X40076999Y-25500001D03*
X40476999Y-22900001D03*
X40476999Y-25500001D03*
X40876999Y-22900001D03*
X40876999Y-25500001D03*
X41276999Y-22900001D03*
X41276999Y-25500001D03*
X41676999Y-22900001D03*
X41676999Y-25500001D03*
X42076999Y-22900001D03*
X42076999Y-25500001D03*
X42476999Y-22900001D03*
X42476999Y-25500001D03*
G04 #@! TD*
G04 #@! TO.C,J2_C2*
X74983999Y-11100000D03*
X74983999Y-13700000D03*
X75383999Y-11100000D03*
X75383999Y-13700000D03*
X75783999Y-11100000D03*
X75783999Y-13700000D03*
X76183999Y-11100000D03*
X76183999Y-13700000D03*
X76583999Y-11100000D03*
X76583999Y-13700000D03*
X76983999Y-11100000D03*
X76983999Y-13700000D03*
X77383999Y-11100000D03*
X77383999Y-13700000D03*
X77783999Y-11100000D03*
X77783999Y-13700000D03*
X78183999Y-11100000D03*
X78183999Y-13700000D03*
X78583999Y-11100000D03*
X78583999Y-13700000D03*
X78983999Y-11100000D03*
X78983999Y-13700000D03*
X79383999Y-11100000D03*
X79383999Y-13700000D03*
X79783999Y-11100000D03*
X79783999Y-13700000D03*
X80183999Y-11100000D03*
X80183999Y-13700000D03*
X80583999Y-11100000D03*
X80583999Y-13700000D03*
X80983999Y-11100000D03*
X80983999Y-13700000D03*
X81383999Y-11100000D03*
X81383999Y-13700000D03*
X81783999Y-11100000D03*
X81783999Y-13700000D03*
X82183999Y-11100000D03*
X82183999Y-13700000D03*
X82583999Y-11100000D03*
X82583999Y-13700000D03*
X82983999Y-11100000D03*
X82983999Y-13700000D03*
X83383999Y-11100000D03*
X83383999Y-13700000D03*
X83783999Y-11100000D03*
X83783999Y-13700000D03*
X84183999Y-11100000D03*
X84183999Y-13700000D03*
X84583999Y-11100000D03*
X84583999Y-13700000D03*
G04 #@! TD*
D16*
G04 #@! TO.C,C1_C1*
X44467000Y-14800000D03*
X45157000Y-14800000D03*
G04 #@! TD*
G04 #@! TO.C,C1_C5*
X44467000Y-38400001D03*
X45157000Y-38400001D03*
G04 #@! TD*
G04 #@! TO.C,C1_C4*
X86574000Y-26600001D03*
X87264000Y-26600001D03*
G04 #@! TD*
D12*
G04 #@! TO.C,J1_C5*
X11250000Y-34350001D03*
X11750000Y-34350001D03*
X12250000Y-34350001D03*
X12750000Y-34350001D03*
X13250000Y-34350001D03*
X13750000Y-34350001D03*
X14250000Y-34350001D03*
X14750000Y-34350001D03*
X15250000Y-34350001D03*
X15750000Y-34350001D03*
X16250000Y-34350001D03*
X16750000Y-34350001D03*
X16750000Y-37650001D03*
X16250000Y-37650001D03*
X15750000Y-37650001D03*
X15250000Y-37650001D03*
X14750000Y-37650001D03*
X14250000Y-37650001D03*
X13750000Y-37650001D03*
X13250000Y-37650001D03*
X12750000Y-37650001D03*
X12250000Y-37650001D03*
X11750000Y-37650001D03*
X11250000Y-37650001D03*
D13*
X9900000Y-34530001D03*
X9900000Y-37470001D03*
X18100000Y-34530001D03*
X18100000Y-37470001D03*
G04 #@! TD*
D14*
G04 #@! TO.C,U1_H*
X50464000Y-48650001D03*
X50464000Y-47550001D03*
D15*
X51404000Y-48850001D03*
X51404000Y-48350001D03*
X51404000Y-47850001D03*
X51404000Y-47350001D03*
X49524000Y-47350001D03*
X49524000Y-47850001D03*
X49524000Y-48350001D03*
X49524000Y-48850001D03*
G04 #@! TD*
D10*
G04 #@! TO.C,J2_C1*
X32876999Y-11100000D03*
X32876999Y-13700000D03*
X33276999Y-11100000D03*
X33276999Y-13700000D03*
X33676999Y-11100000D03*
X33676999Y-13700000D03*
X34076999Y-11100000D03*
X34076999Y-13700000D03*
X34476999Y-11100000D03*
X34476999Y-13700000D03*
X34876999Y-11100000D03*
X34876999Y-13700000D03*
X35276999Y-11100000D03*
X35276999Y-13700000D03*
X35676999Y-11100000D03*
X35676999Y-13700000D03*
X36076999Y-11100000D03*
X36076999Y-13700000D03*
X36476999Y-11100000D03*
X36476999Y-13700000D03*
X36876999Y-11100000D03*
X36876999Y-13700000D03*
X37276999Y-11100000D03*
X37276999Y-13700000D03*
X37676999Y-11100000D03*
X37676999Y-13700000D03*
X38076999Y-11100000D03*
X38076999Y-13700000D03*
X38476999Y-11100000D03*
X38476999Y-13700000D03*
X38876999Y-11100000D03*
X38876999Y-13700000D03*
X39276999Y-11100000D03*
X39276999Y-13700000D03*
X39676999Y-11100000D03*
X39676999Y-13700000D03*
X40076999Y-11100000D03*
X40076999Y-13700000D03*
X40476999Y-11100000D03*
X40476999Y-13700000D03*
X40876999Y-11100000D03*
X40876999Y-13700000D03*
X41276999Y-11100000D03*
X41276999Y-13700000D03*
X41676999Y-11100000D03*
X41676999Y-13700000D03*
X42076999Y-11100000D03*
X42076999Y-13700000D03*
X42476999Y-11100000D03*
X42476999Y-13700000D03*
G04 #@! TD*
D12*
G04 #@! TO.C,J1_C6*
X53357000Y-34350001D03*
X53857000Y-34350001D03*
X54357000Y-34350001D03*
X54857000Y-34350001D03*
X55357000Y-34350001D03*
X55857000Y-34350001D03*
X56357000Y-34350001D03*
X56857000Y-34350001D03*
X57357000Y-34350001D03*
X57857000Y-34350001D03*
X58357000Y-34350001D03*
X58857000Y-34350001D03*
X58857000Y-37650001D03*
X58357000Y-37650001D03*
X57857000Y-37650001D03*
X57357000Y-37650001D03*
X56857000Y-37650001D03*
X56357000Y-37650001D03*
X55857000Y-37650001D03*
X55357000Y-37650001D03*
X54857000Y-37650001D03*
X54357000Y-37650001D03*
X53857000Y-37650001D03*
X53357000Y-37650001D03*
D13*
X52007000Y-34530001D03*
X52007000Y-37470001D03*
X60207000Y-34530001D03*
X60207000Y-37470001D03*
G04 #@! TD*
D14*
G04 #@! TO.C,U1_C5*
X45412000Y-36550001D03*
X45412000Y-35450001D03*
D15*
X46352000Y-36750001D03*
X46352000Y-36250001D03*
X46352000Y-35750001D03*
X46352000Y-35250001D03*
X44472000Y-35250001D03*
X44472000Y-35750001D03*
X44472000Y-36250001D03*
X44472000Y-36750001D03*
G04 #@! TD*
M02*
