G04 #@! TF.GenerationSoftware,KiCad,Pcbnew,9.0.2+dfsg-1*
G04 #@! TF.CreationDate,2026-10-04T09:34:05-04:00*
G04 #@! TF.ProjectId,panel_c50,70616e65-6c5f-4633-9530-2e6b69636164,rev?*
G04 #@! TF.SameCoordinates,Original*
G04 #@! TF.FileFunction,Soldermask,Bot*
G04 #@! TF.FilePolarity,Negative*
%FSLAX46Y46*%
G04 Gerber Fmt 4.6, Leading zero omitted, Abs format (unit mm)*
G04 Created by KiCad (PCBNEW 9.0.2+dfsg-1) date 2026-10-04 09:34:05*
%MOMM*%
%LPD*%
G01*
G04 APERTURE LIST*
%ADD10O,1.100000X1.900000*%
%ADD11C,0.600000*%
%ADD12O,1.800000X1.300000*%
%ADD13C,2.000000*%
G04 APERTURE END LIST*
D10*
G04 #@! TO.C,J1_H*
X25450000Y-49700001D03*
X25450000Y-46500001D03*
X9750000Y-49700001D03*
X9750000Y-46500001D03*
G04 #@! TD*
D11*
G04 #@! TO.C,J1_C3*
X8500000Y-22900001D03*
X19500000Y-25500001D03*
D12*
X9900000Y-22730001D03*
X9900000Y-25670001D03*
X18100000Y-22730001D03*
X18100000Y-25670001D03*
G04 #@! TD*
D13*
G04 #@! TO.C,TH3*
X2500000Y-95300000D03*
G04 #@! TD*
G04 #@! TO.C,TH1*
X2500000Y-2500000D03*
G04 #@! TD*
G04 #@! TO.C,TH2*
X94714000Y-2500000D03*
G04 #@! TD*
G04 #@! TO.C,TH4*
X89714000Y-95300000D03*
G04 #@! TD*
D11*
G04 #@! TO.C,J1_C2*
X50607000Y-11100000D03*
X61607000Y-13700000D03*
D12*
X52007000Y-10930000D03*
X52007000Y-13870000D03*
X60207000Y-10930000D03*
X60207000Y-13870000D03*
G04 #@! TD*
D11*
G04 #@! TO.C,J1_C1*
X8500000Y-11100000D03*
X19500000Y-13700000D03*
D12*
X9900000Y-10930000D03*
X9900000Y-13870000D03*
X18100000Y-10930000D03*
X18100000Y-13870000D03*
G04 #@! TD*
D11*
G04 #@! TO.C,J1_C4*
X50607000Y-22900001D03*
X61607000Y-25500001D03*
D12*
X52007000Y-22730001D03*
X52007000Y-25670001D03*
X60207000Y-22730001D03*
X60207000Y-25670001D03*
G04 #@! TD*
D11*
G04 #@! TO.C,J1_C5*
X8500000Y-34700001D03*
X19500000Y-37300001D03*
D12*
X9900000Y-34530001D03*
X9900000Y-37470001D03*
X18100000Y-34530001D03*
X18100000Y-37470001D03*
G04 #@! TD*
D11*
G04 #@! TO.C,J1_C6*
X50607000Y-34700001D03*
X61607000Y-37300001D03*
D12*
X52007000Y-34530001D03*
X52007000Y-37470001D03*
X60207000Y-34530001D03*
X60207000Y-37470001D03*
G04 #@! TD*
M02*
