%TF.GenerationSoftware,KiCad,Pcbnew,9.0.2+dfsg-1*%
%TF.CreationDate,2026-10-04T09:34:06-04:00*%
%TF.ProjectId,panel_c50,70616e65-6c5f-4633-9530-2e6b69636164,rev?*%
%TF.SameCoordinates,Original*%
%TF.FileFunction,Drillmap*%
%TF.FilePolarity,Positive*%
%FSLAX45Y45*%
G04 Gerber Fmt 4.5, Leading zero omitted, Abs format (unit mm)*
G04 Created by KiCad (PCBNEW 9.0.2+dfsg-1) date 2026-10-04 09:34:06*
%MOMM*%
%LPD*%
G01*
G04 APERTURE LIST*
%ADD10C,0.050000*%
%ADD11C,0.200000*%
%ADD12C,0.100000*%
G04 APERTURE END LIST*
D10*
X8914303Y-1951172D02*
X8968620Y-1968821D01*
X4222900Y-5280000D02*
X2866522Y-5280000D01*
X5017797Y-651172D02*
X5047768Y-650000D01*
X9721400Y-9780000D02*
X9721400Y0D01*
X800000Y-3200000D02*
X800000Y-3550000D01*
X5560700Y-3160000D02*
X5050700Y-3160000D01*
X4710700Y-1520000D02*
X4710700Y-1290000D01*
X2033703Y-3279754D02*
X2021727Y-3275862D01*
X651172Y-1987097D02*
X668821Y-1932780D01*
X5660700Y-650000D02*
X6173631Y-650000D01*
X6341879Y-752780D02*
X6347474Y-770000D01*
X6306549Y-1775849D02*
X6257920Y-1811179D01*
X2033703Y-919754D02*
X2021727Y-915862D01*
X2866522Y-5280000D02*
X2851179Y-5327220D01*
X1988461Y-1991539D02*
X1978273Y-1984138D01*
X3717700Y-3130000D02*
X3717700Y-3280000D01*
X6210454Y-2013704D02*
X6206562Y-2001727D01*
X800000Y-840000D02*
X800000Y-1190000D01*
X4222900Y-4340000D02*
X4222900Y-4490000D01*
X6244404Y-3279754D02*
X6232427Y-3275862D01*
X3817700Y-2740000D02*
X4670700Y-2740000D01*
X9070228Y-3287097D02*
X9071400Y-3317068D01*
X4706562Y-941727D02*
X4699161Y-931539D01*
X5660700Y-1680000D02*
X6170700Y-1680000D01*
X4676996Y-2100246D02*
X4670700Y-2100000D01*
X9070228Y-2732903D02*
X9052579Y-2787220D01*
X6210946Y-3953704D02*
X6214838Y-3941727D01*
X2047220Y-668821D02*
X2095849Y-704151D01*
X6222239Y-2088461D02*
X6214838Y-2078273D01*
X2866522Y-4340000D02*
X4222900Y-4340000D01*
X1960000Y-1980000D02*
X1450000Y-1980000D01*
X6244404Y-2740246D02*
X6250700Y-2740000D01*
X4806549Y-824151D02*
X4841879Y-872780D01*
X800000Y-4760000D02*
X650000Y-4760000D01*
X650000Y-5242932D02*
X650000Y-4860000D01*
X650000Y-3197068D02*
X651172Y-3167097D01*
X4914851Y-4135849D02*
X4879521Y-4087220D01*
X4860700Y-2017068D02*
X4861872Y-1987097D01*
X2011539Y-908461D02*
X2004138Y-898273D01*
X6257920Y-3028821D02*
X6306549Y-3064151D01*
X2011539Y-3931539D02*
X2021727Y-3924138D01*
X800000Y-2370000D02*
X650000Y-2370000D01*
X5390000Y-5580000D02*
X2010000Y-5580000D01*
X4859528Y-1552903D02*
X4841879Y-1607220D01*
X3717700Y-920000D02*
X2040000Y-920000D01*
X6206562Y-2001727D02*
X6199161Y-1991539D01*
X0Y0D02*
X0Y-9780000D01*
X2731539Y-4478461D02*
X2724138Y-4468273D01*
X2136775Y-770000D02*
X3717700Y-770000D01*
X5044404Y-2859754D02*
X5050700Y-2860000D01*
X4710454Y-3886296D02*
X4710700Y-3880000D01*
X650000Y-4377068D02*
X651172Y-4347097D01*
X6222239Y-2751539D02*
X6232427Y-2744138D01*
X5365900Y-4527390D02*
X5365900Y-4760000D01*
X2724138Y-4468273D02*
X2720246Y-4456296D01*
X5211787Y-5108285D02*
X5215681Y-5096301D01*
X9071400Y-2470000D02*
X9071400Y-2702932D01*
X5211787Y-4511715D02*
X5204380Y-4501520D01*
X6347474Y-4070000D02*
X6341879Y-4087220D01*
X6176996Y-2859754D02*
X6188973Y-2855862D01*
X6214838Y-898273D02*
X6210946Y-886296D01*
X1966296Y-2859754D02*
X1978273Y-2855862D01*
X704151Y-5375849D02*
X668821Y-5327220D01*
X5263132Y-4358796D02*
X5311768Y-4394132D01*
X9070228Y-927097D02*
X9071400Y-957068D01*
X4860700Y-4002931D02*
X4860700Y-3882931D01*
X2712903Y-4191172D02*
X2767220Y-4208821D01*
X3717700Y-2100000D02*
X2040000Y-2100000D01*
X5194185Y-5125887D02*
X5204380Y-5118480D01*
X4706562Y-3898273D02*
X4710454Y-3886296D01*
X6199161Y-2848461D02*
X6206562Y-2838273D01*
X9071400Y-2370000D02*
X8921400Y-2370000D01*
X3717700Y-770000D02*
X3717700Y-920000D01*
X651172Y-5272903D02*
X650000Y-5242932D01*
X4676996Y-3919754D02*
X4688973Y-3915862D01*
X1962931Y-1830000D02*
X1992903Y-1831172D01*
X2095849Y-2955849D02*
X2047220Y-2991179D01*
X2004138Y-2761727D02*
X2011539Y-2751539D01*
X5050700Y-1680000D02*
X5560700Y-1680000D01*
X1350000Y-800000D02*
X840000Y-800000D01*
X1710000Y-5580000D02*
X800000Y-5580000D01*
X6176996Y-800246D02*
X6170700Y-800000D01*
X2010000Y-5280000D02*
X2680000Y-5280000D01*
X9071400Y-1190000D02*
X8921400Y-1190000D01*
X2011539Y-3268461D02*
X2004138Y-3258273D01*
X752780Y-1848821D02*
X807097Y-1831172D01*
X5010946Y-833704D02*
X5010700Y-840000D01*
X4841879Y-2787220D02*
X4806549Y-2835849D01*
X807097Y-3008828D02*
X752780Y-2991179D01*
X6222239Y-1571539D02*
X6232427Y-1564138D01*
X2000000Y-2780000D02*
X2000246Y-2773704D01*
X5010700Y-2370000D02*
X4710700Y-2370000D01*
X800000Y-1640000D02*
X800246Y-1646296D01*
X8921154Y-2706296D02*
X8921400Y-2700000D01*
X2021727Y-2744138D02*
X2033703Y-2740246D01*
X6232427Y-2095862D02*
X6222239Y-2088461D01*
X6600000Y-8980000D02*
X6600000Y-7330000D01*
X4806549Y-3184151D02*
X4841879Y-3232780D01*
X8028400Y-770000D02*
X8884332Y-770000D01*
X807097Y-1831172D02*
X837068Y-1830000D01*
X2715862Y-5258273D02*
X2719754Y-5246296D01*
X821727Y-1675862D02*
X833703Y-1679754D01*
X650000Y-1190000D02*
X650000Y-837068D01*
X7928400Y-2890000D02*
X6347474Y-2890000D01*
X6244404Y-2099754D02*
X6232427Y-2095862D01*
X5050700Y-800000D02*
X5044404Y-800246D01*
X4703603Y-1951172D02*
X4757920Y-1968821D01*
X651172Y-3167097D02*
X668821Y-3112780D01*
X1350000Y-3160000D02*
X840000Y-3160000D01*
X9017249Y-1655849D02*
X8968620Y-1691179D01*
X4841879Y-872780D02*
X4859528Y-927097D01*
X2095849Y-4135849D02*
X2047220Y-4171179D01*
X8914303Y-2888828D02*
X8884332Y-2890000D01*
X2004138Y-1581727D02*
X2011539Y-1571539D01*
X1960000Y-1680000D02*
X1966296Y-1679754D01*
X6210454Y-833704D02*
X6206562Y-821727D01*
X5347104Y-5177233D02*
X5311768Y-5225868D01*
X5047768Y-4190000D02*
X5017797Y-4188828D01*
X6210700Y-1640000D02*
X6210700Y-1600000D01*
X6173631Y-3010000D02*
X6203603Y-3011172D01*
X5194185Y-4494113D02*
X5182201Y-4490219D01*
X6170700Y-4040000D02*
X6176996Y-4039754D01*
X650000Y-1642931D02*
X650000Y-1290000D01*
X8887696Y-1559754D02*
X8899673Y-1555862D01*
X3817700Y-3130000D02*
X4673632Y-3130000D01*
X8899673Y-3284138D02*
X8887696Y-3280246D01*
X6173631Y-1830000D02*
X6203603Y-1831172D01*
X837068Y-650000D02*
X1350000Y-650000D01*
X1810000Y-5580000D02*
X1810000Y-5280000D01*
X8028400Y-2890000D02*
X8028400Y-2740000D01*
X811539Y-4028461D02*
X821727Y-4035862D01*
X1810000Y-5280000D02*
X1910000Y-5280000D01*
X7928400Y-3280000D02*
X6250700Y-3280000D01*
X4859528Y-2732903D02*
X4841879Y-2787220D01*
X5014838Y-4018273D02*
X5022239Y-4028461D01*
X2095849Y-1884151D02*
X2131179Y-1932780D01*
X5178510Y-4340000D02*
X5208495Y-4341044D01*
X2047220Y-2991179D02*
X1992903Y-3008828D01*
X807097Y-651172D02*
X837068Y-650000D01*
X2000000Y-1640000D02*
X2000000Y-1600000D01*
X8914303Y-1708828D02*
X8884332Y-1710000D01*
X1978273Y-1675862D02*
X1988461Y-1668461D01*
X1999754Y-3193704D02*
X1995862Y-3181727D01*
X4914851Y-1884151D02*
X4963480Y-1848821D01*
X840000Y-1980000D02*
X833703Y-1980246D01*
X5032427Y-4035862D02*
X5044404Y-4039754D01*
X5044404Y-1980246D02*
X5032427Y-1984138D01*
X6210700Y-880000D02*
X6210700Y-840000D01*
X807097Y-5428828D02*
X752780Y-5411179D01*
X1999754Y-2826296D02*
X2000000Y-2820000D01*
X6232427Y-3275862D02*
X6222239Y-3268461D01*
X650000Y-4860000D02*
X800000Y-4860000D01*
X4879521Y-1727220D02*
X4861872Y-1672903D01*
X8028400Y-3920000D02*
X8881400Y-3920000D01*
X1978273Y-3164138D02*
X1966296Y-3160246D01*
X6199161Y-1668461D02*
X6206562Y-1658273D01*
X2698273Y-4344138D02*
X2686296Y-4340246D01*
X2021727Y-3275862D02*
X2011539Y-3268461D01*
X650000Y-4002931D02*
X650000Y-3650000D01*
X2040000Y-1560000D02*
X3717700Y-1560000D01*
X3817700Y-920000D02*
X3817700Y-770000D01*
X752780Y-4171179D02*
X704151Y-4135849D01*
X8884332Y-2890000D02*
X8028400Y-2890000D01*
X2047220Y-4171179D02*
X1992903Y-4188828D01*
X6214838Y-3258273D02*
X6210946Y-3246296D01*
X5032427Y-3164138D02*
X5022239Y-3171539D01*
X6203603Y-4188828D02*
X6173631Y-4190000D01*
X8921154Y-3313704D02*
X8917262Y-3301727D01*
X4688973Y-2735862D02*
X4699161Y-2728461D01*
X2136775Y-2890000D02*
X2131179Y-2907220D01*
X650000Y-9130000D02*
X650000Y-7330000D01*
X5010700Y-2470000D02*
X5010700Y-2820000D01*
X1999754Y-833704D02*
X1995862Y-821727D01*
X6203603Y-1828828D02*
X6173631Y-1830000D01*
X5044404Y-3160246D02*
X5032427Y-3164138D01*
X5044404Y-800246D02*
X5032427Y-804138D01*
X6222239Y-3931539D02*
X6232427Y-3924138D01*
X1966296Y-1980246D02*
X1960000Y-1980000D01*
X6232427Y-3924138D02*
X6244404Y-3920246D01*
X2004138Y-2078273D02*
X2000246Y-2066296D01*
X8917262Y-1538273D02*
X8921154Y-1526296D01*
X2000000Y-880000D02*
X2000000Y-840000D01*
X800000Y-2470000D02*
X800000Y-2820000D01*
X4860700Y-1642931D02*
X4860700Y-1522931D01*
X8899673Y-2735862D02*
X8909861Y-2728461D01*
X6250700Y-2100000D02*
X6244404Y-2099754D01*
X6210454Y-4006296D02*
X6210700Y-4000000D01*
X668821Y-5327220D02*
X651172Y-5272903D01*
X4670700Y-3920000D02*
X4676996Y-3919754D01*
X6750000Y-7230000D02*
X6600000Y-7230000D01*
X800246Y-2826296D02*
X804138Y-2838273D01*
X3817700Y-1950000D02*
X4673632Y-1950000D01*
X2720246Y-5163704D02*
X2724138Y-5151727D01*
X8028400Y-1710000D02*
X8028400Y-1560000D01*
X650000Y-2470000D02*
X800000Y-2470000D01*
X1988461Y-811539D02*
X1978273Y-804138D01*
X4861872Y-807097D02*
X4879521Y-752780D01*
X1988461Y-4028461D02*
X1995862Y-4018273D01*
X2719754Y-5246296D02*
X2720000Y-5240000D01*
X2040000Y-2100000D02*
X2033703Y-2099754D01*
X4688973Y-3915862D02*
X4699161Y-3908461D01*
X8881400Y-2100000D02*
X8028400Y-2100000D01*
X1960000Y-800000D02*
X1450000Y-800000D01*
X800246Y-1646296D02*
X804138Y-1658273D01*
X1962931Y-3010000D02*
X1992903Y-3011172D01*
X800000Y-3550000D02*
X650000Y-3550000D01*
X833703Y-800246D02*
X821727Y-804138D01*
X6199161Y-811539D02*
X6188973Y-804138D01*
X4322900Y-5280000D02*
X4322900Y-5130000D01*
X2095849Y-704151D02*
X2131179Y-752780D01*
X5560700Y-2860000D02*
X5560700Y-3160000D01*
X800000Y-3650000D02*
X800000Y-4000000D01*
X6210454Y-3193704D02*
X6206562Y-3181727D01*
X8028400Y-2740000D02*
X8881400Y-2740000D01*
X1999754Y-4006296D02*
X2000000Y-4000000D01*
X4710700Y-2140000D02*
X4710454Y-2133704D01*
X8881400Y-3280000D02*
X8028400Y-3280000D01*
X4963480Y-668821D02*
X5017797Y-651172D01*
X2000000Y-2820000D02*
X2000000Y-2780000D01*
X2136775Y-4070000D02*
X2131179Y-4087220D01*
X668821Y-2907220D02*
X651172Y-2852903D01*
X4859528Y-3287097D02*
X4860700Y-3317068D01*
X2040000Y-920000D02*
X2033703Y-919754D01*
X5490000Y-5580000D02*
X5490000Y-5430000D01*
X833703Y-2859754D02*
X840000Y-2860000D01*
X840000Y-4040000D02*
X1350000Y-4040000D01*
X840000Y-1680000D02*
X1350000Y-1680000D01*
X800246Y-3193704D02*
X800000Y-3200000D01*
X2708461Y-5268461D02*
X2715862Y-5258273D01*
X3717700Y-1710000D02*
X2136775Y-1710000D01*
X6188973Y-1675862D02*
X6199161Y-1668461D01*
X6244404Y-1560246D02*
X6250700Y-1560000D01*
X2131179Y-1727220D02*
X2095849Y-1775849D01*
X8899673Y-2104138D02*
X8887696Y-2100246D01*
X4670700Y-3280000D02*
X3817700Y-3280000D01*
X1995862Y-3181727D02*
X1988461Y-3171539D01*
X2708461Y-4351539D02*
X2698273Y-4344138D01*
X5182201Y-4490219D02*
X5175900Y-4490000D01*
X1999754Y-2013704D02*
X1995862Y-2001727D01*
X811539Y-4351539D02*
X804138Y-4361727D01*
X8921400Y-3320000D02*
X8921154Y-3313704D01*
X4222900Y-5490000D02*
X4322900Y-5490000D01*
X6188973Y-2855862D02*
X6199161Y-2848461D01*
X5050700Y-2860000D02*
X5560700Y-2860000D01*
X5204380Y-5118480D02*
X5211787Y-5108285D01*
X4861872Y-3167097D02*
X4879521Y-3112780D01*
X804138Y-3181727D02*
X800246Y-3193704D01*
X4879521Y-752780D02*
X4914851Y-704151D01*
X8887696Y-920246D02*
X8881400Y-920000D01*
X4710700Y-2470000D02*
X5010700Y-2470000D01*
X6210700Y-2780000D02*
X6210946Y-2773704D01*
X8921154Y-1526296D02*
X8921400Y-1520000D01*
X2731539Y-5141539D02*
X2741727Y-5134138D01*
X821727Y-2855862D02*
X833703Y-2859754D01*
X1350000Y-1680000D02*
X1350000Y-1980000D01*
X6214838Y-3941727D02*
X6222239Y-3931539D01*
X5311768Y-5225868D02*
X5263132Y-5261204D01*
X2753704Y-5130246D02*
X2760000Y-5130000D01*
X2719754Y-4373704D02*
X2715862Y-4361727D01*
X1995862Y-2001727D02*
X1988461Y-1991539D01*
X1992903Y-3011172D02*
X2047220Y-3028821D01*
X4710454Y-953704D02*
X4706562Y-941727D01*
X4841879Y-1607220D02*
X4806549Y-1655849D01*
X5364856Y-4497404D02*
X5365900Y-4527390D01*
X9017249Y-2835849D02*
X8968620Y-2871179D01*
X2021727Y-3924138D02*
X2033703Y-3920246D01*
X5215681Y-4523699D02*
X5211787Y-4511715D01*
X6232427Y-915862D02*
X6222239Y-908461D01*
X5208495Y-4341044D02*
X5263132Y-4358796D01*
X6210700Y-1600000D02*
X6210946Y-1593704D01*
X5014838Y-1658273D02*
X5022239Y-1668461D01*
X1978273Y-4035862D02*
X1988461Y-4028461D01*
X1995862Y-4018273D02*
X1999754Y-4006296D01*
X668821Y-1727220D02*
X651172Y-1672903D01*
X804138Y-821727D02*
X800246Y-833704D01*
X5215900Y-4760000D02*
X5215900Y-4530000D01*
X5022239Y-3171539D02*
X5014838Y-3181727D01*
X6210946Y-3246296D02*
X6210700Y-3240000D01*
X5204380Y-4501520D02*
X5194185Y-4494113D01*
X6232427Y-2744138D02*
X6244404Y-2740246D01*
X4710700Y-3550000D02*
X4710700Y-3320000D01*
X5032427Y-1675862D02*
X5044404Y-1679754D01*
X651172Y-807097D02*
X668821Y-752780D01*
X6341879Y-1727220D02*
X6306549Y-1775849D01*
X6600000Y-7230000D02*
X6600000Y-5580000D01*
X650000Y-1290000D02*
X800000Y-1290000D01*
X5032427Y-2855862D02*
X5044404Y-2859754D01*
X6257920Y-1848821D02*
X6306549Y-1884151D01*
X9070228Y-3912903D02*
X9052579Y-3967220D01*
X6306549Y-704151D02*
X6341879Y-752780D01*
X4710700Y-3650000D02*
X5010700Y-3650000D01*
X4860700Y-2702932D02*
X4859528Y-2732903D01*
X4670700Y-1560000D02*
X4676996Y-1559754D01*
X1960000Y-4040000D02*
X1966296Y-4039754D01*
X3817700Y-2890000D02*
X3817700Y-2740000D01*
X8921400Y-1290000D02*
X9071400Y-1290000D01*
X1988461Y-1668461D02*
X1995862Y-1658273D01*
X6214838Y-1581727D02*
X6222239Y-1571539D01*
X8028400Y-3280000D02*
X8028400Y-3130000D01*
X5010946Y-3193704D02*
X5010700Y-3200000D01*
X2033703Y-2740246D02*
X2040000Y-2740000D01*
X833703Y-1679754D02*
X840000Y-1680000D01*
X4860700Y-837068D02*
X4861872Y-807097D01*
X800000Y-5240000D02*
X800246Y-5246296D01*
X8968620Y-3148821D02*
X9017249Y-3184151D01*
X8917262Y-3301727D02*
X8909861Y-3291539D01*
X4860700Y-3882931D02*
X4859528Y-3912903D01*
X4710454Y-2706296D02*
X4710700Y-2700000D01*
X4322900Y-5490000D02*
X4322900Y-5430000D01*
X6210454Y-2826296D02*
X6210700Y-2820000D01*
X800246Y-2013704D02*
X800000Y-2020000D01*
X2767220Y-4208821D02*
X2815849Y-4244151D01*
X5010700Y-840000D02*
X5010700Y-1190000D01*
X2767220Y-5411179D02*
X2712903Y-5428828D01*
X1962931Y-650000D02*
X1992903Y-651172D01*
X2715862Y-4361727D02*
X2708461Y-4351539D01*
X6203603Y-3008828D02*
X6173631Y-3010000D01*
X8914303Y-771172D02*
X8968620Y-788821D01*
X4699161Y-931539D02*
X4688973Y-924138D01*
X800000Y-7330000D02*
X800000Y-8980000D01*
X8887696Y-2100246D02*
X8881400Y-2100000D01*
X8921400Y-3880000D02*
X8921400Y-3650000D01*
X6173631Y-650000D02*
X6203603Y-651172D01*
X5010700Y-1290000D02*
X5010700Y-1640000D01*
X6257920Y-1811179D02*
X6203603Y-1828828D01*
X6170700Y-3160000D02*
X5660700Y-3160000D01*
X1910000Y-5280000D02*
X1910000Y-5580000D01*
X6347474Y-2890000D02*
X6341879Y-2907220D01*
X800000Y-4380000D02*
X800000Y-4760000D01*
X4859528Y-3912903D02*
X4841879Y-3967220D01*
X2000246Y-886296D02*
X2000000Y-880000D01*
X2851179Y-5327220D02*
X2815849Y-5375849D01*
X4914851Y-3064151D02*
X4963480Y-3028821D01*
X5660700Y-4190000D02*
X5660700Y-4040000D01*
X804138Y-1658273D02*
X811539Y-1668461D01*
X6600000Y-5580000D02*
X5490000Y-5580000D01*
X6250700Y-1560000D02*
X7928400Y-1560000D01*
X4673632Y-2890000D02*
X3817700Y-2890000D01*
X4860700Y-3317068D02*
X4860700Y-3197068D01*
X650000Y-2370000D02*
X650000Y-2017068D01*
X5660700Y-3160000D02*
X5660700Y-2860000D01*
X1450000Y-800000D02*
X1450000Y-650000D01*
X4860700Y-1522931D02*
X4859528Y-1552903D01*
X8881400Y-3920000D02*
X8887696Y-3919754D01*
X1450000Y-4040000D02*
X1710000Y-4040000D01*
X4706562Y-3301727D02*
X4699161Y-3291539D01*
X650000Y-2017068D02*
X651172Y-1987097D01*
X4222900Y-4490000D02*
X2760000Y-4490000D01*
X1960000Y-2860000D02*
X1966296Y-2859754D01*
X4841879Y-3232780D02*
X4859528Y-3287097D01*
X800246Y-5246296D02*
X804138Y-5258273D01*
X4222900Y-5130000D02*
X4222900Y-5280000D01*
X651172Y-1672903D02*
X650000Y-1642931D01*
X668821Y-4292780D02*
X704151Y-4244151D01*
X1978273Y-2855862D02*
X1988461Y-2848461D01*
X6210700Y-2820000D02*
X6210700Y-2780000D01*
X6203603Y-1831172D02*
X6257920Y-1848821D01*
X1966296Y-1679754D02*
X1978273Y-1675862D01*
X3817700Y-2100000D02*
X3817700Y-1950000D01*
X8881400Y-920000D02*
X8028400Y-920000D01*
X9071400Y-3882931D02*
X9070228Y-3912903D01*
X8028400Y-2100000D02*
X8028400Y-1950000D01*
X800000Y-4000000D02*
X800246Y-4006296D01*
X1999754Y-1646296D02*
X2000000Y-1640000D01*
X668821Y-1932780D02*
X704151Y-1884151D01*
X8028400Y-1560000D02*
X8881400Y-1560000D01*
X2010000Y-8980000D02*
X5390000Y-8980000D01*
X5010700Y-4000000D02*
X5010946Y-4006296D01*
X2698273Y-5275862D02*
X2708461Y-5268461D01*
X833703Y-4340246D02*
X821727Y-4344138D01*
X8899673Y-924138D02*
X8887696Y-920246D01*
X6203603Y-651172D02*
X6257920Y-668821D01*
X2720000Y-5240000D02*
X2720000Y-5170000D01*
X6222239Y-3268461D02*
X6214838Y-3258273D01*
X833703Y-4039754D02*
X840000Y-4040000D01*
X4322900Y-4340000D02*
X5178510Y-4340000D01*
X704151Y-2955849D02*
X668821Y-2907220D01*
X2033703Y-2099754D02*
X2021727Y-2095862D01*
X4676996Y-3280246D02*
X4670700Y-3280000D01*
X651172Y-4347097D02*
X668821Y-4292780D01*
X821727Y-804138D02*
X811539Y-811539D01*
X5175900Y-4490000D02*
X4322900Y-4490000D01*
X5010700Y-2820000D02*
X5010946Y-2826296D01*
X4222900Y-5430000D02*
X4222900Y-5490000D01*
X8899673Y-1555862D02*
X8909861Y-1548461D01*
X800000Y-1290000D02*
X800000Y-1640000D01*
X1995862Y-1658273D02*
X1999754Y-1646296D01*
X5390000Y-8980000D02*
X5390000Y-9130000D01*
X668821Y-3112780D02*
X704151Y-3064151D01*
X5560700Y-800000D02*
X5050700Y-800000D01*
X8914303Y-3131172D02*
X8968620Y-3148821D01*
X5010700Y-3200000D02*
X5010700Y-3550000D01*
X2136775Y-3130000D02*
X3717700Y-3130000D01*
X5178510Y-5280000D02*
X4322900Y-5280000D01*
X5050700Y-4040000D02*
X5560700Y-4040000D01*
X6188973Y-3164138D02*
X6176996Y-3160246D01*
X5022239Y-4028461D02*
X5032427Y-4035862D01*
X8881400Y-1560000D02*
X8887696Y-1559754D01*
X8921400Y-1190000D02*
X8921400Y-960000D01*
X1450000Y-1680000D02*
X1960000Y-1680000D01*
X811539Y-811539D02*
X804138Y-821727D01*
X4757920Y-1691179D02*
X4703603Y-1708828D01*
X5560700Y-4190000D02*
X5047768Y-4190000D01*
X6210454Y-1646296D02*
X6210700Y-1640000D01*
X1966296Y-4039754D02*
X1978273Y-4035862D01*
X800000Y-7230000D02*
X650000Y-7230000D01*
X2720000Y-4380000D02*
X2719754Y-4373704D01*
X6306549Y-1884151D02*
X6341879Y-1932780D01*
X1810000Y-4040000D02*
X1960000Y-4040000D01*
X1350000Y-2860000D02*
X1350000Y-3160000D01*
X4914851Y-2955849D02*
X4879521Y-2907220D01*
X804138Y-2001727D02*
X800246Y-2013704D01*
X807097Y-3011172D02*
X837068Y-3010000D01*
X2131179Y-4087220D02*
X2095849Y-4135849D01*
X8028400Y-4070000D02*
X8028400Y-3920000D01*
X800000Y-1190000D02*
X650000Y-1190000D01*
X6210946Y-886296D02*
X6210700Y-880000D01*
X5022239Y-1668461D02*
X5032427Y-1675862D01*
X752780Y-3028821D02*
X807097Y-3011172D01*
X5047768Y-3010000D02*
X5017797Y-3008828D01*
X5010700Y-1640000D02*
X5010946Y-1646296D01*
X2040000Y-3920000D02*
X3717700Y-3920000D01*
X2047220Y-3028821D02*
X2095849Y-3064151D01*
X2004138Y-3941727D02*
X2011539Y-3931539D01*
X800000Y-8980000D02*
X1910000Y-8980000D01*
X1992903Y-3008828D02*
X1962931Y-3010000D01*
X2720246Y-4456296D02*
X2720000Y-4450000D01*
X837068Y-1830000D02*
X807097Y-1828828D01*
X5010700Y-2020000D02*
X5010700Y-2370000D01*
X8921400Y-2140000D02*
X8921154Y-2133704D01*
X5014838Y-2838273D02*
X5022239Y-2848461D01*
X5490000Y-9130000D02*
X5490000Y-8980000D01*
X1710000Y-4040000D02*
X1710000Y-4340000D01*
X6188973Y-4035862D02*
X6199161Y-4028461D01*
X5660700Y-800000D02*
X5660700Y-650000D01*
X4670700Y-2740000D02*
X4676996Y-2739754D01*
X6210700Y-2060000D02*
X6210700Y-2020000D01*
X811539Y-3171539D02*
X804138Y-3181727D01*
X4703603Y-4068828D02*
X4673632Y-4070000D01*
X8917262Y-2121727D02*
X8909861Y-2111539D01*
X4859528Y-2107097D02*
X4860700Y-2137068D01*
X6347474Y-3130000D02*
X7928400Y-3130000D01*
X4673632Y-770000D02*
X4703603Y-771172D01*
X6210946Y-1593704D02*
X6214838Y-1581727D01*
X2000246Y-2773704D02*
X2004138Y-2761727D01*
X9070228Y-2107097D02*
X9071400Y-2137068D01*
X9052579Y-3232780D02*
X9070228Y-3287097D01*
X4699161Y-1548461D02*
X4706562Y-1538273D01*
X6257920Y-668821D02*
X6306549Y-704151D01*
X4703603Y-1708828D02*
X4673632Y-1710000D01*
X4322900Y-5130000D02*
X5175900Y-5130000D01*
X9071400Y-3650000D02*
X9071400Y-3882931D01*
X4688973Y-3284138D02*
X4676996Y-3280246D01*
X4706562Y-2718273D02*
X4710454Y-2706296D01*
X5182201Y-5129781D02*
X5194185Y-5125887D01*
X5017797Y-1831172D02*
X5047768Y-1830000D01*
X5660700Y-2860000D02*
X6170700Y-2860000D01*
X5390000Y-5430000D02*
X5390000Y-5580000D01*
X752780Y-4208821D02*
X807097Y-4191172D01*
X1988461Y-3171539D02*
X1978273Y-3164138D01*
X5560700Y-4040000D02*
X5560700Y-4190000D01*
X4861872Y-1987097D02*
X4879521Y-1932780D01*
X2724138Y-5151727D02*
X2731539Y-5141539D01*
X6257920Y-2991179D02*
X6203603Y-3008828D01*
X6341879Y-4087220D02*
X6306549Y-4135849D01*
X837068Y-5430000D02*
X807097Y-5428828D01*
X7928400Y-4070000D02*
X6347474Y-4070000D01*
X2680000Y-5280000D02*
X2686296Y-5279754D01*
X6347474Y-1710000D02*
X6341879Y-1727220D01*
X6210700Y-4000000D02*
X6210700Y-3960000D01*
X650000Y-3650000D02*
X800000Y-3650000D01*
X840000Y-4340000D02*
X833703Y-4340246D01*
X9721400Y0D02*
X0Y0D01*
X6199161Y-4028461D02*
X6206562Y-4018273D01*
X5032427Y-804138D02*
X5022239Y-811539D01*
X4879521Y-3112780D02*
X4914851Y-3064151D01*
X6244404Y-919754D02*
X6232427Y-915862D01*
X840000Y-3160000D02*
X833703Y-3160246D01*
X2000000Y-3240000D02*
X2000000Y-3200000D01*
X2720000Y-5170000D02*
X2720246Y-5163704D01*
X651172Y-4032903D02*
X650000Y-4002931D01*
X800000Y-2820000D02*
X800246Y-2826296D01*
X9017249Y-2004151D02*
X9052579Y-2052780D01*
X2682932Y-4190000D02*
X2712903Y-4191172D01*
X8968620Y-1691179D02*
X8914303Y-1708828D01*
X8921154Y-3886296D02*
X8921400Y-3880000D01*
X4688973Y-924138D02*
X4676996Y-920246D01*
X6210946Y-2773704D02*
X6214838Y-2761727D01*
X4676996Y-1559754D02*
X4688973Y-1555862D01*
X6199161Y-3171539D02*
X6188973Y-3164138D01*
X6341879Y-2907220D02*
X6306549Y-2955849D01*
X6173631Y-4190000D02*
X5660700Y-4190000D01*
X2021727Y-1564138D02*
X2033703Y-1560246D01*
X5022239Y-1991539D02*
X5014838Y-2001727D01*
X1995862Y-2838273D02*
X1999754Y-2826296D01*
X8884332Y-1950000D02*
X8914303Y-1951172D01*
X651172Y-2852903D02*
X650000Y-2822931D01*
X800246Y-4006296D02*
X804138Y-4018273D01*
X5175900Y-5130000D02*
X5182201Y-5129781D01*
X6250700Y-920000D02*
X6244404Y-919754D01*
X2760000Y-5130000D02*
X4222900Y-5130000D01*
X6203603Y-3011172D02*
X6257920Y-3028821D01*
X2741727Y-5134138D02*
X2753704Y-5130246D01*
X9071400Y-2702932D02*
X9070228Y-2732903D01*
X2000246Y-3246296D02*
X2000000Y-3240000D01*
X2040000Y-3280000D02*
X2033703Y-3279754D01*
X4841879Y-3967220D02*
X4806549Y-4015849D01*
X800000Y-2020000D02*
X800000Y-2370000D01*
X7928400Y-920000D02*
X6250700Y-920000D01*
X6306549Y-2955849D02*
X6257920Y-2991179D01*
X2095849Y-1775849D02*
X2047220Y-1811179D01*
X4710700Y-3320000D02*
X4710454Y-3313704D01*
X8921400Y-1520000D02*
X8921400Y-1290000D01*
X704151Y-704151D02*
X752780Y-668821D01*
X6341879Y-3112780D02*
X6347474Y-3130000D01*
X4710454Y-3313704D02*
X4706562Y-3301727D01*
X807097Y-1828828D02*
X752780Y-1811179D01*
X8887696Y-3919754D02*
X8899673Y-3915862D01*
X8921400Y-3550000D02*
X8921400Y-3320000D01*
X4673632Y-1710000D02*
X3817700Y-1710000D01*
X804138Y-5258273D02*
X811539Y-5268461D01*
X1978273Y-1984138D02*
X1966296Y-1980246D01*
X2000000Y-3200000D02*
X1999754Y-3193704D01*
X4670700Y-920000D02*
X3817700Y-920000D01*
X9052579Y-2787220D02*
X9017249Y-2835849D01*
X6347474Y-1950000D02*
X7928400Y-1950000D01*
X1450000Y-2860000D02*
X1960000Y-2860000D01*
X4673632Y-4070000D02*
X3817700Y-4070000D01*
X1450000Y-3160000D02*
X1450000Y-2860000D01*
X650000Y-7330000D02*
X800000Y-7330000D01*
X4806549Y-2835849D02*
X4757920Y-2871179D01*
X2000000Y-4000000D02*
X2000000Y-3960000D01*
X4710700Y-960000D02*
X4710454Y-953704D01*
X8028400Y-920000D02*
X8028400Y-770000D01*
X6210700Y-840000D02*
X6210454Y-833704D01*
X2136775Y-1710000D02*
X2131179Y-1727220D01*
X821727Y-4344138D02*
X811539Y-4351539D01*
X2000246Y-1593704D02*
X2004138Y-1581727D01*
X9071400Y-3550000D02*
X8921400Y-3550000D01*
X5347104Y-4442767D02*
X5364856Y-4497404D01*
X3817700Y-3280000D02*
X3817700Y-3130000D01*
X4322900Y-5430000D02*
X5390000Y-5430000D01*
X4861872Y-2852903D02*
X4860700Y-2822931D01*
X6244404Y-3920246D02*
X6250700Y-3920000D01*
X668821Y-752780D02*
X704151Y-704151D01*
X6257920Y-4171179D02*
X6203603Y-4188828D01*
X1978273Y-804138D02*
X1966296Y-800246D01*
X1960000Y-3160000D02*
X1450000Y-3160000D01*
X4710700Y-2370000D02*
X4710700Y-2140000D01*
X4703603Y-2888828D02*
X4673632Y-2890000D01*
X6199161Y-1991539D02*
X6188973Y-1984138D01*
X5560700Y-1980000D02*
X5050700Y-1980000D01*
X8884332Y-1710000D02*
X8028400Y-1710000D01*
X2131179Y-752780D02*
X2136775Y-770000D01*
X5014838Y-3181727D02*
X5010946Y-3193704D01*
X6347474Y-770000D02*
X7928400Y-770000D01*
X4757920Y-2871179D02*
X4703603Y-2888828D01*
X1992903Y-1828828D02*
X1962931Y-1830000D01*
X4859528Y-927097D02*
X4860700Y-957068D01*
X4710700Y-1290000D02*
X5010700Y-1290000D01*
X821727Y-1984138D02*
X811539Y-1991539D01*
X4914851Y-1775849D02*
X4879521Y-1727220D01*
X4963480Y-4171179D02*
X4914851Y-4135849D01*
X6600000Y-7330000D02*
X6750000Y-7330000D01*
X6222239Y-908461D02*
X6214838Y-898273D01*
X4879521Y-2907220D02*
X4861872Y-2852903D01*
X4699161Y-2728461D02*
X4706562Y-2718273D01*
X2851179Y-4292780D02*
X2866522Y-4340000D01*
X2021727Y-2095862D02*
X2011539Y-2088461D01*
X2010000Y-9130000D02*
X2010000Y-8980000D01*
X752780Y-2991179D02*
X704151Y-2955849D01*
X8968620Y-4051179D02*
X8914303Y-4068828D01*
X1350000Y-4340000D02*
X840000Y-4340000D01*
X6214838Y-2078273D02*
X6210946Y-2066296D01*
X4706562Y-2121727D02*
X4699161Y-2111539D01*
X7928400Y-3130000D02*
X7928400Y-3280000D01*
X6176996Y-1980246D02*
X6170700Y-1980000D01*
X7928400Y-2740000D02*
X7928400Y-2890000D01*
X2011539Y-2088461D02*
X2004138Y-2078273D01*
X807097Y-4188828D02*
X752780Y-4171179D01*
X0Y-9780000D02*
X9721400Y-9780000D01*
X2004138Y-3258273D02*
X2000246Y-3246296D01*
X2682932Y-5430000D02*
X4222900Y-5430000D01*
X5044404Y-4039754D02*
X5050700Y-4040000D01*
X650000Y-837068D02*
X651172Y-807097D01*
X3717700Y-2890000D02*
X2136775Y-2890000D01*
X4676996Y-2739754D02*
X4688973Y-2735862D01*
X4699161Y-3291539D02*
X4688973Y-3284138D01*
X9017249Y-4015849D02*
X8968620Y-4051179D01*
X840000Y-800000D02*
X833703Y-800246D01*
X8884332Y-770000D02*
X8914303Y-771172D01*
X807097Y-4191172D02*
X837068Y-4190000D01*
X2741727Y-4485862D02*
X2731539Y-4478461D01*
X8921154Y-953704D02*
X8917262Y-941727D01*
X4322900Y-4490000D02*
X4322900Y-4340000D01*
X8921400Y-2470000D02*
X9071400Y-2470000D01*
X704151Y-4135849D02*
X668821Y-4087220D01*
X4703603Y-3131172D02*
X4757920Y-3148821D01*
X704151Y-3064151D02*
X752780Y-3028821D01*
X6206562Y-2838273D02*
X6210454Y-2826296D01*
X811539Y-1668461D02*
X821727Y-1675862D01*
X5050700Y-1980000D02*
X5044404Y-1980246D01*
X2760000Y-4490000D02*
X2753704Y-4489754D01*
X2000246Y-3953704D02*
X2004138Y-3941727D01*
X8968620Y-788821D02*
X9017249Y-824151D01*
X6188973Y-804138D02*
X6176996Y-800246D01*
X4963480Y-2991179D02*
X4914851Y-2955849D01*
X1350000Y-1980000D02*
X840000Y-1980000D01*
X4879521Y-4087220D02*
X4861872Y-4032903D01*
X5017797Y-3008828D02*
X4963480Y-2991179D01*
X2000000Y-2060000D02*
X2000000Y-2020000D01*
X650000Y-4760000D02*
X650000Y-4377068D01*
X4806549Y-2004151D02*
X4841879Y-2052780D01*
X4699161Y-2111539D02*
X4688973Y-2104138D01*
X704151Y-1884151D02*
X752780Y-1848821D01*
X1710000Y-5280000D02*
X1710000Y-5580000D01*
X5044404Y-1679754D02*
X5050700Y-1680000D01*
X3717700Y-3280000D02*
X2040000Y-3280000D01*
X9052579Y-2052780D02*
X9070228Y-2107097D01*
X6206562Y-3181727D02*
X6199161Y-3171539D01*
X6232427Y-1564138D02*
X6244404Y-1560246D01*
X668821Y-4087220D02*
X651172Y-4032903D01*
X6170700Y-2860000D02*
X6176996Y-2859754D01*
X5208495Y-5278956D02*
X5178510Y-5280000D01*
X1910000Y-9130000D02*
X650000Y-9130000D01*
X2712903Y-5428828D02*
X2682932Y-5430000D01*
X2004138Y-898273D02*
X2000246Y-886296D01*
X9071400Y-2137068D02*
X9071400Y-2370000D01*
X5014838Y-821727D02*
X5010946Y-833704D01*
X6306549Y-3064151D02*
X6341879Y-3112780D01*
X8921400Y-2370000D02*
X8921400Y-2140000D01*
X5365900Y-4760000D02*
X5215900Y-4760000D01*
X5560700Y-1680000D02*
X5560700Y-1980000D01*
X4757920Y-3148821D02*
X4806549Y-3184151D01*
X7928400Y-3920000D02*
X7928400Y-4070000D01*
X1350000Y-4040000D02*
X1350000Y-4340000D01*
X4914851Y-704151D02*
X4963480Y-668821D01*
X5010946Y-2826296D02*
X5014838Y-2838273D01*
X6210946Y-2066296D02*
X6210700Y-2060000D01*
X4860700Y-3197068D02*
X4861872Y-3167097D01*
X2021727Y-915862D02*
X2011539Y-908461D01*
X1450000Y-1980000D02*
X1450000Y-1680000D01*
X2000000Y-1600000D02*
X2000246Y-1593704D01*
X5017797Y-1828828D02*
X4963480Y-1811179D01*
X2000000Y-840000D02*
X1999754Y-833704D01*
X800246Y-833704D02*
X800000Y-840000D01*
X9017249Y-824151D02*
X9052579Y-872780D01*
X1995862Y-821727D02*
X1988461Y-811539D01*
X6176996Y-1679754D02*
X6188973Y-1675862D01*
X4706562Y-1538273D02*
X4710454Y-1526296D01*
X5010700Y-1190000D02*
X4710700Y-1190000D01*
X8917262Y-941727D02*
X8909861Y-931539D01*
X8921400Y-2700000D02*
X8921400Y-2470000D01*
X9052579Y-1607220D02*
X9017249Y-1655849D01*
X9052579Y-872780D02*
X9070228Y-927097D01*
X4757920Y-1968821D02*
X4806549Y-2004151D01*
X7928400Y-1710000D02*
X6347474Y-1710000D01*
X8968620Y-1968821D02*
X9017249Y-2004151D01*
X4860700Y-2822931D02*
X4860700Y-2702932D01*
X837068Y-3010000D02*
X807097Y-3008828D01*
X1962931Y-4190000D02*
X2682932Y-4190000D01*
X4963480Y-1848821D02*
X5017797Y-1831172D01*
X3817700Y-1710000D02*
X3817700Y-1560000D01*
X5660700Y-4040000D02*
X6170700Y-4040000D01*
X2136775Y-1950000D02*
X3717700Y-1950000D01*
X1992903Y-651172D02*
X2047220Y-668821D01*
X5047768Y-650000D02*
X5560700Y-650000D01*
X6176996Y-4039754D02*
X6188973Y-4035862D01*
X800246Y-4373704D02*
X800000Y-4380000D01*
X650000Y-2822931D02*
X650000Y-2470000D01*
X2686296Y-5279754D02*
X2698273Y-5275862D01*
X804138Y-4361727D02*
X800246Y-4373704D01*
X6176996Y-3160246D02*
X6170700Y-3160000D01*
X3717700Y-4070000D02*
X2136775Y-4070000D01*
X3817700Y-770000D02*
X4673632Y-770000D01*
X8921400Y-960000D02*
X8921154Y-953704D01*
X821727Y-3164138D02*
X811539Y-3171539D01*
X5014838Y-2001727D02*
X5010946Y-2013704D01*
X4710700Y-3880000D02*
X4710700Y-3650000D01*
X8921154Y-2133704D02*
X8917262Y-2121727D01*
X4676996Y-920246D02*
X4670700Y-920000D01*
X8909861Y-931539D02*
X8899673Y-924138D01*
X5365900Y-4860000D02*
X5365900Y-5092610D01*
X9052579Y-3967220D02*
X9017249Y-4015849D01*
X8909861Y-3908461D02*
X8917262Y-3898273D01*
X811539Y-2848461D02*
X821727Y-2855862D01*
X8899673Y-3915862D02*
X8909861Y-3908461D01*
X8881400Y-2740000D02*
X8887696Y-2739754D01*
X7928400Y-2100000D02*
X6250700Y-2100000D01*
X6210700Y-3240000D02*
X6210700Y-3200000D01*
X9071400Y-1290000D02*
X9071400Y-1522931D01*
X2095849Y-3064151D02*
X2131179Y-3112780D01*
X1966296Y-3160246D02*
X1960000Y-3160000D01*
X6214838Y-2761727D02*
X6222239Y-2751539D01*
X5017797Y-4188828D02*
X4963480Y-4171179D01*
X5364856Y-5122596D02*
X5347104Y-5177233D01*
X5010946Y-1646296D02*
X5014838Y-1658273D01*
X704151Y-1775849D02*
X668821Y-1727220D01*
X5022239Y-2848461D02*
X5032427Y-2855862D01*
X9071400Y-1522931D02*
X9070228Y-1552903D01*
X5263132Y-5261204D02*
X5208495Y-5278956D01*
X8909861Y-1548461D02*
X8917262Y-1538273D01*
X4699161Y-3908461D02*
X4706562Y-3898273D01*
X5050700Y-3160000D02*
X5044404Y-3160246D01*
X8914303Y-4068828D02*
X8884332Y-4070000D01*
X4757920Y-4051179D02*
X4703603Y-4068828D01*
X3717700Y-2740000D02*
X3717700Y-2890000D01*
X1988461Y-2848461D02*
X1995862Y-2838273D01*
X5010946Y-2013704D02*
X5010700Y-2020000D01*
X5047768Y-1830000D02*
X5017797Y-1828828D01*
X650000Y-5430000D02*
X837068Y-5430000D01*
X6170700Y-800000D02*
X5660700Y-800000D01*
X2753704Y-4489754D02*
X2741727Y-4485862D01*
X4688973Y-2104138D02*
X4676996Y-2100246D01*
X5215900Y-4530000D02*
X5215681Y-4523699D01*
X1710000Y-4340000D02*
X1450000Y-4340000D01*
X4806549Y-4015849D02*
X4757920Y-4051179D01*
X804138Y-2838273D02*
X811539Y-2848461D01*
X2680000Y-4340000D02*
X1810000Y-4340000D01*
X811539Y-5268461D02*
X821727Y-5275862D01*
X821727Y-4035862D02*
X833703Y-4039754D01*
X2686296Y-4340246D02*
X2680000Y-4340000D01*
X5017797Y-3011172D02*
X5047768Y-3010000D01*
X2720000Y-4450000D02*
X2720000Y-4380000D01*
X6206562Y-821727D02*
X6199161Y-811539D01*
X8921400Y-3650000D02*
X9071400Y-3650000D01*
X4841879Y-2052780D02*
X4859528Y-2107097D01*
X9017249Y-3184151D02*
X9052579Y-3232780D01*
X8028400Y-3130000D02*
X8884332Y-3130000D01*
X4861872Y-1672903D02*
X4860700Y-1642931D01*
X4710700Y-2700000D02*
X4710700Y-2470000D01*
X4963480Y-1811179D02*
X4914851Y-1775849D01*
X2047220Y-1848821D02*
X2095849Y-1884151D01*
X833703Y-3160246D02*
X821727Y-3164138D01*
X5215900Y-5090000D02*
X5215900Y-4860000D01*
X1350000Y-650000D02*
X1350000Y-800000D01*
X6170700Y-1980000D02*
X5660700Y-1980000D01*
X752780Y-5411179D02*
X704151Y-5375849D01*
X2815849Y-5375849D02*
X2767220Y-5411179D01*
X6210700Y-2020000D02*
X6210454Y-2013704D01*
X7928400Y-1560000D02*
X7928400Y-1710000D01*
X2040000Y-2740000D02*
X3717700Y-2740000D01*
X9070228Y-1552903D02*
X9052579Y-1607220D01*
X1450000Y-650000D02*
X1962931Y-650000D01*
X5390000Y-9130000D02*
X2010000Y-9130000D01*
X8884332Y-4070000D02*
X8028400Y-4070000D01*
X4710454Y-2133704D02*
X4706562Y-2121727D01*
X4860700Y-957068D02*
X4860700Y-837068D01*
X8909861Y-3291539D02*
X8899673Y-3284138D01*
X5032427Y-1984138D02*
X5022239Y-1991539D01*
X8887696Y-3280246D02*
X8881400Y-3280000D01*
X1450000Y-4340000D02*
X1450000Y-4040000D01*
X800000Y-4860000D02*
X800000Y-5240000D01*
X6250700Y-2740000D02*
X7928400Y-2740000D01*
X3717700Y-3920000D02*
X3717700Y-4070000D01*
X6188973Y-1984138D02*
X6176996Y-1980246D01*
X821727Y-5275862D02*
X833703Y-5279754D01*
X752780Y-1811179D02*
X704151Y-1775849D01*
X5490000Y-8980000D02*
X6600000Y-8980000D01*
X4688973Y-1555862D02*
X4699161Y-1548461D01*
X4963480Y-3028821D02*
X5017797Y-3011172D01*
X804138Y-4018273D02*
X811539Y-4028461D01*
X2011539Y-2751539D02*
X2021727Y-2744138D01*
X5215681Y-5096301D02*
X5215900Y-5090000D01*
X5010700Y-3650000D02*
X5010700Y-4000000D01*
X2010000Y-5580000D02*
X2010000Y-5280000D01*
X6306549Y-4135849D02*
X6257920Y-4171179D01*
X4673632Y-3130000D02*
X4703603Y-3131172D01*
X4806549Y-1655849D02*
X4757920Y-1691179D01*
X5022239Y-811539D02*
X5014838Y-821727D01*
X2131179Y-2907220D02*
X2095849Y-2955849D01*
X811539Y-1991539D02*
X804138Y-2001727D01*
X6210700Y-3960000D02*
X6210946Y-3953704D01*
X1992903Y-4188828D02*
X1962931Y-4190000D01*
X8968620Y-2871179D02*
X8914303Y-2888828D01*
X8909861Y-2111539D02*
X8899673Y-2104138D01*
X4703603Y-771172D02*
X4757920Y-788821D01*
X8917262Y-2718273D02*
X8921154Y-2706296D01*
X8028400Y-1950000D02*
X8884332Y-1950000D01*
X833703Y-5279754D02*
X840000Y-5280000D01*
X5215900Y-4860000D02*
X5365900Y-4860000D01*
X2033703Y-3920246D02*
X2040000Y-3920000D01*
X4710454Y-1526296D02*
X4710700Y-1520000D01*
X1910000Y-8980000D02*
X1910000Y-9130000D01*
X5010700Y-3550000D02*
X4710700Y-3550000D01*
X7928400Y-770000D02*
X7928400Y-920000D01*
X6206562Y-4018273D02*
X6210454Y-4006296D01*
X2000000Y-3960000D02*
X2000246Y-3953704D01*
X3817700Y-1560000D02*
X4670700Y-1560000D01*
X5365900Y-5092610D02*
X5364856Y-5122596D01*
X6250700Y-3280000D02*
X6244404Y-3279754D01*
X1966296Y-800246D02*
X1960000Y-800000D01*
X4673632Y-1950000D02*
X4703603Y-1951172D01*
X752780Y-668821D02*
X807097Y-651172D01*
X6210700Y-3200000D02*
X6210454Y-3193704D01*
X2131179Y-1932780D02*
X2136775Y-1950000D01*
X3717700Y-1950000D02*
X3717700Y-2100000D01*
X5560700Y-650000D02*
X5560700Y-800000D01*
X1992903Y-1831172D02*
X2047220Y-1848821D01*
X840000Y-5280000D02*
X1710000Y-5280000D01*
X6750000Y-5430000D02*
X6750000Y-7230000D01*
X3817700Y-4070000D02*
X3817700Y-3920000D01*
X2131179Y-3112780D02*
X2136775Y-3130000D01*
X9071400Y-957068D02*
X9071400Y-1190000D01*
X2000246Y-2066296D02*
X2000000Y-2060000D01*
X5311768Y-4394132D02*
X5347104Y-4442767D01*
X8909861Y-2728461D02*
X8917262Y-2718273D01*
X6250700Y-3920000D02*
X7928400Y-3920000D01*
X4710700Y-1190000D02*
X4710700Y-960000D01*
X4757920Y-788821D02*
X4806549Y-824151D01*
X4860700Y-2137068D02*
X4860700Y-2017068D01*
X2047220Y-1811179D02*
X1992903Y-1828828D01*
X4861872Y-4032903D02*
X4860700Y-4002931D01*
X1810000Y-4340000D02*
X1810000Y-4040000D01*
X6341879Y-1932780D02*
X6347474Y-1950000D01*
X9071400Y-3317068D02*
X9071400Y-3550000D01*
X837068Y-4190000D02*
X807097Y-4188828D01*
X4879521Y-1932780D02*
X4914851Y-1884151D01*
X650000Y-7230000D02*
X650000Y-5430000D01*
X840000Y-2860000D02*
X1350000Y-2860000D01*
X8884332Y-3130000D02*
X8914303Y-3131172D01*
X6170700Y-1680000D02*
X6176996Y-1679754D01*
X5010946Y-4006296D02*
X5014838Y-4018273D01*
X2011539Y-1571539D02*
X2021727Y-1564138D01*
X650000Y-3550000D02*
X650000Y-3197068D01*
X8887696Y-2739754D02*
X8899673Y-2735862D01*
X1910000Y-5580000D02*
X1810000Y-5580000D01*
X800000Y-5580000D02*
X800000Y-7230000D01*
X6206562Y-1658273D02*
X6210454Y-1646296D01*
X4670700Y-2100000D02*
X3817700Y-2100000D01*
X833703Y-1980246D02*
X821727Y-1984138D01*
X704151Y-4244151D02*
X752780Y-4208821D01*
X2815849Y-4244151D02*
X2851179Y-4292780D01*
X6750000Y-9130000D02*
X5490000Y-9130000D01*
X2000000Y-2020000D02*
X1999754Y-2013704D01*
X3717700Y-1560000D02*
X3717700Y-1710000D01*
X2033703Y-1560246D02*
X2040000Y-1560000D01*
X8917262Y-3898273D02*
X8921154Y-3886296D01*
X5490000Y-5430000D02*
X6750000Y-5430000D01*
X5660700Y-1980000D02*
X5660700Y-1680000D01*
X7928400Y-1950000D02*
X7928400Y-2100000D01*
X3817700Y-3920000D02*
X4670700Y-3920000D01*
X6750000Y-7330000D02*
X6750000Y-9130000D01*
D11*
D12*
X820000Y-1080000D02*
X880000Y-1140000D01*
X880000Y-1080000D02*
X820000Y-1140000D01*
X820000Y-2260000D02*
X880000Y-2320000D01*
X880000Y-2260000D02*
X820000Y-2320000D01*
X820000Y-3440000D02*
X880000Y-3500000D01*
X880000Y-3440000D02*
X820000Y-3500000D01*
X1920000Y-1340000D02*
X1980000Y-1400000D01*
X1980000Y-1340000D02*
X1920000Y-1400000D01*
X1920000Y-2520000D02*
X1980000Y-2580000D01*
X1980000Y-2520000D02*
X1920000Y-2580000D01*
X1920000Y-3700000D02*
X1980000Y-3760000D01*
X1980000Y-3700000D02*
X1920000Y-3760000D01*
X5030700Y-1080000D02*
X5090700Y-1140000D01*
X5090700Y-1080000D02*
X5030700Y-1140000D01*
X5030700Y-2260000D02*
X5090700Y-2320000D01*
X5090700Y-2260000D02*
X5030700Y-2320000D01*
X5030700Y-3440000D02*
X5090700Y-3500000D01*
X5090700Y-3440000D02*
X5030700Y-3500000D01*
X6130700Y-1340000D02*
X6190700Y-1400000D01*
X6190700Y-1340000D02*
X6130700Y-1400000D01*
X6130700Y-2520000D02*
X6190700Y-2580000D01*
X6190700Y-2520000D02*
X6130700Y-2580000D01*
X6130700Y-3700000D02*
X6190700Y-3760000D01*
X6190700Y-3700000D02*
X6130700Y-3760000D01*
D11*
X350000Y-250000D02*
G75*
G02*
X150000Y-250000I-100000J0D01*
G01*
X150000Y-250000D02*
G75*
G02*
X350000Y-250000I100000J0D01*
G01*
X350000Y-9530000D02*
G75*
G02*
X150000Y-9530000I-100000J0D01*
G01*
X150000Y-9530000D02*
G75*
G02*
X350000Y-9530000I100000J0D01*
G01*
X9071400Y-9530000D02*
G75*
G02*
X8871400Y-9530000I-100000J0D01*
G01*
X8871400Y-9530000D02*
G75*
G02*
X9071400Y-9530000I100000J0D01*
G01*
X9571400Y-250000D02*
G75*
G02*
X9371400Y-250000I-100000J0D01*
G01*
X9371400Y-250000D02*
G75*
G02*
X9571400Y-250000I100000J0D01*
G01*
X258277Y-10093984D02*
X258277Y-9893984D01*
X258277Y-9893984D02*
X305896Y-9893984D01*
X305896Y-9893984D02*
X334467Y-9903508D01*
X334467Y-9903508D02*
X353515Y-9922555D01*
X353515Y-9922555D02*
X363039Y-9941603D01*
X363039Y-9941603D02*
X372562Y-9979698D01*
X372562Y-9979698D02*
X372562Y-10008270D01*
X372562Y-10008270D02*
X363039Y-10046365D01*
X363039Y-10046365D02*
X353515Y-10065412D01*
X353515Y-10065412D02*
X334467Y-10084460D01*
X334467Y-10084460D02*
X305896Y-10093984D01*
X305896Y-10093984D02*
X258277Y-10093984D01*
X458277Y-10093984D02*
X458277Y-9960650D01*
X458277Y-9998746D02*
X467801Y-9979698D01*
X467801Y-9979698D02*
X477324Y-9970174D01*
X477324Y-9970174D02*
X496372Y-9960650D01*
X496372Y-9960650D02*
X515420Y-9960650D01*
X582086Y-10093984D02*
X582086Y-9960650D01*
X582086Y-9893984D02*
X572563Y-9903508D01*
X572563Y-9903508D02*
X582086Y-9913031D01*
X582086Y-9913031D02*
X591610Y-9903508D01*
X591610Y-9903508D02*
X582086Y-9893984D01*
X582086Y-9893984D02*
X582086Y-9913031D01*
X705896Y-10093984D02*
X686848Y-10084460D01*
X686848Y-10084460D02*
X677324Y-10065412D01*
X677324Y-10065412D02*
X677324Y-9893984D01*
X810658Y-10093984D02*
X791610Y-10084460D01*
X791610Y-10084460D02*
X782086Y-10065412D01*
X782086Y-10065412D02*
X782086Y-9893984D01*
X1039229Y-10093984D02*
X1039229Y-9893984D01*
X1039229Y-9893984D02*
X1105896Y-10036841D01*
X1105896Y-10036841D02*
X1172563Y-9893984D01*
X1172563Y-9893984D02*
X1172563Y-10093984D01*
X1353515Y-10093984D02*
X1353515Y-9989222D01*
X1353515Y-9989222D02*
X1343991Y-9970174D01*
X1343991Y-9970174D02*
X1324944Y-9960650D01*
X1324944Y-9960650D02*
X1286848Y-9960650D01*
X1286848Y-9960650D02*
X1267801Y-9970174D01*
X1353515Y-10084460D02*
X1334467Y-10093984D01*
X1334467Y-10093984D02*
X1286848Y-10093984D01*
X1286848Y-10093984D02*
X1267801Y-10084460D01*
X1267801Y-10084460D02*
X1258277Y-10065412D01*
X1258277Y-10065412D02*
X1258277Y-10046365D01*
X1258277Y-10046365D02*
X1267801Y-10027317D01*
X1267801Y-10027317D02*
X1286848Y-10017793D01*
X1286848Y-10017793D02*
X1334467Y-10017793D01*
X1334467Y-10017793D02*
X1353515Y-10008270D01*
X1448753Y-9960650D02*
X1448753Y-10160650D01*
X1448753Y-9970174D02*
X1467801Y-9960650D01*
X1467801Y-9960650D02*
X1505896Y-9960650D01*
X1505896Y-9960650D02*
X1524943Y-9970174D01*
X1524943Y-9970174D02*
X1534467Y-9979698D01*
X1534467Y-9979698D02*
X1543991Y-9998746D01*
X1543991Y-9998746D02*
X1543991Y-10055889D01*
X1543991Y-10055889D02*
X1534467Y-10074936D01*
X1534467Y-10074936D02*
X1524943Y-10084460D01*
X1524943Y-10084460D02*
X1505896Y-10093984D01*
X1505896Y-10093984D02*
X1467801Y-10093984D01*
X1467801Y-10093984D02*
X1448753Y-10084460D01*
X1629705Y-10074936D02*
X1639229Y-10084460D01*
X1639229Y-10084460D02*
X1629705Y-10093984D01*
X1629705Y-10093984D02*
X1620182Y-10084460D01*
X1620182Y-10084460D02*
X1629705Y-10074936D01*
X1629705Y-10074936D02*
X1629705Y-10093984D01*
X1629705Y-9970174D02*
X1639229Y-9979698D01*
X1639229Y-9979698D02*
X1629705Y-9989222D01*
X1629705Y-9989222D02*
X1620182Y-9979698D01*
X1620182Y-9979698D02*
X1629705Y-9970174D01*
X1629705Y-9970174D02*
X1629705Y-9989222D01*
D12*
X-62500Y-10392500D02*
X-2500Y-10452500D01*
X-2500Y-10392500D02*
X-62500Y-10452500D01*
D11*
X296372Y-10313984D02*
X315420Y-10313984D01*
X315420Y-10313984D02*
X334467Y-10323508D01*
X334467Y-10323508D02*
X343991Y-10333031D01*
X343991Y-10333031D02*
X353515Y-10352079D01*
X353515Y-10352079D02*
X363039Y-10390174D01*
X363039Y-10390174D02*
X363039Y-10437793D01*
X363039Y-10437793D02*
X353515Y-10475889D01*
X353515Y-10475889D02*
X343991Y-10494936D01*
X343991Y-10494936D02*
X334467Y-10504460D01*
X334467Y-10504460D02*
X315420Y-10513984D01*
X315420Y-10513984D02*
X296372Y-10513984D01*
X296372Y-10513984D02*
X277324Y-10504460D01*
X277324Y-10504460D02*
X267801Y-10494936D01*
X267801Y-10494936D02*
X258277Y-10475889D01*
X258277Y-10475889D02*
X248753Y-10437793D01*
X248753Y-10437793D02*
X248753Y-10390174D01*
X248753Y-10390174D02*
X258277Y-10352079D01*
X258277Y-10352079D02*
X267801Y-10333031D01*
X267801Y-10333031D02*
X277324Y-10323508D01*
X277324Y-10323508D02*
X296372Y-10313984D01*
X448753Y-10494936D02*
X458277Y-10504460D01*
X458277Y-10504460D02*
X448753Y-10513984D01*
X448753Y-10513984D02*
X439229Y-10504460D01*
X439229Y-10504460D02*
X448753Y-10494936D01*
X448753Y-10494936D02*
X448753Y-10513984D01*
X629705Y-10313984D02*
X591610Y-10313984D01*
X591610Y-10313984D02*
X572563Y-10323508D01*
X572563Y-10323508D02*
X563039Y-10333031D01*
X563039Y-10333031D02*
X543991Y-10361603D01*
X543991Y-10361603D02*
X534467Y-10399698D01*
X534467Y-10399698D02*
X534467Y-10475889D01*
X534467Y-10475889D02*
X543991Y-10494936D01*
X543991Y-10494936D02*
X553515Y-10504460D01*
X553515Y-10504460D02*
X572563Y-10513984D01*
X572563Y-10513984D02*
X610658Y-10513984D01*
X610658Y-10513984D02*
X629705Y-10504460D01*
X629705Y-10504460D02*
X639229Y-10494936D01*
X639229Y-10494936D02*
X648753Y-10475889D01*
X648753Y-10475889D02*
X648753Y-10428270D01*
X648753Y-10428270D02*
X639229Y-10409222D01*
X639229Y-10409222D02*
X629705Y-10399698D01*
X629705Y-10399698D02*
X610658Y-10390174D01*
X610658Y-10390174D02*
X572563Y-10390174D01*
X572563Y-10390174D02*
X553515Y-10399698D01*
X553515Y-10399698D02*
X543991Y-10409222D01*
X543991Y-10409222D02*
X534467Y-10428270D01*
X772562Y-10313984D02*
X791610Y-10313984D01*
X791610Y-10313984D02*
X810658Y-10323508D01*
X810658Y-10323508D02*
X820182Y-10333031D01*
X820182Y-10333031D02*
X829705Y-10352079D01*
X829705Y-10352079D02*
X839229Y-10390174D01*
X839229Y-10390174D02*
X839229Y-10437793D01*
X839229Y-10437793D02*
X829705Y-10475889D01*
X829705Y-10475889D02*
X820182Y-10494936D01*
X820182Y-10494936D02*
X810658Y-10504460D01*
X810658Y-10504460D02*
X791610Y-10513984D01*
X791610Y-10513984D02*
X772562Y-10513984D01*
X772562Y-10513984D02*
X753515Y-10504460D01*
X753515Y-10504460D02*
X743991Y-10494936D01*
X743991Y-10494936D02*
X734467Y-10475889D01*
X734467Y-10475889D02*
X724943Y-10437793D01*
X724943Y-10437793D02*
X724943Y-10390174D01*
X724943Y-10390174D02*
X734467Y-10352079D01*
X734467Y-10352079D02*
X743991Y-10333031D01*
X743991Y-10333031D02*
X753515Y-10323508D01*
X753515Y-10323508D02*
X772562Y-10313984D01*
X963039Y-10313984D02*
X982086Y-10313984D01*
X982086Y-10313984D02*
X1001134Y-10323508D01*
X1001134Y-10323508D02*
X1010658Y-10333031D01*
X1010658Y-10333031D02*
X1020182Y-10352079D01*
X1020182Y-10352079D02*
X1029705Y-10390174D01*
X1029705Y-10390174D02*
X1029705Y-10437793D01*
X1029705Y-10437793D02*
X1020182Y-10475889D01*
X1020182Y-10475889D02*
X1010658Y-10494936D01*
X1010658Y-10494936D02*
X1001134Y-10504460D01*
X1001134Y-10504460D02*
X982086Y-10513984D01*
X982086Y-10513984D02*
X963039Y-10513984D01*
X963039Y-10513984D02*
X943991Y-10504460D01*
X943991Y-10504460D02*
X934467Y-10494936D01*
X934467Y-10494936D02*
X924943Y-10475889D01*
X924943Y-10475889D02*
X915420Y-10437793D01*
X915420Y-10437793D02*
X915420Y-10390174D01*
X915420Y-10390174D02*
X924943Y-10352079D01*
X924943Y-10352079D02*
X934467Y-10333031D01*
X934467Y-10333031D02*
X943991Y-10323508D01*
X943991Y-10323508D02*
X963039Y-10313984D01*
X1115420Y-10513984D02*
X1115420Y-10380650D01*
X1115420Y-10399698D02*
X1124944Y-10390174D01*
X1124944Y-10390174D02*
X1143991Y-10380650D01*
X1143991Y-10380650D02*
X1172563Y-10380650D01*
X1172563Y-10380650D02*
X1191610Y-10390174D01*
X1191610Y-10390174D02*
X1201134Y-10409222D01*
X1201134Y-10409222D02*
X1201134Y-10513984D01*
X1201134Y-10409222D02*
X1210658Y-10390174D01*
X1210658Y-10390174D02*
X1229705Y-10380650D01*
X1229705Y-10380650D02*
X1258277Y-10380650D01*
X1258277Y-10380650D02*
X1277325Y-10390174D01*
X1277325Y-10390174D02*
X1286848Y-10409222D01*
X1286848Y-10409222D02*
X1286848Y-10513984D01*
X1382086Y-10513984D02*
X1382086Y-10380650D01*
X1382086Y-10399698D02*
X1391610Y-10390174D01*
X1391610Y-10390174D02*
X1410658Y-10380650D01*
X1410658Y-10380650D02*
X1439229Y-10380650D01*
X1439229Y-10380650D02*
X1458277Y-10390174D01*
X1458277Y-10390174D02*
X1467801Y-10409222D01*
X1467801Y-10409222D02*
X1467801Y-10513984D01*
X1467801Y-10409222D02*
X1477324Y-10390174D01*
X1477324Y-10390174D02*
X1496372Y-10380650D01*
X1496372Y-10380650D02*
X1524943Y-10380650D01*
X1524943Y-10380650D02*
X1543991Y-10390174D01*
X1543991Y-10390174D02*
X1553515Y-10409222D01*
X1553515Y-10409222D02*
X1553515Y-10513984D01*
X1943991Y-10304460D02*
X1772563Y-10561603D01*
X2201134Y-10313984D02*
X2220182Y-10313984D01*
X2220182Y-10313984D02*
X2239229Y-10323508D01*
X2239229Y-10323508D02*
X2248753Y-10333031D01*
X2248753Y-10333031D02*
X2258277Y-10352079D01*
X2258277Y-10352079D02*
X2267801Y-10390174D01*
X2267801Y-10390174D02*
X2267801Y-10437793D01*
X2267801Y-10437793D02*
X2258277Y-10475889D01*
X2258277Y-10475889D02*
X2248753Y-10494936D01*
X2248753Y-10494936D02*
X2239229Y-10504460D01*
X2239229Y-10504460D02*
X2220182Y-10513984D01*
X2220182Y-10513984D02*
X2201134Y-10513984D01*
X2201134Y-10513984D02*
X2182087Y-10504460D01*
X2182087Y-10504460D02*
X2172563Y-10494936D01*
X2172563Y-10494936D02*
X2163039Y-10475889D01*
X2163039Y-10475889D02*
X2153515Y-10437793D01*
X2153515Y-10437793D02*
X2153515Y-10390174D01*
X2153515Y-10390174D02*
X2163039Y-10352079D01*
X2163039Y-10352079D02*
X2172563Y-10333031D01*
X2172563Y-10333031D02*
X2182087Y-10323508D01*
X2182087Y-10323508D02*
X2201134Y-10313984D01*
X2353515Y-10494936D02*
X2363039Y-10504460D01*
X2363039Y-10504460D02*
X2353515Y-10513984D01*
X2353515Y-10513984D02*
X2343991Y-10504460D01*
X2343991Y-10504460D02*
X2353515Y-10494936D01*
X2353515Y-10494936D02*
X2353515Y-10513984D01*
X2486848Y-10313984D02*
X2505896Y-10313984D01*
X2505896Y-10313984D02*
X2524944Y-10323508D01*
X2524944Y-10323508D02*
X2534468Y-10333031D01*
X2534468Y-10333031D02*
X2543991Y-10352079D01*
X2543991Y-10352079D02*
X2553515Y-10390174D01*
X2553515Y-10390174D02*
X2553515Y-10437793D01*
X2553515Y-10437793D02*
X2543991Y-10475889D01*
X2543991Y-10475889D02*
X2534468Y-10494936D01*
X2534468Y-10494936D02*
X2524944Y-10504460D01*
X2524944Y-10504460D02*
X2505896Y-10513984D01*
X2505896Y-10513984D02*
X2486848Y-10513984D01*
X2486848Y-10513984D02*
X2467801Y-10504460D01*
X2467801Y-10504460D02*
X2458277Y-10494936D01*
X2458277Y-10494936D02*
X2448753Y-10475889D01*
X2448753Y-10475889D02*
X2439229Y-10437793D01*
X2439229Y-10437793D02*
X2439229Y-10390174D01*
X2439229Y-10390174D02*
X2448753Y-10352079D01*
X2448753Y-10352079D02*
X2458277Y-10333031D01*
X2458277Y-10333031D02*
X2467801Y-10323508D01*
X2467801Y-10323508D02*
X2486848Y-10313984D01*
X2629706Y-10333031D02*
X2639229Y-10323508D01*
X2639229Y-10323508D02*
X2658277Y-10313984D01*
X2658277Y-10313984D02*
X2705896Y-10313984D01*
X2705896Y-10313984D02*
X2724944Y-10323508D01*
X2724944Y-10323508D02*
X2734468Y-10333031D01*
X2734468Y-10333031D02*
X2743991Y-10352079D01*
X2743991Y-10352079D02*
X2743991Y-10371127D01*
X2743991Y-10371127D02*
X2734468Y-10399698D01*
X2734468Y-10399698D02*
X2620182Y-10513984D01*
X2620182Y-10513984D02*
X2743991Y-10513984D01*
X2810658Y-10313984D02*
X2934467Y-10313984D01*
X2934467Y-10313984D02*
X2867801Y-10390174D01*
X2867801Y-10390174D02*
X2896372Y-10390174D01*
X2896372Y-10390174D02*
X2915420Y-10399698D01*
X2915420Y-10399698D02*
X2924944Y-10409222D01*
X2924944Y-10409222D02*
X2934467Y-10428270D01*
X2934467Y-10428270D02*
X2934467Y-10475889D01*
X2934467Y-10475889D02*
X2924944Y-10494936D01*
X2924944Y-10494936D02*
X2915420Y-10504460D01*
X2915420Y-10504460D02*
X2896372Y-10513984D01*
X2896372Y-10513984D02*
X2839229Y-10513984D01*
X2839229Y-10513984D02*
X2820182Y-10504460D01*
X2820182Y-10504460D02*
X2810658Y-10494936D01*
X3105896Y-10313984D02*
X3067801Y-10313984D01*
X3067801Y-10313984D02*
X3048753Y-10323508D01*
X3048753Y-10323508D02*
X3039229Y-10333031D01*
X3039229Y-10333031D02*
X3020182Y-10361603D01*
X3020182Y-10361603D02*
X3010658Y-10399698D01*
X3010658Y-10399698D02*
X3010658Y-10475889D01*
X3010658Y-10475889D02*
X3020182Y-10494936D01*
X3020182Y-10494936D02*
X3029706Y-10504460D01*
X3029706Y-10504460D02*
X3048753Y-10513984D01*
X3048753Y-10513984D02*
X3086848Y-10513984D01*
X3086848Y-10513984D02*
X3105896Y-10504460D01*
X3105896Y-10504460D02*
X3115420Y-10494936D01*
X3115420Y-10494936D02*
X3124944Y-10475889D01*
X3124944Y-10475889D02*
X3124944Y-10428270D01*
X3124944Y-10428270D02*
X3115420Y-10409222D01*
X3115420Y-10409222D02*
X3105896Y-10399698D01*
X3105896Y-10399698D02*
X3086848Y-10390174D01*
X3086848Y-10390174D02*
X3048753Y-10390174D01*
X3048753Y-10390174D02*
X3029706Y-10399698D01*
X3029706Y-10399698D02*
X3020182Y-10409222D01*
X3020182Y-10409222D02*
X3010658Y-10428270D01*
X3201134Y-10313984D02*
X3201134Y-10352079D01*
X3277325Y-10313984D02*
X3277325Y-10352079D01*
X3572563Y-10590174D02*
X3563039Y-10580650D01*
X3563039Y-10580650D02*
X3543991Y-10552079D01*
X3543991Y-10552079D02*
X3534468Y-10533031D01*
X3534468Y-10533031D02*
X3524944Y-10504460D01*
X3524944Y-10504460D02*
X3515420Y-10456841D01*
X3515420Y-10456841D02*
X3515420Y-10418746D01*
X3515420Y-10418746D02*
X3524944Y-10371127D01*
X3524944Y-10371127D02*
X3534468Y-10342555D01*
X3534468Y-10342555D02*
X3543991Y-10323508D01*
X3543991Y-10323508D02*
X3563039Y-10294936D01*
X3563039Y-10294936D02*
X3572563Y-10285412D01*
X3753515Y-10513984D02*
X3639229Y-10513984D01*
X3696372Y-10513984D02*
X3696372Y-10313984D01*
X3696372Y-10313984D02*
X3677325Y-10342555D01*
X3677325Y-10342555D02*
X3658277Y-10361603D01*
X3658277Y-10361603D02*
X3639229Y-10371127D01*
X3829706Y-10333031D02*
X3839229Y-10323508D01*
X3839229Y-10323508D02*
X3858277Y-10313984D01*
X3858277Y-10313984D02*
X3905896Y-10313984D01*
X3905896Y-10313984D02*
X3924944Y-10323508D01*
X3924944Y-10323508D02*
X3934468Y-10333031D01*
X3934468Y-10333031D02*
X3943991Y-10352079D01*
X3943991Y-10352079D02*
X3943991Y-10371127D01*
X3943991Y-10371127D02*
X3934468Y-10399698D01*
X3934468Y-10399698D02*
X3820182Y-10513984D01*
X3820182Y-10513984D02*
X3943991Y-10513984D01*
X4182087Y-10513984D02*
X4182087Y-10313984D01*
X4267801Y-10513984D02*
X4267801Y-10409222D01*
X4267801Y-10409222D02*
X4258277Y-10390174D01*
X4258277Y-10390174D02*
X4239230Y-10380650D01*
X4239230Y-10380650D02*
X4210658Y-10380650D01*
X4210658Y-10380650D02*
X4191610Y-10390174D01*
X4191610Y-10390174D02*
X4182087Y-10399698D01*
X4391611Y-10513984D02*
X4372563Y-10504460D01*
X4372563Y-10504460D02*
X4363039Y-10494936D01*
X4363039Y-10494936D02*
X4353515Y-10475889D01*
X4353515Y-10475889D02*
X4353515Y-10418746D01*
X4353515Y-10418746D02*
X4363039Y-10399698D01*
X4363039Y-10399698D02*
X4372563Y-10390174D01*
X4372563Y-10390174D02*
X4391611Y-10380650D01*
X4391611Y-10380650D02*
X4420182Y-10380650D01*
X4420182Y-10380650D02*
X4439230Y-10390174D01*
X4439230Y-10390174D02*
X4448753Y-10399698D01*
X4448753Y-10399698D02*
X4458277Y-10418746D01*
X4458277Y-10418746D02*
X4458277Y-10475889D01*
X4458277Y-10475889D02*
X4448753Y-10494936D01*
X4448753Y-10494936D02*
X4439230Y-10504460D01*
X4439230Y-10504460D02*
X4420182Y-10513984D01*
X4420182Y-10513984D02*
X4391611Y-10513984D01*
X4572563Y-10513984D02*
X4553515Y-10504460D01*
X4553515Y-10504460D02*
X4543992Y-10485412D01*
X4543992Y-10485412D02*
X4543992Y-10313984D01*
X4724944Y-10504460D02*
X4705896Y-10513984D01*
X4705896Y-10513984D02*
X4667801Y-10513984D01*
X4667801Y-10513984D02*
X4648753Y-10504460D01*
X4648753Y-10504460D02*
X4639230Y-10485412D01*
X4639230Y-10485412D02*
X4639230Y-10409222D01*
X4639230Y-10409222D02*
X4648753Y-10390174D01*
X4648753Y-10390174D02*
X4667801Y-10380650D01*
X4667801Y-10380650D02*
X4705896Y-10380650D01*
X4705896Y-10380650D02*
X4724944Y-10390174D01*
X4724944Y-10390174D02*
X4734468Y-10409222D01*
X4734468Y-10409222D02*
X4734468Y-10428270D01*
X4734468Y-10428270D02*
X4639230Y-10447317D01*
X4810658Y-10504460D02*
X4829706Y-10513984D01*
X4829706Y-10513984D02*
X4867801Y-10513984D01*
X4867801Y-10513984D02*
X4886849Y-10504460D01*
X4886849Y-10504460D02*
X4896373Y-10485412D01*
X4896373Y-10485412D02*
X4896373Y-10475889D01*
X4896373Y-10475889D02*
X4886849Y-10456841D01*
X4886849Y-10456841D02*
X4867801Y-10447317D01*
X4867801Y-10447317D02*
X4839230Y-10447317D01*
X4839230Y-10447317D02*
X4820182Y-10437793D01*
X4820182Y-10437793D02*
X4810658Y-10418746D01*
X4810658Y-10418746D02*
X4810658Y-10409222D01*
X4810658Y-10409222D02*
X4820182Y-10390174D01*
X4820182Y-10390174D02*
X4839230Y-10380650D01*
X4839230Y-10380650D02*
X4867801Y-10380650D01*
X4867801Y-10380650D02*
X4886849Y-10390174D01*
X4963039Y-10590174D02*
X4972563Y-10580650D01*
X4972563Y-10580650D02*
X4991611Y-10552079D01*
X4991611Y-10552079D02*
X5001134Y-10533031D01*
X5001134Y-10533031D02*
X5010658Y-10504460D01*
X5010658Y-10504460D02*
X5020182Y-10456841D01*
X5020182Y-10456841D02*
X5020182Y-10418746D01*
X5020182Y-10418746D02*
X5010658Y-10371127D01*
X5010658Y-10371127D02*
X5001134Y-10342555D01*
X5001134Y-10342555D02*
X4991611Y-10323508D01*
X4991611Y-10323508D02*
X4972563Y-10294936D01*
X4972563Y-10294936D02*
X4963039Y-10285412D01*
X5324944Y-10590174D02*
X5315420Y-10580650D01*
X5315420Y-10580650D02*
X5296373Y-10552079D01*
X5296373Y-10552079D02*
X5286849Y-10533031D01*
X5286849Y-10533031D02*
X5277325Y-10504460D01*
X5277325Y-10504460D02*
X5267801Y-10456841D01*
X5267801Y-10456841D02*
X5267801Y-10418746D01*
X5267801Y-10418746D02*
X5277325Y-10371127D01*
X5277325Y-10371127D02*
X5286849Y-10342555D01*
X5286849Y-10342555D02*
X5296373Y-10323508D01*
X5296373Y-10323508D02*
X5315420Y-10294936D01*
X5315420Y-10294936D02*
X5324944Y-10285412D01*
X5401134Y-10380650D02*
X5401134Y-10513984D01*
X5401134Y-10399698D02*
X5410658Y-10390174D01*
X5410658Y-10390174D02*
X5429706Y-10380650D01*
X5429706Y-10380650D02*
X5458277Y-10380650D01*
X5458277Y-10380650D02*
X5477325Y-10390174D01*
X5477325Y-10390174D02*
X5486849Y-10409222D01*
X5486849Y-10409222D02*
X5486849Y-10513984D01*
X5610658Y-10513984D02*
X5591611Y-10504460D01*
X5591611Y-10504460D02*
X5582087Y-10494936D01*
X5582087Y-10494936D02*
X5572563Y-10475889D01*
X5572563Y-10475889D02*
X5572563Y-10418746D01*
X5572563Y-10418746D02*
X5582087Y-10399698D01*
X5582087Y-10399698D02*
X5591611Y-10390174D01*
X5591611Y-10390174D02*
X5610658Y-10380650D01*
X5610658Y-10380650D02*
X5639230Y-10380650D01*
X5639230Y-10380650D02*
X5658277Y-10390174D01*
X5658277Y-10390174D02*
X5667801Y-10399698D01*
X5667801Y-10399698D02*
X5677325Y-10418746D01*
X5677325Y-10418746D02*
X5677325Y-10475889D01*
X5677325Y-10475889D02*
X5667801Y-10494936D01*
X5667801Y-10494936D02*
X5658277Y-10504460D01*
X5658277Y-10504460D02*
X5639230Y-10513984D01*
X5639230Y-10513984D02*
X5610658Y-10513984D01*
X5734468Y-10380650D02*
X5810658Y-10380650D01*
X5763039Y-10313984D02*
X5763039Y-10485412D01*
X5763039Y-10485412D02*
X5772563Y-10504460D01*
X5772563Y-10504460D02*
X5791611Y-10513984D01*
X5791611Y-10513984D02*
X5810658Y-10513984D01*
X6029706Y-10380650D02*
X6029706Y-10580650D01*
X6029706Y-10390174D02*
X6048753Y-10380650D01*
X6048753Y-10380650D02*
X6086849Y-10380650D01*
X6086849Y-10380650D02*
X6105896Y-10390174D01*
X6105896Y-10390174D02*
X6115420Y-10399698D01*
X6115420Y-10399698D02*
X6124944Y-10418746D01*
X6124944Y-10418746D02*
X6124944Y-10475889D01*
X6124944Y-10475889D02*
X6115420Y-10494936D01*
X6115420Y-10494936D02*
X6105896Y-10504460D01*
X6105896Y-10504460D02*
X6086849Y-10513984D01*
X6086849Y-10513984D02*
X6048753Y-10513984D01*
X6048753Y-10513984D02*
X6029706Y-10504460D01*
X6239230Y-10513984D02*
X6220182Y-10504460D01*
X6220182Y-10504460D02*
X6210658Y-10485412D01*
X6210658Y-10485412D02*
X6210658Y-10313984D01*
X6401134Y-10513984D02*
X6401134Y-10409222D01*
X6401134Y-10409222D02*
X6391611Y-10390174D01*
X6391611Y-10390174D02*
X6372563Y-10380650D01*
X6372563Y-10380650D02*
X6334468Y-10380650D01*
X6334468Y-10380650D02*
X6315420Y-10390174D01*
X6401134Y-10504460D02*
X6382087Y-10513984D01*
X6382087Y-10513984D02*
X6334468Y-10513984D01*
X6334468Y-10513984D02*
X6315420Y-10504460D01*
X6315420Y-10504460D02*
X6305896Y-10485412D01*
X6305896Y-10485412D02*
X6305896Y-10466365D01*
X6305896Y-10466365D02*
X6315420Y-10447317D01*
X6315420Y-10447317D02*
X6334468Y-10437793D01*
X6334468Y-10437793D02*
X6382087Y-10437793D01*
X6382087Y-10437793D02*
X6401134Y-10428270D01*
X6467801Y-10380650D02*
X6543992Y-10380650D01*
X6496373Y-10313984D02*
X6496373Y-10485412D01*
X6496373Y-10485412D02*
X6505896Y-10504460D01*
X6505896Y-10504460D02*
X6524944Y-10513984D01*
X6524944Y-10513984D02*
X6543992Y-10513984D01*
X6686849Y-10504460D02*
X6667801Y-10513984D01*
X6667801Y-10513984D02*
X6629706Y-10513984D01*
X6629706Y-10513984D02*
X6610658Y-10504460D01*
X6610658Y-10504460D02*
X6601134Y-10485412D01*
X6601134Y-10485412D02*
X6601134Y-10409222D01*
X6601134Y-10409222D02*
X6610658Y-10390174D01*
X6610658Y-10390174D02*
X6629706Y-10380650D01*
X6629706Y-10380650D02*
X6667801Y-10380650D01*
X6667801Y-10380650D02*
X6686849Y-10390174D01*
X6686849Y-10390174D02*
X6696373Y-10409222D01*
X6696373Y-10409222D02*
X6696373Y-10428270D01*
X6696373Y-10428270D02*
X6601134Y-10447317D01*
X6867801Y-10513984D02*
X6867801Y-10313984D01*
X6867801Y-10504460D02*
X6848754Y-10513984D01*
X6848754Y-10513984D02*
X6810658Y-10513984D01*
X6810658Y-10513984D02*
X6791611Y-10504460D01*
X6791611Y-10504460D02*
X6782087Y-10494936D01*
X6782087Y-10494936D02*
X6772563Y-10475889D01*
X6772563Y-10475889D02*
X6772563Y-10418746D01*
X6772563Y-10418746D02*
X6782087Y-10399698D01*
X6782087Y-10399698D02*
X6791611Y-10390174D01*
X6791611Y-10390174D02*
X6810658Y-10380650D01*
X6810658Y-10380650D02*
X6848754Y-10380650D01*
X6848754Y-10380650D02*
X6867801Y-10390174D01*
X6943992Y-10590174D02*
X6953515Y-10580650D01*
X6953515Y-10580650D02*
X6972563Y-10552079D01*
X6972563Y-10552079D02*
X6982087Y-10533031D01*
X6982087Y-10533031D02*
X6991611Y-10504460D01*
X6991611Y-10504460D02*
X7001134Y-10456841D01*
X7001134Y-10456841D02*
X7001134Y-10418746D01*
X7001134Y-10418746D02*
X6991611Y-10371127D01*
X6991611Y-10371127D02*
X6982087Y-10342555D01*
X6982087Y-10342555D02*
X6972563Y-10323508D01*
X6972563Y-10323508D02*
X6953515Y-10294936D01*
X6953515Y-10294936D02*
X6943992Y-10285412D01*
X-2500Y-10686500D02*
G75*
G02*
X-202500Y-10686500I-100000J0D01*
G01*
X-202500Y-10686500D02*
G75*
G02*
X-2500Y-10686500I100000J0D01*
G01*
X248753Y-10597031D02*
X258277Y-10587508D01*
X258277Y-10587508D02*
X277324Y-10577984D01*
X277324Y-10577984D02*
X324944Y-10577984D01*
X324944Y-10577984D02*
X343991Y-10587508D01*
X343991Y-10587508D02*
X353515Y-10597031D01*
X353515Y-10597031D02*
X363039Y-10616079D01*
X363039Y-10616079D02*
X363039Y-10635127D01*
X363039Y-10635127D02*
X353515Y-10663698D01*
X353515Y-10663698D02*
X239229Y-10777984D01*
X239229Y-10777984D02*
X363039Y-10777984D01*
X448753Y-10758936D02*
X458277Y-10768460D01*
X458277Y-10768460D02*
X448753Y-10777984D01*
X448753Y-10777984D02*
X439229Y-10768460D01*
X439229Y-10768460D02*
X448753Y-10758936D01*
X448753Y-10758936D02*
X448753Y-10777984D01*
X582086Y-10577984D02*
X601134Y-10577984D01*
X601134Y-10577984D02*
X620182Y-10587508D01*
X620182Y-10587508D02*
X629705Y-10597031D01*
X629705Y-10597031D02*
X639229Y-10616079D01*
X639229Y-10616079D02*
X648753Y-10654174D01*
X648753Y-10654174D02*
X648753Y-10701793D01*
X648753Y-10701793D02*
X639229Y-10739889D01*
X639229Y-10739889D02*
X629705Y-10758936D01*
X629705Y-10758936D02*
X620182Y-10768460D01*
X620182Y-10768460D02*
X601134Y-10777984D01*
X601134Y-10777984D02*
X582086Y-10777984D01*
X582086Y-10777984D02*
X563039Y-10768460D01*
X563039Y-10768460D02*
X553515Y-10758936D01*
X553515Y-10758936D02*
X543991Y-10739889D01*
X543991Y-10739889D02*
X534467Y-10701793D01*
X534467Y-10701793D02*
X534467Y-10654174D01*
X534467Y-10654174D02*
X543991Y-10616079D01*
X543991Y-10616079D02*
X553515Y-10597031D01*
X553515Y-10597031D02*
X563039Y-10587508D01*
X563039Y-10587508D02*
X582086Y-10577984D01*
X772562Y-10577984D02*
X791610Y-10577984D01*
X791610Y-10577984D02*
X810658Y-10587508D01*
X810658Y-10587508D02*
X820182Y-10597031D01*
X820182Y-10597031D02*
X829705Y-10616079D01*
X829705Y-10616079D02*
X839229Y-10654174D01*
X839229Y-10654174D02*
X839229Y-10701793D01*
X839229Y-10701793D02*
X829705Y-10739889D01*
X829705Y-10739889D02*
X820182Y-10758936D01*
X820182Y-10758936D02*
X810658Y-10768460D01*
X810658Y-10768460D02*
X791610Y-10777984D01*
X791610Y-10777984D02*
X772562Y-10777984D01*
X772562Y-10777984D02*
X753515Y-10768460D01*
X753515Y-10768460D02*
X743991Y-10758936D01*
X743991Y-10758936D02*
X734467Y-10739889D01*
X734467Y-10739889D02*
X724943Y-10701793D01*
X724943Y-10701793D02*
X724943Y-10654174D01*
X724943Y-10654174D02*
X734467Y-10616079D01*
X734467Y-10616079D02*
X743991Y-10597031D01*
X743991Y-10597031D02*
X753515Y-10587508D01*
X753515Y-10587508D02*
X772562Y-10577984D01*
X963039Y-10577984D02*
X982086Y-10577984D01*
X982086Y-10577984D02*
X1001134Y-10587508D01*
X1001134Y-10587508D02*
X1010658Y-10597031D01*
X1010658Y-10597031D02*
X1020182Y-10616079D01*
X1020182Y-10616079D02*
X1029705Y-10654174D01*
X1029705Y-10654174D02*
X1029705Y-10701793D01*
X1029705Y-10701793D02*
X1020182Y-10739889D01*
X1020182Y-10739889D02*
X1010658Y-10758936D01*
X1010658Y-10758936D02*
X1001134Y-10768460D01*
X1001134Y-10768460D02*
X982086Y-10777984D01*
X982086Y-10777984D02*
X963039Y-10777984D01*
X963039Y-10777984D02*
X943991Y-10768460D01*
X943991Y-10768460D02*
X934467Y-10758936D01*
X934467Y-10758936D02*
X924943Y-10739889D01*
X924943Y-10739889D02*
X915420Y-10701793D01*
X915420Y-10701793D02*
X915420Y-10654174D01*
X915420Y-10654174D02*
X924943Y-10616079D01*
X924943Y-10616079D02*
X934467Y-10597031D01*
X934467Y-10597031D02*
X943991Y-10587508D01*
X943991Y-10587508D02*
X963039Y-10577984D01*
X1115420Y-10777984D02*
X1115420Y-10644650D01*
X1115420Y-10663698D02*
X1124944Y-10654174D01*
X1124944Y-10654174D02*
X1143991Y-10644650D01*
X1143991Y-10644650D02*
X1172563Y-10644650D01*
X1172563Y-10644650D02*
X1191610Y-10654174D01*
X1191610Y-10654174D02*
X1201134Y-10673222D01*
X1201134Y-10673222D02*
X1201134Y-10777984D01*
X1201134Y-10673222D02*
X1210658Y-10654174D01*
X1210658Y-10654174D02*
X1229705Y-10644650D01*
X1229705Y-10644650D02*
X1258277Y-10644650D01*
X1258277Y-10644650D02*
X1277325Y-10654174D01*
X1277325Y-10654174D02*
X1286848Y-10673222D01*
X1286848Y-10673222D02*
X1286848Y-10777984D01*
X1382086Y-10777984D02*
X1382086Y-10644650D01*
X1382086Y-10663698D02*
X1391610Y-10654174D01*
X1391610Y-10654174D02*
X1410658Y-10644650D01*
X1410658Y-10644650D02*
X1439229Y-10644650D01*
X1439229Y-10644650D02*
X1458277Y-10654174D01*
X1458277Y-10654174D02*
X1467801Y-10673222D01*
X1467801Y-10673222D02*
X1467801Y-10777984D01*
X1467801Y-10673222D02*
X1477324Y-10654174D01*
X1477324Y-10654174D02*
X1496372Y-10644650D01*
X1496372Y-10644650D02*
X1524943Y-10644650D01*
X1524943Y-10644650D02*
X1543991Y-10654174D01*
X1543991Y-10654174D02*
X1553515Y-10673222D01*
X1553515Y-10673222D02*
X1553515Y-10777984D01*
X1943991Y-10568460D02*
X1772563Y-10825603D01*
X2201134Y-10577984D02*
X2220182Y-10577984D01*
X2220182Y-10577984D02*
X2239229Y-10587508D01*
X2239229Y-10587508D02*
X2248753Y-10597031D01*
X2248753Y-10597031D02*
X2258277Y-10616079D01*
X2258277Y-10616079D02*
X2267801Y-10654174D01*
X2267801Y-10654174D02*
X2267801Y-10701793D01*
X2267801Y-10701793D02*
X2258277Y-10739889D01*
X2258277Y-10739889D02*
X2248753Y-10758936D01*
X2248753Y-10758936D02*
X2239229Y-10768460D01*
X2239229Y-10768460D02*
X2220182Y-10777984D01*
X2220182Y-10777984D02*
X2201134Y-10777984D01*
X2201134Y-10777984D02*
X2182087Y-10768460D01*
X2182087Y-10768460D02*
X2172563Y-10758936D01*
X2172563Y-10758936D02*
X2163039Y-10739889D01*
X2163039Y-10739889D02*
X2153515Y-10701793D01*
X2153515Y-10701793D02*
X2153515Y-10654174D01*
X2153515Y-10654174D02*
X2163039Y-10616079D01*
X2163039Y-10616079D02*
X2172563Y-10597031D01*
X2172563Y-10597031D02*
X2182087Y-10587508D01*
X2182087Y-10587508D02*
X2201134Y-10577984D01*
X2353515Y-10758936D02*
X2363039Y-10768460D01*
X2363039Y-10768460D02*
X2353515Y-10777984D01*
X2353515Y-10777984D02*
X2343991Y-10768460D01*
X2343991Y-10768460D02*
X2353515Y-10758936D01*
X2353515Y-10758936D02*
X2353515Y-10777984D01*
X2486848Y-10577984D02*
X2505896Y-10577984D01*
X2505896Y-10577984D02*
X2524944Y-10587508D01*
X2524944Y-10587508D02*
X2534468Y-10597031D01*
X2534468Y-10597031D02*
X2543991Y-10616079D01*
X2543991Y-10616079D02*
X2553515Y-10654174D01*
X2553515Y-10654174D02*
X2553515Y-10701793D01*
X2553515Y-10701793D02*
X2543991Y-10739889D01*
X2543991Y-10739889D02*
X2534468Y-10758936D01*
X2534468Y-10758936D02*
X2524944Y-10768460D01*
X2524944Y-10768460D02*
X2505896Y-10777984D01*
X2505896Y-10777984D02*
X2486848Y-10777984D01*
X2486848Y-10777984D02*
X2467801Y-10768460D01*
X2467801Y-10768460D02*
X2458277Y-10758936D01*
X2458277Y-10758936D02*
X2448753Y-10739889D01*
X2448753Y-10739889D02*
X2439229Y-10701793D01*
X2439229Y-10701793D02*
X2439229Y-10654174D01*
X2439229Y-10654174D02*
X2448753Y-10616079D01*
X2448753Y-10616079D02*
X2458277Y-10597031D01*
X2458277Y-10597031D02*
X2467801Y-10587508D01*
X2467801Y-10587508D02*
X2486848Y-10577984D01*
X2620182Y-10577984D02*
X2753515Y-10577984D01*
X2753515Y-10577984D02*
X2667801Y-10777984D01*
X2858277Y-10663698D02*
X2839229Y-10654174D01*
X2839229Y-10654174D02*
X2829706Y-10644650D01*
X2829706Y-10644650D02*
X2820182Y-10625603D01*
X2820182Y-10625603D02*
X2820182Y-10616079D01*
X2820182Y-10616079D02*
X2829706Y-10597031D01*
X2829706Y-10597031D02*
X2839229Y-10587508D01*
X2839229Y-10587508D02*
X2858277Y-10577984D01*
X2858277Y-10577984D02*
X2896372Y-10577984D01*
X2896372Y-10577984D02*
X2915420Y-10587508D01*
X2915420Y-10587508D02*
X2924944Y-10597031D01*
X2924944Y-10597031D02*
X2934467Y-10616079D01*
X2934467Y-10616079D02*
X2934467Y-10625603D01*
X2934467Y-10625603D02*
X2924944Y-10644650D01*
X2924944Y-10644650D02*
X2915420Y-10654174D01*
X2915420Y-10654174D02*
X2896372Y-10663698D01*
X2896372Y-10663698D02*
X2858277Y-10663698D01*
X2858277Y-10663698D02*
X2839229Y-10673222D01*
X2839229Y-10673222D02*
X2829706Y-10682746D01*
X2829706Y-10682746D02*
X2820182Y-10701793D01*
X2820182Y-10701793D02*
X2820182Y-10739889D01*
X2820182Y-10739889D02*
X2829706Y-10758936D01*
X2829706Y-10758936D02*
X2839229Y-10768460D01*
X2839229Y-10768460D02*
X2858277Y-10777984D01*
X2858277Y-10777984D02*
X2896372Y-10777984D01*
X2896372Y-10777984D02*
X2915420Y-10768460D01*
X2915420Y-10768460D02*
X2924944Y-10758936D01*
X2924944Y-10758936D02*
X2934467Y-10739889D01*
X2934467Y-10739889D02*
X2934467Y-10701793D01*
X2934467Y-10701793D02*
X2924944Y-10682746D01*
X2924944Y-10682746D02*
X2915420Y-10673222D01*
X2915420Y-10673222D02*
X2896372Y-10663698D01*
X3001134Y-10577984D02*
X3134467Y-10577984D01*
X3134467Y-10577984D02*
X3048753Y-10777984D01*
X3201134Y-10577984D02*
X3201134Y-10616079D01*
X3277325Y-10577984D02*
X3277325Y-10616079D01*
X3572563Y-10854174D02*
X3563039Y-10844650D01*
X3563039Y-10844650D02*
X3543991Y-10816079D01*
X3543991Y-10816079D02*
X3534468Y-10797031D01*
X3534468Y-10797031D02*
X3524944Y-10768460D01*
X3524944Y-10768460D02*
X3515420Y-10720841D01*
X3515420Y-10720841D02*
X3515420Y-10682746D01*
X3515420Y-10682746D02*
X3524944Y-10635127D01*
X3524944Y-10635127D02*
X3534468Y-10606555D01*
X3534468Y-10606555D02*
X3543991Y-10587508D01*
X3543991Y-10587508D02*
X3563039Y-10558936D01*
X3563039Y-10558936D02*
X3572563Y-10549412D01*
X3734468Y-10644650D02*
X3734468Y-10777984D01*
X3686848Y-10568460D02*
X3639229Y-10711317D01*
X3639229Y-10711317D02*
X3763039Y-10711317D01*
X3991610Y-10777984D02*
X3991610Y-10577984D01*
X4077325Y-10777984D02*
X4077325Y-10673222D01*
X4077325Y-10673222D02*
X4067801Y-10654174D01*
X4067801Y-10654174D02*
X4048753Y-10644650D01*
X4048753Y-10644650D02*
X4020182Y-10644650D01*
X4020182Y-10644650D02*
X4001134Y-10654174D01*
X4001134Y-10654174D02*
X3991610Y-10663698D01*
X4201134Y-10777984D02*
X4182087Y-10768460D01*
X4182087Y-10768460D02*
X4172563Y-10758936D01*
X4172563Y-10758936D02*
X4163039Y-10739889D01*
X4163039Y-10739889D02*
X4163039Y-10682746D01*
X4163039Y-10682746D02*
X4172563Y-10663698D01*
X4172563Y-10663698D02*
X4182087Y-10654174D01*
X4182087Y-10654174D02*
X4201134Y-10644650D01*
X4201134Y-10644650D02*
X4229706Y-10644650D01*
X4229706Y-10644650D02*
X4248753Y-10654174D01*
X4248753Y-10654174D02*
X4258277Y-10663698D01*
X4258277Y-10663698D02*
X4267801Y-10682746D01*
X4267801Y-10682746D02*
X4267801Y-10739889D01*
X4267801Y-10739889D02*
X4258277Y-10758936D01*
X4258277Y-10758936D02*
X4248753Y-10768460D01*
X4248753Y-10768460D02*
X4229706Y-10777984D01*
X4229706Y-10777984D02*
X4201134Y-10777984D01*
X4382087Y-10777984D02*
X4363039Y-10768460D01*
X4363039Y-10768460D02*
X4353515Y-10749412D01*
X4353515Y-10749412D02*
X4353515Y-10577984D01*
X4534468Y-10768460D02*
X4515420Y-10777984D01*
X4515420Y-10777984D02*
X4477325Y-10777984D01*
X4477325Y-10777984D02*
X4458277Y-10768460D01*
X4458277Y-10768460D02*
X4448753Y-10749412D01*
X4448753Y-10749412D02*
X4448753Y-10673222D01*
X4448753Y-10673222D02*
X4458277Y-10654174D01*
X4458277Y-10654174D02*
X4477325Y-10644650D01*
X4477325Y-10644650D02*
X4515420Y-10644650D01*
X4515420Y-10644650D02*
X4534468Y-10654174D01*
X4534468Y-10654174D02*
X4543992Y-10673222D01*
X4543992Y-10673222D02*
X4543992Y-10692270D01*
X4543992Y-10692270D02*
X4448753Y-10711317D01*
X4620182Y-10768460D02*
X4639230Y-10777984D01*
X4639230Y-10777984D02*
X4677325Y-10777984D01*
X4677325Y-10777984D02*
X4696373Y-10768460D01*
X4696373Y-10768460D02*
X4705896Y-10749412D01*
X4705896Y-10749412D02*
X4705896Y-10739889D01*
X4705896Y-10739889D02*
X4696373Y-10720841D01*
X4696373Y-10720841D02*
X4677325Y-10711317D01*
X4677325Y-10711317D02*
X4648753Y-10711317D01*
X4648753Y-10711317D02*
X4629706Y-10701793D01*
X4629706Y-10701793D02*
X4620182Y-10682746D01*
X4620182Y-10682746D02*
X4620182Y-10673222D01*
X4620182Y-10673222D02*
X4629706Y-10654174D01*
X4629706Y-10654174D02*
X4648753Y-10644650D01*
X4648753Y-10644650D02*
X4677325Y-10644650D01*
X4677325Y-10644650D02*
X4696373Y-10654174D01*
X4772563Y-10854174D02*
X4782087Y-10844650D01*
X4782087Y-10844650D02*
X4801134Y-10816079D01*
X4801134Y-10816079D02*
X4810658Y-10797031D01*
X4810658Y-10797031D02*
X4820182Y-10768460D01*
X4820182Y-10768460D02*
X4829706Y-10720841D01*
X4829706Y-10720841D02*
X4829706Y-10682746D01*
X4829706Y-10682746D02*
X4820182Y-10635127D01*
X4820182Y-10635127D02*
X4810658Y-10606555D01*
X4810658Y-10606555D02*
X4801134Y-10587508D01*
X4801134Y-10587508D02*
X4782087Y-10558936D01*
X4782087Y-10558936D02*
X4772563Y-10549412D01*
X5134468Y-10854174D02*
X5124944Y-10844650D01*
X5124944Y-10844650D02*
X5105896Y-10816079D01*
X5105896Y-10816079D02*
X5096373Y-10797031D01*
X5096373Y-10797031D02*
X5086849Y-10768460D01*
X5086849Y-10768460D02*
X5077325Y-10720841D01*
X5077325Y-10720841D02*
X5077325Y-10682746D01*
X5077325Y-10682746D02*
X5086849Y-10635127D01*
X5086849Y-10635127D02*
X5096373Y-10606555D01*
X5096373Y-10606555D02*
X5105896Y-10587508D01*
X5105896Y-10587508D02*
X5124944Y-10558936D01*
X5124944Y-10558936D02*
X5134468Y-10549412D01*
X5210658Y-10644650D02*
X5210658Y-10777984D01*
X5210658Y-10663698D02*
X5220182Y-10654174D01*
X5220182Y-10654174D02*
X5239230Y-10644650D01*
X5239230Y-10644650D02*
X5267801Y-10644650D01*
X5267801Y-10644650D02*
X5286849Y-10654174D01*
X5286849Y-10654174D02*
X5296373Y-10673222D01*
X5296373Y-10673222D02*
X5296373Y-10777984D01*
X5420182Y-10777984D02*
X5401134Y-10768460D01*
X5401134Y-10768460D02*
X5391611Y-10758936D01*
X5391611Y-10758936D02*
X5382087Y-10739889D01*
X5382087Y-10739889D02*
X5382087Y-10682746D01*
X5382087Y-10682746D02*
X5391611Y-10663698D01*
X5391611Y-10663698D02*
X5401134Y-10654174D01*
X5401134Y-10654174D02*
X5420182Y-10644650D01*
X5420182Y-10644650D02*
X5448754Y-10644650D01*
X5448754Y-10644650D02*
X5467801Y-10654174D01*
X5467801Y-10654174D02*
X5477325Y-10663698D01*
X5477325Y-10663698D02*
X5486849Y-10682746D01*
X5486849Y-10682746D02*
X5486849Y-10739889D01*
X5486849Y-10739889D02*
X5477325Y-10758936D01*
X5477325Y-10758936D02*
X5467801Y-10768460D01*
X5467801Y-10768460D02*
X5448754Y-10777984D01*
X5448754Y-10777984D02*
X5420182Y-10777984D01*
X5543992Y-10644650D02*
X5620182Y-10644650D01*
X5572563Y-10577984D02*
X5572563Y-10749412D01*
X5572563Y-10749412D02*
X5582087Y-10768460D01*
X5582087Y-10768460D02*
X5601134Y-10777984D01*
X5601134Y-10777984D02*
X5620182Y-10777984D01*
X5839230Y-10644650D02*
X5839230Y-10844650D01*
X5839230Y-10654174D02*
X5858277Y-10644650D01*
X5858277Y-10644650D02*
X5896373Y-10644650D01*
X5896373Y-10644650D02*
X5915420Y-10654174D01*
X5915420Y-10654174D02*
X5924944Y-10663698D01*
X5924944Y-10663698D02*
X5934468Y-10682746D01*
X5934468Y-10682746D02*
X5934468Y-10739889D01*
X5934468Y-10739889D02*
X5924944Y-10758936D01*
X5924944Y-10758936D02*
X5915420Y-10768460D01*
X5915420Y-10768460D02*
X5896373Y-10777984D01*
X5896373Y-10777984D02*
X5858277Y-10777984D01*
X5858277Y-10777984D02*
X5839230Y-10768460D01*
X6048753Y-10777984D02*
X6029706Y-10768460D01*
X6029706Y-10768460D02*
X6020182Y-10749412D01*
X6020182Y-10749412D02*
X6020182Y-10577984D01*
X6210658Y-10777984D02*
X6210658Y-10673222D01*
X6210658Y-10673222D02*
X6201134Y-10654174D01*
X6201134Y-10654174D02*
X6182087Y-10644650D01*
X6182087Y-10644650D02*
X6143992Y-10644650D01*
X6143992Y-10644650D02*
X6124944Y-10654174D01*
X6210658Y-10768460D02*
X6191611Y-10777984D01*
X6191611Y-10777984D02*
X6143992Y-10777984D01*
X6143992Y-10777984D02*
X6124944Y-10768460D01*
X6124944Y-10768460D02*
X6115420Y-10749412D01*
X6115420Y-10749412D02*
X6115420Y-10730365D01*
X6115420Y-10730365D02*
X6124944Y-10711317D01*
X6124944Y-10711317D02*
X6143992Y-10701793D01*
X6143992Y-10701793D02*
X6191611Y-10701793D01*
X6191611Y-10701793D02*
X6210658Y-10692270D01*
X6277325Y-10644650D02*
X6353515Y-10644650D01*
X6305896Y-10577984D02*
X6305896Y-10749412D01*
X6305896Y-10749412D02*
X6315420Y-10768460D01*
X6315420Y-10768460D02*
X6334468Y-10777984D01*
X6334468Y-10777984D02*
X6353515Y-10777984D01*
X6496373Y-10768460D02*
X6477325Y-10777984D01*
X6477325Y-10777984D02*
X6439230Y-10777984D01*
X6439230Y-10777984D02*
X6420182Y-10768460D01*
X6420182Y-10768460D02*
X6410658Y-10749412D01*
X6410658Y-10749412D02*
X6410658Y-10673222D01*
X6410658Y-10673222D02*
X6420182Y-10654174D01*
X6420182Y-10654174D02*
X6439230Y-10644650D01*
X6439230Y-10644650D02*
X6477325Y-10644650D01*
X6477325Y-10644650D02*
X6496373Y-10654174D01*
X6496373Y-10654174D02*
X6505896Y-10673222D01*
X6505896Y-10673222D02*
X6505896Y-10692270D01*
X6505896Y-10692270D02*
X6410658Y-10711317D01*
X6677325Y-10777984D02*
X6677325Y-10577984D01*
X6677325Y-10768460D02*
X6658277Y-10777984D01*
X6658277Y-10777984D02*
X6620182Y-10777984D01*
X6620182Y-10777984D02*
X6601134Y-10768460D01*
X6601134Y-10768460D02*
X6591611Y-10758936D01*
X6591611Y-10758936D02*
X6582087Y-10739889D01*
X6582087Y-10739889D02*
X6582087Y-10682746D01*
X6582087Y-10682746D02*
X6591611Y-10663698D01*
X6591611Y-10663698D02*
X6601134Y-10654174D01*
X6601134Y-10654174D02*
X6620182Y-10644650D01*
X6620182Y-10644650D02*
X6658277Y-10644650D01*
X6658277Y-10644650D02*
X6677325Y-10654174D01*
X6753515Y-10854174D02*
X6763039Y-10844650D01*
X6763039Y-10844650D02*
X6782087Y-10816079D01*
X6782087Y-10816079D02*
X6791611Y-10797031D01*
X6791611Y-10797031D02*
X6801134Y-10768460D01*
X6801134Y-10768460D02*
X6810658Y-10720841D01*
X6810658Y-10720841D02*
X6810658Y-10682746D01*
X6810658Y-10682746D02*
X6801134Y-10635127D01*
X6801134Y-10635127D02*
X6791611Y-10606555D01*
X6791611Y-10606555D02*
X6782087Y-10587508D01*
X6782087Y-10587508D02*
X6763039Y-10558936D01*
X6763039Y-10558936D02*
X6753515Y-10549412D01*
M02*
