G04 #@! TF.GenerationSoftware,KiCad,Pcbnew,9.0.2+dfsg-1*
G04 #@! TF.CreationDate,2026-10-04T10:33:58-04:00*
G04 #@! TF.ProjectId,panel_c50,70616e65-6c5f-4633-9530-2e6b69636164,rev?*
G04 #@! TF.SameCoordinates,Original*
G04 #@! TF.FileFunction,Soldermask,Top*
G04 #@! TF.FilePolarity,Negative*
%FSLAX46Y46*%
G04 Gerber Fmt 4.6, Leading zero omitted, Abs format (unit mm)*
G04 Created by KiCad (PCBNEW 9.0.2+dfsg-1) date 2026-10-04 10:33:58*
%MOMM*%
%LPD*%
G01*
G04 APERTURE LIST*
G04 Aperture macros list*
%AMRoundRect*
0 Rectangle with rounded corners*
0 $1 Rounding radius*
0 $2 $3 $4 $5 $6 $7 $8 $9 X,Y pos of 4 corners*
0 Add a 4 corners polygon primitive as box body*
4,1,4,$2,$3,$4,$5,$6,$7,$8,$9,$2,$3,0*
0 Add four circle primitives for the rounded corners*
1,1,$1+$1,$2,$3*
1,1,$1+$1,$4,$5*
1,1,$1+$1,$6,$7*
1,1,$1+$1,$8,$9*
0 Add four rect primitives between the rounded corners*
20,1,$1+$1,$2,$3,$4,$5,0*
20,1,$1+$1,$4,$5,$6,$7,0*
20,1,$1+$1,$6,$7,$8,$9,0*
20,1,$1+$1,$8,$9,$2,$3,0*%
G04 Aperture macros list end*
%ADD10C,2.000000*%
%ADD11C,0.600000*%
%ADD12R,0.270000X1.300000*%
%ADD13O,1.800000X1.300000*%
%ADD14RoundRect,0.100000X-0.130000X-0.100000X0.130000X-0.100000X0.130000X0.100000X-0.130000X0.100000X0*%
%ADD15R,0.800000X0.500000*%
%ADD16RoundRect,0.062500X0.372500X0.062500X-0.372500X0.062500X-0.372500X-0.062500X0.372500X-0.062500X0*%
%ADD17R,0.610000X2.200000*%
%ADD18R,0.230000X0.660000*%
%ADD19R,0.350000X0.660000*%
%ADD20R,0.300000X2.000000*%
%ADD21C,1.900000*%
G04 APERTURE END LIST*
D10*
G04 #@! TO.C,FID9*
X2500000Y-36000000D03*
G04 #@! TD*
D11*
G04 #@! TO.C,J1_C3*
X8500000Y-22900001D03*
X19500000Y-25500001D03*
D12*
X11250000Y-22550001D03*
X11750000Y-22550001D03*
X12250000Y-22550001D03*
X12750000Y-22550001D03*
X13250000Y-22550001D03*
X13750000Y-22550001D03*
X14250000Y-22550001D03*
X14750000Y-22550001D03*
X15250000Y-22550001D03*
X15750000Y-22550001D03*
X16250000Y-22550001D03*
X16750000Y-22550001D03*
X16750000Y-25850001D03*
X16250000Y-25850001D03*
X15750000Y-25850001D03*
X15250000Y-25850001D03*
X14750000Y-25850001D03*
X14250000Y-25850001D03*
X13750000Y-25850001D03*
X13250000Y-25850001D03*
X12750000Y-25850001D03*
X12250000Y-25850001D03*
X11750000Y-25850001D03*
X11250000Y-25850001D03*
D13*
X9900000Y-22730001D03*
X9900000Y-25670001D03*
X18100000Y-22730001D03*
X18100000Y-25670001D03*
G04 #@! TD*
D14*
G04 #@! TO.C,C1_C2*
X88669000Y-14800000D03*
X89309000Y-14800000D03*
G04 #@! TD*
D15*
G04 #@! TO.C,TP1A_T*
X10400000Y-63100001D03*
X10400000Y-62100001D03*
X10400000Y-61100001D03*
X10400000Y-60100001D03*
G04 #@! TD*
D10*
G04 #@! TO.C,FID2*
X89283999Y-3850000D03*
G04 #@! TD*
D14*
G04 #@! TO.C,C1_H*
X50079000Y-50650001D03*
X50719000Y-50650001D03*
G04 #@! TD*
D15*
G04 #@! TO.C,TP3B_T*
X63600000Y-73100001D03*
X63600000Y-72100001D03*
X63600000Y-71100001D03*
X63600000Y-70100001D03*
G04 #@! TD*
D10*
G04 #@! TO.C,FID4*
X84283999Y-94250000D03*
G04 #@! TD*
D15*
G04 #@! TO.C,TP2B_T*
X63600000Y-68100001D03*
X63600000Y-67100001D03*
X63600000Y-66100001D03*
X63600000Y-65100001D03*
G04 #@! TD*
D10*
G04 #@! TO.C,FID6*
X96783999Y-12400000D03*
G04 #@! TD*
D15*
G04 #@! TO.C,TP2A_T*
X10400000Y-68100001D03*
X10400000Y-67100001D03*
X10400000Y-66100001D03*
X10400000Y-65100001D03*
G04 #@! TD*
D16*
G04 #@! TO.C,U1_C1*
X47387000Y-13150000D03*
X47387000Y-12650000D03*
X47387000Y-12150000D03*
X47387000Y-11650000D03*
X45507000Y-11650000D03*
X45507000Y-12150000D03*
X45507000Y-12650000D03*
X45507000Y-13150000D03*
D17*
X46447000Y-12400000D03*
G04 #@! TD*
D14*
G04 #@! TO.C,C1_C4*
X88669000Y-26600001D03*
X89309000Y-26600001D03*
G04 #@! TD*
D10*
G04 #@! TO.C,TH3*
X2500000Y-95600000D03*
G04 #@! TD*
D18*
G04 #@! TO.C,J2_C3*
X33912000Y-22845001D03*
X33912000Y-25555001D03*
X34312000Y-22845001D03*
X34312000Y-25555001D03*
X34712000Y-22845001D03*
X34712000Y-25555001D03*
X35112000Y-22845001D03*
X35112000Y-25555001D03*
X35512000Y-22845001D03*
X35512000Y-25555001D03*
X35912000Y-22845001D03*
X35912000Y-25555001D03*
X36312000Y-22845001D03*
X36312000Y-25555001D03*
X36712000Y-22845001D03*
X36712000Y-25555001D03*
X37112000Y-22845001D03*
X37112000Y-25555001D03*
X37512000Y-22845001D03*
X37512000Y-25555001D03*
X37912000Y-22845001D03*
X37912000Y-25555001D03*
X38312000Y-22845001D03*
X38312000Y-25555001D03*
X38712000Y-22845001D03*
X38712000Y-25555001D03*
X39112000Y-22845001D03*
X39112000Y-25555001D03*
X39512000Y-22845001D03*
X39512000Y-25555001D03*
X39912000Y-22845001D03*
X39912000Y-25555001D03*
X40312000Y-22845001D03*
X40312000Y-25555001D03*
X40712000Y-22845001D03*
X40712000Y-25555001D03*
X41112000Y-22845001D03*
X41112000Y-25555001D03*
X41512000Y-22845001D03*
X41512000Y-25555001D03*
X41912000Y-22845001D03*
X41912000Y-25555001D03*
X42312000Y-22845001D03*
X42312000Y-25555001D03*
X42712000Y-22845001D03*
X42712000Y-25555001D03*
X43112000Y-22845001D03*
X43112000Y-25555001D03*
X43512000Y-22845001D03*
X43512000Y-25555001D03*
D19*
X33437000Y-22845001D03*
X33437000Y-25555001D03*
X43987000Y-22845001D03*
X43987000Y-25555001D03*
G04 #@! TD*
D16*
G04 #@! TO.C,U1_H*
X51939000Y-49000001D03*
X51939000Y-48500001D03*
X51939000Y-48000001D03*
X51939000Y-47500001D03*
X50059000Y-47500001D03*
X50059000Y-48000001D03*
X50059000Y-48500001D03*
X50059000Y-49000001D03*
D17*
X50999000Y-48250001D03*
G04 #@! TD*
D14*
G04 #@! TO.C,C1_C5*
X45527000Y-38400001D03*
X46167000Y-38400001D03*
G04 #@! TD*
D10*
G04 #@! TO.C,FID1*
X10000000Y-3850000D03*
G04 #@! TD*
D16*
G04 #@! TO.C,U1_C5*
X47387000Y-36750001D03*
X47387000Y-36250001D03*
X47387000Y-35750001D03*
X47387000Y-35250001D03*
X45507000Y-35250001D03*
X45507000Y-35750001D03*
X45507000Y-36250001D03*
X45507000Y-36750001D03*
D17*
X46447000Y-36000001D03*
G04 #@! TD*
D16*
G04 #@! TO.C,U1_C3*
X47387000Y-24950001D03*
X47387000Y-24450001D03*
X47387000Y-23950001D03*
X47387000Y-23450001D03*
X45507000Y-23450001D03*
X45507000Y-23950001D03*
X45507000Y-24450001D03*
X45507000Y-24950001D03*
D17*
X46447000Y-24200001D03*
G04 #@! TD*
D10*
G04 #@! TO.C,FID5*
X2500000Y-12400000D03*
G04 #@! TD*
D16*
G04 #@! TO.C,U1_C6*
X90529000Y-36750001D03*
X90529000Y-36250001D03*
X90529000Y-35750001D03*
X90529000Y-35250001D03*
X88649000Y-35250001D03*
X88649000Y-35750001D03*
X88649000Y-36250001D03*
X88649000Y-36750001D03*
D17*
X89589000Y-36000001D03*
G04 #@! TD*
D18*
G04 #@! TO.C,J2_C5*
X33912000Y-34645001D03*
X33912000Y-37355001D03*
X34312000Y-34645001D03*
X34312000Y-37355001D03*
X34712000Y-34645001D03*
X34712000Y-37355001D03*
X35112000Y-34645001D03*
X35112000Y-37355001D03*
X35512000Y-34645001D03*
X35512000Y-37355001D03*
X35912000Y-34645001D03*
X35912000Y-37355001D03*
X36312000Y-34645001D03*
X36312000Y-37355001D03*
X36712000Y-34645001D03*
X36712000Y-37355001D03*
X37112000Y-34645001D03*
X37112000Y-37355001D03*
X37512000Y-34645001D03*
X37512000Y-37355001D03*
X37912000Y-34645001D03*
X37912000Y-37355001D03*
X38312000Y-34645001D03*
X38312000Y-37355001D03*
X38712000Y-34645001D03*
X38712000Y-37355001D03*
X39112000Y-34645001D03*
X39112000Y-37355001D03*
X39512000Y-34645001D03*
X39512000Y-37355001D03*
X39912000Y-34645001D03*
X39912000Y-37355001D03*
X40312000Y-34645001D03*
X40312000Y-37355001D03*
X40712000Y-34645001D03*
X40712000Y-37355001D03*
X41112000Y-34645001D03*
X41112000Y-37355001D03*
X41512000Y-34645001D03*
X41512000Y-37355001D03*
X41912000Y-34645001D03*
X41912000Y-37355001D03*
X42312000Y-34645001D03*
X42312000Y-37355001D03*
X42712000Y-34645001D03*
X42712000Y-37355001D03*
X43112000Y-34645001D03*
X43112000Y-37355001D03*
X43512000Y-34645001D03*
X43512000Y-37355001D03*
D19*
X33437000Y-34645001D03*
X33437000Y-37355001D03*
X43987000Y-34645001D03*
X43987000Y-37355001D03*
G04 #@! TD*
D15*
G04 #@! TO.C,TP6B_T*
X63600000Y-88100001D03*
X63600000Y-87100001D03*
X63600000Y-86100001D03*
X63600000Y-85100001D03*
G04 #@! TD*
D10*
G04 #@! TO.C,FID8*
X96783999Y-24200000D03*
G04 #@! TD*
G04 #@! TO.C,FID11*
X2500000Y-48250000D03*
G04 #@! TD*
G04 #@! TO.C,TH4*
X91783999Y-95600000D03*
G04 #@! TD*
G04 #@! TO.C,TH1*
X2500000Y-2500000D03*
G04 #@! TD*
D15*
G04 #@! TO.C,TP5A_T*
X10400000Y-82600001D03*
X10400000Y-81600001D03*
X10400000Y-80600001D03*
G04 #@! TD*
D10*
G04 #@! TO.C,FID3*
X10000000Y-94250000D03*
G04 #@! TD*
D16*
G04 #@! TO.C,U1_C4*
X90529000Y-24950001D03*
X90529000Y-24450001D03*
X90529000Y-23950001D03*
X90529000Y-23450001D03*
X88649000Y-23450001D03*
X88649000Y-23950001D03*
X88649000Y-24450001D03*
X88649000Y-24950001D03*
D17*
X89589000Y-24200001D03*
G04 #@! TD*
D18*
G04 #@! TO.C,J2_C4*
X77054000Y-22845001D03*
X77054000Y-25555001D03*
X77454000Y-22845001D03*
X77454000Y-25555001D03*
X77854000Y-22845001D03*
X77854000Y-25555001D03*
X78254000Y-22845001D03*
X78254000Y-25555001D03*
X78654000Y-22845001D03*
X78654000Y-25555001D03*
X79054000Y-22845001D03*
X79054000Y-25555001D03*
X79454000Y-22845001D03*
X79454000Y-25555001D03*
X79854000Y-22845001D03*
X79854000Y-25555001D03*
X80254000Y-22845001D03*
X80254000Y-25555001D03*
X80654000Y-22845001D03*
X80654000Y-25555001D03*
X81054000Y-22845001D03*
X81054000Y-25555001D03*
X81454000Y-22845001D03*
X81454000Y-25555001D03*
X81854000Y-22845001D03*
X81854000Y-25555001D03*
X82254000Y-22845001D03*
X82254000Y-25555001D03*
X82654000Y-22845001D03*
X82654000Y-25555001D03*
X83054000Y-22845001D03*
X83054000Y-25555001D03*
X83454000Y-22845001D03*
X83454000Y-25555001D03*
X83854000Y-22845001D03*
X83854000Y-25555001D03*
X84254000Y-22845001D03*
X84254000Y-25555001D03*
X84654000Y-22845001D03*
X84654000Y-25555001D03*
X85054000Y-22845001D03*
X85054000Y-25555001D03*
X85454000Y-22845001D03*
X85454000Y-25555001D03*
X85854000Y-22845001D03*
X85854000Y-25555001D03*
X86254000Y-22845001D03*
X86254000Y-25555001D03*
X86654000Y-22845001D03*
X86654000Y-25555001D03*
D19*
X76579000Y-22845001D03*
X76579000Y-25555001D03*
X87129000Y-22845001D03*
X87129000Y-25555001D03*
G04 #@! TD*
D15*
G04 #@! TO.C,TP4A_T*
X10400000Y-78100001D03*
X10400000Y-77100001D03*
X10400000Y-76100001D03*
X10400000Y-75100001D03*
G04 #@! TD*
D10*
G04 #@! TO.C,FID7*
X2500000Y-24200000D03*
G04 #@! TD*
D20*
G04 #@! TO.C,J1_H*
X13390000Y-51750001D03*
X13890000Y-51750001D03*
X14390000Y-51750001D03*
X14890000Y-51750001D03*
X15390000Y-51750001D03*
X15890000Y-51750001D03*
X16390000Y-51750001D03*
X16890000Y-51750001D03*
X17390000Y-51750001D03*
X17890000Y-51750001D03*
X18390000Y-51750001D03*
X18890000Y-51750001D03*
X19390000Y-51750001D03*
X19890000Y-51750001D03*
X20390000Y-51750001D03*
X20890000Y-51750001D03*
X21390000Y-51750001D03*
X21890000Y-51750001D03*
X22390000Y-51750001D03*
X12390000Y-51750001D03*
X12890000Y-51750001D03*
D21*
X10350000Y-49150001D03*
X17600000Y-45850001D03*
X24850000Y-49150001D03*
G04 #@! TD*
D18*
G04 #@! TO.C,J2_C6*
X77054000Y-34645001D03*
X77054000Y-37355001D03*
X77454000Y-34645001D03*
X77454000Y-37355001D03*
X77854000Y-34645001D03*
X77854000Y-37355001D03*
X78254000Y-34645001D03*
X78254000Y-37355001D03*
X78654000Y-34645001D03*
X78654000Y-37355001D03*
X79054000Y-34645001D03*
X79054000Y-37355001D03*
X79454000Y-34645001D03*
X79454000Y-37355001D03*
X79854000Y-34645001D03*
X79854000Y-37355001D03*
X80254000Y-34645001D03*
X80254000Y-37355001D03*
X80654000Y-34645001D03*
X80654000Y-37355001D03*
X81054000Y-34645001D03*
X81054000Y-37355001D03*
X81454000Y-34645001D03*
X81454000Y-37355001D03*
X81854000Y-34645001D03*
X81854000Y-37355001D03*
X82254000Y-34645001D03*
X82254000Y-37355001D03*
X82654000Y-34645001D03*
X82654000Y-37355001D03*
X83054000Y-34645001D03*
X83054000Y-37355001D03*
X83454000Y-34645001D03*
X83454000Y-37355001D03*
X83854000Y-34645001D03*
X83854000Y-37355001D03*
X84254000Y-34645001D03*
X84254000Y-37355001D03*
X84654000Y-34645001D03*
X84654000Y-37355001D03*
X85054000Y-34645001D03*
X85054000Y-37355001D03*
X85454000Y-34645001D03*
X85454000Y-37355001D03*
X85854000Y-34645001D03*
X85854000Y-37355001D03*
X86254000Y-34645001D03*
X86254000Y-37355001D03*
X86654000Y-34645001D03*
X86654000Y-37355001D03*
D19*
X76579000Y-34645001D03*
X76579000Y-37355001D03*
X87129000Y-34645001D03*
X87129000Y-37355001D03*
G04 #@! TD*
D11*
G04 #@! TO.C,J1_C4*
X51642000Y-22900001D03*
X62642000Y-25500001D03*
D12*
X54392000Y-22550001D03*
X54892000Y-22550001D03*
X55392000Y-22550001D03*
X55892000Y-22550001D03*
X56392000Y-22550001D03*
X56892000Y-22550001D03*
X57392000Y-22550001D03*
X57892000Y-22550001D03*
X58392000Y-22550001D03*
X58892000Y-22550001D03*
X59392000Y-22550001D03*
X59892000Y-22550001D03*
X59892000Y-25850001D03*
X59392000Y-25850001D03*
X58892000Y-25850001D03*
X58392000Y-25850001D03*
X57892000Y-25850001D03*
X57392000Y-25850001D03*
X56892000Y-25850001D03*
X56392000Y-25850001D03*
X55892000Y-25850001D03*
X55392000Y-25850001D03*
X54892000Y-25850001D03*
X54392000Y-25850001D03*
D13*
X53042000Y-22730001D03*
X53042000Y-25670001D03*
X61242000Y-22730001D03*
X61242000Y-25670001D03*
G04 #@! TD*
D11*
G04 #@! TO.C,J1_C1*
X8500000Y-11100000D03*
X19500000Y-13700000D03*
D12*
X11250000Y-10750000D03*
X11750000Y-10750000D03*
X12250000Y-10750000D03*
X12750000Y-10750000D03*
X13250000Y-10750000D03*
X13750000Y-10750000D03*
X14250000Y-10750000D03*
X14750000Y-10750000D03*
X15250000Y-10750000D03*
X15750000Y-10750000D03*
X16250000Y-10750000D03*
X16750000Y-10750000D03*
X16750000Y-14050000D03*
X16250000Y-14050000D03*
X15750000Y-14050000D03*
X15250000Y-14050000D03*
X14750000Y-14050000D03*
X14250000Y-14050000D03*
X13750000Y-14050000D03*
X13250000Y-14050000D03*
X12750000Y-14050000D03*
X12250000Y-14050000D03*
X11750000Y-14050000D03*
X11250000Y-14050000D03*
D13*
X9900000Y-10930000D03*
X9900000Y-13870000D03*
X18100000Y-10930000D03*
X18100000Y-13870000D03*
G04 #@! TD*
D11*
G04 #@! TO.C,J1_C2*
X51642000Y-11100000D03*
X62642000Y-13700000D03*
D12*
X54392000Y-10750000D03*
X54892000Y-10750000D03*
X55392000Y-10750000D03*
X55892000Y-10750000D03*
X56392000Y-10750000D03*
X56892000Y-10750000D03*
X57392000Y-10750000D03*
X57892000Y-10750000D03*
X58392000Y-10750000D03*
X58892000Y-10750000D03*
X59392000Y-10750000D03*
X59892000Y-10750000D03*
X59892000Y-14050000D03*
X59392000Y-14050000D03*
X58892000Y-14050000D03*
X58392000Y-14050000D03*
X57892000Y-14050000D03*
X57392000Y-14050000D03*
X56892000Y-14050000D03*
X56392000Y-14050000D03*
X55892000Y-14050000D03*
X55392000Y-14050000D03*
X54892000Y-14050000D03*
X54392000Y-14050000D03*
D13*
X53042000Y-10930000D03*
X53042000Y-13870000D03*
X61242000Y-10930000D03*
X61242000Y-13870000D03*
G04 #@! TD*
D10*
G04 #@! TO.C,FID10*
X96783999Y-36000000D03*
G04 #@! TD*
D11*
G04 #@! TO.C,J1_C5*
X8500000Y-34700001D03*
X19500000Y-37300001D03*
D12*
X11250000Y-34350001D03*
X11750000Y-34350001D03*
X12250000Y-34350001D03*
X12750000Y-34350001D03*
X13250000Y-34350001D03*
X13750000Y-34350001D03*
X14250000Y-34350001D03*
X14750000Y-34350001D03*
X15250000Y-34350001D03*
X15750000Y-34350001D03*
X16250000Y-34350001D03*
X16750000Y-34350001D03*
X16750000Y-37650001D03*
X16250000Y-37650001D03*
X15750000Y-37650001D03*
X15250000Y-37650001D03*
X14750000Y-37650001D03*
X14250000Y-37650001D03*
X13750000Y-37650001D03*
X13250000Y-37650001D03*
X12750000Y-37650001D03*
X12250000Y-37650001D03*
X11750000Y-37650001D03*
X11250000Y-37650001D03*
D13*
X9900000Y-34530001D03*
X9900000Y-37470001D03*
X18100000Y-34530001D03*
X18100000Y-37470001D03*
G04 #@! TD*
D18*
G04 #@! TO.C,J2_H*
X38464000Y-46895001D03*
X38464000Y-49605001D03*
X38864000Y-46895001D03*
X38864000Y-49605001D03*
X39264000Y-46895001D03*
X39264000Y-49605001D03*
X39664000Y-46895001D03*
X39664000Y-49605001D03*
X40064000Y-46895001D03*
X40064000Y-49605001D03*
X40464000Y-46895001D03*
X40464000Y-49605001D03*
X40864000Y-46895001D03*
X40864000Y-49605001D03*
X41264000Y-46895001D03*
X41264000Y-49605001D03*
X41664000Y-46895001D03*
X41664000Y-49605001D03*
X42064000Y-46895001D03*
X42064000Y-49605001D03*
X42464000Y-46895001D03*
X42464000Y-49605001D03*
X42864000Y-46895001D03*
X42864000Y-49605001D03*
X43264000Y-46895001D03*
X43264000Y-49605001D03*
X43664000Y-46895001D03*
X43664000Y-49605001D03*
X44064000Y-46895001D03*
X44064000Y-49605001D03*
X44464000Y-46895001D03*
X44464000Y-49605001D03*
X44864000Y-46895001D03*
X44864000Y-49605001D03*
X45264000Y-46895001D03*
X45264000Y-49605001D03*
X45664000Y-46895001D03*
X45664000Y-49605001D03*
X46064000Y-46895001D03*
X46064000Y-49605001D03*
X46464000Y-46895001D03*
X46464000Y-49605001D03*
X46864000Y-46895001D03*
X46864000Y-49605001D03*
X47264000Y-46895001D03*
X47264000Y-49605001D03*
X47664000Y-46895001D03*
X47664000Y-49605001D03*
X48064000Y-46895001D03*
X48064000Y-49605001D03*
D19*
X37989000Y-46895001D03*
X37989000Y-49605001D03*
X48539000Y-46895001D03*
X48539000Y-49605001D03*
G04 #@! TD*
D14*
G04 #@! TO.C,C1_C6*
X88669000Y-38400001D03*
X89309000Y-38400001D03*
G04 #@! TD*
D18*
G04 #@! TO.C,J2_C1*
X33912000Y-11045000D03*
X33912000Y-13755000D03*
X34312000Y-11045000D03*
X34312000Y-13755000D03*
X34712000Y-11045000D03*
X34712000Y-13755000D03*
X35112000Y-11045000D03*
X35112000Y-13755000D03*
X35512000Y-11045000D03*
X35512000Y-13755000D03*
X35912000Y-11045000D03*
X35912000Y-13755000D03*
X36312000Y-11045000D03*
X36312000Y-13755000D03*
X36712000Y-11045000D03*
X36712000Y-13755000D03*
X37112000Y-11045000D03*
X37112000Y-13755000D03*
X37512000Y-11045000D03*
X37512000Y-13755000D03*
X37912000Y-11045000D03*
X37912000Y-13755000D03*
X38312000Y-11045000D03*
X38312000Y-13755000D03*
X38712000Y-11045000D03*
X38712000Y-13755000D03*
X39112000Y-11045000D03*
X39112000Y-13755000D03*
X39512000Y-11045000D03*
X39512000Y-13755000D03*
X39912000Y-11045000D03*
X39912000Y-13755000D03*
X40312000Y-11045000D03*
X40312000Y-13755000D03*
X40712000Y-11045000D03*
X40712000Y-13755000D03*
X41112000Y-11045000D03*
X41112000Y-13755000D03*
X41512000Y-11045000D03*
X41512000Y-13755000D03*
X41912000Y-11045000D03*
X41912000Y-13755000D03*
X42312000Y-11045000D03*
X42312000Y-13755000D03*
X42712000Y-11045000D03*
X42712000Y-13755000D03*
X43112000Y-11045000D03*
X43112000Y-13755000D03*
X43512000Y-11045000D03*
X43512000Y-13755000D03*
D19*
X33437000Y-11045000D03*
X33437000Y-13755000D03*
X43987000Y-11045000D03*
X43987000Y-13755000D03*
G04 #@! TD*
D11*
G04 #@! TO.C,J1_C6*
X51642000Y-34700001D03*
X62642000Y-37300001D03*
D12*
X54392000Y-34350001D03*
X54892000Y-34350001D03*
X55392000Y-34350001D03*
X55892000Y-34350001D03*
X56392000Y-34350001D03*
X56892000Y-34350001D03*
X57392000Y-34350001D03*
X57892000Y-34350001D03*
X58392000Y-34350001D03*
X58892000Y-34350001D03*
X59392000Y-34350001D03*
X59892000Y-34350001D03*
X59892000Y-37650001D03*
X59392000Y-37650001D03*
X58892000Y-37650001D03*
X58392000Y-37650001D03*
X57892000Y-37650001D03*
X57392000Y-37650001D03*
X56892000Y-37650001D03*
X56392000Y-37650001D03*
X55892000Y-37650001D03*
X55392000Y-37650001D03*
X54892000Y-37650001D03*
X54392000Y-37650001D03*
D13*
X53042000Y-34530001D03*
X53042000Y-37470001D03*
X61242000Y-34530001D03*
X61242000Y-37470001D03*
G04 #@! TD*
D15*
G04 #@! TO.C,TP3A_T*
X10400000Y-73100001D03*
X10400000Y-72100001D03*
X10400000Y-71100001D03*
X10400000Y-70100001D03*
G04 #@! TD*
D14*
G04 #@! TO.C,C1_C3*
X45527000Y-26600001D03*
X46167000Y-26600001D03*
G04 #@! TD*
D10*
G04 #@! TO.C,TH2*
X96783999Y-2500000D03*
G04 #@! TD*
D15*
G04 #@! TO.C,TP1B_T*
X63600000Y-63100001D03*
X63600000Y-62100001D03*
X63600000Y-61100001D03*
X63600000Y-60100001D03*
G04 #@! TD*
D18*
G04 #@! TO.C,J2_C2*
X77054000Y-11045000D03*
X77054000Y-13755000D03*
X77454000Y-11045000D03*
X77454000Y-13755000D03*
X77854000Y-11045000D03*
X77854000Y-13755000D03*
X78254000Y-11045000D03*
X78254000Y-13755000D03*
X78654000Y-11045000D03*
X78654000Y-13755000D03*
X79054000Y-11045000D03*
X79054000Y-13755000D03*
X79454000Y-11045000D03*
X79454000Y-13755000D03*
X79854000Y-11045000D03*
X79854000Y-13755000D03*
X80254000Y-11045000D03*
X80254000Y-13755000D03*
X80654000Y-11045000D03*
X80654000Y-13755000D03*
X81054000Y-11045000D03*
X81054000Y-13755000D03*
X81454000Y-11045000D03*
X81454000Y-13755000D03*
X81854000Y-11045000D03*
X81854000Y-13755000D03*
X82254000Y-11045000D03*
X82254000Y-13755000D03*
X82654000Y-11045000D03*
X82654000Y-13755000D03*
X83054000Y-11045000D03*
X83054000Y-13755000D03*
X83454000Y-11045000D03*
X83454000Y-13755000D03*
X83854000Y-11045000D03*
X83854000Y-13755000D03*
X84254000Y-11045000D03*
X84254000Y-13755000D03*
X84654000Y-11045000D03*
X84654000Y-13755000D03*
X85054000Y-11045000D03*
X85054000Y-13755000D03*
X85454000Y-11045000D03*
X85454000Y-13755000D03*
X85854000Y-11045000D03*
X85854000Y-13755000D03*
X86254000Y-11045000D03*
X86254000Y-13755000D03*
X86654000Y-11045000D03*
X86654000Y-13755000D03*
D19*
X76579000Y-11045000D03*
X76579000Y-13755000D03*
X87129000Y-11045000D03*
X87129000Y-13755000D03*
G04 #@! TD*
D14*
G04 #@! TO.C,C1_C1*
X45527000Y-14800000D03*
X46167000Y-14800000D03*
G04 #@! TD*
D15*
G04 #@! TO.C,TP4B_T*
X63600000Y-78100001D03*
X63600000Y-77100001D03*
X63600000Y-76100001D03*
X63600000Y-75100001D03*
G04 #@! TD*
D16*
G04 #@! TO.C,U1_C2*
X90529000Y-13150000D03*
X90529000Y-12650000D03*
X90529000Y-12150000D03*
X90529000Y-11650000D03*
X88649000Y-11650000D03*
X88649000Y-12150000D03*
X88649000Y-12650000D03*
X88649000Y-13150000D03*
D17*
X89589000Y-12400000D03*
G04 #@! TD*
D15*
G04 #@! TO.C,TP6A_T*
X10400000Y-88100001D03*
X10400000Y-87100001D03*
X10400000Y-86100001D03*
X10400000Y-85100001D03*
G04 #@! TD*
G04 #@! TO.C,TP5B_T*
X63600000Y-82600001D03*
X63600000Y-81600001D03*
X63600000Y-80600001D03*
G04 #@! TD*
M02*
