G04 #@! TF.GenerationSoftware,KiCad,Pcbnew,9.0.2+dfsg-1*
G04 #@! TF.CreationDate,2026-10-04T09:34:05-04:00*
G04 #@! TF.ProjectId,panel_c50,70616e65-6c5f-4633-9530-2e6b69636164,rev?*
G04 #@! TF.SameCoordinates,Original*
G04 #@! TF.FileFunction,Profile,NP*
%FSLAX46Y46*%
G04 Gerber Fmt 4.6, Leading zero omitted, Abs format (unit mm)*
G04 Created by KiCad (PCBNEW 9.0.2+dfsg-1) date 2026-10-04 09:34:05*
%MOMM*%
%LPD*%
G01*
G04 APERTURE LIST*
G04 #@! TA.AperFunction,Profile*
%ADD10C,0.050000*%
G04 #@! TD*
G04 APERTURE END LIST*
D10*
X89143033Y-19511719D02*
X89686200Y-19688206D01*
X42229000Y-52800000D02*
X28665222Y-52800000D01*
X50177966Y-6511719D02*
X50477684Y-6500000D01*
X97214000Y-97800000D02*
X97214000Y0D01*
X8000000Y-32000000D02*
X8000000Y-35500000D01*
X55607000Y-31600000D02*
X50507000Y-31600000D01*
X47107000Y-15200000D02*
X47107000Y-12900000D01*
X20337035Y-32797538D02*
X20217271Y-32758624D01*
X6511719Y-19870966D02*
X6688206Y-19327799D01*
X56607000Y-6500000D02*
X61736315Y-6500000D01*
X63418793Y-7527799D02*
X63474745Y-7700000D01*
X63065488Y-17758488D02*
X62579200Y-18111793D01*
X20337035Y-9197538D02*
X20217271Y-9158624D01*
X28665222Y-52800000D02*
X28511793Y-53272200D01*
X19884606Y-19915394D02*
X19782728Y-19841376D01*
X37176999Y-31300000D02*
X37176999Y-32800000D01*
X62104538Y-20137036D02*
X62065624Y-20017272D01*
X8000000Y-8400000D02*
X8000000Y-11900000D01*
X42229000Y-43400000D02*
X42229000Y-44900000D01*
X62444036Y-32797538D02*
X62324271Y-32758624D01*
X38176999Y-27400000D02*
X46706999Y-27400000D01*
X90702280Y-32870966D02*
X90714000Y-33170684D01*
X47065624Y-9417272D02*
X46991605Y-9315394D01*
X56607000Y-16800000D02*
X61706999Y-16800000D01*
X46769963Y-21002462D02*
X46706999Y-21000000D01*
X90702280Y-27329033D02*
X90525793Y-27872200D01*
X62109461Y-39537036D02*
X62148376Y-39417272D01*
X20472200Y-6688206D02*
X20958488Y-7041511D01*
X62222393Y-20884606D02*
X62148376Y-20782728D01*
X28665222Y-43400000D02*
X42229000Y-43400000D01*
X19599999Y-19800000D02*
X14500000Y-19800000D01*
X62444036Y-27402462D02*
X62507000Y-27400000D01*
X48065488Y-8241511D02*
X48418793Y-8727799D01*
X8000000Y-47600000D02*
X6500000Y-47600000D01*
X6500000Y-52429315D02*
X6500000Y-48600000D01*
X6500000Y-31970684D02*
X6511719Y-31670966D01*
X49148511Y-41358488D02*
X48795206Y-40872200D01*
X48607000Y-20170684D02*
X48618719Y-19870966D01*
X20115393Y-9084606D02*
X20041376Y-8982728D01*
X62579200Y-30288206D02*
X63065488Y-30641511D01*
X20115393Y-39315394D02*
X20217271Y-39241376D01*
X8000000Y-23700000D02*
X6500000Y-23700000D01*
X53900000Y-55800000D02*
X20099999Y-55800000D01*
X48595280Y-15529033D02*
X48418793Y-16072200D01*
X37176999Y-9200000D02*
X20400000Y-9200000D01*
X62065624Y-20017272D02*
X61991606Y-19915394D01*
X0Y0D02*
X0Y-97800000D01*
X27315393Y-44784606D02*
X27241375Y-44682728D01*
X21367745Y-7700000D02*
X37176999Y-7700000D01*
X50444036Y-28597538D02*
X50507000Y-28600000D01*
X47104537Y-38862964D02*
X47107000Y-38800000D01*
X6500000Y-43770684D02*
X6511719Y-43470966D01*
X62222393Y-27515394D02*
X62324271Y-27441376D01*
X53658999Y-45273903D02*
X53658999Y-47600000D01*
X27241375Y-44682728D02*
X27202461Y-44562964D01*
X52117866Y-51082852D02*
X52156806Y-50963007D01*
X90714000Y-24700000D02*
X90714000Y-27029315D01*
X52117866Y-45117148D02*
X52043797Y-45015201D01*
X63474745Y-40700000D02*
X63418793Y-40872200D01*
X61769964Y-28597538D02*
X61889728Y-28558624D01*
X62148376Y-8982728D02*
X62109461Y-8862964D01*
X19662964Y-28597538D02*
X19782728Y-28558624D01*
X7041511Y-53758488D02*
X6688206Y-53272200D01*
X52631321Y-43587962D02*
X53117676Y-43941315D01*
X90702280Y-9270966D02*
X90714000Y-9570684D01*
X48607000Y-40029315D02*
X48607000Y-38829315D01*
X27129033Y-41911719D02*
X27672200Y-42088206D01*
X37176999Y-21000000D02*
X20400000Y-21000000D01*
X51941850Y-51258867D02*
X52043797Y-51184799D01*
X47065624Y-38982728D02*
X47104537Y-38862964D01*
X61991606Y-28484606D02*
X62065624Y-28382728D01*
X90714000Y-23700000D02*
X89214000Y-23700000D01*
X37176999Y-7700000D02*
X37176999Y-9200000D01*
X6511719Y-52729033D02*
X6500000Y-52429315D01*
X46769963Y-39197538D02*
X46889727Y-39158624D01*
X19629315Y-18300000D02*
X19929033Y-18311719D01*
X20958488Y-29558488D02*
X20472200Y-29911793D01*
X20041376Y-27617272D02*
X20115393Y-27515394D01*
X50507000Y-16800000D02*
X55607000Y-16800000D01*
X13500000Y-8000000D02*
X8400000Y-8000000D01*
X17099999Y-55800000D02*
X8000000Y-55800000D01*
X61769964Y-8002462D02*
X61706999Y-8000000D01*
X20099999Y-52800000D02*
X26799999Y-52800000D01*
X90714000Y-11900000D02*
X89214000Y-11900000D01*
X20115393Y-32684606D02*
X20041376Y-32582728D01*
X7527799Y-18488206D02*
X8070966Y-18311719D01*
X50109461Y-8337036D02*
X50107000Y-8400000D01*
X48418793Y-27872200D02*
X48065488Y-28358488D01*
X8070966Y-30088280D02*
X7527799Y-29911793D01*
X62222393Y-15715394D02*
X62324271Y-15641376D01*
X20000000Y-27800000D02*
X20002461Y-27737036D01*
X50107000Y-23700000D02*
X47107000Y-23700000D01*
X8000000Y-16400000D02*
X8002461Y-16462964D01*
X89211537Y-27062964D02*
X89214000Y-27000000D01*
X20217271Y-27441376D02*
X20337035Y-27402462D01*
X62324271Y-20958624D02*
X62222393Y-20884606D01*
X66000000Y-89800000D02*
X66000000Y-73300000D01*
X48065488Y-31841511D02*
X48418793Y-32327799D01*
X80283999Y-7700000D02*
X88843315Y-7700000D01*
X8070966Y-18311719D02*
X8370684Y-18300000D01*
X27158623Y-52582728D02*
X27197537Y-52462964D01*
X8217271Y-16758624D02*
X8337035Y-16797538D01*
X6500000Y-11900000D02*
X6500000Y-8370684D01*
X79283999Y-28900000D02*
X63474745Y-28900000D01*
X62444036Y-20997538D02*
X62324271Y-20958624D01*
X50507000Y-8000000D02*
X50444036Y-8002462D01*
X47036033Y-19511719D02*
X47579200Y-19688206D01*
X6511719Y-31670966D02*
X6688206Y-31127799D01*
X13500000Y-31600000D02*
X8400000Y-31600000D01*
X90172488Y-16558488D02*
X89686200Y-16911793D01*
X48418793Y-8727799D02*
X48595280Y-9270966D01*
X20958488Y-41358488D02*
X20472200Y-41711793D01*
X89143033Y-28888280D02*
X88843315Y-28900000D01*
X20041376Y-15817272D02*
X20115393Y-15715394D01*
X19599999Y-16800000D02*
X19662964Y-16797538D01*
X62104538Y-8337036D02*
X62065624Y-8217272D01*
X53471036Y-51772327D02*
X53117676Y-52258684D01*
X50477684Y-41900000D02*
X50177966Y-41888280D01*
X62107000Y-16400000D02*
X62107000Y-16000000D01*
X61736315Y-30100000D02*
X62036033Y-30111719D01*
X51941850Y-44941133D02*
X51822005Y-44902193D01*
X61706999Y-40400000D02*
X61769964Y-40397538D01*
X6500000Y-16429315D02*
X6500000Y-12900000D01*
X88876963Y-15597538D02*
X88996727Y-15558624D01*
X38176999Y-31300000D02*
X46736315Y-31300000D01*
X88996727Y-32841376D02*
X88876963Y-32802462D01*
X61736315Y-18300000D02*
X62036033Y-18311719D01*
X8370684Y-6500000D02*
X13500000Y-6500000D01*
X18099999Y-55800000D02*
X18099999Y-52800000D01*
X80283999Y-28900000D02*
X80283999Y-27400000D01*
X8115393Y-40284606D02*
X8217271Y-40358624D01*
X18099999Y-52800000D02*
X19099999Y-52800000D01*
X79283999Y-32800000D02*
X62507000Y-32800000D01*
X48595280Y-27329033D02*
X48418793Y-27872200D01*
X50148376Y-40182728D02*
X50222393Y-40284606D01*
X20958488Y-18841511D02*
X21311793Y-19327799D01*
X51785095Y-43400000D02*
X52084954Y-43410436D01*
X20472200Y-29911793D02*
X19929033Y-30088280D01*
X8070966Y-6511719D02*
X8370684Y-6500000D01*
X20000000Y-16400000D02*
X20000000Y-16000000D01*
X89143033Y-17088280D02*
X88843315Y-17100000D01*
X19782728Y-16758624D02*
X19884606Y-16684606D01*
X19997538Y-31937036D02*
X19958624Y-31817272D01*
X49148511Y-18841511D02*
X49634799Y-18488206D01*
X8400000Y-19800000D02*
X8337035Y-19802462D01*
X50324271Y-40358624D02*
X50444036Y-40397538D01*
X50444036Y-19802462D02*
X50324271Y-19841376D01*
X62107000Y-8800000D02*
X62107000Y-8400000D01*
X8070966Y-54288280D02*
X7527799Y-54111793D01*
X19997538Y-28262964D02*
X20000000Y-28200000D01*
X62324271Y-32758624D02*
X62222393Y-32684606D01*
X6500000Y-48600000D02*
X8000000Y-48600000D01*
X48795206Y-17272200D02*
X48618719Y-16729033D01*
X80283999Y-39200000D02*
X88814000Y-39200000D01*
X19782728Y-31641376D02*
X19662964Y-31602462D01*
X61991606Y-16684606D02*
X62065624Y-16582728D01*
X26982727Y-43441376D02*
X26862963Y-43402462D01*
X20217271Y-32758624D02*
X20115393Y-32684606D01*
X6500000Y-40029315D02*
X6500000Y-36500000D01*
X20400000Y-15600000D02*
X37176999Y-15600000D01*
X38176999Y-9200000D02*
X38176999Y-7700000D01*
X7527799Y-41711793D02*
X7041511Y-41358488D01*
X88843315Y-28900000D02*
X80283999Y-28900000D01*
X20472200Y-41711793D02*
X19929033Y-41888280D01*
X62148376Y-32582728D02*
X62109461Y-32462964D01*
X50324271Y-31641376D02*
X50222393Y-31715394D01*
X62036033Y-41888280D02*
X61736315Y-41900000D01*
X89211537Y-33137036D02*
X89172624Y-33017272D01*
X46889727Y-27358624D02*
X46991605Y-27284606D01*
X21367745Y-28900000D02*
X21311793Y-29072200D01*
X6500000Y-91300000D02*
X6500000Y-73300000D01*
X50107000Y-24700000D02*
X50107000Y-28200000D01*
X19997538Y-8337036D02*
X19958624Y-8217272D01*
X62036033Y-18288280D02*
X61736315Y-18300000D01*
X50444036Y-31602462D02*
X50324271Y-31641376D01*
X50444036Y-8002462D02*
X50324271Y-8041376D01*
X62222393Y-39315394D02*
X62324271Y-39241376D01*
X19662964Y-19802462D02*
X19599999Y-19800000D01*
X62324271Y-39241376D02*
X62444036Y-39202462D01*
X20041376Y-20782728D02*
X20002461Y-20662964D01*
X89172624Y-15382728D02*
X89211537Y-15262964D01*
X20000000Y-8800000D02*
X20000000Y-8400000D01*
X8000000Y-24700000D02*
X8000000Y-28200000D01*
X48607000Y-16429315D02*
X48607000Y-15229315D01*
X88996727Y-27358624D02*
X89098605Y-27284606D01*
X62507000Y-21000000D02*
X62444036Y-20997538D01*
X62104538Y-40062964D02*
X62107000Y-40000000D01*
X6688206Y-53272200D02*
X6511719Y-52729033D01*
X46706999Y-39200000D02*
X46769963Y-39197538D01*
X67500000Y-72300000D02*
X66000000Y-72300000D01*
X8002461Y-28262964D02*
X8041376Y-28382728D01*
X38176999Y-19500000D02*
X46736315Y-19500000D01*
X27202461Y-51637036D02*
X27241375Y-51517272D01*
X80283999Y-17100000D02*
X80283999Y-15600000D01*
X6500000Y-24700000D02*
X8000000Y-24700000D01*
X19884606Y-8115394D02*
X19782728Y-8041376D01*
X48618719Y-8070966D02*
X48795206Y-7527799D01*
X19884606Y-40284606D02*
X19958624Y-40182728D01*
X27197537Y-52462964D02*
X27199999Y-52400000D01*
X20400000Y-21000000D02*
X20337035Y-20997538D01*
X46889727Y-39158624D02*
X46991605Y-39084606D01*
X88814000Y-21000000D02*
X80283999Y-21000000D01*
X19599999Y-8000000D02*
X14500000Y-8000000D01*
X8002461Y-16462964D02*
X8041376Y-16582728D01*
X19629315Y-30100000D02*
X19929033Y-30111719D01*
X8000000Y-35500000D02*
X6500000Y-35500000D01*
X8337035Y-8002462D02*
X8217271Y-8041376D01*
X61991606Y-8115394D02*
X61889728Y-8041376D01*
X43229000Y-52800000D02*
X43229000Y-51300000D01*
X20958488Y-7041511D02*
X21311793Y-7527799D01*
X55607000Y-28600000D02*
X55607000Y-31600000D01*
X8000000Y-36500000D02*
X8000000Y-40000000D01*
X62104538Y-31937036D02*
X62065624Y-31817272D01*
X80283999Y-27400000D02*
X88814000Y-27400000D01*
X19997538Y-40062964D02*
X20000000Y-40000000D01*
X47107000Y-21400000D02*
X47104537Y-21337036D01*
X88814000Y-32800000D02*
X80283999Y-32800000D01*
X49634799Y-6688206D02*
X50177966Y-6511719D01*
X20000000Y-28200000D02*
X20000000Y-27800000D01*
X21367745Y-40700000D02*
X21311793Y-40872200D01*
X6688206Y-29072200D02*
X6511719Y-28529033D01*
X48595280Y-32870966D02*
X48607000Y-33170684D01*
X20400000Y-9200000D02*
X20337035Y-9197538D01*
X54900000Y-55800000D02*
X54900000Y-54300000D01*
X8337035Y-28597538D02*
X8400000Y-28600000D01*
X8400000Y-40400000D02*
X13500000Y-40400000D01*
X8400000Y-16800000D02*
X13500000Y-16800000D01*
X8002461Y-31937036D02*
X8000000Y-32000000D01*
X27084605Y-52684606D02*
X27158623Y-52582728D01*
X37176999Y-17100000D02*
X21367745Y-17100000D01*
X61889728Y-16758624D02*
X61991606Y-16684606D01*
X62444036Y-15602462D02*
X62507000Y-15600000D01*
X21311793Y-17272200D02*
X20958488Y-17758488D01*
X88996727Y-21041376D02*
X88876963Y-21002462D01*
X46706999Y-32800000D02*
X38176999Y-32800000D01*
X19958624Y-31817272D02*
X19884606Y-31715394D01*
X27084605Y-43515394D02*
X26982727Y-43441376D01*
X51822005Y-44902193D02*
X51758998Y-44900000D01*
X19997538Y-20137036D02*
X19958624Y-20017272D01*
X8115393Y-43515394D02*
X8041376Y-43617272D01*
X89214000Y-33200000D02*
X89211537Y-33137036D01*
X42229000Y-54900000D02*
X43229000Y-54900000D01*
X61889728Y-28558624D02*
X61991606Y-28484606D01*
X50507000Y-28600000D02*
X55607000Y-28600000D01*
X52043797Y-51184799D02*
X52117866Y-51082852D01*
X48618719Y-31670966D02*
X48795206Y-31127799D01*
X8041376Y-31817272D02*
X8002461Y-31937036D01*
X48795206Y-7527799D02*
X49148511Y-7041511D01*
X88876963Y-9202462D02*
X88814000Y-9200000D01*
X47107000Y-24700000D02*
X50107000Y-24700000D01*
X62107000Y-27800000D02*
X62109461Y-27737036D01*
X89211537Y-15262964D02*
X89214000Y-15200000D01*
X27315393Y-51415394D02*
X27417271Y-51341376D01*
X8217271Y-28558624D02*
X8337035Y-28597538D01*
X13500000Y-16800000D02*
X13500000Y-19800000D01*
X62148376Y-39417272D02*
X62222393Y-39315394D01*
X53117676Y-52258684D02*
X52631321Y-52612037D01*
X27537036Y-51302462D02*
X27599999Y-51300000D01*
X27197537Y-43737036D02*
X27158623Y-43617272D01*
X19958624Y-20017272D02*
X19884606Y-19915394D01*
X19929033Y-30111719D02*
X20472200Y-30288206D01*
X47104537Y-9537036D02*
X47065624Y-9417272D01*
X48418793Y-16072200D02*
X48065488Y-16558488D01*
X53648563Y-44974044D02*
X53658999Y-45273903D01*
X90172488Y-28358488D02*
X89686200Y-28711793D01*
X20217271Y-39241376D02*
X20337035Y-39202462D01*
X52156806Y-45236993D02*
X52117866Y-45117148D01*
X62324271Y-9158624D02*
X62222393Y-9084606D01*
X52084954Y-43410436D02*
X52631321Y-43587962D01*
X62107000Y-16000000D02*
X62109461Y-15937036D01*
X50148376Y-16582728D02*
X50222393Y-16684606D01*
X19782728Y-40358624D02*
X19884606Y-40284606D01*
X19958624Y-40182728D02*
X19997538Y-40062964D01*
X6688206Y-17272200D02*
X6511719Y-16729033D01*
X8041376Y-8217272D02*
X8002461Y-8337036D01*
X52158999Y-47600000D02*
X52158999Y-45300000D01*
X50222393Y-31715394D02*
X50148376Y-31817272D01*
X62109461Y-32462964D02*
X62107000Y-32400000D01*
X52043797Y-45015201D02*
X51941850Y-44941133D01*
X62324271Y-27441376D02*
X62444036Y-27402462D01*
X47107000Y-35500000D02*
X47107000Y-33200000D01*
X50324271Y-16758624D02*
X50444036Y-16797538D01*
X6511719Y-8070966D02*
X6688206Y-7527799D01*
X63418793Y-17272200D02*
X63065488Y-17758488D01*
X66000000Y-72300000D02*
X66000000Y-55800000D01*
X6500000Y-12900000D02*
X8000000Y-12900000D01*
X50324271Y-28558624D02*
X50444036Y-28597538D01*
X62579200Y-18488206D02*
X63065488Y-18841511D01*
X90702280Y-39129033D02*
X90525793Y-39672200D01*
X63065488Y-7041511D02*
X63418793Y-7527799D01*
X47107000Y-36500000D02*
X50107000Y-36500000D01*
X48607000Y-27029315D02*
X48595280Y-27329033D01*
X46706999Y-15600000D02*
X46769963Y-15597538D01*
X19599999Y-40400000D02*
X19662964Y-40397538D01*
X38176999Y-28900000D02*
X38176999Y-27400000D01*
X89214000Y-12900000D02*
X90714000Y-12900000D01*
X19884606Y-16684606D02*
X19958624Y-16582728D01*
X62148376Y-15817272D02*
X62222393Y-15715394D01*
X80283999Y-32800000D02*
X80283999Y-31300000D01*
X50109461Y-31937036D02*
X50107000Y-32000000D01*
X20337035Y-27402462D02*
X20400000Y-27400000D01*
X8337035Y-16797538D02*
X8400000Y-16800000D01*
X48607000Y-8370684D02*
X48618719Y-8070966D01*
X8000000Y-52400000D02*
X8002461Y-52462964D01*
X89686200Y-31488206D02*
X90172488Y-31841511D01*
X89172624Y-33017272D02*
X89098605Y-32915394D01*
X48607000Y-38829315D02*
X48595280Y-39129033D01*
X47104537Y-27062964D02*
X47107000Y-27000000D01*
X43229000Y-54900000D02*
X43229000Y-54300000D01*
X62104538Y-28262964D02*
X62107000Y-28200000D01*
X8002461Y-20137036D02*
X8000000Y-20200000D01*
X27672200Y-42088206D02*
X28158488Y-42441511D01*
X50107000Y-8400000D02*
X50107000Y-11900000D01*
X27672200Y-54111793D02*
X27129033Y-54288280D01*
X19629315Y-6500000D02*
X19929033Y-6511719D01*
X27158623Y-43617272D02*
X27084605Y-43515394D01*
X62036033Y-30088280D02*
X61736315Y-30100000D01*
X89143033Y-7711719D02*
X89686200Y-7888206D01*
X46991605Y-9315394D02*
X46889727Y-9241376D01*
X8000000Y-73300000D02*
X8000000Y-89800000D01*
X88876963Y-21002462D02*
X88814000Y-21000000D01*
X89214000Y-38800000D02*
X89214000Y-36500000D01*
X61736315Y-6500000D02*
X62036033Y-6511719D01*
X50107000Y-12900000D02*
X50107000Y-16400000D01*
X62579200Y-18111793D02*
X62036033Y-18288280D01*
X61706999Y-31600000D02*
X56607000Y-31600000D01*
X19099999Y-52800000D02*
X19099999Y-55800000D01*
X63474745Y-28900000D02*
X63418793Y-29072200D01*
X8000000Y-43800000D02*
X8000000Y-47600000D01*
X48595280Y-39129033D02*
X48418793Y-39672200D01*
X20002461Y-8862964D02*
X20000000Y-8800000D01*
X28511793Y-53272200D02*
X28158488Y-53758488D01*
X49148511Y-30641511D02*
X49634799Y-30288206D01*
X56607000Y-41900000D02*
X56607000Y-40400000D01*
X8041376Y-16582728D02*
X8115393Y-16684606D01*
X66000000Y-55800000D02*
X54900000Y-55800000D01*
X62507000Y-15600000D02*
X79283999Y-15600000D01*
X46736315Y-28900000D02*
X38176999Y-28900000D01*
X48607000Y-33170684D02*
X48607000Y-31970684D01*
X6500000Y-23700000D02*
X6500000Y-20170684D01*
X56607000Y-31600000D02*
X56607000Y-28600000D01*
X14500000Y-8000000D02*
X14500000Y-6500000D01*
X48607000Y-15229315D02*
X48595280Y-15529033D01*
X88814000Y-39200000D02*
X88876963Y-39197538D01*
X14500000Y-40400000D02*
X17099999Y-40400000D01*
X47065624Y-33017272D02*
X46991605Y-32915394D01*
X6500000Y-20170684D02*
X6511719Y-19870966D01*
X42229000Y-44900000D02*
X27599999Y-44900000D01*
X19599999Y-28600000D02*
X19662964Y-28597538D01*
X48418793Y-32327799D02*
X48595280Y-32870966D01*
X8002461Y-52462964D02*
X8041376Y-52582728D01*
X42229000Y-51300000D02*
X42229000Y-52800000D01*
X6511719Y-16729033D02*
X6500000Y-16429315D01*
X6688206Y-42927799D02*
X7041511Y-42441511D01*
X19782728Y-28558624D02*
X19884606Y-28484606D01*
X62107000Y-28200000D02*
X62107000Y-27800000D01*
X62036033Y-18311719D02*
X62579200Y-18488206D01*
X19662964Y-16797538D02*
X19782728Y-16758624D01*
X38176999Y-21000000D02*
X38176999Y-19500000D01*
X88814000Y-9200000D02*
X80283999Y-9200000D01*
X90714000Y-38829315D02*
X90702280Y-39129033D01*
X80283999Y-21000000D02*
X80283999Y-19500000D01*
X8000000Y-40000000D02*
X8002461Y-40062964D01*
X19997538Y-16462964D02*
X20000000Y-16400000D01*
X6688206Y-19327799D02*
X7041511Y-18841511D01*
X80283999Y-15600000D02*
X88814000Y-15600000D01*
X20099999Y-89800000D02*
X53900000Y-89800000D01*
X50107000Y-40000000D02*
X50109461Y-40062964D01*
X26982727Y-52758624D02*
X27084605Y-52684606D01*
X8337035Y-43402462D02*
X8217271Y-43441376D01*
X88996727Y-9241376D02*
X88876963Y-9202462D01*
X62036033Y-6511719D02*
X62579200Y-6688206D01*
X27199999Y-52400000D02*
X27199999Y-51700000D01*
X62222393Y-32684606D02*
X62148376Y-32582728D01*
X8337035Y-40397538D02*
X8400000Y-40400000D01*
X43229000Y-43400000D02*
X51785095Y-43400000D01*
X7041511Y-29558488D02*
X6688206Y-29072200D01*
X20337035Y-20997538D02*
X20217271Y-20958624D01*
X46769963Y-32802462D02*
X46706999Y-32800000D01*
X6511719Y-43470966D02*
X6688206Y-42927799D01*
X8217271Y-8041376D02*
X8115393Y-8115394D01*
X51758998Y-44900000D02*
X43229000Y-44900000D01*
X50107000Y-28200000D02*
X50109461Y-28262964D01*
X42229000Y-54300000D02*
X42229000Y-54900000D01*
X88996727Y-15558624D02*
X89098605Y-15484606D01*
X8000000Y-12900000D02*
X8000000Y-16400000D01*
X19958624Y-16582728D02*
X19997538Y-16462964D01*
X53900000Y-89800000D02*
X53900000Y-91300000D01*
X6688206Y-31127799D02*
X7041511Y-30641511D01*
X55607000Y-8000000D02*
X50507000Y-8000000D01*
X89143033Y-31311719D02*
X89686200Y-31488206D01*
X50107000Y-32000000D02*
X50107000Y-35500000D01*
X21367745Y-31300000D02*
X37176999Y-31300000D01*
X51785095Y-52800000D02*
X43229000Y-52800000D01*
X50507000Y-40400000D02*
X55607000Y-40400000D01*
X61889728Y-31641376D02*
X61769964Y-31602462D01*
X50222393Y-40284606D02*
X50324271Y-40358624D01*
X88814000Y-15600000D02*
X88876963Y-15597538D01*
X89214000Y-11900000D02*
X89214000Y-9600000D01*
X14500000Y-16800000D02*
X19599999Y-16800000D01*
X8115393Y-8115394D02*
X8041376Y-8217272D01*
X47579200Y-16911793D02*
X47036033Y-17088280D01*
X55607000Y-41900000D02*
X50477684Y-41900000D01*
X62104538Y-16462964D02*
X62107000Y-16400000D01*
X19662964Y-40397538D02*
X19782728Y-40358624D01*
X8000000Y-72300000D02*
X6500000Y-72300000D01*
X27199999Y-43800000D02*
X27197537Y-43737036D01*
X63065488Y-18841511D02*
X63418793Y-19327799D01*
X18099999Y-40400000D02*
X19599999Y-40400000D01*
X13500000Y-28600000D02*
X13500000Y-31600000D01*
X49148511Y-29558488D02*
X48795206Y-29072200D01*
X8041376Y-20017272D02*
X8002461Y-20137036D01*
X8070966Y-30111719D02*
X8370684Y-30100000D01*
X21311793Y-40872200D02*
X20958488Y-41358488D01*
X80283999Y-40700000D02*
X80283999Y-39200000D01*
X8000000Y-11900000D02*
X6500000Y-11900000D01*
X62109461Y-8862964D02*
X62107000Y-8800000D01*
X50222393Y-16684606D02*
X50324271Y-16758624D01*
X7527799Y-30288206D02*
X8070966Y-30111719D01*
X50477684Y-30100000D02*
X50177966Y-30088280D01*
X50107000Y-16400000D02*
X50109461Y-16462964D01*
X20400000Y-39200000D02*
X37176999Y-39200000D01*
X20472200Y-30288206D02*
X20958488Y-30641511D01*
X20041376Y-39417272D02*
X20115393Y-39315394D01*
X8000000Y-89800000D02*
X19099999Y-89800000D01*
X19929033Y-30088280D02*
X19629315Y-30100000D01*
X27202461Y-44562964D02*
X27199999Y-44500000D01*
X8370684Y-18300000D02*
X8070966Y-18288280D01*
X50107000Y-20200000D02*
X50107000Y-23700000D01*
X89214000Y-21400000D02*
X89211537Y-21337036D01*
X50148376Y-28382728D02*
X50222393Y-28484606D01*
X54900000Y-91300000D02*
X54900000Y-89800000D01*
X17099999Y-40400000D02*
X17099999Y-43400000D01*
X61889728Y-40358624D02*
X61991606Y-40284606D01*
X56607000Y-8000000D02*
X56607000Y-6500000D01*
X46706999Y-27400000D02*
X46769963Y-27397538D01*
X62107000Y-20600000D02*
X62107000Y-20200000D01*
X8115393Y-31715394D02*
X8041376Y-31817272D01*
X47036033Y-40688280D02*
X46736315Y-40700000D01*
X89172624Y-21217272D02*
X89098605Y-21115394D01*
X48595280Y-21070966D02*
X48607000Y-21370684D01*
X63474745Y-31300000D02*
X79283999Y-31300000D01*
X46736315Y-7700000D02*
X47036033Y-7711719D01*
X62109461Y-15937036D02*
X62148376Y-15817272D01*
X20002461Y-27737036D02*
X20041376Y-27617272D01*
X90702280Y-21070966D02*
X90714000Y-21370684D01*
X90525793Y-32327799D02*
X90702280Y-32870966D01*
X46991605Y-15484606D02*
X47065624Y-15382728D01*
X62579200Y-6688206D02*
X63065488Y-7041511D01*
X47036033Y-17088280D02*
X46736315Y-17100000D01*
X43229000Y-51300000D02*
X51758998Y-51300000D01*
X90714000Y-36500000D02*
X90714000Y-38829315D01*
X46889727Y-32841376D02*
X46769963Y-32802462D01*
X47065624Y-27182728D02*
X47104537Y-27062964D01*
X51822005Y-51297807D02*
X51941850Y-51258867D01*
X50177966Y-18311719D02*
X50477684Y-18300000D01*
X56607000Y-28600000D02*
X61706999Y-28600000D01*
X53900000Y-54300000D02*
X53900000Y-55800000D01*
X7527799Y-42088206D02*
X8070966Y-41911719D01*
X19884606Y-31715394D02*
X19782728Y-31641376D01*
X55607000Y-40400000D02*
X55607000Y-41900000D01*
X48618719Y-19870966D02*
X48795206Y-19327799D01*
X27241375Y-51517272D02*
X27315393Y-51415394D01*
X62579200Y-29911793D02*
X62036033Y-30088280D01*
X63418793Y-40872200D02*
X63065488Y-41358488D01*
X8370684Y-54300000D02*
X8070966Y-54288280D01*
X79283999Y-40700000D02*
X63474745Y-40700000D01*
X26799999Y-52800000D02*
X26862963Y-52797538D01*
X63474745Y-17100000D02*
X63418793Y-17272200D01*
X62107000Y-40000000D02*
X62107000Y-39600000D01*
X6500000Y-36500000D02*
X8000000Y-36500000D01*
X8399999Y-43400000D02*
X8337035Y-43402462D01*
X97214000Y0D02*
X0Y0D01*
X61991606Y-40284606D02*
X62065624Y-40182728D01*
X50324271Y-8041376D02*
X50222393Y-8115394D01*
X48795206Y-31127799D02*
X49148511Y-30641511D01*
X62444036Y-9197538D02*
X62324271Y-9158624D01*
X8400000Y-31600000D02*
X8337035Y-31602462D01*
X20000000Y-32400000D02*
X20000000Y-32000000D01*
X27199999Y-51700000D02*
X27202461Y-51637036D01*
X6511719Y-40329033D02*
X6500000Y-40029315D01*
X8000000Y-28200000D02*
X8002461Y-28262964D01*
X90172488Y-20041511D02*
X90525793Y-20527799D01*
X26829315Y-41900000D02*
X27129033Y-41911719D01*
X89686200Y-16911793D02*
X89143033Y-17088280D01*
X89211537Y-38862964D02*
X89214000Y-38800000D01*
X46889727Y-9241376D02*
X46769963Y-9202462D01*
X62109461Y-27737036D02*
X62148376Y-27617272D01*
X46769963Y-15597538D02*
X46889727Y-15558624D01*
X61991606Y-31715394D02*
X61889728Y-31641376D01*
X63418793Y-29072200D02*
X63065488Y-29558488D01*
X61736315Y-41900000D02*
X56607000Y-41900000D01*
X20217271Y-15641376D02*
X20337035Y-15602462D01*
X50222393Y-19915394D02*
X50148376Y-20017272D01*
X19958624Y-28382728D02*
X19997538Y-28262964D01*
X88843315Y-19500000D02*
X89143033Y-19511719D01*
X6511719Y-28529033D02*
X6500000Y-28229315D01*
X8002461Y-40062964D02*
X8041376Y-40182728D01*
X51758998Y-51300000D02*
X51822005Y-51297807D01*
X62507000Y-9200000D02*
X62444036Y-9197538D01*
X27599999Y-51300000D02*
X42229000Y-51300000D01*
X62036033Y-30111719D02*
X62579200Y-30288206D01*
X27417271Y-51341376D02*
X27537036Y-51302462D01*
X90714000Y-27029315D02*
X90702280Y-27329033D01*
X20002461Y-32462964D02*
X20000000Y-32400000D01*
X20400000Y-32800000D02*
X20337035Y-32797538D01*
X48418793Y-39672200D02*
X48065488Y-40158488D01*
X8000000Y-20200000D02*
X8000000Y-23700000D01*
X79283999Y-9200000D02*
X62507000Y-9200000D01*
X63065488Y-29558488D02*
X62579200Y-29911793D01*
X20958488Y-17758488D02*
X20472200Y-18111793D01*
X47107000Y-33200000D02*
X47104537Y-33137036D01*
X89214000Y-15200000D02*
X89214000Y-12900000D01*
X7041511Y-7041511D02*
X7527799Y-6688206D01*
X63418793Y-31127799D02*
X63474745Y-31300000D01*
X47104537Y-33137036D02*
X47065624Y-33017272D01*
X8070966Y-18288280D02*
X7527799Y-18111793D01*
X88876963Y-39197538D02*
X88996727Y-39158624D01*
X89214000Y-35500000D02*
X89214000Y-33200000D01*
X46736315Y-17100000D02*
X38176999Y-17100000D01*
X8041376Y-52582728D02*
X8115393Y-52684606D01*
X19782728Y-19841376D02*
X19662964Y-19802462D01*
X20000000Y-32000000D02*
X19997538Y-31937036D01*
X46706999Y-9200000D02*
X38176999Y-9200000D01*
X90525793Y-27872200D02*
X90172488Y-28358488D01*
X63474745Y-19500000D02*
X79283999Y-19500000D01*
X14500000Y-28600000D02*
X19599999Y-28600000D01*
X46736315Y-40700000D02*
X38176999Y-40700000D01*
X14500000Y-31600000D02*
X14500000Y-28600000D01*
X6500000Y-73300000D02*
X8000000Y-73300000D01*
X48065488Y-28358488D02*
X47579200Y-28711793D01*
X20000000Y-40000000D02*
X20000000Y-39600000D01*
X47107000Y-9600000D02*
X47104537Y-9537036D01*
X80283999Y-9200000D02*
X80283999Y-7700000D01*
X62107000Y-8400000D02*
X62104538Y-8337036D01*
X21367745Y-17100000D02*
X21311793Y-17272200D01*
X8217271Y-43441376D02*
X8115393Y-43515394D01*
X20002461Y-15937036D02*
X20041376Y-15817272D01*
X90714000Y-35500000D02*
X89214000Y-35500000D01*
X53471036Y-44427672D02*
X53648563Y-44974044D01*
X38176999Y-32800000D02*
X38176999Y-31300000D01*
X43229000Y-54300000D02*
X53900000Y-54300000D01*
X48618719Y-28529033D02*
X48607000Y-28229315D01*
X62444036Y-39202462D02*
X62507000Y-39200000D01*
X6688206Y-7527799D02*
X7041511Y-7041511D01*
X62579200Y-41711793D02*
X62036033Y-41888280D01*
X19782728Y-8041376D02*
X19662964Y-8002462D01*
X19599999Y-31600000D02*
X14500000Y-31600000D01*
X47107000Y-23700000D02*
X47107000Y-21400000D01*
X47036033Y-28888280D02*
X46736315Y-28900000D01*
X61991606Y-19915394D02*
X61889728Y-19841376D01*
X55607000Y-19800000D02*
X50507000Y-19800000D01*
X88843315Y-17100000D02*
X80283999Y-17100000D01*
X21311793Y-7527799D02*
X21367745Y-7700000D01*
X50148376Y-31817272D02*
X50109461Y-31937036D01*
X63474745Y-7700000D02*
X79283999Y-7700000D01*
X47579200Y-28711793D02*
X47036033Y-28888280D01*
X19929033Y-18288280D02*
X19629315Y-18300000D01*
X48595280Y-9270966D02*
X48607000Y-9570684D01*
X47107000Y-12900000D02*
X50107000Y-12900000D01*
X8217271Y-19841376D02*
X8115393Y-19915394D01*
X49148511Y-17758488D02*
X48795206Y-17272200D01*
X49634799Y-41711793D02*
X49148511Y-41358488D01*
X66000000Y-73300000D02*
X67500000Y-73300000D01*
X62222393Y-9084606D02*
X62148376Y-8982728D01*
X48795206Y-29072200D02*
X48618719Y-28529033D01*
X46991605Y-27284606D02*
X47065624Y-27182728D01*
X28511793Y-42927799D02*
X28665222Y-43400000D01*
X20217271Y-20958624D02*
X20115393Y-20884606D01*
X20099999Y-91300000D02*
X20099999Y-89800000D01*
X7527799Y-29911793D02*
X7041511Y-29558488D01*
X89686200Y-40511793D02*
X89143033Y-40688280D01*
X13500000Y-43400000D02*
X8399999Y-43400000D01*
X62148376Y-20782728D02*
X62109461Y-20662964D01*
X47065624Y-21217272D02*
X46991605Y-21115394D01*
X79283999Y-31300000D02*
X79283999Y-32800000D01*
X61769964Y-19802462D02*
X61706999Y-19800000D01*
X79283999Y-27400000D02*
X79283999Y-28900000D01*
X20115393Y-20884606D02*
X20041376Y-20782728D01*
X8070966Y-41888280D02*
X7527799Y-41711793D01*
X0Y-97800000D02*
X97214000Y-97800000D01*
X20041376Y-32582728D02*
X20002461Y-32462964D01*
X26829315Y-54300000D02*
X42229000Y-54300000D01*
X50444036Y-40397538D02*
X50507000Y-40400000D01*
X6500000Y-8370684D02*
X6511719Y-8070966D01*
X37176999Y-28900000D02*
X21367745Y-28900000D01*
X46769963Y-27397538D02*
X46889727Y-27358624D01*
X46991605Y-32915394D02*
X46889727Y-32841376D01*
X90172488Y-40158488D02*
X89686200Y-40511793D01*
X8400000Y-8000000D02*
X8337035Y-8002462D01*
X88843315Y-7700000D02*
X89143033Y-7711719D01*
X8070966Y-41911719D02*
X8370684Y-41900000D01*
X27417271Y-44858624D02*
X27315393Y-44784606D01*
X89211537Y-9537036D02*
X89172624Y-9417272D01*
X43229000Y-44900000D02*
X43229000Y-43400000D01*
X89214000Y-24700000D02*
X90714000Y-24700000D01*
X7041511Y-41358488D02*
X6688206Y-40872200D01*
X47036033Y-31311719D02*
X47579200Y-31488206D01*
X7041511Y-30641511D02*
X7527799Y-30288206D01*
X62065624Y-28382728D02*
X62104538Y-28262964D01*
X8115393Y-16684606D02*
X8217271Y-16758624D01*
X50507000Y-19800000D02*
X50444036Y-19802462D01*
X27599999Y-44900000D02*
X27537036Y-44897538D01*
X20002461Y-39537036D02*
X20041376Y-39417272D01*
X89686200Y-7888206D02*
X90172488Y-8241511D01*
X61889728Y-8041376D02*
X61769964Y-8002462D01*
X49634799Y-29911793D02*
X49148511Y-29558488D01*
X13500000Y-19800000D02*
X8400000Y-19800000D01*
X48795206Y-40872200D02*
X48618719Y-40329033D01*
X50177966Y-30088280D02*
X49634799Y-29911793D01*
X20000000Y-20600000D02*
X20000000Y-20200000D01*
X6500000Y-47600000D02*
X6500000Y-43770684D01*
X48065488Y-20041511D02*
X48418793Y-20527799D01*
X46991605Y-21115394D02*
X46889727Y-21041376D01*
X7041511Y-18841511D02*
X7527799Y-18488206D01*
X17099999Y-52800000D02*
X17099999Y-55800000D01*
X50444036Y-16797538D02*
X50507000Y-16800000D01*
X37176999Y-32800000D02*
X20400000Y-32800000D01*
X90525793Y-20527799D02*
X90702280Y-21070966D01*
X62065624Y-31817272D02*
X61991606Y-31715394D01*
X62324271Y-15641376D02*
X62444036Y-15602462D01*
X6688206Y-40872200D02*
X6511719Y-40329033D01*
X61706999Y-28600000D02*
X61769964Y-28597538D01*
X52084954Y-52789563D02*
X51785095Y-52800000D01*
X19099999Y-91300000D02*
X6500000Y-91300000D01*
X27129033Y-54288280D02*
X26829315Y-54300000D01*
X20041376Y-8982728D02*
X20002461Y-8862964D01*
X90714000Y-21370684D02*
X90714000Y-23700000D01*
X50148376Y-8217272D02*
X50109461Y-8337036D01*
X63065488Y-30641511D02*
X63418793Y-31127799D01*
X89214000Y-23700000D02*
X89214000Y-21400000D01*
X53658999Y-47600000D02*
X52158999Y-47600000D01*
X55607000Y-16800000D02*
X55607000Y-19800000D01*
X47579200Y-31488206D02*
X48065488Y-31841511D01*
X79283999Y-39200000D02*
X79283999Y-40700000D01*
X13500000Y-40400000D02*
X13500000Y-43400000D01*
X49148511Y-7041511D02*
X49634799Y-6688206D01*
X50109461Y-28262964D02*
X50148376Y-28382728D01*
X62109461Y-20662964D02*
X62107000Y-20600000D01*
X48607000Y-31970684D02*
X48618719Y-31670966D01*
X20217271Y-9158624D02*
X20115393Y-9084606D01*
X14500000Y-19800000D02*
X14500000Y-16800000D01*
X20000000Y-16000000D02*
X20002461Y-15937036D01*
X50177966Y-18288280D02*
X49634799Y-18111793D01*
X20000000Y-8400000D02*
X19997538Y-8337036D01*
X8002461Y-8337036D02*
X8000000Y-8400000D01*
X90172488Y-8241511D02*
X90525793Y-8727799D01*
X19958624Y-8217272D02*
X19884606Y-8115394D01*
X61769964Y-16797538D02*
X61889728Y-16758624D01*
X47065624Y-15382728D02*
X47104537Y-15262964D01*
X50107000Y-11900000D02*
X47107000Y-11900000D01*
X89172624Y-9417272D02*
X89098605Y-9315394D01*
X89214000Y-27000000D02*
X89214000Y-24700000D01*
X90525793Y-16072200D02*
X90172488Y-16558488D01*
X90525793Y-8727799D02*
X90702280Y-9270966D01*
X47579200Y-19688206D02*
X48065488Y-20041511D01*
X79283999Y-17100000D02*
X63474745Y-17100000D01*
X89686200Y-19688206D02*
X90172488Y-20041511D01*
X48607000Y-28229315D02*
X48607000Y-27029315D01*
X8370684Y-30100000D02*
X8070966Y-30088280D01*
X19629315Y-41900000D02*
X26829315Y-41900000D01*
X49634799Y-18488206D02*
X50177966Y-18311719D01*
X38176999Y-17100000D02*
X38176999Y-15600000D01*
X56607000Y-40400000D02*
X61706999Y-40400000D01*
X21367745Y-19500000D02*
X37176999Y-19500000D01*
X19929033Y-6511719D02*
X20472200Y-6688206D01*
X50477684Y-6500000D02*
X55607000Y-6500000D01*
X61769964Y-40397538D02*
X61889728Y-40358624D01*
X8002461Y-43737036D02*
X8000000Y-43800000D01*
X6500000Y-28229315D02*
X6500000Y-24700000D01*
X26862963Y-52797538D02*
X26982727Y-52758624D01*
X8041376Y-43617272D02*
X8002461Y-43737036D01*
X61769964Y-31602462D02*
X61706999Y-31600000D01*
X37176999Y-40700000D02*
X21367745Y-40700000D01*
X38176999Y-7700000D02*
X46736315Y-7700000D01*
X89214000Y-9600000D02*
X89211537Y-9537036D01*
X8217271Y-31641376D02*
X8115393Y-31715394D01*
X50148376Y-20017272D02*
X50109461Y-20137036D01*
X47107000Y-38800000D02*
X47107000Y-36500000D01*
X89211537Y-21337036D02*
X89172624Y-21217272D01*
X46769963Y-9202462D02*
X46706999Y-9200000D01*
X89098605Y-9315394D02*
X88996727Y-9241376D01*
X53658999Y-48600000D02*
X53658999Y-50926096D01*
X90525793Y-39672200D02*
X90172488Y-40158488D01*
X89098605Y-39084606D02*
X89172624Y-38982728D01*
X8115393Y-28484606D02*
X8217271Y-28558624D01*
X88996727Y-39158624D02*
X89098605Y-39084606D01*
X88814000Y-27400000D02*
X88876963Y-27397538D01*
X79283999Y-21000000D02*
X62507000Y-21000000D01*
X62107000Y-32400000D02*
X62107000Y-32000000D01*
X90714000Y-12900000D02*
X90714000Y-15229315D01*
X20958488Y-30641511D02*
X21311793Y-31127799D01*
X19662964Y-31602462D02*
X19599999Y-31600000D01*
X62148376Y-27617272D02*
X62222393Y-27515394D01*
X50177966Y-41888280D02*
X49634799Y-41711793D01*
X53648563Y-51225955D02*
X53471036Y-51772327D01*
X50109461Y-16462964D02*
X50148376Y-16582728D01*
X7041511Y-17758488D02*
X6688206Y-17272200D01*
X50222393Y-28484606D02*
X50324271Y-28558624D01*
X90714000Y-15229315D02*
X90702280Y-15529033D01*
X52631321Y-52612037D02*
X52084954Y-52789563D01*
X89098605Y-15484606D02*
X89172624Y-15382728D01*
X46991605Y-39084606D02*
X47065624Y-38982728D01*
X50507000Y-31600000D02*
X50444036Y-31602462D01*
X89143033Y-40688280D02*
X88843315Y-40700000D01*
X47579200Y-40511793D02*
X47036033Y-40688280D01*
X37176999Y-27400000D02*
X37176999Y-28900000D01*
X19884606Y-28484606D02*
X19958624Y-28382728D01*
X50109461Y-20137036D02*
X50107000Y-20200000D01*
X50477684Y-18300000D02*
X50177966Y-18288280D01*
X6500000Y-54300000D02*
X8370684Y-54300000D01*
X61706999Y-8000000D02*
X56607000Y-8000000D01*
X27537036Y-44897538D02*
X27417271Y-44858624D01*
X46889727Y-21041376D02*
X46769963Y-21002462D01*
X52158999Y-45300000D02*
X52156806Y-45236993D01*
X17099999Y-43400000D02*
X14500000Y-43400000D01*
X48065488Y-40158488D02*
X47579200Y-40511793D01*
X8041376Y-28382728D02*
X8115393Y-28484606D01*
X26799999Y-43400000D02*
X18099999Y-43400000D01*
X8115393Y-52684606D02*
X8217271Y-52758624D01*
X8217271Y-40358624D02*
X8337035Y-40397538D01*
X26862963Y-43402462D02*
X26799999Y-43400000D01*
X50177966Y-30111719D02*
X50477684Y-30100000D01*
X27199999Y-44500000D02*
X27199999Y-43800000D01*
X62065624Y-8217272D02*
X61991606Y-8115394D01*
X89214000Y-36500000D02*
X90714000Y-36500000D01*
X48418793Y-20527799D02*
X48595280Y-21070966D01*
X90172488Y-31841511D02*
X90525793Y-32327799D01*
X80283999Y-31300000D02*
X88843315Y-31300000D01*
X48618719Y-16729033D02*
X48607000Y-16429315D01*
X47107000Y-27000000D02*
X47107000Y-24700000D01*
X49634799Y-18111793D02*
X49148511Y-17758488D01*
X20472200Y-18488206D02*
X20958488Y-18841511D01*
X8337035Y-31602462D02*
X8217271Y-31641376D01*
X52158999Y-50900000D02*
X52158999Y-48600000D01*
X13500000Y-6500000D02*
X13500000Y-8000000D01*
X61706999Y-19800000D02*
X56607000Y-19800000D01*
X7527799Y-54111793D02*
X7041511Y-53758488D01*
X28158488Y-53758488D02*
X27672200Y-54111793D01*
X62107000Y-20200000D02*
X62104538Y-20137036D01*
X79283999Y-15600000D02*
X79283999Y-17100000D01*
X20400000Y-27400000D02*
X37176999Y-27400000D01*
X90702280Y-15529033D02*
X90525793Y-16072200D01*
X14500000Y-6500000D02*
X19629315Y-6500000D01*
X53900000Y-91300000D02*
X20099999Y-91300000D01*
X88843315Y-40700000D02*
X80283999Y-40700000D01*
X47104537Y-21337036D02*
X47065624Y-21217272D01*
X48607000Y-9570684D02*
X48607000Y-8370684D01*
X89098605Y-32915394D02*
X88996727Y-32841376D01*
X50324271Y-19841376D02*
X50222393Y-19915394D01*
X88876963Y-32802462D02*
X88814000Y-32800000D01*
X14500000Y-43400000D02*
X14500000Y-40400000D01*
X8000000Y-48600000D02*
X8000000Y-52400000D01*
X62507000Y-27400000D02*
X79283999Y-27400000D01*
X37176999Y-39200000D02*
X37176999Y-40700000D01*
X61889728Y-19841376D02*
X61769964Y-19802462D01*
X8217271Y-52758624D02*
X8337035Y-52797538D01*
X7527799Y-18111793D02*
X7041511Y-17758488D01*
X54900000Y-89800000D02*
X66000000Y-89800000D01*
X46889727Y-15558624D02*
X46991605Y-15484606D01*
X49634799Y-30288206D02*
X50177966Y-30111719D01*
X8041376Y-40182728D02*
X8115393Y-40284606D01*
X20115393Y-27515394D02*
X20217271Y-27441376D01*
X52156806Y-50963007D02*
X52158999Y-50900000D01*
X50107000Y-36500000D02*
X50107000Y-40000000D01*
X20099999Y-55800000D02*
X20099999Y-52800000D01*
X63065488Y-41358488D02*
X62579200Y-41711793D01*
X46736315Y-31300000D02*
X47036033Y-31311719D01*
X48065488Y-16558488D02*
X47579200Y-16911793D01*
X50222393Y-8115394D02*
X50148376Y-8217272D01*
X21311793Y-29072200D02*
X20958488Y-29558488D01*
X8115393Y-19915394D02*
X8041376Y-20017272D01*
X62107000Y-39600000D02*
X62109461Y-39537036D01*
X19929033Y-41888280D02*
X19629315Y-41900000D01*
X89686200Y-28711793D02*
X89143033Y-28888280D01*
X89098605Y-21115394D02*
X88996727Y-21041376D01*
X47036033Y-7711719D02*
X47579200Y-7888206D01*
X89172624Y-27182728D02*
X89211537Y-27062964D01*
X80283999Y-19500000D02*
X88843315Y-19500000D01*
X8337035Y-52797538D02*
X8399999Y-52800000D01*
X52158999Y-48600000D02*
X53658999Y-48600000D01*
X20337035Y-39202462D02*
X20400000Y-39200000D01*
X47104537Y-15262964D02*
X47107000Y-15200000D01*
X19099999Y-89800000D02*
X19099999Y-91300000D01*
X50107000Y-35500000D02*
X47107000Y-35500000D01*
X79283999Y-7700000D02*
X79283999Y-9200000D01*
X62065624Y-40182728D02*
X62104538Y-40062964D01*
X20000000Y-39600000D02*
X20002461Y-39537036D01*
X38176999Y-15600000D02*
X46706999Y-15600000D01*
X53658999Y-50926096D02*
X53648563Y-51225955D01*
X62507000Y-32800000D02*
X62444036Y-32797538D01*
X19662964Y-8002462D02*
X19599999Y-8000000D01*
X46736315Y-19500000D02*
X47036033Y-19511719D01*
X7527799Y-6688206D02*
X8070966Y-6511719D01*
X62107000Y-32000000D02*
X62104538Y-31937036D01*
X21311793Y-19327799D02*
X21367745Y-19500000D01*
X37176999Y-19500000D02*
X37176999Y-21000000D01*
X55607000Y-6500000D02*
X55607000Y-8000000D01*
X19929033Y-18311719D02*
X20472200Y-18488206D01*
X8399999Y-52800000D02*
X17099999Y-52800000D01*
X67500000Y-54300000D02*
X67500000Y-72300000D01*
X38176999Y-40700000D02*
X38176999Y-39200000D01*
X21311793Y-31127799D02*
X21367745Y-31300000D01*
X90714000Y-9570684D02*
X90714000Y-11900000D01*
X20002461Y-20662964D02*
X20000000Y-20600000D01*
X53117676Y-43941315D02*
X53471036Y-44427672D01*
X89098605Y-27284606D02*
X89172624Y-27182728D01*
X62507000Y-39200000D02*
X79283999Y-39200000D01*
X47107000Y-11900000D02*
X47107000Y-9600000D01*
X47579200Y-7888206D02*
X48065488Y-8241511D01*
X48607000Y-21370684D02*
X48607000Y-20170684D01*
X20472200Y-18111793D02*
X19929033Y-18288280D01*
X48618719Y-40329033D02*
X48607000Y-40029315D01*
X18099999Y-43400000D02*
X18099999Y-40400000D01*
X63418793Y-19327799D02*
X63474745Y-19500000D01*
X90714000Y-33170684D02*
X90714000Y-35500000D01*
X8370684Y-41900000D02*
X8070966Y-41888280D01*
X48795206Y-19327799D02*
X49148511Y-18841511D01*
X6500000Y-72300000D02*
X6500000Y-54300000D01*
X8400000Y-28600000D02*
X13500000Y-28600000D01*
X88843315Y-31300000D02*
X89143033Y-31311719D01*
X61706999Y-16800000D02*
X61769964Y-16797538D01*
X50109461Y-40062964D02*
X50148376Y-40182728D01*
X20115393Y-15715394D02*
X20217271Y-15641376D01*
X6500000Y-35500000D02*
X6500000Y-31970684D01*
X88876963Y-27397538D02*
X88996727Y-27358624D01*
X19099999Y-55800000D02*
X18099999Y-55800000D01*
X8000000Y-55800000D02*
X8000000Y-72300000D01*
X62065624Y-16582728D02*
X62104538Y-16462964D01*
X46706999Y-21000000D02*
X38176999Y-21000000D01*
X8337035Y-19802462D02*
X8217271Y-19841376D01*
X7041511Y-42441511D02*
X7527799Y-42088206D01*
X28158488Y-42441511D02*
X28511793Y-42927799D01*
X67500000Y-91300000D02*
X54900000Y-91300000D01*
X20000000Y-20200000D02*
X19997538Y-20137036D01*
X37176999Y-15600000D02*
X37176999Y-17100000D01*
X20337035Y-15602462D02*
X20400000Y-15600000D01*
X89172624Y-38982728D02*
X89211537Y-38862964D01*
X54900000Y-54300000D02*
X67500000Y-54300000D01*
X56607000Y-19800000D02*
X56607000Y-16800000D01*
X79283999Y-19500000D02*
X79283999Y-21000000D01*
X38176999Y-39200000D02*
X46706999Y-39200000D01*
X67500000Y-73300000D02*
X67500000Y-91300000D01*
M02*
