G04 #@! TF.GenerationSoftware,KiCad,Pcbnew,9.0.2+dfsg-1*
G04 #@! TF.CreationDate,2026-10-04T09:34:05-04:00*
G04 #@! TF.ProjectId,panel_c50,70616e65-6c5f-4633-9530-2e6b69636164,rev?*
G04 #@! TF.SameCoordinates,Original*
G04 #@! TF.FileFunction,Soldermask,Top*
G04 #@! TF.FilePolarity,Negative*
%FSLAX46Y46*%
G04 Gerber Fmt 4.6, Leading zero omitted, Abs format (unit mm)*
G04 Created by KiCad (PCBNEW 9.0.2+dfsg-1) date 2026-10-04 09:34:05*
%MOMM*%
%LPD*%
G01*
G04 APERTURE LIST*
G04 Aperture macros list*
%AMRoundRect*
0 Rectangle with rounded corners*
0 $1 Rounding radius*
0 $2 $3 $4 $5 $6 $7 $8 $9 X,Y pos of 4 corners*
0 Add a 4 corners polygon primitive as box body*
4,1,4,$2,$3,$4,$5,$6,$7,$8,$9,$2,$3,0*
0 Add four circle primitives for the rounded corners*
1,1,$1+$1,$2,$3*
1,1,$1+$1,$4,$5*
1,1,$1+$1,$6,$7*
1,1,$1+$1,$8,$9*
0 Add four rect primitives between the rounded corners*
20,1,$1+$1,$2,$3,$4,$5,0*
20,1,$1+$1,$4,$5,$6,$7,0*
20,1,$1+$1,$6,$7,$8,$9,0*
20,1,$1+$1,$8,$9,$2,$3,0*%
G04 Aperture macros list end*
%ADD10RoundRect,0.057500X-0.057500X-0.292500X0.057500X-0.292500X0.057500X0.292500X-0.057500X0.292500X0*%
%ADD11R,0.300000X1.100000*%
%ADD12O,1.100000X1.900000*%
%ADD13C,0.600000*%
%ADD14R,0.270000X1.300000*%
%ADD15O,1.800000X1.300000*%
%ADD16C,2.000000*%
%ADD17R,0.800000X0.500000*%
%ADD18RoundRect,0.062500X0.372500X0.062500X-0.372500X0.062500X-0.372500X-0.062500X0.372500X-0.062500X0*%
%ADD19R,0.610000X2.200000*%
%ADD20RoundRect,0.100000X-0.130000X-0.100000X0.130000X-0.100000X0.130000X0.100000X-0.130000X0.100000X0*%
G04 APERTURE END LIST*
D10*
G04 #@! TO.C,J2_C5*
X32876999Y-34700001D03*
X32876999Y-37300001D03*
X33276999Y-34700001D03*
X33276999Y-37300001D03*
X33676999Y-34700001D03*
X33676999Y-37300001D03*
X34076999Y-34700001D03*
X34076999Y-37300001D03*
X34476999Y-34700001D03*
X34476999Y-37300001D03*
X34876999Y-34700001D03*
X34876999Y-37300001D03*
X35276999Y-34700001D03*
X35276999Y-37300001D03*
X35676999Y-34700001D03*
X35676999Y-37300001D03*
X36076999Y-34700001D03*
X36076999Y-37300001D03*
X36476999Y-34700001D03*
X36476999Y-37300001D03*
X36876999Y-34700001D03*
X36876999Y-37300001D03*
X37276999Y-34700001D03*
X37276999Y-37300001D03*
X37676999Y-34700001D03*
X37676999Y-37300001D03*
X38076999Y-34700001D03*
X38076999Y-37300001D03*
X38476999Y-34700001D03*
X38476999Y-37300001D03*
X38876999Y-34700001D03*
X38876999Y-37300001D03*
X39276999Y-34700001D03*
X39276999Y-37300001D03*
X39676999Y-34700001D03*
X39676999Y-37300001D03*
X40076999Y-34700001D03*
X40076999Y-37300001D03*
X40476999Y-34700001D03*
X40476999Y-37300001D03*
X40876999Y-34700001D03*
X40876999Y-37300001D03*
X41276999Y-34700001D03*
X41276999Y-37300001D03*
X41676999Y-34700001D03*
X41676999Y-37300001D03*
X42076999Y-34700001D03*
X42076999Y-37300001D03*
X42476999Y-34700001D03*
X42476999Y-37300001D03*
G04 #@! TD*
D11*
G04 #@! TO.C,J1_H*
X22100000Y-51000001D03*
X21600000Y-45200001D03*
X21100000Y-51000001D03*
X20600000Y-45200001D03*
X20100000Y-51000001D03*
X19600000Y-45200001D03*
X19100000Y-51000001D03*
X18600000Y-45200001D03*
X18100000Y-51000001D03*
X17600000Y-45200001D03*
X17100000Y-51000001D03*
X16600000Y-45200001D03*
X16100000Y-51000001D03*
X15600000Y-45200001D03*
X15100000Y-51000001D03*
X14600000Y-45200001D03*
X14100000Y-51000001D03*
X13600000Y-45200001D03*
X13100000Y-51000001D03*
D12*
X25450000Y-49700001D03*
X25450000Y-46500001D03*
X9750000Y-49700001D03*
X9750000Y-46500001D03*
G04 #@! TD*
D13*
G04 #@! TO.C,J1_C3*
X8500000Y-22900001D03*
X19500000Y-25500001D03*
D14*
X11250000Y-22550001D03*
X11750000Y-22550001D03*
X12250000Y-22550001D03*
X12750000Y-22550001D03*
X13250000Y-22550001D03*
X13750000Y-22550001D03*
X14250000Y-22550001D03*
X14750000Y-22550001D03*
X15250000Y-22550001D03*
X15750000Y-22550001D03*
X16250000Y-22550001D03*
X16750000Y-22550001D03*
X16750000Y-25850001D03*
X16250000Y-25850001D03*
X15750000Y-25850001D03*
X15250000Y-25850001D03*
X14750000Y-25850001D03*
X14250000Y-25850001D03*
X13750000Y-25850001D03*
X13250000Y-25850001D03*
X12750000Y-25850001D03*
X12250000Y-25850001D03*
X11750000Y-25850001D03*
X11250000Y-25850001D03*
D15*
X9900000Y-22730001D03*
X9900000Y-25670001D03*
X18100000Y-22730001D03*
X18100000Y-25670001D03*
G04 #@! TD*
D16*
G04 #@! TO.C,FID4*
X82214000Y-93950000D03*
G04 #@! TD*
G04 #@! TO.C,FID11*
X2500000Y-48100000D03*
G04 #@! TD*
D10*
G04 #@! TO.C,J2_C4*
X74983999Y-22900001D03*
X74983999Y-25500001D03*
X75383999Y-22900001D03*
X75383999Y-25500001D03*
X75783999Y-22900001D03*
X75783999Y-25500001D03*
X76183999Y-22900001D03*
X76183999Y-25500001D03*
X76583999Y-22900001D03*
X76583999Y-25500001D03*
X76983999Y-22900001D03*
X76983999Y-25500001D03*
X77383999Y-22900001D03*
X77383999Y-25500001D03*
X77783999Y-22900001D03*
X77783999Y-25500001D03*
X78183999Y-22900001D03*
X78183999Y-25500001D03*
X78583999Y-22900001D03*
X78583999Y-25500001D03*
X78983999Y-22900001D03*
X78983999Y-25500001D03*
X79383999Y-22900001D03*
X79383999Y-25500001D03*
X79783999Y-22900001D03*
X79783999Y-25500001D03*
X80183999Y-22900001D03*
X80183999Y-25500001D03*
X80583999Y-22900001D03*
X80583999Y-25500001D03*
X80983999Y-22900001D03*
X80983999Y-25500001D03*
X81383999Y-22900001D03*
X81383999Y-25500001D03*
X81783999Y-22900001D03*
X81783999Y-25500001D03*
X82183999Y-22900001D03*
X82183999Y-25500001D03*
X82583999Y-22900001D03*
X82583999Y-25500001D03*
X82983999Y-22900001D03*
X82983999Y-25500001D03*
X83383999Y-22900001D03*
X83383999Y-25500001D03*
X83783999Y-22900001D03*
X83783999Y-25500001D03*
X84183999Y-22900001D03*
X84183999Y-25500001D03*
X84583999Y-22900001D03*
X84583999Y-25500001D03*
G04 #@! TD*
D16*
G04 #@! TO.C,FID9*
X2500000Y-36000000D03*
G04 #@! TD*
G04 #@! TO.C,FID1*
X10000000Y-3850000D03*
G04 #@! TD*
D17*
G04 #@! TO.C,TP4A_T*
X10400000Y-77800001D03*
X10400000Y-76800001D03*
X10400000Y-75800001D03*
X10400000Y-74800001D03*
G04 #@! TD*
D18*
G04 #@! TO.C,U1_C2*
X88459000Y-13150000D03*
X88459000Y-12650000D03*
X88459000Y-12150000D03*
X88459000Y-11650000D03*
X86579000Y-11650000D03*
X86579000Y-12150000D03*
X86579000Y-12650000D03*
X86579000Y-13150000D03*
D19*
X87519000Y-12400000D03*
G04 #@! TD*
D10*
G04 #@! TO.C,J2_C6*
X74983999Y-34700001D03*
X74983999Y-37300001D03*
X75383999Y-34700001D03*
X75383999Y-37300001D03*
X75783999Y-34700001D03*
X75783999Y-37300001D03*
X76183999Y-34700001D03*
X76183999Y-37300001D03*
X76583999Y-34700001D03*
X76583999Y-37300001D03*
X76983999Y-34700001D03*
X76983999Y-37300001D03*
X77383999Y-34700001D03*
X77383999Y-37300001D03*
X77783999Y-34700001D03*
X77783999Y-37300001D03*
X78183999Y-34700001D03*
X78183999Y-37300001D03*
X78583999Y-34700001D03*
X78583999Y-37300001D03*
X78983999Y-34700001D03*
X78983999Y-37300001D03*
X79383999Y-34700001D03*
X79383999Y-37300001D03*
X79783999Y-34700001D03*
X79783999Y-37300001D03*
X80183999Y-34700001D03*
X80183999Y-37300001D03*
X80583999Y-34700001D03*
X80583999Y-37300001D03*
X80983999Y-34700001D03*
X80983999Y-37300001D03*
X81383999Y-34700001D03*
X81383999Y-37300001D03*
X81783999Y-34700001D03*
X81783999Y-37300001D03*
X82183999Y-34700001D03*
X82183999Y-37300001D03*
X82583999Y-34700001D03*
X82583999Y-37300001D03*
X82983999Y-34700001D03*
X82983999Y-37300001D03*
X83383999Y-34700001D03*
X83383999Y-37300001D03*
X83783999Y-34700001D03*
X83783999Y-37300001D03*
X84183999Y-34700001D03*
X84183999Y-37300001D03*
X84583999Y-34700001D03*
X84583999Y-37300001D03*
G04 #@! TD*
D17*
G04 #@! TO.C,TP6A_T*
X10400000Y-87800001D03*
X10400000Y-86800001D03*
X10400000Y-85800001D03*
X10400000Y-84800001D03*
G04 #@! TD*
D16*
G04 #@! TO.C,TH3*
X2500000Y-95300000D03*
G04 #@! TD*
D17*
G04 #@! TO.C,TP6B_T*
X63600000Y-87800001D03*
X63600000Y-86800001D03*
X63600000Y-85800001D03*
X63600000Y-84800001D03*
G04 #@! TD*
D18*
G04 #@! TO.C,U1_C6*
X88459000Y-36750001D03*
X88459000Y-36250001D03*
X88459000Y-35750001D03*
X88459000Y-35250001D03*
X86579000Y-35250001D03*
X86579000Y-35750001D03*
X86579000Y-36250001D03*
X86579000Y-36750001D03*
D19*
X87519000Y-36000001D03*
G04 #@! TD*
D20*
G04 #@! TO.C,C1_C2*
X86599000Y-14800000D03*
X87239000Y-14800000D03*
G04 #@! TD*
G04 #@! TO.C,C1_C3*
X44492000Y-26600001D03*
X45132000Y-26600001D03*
G04 #@! TD*
D10*
G04 #@! TO.C,J2_H*
X37929000Y-46800001D03*
X37929000Y-49400001D03*
X38329000Y-46800001D03*
X38329000Y-49400001D03*
X38729000Y-46800001D03*
X38729000Y-49400001D03*
X39129000Y-46800001D03*
X39129000Y-49400001D03*
X39529000Y-46800001D03*
X39529000Y-49400001D03*
X39929000Y-46800001D03*
X39929000Y-49400001D03*
X40329000Y-46800001D03*
X40329000Y-49400001D03*
X40729000Y-46800001D03*
X40729000Y-49400001D03*
X41129000Y-46800001D03*
X41129000Y-49400001D03*
X41529000Y-46800001D03*
X41529000Y-49400001D03*
X41929000Y-46800001D03*
X41929000Y-49400001D03*
X42329000Y-46800001D03*
X42329000Y-49400001D03*
X42729000Y-46800001D03*
X42729000Y-49400001D03*
X43129000Y-46800001D03*
X43129000Y-49400001D03*
X43529000Y-46800001D03*
X43529000Y-49400001D03*
X43929000Y-46800001D03*
X43929000Y-49400001D03*
X44329000Y-46800001D03*
X44329000Y-49400001D03*
X44729000Y-46800001D03*
X44729000Y-49400001D03*
X45129000Y-46800001D03*
X45129000Y-49400001D03*
X45529000Y-46800001D03*
X45529000Y-49400001D03*
X45929000Y-46800001D03*
X45929000Y-49400001D03*
X46329000Y-46800001D03*
X46329000Y-49400001D03*
X46729000Y-46800001D03*
X46729000Y-49400001D03*
X47129000Y-46800001D03*
X47129000Y-49400001D03*
X47529000Y-46800001D03*
X47529000Y-49400001D03*
G04 #@! TD*
D20*
G04 #@! TO.C,C1_H*
X49544000Y-50500001D03*
X50184000Y-50500001D03*
G04 #@! TD*
D18*
G04 #@! TO.C,U1_C4*
X88459000Y-24950001D03*
X88459000Y-24450001D03*
X88459000Y-23950001D03*
X88459000Y-23450001D03*
X86579000Y-23450001D03*
X86579000Y-23950001D03*
X86579000Y-24450001D03*
X86579000Y-24950001D03*
D19*
X87519000Y-24200001D03*
G04 #@! TD*
D20*
G04 #@! TO.C,C1_C6*
X86599000Y-38400001D03*
X87239000Y-38400001D03*
G04 #@! TD*
D16*
G04 #@! TO.C,TH1*
X2500000Y-2500000D03*
G04 #@! TD*
G04 #@! TO.C,TH2*
X94714000Y-2500000D03*
G04 #@! TD*
G04 #@! TO.C,FID3*
X10000000Y-93950000D03*
G04 #@! TD*
G04 #@! TO.C,FID7*
X2500000Y-24200000D03*
G04 #@! TD*
G04 #@! TO.C,TH4*
X89714000Y-95300000D03*
G04 #@! TD*
D18*
G04 #@! TO.C,U1_C1*
X46352000Y-13150000D03*
X46352000Y-12650000D03*
X46352000Y-12150000D03*
X46352000Y-11650000D03*
X44472000Y-11650000D03*
X44472000Y-12150000D03*
X44472000Y-12650000D03*
X44472000Y-13150000D03*
D19*
X45412000Y-12400000D03*
G04 #@! TD*
D17*
G04 #@! TO.C,TP2A_T*
X10400000Y-67800001D03*
X10400000Y-66800001D03*
X10400000Y-65800001D03*
X10400000Y-64800001D03*
G04 #@! TD*
D16*
G04 #@! TO.C,FID10*
X94714000Y-36000000D03*
G04 #@! TD*
D17*
G04 #@! TO.C,TP3A_T*
X10400000Y-72800001D03*
X10400000Y-71800001D03*
X10400000Y-70800001D03*
X10400000Y-69800001D03*
G04 #@! TD*
G04 #@! TO.C,TP4B_T*
X63600000Y-77800001D03*
X63600000Y-76800001D03*
X63600000Y-75800001D03*
X63600000Y-74800001D03*
G04 #@! TD*
D16*
G04 #@! TO.C,FID2*
X87214000Y-3850000D03*
G04 #@! TD*
D13*
G04 #@! TO.C,J1_C2*
X50607000Y-11100000D03*
X61607000Y-13700000D03*
D14*
X53357000Y-10750000D03*
X53857000Y-10750000D03*
X54357000Y-10750000D03*
X54857000Y-10750000D03*
X55357000Y-10750000D03*
X55857000Y-10750000D03*
X56357000Y-10750000D03*
X56857000Y-10750000D03*
X57357000Y-10750000D03*
X57857000Y-10750000D03*
X58357000Y-10750000D03*
X58857000Y-10750000D03*
X58857000Y-14050000D03*
X58357000Y-14050000D03*
X57857000Y-14050000D03*
X57357000Y-14050000D03*
X56857000Y-14050000D03*
X56357000Y-14050000D03*
X55857000Y-14050000D03*
X55357000Y-14050000D03*
X54857000Y-14050000D03*
X54357000Y-14050000D03*
X53857000Y-14050000D03*
X53357000Y-14050000D03*
D15*
X52007000Y-10930000D03*
X52007000Y-13870000D03*
X60207000Y-10930000D03*
X60207000Y-13870000D03*
G04 #@! TD*
D18*
G04 #@! TO.C,U1_C3*
X46352000Y-24950001D03*
X46352000Y-24450001D03*
X46352000Y-23950001D03*
X46352000Y-23450001D03*
X44472000Y-23450001D03*
X44472000Y-23950001D03*
X44472000Y-24450001D03*
X44472000Y-24950001D03*
D19*
X45412000Y-24200001D03*
G04 #@! TD*
D13*
G04 #@! TO.C,J1_C1*
X8500000Y-11100000D03*
X19500000Y-13700000D03*
D14*
X11250000Y-10750000D03*
X11750000Y-10750000D03*
X12250000Y-10750000D03*
X12750000Y-10750000D03*
X13250000Y-10750000D03*
X13750000Y-10750000D03*
X14250000Y-10750000D03*
X14750000Y-10750000D03*
X15250000Y-10750000D03*
X15750000Y-10750000D03*
X16250000Y-10750000D03*
X16750000Y-10750000D03*
X16750000Y-14050000D03*
X16250000Y-14050000D03*
X15750000Y-14050000D03*
X15250000Y-14050000D03*
X14750000Y-14050000D03*
X14250000Y-14050000D03*
X13750000Y-14050000D03*
X13250000Y-14050000D03*
X12750000Y-14050000D03*
X12250000Y-14050000D03*
X11750000Y-14050000D03*
X11250000Y-14050000D03*
D15*
X9900000Y-10930000D03*
X9900000Y-13870000D03*
X18100000Y-10930000D03*
X18100000Y-13870000D03*
G04 #@! TD*
D16*
G04 #@! TO.C,FID5*
X2500000Y-12400000D03*
G04 #@! TD*
D13*
G04 #@! TO.C,J1_C4*
X50607000Y-22900001D03*
X61607000Y-25500001D03*
D14*
X53357000Y-22550001D03*
X53857000Y-22550001D03*
X54357000Y-22550001D03*
X54857000Y-22550001D03*
X55357000Y-22550001D03*
X55857000Y-22550001D03*
X56357000Y-22550001D03*
X56857000Y-22550001D03*
X57357000Y-22550001D03*
X57857000Y-22550001D03*
X58357000Y-22550001D03*
X58857000Y-22550001D03*
X58857000Y-25850001D03*
X58357000Y-25850001D03*
X57857000Y-25850001D03*
X57357000Y-25850001D03*
X56857000Y-25850001D03*
X56357000Y-25850001D03*
X55857000Y-25850001D03*
X55357000Y-25850001D03*
X54857000Y-25850001D03*
X54357000Y-25850001D03*
X53857000Y-25850001D03*
X53357000Y-25850001D03*
D15*
X52007000Y-22730001D03*
X52007000Y-25670001D03*
X60207000Y-22730001D03*
X60207000Y-25670001D03*
G04 #@! TD*
D16*
G04 #@! TO.C,FID8*
X94714000Y-24200000D03*
G04 #@! TD*
D10*
G04 #@! TO.C,J2_C3*
X32876999Y-22900001D03*
X32876999Y-25500001D03*
X33276999Y-22900001D03*
X33276999Y-25500001D03*
X33676999Y-22900001D03*
X33676999Y-25500001D03*
X34076999Y-22900001D03*
X34076999Y-25500001D03*
X34476999Y-22900001D03*
X34476999Y-25500001D03*
X34876999Y-22900001D03*
X34876999Y-25500001D03*
X35276999Y-22900001D03*
X35276999Y-25500001D03*
X35676999Y-22900001D03*
X35676999Y-25500001D03*
X36076999Y-22900001D03*
X36076999Y-25500001D03*
X36476999Y-22900001D03*
X36476999Y-25500001D03*
X36876999Y-22900001D03*
X36876999Y-25500001D03*
X37276999Y-22900001D03*
X37276999Y-25500001D03*
X37676999Y-22900001D03*
X37676999Y-25500001D03*
X38076999Y-22900001D03*
X38076999Y-25500001D03*
X38476999Y-22900001D03*
X38476999Y-25500001D03*
X38876999Y-22900001D03*
X38876999Y-25500001D03*
X39276999Y-22900001D03*
X39276999Y-25500001D03*
X39676999Y-22900001D03*
X39676999Y-25500001D03*
X40076999Y-22900001D03*
X40076999Y-25500001D03*
X40476999Y-22900001D03*
X40476999Y-25500001D03*
X40876999Y-22900001D03*
X40876999Y-25500001D03*
X41276999Y-22900001D03*
X41276999Y-25500001D03*
X41676999Y-22900001D03*
X41676999Y-25500001D03*
X42076999Y-22900001D03*
X42076999Y-25500001D03*
X42476999Y-22900001D03*
X42476999Y-25500001D03*
G04 #@! TD*
D17*
G04 #@! TO.C,TP3B_T*
X63600000Y-72800001D03*
X63600000Y-71800001D03*
X63600000Y-70800001D03*
X63600000Y-69800001D03*
G04 #@! TD*
D10*
G04 #@! TO.C,J2_C2*
X74983999Y-11100000D03*
X74983999Y-13700000D03*
X75383999Y-11100000D03*
X75383999Y-13700000D03*
X75783999Y-11100000D03*
X75783999Y-13700000D03*
X76183999Y-11100000D03*
X76183999Y-13700000D03*
X76583999Y-11100000D03*
X76583999Y-13700000D03*
X76983999Y-11100000D03*
X76983999Y-13700000D03*
X77383999Y-11100000D03*
X77383999Y-13700000D03*
X77783999Y-11100000D03*
X77783999Y-13700000D03*
X78183999Y-11100000D03*
X78183999Y-13700000D03*
X78583999Y-11100000D03*
X78583999Y-13700000D03*
X78983999Y-11100000D03*
X78983999Y-13700000D03*
X79383999Y-11100000D03*
X79383999Y-13700000D03*
X79783999Y-11100000D03*
X79783999Y-13700000D03*
X80183999Y-11100000D03*
X80183999Y-13700000D03*
X80583999Y-11100000D03*
X80583999Y-13700000D03*
X80983999Y-11100000D03*
X80983999Y-13700000D03*
X81383999Y-11100000D03*
X81383999Y-13700000D03*
X81783999Y-11100000D03*
X81783999Y-13700000D03*
X82183999Y-11100000D03*
X82183999Y-13700000D03*
X82583999Y-11100000D03*
X82583999Y-13700000D03*
X82983999Y-11100000D03*
X82983999Y-13700000D03*
X83383999Y-11100000D03*
X83383999Y-13700000D03*
X83783999Y-11100000D03*
X83783999Y-13700000D03*
X84183999Y-11100000D03*
X84183999Y-13700000D03*
X84583999Y-11100000D03*
X84583999Y-13700000D03*
G04 #@! TD*
D17*
G04 #@! TO.C,TP1B_T*
X63600000Y-62800001D03*
X63600000Y-61800001D03*
X63600000Y-60800001D03*
X63600000Y-59800001D03*
G04 #@! TD*
G04 #@! TO.C,TP5A_T*
X10400000Y-82300001D03*
X10400000Y-81300001D03*
X10400000Y-80300001D03*
G04 #@! TD*
G04 #@! TO.C,TP1A_T*
X10400000Y-62800001D03*
X10400000Y-61800001D03*
X10400000Y-60800001D03*
X10400000Y-59800001D03*
G04 #@! TD*
D20*
G04 #@! TO.C,C1_C1*
X44492000Y-14800000D03*
X45132000Y-14800000D03*
G04 #@! TD*
G04 #@! TO.C,C1_C5*
X44492000Y-38400001D03*
X45132000Y-38400001D03*
G04 #@! TD*
G04 #@! TO.C,C1_C4*
X86599000Y-26600001D03*
X87239000Y-26600001D03*
G04 #@! TD*
D13*
G04 #@! TO.C,J1_C5*
X8500000Y-34700001D03*
X19500000Y-37300001D03*
D14*
X11250000Y-34350001D03*
X11750000Y-34350001D03*
X12250000Y-34350001D03*
X12750000Y-34350001D03*
X13250000Y-34350001D03*
X13750000Y-34350001D03*
X14250000Y-34350001D03*
X14750000Y-34350001D03*
X15250000Y-34350001D03*
X15750000Y-34350001D03*
X16250000Y-34350001D03*
X16750000Y-34350001D03*
X16750000Y-37650001D03*
X16250000Y-37650001D03*
X15750000Y-37650001D03*
X15250000Y-37650001D03*
X14750000Y-37650001D03*
X14250000Y-37650001D03*
X13750000Y-37650001D03*
X13250000Y-37650001D03*
X12750000Y-37650001D03*
X12250000Y-37650001D03*
X11750000Y-37650001D03*
X11250000Y-37650001D03*
D15*
X9900000Y-34530001D03*
X9900000Y-37470001D03*
X18100000Y-34530001D03*
X18100000Y-37470001D03*
G04 #@! TD*
D17*
G04 #@! TO.C,TP2B_T*
X63600000Y-67800001D03*
X63600000Y-66800001D03*
X63600000Y-65800001D03*
X63600000Y-64800001D03*
G04 #@! TD*
D18*
G04 #@! TO.C,U1_H*
X51404000Y-48850001D03*
X51404000Y-48350001D03*
X51404000Y-47850001D03*
X51404000Y-47350001D03*
X49524000Y-47350001D03*
X49524000Y-47850001D03*
X49524000Y-48350001D03*
X49524000Y-48850001D03*
D19*
X50464000Y-48100001D03*
G04 #@! TD*
D10*
G04 #@! TO.C,J2_C1*
X32876999Y-11100000D03*
X32876999Y-13700000D03*
X33276999Y-11100000D03*
X33276999Y-13700000D03*
X33676999Y-11100000D03*
X33676999Y-13700000D03*
X34076999Y-11100000D03*
X34076999Y-13700000D03*
X34476999Y-11100000D03*
X34476999Y-13700000D03*
X34876999Y-11100000D03*
X34876999Y-13700000D03*
X35276999Y-11100000D03*
X35276999Y-13700000D03*
X35676999Y-11100000D03*
X35676999Y-13700000D03*
X36076999Y-11100000D03*
X36076999Y-13700000D03*
X36476999Y-11100000D03*
X36476999Y-13700000D03*
X36876999Y-11100000D03*
X36876999Y-13700000D03*
X37276999Y-11100000D03*
X37276999Y-13700000D03*
X37676999Y-11100000D03*
X37676999Y-13700000D03*
X38076999Y-11100000D03*
X38076999Y-13700000D03*
X38476999Y-11100000D03*
X38476999Y-13700000D03*
X38876999Y-11100000D03*
X38876999Y-13700000D03*
X39276999Y-11100000D03*
X39276999Y-13700000D03*
X39676999Y-11100000D03*
X39676999Y-13700000D03*
X40076999Y-11100000D03*
X40076999Y-13700000D03*
X40476999Y-11100000D03*
X40476999Y-13700000D03*
X40876999Y-11100000D03*
X40876999Y-13700000D03*
X41276999Y-11100000D03*
X41276999Y-13700000D03*
X41676999Y-11100000D03*
X41676999Y-13700000D03*
X42076999Y-11100000D03*
X42076999Y-13700000D03*
X42476999Y-11100000D03*
X42476999Y-13700000D03*
G04 #@! TD*
D16*
G04 #@! TO.C,FID6*
X94714000Y-12400000D03*
G04 #@! TD*
D17*
G04 #@! TO.C,TP5B_T*
X63600000Y-82300001D03*
X63600000Y-81300001D03*
X63600000Y-80300001D03*
G04 #@! TD*
D13*
G04 #@! TO.C,J1_C6*
X50607000Y-34700001D03*
X61607000Y-37300001D03*
D14*
X53357000Y-34350001D03*
X53857000Y-34350001D03*
X54357000Y-34350001D03*
X54857000Y-34350001D03*
X55357000Y-34350001D03*
X55857000Y-34350001D03*
X56357000Y-34350001D03*
X56857000Y-34350001D03*
X57357000Y-34350001D03*
X57857000Y-34350001D03*
X58357000Y-34350001D03*
X58857000Y-34350001D03*
X58857000Y-37650001D03*
X58357000Y-37650001D03*
X57857000Y-37650001D03*
X57357000Y-37650001D03*
X56857000Y-37650001D03*
X56357000Y-37650001D03*
X55857000Y-37650001D03*
X55357000Y-37650001D03*
X54857000Y-37650001D03*
X54357000Y-37650001D03*
X53857000Y-37650001D03*
X53357000Y-37650001D03*
D15*
X52007000Y-34530001D03*
X52007000Y-37470001D03*
X60207000Y-34530001D03*
X60207000Y-37470001D03*
G04 #@! TD*
D18*
G04 #@! TO.C,U1_C5*
X46352000Y-36750001D03*
X46352000Y-36250001D03*
X46352000Y-35750001D03*
X46352000Y-35250001D03*
X44472000Y-35250001D03*
X44472000Y-35750001D03*
X44472000Y-36250001D03*
X44472000Y-36750001D03*
D19*
X45412000Y-36000001D03*
G04 #@! TD*
M02*
