%TF.GenerationSoftware,KiCad,Pcbnew,9.0.2+dfsg-1*%
%TF.CreationDate,2026-10-04T10:33:59-04:00*%
%TF.ProjectId,panel_c50,70616e65-6c5f-4633-9530-2e6b69636164,rev?*%
%TF.SameCoordinates,Original*%
%TF.FileFunction,Drillmap*%
%TF.FilePolarity,Positive*%
%FSLAX45Y45*%
G04 Gerber Fmt 4.5, Leading zero omitted, Abs format (unit mm)*
G04 Created by KiCad (PCBNEW 9.0.2+dfsg-1) date 2026-10-04 10:33:59*
%MOMM*%
%LPD*%
G01*
G04 APERTURE LIST*
%ADD10C,0.050000*%
%ADD11C,0.200000*%
%ADD12C,0.100000*%
%ADD13C,0.130000*%
G04 APERTURE END LIST*
D10*
X6410049Y-704151D02*
X6445379Y-752780D01*
X9128154Y-2128704D02*
X9124262Y-2116727D01*
X9116861Y-1553461D02*
X9124262Y-1543273D01*
X2047220Y-3028821D02*
X2095849Y-3064151D01*
X5316620Y-4368821D02*
X5365249Y-4404151D01*
X6314200Y-2820000D02*
X6314200Y-2785000D01*
X6335927Y-3929138D02*
X6347903Y-3925246D01*
X8235400Y-1945000D02*
X9091332Y-1945000D01*
X6600000Y-9010000D02*
X6600000Y-7360000D01*
X1988461Y-3171539D02*
X1978273Y-3164138D01*
X9224249Y-3179151D02*
X9259579Y-3227780D01*
X2719754Y-4373704D02*
X2715862Y-4361727D01*
X3921200Y-4075000D02*
X3921200Y-3925000D01*
X4945379Y-2792220D02*
X4910049Y-2840849D01*
X5114200Y-3550000D02*
X4814200Y-3550000D01*
X800000Y-4775000D02*
X650000Y-4775000D01*
X650000Y-5272932D02*
X650000Y-4875000D01*
X5269154Y-4533704D02*
X5265262Y-4521727D01*
X2011539Y-2083461D02*
X2004138Y-2073273D01*
X5135927Y-1675862D02*
X5147904Y-1679754D01*
X807097Y-4188828D02*
X752780Y-4171179D01*
X6347903Y-1565246D02*
X6354200Y-1565000D01*
X1966296Y-2859754D02*
X1978273Y-2855862D01*
X0Y0D02*
X0Y-9810000D01*
X2047220Y-2991179D02*
X1992903Y-3008828D01*
X2004138Y-1586727D02*
X2011539Y-1576539D01*
X1999754Y-1646296D02*
X2000000Y-1640000D01*
X3821200Y-2745000D02*
X3821200Y-2895000D01*
X6302661Y-811539D02*
X6292473Y-804138D01*
X9106673Y-2099138D02*
X9094696Y-2095246D01*
X2000000Y-3965000D02*
X2000246Y-3958704D01*
X811539Y-3171539D02*
X804138Y-3181727D01*
X4810062Y-2723273D02*
X4813954Y-2711296D01*
X6325739Y-2756539D02*
X6335927Y-2749138D01*
X2715862Y-4361727D02*
X2708461Y-4351539D01*
X1910000Y-9010000D02*
X1910000Y-9160000D01*
X800000Y-5270000D02*
X800246Y-5276296D01*
X2680000Y-4340000D02*
X1810000Y-4340000D01*
X5490000Y-9010000D02*
X6600000Y-9010000D01*
X837068Y-3010000D02*
X807097Y-3008828D01*
X2682932Y-4190000D02*
X2712903Y-4191172D01*
X6445379Y-4087220D02*
X6410049Y-4135849D01*
X6310062Y-4018273D02*
X6313954Y-4006296D01*
X1350000Y-800000D02*
X840000Y-800000D01*
X1710000Y-4040000D02*
X1710000Y-4340000D01*
X840000Y-1980000D02*
X833703Y-1980246D01*
X6310062Y-1658273D02*
X6313954Y-1646296D01*
X4814200Y-3885000D02*
X4814200Y-3650000D01*
X9175620Y-2876179D02*
X9121303Y-2893828D01*
X837068Y-650000D02*
X1350000Y-650000D01*
X3921200Y-3275000D02*
X3921200Y-3125000D01*
X6292473Y-3164138D02*
X6280496Y-3160246D01*
X800246Y-2013704D02*
X800000Y-2020000D01*
X2033703Y-1565246D02*
X2040000Y-1565000D01*
X2040000Y-1565000D02*
X3821200Y-1565000D01*
X6314200Y-4000000D02*
X6314200Y-3965000D01*
X2851179Y-4292780D02*
X2868828Y-4347097D01*
X9128400Y-1190000D02*
X9128400Y-955000D01*
X8235400Y-3925000D02*
X9088400Y-3925000D01*
X2131179Y-3112780D02*
X2135150Y-3125000D01*
X5390000Y-9010000D02*
X5390000Y-9160000D01*
X5114200Y-2820000D02*
X5114446Y-2826296D01*
X2724138Y-4478273D02*
X2720246Y-4466296D01*
X9128154Y-2711296D02*
X9128400Y-2705000D01*
X4983021Y-2907220D02*
X4965372Y-2852903D01*
X5114200Y-3650000D02*
X5114200Y-4000000D01*
X6314446Y-2061296D02*
X6314200Y-2055000D01*
X4814200Y-1190000D02*
X4814200Y-955000D01*
X4774200Y-2095000D02*
X3921200Y-2095000D01*
X800000Y-3550000D02*
X650000Y-3550000D01*
X5066980Y-4171179D02*
X5018351Y-4135849D01*
X2135150Y-1715000D02*
X2131179Y-1727220D01*
X800246Y-4373704D02*
X800000Y-4380000D01*
X2095849Y-704151D02*
X2131179Y-752780D01*
X9278400Y-3550000D02*
X9128400Y-3550000D01*
X2720000Y-5270000D02*
X2720000Y-5190000D01*
X5114200Y-4000000D02*
X5114446Y-4006296D01*
X2698273Y-4344138D02*
X2686296Y-4340246D01*
X2011539Y-3263461D02*
X2004138Y-3253273D01*
X1810000Y-5310000D02*
X1910000Y-5310000D01*
X6314200Y-840000D02*
X6313954Y-833704D01*
X1966296Y-3160246D02*
X1960000Y-3160000D01*
X9278400Y-952068D02*
X9278400Y-1190000D01*
X9278400Y-3312068D02*
X9278400Y-3550000D01*
X811539Y-811539D02*
X804138Y-821727D01*
X6280496Y-3160246D02*
X6274200Y-3160000D01*
X5147904Y-800246D02*
X5135927Y-804138D01*
X2000000Y-2820000D02*
X2000000Y-2785000D01*
X650000Y-2470000D02*
X800000Y-2470000D01*
X1450000Y-3160000D02*
X1450000Y-2860000D01*
X6274200Y-800000D02*
X5764200Y-800000D01*
X833703Y-4039754D02*
X840000Y-4040000D01*
X4376400Y-5510000D02*
X4376400Y-5460000D01*
X1960000Y-1980000D02*
X1450000Y-1980000D01*
X6274200Y-2860000D02*
X6280496Y-2859754D01*
X9088400Y-1565000D02*
X9094696Y-1564754D01*
X4964200Y-3887931D02*
X4963028Y-3917903D01*
X6274200Y-3160000D02*
X5764200Y-3160000D01*
X9124262Y-936727D02*
X9116861Y-926539D01*
X2719754Y-5276296D02*
X2720000Y-5270000D01*
X804138Y-4018273D02*
X811539Y-4028461D01*
X5262303Y-5298828D02*
X5232332Y-5300000D01*
X6445379Y-752780D02*
X6449350Y-765000D01*
X9128400Y-2470000D02*
X9278400Y-2470000D01*
X8135400Y-915000D02*
X6354200Y-915000D01*
X704151Y-704151D02*
X752780Y-668821D01*
X833703Y-4340246D02*
X821727Y-4344138D01*
X4780496Y-1564754D02*
X4792473Y-1560862D01*
X1810000Y-4340000D02*
X1810000Y-4040000D01*
X1962931Y-4190000D02*
X2682932Y-4190000D01*
X9106673Y-919138D02*
X9094696Y-915246D01*
X2021727Y-1569138D02*
X2033703Y-1565246D01*
X1978273Y-1675862D02*
X1988461Y-1668461D01*
X4376400Y-4350000D02*
X5232332Y-4350000D01*
X9121303Y-1713828D02*
X9091332Y-1715000D01*
X6302661Y-4028461D02*
X6310062Y-4018273D01*
X4813954Y-3891296D02*
X4814200Y-3885000D01*
X6354200Y-1565000D02*
X8135400Y-1565000D01*
X5269400Y-4775000D02*
X5269400Y-4540000D01*
X5066980Y-1811179D02*
X5018351Y-1775849D01*
X2680000Y-5310000D02*
X2686296Y-5309754D01*
X5764200Y-1680000D02*
X6274200Y-1680000D01*
X8135400Y-4075000D02*
X6449350Y-4075000D01*
X4964200Y-2822931D02*
X4964200Y-2707932D01*
X6445379Y-1932780D02*
X6449350Y-1945000D01*
X807097Y-651172D02*
X837068Y-650000D01*
X4963028Y-3917903D02*
X4945379Y-3972220D01*
X4792473Y-1560862D02*
X4802661Y-1553461D01*
X5151268Y-3010000D02*
X5121297Y-3008828D01*
X4910049Y-4020849D02*
X4861420Y-4056179D01*
X5664200Y-2860000D02*
X5664200Y-3160000D01*
X8135400Y-3125000D02*
X8135400Y-3275000D01*
X8235400Y-3275000D02*
X8235400Y-3125000D01*
X5066980Y-2991179D02*
X5018351Y-2955849D01*
X4774200Y-915000D02*
X3921200Y-915000D01*
X4963028Y-2737903D02*
X4945379Y-2792220D01*
X5151268Y-4190000D02*
X5121297Y-4188828D01*
X2021727Y-910862D02*
X2011539Y-903461D01*
X2720000Y-4460000D02*
X2720000Y-4380000D01*
X5764200Y-1980000D02*
X5764200Y-1680000D01*
X9278400Y-1290000D02*
X9278400Y-1527931D01*
X5114200Y-1640000D02*
X5114446Y-1646296D01*
X5269400Y-4540000D02*
X5269154Y-4533704D01*
X2851179Y-5357220D02*
X2815849Y-5405849D01*
X1988461Y-1991539D02*
X1978273Y-1984138D01*
X9094696Y-915246D02*
X9088400Y-915000D01*
X1988461Y-1668461D02*
X1995862Y-1658273D01*
X1992903Y-1831172D02*
X2047220Y-1848821D01*
X6325739Y-3263461D02*
X6318337Y-3253273D01*
X2682932Y-5460000D02*
X4276400Y-5460000D01*
X5118338Y-2001727D02*
X5114446Y-2013704D01*
X1999754Y-2013704D02*
X1995862Y-2001727D01*
X3821200Y-1565000D02*
X3821200Y-1715000D01*
X9277228Y-3917903D02*
X9259579Y-3972220D01*
X1910000Y-5610000D02*
X1810000Y-5610000D01*
X2712903Y-4191172D02*
X2767220Y-4208821D01*
X704151Y-4244151D02*
X752780Y-4208821D01*
X807097Y-3011172D02*
X837068Y-3010000D01*
X2000246Y-881296D02*
X2000000Y-875000D01*
X5114200Y-2020000D02*
X5114200Y-2370000D01*
X6335927Y-1569138D02*
X6347903Y-1565246D01*
X9094696Y-3275246D02*
X9088400Y-3275000D01*
X6361420Y-2991179D02*
X6307103Y-3008828D01*
X4376400Y-5150000D02*
X5229400Y-5150000D01*
X800246Y-4006296D02*
X804138Y-4018273D01*
X4945379Y-1612220D02*
X4910049Y-1660849D01*
X9128400Y-3315000D02*
X9128154Y-3308704D01*
X1450000Y-650000D02*
X1962931Y-650000D01*
X5125739Y-4028461D02*
X5135927Y-4035862D01*
X4780496Y-3275246D02*
X4774200Y-3275000D01*
X6354200Y-3275000D02*
X6347903Y-3274754D01*
X1450000Y-2860000D02*
X1960000Y-2860000D01*
X8135400Y-765000D02*
X8135400Y-915000D01*
X5118338Y-821727D02*
X5114446Y-833704D01*
X800000Y-2820000D02*
X800246Y-2826296D01*
X6354200Y-3925000D02*
X8135400Y-3925000D01*
X4964200Y-2707932D02*
X4963028Y-2737903D01*
X4945379Y-3972220D02*
X4910049Y-4020849D01*
X4807103Y-766172D02*
X4861420Y-783821D01*
X2004138Y-2766727D02*
X2011539Y-2756539D01*
X6313954Y-1646296D02*
X6314200Y-1640000D01*
X5764200Y-3160000D02*
X5764200Y-2860000D01*
X2021727Y-3270862D02*
X2011539Y-3263461D01*
X837068Y-5460000D02*
X807097Y-5458828D01*
X6318337Y-2766727D02*
X6325739Y-2756539D01*
X4810062Y-1543273D02*
X4813954Y-1531296D01*
X9278400Y-2707932D02*
X9277228Y-2737903D01*
X5235696Y-5149754D02*
X5247673Y-5145862D01*
X5135927Y-1984138D02*
X5125739Y-1991539D01*
X4376400Y-4500000D02*
X4376400Y-4350000D01*
X9224249Y-2840849D02*
X9175620Y-2876179D01*
X5265262Y-5128273D02*
X5269154Y-5116296D01*
X4965372Y-3167097D02*
X4983021Y-3112780D01*
X3821200Y-2895000D02*
X2135150Y-2895000D01*
X8235400Y-2895000D02*
X8235400Y-2745000D01*
X5418228Y-4507097D02*
X5419400Y-4537068D01*
X9094696Y-2095246D02*
X9088400Y-2095000D01*
X6280496Y-800246D02*
X6274200Y-800000D01*
X6302661Y-1991539D02*
X6292473Y-1984138D01*
X5114446Y-2826296D02*
X5118338Y-2838273D01*
X5247673Y-4504138D02*
X5235696Y-4500246D01*
X5419400Y-4537068D02*
X5419400Y-4775000D01*
X6274200Y-1980000D02*
X5764200Y-1980000D01*
X6354200Y-915000D02*
X6347903Y-914754D01*
X4780496Y-2095246D02*
X4774200Y-2095000D01*
X650000Y-5460000D02*
X837068Y-5460000D01*
X4945379Y-2047780D02*
X4963028Y-2102097D01*
X4276400Y-5150000D02*
X4276400Y-5300000D01*
X1960000Y-4040000D02*
X1966296Y-4039754D01*
X811539Y-5298461D02*
X821727Y-5305862D01*
X4910049Y-819151D02*
X4945379Y-867780D01*
X4965372Y-4032903D02*
X4964200Y-4002931D01*
X4780496Y-3924754D02*
X4792473Y-3920862D01*
X6314446Y-881296D02*
X6314200Y-875000D01*
X1810000Y-5610000D02*
X1810000Y-5310000D01*
X9278400Y-2470000D02*
X9278400Y-2707932D01*
X2741727Y-5154138D02*
X2753704Y-5150246D01*
X6335927Y-910862D02*
X6325739Y-903461D01*
X1966296Y-800246D02*
X1960000Y-800000D01*
X8235400Y-2095000D02*
X8235400Y-1945000D01*
X9088400Y-2095000D02*
X8235400Y-2095000D01*
X2004138Y-2073273D02*
X2000246Y-2061296D01*
X2698273Y-5305862D02*
X2708461Y-5298461D01*
X1999754Y-833704D02*
X1995862Y-821727D01*
X3921200Y-3125000D02*
X4777132Y-3125000D01*
X6325739Y-2083461D02*
X6318337Y-2073273D01*
X6314200Y-2055000D02*
X6314200Y-2020000D01*
X2868828Y-5302903D02*
X2851179Y-5357220D01*
X2011539Y-1576539D02*
X2021727Y-1569138D01*
X9175620Y-783821D02*
X9224249Y-819151D01*
X800000Y-4875000D02*
X800000Y-5270000D01*
X807097Y-5458828D02*
X752780Y-5441179D01*
X5018351Y-1884151D02*
X5066980Y-1848821D01*
X6335927Y-3270862D02*
X6325739Y-3263461D01*
X2135150Y-765000D02*
X3821200Y-765000D01*
X2040000Y-2745000D02*
X3821200Y-2745000D01*
X4813954Y-1531296D02*
X4814200Y-1525000D01*
X752780Y-4171179D02*
X704151Y-4135849D01*
X5764200Y-4190000D02*
X5764200Y-4040000D01*
X2868828Y-4347097D02*
X2868941Y-4350000D01*
X4910049Y-1660849D02*
X4861420Y-1696179D01*
X6318337Y-2073273D02*
X6314446Y-2061296D01*
X2868941Y-4350000D02*
X4276400Y-4350000D01*
X9128400Y-3650000D02*
X9278400Y-3650000D01*
X5154200Y-2860000D02*
X5664200Y-2860000D01*
X8235400Y-915000D02*
X8235400Y-765000D01*
X2000246Y-3958704D02*
X2004138Y-3946727D01*
X3821200Y-915000D02*
X2040000Y-915000D01*
X6325739Y-903461D02*
X6318337Y-893273D01*
X811539Y-1991539D02*
X804138Y-2001727D01*
X6280496Y-1980246D02*
X6274200Y-1980000D01*
X821727Y-804138D02*
X811539Y-811539D01*
X833703Y-2859754D02*
X840000Y-2860000D01*
X6307103Y-3008828D02*
X6277131Y-3010000D01*
X3921200Y-915000D02*
X3921200Y-765000D01*
X5118338Y-2838273D02*
X5125739Y-2848461D01*
X4814200Y-3550000D02*
X4814200Y-3315000D01*
X5154200Y-1680000D02*
X5664200Y-1680000D01*
X4774200Y-3925000D02*
X4780496Y-3924754D01*
X4965372Y-1672903D02*
X4964200Y-1642931D01*
X4802661Y-3913461D02*
X4810062Y-3903273D01*
X2095849Y-1884151D02*
X2131179Y-1932780D01*
X5066980Y-1848821D02*
X5121297Y-1831172D01*
X5154200Y-3160000D02*
X5147904Y-3160246D01*
X5125739Y-2848461D02*
X5135927Y-2855862D01*
X5154200Y-4040000D02*
X5664200Y-4040000D01*
X6361420Y-4171179D02*
X6307103Y-4188828D01*
X2033703Y-3925246D02*
X2040000Y-3925000D01*
X5235696Y-4500246D02*
X5229400Y-4500000D01*
X821727Y-3164138D02*
X811539Y-3171539D01*
X9091332Y-2895000D02*
X8235400Y-2895000D01*
X5125739Y-1668461D02*
X5135927Y-1675862D01*
X6449350Y-3125000D02*
X8135400Y-3125000D01*
X807097Y-4191172D02*
X837068Y-4190000D01*
X2715862Y-5288273D02*
X2719754Y-5276296D01*
X821727Y-4344138D02*
X811539Y-4351539D01*
X6314446Y-1598704D02*
X6318337Y-1586727D01*
X2000246Y-3241296D02*
X2000000Y-3235000D01*
X704151Y-5405849D02*
X668821Y-5357220D01*
X6750000Y-5460000D02*
X6750000Y-7260000D01*
X6449350Y-4075000D02*
X6445379Y-4087220D01*
X9124262Y-2723273D02*
X9128154Y-2711296D01*
X4963028Y-922097D02*
X4964200Y-952068D01*
X2731539Y-4488461D02*
X2724138Y-4478273D01*
X6292473Y-1675862D02*
X6302661Y-1668461D01*
X5269154Y-5116296D02*
X5269400Y-5110000D01*
X4792473Y-2099138D02*
X4780496Y-2095246D01*
X800246Y-3193704D02*
X800000Y-3200000D01*
X800000Y-4000000D02*
X800246Y-4006296D01*
X9088400Y-3925000D02*
X9094696Y-3924754D01*
X2047220Y-1811179D02*
X1992903Y-1828828D01*
X4777132Y-4075000D02*
X3921200Y-4075000D01*
X9088400Y-2745000D02*
X9094696Y-2744754D01*
X3821200Y-1945000D02*
X3821200Y-2095000D01*
X8235400Y-1565000D02*
X9088400Y-1565000D01*
X4802661Y-926539D02*
X4792473Y-919138D01*
X5390000Y-5610000D02*
X2010000Y-5610000D01*
X4777132Y-2895000D02*
X3921200Y-2895000D01*
X1978273Y-1984138D02*
X1966296Y-1980246D01*
X9116861Y-926539D02*
X9106673Y-919138D01*
X2010000Y-5610000D02*
X2010000Y-5310000D01*
X6410049Y-1884151D02*
X6445379Y-1932780D01*
X2686296Y-4340246D02*
X2680000Y-4340000D01*
X6310062Y-2001727D02*
X6302661Y-1991539D01*
X650000Y-837068D02*
X651172Y-807097D01*
X9121303Y-1946172D02*
X9175620Y-1963821D01*
X9121303Y-3126172D02*
X9175620Y-3143821D01*
X704151Y-4135849D02*
X668821Y-4087220D01*
X840000Y-4040000D02*
X1350000Y-4040000D01*
X4964200Y-2132068D02*
X4964200Y-2017068D01*
X800000Y-1190000D02*
X650000Y-1190000D01*
X6314446Y-3958704D02*
X6318337Y-3946727D01*
X668821Y-2907220D02*
X651172Y-2852903D01*
X4945379Y-3227780D02*
X4963028Y-3282097D01*
X800000Y-5610000D02*
X800000Y-7260000D01*
X6302661Y-1668461D02*
X6310062Y-1658273D01*
X5390000Y-5460000D02*
X5390000Y-5610000D01*
X2033703Y-3274754D02*
X2021727Y-3270862D01*
X2720246Y-5183704D02*
X2724138Y-5171727D01*
X650000Y-2017068D02*
X651172Y-1987097D01*
X9106673Y-2740862D02*
X9116861Y-2733461D01*
X2686296Y-5309754D02*
X2698273Y-5305862D01*
X4777132Y-1945000D02*
X4807103Y-1946172D01*
X2767220Y-5441179D02*
X2712903Y-5458828D01*
X4963028Y-1557903D02*
X4945379Y-1612220D01*
X1710000Y-5310000D02*
X1710000Y-5610000D01*
X5147904Y-3160246D02*
X5135927Y-3164138D01*
X1995862Y-2838273D02*
X1999754Y-2826296D01*
X650000Y-1190000D02*
X650000Y-837068D01*
X5316620Y-5281179D02*
X5262303Y-5298828D01*
X5135927Y-804138D02*
X5125739Y-811539D01*
X2010000Y-5310000D02*
X2680000Y-5310000D01*
X5229400Y-5150000D02*
X5235696Y-5149754D01*
X6314200Y-3200000D02*
X6313954Y-3193704D01*
X650000Y-1642931D02*
X650000Y-1290000D01*
X5018351Y-4135849D02*
X4983021Y-4087220D01*
X6313954Y-3193704D02*
X6310062Y-3181727D01*
X804138Y-2838273D02*
X811539Y-2848461D01*
X5400579Y-5197220D02*
X5365249Y-5245849D01*
X9116861Y-2106539D02*
X9106673Y-2099138D01*
X650000Y-2822931D02*
X650000Y-2470000D01*
X2720000Y-4380000D02*
X2719754Y-4373704D01*
X840000Y-800000D02*
X833703Y-800246D01*
X6318337Y-1586727D02*
X6325739Y-1576539D01*
X1999754Y-2826296D02*
X2000000Y-2820000D01*
X2021727Y-2090862D02*
X2011539Y-2083461D01*
X1992903Y-3011172D02*
X2047220Y-3028821D01*
X4777132Y-3125000D02*
X4807103Y-3126172D01*
X4780496Y-2744754D02*
X4792473Y-2740862D01*
X4965372Y-1987097D02*
X4983021Y-1932780D01*
X6361420Y-1811179D02*
X6307103Y-1828828D01*
X9278400Y-2132068D02*
X9278400Y-2370000D01*
X6314200Y-2020000D02*
X6313954Y-2013704D01*
X4813954Y-948704D02*
X4810062Y-936727D01*
X2135150Y-4075000D02*
X2131179Y-4087220D01*
X6280496Y-1679754D02*
X6292473Y-1675862D01*
X4807103Y-1946172D02*
X4861420Y-1963821D01*
X2011539Y-2756539D02*
X2021727Y-2749138D01*
X1960000Y-800000D02*
X1450000Y-800000D01*
X4814200Y-2705000D02*
X4814200Y-2470000D01*
X5764200Y-650000D02*
X6277131Y-650000D01*
X1995862Y-2001727D02*
X1988461Y-1991539D01*
X5121297Y-1831172D02*
X5151268Y-1830000D01*
X1999754Y-3193704D02*
X1995862Y-3181727D01*
X5121297Y-3008828D02*
X5066980Y-2991179D01*
X2868941Y-5300000D02*
X2868828Y-5302903D01*
X9224249Y-1660849D02*
X9175620Y-1696179D01*
X6292473Y-804138D02*
X6280496Y-800246D01*
X2000000Y-840000D02*
X1999754Y-833704D01*
X4964200Y-3312068D02*
X4964200Y-3197068D01*
X2000000Y-2785000D02*
X2000246Y-2778704D01*
X5764200Y-800000D02*
X5764200Y-650000D01*
X4983021Y-1932780D02*
X5018351Y-1884151D01*
X821727Y-1984138D02*
X811539Y-1991539D01*
X6307103Y-3011172D02*
X6361420Y-3028821D01*
X3821200Y-1715000D02*
X2135150Y-1715000D01*
X2135150Y-3125000D02*
X3821200Y-3125000D01*
X800000Y-4380000D02*
X800000Y-4775000D01*
X9088400Y-3275000D02*
X8235400Y-3275000D01*
X1350000Y-650000D02*
X1350000Y-800000D01*
X4276400Y-5300000D02*
X2868941Y-5300000D01*
X2047220Y-668821D02*
X2095849Y-704151D01*
X668821Y-4087220D02*
X651172Y-4032903D01*
X6302661Y-2848461D02*
X6310062Y-2838273D01*
X9091332Y-1715000D02*
X8235400Y-1715000D01*
X6335927Y-2090862D02*
X6325739Y-2083461D01*
X800246Y-833704D02*
X800000Y-840000D01*
X4861420Y-783821D02*
X4910049Y-819151D01*
X9094696Y-3924754D02*
X9106673Y-3920862D01*
X6600000Y-7360000D02*
X6750000Y-7360000D01*
X704151Y-1775849D02*
X668821Y-1727220D01*
X668821Y-4292780D02*
X704151Y-4244151D01*
X8135400Y-3925000D02*
X8135400Y-4075000D01*
X6310062Y-2838273D02*
X6313954Y-2826296D01*
X752780Y-3028821D02*
X807097Y-3011172D01*
X2815849Y-4244151D02*
X2851179Y-4292780D01*
X8135400Y-2745000D02*
X8135400Y-2895000D01*
X4802661Y-2733461D02*
X4810062Y-2723273D01*
X1960000Y-1680000D02*
X1966296Y-1679754D01*
X6449350Y-2895000D02*
X6445379Y-2907220D01*
X6410049Y-2955849D02*
X6361420Y-2991179D01*
X0Y-9810000D02*
X9928400Y-9810000D01*
X840000Y-1680000D02*
X1350000Y-1680000D01*
X5121297Y-1828828D02*
X5066980Y-1811179D01*
X9928400Y0D02*
X0Y0D01*
X4814200Y-955000D02*
X4813954Y-948704D01*
X2000000Y-1605000D02*
X2000246Y-1598704D01*
X9278400Y-3650000D02*
X9278400Y-3887931D01*
X5664200Y-3160000D02*
X5154200Y-3160000D01*
X5232332Y-4350000D02*
X5262303Y-4351172D01*
X6750000Y-7360000D02*
X6750000Y-9160000D01*
X9128154Y-3891296D02*
X9128400Y-3885000D01*
X5135927Y-2855862D02*
X5147904Y-2859754D01*
X6347903Y-2745246D02*
X6354200Y-2745000D01*
X800000Y-3200000D02*
X800000Y-3550000D01*
X5135927Y-4035862D02*
X5147904Y-4039754D01*
X5135927Y-3164138D02*
X5125739Y-3171539D01*
X6280496Y-4039754D02*
X6292473Y-4035862D01*
X668821Y-1932780D02*
X704151Y-1884151D01*
X9224249Y-819151D02*
X9259579Y-867780D01*
X833703Y-5309754D02*
X840000Y-5310000D01*
X837068Y-1830000D02*
X807097Y-1828828D01*
X2720000Y-5190000D02*
X2720246Y-5183704D01*
X9259579Y-1612220D02*
X9224249Y-1660849D01*
X9259579Y-867780D02*
X9277228Y-922097D01*
X1450000Y-4040000D02*
X1710000Y-4040000D01*
X6314446Y-3241296D02*
X6314200Y-3235000D01*
X5390000Y-9160000D02*
X2010000Y-9160000D01*
X2131179Y-1727220D02*
X2095849Y-1775849D01*
X9094696Y-1564754D02*
X9106673Y-1560862D01*
X5066980Y-668821D02*
X5121297Y-651172D01*
X9259579Y-2792220D02*
X9224249Y-2840849D01*
X2000246Y-2061296D02*
X2000000Y-2055000D01*
X5125739Y-3171539D02*
X5118338Y-3181727D01*
X4813954Y-2711296D02*
X4814200Y-2705000D01*
X6313954Y-2826296D02*
X6314200Y-2820000D01*
X5114200Y-2470000D02*
X5114200Y-2820000D01*
X1966296Y-1980246D02*
X1960000Y-1980000D01*
X2712903Y-5458828D02*
X2682932Y-5460000D01*
X6314200Y-1605000D02*
X6314446Y-1598704D01*
X2720246Y-4466296D02*
X2720000Y-4460000D01*
X821727Y-2855862D02*
X833703Y-2859754D01*
X5764200Y-4040000D02*
X6274200Y-4040000D01*
X3921200Y-3925000D02*
X4774200Y-3925000D01*
X3921200Y-1715000D02*
X3921200Y-1565000D01*
X4814200Y-2135000D02*
X4813954Y-2128704D01*
X2095849Y-2955849D02*
X2047220Y-2991179D01*
X807097Y-1828828D02*
X752780Y-1811179D01*
X2767220Y-4208821D02*
X2815849Y-4244151D01*
X811539Y-2848461D02*
X821727Y-2855862D01*
X651172Y-3167097D02*
X668821Y-3112780D01*
X4965372Y-807097D02*
X4983021Y-752780D01*
X3921200Y-2895000D02*
X3921200Y-2745000D01*
X5419400Y-5112932D02*
X5418228Y-5142903D01*
X6314200Y-3965000D02*
X6314446Y-3958704D01*
X6347903Y-3925246D02*
X6354200Y-3925000D01*
X6449350Y-765000D02*
X8135400Y-765000D01*
X9224249Y-1999151D02*
X9259579Y-2047780D01*
X4810062Y-3296727D02*
X4802661Y-3286539D01*
X5232332Y-5300000D02*
X4376400Y-5300000D01*
X840000Y-3160000D02*
X833703Y-3160246D01*
X5114446Y-1646296D02*
X5118338Y-1658273D01*
X752780Y-1811179D02*
X704151Y-1775849D01*
X2021727Y-3929138D02*
X2033703Y-3925246D01*
X6318337Y-893273D02*
X6314446Y-881296D01*
X2033703Y-2094754D02*
X2021727Y-2090862D01*
X5257861Y-5138461D02*
X5265262Y-5128273D01*
X1450000Y-4340000D02*
X1450000Y-4040000D01*
X5147904Y-1679754D02*
X5154200Y-1680000D01*
X4807103Y-1713828D02*
X4777132Y-1715000D01*
X4983021Y-1727220D02*
X4965372Y-1672903D01*
X9091332Y-4075000D02*
X8235400Y-4075000D01*
X668821Y-1727220D02*
X651172Y-1672903D01*
X6445379Y-3112780D02*
X6449350Y-3125000D01*
X6313954Y-4006296D02*
X6314200Y-4000000D01*
X6325739Y-3936539D02*
X6335927Y-3929138D01*
X2000000Y-1640000D02*
X2000000Y-1605000D01*
X800246Y-2826296D02*
X804138Y-2838273D01*
X668821Y-752780D02*
X704151Y-704151D01*
X1962931Y-650000D02*
X1992903Y-651172D01*
X2000000Y-2055000D02*
X2000000Y-2020000D01*
X3821200Y-2095000D02*
X2040000Y-2095000D01*
X4813954Y-3308704D02*
X4810062Y-3296727D01*
X1978273Y-804138D02*
X1966296Y-800246D01*
X9128400Y-2370000D02*
X9128400Y-2135000D01*
X5125739Y-1991539D02*
X5118338Y-2001727D01*
X6347903Y-914754D02*
X6335927Y-910862D01*
X2047220Y-4171179D02*
X1992903Y-4188828D01*
X5269400Y-4875000D02*
X5419400Y-4875000D01*
X4810062Y-936727D02*
X4802661Y-926539D01*
X2131179Y-2907220D02*
X2095849Y-2955849D01*
X4807103Y-3126172D02*
X4861420Y-3143821D01*
X6445379Y-2907220D02*
X6410049Y-2955849D01*
X5114446Y-833704D02*
X5114200Y-840000D01*
X1350000Y-4040000D02*
X1350000Y-4340000D01*
X2011539Y-3936539D02*
X2021727Y-3929138D01*
X9088400Y-915000D02*
X8235400Y-915000D01*
X3921200Y-2745000D02*
X4774200Y-2745000D01*
X4861420Y-3143821D02*
X4910049Y-3179151D01*
X752780Y-5441179D02*
X704151Y-5405849D01*
X6307103Y-4188828D02*
X6277131Y-4190000D01*
X6307103Y-1831172D02*
X6361420Y-1848821D01*
X9128400Y-3885000D02*
X9128400Y-3650000D01*
X9277228Y-3282097D02*
X9278400Y-3312068D01*
X4376400Y-5460000D02*
X5390000Y-5460000D01*
X9128400Y-2135000D02*
X9128154Y-2128704D01*
X1995862Y-4018273D02*
X1999754Y-4006296D01*
X1992903Y-3008828D02*
X1962931Y-3010000D01*
X2011539Y-903461D02*
X2004138Y-893273D01*
X2760000Y-5150000D02*
X4276400Y-5150000D01*
X6347903Y-2094754D02*
X6335927Y-2090862D01*
X5400579Y-4452780D02*
X5418228Y-4507097D01*
X9106673Y-1560862D02*
X9116861Y-1553461D01*
X2708461Y-4351539D02*
X2698273Y-4344138D01*
X6314200Y-2785000D02*
X6314446Y-2778704D01*
X8235400Y-3125000D02*
X9091332Y-3125000D01*
X5147904Y-2859754D02*
X5154200Y-2860000D01*
X6314200Y-3235000D02*
X6314200Y-3200000D01*
X650000Y-9160000D02*
X650000Y-7360000D01*
X6310062Y-3181727D02*
X6302661Y-3171539D01*
X5490000Y-5460000D02*
X6750000Y-5460000D01*
X5121297Y-4188828D02*
X5066980Y-4171179D01*
X4792473Y-3920862D02*
X4802661Y-3913461D01*
X650000Y-1290000D02*
X800000Y-1290000D01*
X9175620Y-1696179D02*
X9121303Y-1713828D01*
X4814200Y-2470000D02*
X5114200Y-2470000D01*
X804138Y-2001727D02*
X800246Y-2013704D01*
X840000Y-4340000D02*
X833703Y-4340246D01*
X1978273Y-4035862D02*
X1988461Y-4028461D01*
X2753704Y-4499754D02*
X2741727Y-4495862D01*
X5114200Y-3200000D02*
X5114200Y-3550000D01*
X651172Y-1987097D02*
X668821Y-1932780D01*
X1810000Y-4040000D02*
X1960000Y-4040000D01*
X5121297Y-3011172D02*
X5151268Y-3010000D01*
X6361420Y-3028821D02*
X6410049Y-3064151D01*
X4963028Y-2102097D02*
X4964200Y-2132068D01*
X2815849Y-5405849D02*
X2767220Y-5441179D01*
X6292473Y-1984138D02*
X6280496Y-1980246D01*
X5118338Y-1658273D02*
X5125739Y-1668461D01*
X811539Y-4351539D02*
X804138Y-4361727D01*
X5664200Y-4040000D02*
X5664200Y-4190000D01*
X6314200Y-1640000D02*
X6314200Y-1605000D01*
X6361420Y-668821D02*
X6410049Y-704151D01*
X4807103Y-4073828D02*
X4777132Y-4075000D01*
X8235400Y-2745000D02*
X9088400Y-2745000D01*
X2000000Y-3235000D02*
X2000000Y-3200000D01*
X5018351Y-704151D02*
X5066980Y-668821D01*
X650000Y-3650000D02*
X800000Y-3650000D01*
X804138Y-4361727D02*
X800246Y-4373704D01*
X9124262Y-1543273D02*
X9128154Y-1531296D01*
X9128400Y-955000D02*
X9128154Y-948704D01*
X800246Y-5276296D02*
X804138Y-5288273D01*
X1910000Y-9160000D02*
X650000Y-9160000D01*
X6750000Y-7260000D02*
X6600000Y-7260000D01*
X804138Y-1658273D02*
X811539Y-1668461D01*
X4910049Y-2840849D02*
X4861420Y-2876179D01*
X1350000Y-1680000D02*
X1350000Y-1980000D01*
X6361420Y-1848821D02*
X6410049Y-1884151D01*
X6449350Y-1945000D02*
X8135400Y-1945000D01*
X3821200Y-4075000D02*
X2135150Y-4075000D01*
X6274200Y-4040000D02*
X6280496Y-4039754D01*
X9091332Y-3125000D02*
X9121303Y-3126172D01*
X800000Y-3650000D02*
X800000Y-4000000D01*
X6280496Y-2859754D02*
X6292473Y-2855862D01*
X804138Y-3181727D02*
X800246Y-3193704D01*
X752780Y-668821D02*
X807097Y-651172D01*
X5121297Y-651172D02*
X5151268Y-650000D01*
X1992903Y-651172D02*
X2047220Y-668821D01*
X811539Y-4028461D02*
X821727Y-4035862D01*
X5114200Y-2370000D02*
X4814200Y-2370000D01*
X9224249Y-4020849D02*
X9175620Y-4056179D01*
X9128154Y-948704D02*
X9124262Y-936727D01*
X4814200Y-1290000D02*
X5114200Y-1290000D01*
X9124262Y-2116727D02*
X9116861Y-2106539D01*
X5125739Y-811539D02*
X5118338Y-821727D01*
X9121303Y-2893828D02*
X9091332Y-2895000D01*
X1960000Y-3160000D02*
X1450000Y-3160000D01*
X2760000Y-4500000D02*
X2753704Y-4499754D01*
X800000Y-2020000D02*
X800000Y-2370000D01*
X4780496Y-915246D02*
X4774200Y-915000D01*
X650000Y-4875000D02*
X800000Y-4875000D01*
X650000Y-4377068D02*
X651172Y-4347097D01*
X1978273Y-2855862D02*
X1988461Y-2848461D01*
X833703Y-1679754D02*
X840000Y-1680000D01*
X9124262Y-3903273D02*
X9128154Y-3891296D01*
X3821200Y-3125000D02*
X3821200Y-3275000D01*
X9128154Y-3308704D02*
X9124262Y-3296727D01*
X1966296Y-4039754D02*
X1978273Y-4035862D01*
X6313954Y-2013704D02*
X6310062Y-2001727D01*
X9121303Y-766172D02*
X9175620Y-783821D01*
X6410049Y-3064151D02*
X6445379Y-3112780D01*
X4814200Y-3315000D02*
X4813954Y-3308704D01*
X5018351Y-2955849D02*
X4983021Y-2907220D01*
X752780Y-1848821D02*
X807097Y-1831172D01*
X800000Y-840000D02*
X800000Y-1190000D01*
X5114446Y-4006296D02*
X5118338Y-4018273D01*
X1995862Y-1658273D02*
X1999754Y-1646296D01*
X8135400Y-2895000D02*
X6449350Y-2895000D01*
X1450000Y-1680000D02*
X1960000Y-1680000D01*
X5247673Y-5145862D02*
X5257861Y-5138461D01*
X6307103Y-651172D02*
X6361420Y-668821D01*
X668821Y-3112780D02*
X704151Y-3064151D01*
X1960000Y-2860000D02*
X1966296Y-2859754D01*
X1995862Y-3181727D02*
X1988461Y-3171539D01*
X833703Y-800246D02*
X821727Y-804138D01*
X840000Y-2860000D02*
X1350000Y-2860000D01*
X9277228Y-922097D02*
X9278400Y-952068D01*
X6325739Y-1576539D02*
X6335927Y-1569138D01*
X9128400Y-1525000D02*
X9128400Y-1290000D01*
X651172Y-5302903D02*
X650000Y-5272932D01*
X650000Y-2370000D02*
X650000Y-2017068D01*
X9128400Y-1290000D02*
X9278400Y-1290000D01*
X5066980Y-3028821D02*
X5121297Y-3011172D01*
X9928400Y-9810000D02*
X9928400Y0D01*
X5114446Y-3193704D02*
X5114200Y-3200000D01*
X800000Y-9010000D02*
X1910000Y-9010000D01*
X5114446Y-2013704D02*
X5114200Y-2020000D01*
X9116861Y-3913461D02*
X9124262Y-3903273D01*
X9116861Y-3286539D02*
X9106673Y-3279138D01*
X3921200Y-1565000D02*
X4774200Y-1565000D01*
X4964200Y-1642931D02*
X4964200Y-1527931D01*
X4810062Y-3903273D02*
X4813954Y-3891296D01*
X2095849Y-4135849D02*
X2047220Y-4171179D01*
X9121303Y-4073828D02*
X9091332Y-4075000D01*
X9128400Y-2705000D02*
X9128400Y-2470000D01*
X2004138Y-3253273D02*
X2000246Y-3241296D01*
X650000Y-4002931D02*
X650000Y-3650000D01*
X6410049Y-1775849D02*
X6361420Y-1811179D01*
X821727Y-1675862D02*
X833703Y-1679754D01*
X1910000Y-5310000D02*
X1910000Y-5610000D01*
X6318337Y-3946727D02*
X6325739Y-3936539D01*
X3921200Y-2095000D02*
X3921200Y-1945000D01*
X4802661Y-1553461D02*
X4810062Y-1543273D01*
X6318337Y-3253273D02*
X6314446Y-3241296D01*
X3921200Y-1945000D02*
X4777132Y-1945000D01*
X6277131Y-3010000D02*
X6307103Y-3011172D01*
X5154200Y-1980000D02*
X5147904Y-1980246D01*
X840000Y-5310000D02*
X1710000Y-5310000D01*
X5490000Y-5610000D02*
X5490000Y-5460000D01*
X9116861Y-2733461D02*
X9124262Y-2723273D01*
X804138Y-821727D02*
X800246Y-833704D01*
X4777132Y-765000D02*
X4807103Y-766172D01*
X5257861Y-4511539D02*
X5247673Y-4504138D01*
X650000Y-7260000D02*
X650000Y-5460000D01*
X2731539Y-5161539D02*
X2741727Y-5154138D01*
X1988461Y-4028461D02*
X1995862Y-4018273D01*
X650000Y-7360000D02*
X800000Y-7360000D01*
X1710000Y-4340000D02*
X1450000Y-4340000D01*
X837068Y-4190000D02*
X807097Y-4188828D01*
X2000000Y-875000D02*
X2000000Y-840000D01*
X4792473Y-2740862D02*
X4802661Y-2733461D01*
X2010000Y-9160000D02*
X2010000Y-9010000D01*
X2095849Y-1775849D02*
X2047220Y-1811179D01*
X5418228Y-5142903D02*
X5400579Y-5197220D01*
X5664200Y-4190000D02*
X5151268Y-4190000D01*
X6600000Y-5610000D02*
X5490000Y-5610000D01*
X704151Y-2955849D02*
X668821Y-2907220D01*
X9259579Y-3227780D02*
X9277228Y-3282097D01*
X807097Y-1831172D02*
X837068Y-1830000D01*
X800000Y-7260000D02*
X650000Y-7260000D01*
X5118338Y-4018273D02*
X5125739Y-4028461D01*
X2010000Y-9010000D02*
X5390000Y-9010000D01*
X811539Y-1668461D02*
X821727Y-1675862D01*
X9278400Y-3887931D02*
X9277228Y-3917903D01*
X8135400Y-1715000D02*
X6449350Y-1715000D01*
X3821200Y-765000D02*
X3821200Y-915000D01*
X9259579Y-3972220D02*
X9224249Y-4020849D01*
X1966296Y-1679754D02*
X1978273Y-1675862D01*
X1350000Y-4340000D02*
X840000Y-4340000D01*
X9277228Y-1557903D02*
X9259579Y-1612220D01*
X1710000Y-5610000D02*
X800000Y-5610000D01*
X4910049Y-3179151D02*
X4945379Y-3227780D01*
X4861420Y-2876179D02*
X4807103Y-2893828D01*
X2000000Y-2020000D02*
X1999754Y-2013704D01*
X4792473Y-3279138D02*
X4780496Y-3275246D01*
X5114200Y-840000D02*
X5114200Y-1190000D01*
X4983021Y-3112780D02*
X5018351Y-3064151D01*
X1999754Y-4006296D02*
X2000000Y-4000000D01*
X2131179Y-4087220D02*
X2095849Y-4135849D01*
X5265262Y-4521727D02*
X5257861Y-4511539D01*
X807097Y-3008828D02*
X752780Y-2991179D01*
X704151Y-3064151D02*
X752780Y-3028821D01*
X5664200Y-1680000D02*
X5664200Y-1980000D01*
X4276400Y-4500000D02*
X2760000Y-4500000D01*
X4276400Y-5510000D02*
X4376400Y-5510000D01*
X5764200Y-2860000D02*
X6274200Y-2860000D01*
X833703Y-3160246D02*
X821727Y-3164138D01*
X9106673Y-3279138D02*
X9094696Y-3275246D01*
X4802661Y-3286539D02*
X4792473Y-3279138D01*
X8135400Y-3275000D02*
X6354200Y-3275000D01*
X5151268Y-650000D02*
X5664200Y-650000D01*
X4861420Y-4056179D02*
X4807103Y-4073828D01*
X4813954Y-2128704D02*
X4810062Y-2116727D01*
X9175620Y-4056179D02*
X9121303Y-4073828D01*
X6354200Y-2095000D02*
X6347903Y-2094754D01*
X2004138Y-3946727D02*
X2011539Y-3936539D01*
X5664200Y-800000D02*
X5154200Y-800000D01*
X6292473Y-2855862D02*
X6302661Y-2848461D01*
X2033703Y-2745246D02*
X2040000Y-2745000D01*
X4774200Y-3275000D02*
X3921200Y-3275000D01*
X9128154Y-1531296D02*
X9128400Y-1525000D01*
X4774200Y-2745000D02*
X4780496Y-2744754D01*
X9091332Y-1945000D02*
X9121303Y-1946172D01*
X651172Y-2852903D02*
X650000Y-2822931D01*
X3821200Y-3925000D02*
X3821200Y-4075000D01*
X1350000Y-2860000D02*
X1350000Y-3160000D01*
X1978273Y-3164138D02*
X1966296Y-3160246D01*
X1350000Y-3160000D02*
X840000Y-3160000D01*
X651172Y-1672903D02*
X650000Y-1642931D01*
X800000Y-2470000D02*
X800000Y-2820000D01*
X6314446Y-2778704D02*
X6318337Y-2766727D01*
X5269400Y-5110000D02*
X5269400Y-4875000D01*
X1988461Y-811539D02*
X1978273Y-804138D01*
X650000Y-3197068D02*
X651172Y-3167097D01*
X4276400Y-4350000D02*
X4276400Y-4500000D01*
X8235400Y-4075000D02*
X8235400Y-3925000D01*
X4276400Y-5460000D02*
X4276400Y-5510000D01*
X6310062Y-821727D02*
X6302661Y-811539D01*
X6449350Y-1715000D02*
X6445379Y-1727220D01*
X9091332Y-765000D02*
X9121303Y-766172D01*
X8135400Y-2095000D02*
X6354200Y-2095000D01*
X4910049Y-1999151D02*
X4945379Y-2047780D01*
X2753704Y-5150246D02*
X2760000Y-5150000D01*
X800246Y-1646296D02*
X804138Y-1658273D01*
X5365249Y-5245849D02*
X5316620Y-5281179D01*
X704151Y-1884151D02*
X752780Y-1848821D01*
X2724138Y-5171727D02*
X2731539Y-5161539D01*
X9278400Y-1190000D02*
X9128400Y-1190000D01*
X2000000Y-3200000D02*
X1999754Y-3193704D01*
X6307103Y-1828828D02*
X6277131Y-1830000D01*
X4983021Y-4087220D02*
X4965372Y-4032903D01*
X5151268Y-1830000D02*
X5121297Y-1828828D01*
X5154200Y-800000D02*
X5147904Y-800246D01*
X4861420Y-1963821D02*
X4910049Y-1999151D01*
X5018351Y-3064151D02*
X5066980Y-3028821D01*
X5018351Y-1775849D02*
X4983021Y-1727220D01*
X5114200Y-1190000D02*
X4814200Y-1190000D01*
X4376400Y-5300000D02*
X4376400Y-5150000D01*
X2021727Y-2749138D02*
X2033703Y-2745246D01*
X6354200Y-2745000D02*
X8135400Y-2745000D01*
X800000Y-2370000D02*
X650000Y-2370000D01*
X5490000Y-9160000D02*
X5490000Y-9010000D01*
X650000Y-4775000D02*
X650000Y-4377068D01*
X5118338Y-3181727D02*
X5114446Y-3193704D01*
X6313954Y-833704D02*
X6310062Y-821727D01*
X800000Y-7360000D02*
X800000Y-9010000D01*
X9124262Y-3296727D02*
X9116861Y-3286539D01*
X6292473Y-4035862D02*
X6302661Y-4028461D01*
X4814200Y-3650000D02*
X5114200Y-3650000D01*
X4964200Y-1527931D02*
X4963028Y-1557903D01*
X1962931Y-3010000D02*
X1992903Y-3011172D01*
X4792473Y-919138D02*
X4780496Y-915246D01*
X6445379Y-1727220D02*
X6410049Y-1775849D01*
X9175620Y-3143821D02*
X9224249Y-3179151D01*
X6274200Y-1680000D02*
X6280496Y-1679754D01*
X1450000Y-800000D02*
X1450000Y-650000D01*
X4802661Y-2106539D02*
X4792473Y-2099138D01*
X9106673Y-3920862D02*
X9116861Y-3913461D01*
X5114200Y-1290000D02*
X5114200Y-1640000D01*
X2040000Y-3275000D02*
X2033703Y-3274754D01*
X9094696Y-2744754D02*
X9106673Y-2740862D01*
X2000000Y-4000000D02*
X2000000Y-3965000D01*
X1992903Y-4188828D02*
X1962931Y-4190000D01*
X9175620Y-1963821D02*
X9224249Y-1999151D01*
X2047220Y-1848821D02*
X2095849Y-1884151D01*
X4777132Y-1715000D02*
X3921200Y-1715000D01*
X3921200Y-765000D02*
X4777132Y-765000D01*
X752780Y-2991179D02*
X704151Y-2955849D01*
X2135150Y-1945000D02*
X3821200Y-1945000D01*
X4964200Y-4002931D02*
X4964200Y-3887931D01*
X9277228Y-2737903D02*
X9259579Y-2792220D01*
X8135400Y-1945000D02*
X8135400Y-2095000D01*
X651172Y-4347097D02*
X668821Y-4292780D01*
X800000Y-1290000D02*
X800000Y-1640000D01*
X2741727Y-4495862D02*
X2731539Y-4488461D01*
X5419400Y-4875000D02*
X5419400Y-5112932D01*
X2000246Y-2778704D02*
X2004138Y-2766727D01*
X6314200Y-875000D02*
X6314200Y-840000D01*
X6410049Y-4135849D02*
X6361420Y-4171179D01*
X1450000Y-1980000D02*
X1450000Y-1680000D01*
X2040000Y-2095000D02*
X2033703Y-2094754D01*
X4774200Y-1565000D02*
X4780496Y-1564754D01*
X2004138Y-893273D02*
X2000246Y-881296D01*
X2708461Y-5298461D02*
X2715862Y-5288273D01*
X2135150Y-2895000D02*
X2131179Y-2907220D01*
X1988461Y-2848461D02*
X1995862Y-2838273D01*
X6277131Y-650000D02*
X6307103Y-651172D01*
X804138Y-5288273D02*
X811539Y-5298461D01*
X651172Y-4032903D02*
X650000Y-4002931D01*
X4983021Y-752780D02*
X5018351Y-704151D01*
X9278400Y-1527931D02*
X9277228Y-1557903D01*
X9259579Y-2047780D02*
X9277228Y-2102097D01*
X4814200Y-2370000D02*
X4814200Y-2135000D01*
X6277131Y-4190000D02*
X5764200Y-4190000D01*
X5262303Y-4351172D02*
X5316620Y-4368821D01*
X4945379Y-867780D02*
X4963028Y-922097D01*
X668821Y-5357220D02*
X651172Y-5302903D01*
X6335927Y-2749138D02*
X6347903Y-2745246D01*
X800000Y-1640000D02*
X800246Y-1646296D01*
X6347903Y-3274754D02*
X6335927Y-3270862D01*
X9128400Y-3550000D02*
X9128400Y-3315000D01*
X4963028Y-3282097D02*
X4964200Y-3312068D01*
X5229400Y-4500000D02*
X4376400Y-4500000D01*
X4964200Y-3197068D02*
X4965372Y-3167097D01*
X5147904Y-4039754D02*
X5154200Y-4040000D01*
X1350000Y-1980000D02*
X840000Y-1980000D01*
X4964200Y-2017068D02*
X4965372Y-1987097D01*
X4964200Y-837068D02*
X4965372Y-807097D01*
X9277228Y-2102097D02*
X9278400Y-2132068D01*
X2095849Y-3064151D02*
X2131179Y-3112780D01*
X2040000Y-915000D02*
X2033703Y-914754D01*
X1995862Y-821727D02*
X1988461Y-811539D01*
X821727Y-4035862D02*
X833703Y-4039754D01*
X2131179Y-1932780D02*
X2135150Y-1945000D01*
X4964200Y-952068D02*
X4964200Y-837068D01*
X6600000Y-7260000D02*
X6600000Y-5610000D01*
X3821200Y-3275000D02*
X2040000Y-3275000D01*
X650000Y-3550000D02*
X650000Y-3197068D01*
X4810062Y-2116727D02*
X4802661Y-2106539D01*
X8135400Y-1565000D02*
X8135400Y-1715000D01*
X2131179Y-752780D02*
X2135150Y-765000D01*
X4861420Y-1696179D02*
X4807103Y-1713828D01*
X6750000Y-9160000D02*
X5490000Y-9160000D01*
X6302661Y-3171539D02*
X6292473Y-3164138D01*
X5664200Y-1980000D02*
X5154200Y-1980000D01*
X2000246Y-1598704D02*
X2004138Y-1586727D01*
X9278400Y-2370000D02*
X9128400Y-2370000D01*
X8235400Y-765000D02*
X9091332Y-765000D01*
X8235400Y-1715000D02*
X8235400Y-1565000D01*
X752780Y-4208821D02*
X807097Y-4191172D01*
X651172Y-807097D02*
X668821Y-752780D01*
X5664200Y-650000D02*
X5664200Y-800000D01*
X4807103Y-2893828D02*
X4777132Y-2895000D01*
X1992903Y-1828828D02*
X1962931Y-1830000D01*
X2033703Y-914754D02*
X2021727Y-910862D01*
X821727Y-5305862D02*
X833703Y-5309754D01*
X5419400Y-4775000D02*
X5269400Y-4775000D01*
X833703Y-1980246D02*
X821727Y-1984138D01*
X1962931Y-1830000D02*
X1992903Y-1831172D01*
X2040000Y-3925000D02*
X3821200Y-3925000D01*
X4814200Y-1525000D02*
X4814200Y-1290000D01*
X5365249Y-4404151D02*
X5400579Y-4452780D01*
X6277131Y-1830000D02*
X6307103Y-1831172D01*
X4965372Y-2852903D02*
X4964200Y-2822931D01*
X5147904Y-1980246D02*
X5135927Y-1984138D01*
D11*
D12*
X1315000Y-1160000D02*
X1335000Y-1180000D01*
X1335000Y-1160000D02*
X1315000Y-1180000D01*
X1315000Y-1300000D02*
X1335000Y-1320000D01*
X1335000Y-1300000D02*
X1315000Y-1320000D01*
X1315000Y-2340000D02*
X1335000Y-2360000D01*
X1335000Y-2340000D02*
X1315000Y-2360000D01*
X1315000Y-2480000D02*
X1335000Y-2500000D01*
X1335000Y-2480000D02*
X1315000Y-2500000D01*
X1315000Y-3520000D02*
X1335000Y-3540000D01*
X1335000Y-3520000D02*
X1315000Y-3540000D01*
X1315000Y-3660000D02*
X1335000Y-3680000D01*
X1335000Y-3660000D02*
X1315000Y-3680000D01*
X1365000Y-1300000D02*
X1385000Y-1320000D01*
X1385000Y-1300000D02*
X1365000Y-1320000D01*
X1365000Y-2480000D02*
X1385000Y-2500000D01*
X1385000Y-2480000D02*
X1365000Y-2500000D01*
X1365000Y-3660000D02*
X1385000Y-3680000D01*
X1385000Y-3660000D02*
X1365000Y-3680000D01*
X1379000Y-5030000D02*
X1399000Y-5050000D01*
X1399000Y-5030000D02*
X1379000Y-5050000D01*
X1415000Y-1165000D02*
X1435000Y-1185000D01*
X1435000Y-1165000D02*
X1415000Y-1185000D01*
X1415000Y-2345000D02*
X1435000Y-2365000D01*
X1435000Y-2345000D02*
X1415000Y-2365000D01*
X1415000Y-3525000D02*
X1435000Y-3545000D01*
X1435000Y-3525000D02*
X1415000Y-3545000D01*
X1515000Y-1185000D02*
X1535000Y-1205000D01*
X1535000Y-1185000D02*
X1515000Y-1205000D01*
X1515000Y-2365000D02*
X1535000Y-2385000D01*
X1535000Y-2365000D02*
X1515000Y-2385000D01*
X1515000Y-3545000D02*
X1535000Y-3565000D01*
X1535000Y-3545000D02*
X1515000Y-3565000D01*
X1529000Y-5030000D02*
X1549000Y-5050000D01*
X1549000Y-5030000D02*
X1529000Y-5050000D01*
X1540000Y-1300000D02*
X1560000Y-1320000D01*
X1560000Y-1300000D02*
X1540000Y-1320000D01*
X1540000Y-2480000D02*
X1560000Y-2500000D01*
X1560000Y-2480000D02*
X1540000Y-2500000D01*
X1540000Y-3660000D02*
X1560000Y-3680000D01*
X1560000Y-3660000D02*
X1540000Y-3680000D01*
X1679000Y-5030000D02*
X1699000Y-5050000D01*
X1699000Y-5030000D02*
X1679000Y-5050000D01*
X1829000Y-5030000D02*
X1849000Y-5050000D01*
X1849000Y-5030000D02*
X1829000Y-5050000D01*
X1965000Y-1185000D02*
X1985000Y-1205000D01*
X1985000Y-1185000D02*
X1965000Y-1205000D01*
X1965000Y-1235000D02*
X1985000Y-1255000D01*
X1985000Y-1235000D02*
X1965000Y-1255000D01*
X1965000Y-2365000D02*
X1985000Y-2385000D01*
X1985000Y-2365000D02*
X1965000Y-2385000D01*
X1965000Y-2415000D02*
X1985000Y-2435000D01*
X1985000Y-2415000D02*
X1965000Y-2435000D01*
X1965000Y-3545000D02*
X1985000Y-3565000D01*
X1985000Y-3545000D02*
X1965000Y-3565000D01*
X1965000Y-3595000D02*
X1985000Y-3615000D01*
X1985000Y-3595000D02*
X1965000Y-3615000D01*
X2129000Y-5030000D02*
X2149000Y-5050000D01*
X2149000Y-5030000D02*
X2129000Y-5050000D01*
X2179000Y-5010000D02*
X2199000Y-5030000D01*
X2199000Y-5010000D02*
X2179000Y-5030000D01*
X5629200Y-1160000D02*
X5649200Y-1180000D01*
X5649200Y-1160000D02*
X5629200Y-1180000D01*
X5629200Y-1300000D02*
X5649200Y-1320000D01*
X5649200Y-1300000D02*
X5629200Y-1320000D01*
X5629200Y-2340000D02*
X5649200Y-2360000D01*
X5649200Y-2340000D02*
X5629200Y-2360000D01*
X5629200Y-2480000D02*
X5649200Y-2500000D01*
X5649200Y-2480000D02*
X5629200Y-2500000D01*
X5629200Y-3520000D02*
X5649200Y-3540000D01*
X5649200Y-3520000D02*
X5629200Y-3540000D01*
X5629200Y-3660000D02*
X5649200Y-3680000D01*
X5649200Y-3660000D02*
X5629200Y-3680000D01*
X5679200Y-1300000D02*
X5699200Y-1320000D01*
X5699200Y-1300000D02*
X5679200Y-1320000D01*
X5679200Y-2480000D02*
X5699200Y-2500000D01*
X5699200Y-2480000D02*
X5679200Y-2500000D01*
X5679200Y-3660000D02*
X5699200Y-3680000D01*
X5699200Y-3660000D02*
X5679200Y-3680000D01*
X5729200Y-1165000D02*
X5749200Y-1185000D01*
X5749200Y-1165000D02*
X5729200Y-1185000D01*
X5729200Y-2345000D02*
X5749200Y-2365000D01*
X5749200Y-2345000D02*
X5729200Y-2365000D01*
X5729200Y-3525000D02*
X5749200Y-3545000D01*
X5749200Y-3525000D02*
X5729200Y-3545000D01*
X5829200Y-1185000D02*
X5849200Y-1205000D01*
X5849200Y-1185000D02*
X5829200Y-1205000D01*
X5829200Y-2365000D02*
X5849200Y-2385000D01*
X5849200Y-2365000D02*
X5829200Y-2385000D01*
X5829200Y-3545000D02*
X5849200Y-3565000D01*
X5849200Y-3545000D02*
X5829200Y-3565000D01*
X5854200Y-1300000D02*
X5874200Y-1320000D01*
X5874200Y-1300000D02*
X5854200Y-1320000D01*
X5854200Y-2480000D02*
X5874200Y-2500000D01*
X5874200Y-2480000D02*
X5854200Y-2500000D01*
X5854200Y-3660000D02*
X5874200Y-3680000D01*
X5874200Y-3660000D02*
X5854200Y-3680000D01*
X6279200Y-1185000D02*
X6299200Y-1205000D01*
X6299200Y-1185000D02*
X6279200Y-1205000D01*
X6279200Y-1235000D02*
X6299200Y-1255000D01*
X6299200Y-1235000D02*
X6279200Y-1255000D01*
X6279200Y-2365000D02*
X6299200Y-2385000D01*
X6299200Y-2365000D02*
X6279200Y-2385000D01*
X6279200Y-2415000D02*
X6299200Y-2435000D01*
X6299200Y-2415000D02*
X6279200Y-2435000D01*
X6279200Y-3545000D02*
X6299200Y-3565000D01*
X6299200Y-3545000D02*
X6279200Y-3565000D01*
X6279200Y-3595000D02*
X6299200Y-3615000D01*
X6299200Y-3595000D02*
X6279200Y-3615000D01*
X970000Y-6010000D02*
G75*
G02*
X940000Y-6010000I-15000J0D01*
G01*
X940000Y-6010000D02*
G75*
G02*
X970000Y-6010000I15000J0D01*
G01*
X970000Y-6310000D02*
G75*
G02*
X940000Y-6310000I-15000J0D01*
G01*
X940000Y-6310000D02*
G75*
G02*
X970000Y-6310000I15000J0D01*
G01*
X970000Y-6510000D02*
G75*
G02*
X940000Y-6510000I-15000J0D01*
G01*
X940000Y-6510000D02*
G75*
G02*
X970000Y-6510000I15000J0D01*
G01*
X970000Y-6810000D02*
G75*
G02*
X940000Y-6810000I-15000J0D01*
G01*
X940000Y-6810000D02*
G75*
G02*
X970000Y-6810000I15000J0D01*
G01*
X970000Y-7010000D02*
G75*
G02*
X940000Y-7010000I-15000J0D01*
G01*
X940000Y-7010000D02*
G75*
G02*
X970000Y-7010000I15000J0D01*
G01*
X970000Y-7310000D02*
G75*
G02*
X940000Y-7310000I-15000J0D01*
G01*
X940000Y-7310000D02*
G75*
G02*
X970000Y-7310000I15000J0D01*
G01*
X970000Y-7510000D02*
G75*
G02*
X940000Y-7510000I-15000J0D01*
G01*
X940000Y-7510000D02*
G75*
G02*
X970000Y-7510000I15000J0D01*
G01*
X970000Y-7810000D02*
G75*
G02*
X940000Y-7810000I-15000J0D01*
G01*
X940000Y-7810000D02*
G75*
G02*
X970000Y-7810000I15000J0D01*
G01*
X970000Y-8060000D02*
G75*
G02*
X940000Y-8060000I-15000J0D01*
G01*
X940000Y-8060000D02*
G75*
G02*
X970000Y-8060000I15000J0D01*
G01*
X970000Y-8260000D02*
G75*
G02*
X940000Y-8260000I-15000J0D01*
G01*
X940000Y-8260000D02*
G75*
G02*
X970000Y-8260000I15000J0D01*
G01*
X970000Y-8510000D02*
G75*
G02*
X940000Y-8510000I-15000J0D01*
G01*
X940000Y-8510000D02*
G75*
G02*
X970000Y-8510000I15000J0D01*
G01*
X970000Y-8810000D02*
G75*
G02*
X940000Y-8810000I-15000J0D01*
G01*
X940000Y-8810000D02*
G75*
G02*
X970000Y-8810000I15000J0D01*
G01*
X982250Y-1257012D02*
G75*
G02*
X952250Y-1257012I-15000J0D01*
G01*
X952250Y-1257012D02*
G75*
G02*
X982250Y-1257012I15000J0D01*
G01*
X982250Y-2437012D02*
G75*
G02*
X952250Y-2437012I-15000J0D01*
G01*
X952250Y-2437012D02*
G75*
G02*
X982250Y-2437012I15000J0D01*
G01*
X982250Y-3617012D02*
G75*
G02*
X952250Y-3617012I-15000J0D01*
G01*
X952250Y-3617012D02*
G75*
G02*
X982250Y-3617012I15000J0D01*
G01*
X1100669Y-4506288D02*
G75*
G02*
X1070669Y-4506288I-15000J0D01*
G01*
X1070669Y-4506288D02*
G75*
G02*
X1100669Y-4506288I15000J0D01*
G01*
X1165000Y-1198000D02*
G75*
G02*
X1135000Y-1198000I-15000J0D01*
G01*
X1135000Y-1198000D02*
G75*
G02*
X1165000Y-1198000I15000J0D01*
G01*
X1165000Y-1282000D02*
G75*
G02*
X1135000Y-1282000I-15000J0D01*
G01*
X1135000Y-1282000D02*
G75*
G02*
X1165000Y-1282000I15000J0D01*
G01*
X1165000Y-2378000D02*
G75*
G02*
X1135000Y-2378000I-15000J0D01*
G01*
X1135000Y-2378000D02*
G75*
G02*
X1165000Y-2378000I15000J0D01*
G01*
X1165000Y-2462000D02*
G75*
G02*
X1135000Y-2462000I-15000J0D01*
G01*
X1135000Y-2462000D02*
G75*
G02*
X1165000Y-2462000I15000J0D01*
G01*
X1165000Y-3558000D02*
G75*
G02*
X1135000Y-3558000I-15000J0D01*
G01*
X1135000Y-3558000D02*
G75*
G02*
X1165000Y-3558000I15000J0D01*
G01*
X1165000Y-3642000D02*
G75*
G02*
X1135000Y-3642000I-15000J0D01*
G01*
X1135000Y-3642000D02*
G75*
G02*
X1165000Y-3642000I15000J0D01*
G01*
X1225000Y-1198000D02*
G75*
G02*
X1195000Y-1198000I-15000J0D01*
G01*
X1195000Y-1198000D02*
G75*
G02*
X1225000Y-1198000I15000J0D01*
G01*
X1225000Y-1282000D02*
G75*
G02*
X1195000Y-1282000I-15000J0D01*
G01*
X1195000Y-1282000D02*
G75*
G02*
X1225000Y-1282000I15000J0D01*
G01*
X1225000Y-2378000D02*
G75*
G02*
X1195000Y-2378000I-15000J0D01*
G01*
X1195000Y-2378000D02*
G75*
G02*
X1225000Y-2378000I15000J0D01*
G01*
X1225000Y-2462000D02*
G75*
G02*
X1195000Y-2462000I-15000J0D01*
G01*
X1195000Y-2462000D02*
G75*
G02*
X1225000Y-2462000I15000J0D01*
G01*
X1225000Y-3558000D02*
G75*
G02*
X1195000Y-3558000I-15000J0D01*
G01*
X1195000Y-3558000D02*
G75*
G02*
X1225000Y-3558000I15000J0D01*
G01*
X1225000Y-3642000D02*
G75*
G02*
X1195000Y-3642000I-15000J0D01*
G01*
X1195000Y-3642000D02*
G75*
G02*
X1225000Y-3642000I15000J0D01*
G01*
X1404000Y-4760348D02*
G75*
G02*
X1374000Y-4760348I-15000J0D01*
G01*
X1374000Y-4760348D02*
G75*
G02*
X1404000Y-4760348I15000J0D01*
G01*
X1540000Y-985000D02*
G75*
G02*
X1510000Y-985000I-15000J0D01*
G01*
X1510000Y-985000D02*
G75*
G02*
X1540000Y-985000I15000J0D01*
G01*
X1540000Y-1495000D02*
G75*
G02*
X1510000Y-1495000I-15000J0D01*
G01*
X1510000Y-1495000D02*
G75*
G02*
X1540000Y-1495000I15000J0D01*
G01*
X1540000Y-2165000D02*
G75*
G02*
X1510000Y-2165000I-15000J0D01*
G01*
X1510000Y-2165000D02*
G75*
G02*
X1540000Y-2165000I15000J0D01*
G01*
X1540000Y-2675000D02*
G75*
G02*
X1510000Y-2675000I-15000J0D01*
G01*
X1510000Y-2675000D02*
G75*
G02*
X1540000Y-2675000I15000J0D01*
G01*
X1540000Y-3345000D02*
G75*
G02*
X1510000Y-3345000I-15000J0D01*
G01*
X1510000Y-3345000D02*
G75*
G02*
X1540000Y-3345000I15000J0D01*
G01*
X1540000Y-3855000D02*
G75*
G02*
X1510000Y-3855000I-15000J0D01*
G01*
X1510000Y-3855000D02*
G75*
G02*
X1540000Y-3855000I15000J0D01*
G01*
X1856524Y-4984238D02*
G75*
G02*
X1826524Y-4984238I-15000J0D01*
G01*
X1826524Y-4984238D02*
G75*
G02*
X1856524Y-4984238I15000J0D01*
G01*
X2346669Y-5149975D02*
G75*
G02*
X2316669Y-5149975I-15000J0D01*
G01*
X2316669Y-5149975D02*
G75*
G02*
X2346669Y-5149975I15000J0D01*
G01*
X3311200Y-1235000D02*
G75*
G02*
X3281200Y-1235000I-15000J0D01*
G01*
X3281200Y-1235000D02*
G75*
G02*
X3311200Y-1235000I15000J0D01*
G01*
X3311200Y-1305000D02*
G75*
G02*
X3281200Y-1305000I-15000J0D01*
G01*
X3281200Y-1305000D02*
G75*
G02*
X3311200Y-1305000I15000J0D01*
G01*
X3311200Y-2415000D02*
G75*
G02*
X3281200Y-2415000I-15000J0D01*
G01*
X3281200Y-2415000D02*
G75*
G02*
X3311200Y-2415000I15000J0D01*
G01*
X3311200Y-2485000D02*
G75*
G02*
X3281200Y-2485000I-15000J0D01*
G01*
X3281200Y-2485000D02*
G75*
G02*
X3311200Y-2485000I15000J0D01*
G01*
X3311200Y-3595000D02*
G75*
G02*
X3281200Y-3595000I-15000J0D01*
G01*
X3281200Y-3595000D02*
G75*
G02*
X3311200Y-3595000I15000J0D01*
G01*
X3311200Y-3665000D02*
G75*
G02*
X3281200Y-3665000I-15000J0D01*
G01*
X3281200Y-3665000D02*
G75*
G02*
X3311200Y-3665000I15000J0D01*
G01*
X3666200Y-1240000D02*
G75*
G02*
X3636200Y-1240000I-15000J0D01*
G01*
X3636200Y-1240000D02*
G75*
G02*
X3666200Y-1240000I15000J0D01*
G01*
X3666200Y-2420000D02*
G75*
G02*
X3636200Y-2420000I-15000J0D01*
G01*
X3636200Y-2420000D02*
G75*
G02*
X3666200Y-2420000I15000J0D01*
G01*
X3666200Y-3600000D02*
G75*
G02*
X3636200Y-3600000I-15000J0D01*
G01*
X3636200Y-3600000D02*
G75*
G02*
X3666200Y-3600000I15000J0D01*
G01*
X3766200Y-1240000D02*
G75*
G02*
X3736200Y-1240000I-15000J0D01*
G01*
X3736200Y-1240000D02*
G75*
G02*
X3766200Y-1240000I15000J0D01*
G01*
X3766200Y-2420000D02*
G75*
G02*
X3736200Y-2420000I-15000J0D01*
G01*
X3736200Y-2420000D02*
G75*
G02*
X3766200Y-2420000I15000J0D01*
G01*
X3766200Y-3600000D02*
G75*
G02*
X3736200Y-3600000I-15000J0D01*
G01*
X3736200Y-3600000D02*
G75*
G02*
X3766200Y-3600000I15000J0D01*
G01*
X3766400Y-4790000D02*
G75*
G02*
X3736400Y-4790000I-15000J0D01*
G01*
X3736400Y-4790000D02*
G75*
G02*
X3766400Y-4790000I15000J0D01*
G01*
X3766400Y-4860000D02*
G75*
G02*
X3736400Y-4860000I-15000J0D01*
G01*
X3736400Y-4860000D02*
G75*
G02*
X3766400Y-4860000I15000J0D01*
G01*
X3886200Y-1240000D02*
G75*
G02*
X3856200Y-1240000I-15000J0D01*
G01*
X3856200Y-1240000D02*
G75*
G02*
X3886200Y-1240000I15000J0D01*
G01*
X3886200Y-2420000D02*
G75*
G02*
X3856200Y-2420000I-15000J0D01*
G01*
X3856200Y-2420000D02*
G75*
G02*
X3886200Y-2420000I15000J0D01*
G01*
X3886200Y-3600000D02*
G75*
G02*
X3856200Y-3600000I-15000J0D01*
G01*
X3856200Y-3600000D02*
G75*
G02*
X3886200Y-3600000I15000J0D01*
G01*
X4006200Y-1240000D02*
G75*
G02*
X3976200Y-1240000I-15000J0D01*
G01*
X3976200Y-1240000D02*
G75*
G02*
X4006200Y-1240000I15000J0D01*
G01*
X4006200Y-2420000D02*
G75*
G02*
X3976200Y-2420000I-15000J0D01*
G01*
X3976200Y-2420000D02*
G75*
G02*
X4006200Y-2420000I15000J0D01*
G01*
X4006200Y-3600000D02*
G75*
G02*
X3976200Y-3600000I-15000J0D01*
G01*
X3976200Y-3600000D02*
G75*
G02*
X4006200Y-3600000I15000J0D01*
G01*
X4121400Y-4825000D02*
G75*
G02*
X4091400Y-4825000I-15000J0D01*
G01*
X4091400Y-4825000D02*
G75*
G02*
X4121400Y-4825000I15000J0D01*
G01*
X4126200Y-1240000D02*
G75*
G02*
X4096200Y-1240000I-15000J0D01*
G01*
X4096200Y-1240000D02*
G75*
G02*
X4126200Y-1240000I15000J0D01*
G01*
X4126200Y-2420000D02*
G75*
G02*
X4096200Y-2420000I-15000J0D01*
G01*
X4096200Y-2420000D02*
G75*
G02*
X4126200Y-2420000I15000J0D01*
G01*
X4126200Y-3600000D02*
G75*
G02*
X4096200Y-3600000I-15000J0D01*
G01*
X4096200Y-3600000D02*
G75*
G02*
X4126200Y-3600000I15000J0D01*
G01*
X4196200Y-1240000D02*
G75*
G02*
X4166200Y-1240000I-15000J0D01*
G01*
X4166200Y-1240000D02*
G75*
G02*
X4196200Y-1240000I15000J0D01*
G01*
X4196200Y-2420000D02*
G75*
G02*
X4166200Y-2420000I-15000J0D01*
G01*
X4166200Y-2420000D02*
G75*
G02*
X4196200Y-2420000I15000J0D01*
G01*
X4196200Y-3600000D02*
G75*
G02*
X4166200Y-3600000I-15000J0D01*
G01*
X4166200Y-3600000D02*
G75*
G02*
X4196200Y-3600000I15000J0D01*
G01*
X4221400Y-4825000D02*
G75*
G02*
X4191400Y-4825000I-15000J0D01*
G01*
X4191400Y-4825000D02*
G75*
G02*
X4221400Y-4825000I15000J0D01*
G01*
X4341400Y-4825000D02*
G75*
G02*
X4311400Y-4825000I-15000J0D01*
G01*
X4311400Y-4825000D02*
G75*
G02*
X4341400Y-4825000I15000J0D01*
G01*
X4346200Y-1480000D02*
G75*
G02*
X4316200Y-1480000I-15000J0D01*
G01*
X4316200Y-1480000D02*
G75*
G02*
X4346200Y-1480000I15000J0D01*
G01*
X4346200Y-2660000D02*
G75*
G02*
X4316200Y-2660000I-15000J0D01*
G01*
X4316200Y-2660000D02*
G75*
G02*
X4346200Y-2660000I15000J0D01*
G01*
X4346200Y-3840000D02*
G75*
G02*
X4316200Y-3840000I-15000J0D01*
G01*
X4316200Y-3840000D02*
G75*
G02*
X4346200Y-3840000I15000J0D01*
G01*
X4366200Y-1000000D02*
G75*
G02*
X4336200Y-1000000I-15000J0D01*
G01*
X4336200Y-1000000D02*
G75*
G02*
X4366200Y-1000000I15000J0D01*
G01*
X4366200Y-2180000D02*
G75*
G02*
X4336200Y-2180000I-15000J0D01*
G01*
X4336200Y-2180000D02*
G75*
G02*
X4366200Y-2180000I15000J0D01*
G01*
X4366200Y-3360000D02*
G75*
G02*
X4336200Y-3360000I-15000J0D01*
G01*
X4336200Y-3360000D02*
G75*
G02*
X4366200Y-3360000I15000J0D01*
G01*
X4461400Y-4825000D02*
G75*
G02*
X4431400Y-4825000I-15000J0D01*
G01*
X4431400Y-4825000D02*
G75*
G02*
X4461400Y-4825000I15000J0D01*
G01*
X4493550Y-1041287D02*
G75*
G02*
X4463550Y-1041287I-15000J0D01*
G01*
X4463550Y-1041287D02*
G75*
G02*
X4493550Y-1041287I15000J0D01*
G01*
X4493550Y-2221288D02*
G75*
G02*
X4463550Y-2221288I-15000J0D01*
G01*
X4463550Y-2221288D02*
G75*
G02*
X4493550Y-2221288I15000J0D01*
G01*
X4493550Y-3401288D02*
G75*
G02*
X4463550Y-3401288I-15000J0D01*
G01*
X4463550Y-3401288D02*
G75*
G02*
X4493550Y-3401288I15000J0D01*
G01*
X4581400Y-4825000D02*
G75*
G02*
X4551400Y-4825000I-15000J0D01*
G01*
X4551400Y-4825000D02*
G75*
G02*
X4581400Y-4825000I15000J0D01*
G01*
X4651400Y-4825000D02*
G75*
G02*
X4621400Y-4825000I-15000J0D01*
G01*
X4621400Y-4825000D02*
G75*
G02*
X4651400Y-4825000I15000J0D01*
G01*
X4709700Y-1485000D02*
G75*
G02*
X4679700Y-1485000I-15000J0D01*
G01*
X4679700Y-1485000D02*
G75*
G02*
X4709700Y-1485000I15000J0D01*
G01*
X4709700Y-2665000D02*
G75*
G02*
X4679700Y-2665000I-15000J0D01*
G01*
X4679700Y-2665000D02*
G75*
G02*
X4709700Y-2665000I15000J0D01*
G01*
X4709700Y-3845000D02*
G75*
G02*
X4679700Y-3845000I-15000J0D01*
G01*
X4679700Y-3845000D02*
G75*
G02*
X4709700Y-3845000I15000J0D01*
G01*
X4753700Y-1095000D02*
G75*
G02*
X4723700Y-1095000I-15000J0D01*
G01*
X4723700Y-1095000D02*
G75*
G02*
X4753700Y-1095000I15000J0D01*
G01*
X4753700Y-1385000D02*
G75*
G02*
X4723700Y-1385000I-15000J0D01*
G01*
X4723700Y-1385000D02*
G75*
G02*
X4753700Y-1385000I15000J0D01*
G01*
X4753700Y-2275000D02*
G75*
G02*
X4723700Y-2275000I-15000J0D01*
G01*
X4723700Y-2275000D02*
G75*
G02*
X4753700Y-2275000I15000J0D01*
G01*
X4753700Y-2565000D02*
G75*
G02*
X4723700Y-2565000I-15000J0D01*
G01*
X4723700Y-2565000D02*
G75*
G02*
X4753700Y-2565000I15000J0D01*
G01*
X4753700Y-3455000D02*
G75*
G02*
X4723700Y-3455000I-15000J0D01*
G01*
X4723700Y-3455000D02*
G75*
G02*
X4753700Y-3455000I15000J0D01*
G01*
X4753700Y-3745000D02*
G75*
G02*
X4723700Y-3745000I-15000J0D01*
G01*
X4723700Y-3745000D02*
G75*
G02*
X4753700Y-3745000I15000J0D01*
G01*
X4801400Y-5065000D02*
G75*
G02*
X4771400Y-5065000I-15000J0D01*
G01*
X4771400Y-5065000D02*
G75*
G02*
X4801400Y-5065000I15000J0D01*
G01*
X4821400Y-4585000D02*
G75*
G02*
X4791400Y-4585000I-15000J0D01*
G01*
X4791400Y-4585000D02*
G75*
G02*
X4821400Y-4585000I15000J0D01*
G01*
X5037106Y-4626288D02*
G75*
G02*
X5007106Y-4626288I-15000J0D01*
G01*
X5007106Y-4626288D02*
G75*
G02*
X5037106Y-4626288I15000J0D01*
G01*
X5164900Y-5070000D02*
G75*
G02*
X5134900Y-5070000I-15000J0D01*
G01*
X5134900Y-5070000D02*
G75*
G02*
X5164900Y-5070000I15000J0D01*
G01*
X5208900Y-4680000D02*
G75*
G02*
X5178900Y-4680000I-15000J0D01*
G01*
X5178900Y-4680000D02*
G75*
G02*
X5208900Y-4680000I15000J0D01*
G01*
X5208900Y-4970000D02*
G75*
G02*
X5178900Y-4970000I-15000J0D01*
G01*
X5178900Y-4970000D02*
G75*
G02*
X5208900Y-4970000I15000J0D01*
G01*
X5296450Y-1257012D02*
G75*
G02*
X5266450Y-1257012I-15000J0D01*
G01*
X5266450Y-1257012D02*
G75*
G02*
X5296450Y-1257012I15000J0D01*
G01*
X5296450Y-2437012D02*
G75*
G02*
X5266450Y-2437012I-15000J0D01*
G01*
X5266450Y-2437012D02*
G75*
G02*
X5296450Y-2437012I15000J0D01*
G01*
X5296450Y-3617012D02*
G75*
G02*
X5266450Y-3617012I-15000J0D01*
G01*
X5266450Y-3617012D02*
G75*
G02*
X5296450Y-3617012I15000J0D01*
G01*
X5479200Y-1198000D02*
G75*
G02*
X5449200Y-1198000I-15000J0D01*
G01*
X5449200Y-1198000D02*
G75*
G02*
X5479200Y-1198000I15000J0D01*
G01*
X5479200Y-1282000D02*
G75*
G02*
X5449200Y-1282000I-15000J0D01*
G01*
X5449200Y-1282000D02*
G75*
G02*
X5479200Y-1282000I15000J0D01*
G01*
X5479200Y-2378000D02*
G75*
G02*
X5449200Y-2378000I-15000J0D01*
G01*
X5449200Y-2378000D02*
G75*
G02*
X5479200Y-2378000I15000J0D01*
G01*
X5479200Y-2462000D02*
G75*
G02*
X5449200Y-2462000I-15000J0D01*
G01*
X5449200Y-2462000D02*
G75*
G02*
X5479200Y-2462000I15000J0D01*
G01*
X5479200Y-3558000D02*
G75*
G02*
X5449200Y-3558000I-15000J0D01*
G01*
X5449200Y-3558000D02*
G75*
G02*
X5479200Y-3558000I15000J0D01*
G01*
X5479200Y-3642000D02*
G75*
G02*
X5449200Y-3642000I-15000J0D01*
G01*
X5449200Y-3642000D02*
G75*
G02*
X5479200Y-3642000I15000J0D01*
G01*
X5539200Y-1198000D02*
G75*
G02*
X5509200Y-1198000I-15000J0D01*
G01*
X5509200Y-1198000D02*
G75*
G02*
X5539200Y-1198000I15000J0D01*
G01*
X5539200Y-1282000D02*
G75*
G02*
X5509200Y-1282000I-15000J0D01*
G01*
X5509200Y-1282000D02*
G75*
G02*
X5539200Y-1282000I15000J0D01*
G01*
X5539200Y-2378000D02*
G75*
G02*
X5509200Y-2378000I-15000J0D01*
G01*
X5509200Y-2378000D02*
G75*
G02*
X5539200Y-2378000I15000J0D01*
G01*
X5539200Y-2462000D02*
G75*
G02*
X5509200Y-2462000I-15000J0D01*
G01*
X5509200Y-2462000D02*
G75*
G02*
X5539200Y-2462000I15000J0D01*
G01*
X5539200Y-3558000D02*
G75*
G02*
X5509200Y-3558000I-15000J0D01*
G01*
X5509200Y-3558000D02*
G75*
G02*
X5539200Y-3558000I15000J0D01*
G01*
X5539200Y-3642000D02*
G75*
G02*
X5509200Y-3642000I-15000J0D01*
G01*
X5509200Y-3642000D02*
G75*
G02*
X5539200Y-3642000I15000J0D01*
G01*
X5854200Y-985000D02*
G75*
G02*
X5824200Y-985000I-15000J0D01*
G01*
X5824200Y-985000D02*
G75*
G02*
X5854200Y-985000I15000J0D01*
G01*
X5854200Y-1495000D02*
G75*
G02*
X5824200Y-1495000I-15000J0D01*
G01*
X5824200Y-1495000D02*
G75*
G02*
X5854200Y-1495000I15000J0D01*
G01*
X5854200Y-2165000D02*
G75*
G02*
X5824200Y-2165000I-15000J0D01*
G01*
X5824200Y-2165000D02*
G75*
G02*
X5854200Y-2165000I15000J0D01*
G01*
X5854200Y-2675000D02*
G75*
G02*
X5824200Y-2675000I-15000J0D01*
G01*
X5824200Y-2675000D02*
G75*
G02*
X5854200Y-2675000I15000J0D01*
G01*
X5854200Y-3345000D02*
G75*
G02*
X5824200Y-3345000I-15000J0D01*
G01*
X5824200Y-3345000D02*
G75*
G02*
X5854200Y-3345000I15000J0D01*
G01*
X5854200Y-3855000D02*
G75*
G02*
X5824200Y-3855000I-15000J0D01*
G01*
X5824200Y-3855000D02*
G75*
G02*
X5854200Y-3855000I15000J0D01*
G01*
X6460000Y-6010000D02*
G75*
G02*
X6430000Y-6010000I-15000J0D01*
G01*
X6430000Y-6010000D02*
G75*
G02*
X6460000Y-6010000I15000J0D01*
G01*
X6460000Y-6310000D02*
G75*
G02*
X6430000Y-6310000I-15000J0D01*
G01*
X6430000Y-6310000D02*
G75*
G02*
X6460000Y-6310000I15000J0D01*
G01*
X6460000Y-6510000D02*
G75*
G02*
X6430000Y-6510000I-15000J0D01*
G01*
X6430000Y-6510000D02*
G75*
G02*
X6460000Y-6510000I15000J0D01*
G01*
X6460000Y-6810000D02*
G75*
G02*
X6430000Y-6810000I-15000J0D01*
G01*
X6430000Y-6810000D02*
G75*
G02*
X6460000Y-6810000I15000J0D01*
G01*
X6460000Y-7010000D02*
G75*
G02*
X6430000Y-7010000I-15000J0D01*
G01*
X6430000Y-7010000D02*
G75*
G02*
X6460000Y-7010000I15000J0D01*
G01*
X6460000Y-7310000D02*
G75*
G02*
X6430000Y-7310000I-15000J0D01*
G01*
X6430000Y-7310000D02*
G75*
G02*
X6460000Y-7310000I15000J0D01*
G01*
X6460000Y-7510000D02*
G75*
G02*
X6430000Y-7510000I-15000J0D01*
G01*
X6430000Y-7510000D02*
G75*
G02*
X6460000Y-7510000I15000J0D01*
G01*
X6460000Y-7810000D02*
G75*
G02*
X6430000Y-7810000I-15000J0D01*
G01*
X6430000Y-7810000D02*
G75*
G02*
X6460000Y-7810000I15000J0D01*
G01*
X6460000Y-8060000D02*
G75*
G02*
X6430000Y-8060000I-15000J0D01*
G01*
X6430000Y-8060000D02*
G75*
G02*
X6460000Y-8060000I15000J0D01*
G01*
X6460000Y-8260000D02*
G75*
G02*
X6430000Y-8260000I-15000J0D01*
G01*
X6430000Y-8260000D02*
G75*
G02*
X6460000Y-8260000I15000J0D01*
G01*
X6460000Y-8510000D02*
G75*
G02*
X6430000Y-8510000I-15000J0D01*
G01*
X6430000Y-8510000D02*
G75*
G02*
X6460000Y-8510000I15000J0D01*
G01*
X6460000Y-8810000D02*
G75*
G02*
X6430000Y-8810000I-15000J0D01*
G01*
X6430000Y-8810000D02*
G75*
G02*
X6460000Y-8810000I15000J0D01*
G01*
X7625400Y-1235000D02*
G75*
G02*
X7595400Y-1235000I-15000J0D01*
G01*
X7595400Y-1235000D02*
G75*
G02*
X7625400Y-1235000I15000J0D01*
G01*
X7625400Y-1305000D02*
G75*
G02*
X7595400Y-1305000I-15000J0D01*
G01*
X7595400Y-1305000D02*
G75*
G02*
X7625400Y-1305000I15000J0D01*
G01*
X7625400Y-2415000D02*
G75*
G02*
X7595400Y-2415000I-15000J0D01*
G01*
X7595400Y-2415000D02*
G75*
G02*
X7625400Y-2415000I15000J0D01*
G01*
X7625400Y-2485000D02*
G75*
G02*
X7595400Y-2485000I-15000J0D01*
G01*
X7595400Y-2485000D02*
G75*
G02*
X7625400Y-2485000I15000J0D01*
G01*
X7625400Y-3595000D02*
G75*
G02*
X7595400Y-3595000I-15000J0D01*
G01*
X7595400Y-3595000D02*
G75*
G02*
X7625400Y-3595000I15000J0D01*
G01*
X7625400Y-3665000D02*
G75*
G02*
X7595400Y-3665000I-15000J0D01*
G01*
X7595400Y-3665000D02*
G75*
G02*
X7625400Y-3665000I15000J0D01*
G01*
X7980400Y-1240000D02*
G75*
G02*
X7950400Y-1240000I-15000J0D01*
G01*
X7950400Y-1240000D02*
G75*
G02*
X7980400Y-1240000I15000J0D01*
G01*
X7980400Y-2420000D02*
G75*
G02*
X7950400Y-2420000I-15000J0D01*
G01*
X7950400Y-2420000D02*
G75*
G02*
X7980400Y-2420000I15000J0D01*
G01*
X7980400Y-3600000D02*
G75*
G02*
X7950400Y-3600000I-15000J0D01*
G01*
X7950400Y-3600000D02*
G75*
G02*
X7980400Y-3600000I15000J0D01*
G01*
X8080400Y-1240000D02*
G75*
G02*
X8050400Y-1240000I-15000J0D01*
G01*
X8050400Y-1240000D02*
G75*
G02*
X8080400Y-1240000I15000J0D01*
G01*
X8080400Y-2420000D02*
G75*
G02*
X8050400Y-2420000I-15000J0D01*
G01*
X8050400Y-2420000D02*
G75*
G02*
X8080400Y-2420000I15000J0D01*
G01*
X8080400Y-3600000D02*
G75*
G02*
X8050400Y-3600000I-15000J0D01*
G01*
X8050400Y-3600000D02*
G75*
G02*
X8080400Y-3600000I15000J0D01*
G01*
X8200400Y-1240000D02*
G75*
G02*
X8170400Y-1240000I-15000J0D01*
G01*
X8170400Y-1240000D02*
G75*
G02*
X8200400Y-1240000I15000J0D01*
G01*
X8200400Y-2420000D02*
G75*
G02*
X8170400Y-2420000I-15000J0D01*
G01*
X8170400Y-2420000D02*
G75*
G02*
X8200400Y-2420000I15000J0D01*
G01*
X8200400Y-3600000D02*
G75*
G02*
X8170400Y-3600000I-15000J0D01*
G01*
X8170400Y-3600000D02*
G75*
G02*
X8200400Y-3600000I15000J0D01*
G01*
X8320400Y-1240000D02*
G75*
G02*
X8290400Y-1240000I-15000J0D01*
G01*
X8290400Y-1240000D02*
G75*
G02*
X8320400Y-1240000I15000J0D01*
G01*
X8320400Y-2420000D02*
G75*
G02*
X8290400Y-2420000I-15000J0D01*
G01*
X8290400Y-2420000D02*
G75*
G02*
X8320400Y-2420000I15000J0D01*
G01*
X8320400Y-3600000D02*
G75*
G02*
X8290400Y-3600000I-15000J0D01*
G01*
X8290400Y-3600000D02*
G75*
G02*
X8320400Y-3600000I15000J0D01*
G01*
X8440400Y-1240000D02*
G75*
G02*
X8410400Y-1240000I-15000J0D01*
G01*
X8410400Y-1240000D02*
G75*
G02*
X8440400Y-1240000I15000J0D01*
G01*
X8440400Y-2420000D02*
G75*
G02*
X8410400Y-2420000I-15000J0D01*
G01*
X8410400Y-2420000D02*
G75*
G02*
X8440400Y-2420000I15000J0D01*
G01*
X8440400Y-3600000D02*
G75*
G02*
X8410400Y-3600000I-15000J0D01*
G01*
X8410400Y-3600000D02*
G75*
G02*
X8440400Y-3600000I15000J0D01*
G01*
X8510400Y-1240000D02*
G75*
G02*
X8480400Y-1240000I-15000J0D01*
G01*
X8480400Y-1240000D02*
G75*
G02*
X8510400Y-1240000I15000J0D01*
G01*
X8510400Y-2420000D02*
G75*
G02*
X8480400Y-2420000I-15000J0D01*
G01*
X8480400Y-2420000D02*
G75*
G02*
X8510400Y-2420000I15000J0D01*
G01*
X8510400Y-3600000D02*
G75*
G02*
X8480400Y-3600000I-15000J0D01*
G01*
X8480400Y-3600000D02*
G75*
G02*
X8510400Y-3600000I15000J0D01*
G01*
X8660400Y-1480000D02*
G75*
G02*
X8630400Y-1480000I-15000J0D01*
G01*
X8630400Y-1480000D02*
G75*
G02*
X8660400Y-1480000I15000J0D01*
G01*
X8660400Y-2660000D02*
G75*
G02*
X8630400Y-2660000I-15000J0D01*
G01*
X8630400Y-2660000D02*
G75*
G02*
X8660400Y-2660000I15000J0D01*
G01*
X8660400Y-3840000D02*
G75*
G02*
X8630400Y-3840000I-15000J0D01*
G01*
X8630400Y-3840000D02*
G75*
G02*
X8660400Y-3840000I15000J0D01*
G01*
X8680400Y-1000000D02*
G75*
G02*
X8650400Y-1000000I-15000J0D01*
G01*
X8650400Y-1000000D02*
G75*
G02*
X8680400Y-1000000I15000J0D01*
G01*
X8680400Y-2180000D02*
G75*
G02*
X8650400Y-2180000I-15000J0D01*
G01*
X8650400Y-2180000D02*
G75*
G02*
X8680400Y-2180000I15000J0D01*
G01*
X8680400Y-3360000D02*
G75*
G02*
X8650400Y-3360000I-15000J0D01*
G01*
X8650400Y-3360000D02*
G75*
G02*
X8680400Y-3360000I15000J0D01*
G01*
X8807750Y-1041287D02*
G75*
G02*
X8777750Y-1041287I-15000J0D01*
G01*
X8777750Y-1041287D02*
G75*
G02*
X8807750Y-1041287I15000J0D01*
G01*
X8807750Y-2221288D02*
G75*
G02*
X8777750Y-2221288I-15000J0D01*
G01*
X8777750Y-2221288D02*
G75*
G02*
X8807750Y-2221288I15000J0D01*
G01*
X8807750Y-3401288D02*
G75*
G02*
X8777750Y-3401288I-15000J0D01*
G01*
X8777750Y-3401288D02*
G75*
G02*
X8807750Y-3401288I15000J0D01*
G01*
X9023900Y-1485000D02*
G75*
G02*
X8993900Y-1485000I-15000J0D01*
G01*
X8993900Y-1485000D02*
G75*
G02*
X9023900Y-1485000I15000J0D01*
G01*
X9023900Y-2665000D02*
G75*
G02*
X8993900Y-2665000I-15000J0D01*
G01*
X8993900Y-2665000D02*
G75*
G02*
X9023900Y-2665000I15000J0D01*
G01*
X9023900Y-3845000D02*
G75*
G02*
X8993900Y-3845000I-15000J0D01*
G01*
X8993900Y-3845000D02*
G75*
G02*
X9023900Y-3845000I15000J0D01*
G01*
X9067900Y-1095000D02*
G75*
G02*
X9037900Y-1095000I-15000J0D01*
G01*
X9037900Y-1095000D02*
G75*
G02*
X9067900Y-1095000I15000J0D01*
G01*
X9067900Y-1385000D02*
G75*
G02*
X9037900Y-1385000I-15000J0D01*
G01*
X9037900Y-1385000D02*
G75*
G02*
X9067900Y-1385000I15000J0D01*
G01*
X9067900Y-2275000D02*
G75*
G02*
X9037900Y-2275000I-15000J0D01*
G01*
X9037900Y-2275000D02*
G75*
G02*
X9067900Y-2275000I15000J0D01*
G01*
X9067900Y-2565000D02*
G75*
G02*
X9037900Y-2565000I-15000J0D01*
G01*
X9037900Y-2565000D02*
G75*
G02*
X9067900Y-2565000I15000J0D01*
G01*
X9067900Y-3455000D02*
G75*
G02*
X9037900Y-3455000I-15000J0D01*
G01*
X9037900Y-3455000D02*
G75*
G02*
X9067900Y-3455000I15000J0D01*
G01*
X9067900Y-3745000D02*
G75*
G02*
X9037900Y-3745000I-15000J0D01*
G01*
X9037900Y-3745000D02*
G75*
G02*
X9067900Y-3745000I15000J0D01*
G01*
X990000Y-1053000D02*
X990000Y-1133000D01*
X950000Y-1093000D02*
X1030000Y-1093000D01*
X965000Y-1133000D02*
X1015000Y-1133000D01*
X1015000Y-1053000D02*
G75*
G02*
X1015000Y-1133000I0J-40000D01*
G01*
X1015000Y-1053000D02*
X965000Y-1053000D01*
X965000Y-1053000D02*
G75*
G03*
X965000Y-1133000I0J-40000D01*
G01*
X990000Y-1347000D02*
X990000Y-1427000D01*
X950000Y-1387000D02*
X1030000Y-1387000D01*
X965000Y-1427000D02*
X1015000Y-1427000D01*
X1015000Y-1347000D02*
G75*
G02*
X1015000Y-1427000I0J-40000D01*
G01*
X1015000Y-1347000D02*
X965000Y-1347000D01*
X965000Y-1347000D02*
G75*
G03*
X965000Y-1427000I0J-40000D01*
G01*
X990000Y-2233000D02*
X990000Y-2313000D01*
X950000Y-2273000D02*
X1030000Y-2273000D01*
X965000Y-2313000D02*
X1015000Y-2313000D01*
X1015000Y-2233000D02*
G75*
G02*
X1015000Y-2313000I0J-40000D01*
G01*
X1015000Y-2233000D02*
X965000Y-2233000D01*
X965000Y-2233000D02*
G75*
G03*
X965000Y-2313000I0J-40000D01*
G01*
X990000Y-2527000D02*
X990000Y-2607000D01*
X950000Y-2567000D02*
X1030000Y-2567000D01*
X965000Y-2607000D02*
X1015000Y-2607000D01*
X1015000Y-2527000D02*
G75*
G02*
X1015000Y-2607000I0J-40000D01*
G01*
X1015000Y-2527000D02*
X965000Y-2527000D01*
X965000Y-2527000D02*
G75*
G03*
X965000Y-2607000I0J-40000D01*
G01*
X990000Y-3413000D02*
X990000Y-3493000D01*
X950000Y-3453000D02*
X1030000Y-3453000D01*
X965000Y-3493000D02*
X1015000Y-3493000D01*
X1015000Y-3413000D02*
G75*
G02*
X1015000Y-3493000I0J-40000D01*
G01*
X1015000Y-3413000D02*
X965000Y-3413000D01*
X965000Y-3413000D02*
G75*
G03*
X965000Y-3493000I0J-40000D01*
G01*
X990000Y-3707000D02*
X990000Y-3787000D01*
X950000Y-3747000D02*
X1030000Y-3747000D01*
X965000Y-3787000D02*
X1015000Y-3787000D01*
X1015000Y-3707000D02*
G75*
G02*
X1015000Y-3787000I0J-40000D01*
G01*
X1015000Y-3707000D02*
X965000Y-3707000D01*
X965000Y-3707000D02*
G75*
G03*
X965000Y-3787000I0J-40000D01*
G01*
X1810000Y-1053000D02*
X1810000Y-1133000D01*
X1770000Y-1093000D02*
X1850000Y-1093000D01*
X1785000Y-1133000D02*
X1835000Y-1133000D01*
X1835000Y-1053000D02*
G75*
G02*
X1835000Y-1133000I0J-40000D01*
G01*
X1835000Y-1053000D02*
X1785000Y-1053000D01*
X1785000Y-1053000D02*
G75*
G03*
X1785000Y-1133000I0J-40000D01*
G01*
X1810000Y-1347000D02*
X1810000Y-1427000D01*
X1770000Y-1387000D02*
X1850000Y-1387000D01*
X1785000Y-1427000D02*
X1835000Y-1427000D01*
X1835000Y-1347000D02*
G75*
G02*
X1835000Y-1427000I0J-40000D01*
G01*
X1835000Y-1347000D02*
X1785000Y-1347000D01*
X1785000Y-1347000D02*
G75*
G03*
X1785000Y-1427000I0J-40000D01*
G01*
X1810000Y-2233000D02*
X1810000Y-2313000D01*
X1770000Y-2273000D02*
X1850000Y-2273000D01*
X1785000Y-2313000D02*
X1835000Y-2313000D01*
X1835000Y-2233000D02*
G75*
G02*
X1835000Y-2313000I0J-40000D01*
G01*
X1835000Y-2233000D02*
X1785000Y-2233000D01*
X1785000Y-2233000D02*
G75*
G03*
X1785000Y-2313000I0J-40000D01*
G01*
X1810000Y-2527000D02*
X1810000Y-2607000D01*
X1770000Y-2567000D02*
X1850000Y-2567000D01*
X1785000Y-2607000D02*
X1835000Y-2607000D01*
X1835000Y-2527000D02*
G75*
G02*
X1835000Y-2607000I0J-40000D01*
G01*
X1835000Y-2527000D02*
X1785000Y-2527000D01*
X1785000Y-2527000D02*
G75*
G03*
X1785000Y-2607000I0J-40000D01*
G01*
X1810000Y-3413000D02*
X1810000Y-3493000D01*
X1770000Y-3453000D02*
X1850000Y-3453000D01*
X1785000Y-3493000D02*
X1835000Y-3493000D01*
X1835000Y-3413000D02*
G75*
G02*
X1835000Y-3493000I0J-40000D01*
G01*
X1835000Y-3413000D02*
X1785000Y-3413000D01*
X1785000Y-3413000D02*
G75*
G03*
X1785000Y-3493000I0J-40000D01*
G01*
X1810000Y-3707000D02*
X1810000Y-3787000D01*
X1770000Y-3747000D02*
X1850000Y-3747000D01*
X1785000Y-3787000D02*
X1835000Y-3787000D01*
X1835000Y-3707000D02*
G75*
G02*
X1835000Y-3787000I0J-40000D01*
G01*
X1835000Y-3707000D02*
X1785000Y-3707000D01*
X1785000Y-3707000D02*
G75*
G03*
X1785000Y-3787000I0J-40000D01*
G01*
X5304200Y-1053000D02*
X5304200Y-1133000D01*
X5264200Y-1093000D02*
X5344200Y-1093000D01*
X5279200Y-1133000D02*
X5329200Y-1133000D01*
X5329200Y-1053000D02*
G75*
G02*
X5329200Y-1133000I0J-40000D01*
G01*
X5329200Y-1053000D02*
X5279200Y-1053000D01*
X5279200Y-1053000D02*
G75*
G03*
X5279200Y-1133000I0J-40000D01*
G01*
X5304200Y-1347000D02*
X5304200Y-1427000D01*
X5264200Y-1387000D02*
X5344200Y-1387000D01*
X5279200Y-1427000D02*
X5329200Y-1427000D01*
X5329200Y-1347000D02*
G75*
G02*
X5329200Y-1427000I0J-40000D01*
G01*
X5329200Y-1347000D02*
X5279200Y-1347000D01*
X5279200Y-1347000D02*
G75*
G03*
X5279200Y-1427000I0J-40000D01*
G01*
X5304200Y-2233000D02*
X5304200Y-2313000D01*
X5264200Y-2273000D02*
X5344200Y-2273000D01*
X5279200Y-2313000D02*
X5329200Y-2313000D01*
X5329200Y-2233000D02*
G75*
G02*
X5329200Y-2313000I0J-40000D01*
G01*
X5329200Y-2233000D02*
X5279200Y-2233000D01*
X5279200Y-2233000D02*
G75*
G03*
X5279200Y-2313000I0J-40000D01*
G01*
X5304200Y-2527000D02*
X5304200Y-2607000D01*
X5264200Y-2567000D02*
X5344200Y-2567000D01*
X5279200Y-2607000D02*
X5329200Y-2607000D01*
X5329200Y-2527000D02*
G75*
G02*
X5329200Y-2607000I0J-40000D01*
G01*
X5329200Y-2527000D02*
X5279200Y-2527000D01*
X5279200Y-2527000D02*
G75*
G03*
X5279200Y-2607000I0J-40000D01*
G01*
X5304200Y-3413000D02*
X5304200Y-3493000D01*
X5264200Y-3453000D02*
X5344200Y-3453000D01*
X5279200Y-3493000D02*
X5329200Y-3493000D01*
X5329200Y-3413000D02*
G75*
G02*
X5329200Y-3493000I0J-40000D01*
G01*
X5329200Y-3413000D02*
X5279200Y-3413000D01*
X5279200Y-3413000D02*
G75*
G03*
X5279200Y-3493000I0J-40000D01*
G01*
X5304200Y-3707000D02*
X5304200Y-3787000D01*
X5264200Y-3747000D02*
X5344200Y-3747000D01*
X5279200Y-3787000D02*
X5329200Y-3787000D01*
X5329200Y-3707000D02*
G75*
G02*
X5329200Y-3787000I0J-40000D01*
G01*
X5329200Y-3707000D02*
X5279200Y-3707000D01*
X5279200Y-3707000D02*
G75*
G03*
X5279200Y-3787000I0J-40000D01*
G01*
X6124200Y-1053000D02*
X6124200Y-1133000D01*
X6084200Y-1093000D02*
X6164200Y-1093000D01*
X6099200Y-1133000D02*
X6149200Y-1133000D01*
X6149200Y-1053000D02*
G75*
G02*
X6149200Y-1133000I0J-40000D01*
G01*
X6149200Y-1053000D02*
X6099200Y-1053000D01*
X6099200Y-1053000D02*
G75*
G03*
X6099200Y-1133000I0J-40000D01*
G01*
X6124200Y-1347000D02*
X6124200Y-1427000D01*
X6084200Y-1387000D02*
X6164200Y-1387000D01*
X6099200Y-1427000D02*
X6149200Y-1427000D01*
X6149200Y-1347000D02*
G75*
G02*
X6149200Y-1427000I0J-40000D01*
G01*
X6149200Y-1347000D02*
X6099200Y-1347000D01*
X6099200Y-1347000D02*
G75*
G03*
X6099200Y-1427000I0J-40000D01*
G01*
X6124200Y-2233000D02*
X6124200Y-2313000D01*
X6084200Y-2273000D02*
X6164200Y-2273000D01*
X6099200Y-2313000D02*
X6149200Y-2313000D01*
X6149200Y-2233000D02*
G75*
G02*
X6149200Y-2313000I0J-40000D01*
G01*
X6149200Y-2233000D02*
X6099200Y-2233000D01*
X6099200Y-2233000D02*
G75*
G03*
X6099200Y-2313000I0J-40000D01*
G01*
X6124200Y-2527000D02*
X6124200Y-2607000D01*
X6084200Y-2567000D02*
X6164200Y-2567000D01*
X6099200Y-2607000D02*
X6149200Y-2607000D01*
X6149200Y-2527000D02*
G75*
G02*
X6149200Y-2607000I0J-40000D01*
G01*
X6149200Y-2527000D02*
X6099200Y-2527000D01*
X6099200Y-2527000D02*
G75*
G03*
X6099200Y-2607000I0J-40000D01*
G01*
X6124200Y-3413000D02*
X6124200Y-3493000D01*
X6084200Y-3453000D02*
X6164200Y-3453000D01*
X6099200Y-3493000D02*
X6149200Y-3493000D01*
X6149200Y-3413000D02*
G75*
G02*
X6149200Y-3493000I0J-40000D01*
G01*
X6149200Y-3413000D02*
X6099200Y-3413000D01*
X6099200Y-3413000D02*
G75*
G03*
X6099200Y-3493000I0J-40000D01*
G01*
X6124200Y-3707000D02*
X6124200Y-3787000D01*
X6084200Y-3747000D02*
X6164200Y-3747000D01*
X6099200Y-3787000D02*
X6149200Y-3787000D01*
X6149200Y-3707000D02*
G75*
G02*
X6149200Y-3787000I0J-40000D01*
G01*
X6149200Y-3707000D02*
X6099200Y-3707000D01*
X6099200Y-3707000D02*
G75*
G03*
X6099200Y-3787000I0J-40000D01*
G01*
D13*
X1080962Y-4960963D02*
X1080962Y-4869038D01*
X989038Y-4869038D01*
X989038Y-4960963D01*
X1080962Y-4960963D01*
X1805962Y-4630963D02*
X1805962Y-4539038D01*
X1714038Y-4539038D01*
X1714038Y-4630963D01*
X1805962Y-4630963D01*
X2530962Y-4960963D02*
X2530962Y-4869038D01*
X2439038Y-4869038D01*
X2439038Y-4960963D01*
X2530962Y-4960963D01*
D11*
X258277Y-10123984D02*
X258277Y-9923984D01*
X258277Y-9923984D02*
X305896Y-9923984D01*
X305896Y-9923984D02*
X334467Y-9933508D01*
X334467Y-9933508D02*
X353515Y-9952555D01*
X353515Y-9952555D02*
X363039Y-9971603D01*
X363039Y-9971603D02*
X372562Y-10009698D01*
X372562Y-10009698D02*
X372562Y-10038270D01*
X372562Y-10038270D02*
X363039Y-10076365D01*
X363039Y-10076365D02*
X353515Y-10095412D01*
X353515Y-10095412D02*
X334467Y-10114460D01*
X334467Y-10114460D02*
X305896Y-10123984D01*
X305896Y-10123984D02*
X258277Y-10123984D01*
X458277Y-10123984D02*
X458277Y-9990650D01*
X458277Y-10028746D02*
X467801Y-10009698D01*
X467801Y-10009698D02*
X477324Y-10000174D01*
X477324Y-10000174D02*
X496372Y-9990650D01*
X496372Y-9990650D02*
X515420Y-9990650D01*
X582086Y-10123984D02*
X582086Y-9990650D01*
X582086Y-9923984D02*
X572563Y-9933508D01*
X572563Y-9933508D02*
X582086Y-9943031D01*
X582086Y-9943031D02*
X591610Y-9933508D01*
X591610Y-9933508D02*
X582086Y-9923984D01*
X582086Y-9923984D02*
X582086Y-9943031D01*
X705896Y-10123984D02*
X686848Y-10114460D01*
X686848Y-10114460D02*
X677324Y-10095412D01*
X677324Y-10095412D02*
X677324Y-9923984D01*
X810658Y-10123984D02*
X791610Y-10114460D01*
X791610Y-10114460D02*
X782086Y-10095412D01*
X782086Y-10095412D02*
X782086Y-9923984D01*
X1039229Y-10123984D02*
X1039229Y-9923984D01*
X1039229Y-9923984D02*
X1105896Y-10066841D01*
X1105896Y-10066841D02*
X1172563Y-9923984D01*
X1172563Y-9923984D02*
X1172563Y-10123984D01*
X1353515Y-10123984D02*
X1353515Y-10019222D01*
X1353515Y-10019222D02*
X1343991Y-10000174D01*
X1343991Y-10000174D02*
X1324944Y-9990650D01*
X1324944Y-9990650D02*
X1286848Y-9990650D01*
X1286848Y-9990650D02*
X1267801Y-10000174D01*
X1353515Y-10114460D02*
X1334467Y-10123984D01*
X1334467Y-10123984D02*
X1286848Y-10123984D01*
X1286848Y-10123984D02*
X1267801Y-10114460D01*
X1267801Y-10114460D02*
X1258277Y-10095412D01*
X1258277Y-10095412D02*
X1258277Y-10076365D01*
X1258277Y-10076365D02*
X1267801Y-10057317D01*
X1267801Y-10057317D02*
X1286848Y-10047793D01*
X1286848Y-10047793D02*
X1334467Y-10047793D01*
X1334467Y-10047793D02*
X1353515Y-10038270D01*
X1448753Y-9990650D02*
X1448753Y-10190650D01*
X1448753Y-10000174D02*
X1467801Y-9990650D01*
X1467801Y-9990650D02*
X1505896Y-9990650D01*
X1505896Y-9990650D02*
X1524943Y-10000174D01*
X1524943Y-10000174D02*
X1534467Y-10009698D01*
X1534467Y-10009698D02*
X1543991Y-10028746D01*
X1543991Y-10028746D02*
X1543991Y-10085889D01*
X1543991Y-10085889D02*
X1534467Y-10104936D01*
X1534467Y-10104936D02*
X1524943Y-10114460D01*
X1524943Y-10114460D02*
X1505896Y-10123984D01*
X1505896Y-10123984D02*
X1467801Y-10123984D01*
X1467801Y-10123984D02*
X1448753Y-10114460D01*
X1629705Y-10104936D02*
X1639229Y-10114460D01*
X1639229Y-10114460D02*
X1629705Y-10123984D01*
X1629705Y-10123984D02*
X1620182Y-10114460D01*
X1620182Y-10114460D02*
X1629705Y-10104936D01*
X1629705Y-10104936D02*
X1629705Y-10123984D01*
X1629705Y-10000174D02*
X1639229Y-10009698D01*
X1639229Y-10009698D02*
X1629705Y-10019222D01*
X1629705Y-10019222D02*
X1620182Y-10009698D01*
X1620182Y-10009698D02*
X1629705Y-10000174D01*
X1629705Y-10000174D02*
X1629705Y-10019222D01*
D12*
X-22500Y-10442500D02*
X-2500Y-10462500D01*
X-2500Y-10442500D02*
X-22500Y-10462500D01*
D11*
X296372Y-10343984D02*
X315420Y-10343984D01*
X315420Y-10343984D02*
X334467Y-10353508D01*
X334467Y-10353508D02*
X343991Y-10363031D01*
X343991Y-10363031D02*
X353515Y-10382079D01*
X353515Y-10382079D02*
X363039Y-10420174D01*
X363039Y-10420174D02*
X363039Y-10467793D01*
X363039Y-10467793D02*
X353515Y-10505889D01*
X353515Y-10505889D02*
X343991Y-10524936D01*
X343991Y-10524936D02*
X334467Y-10534460D01*
X334467Y-10534460D02*
X315420Y-10543984D01*
X315420Y-10543984D02*
X296372Y-10543984D01*
X296372Y-10543984D02*
X277324Y-10534460D01*
X277324Y-10534460D02*
X267801Y-10524936D01*
X267801Y-10524936D02*
X258277Y-10505889D01*
X258277Y-10505889D02*
X248753Y-10467793D01*
X248753Y-10467793D02*
X248753Y-10420174D01*
X248753Y-10420174D02*
X258277Y-10382079D01*
X258277Y-10382079D02*
X267801Y-10363031D01*
X267801Y-10363031D02*
X277324Y-10353508D01*
X277324Y-10353508D02*
X296372Y-10343984D01*
X448753Y-10524936D02*
X458277Y-10534460D01*
X458277Y-10534460D02*
X448753Y-10543984D01*
X448753Y-10543984D02*
X439229Y-10534460D01*
X439229Y-10534460D02*
X448753Y-10524936D01*
X448753Y-10524936D02*
X448753Y-10543984D01*
X534467Y-10363031D02*
X543991Y-10353508D01*
X543991Y-10353508D02*
X563039Y-10343984D01*
X563039Y-10343984D02*
X610658Y-10343984D01*
X610658Y-10343984D02*
X629705Y-10353508D01*
X629705Y-10353508D02*
X639229Y-10363031D01*
X639229Y-10363031D02*
X648753Y-10382079D01*
X648753Y-10382079D02*
X648753Y-10401127D01*
X648753Y-10401127D02*
X639229Y-10429698D01*
X639229Y-10429698D02*
X524944Y-10543984D01*
X524944Y-10543984D02*
X648753Y-10543984D01*
X772562Y-10343984D02*
X791610Y-10343984D01*
X791610Y-10343984D02*
X810658Y-10353508D01*
X810658Y-10353508D02*
X820182Y-10363031D01*
X820182Y-10363031D02*
X829705Y-10382079D01*
X829705Y-10382079D02*
X839229Y-10420174D01*
X839229Y-10420174D02*
X839229Y-10467793D01*
X839229Y-10467793D02*
X829705Y-10505889D01*
X829705Y-10505889D02*
X820182Y-10524936D01*
X820182Y-10524936D02*
X810658Y-10534460D01*
X810658Y-10534460D02*
X791610Y-10543984D01*
X791610Y-10543984D02*
X772562Y-10543984D01*
X772562Y-10543984D02*
X753515Y-10534460D01*
X753515Y-10534460D02*
X743991Y-10524936D01*
X743991Y-10524936D02*
X734467Y-10505889D01*
X734467Y-10505889D02*
X724943Y-10467793D01*
X724943Y-10467793D02*
X724943Y-10420174D01*
X724943Y-10420174D02*
X734467Y-10382079D01*
X734467Y-10382079D02*
X743991Y-10363031D01*
X743991Y-10363031D02*
X753515Y-10353508D01*
X753515Y-10353508D02*
X772562Y-10343984D01*
X963039Y-10343984D02*
X982086Y-10343984D01*
X982086Y-10343984D02*
X1001134Y-10353508D01*
X1001134Y-10353508D02*
X1010658Y-10363031D01*
X1010658Y-10363031D02*
X1020182Y-10382079D01*
X1020182Y-10382079D02*
X1029705Y-10420174D01*
X1029705Y-10420174D02*
X1029705Y-10467793D01*
X1029705Y-10467793D02*
X1020182Y-10505889D01*
X1020182Y-10505889D02*
X1010658Y-10524936D01*
X1010658Y-10524936D02*
X1001134Y-10534460D01*
X1001134Y-10534460D02*
X982086Y-10543984D01*
X982086Y-10543984D02*
X963039Y-10543984D01*
X963039Y-10543984D02*
X943991Y-10534460D01*
X943991Y-10534460D02*
X934467Y-10524936D01*
X934467Y-10524936D02*
X924943Y-10505889D01*
X924943Y-10505889D02*
X915420Y-10467793D01*
X915420Y-10467793D02*
X915420Y-10420174D01*
X915420Y-10420174D02*
X924943Y-10382079D01*
X924943Y-10382079D02*
X934467Y-10363031D01*
X934467Y-10363031D02*
X943991Y-10353508D01*
X943991Y-10353508D02*
X963039Y-10343984D01*
X1115420Y-10543984D02*
X1115420Y-10410650D01*
X1115420Y-10429698D02*
X1124944Y-10420174D01*
X1124944Y-10420174D02*
X1143991Y-10410650D01*
X1143991Y-10410650D02*
X1172563Y-10410650D01*
X1172563Y-10410650D02*
X1191610Y-10420174D01*
X1191610Y-10420174D02*
X1201134Y-10439222D01*
X1201134Y-10439222D02*
X1201134Y-10543984D01*
X1201134Y-10439222D02*
X1210658Y-10420174D01*
X1210658Y-10420174D02*
X1229705Y-10410650D01*
X1229705Y-10410650D02*
X1258277Y-10410650D01*
X1258277Y-10410650D02*
X1277325Y-10420174D01*
X1277325Y-10420174D02*
X1286848Y-10439222D01*
X1286848Y-10439222D02*
X1286848Y-10543984D01*
X1382086Y-10543984D02*
X1382086Y-10410650D01*
X1382086Y-10429698D02*
X1391610Y-10420174D01*
X1391610Y-10420174D02*
X1410658Y-10410650D01*
X1410658Y-10410650D02*
X1439229Y-10410650D01*
X1439229Y-10410650D02*
X1458277Y-10420174D01*
X1458277Y-10420174D02*
X1467801Y-10439222D01*
X1467801Y-10439222D02*
X1467801Y-10543984D01*
X1467801Y-10439222D02*
X1477324Y-10420174D01*
X1477324Y-10420174D02*
X1496372Y-10410650D01*
X1496372Y-10410650D02*
X1524943Y-10410650D01*
X1524943Y-10410650D02*
X1543991Y-10420174D01*
X1543991Y-10420174D02*
X1553515Y-10439222D01*
X1553515Y-10439222D02*
X1553515Y-10543984D01*
X1943991Y-10334460D02*
X1772563Y-10591603D01*
X2201134Y-10343984D02*
X2220182Y-10343984D01*
X2220182Y-10343984D02*
X2239229Y-10353508D01*
X2239229Y-10353508D02*
X2248753Y-10363031D01*
X2248753Y-10363031D02*
X2258277Y-10382079D01*
X2258277Y-10382079D02*
X2267801Y-10420174D01*
X2267801Y-10420174D02*
X2267801Y-10467793D01*
X2267801Y-10467793D02*
X2258277Y-10505889D01*
X2258277Y-10505889D02*
X2248753Y-10524936D01*
X2248753Y-10524936D02*
X2239229Y-10534460D01*
X2239229Y-10534460D02*
X2220182Y-10543984D01*
X2220182Y-10543984D02*
X2201134Y-10543984D01*
X2201134Y-10543984D02*
X2182087Y-10534460D01*
X2182087Y-10534460D02*
X2172563Y-10524936D01*
X2172563Y-10524936D02*
X2163039Y-10505889D01*
X2163039Y-10505889D02*
X2153515Y-10467793D01*
X2153515Y-10467793D02*
X2153515Y-10420174D01*
X2153515Y-10420174D02*
X2163039Y-10382079D01*
X2163039Y-10382079D02*
X2172563Y-10363031D01*
X2172563Y-10363031D02*
X2182087Y-10353508D01*
X2182087Y-10353508D02*
X2201134Y-10343984D01*
X2353515Y-10524936D02*
X2363039Y-10534460D01*
X2363039Y-10534460D02*
X2353515Y-10543984D01*
X2353515Y-10543984D02*
X2343991Y-10534460D01*
X2343991Y-10534460D02*
X2353515Y-10524936D01*
X2353515Y-10524936D02*
X2353515Y-10543984D01*
X2486848Y-10343984D02*
X2505896Y-10343984D01*
X2505896Y-10343984D02*
X2524944Y-10353508D01*
X2524944Y-10353508D02*
X2534468Y-10363031D01*
X2534468Y-10363031D02*
X2543991Y-10382079D01*
X2543991Y-10382079D02*
X2553515Y-10420174D01*
X2553515Y-10420174D02*
X2553515Y-10467793D01*
X2553515Y-10467793D02*
X2543991Y-10505889D01*
X2543991Y-10505889D02*
X2534468Y-10524936D01*
X2534468Y-10524936D02*
X2524944Y-10534460D01*
X2524944Y-10534460D02*
X2505896Y-10543984D01*
X2505896Y-10543984D02*
X2486848Y-10543984D01*
X2486848Y-10543984D02*
X2467801Y-10534460D01*
X2467801Y-10534460D02*
X2458277Y-10524936D01*
X2458277Y-10524936D02*
X2448753Y-10505889D01*
X2448753Y-10505889D02*
X2439229Y-10467793D01*
X2439229Y-10467793D02*
X2439229Y-10420174D01*
X2439229Y-10420174D02*
X2448753Y-10382079D01*
X2448753Y-10382079D02*
X2458277Y-10363031D01*
X2458277Y-10363031D02*
X2467801Y-10353508D01*
X2467801Y-10353508D02*
X2486848Y-10343984D01*
X2677325Y-10343984D02*
X2696372Y-10343984D01*
X2696372Y-10343984D02*
X2715420Y-10353508D01*
X2715420Y-10353508D02*
X2724944Y-10363031D01*
X2724944Y-10363031D02*
X2734468Y-10382079D01*
X2734468Y-10382079D02*
X2743991Y-10420174D01*
X2743991Y-10420174D02*
X2743991Y-10467793D01*
X2743991Y-10467793D02*
X2734468Y-10505889D01*
X2734468Y-10505889D02*
X2724944Y-10524936D01*
X2724944Y-10524936D02*
X2715420Y-10534460D01*
X2715420Y-10534460D02*
X2696372Y-10543984D01*
X2696372Y-10543984D02*
X2677325Y-10543984D01*
X2677325Y-10543984D02*
X2658277Y-10534460D01*
X2658277Y-10534460D02*
X2648753Y-10524936D01*
X2648753Y-10524936D02*
X2639229Y-10505889D01*
X2639229Y-10505889D02*
X2629706Y-10467793D01*
X2629706Y-10467793D02*
X2629706Y-10420174D01*
X2629706Y-10420174D02*
X2639229Y-10382079D01*
X2639229Y-10382079D02*
X2648753Y-10363031D01*
X2648753Y-10363031D02*
X2658277Y-10353508D01*
X2658277Y-10353508D02*
X2677325Y-10343984D01*
X2810658Y-10343984D02*
X2943991Y-10343984D01*
X2943991Y-10343984D02*
X2858277Y-10543984D01*
X3029706Y-10543984D02*
X3067801Y-10543984D01*
X3067801Y-10543984D02*
X3086848Y-10534460D01*
X3086848Y-10534460D02*
X3096372Y-10524936D01*
X3096372Y-10524936D02*
X3115420Y-10496365D01*
X3115420Y-10496365D02*
X3124944Y-10458270D01*
X3124944Y-10458270D02*
X3124944Y-10382079D01*
X3124944Y-10382079D02*
X3115420Y-10363031D01*
X3115420Y-10363031D02*
X3105896Y-10353508D01*
X3105896Y-10353508D02*
X3086848Y-10343984D01*
X3086848Y-10343984D02*
X3048753Y-10343984D01*
X3048753Y-10343984D02*
X3029706Y-10353508D01*
X3029706Y-10353508D02*
X3020182Y-10363031D01*
X3020182Y-10363031D02*
X3010658Y-10382079D01*
X3010658Y-10382079D02*
X3010658Y-10429698D01*
X3010658Y-10429698D02*
X3020182Y-10448746D01*
X3020182Y-10448746D02*
X3029706Y-10458270D01*
X3029706Y-10458270D02*
X3048753Y-10467793D01*
X3048753Y-10467793D02*
X3086848Y-10467793D01*
X3086848Y-10467793D02*
X3105896Y-10458270D01*
X3105896Y-10458270D02*
X3115420Y-10448746D01*
X3115420Y-10448746D02*
X3124944Y-10429698D01*
X3201134Y-10343984D02*
X3201134Y-10382079D01*
X3277325Y-10343984D02*
X3277325Y-10382079D01*
X3572563Y-10620174D02*
X3563039Y-10610650D01*
X3563039Y-10610650D02*
X3543991Y-10582079D01*
X3543991Y-10582079D02*
X3534468Y-10563031D01*
X3534468Y-10563031D02*
X3524944Y-10534460D01*
X3524944Y-10534460D02*
X3515420Y-10486841D01*
X3515420Y-10486841D02*
X3515420Y-10448746D01*
X3515420Y-10448746D02*
X3524944Y-10401127D01*
X3524944Y-10401127D02*
X3534468Y-10372555D01*
X3534468Y-10372555D02*
X3543991Y-10353508D01*
X3543991Y-10353508D02*
X3563039Y-10324936D01*
X3563039Y-10324936D02*
X3572563Y-10315412D01*
X3743991Y-10343984D02*
X3648753Y-10343984D01*
X3648753Y-10343984D02*
X3639229Y-10439222D01*
X3639229Y-10439222D02*
X3648753Y-10429698D01*
X3648753Y-10429698D02*
X3667801Y-10420174D01*
X3667801Y-10420174D02*
X3715420Y-10420174D01*
X3715420Y-10420174D02*
X3734468Y-10429698D01*
X3734468Y-10429698D02*
X3743991Y-10439222D01*
X3743991Y-10439222D02*
X3753515Y-10458270D01*
X3753515Y-10458270D02*
X3753515Y-10505889D01*
X3753515Y-10505889D02*
X3743991Y-10524936D01*
X3743991Y-10524936D02*
X3734468Y-10534460D01*
X3734468Y-10534460D02*
X3715420Y-10543984D01*
X3715420Y-10543984D02*
X3667801Y-10543984D01*
X3667801Y-10543984D02*
X3648753Y-10534460D01*
X3648753Y-10534460D02*
X3639229Y-10524936D01*
X3924944Y-10410650D02*
X3924944Y-10543984D01*
X3877325Y-10334460D02*
X3829706Y-10477317D01*
X3829706Y-10477317D02*
X3953515Y-10477317D01*
X4182087Y-10543984D02*
X4182087Y-10343984D01*
X4267801Y-10543984D02*
X4267801Y-10439222D01*
X4267801Y-10439222D02*
X4258277Y-10420174D01*
X4258277Y-10420174D02*
X4239230Y-10410650D01*
X4239230Y-10410650D02*
X4210658Y-10410650D01*
X4210658Y-10410650D02*
X4191610Y-10420174D01*
X4191610Y-10420174D02*
X4182087Y-10429698D01*
X4391611Y-10543984D02*
X4372563Y-10534460D01*
X4372563Y-10534460D02*
X4363039Y-10524936D01*
X4363039Y-10524936D02*
X4353515Y-10505889D01*
X4353515Y-10505889D02*
X4353515Y-10448746D01*
X4353515Y-10448746D02*
X4363039Y-10429698D01*
X4363039Y-10429698D02*
X4372563Y-10420174D01*
X4372563Y-10420174D02*
X4391611Y-10410650D01*
X4391611Y-10410650D02*
X4420182Y-10410650D01*
X4420182Y-10410650D02*
X4439230Y-10420174D01*
X4439230Y-10420174D02*
X4448753Y-10429698D01*
X4448753Y-10429698D02*
X4458277Y-10448746D01*
X4458277Y-10448746D02*
X4458277Y-10505889D01*
X4458277Y-10505889D02*
X4448753Y-10524936D01*
X4448753Y-10524936D02*
X4439230Y-10534460D01*
X4439230Y-10534460D02*
X4420182Y-10543984D01*
X4420182Y-10543984D02*
X4391611Y-10543984D01*
X4572563Y-10543984D02*
X4553515Y-10534460D01*
X4553515Y-10534460D02*
X4543992Y-10515412D01*
X4543992Y-10515412D02*
X4543992Y-10343984D01*
X4724944Y-10534460D02*
X4705896Y-10543984D01*
X4705896Y-10543984D02*
X4667801Y-10543984D01*
X4667801Y-10543984D02*
X4648753Y-10534460D01*
X4648753Y-10534460D02*
X4639230Y-10515412D01*
X4639230Y-10515412D02*
X4639230Y-10439222D01*
X4639230Y-10439222D02*
X4648753Y-10420174D01*
X4648753Y-10420174D02*
X4667801Y-10410650D01*
X4667801Y-10410650D02*
X4705896Y-10410650D01*
X4705896Y-10410650D02*
X4724944Y-10420174D01*
X4724944Y-10420174D02*
X4734468Y-10439222D01*
X4734468Y-10439222D02*
X4734468Y-10458270D01*
X4734468Y-10458270D02*
X4639230Y-10477317D01*
X4810658Y-10534460D02*
X4829706Y-10543984D01*
X4829706Y-10543984D02*
X4867801Y-10543984D01*
X4867801Y-10543984D02*
X4886849Y-10534460D01*
X4886849Y-10534460D02*
X4896373Y-10515412D01*
X4896373Y-10515412D02*
X4896373Y-10505889D01*
X4896373Y-10505889D02*
X4886849Y-10486841D01*
X4886849Y-10486841D02*
X4867801Y-10477317D01*
X4867801Y-10477317D02*
X4839230Y-10477317D01*
X4839230Y-10477317D02*
X4820182Y-10467793D01*
X4820182Y-10467793D02*
X4810658Y-10448746D01*
X4810658Y-10448746D02*
X4810658Y-10439222D01*
X4810658Y-10439222D02*
X4820182Y-10420174D01*
X4820182Y-10420174D02*
X4839230Y-10410650D01*
X4839230Y-10410650D02*
X4867801Y-10410650D01*
X4867801Y-10410650D02*
X4886849Y-10420174D01*
X4963039Y-10620174D02*
X4972563Y-10610650D01*
X4972563Y-10610650D02*
X4991611Y-10582079D01*
X4991611Y-10582079D02*
X5001134Y-10563031D01*
X5001134Y-10563031D02*
X5010658Y-10534460D01*
X5010658Y-10534460D02*
X5020182Y-10486841D01*
X5020182Y-10486841D02*
X5020182Y-10448746D01*
X5020182Y-10448746D02*
X5010658Y-10401127D01*
X5010658Y-10401127D02*
X5001134Y-10372555D01*
X5001134Y-10372555D02*
X4991611Y-10353508D01*
X4991611Y-10353508D02*
X4972563Y-10324936D01*
X4972563Y-10324936D02*
X4963039Y-10315412D01*
D12*
X-2500Y-10716500D02*
G75*
G02*
X-32500Y-10716500I-15000J0D01*
G01*
X-32500Y-10716500D02*
G75*
G02*
X-2500Y-10716500I15000J0D01*
G01*
D11*
X296372Y-10607984D02*
X315420Y-10607984D01*
X315420Y-10607984D02*
X334467Y-10617508D01*
X334467Y-10617508D02*
X343991Y-10627031D01*
X343991Y-10627031D02*
X353515Y-10646079D01*
X353515Y-10646079D02*
X363039Y-10684174D01*
X363039Y-10684174D02*
X363039Y-10731793D01*
X363039Y-10731793D02*
X353515Y-10769889D01*
X353515Y-10769889D02*
X343991Y-10788936D01*
X343991Y-10788936D02*
X334467Y-10798460D01*
X334467Y-10798460D02*
X315420Y-10807984D01*
X315420Y-10807984D02*
X296372Y-10807984D01*
X296372Y-10807984D02*
X277324Y-10798460D01*
X277324Y-10798460D02*
X267801Y-10788936D01*
X267801Y-10788936D02*
X258277Y-10769889D01*
X258277Y-10769889D02*
X248753Y-10731793D01*
X248753Y-10731793D02*
X248753Y-10684174D01*
X248753Y-10684174D02*
X258277Y-10646079D01*
X258277Y-10646079D02*
X267801Y-10627031D01*
X267801Y-10627031D02*
X277324Y-10617508D01*
X277324Y-10617508D02*
X296372Y-10607984D01*
X448753Y-10788936D02*
X458277Y-10798460D01*
X458277Y-10798460D02*
X448753Y-10807984D01*
X448753Y-10807984D02*
X439229Y-10798460D01*
X439229Y-10798460D02*
X448753Y-10788936D01*
X448753Y-10788936D02*
X448753Y-10807984D01*
X524944Y-10607984D02*
X648753Y-10607984D01*
X648753Y-10607984D02*
X582086Y-10684174D01*
X582086Y-10684174D02*
X610658Y-10684174D01*
X610658Y-10684174D02*
X629705Y-10693698D01*
X629705Y-10693698D02*
X639229Y-10703222D01*
X639229Y-10703222D02*
X648753Y-10722270D01*
X648753Y-10722270D02*
X648753Y-10769889D01*
X648753Y-10769889D02*
X639229Y-10788936D01*
X639229Y-10788936D02*
X629705Y-10798460D01*
X629705Y-10798460D02*
X610658Y-10807984D01*
X610658Y-10807984D02*
X553515Y-10807984D01*
X553515Y-10807984D02*
X534467Y-10798460D01*
X534467Y-10798460D02*
X524944Y-10788936D01*
X772562Y-10607984D02*
X791610Y-10607984D01*
X791610Y-10607984D02*
X810658Y-10617508D01*
X810658Y-10617508D02*
X820182Y-10627031D01*
X820182Y-10627031D02*
X829705Y-10646079D01*
X829705Y-10646079D02*
X839229Y-10684174D01*
X839229Y-10684174D02*
X839229Y-10731793D01*
X839229Y-10731793D02*
X829705Y-10769889D01*
X829705Y-10769889D02*
X820182Y-10788936D01*
X820182Y-10788936D02*
X810658Y-10798460D01*
X810658Y-10798460D02*
X791610Y-10807984D01*
X791610Y-10807984D02*
X772562Y-10807984D01*
X772562Y-10807984D02*
X753515Y-10798460D01*
X753515Y-10798460D02*
X743991Y-10788936D01*
X743991Y-10788936D02*
X734467Y-10769889D01*
X734467Y-10769889D02*
X724943Y-10731793D01*
X724943Y-10731793D02*
X724943Y-10684174D01*
X724943Y-10684174D02*
X734467Y-10646079D01*
X734467Y-10646079D02*
X743991Y-10627031D01*
X743991Y-10627031D02*
X753515Y-10617508D01*
X753515Y-10617508D02*
X772562Y-10607984D01*
X963039Y-10607984D02*
X982086Y-10607984D01*
X982086Y-10607984D02*
X1001134Y-10617508D01*
X1001134Y-10617508D02*
X1010658Y-10627031D01*
X1010658Y-10627031D02*
X1020182Y-10646079D01*
X1020182Y-10646079D02*
X1029705Y-10684174D01*
X1029705Y-10684174D02*
X1029705Y-10731793D01*
X1029705Y-10731793D02*
X1020182Y-10769889D01*
X1020182Y-10769889D02*
X1010658Y-10788936D01*
X1010658Y-10788936D02*
X1001134Y-10798460D01*
X1001134Y-10798460D02*
X982086Y-10807984D01*
X982086Y-10807984D02*
X963039Y-10807984D01*
X963039Y-10807984D02*
X943991Y-10798460D01*
X943991Y-10798460D02*
X934467Y-10788936D01*
X934467Y-10788936D02*
X924943Y-10769889D01*
X924943Y-10769889D02*
X915420Y-10731793D01*
X915420Y-10731793D02*
X915420Y-10684174D01*
X915420Y-10684174D02*
X924943Y-10646079D01*
X924943Y-10646079D02*
X934467Y-10627031D01*
X934467Y-10627031D02*
X943991Y-10617508D01*
X943991Y-10617508D02*
X963039Y-10607984D01*
X1115420Y-10807984D02*
X1115420Y-10674650D01*
X1115420Y-10693698D02*
X1124944Y-10684174D01*
X1124944Y-10684174D02*
X1143991Y-10674650D01*
X1143991Y-10674650D02*
X1172563Y-10674650D01*
X1172563Y-10674650D02*
X1191610Y-10684174D01*
X1191610Y-10684174D02*
X1201134Y-10703222D01*
X1201134Y-10703222D02*
X1201134Y-10807984D01*
X1201134Y-10703222D02*
X1210658Y-10684174D01*
X1210658Y-10684174D02*
X1229705Y-10674650D01*
X1229705Y-10674650D02*
X1258277Y-10674650D01*
X1258277Y-10674650D02*
X1277325Y-10684174D01*
X1277325Y-10684174D02*
X1286848Y-10703222D01*
X1286848Y-10703222D02*
X1286848Y-10807984D01*
X1382086Y-10807984D02*
X1382086Y-10674650D01*
X1382086Y-10693698D02*
X1391610Y-10684174D01*
X1391610Y-10684174D02*
X1410658Y-10674650D01*
X1410658Y-10674650D02*
X1439229Y-10674650D01*
X1439229Y-10674650D02*
X1458277Y-10684174D01*
X1458277Y-10684174D02*
X1467801Y-10703222D01*
X1467801Y-10703222D02*
X1467801Y-10807984D01*
X1467801Y-10703222D02*
X1477324Y-10684174D01*
X1477324Y-10684174D02*
X1496372Y-10674650D01*
X1496372Y-10674650D02*
X1524943Y-10674650D01*
X1524943Y-10674650D02*
X1543991Y-10684174D01*
X1543991Y-10684174D02*
X1553515Y-10703222D01*
X1553515Y-10703222D02*
X1553515Y-10807984D01*
X1943991Y-10598460D02*
X1772563Y-10855603D01*
X2201134Y-10607984D02*
X2220182Y-10607984D01*
X2220182Y-10607984D02*
X2239229Y-10617508D01*
X2239229Y-10617508D02*
X2248753Y-10627031D01*
X2248753Y-10627031D02*
X2258277Y-10646079D01*
X2258277Y-10646079D02*
X2267801Y-10684174D01*
X2267801Y-10684174D02*
X2267801Y-10731793D01*
X2267801Y-10731793D02*
X2258277Y-10769889D01*
X2258277Y-10769889D02*
X2248753Y-10788936D01*
X2248753Y-10788936D02*
X2239229Y-10798460D01*
X2239229Y-10798460D02*
X2220182Y-10807984D01*
X2220182Y-10807984D02*
X2201134Y-10807984D01*
X2201134Y-10807984D02*
X2182087Y-10798460D01*
X2182087Y-10798460D02*
X2172563Y-10788936D01*
X2172563Y-10788936D02*
X2163039Y-10769889D01*
X2163039Y-10769889D02*
X2153515Y-10731793D01*
X2153515Y-10731793D02*
X2153515Y-10684174D01*
X2153515Y-10684174D02*
X2163039Y-10646079D01*
X2163039Y-10646079D02*
X2172563Y-10627031D01*
X2172563Y-10627031D02*
X2182087Y-10617508D01*
X2182087Y-10617508D02*
X2201134Y-10607984D01*
X2353515Y-10788936D02*
X2363039Y-10798460D01*
X2363039Y-10798460D02*
X2353515Y-10807984D01*
X2353515Y-10807984D02*
X2343991Y-10798460D01*
X2343991Y-10798460D02*
X2353515Y-10788936D01*
X2353515Y-10788936D02*
X2353515Y-10807984D01*
X2486848Y-10607984D02*
X2505896Y-10607984D01*
X2505896Y-10607984D02*
X2524944Y-10617508D01*
X2524944Y-10617508D02*
X2534468Y-10627031D01*
X2534468Y-10627031D02*
X2543991Y-10646079D01*
X2543991Y-10646079D02*
X2553515Y-10684174D01*
X2553515Y-10684174D02*
X2553515Y-10731793D01*
X2553515Y-10731793D02*
X2543991Y-10769889D01*
X2543991Y-10769889D02*
X2534468Y-10788936D01*
X2534468Y-10788936D02*
X2524944Y-10798460D01*
X2524944Y-10798460D02*
X2505896Y-10807984D01*
X2505896Y-10807984D02*
X2486848Y-10807984D01*
X2486848Y-10807984D02*
X2467801Y-10798460D01*
X2467801Y-10798460D02*
X2458277Y-10788936D01*
X2458277Y-10788936D02*
X2448753Y-10769889D01*
X2448753Y-10769889D02*
X2439229Y-10731793D01*
X2439229Y-10731793D02*
X2439229Y-10684174D01*
X2439229Y-10684174D02*
X2448753Y-10646079D01*
X2448753Y-10646079D02*
X2458277Y-10627031D01*
X2458277Y-10627031D02*
X2467801Y-10617508D01*
X2467801Y-10617508D02*
X2486848Y-10607984D01*
X2743991Y-10807984D02*
X2629706Y-10807984D01*
X2686848Y-10807984D02*
X2686848Y-10607984D01*
X2686848Y-10607984D02*
X2667801Y-10636555D01*
X2667801Y-10636555D02*
X2648753Y-10655603D01*
X2648753Y-10655603D02*
X2629706Y-10665127D01*
X2934467Y-10807984D02*
X2820182Y-10807984D01*
X2877325Y-10807984D02*
X2877325Y-10607984D01*
X2877325Y-10607984D02*
X2858277Y-10636555D01*
X2858277Y-10636555D02*
X2839229Y-10655603D01*
X2839229Y-10655603D02*
X2820182Y-10665127D01*
X3048753Y-10693698D02*
X3029706Y-10684174D01*
X3029706Y-10684174D02*
X3020182Y-10674650D01*
X3020182Y-10674650D02*
X3010658Y-10655603D01*
X3010658Y-10655603D02*
X3010658Y-10646079D01*
X3010658Y-10646079D02*
X3020182Y-10627031D01*
X3020182Y-10627031D02*
X3029706Y-10617508D01*
X3029706Y-10617508D02*
X3048753Y-10607984D01*
X3048753Y-10607984D02*
X3086848Y-10607984D01*
X3086848Y-10607984D02*
X3105896Y-10617508D01*
X3105896Y-10617508D02*
X3115420Y-10627031D01*
X3115420Y-10627031D02*
X3124944Y-10646079D01*
X3124944Y-10646079D02*
X3124944Y-10655603D01*
X3124944Y-10655603D02*
X3115420Y-10674650D01*
X3115420Y-10674650D02*
X3105896Y-10684174D01*
X3105896Y-10684174D02*
X3086848Y-10693698D01*
X3086848Y-10693698D02*
X3048753Y-10693698D01*
X3048753Y-10693698D02*
X3029706Y-10703222D01*
X3029706Y-10703222D02*
X3020182Y-10712746D01*
X3020182Y-10712746D02*
X3010658Y-10731793D01*
X3010658Y-10731793D02*
X3010658Y-10769889D01*
X3010658Y-10769889D02*
X3020182Y-10788936D01*
X3020182Y-10788936D02*
X3029706Y-10798460D01*
X3029706Y-10798460D02*
X3048753Y-10807984D01*
X3048753Y-10807984D02*
X3086848Y-10807984D01*
X3086848Y-10807984D02*
X3105896Y-10798460D01*
X3105896Y-10798460D02*
X3115420Y-10788936D01*
X3115420Y-10788936D02*
X3124944Y-10769889D01*
X3124944Y-10769889D02*
X3124944Y-10731793D01*
X3124944Y-10731793D02*
X3115420Y-10712746D01*
X3115420Y-10712746D02*
X3105896Y-10703222D01*
X3105896Y-10703222D02*
X3086848Y-10693698D01*
X3201134Y-10607984D02*
X3201134Y-10646079D01*
X3277325Y-10607984D02*
X3277325Y-10646079D01*
X3572563Y-10884174D02*
X3563039Y-10874650D01*
X3563039Y-10874650D02*
X3543991Y-10846079D01*
X3543991Y-10846079D02*
X3534468Y-10827031D01*
X3534468Y-10827031D02*
X3524944Y-10798460D01*
X3524944Y-10798460D02*
X3515420Y-10750841D01*
X3515420Y-10750841D02*
X3515420Y-10712746D01*
X3515420Y-10712746D02*
X3524944Y-10665127D01*
X3524944Y-10665127D02*
X3534468Y-10636555D01*
X3534468Y-10636555D02*
X3543991Y-10617508D01*
X3543991Y-10617508D02*
X3563039Y-10588936D01*
X3563039Y-10588936D02*
X3572563Y-10579412D01*
X3753515Y-10807984D02*
X3639229Y-10807984D01*
X3696372Y-10807984D02*
X3696372Y-10607984D01*
X3696372Y-10607984D02*
X3677325Y-10636555D01*
X3677325Y-10636555D02*
X3658277Y-10655603D01*
X3658277Y-10655603D02*
X3639229Y-10665127D01*
X3924944Y-10607984D02*
X3886848Y-10607984D01*
X3886848Y-10607984D02*
X3867801Y-10617508D01*
X3867801Y-10617508D02*
X3858277Y-10627031D01*
X3858277Y-10627031D02*
X3839229Y-10655603D01*
X3839229Y-10655603D02*
X3829706Y-10693698D01*
X3829706Y-10693698D02*
X3829706Y-10769889D01*
X3829706Y-10769889D02*
X3839229Y-10788936D01*
X3839229Y-10788936D02*
X3848753Y-10798460D01*
X3848753Y-10798460D02*
X3867801Y-10807984D01*
X3867801Y-10807984D02*
X3905896Y-10807984D01*
X3905896Y-10807984D02*
X3924944Y-10798460D01*
X3924944Y-10798460D02*
X3934468Y-10788936D01*
X3934468Y-10788936D02*
X3943991Y-10769889D01*
X3943991Y-10769889D02*
X3943991Y-10722270D01*
X3943991Y-10722270D02*
X3934468Y-10703222D01*
X3934468Y-10703222D02*
X3924944Y-10693698D01*
X3924944Y-10693698D02*
X3905896Y-10684174D01*
X3905896Y-10684174D02*
X3867801Y-10684174D01*
X3867801Y-10684174D02*
X3848753Y-10693698D01*
X3848753Y-10693698D02*
X3839229Y-10703222D01*
X3839229Y-10703222D02*
X3829706Y-10722270D01*
X4058277Y-10693698D02*
X4039229Y-10684174D01*
X4039229Y-10684174D02*
X4029706Y-10674650D01*
X4029706Y-10674650D02*
X4020182Y-10655603D01*
X4020182Y-10655603D02*
X4020182Y-10646079D01*
X4020182Y-10646079D02*
X4029706Y-10627031D01*
X4029706Y-10627031D02*
X4039229Y-10617508D01*
X4039229Y-10617508D02*
X4058277Y-10607984D01*
X4058277Y-10607984D02*
X4096372Y-10607984D01*
X4096372Y-10607984D02*
X4115420Y-10617508D01*
X4115420Y-10617508D02*
X4124944Y-10627031D01*
X4124944Y-10627031D02*
X4134468Y-10646079D01*
X4134468Y-10646079D02*
X4134468Y-10655603D01*
X4134468Y-10655603D02*
X4124944Y-10674650D01*
X4124944Y-10674650D02*
X4115420Y-10684174D01*
X4115420Y-10684174D02*
X4096372Y-10693698D01*
X4096372Y-10693698D02*
X4058277Y-10693698D01*
X4058277Y-10693698D02*
X4039229Y-10703222D01*
X4039229Y-10703222D02*
X4029706Y-10712746D01*
X4029706Y-10712746D02*
X4020182Y-10731793D01*
X4020182Y-10731793D02*
X4020182Y-10769889D01*
X4020182Y-10769889D02*
X4029706Y-10788936D01*
X4029706Y-10788936D02*
X4039229Y-10798460D01*
X4039229Y-10798460D02*
X4058277Y-10807984D01*
X4058277Y-10807984D02*
X4096372Y-10807984D01*
X4096372Y-10807984D02*
X4115420Y-10798460D01*
X4115420Y-10798460D02*
X4124944Y-10788936D01*
X4124944Y-10788936D02*
X4134468Y-10769889D01*
X4134468Y-10769889D02*
X4134468Y-10731793D01*
X4134468Y-10731793D02*
X4124944Y-10712746D01*
X4124944Y-10712746D02*
X4115420Y-10703222D01*
X4115420Y-10703222D02*
X4096372Y-10693698D01*
X4372563Y-10807984D02*
X4372563Y-10607984D01*
X4458277Y-10807984D02*
X4458277Y-10703222D01*
X4458277Y-10703222D02*
X4448753Y-10684174D01*
X4448753Y-10684174D02*
X4429706Y-10674650D01*
X4429706Y-10674650D02*
X4401134Y-10674650D01*
X4401134Y-10674650D02*
X4382087Y-10684174D01*
X4382087Y-10684174D02*
X4372563Y-10693698D01*
X4582087Y-10807984D02*
X4563039Y-10798460D01*
X4563039Y-10798460D02*
X4553515Y-10788936D01*
X4553515Y-10788936D02*
X4543992Y-10769889D01*
X4543992Y-10769889D02*
X4543992Y-10712746D01*
X4543992Y-10712746D02*
X4553515Y-10693698D01*
X4553515Y-10693698D02*
X4563039Y-10684174D01*
X4563039Y-10684174D02*
X4582087Y-10674650D01*
X4582087Y-10674650D02*
X4610658Y-10674650D01*
X4610658Y-10674650D02*
X4629706Y-10684174D01*
X4629706Y-10684174D02*
X4639230Y-10693698D01*
X4639230Y-10693698D02*
X4648753Y-10712746D01*
X4648753Y-10712746D02*
X4648753Y-10769889D01*
X4648753Y-10769889D02*
X4639230Y-10788936D01*
X4639230Y-10788936D02*
X4629706Y-10798460D01*
X4629706Y-10798460D02*
X4610658Y-10807984D01*
X4610658Y-10807984D02*
X4582087Y-10807984D01*
X4763039Y-10807984D02*
X4743992Y-10798460D01*
X4743992Y-10798460D02*
X4734468Y-10779412D01*
X4734468Y-10779412D02*
X4734468Y-10607984D01*
X4915420Y-10798460D02*
X4896373Y-10807984D01*
X4896373Y-10807984D02*
X4858277Y-10807984D01*
X4858277Y-10807984D02*
X4839230Y-10798460D01*
X4839230Y-10798460D02*
X4829706Y-10779412D01*
X4829706Y-10779412D02*
X4829706Y-10703222D01*
X4829706Y-10703222D02*
X4839230Y-10684174D01*
X4839230Y-10684174D02*
X4858277Y-10674650D01*
X4858277Y-10674650D02*
X4896373Y-10674650D01*
X4896373Y-10674650D02*
X4915420Y-10684174D01*
X4915420Y-10684174D02*
X4924944Y-10703222D01*
X4924944Y-10703222D02*
X4924944Y-10722270D01*
X4924944Y-10722270D02*
X4829706Y-10741317D01*
X5001134Y-10798460D02*
X5020182Y-10807984D01*
X5020182Y-10807984D02*
X5058277Y-10807984D01*
X5058277Y-10807984D02*
X5077325Y-10798460D01*
X5077325Y-10798460D02*
X5086849Y-10779412D01*
X5086849Y-10779412D02*
X5086849Y-10769889D01*
X5086849Y-10769889D02*
X5077325Y-10750841D01*
X5077325Y-10750841D02*
X5058277Y-10741317D01*
X5058277Y-10741317D02*
X5029706Y-10741317D01*
X5029706Y-10741317D02*
X5010658Y-10731793D01*
X5010658Y-10731793D02*
X5001134Y-10712746D01*
X5001134Y-10712746D02*
X5001134Y-10703222D01*
X5001134Y-10703222D02*
X5010658Y-10684174D01*
X5010658Y-10684174D02*
X5029706Y-10674650D01*
X5029706Y-10674650D02*
X5058277Y-10674650D01*
X5058277Y-10674650D02*
X5077325Y-10684174D01*
X5153515Y-10884174D02*
X5163039Y-10874650D01*
X5163039Y-10874650D02*
X5182087Y-10846079D01*
X5182087Y-10846079D02*
X5191611Y-10827031D01*
X5191611Y-10827031D02*
X5201134Y-10798460D01*
X5201134Y-10798460D02*
X5210658Y-10750841D01*
X5210658Y-10750841D02*
X5210658Y-10712746D01*
X5210658Y-10712746D02*
X5201134Y-10665127D01*
X5201134Y-10665127D02*
X5191611Y-10636555D01*
X5191611Y-10636555D02*
X5182087Y-10617508D01*
X5182087Y-10617508D02*
X5163039Y-10588936D01*
X5163039Y-10588936D02*
X5153515Y-10579412D01*
D12*
X-42500Y-10940500D02*
X-42500Y-11020500D01*
X-82500Y-10980500D02*
X-2500Y-10980500D01*
D11*
X296372Y-10871984D02*
X315420Y-10871984D01*
X315420Y-10871984D02*
X334467Y-10881508D01*
X334467Y-10881508D02*
X343991Y-10891031D01*
X343991Y-10891031D02*
X353515Y-10910079D01*
X353515Y-10910079D02*
X363039Y-10948174D01*
X363039Y-10948174D02*
X363039Y-10995793D01*
X363039Y-10995793D02*
X353515Y-11033889D01*
X353515Y-11033889D02*
X343991Y-11052936D01*
X343991Y-11052936D02*
X334467Y-11062460D01*
X334467Y-11062460D02*
X315420Y-11071984D01*
X315420Y-11071984D02*
X296372Y-11071984D01*
X296372Y-11071984D02*
X277324Y-11062460D01*
X277324Y-11062460D02*
X267801Y-11052936D01*
X267801Y-11052936D02*
X258277Y-11033889D01*
X258277Y-11033889D02*
X248753Y-10995793D01*
X248753Y-10995793D02*
X248753Y-10948174D01*
X248753Y-10948174D02*
X258277Y-10910079D01*
X258277Y-10910079D02*
X267801Y-10891031D01*
X267801Y-10891031D02*
X277324Y-10881508D01*
X277324Y-10881508D02*
X296372Y-10871984D01*
X448753Y-11052936D02*
X458277Y-11062460D01*
X458277Y-11062460D02*
X448753Y-11071984D01*
X448753Y-11071984D02*
X439229Y-11062460D01*
X439229Y-11062460D02*
X448753Y-11052936D01*
X448753Y-11052936D02*
X448753Y-11071984D01*
X572563Y-10957698D02*
X553515Y-10948174D01*
X553515Y-10948174D02*
X543991Y-10938650D01*
X543991Y-10938650D02*
X534467Y-10919603D01*
X534467Y-10919603D02*
X534467Y-10910079D01*
X534467Y-10910079D02*
X543991Y-10891031D01*
X543991Y-10891031D02*
X553515Y-10881508D01*
X553515Y-10881508D02*
X572563Y-10871984D01*
X572563Y-10871984D02*
X610658Y-10871984D01*
X610658Y-10871984D02*
X629705Y-10881508D01*
X629705Y-10881508D02*
X639229Y-10891031D01*
X639229Y-10891031D02*
X648753Y-10910079D01*
X648753Y-10910079D02*
X648753Y-10919603D01*
X648753Y-10919603D02*
X639229Y-10938650D01*
X639229Y-10938650D02*
X629705Y-10948174D01*
X629705Y-10948174D02*
X610658Y-10957698D01*
X610658Y-10957698D02*
X572563Y-10957698D01*
X572563Y-10957698D02*
X553515Y-10967222D01*
X553515Y-10967222D02*
X543991Y-10976746D01*
X543991Y-10976746D02*
X534467Y-10995793D01*
X534467Y-10995793D02*
X534467Y-11033889D01*
X534467Y-11033889D02*
X543991Y-11052936D01*
X543991Y-11052936D02*
X553515Y-11062460D01*
X553515Y-11062460D02*
X572563Y-11071984D01*
X572563Y-11071984D02*
X610658Y-11071984D01*
X610658Y-11071984D02*
X629705Y-11062460D01*
X629705Y-11062460D02*
X639229Y-11052936D01*
X639229Y-11052936D02*
X648753Y-11033889D01*
X648753Y-11033889D02*
X648753Y-10995793D01*
X648753Y-10995793D02*
X639229Y-10976746D01*
X639229Y-10976746D02*
X629705Y-10967222D01*
X629705Y-10967222D02*
X610658Y-10957698D01*
X772562Y-10871984D02*
X791610Y-10871984D01*
X791610Y-10871984D02*
X810658Y-10881508D01*
X810658Y-10881508D02*
X820182Y-10891031D01*
X820182Y-10891031D02*
X829705Y-10910079D01*
X829705Y-10910079D02*
X839229Y-10948174D01*
X839229Y-10948174D02*
X839229Y-10995793D01*
X839229Y-10995793D02*
X829705Y-11033889D01*
X829705Y-11033889D02*
X820182Y-11052936D01*
X820182Y-11052936D02*
X810658Y-11062460D01*
X810658Y-11062460D02*
X791610Y-11071984D01*
X791610Y-11071984D02*
X772562Y-11071984D01*
X772562Y-11071984D02*
X753515Y-11062460D01*
X753515Y-11062460D02*
X743991Y-11052936D01*
X743991Y-11052936D02*
X734467Y-11033889D01*
X734467Y-11033889D02*
X724943Y-10995793D01*
X724943Y-10995793D02*
X724943Y-10948174D01*
X724943Y-10948174D02*
X734467Y-10910079D01*
X734467Y-10910079D02*
X743991Y-10891031D01*
X743991Y-10891031D02*
X753515Y-10881508D01*
X753515Y-10881508D02*
X772562Y-10871984D01*
X963039Y-10871984D02*
X982086Y-10871984D01*
X982086Y-10871984D02*
X1001134Y-10881508D01*
X1001134Y-10881508D02*
X1010658Y-10891031D01*
X1010658Y-10891031D02*
X1020182Y-10910079D01*
X1020182Y-10910079D02*
X1029705Y-10948174D01*
X1029705Y-10948174D02*
X1029705Y-10995793D01*
X1029705Y-10995793D02*
X1020182Y-11033889D01*
X1020182Y-11033889D02*
X1010658Y-11052936D01*
X1010658Y-11052936D02*
X1001134Y-11062460D01*
X1001134Y-11062460D02*
X982086Y-11071984D01*
X982086Y-11071984D02*
X963039Y-11071984D01*
X963039Y-11071984D02*
X943991Y-11062460D01*
X943991Y-11062460D02*
X934467Y-11052936D01*
X934467Y-11052936D02*
X924943Y-11033889D01*
X924943Y-11033889D02*
X915420Y-10995793D01*
X915420Y-10995793D02*
X915420Y-10948174D01*
X915420Y-10948174D02*
X924943Y-10910079D01*
X924943Y-10910079D02*
X934467Y-10891031D01*
X934467Y-10891031D02*
X943991Y-10881508D01*
X943991Y-10881508D02*
X963039Y-10871984D01*
X1115420Y-11071984D02*
X1115420Y-10938650D01*
X1115420Y-10957698D02*
X1124944Y-10948174D01*
X1124944Y-10948174D02*
X1143991Y-10938650D01*
X1143991Y-10938650D02*
X1172563Y-10938650D01*
X1172563Y-10938650D02*
X1191610Y-10948174D01*
X1191610Y-10948174D02*
X1201134Y-10967222D01*
X1201134Y-10967222D02*
X1201134Y-11071984D01*
X1201134Y-10967222D02*
X1210658Y-10948174D01*
X1210658Y-10948174D02*
X1229705Y-10938650D01*
X1229705Y-10938650D02*
X1258277Y-10938650D01*
X1258277Y-10938650D02*
X1277325Y-10948174D01*
X1277325Y-10948174D02*
X1286848Y-10967222D01*
X1286848Y-10967222D02*
X1286848Y-11071984D01*
X1382086Y-11071984D02*
X1382086Y-10938650D01*
X1382086Y-10957698D02*
X1391610Y-10948174D01*
X1391610Y-10948174D02*
X1410658Y-10938650D01*
X1410658Y-10938650D02*
X1439229Y-10938650D01*
X1439229Y-10938650D02*
X1458277Y-10948174D01*
X1458277Y-10948174D02*
X1467801Y-10967222D01*
X1467801Y-10967222D02*
X1467801Y-11071984D01*
X1467801Y-10967222D02*
X1477324Y-10948174D01*
X1477324Y-10948174D02*
X1496372Y-10938650D01*
X1496372Y-10938650D02*
X1524943Y-10938650D01*
X1524943Y-10938650D02*
X1543991Y-10948174D01*
X1543991Y-10948174D02*
X1553515Y-10967222D01*
X1553515Y-10967222D02*
X1553515Y-11071984D01*
X1943991Y-10862460D02*
X1772563Y-11119603D01*
X2201134Y-10871984D02*
X2220182Y-10871984D01*
X2220182Y-10871984D02*
X2239229Y-10881508D01*
X2239229Y-10881508D02*
X2248753Y-10891031D01*
X2248753Y-10891031D02*
X2258277Y-10910079D01*
X2258277Y-10910079D02*
X2267801Y-10948174D01*
X2267801Y-10948174D02*
X2267801Y-10995793D01*
X2267801Y-10995793D02*
X2258277Y-11033889D01*
X2258277Y-11033889D02*
X2248753Y-11052936D01*
X2248753Y-11052936D02*
X2239229Y-11062460D01*
X2239229Y-11062460D02*
X2220182Y-11071984D01*
X2220182Y-11071984D02*
X2201134Y-11071984D01*
X2201134Y-11071984D02*
X2182087Y-11062460D01*
X2182087Y-11062460D02*
X2172563Y-11052936D01*
X2172563Y-11052936D02*
X2163039Y-11033889D01*
X2163039Y-11033889D02*
X2153515Y-10995793D01*
X2153515Y-10995793D02*
X2153515Y-10948174D01*
X2153515Y-10948174D02*
X2163039Y-10910079D01*
X2163039Y-10910079D02*
X2172563Y-10891031D01*
X2172563Y-10891031D02*
X2182087Y-10881508D01*
X2182087Y-10881508D02*
X2201134Y-10871984D01*
X2353515Y-11052936D02*
X2363039Y-11062460D01*
X2363039Y-11062460D02*
X2353515Y-11071984D01*
X2353515Y-11071984D02*
X2343991Y-11062460D01*
X2343991Y-11062460D02*
X2353515Y-11052936D01*
X2353515Y-11052936D02*
X2353515Y-11071984D01*
X2486848Y-10871984D02*
X2505896Y-10871984D01*
X2505896Y-10871984D02*
X2524944Y-10881508D01*
X2524944Y-10881508D02*
X2534468Y-10891031D01*
X2534468Y-10891031D02*
X2543991Y-10910079D01*
X2543991Y-10910079D02*
X2553515Y-10948174D01*
X2553515Y-10948174D02*
X2553515Y-10995793D01*
X2553515Y-10995793D02*
X2543991Y-11033889D01*
X2543991Y-11033889D02*
X2534468Y-11052936D01*
X2534468Y-11052936D02*
X2524944Y-11062460D01*
X2524944Y-11062460D02*
X2505896Y-11071984D01*
X2505896Y-11071984D02*
X2486848Y-11071984D01*
X2486848Y-11071984D02*
X2467801Y-11062460D01*
X2467801Y-11062460D02*
X2458277Y-11052936D01*
X2458277Y-11052936D02*
X2448753Y-11033889D01*
X2448753Y-11033889D02*
X2439229Y-10995793D01*
X2439229Y-10995793D02*
X2439229Y-10948174D01*
X2439229Y-10948174D02*
X2448753Y-10910079D01*
X2448753Y-10910079D02*
X2458277Y-10891031D01*
X2458277Y-10891031D02*
X2467801Y-10881508D01*
X2467801Y-10881508D02*
X2486848Y-10871984D01*
X2620182Y-10871984D02*
X2743991Y-10871984D01*
X2743991Y-10871984D02*
X2677325Y-10948174D01*
X2677325Y-10948174D02*
X2705896Y-10948174D01*
X2705896Y-10948174D02*
X2724944Y-10957698D01*
X2724944Y-10957698D02*
X2734468Y-10967222D01*
X2734468Y-10967222D02*
X2743991Y-10986270D01*
X2743991Y-10986270D02*
X2743991Y-11033889D01*
X2743991Y-11033889D02*
X2734468Y-11052936D01*
X2734468Y-11052936D02*
X2724944Y-11062460D01*
X2724944Y-11062460D02*
X2705896Y-11071984D01*
X2705896Y-11071984D02*
X2648753Y-11071984D01*
X2648753Y-11071984D02*
X2629706Y-11062460D01*
X2629706Y-11062460D02*
X2620182Y-11052936D01*
X2934467Y-11071984D02*
X2820182Y-11071984D01*
X2877325Y-11071984D02*
X2877325Y-10871984D01*
X2877325Y-10871984D02*
X2858277Y-10900555D01*
X2858277Y-10900555D02*
X2839229Y-10919603D01*
X2839229Y-10919603D02*
X2820182Y-10929127D01*
X3115420Y-10871984D02*
X3020182Y-10871984D01*
X3020182Y-10871984D02*
X3010658Y-10967222D01*
X3010658Y-10967222D02*
X3020182Y-10957698D01*
X3020182Y-10957698D02*
X3039229Y-10948174D01*
X3039229Y-10948174D02*
X3086848Y-10948174D01*
X3086848Y-10948174D02*
X3105896Y-10957698D01*
X3105896Y-10957698D02*
X3115420Y-10967222D01*
X3115420Y-10967222D02*
X3124944Y-10986270D01*
X3124944Y-10986270D02*
X3124944Y-11033889D01*
X3124944Y-11033889D02*
X3115420Y-11052936D01*
X3115420Y-11052936D02*
X3105896Y-11062460D01*
X3105896Y-11062460D02*
X3086848Y-11071984D01*
X3086848Y-11071984D02*
X3039229Y-11071984D01*
X3039229Y-11071984D02*
X3020182Y-11062460D01*
X3020182Y-11062460D02*
X3010658Y-11052936D01*
X3201134Y-10871984D02*
X3201134Y-10910079D01*
X3277325Y-10871984D02*
X3277325Y-10910079D01*
X3572563Y-11148174D02*
X3563039Y-11138650D01*
X3563039Y-11138650D02*
X3543991Y-11110079D01*
X3543991Y-11110079D02*
X3534468Y-11091031D01*
X3534468Y-11091031D02*
X3524944Y-11062460D01*
X3524944Y-11062460D02*
X3515420Y-11014841D01*
X3515420Y-11014841D02*
X3515420Y-10976746D01*
X3515420Y-10976746D02*
X3524944Y-10929127D01*
X3524944Y-10929127D02*
X3534468Y-10900555D01*
X3534468Y-10900555D02*
X3543991Y-10881508D01*
X3543991Y-10881508D02*
X3563039Y-10852936D01*
X3563039Y-10852936D02*
X3572563Y-10843412D01*
X3686848Y-10871984D02*
X3705896Y-10871984D01*
X3705896Y-10871984D02*
X3724944Y-10881508D01*
X3724944Y-10881508D02*
X3734468Y-10891031D01*
X3734468Y-10891031D02*
X3743991Y-10910079D01*
X3743991Y-10910079D02*
X3753515Y-10948174D01*
X3753515Y-10948174D02*
X3753515Y-10995793D01*
X3753515Y-10995793D02*
X3743991Y-11033889D01*
X3743991Y-11033889D02*
X3734468Y-11052936D01*
X3734468Y-11052936D02*
X3724944Y-11062460D01*
X3724944Y-11062460D02*
X3705896Y-11071984D01*
X3705896Y-11071984D02*
X3686848Y-11071984D01*
X3686848Y-11071984D02*
X3667801Y-11062460D01*
X3667801Y-11062460D02*
X3658277Y-11052936D01*
X3658277Y-11052936D02*
X3648753Y-11033889D01*
X3648753Y-11033889D02*
X3639229Y-10995793D01*
X3639229Y-10995793D02*
X3639229Y-10948174D01*
X3639229Y-10948174D02*
X3648753Y-10910079D01*
X3648753Y-10910079D02*
X3658277Y-10891031D01*
X3658277Y-10891031D02*
X3667801Y-10881508D01*
X3667801Y-10881508D02*
X3686848Y-10871984D01*
X3991610Y-11071984D02*
X3991610Y-10871984D01*
X4077325Y-11071984D02*
X4077325Y-10967222D01*
X4077325Y-10967222D02*
X4067801Y-10948174D01*
X4067801Y-10948174D02*
X4048753Y-10938650D01*
X4048753Y-10938650D02*
X4020182Y-10938650D01*
X4020182Y-10938650D02*
X4001134Y-10948174D01*
X4001134Y-10948174D02*
X3991610Y-10957698D01*
X4201134Y-11071984D02*
X4182087Y-11062460D01*
X4182087Y-11062460D02*
X4172563Y-11052936D01*
X4172563Y-11052936D02*
X4163039Y-11033889D01*
X4163039Y-11033889D02*
X4163039Y-10976746D01*
X4163039Y-10976746D02*
X4172563Y-10957698D01*
X4172563Y-10957698D02*
X4182087Y-10948174D01*
X4182087Y-10948174D02*
X4201134Y-10938650D01*
X4201134Y-10938650D02*
X4229706Y-10938650D01*
X4229706Y-10938650D02*
X4248753Y-10948174D01*
X4248753Y-10948174D02*
X4258277Y-10957698D01*
X4258277Y-10957698D02*
X4267801Y-10976746D01*
X4267801Y-10976746D02*
X4267801Y-11033889D01*
X4267801Y-11033889D02*
X4258277Y-11052936D01*
X4258277Y-11052936D02*
X4248753Y-11062460D01*
X4248753Y-11062460D02*
X4229706Y-11071984D01*
X4229706Y-11071984D02*
X4201134Y-11071984D01*
X4382087Y-11071984D02*
X4363039Y-11062460D01*
X4363039Y-11062460D02*
X4353515Y-11043412D01*
X4353515Y-11043412D02*
X4353515Y-10871984D01*
X4534468Y-11062460D02*
X4515420Y-11071984D01*
X4515420Y-11071984D02*
X4477325Y-11071984D01*
X4477325Y-11071984D02*
X4458277Y-11062460D01*
X4458277Y-11062460D02*
X4448753Y-11043412D01*
X4448753Y-11043412D02*
X4448753Y-10967222D01*
X4448753Y-10967222D02*
X4458277Y-10948174D01*
X4458277Y-10948174D02*
X4477325Y-10938650D01*
X4477325Y-10938650D02*
X4515420Y-10938650D01*
X4515420Y-10938650D02*
X4534468Y-10948174D01*
X4534468Y-10948174D02*
X4543992Y-10967222D01*
X4543992Y-10967222D02*
X4543992Y-10986270D01*
X4543992Y-10986270D02*
X4448753Y-11005317D01*
X4620182Y-11062460D02*
X4639230Y-11071984D01*
X4639230Y-11071984D02*
X4677325Y-11071984D01*
X4677325Y-11071984D02*
X4696373Y-11062460D01*
X4696373Y-11062460D02*
X4705896Y-11043412D01*
X4705896Y-11043412D02*
X4705896Y-11033889D01*
X4705896Y-11033889D02*
X4696373Y-11014841D01*
X4696373Y-11014841D02*
X4677325Y-11005317D01*
X4677325Y-11005317D02*
X4648753Y-11005317D01*
X4648753Y-11005317D02*
X4629706Y-10995793D01*
X4629706Y-10995793D02*
X4620182Y-10976746D01*
X4620182Y-10976746D02*
X4620182Y-10967222D01*
X4620182Y-10967222D02*
X4629706Y-10948174D01*
X4629706Y-10948174D02*
X4648753Y-10938650D01*
X4648753Y-10938650D02*
X4677325Y-10938650D01*
X4677325Y-10938650D02*
X4696373Y-10948174D01*
X4943992Y-10995793D02*
X5096373Y-10995793D01*
X5020182Y-11071984D02*
X5020182Y-10919603D01*
X5334468Y-10891031D02*
X5343992Y-10881508D01*
X5343992Y-10881508D02*
X5363039Y-10871984D01*
X5363039Y-10871984D02*
X5410658Y-10871984D01*
X5410658Y-10871984D02*
X5429706Y-10881508D01*
X5429706Y-10881508D02*
X5439230Y-10891031D01*
X5439230Y-10891031D02*
X5448754Y-10910079D01*
X5448754Y-10910079D02*
X5448754Y-10929127D01*
X5448754Y-10929127D02*
X5439230Y-10957698D01*
X5439230Y-10957698D02*
X5324944Y-11071984D01*
X5324944Y-11071984D02*
X5448754Y-11071984D01*
X5620182Y-10938650D02*
X5620182Y-11071984D01*
X5572563Y-10862460D02*
X5524944Y-11005317D01*
X5524944Y-11005317D02*
X5648753Y-11005317D01*
X5867801Y-11062460D02*
X5886849Y-11071984D01*
X5886849Y-11071984D02*
X5924944Y-11071984D01*
X5924944Y-11071984D02*
X5943992Y-11062460D01*
X5943992Y-11062460D02*
X5953515Y-11043412D01*
X5953515Y-11043412D02*
X5953515Y-11033889D01*
X5953515Y-11033889D02*
X5943992Y-11014841D01*
X5943992Y-11014841D02*
X5924944Y-11005317D01*
X5924944Y-11005317D02*
X5896373Y-11005317D01*
X5896373Y-11005317D02*
X5877325Y-10995793D01*
X5877325Y-10995793D02*
X5867801Y-10976746D01*
X5867801Y-10976746D02*
X5867801Y-10967222D01*
X5867801Y-10967222D02*
X5877325Y-10948174D01*
X5877325Y-10948174D02*
X5896373Y-10938650D01*
X5896373Y-10938650D02*
X5924944Y-10938650D01*
X5924944Y-10938650D02*
X5943992Y-10948174D01*
X6067801Y-11071984D02*
X6048754Y-11062460D01*
X6048754Y-11062460D02*
X6039230Y-11043412D01*
X6039230Y-11043412D02*
X6039230Y-10871984D01*
X6172563Y-11071984D02*
X6153515Y-11062460D01*
X6153515Y-11062460D02*
X6143992Y-11052936D01*
X6143992Y-11052936D02*
X6134468Y-11033889D01*
X6134468Y-11033889D02*
X6134468Y-10976746D01*
X6134468Y-10976746D02*
X6143992Y-10957698D01*
X6143992Y-10957698D02*
X6153515Y-10948174D01*
X6153515Y-10948174D02*
X6172563Y-10938650D01*
X6172563Y-10938650D02*
X6201135Y-10938650D01*
X6201135Y-10938650D02*
X6220182Y-10948174D01*
X6220182Y-10948174D02*
X6229706Y-10957698D01*
X6229706Y-10957698D02*
X6239230Y-10976746D01*
X6239230Y-10976746D02*
X6239230Y-11033889D01*
X6239230Y-11033889D02*
X6229706Y-11052936D01*
X6229706Y-11052936D02*
X6220182Y-11062460D01*
X6220182Y-11062460D02*
X6201135Y-11071984D01*
X6201135Y-11071984D02*
X6172563Y-11071984D01*
X6296373Y-10938650D02*
X6372563Y-10938650D01*
X6324944Y-10871984D02*
X6324944Y-11043412D01*
X6324944Y-11043412D02*
X6334468Y-11062460D01*
X6334468Y-11062460D02*
X6353515Y-11071984D01*
X6353515Y-11071984D02*
X6372563Y-11071984D01*
X6429706Y-11062460D02*
X6448754Y-11071984D01*
X6448754Y-11071984D02*
X6486849Y-11071984D01*
X6486849Y-11071984D02*
X6505896Y-11062460D01*
X6505896Y-11062460D02*
X6515420Y-11043412D01*
X6515420Y-11043412D02*
X6515420Y-11033889D01*
X6515420Y-11033889D02*
X6505896Y-11014841D01*
X6505896Y-11014841D02*
X6486849Y-11005317D01*
X6486849Y-11005317D02*
X6458277Y-11005317D01*
X6458277Y-11005317D02*
X6439230Y-10995793D01*
X6439230Y-10995793D02*
X6429706Y-10976746D01*
X6429706Y-10976746D02*
X6429706Y-10967222D01*
X6429706Y-10967222D02*
X6439230Y-10948174D01*
X6439230Y-10948174D02*
X6458277Y-10938650D01*
X6458277Y-10938650D02*
X6486849Y-10938650D01*
X6486849Y-10938650D02*
X6505896Y-10948174D01*
X6582087Y-11148174D02*
X6591611Y-11138650D01*
X6591611Y-11138650D02*
X6610658Y-11110079D01*
X6610658Y-11110079D02*
X6620182Y-11091031D01*
X6620182Y-11091031D02*
X6629706Y-11062460D01*
X6629706Y-11062460D02*
X6639230Y-11014841D01*
X6639230Y-11014841D02*
X6639230Y-10976746D01*
X6639230Y-10976746D02*
X6629706Y-10929127D01*
X6629706Y-10929127D02*
X6620182Y-10900555D01*
X6620182Y-10900555D02*
X6610658Y-10881508D01*
X6610658Y-10881508D02*
X6591611Y-10852936D01*
X6591611Y-10852936D02*
X6582087Y-10843412D01*
D13*
X-21538Y-11290462D02*
X-21538Y-11198538D01*
X-113462Y-11198538D01*
X-113462Y-11290462D01*
X-21538Y-11290462D01*
D11*
X363039Y-11335984D02*
X248753Y-11335984D01*
X305896Y-11335984D02*
X305896Y-11135984D01*
X305896Y-11135984D02*
X286848Y-11164555D01*
X286848Y-11164555D02*
X267801Y-11183603D01*
X267801Y-11183603D02*
X248753Y-11193127D01*
X448753Y-11316936D02*
X458277Y-11326460D01*
X458277Y-11326460D02*
X448753Y-11335984D01*
X448753Y-11335984D02*
X439229Y-11326460D01*
X439229Y-11326460D02*
X448753Y-11316936D01*
X448753Y-11316936D02*
X448753Y-11335984D01*
X524944Y-11135984D02*
X648753Y-11135984D01*
X648753Y-11135984D02*
X582086Y-11212174D01*
X582086Y-11212174D02*
X610658Y-11212174D01*
X610658Y-11212174D02*
X629705Y-11221698D01*
X629705Y-11221698D02*
X639229Y-11231222D01*
X639229Y-11231222D02*
X648753Y-11250269D01*
X648753Y-11250269D02*
X648753Y-11297888D01*
X648753Y-11297888D02*
X639229Y-11316936D01*
X639229Y-11316936D02*
X629705Y-11326460D01*
X629705Y-11326460D02*
X610658Y-11335984D01*
X610658Y-11335984D02*
X553515Y-11335984D01*
X553515Y-11335984D02*
X534467Y-11326460D01*
X534467Y-11326460D02*
X524944Y-11316936D01*
X772562Y-11135984D02*
X791610Y-11135984D01*
X791610Y-11135984D02*
X810658Y-11145508D01*
X810658Y-11145508D02*
X820182Y-11155031D01*
X820182Y-11155031D02*
X829705Y-11174079D01*
X829705Y-11174079D02*
X839229Y-11212174D01*
X839229Y-11212174D02*
X839229Y-11259793D01*
X839229Y-11259793D02*
X829705Y-11297888D01*
X829705Y-11297888D02*
X820182Y-11316936D01*
X820182Y-11316936D02*
X810658Y-11326460D01*
X810658Y-11326460D02*
X791610Y-11335984D01*
X791610Y-11335984D02*
X772562Y-11335984D01*
X772562Y-11335984D02*
X753515Y-11326460D01*
X753515Y-11326460D02*
X743991Y-11316936D01*
X743991Y-11316936D02*
X734467Y-11297888D01*
X734467Y-11297888D02*
X724943Y-11259793D01*
X724943Y-11259793D02*
X724943Y-11212174D01*
X724943Y-11212174D02*
X734467Y-11174079D01*
X734467Y-11174079D02*
X743991Y-11155031D01*
X743991Y-11155031D02*
X753515Y-11145508D01*
X753515Y-11145508D02*
X772562Y-11135984D01*
X963039Y-11135984D02*
X982086Y-11135984D01*
X982086Y-11135984D02*
X1001134Y-11145508D01*
X1001134Y-11145508D02*
X1010658Y-11155031D01*
X1010658Y-11155031D02*
X1020182Y-11174079D01*
X1020182Y-11174079D02*
X1029705Y-11212174D01*
X1029705Y-11212174D02*
X1029705Y-11259793D01*
X1029705Y-11259793D02*
X1020182Y-11297888D01*
X1020182Y-11297888D02*
X1010658Y-11316936D01*
X1010658Y-11316936D02*
X1001134Y-11326460D01*
X1001134Y-11326460D02*
X982086Y-11335984D01*
X982086Y-11335984D02*
X963039Y-11335984D01*
X963039Y-11335984D02*
X943991Y-11326460D01*
X943991Y-11326460D02*
X934467Y-11316936D01*
X934467Y-11316936D02*
X924943Y-11297888D01*
X924943Y-11297888D02*
X915420Y-11259793D01*
X915420Y-11259793D02*
X915420Y-11212174D01*
X915420Y-11212174D02*
X924943Y-11174079D01*
X924943Y-11174079D02*
X934467Y-11155031D01*
X934467Y-11155031D02*
X943991Y-11145508D01*
X943991Y-11145508D02*
X963039Y-11135984D01*
X1115420Y-11335984D02*
X1115420Y-11202650D01*
X1115420Y-11221698D02*
X1124944Y-11212174D01*
X1124944Y-11212174D02*
X1143991Y-11202650D01*
X1143991Y-11202650D02*
X1172563Y-11202650D01*
X1172563Y-11202650D02*
X1191610Y-11212174D01*
X1191610Y-11212174D02*
X1201134Y-11231222D01*
X1201134Y-11231222D02*
X1201134Y-11335984D01*
X1201134Y-11231222D02*
X1210658Y-11212174D01*
X1210658Y-11212174D02*
X1229705Y-11202650D01*
X1229705Y-11202650D02*
X1258277Y-11202650D01*
X1258277Y-11202650D02*
X1277325Y-11212174D01*
X1277325Y-11212174D02*
X1286848Y-11231222D01*
X1286848Y-11231222D02*
X1286848Y-11335984D01*
X1382086Y-11335984D02*
X1382086Y-11202650D01*
X1382086Y-11221698D02*
X1391610Y-11212174D01*
X1391610Y-11212174D02*
X1410658Y-11202650D01*
X1410658Y-11202650D02*
X1439229Y-11202650D01*
X1439229Y-11202650D02*
X1458277Y-11212174D01*
X1458277Y-11212174D02*
X1467801Y-11231222D01*
X1467801Y-11231222D02*
X1467801Y-11335984D01*
X1467801Y-11231222D02*
X1477324Y-11212174D01*
X1477324Y-11212174D02*
X1496372Y-11202650D01*
X1496372Y-11202650D02*
X1524943Y-11202650D01*
X1524943Y-11202650D02*
X1543991Y-11212174D01*
X1543991Y-11212174D02*
X1553515Y-11231222D01*
X1553515Y-11231222D02*
X1553515Y-11335984D01*
X1943991Y-11126460D02*
X1772563Y-11383603D01*
X2201134Y-11135984D02*
X2220182Y-11135984D01*
X2220182Y-11135984D02*
X2239229Y-11145508D01*
X2239229Y-11145508D02*
X2248753Y-11155031D01*
X2248753Y-11155031D02*
X2258277Y-11174079D01*
X2258277Y-11174079D02*
X2267801Y-11212174D01*
X2267801Y-11212174D02*
X2267801Y-11259793D01*
X2267801Y-11259793D02*
X2258277Y-11297888D01*
X2258277Y-11297888D02*
X2248753Y-11316936D01*
X2248753Y-11316936D02*
X2239229Y-11326460D01*
X2239229Y-11326460D02*
X2220182Y-11335984D01*
X2220182Y-11335984D02*
X2201134Y-11335984D01*
X2201134Y-11335984D02*
X2182087Y-11326460D01*
X2182087Y-11326460D02*
X2172563Y-11316936D01*
X2172563Y-11316936D02*
X2163039Y-11297888D01*
X2163039Y-11297888D02*
X2153515Y-11259793D01*
X2153515Y-11259793D02*
X2153515Y-11212174D01*
X2153515Y-11212174D02*
X2163039Y-11174079D01*
X2163039Y-11174079D02*
X2172563Y-11155031D01*
X2172563Y-11155031D02*
X2182087Y-11145508D01*
X2182087Y-11145508D02*
X2201134Y-11135984D01*
X2353515Y-11316936D02*
X2363039Y-11326460D01*
X2363039Y-11326460D02*
X2353515Y-11335984D01*
X2353515Y-11335984D02*
X2343991Y-11326460D01*
X2343991Y-11326460D02*
X2353515Y-11316936D01*
X2353515Y-11316936D02*
X2353515Y-11335984D01*
X2486848Y-11135984D02*
X2505896Y-11135984D01*
X2505896Y-11135984D02*
X2524944Y-11145508D01*
X2524944Y-11145508D02*
X2534468Y-11155031D01*
X2534468Y-11155031D02*
X2543991Y-11174079D01*
X2543991Y-11174079D02*
X2553515Y-11212174D01*
X2553515Y-11212174D02*
X2553515Y-11259793D01*
X2553515Y-11259793D02*
X2543991Y-11297888D01*
X2543991Y-11297888D02*
X2534468Y-11316936D01*
X2534468Y-11316936D02*
X2524944Y-11326460D01*
X2524944Y-11326460D02*
X2505896Y-11335984D01*
X2505896Y-11335984D02*
X2486848Y-11335984D01*
X2486848Y-11335984D02*
X2467801Y-11326460D01*
X2467801Y-11326460D02*
X2458277Y-11316936D01*
X2458277Y-11316936D02*
X2448753Y-11297888D01*
X2448753Y-11297888D02*
X2439229Y-11259793D01*
X2439229Y-11259793D02*
X2439229Y-11212174D01*
X2439229Y-11212174D02*
X2448753Y-11174079D01*
X2448753Y-11174079D02*
X2458277Y-11155031D01*
X2458277Y-11155031D02*
X2467801Y-11145508D01*
X2467801Y-11145508D02*
X2486848Y-11135984D01*
X2734468Y-11135984D02*
X2639229Y-11135984D01*
X2639229Y-11135984D02*
X2629706Y-11231222D01*
X2629706Y-11231222D02*
X2639229Y-11221698D01*
X2639229Y-11221698D02*
X2658277Y-11212174D01*
X2658277Y-11212174D02*
X2705896Y-11212174D01*
X2705896Y-11212174D02*
X2724944Y-11221698D01*
X2724944Y-11221698D02*
X2734468Y-11231222D01*
X2734468Y-11231222D02*
X2743991Y-11250269D01*
X2743991Y-11250269D02*
X2743991Y-11297888D01*
X2743991Y-11297888D02*
X2734468Y-11316936D01*
X2734468Y-11316936D02*
X2724944Y-11326460D01*
X2724944Y-11326460D02*
X2705896Y-11335984D01*
X2705896Y-11335984D02*
X2658277Y-11335984D01*
X2658277Y-11335984D02*
X2639229Y-11326460D01*
X2639229Y-11326460D02*
X2629706Y-11316936D01*
X2934467Y-11335984D02*
X2820182Y-11335984D01*
X2877325Y-11335984D02*
X2877325Y-11135984D01*
X2877325Y-11135984D02*
X2858277Y-11164555D01*
X2858277Y-11164555D02*
X2839229Y-11183603D01*
X2839229Y-11183603D02*
X2820182Y-11193127D01*
X3010658Y-11155031D02*
X3020182Y-11145508D01*
X3020182Y-11145508D02*
X3039229Y-11135984D01*
X3039229Y-11135984D02*
X3086848Y-11135984D01*
X3086848Y-11135984D02*
X3105896Y-11145508D01*
X3105896Y-11145508D02*
X3115420Y-11155031D01*
X3115420Y-11155031D02*
X3124944Y-11174079D01*
X3124944Y-11174079D02*
X3124944Y-11193127D01*
X3124944Y-11193127D02*
X3115420Y-11221698D01*
X3115420Y-11221698D02*
X3001134Y-11335984D01*
X3001134Y-11335984D02*
X3124944Y-11335984D01*
X3201134Y-11135984D02*
X3201134Y-11174079D01*
X3277325Y-11135984D02*
X3277325Y-11174079D01*
X3572563Y-11412174D02*
X3563039Y-11402650D01*
X3563039Y-11402650D02*
X3543991Y-11374079D01*
X3543991Y-11374079D02*
X3534468Y-11355031D01*
X3534468Y-11355031D02*
X3524944Y-11326460D01*
X3524944Y-11326460D02*
X3515420Y-11278841D01*
X3515420Y-11278841D02*
X3515420Y-11240746D01*
X3515420Y-11240746D02*
X3524944Y-11193127D01*
X3524944Y-11193127D02*
X3534468Y-11164555D01*
X3534468Y-11164555D02*
X3543991Y-11145508D01*
X3543991Y-11145508D02*
X3563039Y-11116936D01*
X3563039Y-11116936D02*
X3572563Y-11107412D01*
X3629706Y-11135984D02*
X3753515Y-11135984D01*
X3753515Y-11135984D02*
X3686848Y-11212174D01*
X3686848Y-11212174D02*
X3715420Y-11212174D01*
X3715420Y-11212174D02*
X3734468Y-11221698D01*
X3734468Y-11221698D02*
X3743991Y-11231222D01*
X3743991Y-11231222D02*
X3753515Y-11250269D01*
X3753515Y-11250269D02*
X3753515Y-11297888D01*
X3753515Y-11297888D02*
X3743991Y-11316936D01*
X3743991Y-11316936D02*
X3734468Y-11326460D01*
X3734468Y-11326460D02*
X3715420Y-11335984D01*
X3715420Y-11335984D02*
X3658277Y-11335984D01*
X3658277Y-11335984D02*
X3639229Y-11326460D01*
X3639229Y-11326460D02*
X3629706Y-11316936D01*
X3991610Y-11335984D02*
X3991610Y-11135984D01*
X4077325Y-11335984D02*
X4077325Y-11231222D01*
X4077325Y-11231222D02*
X4067801Y-11212174D01*
X4067801Y-11212174D02*
X4048753Y-11202650D01*
X4048753Y-11202650D02*
X4020182Y-11202650D01*
X4020182Y-11202650D02*
X4001134Y-11212174D01*
X4001134Y-11212174D02*
X3991610Y-11221698D01*
X4201134Y-11335984D02*
X4182087Y-11326460D01*
X4182087Y-11326460D02*
X4172563Y-11316936D01*
X4172563Y-11316936D02*
X4163039Y-11297888D01*
X4163039Y-11297888D02*
X4163039Y-11240746D01*
X4163039Y-11240746D02*
X4172563Y-11221698D01*
X4172563Y-11221698D02*
X4182087Y-11212174D01*
X4182087Y-11212174D02*
X4201134Y-11202650D01*
X4201134Y-11202650D02*
X4229706Y-11202650D01*
X4229706Y-11202650D02*
X4248753Y-11212174D01*
X4248753Y-11212174D02*
X4258277Y-11221698D01*
X4258277Y-11221698D02*
X4267801Y-11240746D01*
X4267801Y-11240746D02*
X4267801Y-11297888D01*
X4267801Y-11297888D02*
X4258277Y-11316936D01*
X4258277Y-11316936D02*
X4248753Y-11326460D01*
X4248753Y-11326460D02*
X4229706Y-11335984D01*
X4229706Y-11335984D02*
X4201134Y-11335984D01*
X4382087Y-11335984D02*
X4363039Y-11326460D01*
X4363039Y-11326460D02*
X4353515Y-11307412D01*
X4353515Y-11307412D02*
X4353515Y-11135984D01*
X4534468Y-11326460D02*
X4515420Y-11335984D01*
X4515420Y-11335984D02*
X4477325Y-11335984D01*
X4477325Y-11335984D02*
X4458277Y-11326460D01*
X4458277Y-11326460D02*
X4448753Y-11307412D01*
X4448753Y-11307412D02*
X4448753Y-11231222D01*
X4448753Y-11231222D02*
X4458277Y-11212174D01*
X4458277Y-11212174D02*
X4477325Y-11202650D01*
X4477325Y-11202650D02*
X4515420Y-11202650D01*
X4515420Y-11202650D02*
X4534468Y-11212174D01*
X4534468Y-11212174D02*
X4543992Y-11231222D01*
X4543992Y-11231222D02*
X4543992Y-11250269D01*
X4543992Y-11250269D02*
X4448753Y-11269317D01*
X4620182Y-11326460D02*
X4639230Y-11335984D01*
X4639230Y-11335984D02*
X4677325Y-11335984D01*
X4677325Y-11335984D02*
X4696373Y-11326460D01*
X4696373Y-11326460D02*
X4705896Y-11307412D01*
X4705896Y-11307412D02*
X4705896Y-11297888D01*
X4705896Y-11297888D02*
X4696373Y-11278841D01*
X4696373Y-11278841D02*
X4677325Y-11269317D01*
X4677325Y-11269317D02*
X4648753Y-11269317D01*
X4648753Y-11269317D02*
X4629706Y-11259793D01*
X4629706Y-11259793D02*
X4620182Y-11240746D01*
X4620182Y-11240746D02*
X4620182Y-11231222D01*
X4620182Y-11231222D02*
X4629706Y-11212174D01*
X4629706Y-11212174D02*
X4648753Y-11202650D01*
X4648753Y-11202650D02*
X4677325Y-11202650D01*
X4677325Y-11202650D02*
X4696373Y-11212174D01*
X4772563Y-11412174D02*
X4782087Y-11402650D01*
X4782087Y-11402650D02*
X4801134Y-11374079D01*
X4801134Y-11374079D02*
X4810658Y-11355031D01*
X4810658Y-11355031D02*
X4820182Y-11326460D01*
X4820182Y-11326460D02*
X4829706Y-11278841D01*
X4829706Y-11278841D02*
X4829706Y-11240746D01*
X4829706Y-11240746D02*
X4820182Y-11193127D01*
X4820182Y-11193127D02*
X4810658Y-11164555D01*
X4810658Y-11164555D02*
X4801134Y-11145508D01*
X4801134Y-11145508D02*
X4782087Y-11116936D01*
X4782087Y-11116936D02*
X4772563Y-11107412D01*
M02*
