M48
; DRILL file {KiCad 9.0.2+dfsg-1} date 2026-10-04T09:34:06-0400
; FORMAT={-:-/ absolute / metric / decimal}
; #@! TF.CreationDate,2026-10-04T09:34:06-04:00
; #@! TF.GenerationSoftware,Kicad,Pcbnew,9.0.2+dfsg-1
; #@! TF.FileFunction,Plated,1,2,PTH
FMAT,2
METRIC
; #@! TA.AperFunction,Plated,PTH,ViaDrill
T1C0.200
; #@! TA.AperFunction,Plated,PTH,ViaDrill
T2C0.300
; #@! TA.AperFunction,Plated,PTH,ComponentDrill
T3C0.700
; #@! TA.AperFunction,Plated,PTH,ComponentDrill
T4C0.800
%
G90
G05
T1
X13.25Y-11.7
X13.25Y-13.1
X13.25Y-23.5
X13.25Y-24.9
X13.25Y-35.3
X13.25Y-36.7
X13.75Y-13.1
X13.75Y-24.9
X13.75Y-36.7
X14.25Y-11.75
X14.25Y-23.55
X14.25Y-35.35
X15.25Y-11.95
X15.25Y-23.75
X15.25Y-35.55
X15.5Y-13.1
X15.5Y-24.9
X15.5Y-36.7
X19.75Y-11.95
X19.75Y-12.45
X19.75Y-23.75
X19.75Y-24.25
X19.75Y-35.55
X19.75Y-36.05
X55.357Y-11.7
X55.357Y-13.1
X55.357Y-23.5
X55.357Y-24.9
X55.357Y-35.3
X55.357Y-36.7
X55.857Y-13.1
X55.857Y-24.9
X55.857Y-36.7
X56.357Y-11.75
X56.357Y-23.55
X56.357Y-35.35
X57.357Y-11.95
X57.357Y-23.75
X57.357Y-35.55
X57.607Y-13.1
X57.607Y-24.9
X57.607Y-36.7
X61.857Y-11.95
X61.857Y-12.45
X61.857Y-23.75
X61.857Y-24.25
X61.857Y-35.55
X61.857Y-36.05
T2
X9.55Y-59.8
X9.55Y-62.8
X9.55Y-64.8
X9.55Y-67.8
X9.55Y-69.8
X9.55Y-72.8
X9.55Y-74.8
X9.55Y-77.8
X9.55Y-80.3
X9.55Y-82.3
X9.55Y-84.8
X9.55Y-87.8
X9.672Y-12.57
X9.672Y-24.37
X9.672Y-36.17
X11.5Y-11.98
X11.5Y-12.82
X11.5Y-23.78
X11.5Y-24.62
X11.5Y-35.58
X11.5Y-36.42
X11.52Y-48.353
X12.1Y-11.98
X12.1Y-12.82
X12.1Y-23.78
X12.1Y-24.62
X12.1Y-35.58
X12.1Y-36.42
X15.25Y-9.85
X15.25Y-14.95
X15.25Y-21.65
X15.25Y-26.75
X15.25Y-33.45
X15.25Y-38.55
X17.065Y-14.29
X17.065Y-26.09
X17.065Y-37.89
X17.082Y-10.349
X17.082Y-22.149
X17.082Y-33.949
X22.71Y-45.2
X32.462Y-12.35
X32.462Y-13.05
X32.462Y-24.15
X32.462Y-24.85
X32.462Y-35.95
X32.462Y-36.65
X35.477Y-12.4
X35.477Y-24.2
X35.477Y-36.0
X36.477Y-12.4
X36.477Y-24.2
X36.477Y-36.0
X37.677Y-12.4
X37.677Y-24.2
X37.677Y-36.0
X38.877Y-12.4
X38.877Y-24.2
X38.877Y-36.0
X40.077Y-12.4
X40.077Y-24.2
X40.077Y-36.0
X40.529Y-48.1
X40.777Y-12.4
X40.777Y-24.2
X40.777Y-36.0
X41.529Y-48.1
X42.277Y-14.8
X42.277Y-26.6
X42.277Y-38.4
X42.477Y-10.0
X42.477Y-21.8
X42.477Y-33.6
X42.729Y-48.1
X43.75Y-10.45
X43.75Y-22.25
X43.75Y-34.05
X43.929Y-48.1
X45.129Y-48.1
X45.829Y-48.1
X45.912Y-14.85
X45.912Y-26.65
X45.912Y-38.45
X46.352Y-10.95
X46.352Y-13.85
X46.352Y-22.75
X46.352Y-25.65
X46.352Y-34.55
X46.352Y-37.45
X47.329Y-50.5
X47.529Y-45.7
X48.802Y-46.15
X50.964Y-50.55
X51.404Y-46.65
X51.404Y-49.55
X51.779Y-12.57
X51.779Y-24.37
X51.779Y-36.17
X53.607Y-11.98
X53.607Y-12.82
X53.607Y-23.78
X53.607Y-24.62
X53.607Y-35.58
X53.607Y-36.42
X54.207Y-11.98
X54.207Y-12.82
X54.207Y-23.78
X54.207Y-24.62
X54.207Y-35.58
X54.207Y-36.42
X57.357Y-9.85
X57.357Y-14.95
X57.357Y-21.65
X57.357Y-26.75
X57.357Y-33.45
X57.357Y-38.55
X59.172Y-14.29
X59.172Y-26.09
X59.172Y-37.89
X59.189Y-10.349
X59.189Y-22.149
X59.189Y-33.949
X64.45Y-59.8
X64.45Y-62.8
X64.45Y-64.8
X64.45Y-67.8
X64.45Y-69.8
X64.45Y-72.8
X64.45Y-74.8
X64.45Y-77.8
X64.45Y-80.3
X64.45Y-82.3
X64.45Y-84.8
X64.45Y-87.8
X74.569Y-12.35
X74.569Y-13.05
X74.569Y-24.15
X74.569Y-24.85
X74.569Y-35.95
X74.569Y-36.65
X77.584Y-12.4
X77.584Y-24.2
X77.584Y-36.0
X78.584Y-12.4
X78.584Y-24.2
X78.584Y-36.0
X79.784Y-12.4
X79.784Y-24.2
X79.784Y-36.0
X80.984Y-12.4
X80.984Y-24.2
X80.984Y-36.0
X82.184Y-12.4
X82.184Y-24.2
X82.184Y-36.0
X82.884Y-12.4
X82.884Y-24.2
X82.884Y-36.0
X84.384Y-14.8
X84.384Y-26.6
X84.384Y-38.4
X84.584Y-10.0
X84.584Y-21.8
X84.584Y-33.6
X85.857Y-10.45
X85.857Y-22.25
X85.857Y-34.05
X88.019Y-14.85
X88.019Y-26.65
X88.019Y-38.45
X88.459Y-10.95
X88.459Y-13.85
X88.459Y-22.75
X88.459Y-25.65
X88.459Y-34.55
X88.459Y-37.45
T3
G00X9.75Y-46.9
M15
G01X9.75Y-46.1
M16
G05
G00X9.75Y-50.1
M15
G01X9.75Y-49.3
M16
G05
G00X25.45Y-46.9
M15
G01X25.45Y-46.1
M16
G05
G00X25.45Y-50.1
M15
G01X25.45Y-49.3
M16
G05
T4
G00X9.65Y-10.93
M15
G01X10.15Y-10.93
M16
G05
G00X9.65Y-13.87
M15
G01X10.15Y-13.87
M16
G05
G00X9.65Y-22.73
M15
G01X10.15Y-22.73
M16
G05
G00X9.65Y-25.67
M15
G01X10.15Y-25.67
M16
G05
G00X9.65Y-34.53
M15
G01X10.15Y-34.53
M16
G05
G00X9.65Y-37.47
M15
G01X10.15Y-37.47
M16
G05
G00X17.85Y-10.93
M15
G01X18.35Y-10.93
M16
G05
G00X17.85Y-13.87
M15
G01X18.35Y-13.87
M16
G05
G00X17.85Y-22.73
M15
G01X18.35Y-22.73
M16
G05
G00X17.85Y-25.67
M15
G01X18.35Y-25.67
M16
G05
G00X17.85Y-34.53
M15
G01X18.35Y-34.53
M16
G05
G00X17.85Y-37.47
M15
G01X18.35Y-37.47
M16
G05
G00X51.757Y-10.93
M15
G01X52.257Y-10.93
M16
G05
G00X51.757Y-13.87
M15
G01X52.257Y-13.87
M16
G05
G00X51.757Y-22.73
M15
G01X52.257Y-22.73
M16
G05
G00X51.757Y-25.67
M15
G01X52.257Y-25.67
M16
G05
G00X51.757Y-34.53
M15
G01X52.257Y-34.53
M16
G05
G00X51.757Y-37.47
M15
G01X52.257Y-37.47
M16
G05
G00X59.957Y-10.93
M15
G01X60.457Y-10.93
M16
G05
G00X59.957Y-13.87
M15
G01X60.457Y-13.87
M16
G05
G00X59.957Y-22.73
M15
G01X60.457Y-22.73
M16
G05
G00X59.957Y-25.67
M15
G01X60.457Y-25.67
M16
G05
G00X59.957Y-34.53
M15
G01X60.457Y-34.53
M16
G05
G00X59.957Y-37.47
M15
G01X60.457Y-37.47
M16
G05
M30
