M48
; DRILL file {KiCad 9.0.2+dfsg-1} date 2026-10-04T10:33:59-0400
; FORMAT={-:-/ absolute / metric / decimal}
; #@! TF.CreationDate,2026-10-04T10:33:59-04:00
; #@! TF.GenerationSoftware,Kicad,Pcbnew,9.0.2+dfsg-1
; #@! TF.FileFunction,Plated,1,2,PTH
FMAT,2
METRIC
; #@! TA.AperFunction,Plated,PTH,ViaDrill
T1C0.200
; #@! TA.AperFunction,Plated,PTH,ViaDrill
T2C0.300
; #@! TA.AperFunction,Plated,PTH,ComponentDrill
T3C0.800
; #@! TA.AperFunction,Plated,PTH,ComponentDrill
T4C1.300
%
G90
G05
T1
X13.25Y-11.7
X13.25Y-13.1
X13.25Y-23.5
X13.25Y-24.9
X13.25Y-35.3
X13.25Y-36.7
X13.75Y-13.1
X13.75Y-24.9
X13.75Y-36.7
X13.89Y-50.4
X14.25Y-11.75
X14.25Y-23.55
X14.25Y-35.35
X15.25Y-11.95
X15.25Y-23.75
X15.25Y-35.55
X15.39Y-50.4
X15.5Y-13.1
X15.5Y-24.9
X15.5Y-36.7
X16.89Y-50.4
X18.39Y-50.4
X19.75Y-11.95
X19.75Y-12.45
X19.75Y-23.75
X19.75Y-24.25
X19.75Y-35.55
X19.75Y-36.05
X21.39Y-50.4
X21.89Y-50.2
X56.392Y-11.7
X56.392Y-13.1
X56.392Y-23.5
X56.392Y-24.9
X56.392Y-35.3
X56.392Y-36.7
X56.892Y-13.1
X56.892Y-24.9
X56.892Y-36.7
X57.392Y-11.75
X57.392Y-23.55
X57.392Y-35.35
X58.392Y-11.95
X58.392Y-23.75
X58.392Y-35.55
X58.642Y-13.1
X58.642Y-24.9
X58.642Y-36.7
X62.892Y-11.95
X62.892Y-12.45
X62.892Y-23.75
X62.892Y-24.25
X62.892Y-35.55
X62.892Y-36.05
T2
X9.55Y-60.1
X9.55Y-63.1
X9.55Y-65.1
X9.55Y-68.1
X9.55Y-70.1
X9.55Y-73.1
X9.55Y-75.1
X9.55Y-78.1
X9.55Y-80.6
X9.55Y-82.6
X9.55Y-85.1
X9.55Y-88.1
X9.672Y-12.57
X9.672Y-24.37
X9.672Y-36.17
X10.857Y-45.063
X11.5Y-11.98
X11.5Y-12.82
X11.5Y-23.78
X11.5Y-24.62
X11.5Y-35.58
X11.5Y-36.42
X12.1Y-11.98
X12.1Y-12.82
X12.1Y-23.78
X12.1Y-24.62
X12.1Y-35.58
X12.1Y-36.42
X13.89Y-47.603
X15.25Y-9.85
X15.25Y-14.95
X15.25Y-21.65
X15.25Y-26.75
X15.25Y-33.45
X15.25Y-38.55
X18.415Y-49.842
X23.317Y-51.5
X32.962Y-12.35
X32.962Y-13.05
X32.962Y-24.15
X32.962Y-24.85
X32.962Y-35.95
X32.962Y-36.65
X36.512Y-12.4
X36.512Y-24.2
X36.512Y-36.0
X37.512Y-12.4
X37.512Y-24.2
X37.512Y-36.0
X37.514Y-47.9
X37.514Y-48.6
X38.712Y-12.4
X38.712Y-24.2
X38.712Y-36.0
X39.912Y-12.4
X39.912Y-24.2
X39.912Y-36.0
X41.064Y-48.25
X41.112Y-12.4
X41.112Y-24.2
X41.112Y-36.0
X41.812Y-12.4
X41.812Y-24.2
X41.812Y-36.0
X42.064Y-48.25
X43.264Y-48.25
X43.312Y-14.8
X43.312Y-26.6
X43.312Y-38.4
X43.512Y-10.0
X43.512Y-21.8
X43.512Y-33.6
X44.464Y-48.25
X44.785Y-10.413
X44.785Y-22.213
X44.785Y-34.013
X45.664Y-48.25
X46.364Y-48.25
X46.947Y-14.85
X46.947Y-26.65
X46.947Y-38.45
X47.387Y-10.95
X47.387Y-13.85
X47.387Y-22.75
X47.387Y-25.65
X47.387Y-34.55
X47.387Y-37.45
X47.864Y-50.65
X48.064Y-45.85
X50.221Y-46.263
X51.499Y-50.7
X51.939Y-46.8
X51.939Y-49.7
X52.814Y-12.57
X52.814Y-24.37
X52.814Y-36.17
X54.642Y-11.98
X54.642Y-12.82
X54.642Y-23.78
X54.642Y-24.62
X54.642Y-35.58
X54.642Y-36.42
X55.242Y-11.98
X55.242Y-12.82
X55.242Y-23.78
X55.242Y-24.62
X55.242Y-35.58
X55.242Y-36.42
X58.392Y-9.85
X58.392Y-14.95
X58.392Y-21.65
X58.392Y-26.75
X58.392Y-33.45
X58.392Y-38.55
X64.45Y-60.1
X64.45Y-63.1
X64.45Y-65.1
X64.45Y-68.1
X64.45Y-70.1
X64.45Y-73.1
X64.45Y-75.1
X64.45Y-78.1
X64.45Y-80.6
X64.45Y-82.6
X64.45Y-85.1
X64.45Y-88.1
X76.104Y-12.35
X76.104Y-13.05
X76.104Y-24.15
X76.104Y-24.85
X76.104Y-35.95
X76.104Y-36.65
X79.654Y-12.4
X79.654Y-24.2
X79.654Y-36.0
X80.654Y-12.4
X80.654Y-24.2
X80.654Y-36.0
X81.854Y-12.4
X81.854Y-24.2
X81.854Y-36.0
X83.054Y-12.4
X83.054Y-24.2
X83.054Y-36.0
X84.254Y-12.4
X84.254Y-24.2
X84.254Y-36.0
X84.954Y-12.4
X84.954Y-24.2
X84.954Y-36.0
X86.454Y-14.8
X86.454Y-26.6
X86.454Y-38.4
X86.654Y-10.0
X86.654Y-21.8
X86.654Y-33.6
X87.927Y-10.413
X87.927Y-22.213
X87.927Y-34.013
X90.089Y-14.85
X90.089Y-26.65
X90.089Y-38.45
X90.529Y-10.95
X90.529Y-13.85
X90.529Y-22.75
X90.529Y-25.65
X90.529Y-34.55
X90.529Y-37.45
T4
X10.35Y-49.15
X17.6Y-45.85
X24.85Y-49.15
T3
G00X9.65Y-10.93
M15
G01X10.15Y-10.93
M16
G05
G00X9.65Y-13.87
M15
G01X10.15Y-13.87
M16
G05
G00X9.65Y-22.73
M15
G01X10.15Y-22.73
M16
G05
G00X9.65Y-25.67
M15
G01X10.15Y-25.67
M16
G05
G00X9.65Y-34.53
M15
G01X10.15Y-34.53
M16
G05
G00X9.65Y-37.47
M15
G01X10.15Y-37.47
M16
G05
G00X17.85Y-10.93
M15
G01X18.35Y-10.93
M16
G05
G00X17.85Y-13.87
M15
G01X18.35Y-13.87
M16
G05
G00X17.85Y-22.73
M15
G01X18.35Y-22.73
M16
G05
G00X17.85Y-25.67
M15
G01X18.35Y-25.67
M16
G05
G00X17.85Y-34.53
M15
G01X18.35Y-34.53
M16
G05
G00X17.85Y-37.47
M15
G01X18.35Y-37.47
M16
G05
G00X52.792Y-10.93
M15
G01X53.292Y-10.93
M16
G05
G00X52.792Y-13.87
M15
G01X53.292Y-13.87
M16
G05
G00X52.792Y-22.73
M15
G01X53.292Y-22.73
M16
G05
G00X52.792Y-25.67
M15
G01X53.292Y-25.67
M16
G05
G00X52.792Y-34.53
M15
G01X53.292Y-34.53
M16
G05
G00X52.792Y-37.47
M15
G01X53.292Y-37.47
M16
G05
G00X60.992Y-10.93
M15
G01X61.492Y-10.93
M16
G05
G00X60.992Y-13.87
M15
G01X61.492Y-13.87
M16
G05
G00X60.992Y-22.73
M15
G01X61.492Y-22.73
M16
G05
G00X60.992Y-25.67
M15
G01X61.492Y-25.67
M16
G05
G00X60.992Y-34.53
M15
G01X61.492Y-34.53
M16
G05
G00X60.992Y-37.47
M15
G01X61.492Y-37.47
M16
G05
M30
