G04 #@! TF.GenerationSoftware,KiCad,Pcbnew,9.0.2+dfsg-1*
G04 #@! TF.CreationDate,2026-10-04T10:33:49-04:00*
G04 #@! TF.ProjectId,mod_usbc,6d6f645f-7573-4626-932e-6b696361645f,A1*
G04 #@! TF.SameCoordinates,Original*
G04 #@! TF.FileFunction,Other,User*
%FSLAX46Y46*%
G04 Gerber Fmt 4.6, Leading zero omitted, Abs format (unit mm)*
G04 Created by KiCad (PCBNEW 9.0.2+dfsg-1) date 2026-10-04 10:33:49*
%MOMM*%
%LPD*%
G01*
G04 APERTURE LIST*
%ADD10C,0.050000*%
%ADD11C,0.100000*%
%ADD12C,0.070000*%
%ADD13C,0.084000*%
G04 APERTURE END LIST*
D10*
X95650000Y-99280000D02*
X96150000Y-99280000D01*
X103850000Y-102220000D02*
X104350000Y-102220000D01*
X94500000Y-99150000D02*
G75*
G02*
X94500000Y-98250000I0J450000D01*
G01*
X103850000Y-102220000D02*
G75*
G02*
X103850000Y-100720000I0J750000D01*
G01*
X94500000Y-98250000D02*
G75*
G02*
X94500000Y-99150000I0J-450000D01*
G01*
X105500000Y-101750000D02*
G75*
G02*
X105500000Y-100850000I0J450000D01*
G01*
D11*
X106000000Y-95600000D02*
X94000000Y-95600000D01*
D10*
X96150000Y-100720000D02*
G75*
G02*
X96150000Y-102220000I0J-750000D01*
G01*
X105500000Y-100850000D02*
G75*
G02*
X105500000Y-101750000I0J-450000D01*
G01*
D11*
X134142000Y-103250000D02*
X134142000Y-96750000D01*
X134142000Y-96750000D02*
X118262000Y-96750000D01*
D10*
X95650000Y-102220000D02*
G75*
G02*
X95650000Y-100720000I0J750000D01*
G01*
X95650000Y-99280000D02*
G75*
G02*
X95650000Y-97780000I0J750000D01*
G01*
X104350000Y-100720000D02*
G75*
G02*
X104350000Y-102220000I0J-750000D01*
G01*
D11*
X118262000Y-103250000D02*
X134142000Y-103250000D01*
X106000000Y-104400000D02*
X106000000Y-95600000D01*
D10*
X104350000Y-97780000D02*
G75*
G02*
X104350000Y-99280000I0J-750000D01*
G01*
D11*
X94000000Y-104400000D02*
X106000000Y-104400000D01*
D10*
X103850000Y-99280000D02*
X104350000Y-99280000D01*
D11*
X94000000Y-95600000D02*
X94000000Y-104400000D01*
D10*
X103850000Y-97780000D02*
X104350000Y-97780000D01*
X95650000Y-100720000D02*
X96150000Y-100720000D01*
D11*
X118262000Y-96750000D02*
X118262000Y-103250000D01*
D10*
X95650000Y-97780000D02*
X96150000Y-97780000D01*
X103850000Y-100720000D02*
X104350000Y-100720000D01*
X96150000Y-97780000D02*
G75*
G02*
X96150000Y-99280000I0J-750000D01*
G01*
X95650000Y-102220000D02*
X96150000Y-102220000D01*
X103850000Y-99280000D02*
G75*
G02*
X103850000Y-97780000I0J750000D01*
G01*
D12*
X88261911Y-94203860D02*
X88309530Y-94227669D01*
X88309530Y-94227669D02*
X88404768Y-94227669D01*
X88404768Y-94227669D02*
X88452387Y-94203860D01*
X88452387Y-94203860D02*
X88476196Y-94156240D01*
X88476196Y-94156240D02*
X88476196Y-94132431D01*
X88476196Y-94132431D02*
X88452387Y-94084812D01*
X88452387Y-94084812D02*
X88404768Y-94061002D01*
X88404768Y-94061002D02*
X88333339Y-94061002D01*
X88333339Y-94061002D02*
X88285720Y-94037193D01*
X88285720Y-94037193D02*
X88261911Y-93989574D01*
X88261911Y-93989574D02*
X88261911Y-93965764D01*
X88261911Y-93965764D02*
X88285720Y-93918145D01*
X88285720Y-93918145D02*
X88333339Y-93894336D01*
X88333339Y-93894336D02*
X88404768Y-93894336D01*
X88404768Y-93894336D02*
X88452387Y-93918145D01*
X88619054Y-93894336D02*
X88809530Y-93894336D01*
X88690482Y-93727669D02*
X88690482Y-94156240D01*
X88690482Y-94156240D02*
X88714292Y-94203860D01*
X88714292Y-94203860D02*
X88761911Y-94227669D01*
X88761911Y-94227669D02*
X88809530Y-94227669D01*
X88976196Y-94227669D02*
X88976196Y-93894336D01*
X88976196Y-93727669D02*
X88952387Y-93751479D01*
X88952387Y-93751479D02*
X88976196Y-93775288D01*
X88976196Y-93775288D02*
X89000006Y-93751479D01*
X89000006Y-93751479D02*
X88976196Y-93727669D01*
X88976196Y-93727669D02*
X88976196Y-93775288D01*
X89142863Y-93894336D02*
X89333339Y-93894336D01*
X89214291Y-94227669D02*
X89214291Y-93799098D01*
X89214291Y-93799098D02*
X89238101Y-93751479D01*
X89238101Y-93751479D02*
X89285720Y-93727669D01*
X89285720Y-93727669D02*
X89333339Y-93727669D01*
X89428577Y-93894336D02*
X89619053Y-93894336D01*
X89500005Y-94227669D02*
X89500005Y-93799098D01*
X89500005Y-93799098D02*
X89523815Y-93751479D01*
X89523815Y-93751479D02*
X89571434Y-93727669D01*
X89571434Y-93727669D02*
X89619053Y-93727669D01*
X89976195Y-94203860D02*
X89928576Y-94227669D01*
X89928576Y-94227669D02*
X89833338Y-94227669D01*
X89833338Y-94227669D02*
X89785719Y-94203860D01*
X89785719Y-94203860D02*
X89761910Y-94156240D01*
X89761910Y-94156240D02*
X89761910Y-93965764D01*
X89761910Y-93965764D02*
X89785719Y-93918145D01*
X89785719Y-93918145D02*
X89833338Y-93894336D01*
X89833338Y-93894336D02*
X89928576Y-93894336D01*
X89928576Y-93894336D02*
X89976195Y-93918145D01*
X89976195Y-93918145D02*
X90000005Y-93965764D01*
X90000005Y-93965764D02*
X90000005Y-94013383D01*
X90000005Y-94013383D02*
X89761910Y-94061002D01*
X90214290Y-93894336D02*
X90214290Y-94227669D01*
X90214290Y-93941955D02*
X90238100Y-93918145D01*
X90238100Y-93918145D02*
X90285719Y-93894336D01*
X90285719Y-93894336D02*
X90357147Y-93894336D01*
X90357147Y-93894336D02*
X90404766Y-93918145D01*
X90404766Y-93918145D02*
X90428576Y-93965764D01*
X90428576Y-93965764D02*
X90428576Y-94227669D01*
X90857147Y-94203860D02*
X90809528Y-94227669D01*
X90809528Y-94227669D02*
X90714290Y-94227669D01*
X90714290Y-94227669D02*
X90666671Y-94203860D01*
X90666671Y-94203860D02*
X90642862Y-94156240D01*
X90642862Y-94156240D02*
X90642862Y-93965764D01*
X90642862Y-93965764D02*
X90666671Y-93918145D01*
X90666671Y-93918145D02*
X90714290Y-93894336D01*
X90714290Y-93894336D02*
X90809528Y-93894336D01*
X90809528Y-93894336D02*
X90857147Y-93918145D01*
X90857147Y-93918145D02*
X90880957Y-93965764D01*
X90880957Y-93965764D02*
X90880957Y-94013383D01*
X90880957Y-94013383D02*
X90642862Y-94061002D01*
X91095242Y-94227669D02*
X91095242Y-93894336D01*
X91095242Y-93989574D02*
X91119052Y-93941955D01*
X91119052Y-93941955D02*
X91142861Y-93918145D01*
X91142861Y-93918145D02*
X91190480Y-93894336D01*
X91190480Y-93894336D02*
X91238099Y-93894336D01*
X91857147Y-94227669D02*
X91809528Y-94203860D01*
X91809528Y-94203860D02*
X91785718Y-94180050D01*
X91785718Y-94180050D02*
X91761909Y-94132431D01*
X91761909Y-94132431D02*
X91761909Y-93989574D01*
X91761909Y-93989574D02*
X91785718Y-93941955D01*
X91785718Y-93941955D02*
X91809528Y-93918145D01*
X91809528Y-93918145D02*
X91857147Y-93894336D01*
X91857147Y-93894336D02*
X91928575Y-93894336D01*
X91928575Y-93894336D02*
X91976194Y-93918145D01*
X91976194Y-93918145D02*
X92000004Y-93941955D01*
X92000004Y-93941955D02*
X92023813Y-93989574D01*
X92023813Y-93989574D02*
X92023813Y-94132431D01*
X92023813Y-94132431D02*
X92000004Y-94180050D01*
X92000004Y-94180050D02*
X91976194Y-94203860D01*
X91976194Y-94203860D02*
X91928575Y-94227669D01*
X91928575Y-94227669D02*
X91857147Y-94227669D01*
X92238099Y-93894336D02*
X92238099Y-94394336D01*
X92238099Y-93918145D02*
X92285718Y-93894336D01*
X92285718Y-93894336D02*
X92380956Y-93894336D01*
X92380956Y-93894336D02*
X92428575Y-93918145D01*
X92428575Y-93918145D02*
X92452385Y-93941955D01*
X92452385Y-93941955D02*
X92476194Y-93989574D01*
X92476194Y-93989574D02*
X92476194Y-94132431D01*
X92476194Y-94132431D02*
X92452385Y-94180050D01*
X92452385Y-94180050D02*
X92428575Y-94203860D01*
X92428575Y-94203860D02*
X92380956Y-94227669D01*
X92380956Y-94227669D02*
X92285718Y-94227669D01*
X92285718Y-94227669D02*
X92238099Y-94203860D01*
X92880956Y-94203860D02*
X92833337Y-94227669D01*
X92833337Y-94227669D02*
X92738099Y-94227669D01*
X92738099Y-94227669D02*
X92690480Y-94203860D01*
X92690480Y-94203860D02*
X92666671Y-94156240D01*
X92666671Y-94156240D02*
X92666671Y-93965764D01*
X92666671Y-93965764D02*
X92690480Y-93918145D01*
X92690480Y-93918145D02*
X92738099Y-93894336D01*
X92738099Y-93894336D02*
X92833337Y-93894336D01*
X92833337Y-93894336D02*
X92880956Y-93918145D01*
X92880956Y-93918145D02*
X92904766Y-93965764D01*
X92904766Y-93965764D02*
X92904766Y-94013383D01*
X92904766Y-94013383D02*
X92666671Y-94061002D01*
X93119051Y-93894336D02*
X93119051Y-94227669D01*
X93119051Y-93941955D02*
X93142861Y-93918145D01*
X93142861Y-93918145D02*
X93190480Y-93894336D01*
X93190480Y-93894336D02*
X93261908Y-93894336D01*
X93261908Y-93894336D02*
X93309527Y-93918145D01*
X93309527Y-93918145D02*
X93333337Y-93965764D01*
X93333337Y-93965764D02*
X93333337Y-94227669D01*
X93571432Y-94227669D02*
X93571432Y-93894336D01*
X93571432Y-93727669D02*
X93547623Y-93751479D01*
X93547623Y-93751479D02*
X93571432Y-93775288D01*
X93571432Y-93775288D02*
X93595242Y-93751479D01*
X93595242Y-93751479D02*
X93571432Y-93727669D01*
X93571432Y-93727669D02*
X93571432Y-93775288D01*
X93809527Y-93894336D02*
X93809527Y-94227669D01*
X93809527Y-93941955D02*
X93833337Y-93918145D01*
X93833337Y-93918145D02*
X93880956Y-93894336D01*
X93880956Y-93894336D02*
X93952384Y-93894336D01*
X93952384Y-93894336D02*
X94000003Y-93918145D01*
X94000003Y-93918145D02*
X94023813Y-93965764D01*
X94023813Y-93965764D02*
X94023813Y-94227669D01*
X94476194Y-93894336D02*
X94476194Y-94299098D01*
X94476194Y-94299098D02*
X94452384Y-94346717D01*
X94452384Y-94346717D02*
X94428575Y-94370526D01*
X94428575Y-94370526D02*
X94380956Y-94394336D01*
X94380956Y-94394336D02*
X94309527Y-94394336D01*
X94309527Y-94394336D02*
X94261908Y-94370526D01*
X94476194Y-94203860D02*
X94428575Y-94227669D01*
X94428575Y-94227669D02*
X94333337Y-94227669D01*
X94333337Y-94227669D02*
X94285718Y-94203860D01*
X94285718Y-94203860D02*
X94261908Y-94180050D01*
X94261908Y-94180050D02*
X94238099Y-94132431D01*
X94238099Y-94132431D02*
X94238099Y-93989574D01*
X94238099Y-93989574D02*
X94261908Y-93941955D01*
X94261908Y-93941955D02*
X94285718Y-93918145D01*
X94285718Y-93918145D02*
X94333337Y-93894336D01*
X94333337Y-93894336D02*
X94428575Y-93894336D01*
X94428575Y-93894336D02*
X94476194Y-93918145D01*
X94690480Y-94203860D02*
X94738099Y-94227669D01*
X94738099Y-94227669D02*
X94833337Y-94227669D01*
X94833337Y-94227669D02*
X94880956Y-94203860D01*
X94880956Y-94203860D02*
X94904765Y-94156240D01*
X94904765Y-94156240D02*
X94904765Y-94132431D01*
X94904765Y-94132431D02*
X94880956Y-94084812D01*
X94880956Y-94084812D02*
X94833337Y-94061002D01*
X94833337Y-94061002D02*
X94761908Y-94061002D01*
X94761908Y-94061002D02*
X94714289Y-94037193D01*
X94714289Y-94037193D02*
X94690480Y-93989574D01*
X94690480Y-93989574D02*
X94690480Y-93965764D01*
X94690480Y-93965764D02*
X94714289Y-93918145D01*
X94714289Y-93918145D02*
X94761908Y-93894336D01*
X94761908Y-93894336D02*
X94833337Y-93894336D01*
X94833337Y-93894336D02*
X94880956Y-93918145D01*
X95119051Y-94180050D02*
X95142861Y-94203860D01*
X95142861Y-94203860D02*
X95119051Y-94227669D01*
X95119051Y-94227669D02*
X95095242Y-94203860D01*
X95095242Y-94203860D02*
X95119051Y-94180050D01*
X95119051Y-94180050D02*
X95119051Y-94227669D01*
X95119051Y-93918145D02*
X95142861Y-93941955D01*
X95142861Y-93941955D02*
X95119051Y-93965764D01*
X95119051Y-93965764D02*
X95095242Y-93941955D01*
X95095242Y-93941955D02*
X95119051Y-93918145D01*
X95119051Y-93918145D02*
X95119051Y-93965764D01*
X95952384Y-93894336D02*
X95952384Y-94227669D01*
X95833336Y-93703860D02*
X95714289Y-94061002D01*
X95714289Y-94061002D02*
X96023812Y-94061002D01*
X96547621Y-94227669D02*
X96809526Y-93894336D01*
X96547621Y-93894336D02*
X96809526Y-94227669D01*
X97357145Y-93775288D02*
X97380954Y-93751479D01*
X97380954Y-93751479D02*
X97428573Y-93727669D01*
X97428573Y-93727669D02*
X97547621Y-93727669D01*
X97547621Y-93727669D02*
X97595240Y-93751479D01*
X97595240Y-93751479D02*
X97619049Y-93775288D01*
X97619049Y-93775288D02*
X97642859Y-93822907D01*
X97642859Y-93822907D02*
X97642859Y-93870526D01*
X97642859Y-93870526D02*
X97619049Y-93941955D01*
X97619049Y-93941955D02*
X97333335Y-94227669D01*
X97333335Y-94227669D02*
X97642859Y-94227669D01*
X97857144Y-94180050D02*
X97880954Y-94203860D01*
X97880954Y-94203860D02*
X97857144Y-94227669D01*
X97857144Y-94227669D02*
X97833335Y-94203860D01*
X97833335Y-94203860D02*
X97857144Y-94180050D01*
X97857144Y-94180050D02*
X97857144Y-94227669D01*
X98190477Y-93727669D02*
X98238096Y-93727669D01*
X98238096Y-93727669D02*
X98285715Y-93751479D01*
X98285715Y-93751479D02*
X98309525Y-93775288D01*
X98309525Y-93775288D02*
X98333334Y-93822907D01*
X98333334Y-93822907D02*
X98357144Y-93918145D01*
X98357144Y-93918145D02*
X98357144Y-94037193D01*
X98357144Y-94037193D02*
X98333334Y-94132431D01*
X98333334Y-94132431D02*
X98309525Y-94180050D01*
X98309525Y-94180050D02*
X98285715Y-94203860D01*
X98285715Y-94203860D02*
X98238096Y-94227669D01*
X98238096Y-94227669D02*
X98190477Y-94227669D01*
X98190477Y-94227669D02*
X98142858Y-94203860D01*
X98142858Y-94203860D02*
X98119049Y-94180050D01*
X98119049Y-94180050D02*
X98095239Y-94132431D01*
X98095239Y-94132431D02*
X98071430Y-94037193D01*
X98071430Y-94037193D02*
X98071430Y-93918145D01*
X98071430Y-93918145D02*
X98095239Y-93822907D01*
X98095239Y-93822907D02*
X98119049Y-93775288D01*
X98119049Y-93775288D02*
X98142858Y-93751479D01*
X98142858Y-93751479D02*
X98190477Y-93727669D01*
X98904762Y-94227669D02*
X99166667Y-93894336D01*
X98904762Y-93894336D02*
X99166667Y-94227669D01*
X100000000Y-94227669D02*
X99714286Y-94227669D01*
X99857143Y-94227669D02*
X99857143Y-93727669D01*
X99857143Y-93727669D02*
X99809524Y-93799098D01*
X99809524Y-93799098D02*
X99761905Y-93846717D01*
X99761905Y-93846717D02*
X99714286Y-93870526D01*
X100214285Y-94180050D02*
X100238095Y-94203860D01*
X100238095Y-94203860D02*
X100214285Y-94227669D01*
X100214285Y-94227669D02*
X100190476Y-94203860D01*
X100190476Y-94203860D02*
X100214285Y-94180050D01*
X100214285Y-94180050D02*
X100214285Y-94227669D01*
X100690475Y-93727669D02*
X100452380Y-93727669D01*
X100452380Y-93727669D02*
X100428571Y-93965764D01*
X100428571Y-93965764D02*
X100452380Y-93941955D01*
X100452380Y-93941955D02*
X100499999Y-93918145D01*
X100499999Y-93918145D02*
X100619047Y-93918145D01*
X100619047Y-93918145D02*
X100666666Y-93941955D01*
X100666666Y-93941955D02*
X100690475Y-93965764D01*
X100690475Y-93965764D02*
X100714285Y-94013383D01*
X100714285Y-94013383D02*
X100714285Y-94132431D01*
X100714285Y-94132431D02*
X100690475Y-94180050D01*
X100690475Y-94180050D02*
X100666666Y-94203860D01*
X100666666Y-94203860D02*
X100619047Y-94227669D01*
X100619047Y-94227669D02*
X100499999Y-94227669D01*
X100499999Y-94227669D02*
X100452380Y-94203860D01*
X100452380Y-94203860D02*
X100428571Y-94180050D01*
X101452379Y-94418145D02*
X101428570Y-94394336D01*
X101428570Y-94394336D02*
X101380951Y-94322907D01*
X101380951Y-94322907D02*
X101357141Y-94275288D01*
X101357141Y-94275288D02*
X101333332Y-94203860D01*
X101333332Y-94203860D02*
X101309522Y-94084812D01*
X101309522Y-94084812D02*
X101309522Y-93989574D01*
X101309522Y-93989574D02*
X101333332Y-93870526D01*
X101333332Y-93870526D02*
X101357141Y-93799098D01*
X101357141Y-93799098D02*
X101380951Y-93751479D01*
X101380951Y-93751479D02*
X101428570Y-93680050D01*
X101428570Y-93680050D02*
X101452379Y-93656240D01*
X101619046Y-94203860D02*
X101666665Y-94227669D01*
X101666665Y-94227669D02*
X101761903Y-94227669D01*
X101761903Y-94227669D02*
X101809522Y-94203860D01*
X101809522Y-94203860D02*
X101833331Y-94156240D01*
X101833331Y-94156240D02*
X101833331Y-94132431D01*
X101833331Y-94132431D02*
X101809522Y-94084812D01*
X101809522Y-94084812D02*
X101761903Y-94061002D01*
X101761903Y-94061002D02*
X101690474Y-94061002D01*
X101690474Y-94061002D02*
X101642855Y-94037193D01*
X101642855Y-94037193D02*
X101619046Y-93989574D01*
X101619046Y-93989574D02*
X101619046Y-93965764D01*
X101619046Y-93965764D02*
X101642855Y-93918145D01*
X101642855Y-93918145D02*
X101690474Y-93894336D01*
X101690474Y-93894336D02*
X101761903Y-93894336D01*
X101761903Y-93894336D02*
X101809522Y-93918145D01*
X102047617Y-94227669D02*
X102047617Y-93727669D01*
X102261903Y-94227669D02*
X102261903Y-93965764D01*
X102261903Y-93965764D02*
X102238093Y-93918145D01*
X102238093Y-93918145D02*
X102190474Y-93894336D01*
X102190474Y-93894336D02*
X102119046Y-93894336D01*
X102119046Y-93894336D02*
X102071427Y-93918145D01*
X102071427Y-93918145D02*
X102047617Y-93941955D01*
X102690474Y-94203860D02*
X102642855Y-94227669D01*
X102642855Y-94227669D02*
X102547617Y-94227669D01*
X102547617Y-94227669D02*
X102499998Y-94203860D01*
X102499998Y-94203860D02*
X102476189Y-94156240D01*
X102476189Y-94156240D02*
X102476189Y-93965764D01*
X102476189Y-93965764D02*
X102499998Y-93918145D01*
X102499998Y-93918145D02*
X102547617Y-93894336D01*
X102547617Y-93894336D02*
X102642855Y-93894336D01*
X102642855Y-93894336D02*
X102690474Y-93918145D01*
X102690474Y-93918145D02*
X102714284Y-93965764D01*
X102714284Y-93965764D02*
X102714284Y-94013383D01*
X102714284Y-94013383D02*
X102476189Y-94061002D01*
X102999998Y-94227669D02*
X102952379Y-94203860D01*
X102952379Y-94203860D02*
X102928569Y-94156240D01*
X102928569Y-94156240D02*
X102928569Y-93727669D01*
X103261903Y-94227669D02*
X103214284Y-94203860D01*
X103214284Y-94203860D02*
X103190474Y-94156240D01*
X103190474Y-94156240D02*
X103190474Y-93727669D01*
X103904760Y-94227669D02*
X103857141Y-94203860D01*
X103857141Y-94203860D02*
X103833331Y-94156240D01*
X103833331Y-94156240D02*
X103833331Y-93727669D01*
X104285712Y-94203860D02*
X104238093Y-94227669D01*
X104238093Y-94227669D02*
X104142855Y-94227669D01*
X104142855Y-94227669D02*
X104095236Y-94203860D01*
X104095236Y-94203860D02*
X104071427Y-94156240D01*
X104071427Y-94156240D02*
X104071427Y-93965764D01*
X104071427Y-93965764D02*
X104095236Y-93918145D01*
X104095236Y-93918145D02*
X104142855Y-93894336D01*
X104142855Y-93894336D02*
X104238093Y-93894336D01*
X104238093Y-93894336D02*
X104285712Y-93918145D01*
X104285712Y-93918145D02*
X104309522Y-93965764D01*
X104309522Y-93965764D02*
X104309522Y-94013383D01*
X104309522Y-94013383D02*
X104071427Y-94061002D01*
X104738093Y-93894336D02*
X104738093Y-94299098D01*
X104738093Y-94299098D02*
X104714283Y-94346717D01*
X104714283Y-94346717D02*
X104690474Y-94370526D01*
X104690474Y-94370526D02*
X104642855Y-94394336D01*
X104642855Y-94394336D02*
X104571426Y-94394336D01*
X104571426Y-94394336D02*
X104523807Y-94370526D01*
X104738093Y-94203860D02*
X104690474Y-94227669D01*
X104690474Y-94227669D02*
X104595236Y-94227669D01*
X104595236Y-94227669D02*
X104547617Y-94203860D01*
X104547617Y-94203860D02*
X104523807Y-94180050D01*
X104523807Y-94180050D02*
X104499998Y-94132431D01*
X104499998Y-94132431D02*
X104499998Y-93989574D01*
X104499998Y-93989574D02*
X104523807Y-93941955D01*
X104523807Y-93941955D02*
X104547617Y-93918145D01*
X104547617Y-93918145D02*
X104595236Y-93894336D01*
X104595236Y-93894336D02*
X104690474Y-93894336D01*
X104690474Y-93894336D02*
X104738093Y-93918145D01*
X104952379Y-94203860D02*
X104999998Y-94227669D01*
X104999998Y-94227669D02*
X105095236Y-94227669D01*
X105095236Y-94227669D02*
X105142855Y-94203860D01*
X105142855Y-94203860D02*
X105166664Y-94156240D01*
X105166664Y-94156240D02*
X105166664Y-94132431D01*
X105166664Y-94132431D02*
X105142855Y-94084812D01*
X105142855Y-94084812D02*
X105095236Y-94061002D01*
X105095236Y-94061002D02*
X105023807Y-94061002D01*
X105023807Y-94061002D02*
X104976188Y-94037193D01*
X104976188Y-94037193D02*
X104952379Y-93989574D01*
X104952379Y-93989574D02*
X104952379Y-93965764D01*
X104952379Y-93965764D02*
X104976188Y-93918145D01*
X104976188Y-93918145D02*
X105023807Y-93894336D01*
X105023807Y-93894336D02*
X105095236Y-93894336D01*
X105095236Y-93894336D02*
X105142855Y-93918145D01*
X105333331Y-94418145D02*
X105357141Y-94394336D01*
X105357141Y-94394336D02*
X105404760Y-94322907D01*
X105404760Y-94322907D02*
X105428569Y-94275288D01*
X105428569Y-94275288D02*
X105452379Y-94203860D01*
X105452379Y-94203860D02*
X105476188Y-94084812D01*
X105476188Y-94084812D02*
X105476188Y-93989574D01*
X105476188Y-93989574D02*
X105452379Y-93870526D01*
X105452379Y-93870526D02*
X105428569Y-93799098D01*
X105428569Y-93799098D02*
X105404760Y-93751479D01*
X105404760Y-93751479D02*
X105357141Y-93680050D01*
X105357141Y-93680050D02*
X105333331Y-93656240D01*
X105738093Y-94203860D02*
X105738093Y-94227669D01*
X105738093Y-94227669D02*
X105714283Y-94275288D01*
X105714283Y-94275288D02*
X105690474Y-94299098D01*
X106309521Y-93775288D02*
X106333330Y-93751479D01*
X106333330Y-93751479D02*
X106380949Y-93727669D01*
X106380949Y-93727669D02*
X106499997Y-93727669D01*
X106499997Y-93727669D02*
X106547616Y-93751479D01*
X106547616Y-93751479D02*
X106571425Y-93775288D01*
X106571425Y-93775288D02*
X106595235Y-93822907D01*
X106595235Y-93822907D02*
X106595235Y-93870526D01*
X106595235Y-93870526D02*
X106571425Y-93941955D01*
X106571425Y-93941955D02*
X106285711Y-94227669D01*
X106285711Y-94227669D02*
X106595235Y-94227669D01*
X107142853Y-94227669D02*
X107404758Y-93894336D01*
X107142853Y-93894336D02*
X107404758Y-94227669D01*
X108071424Y-93727669D02*
X108119043Y-93727669D01*
X108119043Y-93727669D02*
X108166662Y-93751479D01*
X108166662Y-93751479D02*
X108190472Y-93775288D01*
X108190472Y-93775288D02*
X108214281Y-93822907D01*
X108214281Y-93822907D02*
X108238091Y-93918145D01*
X108238091Y-93918145D02*
X108238091Y-94037193D01*
X108238091Y-94037193D02*
X108214281Y-94132431D01*
X108214281Y-94132431D02*
X108190472Y-94180050D01*
X108190472Y-94180050D02*
X108166662Y-94203860D01*
X108166662Y-94203860D02*
X108119043Y-94227669D01*
X108119043Y-94227669D02*
X108071424Y-94227669D01*
X108071424Y-94227669D02*
X108023805Y-94203860D01*
X108023805Y-94203860D02*
X107999996Y-94180050D01*
X107999996Y-94180050D02*
X107976186Y-94132431D01*
X107976186Y-94132431D02*
X107952377Y-94037193D01*
X107952377Y-94037193D02*
X107952377Y-93918145D01*
X107952377Y-93918145D02*
X107976186Y-93822907D01*
X107976186Y-93822907D02*
X107999996Y-93775288D01*
X107999996Y-93775288D02*
X108023805Y-93751479D01*
X108023805Y-93751479D02*
X108071424Y-93727669D01*
X108452376Y-94180050D02*
X108476186Y-94203860D01*
X108476186Y-94203860D02*
X108452376Y-94227669D01*
X108452376Y-94227669D02*
X108428567Y-94203860D01*
X108428567Y-94203860D02*
X108452376Y-94180050D01*
X108452376Y-94180050D02*
X108452376Y-94227669D01*
X108714281Y-94227669D02*
X108809519Y-94227669D01*
X108809519Y-94227669D02*
X108857138Y-94203860D01*
X108857138Y-94203860D02*
X108880947Y-94180050D01*
X108880947Y-94180050D02*
X108928566Y-94108621D01*
X108928566Y-94108621D02*
X108952376Y-94013383D01*
X108952376Y-94013383D02*
X108952376Y-93822907D01*
X108952376Y-93822907D02*
X108928566Y-93775288D01*
X108928566Y-93775288D02*
X108904757Y-93751479D01*
X108904757Y-93751479D02*
X108857138Y-93727669D01*
X108857138Y-93727669D02*
X108761900Y-93727669D01*
X108761900Y-93727669D02*
X108714281Y-93751479D01*
X108714281Y-93751479D02*
X108690471Y-93775288D01*
X108690471Y-93775288D02*
X108666662Y-93822907D01*
X108666662Y-93822907D02*
X108666662Y-93941955D01*
X108666662Y-93941955D02*
X108690471Y-93989574D01*
X108690471Y-93989574D02*
X108714281Y-94013383D01*
X108714281Y-94013383D02*
X108761900Y-94037193D01*
X108761900Y-94037193D02*
X108857138Y-94037193D01*
X108857138Y-94037193D02*
X108904757Y-94013383D01*
X108904757Y-94013383D02*
X108928566Y-93989574D01*
X108928566Y-93989574D02*
X108952376Y-93941955D01*
X109690470Y-94418145D02*
X109666661Y-94394336D01*
X109666661Y-94394336D02*
X109619042Y-94322907D01*
X109619042Y-94322907D02*
X109595232Y-94275288D01*
X109595232Y-94275288D02*
X109571423Y-94203860D01*
X109571423Y-94203860D02*
X109547613Y-94084812D01*
X109547613Y-94084812D02*
X109547613Y-93989574D01*
X109547613Y-93989574D02*
X109571423Y-93870526D01*
X109571423Y-93870526D02*
X109595232Y-93799098D01*
X109595232Y-93799098D02*
X109619042Y-93751479D01*
X109619042Y-93751479D02*
X109666661Y-93680050D01*
X109666661Y-93680050D02*
X109690470Y-93656240D01*
X109880946Y-93894336D02*
X109880946Y-94394336D01*
X109880946Y-93918145D02*
X109928565Y-93894336D01*
X109928565Y-93894336D02*
X110023803Y-93894336D01*
X110023803Y-93894336D02*
X110071422Y-93918145D01*
X110071422Y-93918145D02*
X110095232Y-93941955D01*
X110095232Y-93941955D02*
X110119041Y-93989574D01*
X110119041Y-93989574D02*
X110119041Y-94132431D01*
X110119041Y-94132431D02*
X110095232Y-94180050D01*
X110095232Y-94180050D02*
X110071422Y-94203860D01*
X110071422Y-94203860D02*
X110023803Y-94227669D01*
X110023803Y-94227669D02*
X109928565Y-94227669D01*
X109928565Y-94227669D02*
X109880946Y-94203860D01*
X110523803Y-94203860D02*
X110476184Y-94227669D01*
X110476184Y-94227669D02*
X110380946Y-94227669D01*
X110380946Y-94227669D02*
X110333327Y-94203860D01*
X110333327Y-94203860D02*
X110309518Y-94156240D01*
X110309518Y-94156240D02*
X110309518Y-93965764D01*
X110309518Y-93965764D02*
X110333327Y-93918145D01*
X110333327Y-93918145D02*
X110380946Y-93894336D01*
X110380946Y-93894336D02*
X110476184Y-93894336D01*
X110476184Y-93894336D02*
X110523803Y-93918145D01*
X110523803Y-93918145D02*
X110547613Y-93965764D01*
X110547613Y-93965764D02*
X110547613Y-94013383D01*
X110547613Y-94013383D02*
X110309518Y-94061002D01*
X110976184Y-93894336D02*
X110976184Y-94299098D01*
X110976184Y-94299098D02*
X110952374Y-94346717D01*
X110952374Y-94346717D02*
X110928565Y-94370526D01*
X110928565Y-94370526D02*
X110880946Y-94394336D01*
X110880946Y-94394336D02*
X110809517Y-94394336D01*
X110809517Y-94394336D02*
X110761898Y-94370526D01*
X110976184Y-94203860D02*
X110928565Y-94227669D01*
X110928565Y-94227669D02*
X110833327Y-94227669D01*
X110833327Y-94227669D02*
X110785708Y-94203860D01*
X110785708Y-94203860D02*
X110761898Y-94180050D01*
X110761898Y-94180050D02*
X110738089Y-94132431D01*
X110738089Y-94132431D02*
X110738089Y-93989574D01*
X110738089Y-93989574D02*
X110761898Y-93941955D01*
X110761898Y-93941955D02*
X110785708Y-93918145D01*
X110785708Y-93918145D02*
X110833327Y-93894336D01*
X110833327Y-93894336D02*
X110928565Y-93894336D01*
X110928565Y-93894336D02*
X110976184Y-93918145D01*
X111190470Y-94203860D02*
X111238089Y-94227669D01*
X111238089Y-94227669D02*
X111333327Y-94227669D01*
X111333327Y-94227669D02*
X111380946Y-94203860D01*
X111380946Y-94203860D02*
X111404755Y-94156240D01*
X111404755Y-94156240D02*
X111404755Y-94132431D01*
X111404755Y-94132431D02*
X111380946Y-94084812D01*
X111380946Y-94084812D02*
X111333327Y-94061002D01*
X111333327Y-94061002D02*
X111261898Y-94061002D01*
X111261898Y-94061002D02*
X111214279Y-94037193D01*
X111214279Y-94037193D02*
X111190470Y-93989574D01*
X111190470Y-93989574D02*
X111190470Y-93965764D01*
X111190470Y-93965764D02*
X111214279Y-93918145D01*
X111214279Y-93918145D02*
X111261898Y-93894336D01*
X111261898Y-93894336D02*
X111333327Y-93894336D01*
X111333327Y-93894336D02*
X111380946Y-93918145D01*
X111571422Y-94418145D02*
X111595232Y-94394336D01*
X111595232Y-94394336D02*
X111642851Y-94322907D01*
X111642851Y-94322907D02*
X111666660Y-94275288D01*
X111666660Y-94275288D02*
X111690470Y-94203860D01*
X111690470Y-94203860D02*
X111714279Y-94084812D01*
X111714279Y-94084812D02*
X111714279Y-93989574D01*
X111714279Y-93989574D02*
X111690470Y-93870526D01*
X111690470Y-93870526D02*
X111666660Y-93799098D01*
X111666660Y-93799098D02*
X111642851Y-93751479D01*
X111642851Y-93751479D02*
X111595232Y-93680050D01*
X111595232Y-93680050D02*
X111571422Y-93656240D01*
D13*
X114354856Y-104208917D02*
X114154856Y-104208917D01*
X114154856Y-104523203D02*
X114154856Y-103923203D01*
X114154856Y-103923203D02*
X114440570Y-103923203D01*
X115011999Y-104523203D02*
X114811999Y-104237489D01*
X114669142Y-104523203D02*
X114669142Y-103923203D01*
X114669142Y-103923203D02*
X114897713Y-103923203D01*
X114897713Y-103923203D02*
X114954856Y-103951774D01*
X114954856Y-103951774D02*
X114983427Y-103980346D01*
X114983427Y-103980346D02*
X115011999Y-104037489D01*
X115011999Y-104037489D02*
X115011999Y-104123203D01*
X115011999Y-104123203D02*
X114983427Y-104180346D01*
X114983427Y-104180346D02*
X114954856Y-104208917D01*
X114954856Y-104208917D02*
X114897713Y-104237489D01*
X114897713Y-104237489D02*
X114669142Y-104237489D01*
X115526285Y-104123203D02*
X115526285Y-104523203D01*
X115383427Y-103894632D02*
X115240570Y-104323203D01*
X115240570Y-104323203D02*
X115611999Y-104323203D01*
X116411999Y-103923203D02*
X116469142Y-103923203D01*
X116469142Y-103923203D02*
X116526285Y-103951774D01*
X116526285Y-103951774D02*
X116554857Y-103980346D01*
X116554857Y-103980346D02*
X116583428Y-104037489D01*
X116583428Y-104037489D02*
X116611999Y-104151774D01*
X116611999Y-104151774D02*
X116611999Y-104294632D01*
X116611999Y-104294632D02*
X116583428Y-104408917D01*
X116583428Y-104408917D02*
X116554857Y-104466060D01*
X116554857Y-104466060D02*
X116526285Y-104494632D01*
X116526285Y-104494632D02*
X116469142Y-104523203D01*
X116469142Y-104523203D02*
X116411999Y-104523203D01*
X116411999Y-104523203D02*
X116354857Y-104494632D01*
X116354857Y-104494632D02*
X116326285Y-104466060D01*
X116326285Y-104466060D02*
X116297714Y-104408917D01*
X116297714Y-104408917D02*
X116269142Y-104294632D01*
X116269142Y-104294632D02*
X116269142Y-104151774D01*
X116269142Y-104151774D02*
X116297714Y-104037489D01*
X116297714Y-104037489D02*
X116326285Y-103980346D01*
X116326285Y-103980346D02*
X116354857Y-103951774D01*
X116354857Y-103951774D02*
X116411999Y-103923203D01*
X116869143Y-104466060D02*
X116897714Y-104494632D01*
X116897714Y-104494632D02*
X116869143Y-104523203D01*
X116869143Y-104523203D02*
X116840571Y-104494632D01*
X116840571Y-104494632D02*
X116869143Y-104466060D01*
X116869143Y-104466060D02*
X116869143Y-104523203D01*
X117412000Y-103923203D02*
X117297714Y-103923203D01*
X117297714Y-103923203D02*
X117240571Y-103951774D01*
X117240571Y-103951774D02*
X117212000Y-103980346D01*
X117212000Y-103980346D02*
X117154857Y-104066060D01*
X117154857Y-104066060D02*
X117126285Y-104180346D01*
X117126285Y-104180346D02*
X117126285Y-104408917D01*
X117126285Y-104408917D02*
X117154857Y-104466060D01*
X117154857Y-104466060D02*
X117183428Y-104494632D01*
X117183428Y-104494632D02*
X117240571Y-104523203D01*
X117240571Y-104523203D02*
X117354857Y-104523203D01*
X117354857Y-104523203D02*
X117412000Y-104494632D01*
X117412000Y-104494632D02*
X117440571Y-104466060D01*
X117440571Y-104466060D02*
X117469142Y-104408917D01*
X117469142Y-104408917D02*
X117469142Y-104266060D01*
X117469142Y-104266060D02*
X117440571Y-104208917D01*
X117440571Y-104208917D02*
X117412000Y-104180346D01*
X117412000Y-104180346D02*
X117354857Y-104151774D01*
X117354857Y-104151774D02*
X117240571Y-104151774D01*
X117240571Y-104151774D02*
X117183428Y-104180346D01*
X117183428Y-104180346D02*
X117154857Y-104208917D01*
X117154857Y-104208917D02*
X117126285Y-104266060D01*
X118154857Y-104494632D02*
X118212000Y-104523203D01*
X118212000Y-104523203D02*
X118326286Y-104523203D01*
X118326286Y-104523203D02*
X118383429Y-104494632D01*
X118383429Y-104494632D02*
X118412000Y-104437489D01*
X118412000Y-104437489D02*
X118412000Y-104408917D01*
X118412000Y-104408917D02*
X118383429Y-104351774D01*
X118383429Y-104351774D02*
X118326286Y-104323203D01*
X118326286Y-104323203D02*
X118240572Y-104323203D01*
X118240572Y-104323203D02*
X118183429Y-104294632D01*
X118183429Y-104294632D02*
X118154857Y-104237489D01*
X118154857Y-104237489D02*
X118154857Y-104208917D01*
X118154857Y-104208917D02*
X118183429Y-104151774D01*
X118183429Y-104151774D02*
X118240572Y-104123203D01*
X118240572Y-104123203D02*
X118326286Y-104123203D01*
X118326286Y-104123203D02*
X118383429Y-104151774D01*
X118583428Y-104123203D02*
X118812000Y-104123203D01*
X118669143Y-103923203D02*
X118669143Y-104437489D01*
X118669143Y-104437489D02*
X118697714Y-104494632D01*
X118697714Y-104494632D02*
X118754857Y-104523203D01*
X118754857Y-104523203D02*
X118812000Y-104523203D01*
X119012000Y-104523203D02*
X119012000Y-104123203D01*
X119012000Y-103923203D02*
X118983428Y-103951774D01*
X118983428Y-103951774D02*
X119012000Y-103980346D01*
X119012000Y-103980346D02*
X119040571Y-103951774D01*
X119040571Y-103951774D02*
X119012000Y-103923203D01*
X119012000Y-103923203D02*
X119012000Y-103980346D01*
X119211999Y-104123203D02*
X119440571Y-104123203D01*
X119297714Y-104523203D02*
X119297714Y-104008917D01*
X119297714Y-104008917D02*
X119326285Y-103951774D01*
X119326285Y-103951774D02*
X119383428Y-103923203D01*
X119383428Y-103923203D02*
X119440571Y-103923203D01*
X119554856Y-104123203D02*
X119783428Y-104123203D01*
X119640571Y-104523203D02*
X119640571Y-104008917D01*
X119640571Y-104008917D02*
X119669142Y-103951774D01*
X119669142Y-103951774D02*
X119726285Y-103923203D01*
X119726285Y-103923203D02*
X119783428Y-103923203D01*
X120211999Y-104494632D02*
X120154856Y-104523203D01*
X120154856Y-104523203D02*
X120040571Y-104523203D01*
X120040571Y-104523203D02*
X119983428Y-104494632D01*
X119983428Y-104494632D02*
X119954856Y-104437489D01*
X119954856Y-104437489D02*
X119954856Y-104208917D01*
X119954856Y-104208917D02*
X119983428Y-104151774D01*
X119983428Y-104151774D02*
X120040571Y-104123203D01*
X120040571Y-104123203D02*
X120154856Y-104123203D01*
X120154856Y-104123203D02*
X120211999Y-104151774D01*
X120211999Y-104151774D02*
X120240571Y-104208917D01*
X120240571Y-104208917D02*
X120240571Y-104266060D01*
X120240571Y-104266060D02*
X119954856Y-104323203D01*
X120497714Y-104123203D02*
X120497714Y-104523203D01*
X120497714Y-104180346D02*
X120526285Y-104151774D01*
X120526285Y-104151774D02*
X120583428Y-104123203D01*
X120583428Y-104123203D02*
X120669142Y-104123203D01*
X120669142Y-104123203D02*
X120726285Y-104151774D01*
X120726285Y-104151774D02*
X120754857Y-104208917D01*
X120754857Y-104208917D02*
X120754857Y-104523203D01*
X121269142Y-104494632D02*
X121211999Y-104523203D01*
X121211999Y-104523203D02*
X121097714Y-104523203D01*
X121097714Y-104523203D02*
X121040571Y-104494632D01*
X121040571Y-104494632D02*
X121011999Y-104437489D01*
X121011999Y-104437489D02*
X121011999Y-104208917D01*
X121011999Y-104208917D02*
X121040571Y-104151774D01*
X121040571Y-104151774D02*
X121097714Y-104123203D01*
X121097714Y-104123203D02*
X121211999Y-104123203D01*
X121211999Y-104123203D02*
X121269142Y-104151774D01*
X121269142Y-104151774D02*
X121297714Y-104208917D01*
X121297714Y-104208917D02*
X121297714Y-104266060D01*
X121297714Y-104266060D02*
X121011999Y-104323203D01*
X121554857Y-104523203D02*
X121554857Y-104123203D01*
X121554857Y-104237489D02*
X121583428Y-104180346D01*
X121583428Y-104180346D02*
X121612000Y-104151774D01*
X121612000Y-104151774D02*
X121669142Y-104123203D01*
X121669142Y-104123203D02*
X121726285Y-104123203D01*
X122554857Y-104751774D02*
X122526286Y-104723203D01*
X122526286Y-104723203D02*
X122469143Y-104637489D01*
X122469143Y-104637489D02*
X122440572Y-104580346D01*
X122440572Y-104580346D02*
X122412000Y-104494632D01*
X122412000Y-104494632D02*
X122383429Y-104351774D01*
X122383429Y-104351774D02*
X122383429Y-104237489D01*
X122383429Y-104237489D02*
X122412000Y-104094632D01*
X122412000Y-104094632D02*
X122440572Y-104008917D01*
X122440572Y-104008917D02*
X122469143Y-103951774D01*
X122469143Y-103951774D02*
X122526286Y-103866060D01*
X122526286Y-103866060D02*
X122554857Y-103837489D01*
X122983429Y-104208917D02*
X123069143Y-104237489D01*
X123069143Y-104237489D02*
X123097714Y-104266060D01*
X123097714Y-104266060D02*
X123126286Y-104323203D01*
X123126286Y-104323203D02*
X123126286Y-104408917D01*
X123126286Y-104408917D02*
X123097714Y-104466060D01*
X123097714Y-104466060D02*
X123069143Y-104494632D01*
X123069143Y-104494632D02*
X123012000Y-104523203D01*
X123012000Y-104523203D02*
X122783429Y-104523203D01*
X122783429Y-104523203D02*
X122783429Y-103923203D01*
X122783429Y-103923203D02*
X122983429Y-103923203D01*
X122983429Y-103923203D02*
X123040572Y-103951774D01*
X123040572Y-103951774D02*
X123069143Y-103980346D01*
X123069143Y-103980346D02*
X123097714Y-104037489D01*
X123097714Y-104037489D02*
X123097714Y-104094632D01*
X123097714Y-104094632D02*
X123069143Y-104151774D01*
X123069143Y-104151774D02*
X123040572Y-104180346D01*
X123040572Y-104180346D02*
X122983429Y-104208917D01*
X122983429Y-104208917D02*
X122783429Y-104208917D01*
X123326286Y-104751774D02*
X123354857Y-104723203D01*
X123354857Y-104723203D02*
X123412000Y-104637489D01*
X123412000Y-104637489D02*
X123440572Y-104580346D01*
X123440572Y-104580346D02*
X123469143Y-104494632D01*
X123469143Y-104494632D02*
X123497714Y-104351774D01*
X123497714Y-104351774D02*
X123497714Y-104237489D01*
X123497714Y-104237489D02*
X123469143Y-104094632D01*
X123469143Y-104094632D02*
X123440572Y-104008917D01*
X123440572Y-104008917D02*
X123412000Y-103951774D01*
X123412000Y-103951774D02*
X123354857Y-103866060D01*
X123354857Y-103866060D02*
X123326286Y-103837489D01*
X124497715Y-104123203D02*
X124497715Y-104523203D01*
X124240572Y-104123203D02*
X124240572Y-104437489D01*
X124240572Y-104437489D02*
X124269143Y-104494632D01*
X124269143Y-104494632D02*
X124326286Y-104523203D01*
X124326286Y-104523203D02*
X124412000Y-104523203D01*
X124412000Y-104523203D02*
X124469143Y-104494632D01*
X124469143Y-104494632D02*
X124497715Y-104466060D01*
X124783429Y-104123203D02*
X124783429Y-104523203D01*
X124783429Y-104180346D02*
X124812000Y-104151774D01*
X124812000Y-104151774D02*
X124869143Y-104123203D01*
X124869143Y-104123203D02*
X124954857Y-104123203D01*
X124954857Y-104123203D02*
X125012000Y-104151774D01*
X125012000Y-104151774D02*
X125040572Y-104208917D01*
X125040572Y-104208917D02*
X125040572Y-104523203D01*
X125583429Y-104523203D02*
X125583429Y-103923203D01*
X125583429Y-104494632D02*
X125526286Y-104523203D01*
X125526286Y-104523203D02*
X125412000Y-104523203D01*
X125412000Y-104523203D02*
X125354857Y-104494632D01*
X125354857Y-104494632D02*
X125326286Y-104466060D01*
X125326286Y-104466060D02*
X125297714Y-104408917D01*
X125297714Y-104408917D02*
X125297714Y-104237489D01*
X125297714Y-104237489D02*
X125326286Y-104180346D01*
X125326286Y-104180346D02*
X125354857Y-104151774D01*
X125354857Y-104151774D02*
X125412000Y-104123203D01*
X125412000Y-104123203D02*
X125526286Y-104123203D01*
X125526286Y-104123203D02*
X125583429Y-104151774D01*
X126097714Y-104494632D02*
X126040571Y-104523203D01*
X126040571Y-104523203D02*
X125926286Y-104523203D01*
X125926286Y-104523203D02*
X125869143Y-104494632D01*
X125869143Y-104494632D02*
X125840571Y-104437489D01*
X125840571Y-104437489D02*
X125840571Y-104208917D01*
X125840571Y-104208917D02*
X125869143Y-104151774D01*
X125869143Y-104151774D02*
X125926286Y-104123203D01*
X125926286Y-104123203D02*
X126040571Y-104123203D01*
X126040571Y-104123203D02*
X126097714Y-104151774D01*
X126097714Y-104151774D02*
X126126286Y-104208917D01*
X126126286Y-104208917D02*
X126126286Y-104266060D01*
X126126286Y-104266060D02*
X125840571Y-104323203D01*
X126383429Y-104523203D02*
X126383429Y-104123203D01*
X126383429Y-104237489D02*
X126412000Y-104180346D01*
X126412000Y-104180346D02*
X126440572Y-104151774D01*
X126440572Y-104151774D02*
X126497714Y-104123203D01*
X126497714Y-104123203D02*
X126554857Y-104123203D01*
X127126286Y-104123203D02*
X127354858Y-104123203D01*
X127212001Y-103923203D02*
X127212001Y-104437489D01*
X127212001Y-104437489D02*
X127240572Y-104494632D01*
X127240572Y-104494632D02*
X127297715Y-104523203D01*
X127297715Y-104523203D02*
X127354858Y-104523203D01*
X127554858Y-104523203D02*
X127554858Y-103923203D01*
X127812001Y-104523203D02*
X127812001Y-104208917D01*
X127812001Y-104208917D02*
X127783429Y-104151774D01*
X127783429Y-104151774D02*
X127726286Y-104123203D01*
X127726286Y-104123203D02*
X127640572Y-104123203D01*
X127640572Y-104123203D02*
X127583429Y-104151774D01*
X127583429Y-104151774D02*
X127554858Y-104180346D01*
X128326286Y-104494632D02*
X128269143Y-104523203D01*
X128269143Y-104523203D02*
X128154858Y-104523203D01*
X128154858Y-104523203D02*
X128097715Y-104494632D01*
X128097715Y-104494632D02*
X128069143Y-104437489D01*
X128069143Y-104437489D02*
X128069143Y-104208917D01*
X128069143Y-104208917D02*
X128097715Y-104151774D01*
X128097715Y-104151774D02*
X128154858Y-104123203D01*
X128154858Y-104123203D02*
X128269143Y-104123203D01*
X128269143Y-104123203D02*
X128326286Y-104151774D01*
X128326286Y-104151774D02*
X128354858Y-104208917D01*
X128354858Y-104208917D02*
X128354858Y-104266060D01*
X128354858Y-104266060D02*
X128069143Y-104323203D01*
X129069144Y-104523203D02*
X129069144Y-103923203D01*
X129326287Y-104523203D02*
X129326287Y-104208917D01*
X129326287Y-104208917D02*
X129297715Y-104151774D01*
X129297715Y-104151774D02*
X129240572Y-104123203D01*
X129240572Y-104123203D02*
X129154858Y-104123203D01*
X129154858Y-104123203D02*
X129097715Y-104151774D01*
X129097715Y-104151774D02*
X129069144Y-104180346D01*
X129840572Y-104494632D02*
X129783429Y-104523203D01*
X129783429Y-104523203D02*
X129669144Y-104523203D01*
X129669144Y-104523203D02*
X129612001Y-104494632D01*
X129612001Y-104494632D02*
X129583429Y-104437489D01*
X129583429Y-104437489D02*
X129583429Y-104208917D01*
X129583429Y-104208917D02*
X129612001Y-104151774D01*
X129612001Y-104151774D02*
X129669144Y-104123203D01*
X129669144Y-104123203D02*
X129783429Y-104123203D01*
X129783429Y-104123203D02*
X129840572Y-104151774D01*
X129840572Y-104151774D02*
X129869144Y-104208917D01*
X129869144Y-104208917D02*
X129869144Y-104266060D01*
X129869144Y-104266060D02*
X129583429Y-104323203D01*
X130383430Y-104523203D02*
X130383430Y-104208917D01*
X130383430Y-104208917D02*
X130354858Y-104151774D01*
X130354858Y-104151774D02*
X130297715Y-104123203D01*
X130297715Y-104123203D02*
X130183430Y-104123203D01*
X130183430Y-104123203D02*
X130126287Y-104151774D01*
X130383430Y-104494632D02*
X130326287Y-104523203D01*
X130326287Y-104523203D02*
X130183430Y-104523203D01*
X130183430Y-104523203D02*
X130126287Y-104494632D01*
X130126287Y-104494632D02*
X130097715Y-104437489D01*
X130097715Y-104437489D02*
X130097715Y-104380346D01*
X130097715Y-104380346D02*
X130126287Y-104323203D01*
X130126287Y-104323203D02*
X130183430Y-104294632D01*
X130183430Y-104294632D02*
X130326287Y-104294632D01*
X130326287Y-104294632D02*
X130383430Y-104266060D01*
X130926287Y-104523203D02*
X130926287Y-103923203D01*
X130926287Y-104494632D02*
X130869144Y-104523203D01*
X130869144Y-104523203D02*
X130754858Y-104523203D01*
X130754858Y-104523203D02*
X130697715Y-104494632D01*
X130697715Y-104494632D02*
X130669144Y-104466060D01*
X130669144Y-104466060D02*
X130640572Y-104408917D01*
X130640572Y-104408917D02*
X130640572Y-104237489D01*
X130640572Y-104237489D02*
X130669144Y-104180346D01*
X130669144Y-104180346D02*
X130697715Y-104151774D01*
X130697715Y-104151774D02*
X130754858Y-104123203D01*
X130754858Y-104123203D02*
X130869144Y-104123203D01*
X130869144Y-104123203D02*
X130926287Y-104151774D01*
X131440572Y-104494632D02*
X131383429Y-104523203D01*
X131383429Y-104523203D02*
X131269144Y-104523203D01*
X131269144Y-104523203D02*
X131212001Y-104494632D01*
X131212001Y-104494632D02*
X131183429Y-104437489D01*
X131183429Y-104437489D02*
X131183429Y-104208917D01*
X131183429Y-104208917D02*
X131212001Y-104151774D01*
X131212001Y-104151774D02*
X131269144Y-104123203D01*
X131269144Y-104123203D02*
X131383429Y-104123203D01*
X131383429Y-104123203D02*
X131440572Y-104151774D01*
X131440572Y-104151774D02*
X131469144Y-104208917D01*
X131469144Y-104208917D02*
X131469144Y-104266060D01*
X131469144Y-104266060D02*
X131183429Y-104323203D01*
X131726287Y-104523203D02*
X131726287Y-104123203D01*
X131726287Y-104237489D02*
X131754858Y-104180346D01*
X131754858Y-104180346D02*
X131783430Y-104151774D01*
X131783430Y-104151774D02*
X131840572Y-104123203D01*
X131840572Y-104123203D02*
X131897715Y-104123203D01*
X132554859Y-104123203D02*
X132554859Y-104723203D01*
X132554859Y-104151774D02*
X132612002Y-104123203D01*
X132612002Y-104123203D02*
X132726287Y-104123203D01*
X132726287Y-104123203D02*
X132783430Y-104151774D01*
X132783430Y-104151774D02*
X132812002Y-104180346D01*
X132812002Y-104180346D02*
X132840573Y-104237489D01*
X132840573Y-104237489D02*
X132840573Y-104408917D01*
X132840573Y-104408917D02*
X132812002Y-104466060D01*
X132812002Y-104466060D02*
X132783430Y-104494632D01*
X132783430Y-104494632D02*
X132726287Y-104523203D01*
X132726287Y-104523203D02*
X132612002Y-104523203D01*
X132612002Y-104523203D02*
X132554859Y-104494632D01*
X133354859Y-104523203D02*
X133354859Y-104208917D01*
X133354859Y-104208917D02*
X133326287Y-104151774D01*
X133326287Y-104151774D02*
X133269144Y-104123203D01*
X133269144Y-104123203D02*
X133154859Y-104123203D01*
X133154859Y-104123203D02*
X133097716Y-104151774D01*
X133354859Y-104494632D02*
X133297716Y-104523203D01*
X133297716Y-104523203D02*
X133154859Y-104523203D01*
X133154859Y-104523203D02*
X133097716Y-104494632D01*
X133097716Y-104494632D02*
X133069144Y-104437489D01*
X133069144Y-104437489D02*
X133069144Y-104380346D01*
X133069144Y-104380346D02*
X133097716Y-104323203D01*
X133097716Y-104323203D02*
X133154859Y-104294632D01*
X133154859Y-104294632D02*
X133297716Y-104294632D01*
X133297716Y-104294632D02*
X133354859Y-104266060D01*
X133897716Y-104523203D02*
X133897716Y-103923203D01*
X133897716Y-104494632D02*
X133840573Y-104523203D01*
X133840573Y-104523203D02*
X133726287Y-104523203D01*
X133726287Y-104523203D02*
X133669144Y-104494632D01*
X133669144Y-104494632D02*
X133640573Y-104466060D01*
X133640573Y-104466060D02*
X133612001Y-104408917D01*
X133612001Y-104408917D02*
X133612001Y-104237489D01*
X133612001Y-104237489D02*
X133640573Y-104180346D01*
X133640573Y-104180346D02*
X133669144Y-104151774D01*
X133669144Y-104151774D02*
X133726287Y-104123203D01*
X133726287Y-104123203D02*
X133840573Y-104123203D01*
X133840573Y-104123203D02*
X133897716Y-104151774D01*
X134440573Y-104523203D02*
X134440573Y-103923203D01*
X134440573Y-104494632D02*
X134383430Y-104523203D01*
X134383430Y-104523203D02*
X134269144Y-104523203D01*
X134269144Y-104523203D02*
X134212001Y-104494632D01*
X134212001Y-104494632D02*
X134183430Y-104466060D01*
X134183430Y-104466060D02*
X134154858Y-104408917D01*
X134154858Y-104408917D02*
X134154858Y-104237489D01*
X134154858Y-104237489D02*
X134183430Y-104180346D01*
X134183430Y-104180346D02*
X134212001Y-104151774D01*
X134212001Y-104151774D02*
X134269144Y-104123203D01*
X134269144Y-104123203D02*
X134383430Y-104123203D01*
X134383430Y-104123203D02*
X134440573Y-104151774D01*
X134812001Y-104523203D02*
X134754858Y-104494632D01*
X134754858Y-104494632D02*
X134726287Y-104437489D01*
X134726287Y-104437489D02*
X134726287Y-103923203D01*
X135269144Y-104494632D02*
X135212001Y-104523203D01*
X135212001Y-104523203D02*
X135097716Y-104523203D01*
X135097716Y-104523203D02*
X135040573Y-104494632D01*
X135040573Y-104494632D02*
X135012001Y-104437489D01*
X135012001Y-104437489D02*
X135012001Y-104208917D01*
X135012001Y-104208917D02*
X135040573Y-104151774D01*
X135040573Y-104151774D02*
X135097716Y-104123203D01*
X135097716Y-104123203D02*
X135212001Y-104123203D01*
X135212001Y-104123203D02*
X135269144Y-104151774D01*
X135269144Y-104151774D02*
X135297716Y-104208917D01*
X135297716Y-104208917D02*
X135297716Y-104266060D01*
X135297716Y-104266060D02*
X135012001Y-104323203D01*
X90771427Y-105358917D02*
X90571427Y-105358917D01*
X90571427Y-105673203D02*
X90571427Y-105073203D01*
X90571427Y-105073203D02*
X90857141Y-105073203D01*
X91428570Y-105673203D02*
X91228570Y-105387489D01*
X91085713Y-105673203D02*
X91085713Y-105073203D01*
X91085713Y-105073203D02*
X91314284Y-105073203D01*
X91314284Y-105073203D02*
X91371427Y-105101774D01*
X91371427Y-105101774D02*
X91399998Y-105130346D01*
X91399998Y-105130346D02*
X91428570Y-105187489D01*
X91428570Y-105187489D02*
X91428570Y-105273203D01*
X91428570Y-105273203D02*
X91399998Y-105330346D01*
X91399998Y-105330346D02*
X91371427Y-105358917D01*
X91371427Y-105358917D02*
X91314284Y-105387489D01*
X91314284Y-105387489D02*
X91085713Y-105387489D01*
X91942856Y-105273203D02*
X91942856Y-105673203D01*
X91799998Y-105044632D02*
X91657141Y-105473203D01*
X91657141Y-105473203D02*
X92028570Y-105473203D01*
X93028570Y-105673203D02*
X92685713Y-105673203D01*
X92857142Y-105673203D02*
X92857142Y-105073203D01*
X92857142Y-105073203D02*
X92799999Y-105158917D01*
X92799999Y-105158917D02*
X92742856Y-105216060D01*
X92742856Y-105216060D02*
X92685713Y-105244632D01*
X93285714Y-105616060D02*
X93314285Y-105644632D01*
X93314285Y-105644632D02*
X93285714Y-105673203D01*
X93285714Y-105673203D02*
X93257142Y-105644632D01*
X93257142Y-105644632D02*
X93285714Y-105616060D01*
X93285714Y-105616060D02*
X93285714Y-105673203D01*
X93685713Y-105073203D02*
X93742856Y-105073203D01*
X93742856Y-105073203D02*
X93799999Y-105101774D01*
X93799999Y-105101774D02*
X93828571Y-105130346D01*
X93828571Y-105130346D02*
X93857142Y-105187489D01*
X93857142Y-105187489D02*
X93885713Y-105301774D01*
X93885713Y-105301774D02*
X93885713Y-105444632D01*
X93885713Y-105444632D02*
X93857142Y-105558917D01*
X93857142Y-105558917D02*
X93828571Y-105616060D01*
X93828571Y-105616060D02*
X93799999Y-105644632D01*
X93799999Y-105644632D02*
X93742856Y-105673203D01*
X93742856Y-105673203D02*
X93685713Y-105673203D01*
X93685713Y-105673203D02*
X93628571Y-105644632D01*
X93628571Y-105644632D02*
X93599999Y-105616060D01*
X93599999Y-105616060D02*
X93571428Y-105558917D01*
X93571428Y-105558917D02*
X93542856Y-105444632D01*
X93542856Y-105444632D02*
X93542856Y-105301774D01*
X93542856Y-105301774D02*
X93571428Y-105187489D01*
X93571428Y-105187489D02*
X93599999Y-105130346D01*
X93599999Y-105130346D02*
X93628571Y-105101774D01*
X93628571Y-105101774D02*
X93685713Y-105073203D01*
X94571428Y-105644632D02*
X94628571Y-105673203D01*
X94628571Y-105673203D02*
X94742857Y-105673203D01*
X94742857Y-105673203D02*
X94800000Y-105644632D01*
X94800000Y-105644632D02*
X94828571Y-105587489D01*
X94828571Y-105587489D02*
X94828571Y-105558917D01*
X94828571Y-105558917D02*
X94800000Y-105501774D01*
X94800000Y-105501774D02*
X94742857Y-105473203D01*
X94742857Y-105473203D02*
X94657143Y-105473203D01*
X94657143Y-105473203D02*
X94600000Y-105444632D01*
X94600000Y-105444632D02*
X94571428Y-105387489D01*
X94571428Y-105387489D02*
X94571428Y-105358917D01*
X94571428Y-105358917D02*
X94600000Y-105301774D01*
X94600000Y-105301774D02*
X94657143Y-105273203D01*
X94657143Y-105273203D02*
X94742857Y-105273203D01*
X94742857Y-105273203D02*
X94800000Y-105301774D01*
X94999999Y-105273203D02*
X95228571Y-105273203D01*
X95085714Y-105073203D02*
X95085714Y-105587489D01*
X95085714Y-105587489D02*
X95114285Y-105644632D01*
X95114285Y-105644632D02*
X95171428Y-105673203D01*
X95171428Y-105673203D02*
X95228571Y-105673203D01*
X95428571Y-105673203D02*
X95428571Y-105273203D01*
X95428571Y-105073203D02*
X95399999Y-105101774D01*
X95399999Y-105101774D02*
X95428571Y-105130346D01*
X95428571Y-105130346D02*
X95457142Y-105101774D01*
X95457142Y-105101774D02*
X95428571Y-105073203D01*
X95428571Y-105073203D02*
X95428571Y-105130346D01*
X95628570Y-105273203D02*
X95857142Y-105273203D01*
X95714285Y-105673203D02*
X95714285Y-105158917D01*
X95714285Y-105158917D02*
X95742856Y-105101774D01*
X95742856Y-105101774D02*
X95799999Y-105073203D01*
X95799999Y-105073203D02*
X95857142Y-105073203D01*
X95971427Y-105273203D02*
X96199999Y-105273203D01*
X96057142Y-105673203D02*
X96057142Y-105158917D01*
X96057142Y-105158917D02*
X96085713Y-105101774D01*
X96085713Y-105101774D02*
X96142856Y-105073203D01*
X96142856Y-105073203D02*
X96199999Y-105073203D01*
X96628570Y-105644632D02*
X96571427Y-105673203D01*
X96571427Y-105673203D02*
X96457142Y-105673203D01*
X96457142Y-105673203D02*
X96399999Y-105644632D01*
X96399999Y-105644632D02*
X96371427Y-105587489D01*
X96371427Y-105587489D02*
X96371427Y-105358917D01*
X96371427Y-105358917D02*
X96399999Y-105301774D01*
X96399999Y-105301774D02*
X96457142Y-105273203D01*
X96457142Y-105273203D02*
X96571427Y-105273203D01*
X96571427Y-105273203D02*
X96628570Y-105301774D01*
X96628570Y-105301774D02*
X96657142Y-105358917D01*
X96657142Y-105358917D02*
X96657142Y-105416060D01*
X96657142Y-105416060D02*
X96371427Y-105473203D01*
X96914285Y-105273203D02*
X96914285Y-105673203D01*
X96914285Y-105330346D02*
X96942856Y-105301774D01*
X96942856Y-105301774D02*
X96999999Y-105273203D01*
X96999999Y-105273203D02*
X97085713Y-105273203D01*
X97085713Y-105273203D02*
X97142856Y-105301774D01*
X97142856Y-105301774D02*
X97171428Y-105358917D01*
X97171428Y-105358917D02*
X97171428Y-105673203D01*
X97685713Y-105644632D02*
X97628570Y-105673203D01*
X97628570Y-105673203D02*
X97514285Y-105673203D01*
X97514285Y-105673203D02*
X97457142Y-105644632D01*
X97457142Y-105644632D02*
X97428570Y-105587489D01*
X97428570Y-105587489D02*
X97428570Y-105358917D01*
X97428570Y-105358917D02*
X97457142Y-105301774D01*
X97457142Y-105301774D02*
X97514285Y-105273203D01*
X97514285Y-105273203D02*
X97628570Y-105273203D01*
X97628570Y-105273203D02*
X97685713Y-105301774D01*
X97685713Y-105301774D02*
X97714285Y-105358917D01*
X97714285Y-105358917D02*
X97714285Y-105416060D01*
X97714285Y-105416060D02*
X97428570Y-105473203D01*
X97971428Y-105673203D02*
X97971428Y-105273203D01*
X97971428Y-105387489D02*
X97999999Y-105330346D01*
X97999999Y-105330346D02*
X98028571Y-105301774D01*
X98028571Y-105301774D02*
X98085713Y-105273203D01*
X98085713Y-105273203D02*
X98142856Y-105273203D01*
X98971428Y-105901774D02*
X98942857Y-105873203D01*
X98942857Y-105873203D02*
X98885714Y-105787489D01*
X98885714Y-105787489D02*
X98857143Y-105730346D01*
X98857143Y-105730346D02*
X98828571Y-105644632D01*
X98828571Y-105644632D02*
X98800000Y-105501774D01*
X98800000Y-105501774D02*
X98800000Y-105387489D01*
X98800000Y-105387489D02*
X98828571Y-105244632D01*
X98828571Y-105244632D02*
X98857143Y-105158917D01*
X98857143Y-105158917D02*
X98885714Y-105101774D01*
X98885714Y-105101774D02*
X98942857Y-105016060D01*
X98942857Y-105016060D02*
X98971428Y-104987489D01*
X99400000Y-105358917D02*
X99485714Y-105387489D01*
X99485714Y-105387489D02*
X99514285Y-105416060D01*
X99514285Y-105416060D02*
X99542857Y-105473203D01*
X99542857Y-105473203D02*
X99542857Y-105558917D01*
X99542857Y-105558917D02*
X99514285Y-105616060D01*
X99514285Y-105616060D02*
X99485714Y-105644632D01*
X99485714Y-105644632D02*
X99428571Y-105673203D01*
X99428571Y-105673203D02*
X99200000Y-105673203D01*
X99200000Y-105673203D02*
X99200000Y-105073203D01*
X99200000Y-105073203D02*
X99400000Y-105073203D01*
X99400000Y-105073203D02*
X99457143Y-105101774D01*
X99457143Y-105101774D02*
X99485714Y-105130346D01*
X99485714Y-105130346D02*
X99514285Y-105187489D01*
X99514285Y-105187489D02*
X99514285Y-105244632D01*
X99514285Y-105244632D02*
X99485714Y-105301774D01*
X99485714Y-105301774D02*
X99457143Y-105330346D01*
X99457143Y-105330346D02*
X99400000Y-105358917D01*
X99400000Y-105358917D02*
X99200000Y-105358917D01*
X99828571Y-105644632D02*
X99828571Y-105673203D01*
X99828571Y-105673203D02*
X99800000Y-105730346D01*
X99800000Y-105730346D02*
X99771428Y-105758917D01*
X100542857Y-105673203D02*
X100542857Y-105073203D01*
X100542857Y-105073203D02*
X100771428Y-105073203D01*
X100771428Y-105073203D02*
X100828571Y-105101774D01*
X100828571Y-105101774D02*
X100857142Y-105130346D01*
X100857142Y-105130346D02*
X100885714Y-105187489D01*
X100885714Y-105187489D02*
X100885714Y-105273203D01*
X100885714Y-105273203D02*
X100857142Y-105330346D01*
X100857142Y-105330346D02*
X100828571Y-105358917D01*
X100828571Y-105358917D02*
X100771428Y-105387489D01*
X100771428Y-105387489D02*
X100542857Y-105387489D01*
X101114285Y-105644632D02*
X101200000Y-105673203D01*
X101200000Y-105673203D02*
X101342857Y-105673203D01*
X101342857Y-105673203D02*
X101400000Y-105644632D01*
X101400000Y-105644632D02*
X101428571Y-105616060D01*
X101428571Y-105616060D02*
X101457142Y-105558917D01*
X101457142Y-105558917D02*
X101457142Y-105501774D01*
X101457142Y-105501774D02*
X101428571Y-105444632D01*
X101428571Y-105444632D02*
X101400000Y-105416060D01*
X101400000Y-105416060D02*
X101342857Y-105387489D01*
X101342857Y-105387489D02*
X101228571Y-105358917D01*
X101228571Y-105358917D02*
X101171428Y-105330346D01*
X101171428Y-105330346D02*
X101142857Y-105301774D01*
X101142857Y-105301774D02*
X101114285Y-105244632D01*
X101114285Y-105244632D02*
X101114285Y-105187489D01*
X101114285Y-105187489D02*
X101142857Y-105130346D01*
X101142857Y-105130346D02*
X101171428Y-105101774D01*
X101171428Y-105101774D02*
X101228571Y-105073203D01*
X101228571Y-105073203D02*
X101371428Y-105073203D01*
X101371428Y-105073203D02*
X101457142Y-105101774D01*
X101685714Y-105501774D02*
X101971429Y-105501774D01*
X101628571Y-105673203D02*
X101828571Y-105073203D01*
X101828571Y-105073203D02*
X102028571Y-105673203D01*
X102171429Y-105901774D02*
X102200000Y-105873203D01*
X102200000Y-105873203D02*
X102257143Y-105787489D01*
X102257143Y-105787489D02*
X102285715Y-105730346D01*
X102285715Y-105730346D02*
X102314286Y-105644632D01*
X102314286Y-105644632D02*
X102342857Y-105501774D01*
X102342857Y-105501774D02*
X102342857Y-105387489D01*
X102342857Y-105387489D02*
X102314286Y-105244632D01*
X102314286Y-105244632D02*
X102285715Y-105158917D01*
X102285715Y-105158917D02*
X102257143Y-105101774D01*
X102257143Y-105101774D02*
X102200000Y-105016060D01*
X102200000Y-105016060D02*
X102171429Y-104987489D01*
X103342858Y-105273203D02*
X103342858Y-105673203D01*
X103085715Y-105273203D02*
X103085715Y-105587489D01*
X103085715Y-105587489D02*
X103114286Y-105644632D01*
X103114286Y-105644632D02*
X103171429Y-105673203D01*
X103171429Y-105673203D02*
X103257143Y-105673203D01*
X103257143Y-105673203D02*
X103314286Y-105644632D01*
X103314286Y-105644632D02*
X103342858Y-105616060D01*
X103628572Y-105273203D02*
X103628572Y-105673203D01*
X103628572Y-105330346D02*
X103657143Y-105301774D01*
X103657143Y-105301774D02*
X103714286Y-105273203D01*
X103714286Y-105273203D02*
X103800000Y-105273203D01*
X103800000Y-105273203D02*
X103857143Y-105301774D01*
X103857143Y-105301774D02*
X103885715Y-105358917D01*
X103885715Y-105358917D02*
X103885715Y-105673203D01*
X104428572Y-105673203D02*
X104428572Y-105073203D01*
X104428572Y-105644632D02*
X104371429Y-105673203D01*
X104371429Y-105673203D02*
X104257143Y-105673203D01*
X104257143Y-105673203D02*
X104200000Y-105644632D01*
X104200000Y-105644632D02*
X104171429Y-105616060D01*
X104171429Y-105616060D02*
X104142857Y-105558917D01*
X104142857Y-105558917D02*
X104142857Y-105387489D01*
X104142857Y-105387489D02*
X104171429Y-105330346D01*
X104171429Y-105330346D02*
X104200000Y-105301774D01*
X104200000Y-105301774D02*
X104257143Y-105273203D01*
X104257143Y-105273203D02*
X104371429Y-105273203D01*
X104371429Y-105273203D02*
X104428572Y-105301774D01*
X104942857Y-105644632D02*
X104885714Y-105673203D01*
X104885714Y-105673203D02*
X104771429Y-105673203D01*
X104771429Y-105673203D02*
X104714286Y-105644632D01*
X104714286Y-105644632D02*
X104685714Y-105587489D01*
X104685714Y-105587489D02*
X104685714Y-105358917D01*
X104685714Y-105358917D02*
X104714286Y-105301774D01*
X104714286Y-105301774D02*
X104771429Y-105273203D01*
X104771429Y-105273203D02*
X104885714Y-105273203D01*
X104885714Y-105273203D02*
X104942857Y-105301774D01*
X104942857Y-105301774D02*
X104971429Y-105358917D01*
X104971429Y-105358917D02*
X104971429Y-105416060D01*
X104971429Y-105416060D02*
X104685714Y-105473203D01*
X105228572Y-105673203D02*
X105228572Y-105273203D01*
X105228572Y-105387489D02*
X105257143Y-105330346D01*
X105257143Y-105330346D02*
X105285715Y-105301774D01*
X105285715Y-105301774D02*
X105342857Y-105273203D01*
X105342857Y-105273203D02*
X105400000Y-105273203D01*
X105971429Y-105273203D02*
X106200001Y-105273203D01*
X106057144Y-105073203D02*
X106057144Y-105587489D01*
X106057144Y-105587489D02*
X106085715Y-105644632D01*
X106085715Y-105644632D02*
X106142858Y-105673203D01*
X106142858Y-105673203D02*
X106200001Y-105673203D01*
X106400001Y-105673203D02*
X106400001Y-105073203D01*
X106657144Y-105673203D02*
X106657144Y-105358917D01*
X106657144Y-105358917D02*
X106628572Y-105301774D01*
X106628572Y-105301774D02*
X106571429Y-105273203D01*
X106571429Y-105273203D02*
X106485715Y-105273203D01*
X106485715Y-105273203D02*
X106428572Y-105301774D01*
X106428572Y-105301774D02*
X106400001Y-105330346D01*
X107171429Y-105644632D02*
X107114286Y-105673203D01*
X107114286Y-105673203D02*
X107000001Y-105673203D01*
X107000001Y-105673203D02*
X106942858Y-105644632D01*
X106942858Y-105644632D02*
X106914286Y-105587489D01*
X106914286Y-105587489D02*
X106914286Y-105358917D01*
X106914286Y-105358917D02*
X106942858Y-105301774D01*
X106942858Y-105301774D02*
X107000001Y-105273203D01*
X107000001Y-105273203D02*
X107114286Y-105273203D01*
X107114286Y-105273203D02*
X107171429Y-105301774D01*
X107171429Y-105301774D02*
X107200001Y-105358917D01*
X107200001Y-105358917D02*
X107200001Y-105416060D01*
X107200001Y-105416060D02*
X106914286Y-105473203D01*
X107914287Y-105273203D02*
X107914287Y-105873203D01*
X107914287Y-105301774D02*
X107971430Y-105273203D01*
X107971430Y-105273203D02*
X108085715Y-105273203D01*
X108085715Y-105273203D02*
X108142858Y-105301774D01*
X108142858Y-105301774D02*
X108171430Y-105330346D01*
X108171430Y-105330346D02*
X108200001Y-105387489D01*
X108200001Y-105387489D02*
X108200001Y-105558917D01*
X108200001Y-105558917D02*
X108171430Y-105616060D01*
X108171430Y-105616060D02*
X108142858Y-105644632D01*
X108142858Y-105644632D02*
X108085715Y-105673203D01*
X108085715Y-105673203D02*
X107971430Y-105673203D01*
X107971430Y-105673203D02*
X107914287Y-105644632D01*
X108542858Y-105673203D02*
X108485715Y-105644632D01*
X108485715Y-105644632D02*
X108457144Y-105616060D01*
X108457144Y-105616060D02*
X108428572Y-105558917D01*
X108428572Y-105558917D02*
X108428572Y-105387489D01*
X108428572Y-105387489D02*
X108457144Y-105330346D01*
X108457144Y-105330346D02*
X108485715Y-105301774D01*
X108485715Y-105301774D02*
X108542858Y-105273203D01*
X108542858Y-105273203D02*
X108628572Y-105273203D01*
X108628572Y-105273203D02*
X108685715Y-105301774D01*
X108685715Y-105301774D02*
X108714287Y-105330346D01*
X108714287Y-105330346D02*
X108742858Y-105387489D01*
X108742858Y-105387489D02*
X108742858Y-105558917D01*
X108742858Y-105558917D02*
X108714287Y-105616060D01*
X108714287Y-105616060D02*
X108685715Y-105644632D01*
X108685715Y-105644632D02*
X108628572Y-105673203D01*
X108628572Y-105673203D02*
X108542858Y-105673203D01*
X109000001Y-105673203D02*
X109000001Y-105273203D01*
X109000001Y-105387489D02*
X109028572Y-105330346D01*
X109028572Y-105330346D02*
X109057144Y-105301774D01*
X109057144Y-105301774D02*
X109114286Y-105273203D01*
X109114286Y-105273203D02*
X109171429Y-105273203D01*
X109285715Y-105273203D02*
X109514287Y-105273203D01*
X109371430Y-105073203D02*
X109371430Y-105587489D01*
X109371430Y-105587489D02*
X109400001Y-105644632D01*
X109400001Y-105644632D02*
X109457144Y-105673203D01*
X109457144Y-105673203D02*
X109514287Y-105673203D01*
M02*
