M48
; DRILL file {KiCad 9.0.2+dfsg-1} date 2026-10-04T09:33:15-0400
; FORMAT={-:-/ absolute / metric / decimal}
; #@! TF.CreationDate,2026-10-04T09:33:15-04:00
; #@! TF.GenerationSoftware,Kicad,Pcbnew,9.0.2+dfsg-1
; #@! TF.FileFunction,Plated,1,2,PTH
FMAT,2
METRIC
; #@! TA.AperFunction,Plated,PTH,ViaDrill
T1C0.200
; #@! TA.AperFunction,Plated,PTH,ViaDrill
T2C0.300
; #@! TA.AperFunction,Plated,PTH,ComponentDrill
T3C0.800
%
G90
G05
T1
X99.25Y-99.3
X99.25Y-100.7
X99.75Y-100.7
X100.25Y-99.35
X101.25Y-99.55
X101.5Y-100.7
X105.75Y-99.55
X105.75Y-100.05
T2
X95.672Y-100.17
X97.5Y-99.58
X97.5Y-100.42
X98.1Y-99.58
X98.1Y-100.42
X101.25Y-97.45
X101.25Y-102.55
X103.065Y-101.89
X103.082Y-97.949
X118.462Y-99.95
X118.462Y-100.65
X121.477Y-100.0
X122.477Y-100.0
X123.677Y-100.0
X124.877Y-100.0
X126.077Y-100.0
X126.777Y-100.0
X128.277Y-102.4
X128.477Y-97.6
X129.75Y-98.05
X131.912Y-102.45
X132.352Y-98.55
X132.352Y-101.45
T3
G00X95.65Y-98.53
M15
G01X96.15Y-98.53
M16
G05
G00X95.65Y-101.47
M15
G01X96.15Y-101.47
M16
G05
G00X103.85Y-98.53
M15
G01X104.35Y-98.53
M16
G05
G00X103.85Y-101.47
M15
G01X104.35Y-101.47
M16
G05
M30
