M48
; DRILL file {KiCad 9.0.2+dfsg-1} date 2026-10-04T10:33:50-0400
; FORMAT={-:-/ absolute / metric / decimal}
; #@! TF.CreationDate,2026-10-04T10:33:50-04:00
; #@! TF.GenerationSoftware,Kicad,Pcbnew,9.0.2+dfsg-1
; #@! TF.FileFunction,Plated,1,2,PTH
FMAT,2
METRIC
; #@! TA.AperFunction,Plated,PTH,ViaDrill
T1C0.200
; #@! TA.AperFunction,Plated,PTH,ViaDrill
T2C0.300
; #@! TA.AperFunction,Plated,PTH,ComponentDrill
T3C0.800
%
G90
G05
T1
X99.25Y-99.3
X99.25Y-100.7
X99.75Y-100.7
X100.25Y-99.35
X101.25Y-99.55
X101.5Y-100.7
X105.75Y-99.55
X105.75Y-100.05
T2
X95.672Y-100.17
X97.5Y-99.58
X97.5Y-100.42
X98.1Y-99.58
X98.1Y-100.42
X101.25Y-97.45
X101.25Y-102.55
X118.962Y-99.95
X118.962Y-100.65
X122.512Y-100.0
X123.512Y-100.0
X124.712Y-100.0
X125.912Y-100.0
X127.112Y-100.0
X127.812Y-100.0
X129.312Y-102.4
X129.512Y-97.6
X130.785Y-98.013
X132.947Y-102.45
X133.387Y-98.55
X133.387Y-101.45
T3
G00X95.65Y-98.53
M15
G01X96.15Y-98.53
M16
G05
G00X95.65Y-101.47
M15
G01X96.15Y-101.47
M16
G05
G00X103.85Y-98.53
M15
G01X104.35Y-98.53
M16
G05
G00X103.85Y-101.47
M15
G01X104.35Y-101.47
M16
G05
M30
