  0
SECTION
  2
HEADER
  9
$ACADVER
  1
AC1024
  9
$ACADMAINTVER
 70
6
  9
$DWGCODEPAGE
  3
ANSI_1252
  9
$LASTSAVEDBY
  1
ezdxf
  9
$INSBASE
 10
0.0
 20
0.0
 30
0.0
  9
$EXTMIN
 10
1e+20
 20
1e+20
 30
1e+20
  9
$EXTMAX
 10
-1e+20
 20
-1e+20
 30
-1e+20
  9
$LIMMIN
 10
0.0
 20
0.0
  9
$LIMMAX
 10
420.0
 20
297.0
  9
$ORTHOMODE
 70
0
  9
$REGENMODE
 70
1
  9
$FILLMODE
 70
1
  9
$QTEXTMODE
 70
0
  9
$MIRRTEXT
 70
1
  9
$LTSCALE
 40
1.0
  9
$ATTMODE
 70
1
  9
$TEXTSIZE
 40
2.5
  9
$TRACEWID
 40
1.0
  9
$TEXTSTYLE
  7
Standard
  9
$CLAYER
  8
0
  9
$CELTYPE
  6
ByLayer
  9
$CECOLOR
 62
256
  9
$CELTSCALE
 40
1.0
  9
$DISPSILH
 70
0
  9
$DIMSCALE
 40
1.0
  9
$DIMASZ
 40
2.5
  9
$DIMEXO
 40
0.625
  9
$DIMDLI
 40
3.75
  9
$DIMRND
 40
0.0
  9
$DIMDLE
 40
0.0
  9
$DIMEXE
 40
1.25
  9
$DIMTP
 40
0.0
  9
$DIMTM
 40
0.0
  9
$DIMTXT
 40
2.5
  9
$DIMCEN
 40
2.5
  9
$DIMTSZ
 40
0.0
  9
$DIMTOL
 70
0
  9
$DIMLIM
 70
0
  9
$DIMTIH
 70
0
  9
$DIMTOH
 70
0
  9
$DIMSE1
 70
0
  9
$DIMSE2
 70
0
  9
$DIMTAD
 70
1
  9
$DIMZIN
 70
8
  9
$DIMBLK
  1

  9
$DIMASO
 70
1
  9
$DIMSHO
 70
1
  9
$DIMPOST
  1

  9
$DIMAPOST
  1

  9
$DIMALT
 70
0
  9
$DIMALTD
 70
3
  9
$DIMALTF
 40
0.03937007874
  9
$DIMLFAC
 40
1.0
  9
$DIMTOFL
 70
1
  9
$DIMTVP
 40
0.0
  9
$DIMTIX
 70
0
  9
$DIMSOXD
 70
0
  9
$DIMSAH
 70
0
  9
$DIMBLK1
  1

  9
$DIMBLK2
  1

  9
$DIMSTYLE
  2
ISO-25
  9
$DIMCLRD
 70
0
  9
$DIMCLRE
 70
0
  9
$DIMCLRT
 70
0
  9
$DIMTFAC
 40
1.0
  9
$DIMGAP
 40
0.625
  9
$DIMJUST
 70
0
  9
$DIMSD1
 70
0
  9
$DIMSD2
 70
0
  9
$DIMTOLJ
 70
0
  9
$DIMTZIN
 70
8
  9
$DIMALTZ
 70
0
  9
$DIMALTTZ
 70
0
  9
$DIMUPT
 70
0
  9
$DIMDEC
 70
2
  9
$DIMTDEC
 70
2
  9
$DIMALTU
 70
2
  9
$DIMALTTD
 70
3
  9
$DIMTXSTY
  7
Standard
  9
$DIMAUNIT
 70
0
  9
$DIMADEC
 70
0
  9
$DIMALTRND
 40
0.0
  9
$DIMAZIN
 70
0
  9
$DIMDSEP
 70
44
  9
$DIMATFIT
 70
3
  9
$DIMFRAC
 70
0
  9
$DIMLDRBLK
  1

  9
$DIMLUNIT
 70
2
  9
$DIMLWD
 70
-2
  9
$DIMLWE
 70
-2
  9
$DIMTMOVE
 70
0
  9
$DIMFXL
 40
1.0
  9
$DIMFXLON
 70
0
  9
$DIMJOGANG
 40
0.785398163397
  9
$DIMTFILL
 70
0
  9
$DIMTFILLCLR
 70
0
  9
$DIMARCSYM
 70
0
  9
$DIMLTYPE
  6

  9
$DIMLTEX1
  6

  9
$DIMLTEX2
  6

  9
$DIMTXTDIRECTION
 70
0
  9
$LUNITS
 70
2
  9
$LUPREC
 70
4
  9
$SKETCHINC
 40
1.0
  9
$FILLETRAD
 40
10.0
  9
$AUNITS
 70
0
  9
$AUPREC
 70
2
  9
$MENU
  1
.
  9
$ELEVATION
 40
0.0
  9
$PELEVATION
 40
0.0
  9
$THICKNESS
 40
0.0
  9
$LIMCHECK
 70
0
  9
$CHAMFERA
 40
0.0
  9
$CHAMFERB
 40
0.0
  9
$CHAMFERC
 40
0.0
  9
$CHAMFERD
 40
0.0
  9
$SKPOLY
 70
0
  9
$TDCREATE
 40
2461315.724467593
  9
$TDUCREATE
 40
2458532.153996898
  9
$TDUPDATE
 40
2461315.724467593
  9
$TDUUPDATE
 40
2458532.1544311
  9
$TDINDWG
 40
0.0
  9
$TDUSRTIMER
 40
0.0
  9
$USRTIMER
 70
1
  9
$ANGBASE
 50
0.0
  9
$ANGDIR
 70
0
  9
$PDMODE
 70
0
  9
$PDSIZE
 40
0.0
  9
$PLINEWID
 40
0.0
  9
$SPLFRAME
 70
0
  9
$SPLINETYPE
 70
6
  9
$SPLINESEGS
 70
8
  9
$HANDSEED
  5
71
  9
$SURFTAB1
 70
6
  9
$SURFTAB2
 70
6
  9
$SURFTYPE
 70
6
  9
$SURFU
 70
6
  9
$SURFV
 70
6
  9
$UCSBASE
  2

  9
$UCSNAME
  2

  9
$UCSORG
 10
0.0
 20
0.0
 30
0.0
  9
$UCSXDIR
 10
1.0
 20
0.0
 30
0.0
  9
$UCSYDIR
 10
0.0
 20
1.0
 30
0.0
  9
$UCSORTHOREF
  2

  9
$UCSORTHOVIEW
 70
0
  9
$UCSORGTOP
 10
0.0
 20
0.0
 30
0.0
  9
$UCSORGBOTTOM
 10
0.0
 20
0.0
 30
0.0
  9
$UCSORGLEFT
 10
0.0
 20
0.0
 30
0.0
  9
$UCSORGRIGHT
 10
0.0
 20
0.0
 30
0.0
  9
$UCSORGFRONT
 10
0.0
 20
0.0
 30
0.0
  9
$UCSORGBACK
 10
0.0
 20
0.0
 30
0.0
  9
$PUCSBASE
  2

  9
$PUCSNAME
  2

  9
$PUCSORG
 10
0.0
 20
0.0
 30
0.0
  9
$PUCSXDIR
 10
1.0
 20
0.0
 30
0.0
  9
$PUCSYDIR
 10
0.0
 20
1.0
 30
0.0
  9
$PUCSORTHOREF
  2

  9
$PUCSORTHOVIEW
 70
0
  9
$PUCSORGTOP
 10
0.0
 20
0.0
 30
0.0
  9
$PUCSORGBOTTOM
 10
0.0
 20
0.0
 30
0.0
  9
$PUCSORGLEFT
 10
0.0
 20
0.0
 30
0.0
  9
$PUCSORGRIGHT
 10
0.0
 20
0.0
 30
0.0
  9
$PUCSORGFRONT
 10
0.0
 20
0.0
 30
0.0
  9
$PUCSORGBACK
 10
0.0
 20
0.0
 30
0.0
  9
$USERI1
 70
0
  9
$USERI2
 70
0
  9
$USERI3
 70
0
  9
$USERI4
 70
0
  9
$USERI5
 70
0
  9
$USERR1
 40
0.0
  9
$USERR2
 40
0.0
  9
$USERR3
 40
0.0
  9
$USERR4
 40
0.0
  9
$USERR5
 40
0.0
  9
$WORLDVIEW
 70
1
  9
$SHADEDGE
 70
3
  9
$SHADEDIF
 70
70
  9
$TILEMODE
 70
1
  9
$MAXACTVP
 70
64
  9
$PINSBASE
 10
0.0
 20
0.0
 30
0.0
  9
$PLIMCHECK
 70
0
  9
$PEXTMIN
 10
1e+20
 20
1e+20
 30
1e+20
  9
$PEXTMAX
 10
-1e+20
 20
-1e+20
 30
-1e+20
  9
$PLIMMIN
 10
0.0
 20
0.0
  9
$PLIMMAX
 10
420.0
 20
297.0
  9
$UNITMODE
 70
0
  9
$VISRETAIN
 70
1
  9
$PLINEGEN
 70
0
  9
$PSLTSCALE
 70
1
  9
$TREEDEPTH
 70
3020
  9
$CMLSTYLE
  2
Standard
  9
$CMLJUST
 70
0
  9
$CMLSCALE
 40
20.0
  9
$PROXYGRAPHICS
 70
1
  9
$MEASUREMENT
 70
1
  9
$CELWEIGHT
370
-1
  9
$ENDCAPS
280
0
  9
$JOINSTYLE
280
0
  9
$LWDISPLAY
290
0
  9
$INSUNITS
 70
4
  9
$HYPERLINKBASE
  1

  9
$STYLESHEET
  1

  9
$XEDIT
290
1
  9
$CEPSNTYPE
380
0
  9
$PSTYLEMODE
290
1
  9
$FINGERPRINTGUID
  2
{1DBE6392-5E09-4A7B-9DF7-A60AA598528C}
  9
$VERSIONGUID
  2
{A5643F8E-722C-4728-B0CC-E890E77BB4D0}
  9
$EXTNAMES
290
1
  9
$PSVPSCALE
 40
0.0
  9
$OLESTARTUP
290
0
  9
$SORTENTS
280
127
  9
$INDEXCTL
280
0
  9
$HIDETEXT
280
1
  9
$XCLIPFRAME
280
1
  9
$HALOGAP
280
0
  9
$OBSCOLOR
 70
257
  9
$OBSLTYPE
280
0
  9
$INTERSECTIONDISPLAY
280
0
  9
$INTERSECTIONCOLOR
 70
257
  9
$DIMASSOC
280
2
  9
$PROJECTNAME
  1

  9
$CAMERADISPLAY
290
0
  9
$LENSLENGTH
 40
50.0
  9
$CAMERAHEIGHT
 40
0.0
  9
$STEPSPERSEC
 40
24.0
  9
$STEPSIZE
 40
100.0
  9
$3DDWFPREC
 40
2.0
  9
$PSOLWIDTH
 40
0.005
  9
$PSOLHEIGHT
 40
0.08
  9
$LOFTANG1
 40
1.570796326795
  9
$LOFTANG2
 40
1.570796326795
  9
$LOFTMAG1
 40
0.0
  9
$LOFTMAG2
 40
0.0
  9
$LOFTPARAM
 70
7
  9
$LOFTNORMALS
280
1
  9
$LATITUDE
 40
37.795
  9
$LONGITUDE
 40
-122.394
  9
$NORTHDIRECTION
 40
0.0
  9
$TIMEZONE
 70
-8000
  9
$LIGHTGLYPHDISPLAY
280
1
  9
$TILEMODELIGHTSYNCH
280
1
  9
$CMATERIAL
347
20
  9
$SOLIDHIST
280
0
  9
$SHOWHIST
280
1
  9
$DWFFRAME
280
2
  9
$DGNFRAME
280
2
  9
$REALWORLDSCALE
290
1
  9
$INTERFERECOLOR
 62
256
  9
$CSHADOW
280
0
  9
$SHADOWPLANELOCATION
 40
0.0
  0
ENDSEC
  0
SECTION
  2
CLASSES
  0
CLASS
  1
ACDBDICTIONARYWDFLT
  2
AcDbDictionaryWithDefault
  3
ObjectDBX Classes
 90
0
 91
0
280
0
281
0
  0
CLASS
  1
SUN
  2
AcDbSun
  3
SCENEOE
 90
1153
 91
0
280
0
281
0
  0
CLASS
  1
VISUALSTYLE
  2
AcDbVisualStyle
  3
ObjectDBX Classes
 90
4095
 91
0
280
0
281
0
  0
CLASS
  1
MATERIAL
  2
AcDbMaterial
  3
ObjectDBX Classes
 90
1153
 91
0
280
0
281
0
  0
CLASS
  1
SCALE
  2
AcDbScale
  3
ObjectDBX Classes
 90
1153
 91
0
280
0
281
0
  0
CLASS
  1
TABLESTYLE
  2
AcDbTableStyle
  3
ObjectDBX Classes
 90
4095
 91
0
280
0
281
0
  0
CLASS
  1
MLEADERSTYLE
  2
AcDbMLeaderStyle
  3
ACDB_MLEADERSTYLE_CLASS
 90
4095
 91
0
280
0
281
0
  0
CLASS
  1
DICTIONARYVAR
  2
AcDbDictionaryVar
  3
ObjectDBX Classes
 90
0
 91
0
280
0
281
0
  0
CLASS
  1
CELLSTYLEMAP
  2
AcDbCellStyleMap
  3
ObjectDBX Classes
 90
1152
 91
0
280
0
281
0
  0
CLASS
  1
MENTALRAYRENDERSETTINGS
  2
AcDbMentalRayRenderSettings
  3
SCENEOE
 90
1024
 91
0
280
0
281
0
  0
CLASS
  1
ACDBDETAILVIEWSTYLE
  2
AcDbDetailViewStyle
  3
ObjectDBX Classes
 90
1025
 91
0
280
0
281
0
  0
CLASS
  1
ACDBSECTIONVIEWSTYLE
  2
AcDbSectionViewStyle
  3
ObjectDBX Classes
 90
1025
 91
0
280
0
281
0
  0
CLASS
  1
RASTERVARIABLES
  2
AcDbRasterVariables
  3
ISM
 90
0
 91
0
280
0
281
0
  0
CLASS
  1
ACDBPLACEHOLDER
  2
AcDbPlaceHolder
  3
ObjectDBX Classes
 90
0
 91
0
280
0
281
0
  0
CLASS
  1
LAYOUT
  2
AcDbLayout
  3
ObjectDBX Classes
 90
0
 91
0
280
0
281
0
  0
ENDSEC
  0
SECTION
  2
TABLES
  0
TABLE
  2
VPORT
  5
8
330
0
100
AcDbSymbolTable
 70
1
  0
VPORT
  5
23
330
8
100
AcDbSymbolTableRecord
100
AcDbViewportTableRecord
  2
*Active
 70
0
 10
0.0
 20
0.0
 11
1.0
 21
1.0
 12
0.0
 22
0.0
 13
0.0
 23
0.0
 14
0.5
 24
0.5
 15
0.5
 25
0.5
 16
0.0
 26
0.0
 36
1.0
 17
0.0
 27
0.0
 37
0.0
 40
1000.0
 41
1.34
 42
50.0
 43
0.0
 44
0.0
 50
0.0
 51
0.0
 71
0
 72
1000
 73
1
 74
3
 75
0
 76
0
 77
0
 78
0
281
0
 65
0
146
0.0
  0
ENDTAB
  0
TABLE
  2
LTYPE
  5
2
330
0
100
AcDbSymbolTable
 70
3
  0
LTYPE
  5
24
330
2
100
AcDbSymbolTableRecord
100
AcDbLinetypeTableRecord
  2
ByBlock
 70
0
  3

 72
65
 73
0
 40
0.0
  0
LTYPE
  5
25
330
2
100
AcDbSymbolTableRecord
100
AcDbLinetypeTableRecord
  2
ByLayer
 70
0
  3

 72
65
 73
0
 40
0.0
  0
LTYPE
  5
26
330
2
100
AcDbSymbolTableRecord
100
AcDbLinetypeTableRecord
  2
Continuous
 70
0
  3

 72
65
 73
0
 40
0.0
  0
ENDTAB
  0
TABLE
  2
LAYER
  5
1
330
0
100
AcDbSymbolTable
 70
13
  0
LAYER
  5
27
330
1
100
AcDbSymbolTableRecord
100
AcDbLayerTableRecord
  2
0
 70
0
 62
7
  6
Continuous
370
-3
390
13
347
21
  0
LAYER
  5
28
330
1
100
AcDbSymbolTableRecord
100
AcDbLayerTableRecord
  2
Defpoints
 70
0
 62
7
  6
Continuous
290
0
370
-3
390
13
347
21
  0
LAYER
  5
2F
330
1
100
AcDbSymbolTableRecord
100
AcDbLayerTableRecord
  2
DISC_OUTLINE
 70
0
 62
7
  6
Continuous
370
-3
390
13
347
21
  0
LAYER
  5
30
330
1
100
AcDbSymbolTableRecord
100
AcDbLayerTableRecord
  2
HOLES_GOLD_D4
 70
0
 62
2
  6
Continuous
370
-3
390
13
347
21
  0
LAYER
  5
31
330
1
100
AcDbSymbolTableRecord
100
AcDbLayerTableRecord
  2
HOLES_SMALL
 70
0
 62
3
  6
Continuous
370
-3
390
13
347
21
  0
LAYER
  5
32
330
1
100
AcDbSymbolTableRecord
100
AcDbLayerTableRecord
  2
CPU_SOCKET_FRAME
 70
0
 62
1
  6
Continuous
370
-3
390
13
347
21
  0
LAYER
  5
33
330
1
100
AcDbSymbolTableRecord
100
AcDbLayerTableRecord
  2
CPU_SOCKET_SLOT
 70
0
 62
1
  6
Continuous
370
-3
390
13
347
21
  0
LAYER
  5
34
330
1
100
AcDbSymbolTableRecord
100
AcDbLayerTableRecord
  2
CPU_SOCKET_PEGS
 70
0
 62
6
  6
Continuous
370
-3
390
13
347
21
  0
LAYER
  5
35
330
1
100
AcDbSymbolTableRecord
100
AcDbLayerTableRecord
  2
CPU_SOCKET_KEY
 70
0
 62
6
  6
Continuous
370
-3
390
13
347
21
  0
LAYER
  5
36
330
1
100
AcDbSymbolTableRecord
100
AcDbLayerTableRecord
  2
CONN_FIELDS
 70
0
 62
4
  6
Continuous
370
-3
390
13
347
21
  0
LAYER
  5
37
330
1
100
AcDbSymbolTableRecord
100
AcDbLayerTableRecord
  2
OTHER
 70
0
 62
8
  6
Continuous
370
-3
390
13
347
21
  0
LAYER
  5
38
330
1
100
AcDbSymbolTableRecord
100
AcDbLayerTableRecord
  2
BP_KICAD_REF
 70
0
 62
9
  6
Continuous
370
-3
390
13
347
21
  0
LAYER
  5
39
330
1
100
AcDbSymbolTableRecord
100
AcDbLayerTableRecord
  2
NOTES
 70
0
 62
7
  6
Continuous
370
-3
390
13
347
21
  0
ENDTAB
  0
TABLE
  2
STYLE
  5
5
330
0
100
AcDbSymbolTable
 70
1
  0
STYLE
  5
29
330
5
100
AcDbSymbolTableRecord
100
AcDbTextStyleTableRecord
  2
Standard
 70
0
 40
0.0
 41
1.0
 50
0.0
 71
0
 42
2.5
  3
txt
  4

  0
ENDTAB
  0
TABLE
  2
VIEW
  5
7
330
0
100
AcDbSymbolTable
 70
0
  0
ENDTAB
  0
TABLE
  2
UCS
  5
6
330
0
100
AcDbSymbolTable
 70
0
  0
ENDTAB
  0
TABLE
  2
APPID
  5
3
330
0
100
AcDbSymbolTable
 70
3
  0
APPID
  5
2A
330
3
100
AcDbSymbolTableRecord
100
AcDbRegAppTableRecord
  2
ACAD
 70
0
  0
APPID
  5
6E
330
3
100
AcDbSymbolTableRecord
100
AcDbRegAppTableRecord
  2
HATCHBACKGROUNDCOLOR
 70
0
  0
APPID
  5
6F
330
3
100
AcDbSymbolTableRecord
100
AcDbRegAppTableRecord
  2
EZDXF
 70
0
  0
ENDTAB
  0
TABLE
  2
DIMSTYLE
  5
4
330
0
100
AcDbSymbolTable
 70
1
100
AcDbDimStyleTable
  0
DIMSTYLE
105
2B
330
4
100
AcDbSymbolTableRecord
100
AcDbDimStyleTableRecord
  2
Standard
 70
0
 40
1.0
 41
2.5
 42
0.625
 43
3.75
 44
1.25
 45
0.0
 46
0.0
 47
0.0
 48
0.0
 49
2.5
140
2.5
141
2.5
142
0.0
143
0.03937007874
144
1.0
145
0.0
146
1.0
147
0.625
148
0.0
 69
0
 70
0
 71
0
 72
0
 73
0
 74
0
 75
0
 76
0
 77
1
 78
8
 79
3
170
0
171
3
172
1
173
0
174
0
175
0
176
0
177
0
178
0
179
2
271
2
272
2
273
2
274
3
275
0
276
0
277
2
278
44
279
0
280
0
281
0
282
0
283
0
284
8
285
0
286
0
288
0
289
3
290
0
371
-2
372
-2
  0
ENDTAB
  0
TABLE
  2
BLOCK_RECORD
  5
9
330
0
100
AcDbSymbolTable
 70
2
  0
BLOCK_RECORD
  5
17
330
9
100
AcDbSymbolTableRecord
100
AcDbBlockTableRecord
  2
*Model_Space
340
1A
 70
0
280
1
281
0
  0
BLOCK_RECORD
  5
1B
330
9
100
AcDbSymbolTableRecord
100
AcDbBlockTableRecord
  2
*Paper_Space
340
1E
 70
0
280
1
281
0
  0
ENDTAB
  0
ENDSEC
  0
SECTION
  2
BLOCKS
  0
BLOCK
  5
18
330
17
100
AcDbEntity
  8
0
100
AcDbBlockBegin
  2
*Model_Space
 70
0
 10
0.0
 20
0.0
 30
0.0
  3
*Model_Space
  1

  0
ENDBLK
  5
19
330
17
100
AcDbEntity
  8
0
100
AcDbBlockEnd
  0
BLOCK
  5
1C
330
1B
100
AcDbEntity
  8
0
100
AcDbBlockBegin
  2
*Paper_Space
 70
0
 10
0.0
 20
0.0
 30
0.0
  3
*Paper_Space
  1

  0
ENDBLK
  5
1D
330
1B
100
AcDbEntity
  8
0
100
AcDbBlockEnd
  0
ENDSEC
  0
SECTION
  2
ENTITIES
  0
CIRCLE
  5
3A
330
17
100
AcDbEntity
  8
DISC_OUTLINE
100
AcDbCircle
 10
0.00016813861342064218
 20
-0.7355121643479574
 30
0.0
 40
61.03253671514285
  0
CIRCLE
  5
3B
330
17
100
AcDbEntity
  8
HOLES_GOLD_D4
100
AcDbCircle
 10
-49.13
 20
-0.0
 30
0.0
 40
4.03
  0
CIRCLE
  5
3C
330
17
100
AcDbEntity
  8
HOLES_GOLD_D4
100
AcDbCircle
 10
-49.13
 20
-0.0
 30
0.0
 40
2.195
  0
TEXT
  5
3D
330
17
100
AcDbEntity
  8
NOTES
100
AcDbText
 10
-46.63
 20
2.5
 30
0.0
 40
1.5
  1
G1
 11
-46.63
 21
2.5
 31
0.0
100
AcDbText
  0
CIRCLE
  5
3E
330
17
100
AcDbEntity
  8
HOLES_GOLD_D4
100
AcDbCircle
 10
49.13
 20
-0.0
 30
0.0
 40
4.265
  0
CIRCLE
  5
3F
330
17
100
AcDbEntity
  8
HOLES_GOLD_D4
100
AcDbCircle
 10
49.13
 20
-0.0
 30
0.0
 40
1.98
  0
TEXT
  5
40
330
17
100
AcDbEntity
  8
NOTES
100
AcDbText
 10
51.63
 20
2.5
 30
0.0
 40
1.5
  1
G2
 11
51.63
 21
2.5
 31
0.0
100
AcDbText
  0
CIRCLE
  5
41
330
17
100
AcDbEntity
  8
HOLES_SMALL
100
AcDbCircle
 10
-52.64
 20
13.81
 30
0.0
 40
1.66
  0
TEXT
  5
42
330
17
100
AcDbEntity
  8
NOTES
100
AcDbText
 10
-50.14
 20
16.310000000000002
 30
0.0
 40
1.5
  1
S1
 11
-50.14
 21
16.310000000000002
 31
0.0
100
AcDbText
  0
CIRCLE
  5
43
330
17
100
AcDbEntity
  8
HOLES_SMALL
100
AcDbCircle
 10
-26.57
 20
-46.65
 30
0.0
 40
1.66
  0
TEXT
  5
44
330
17
100
AcDbEntity
  8
NOTES
100
AcDbText
 10
-24.07
 20
-44.15
 30
0.0
 40
1.5
  1
S2
 11
-24.07
 21
-44.15
 31
0.0
100
AcDbText
  0
CIRCLE
  5
45
330
17
100
AcDbEntity
  8
HOLES_SMALL
100
AcDbCircle
 10
26.49
 20
-46.64
 30
0.0
 40
1.675
  0
TEXT
  5
46
330
17
100
AcDbEntity
  8
NOTES
100
AcDbText
 10
28.99
 20
-44.14
 30
0.0
 40
1.5
  1
S3
 11
28.99
 21
-44.14
 31
0.0
100
AcDbText
  0
CIRCLE
  5
47
330
17
100
AcDbEntity
  8
HOLES_SMALL
100
AcDbCircle
 10
-18.12
 20
50.7
 30
0.0
 40
1.605
  0
TEXT
  5
48
330
17
100
AcDbEntity
  8
NOTES
100
AcDbText
 10
-15.620000000000001
 20
53.2
 30
0.0
 40
1.5
  1
S4
 11
-15.620000000000001
 21
53.2
 31
0.0
100
AcDbText
  0
CIRCLE
  5
49
330
17
100
AcDbEntity
  8
HOLES_SMALL
100
AcDbCircle
 10
18.49
 20
50.72
 30
0.0
 40
1.655
  0
TEXT
  5
4A
330
17
100
AcDbEntity
  8
NOTES
100
AcDbText
 10
20.99
 20
53.22
 30
0.0
 40
1.5
  1
S5
 11
20.99
 21
53.22
 31
0.0
100
AcDbText
  0
CIRCLE
  5
4B
330
17
100
AcDbEntity
  8
HOLES_SMALL
100
AcDbCircle
 10
52.8
 20
13.88
 30
0.0
 40
1.65
  0
TEXT
  5
4C
330
17
100
AcDbEntity
  8
NOTES
100
AcDbText
 10
55.3
 20
16.380000000000003
 30
0.0
 40
1.5
  1
S6
 11
55.3
 21
16.380000000000003
 31
0.0
100
AcDbText
  0
LWPOLYLINE
  5
4D
330
17
100
AcDbEntity
  8
CPU_SOCKET_FRAME
100
AcDbPolyline
 90
4
 70
1
 10
-39.372772216796875
 20
-5.577749729156494
 10
-39.4019775390625
 20
-18.5236873626709
 10
39.28441619873047
 20
-18.701223373413086
 10
39.313621520996094
 20
-5.755284786224365
  0
LWPOLYLINE
  5
4E
330
17
100
AcDbEntity
  8
CPU_SOCKET_SLOT
100
AcDbPolyline
 90
4
 70
1
 10
34.17133712768555
 20
-9.838985443115234
 10
-34.253604888916016
 20
-10.433979034423828
 10
-34.21133804321289
 20
-15.294605255126953
 10
34.21360397338867
 20
-14.69961166381836
  0
CIRCLE
  5
4F
330
17
100
AcDbEntity
  8
CPU_SOCKET_PEGS
100
AcDbCircle
 10
-35.92591927547514
 20
-16.038841808878896
 30
0.0
 40
1.1944195270591165
  0
CIRCLE
  5
50
330
17
100
AcDbEntity
  8
CPU_SOCKET_PEGS
100
AcDbCircle
 10
-35.53497474678386
 20
-9.014641126996604
 30
0.0
 40
1.7333669650672499
  0
CIRCLE
  5
51
330
17
100
AcDbEntity
  8
CPU_SOCKET_PEGS
100
AcDbCircle
 10
9.074789877253476
 20
-15.724112217393229
 30
0.0
 40
1.2305016423362825
  0
CIRCLE
  5
52
330
17
100
AcDbEntity
  8
CPU_SOCKET_PEGS
100
AcDbCircle
 10
9.02254658204686
 20
-8.677552560397435
 30
0.0
 40
1.1650839403280895
  0
CIRCLE
  5
53
330
17
100
AcDbEntity
  8
CPU_SOCKET_PEGS
100
AcDbCircle
 10
35.47577252035106
 20
-15.9470788834989
 30
0.0
 40
1.3531996468183964
  0
CIRCLE
  5
54
330
17
100
AcDbEntity
  8
CPU_SOCKET_PEGS
100
AcDbCircle
 10
35.707120368586466
 20
-8.953182975257235
 30
0.0
 40
1.7222250956256588
  0
LINE
  5
55
330
17
100
AcDbEntity
  8
CPU_SOCKET_KEY
100
AcDbLine
 10
8.9375
 20
-15.566795349121094
 30
0.0
 11
8.9375
 21
-9.566795349121094
 31
0.0
  0
LWPOLYLINE
  5
56
330
17
100
AcDbEntity
  8
CONN_FIELDS
100
AcDbPolyline
 90
4
 70
1
 10
-44.6128187236355
 20
13.1879959679186
 10
-17.548019706009924
 20
41.733079480701385
 10
-26.900980677224027
 20
50.60101671382417
 10
-53.9657796948496
 20
22.05593320104138
  0
TEXT
  5
57
330
17
100
AcDbEntity
  8
NOTES
100
AcDbText
 10
-35.75689970042976
 20
31.894506340871384
 30
0.0
 40
1.5
  1
GPU_L
 11
-35.75689970042976
 21
31.894506340871384
 31
0.0
100
AcDbText
  0
LWPOLYLINE
  5
58
330
17
100
AcDbEntity
  8
CONN_FIELDS
100
AcDbPolyline
 90
4
 70
1
 10
53.53993828945494
 20
22.744718025863616
 10
27.18070111335378
 20
50.70229072804197
 10
17.712397810448703
 20
41.775290695700434
 10
44.07163498654987
 20
13.817717993522084
  0
TEXT
  5
59
330
17
100
AcDbEntity
  8
NOTES
100
AcDbText
 10
35.62616804995182
 20
32.26000436078203
 30
0.0
 40
1.5
  1
GPU_R
 11
35.62616804995182
 21
32.26000436078203
 31
0.0
100
AcDbText
  0
LWPOLYLINE
  5
5A
330
17
100
AcDbEntity
  8
CONN_FIELDS
100
AcDbPolyline
 90
4
 70
1
 10
-23.760521712283765
 20
-57.624888682638414
 10
20.49939862432664
 20
-57.12064517477846
 10
20.302603031234806
 20
-39.84693289674239
 10
-23.9573173053756
 20
-40.35117640460234
  0
TEXT
  5
5B
330
17
100
AcDbEntity
  8
NOTES
100
AcDbText
 10
-1.728959340524479
 20
-48.7359107896904
 30
0.0
 40
1.5
  1
PSU_SIDE
 11
-1.728959340524479
 21
-48.7359107896904
 31
0.0
100
AcDbText
  0
CIRCLE
  5
5C
330
17
100
AcDbEntity
  8
OTHER
100
AcDbCircle
 10
-0.1
 20
-59.7
 30
0.0
 40
1.5
  0
CIRCLE
  5
5D
330
17
100
AcDbEntity
  8
OTHER
100
AcDbCircle
 10
0.2
 20
50.5
 30
0.0
 40
1.5
  0
CIRCLE
  5
5E
330
17
100
AcDbEntity
  8
OTHER
100
AcDbCircle
 10
-45.2
 20
-14.2
 30
0.0
 40
1.5
  0
CIRCLE
  5
5F
330
17
100
AcDbEntity
  8
OTHER
100
AcDbCircle
 10
-7.0
 20
56.7
 30
0.0
 40
1.5
  0
CIRCLE
  5
60
330
17
100
AcDbEntity
  8
OTHER
100
AcDbCircle
 10
31.0
 20
-35.0
 30
0.0
 40
1.5
  0
CIRCLE
  5
61
330
17
100
AcDbEntity
  8
OTHER
100
AcDbCircle
 10
45.7
 20
-35.0
 30
0.0
 40
1.5
  0
CIRCLE
  5
62
330
17
100
AcDbEntity
  8
OTHER
100
AcDbCircle
 10
1.0
 20
20.0
 30
0.0
 40
1.5
  0
LWPOLYLINE
  5
63
330
17
100
AcDbEntity
  8
BP_KICAD_REF
100
AcDbPolyline
 90
4
 70
1
 10
43.195
 20
-8.855
 10
43.195
 20
-16.345
 10
-43.195
 20
-16.345
 10
-43.195
 20
-8.855
  0
LWPOLYLINE
  5
64
330
17
100
AcDbEntity
  8
BP_KICAD_REF
100
AcDbPolyline
 90
4
 70
1
 10
52.369
 20
9.283
 10
29.948
 20
-3.662
 10
7.203
 20
35.734
 10
29.624
 20
48.679
  0
LWPOLYLINE
  5
65
330
17
100
AcDbEntity
  8
BP_KICAD_REF
100
AcDbPolyline
 90
4
 70
1
 10
-7.203
 20
35.734
 10
-29.948
 20
-3.662
 10
-52.369
 20
9.283
 10
-29.624
 20
48.679
  0
LWPOLYLINE
  5
66
330
17
100
AcDbEntity
  8
BP_KICAD_REF
100
AcDbPolyline
 90
66
 70
1
 10
-48.692
 20
4.236
 10
-48.285
 20
4.187
 10
-47.884
 20
4.098
 10
-47.494
 20
3.971
 10
-47.118
 20
3.808
 10
-46.759
 20
3.608
 10
-46.421
 20
3.375
 10
-46.107
 20
3.11
 10
-45.821
 20
2.817
 10
-45.564
 20
2.497
 10
-45.339
 20
2.153
 10
-45.148
 20
1.79
 10
-44.993
 20
1.41
 10
-44.876
 20
1.016
 10
-44.797
 20
0.614
 10
-44.757
 20
0.205
 10
-44.755
 20
0.0
 10
-44.757
 20
-0.205
 10
-44.797
 20
-0.614
 10
-44.876
 20
-1.016
 10
-44.993
 20
-1.41
 10
-45.148
 20
-1.79
 10
-45.339
 20
-2.153
 10
-45.564
 20
-2.497
 10
-45.821
 20
-2.817
 10
-46.107
 20
-3.11
 10
-46.421
 20
-3.375
 10
-46.759
 20
-3.608
 10
-47.118
 20
-3.808
 10
-47.494
 20
-3.971
 10
-47.884
 20
-4.098
 10
-48.285
 20
-4.187
 10
-48.692
 20
-4.236
 10
-49.103
 20
-4.246
 10
-49.512
 20
-4.217
 10
-49.917
 20
-4.147
 10
-50.313
 20
-4.04
 10
-50.696
 20
-3.894
 10
-51.064
 20
-3.712
 10
-51.413
 20
-3.496
 10
-51.739
 20
-3.246
 10
-52.039
 20
-2.967
 10
-52.312
 20
-2.66
 10
-52.553
 20
-2.328
 10
-52.761
 20
-1.974
 10
-52.934
 20
-1.602
 10
-53.07
 20
-1.215
 10
-53.168
 20
-0.816
 10
-53.228
 20
-0.41
 10
-53.247
 20
0.0
 10
-53.228
 20
0.41
 10
-53.168
 20
0.816
 10
-53.07
 20
1.215
 10
-52.934
 20
1.602
 10
-52.761
 20
1.974
 10
-52.553
 20
2.328
 10
-52.312
 20
2.66
 10
-52.039
 20
2.967
 10
-51.739
 20
3.246
 10
-51.413
 20
3.496
 10
-51.064
 20
3.712
 10
-50.696
 20
3.894
 10
-50.313
 20
4.04
 10
-49.917
 20
4.147
 10
-49.512
 20
4.217
 10
-49.103
 20
4.246
  0
LWPOLYLINE
  5
67
330
17
100
AcDbEntity
  8
BP_KICAD_REF
100
AcDbPolyline
 90
66
 70
1
 10
49.308
 20
4.236
 10
49.715
 20
4.187
 10
50.116
 20
4.098
 10
50.506
 20
3.971
 10
50.882
 20
3.808
 10
51.241
 20
3.608
 10
51.579
 20
3.375
 10
51.893
 20
3.11
 10
52.179
 20
2.817
 10
52.436
 20
2.497
 10
52.661
 20
2.153
 10
52.852
 20
1.79
 10
53.007
 20
1.41
 10
53.124
 20
1.016
 10
53.203
 20
0.614
 10
53.243
 20
0.205
 10
53.245
 20
0.0
 10
53.243
 20
-0.205
 10
53.203
 20
-0.614
 10
53.124
 20
-1.016
 10
53.007
 20
-1.41
 10
52.852
 20
-1.79
 10
52.661
 20
-2.153
 10
52.436
 20
-2.497
 10
52.179
 20
-2.817
 10
51.893
 20
-3.11
 10
51.579
 20
-3.375
 10
51.241
 20
-3.608
 10
50.882
 20
-3.808
 10
50.506
 20
-3.971
 10
50.116
 20
-4.098
 10
49.715
 20
-4.187
 10
49.308
 20
-4.236
 10
48.897
 20
-4.246
 10
48.488
 20
-4.217
 10
48.083
 20
-4.147
 10
47.687
 20
-4.04
 10
47.304
 20
-3.894
 10
46.936
 20
-3.712
 10
46.587
 20
-3.496
 10
46.261
 20
-3.246
 10
45.961
 20
-2.967
 10
45.688
 20
-2.66
 10
45.447
 20
-2.328
 10
45.239
 20
-1.974
 10
45.066
 20
-1.602
 10
44.93
 20
-1.215
 10
44.832
 20
-0.816
 10
44.772
 20
-0.41
 10
44.753
 20
0.0
 10
44.772
 20
0.41
 10
44.832
 20
0.816
 10
44.93
 20
1.215
 10
45.066
 20
1.602
 10
45.239
 20
1.974
 10
45.447
 20
2.328
 10
45.688
 20
2.66
 10
45.961
 20
2.967
 10
46.261
 20
3.246
 10
46.587
 20
3.496
 10
46.936
 20
3.712
 10
47.304
 20
3.894
 10
47.687
 20
4.04
 10
48.083
 20
4.147
 10
48.488
 20
4.217
 10
48.897
 20
4.246
  0
LWPOLYLINE
  5
68
330
17
100
AcDbEntity
  8
BP_KICAD_REF
100
AcDbPolyline
 90
4
 70
1
 10
-4.425
 20
-43.115
 10
-4.425
 20
-52.885
 10
-21.575
 20
-52.885
 10
-21.575
 20
-43.115
  0
LWPOLYLINE
  5
69
330
17
100
AcDbEntity
  8
BP_KICAD_REF
100
AcDbPolyline
 90
4
 70
1
 10
26.752
 20
47.234
 10
7.743
 20
36.259
 10
4.448
 20
41.966
 10
23.457
 20
52.941
  0
LWPOLYLINE
  5
6A
330
17
100
AcDbEntity
  8
BP_KICAD_REF
100
AcDbPolyline
 90
4
 70
1
 10
-4.448
 20
41.966
 10
-7.743
 20
36.259
 10
-26.752
 20
47.234
 10
-23.457
 20
52.941
  0
LWPOLYLINE
  5
6B
330
17
100
AcDbEntity
  8
BP_KICAD_REF
100
AcDbPolyline
 90
4
 70
1
 10
24.595
 20
-45.505
 10
24.595
 20
-52.095
 10
1.405
 20
-52.095
 10
1.405
 20
-45.505
  0
LWPOLYLINE
  5
6C
330
17
100
AcDbEntity
  8
BP_KICAD_REF
100
AcDbPolyline
 90
4
 70
1
 10
25.245
 20
-18.505
 10
25.245
 20
-41.495
 10
-25.245
 20
-41.495
 10
-25.245
 20
-18.505
  0
TEXT
  5
6D
330
17
100
AcDbEntity
  8
NOTES
100
AcDbText
 10
-64.0
 20
-70.0
 30
0.0
 40
2.0
  1
Stock base board traced from scans; BP frame (hole-axis origin). BP_KICAD_REF = current backplane courtyards (disc-centre origin, drawn as-is).
 11
-64.0
 21
-70.0
 31
0.0
100
AcDbText
  0
ENDSEC
  0
SECTION
  2
OBJECTS
  0
DICTIONARY
  5
A
330
0
100
AcDbDictionary
281
1
  3
ACAD_COLOR
350
B
  3
ACAD_GROUP
350
C
  3
ACAD_LAYOUT
350
D
  3
ACAD_MATERIAL
350
E
  3
ACAD_MLEADERSTYLE
350
F
  3
ACAD_MLINESTYLE
350
10
  3
ACAD_PLOTSETTINGS
350
11
  3
ACAD_PLOTSTYLENAME
350
12
  3
ACAD_SCALELIST
350
14
  3
ACAD_TABLESTYLE
350
15
  3
ACAD_VISUALSTYLE
350
16
  3
EZDXF_META
350
2D
  0
DICTIONARY
  5
B
330
A
100
AcDbDictionary
281
1
  0
DICTIONARY
  5
C
330
A
100
AcDbDictionary
281
1
  0
DICTIONARY
  5
D
330
A
100
AcDbDictionary
281
1
  3
Model
350
1A
  3
Layout1
350
1E
  0
DICTIONARY
  5
E
330
A
100
AcDbDictionary
281
1
  3
ByBlock
350
1F
  3
ByLayer
350
20
  3
Global
350
21
  0
DICTIONARY
  5
F
330
A
100
AcDbDictionary
281
1
  3
Standard
350
2C
  0
DICTIONARY
  5
10
330
A
100
AcDbDictionary
281
1
  3
Standard
350
22
  0
DICTIONARY
  5
11
330
A
100
AcDbDictionary
281
1
  0
ACDBDICTIONARYWDFLT
  5
12
330
A
100
AcDbDictionary
281
1
  3
Normal
350
13
100
AcDbDictionaryWithDefault
340
13
  0
ACDBPLACEHOLDER
  5
13
330
12
  0
DICTIONARY
  5
14
330
A
100
AcDbDictionary
281
1
  0
DICTIONARY
  5
15
330
A
100
AcDbDictionary
281
1
  0
DICTIONARY
  5
16
330
A
100
AcDbDictionary
281
1
  0
LAYOUT
  5
1A
330
D
100
AcDbPlotSettings
  1

  4
A3
  6

 40
7.5
 41
20.0
 42
7.5
 43
20.0
 44
420.0
 45
297.0
 46
0.0
 47
0.0
 48
0.0
 49
0.0
140
0.0
141
0.0
142
1.0
143
1.0
 70
1024
 72
1
 73
0
 74
5
  7

 75
16
 76
0
 77
2
 78
300
147
1.0
148
0.0
149
0.0
100
AcDbLayout
  1
Model
 70
1
 71
0
 10
0.0
 20
0.0
 11
420.0
 21
297.0
 12
0.0
 22
0.0
 32
0.0
 14
1e+20
 24
1e+20
 34
1e+20
 15
-1e+20
 25
-1e+20
 35
-1e+20
146
0.0
 13
0.0
 23
0.0
 33
0.0
 16
1.0
 26
0.0
 36
0.0
 17
0.0
 27
1.0
 37
0.0
 76
1
330
17
  0
LAYOUT
  5
1E
330
D
100
AcDbPlotSettings
  1

  4
A3
  6

 40
7.5
 41
20.0
 42
7.5
 43
20.0
 44
420.0
 45
297.0
 46
0.0
 47
0.0
 48
0.0
 49
0.0
140
0.0
141
0.0
142
1.0
143
1.0
 70
0
 72
1
 73
0
 74
5
  7

 75
16
 76
0
 77
2
 78
300
147
1.0
148
0.0
149
0.0
100
AcDbLayout
  1
Layout1
 70
1
 71
1
 10
0.0
 20
0.0
 11
420.0
 21
297.0
 12
0.0
 22
0.0
 32
0.0
 14
1e+20
 24
1e+20
 34
1e+20
 15
-1e+20
 25
-1e+20
 35
-1e+20
146
0.0
 13
0.0
 23
0.0
 33
0.0
 16
1.0
 26
0.0
 36
0.0
 17
0.0
 27
1.0
 37
0.0
 76
1
330
1B
  0
MATERIAL
  5
1F
102
{ACAD_REACTORS
330
E
102
}
330
E
100
AcDbMaterial
  1
ByBlock
  2

 70
0
 40
1.0
 71
1
 41
1.0
 91
-1023410177
 42
1.0
 72
1
  3

 73
1
 74
1
 75
1
 44
0.5
 73
0
 45
1.0
 46
1.0
 77
1
  4

 78
1
 79
1
170
1
 48
1.0
171
1
  6

172
1
173
1
174
1
140
1.0
141
1.0
175
1
  7

176
1
177
1
178
1
143
1.0
179
1
  8

270
1
271
1
272
1
145
1.0
146
1.0
273
1
  9

274
1
275
1
276
1
 42
1.0
 72
1
  3

 73
1
 74
1
 75
1
 94
63
  0
MATERIAL
  5
20
102
{ACAD_REACTORS
330
E
102
}
330
E
100
AcDbMaterial
  1
ByLayer
  2

 70
0
 40
1.0
 71
1
 41
1.0
 91
-1023410177
 42
1.0
 72
1
  3

 73
1
 74
1
 75
1
 44
0.5
 73
0
 45
1.0
 46
1.0
 77
1
  4

 78
1
 79
1
170
1
 48
1.0
171
1
  6

172
1
173
1
174
1
140
1.0
141
1.0
175
1
  7

176
1
177
1
178
1
143
1.0
179
1
  8

270
1
271
1
272
1
145
1.0
146
1.0
273
1
  9

274
1
275
1
276
1
 42
1.0
 72
1
  3

 73
1
 74
1
 75
1
 94
63
  0
MATERIAL
  5
21
102
{ACAD_REACTORS
330
E
102
}
330
E
100
AcDbMaterial
  1
Global
  2

 70
0
 40
1.0
 71
1
 41
1.0
 91
-1023410177
 42
1.0
 72
1
  3

 73
1
 74
1
 75
1
 44
0.5
 73
0
 45
1.0
 46
1.0
 77
1
  4

 78
1
 79
1
170
1
 48
1.0
171
1
  6

172
1
173
1
174
1
140
1.0
141
1.0
175
1
  7

176
1
177
1
178
1
143
1.0
179
1
  8

270
1
271
1
272
1
145
1.0
146
1.0
273
1
  9

274
1
275
1
276
1
 42
1.0
 72
1
  3

 73
1
 74
1
 75
1
 94
63
  0
MLINESTYLE
  5
22
102
{ACAD_REACTORS
330
10
102
}
330
10
100
AcDbMlineStyle
  2
Standard
 70
0
  3

 62
256
 51
90.0
 52
90.0
 71
2
 49
0.5
 62
256
  6
BYLAYER
 49
-0.5
 62
256
  6
BYLAYER
  0
MLEADERSTYLE
  5
2C
102
{ACAD_REACTORS
330
F
102
}
330
F
100
AcDbMLeaderStyle
179
2
170
2
171
1
172
0
 90
2
 40
0.0
 41
0.0
173
1
 91
-1056964608
 92
-2
290
1
 42
2.0
291
1
 43
8.0
  3
Standard
 44
4.0
300

342
29
174
1
175
1
176
0
178
1
 93
-1056964608
 45
4.0
292
0
297
0
 46
4.0
 94
-1056964608
 47
1.0
 49
1.0
140
1.0
294
1
141
0.0
177
0
142
1.0
295
0
296
0
143
3.75
271
0
272
9
273
9
  0
DICTIONARY
  5
2D
330
A
100
AcDbDictionary
280
1
281
1
  3
CREATED_BY_EZDXF
350
2E
  3
WRITTEN_BY_EZDXF
350
70
  0
DICTIONARYVAR
  5
2E
330
2D
100
DictionaryVariables
280
0
  1
1.4.4 @ 2026-10-01T21:23:14.336627+00:00
  0
DICTIONARYVAR
  5
70
330
2D
100
DictionaryVariables
280
0
  1
1.4.4 @ 2026-10-01T21:23:14.339493+00:00
  0
ENDSEC
  0
EOF
