M48
; DRILL file {KiCad 9.0.2+dfsg-1} date 2026-10-08T18:28:33-0400
; FORMAT={-:-/ absolute / metric / decimal}
; #@! TF.CreationDate,2026-10-08T18:28:33-04:00
; #@! TF.GenerationSoftware,Kicad,Pcbnew,9.0.2+dfsg-1
; #@! TF.FileFunction,Plated,1,4,PTH
FMAT,2
METRIC
; #@! TA.AperFunction,Plated,PTH,ViaDrill
T1C0.250
; #@! TA.AperFunction,Plated,PTH,ViaDrill
T2C0.300
; #@! TA.AperFunction,Plated,PTH,ComponentDrill
T3C0.500
; #@! TA.AperFunction,Plated,PTH,ComponentDrill
T4C0.600
; #@! TA.AperFunction,Plated,PTH,ComponentDrill
T5C3.200
; #@! TA.AperFunction,Plated,PTH,ComponentDrill
T6C3.700
; #@! TA.AperFunction,Plated,PTH,ComponentDrill
T7C5.000
%
G90
G05
T1
X2.5Y160.5
X2.5Y157.5
X2.5Y52.5
X2.5Y49.5
X2.5Y46.5
X2.5Y43.5
X2.5Y40.5
X2.5Y37.5
X2.5Y34.5
X2.5Y31.5
X2.5Y28.5
X2.5Y25.5
X2.5Y22.5
X2.5Y19.5
X2.5Y16.5
X5.5Y163.5
X5.5Y136.5
X5.5Y133.5
X5.5Y130.5
X5.5Y127.5
X5.5Y124.5
X5.5Y121.5
X5.5Y118.5
X5.5Y115.5
X5.5Y112.5
X5.5Y109.5
X5.5Y106.5
X5.5Y103.5
X5.5Y100.5
X5.5Y97.5
X5.5Y94.5
X5.5Y91.5
X5.5Y88.5
X5.5Y85.5
X5.5Y82.5
X5.5Y52.5
X5.5Y49.5
X5.5Y46.5
X5.5Y43.5
X5.5Y40.5
X5.5Y37.5
X5.5Y34.5
X5.5Y31.5
X5.5Y28.5
X5.5Y25.5
X5.5Y22.5
X5.5Y19.5
X5.5Y16.5
X5.5Y13.5
X8.0Y63.825
X8.5Y163.5
X8.5Y157.5
X8.5Y136.5
X8.5Y133.5
X8.5Y130.5
X8.5Y127.5
X8.5Y124.5
X8.5Y121.5
X8.5Y118.5
X8.5Y115.5
X8.5Y112.5
X8.5Y109.5
X8.5Y106.5
X8.5Y103.5
X8.5Y100.5
X8.5Y97.5
X8.5Y94.5
X8.5Y91.5
X8.5Y88.5
X8.5Y85.5
X8.5Y82.5
X8.5Y52.5
X8.5Y49.5
X8.5Y46.5
X8.5Y43.5
X8.5Y40.5
X8.5Y37.5
X8.5Y34.5
X8.5Y31.5
X8.5Y28.5
X8.5Y25.5
X8.5Y22.5
X8.5Y19.5
X8.5Y16.5
X8.5Y13.5
X8.5Y10.5
X8.765Y75.4
X9.0Y69.135
X9.02Y74.355
X9.9Y74.72
X10.365Y66.7
X11.5Y163.5
X11.5Y160.5
X11.5Y157.5
X11.5Y136.5
X11.5Y133.5
X11.5Y130.5
X11.5Y127.5
X11.5Y124.5
X11.5Y121.5
X11.5Y118.5
X11.5Y115.5
X11.5Y112.5
X11.5Y109.5
X11.5Y106.5
X11.5Y103.5
X11.5Y100.5
X11.5Y97.5
X11.5Y94.5
X11.5Y91.5
X11.5Y88.5
X11.5Y85.5
X11.5Y82.5
X11.5Y52.5
X11.5Y49.5
X11.5Y46.5
X11.5Y43.5
X11.5Y40.5
X11.5Y37.5
X11.5Y34.5
X11.5Y31.5
X11.5Y28.5
X11.5Y25.5
X11.5Y22.5
X11.5Y19.5
X11.5Y16.5
X11.5Y13.5
X11.5Y10.5
X11.5Y7.5
X12.825Y66.7
X12.865Y76.0
X14.335Y37.322
X14.5Y163.5
X14.5Y160.5
X14.5Y157.5
X14.5Y136.5
X14.5Y133.5
X14.5Y130.5
X14.5Y127.5
X14.5Y124.5
X14.5Y121.5
X14.5Y118.5
X14.5Y115.5
X14.5Y112.5
X14.5Y109.5
X14.5Y106.5
X14.5Y103.5
X14.5Y100.5
X14.5Y88.5
X14.5Y85.5
X14.5Y82.5
X14.5Y52.5
X14.5Y49.5
X14.5Y40.5
X14.5Y34.5
X14.5Y31.5
X14.5Y28.5
X14.5Y25.5
X14.5Y22.5
X14.5Y19.5
X14.5Y13.5
X14.5Y10.5
X14.5Y7.5
X14.5Y4.5
X15.043Y37.938
X15.043Y15.062
X15.175Y68.0
X15.884Y15.481
X16.46Y23.483
X16.698Y55.28
X17.255Y66.4
X17.28Y55.468
X17.5Y163.5
X17.5Y160.5
X17.5Y157.5
X17.5Y136.5
X17.5Y133.5
X17.5Y130.5
X17.5Y127.5
X17.5Y124.5
X17.5Y121.5
X17.5Y118.5
X17.5Y115.5
X17.5Y112.5
X17.5Y109.5
X17.5Y106.5
X17.5Y103.5
X17.5Y100.5
X17.5Y97.5
X17.5Y91.5
X17.5Y88.5
X17.5Y85.5
X17.5Y82.5
X17.5Y52.5
X17.5Y49.5
X17.5Y46.5
X17.5Y37.5
X17.5Y16.5
X17.5Y13.5
X17.5Y10.5
X17.5Y7.5
X17.5Y4.5
X17.62Y67.28
X17.62Y65.52
X18.765Y20.379
X19.254Y71.037
X19.34Y24.581
X19.4Y19.68
X19.427Y25.775
X19.602Y30.221
X20.009Y136.598
X20.296Y27.944
X20.414Y137.453
X20.5Y163.5
X20.5Y160.5
X20.5Y157.5
X20.5Y133.5
X20.5Y130.5
X20.5Y127.5
X20.5Y124.5
X20.5Y22.5
X20.5Y16.5
X20.5Y13.5
X20.5Y10.5
X20.5Y7.5
X20.5Y4.5
X20.62Y80.355
X20.698Y58.72
X20.825Y33.5
X20.962Y27.975
X21.048Y61.616
X21.5Y80.72
X21.5Y75.28
X22.331Y64.505
X22.411Y30.772
X22.562Y135.159
X23.2Y64.398
X23.315Y27.942
X23.5Y163.5
X23.5Y160.5
X23.5Y157.5
X23.5Y136.5
X23.5Y133.5
X23.5Y130.5
X23.5Y127.5
X23.5Y124.5
X23.5Y121.5
X23.5Y118.5
X23.5Y115.5
X23.5Y112.5
X23.5Y109.5
X23.5Y106.5
X23.5Y103.5
X23.5Y100.5
X23.5Y97.5
X23.5Y94.5
X23.5Y91.5
X23.5Y88.5
X23.5Y85.5
X23.5Y82.5
X23.5Y25.5
X23.5Y22.5
X23.5Y19.5
X23.5Y16.5
X23.5Y13.5
X23.5Y10.5
X23.5Y7.5
X23.5Y4.5
X23.698Y35.28
X23.782Y32.54
X24.246Y150.963
X24.62Y80.355
X24.8Y61.029
X25.461Y65.02
X25.5Y80.72
X26.058Y43.697
X26.058Y38.811
X26.5Y163.5
X26.5Y160.5
X26.5Y157.5
X26.5Y136.5
X26.5Y133.5
X26.5Y130.5
X26.5Y127.5
X26.5Y124.5
X26.5Y121.5
X26.5Y118.5
X26.5Y115.5
X26.5Y112.5
X26.5Y109.5
X26.5Y106.5
X26.5Y103.5
X26.5Y100.5
X26.5Y97.5
X26.5Y94.5
X26.5Y91.5
X26.5Y88.5
X26.5Y85.5
X26.5Y82.5
X26.5Y31.5
X26.5Y28.5
X26.5Y16.5
X26.5Y13.5
X26.5Y10.5
X26.5Y7.5
X26.5Y4.5
X26.865Y145.5
X27.3Y55.7
X27.453Y32.467
X27.698Y35.28
X28.1Y25.35
X28.1Y22.55
X28.65Y47.05
X28.7Y22.1
X29.3Y23.0
X29.35Y46.15
X29.5Y163.5
X29.5Y160.5
X29.5Y157.5
X29.5Y136.5
X29.5Y133.5
X29.5Y130.5
X29.5Y127.5
X29.5Y124.5
X29.5Y121.5
X29.5Y118.5
X29.5Y115.5
X29.5Y112.5
X29.5Y109.5
X29.5Y106.5
X29.5Y103.5
X29.5Y100.5
X29.5Y97.5
X29.5Y94.5
X29.5Y91.5
X29.5Y88.5
X29.5Y85.5
X29.5Y82.5
X29.5Y16.5
X29.5Y13.5
X29.5Y10.5
X29.5Y7.5
X29.5Y4.5
X29.831Y140.275
X29.9Y25.35
X29.9Y22.55
X30.45Y48.3
X30.5Y22.1
X31.1Y23.0
X31.15Y47.4
X31.521Y152.71
X31.521Y147.29
X31.7Y25.35
X31.7Y22.55
X31.754Y150.963
X31.754Y149.037
X32.5Y163.5
X32.5Y160.5
X32.5Y157.5
X32.5Y136.5
X32.5Y133.5
X32.5Y130.5
X32.5Y127.5
X32.5Y124.5
X32.5Y121.5
X32.5Y118.5
X32.5Y115.5
X32.5Y112.5
X32.5Y109.5
X32.5Y106.5
X32.5Y103.5
X32.5Y100.5
X32.5Y97.5
X32.5Y94.5
X32.5Y91.5
X32.5Y88.5
X32.5Y85.5
X32.5Y82.5
X32.5Y49.5
X32.5Y16.5
X32.5Y13.5
X32.5Y10.5
X32.5Y7.5
X32.5Y4.5
X32.568Y148.763
X33.5Y25.35
X33.5Y22.55
X34.05Y38.05
X34.7Y22.55
X34.742Y51.737
X34.75Y38.95
X35.3Y25.35
X35.3Y22.55
X35.5Y163.5
X35.5Y160.5
X35.5Y157.5
X35.5Y136.5
X35.5Y133.5
X35.5Y130.5
X35.5Y127.5
X35.5Y124.5
X35.5Y121.5
X35.5Y118.5
X35.5Y115.5
X35.5Y112.5
X35.5Y109.5
X35.5Y106.5
X35.5Y103.5
X35.5Y100.5
X35.5Y97.5
X35.5Y94.5
X35.5Y91.5
X35.5Y88.5
X35.5Y85.5
X35.5Y82.5
X35.5Y52.5
X35.5Y40.5
X35.5Y19.5
X35.5Y16.5
X35.5Y13.5
X35.5Y10.5
X35.5Y7.5
X35.5Y4.5
X35.546Y51.061
X35.812Y49.968
X35.85Y37.7
X35.9Y22.1
X36.178Y55.222
X36.323Y48.999
X36.5Y23.0
X36.55Y36.8
X36.75Y49.75
X36.98Y63.0
X36.988Y55.299
X37.1Y25.35
X37.1Y22.55
X37.12Y152.355
X37.25Y126.25
X37.25Y124.75
X37.25Y123.25
X37.25Y121.75
X37.25Y120.25
X37.25Y118.75
X37.25Y117.25
X37.25Y115.75
X37.25Y114.25
X37.25Y112.75
X37.25Y111.25
X37.25Y109.75
X37.25Y108.25
X37.25Y106.75
X37.25Y105.25
X37.25Y103.75
X37.25Y102.25
X37.25Y100.75
X37.25Y99.25
X37.25Y97.75
X37.25Y96.25
X37.25Y94.75
X37.25Y93.25
X37.25Y91.75
X37.25Y90.25
X37.25Y88.75
X37.25Y87.25
X37.25Y85.75
X37.25Y84.25
X37.25Y82.75
X37.25Y81.25
X37.25Y79.75
X37.25Y78.25
X37.25Y76.75
X37.25Y75.25
X37.25Y73.75
X37.25Y72.25
X37.25Y70.75
X37.25Y49.75
X37.641Y62.011
X37.7Y22.1
X38.0Y152.72
X38.0Y147.28
X38.3Y23.0
X38.5Y163.5
X38.5Y160.5
X38.5Y157.5
X38.5Y136.5
X38.5Y133.5
X38.5Y130.5
X38.5Y127.5
X38.5Y19.5
X38.5Y16.5
X38.5Y13.5
X38.5Y10.5
X38.5Y7.5
X38.5Y4.5
X38.75Y126.25
X38.75Y124.75
X38.75Y123.25
X38.75Y121.75
X38.75Y120.25
X38.75Y118.75
X38.75Y117.25
X38.75Y115.75
X38.75Y114.25
X38.75Y112.75
X38.75Y111.25
X38.75Y109.75
X38.75Y108.25
X38.75Y106.75
X38.75Y105.25
X38.75Y103.75
X38.75Y102.25
X38.75Y100.75
X38.75Y99.25
X38.75Y97.75
X38.75Y96.25
X38.75Y94.75
X38.75Y93.25
X38.75Y91.75
X38.75Y90.25
X38.75Y88.75
X38.75Y87.25
X38.75Y85.75
X38.75Y84.25
X38.75Y82.75
X38.75Y81.25
X38.75Y79.75
X38.75Y78.25
X38.75Y76.75
X38.75Y75.25
X38.75Y73.75
X38.75Y72.25
X38.75Y70.75
X38.75Y49.75
X38.88Y147.645
X38.9Y25.35
X38.9Y22.55
X39.15Y33.95
X39.423Y60.154
X39.45Y32.1
X39.5Y22.1
X39.541Y63.989
X39.85Y33.05
X40.1Y23.0
X40.15Y31.2
X40.25Y126.25
X40.25Y124.75
X40.25Y123.25
X40.25Y121.75
X40.25Y120.25
X40.25Y118.75
X40.25Y117.25
X40.25Y115.75
X40.25Y114.25
X40.25Y112.75
X40.25Y111.25
X40.25Y109.75
X40.25Y108.25
X40.25Y106.75
X40.25Y105.25
X40.25Y103.75
X40.25Y102.25
X40.25Y100.75
X40.25Y99.25
X40.25Y97.75
X40.25Y96.25
X40.25Y94.75
X40.25Y93.25
X40.25Y91.75
X40.25Y90.25
X40.25Y88.75
X40.25Y87.25
X40.25Y85.75
X40.25Y84.25
X40.25Y82.75
X40.25Y81.25
X40.25Y79.75
X40.25Y49.75
X40.65Y37.7
X40.7Y25.35
X40.7Y22.55
X40.899Y77.973
X40.899Y76.473
X40.899Y74.973
X40.899Y73.473
X40.899Y71.973
X40.899Y70.473
X40.899Y68.973
X40.899Y67.473
X40.899Y65.973
X41.0Y149.175
X41.25Y35.2
X41.3Y22.1
X41.35Y36.8
X41.5Y163.5
X41.5Y160.5
X41.5Y157.5
X41.5Y133.5
X41.5Y130.5
X41.5Y127.5
X41.5Y19.5
X41.5Y16.5
X41.5Y13.5
X41.5Y10.5
X41.5Y7.5
X41.5Y4.5
X41.75Y126.25
X41.75Y124.75
X41.75Y123.25
X41.75Y121.75
X41.75Y120.25
X41.75Y118.75
X41.75Y117.25
X41.75Y115.75
X41.75Y114.25
X41.75Y112.75
X41.75Y111.25
X41.75Y109.75
X41.75Y108.25
X41.75Y106.75
X41.75Y105.25
X41.75Y103.75
X41.75Y102.25
X41.75Y100.75
X41.75Y99.25
X41.75Y97.75
X41.75Y96.25
X41.75Y94.75
X41.75Y93.25
X41.75Y91.75
X41.75Y90.25
X41.75Y88.75
X41.75Y87.25
X41.75Y85.75
X41.75Y84.25
X41.75Y82.75
X41.75Y81.25
X41.75Y49.75
X41.9Y23.0
X41.95Y34.3
X42.15Y36.45
X42.399Y79.473
X42.399Y77.973
X42.399Y76.473
X42.399Y74.973
X42.399Y73.473
X42.399Y71.973
X42.399Y70.473
X42.399Y68.973
X42.399Y67.473
X42.399Y65.973
X42.399Y62.973
X42.5Y153.675
X42.5Y146.355
X42.5Y25.35
X42.5Y22.55
X42.85Y35.55
X42.865Y145.5
X43.1Y22.575
X43.25Y126.25
X43.25Y124.75
X43.25Y123.25
X43.25Y121.75
X43.25Y120.25
X43.25Y118.75
X43.25Y117.25
X43.25Y115.75
X43.25Y114.25
X43.25Y112.75
X43.25Y111.25
X43.25Y109.75
X43.25Y108.25
X43.25Y106.75
X43.25Y105.25
X43.25Y103.75
X43.25Y102.25
X43.25Y100.75
X43.25Y99.25
X43.25Y97.75
X43.25Y96.25
X43.25Y94.75
X43.25Y93.25
X43.25Y91.75
X43.25Y90.25
X43.25Y88.75
X43.25Y87.25
X43.25Y85.75
X43.25Y84.25
X43.25Y82.75
X43.25Y81.25
X43.25Y49.75
X43.258Y146.861
X43.65Y48.3
X43.7Y22.575
X43.899Y79.473
X43.899Y77.973
X43.899Y76.473
X43.899Y74.973
X43.899Y73.473
X43.899Y71.973
X43.899Y70.473
X43.899Y67.473
X43.899Y65.973
X43.899Y62.973
X44.3Y25.35
X44.3Y22.55
X44.35Y47.4
X44.452Y149.863
X44.479Y148.431
X44.48Y146.155
X44.5Y163.5
X44.5Y160.5
X44.5Y157.5
X44.5Y136.5
X44.5Y130.5
X44.5Y127.5
X44.5Y16.5
X44.5Y13.5
X44.5Y10.5
X44.5Y7.5
X44.5Y4.5
X44.54Y68.663
X44.54Y62.337
X44.75Y126.25
X44.75Y124.75
X44.75Y123.25
X44.75Y121.75
X44.75Y120.25
X44.75Y118.75
X44.75Y117.25
X44.75Y115.75
X44.75Y114.25
X44.75Y112.75
X44.75Y111.25
X44.75Y109.75
X44.75Y108.25
X44.75Y106.75
X44.75Y105.25
X44.75Y103.75
X44.75Y102.25
X44.75Y100.75
X44.75Y99.25
X44.75Y97.75
X44.75Y96.25
X44.75Y94.75
X44.75Y93.25
X44.75Y91.75
X44.75Y90.25
X44.75Y88.75
X44.75Y87.25
X44.75Y85.75
X44.75Y84.25
X44.75Y82.75
X44.75Y81.25
X44.75Y49.75
X44.791Y147.258
X44.85Y41.8
X45.135Y145.5
X45.15Y44.55
X45.399Y79.473
X45.399Y77.973
X45.399Y76.473
X45.399Y74.973
X45.399Y73.473
X45.399Y71.973
X45.399Y70.473
X45.399Y65.973
X45.499Y68.757
X45.5Y22.55
X45.55Y42.7
X45.85Y43.65
X46.1Y25.35
X46.1Y22.55
X46.25Y126.25
X46.25Y124.75
X46.25Y123.25
X46.25Y121.75
X46.25Y120.25
X46.25Y118.75
X46.25Y117.25
X46.25Y115.75
X46.25Y114.25
X46.25Y112.75
X46.25Y111.25
X46.25Y109.75
X46.25Y108.25
X46.25Y106.75
X46.25Y105.25
X46.25Y103.75
X46.25Y102.25
X46.25Y100.75
X46.25Y99.25
X46.25Y97.75
X46.25Y96.25
X46.25Y94.75
X46.25Y93.25
X46.25Y91.75
X46.25Y90.25
X46.25Y88.75
X46.25Y87.25
X46.25Y85.75
X46.25Y84.25
X46.25Y82.75
X46.25Y81.25
X46.25Y49.75
X46.501Y68.757
X46.65Y47.05
X46.65Y40.2
X46.7Y22.1
X46.899Y79.473
X46.899Y77.973
X46.899Y76.473
X46.899Y74.973
X46.899Y73.473
X46.899Y71.973
X46.899Y70.473
X46.899Y65.973
X46.899Y61.473
X47.3Y23.0
X47.35Y46.15
X47.35Y39.3
X47.5Y163.5
X47.5Y160.5
X47.5Y157.5
X47.5Y136.5
X47.5Y130.5
X47.5Y127.5
X47.5Y43.5
X47.5Y16.5
X47.5Y13.5
X47.5Y10.5
X47.5Y7.5
X47.5Y4.5
X47.568Y147.566
X47.568Y141.624
X47.75Y126.25
X47.75Y124.75
X47.75Y123.25
X47.75Y121.75
X47.75Y120.25
X47.75Y118.75
X47.75Y117.25
X47.75Y115.75
X47.75Y114.25
X47.75Y112.75
X47.75Y111.25
X47.75Y109.75
X47.75Y108.25
X47.75Y106.75
X47.75Y105.25
X47.75Y103.75
X47.75Y102.25
X47.75Y100.75
X47.75Y99.25
X47.75Y97.75
X47.75Y96.25
X47.75Y94.75
X47.75Y93.25
X47.75Y91.75
X47.75Y90.25
X47.75Y88.75
X47.75Y87.25
X47.75Y85.75
X47.75Y84.25
X47.75Y82.75
X47.75Y81.25
X47.75Y49.75
X47.9Y25.35
X47.9Y22.55
X48.011Y149.492
X48.15Y45.8
X48.234Y147.805
X48.399Y79.473
X48.399Y77.973
X48.399Y76.473
X48.399Y74.973
X48.399Y73.473
X48.399Y71.973
X48.399Y70.473
X48.399Y68.973
X48.399Y67.473
X48.399Y62.973
X48.399Y61.473
X48.45Y41.45
X48.5Y22.1
X48.85Y44.9
X49.1Y23.0
X49.15Y40.55
X49.25Y126.25
X49.25Y124.75
X49.25Y123.25
X49.25Y121.75
X49.25Y120.25
X49.25Y118.75
X49.25Y117.25
X49.25Y115.75
X49.25Y114.25
X49.25Y112.75
X49.25Y111.25
X49.25Y109.75
X49.25Y108.25
X49.25Y106.75
X49.25Y105.25
X49.25Y103.75
X49.25Y102.25
X49.25Y100.75
X49.25Y99.25
X49.25Y97.75
X49.25Y96.25
X49.25Y94.75
X49.25Y93.25
X49.25Y91.75
X49.25Y90.25
X49.25Y88.75
X49.25Y87.25
X49.25Y85.75
X49.25Y84.25
X49.25Y82.75
X49.25Y81.25
X49.25Y49.75
X49.5Y153.175
X49.5Y149.135
X49.5Y66.635
X49.65Y38.95
X49.7Y25.35
X49.7Y22.55
X49.899Y79.473
X49.899Y77.973
X49.899Y76.473
X49.899Y74.973
X49.899Y73.473
X49.899Y71.973
X49.899Y70.473
X49.899Y68.973
X49.899Y67.473
X49.899Y62.973
X49.899Y61.473
X50.35Y38.05
X50.365Y145.5
X50.5Y163.5
X50.5Y160.5
X50.5Y157.5
X50.5Y136.5
X50.5Y133.5
X50.5Y130.5
X50.5Y127.5
X50.5Y16.5
X50.5Y13.5
X50.5Y10.5
X50.5Y7.5
X50.5Y4.5
X50.75Y126.25
X50.75Y124.75
X50.75Y123.25
X50.75Y121.75
X50.75Y120.25
X50.75Y118.75
X50.75Y117.25
X50.75Y115.75
X50.75Y114.25
X50.75Y112.75
X50.75Y111.25
X50.75Y109.75
X50.75Y108.25
X50.75Y106.75
X50.75Y105.25
X50.75Y103.75
X50.75Y102.25
X50.75Y100.75
X50.75Y99.25
X50.75Y97.75
X50.75Y96.25
X50.75Y94.75
X50.75Y93.25
X50.75Y91.75
X50.75Y90.25
X50.75Y88.75
X50.75Y87.25
X50.75Y85.75
X50.75Y84.25
X50.75Y82.75
X50.75Y81.25
X50.75Y49.75
X50.98Y63.0
X51.0Y153.135
X51.399Y79.473
X51.399Y77.973
X51.399Y76.473
X51.399Y74.973
X51.399Y73.473
X51.399Y71.973
X51.399Y70.473
X51.399Y68.973
X51.399Y67.473
X51.5Y25.35
X51.5Y22.55
X51.641Y62.011
X51.7Y142.5
X52.25Y126.25
X52.25Y124.75
X52.25Y123.25
X52.25Y121.75
X52.25Y120.25
X52.25Y118.75
X52.25Y117.25
X52.25Y115.75
X52.25Y114.25
X52.25Y112.75
X52.25Y111.25
X52.25Y109.75
X52.25Y108.25
X52.25Y106.75
X52.25Y105.25
X52.25Y103.75
X52.25Y102.25
X52.25Y100.75
X52.25Y99.25
X52.25Y97.75
X52.25Y96.25
X52.25Y94.75
X52.25Y93.25
X52.25Y91.75
X52.25Y90.25
X52.25Y88.75
X52.25Y87.25
X52.25Y85.75
X52.25Y84.25
X52.25Y82.75
X52.25Y81.25
X52.4Y144.6
X52.899Y79.473
X52.899Y77.973
X52.899Y76.473
X52.899Y74.973
X52.899Y73.473
X52.899Y71.973
X52.899Y70.473
X52.899Y68.973
X52.899Y67.473
X52.899Y61.473
X53.3Y25.35
X53.3Y22.55
X53.5Y163.5
X53.5Y160.5
X53.5Y157.5
X53.5Y136.5
X53.5Y133.5
X53.5Y130.5
X53.5Y127.5
X53.5Y49.5
X53.5Y46.5
X53.5Y43.5
X53.5Y37.5
X53.5Y16.5
X53.5Y13.5
X53.5Y10.5
X53.5Y7.5
X53.5Y4.5
X53.75Y126.25
X53.75Y124.75
X53.75Y123.25
X53.75Y121.75
X53.75Y120.25
X53.75Y118.75
X53.75Y117.25
X53.75Y115.75
X53.75Y114.25
X53.75Y112.75
X53.75Y111.25
X53.75Y109.75
X53.75Y108.25
X53.75Y106.75
X53.75Y105.25
X53.75Y103.75
X53.75Y102.25
X53.75Y100.75
X53.75Y99.25
X53.75Y97.75
X53.75Y96.25
X53.75Y94.75
X53.75Y93.25
X53.75Y91.75
X53.75Y90.25
X53.75Y88.75
X53.75Y87.25
X53.75Y85.75
X53.75Y84.25
X53.75Y82.75
X53.75Y81.25
X54.399Y79.473
X54.399Y77.973
X54.399Y76.473
X54.399Y74.973
X54.399Y73.473
X54.399Y71.973
X54.399Y70.473
X54.399Y68.973
X54.399Y67.473
X55.1Y25.35
X55.1Y22.55
X55.244Y52.35
X55.269Y50.764
X55.791Y51.644
X55.8Y64.135
X55.899Y79.473
X55.899Y77.973
X55.899Y76.473
X55.899Y74.973
X55.899Y73.473
X55.899Y71.973
X55.899Y70.473
X55.899Y68.973
X55.899Y67.473
X55.899Y61.473
X55.899Y59.973
X56.5Y163.5
X56.5Y160.5
X56.5Y157.5
X56.5Y136.5
X56.5Y133.5
X56.5Y130.5
X56.5Y127.5
X56.5Y124.5
X56.5Y121.5
X56.5Y118.5
X56.5Y115.5
X56.5Y112.5
X56.5Y109.5
X56.5Y106.5
X56.5Y103.5
X56.5Y100.5
X56.5Y97.5
X56.5Y94.5
X56.5Y91.5
X56.5Y88.5
X56.5Y85.5
X56.5Y82.5
X56.5Y49.5
X56.5Y46.5
X56.5Y43.5
X56.5Y37.5
X56.5Y16.5
X56.5Y13.5
X56.5Y10.5
X56.5Y7.5
X56.5Y4.5
X56.883Y143.264
X56.9Y25.35
X56.9Y22.55
X56.94Y52.738
X57.258Y51.737
X57.295Y144.07
X57.399Y79.473
X57.399Y77.973
X57.399Y76.473
X57.399Y74.973
X57.399Y73.473
X57.399Y71.973
X57.399Y70.473
X57.399Y68.973
X57.399Y67.473
X57.399Y62.973
X57.399Y61.473
X57.399Y59.973
X58.7Y25.35
X58.7Y22.55
X58.742Y51.737
X58.899Y79.473
X58.899Y77.973
X58.899Y76.473
X58.899Y74.973
X58.899Y73.473
X58.899Y71.973
X58.899Y70.473
X58.899Y68.973
X58.899Y67.473
X58.899Y62.973
X58.899Y61.473
X58.899Y59.973
X59.269Y144.036
X59.5Y163.5
X59.5Y160.5
X59.5Y157.5
X59.5Y136.5
X59.5Y133.5
X59.5Y130.5
X59.5Y127.5
X59.5Y124.5
X59.5Y121.5
X59.5Y118.5
X59.5Y115.5
X59.5Y112.5
X59.5Y109.5
X59.5Y106.5
X59.5Y103.5
X59.5Y100.5
X59.5Y97.5
X59.5Y94.5
X59.5Y91.5
X59.5Y88.5
X59.5Y85.5
X59.5Y82.5
X59.5Y52.5
X59.5Y49.5
X59.5Y46.5
X59.5Y43.5
X59.5Y37.5
X59.5Y16.5
X59.5Y13.5
X59.5Y10.5
X59.5Y7.5
X59.5Y4.5
X59.546Y51.061
X59.6Y145.4
X60.0Y144.135
X60.399Y79.473
X60.399Y77.973
X60.399Y76.473
X60.399Y74.973
X60.399Y73.473
X60.399Y71.973
X60.399Y70.473
X60.399Y68.973
X60.399Y67.473
X60.399Y61.473
X60.5Y25.35
X60.5Y22.55
X60.75Y49.75
X60.98Y63.0
X61.25Y126.25
X61.25Y124.75
X61.25Y123.25
X61.25Y121.75
X61.25Y120.25
X61.25Y118.75
X61.25Y117.25
X61.25Y115.75
X61.25Y114.25
X61.25Y112.75
X61.25Y111.25
X61.25Y109.75
X61.25Y108.25
X61.25Y106.75
X61.25Y105.25
X61.25Y103.75
X61.25Y102.25
X61.25Y100.75
X61.25Y99.25
X61.25Y97.75
X61.25Y96.25
X61.25Y94.75
X61.25Y93.25
X61.25Y91.75
X61.25Y90.25
X61.25Y88.75
X61.25Y87.25
X61.25Y85.75
X61.25Y84.25
X61.25Y82.75
X61.25Y81.25
X61.25Y49.75
X61.641Y62.011
X61.65Y41.45
X61.899Y79.473
X61.899Y77.973
X61.899Y76.473
X61.899Y74.973
X61.899Y73.473
X61.899Y71.973
X61.899Y70.473
X61.899Y68.973
X61.899Y67.473
X62.12Y152.355
X62.3Y25.35
X62.3Y22.55
X62.35Y40.55
X62.364Y53.58
X62.5Y163.5
X62.5Y160.5
X62.5Y157.5
X62.5Y136.5
X62.5Y133.5
X62.5Y130.5
X62.5Y127.5
X62.5Y16.5
X62.5Y13.5
X62.5Y10.5
X62.5Y7.5
X62.5Y4.5
X62.75Y126.25
X62.75Y124.75
X62.75Y123.25
X62.75Y121.75
X62.75Y120.25
X62.75Y118.75
X62.75Y117.25
X62.75Y115.75
X62.75Y114.25
X62.75Y112.75
X62.75Y111.25
X62.75Y109.75
X62.75Y108.25
X62.75Y106.75
X62.75Y105.25
X62.75Y103.75
X62.75Y102.25
X62.75Y100.75
X62.75Y99.25
X62.75Y97.75
X62.75Y96.25
X62.75Y94.75
X62.75Y93.25
X62.75Y91.75
X62.75Y90.25
X62.75Y88.75
X62.75Y87.25
X62.75Y85.75
X62.75Y84.25
X62.75Y82.75
X62.75Y81.25
X62.75Y49.75
X63.0Y152.72
X63.15Y27.1
X63.85Y26.2
X63.86Y137.664
X64.1Y25.35
X64.1Y22.55
X64.25Y49.75
X64.65Y40.2
X65.02Y63.0
X65.304Y135.783
X65.304Y65.684
X65.35Y39.3
X65.5Y163.5
X65.5Y160.5
X65.5Y157.5
X65.5Y16.5
X65.5Y13.5
X65.5Y10.5
X65.5Y7.5
X65.5Y4.5
X65.62Y152.355
X65.75Y72.25
X65.75Y70.75
X65.75Y49.75
X65.9Y25.35
X65.9Y22.55
X66.15Y28.35
X66.5Y152.72
X66.85Y27.45
X67.25Y126.25
X67.25Y124.75
X67.25Y123.25
X67.25Y121.75
X67.25Y120.25
X67.25Y118.75
X67.25Y117.25
X67.25Y115.75
X67.25Y114.25
X67.25Y112.75
X67.25Y111.25
X67.25Y109.75
X67.25Y108.25
X67.25Y106.75
X67.25Y105.25
X67.25Y103.75
X67.25Y102.25
X67.25Y100.75
X67.25Y99.25
X67.25Y97.75
X67.25Y96.25
X67.25Y94.75
X67.25Y93.25
X67.25Y91.75
X67.25Y90.25
X67.25Y88.75
X67.25Y87.25
X67.25Y85.75
X67.25Y84.25
X67.25Y82.75
X67.25Y81.25
X67.25Y79.75
X67.25Y78.25
X67.25Y76.75
X67.25Y75.25
X67.25Y73.75
X67.25Y70.75
X67.25Y49.75
X67.65Y35.2
X67.66Y63.614
X68.35Y34.3
X68.5Y163.5
X68.5Y160.5
X68.5Y157.5
X68.5Y136.5
X68.5Y130.5
X68.5Y127.5
X68.5Y16.5
X68.5Y13.5
X68.5Y10.5
X68.5Y7.5
X68.5Y4.5
X68.54Y68.663
X68.54Y62.337
X68.75Y126.25
X68.75Y124.75
X68.75Y123.25
X68.75Y121.75
X68.75Y120.25
X68.75Y118.75
X68.75Y117.25
X68.75Y115.75
X68.75Y114.25
X68.75Y112.75
X68.75Y111.25
X68.75Y109.75
X68.75Y108.25
X68.75Y106.75
X68.75Y105.25
X68.75Y103.75
X68.75Y102.25
X68.75Y100.75
X68.75Y99.25
X68.75Y97.75
X68.75Y96.25
X68.75Y94.75
X68.75Y93.25
X68.75Y91.75
X68.75Y90.25
X68.75Y88.75
X68.75Y87.25
X68.75Y85.75
X68.75Y84.25
X68.75Y82.75
X68.75Y81.25
X68.75Y79.75
X68.75Y78.25
X68.75Y76.75
X68.75Y75.25
X68.75Y73.75
X68.75Y72.25
X68.75Y49.75
X69.15Y29.6
X69.499Y68.757
X69.85Y28.7
X70.25Y126.25
X70.25Y124.75
X70.25Y123.25
X70.25Y121.75
X70.25Y120.25
X70.25Y118.75
X70.25Y117.25
X70.25Y115.75
X70.25Y114.25
X70.25Y112.75
X70.25Y111.25
X70.25Y109.75
X70.25Y108.25
X70.25Y106.75
X70.25Y105.25
X70.25Y103.75
X70.25Y102.25
X70.25Y100.75
X70.25Y99.25
X70.25Y97.75
X70.25Y96.25
X70.25Y94.75
X70.25Y93.25
X70.25Y91.75
X70.25Y90.25
X70.25Y88.75
X70.25Y87.25
X70.25Y85.75
X70.25Y84.25
X70.25Y82.75
X70.25Y81.25
X70.25Y79.75
X70.25Y78.25
X70.25Y76.75
X70.25Y75.25
X70.25Y73.75
X70.25Y72.25
X70.25Y70.75
X70.25Y49.75
X70.65Y32.1
X71.35Y31.2
X71.5Y163.5
X71.5Y160.5
X71.5Y157.5
X71.5Y136.5
X71.5Y130.5
X71.5Y127.5
X71.5Y25.5
X71.5Y22.5
X71.5Y16.5
X71.5Y13.5
X71.5Y10.5
X71.5Y7.5
X71.5Y4.5
X71.75Y126.25
X71.75Y124.75
X71.75Y123.25
X71.75Y121.75
X71.75Y120.25
X71.75Y118.75
X71.75Y117.25
X71.75Y115.75
X71.75Y114.25
X71.75Y112.75
X71.75Y111.25
X71.75Y109.75
X71.75Y108.25
X71.75Y106.75
X71.75Y105.25
X71.75Y103.75
X71.75Y102.25
X71.75Y100.75
X71.75Y99.25
X71.75Y97.75
X71.75Y96.25
X71.75Y94.75
X71.75Y93.25
X71.75Y91.75
X71.75Y90.25
X71.75Y88.75
X71.75Y87.25
X71.75Y85.75
X71.75Y84.25
X71.75Y82.75
X71.75Y81.25
X71.75Y79.75
X71.75Y78.25
X71.75Y76.75
X71.75Y75.25
X71.75Y73.75
X71.75Y72.25
X71.75Y70.75
X71.75Y49.75
X72.15Y30.85
X72.85Y29.95
X73.245Y57.621
X73.25Y126.25
X73.25Y124.75
X73.25Y123.25
X73.25Y121.75
X73.25Y120.25
X73.25Y118.75
X73.25Y117.25
X73.25Y115.75
X73.25Y114.25
X73.25Y112.75
X73.25Y111.25
X73.25Y109.75
X73.25Y108.25
X73.25Y106.75
X73.25Y105.25
X73.25Y103.75
X73.25Y102.25
X73.25Y100.75
X73.25Y99.25
X73.25Y97.75
X73.25Y96.25
X73.25Y94.75
X73.25Y93.25
X73.25Y91.75
X73.25Y90.25
X73.25Y88.75
X73.25Y87.25
X73.25Y85.75
X73.25Y84.25
X73.25Y82.75
X73.25Y81.25
X73.25Y79.75
X73.25Y78.25
X73.25Y76.75
X73.25Y75.25
X73.25Y73.75
X73.25Y72.25
X73.25Y70.75
X73.25Y49.75
X73.5Y66.635
X73.65Y42.7
X74.35Y41.8
X74.5Y163.5
X74.5Y160.5
X74.5Y157.5
X74.5Y136.5
X74.5Y133.5
X74.5Y130.5
X74.5Y127.5
X74.5Y19.5
X74.5Y16.5
X74.5Y13.5
X74.5Y10.5
X74.5Y7.5
X74.5Y4.5
X74.515Y64.77
X74.75Y126.25
X74.75Y124.75
X74.75Y123.25
X74.75Y121.75
X74.75Y120.25
X74.75Y118.75
X74.75Y117.25
X74.75Y115.75
X74.75Y114.25
X74.75Y112.75
X74.75Y111.25
X74.75Y109.75
X74.75Y108.25
X74.75Y106.75
X74.75Y105.25
X74.75Y103.75
X74.75Y102.25
X74.75Y100.75
X74.75Y99.25
X74.75Y97.75
X74.75Y96.25
X74.75Y94.75
X74.75Y93.25
X74.75Y91.75
X74.75Y90.25
X74.75Y88.75
X74.75Y87.25
X74.75Y85.75
X74.75Y84.25
X74.75Y82.75
X74.75Y81.25
X74.75Y79.75
X74.75Y78.25
X74.75Y76.75
X74.75Y75.25
X74.75Y73.75
X74.75Y72.25
X74.75Y70.75
X74.75Y49.75
X74.98Y63.0
X75.263Y53.115
X75.323Y54.925
X75.641Y62.011
X75.825Y33.5
X76.25Y126.25
X76.25Y124.75
X76.25Y123.25
X76.25Y121.75
X76.25Y120.25
X76.25Y118.75
X76.25Y117.25
X76.25Y115.75
X76.25Y114.25
X76.25Y112.75
X76.25Y111.25
X76.25Y109.75
X76.25Y108.25
X76.25Y106.75
X76.25Y105.25
X76.25Y103.75
X76.25Y102.25
X76.25Y100.75
X76.25Y99.25
X76.25Y97.75
X76.25Y96.25
X76.25Y94.75
X76.25Y93.25
X76.25Y91.75
X76.25Y90.25
X76.25Y88.75
X76.25Y87.25
X76.25Y85.75
X76.25Y84.25
X76.25Y82.75
X76.25Y81.25
X76.25Y79.75
X76.25Y78.25
X76.25Y76.75
X76.25Y75.25
X76.25Y73.75
X76.25Y72.25
X76.25Y70.75
X76.334Y48.189
X77.5Y163.5
X77.5Y160.5
X77.5Y157.5
X77.5Y136.5
X77.5Y133.5
X77.5Y130.5
X77.5Y127.5
X77.5Y31.5
X77.5Y28.5
X77.5Y25.5
X77.5Y22.5
X77.5Y19.5
X77.5Y16.5
X77.5Y13.5
X77.5Y10.5
X77.5Y7.5
X77.5Y4.5
X77.75Y126.25
X77.75Y124.75
X77.75Y123.25
X77.75Y121.75
X77.75Y120.25
X77.75Y118.75
X77.75Y117.25
X77.75Y115.75
X77.75Y114.25
X77.75Y112.75
X77.75Y111.25
X77.75Y109.75
X77.75Y108.25
X77.75Y106.75
X77.75Y105.25
X77.75Y103.75
X77.75Y102.25
X77.75Y100.75
X77.75Y99.25
X77.75Y97.75
X77.75Y96.25
X77.75Y94.75
X77.75Y93.25
X77.75Y91.75
X77.75Y90.25
X77.75Y88.75
X77.75Y87.25
X77.75Y85.75
X77.75Y84.25
X77.75Y82.75
X77.75Y81.25
X77.75Y79.75
X77.75Y78.25
X77.75Y76.75
X77.75Y75.25
X77.75Y73.75
X77.75Y72.25
X77.75Y70.75
X78.698Y35.28
X79.02Y63.0
X79.244Y52.35
X79.269Y50.764
X79.791Y51.644
X79.8Y64.135
X79.8Y61.865
X79.899Y35.652
X80.5Y163.5
X80.5Y160.5
X80.5Y157.5
X80.5Y136.5
X80.5Y133.5
X80.5Y130.5
X80.5Y127.5
X80.5Y124.5
X80.5Y121.5
X80.5Y118.5
X80.5Y115.5
X80.5Y112.5
X80.5Y109.5
X80.5Y106.5
X80.5Y103.5
X80.5Y100.5
X80.5Y97.5
X80.5Y94.5
X80.5Y91.5
X80.5Y88.5
X80.5Y85.5
X80.5Y82.5
X80.5Y46.5
X80.5Y31.5
X80.5Y28.5
X80.5Y25.5
X80.5Y22.5
X80.5Y19.5
X80.5Y16.5
X80.5Y13.5
X80.5Y10.5
X80.5Y7.5
X80.5Y4.5
X80.94Y52.738
X81.258Y51.737
X82.4Y55.7
X82.698Y35.28
X83.5Y163.5
X83.5Y160.5
X83.5Y157.5
X83.5Y136.5
X83.5Y133.5
X83.5Y130.5
X83.5Y127.5
X83.5Y124.5
X83.5Y121.5
X83.5Y118.5
X83.5Y115.5
X83.5Y112.5
X83.5Y109.5
X83.5Y106.5
X83.5Y103.5
X83.5Y100.5
X83.5Y97.5
X83.5Y94.5
X83.5Y91.5
X83.5Y88.5
X83.5Y85.5
X83.5Y82.5
X83.5Y52.5
X83.5Y49.5
X83.5Y46.5
X83.5Y43.5
X83.5Y40.5
X83.5Y37.5
X83.5Y34.5
X83.5Y31.5
X83.5Y28.5
X83.5Y25.5
X83.5Y22.5
X83.5Y19.5
X83.5Y16.5
X83.5Y13.5
X83.5Y10.5
X83.5Y7.5
X83.5Y4.5
X84.62Y80.355
X85.5Y80.72
X85.5Y75.28
X86.5Y163.5
X86.5Y160.5
X86.5Y157.5
X86.5Y136.5
X86.5Y133.5
X86.5Y130.5
X86.5Y127.5
X86.5Y124.5
X86.5Y121.5
X86.5Y118.5
X86.5Y115.5
X86.5Y112.5
X86.5Y109.5
X86.5Y106.5
X86.5Y103.5
X86.5Y100.5
X86.5Y97.5
X86.5Y91.5
X86.5Y88.5
X86.5Y85.5
X86.5Y82.5
X86.5Y52.5
X86.5Y49.5
X86.5Y46.5
X86.5Y40.5
X86.5Y37.5
X86.5Y34.5
X86.5Y31.5
X86.5Y28.5
X86.5Y25.5
X86.5Y22.5
X86.5Y19.5
X86.5Y16.5
X86.5Y13.5
X86.5Y10.5
X86.5Y7.5
X86.5Y4.5
X86.698Y60.22
X86.698Y56.78
X87.255Y66.4
X87.62Y67.28
X87.62Y65.52
X88.62Y80.355
X89.5Y163.5
X89.5Y160.5
X89.5Y157.5
X89.5Y136.5
X89.5Y133.5
X89.5Y130.5
X89.5Y127.5
X89.5Y124.5
X89.5Y121.5
X89.5Y118.5
X89.5Y115.5
X89.5Y112.5
X89.5Y109.5
X89.5Y106.5
X89.5Y103.5
X89.5Y100.5
X89.5Y88.5
X89.5Y85.5
X89.5Y82.5
X89.5Y80.72
X89.5Y52.5
X89.5Y49.5
X89.5Y40.5
X89.5Y37.5
X89.5Y34.5
X89.5Y31.5
X89.5Y28.5
X89.5Y25.5
X89.5Y22.5
X89.5Y19.5
X89.5Y16.5
X89.5Y13.5
X89.5Y10.5
X89.5Y7.5
X89.5Y4.5
X91.746Y72.963
X92.5Y163.5
X92.5Y160.5
X92.5Y157.5
X92.5Y136.5
X92.5Y133.5
X92.5Y130.5
X92.5Y127.5
X92.5Y124.5
X92.5Y121.5
X92.5Y118.5
X92.5Y115.5
X92.5Y112.5
X92.5Y109.5
X92.5Y106.5
X92.5Y103.5
X92.5Y100.5
X92.5Y97.5
X92.5Y94.5
X92.5Y91.5
X92.5Y88.5
X92.5Y85.5
X92.5Y82.5
X92.5Y52.5
X92.5Y49.5
X92.5Y46.5
X92.5Y43.5
X92.5Y40.5
X92.5Y37.5
X92.5Y34.5
X92.5Y31.5
X92.5Y28.5
X92.5Y25.5
X92.5Y22.5
X92.5Y19.5
X92.5Y16.5
X92.5Y13.5
X92.5Y10.5
X92.5Y7.5
X95.5Y163.5
X95.5Y157.5
X95.5Y136.5
X95.5Y133.5
X95.5Y130.5
X95.5Y127.5
X95.5Y124.5
X95.5Y121.5
X95.5Y118.5
X95.5Y115.5
X95.5Y112.5
X95.5Y109.5
X95.5Y106.5
X95.5Y103.5
X95.5Y100.5
X95.5Y97.5
X95.5Y94.5
X95.5Y91.5
X95.5Y88.5
X95.5Y85.5
X95.5Y82.5
X95.5Y52.5
X95.5Y49.5
X95.5Y46.5
X95.5Y43.5
X95.5Y40.5
X95.5Y37.5
X95.5Y34.5
X95.5Y31.5
X95.5Y28.5
X95.5Y25.5
X95.5Y22.5
X95.5Y19.5
X95.5Y16.5
X95.5Y13.5
X95.5Y10.5
X95.825Y66.7
X95.865Y76.0
X98.0Y63.825
X98.175Y68.0
X98.365Y66.7
X98.5Y163.5
X98.5Y136.5
X98.5Y133.5
X98.5Y130.5
X98.5Y127.5
X98.5Y124.5
X98.5Y121.5
X98.5Y118.5
X98.5Y115.5
X98.5Y112.5
X98.5Y109.5
X98.5Y106.5
X98.5Y103.5
X98.5Y100.5
X98.5Y97.5
X98.5Y94.5
X98.5Y91.5
X98.5Y88.5
X98.5Y85.5
X98.5Y82.5
X98.5Y52.5
X98.5Y49.5
X98.5Y46.5
X98.5Y43.5
X98.5Y40.5
X98.5Y37.5
X98.5Y34.5
X98.5Y31.5
X98.5Y28.5
X98.5Y25.5
X98.5Y22.5
X98.5Y19.5
X98.5Y16.5
X98.5Y13.5
X99.95Y73.951
X99.965Y75.4
X101.5Y160.5
X101.5Y157.5
X101.5Y52.5
X101.5Y49.5
X101.5Y46.5
X101.5Y43.5
X101.5Y40.5
X101.5Y37.5
X101.5Y34.5
X101.5Y31.5
X101.5Y28.5
X101.5Y25.5
X101.5Y22.5
X101.5Y19.5
X101.5Y16.5
X102.0Y69.135
X102.25Y73.951
T2
X11.3Y70.5
X20.9Y75.07
X23.2Y76.53
X37.25Y56.7
X40.25Y56.7
X46.23Y153.75
X46.23Y152.75
X54.5Y56.7
X61.25Y56.7
X64.25Y56.7
X65.2Y138.5
X66.5Y138.5
X78.5Y56.7
X84.9Y75.07
X87.2Y76.53
X99.75Y72.64
T3
X3.54Y147.44
X3.74Y159.13
X4.477Y149.703
X4.477Y145.177
X4.677Y161.393
X4.677Y156.867
X6.74Y150.64
X6.74Y144.24
X6.94Y162.33
X6.94Y155.93
X9.003Y149.703
X9.003Y145.177
X9.203Y161.393
X9.203Y156.867
X9.94Y147.44
X10.14Y159.13
X93.86Y159.13
X94.06Y147.44
X94.797Y161.393
X94.797Y156.867
X94.997Y149.703
X94.997Y145.177
X97.06Y162.33
X97.06Y155.93
X97.26Y150.64
X97.26Y144.24
X99.323Y161.393
X99.323Y156.867
X99.523Y149.703
X99.523Y145.177
X100.26Y159.13
X100.46Y147.44
T5
X6.74Y147.44
X6.94Y159.13
X97.06Y159.13
X97.26Y147.44
T6
X46.0Y133.75
X70.0Y133.75
T7
X15.0Y94.5
X15.0Y44.5
X89.0Y94.5
X89.0Y44.5
T4
X26.15Y25.3G85X26.15Y24.4
G05
X26.15Y22.75G85X26.15Y21.85
G05
X67.85Y25.3G85X67.85Y24.4
G05
X67.85Y22.75G85X67.85Y21.85
G05
M30
