G04 #@! TF.GenerationSoftware,KiCad,Pcbnew,9.0.2+dfsg-1*
G04 #@! TF.CreationDate,2026-10-08T18:28:32-04:00*
G04 #@! TF.ProjectId,macpro62-storage-face-2x,6d616370-726f-4363-922d-73746f726167,A0*
G04 #@! TF.SameCoordinates,Original*
G04 #@! TF.FileFunction,Legend,Bot*
G04 #@! TF.FilePolarity,Positive*
%FSLAX46Y46*%
G04 Gerber Fmt 4.6, Leading zero omitted, Abs format (unit mm)*
G04 Created by KiCad (PCBNEW 9.0.2+dfsg-1) date 2026-10-08 18:28:32*
%MOMM*%
%LPD*%
G01*
G04 APERTURE LIST*
G04 Aperture macros list*
%AMRoundRect*
0 Rectangle with rounded corners*
0 $1 Rounding radius*
0 $2 $3 $4 $5 $6 $7 $8 $9 X,Y pos of 4 corners*
0 Add a 4 corners polygon primitive as box body*
4,1,4,$2,$3,$4,$5,$6,$7,$8,$9,$2,$3,0*
0 Add four circle primitives for the rounded corners*
1,1,$1+$1,$2,$3*
1,1,$1+$1,$4,$5*
1,1,$1+$1,$6,$7*
1,1,$1+$1,$8,$9*
0 Add four rect primitives between the rounded corners*
20,1,$1+$1,$2,$3,$4,$5,0*
20,1,$1+$1,$4,$5,$6,$7,0*
20,1,$1+$1,$6,$7,$8,$9,0*
20,1,$1+$1,$8,$9,$2,$3,0*%
%AMFreePoly0*
4,1,19,0.335253,0.335278,0.349898,0.299923,0.349898,-0.000076,0.349847,-0.000199,0.349847,-0.300076,0.335202,-0.335431,0.299847,-0.350076,0.049860,-0.350076,0.014505,-0.335431,-0.000140,-0.300076,-0.000140,-0.050076,-0.300101,-0.050076,-0.335456,-0.035431,-0.350101,-0.000076,-0.350101,0.299923,-0.335456,0.335278,-0.300101,0.349923,0.299898,0.349923,0.335253,0.335278,0.335253,0.335278,
$1*%
%AMFreePoly1*
4,1,19,0.335227,0.335431,0.349872,0.300076,0.349872,0.000174,0.349923,0.000051,0.349923,-0.299923,0.335278,-0.335278,0.299923,-0.349923,-0.300076,-0.349923,-0.335431,-0.335278,-0.350076,-0.299923,-0.350076,0.000051,-0.335431,0.035406,-0.300076,0.050051,-0.000114,0.050051,-0.000114,0.300076,0.014531,0.335431,0.049886,0.350076,0.299872,0.350076,0.335227,0.335431,0.335227,0.335431,
$1*%
%AMFreePoly2*
4,1,19,-0.014531,0.335405,0.000114,0.300050,0.000114,0.050051,0.300076,0.050051,0.335431,0.035406,0.350076,0.000051,0.350076,-0.299949,0.335431,-0.335304,0.300076,-0.349949,-0.299923,-0.349949,-0.335278,-0.335304,-0.349923,-0.299949,-0.349923,0.000051,-0.349872,0.000174,-0.349872,0.300050,-0.335227,0.335405,-0.299872,0.350050,-0.049886,0.350050,-0.014531,0.335405,-0.014531,0.335405,
$1*%
%AMFreePoly3*
4,1,19,0.335431,0.335278,0.350076,0.299923,0.350076,-0.000076,0.335431,-0.035431,0.300076,-0.050076,0.000114,-0.050076,0.000114,-0.300076,-0.014531,-0.335431,-0.049886,-0.350076,-0.299872,-0.350076,-0.335227,-0.335431,-0.349872,-0.300076,-0.349872,-0.000199,-0.349923,-0.000076,-0.349923,0.299923,-0.335278,0.335278,-0.299923,0.349923,0.300076,0.349923,0.335431,0.335278,0.335431,0.335278,
$1*%
G04 Aperture macros list end*
%ADD10C,0.224999*%
%ADD11C,0.000000*%
%ADD12C,9.000000*%
%ADD13C,8.800000*%
%ADD14RoundRect,0.140000X0.170000X-0.140000X0.170000X0.140000X-0.170000X0.140000X-0.170000X-0.140000X0*%
%ADD15RoundRect,0.250000X0.650000X-0.325000X0.650000X0.325000X-0.650000X0.325000X-0.650000X-0.325000X0*%
%ADD16RoundRect,0.135000X0.135000X0.185000X-0.135000X0.185000X-0.135000X-0.185000X0.135000X-0.185000X0*%
%ADD17RoundRect,0.135000X0.185000X-0.135000X0.185000X0.135000X-0.185000X0.135000X-0.185000X-0.135000X0*%
%ADD18RoundRect,0.218750X0.256250X-0.218750X0.256250X0.218750X-0.256250X0.218750X-0.256250X-0.218750X0*%
%ADD19RoundRect,0.150000X0.587500X0.150000X-0.587500X0.150000X-0.587500X-0.150000X0.587500X-0.150000X0*%
%ADD20C,1.100000*%
%ADD21C,1.600000*%
%ADD22R,0.300000X1.550000*%
%ADD23R,1.200000X2.750000*%
%ADD24RoundRect,0.112500X0.187500X0.112500X-0.187500X0.112500X-0.187500X-0.112500X0.187500X-0.112500X0*%
%ADD25RoundRect,0.125000X0.125000X-0.687500X0.125000X0.687500X-0.125000X0.687500X-0.125000X-0.687500X0*%
%ADD26RoundRect,0.140000X0.140000X0.170000X-0.140000X0.170000X-0.140000X-0.170000X0.140000X-0.170000X0*%
%ADD27RoundRect,0.250000X0.250000X0.475000X-0.250000X0.475000X-0.250000X-0.475000X0.250000X-0.475000X0*%
%ADD28RoundRect,0.150000X-0.825000X-0.150000X0.825000X-0.150000X0.825000X0.150000X-0.825000X0.150000X0*%
%ADD29R,2.474000X5.020000*%
%ADD30C,3.800000*%
%ADD31C,5.600000*%
%ADD32RoundRect,0.150000X0.700000X-0.150000X0.700000X0.150000X-0.700000X0.150000X-0.700000X-0.150000X0*%
%ADD33RoundRect,0.250000X1.100000X-0.250000X1.100000X0.250000X-1.100000X0.250000X-1.100000X-0.250000X0*%
%ADD34RoundRect,0.150000X0.825000X0.150000X-0.825000X0.150000X-0.825000X-0.150000X0.825000X-0.150000X0*%
%ADD35R,0.350000X1.400000*%
%ADD36O,1.000000X1.900000*%
%ADD37FreePoly0,180.000000*%
%ADD38R,0.600000X0.250000*%
%ADD39FreePoly1,180.000000*%
%ADD40R,0.300000X2.400000*%
%ADD41FreePoly2,180.000000*%
%ADD42FreePoly3,180.000000*%
%ADD43RoundRect,0.250000X-0.362500X-1.425000X0.362500X-1.425000X0.362500X1.425000X-0.362500X1.425000X0*%
%ADD44RoundRect,0.250000X1.000000X0.650000X-1.000000X0.650000X-1.000000X-0.650000X1.000000X-0.650000X0*%
%ADD45RoundRect,0.200000X0.275000X-0.200000X0.275000X0.200000X-0.275000X0.200000X-0.275000X-0.200000X0*%
%ADD46RoundRect,0.075000X0.650000X0.075000X-0.650000X0.075000X-0.650000X-0.075000X0.650000X-0.075000X0*%
G04 APERTURE END LIST*
D10*
X63892855Y157817772D02*
X63892855Y159317772D01*
X63892855Y159317772D02*
X63392855Y158246343D01*
X63392855Y158246343D02*
X62892855Y159317772D01*
X62892855Y159317772D02*
X62892855Y157817772D01*
X62178569Y157817772D02*
X62178569Y159317772D01*
X62178569Y159317772D02*
X61607140Y159317772D01*
X61607140Y159317772D02*
X61464283Y159246343D01*
X61464283Y159246343D02*
X61392854Y159174915D01*
X61392854Y159174915D02*
X61321426Y159032058D01*
X61321426Y159032058D02*
X61321426Y158817772D01*
X61321426Y158817772D02*
X61392854Y158674915D01*
X61392854Y158674915D02*
X61464283Y158603486D01*
X61464283Y158603486D02*
X61607140Y158532058D01*
X61607140Y158532058D02*
X62178569Y158532058D01*
X60035712Y159317772D02*
X60321426Y159317772D01*
X60321426Y159317772D02*
X60464283Y159246343D01*
X60464283Y159246343D02*
X60535712Y159174915D01*
X60535712Y159174915D02*
X60678569Y158960629D01*
X60678569Y158960629D02*
X60749997Y158674915D01*
X60749997Y158674915D02*
X60749997Y158103486D01*
X60749997Y158103486D02*
X60678569Y157960629D01*
X60678569Y157960629D02*
X60607140Y157889200D01*
X60607140Y157889200D02*
X60464283Y157817772D01*
X60464283Y157817772D02*
X60178569Y157817772D01*
X60178569Y157817772D02*
X60035712Y157889200D01*
X60035712Y157889200D02*
X59964283Y157960629D01*
X59964283Y157960629D02*
X59892854Y158103486D01*
X59892854Y158103486D02*
X59892854Y158460629D01*
X59892854Y158460629D02*
X59964283Y158603486D01*
X59964283Y158603486D02*
X60035712Y158674915D01*
X60035712Y158674915D02*
X60178569Y158746343D01*
X60178569Y158746343D02*
X60464283Y158746343D01*
X60464283Y158746343D02*
X60607140Y158674915D01*
X60607140Y158674915D02*
X60678569Y158603486D01*
X60678569Y158603486D02*
X60749997Y158460629D01*
X59321426Y159174915D02*
X59249998Y159246343D01*
X59249998Y159246343D02*
X59107141Y159317772D01*
X59107141Y159317772D02*
X58749998Y159317772D01*
X58749998Y159317772D02*
X58607141Y159246343D01*
X58607141Y159246343D02*
X58535712Y159174915D01*
X58535712Y159174915D02*
X58464283Y159032058D01*
X58464283Y159032058D02*
X58464283Y158889200D01*
X58464283Y158889200D02*
X58535712Y158674915D01*
X58535712Y158674915D02*
X59392855Y157817772D01*
X59392855Y157817772D02*
X58464283Y157817772D01*
X56178570Y158603486D02*
X56678570Y158603486D01*
X56678570Y157817772D02*
X56678570Y159317772D01*
X56678570Y159317772D02*
X55964284Y159317772D01*
X55464284Y158246343D02*
X54749999Y158246343D01*
X55607141Y157817772D02*
X55107141Y159317772D01*
X55107141Y159317772D02*
X54607141Y157817772D01*
X53249999Y157960629D02*
X53321427Y157889200D01*
X53321427Y157889200D02*
X53535713Y157817772D01*
X53535713Y157817772D02*
X53678570Y157817772D01*
X53678570Y157817772D02*
X53892856Y157889200D01*
X53892856Y157889200D02*
X54035713Y158032058D01*
X54035713Y158032058D02*
X54107142Y158174915D01*
X54107142Y158174915D02*
X54178570Y158460629D01*
X54178570Y158460629D02*
X54178570Y158674915D01*
X54178570Y158674915D02*
X54107142Y158960629D01*
X54107142Y158960629D02*
X54035713Y159103486D01*
X54035713Y159103486D02*
X53892856Y159246343D01*
X53892856Y159246343D02*
X53678570Y159317772D01*
X53678570Y159317772D02*
X53535713Y159317772D01*
X53535713Y159317772D02*
X53321427Y159246343D01*
X53321427Y159246343D02*
X53249999Y159174915D01*
X52607142Y158603486D02*
X52107142Y158603486D01*
X51892856Y157817772D02*
X52607142Y157817772D01*
X52607142Y157817772D02*
X52607142Y159317772D01*
X52607142Y159317772D02*
X51892856Y159317772D01*
X50178570Y157889200D02*
X49964285Y157817772D01*
X49964285Y157817772D02*
X49607142Y157817772D01*
X49607142Y157817772D02*
X49464285Y157889200D01*
X49464285Y157889200D02*
X49392856Y157960629D01*
X49392856Y157960629D02*
X49321427Y158103486D01*
X49321427Y158103486D02*
X49321427Y158246343D01*
X49321427Y158246343D02*
X49392856Y158389200D01*
X49392856Y158389200D02*
X49464285Y158460629D01*
X49464285Y158460629D02*
X49607142Y158532058D01*
X49607142Y158532058D02*
X49892856Y158603486D01*
X49892856Y158603486D02*
X50035713Y158674915D01*
X50035713Y158674915D02*
X50107142Y158746343D01*
X50107142Y158746343D02*
X50178570Y158889200D01*
X50178570Y158889200D02*
X50178570Y159032058D01*
X50178570Y159032058D02*
X50107142Y159174915D01*
X50107142Y159174915D02*
X50035713Y159246343D01*
X50035713Y159246343D02*
X49892856Y159317772D01*
X49892856Y159317772D02*
X49535713Y159317772D01*
X49535713Y159317772D02*
X49321427Y159246343D01*
X47607142Y157889200D02*
X47392857Y157817772D01*
X47392857Y157817772D02*
X47035714Y157817772D01*
X47035714Y157817772D02*
X46892857Y157889200D01*
X46892857Y157889200D02*
X46821428Y157960629D01*
X46821428Y157960629D02*
X46749999Y158103486D01*
X46749999Y158103486D02*
X46749999Y158246343D01*
X46749999Y158246343D02*
X46821428Y158389200D01*
X46821428Y158389200D02*
X46892857Y158460629D01*
X46892857Y158460629D02*
X47035714Y158532058D01*
X47035714Y158532058D02*
X47321428Y158603486D01*
X47321428Y158603486D02*
X47464285Y158674915D01*
X47464285Y158674915D02*
X47535714Y158746343D01*
X47535714Y158746343D02*
X47607142Y158889200D01*
X47607142Y158889200D02*
X47607142Y159032058D01*
X47607142Y159032058D02*
X47535714Y159174915D01*
X47535714Y159174915D02*
X47464285Y159246343D01*
X47464285Y159246343D02*
X47321428Y159317772D01*
X47321428Y159317772D02*
X46964285Y159317772D01*
X46964285Y159317772D02*
X46749999Y159246343D01*
X46178571Y159174915D02*
X46107143Y159246343D01*
X46107143Y159246343D02*
X45964286Y159317772D01*
X45964286Y159317772D02*
X45607143Y159317772D01*
X45607143Y159317772D02*
X45464286Y159246343D01*
X45464286Y159246343D02*
X45392857Y159174915D01*
X45392857Y159174915D02*
X45321428Y159032058D01*
X45321428Y159032058D02*
X45321428Y158889200D01*
X45321428Y158889200D02*
X45392857Y158674915D01*
X45392857Y158674915D02*
X46250000Y157817772D01*
X46250000Y157817772D02*
X45321428Y157817772D01*
X44821429Y159317772D02*
X43821429Y157817772D01*
X43821429Y159317772D02*
X44821429Y157817772D01*
X42178572Y158246343D02*
X41464287Y158246343D01*
X42321429Y157817772D02*
X41821429Y159317772D01*
X41821429Y159317772D02*
X41321429Y157817772D01*
X40535715Y159317772D02*
X40392858Y159317772D01*
X40392858Y159317772D02*
X40250001Y159246343D01*
X40250001Y159246343D02*
X40178573Y159174915D01*
X40178573Y159174915D02*
X40107144Y159032058D01*
X40107144Y159032058D02*
X40035715Y158746343D01*
X40035715Y158746343D02*
X40035715Y158389200D01*
X40035715Y158389200D02*
X40107144Y158103486D01*
X40107144Y158103486D02*
X40178573Y157960629D01*
X40178573Y157960629D02*
X40250001Y157889200D01*
X40250001Y157889200D02*
X40392858Y157817772D01*
X40392858Y157817772D02*
X40535715Y157817772D01*
X40535715Y157817772D02*
X40678573Y157889200D01*
X40678573Y157889200D02*
X40750001Y157960629D01*
X40750001Y157960629D02*
X40821430Y158103486D01*
X40821430Y158103486D02*
X40892858Y158389200D01*
X40892858Y158389200D02*
X40892858Y158746343D01*
X40892858Y158746343D02*
X40821430Y159032058D01*
X40821430Y159032058D02*
X40750001Y159174915D01*
X40750001Y159174915D02*
X40678573Y159246343D01*
X40678573Y159246343D02*
X40535715Y159317772D01*
%LPC*%
D11*
G36*
X79000000Y70500000D02*
G01*
X61000000Y70500000D01*
X61000000Y126500000D01*
X79000000Y126500000D01*
X79000000Y70500000D01*
G37*
G36*
X55000000Y70500000D02*
G01*
X37000000Y70500000D01*
X37000000Y126500000D01*
X55000000Y126500000D01*
X55000000Y70500000D01*
G37*
D12*
G04 #@! TO.C,H1*
X15000000Y44500000D03*
G04 #@! TD*
D13*
G04 #@! TO.C,J20*
X97260000Y147440000D03*
G04 #@! TD*
D12*
G04 #@! TO.C,H3*
X15000000Y94500000D03*
G04 #@! TD*
D13*
G04 #@! TO.C,J22*
X6740000Y147440000D03*
G04 #@! TD*
D12*
G04 #@! TO.C,H4*
X89000000Y94500000D03*
G04 #@! TD*
D13*
G04 #@! TO.C,J21*
X97060000Y159130000D03*
G04 #@! TD*
G04 #@! TO.C,J23*
X6940000Y159130000D03*
G04 #@! TD*
D12*
G04 #@! TO.C,H2*
X89000000Y44500000D03*
G04 #@! TD*
D14*
G04 #@! TO.C,C2*
X51000000Y151520000D03*
X51000000Y152480000D03*
G04 #@! TD*
D15*
G04 #@! TO.C,C15*
X21500000Y76525000D03*
X21500000Y79475000D03*
G04 #@! TD*
D16*
G04 #@! TO.C,R7*
X14510000Y66700000D03*
X13490000Y66700000D03*
G04 #@! TD*
D17*
G04 #@! TO.C,R3*
X41000000Y147490000D03*
X41000000Y148510000D03*
G04 #@! TD*
D16*
G04 #@! TO.C,R10*
X97510000Y66700000D03*
X96490000Y66700000D03*
G04 #@! TD*
D18*
G04 #@! TO.C,D3*
X8000000Y61212500D03*
X8000000Y62787500D03*
G04 #@! TD*
D19*
G04 #@! TO.C,Q4*
X81937500Y37950000D03*
X81937500Y36050000D03*
X80062500Y37000000D03*
G04 #@! TD*
D16*
G04 #@! TO.C,R15*
X77510000Y33500000D03*
X76490000Y33500000D03*
G04 #@! TD*
D15*
G04 #@! TO.C,C16*
X25500000Y76525000D03*
X25500000Y79475000D03*
G04 #@! TD*
D16*
G04 #@! TO.C,R16*
X81510000Y33500000D03*
X80490000Y33500000D03*
G04 #@! TD*
G04 #@! TO.C,R14*
X26510000Y40000000D03*
X25490000Y40000000D03*
G04 #@! TD*
D20*
G04 #@! TO.C,J6*
X60000000Y56500000D03*
D21*
X80000000Y56500000D03*
D22*
X60750000Y51230000D03*
X61000000Y58770000D03*
X61250000Y51230000D03*
X61500000Y58770000D03*
X61750000Y51230000D03*
X62000000Y58770000D03*
X62250000Y51230000D03*
X62500000Y58770000D03*
X62750000Y51230000D03*
X63000000Y58770000D03*
X63250000Y51230000D03*
X63500000Y58770000D03*
X63750000Y51230000D03*
X64000000Y58770000D03*
X64250000Y51230000D03*
X64500000Y58770000D03*
X64750000Y51230000D03*
X65000000Y58770000D03*
X65250000Y51230000D03*
X65500000Y58770000D03*
X65750000Y51230000D03*
X66000000Y58770000D03*
X66250000Y51230000D03*
X66500000Y58770000D03*
X66750000Y51230000D03*
X67000000Y58770000D03*
X67250000Y51230000D03*
X67500000Y58770000D03*
X67750000Y51230000D03*
X68000000Y58770000D03*
X68250000Y51230000D03*
X68500000Y58770000D03*
X68750000Y51230000D03*
X69000000Y58770000D03*
X69250000Y51230000D03*
X69500000Y58770000D03*
X69750000Y51230000D03*
X70000000Y58770000D03*
X70250000Y51230000D03*
X70500000Y58770000D03*
X70750000Y51230000D03*
X71000000Y58770000D03*
X71250000Y51230000D03*
X71500000Y58770000D03*
X71750000Y51230000D03*
X72000000Y58770000D03*
X72250000Y51230000D03*
X72500000Y58770000D03*
X72750000Y51230000D03*
X73000000Y58770000D03*
X73250000Y51230000D03*
X73500000Y58770000D03*
X73750000Y51230000D03*
X74000000Y58770000D03*
X74250000Y51230000D03*
X74500000Y58770000D03*
X74750000Y51230000D03*
X75000000Y58770000D03*
X77250000Y51230000D03*
X77500000Y58770000D03*
X77750000Y51230000D03*
X78000000Y58770000D03*
X78250000Y51230000D03*
X78500000Y58770000D03*
X78750000Y51230000D03*
X79000000Y58770000D03*
X79250000Y51230000D03*
D23*
X59650000Y52000000D03*
X80350000Y52000000D03*
G04 #@! TD*
D16*
G04 #@! TO.C,R12*
X22510000Y33500000D03*
X21490000Y33500000D03*
G04 #@! TD*
D14*
G04 #@! TO.C,C22*
X102000000Y67520000D03*
X102000000Y68480000D03*
G04 #@! TD*
D16*
G04 #@! TO.C,R9*
X97510000Y68000000D03*
X96490000Y68000000D03*
G04 #@! TD*
D24*
G04 #@! TO.C,D6*
X80050000Y49000000D03*
X77950000Y49000000D03*
G04 #@! TD*
D25*
G04 #@! TO.C,U6*
X46975000Y63387500D03*
X46325000Y63387500D03*
X45675000Y63387500D03*
X45025000Y63387500D03*
X45025000Y67612500D03*
X45675000Y67612500D03*
X46325000Y67612500D03*
X46975000Y67612500D03*
G04 #@! TD*
D26*
G04 #@! TO.C,C11*
X16980000Y76000000D03*
X16020000Y76000000D03*
G04 #@! TD*
D19*
G04 #@! TO.C,Q2*
X26937500Y37950000D03*
X26937500Y36050000D03*
X25062500Y37000000D03*
G04 #@! TD*
D14*
G04 #@! TO.C,C32*
X73500000Y65020000D03*
X73500000Y65980000D03*
G04 #@! TD*
G04 #@! TO.C,C6*
X60000000Y142520000D03*
X60000000Y143480000D03*
G04 #@! TD*
G04 #@! TO.C,C31*
X49500000Y65020000D03*
X49500000Y65980000D03*
G04 #@! TD*
D27*
G04 #@! TO.C,C28*
X63950000Y63000000D03*
X62050000Y63000000D03*
G04 #@! TD*
G04 #@! TO.C,C29*
X77950000Y63000000D03*
X76050000Y63000000D03*
G04 #@! TD*
D14*
G04 #@! TO.C,C14*
X9000000Y67520000D03*
X9000000Y68480000D03*
G04 #@! TD*
D15*
G04 #@! TO.C,C7*
X63000000Y148525000D03*
X63000000Y151475000D03*
G04 #@! TD*
D26*
G04 #@! TO.C,C4*
X44480000Y145500000D03*
X43520000Y145500000D03*
G04 #@! TD*
D15*
G04 #@! TO.C,C24*
X89500000Y76525000D03*
X89500000Y79475000D03*
G04 #@! TD*
D20*
G04 #@! TO.C,J5*
X36000000Y56500000D03*
D21*
X56000000Y56500000D03*
D22*
X36750000Y51230000D03*
X37000000Y58770000D03*
X37250000Y51230000D03*
X37500000Y58770000D03*
X37750000Y51230000D03*
X38000000Y58770000D03*
X38250000Y51230000D03*
X38500000Y58770000D03*
X38750000Y51230000D03*
X39000000Y58770000D03*
X39250000Y51230000D03*
X39500000Y58770000D03*
X39750000Y51230000D03*
X40000000Y58770000D03*
X40250000Y51230000D03*
X40500000Y58770000D03*
X40750000Y51230000D03*
X41000000Y58770000D03*
X41250000Y51230000D03*
X41500000Y58770000D03*
X41750000Y51230000D03*
X42000000Y58770000D03*
X42250000Y51230000D03*
X42500000Y58770000D03*
X42750000Y51230000D03*
X43000000Y58770000D03*
X43250000Y51230000D03*
X43500000Y58770000D03*
X43750000Y51230000D03*
X44000000Y58770000D03*
X44250000Y51230000D03*
X44500000Y58770000D03*
X44750000Y51230000D03*
X45000000Y58770000D03*
X45250000Y51230000D03*
X45500000Y58770000D03*
X45750000Y51230000D03*
X46000000Y58770000D03*
X46250000Y51230000D03*
X46500000Y58770000D03*
X46750000Y51230000D03*
X47000000Y58770000D03*
X47250000Y51230000D03*
X47500000Y58770000D03*
X47750000Y51230000D03*
X48000000Y58770000D03*
X48250000Y51230000D03*
X48500000Y58770000D03*
X48750000Y51230000D03*
X49000000Y58770000D03*
X49250000Y51230000D03*
X49500000Y58770000D03*
X49750000Y51230000D03*
X50000000Y58770000D03*
X50250000Y51230000D03*
X50500000Y58770000D03*
X50750000Y51230000D03*
X51000000Y58770000D03*
X53250000Y51230000D03*
X53500000Y58770000D03*
X53750000Y51230000D03*
X54000000Y58770000D03*
X54250000Y51230000D03*
X54500000Y58770000D03*
X54750000Y51230000D03*
X55000000Y58770000D03*
X55250000Y51230000D03*
D23*
X35650000Y52000000D03*
X56350000Y52000000D03*
G04 #@! TD*
D28*
G04 #@! TO.C,U3*
X13025000Y70095000D03*
X13025000Y71365000D03*
X13025000Y72635000D03*
X13025000Y73905000D03*
X17975000Y73905000D03*
X17975000Y72635000D03*
X17975000Y71365000D03*
X17975000Y70095000D03*
G04 #@! TD*
D26*
G04 #@! TO.C,C10*
X10380000Y75400000D03*
X9420000Y75400000D03*
G04 #@! TD*
D15*
G04 #@! TO.C,C23*
X85500000Y76525000D03*
X85500000Y79475000D03*
G04 #@! TD*
D29*
G04 #@! TO.C,L1*
X26100000Y72000000D03*
X20900000Y72000000D03*
G04 #@! TD*
D15*
G04 #@! TO.C,C8*
X66500000Y148525000D03*
X66500000Y151475000D03*
G04 #@! TD*
D29*
G04 #@! TO.C,L2*
X90100000Y72000000D03*
X84900000Y72000000D03*
G04 #@! TD*
D19*
G04 #@! TO.C,Q3*
X77937500Y37950000D03*
X77937500Y36050000D03*
X76062500Y37000000D03*
G04 #@! TD*
D16*
G04 #@! TO.C,R8*
X12010000Y68000000D03*
X10990000Y68000000D03*
G04 #@! TD*
G04 #@! TO.C,R6*
X14510000Y68000000D03*
X13490000Y68000000D03*
G04 #@! TD*
D27*
G04 #@! TO.C,C25*
X39950000Y63000000D03*
X38050000Y63000000D03*
G04 #@! TD*
D17*
G04 #@! TO.C,R1*
X42500000Y151990000D03*
X42500000Y153010000D03*
G04 #@! TD*
D19*
G04 #@! TO.C,Q1*
X22937500Y37950000D03*
X22937500Y36050000D03*
X21062500Y37000000D03*
G04 #@! TD*
D16*
G04 #@! TO.C,R13*
X26510000Y33500000D03*
X25490000Y33500000D03*
G04 #@! TD*
G04 #@! TO.C,R11*
X100010000Y68000000D03*
X98990000Y68000000D03*
G04 #@! TD*
D26*
G04 #@! TO.C,C13*
X11980000Y66700000D03*
X11020000Y66700000D03*
G04 #@! TD*
D14*
G04 #@! TO.C,C30*
X79800000Y62520000D03*
X79800000Y63480000D03*
G04 #@! TD*
D18*
G04 #@! TO.C,D4*
X98000000Y61212500D03*
X98000000Y62787500D03*
G04 #@! TD*
D26*
G04 #@! TO.C,C20*
X97480000Y76000000D03*
X96520000Y76000000D03*
G04 #@! TD*
G04 #@! TO.C,C21*
X99980000Y66700000D03*
X99020000Y66700000D03*
G04 #@! TD*
D30*
G04 #@! TO.C,MH1*
X46000000Y133750000D03*
D31*
X46000000Y133750000D03*
G04 #@! TD*
D17*
G04 #@! TO.C,R19*
X98000000Y64490000D03*
X98000000Y65510000D03*
G04 #@! TD*
D16*
G04 #@! TO.C,R20*
X17510000Y60000000D03*
X16490000Y60000000D03*
G04 #@! TD*
D32*
G04 #@! TO.C,J3*
X18350000Y17750000D03*
X18350000Y19000000D03*
X18350000Y20250000D03*
X18350000Y21500000D03*
X18350000Y22750000D03*
X18350000Y24000000D03*
X18350000Y25250000D03*
X18350000Y26500000D03*
X18350000Y27750000D03*
X18350000Y29000000D03*
X18350000Y30250000D03*
X18350000Y31500000D03*
X18350000Y32750000D03*
X18350000Y34000000D03*
X18350000Y35250000D03*
D33*
X15150000Y15900000D03*
X15150000Y37100000D03*
G04 #@! TD*
D34*
G04 #@! TO.C,U8*
X30475000Y151905000D03*
X30475000Y150635000D03*
X30475000Y149365000D03*
X30475000Y148095000D03*
X25525000Y148095000D03*
X25525000Y149365000D03*
X25525000Y150635000D03*
X25525000Y151905000D03*
G04 #@! TD*
D20*
G04 #@! TO.C,J1*
X26677500Y20525000D03*
X67322500Y20525000D03*
D35*
X28100000Y21100000D03*
X28700000Y21100000D03*
X29300000Y21100000D03*
X29900000Y21100000D03*
X30500000Y21100000D03*
X31100000Y21100000D03*
X31700000Y21100000D03*
X32300000Y21100000D03*
X32900000Y21100000D03*
X33500000Y21100000D03*
X34100000Y21100000D03*
X34700000Y21100000D03*
X35300000Y21100000D03*
X35900000Y21100000D03*
X36500000Y21100000D03*
X37100000Y21100000D03*
X37700000Y21100000D03*
X38300000Y21100000D03*
X38900000Y21100000D03*
X39500000Y21100000D03*
X40100000Y21100000D03*
X40700000Y21100000D03*
X41300000Y21100000D03*
X41900000Y21100000D03*
X42500000Y21100000D03*
X43100000Y21100000D03*
X43700000Y21100000D03*
X44300000Y21100000D03*
X44900000Y21100000D03*
X45500000Y21100000D03*
X46100000Y21100000D03*
X46700000Y21100000D03*
X47300000Y21100000D03*
X47900000Y21100000D03*
X48500000Y21100000D03*
X49100000Y21100000D03*
X49700000Y21100000D03*
X51500000Y21100000D03*
X52100000Y21100000D03*
X52700000Y21100000D03*
X53300000Y21100000D03*
X53900000Y21100000D03*
X54500000Y21100000D03*
X55100000Y21100000D03*
X55700000Y21100000D03*
X56300000Y21100000D03*
X56900000Y21100000D03*
X57500000Y21100000D03*
X58100000Y21100000D03*
X58700000Y21100000D03*
X59300000Y21100000D03*
X59900000Y21100000D03*
X60500000Y21100000D03*
X61100000Y21100000D03*
X61700000Y21100000D03*
X62300000Y21100000D03*
X62900000Y21100000D03*
X63500000Y21100000D03*
X64100000Y21100000D03*
X64700000Y21100000D03*
X65300000Y21100000D03*
X65900000Y21100000D03*
X28100000Y24050000D03*
X28700000Y24050000D03*
X29300000Y24050000D03*
X29900000Y24050000D03*
X30500000Y24050000D03*
X31100000Y24050000D03*
X31700000Y24050000D03*
X32300000Y24050000D03*
X32900000Y24050000D03*
X33500000Y24050000D03*
X34100000Y24050000D03*
X34700000Y24050000D03*
X35300000Y24050000D03*
X35900000Y24050000D03*
X36500000Y24050000D03*
X37100000Y24050000D03*
X37700000Y24050000D03*
X38300000Y24050000D03*
X38900000Y24050000D03*
X39500000Y24050000D03*
X40100000Y24050000D03*
X40700000Y24050000D03*
X41300000Y24050000D03*
X41900000Y24050000D03*
X42500000Y24050000D03*
X43100000Y24050000D03*
X43700000Y24050000D03*
X44300000Y24050000D03*
X44900000Y24050000D03*
X45500000Y24050000D03*
X46100000Y24050000D03*
X46700000Y24050000D03*
X47300000Y24050000D03*
X47900000Y24050000D03*
X48500000Y24050000D03*
X49100000Y24050000D03*
X49700000Y24050000D03*
X51500000Y24050000D03*
X52100000Y24050000D03*
X52700000Y24050000D03*
X53300000Y24050000D03*
X53900000Y24050000D03*
X54500000Y24050000D03*
X55100000Y24050000D03*
X55700000Y24050000D03*
X56300000Y24050000D03*
X56900000Y24050000D03*
X57500000Y24050000D03*
X58100000Y24050000D03*
X58700000Y24050000D03*
X59300000Y24050000D03*
X59900000Y24050000D03*
X60500000Y24050000D03*
X61100000Y24050000D03*
X61700000Y24050000D03*
X62300000Y24050000D03*
X62900000Y24050000D03*
X63500000Y24050000D03*
X64100000Y24050000D03*
X64700000Y24050000D03*
X65300000Y24050000D03*
X65900000Y24050000D03*
D36*
X26150000Y24850000D03*
X26150000Y22300000D03*
X67850000Y24850000D03*
X67850000Y22300000D03*
G04 #@! TD*
D26*
G04 #@! TO.C,C18*
X101580000Y75400000D03*
X100620000Y75400000D03*
G04 #@! TD*
D16*
G04 #@! TO.C,R17*
X81510000Y40000000D03*
X80490000Y40000000D03*
G04 #@! TD*
D15*
G04 #@! TO.C,C9*
X9900000Y70525000D03*
X9900000Y73475000D03*
G04 #@! TD*
D19*
G04 #@! TO.C,Q7*
X85937500Y59450000D03*
X85937500Y57550000D03*
X84062500Y58500000D03*
G04 #@! TD*
D17*
G04 #@! TO.C,R18*
X8000000Y64490000D03*
X8000000Y65510000D03*
G04 #@! TD*
D27*
G04 #@! TO.C,C26*
X53950000Y63000000D03*
X52050000Y63000000D03*
G04 #@! TD*
D25*
G04 #@! TO.C,U7*
X70975000Y63387500D03*
X70325000Y63387500D03*
X69675000Y63387500D03*
X69025000Y63387500D03*
X69025000Y67612500D03*
X69675000Y67612500D03*
X70325000Y67612500D03*
X70975000Y67612500D03*
G04 #@! TD*
D15*
G04 #@! TO.C,C3*
X38000000Y148525000D03*
X38000000Y151475000D03*
G04 #@! TD*
D37*
G04 #@! TO.C,U1*
X46910000Y150900000D03*
D38*
X46910000Y150230000D03*
X46910000Y149770000D03*
D39*
X46910000Y149100000D03*
D40*
X46230000Y150000000D03*
X45740000Y150000000D03*
D41*
X45090000Y149100000D03*
D38*
X45090000Y149770000D03*
X45090000Y150230000D03*
D42*
X45090000Y150900000D03*
G04 #@! TD*
D17*
G04 #@! TO.C,R4*
X49500000Y151490000D03*
X49500000Y152510000D03*
G04 #@! TD*
D43*
G04 #@! TO.C,R5*
X53037500Y150000000D03*
X58962500Y150000000D03*
G04 #@! TD*
D34*
G04 #@! TO.C,U4*
X97975000Y73905000D03*
X97975000Y72635000D03*
X97975000Y71365000D03*
X97975000Y70095000D03*
X93025000Y70095000D03*
X93025000Y71365000D03*
X93025000Y72635000D03*
X93025000Y73905000D03*
G04 #@! TD*
D44*
G04 #@! TO.C,D1*
X22500000Y66400000D03*
X18500000Y66400000D03*
G04 #@! TD*
D14*
G04 #@! TO.C,C27*
X55800000Y62520000D03*
X55800000Y63480000D03*
G04 #@! TD*
D45*
G04 #@! TO.C,R2*
X42500000Y147175000D03*
X42500000Y148825000D03*
G04 #@! TD*
D44*
G04 #@! TO.C,D2*
X92500000Y66400000D03*
X88500000Y66400000D03*
G04 #@! TD*
D15*
G04 #@! TO.C,C17*
X101100000Y70525000D03*
X101100000Y73475000D03*
G04 #@! TD*
D19*
G04 #@! TO.C,Q6*
X19937500Y57950000D03*
X19937500Y56050000D03*
X18062500Y57000000D03*
G04 #@! TD*
D26*
G04 #@! TO.C,C12*
X14480000Y76000000D03*
X13520000Y76000000D03*
G04 #@! TD*
G04 #@! TO.C,C33*
X28480000Y145500000D03*
X27520000Y145500000D03*
G04 #@! TD*
D24*
G04 #@! TO.C,D5*
X25550000Y50000000D03*
X23450000Y50000000D03*
G04 #@! TD*
D46*
G04 #@! TO.C,U2*
X58200000Y144000000D03*
X58200000Y143500000D03*
X58200000Y143000000D03*
X58200000Y142500000D03*
X58200000Y142000000D03*
X53800000Y142000000D03*
X53800000Y142500000D03*
X53800000Y143000000D03*
X53800000Y143500000D03*
X53800000Y144000000D03*
G04 #@! TD*
D26*
G04 #@! TO.C,C19*
X94980000Y76000000D03*
X94020000Y76000000D03*
G04 #@! TD*
D14*
G04 #@! TO.C,C1*
X49500000Y147520000D03*
X49500000Y148480000D03*
G04 #@! TD*
D19*
G04 #@! TO.C,Q5*
X15937500Y57950000D03*
X15937500Y56050000D03*
X14062500Y57000000D03*
G04 #@! TD*
D26*
G04 #@! TO.C,C5*
X51980000Y145500000D03*
X51020000Y145500000D03*
G04 #@! TD*
D30*
G04 #@! TO.C,MH2*
X70000000Y133750000D03*
D31*
X70000000Y133750000D03*
G04 #@! TD*
%LPD*%
M02*
